<?xml version="1.0" encoding="UTF-8"?><svg fill="currentColor" xmlns="http://www.w3.org/2000/svg" viewBox="0 0 24 24"><g id="j"><path d="M16,2.25h-6c-2.62,0-4.75,2.13-4.75,4.75v.25h-1.25c-.41,0-.75,.34-.75,.75s.34,.75,.75,.75h1.25v2.5h-1.25c-.41,0-.75,.34-.75,.75s.34,.75,.75,.75h1.25v2.5h-1.25c-.41,0-.75,.34-.75,.75s.34,.75,.75,.75h1.25v.25c0,2.62,2.13,4.75,4.75,4.75h6c2.62,0,4.75-2.13,4.75-4.75V7c0-2.62-2.13-4.75-4.75-4.75Zm-6.25,15.75c0,.41-.34,.75-.75,.75s-.75-.34-.75-.75V6c0-.41,.34-.75,.75-.75s.75,.34,.75,.75v12Zm2.25-4.75h3c.41,0,.75,.34,.75,.75s-.34,.75-.75,.75h-3c-.41,0-.75-.34-.75-.75s.34-.75,.75-.75Zm5,4.5h-5c-.41,0-.75-.34-.75-.75s.34-.75,.75-.75h5c.41,0,.75,.34,.75,.75s-.34,.75-.75,.75Z"/></g></svg>