<?xml version="1.0" encoding="UTF-8"?><svg fill="currentColor" xmlns="http://www.w3.org/2000/svg" viewBox="0 0 24 24"><g id="g"><g><path d="M18.75,10.5c0-4.55-3.7-8.25-8.25-8.25S2.25,5.95,2.25,10.5v5.5c0,1.52,1.23,2.75,2.75,2.75h5.5c4.55,0,8.25-3.7,8.25-8.25Zm-12.5-2.5c0-.41,.34-.75,.75-.75h7c.41,0,.75,.34,.75,.75s-.34,.75-.75,.75H7c-.41,0-.75-.34-.75-.75Zm3,3c0-.41,.34-.75,.75-.75h4c.41,0,.75,.34,.75,.75s-.34,.75-.75,.75h-4c-.41,0-.75-.34-.75-.75Z"/><path d="M20.03,8.47c.14,.66,.22,1.33,.22,2.03,0,5.38-4.37,9.75-9.75,9.75h-1.73c1.37,.96,3,1.5,4.73,1.5h5.5c1.52,0,2.75-1.23,2.75-2.75v-5.5c0-1.84-.62-3.61-1.72-5.03Z"/></g></g></svg>