<?xml version="1.0" encoding="UTF-8"?><svg fill="currentColor" xmlns="http://www.w3.org/2000/svg" viewBox="0 0 24 24"><g id="d"><g><path d="M15.06,13.94c-.13-.13-.23-.13-.35,0l-.66,.66c.4,.25,.81,.47,1.24,.68,.08,.04,.19,.02,.27-.06l.22-.22c.1-.1,.1-.26,0-.35l-.71-.71Z"/><path d="M10.11,9s-.11-.07-.18-.07-.13,.02-.18,.07l-.22,.22c-.08,.08-.1,.19-.06,.27,.2,.42,.43,.83,.67,1.23l.66-.66c.1-.1,.1-.26,0-.35l-.71-.71Z"/><path d="M16,2.25h-6c-2.36,0-4.31,1.74-4.67,4h-1.33c-.41,0-.75,.34-.75,.75s.34,.75,.75,.75h1.25v3.5h-1.25c-.41,0-.75,.34-.75,.75s.34,.75,.75,.75h1.25v3.5h-1.25c-.41,0-.75,.34-.75,.75s.34,.75,.75,.75h1.33c.36,2.26,2.31,4,4.67,4h6c2.62,0,4.75-2.13,4.75-4.75V7c0-2.62-2.13-4.75-4.75-4.75Zm.82,13.82l-.22,.22c-.34,.34-.79,.52-1.24,.52-.25,0-.5-.05-.73-.17-1.42-.68-2.71-1.58-3.82-2.69s-2.01-2.39-2.69-3.81c-.31-.66-.17-1.46,.35-1.98l.22-.22c.68-.68,1.79-.68,2.48,0l.71,.71c.68,.68,.68,1.79,0,2.47l-.71,.71s-.09,.08-.15,.11c.27,.33,.55,.64,.85,.95s.62,.59,.95,.85c.03-.05,.07-.1,.11-.15l.71-.71c.68-.68,1.79-.68,2.47,0l.71,.71c.68,.68,.68,1.79,0,2.47Z"/></g></g></svg>