<?xml version="1.0" encoding="UTF-8"?><svg fill="currentColor" xmlns="http://www.w3.org/2000/svg" viewBox="0 0 24 24"><g id="t"><path d="M18.75,11.33v-.33c0-3.72-3.03-6.75-6.75-6.75s-6.75,3.03-6.75,6.75v.33c-1.71,.35-3,1.86-3,3.67,0,2.07,1.68,3.75,3.75,3.75h1c1.52,0,2.75-1.23,2.75-2.75v-2c0-1.52-1.23-2.75-2.75-2.75h-.25v-.25c0-2.9,2.35-5.25,5.25-5.25s5.25,2.35,5.25,5.25v.25h-.25c-1.52,0-2.75,1.23-2.75,2.75v2c0,1.52,1.23,2.75,2.75,2.75h.25v.25c0,.69-.56,1.25-1.25,1.25h-2c-.41,0-.75,.34-.75,.75s.34,.75,.75,.75h2c1.52,0,2.75-1.23,2.75-2.75v-.33c1.71-.35,3-1.86,3-3.67s-1.29-3.33-3-3.67Z"/></g></svg>