<?xml version="1.0" encoding="UTF-8"?><svg fill="currentColor" xmlns="http://www.w3.org/2000/svg" viewBox="0 0 24 24"><g id="p"><g><path d="M19,16.25h-4.59c-.47,0-.91,.18-1.24,.51l-.41,.41s-.11,.07-.18,.07h-3.17c-.07,0-.13-.03-.18-.07l-.41-.41c-.33-.33-.77-.51-1.24-.51H3c-.41,0-.75,.34-.75,.75v1c0,1.52,1.23,2.75,2.75,2.75h12c1.52,0,2.75-1.23,2.75-2.75v-1c0-.41-.34-.75-.75-.75Z"/><path d="M19,2.25h-4c-1.52,0-2.75,1.23-2.75,2.75v3c0,.96,.79,1.75,1.75,1.75,.14,0,.25,.11,.25,.25v1c0,.28,.15,.53,.4,.66,.11,.06,.23,.09,.35,.09,.15,0,.29-.04,.42-.13l2.75-1.83s.09-.04,.14-.04h.7c1.52,0,2.75-1.23,2.75-2.75v-2c0-1.52-1.23-2.75-2.75-2.75Z"/><path d="M9.88,15.7l.05,.05h2.14l.05-.05c.61-.61,1.43-.95,2.3-.95h4.34v-3.5h-.07l-2.43,1.62c-.37,.25-.8,.38-1.25,.38-.37,0-.74-.09-1.06-.27-.73-.39-1.19-1.15-1.19-1.98-1.17-.49-2-1.65-2-3v-1.75H6c-1.52,0-2.75,1.23-2.75,2.75v5.75H7.59c.87,0,1.68,.34,2.3,.95Z"/></g></g></svg>