<?xml version="1.0" encoding="UTF-8"?><svg fill="currentColor" xmlns="http://www.w3.org/2000/svg" viewBox="0 0 24 24"><g id="q"><g><path d="M19,6.25h-6c-1.52,0-2.75,1.23-2.75,2.75v2c0,1.52,1.23,2.75,2.75,2.75h1c.14,0,.25,.11,.25,.25v2c0,.3,.18,.58,.46,.69,.09,.04,.19,.06,.29,.06,.2,0,.39-.08,.53-.22l2.71-2.71s.11-.07,.18-.07h.59c1.52,0,2.75-1.23,2.75-2.75v-2c0-1.52-1.23-2.75-2.75-2.75Z"/><path d="M14.14,18.08c-.84-.35-1.39-1.16-1.39-2.08v-.76c-2.23-.13-4-1.98-4-4.24v-2c0-2.34,1.91-4.25,4.25-4.25h2.52c-.52-1.45-1.89-2.5-3.52-2.5H7c-2.07,0-3.75,1.68-3.75,3.75v12c0,2.07,1.68,3.75,3.75,3.75h5c2.03,0,3.67-1.62,3.74-3.63-.24,.08-.48,.13-.74,.13-.3,0-.59-.06-.86-.17Zm-3.14,.67h-3c-.41,0-.75-.34-.75-.75s.34-.75,.75-.75h3c.41,0,.75,.34,.75,.75s-.34,.75-.75,.75Z"/></g></g></svg>