<?xml version="1.0" encoding="UTF-8"?><svg fill="currentColor" xmlns="http://www.w3.org/2000/svg" viewBox="0 0 24 24"><g id="e"><path d="M20.06,9.39c-.3-.1-.54-.32-.67-.61-.13-.29-.13-.61,0-.9,.46-1.02,.24-2.18-.57-2.96-.81-.78-1.98-.96-2.98-.46-.29,.14-.61,.16-.9,.04-.3-.12-.52-.35-.64-.64-.39-1.05-1.39-1.69-2.49-1.69-1.12,.02-2.07,.72-2.43,1.78-.1,.3-.32,.54-.61,.67-.29,.13-.61,.13-.9,0-1.02-.46-2.18-.24-2.96,.57-.78,.81-.96,1.98-.46,2.98,.14,.29,.16,.61,.04,.9-.12,.3-.35,.52-.64,.63-1.05,.4-1.71,1.38-1.69,2.5s.72,2.07,1.78,2.43c.3,.1,.54,.32,.67,.61,.13,.29,.13,.61,0,.9-.46,1.02-.24,2.18,.57,2.96,.81,.78,1.98,.96,2.98,.46,.29-.14,.61-.16,.9-.04,.3,.12,.52,.35,.64,.64,.39,1.03,1.34,1.69,2.44,1.69h.05c1.12-.02,2.07-.72,2.43-1.78,.1-.3,.32-.54,.61-.67,.29-.13,.61-.13,.9,0,1.02,.46,2.18,.24,2.96-.57,.78-.81,.96-1.98,.46-2.98-.14-.29-.16-.61-.04-.9,.12-.3,.35-.52,.64-.63,1.05-.4,1.71-1.38,1.69-2.5s-.72-2.07-1.78-2.43Zm-4.47,1.08l-2.58,3.22c-.46,.58-1.15,.91-1.88,.91-.04,0-.07,0-.11,0-.78-.03-1.47-.42-1.91-1.07l-.74-1.1c-.23-.34-.14-.81,.21-1.04,.34-.23,.81-.14,1.04,.21l.74,1.1c.16,.25,.43,.39,.72,.41,.29,.02,.57-.11,.76-.34l2.58-3.22c.26-.32,.73-.38,1.05-.12,.32,.26,.38,.73,.12,1.05Z"/></g></svg>