<?xml version="1.0" encoding="UTF-8"?><svg fill="currentColor" xmlns="http://www.w3.org/2000/svg" viewBox="0 0 24 24"><g id="n"><path d="M12,2.25C6.62,2.25,2.25,6.62,2.25,12v7c0,1.52,1.23,2.75,2.75,2.75h7c5.38,0,9.75-4.37,9.75-9.75S17.38,2.25,12,2.25Zm.75,14.75c0,.41-.34,.75-.75,.75s-.75-.34-.75-.75v-1c0-.41,.34-.75,.75-.75s.75,.34,.75,.75v1Zm.88-5.78c-.33,.24-.88,.75-.88,1.52v.26c0,.41-.34,.75-.75,.75s-.75-.34-.75-.75v-.26c0-1.04,.54-2.04,1.49-2.73,.32-.24,.51-.61,.51-1.01,0-.69-.56-1.25-1.25-1.25s-1.25,.56-1.25,1.25c0,.41-.34,.75-.75,.75s-.75-.34-.75-.75c0-1.52,1.23-2.75,2.75-2.75s2.75,1.23,2.75,2.75c0,.87-.42,1.7-1.12,2.22Z"/></g></svg>