<?xml version="1.0" encoding="UTF-8"?><svg fill="currentColor" xmlns="http://www.w3.org/2000/svg" viewBox="0 0 24 24"><g id="f"><g><path d="M8,5.75c.41,0,.75-.34,.75-.75s-.34-.75-.75-.75h-2c-1.52,0-2.75,1.23-2.75,2.75v5c0,.41,.34,.75,.75,.75s.75-.34,.75-.75V7c0-.69,.56-1.25,1.25-1.25h2Z"/><path d="M20,11.25c-.41,0-.75,.34-.75,.75v5c0,.69-.56,1.25-1.25,1.25h-2c-.41,0-.75,.34-.75,.75s.34,.75,.75,.75h2c1.52,0,2.75-1.23,2.75-2.75v-5c0-.41-.34-.75-.75-.75Z"/><path d="M17.1,11.89l1.28-2.2V3.25h-6.09c-.93,0-1.76,.64-2.02,1.55l-.58,2.08c-.18,.66-.05,1.35,.36,1.89,.4,.53,1,.83,1.66,.83l2.17-.06v1.46c0,.67,.36,1.26,.94,1.56,.25,.13,.51,.19,.77,.19,.59,0,1.17-.31,1.49-.86Z"/><path d="M20,3.25h-.12v6.35h.12c.96,0,1.75-.79,1.75-1.75v-2.85c0-.96-.79-1.75-1.75-1.75Z"/><path d="M2.25,16.15v2.85c0,.96,.79,1.75,1.75,1.75h.04v-6.35h-.04c-.96,0-1.75,.79-1.75,1.75Z"/><path d="M12.28,14.4l-2.17,.06v-1.46c0-.67-.36-1.26-.94-1.56-.81-.41-1.8-.12-2.26,.67l-1.34,2.29h-.03v6.35h6.17c.93,0,1.76-.64,2.02-1.55l.58-2.08c.18-.66,.05-1.35-.36-1.89-.4-.53-1-.83-1.66-.83Z"/></g></g></svg>