<?xml version="1.0" encoding="UTF-8"?><svg fill="currentColor" xmlns="http://www.w3.org/2000/svg" viewBox="0 0 24 24"><g id="i"><path d="M12,2.25C6.62,2.25,2.25,6.62,2.25,12s4.37,9.75,9.75,9.75,9.75-4.37,9.75-9.75S17.38,2.25,12,2.25Zm-2.5,12h1.5c.41,0,.75,.34,.75,.75s-.34,.75-.75,.75h-1.5c-1.24,0-2.25-1.01-2.25-2.25s1.01-2.25,2.25-2.25c.41,0,.75-.34,.75-.75s-.34-.75-.75-.75h-1.5c-.41,0-.75-.34-.75-.75s.34-.75,.75-.75h1.5c1.24,0,2.25,1.01,2.25,2.25s-1.01,2.25-2.25,2.25c-.41,0-.75,.34-.75,.75s.34,.75,.75,.75Zm7.25,.75c0,.41-.34,.75-.75,.75s-.75-.34-.75-.75v-2.25h-1.25c-.96,0-1.75-.79-1.75-1.75v-2c0-.41,.34-.75,.75-.75s.75,.34,.75,.75v2c0,.14,.11,.25,.25,.25h1.25v-2.25c0-.41,.34-.75,.75-.75s.75,.34,.75,.75v6Z"/></g></svg>