<?xml version="1.0" encoding="UTF-8"?><svg fill="currentColor" xmlns="http://www.w3.org/2000/svg" viewBox="0 0 24 24"><g id="b"><path d="M13,2.25h-2c-2.62,0-4.75,2.13-4.75,4.75v10c0,2.62,2.13,4.75,4.75,4.75h2c2.62,0,4.75-2.13,4.75-4.75V7c0-2.62-2.13-4.75-4.75-4.75Zm.62,12.17c-.23,.34-.7,.44-1.04,.21l-1.83-1.22v4.6c0,.41-.34,.75-.75,.75s-.75-.34-.75-.75v-6c0-.28,.15-.53,.4-.66,.24-.13,.54-.12,.77,.04l3,2c.34,.23,.44,.7,.21,1.04Zm1.13-2.42c0,.28-.15,.53-.4,.66-.11,.06-.23,.09-.35,.09-.15,0-.29-.04-.42-.13l-3-2c-.34-.23-.44-.7-.21-1.04,.23-.34,.7-.44,1.04-.21l1.83,1.22V6c0-.41,.34-.75,.75-.75s.75,.34,.75,.75v6Z"/></g></svg>