<?xml version="1.0" encoding="UTF-8"?><svg fill="currentColor" xmlns="http://www.w3.org/2000/svg" viewBox="0 0 24 24"><g id="m"><g><path d="M12.88,10.31l-.88-1.69-.88,1.69c-.11,.22-.32,.36-.56,.4l-1.88,.26,1.33,1.23c.19,.17,.28,.43,.23,.69l-.32,1.79,1.75-.87c.21-.1,.46-.1,.67,0l1.75,.87-.32-1.79c-.05-.25,.04-.51,.23-.69l1.33-1.23-1.88-.26c-.24-.03-.45-.18-.56-.4Z"/><path d="M20.82,9.76L14.24,3.18c-1.2-1.2-3.29-1.2-4.49,0L3.18,9.76c-1.24,1.24-1.24,3.25,0,4.49l6.57,6.57c.6,.6,1.4,.93,2.24,.93s1.64-.33,2.24-.93l6.57-6.57c1.24-1.24,1.24-3.25,0-4.49Zm-4.09,1.95l-1.42,1.31,.34,1.87c.08,.47-.1,.94-.48,1.22-.22,.17-.48,.25-.75,.25-.19,0-.38-.04-.56-.13l-1.86-.93-1.86,.93c-.43,.21-.93,.17-1.31-.12-.38-.29-.56-.75-.48-1.22l.34-1.87-1.42-1.31c-.36-.33-.49-.83-.34-1.29,.15-.47,.54-.8,1.02-.86l2.02-.28,.92-1.77c.22-.41,.64-.67,1.11-.67s.89,.26,1.11,.67l.92,1.77,2.02,.28c.48,.07,.88,.4,1.02,.86,.15,.47,.01,.96-.34,1.29Z"/></g></g></svg>