<?xml version="1.0" encoding="UTF-8"?><svg fill="currentColor" xmlns="http://www.w3.org/2000/svg" viewBox="0 0 24 24"><g id="c"><g><path d="M16,12.75h-.25v2.5h.25c.69,0,1.25-.56,1.25-1.25s-.56-1.25-1.25-1.25Z"/><path d="M6.75,14c0,.69,.56,1.25,1.25,1.25h.25v-2.5h-.25c-.69,0-1.25,.56-1.25,1.25Z"/><path d="M16,2.25H8c-3.17,0-5.75,2.58-5.75,5.75v8c0,3.17,2.58,5.75,5.75,5.75h8c3.17,0,5.75-2.58,5.75-5.75V8c0-3.17-2.58-5.75-5.75-5.75Zm.75,14.38v.37c0,.96-.79,1.75-1.75,1.75h-2c-.41,0-.75-.34-.75-.75s.34-.75,.75-.75h2c.14,0,.25-.11,.25-.25v-.25h-.25c-.41,0-.75-.34-.75-.75v-4c0-.41,.34-.75,.75-.75h.25v-.25c0-1.79-1.46-3.25-3.25-3.25s-3.25,1.46-3.25,3.25v.25h.25c.41,0,.75,.34,.75,.75v4c0,.41-.34,.75-.75,.75h-1c-1.52,0-2.75-1.23-2.75-2.75,0-1.25,.85-2.3,2-2.63v-.37c0-2.62,2.13-4.75,4.75-4.75s4.75,2.13,4.75,4.75v.37c1.15,.33,2,1.38,2,2.63s-.85,2.3-2,2.63Z"/></g></g></svg>