<?xml version="1.0" encoding="UTF-8"?><svg fill="currentColor" xmlns="http://www.w3.org/2000/svg" viewBox="0 0 24 24"><g id="s"><g><path d="M17.63,2.73c-3.7-.64-7.54-.64-11.25,0-1.81,.31-3.13,1.87-3.13,3.7v1.57c0,1.52,1.23,2.75,2.75,2.75s2.75-1.23,2.75-2.75c0-.14,.11-.25,.25-.25h6c.14,0,.25,.11,.25,.25,0,1.52,1.23,2.75,2.75,2.75s2.75-1.23,2.75-2.75v-1.57c0-1.83-1.31-3.39-3.12-3.7Z"/><circle cx="12" cy="17" r="1.25"/><path d="M18.23,13.58c-.5-.82-1.4-1.33-2.36-1.33h-7.73c-.96,0-1.86,.51-2.36,1.34l-2.13,3.55c-.26,.43-.39,.92-.39,1.42v.45c0,1.52,1.23,2.75,2.75,2.75h12c1.52,0,2.75-1.23,2.75-2.75v-.45c0-.5-.14-.99-.39-1.42l-2.13-3.55Zm-6.23,6.17c-1.52,0-2.75-1.23-2.75-2.75s1.23-2.75,2.75-2.75,2.75,1.23,2.75,2.75-1.23,2.75-2.75,2.75Z"/></g></g></svg>