<?xml version="1.0" encoding="UTF-8"?><svg fill="currentColor" xmlns="http://www.w3.org/2000/svg" viewBox="0 0 24 24"><g id="b"><g><path d="M20.78,4.99l-3.92-2.35c-.34-.2-.72-.31-1.11-.35v.71c0,2.07-1.68,3.75-3.75,3.75s-3.75-1.68-3.75-3.75v-.71c-.39,.04-.77,.15-1.11,.35l-3.92,2.35c-.63,.38-.96,1.12-.82,1.84l.64,3.2c.1,.49,.4,.92,.84,1.17,.43,.25,.96,.3,1.43,.15l.94-.31v5.18c0,.74,.48,1.4,1.19,1.66,.39,.14,.74,.36,1.03,.65s.51,.65,.65,1.03c.26,.71,.92,1.19,1.66,1.19h2.45c.74,0,1.4-.48,1.66-1.19,.14-.39,.36-.74,.65-1.03,.28-.28,.65-.51,1.03-.65,.71-.26,1.19-.92,1.19-1.66v-5.18l.94,.31c.47,.16,1,.11,1.43-.15,.43-.25,.74-.68,.84-1.17l.64-3.2c.14-.72-.18-1.47-.82-1.84Zm-6.62,6.69l-.51,.49,.12,.7c.05,.28-.07,.57-.3,.73-.23,.17-.54,.19-.79,.06l-.63-.33-.63,.33c-.11,.06-.23,.09-.35,.09-.16,0-.31-.05-.44-.14-.23-.17-.35-.45-.3-.73l.12-.7-.51-.5c-.2-.2-.28-.5-.19-.77,.09-.27,.32-.47,.61-.51l.7-.1,.31-.63c.25-.51,1.09-.51,1.35,0l.31,.63,.7,.1c.28,.04,.52,.24,.61,.51,.09,.27,.01,.57-.19,.77Z"/><path d="M12,5.25c1.24,0,2.25-1.01,2.25-2.25v-.75h-4.5v.75c0,1.24,1.01,2.25,2.25,2.25Z"/></g></g></svg>