<?xml version="1.0" encoding="UTF-8"?><svg fill="currentColor" xmlns="http://www.w3.org/2000/svg" viewBox="0 0 24 24"><g id="u"><g><path d="M21.58,11.75l-.71-4.97c-.11-.77-.55-1.47-1.2-1.9l-1.75-1.17c-.45-.3-.98-.46-1.53-.46h-.64v.75c0,1.81-1.29,3.33-3,3.67v2.33c0,.41-.34,.75-.75,.75s-.75-.34-.75-.75v-2.33c-1.71-.35-3-1.86-3-3.67v-.75h-.64c-.54,0-1.07,.16-1.53,.46l-1.75,1.17c-.65,.43-1.09,1.13-1.2,1.9l-.71,4.97c-.07,.5,.08,1.01,.41,1.39,.33,.38,.81,.6,1.32,.6h.6v-.54s.02-.07,.02-.1c0-.04-.02-.07-.02-.1v-2c0-.41,.34-.75,.75-.75s.75,.34,.75,.75v2s-.02,.07-.02,.1c0,.04,.02,.07,.02,.1v5.79c0,.96,.79,1.75,1.75,1.75h8c.96,0,1.75-.79,1.75-1.75v-5.79s.02-.07,.02-.1c0-.04-.02-.07-.02-.1v-2c0-.41,.34-.75,.75-.75s.75,.34,.75,.75v2s-.02,.07-.02,.1c0,.04,.02,.07,.02,.1v.54h.6c.51,0,.99-.22,1.32-.6,.33-.38,.48-.89,.41-1.39Z"/><path d="M12,6.25c1.24,0,2.25-1.01,2.25-2.25v-.75h-4.5v.75c0,1.24,1.01,2.25,2.25,2.25Z"/></g></g></svg>