<?xml version="1.0" encoding="UTF-8"?><svg fill="currentColor" xmlns="http://www.w3.org/2000/svg" viewBox="0 0 24 24"><g id="c"><g><path d="M13.52,15.92c-.03-.1-.13-.17-.24-.17h-2.56c-.11,0-.2,.07-.24,.17l-.33,1c-.03,.11,0,.19,.04,.22,.03,.04,.09,.1,.2,.1h3.22c.11,0,.17-.07,.2-.1,.03-.04,.07-.12,.03-.22l-.33-1Z"/><path d="M16,5.25h-1.25v3.75c0,.41-.34,.75-.75,.75s-.75-.34-.75-.75v-3.75h-2.5v3.75c0,.41-.34,.75-.75,.75s-.75-.34-.75-.75v-3.75h-1.25c-3.17,0-5.75,2.58-5.75,5.75v6c0,.96,.79,1.75,1.75,1.75h.74v-7.76c0-.41,.34-.75,.75-.75s.75,.34,.75,.75v7.76h0v1.25c0,.96,.79,1.75,1.75,1.75h8c.94,0,1.7-.74,1.74-1.67V10.99c0-.41,.34-.75,.75-.75s.75,.34,.75,.75v7.76h.76c.96,0,1.75-.79,1.75-1.75v-6c0-3.17-2.58-5.75-5.75-5.75Zm-.97,12.77c-.33,.46-.86,.73-1.42,.73h-3.22c-.56,0-1.09-.27-1.42-.73-.33-.46-.42-1.04-.24-1.58l.33-1c.24-.71,.9-1.2,1.66-1.2h2.56c.75,0,1.42,.48,1.66,1.2l.33,1c.18,.53,.09,1.12-.24,1.58Z"/></g><path d="M8,3.75h8c.24,0,.48,.01,.72,.04-.06-.41-.26-.79-.57-1.07-.37-.33-.86-.48-1.35-.41-.36,.05-.72,.12-1.07,.23l-1.65,.49s-.1,.01-.15,0l-1.63-.49c-.35-.11-.72-.18-1.09-.23-.5-.07-.99,.09-1.37,.42-.32,.28-.51,.66-.57,1.07,.24-.02,.48-.04,.72-.04Z"/></g></svg>