<?xml version="1.0" encoding="UTF-8"?><svg fill="currentColor" xmlns="http://www.w3.org/2000/svg" viewBox="0 0 24 24"><g id="k"><g><path d="M20.75,17.25v-4.78c0-.5-.21-.97-.58-1.3-.21-.19-.4-.4-.57-.62-.67-.91-.84-1.9-.85-2.55V3.5c0-.69-.56-1.25-1.25-1.25h-2c-.69,0-1.25,.56-1.25,1.25v1.33c0,1.2-.84,2.25-1.92,2.4-.22,.03-.45,.03-.66,0-1.08-.14-1.92-1.2-1.92-2.4v-1.33c0-.69-.56-1.25-1.25-1.25h-2c-.69,0-1.25,.56-1.25,1.25V7.98c-.02,.67-.18,1.66-.85,2.57-.17,.22-.36,.43-.57,.62-.37,.33-.58,.8-.58,1.29v4.78H20.75Zm-10.5-6.25c0-.41,.34-.75,.75-.75s.75,.34,.75,.75v1c0,.14,.11,.25,.25,.25h.25v-1.25c0-.41,.34-.75,.75-.75s.75,.34,.75,.75v4c0,.41-.34,.75-.75,.75s-.75-.34-.75-.75v-1.25h-.25c-.96,0-1.75-.79-1.75-1.75v-1Z"/><path d="M3.25,18.75v1.25c0,.96,.79,1.75,1.75,1.75h14c.96,0,1.75-.79,1.75-1.75v-1.25H3.25Z"/></g></g></svg>