<?xml version="1.0" encoding="UTF-8"?><svg fill="currentColor" xmlns="http://www.w3.org/2000/svg" viewBox="0 0 24 24"><g id="i"><g><path d="M17.86,6.75h-4.11v1.25c0,.41-.34,.75-.75,.75s-.75-.34-.75-.75v-1.25h-.5v1.25c0,.41-.34,.75-.75,.75s-.75-.34-.75-.75v-1.25H6.14l-1.74,13.02c-.07,.5,.09,1,.42,1.38,.33,.38,.81,.6,1.32,.6h2.11c.78,0,1.45-.5,1.68-1.25l2.07-6.89,2.07,6.89c.22,.73,.91,1.25,1.68,1.25h2.11c.5,0,.99-.22,1.32-.6,.33-.38,.48-.88,.42-1.38l-1.74-13.02Z"/><path d="M17.75,5.25v-1.25c0-.96-.79-1.75-1.75-1.75H8c-.96,0-1.75,.79-1.75,1.75v1.25h11.5Z"/></g></g></svg>