<?xml version="1.0" encoding="UTF-8"?><svg fill="currentColor" xmlns="http://www.w3.org/2000/svg" viewBox="0 0 24 24"><g id="j"><g><polygon points="8.65 21.75 11.25 21.75 11.25 6.75 10.66 6.75 8.74 21.1 8.65 21.75"/><polygon points="15.25 21.08 13.34 6.75 12.75 6.75 12.75 21.75 15.33 21.75 15.25 21.08"/><path d="M17.75,5.25v-1.25c0-.96-.79-1.75-1.75-1.75H8c-.96,0-1.75,.79-1.75,1.75v1.25h11.5Z"/><path d="M7.26,20.89l1.89-14.14h-3l-1.74,13.02c-.07,.5,.09,1,.42,1.38,.33,.38,.81,.6,1.32,.6h.99l.13-.86Z"/><path d="M17.86,6.75h-3l1.89,14.15,.09,.85h1.02c.5,0,.98-.22,1.32-.6,.33-.38,.48-.88,.42-1.38l-1.74-13.02Z"/></g></g></svg>