<?xml version="1.0" encoding="UTF-8"?><svg fill="currentColor" xmlns="http://www.w3.org/2000/svg" viewBox="0 0 24 24"><g id="q"><g><path d="M12,6.25c1.24,0,2.25-1.01,2.25-2.25v-.75h-4.5v.75c0,1.24,1.01,2.25,2.25,2.25Z"/><path d="M21.66,17.32l-1.31-9.14c-.35-2.45-2.25-4.37-4.61-4.83v.64c0,2.07-1.68,3.75-3.75,3.75s-3.75-1.68-3.75-3.75v-.64c-2.36,.46-4.26,2.38-4.61,4.83l-1.31,9.14c-.05,.36,.06,.72,.29,1s.58,.43,.94,.43h2.03c.58,0,1.07-.39,1.21-.95l.43-1.71v3.91c0,.96,.79,1.75,1.75,1.75h6c.96,0,1.75-.79,1.75-1.75v-3.91l.43,1.71c.14,.56,.64,.95,1.21,.95h2.03c.36,0,.71-.16,.94-.43s.34-.64,.29-1Z"/></g></g></svg>