<?xml version="1.0" encoding="UTF-8"?><svg fill="currentColor" xmlns="http://www.w3.org/2000/svg" viewBox="0 0 24 24"><g id="f"><g><path d="M18.26,9.3c.61,.23,1.2,.09,1.5,0,.05-.02,.1-.03,.15-.03l1.39-.17c-.09-.45-.2-.89-.31-1.33h-4.09c.23,.73,.73,1.31,1.37,1.55Z"/><path d="M20.16,10.74c-.39,.12-.8,.19-1.19,.19-.43,0-.85-.07-1.24-.22-1.22-.45-2.1-1.58-2.39-2.95h-2.6v4.25c0,.41-.34,.75-.75,.75s-.75-.34-.75-.75V7.75h-2.6c-.29,1.38-1.17,2.5-2.39,2.95-.39,.15-.81,.22-1.24,.22s-.85-.07-1.27-.21l-1.29-.3c-.12,.85-.2,1.71-.22,2.57-.05,2.23,.23,4.44,.84,6.59,.19,.68,.76,1.18,1.45,1.27,.76,.1,1.53,.16,2.29,.18,.16,0,.32,0,.47,0,1.08,0,1.75-.1,2.39-.2,.62-.09,1.21-.18,2.21-.19,1.03,0,1.64,.08,2.29,.17,.76,.11,1.55,.22,2.96,.19,.76-.02,1.54-.07,2.3-.16,.7-.08,1.28-.58,1.47-1.27,.61-2.14,.89-4.36,.84-6.58-.02-.81-.1-1.62-.2-2.42l-1.38,.17Z"/><path d="M20.75,6.25v-1.25c0-.96-.79-1.75-1.75-1.75H5c-.96,0-1.75,.79-1.75,1.75v1.25H20.75Z"/><path d="M5.74,9.3c.64-.24,1.14-.82,1.37-1.55H3.02c-.11,.39-.2,.79-.28,1.19l1.44,.33c.37,.12,.96,.26,1.57,.03Z"/></g></g></svg>