<?xml version="1.0" encoding="UTF-8"?><svg fill="currentColor" xmlns="http://www.w3.org/2000/svg" viewBox="0 0 24 24"><g id="h"><path d="M21.35,9.87l-1.43-3.57c-.21-.52-.56-.96-1.03-1.27l-1.75-1.16s.01,.04,.02,.05h0c-.13-.49-.45-.9-.91-1.13l-.93-.46s-.03,0-.05-.01c-.05-.02-.1-.04-.16-.05-.03,0-.05,0-.08-.01-.02,0-.03,0-.05,0h-6s-.03,0-.05,0c-.03,0-.06,0-.08,.01-.06,0-.11,.03-.16,.05-.01,0-.03,0-.05,.01l-.93,.46c-.46,.23-.8,.66-.92,1.16,0-.03,.02-.06,.03-.09l-.17,.11h0l-1.58,1.05c-.46,.31-.82,.75-1.03,1.27l-1.43,3.57c-.34,.84,.03,1.81,.84,2.21l1.27,.64v-1.72c0-.41,.34-.75,.75-.75s.75,.34,.75,.75v4.99s0,.03,0,.04v3.97c0,.96,.79,1.75,1.75,1.75h8c.96,0,1.75-.79,1.75-1.75v-5.07h0v-4.01c0-.41,.34-.75,.75-.75s.75,.34,.75,.75v1.8l1.26-.63c.81-.4,1.18-1.38,.84-2.21Zm-10.49-3.14l-.64,.32-1.91-2.54c-.06-.08-.05-.17-.04-.21,.01-.04,.04-.12,.13-.17l.37-.18,2.08,2.78Zm4.73-2.6c.09,.04,.12,.12,.13,.17,0,.04,.02,.13-.04,.21l-1.91,2.54-.64-.32,2.08-2.78,.37,.18Zm-2.09-.38l-1.5,2-1.5-2h3Zm-1.5,8c-.41,0-.75-.34-.75-.75v-1.13h0v-1.66l.75-.37,.75,.37v1.29h0v1.5c0,.41-.34,.75-.75,.75Z"/></g></svg>