<?xml version="1.0" encoding="UTF-8"?><svg fill="currentColor" xmlns="http://www.w3.org/2000/svg" viewBox="0 0 24 24"><g id="e"><g><path d="M12,6.25c1.24,0,2.25-1.01,2.25-2.25v-.75h-4.5v.75c0,1.24,1.01,2.25,2.25,2.25Z"/><path d="M13.75,11c0,.28,.5,.28,.5,0v-.25h-.5v.25Z"/><path d="M20.78,5.99l-3.92-2.35c-.34-.2-.72-.31-1.11-.35v.71c0,2.07-1.68,3.75-3.75,3.75s-3.75-1.68-3.75-3.75v-.71c-.39,.04-.77,.15-1.11,.35l-3.92,2.35c-.63,.38-.96,1.12-.82,1.84l.64,3.2c.1,.49,.4,.92,.84,1.17,.43,.25,.95,.3,1.43,.15l.94-.31v7.96c0,.96,.79,1.75,1.75,1.75h8c.96,0,1.75-.79,1.75-1.75v-7.96l.94,.31c.48,.16,1,.1,1.43-.15,.43-.25,.74-.68,.84-1.17l.64-3.2c.15-.72-.18-1.47-.82-1.84Zm-5.03,5.01c0,.96-.79,1.75-1.75,1.75s-1.75-.79-1.75-1.75v-1c0-.41,.34-.75,.75-.75h2c.41,0,.75,.34,.75,.75v1Z"/></g></g></svg>