<?xml version="1.0" encoding="UTF-8"?><svg fill="currentColor" xmlns="http://www.w3.org/2000/svg" viewBox="0 0 24 24"><g id="r"><g><path d="M12,6.25c1.24,0,2.25-1.01,2.25-2.25v-.75h-4.5v.75c0,1.24,1.01,2.25,2.25,2.25Z"/><path d="M20.78,5.99l-3.92-2.35c-.34-.2-.72-.31-1.11-.35v.71c0,2.07-1.68,3.75-3.75,3.75s-3.75-1.68-3.75-3.75v-.75h-.25c-.14,0-.27,.04-.39,.11L3.22,5.99c-.63,.38-.96,1.12-.81,1.84l.64,3.2c.1,.49,.4,.92,.84,1.17,.44,.25,.96,.31,1.43,.15l.94-.31v7.96c0,.96,.79,1.75,1.75,1.75h8c.96,0,1.75-.79,1.75-1.75v-7.96l.94,.31c.48,.16,1,.1,1.43-.15,.43-.25,.74-.68,.84-1.17l.64-3.2c.14-.72-.18-1.46-.82-1.84Z"/></g></g></svg>