<?xml version="1.0" encoding="UTF-8"?><svg fill="currentColor" xmlns="http://www.w3.org/2000/svg" viewBox="0 0 24 24"><g id="m"><g><path d="M17.26,10.3c.6,.23,1.2,.09,1.5,0,.06-.02,.12-.03,.18-.04l.59-.05-.49-1.46h-3.15c.23,.73,.73,1.31,1.37,1.55Z"/><path d="M18.75,7.25v-1.25c0-.96-.79-1.75-1.75-1.75H7c-.96,0-1.75,.79-1.75,1.75v1.25h13.5Z"/><path d="M5.24,10.29c.3,.1,.89,.24,1.5,0,.64-.24,1.14-.82,1.37-1.55h-3.15l-.47,1.4,.63,.11s.08,.02,.11,.03Z"/><path d="M20.02,11.67l-.87,.07c-.39,.12-.78,.18-1.17,.18-.43,0-.85-.07-1.24-.22-1.22-.46-2.1-1.58-2.39-2.95h-1.6v1.25c0,.41-.34,.75-.75,.75s-.75-.34-.75-.75v-1.25h-1.6c-.29,1.38-1.17,2.5-2.39,2.95-.39,.15-.81,.22-1.24,.22-.4,0-.81-.06-1.21-.19l-.81-.14-1.39,4.18c-.15,.46-.11,.94,.11,1.37,.22,.42,.61,.74,1.07,.87l5.13,1.46c.86,.24,1.77-.2,2.11-1.03l.97-2.42,.97,2.42c.27,.68,.92,1.1,1.62,1.1,.16,0,.32-.02,.49-.07l5.13-1.46c.46-.13,.84-.45,1.07-.87,.22-.43,.26-.91,.11-1.37l-1.37-4.1Z"/></g></g></svg>