<?xml version="1.0" encoding="UTF-8"?><svg fill="currentColor" xmlns="http://www.w3.org/2000/svg" viewBox="0 0 24 24"><g id="l"><g><path d="M19.08,8.75H4.92l-2.35,6.26c-.29,.77-.02,1.62,.66,2.07,.77,.51,1.75,1.06,2.91,1.52l.12-.73,1-5.02c.08-.41,.47-.67,.88-.59,.41,.08,.67,.48,.59,.88l-1,5-.16,.96c1.1,.32,2.33,.55,3.67,.61v-6.72c0-.41,.34-.75,.75-.75s.75,.34,.75,.75v6.73c.99-.05,2.3-.23,3.74-.65l-.22-.9-1.01-5.03c-.08-.41,.18-.8,.59-.88,.4-.08,.8,.18,.88,.59l1,5,.18,.73c.94-.38,1.91-.86,2.88-1.51,.67-.45,.93-1.29,.64-2.06l-2.35-6.26Z"/><path d="M18.75,7.25v-1.25c0-.96-.79-1.75-1.75-1.75H7c-.96,0-1.75,.79-1.75,1.75v1.25h13.5Z"/></g></g></svg>