<?xml version="1.0" encoding="UTF-8"?><svg fill="currentColor" xmlns="http://www.w3.org/2000/svg" viewBox="0 0 24 24"><g id="s"><path d="M20.17,11.17c-.21-.19-.4-.39-.57-.62-.67-.91-.84-1.9-.85-2.55V3.5c0-.69-.56-1.25-1.25-1.25h-2c-.69,0-1.25,.56-1.25,1.25v1.33c0,1.2-.84,2.25-1.92,2.4-.22,.03-.44,.03-.66,0-1.08-.14-1.92-1.2-1.92-2.4v-1.33c0-.69-.56-1.25-1.25-1.25h-2c-.69,0-1.25,.56-1.25,1.25V7.98c-.02,.67-.18,1.66-.85,2.57-.17,.22-.36,.43-.57,.62-.37,.33-.58,.8-.58,1.3v7.53c0,.96,.79,1.75,1.75,1.75h14c.96,0,1.75-.79,1.75-1.75v-7.53c0-.5-.21-.97-.58-1.3Z"/></g></svg>