<?xml version="1.0" encoding="UTF-8"?><svg fill="currentColor" xmlns="http://www.w3.org/2000/svg" viewBox="0 0 24 24"><g id="n"><path d="M20.33,9.3c.41-.35,.63-.86,.6-1.4-.03-.55-.32-1.06-.78-1.37l-1-.66c-.71-.47-1.65-.37-2.23,.25-1.96,2.08-4.63,2.14-4.93,2.14-2.46,0-4.15-1.36-4.93-2.16-.58-.6-1.51-.69-2.21-.22l-1,.67c-.46,.31-.75,.82-.78,1.37-.03,.54,.19,1.05,.6,1.4,.33,.28,.53,.57,.6,.87,.05,.21,.03,.39,0,.66-.04,.33-.09,.73,0,1.28,.13,.85,.53,1.65,1.18,2.38,.14,.16,.35,.25,.56,.25h12c.21,0,.42-.09,.56-.25,.65-.73,1.05-1.54,1.18-2.38,.08-.54,.03-.95,0-1.28-.03-.27-.06-.45,0-.66,.07-.3,.27-.59,.6-.87Z"/><path d="M18,16.25H6c-.26,0-.5-.05-.74-.14,.06,.91,.81,1.64,1.74,1.64h10c.93,0,1.68-.73,1.74-1.64-.24,.08-.48,.14-.74,.14Z"/></g></svg>