<?xml version="1.0" encoding="UTF-8"?><svg fill="currentColor" xmlns="http://www.w3.org/2000/svg" viewBox="0 0 24 24"><g id="t"><g><path d="M12,6.25c1.24,0,2.25-1.01,2.25-2.25v-.75h-4.5v.75c0,1.24,1.01,2.25,2.25,2.25Z"/><path d="M6.27,16s-.02,.07-.02,.11v1.14h11.5v-1.5H6.27v.25Z"/><path d="M6.25,18.75v1.25c0,.96,.79,1.75,1.75,1.75h8c.96,0,1.75-.79,1.75-1.75v-1.25H6.25Z"/><path d="M21.35,9.87l-1.43-3.57c-.21-.52-.56-.96-1.03-1.27l-1.98-1.32c-.35-.24-.75-.38-1.17-.44v.72c0,2.07-1.68,3.75-3.75,3.75s-3.75-1.68-3.75-3.75v-.72c-.42,.05-.82,.2-1.17,.44l-1.98,1.32c-.47,.31-.82,.75-1.03,1.27l-1.43,3.57c-.34,.84,.03,1.81,.84,2.22l1.29,.64v-1.72c0-.41,.34-.75,.75-.75s.75,.34,.75,.75v3.25h11.48v-3.25c0-.41,.34-.75,.75-.75s.75,.34,.75,.75v1.71l1.26-.63c.81-.4,1.18-1.38,.84-2.22Z"/></g></g></svg>