<?xml version="1.0" encoding="UTF-8"?><svg fill="currentColor" xmlns="http://www.w3.org/2000/svg" viewBox="0 0 24 24"><g id="p"><path d="M18.7,14.26c.09-.24,.21-.49,.32-.74,.44-.95,.98-2.13,.71-3.65-.06-.36-.26-1.45-1.21-2.4-.58-.58-1.22-.88-1.78-1.06V3c0-.41-.34-.75-.75-.75s-.75,.34-.75,.75v3.51c-1.26,.58-2.45,.74-3.25,.74-1.37,0-2.47-.36-3.25-.72V3c0-.41-.34-.75-.75-.75s-.75,.34-.75,.75v3.41c-.56,.17-1.2,.48-1.78,1.06-.95,.95-1.14,2.04-1.21,2.4-.27,1.52,.27,2.7,.71,3.65,.12,.26,.23,.5,.32,.74,.52,1.38,.39,3.09-.39,5.08-.21,.55-.14,1.17,.19,1.65,.32,.47,.86,.76,1.44,.76h10.93c.57,0,1.11-.28,1.44-.76,.33-.48,.4-1.1,.19-1.65-.77-2-.9-3.71-.39-5.08Z"/></g></svg>