<?xml version="1.0" encoding="UTF-8"?><svg fill="currentColor" xmlns="http://www.w3.org/2000/svg" viewBox="0 0 24 24"><g id="o"><path d="M17.75,9.97c-.1-2.2-.81-4.34-2.12-6.37-.18-.28-.52-.41-.84-.31-.32,.09-.54,.39-.54,.72,0,1.24-1.01,2.25-2.25,2.25s-2.25-1.01-2.25-2.25c0-.33-.22-.63-.54-.72-.32-.09-.66,.03-.84,.31-1.31,2.03-2.02,4.18-2.12,6.37-.02,.37-.02,.72,0,1.03v9c0,.96,.79,1.75,1.75,1.75h8c.96,0,1.75-.79,1.75-1.75V11.02c.02-.34,.02-.69,0-1.05Z"/><g><path d="M12,4.75c.41,0,.75-.34,.75-.75,0-.26,.05-.51,.13-.75h-1.77c.08,.24,.13,.49,.13,.75,0,.41,.34,.75,.75,.75Z"/><path d="M20.78,5.99l-3.12-1.87c.96,1.86,1.5,3.79,1.59,5.78,.02,.41,.02,.8,0,1.19v1.35c.3,0,.6-.07,.87-.23,.43-.25,.74-.68,.84-1.17l.64-3.2c.15-.72-.18-1.46-.82-1.84Z"/><path d="M4.75,11c-.02-.28-.02-.69,0-1.1,.09-1.98,.63-3.92,1.59-5.78l-3.12,1.87c-.63,.38-.96,1.12-.82,1.84l.64,3.2c.1,.49,.4,.92,.84,1.17,.27,.15,.57,.22,.87,.23v-1.43Z"/></g></g></svg>