<?xml version="1.0" encoding="UTF-8"?><svg fill="currentColor" xmlns="http://www.w3.org/2000/svg" viewBox="0 0 24 24"><g id="g"><g><path d="M9.7,3.31c-.22,1.17-.37,3.32,.92,5.28,.37,.56,.83,1.06,1.38,1.49,.54-.43,1-.93,1.37-1.49,1.3-1.96,1.14-4.11,.93-5.22l-.16-.99c-1.45-.15-2.91-.15-4.35,0l-.1,.93Z"/><path d="M11.25,11.38c-.74-.55-1.38-1.21-1.88-1.96-1.59-2.4-1.41-4.99-1.16-6.32l.05-.5c-.63,.11-1.25,.24-1.86,.41-.87,.24-1.4,1.08-1.25,1.97h0c.12,.66,.18,1.67-.18,2.8-.37,1.15-1.02,1.94-1.5,2.41-.34,.33-.53,.78-.53,1.26v4.55l1.23,.28c.36,.11,.95,.24,1.59,.02,1.05-.36,1.46-1.35,1.54-1.55,.14-.39,.57-.59,.96-.45,.39,.14,.59,.57,.45,.96-.11,.31-.76,1.88-2.46,2.45-.39,.13-.81,.2-1.23,.2s-.84-.07-1.24-.2l-.83-.19v1.24c0,.27,.06,.54,.18,.78l.62,1.24c.3,.6,.9,.97,1.57,.97h4.28c.46,0,.91-.19,1.24-.51l.43-.43V11.38Z"/><path d="M20.17,17.73c-.37,.12-.76,.18-1.17,.18s-.84-.07-1.24-.2c-1.7-.58-2.35-2.15-2.46-2.45-.14-.39,.06-.82,.45-.96,.39-.14,.82,.06,.96,.45,.07,.2,.48,1.19,1.54,1.55,.64,.22,1.24,.09,1.53,0l1.29-.3v-4.55c0-.48-.19-.92-.53-1.26-.48-.47-1.14-1.27-1.5-2.41-.36-1.13-.3-2.14-.18-2.8,.16-.88-.39-1.73-1.28-1.97-.61-.17-1.23-.3-1.86-.41l.08,.52c.25,1.31,.43,3.9-1.16,6.3-.5,.75-1.13,1.41-1.88,1.96v9.44l.43,.43c.33,.33,.78,.51,1.24,.51h4.28c.67,0,1.27-.37,1.57-.97l.62-1.24c.12-.24,.18-.51,.18-.78v-1.24l-.89,.2Z"/></g></g></svg>