<svg fill="currentColor" xmlns="http://www.w3.org/2000/svg" viewBox="0 0 32 32"><g id="air_conditioner" data-name="air conditioner"><path d="M27.43,9H4.57A2.57,2.57,0,0,0,2,11.57v8.86A2.57,2.57,0,0,0,4.57,23H27.43A2.57,2.57,0,0,0,30,20.43V11.57A2.57,2.57,0,0,0,27.43,9ZM7,21v-.71A1.29,1.29,0,0,1,8.29,19H23.71A1.29,1.29,0,0,1,25,20.29V21Zm21-.57a.56.56,0,0,1-.57.57H27v-.71A3.29,3.29,0,0,0,23.71,17H8.29A3.29,3.29,0,0,0,5,20.29V21H4.57A.56.56,0,0,1,4,20.43V11.57A.56.56,0,0,1,4.57,11H27.43a.56.56,0,0,1,.57.57Z"/><path d="M25,13H22a1,1,0,0,0,0,2h3a1,1,0,0,0,0-2Z"/></g></svg>