<svg fill="currentColor" xmlns="http://www.w3.org/2000/svg" viewBox="0 0 32 32"><g id="bulb"><path d="M26,10.89h0A10,10,0,0,0,16,2a10.3,10.3,0,0,0-10,8.89,10,10,0,0,0,3.6,8.7,3.61,3.61,0,0,1,1.39,2.76,1.6,1.6,0,0,0,0,.39,1.19,1.19,0,0,0,0,.26v.86A3.13,3.13,0,0,0,12,26.1v1.47A2.43,2.43,0,0,0,14.43,30h3.14A2.43,2.43,0,0,0,20,27.57V26.18a3.11,3.11,0,0,0,1.05-2.32V23a1.19,1.19,0,0,0-.05-.26,1.6,1.6,0,0,0,.05-.39,3.67,3.67,0,0,1,1.41-2.77C23.14,19,26.55,15.69,26,10.89ZM19,24a1.12,1.12,0,0,1-1.11,1H14.19a1.14,1.14,0,0,1-1.13-1h6Zm-1,3.57a.43.43,0,0,1-.43.43H14.43a.43.43,0,0,1-.43-.43V27l.19,0H18Zm3.15-9.51A5.73,5.73,0,0,0,19.06,22H13A5.69,5.69,0,0,0,11,18.06,8,8,0,0,1,8,11.11,8.3,8.3,0,0,1,16.09,4c4.29-.15,7.59,3.54,8,7.11h0C24.47,15,21.47,17.77,21.15,18.06Z"/><path d="M14.81,6a6.27,6.27,0,0,0-3.57,2.38A6.34,6.34,0,0,0,10.05,12a1,1,0,0,0,1,1h0a1,1,0,0,0,1-1,4.22,4.22,0,0,1,3.24-4A1,1,0,1,0,14.81,6Z"/></g></svg>