<svg fill="currentColor" xmlns="http://www.w3.org/2000/svg" viewBox="0 0 32 32"><g id="cpu"><path d="M19.09,10H12.91A2.92,2.92,0,0,0,10,12.91v6.18A2.92,2.92,0,0,0,12.91,22h6.18A2.92,2.92,0,0,0,22,19.09V12.91A2.92,2.92,0,0,0,19.09,10ZM20,19.09a.91.91,0,0,1-.91.91H12.91a.91.91,0,0,1-.91-.91V12.91a.91.91,0,0,1,.91-.91h6.18a.91.91,0,0,1,.91.91Z"/><path d="M29,14a1,1,0,0,0,0-2H26V11h3a1,1,0,0,0,0-2H25.85A4,4,0,0,0,23,6.15V3a1,1,0,0,0-2,0V6H20V3a1,1,0,0,0-2,0V6H17V3a1,1,0,0,0-2,0V6H14V3a1,1,0,0,0-2,0V6H11V3A1,1,0,0,0,9,3V6.15A4,4,0,0,0,6.15,9H3a1,1,0,0,0,0,2H6v1H3a1,1,0,0,0,0,2H6v1H3a1,1,0,0,0,0,2H6v1H3a1,1,0,0,0,0,2H6v1H3a1,1,0,0,0,0,2H6.15A4,4,0,0,0,9,25.85V29a1,1,0,0,0,2,0V26h1v3a1,1,0,0,0,2,0V26h1v3a1,1,0,0,0,2,0V26h1v3a1,1,0,0,0,2,0V26h1v3a1,1,0,0,0,2,0V25.85A4,4,0,0,0,25.85,23H29a1,1,0,0,0,0-2H26V20h3a1,1,0,0,0,0-2H26V17h3a1,1,0,0,0,0-2H26V14ZM22,24H10a2,2,0,0,1-2-2V10a2,2,0,0,1,2-2H22a2,2,0,0,1,2,2V22A2,2,0,0,1,22,24Z"/></g></svg>