<svg fill="currentColor" xmlns="http://www.w3.org/2000/svg" viewBox="0 0 32 32"><g id="epilator"><path d="M26,7.5A5.51,5.51,0,0,0,20.5,2h-9A5.5,5.5,0,0,0,8,11.77a1.35,1.35,0,0,0,0,.29l.65,11a7.36,7.36,0,0,0,14.7,0l.65-11a1.35,1.35,0,0,0,0-.29A5.5,5.5,0,0,0,26,7.5ZM21.35,23a5.36,5.36,0,0,1-10.7,0l-.6-10.15a5.34,5.34,0,0,0,1.45.2h9A5.34,5.34,0,0,0,22,12.8ZM20.5,11h-9a3.5,3.5,0,0,1,0-7h9a3.5,3.5,0,0,1,0,7Z"/><path d="M16,5a1,1,0,0,0-1,1V9a1,1,0,0,0,2,0V6A1,1,0,0,0,16,5Z"/><path d="M20,5a1,1,0,0,0-1,1V9a1,1,0,0,0,2,0V6A1,1,0,0,0,20,5Z"/><path d="M12,5a1,1,0,0,0-1,1V9a1,1,0,0,0,2,0V6A1,1,0,0,0,12,5Z"/><path d="M17,21H15a1,1,0,0,0,0,2h2a1,1,0,0,0,0-2Z"/></g></svg>