<svg fill="currentColor" xmlns="http://www.w3.org/2000/svg" viewBox="0 0 32 32"><g id="ethernet"><path d="M25.94,3H6.06A4.06,4.06,0,0,0,2,7.06V24.94A4.06,4.06,0,0,0,6.06,29H25.94A4.06,4.06,0,0,0,30,24.94V7.06A4.06,4.06,0,0,0,25.94,3ZM28,24.94A2.06,2.06,0,0,1,25.94,27H6.06A2.06,2.06,0,0,1,4,24.94V7.06A2.06,2.06,0,0,1,6.06,5H25.94A2.06,2.06,0,0,1,28,7.06Z"/><path d="M24.43,15H23V12.57A1.57,1.57,0,0,0,21.43,11H20V8.57A1.57,1.57,0,0,0,18.43,7H13.57A1.57,1.57,0,0,0,12,8.57V11H10.57A1.57,1.57,0,0,0,9,12.57V15H7.57A1.57,1.57,0,0,0,6,16.57v6.86A1.57,1.57,0,0,0,7.57,25H24.43A1.57,1.57,0,0,0,26,23.43V16.57A1.57,1.57,0,0,0,24.43,15ZM24,23H8V17H9.43A1.57,1.57,0,0,0,11,15.43V13h1.43A1.57,1.57,0,0,0,14,11.43V9h4v2.43A1.57,1.57,0,0,0,19.57,13H21v2.43A1.57,1.57,0,0,0,22.57,17H24Z"/></g></svg>