<svg fill="currentColor" xmlns="http://www.w3.org/2000/svg" viewBox="0 0 32 32"><g id="flashlight"><path d="M27.57,10.35l-5.73-4L17.75,3.46h0L16.11,2.31A1,1,0,1,0,15,3.94l.82.58A6,6,0,0,0,14.7,7.83l-10,15.81a4.14,4.14,0,0,0,6.77,4.75L22.87,13.55a5.93,5.93,0,0,0,2.74-2.14h0l.82.58a1,1,0,0,0,.57.18,1,1,0,0,0,.82-.43A1,1,0,0,0,27.57,10.35Zm-7.51,3.57L12.25,24,8.46,21.37,15.31,10.6a6,6,0,0,0,1.94,2.28h0A6.06,6.06,0,0,0,20.06,13.92ZM9.83,27.17a2.14,2.14,0,0,1-3.5-2.46l1.06-1.65L11,25.62ZM24,10.26a4,4,0,1,1-6.55-4.59L20.7,8Z"/><path d="M13.56,16.4l-1.72,2.45a1,1,0,0,0,.24,1.39,1,1,0,0,0,.57.19,1,1,0,0,0,.82-.43l1.73-2.46A1,1,0,0,0,15,16.15,1,1,0,0,0,13.56,16.4Z"/></g></svg>