<svg fill="currentColor" xmlns="http://www.w3.org/2000/svg" viewBox="0 0 32 32"><g id="hand_drill" data-name="hand drill"><path d="M27.55,6H14.45a2.44,2.44,0,0,0-2.4,2H10a3,3,0,0,0-2.82,2H3a1,1,0,0,0,0,2H7.18A3,3,0,0,0,10,14h2.05a2.44,2.44,0,0,0,2.4,2H16v1.11A2.9,2.9,0,0,0,18.89,20H20a2.37,2.37,0,0,0,2,2v2H21A2,2,0,0,0,19,26v2.1A2,2,0,0,0,21,30h4a3,3,0,0,0,3-3V16a2.44,2.44,0,0,0,2-2.4V8.45A2.45,2.45,0,0,0,27.55,6ZM9,11a1,1,0,0,1,1-1h2v2H10A1,1,0,0,1,9,11Zm9,6.11V16h2v2H18.89A.89.89,0,0,1,18,17.11ZM26,27a1,1,0,0,1-1,1l-4,.05L21,26h1.41A1.65,1.65,0,0,0,24,24.36V21.64A1.65,1.65,0,0,0,22.36,20a.36.36,0,0,1-.36-.36V16h4Zm2-13.41a.45.45,0,0,1-.45.45H14.45a.45.45,0,0,1-.45-.45V8.45A.45.45,0,0,1,14.45,8h13.1a.45.45,0,0,1,.45.45Z"/><path d="M25,10H22a1,1,0,0,0,0,2h3a1,1,0,0,0,0-2Z"/></g></svg>