<svg fill="currentColor" xmlns="http://www.w3.org/2000/svg" viewBox="0 0 32 32"><g id="hob"><path d="M26.41,18H24V16.9A2.9,2.9,0,0,0,21.1,14H10.9A2.9,2.9,0,0,0,8,16.9V18H5.59A2.59,2.59,0,0,0,3,20.59v6.82A2.59,2.59,0,0,0,5.59,30H26.41A2.59,2.59,0,0,0,29,27.41V20.59A2.59,2.59,0,0,0,26.41,18ZM10,16.9a.9.9,0,0,1,.9-.9H21.1a.9.9,0,0,1,.9.9V18H10ZM27,27.41a.6.6,0,0,1-.59.59H5.59A.6.6,0,0,1,5,27.41V20.59A.6.6,0,0,1,5.59,20H26.41a.6.6,0,0,1,.59.59Z"/><path d="M16,21a3,3,0,1,0,3,3A3,3,0,0,0,16,21Zm0,4a1,1,0,1,1,1-1A1,1,0,0,1,16,25Z"/><path d="M9,21a3,3,0,1,0,3,3A3,3,0,0,0,9,21Zm0,4a1,1,0,1,1,1-1A1,1,0,0,1,9,25Z"/><path d="M23,21a3,3,0,1,0,3,3A3,3,0,0,0,23,21Zm0,4a1,1,0,1,1,1-1A1,1,0,0,1,23,25Z"/><path d="M16,11a1,1,0,0,0,1-1V3a1,1,0,0,0-2,0v7A1,1,0,0,0,16,11Z"/><path d="M12,13a1,1,0,0,0,1-1V6a1,1,0,0,0-2,0v6A1,1,0,0,0,12,13Z"/><path d="M20,13a1,1,0,0,0,1-1V6a1,1,0,0,0-2,0v6A1,1,0,0,0,20,13Z"/></g></svg>