<svg fill="currentColor" xmlns="http://www.w3.org/2000/svg" viewBox="0 0 32 32"><g id="joystick"><path d="M27,28H25.78l0-.17A5.06,5.06,0,0,0,20.83,24H19V17.77a3.18,3.18,0,0,0,2-2.94V11a.6.6,0,0,1,.34-.55l1.4-.7A4.09,4.09,0,0,0,20.91,2H14.36A3.37,3.37,0,0,0,11,5.36v9.47a3.18,3.18,0,0,0,2,2.94V24H11.17a5.06,5.06,0,0,0-4.91,3.83l0,.17H5a1,1,0,0,0,0,2H27a1,1,0,0,0,0-2ZM13,5.36A1.36,1.36,0,0,1,14.36,4h6.55A2.1,2.1,0,0,1,23,6.09,2.07,2.07,0,0,1,21.84,8l-1.39.7A2.58,2.58,0,0,0,19,11v3.83A1.18,1.18,0,0,1,17.83,16H14.17A1.18,1.18,0,0,1,13,14.83V13h2a1,1,0,0,0,0-2H13V9h2a1,1,0,0,0,0-2H13ZM15,18h2v6H15ZM8.3,28a3.05,3.05,0,0,1,2.87-2h9.66a3.05,3.05,0,0,1,2.87,2Z"/></g></svg>