<svg fill="currentColor" xmlns="http://www.w3.org/2000/svg" viewBox="0 0 32 32"><g id="lamp"><path d="M29,28.68l-.72-2.14a2.22,2.22,0,0,0-1.48-1.44l-.38-1.17A2.84,2.84,0,0,0,23.68,22H23V7.67a5.67,5.67,0,0,0-10.2-3.4L12,5.32A5.87,5.87,0,0,0,5.2,7.07l-3,3.47A1,1,0,0,0,2.44,12l.94.64a4,4,0,0,0,1.51,4.65A4,4,0,0,0,7.13,18a4,4,0,0,0,2.65-1l.94.63a.94.94,0,0,0,.56.18,1,1,0,0,0,.24,0,1,1,0,0,0,.64-.51l2.13-4a5.9,5.9,0,0,0-.66-6.74l.77-1A3.67,3.67,0,0,1,21,7.67V22h-.68a2.84,2.84,0,0,0-2.69,1.93l-.38,1.17a2.22,2.22,0,0,0-1.48,1.44l-.72,2.14a1,1,0,0,0,.14.9A1,1,0,0,0,16,30H28a1,1,0,0,0,.81-.42A1,1,0,0,0,29,28.68ZM6,15.65a2,2,0,0,1-.85-1.27,2.29,2.29,0,0,1,0-.52L8,15.79A2,2,0,0,1,6,15.65Zm6.5-3.35-1.61,3-.73-.49h0l-5-3.37h0L4.49,11,6.72,8.37a3.78,3.78,0,0,1,4.91-1A3.76,3.76,0,0,1,12.52,12.3Zm7,12.27a.83.83,0,0,1,.79-.57h3.36a.83.83,0,0,1,.79.57l.14.43H19.39ZM17.39,28l.27-.83A.26.26,0,0,1,17.9,27h8.2a.26.26,0,0,1,.24.17l.27.83Z"/></g></svg>