<svg fill="currentColor" xmlns="http://www.w3.org/2000/svg" viewBox="0 0 32 32"><g id="led"><path d="M25,18H24V10A8,8,0,0,0,8,10v8H7a1,1,0,0,0,0,2H9v1.85A2.14,2.14,0,0,0,11,24v5a1,1,0,0,0,2,0V24a2.14,2.14,0,0,0,2-2.13V20h2v1.85A2.14,2.14,0,0,0,19,24v5a1,1,0,0,0,2,0V24a2.14,2.14,0,0,0,2-2.13V20h2a1,1,0,0,0,0-2ZM10,10a6,6,0,0,1,12,0v8H20V12a1,1,0,0,0-.42-.81,1,1,0,0,0-.9-.14L16,12l-2.68-.9a1,1,0,0,0-.9.14A1,1,0,0,0,12,12v6H10Zm4,8V16.39l1.68.56h.09L16,17l.23,0h.09L18,16.39V18Zm1-3.39-1-.33v-.89l1,.33Zm3-1.22v.89l-1,.33v-.89Zm-5,8.46a.15.15,0,0,1-.15.15h-1.7a.15.15,0,0,1-.15-.15V20h2Zm8,0a.15.15,0,0,1-.15.15h-1.7a.15.15,0,0,1-.15-.15V20h2Z"/></g></svg>