<svg fill="currentColor" xmlns="http://www.w3.org/2000/svg" viewBox="0 0 32 32"><g id="music_player" data-name="music player"><path d="M23,2H9A3,3,0,0,0,6,5V27a3,3,0,0,0,3,3H23a3,3,0,0,0,3-3V5A3,3,0,0,0,23,2Zm1,25a1,1,0,0,1-1,1H9a1,1,0,0,1-1-1V5A1,1,0,0,1,9,4H23a1,1,0,0,1,1,1Z"/><path d="M20.66,5H11.34A2.34,2.34,0,0,0,9,7.34v4.32A2.34,2.34,0,0,0,11.34,14h9.32A2.34,2.34,0,0,0,23,11.66V7.34A2.34,2.34,0,0,0,20.66,5ZM21,11.66a.34.34,0,0,1-.34.34H11.34a.34.34,0,0,1-.34-.34V7.34A.34.34,0,0,1,11.34,7h9.32a.34.34,0,0,1,.34.34Z"/><path d="M16,15a6,6,0,1,0,6,6A6,6,0,0,0,16,15Zm0,10a4,4,0,1,1,4-4A4,4,0,0,1,16,25Z"/><path d="M16,18a3,3,0,1,0,3,3A3,3,0,0,0,16,18Zm0,4a1,1,0,1,1,1-1A1,1,0,0,1,16,22Z"/></g></svg>