<svg fill="currentColor" xmlns="http://www.w3.org/2000/svg" viewBox="0 0 32 32"><g id="pencil"><path d="M27,3.73,25.21,2.5a2.25,2.25,0,0,0-3.14.39L16,11.51,9.92,2.89A2.25,2.25,0,0,0,6.78,2.5L5.05,3.73A2.41,2.41,0,0,0,4,5.29a2,2,0,0,0,.33,1.53l7.47,10.6-3.7,5.25a1.1,1.1,0,0,0-.17.4L7,28.6a1,1,0,0,0,.41,1,.94.94,0,0,0,.58.19,1.09,1.09,0,0,0,.49-.13l4.88-2.76a1,1,0,0,0,.33-.29l.58-.83h0L16,23.33l1.71,2.43h0l.58.83a.92.92,0,0,0,.33.29l4.88,2.76a1.05,1.05,0,0,0,.49.13,1,1,0,0,0,.58-.19,1,1,0,0,0,.41-1l-1-5.53a.84.84,0,0,0-.17-.4l-3.7-5.25,7.48-10.6A2.24,2.24,0,0,0,27,3.73ZM21.07,22.17l-2.3,1.62L8.23,8.84a.66.66,0,0,0,.19-.09l2-1.38a1,1,0,0,0,.14-.15ZM6.2,5.36,7.93,4.13A.51.51,0,0,1,8.29,4L9.42,5.65a1.54,1.54,0,0,0-.19.08l-2,1.39a1.06,1.06,0,0,0-.15.15L6,5.67S6,5.49,6.2,5.36ZM9.86,23.87,12,25.37,9.34,26.86Zm3.36-.08-2.29-1.62,2.13-3,1.71,2.44ZM20,25.37l2.13-1.5.52,3ZM17.22,13.24l4.25-6a1.92,1.92,0,0,0,.14.15l2,1.38a.76.76,0,0,0,.18.09l-4.82,6.84Zm7.65-6a.66.66,0,0,0-.14-.15l-2-1.39a.77.77,0,0,0-.19-.08l1.12-1.6a.41.41,0,0,1,.36.09L25.8,5.36c.18.13.21.28.2.3Z"/></g></svg>