<svg fill="currentColor" xmlns="http://www.w3.org/2000/svg" viewBox="0 0 32 32"><g id="radiator"><path d="M27,8H24V7.5a3.49,3.49,0,0,0-6-2.44,3.48,3.48,0,0,0-5,0,3.48,3.48,0,0,0-5,0A3.49,3.49,0,0,0,2,7.5V21.71A3.28,3.28,0,0,0,5,25v0a3,3,0,0,0,6,0h4a3,3,0,0,0,6,0v0a3.28,3.28,0,0,0,3-3.26V14h3a3,3,0,0,0,0-6ZM10.5,6A1.5,1.5,0,0,1,12,7.5V23H9V7.5A1.5,1.5,0,0,1,10.5,6ZM4,21.71V7.5a1.5,1.5,0,0,1,3,0V23H5.29A1.29,1.29,0,0,1,4,21.71ZM8,26a1,1,0,0,1-1-1H9A1,1,0,0,1,8,26Zm6-3V7.5a1.5,1.5,0,0,1,3,0V23H14Zm4,3a1,1,0,0,1-1-1h2A1,1,0,0,1,18,26Zm4-4.29A1.29,1.29,0,0,1,20.71,23H19V7.5a1.5,1.5,0,0,1,3,0V21.71ZM27,12H24V10h3a1,1,0,0,1,0,2Z"/></g></svg>