<svg fill="currentColor" xmlns="http://www.w3.org/2000/svg" viewBox="0 0 32 32"><g id="ram_memory" data-name="ram memory"><path d="M29.55,13l-.66-.81h0a2,2,0,0,0,.27-2.8L24.08,3.23A2,2,0,0,0,21.27,3L2.73,18.22A2,2,0,0,0,2.45,21l5.1,6.19a2,2,0,0,0,1.54.73,2,2,0,0,0,1.26-.45h0l.66.81a2,2,0,0,0,1.51.71,2,2,0,0,0,1.25-.45l7-5.77h0A1.94,1.94,0,0,0,21.06,20l-.66-.81L21.94,18l.67.81a1.95,1.95,0,0,0,2.75.26l3.93-3.23A2,2,0,0,0,29.55,13ZM4,19.77,22.53,4.5l5.09,6.19-.77.63h0l-5.41,4.45h0L18.38,18.3h0l-8.49,7,0,0-.74.6Zm15.49,1.49L12.57,27l-.67-.81,7-5.72Zm4.63-3.81-.63-.77,3.87-3.19.66.75Z"/><path d="M10.13,23.49a1,1,0,0,0,.64-.23l5.4-4.45a1,1,0,0,0,.36-.68,1,1,0,0,0-.22-.73l-2.54-3.09a1,1,0,0,0-1.41-.13L7,18.63a.94.94,0,0,0-.36.67,1,1,0,0,0,.22.73l2.54,3.09A1,1,0,0,0,10.13,23.49Zm2.73-7.13,1.27,1.54-3.86,3.18L9,19.53Z"/><path d="M17.85,16.13a1.06,1.06,0,0,0,.68.36h.1a1,1,0,0,0,.63-.23l5.41-4.45a1,1,0,0,0,.13-1.41L22.26,7.32a1,1,0,0,0-1.41-.13l-5.4,4.44A1,1,0,0,0,15.31,13Zm3.5-6.76,1.27,1.54-3.86,3.18-1.27-1.55Z"/></g></svg>