<svg fill="currentColor" xmlns="http://www.w3.org/2000/svg" viewBox="0 0 32 32"><g id="sata"><path d="M23,5V4.09A2.1,2.1,0,0,0,20.91,2H11.09A2.1,2.1,0,0,0,9,4.09V5A1,1,0,0,0,8,6v8.75a3.26,3.26,0,0,0,2,3v1.19a2.06,2.06,0,0,0,2,2v8a1,1,0,0,0,2,0V21h1v8a1,1,0,0,0,2,0V21h1v8a1,1,0,0,0,2,0V21a2.06,2.06,0,0,0,2-2V17.75a3.26,3.26,0,0,0,2-3V6A1,1,0,0,0,23,5ZM11,4.09A.09.09,0,0,1,11.09,4h9.82a.09.09,0,0,1,.09.09V5H11Zm9,14.85a.06.06,0,0,1-.06.06L12,18.94V18h8Zm2-4.19A1.25,1.25,0,0,1,20.75,16h-9.5A1.25,1.25,0,0,1,10,14.75V7H22Z"/><path d="M14,14h4a1,1,0,0,0,0-2H14a1,1,0,0,0,0,2Z"/></g></svg>