<svg fill="currentColor" xmlns="http://www.w3.org/2000/svg" viewBox="0 0 32 32"><g id="scale"><path d="M26.45,2.11a1,1,0,0,0-1.34.44l-.49,1a.85.85,0,0,1-.78.48H8.16a.85.85,0,0,1-.78-.48l-.49-1a1,1,0,1,0-1.78.9l.48,1A2.84,2.84,0,0,0,7,5.76V6.84A3.17,3.17,0,0,0,10.16,10H13v2.46A10,10,0,0,0,6,22v6a1,1,0,0,0,1,1h4a1,1,0,0,0,1-1V27h8v1a1,1,0,0,0,1,1h4a1,1,0,0,0,1-1V22a10,10,0,0,0-7-9.54V10h2.84A3.17,3.17,0,0,0,25,6.84V5.76a2.84,2.84,0,0,0,1.41-1.35l.48-1A1,1,0,0,0,26.45,2.11ZM24,22v5H22v-.18A1.83,1.83,0,0,0,20.18,25H11.82A1.83,1.83,0,0,0,10,26.82V27H8V22a8,8,0,0,1,16,0ZM17,12H15V10h2Zm6-5.16A1.16,1.16,0,0,1,21.84,8H10.16A1.16,1.16,0,0,1,9,6.84V6H23Z"/><path d="M12,20a4,4,0,1,0,4-4A4,4,0,0,0,12,20Zm6,0a2,2,0,1,1-2-2A2,2,0,0,1,18,20Z"/></g></svg>