<svg fill="currentColor" xmlns="http://www.w3.org/2000/svg" viewBox="0 0 32 32"><g id="socket"><path d="M26,2H6A4,4,0,0,0,2,6V26a4,4,0,0,0,4,4H26a4,4,0,0,0,4-4V6A4,4,0,0,0,26,2Zm2,24a2,2,0,0,1-2,2H6a2,2,0,0,1-2-2V6A2,2,0,0,1,6,4H26a2,2,0,0,1,2,2Z"/><path d="M16,6A10,10,0,1,0,26,16,10,10,0,0,0,16,6Zm0,8a1,1,0,1,1,1-1A1,1,0,0,1,16,14ZM8,16a8,8,0,0,1,7-7.93v2.11a3,3,0,0,0,0,5.64v8.11A8,8,0,0,1,8,16Zm9,7.93V15.82a3,3,0,0,0,0-5.64V8.07a8,8,0,0,1,0,15.86Z"/><path d="M18,18.5A2.5,2.5,0,1,0,20.5,16,2.5,2.5,0,0,0,18,18.5Zm3,0a.5.5,0,1,1-.5-.5A.5.5,0,0,1,21,18.5Z"/><path d="M11.5,16A2.5,2.5,0,1,0,14,18.5,2.5,2.5,0,0,0,11.5,16Zm0,3a.5.5,0,1,1,.5-.5A.5.5,0,0,1,11.5,19Z"/></g></svg>