<svg fill="currentColor" xmlns="http://www.w3.org/2000/svg" viewBox="0 0 32 32"><g id="speaker_2" data-name="speaker 2"><path d="M22.36,2H9.64A2.65,2.65,0,0,0,7,4.64V27.36A2.65,2.65,0,0,0,9.64,30H22.36A2.65,2.65,0,0,0,25,27.36V4.64A2.65,2.65,0,0,0,22.36,2ZM23,27.36a.64.64,0,0,1-.64.64H9.64A.64.64,0,0,1,9,27.36V4.64A.64.64,0,0,1,9.64,4H22.36a.64.64,0,0,1,.64.64Z"/><path d="M16,13a4,4,0,1,0-4-4A4,4,0,0,0,16,13Zm0-6a2,2,0,1,1-2,2A2,2,0,0,1,16,7Z"/><path d="M16,15a6,6,0,1,0,6,6A6,6,0,0,0,16,15Zm0,10a4,4,0,1,1,4-4A4,4,0,0,1,16,25Z"/><path d="M16,10a1,1,0,0,0,0-2h0a1,1,0,0,0,0,2Z"/><path d="M16,20h0a1,1,0,1,0,1,1A1,1,0,0,0,16,20Z"/></g></svg>