<svg fill="currentColor" xmlns="http://www.w3.org/2000/svg" viewBox="0 0 32 32"><g id="speaker"><path d="M19,16a3,3,0,1,0-3,3A3,3,0,0,0,19,16Zm-4,0a1,1,0,1,1,1,1A1,1,0,0,1,15,16Z"/><path d="M26.34,25.4A13.94,13.94,0,0,0,26.8,7.1l3-3.45a1,1,0,1,0-1.52-1.3L25.4,5.66a13.9,13.9,0,0,0-18.8,0L3.76,2.35a1,1,0,0,0-1.52,1.3l3,3.45a13.94,13.94,0,0,0,.46,18.3L2.35,28.24a1,1,0,0,0,1.3,1.52l3.45-3a14,14,0,0,0,17.8,0l3.45,3a1,1,0,0,0,1.3-1.52ZM28,16a11.89,11.89,0,0,1-3.18,8.1l-1.51-1.3a9.94,9.94,0,0,0,.83-12.59l1.33-1.55A11.9,11.9,0,0,1,28,16ZM8,16a8,8,0,1,1,8,8A8,8,0,0,1,8,16ZM16,4a11.89,11.89,0,0,1,8.1,3.18L22.8,8.69a9.94,9.94,0,0,0-13.6,0L7.9,7.18A11.89,11.89,0,0,1,16,4ZM4,16A11.9,11.9,0,0,1,6.53,8.66l1.33,1.55A9.94,9.94,0,0,0,8.69,22.8L7.18,24.1A11.89,11.89,0,0,1,4,16ZM16,28a11.9,11.9,0,0,1-7.34-2.53l1.55-1.33a9.94,9.94,0,0,0,11.58,0l1.55,1.33A11.9,11.9,0,0,1,16,28Z"/></g></svg>