<svg fill="currentColor" xmlns="http://www.w3.org/2000/svg" viewBox="0 0 32 32"><g id="trimmer"><path d="M22,9.13v-1A2.11,2.11,0,0,0,20,6V3a1,1,0,0,0-2,0V6H17V3a1,1,0,0,0-2,0V6H14V3a1,1,0,0,0-2,0V6a2.11,2.11,0,0,0-2,2.1v1a1.61,1.61,0,0,0-1,1.5v4.25a5.72,5.72,0,0,0,.61,2.57A3.83,3.83,0,0,1,10,19.12V24a6,6,0,0,0,12,0V19.12a3.83,3.83,0,0,1,.39-1.67A5.72,5.72,0,0,0,23,14.88V10.63A1.61,1.61,0,0,0,22,9.13ZM11,11H21v1H11Zm1-2.89A.11.11,0,0,1,12.11,8h7.78a.11.11,0,0,1,.11.11V9H12Zm8.61,8.44A5.72,5.72,0,0,0,20,19.12V24a4,4,0,0,1-8,0V19.12a5.72,5.72,0,0,0-.61-2.57A3.83,3.83,0,0,1,11,14.88V14H21v.88A3.83,3.83,0,0,1,20.61,16.55Z"/><path d="M16,16a3,3,0,0,0-3,3v3a3,3,0,0,0,6,0V19A3,3,0,0,0,16,16Zm1,6a1,1,0,0,1-2,0V19a1,1,0,0,1,2,0Z"/></g></svg>