<svg fill="currentColor" xmlns="http://www.w3.org/2000/svg" viewBox="0 0 32 32"><g id="turntable"><path d="M27.35,6H4.65A2.65,2.65,0,0,0,2,8.65v15.7A2.65,2.65,0,0,0,4.65,27h22.7A2.65,2.65,0,0,0,30,24.35V8.65A2.65,2.65,0,0,0,27.35,6ZM28,24.35a.65.65,0,0,1-.65.65H4.65A.65.65,0,0,1,4,24.35V8.65A.65.65,0,0,1,4.65,8h22.7a.65.65,0,0,1,.65.65Z"/><path d="M12.5,9A7.5,7.5,0,1,0,20,16.5,7.5,7.5,0,0,0,12.5,9Zm0,13A5.5,5.5,0,1,1,18,16.5,5.51,5.51,0,0,1,12.5,22Z"/><path d="M12.5,12A4.5,4.5,0,1,0,17,16.5,4.51,4.51,0,0,0,12.5,12Zm0,7A2.5,2.5,0,1,1,15,16.5,2.5,2.5,0,0,1,12.5,19Z"/><path d="M26,9H22a1,1,0,0,0-1,1v5a1,1,0,0,0,1,1h1v4.38l-3.45,1.73a1,1,0,0,0-.44,1.34A1,1,0,0,0,20,24a.93.93,0,0,0,.45-.11l4-2A1,1,0,0,0,25,21V16h1a1,1,0,0,0,1-1V10A1,1,0,0,0,26,9Zm-1,5H23V11h2Z"/></g></svg>