<svg fill="currentColor" xmlns="http://www.w3.org/2000/svg" viewBox="0 0 32 32"><g id="vr_glasses" data-name="vr glasses"><path d="M28.06,17H27V16a1,1,0,0,0-1-1v-.56A2.44,2.44,0,0,0,23.56,12H19V6a1,1,0,0,0-1-1H14a1,1,0,0,0-1,1v6H8.44A2.44,2.44,0,0,0,6,14.44V15a1,1,0,0,0-1,1v1H3.94A1.94,1.94,0,0,0,2,18.94v3.12A1.94,1.94,0,0,0,3.94,24H5.06a2.52,2.52,0,0,0,2.47,2h5.75a2.34,2.34,0,0,0,2-1l.53-.8c.15-.22.33-.22.48,0l.53.8a2.34,2.34,0,0,0,1.95,1h5.75a2.52,2.52,0,0,0,2.47-2h1.12A1.94,1.94,0,0,0,30,22.06V18.94A1.94,1.94,0,0,0,28.06,17ZM17,7V8H15V7Zm-2,3h2v2H15ZM8,14.44A.44.44,0,0,1,8.44,14H23.56a.44.44,0,0,1,.44.44V15H8ZM3.94,19H5v3l-1,0ZM25,23.47a.53.53,0,0,1-.53.53H18.72a.36.36,0,0,1-.29-.15l-.53-.8a2.28,2.28,0,0,0-3.8,0l-.53.8a.36.36,0,0,1-.29.15H7.53A.53.53,0,0,1,7,23.47V17H25v6.47ZM27,22V19l1,0L28.06,22Z"/><path d="M10.71,18.29a1,1,0,0,0-1.42,0l-1,1a1,1,0,0,0,0,1.42,1,1,0,0,0,1.42,0l1-1A1,1,0,0,0,10.71,18.29Z"/><path d="M12.29,19.29l-2,2a1,1,0,0,0,0,1.42,1,1,0,0,0,1.42,0l2-2a1,1,0,0,0-1.42-1.42Z"/></g></svg>