<?xml version="1.0" encoding="UTF-8"?><svg fill="currentColor" xmlns="http://www.w3.org/2000/svg" viewBox="0 0 24 24"><g id="r"><g><path d="M18,4.25H6c-2.07,0-3.75,1.68-3.75,3.75v6c0,2.07,1.68,3.75,3.75,3.75h7.12l1.64,2.27c.35,.49,.87,.81,1.46,.91,.12,.02,.24,.03,.37,.03,.47,0,.92-.15,1.31-.43,.49-.35,.81-.87,.91-1.47,.08-.48,0-.95-.22-1.37,1.79-.28,3.17-1.82,3.17-3.69v-6c0-2.07-1.68-3.75-3.75-3.75Zm-.98,15.06c-.16,.12-.36,.16-.56,.13-.2-.03-.37-.14-.49-.3l-4.24-5.88,.02-1.25,1.19,.37,4.24,5.88c.12,.16,.17,.36,.13,.56-.03,.2-.14,.37-.3,.49Zm3.23-5.31c0,1.24-1.01,2.25-2.25,2.25h-.42l-3.57-4.94c-.09-.13-.23-.23-.38-.28l-2.39-.74c-.23-.07-.47-.03-.66,.11-.19,.14-.31,.36-.31,.59l-.05,2.5c0,.16,.05,.32,.14,.45l1.67,2.31H6c-1.24,0-2.25-1.01-2.25-2.25v-6c0-1.24,1.01-2.25,2.25-2.25h12c1.24,0,2.25,1.01,2.25,2.25v6Z"/><path d="M6,8.25c-.41,0-.75,.34-.75,.75v4c0,.41,.34,.75,.75,.75s.75-.34,.75-.75v-4c0-.41-.34-.75-.75-.75Z"/></g></g></svg>