<?xml version="1.0" encoding="UTF-8"?><svg fill="currentColor" xmlns="http://www.w3.org/2000/svg" viewBox="0 0 24 24"><g id="u"><g><path d="M18,3.25H6c-2.07,0-3.75,1.68-3.75,3.75v7c0,2.07,1.68,3.75,3.75,3.75h3.28s0,.06,0,.09c-.13,.6-.39,1.07-.63,1.41h-.63c-.41,0-.75,.34-.75,.75s.34,.75,.75,.75h8c.41,0,.75-.34,.75-.75s-.34-.75-.75-.75h-.63c-.24-.34-.5-.81-.64-1.41,0-.03,0-.06,0-.09h3.28c2.07,0,3.75-1.68,3.75-3.75V7c0-2.07-1.68-3.75-3.75-3.75Zm-4.73,14.91c.08,.37,.21,.74,.37,1.09h-3.27c.16-.35,.29-.71,.37-1.09,.03-.14,.06-.27,.07-.41h2.39c.02,.14,.04,.28,.07,.41Zm6.98-4.16c0,1.24-1.01,2.25-2.25,2.25H6c-1.24,0-2.25-1.01-2.25-2.25V7c0-1.24,1.01-2.25,2.25-2.25h12c1.24,0,2.25,1.01,2.25,2.25v7Z"/><path d="M15,13.25h-6c-.41,0-.75,.34-.75,.75s.34,.75,.75,.75h6c.41,0,.75-.34,.75-.75s-.34-.75-.75-.75Z"/></g></g></svg>