<?xml version="1.0" encoding="UTF-8"?><svg fill="currentColor" xmlns="http://www.w3.org/2000/svg" viewBox="0 0 24 24"><g id="g"><g><path d="M15,2.25h-6c-2.07,0-3.75,1.68-3.75,3.75v11c0,1.43,.82,2.66,2,3.3v.7c0,.41,.34,.75,.75,.75s.75-.34,.75-.75v-.28c.08,0,.16,.03,.25,.03h6c.09,0,.17-.02,.25-.03v.28c0,.41,.34,.75,.75,.75s.75-.34,.75-.75v-.7c1.18-.63,2-1.86,2-3.3V6c0-2.07-1.68-3.75-3.75-3.75Zm2.25,14.75c0,1.24-1.01,2.25-2.25,2.25h-6c-1.24,0-2.25-1.01-2.25-2.25V6c0-1.24,1.01-2.25,2.25-2.25h6c1.24,0,2.25,1.01,2.25,2.25v11Z"/><path d="M13.36,7.35c-.36,.21-.48,.67-.27,1.02,.11,.19,.17,.41,.17,.63,0,.69-.56,1.25-1.25,1.25s-1.25-.56-1.25-1.25c0-.22,.06-.44,.17-.63,.21-.36,.08-.82-.27-1.02-.36-.21-.82-.08-1.02,.27-.24,.42-.37,.89-.37,1.38,0,1.52,1.23,2.75,2.75,2.75s2.75-1.23,2.75-2.75c0-.48-.13-.96-.37-1.38-.21-.36-.67-.48-1.02-.27Z"/><path d="M12,8.75c.41,0,.75-.34,.75-.75v-1c0-.41-.34-.75-.75-.75s-.75,.34-.75,.75v1c0,.41,.34,.75,.75,.75Z"/></g></g></svg>