<?xml version="1.0" encoding="UTF-8"?><svg fill="currentColor" xmlns="http://www.w3.org/2000/svg" viewBox="0 0 24 24"><g id="n"><g><path d="M19,9.25h-3.25v-1.25c0-.7-.41-1.29-1-1.57v-2.43c0-.96-.79-1.75-1.75-1.75h-4c-.96,0-1.75,.79-1.75,1.75v2.43c-.59,.28-1,.88-1,1.57v10c0,2.07,1.68,3.75,3.75,3.75h2c2.07,0,3.75-1.68,3.75-3.75v-1.25h3.25c1.52,0,2.75-1.23,2.75-2.75v-2c0-1.52-1.23-2.75-2.75-2.75ZM8.75,4c0-.14,.11-.25,.25-.25h4c.14,0,.25,.11,.25,.25v2.25h-4.5v-2.25Zm5.5,14c0,1.24-1.01,2.25-2.25,2.25h-2c-1.24,0-2.25-1.01-2.25-2.25V8c0-.14,.11-.25,.25-.25h6c.14,0,.25,.11,.25,.25v1.25h-1.25c-2.07,0-3.75,1.68-3.75,3.75s1.68,3.75,3.75,3.75h1.25v1.25Zm6-4c0,.69-.56,1.25-1.25,1.25h-6c-1.24,0-2.25-1.01-2.25-2.25s1.01-2.25,2.25-2.25h6c.69,0,1.25,.56,1.25,1.25v2Z"/><path d="M13.02,12.25h0c-.41,0-.74,.34-.74,.75s.34,.75,.75,.75,.75-.34,.75-.75-.33-.75-.75-.75Z"/></g></g></svg>