<?xml version="1.0" encoding="UTF-8"?><svg fill="currentColor" xmlns="http://www.w3.org/2000/svg" viewBox="0 0 24 24"><g id="q"><path d="M15.06,2.26h-.03s-.02,0-.04,0h-6s-.02,0-.03,0c-.01,0-.02,0-.03,0-2.04,.04-3.68,1.7-3.68,3.74v12c0,2.07,1.68,3.75,3.75,3.75h6c2.07,0,3.75-1.68,3.75-3.75V6c0-2.05-1.65-3.71-3.69-3.74Zm-1.28,1.49l-.18,.36c-.04,.08-.13,.14-.22,.14h-2.76c-.1,0-.18-.05-.22-.14l-.18-.36h3.57Zm3.46,14.25c0,1.24-1.01,2.25-2.25,2.25h-6c-1.24,0-2.25-1.01-2.25-2.25V6c0-1.09,.78-2,1.81-2.21l.49,.99c.3,.6,.9,.97,1.57,.97h2.76c.67,0,1.27-.37,1.57-.97l.49-.99c1.03,.21,1.81,1.12,1.81,2.21v12Z"/></g></svg>