<?xml version="1.0" encoding="UTF-8"?><svg fill="currentColor" xmlns="http://www.w3.org/2000/svg" viewBox="0 0 24 24"><g id="e"><g><path d="M16,2.25H8c-2.07,0-3.75,1.68-3.75,3.75v12c0,2.07,1.68,3.75,3.75,3.75h8c2.07,0,3.75-1.68,3.75-3.75V6c0-2.07-1.68-3.75-3.75-3.75Zm2.25,15.75c0,1.24-1.01,2.25-2.25,2.25H8c-1.24,0-2.25-1.01-2.25-2.25V6c0-1.24,1.01-2.25,2.25-2.25h8c1.24,0,2.25,1.01,2.25,2.25v12Z"/><path d="M10.84,5.39c-1.23,.31-2.27,1.08-2.92,2.17-.65,1.09-.84,2.37-.53,3.6,.18,.73,.55,1.42,1.04,1.98,.27,.31,.75,.34,1.06,.06,.31-.27,.34-.75,.07-1.06-.34-.39-.58-.85-.71-1.36-.21-.84-.08-1.72,.36-2.46,.44-.75,1.15-1.27,2-1.48,1.74-.44,3.51,.62,3.95,2.36,.21,.84,.08,1.72-.36,2.46-.44,.75-1.15,1.27-2,1.48-.4,.1-.65,.51-.54,.91,.09,.34,.39,.57,.73,.57,.06,0,.12,0,.18-.02,1.23-.31,2.27-1.08,2.92-2.17,.65-1.09,.84-2.37,.53-3.6-.64-2.54-3.23-4.08-5.77-3.45Z"/><path d="M12.45,11.4c-.33-.25-.8-.18-1.05,.15l-3,4c-.25,.33-.18,.8,.15,1.05,.14,.1,.29,.15,.45,.15,.23,0,.45-.1,.6-.3l3-4c.25-.33,.18-.8-.15-1.05Z"/></g></g></svg>