<?xml version="1.0" encoding="UTF-8"?><svg fill="currentColor" xmlns="http://www.w3.org/2000/svg" viewBox="0 0 24 24"><g id="d"><path d="M20.75,8.72l.28-.42c.57-.85,.43-1.97-.33-2.67-3.44-3.14-7.53-3.39-8.7-3.39-4.26,0-7.27,2.12-8.69,3.39-.77,.69-.91,1.81-.34,2.67l.28,.42c-.65,1.32-1,2.79-1,4.28,0,2.67,1.06,5.15,2.97,7.01,.28,.27,.65,.44,1.05,.48l.38,.04c.08,0,.16,.01,.24,.01,.69,0,1.34-.29,1.81-.81,.52-.58,.74-1.35,.58-2.12l-.23-1.16c-.26-1.28-1.39-2.21-2.7-2.21h-2.36c-.05,0-.1,0-.15,.02-.06-.41-.1-.84-.1-1.27,0-1.15,.24-2.25,.7-3.29,.14,.04,.29,.07,.44,.09,.63,.05,1.25-.19,1.69-.65,2.21-2.36,5.4-2.39,5.43-2.39,2.56,0,4.36,1.33,5.42,2.45,.39,.41,.92,.64,1.47,.64,.06,0,.12,0,.18,0,.17-.01,.33-.05,.49-.11,.45,1.03,.69,2.13,.69,3.28,0,.43-.03,.85-.1,1.27-.05,0-.1-.02-.15-.02h-2.36c-1.31,0-2.44,.93-2.7,2.21l-.23,1.16c-.15,.77,.06,1.54,.58,2.12,.47,.52,1.12,.8,1.81,.8,.08,0,.16,0,.24-.01l.38-.04c.4-.04,.77-.21,1.05-.48,1.92-1.85,2.97-4.34,2.97-7.01,0-1.48-.35-2.95-1-4.28ZM6.36,15.75c.59,0,1.11,.42,1.23,1l.23,1.16c.06,.3-.02,.59-.23,.82-.2,.22-.49,.34-.79,.31l-.38-.04c-.06,0-.12-.03-.16-.07-.94-.91-1.63-1.99-2.05-3.18h2.14Zm11.38,3.18s-.09,.06-.16,.07l-.38,.04c-.3,.03-.59-.08-.79-.31s-.28-.52-.23-.82l.23-1.16c.12-.58,.63-1,1.23-1h2.14c-.42,1.19-1.11,2.27-2.05,3.18Zm1.2-10.6c-.15,.01-.31-.05-.43-.17-1.26-1.33-3.42-2.92-6.51-2.92-.16,0-3.87,.03-6.52,2.86-.12,.13-.29,.21-.47,.18-.1,0-.28-.05-.4-.24l-.39-.59c-.15-.23-.12-.53,.09-.72,1.26-1.12,3.92-3.01,7.69-3.01,1.04,0,4.65,.22,7.69,2.99,.21,.19,.25,.5,.1,.73l-.37,.55c-.12,.19-.29,.3-.48,.31Z"/></g></svg>