<?xml version="1.0" encoding="UTF-8"?><svg fill="currentColor" xmlns="http://www.w3.org/2000/svg" viewBox="0 0 24 24"><g id="t"><path d="M21,15.25h-.25v-7.25c0-2.07-1.68-3.75-3.75-3.75H7c-2.07,0-3.75,1.68-3.75,3.75v7.25h-.25c-.41,0-.75,.34-.75,.75v1c0,1.52,1.23,2.75,2.75,2.75h14c1.52,0,2.75-1.23,2.75-2.75v-1c0-.41-.34-.75-.75-.75ZM4.75,8c0-1.24,1.01-2.25,2.25-2.25h10c1.24,0,2.25,1.01,2.25,2.25v7.25h-3.84c-.47,0-.91,.18-1.24,.51l-.41,.41s-.11,.07-.18,.07h-3.17c-.07,0-.13-.03-.18-.07l-.41-.41c-.33-.33-.77-.51-1.24-.51h-3.84v-7.25Zm15.5,9c0,.69-.56,1.25-1.25,1.25H5c-.69,0-1.25-.56-1.25-1.25v-.25h4.84c.07,0,.13,.03,.18,.07l.41,.41c.33,.33,.77,.51,1.24,.51h3.17c.47,0,.91-.18,1.24-.51l.41-.41s.11-.07,.18-.07h4.84v.25Z"/></g></svg>