<?xml version="1.0" encoding="UTF-8"?><svg fill="currentColor" xmlns="http://www.w3.org/2000/svg" viewBox="0 0 24 24"><g id="b"><g><path d="M18.82,7.24l.41-.41c.33-.33,.51-.78,.51-1.24v-1.59c0-.96-.79-1.75-1.75-1.75H7.54c-.59,0-1.13,.29-1.46,.78l-1.54,2.3c-.19,.29-.29,.62-.29,.97v2.28c0,.46,.19,.91,.51,1.24l.41,.41s.07,.11,.07,.18v1.17c0,.07-.03,.13-.07,.18l-.41,.41c-.33,.33-.51,.78-.51,1.24v6.59c0,.96,.79,1.75,1.75,1.75h2.59c.46,0,.91-.19,1.24-.51l.41-.41s.11-.07,.18-.07h3.17c.07,0,.13,.03,.18,.07l.41,.41c.33,.33,.78,.51,1.24,.51h2.59c.96,0,1.75-.79,1.75-1.75v-7.59c0-.46-.19-.91-.51-1.24l-.41-.41s-.07-.11-.07-.18v-3.17c0-.07,.03-.13,.07-.18Zm-.57-1.65c0,.07-.03,.13-.07,.18l-.41,.41c-.33,.33-.51,.78-.51,1.24v3.17c0,.46,.19,.91,.51,1.24l.41,.41s.07,.11,.07,.18v7.59c0,.14-.11,.25-.25,.25h-2.59c-.07,0-.13-.03-.18-.07l-.41-.41c-.33-.33-.78-.51-1.24-.51h-3.17c-.46,0-.91,.19-1.24,.51l-.41,.41s-.11,.07-.18,.07h-2.59c-.14,0-.25-.11-.25-.25v-6.59c0-.07,.03-.13,.07-.18l.41-.41c.33-.33,.51-.78,.51-1.24v-1.17c0-.46-.19-.91-.51-1.24l-.41-.41s-.07-.11-.07-.18v-2.28s.01-.1,.04-.14l1.54-2.3c.05-.07,.12-.11,.21-.11h10.46c.14,0,.25,.11,.25,.25v1.59Z"/><path d="M15,11.25h-6c-.96,0-1.75,.79-1.75,1.75v3c0,.96,.79,1.75,1.75,1.75h6c.96,0,1.75-.79,1.75-1.75v-3c0-.96-.79-1.75-1.75-1.75Zm.25,4.75c0,.14-.11,.25-.25,.25h-6c-.14,0-.25-.11-.25-.25v-3c0-.14,.11-.25,.25-.25h6c.14,0,.25,.11,.25,.25v3Z"/><path d="M12,7.75c.41,0,.75-.34,.75-.75v-2c0-.41-.34-.75-.75-.75s-.75,.34-.75,.75v2c0,.41,.34,.75,.75,.75Z"/><path d="M15,7.75c.41,0,.75-.34,.75-.75v-2c0-.41-.34-.75-.75-.75s-.75,.34-.75,.75v2c0,.41,.34,.75,.75,.75Z"/><path d="M9,7.75c.41,0,.75-.34,.75-.75v-2c0-.41-.34-.75-.75-.75s-.75,.34-.75,.75v2c0,.41,.34,.75,.75,.75Z"/></g></g></svg>