<?xml version="1.0" encoding="UTF-8"?><svg fill="currentColor" xmlns="http://www.w3.org/2000/svg" viewBox="0 0 24 24"><g id="p"><g><path d="M13,7.25h-.25v-.25c0-1.52-1.23-2.75-2.75-2.75h-1c-.69,0-1.25-.56-1.25-1.25,0-.41-.34-.75-.75-.75s-.75,.34-.75,.75c0,1.52,1.23,2.75,2.75,2.75h1c.69,0,1.25,.56,1.25,1.25v.25h-.25c-2.62,0-4.75,2.13-4.75,4.75v5c0,2.62,2.13,4.75,4.75,4.75h2c2.62,0,4.75-2.13,4.75-4.75v-5c0-2.62-2.13-4.75-4.75-4.75Zm3.25,9.75c0,1.79-1.46,3.25-3.25,3.25h-2c-1.79,0-3.25-1.46-3.25-3.25v-5c0-1.79,1.46-3.25,3.25-3.25h2c1.79,0,3.25,1.46,3.25,3.25v5Z"/><path d="M12,10.25c-.41,0-.75,.34-.75,.75v2c0,.41,.34,.75,.75,.75s.75-.34,.75-.75v-2c0-.41-.34-.75-.75-.75Z"/></g></g></svg>