<?xml version="1.0" encoding="UTF-8"?><svg fill="currentColor" xmlns="http://www.w3.org/2000/svg" viewBox="0 0 24 24"><g id="l"><g><path d="M17,6.25h-.25v-2.25c0-.96-.79-1.75-1.75-1.75h-6c-.96,0-1.75,.79-1.75,1.75v2.25h-.25c-2.07,0-3.75,1.68-3.75,3.75v3c0,2.07,1.68,3.75,3.75,3.75h.25v2.25c0,.96,.79,1.75,1.75,1.75h6c.96,0,1.75-.79,1.75-1.75v-2.25h.25c2.07,0,3.75-1.68,3.75-3.75v-3c0-2.07-1.68-3.75-3.75-3.75Zm-8.25-2.25c0-.14,.11-.25,.25-.25h6c.14,0,.25,.11,.25,.25v2.25h-6.5v-2.25Zm6.5,15c0,.14-.11,.25-.25,.25h-6c-.14,0-.25-.11-.25-.25v-5.25h6.5v5.25Zm4-6c0,1.24-1.01,2.25-2.25,2.25h-.25v-1.5h.25c.41,0,.75-.34,.75-.75s-.34-.75-.75-.75H7c-.41,0-.75,.34-.75,.75s.34,.75,.75,.75h.25v1.5h-.25c-1.24,0-2.25-1.01-2.25-2.25v-3c0-1.24,1.01-2.25,2.25-2.25h10c1.24,0,2.25,1.01,2.25,2.25v3Z"/><path d="M17.02,9.25h0c-.41,0-.75,.34-.75,.75s.34,.75,.75,.75,.75-.34,.75-.75-.33-.75-.75-.75Z"/></g></g></svg>