<?xml version="1.0" encoding="UTF-8"?><svg fill="currentColor" xmlns="http://www.w3.org/2000/svg" viewBox="0 0 24 24"><g id="j"><g><path d="M19,11.25h-.25V5c0-.41-.34-.75-.75-.75s-.75,.34-.75,.75v6.25H6.75V5c0-.41-.34-.75-.75-.75s-.75,.34-.75,.75v6.25h-.25c-1.52,0-2.75,1.23-2.75,2.75v2c0,1.52,1.23,2.75,2.75,2.75h.25v.25c0,.41,.34,.75,.75,.75s.75-.34,.75-.75v-.25h10.5v.25c0,.41,.34,.75,.75,.75s.75-.34,.75-.75v-.25h.25c1.52,0,2.75-1.23,2.75-2.75v-2c0-1.52-1.23-2.75-2.75-2.75Zm1.25,4.75c0,.69-.56,1.25-1.25,1.25H5c-.69,0-1.25-.56-1.25-1.25v-2c0-.69,.56-1.25,1.25-1.25h14c.69,0,1.25,.56,1.25,1.25v2Z"/><path d="M18,14.25h-2c-.41,0-.75,.34-.75,.75s.34,.75,.75,.75h2c.41,0,.75-.34,.75-.75s-.34-.75-.75-.75Z"/><path d="M6.02,14.25h-.01c-.41,0-.74,.34-.74,.75s.34,.75,.75,.75,.75-.34,.75-.75-.34-.75-.75-.75Z"/><path d="M9.02,14.25h-.01c-.41,0-.74,.34-.74,.75s.34,.75,.75,.75,.75-.34,.75-.75-.34-.75-.75-.75Z"/></g></g></svg>