<?xml version="1.0" encoding="UTF-8"?><svg fill="currentColor" xmlns="http://www.w3.org/2000/svg" viewBox="0 0 24 24"><g id="k"><g><path d="M17,6.25H7c-2.62,0-4.75,2.13-4.75,4.75s2.13,4.75,4.75,4.75h2.28s0,.06,0,.09c-.13,.6-.39,1.07-.64,1.41h-.63c-.41,0-.75,.34-.75,.75s.34,.75,.75,.75h8c.41,0,.75-.34,.75-.75s-.34-.75-.75-.75h-.63c-.24-.34-.5-.81-.63-1.41,0-.03,0-.06,0-.09h2.28c2.62,0,4.75-2.13,4.75-4.75s-2.13-4.75-4.75-4.75Zm-3.73,9.91c.08,.37,.21,.74,.37,1.09h-3.27c.16-.35,.29-.71,.37-1.09,.03-.14,.05-.27,.07-.41h2.39c.02,.14,.04,.28,.07,.41Zm3.73-1.91H7c-1.79,0-3.25-1.46-3.25-3.25s1.46-3.25,3.25-3.25h10c1.79,0,3.25,1.46,3.25,3.25s-1.46,3.25-3.25,3.25Z"/><path d="M12,8.25c-1.52,0-2.75,1.23-2.75,2.75s1.23,2.75,2.75,2.75,2.75-1.23,2.75-2.75-1.23-2.75-2.75-2.75Zm0,4c-.69,0-1.25-.56-1.25-1.25s.56-1.25,1.25-1.25,1.25,.56,1.25,1.25-.56,1.25-1.25,1.25Z"/><path d="M17.02,9.25h-.01c-.41,0-.74,.34-.74,.75s.34,.75,.75,.75,.75-.34,.75-.75-.34-.75-.75-.75Z"/></g></g></svg>