<?xml version="1.0" encoding="UTF-8"?><svg fill="currentColor" xmlns="http://www.w3.org/2000/svg" viewBox="0 0 24 24"><g id="c"><g><path d="M19.75,10c0-4.27-3.48-7.75-7.75-7.75s-7.75,3.48-7.75,7.75c0,3.3,2.08,6.12,5,7.24v.76c0,1.25,.85,2.3,2,2.63v.37c0,.41,.34,.75,.75,.75s.75-.34,.75-.75v-.37c1.15-.33,2-1.38,2-2.63v-.76c2.92-1.11,5-3.93,5-7.24Zm-6.5,8c0,.69-.56,1.25-1.25,1.25s-1.25-.56-1.25-1.25v-.36c.41,.07,.82,.11,1.25,.11s.84-.04,1.25-.11v.36Zm-1.25-1.75c-3.45,0-6.25-2.8-6.25-6.25s2.8-6.25,6.25-6.25,6.25,2.8,6.25,6.25-2.8,6.25-6.25,6.25Z"/><path d="M14,9.25h-2.6l1.22-1.83c.23-.34,.14-.81-.21-1.04-.35-.23-.81-.14-1.04,.21l-2,3c-.15,.23-.17,.53-.04,.77,.13,.24,.38,.4,.66,.4h2.6l-1.22,1.83c-.23,.34-.14,.81,.21,1.04,.13,.08,.27,.13,.42,.13,.24,0,.48-.12,.63-.33l2-3c.15-.23,.17-.53,.04-.77-.13-.24-.38-.4-.66-.4Z"/></g></g></svg>