<?xml version="1.0" encoding="UTF-8"?><svg fill="currentColor" xmlns="http://www.w3.org/2000/svg" viewBox="0 0 24 24"><g id="m"><g><path d="M5.29,18.75c.18,0,.36-.06,.5-.19,.31-.28,.33-.75,.06-1.06-1.35-1.51-2.1-3.47-2.1-5.5C3.75,7.45,7.45,3.75,12,3.75s8.25,3.7,8.25,8.25c0,2.03-.75,3.99-2.1,5.5-.28,.31-.25,.78,.06,1.06,.31,.28,.78,.25,1.06-.06,1.6-1.79,2.48-4.1,2.48-6.5,0-5.38-4.37-9.75-9.75-9.75S2.25,6.62,2.25,12c0,2.4,.88,4.71,2.48,6.5,.15,.17,.35,.25,.56,.25Z"/><path d="M21,20.25H3c-.41,0-.75,.34-.75,.75s.34,.75,.75,.75H21c.41,0,.75-.34,.75-.75s-.34-.75-.75-.75Z"/><path d="M13,7.25h-4c-.41,0-.75,.34-.75,.75s.34,.75,.75,.75h.28c-.01,.08-.03,.16-.03,.25v6c0,.09,.01,.17,.03,.25h-.28c-.41,0-.75,.34-.75,.75s.34,.75,.75,.75h4c1.52,0,2.75-1.23,2.75-2.75,0-.79-.33-1.5-.86-2,.53-.5,.86-1.21,.86-2,0-1.52-1.23-2.75-2.75-2.75Zm0,8h-2c-.14,0-.25-.11-.25-.25v-2.25h2.25c.69,0,1.25,.56,1.25,1.25s-.56,1.25-1.25,1.25Zm0-4h-2.25v-2.25c0-.14,.11-.25,.25-.25h2c.69,0,1.25,.56,1.25,1.25s-.56,1.25-1.25,1.25Z"/></g></g></svg>