<?xml version="1.0" encoding="UTF-8"?><svg fill="currentColor" xmlns="http://www.w3.org/2000/svg" viewBox="0 0 24 24"><g id="t"><g><path d="M12,2.25C6.62,2.25,2.25,6.62,2.25,12s4.37,9.75,9.75,9.75,9.75-4.37,9.75-9.75S17.38,2.25,12,2.25Zm0,18c-4.55,0-8.25-3.7-8.25-8.25S7.45,3.75,12,3.75s8.25,3.7,8.25,8.25-3.7,8.25-8.25,8.25Z"/><path d="M14,7.25h-6c-.41,0-.75,.34-.75,.75s.34,.75,.75,.75h.25v6.5h-.25c-.41,0-.75,.34-.75,.75s.34,.75,.75,.75h6c1.52,0,2.75-1.23,2.75-2.75,0-.79-.33-1.5-.86-2,.53-.5,.86-1.21,.86-2,0-1.52-1.23-2.75-2.75-2.75Zm0,8h-4.25v-2.5h4.25c.69,0,1.25,.56,1.25,1.25s-.56,1.25-1.25,1.25Zm0-4h-4.25v-2.5h4.25c.69,0,1.25,.56,1.25,1.25s-.56,1.25-1.25,1.25Z"/></g></g></svg>