<?xml version="1.0" encoding="UTF-8"?><svg fill="currentColor" xmlns="http://www.w3.org/2000/svg" viewBox="0 0 24 24"><g id="u"><g><path d="M12,2.25C6.62,2.25,2.25,6.62,2.25,12s4.37,9.75,9.75,9.75,9.75-4.37,9.75-9.75S17.38,2.25,12,2.25Zm0,18c-4.55,0-8.25-3.7-8.25-8.25S7.45,3.75,12,3.75s8.25,3.7,8.25,8.25-3.7,8.25-8.25,8.25Z"/><path d="M13.24,8.18c-.68-.68-1.79-.68-2.47,0l-2.59,2.59c-.68,.68-.68,1.79,0,2.47l2.59,2.59c.34,.34,.79,.51,1.24,.51s.9-.17,1.24-.51l2.59-2.59c.68-.68,.68-1.79,0-2.47l-2.59-2.59Zm1.53,4l-2.59,2.59c-.1,.1-.26,.1-.35,0l-2.59-2.59c-.1-.1-.1-.26,0-.35l2.59-2.59s.11-.07,.18-.07,.13,.02,.18,.07l2.59,2.59c.1,.1,.1,.26,0,.35Z"/></g></g></svg>