<?xml version="1.0" encoding="UTF-8"?><svg fill="currentColor" xmlns="http://www.w3.org/2000/svg" viewBox="0 0 24 24"><g id="k"><g><path d="M6.57,17.54l-1.82-.93v-2.04c0-.41-.34-.75-.75-.75s-.75,.34-.75,.75v2.5c0,.28,.16,.54,.41,.67l2.23,1.14c.11,.06,.23,.08,.34,.08,.27,0,.54-.15,.67-.41,.19-.37,.04-.82-.33-1.01Z"/><path d="M4,10.5c.41,0,.75-.34,.75-.75v-2.04l1.82-.93c.37-.19,.52-.64,.33-1.01-.19-.37-.64-.51-1.01-.33l-2.23,1.14c-.25,.13-.41,.39-.41,.67v2.5c0,.41,.34,.75,.75,.75Z"/><path d="M10.12,4.96l1.88-.96,1.88,.96c.11,.06,.23,.08,.34,.08,.27,0,.54-.15,.67-.41,.19-.37,.04-.82-.33-1.01l-2.23-1.14c-.21-.11-.47-.11-.68,0l-2.23,1.14c-.37,.19-.52,.64-.33,1.01,.19,.37,.64,.51,1.01,.33Z"/><path d="M20.34,6.58l-2.23-1.14c-.37-.19-.82-.04-1.01,.33-.19,.37-.04,.82,.33,1.01l1.82,.93v2.04c0,.41,.34,.75,.75,.75s.75-.34,.75-.75v-2.5c0-.28-.16-.54-.41-.67Z"/><path d="M20,13.82c-.41,0-.75,.34-.75,.75v2.04l-1.82,.93c-.37,.19-.52,.64-.33,1.01,.13,.26,.4,.41,.67,.41,.11,0,.23-.03,.34-.08l2.23-1.14c.25-.13,.41-.39,.41-.67v-2.5c0-.41-.34-.75-.75-.75Z"/><path d="M13.88,19.35l-1.88,.96-1.88-.96c-.37-.19-.82-.04-1.01,.33-.19,.37-.04,.82,.33,1.01l2.23,1.14c.11,.05,.22,.08,.34,.08s.23-.03,.34-.08l2.23-1.14c.37-.19,.52-.64,.33-1.01-.19-.37-.64-.51-1.01-.33Z"/><path d="M14.8,9.37l-2-1.02c-.5-.25-1.09-.25-1.59,0l-2,1.02c-.59,.3-.95,.9-.95,1.56v2.46c0,.66,.37,1.26,.95,1.56l2,1.02c.25,.13,.52,.19,.79,.19s.55-.06,.8-.19l2-1.02c.59-.3,.95-.9,.95-1.56v-2.46c0-.66-.37-1.26-.95-1.56Zm-.55,4.02c0,.09-.05,.18-.14,.22l-2,1.02c-.07,.04-.16,.04-.23,0l-2-1.02c-.08-.04-.14-.13-.14-.22v-2.46c0-.09,.05-.18,.14-.22l2-1.02s.08-.03,.12-.03,.08,0,.11,.03l2,1.02c.08,.04,.14,.13,.14,.22v2.46Z"/></g></g></svg>