<?xml version="1.0" encoding="UTF-8"?><svg fill="currentColor" xmlns="http://www.w3.org/2000/svg" viewBox="0 0 24 24"><g id="h"><g><path d="M18,2.25h-7.76c-.99,0-1.95,.4-2.65,1.1L3.35,7.59c-.7,.7-1.1,1.66-1.1,2.65v7.76c0,2.07,1.68,3.75,3.75,3.75h7.76c.99,0,1.95-.4,2.65-1.1l4.24-4.24c.7-.7,1.1-1.66,1.1-2.65V6c0-2.07-1.68-3.75-3.75-3.75Zm2.25,11.51c0,.59-.24,1.17-.66,1.59l-4.24,4.24c-.42,.42-1,.66-1.59,.66H6c-1.24,0-2.25-1.01-2.25-2.25v-7.76c0-.59,.24-1.17,.66-1.59l4.24-4.24c.42-.42,1-.66,1.59-.66h7.76c1.24,0,2.25,1.01,2.25,2.25v7.76Z"/><path d="M16.24,6.18c-.68-.68-1.79-.68-2.47,0l-1.59,1.59c-.68,.68-.68,1.79,0,2.47l1.59,1.59c.34,.34,.79,.51,1.24,.51s.9-.17,1.24-.51l1.59-1.59c.68-.68,.68-1.79,0-2.47l-1.59-1.59Zm.53,3l-1.59,1.59c-.13,.13-.23,.13-.35,0l-1.59-1.59c-.06-.06-.07-.14-.07-.18s0-.11,.07-.18l1.59-1.59c.06-.06,.14-.07,.18-.07s.11,0,.18,.07l1.59,1.59c.06,.06,.07,.14,.07,.18s0,.11-.07,.18Z"/><path d="M9.47,13.47l-4,4c-.29,.29-.29,.77,0,1.06,.15,.15,.34,.22,.53,.22s.38-.07,.53-.22l4-4c.29-.29,.29-.77,0-1.06s-.77-.29-1.06,0Z"/><path d="M13.47,15.47l-2,2c-.29,.29-.29,.77,0,1.06,.15,.15,.34,.22,.53,.22s.38-.07,.53-.22l2-2c.29-.29,.29-.77,0-1.06s-.77-.29-1.06,0Z"/><path d="M6,12.75c.19,0,.38-.07,.53-.22l2-2c.29-.29,.29-.77,0-1.06s-.77-.29-1.06,0l-2,2c-.29,.29-.29,.77,0,1.06,.15,.15,.34,.22,.53,.22Z"/></g></g></svg>