<?xml version="1.0" encoding="UTF-8"?><svg fill="currentColor" xmlns="http://www.w3.org/2000/svg" viewBox="0 0 24 24"><g id="g"><path d="M18,2.25h-7.76c-.99,0-1.95,.4-2.65,1.1L3.35,7.59c-.7,.7-1.1,1.66-1.1,2.65v7.76c0,2.07,1.68,3.75,3.75,3.75h7.76c.99,0,1.95-.4,2.65-1.1l4.24-4.24c.7-.7,1.1-1.66,1.1-2.65V6c0-2.07-1.68-3.75-3.75-3.75Zm0,1.5c1.24,0,2.25,1.01,2.25,2.25v7.76c0,.18-.03,.36-.07,.53-.06-.01-.12-.04-.18-.04h-4.25v-3.25c0-1.52-1.23-2.75-2.75-2.75h-3.25V4c0-.06-.02-.12-.04-.18,.17-.04,.35-.07,.53-.07h7.76Zm-8.25,6h3.25c.69,0,1.25,.56,1.25,1.25v3.25h-3.25c-.69,0-1.25-.56-1.25-1.25v-3.25Zm-1.5-4.94v3.44h-3.44l3.44-3.44Zm-2.25,15.44c-1.24,0-2.25-1.01-2.25-2.25v-7.76c0-.18,.03-.36,.07-.53,.06,.01,.12,.04,.18,.04h4.25v3.25c0,1.52,1.23,2.75,2.75,2.75h3.25v4.25c0,.06,.02,.12,.04,.18-.17,.04-.35,.07-.53,.07H6Zm9.75-1.06v-3.44h3.44l-3.44,3.44Z"/></g></svg>