<?xml version="1.0" encoding="UTF-8"?><svg fill="currentColor" xmlns="http://www.w3.org/2000/svg" viewBox="0 0 24 24"><g id="d"><g><path d="M15,5.25c-1.08,0-2.1,.26-3.01,.72-.93-.46-1.95-.72-2.99-.72-3.72,0-6.75,3.03-6.75,6.75s3.03,6.75,6.75,6.75c1.04,0,2.07-.25,2.99-.72,.91,.45,1.93,.72,3.01,.72,3.72,0,6.75-3.03,6.75-6.75s-3.03-6.75-6.75-6.75Zm-6,12c-2.9,0-5.25-2.36-5.25-5.25s2.35-5.25,5.25-5.25c.51,0,1.02,.08,1.51,.23-1.38,1.24-2.26,3.03-2.26,5.02s.88,3.79,2.26,5.02c-.49,.15-.99,.23-1.51,.23Zm6,0c-2.9,0-5.25-2.36-5.25-5.25s2.35-5.25,5.25-5.25,5.25,2.36,5.25,5.25-2.36,5.25-5.25,5.25Z"/><path d="M16.24,9.18c-.68-.68-1.79-.68-2.47,0l-1.59,1.59c-.68,.68-.68,1.79,0,2.47l1.59,1.59c.34,.34,.79,.51,1.24,.51s.9-.17,1.24-.51l1.59-1.59c.68-.68,.68-1.79,0-2.47l-1.59-1.59Zm.53,3l-1.59,1.59c-.13,.13-.23,.13-.35,0l-1.59-1.59c-.06-.06-.07-.14-.07-.18s0-.11,.07-.18l1.59-1.59c.06-.06,.14-.07,.18-.07s.11,0,.18,.07l1.59,1.59c.06,.06,.07,.14,.07,.18s0,.11-.07,.18Z"/></g></g></svg>