<?xml version="1.0" encoding="UTF-8"?><svg fill="currentColor" xmlns="http://www.w3.org/2000/svg" viewBox="0 0 24 24"><g id="i"><g><path d="M18.88,7.91L13.14,2.99c-.66-.56-1.62-.56-2.28,0L5.12,7.91c-.33,.28-.49,.71-.42,1.14,.07,.43,.34,.79,.74,.96l5.87,2.51c.22,.09,.46,.14,.69,.14s.47-.05,.69-.14l5.87-2.51c.4-.17,.68-.53,.74-.96,.07-.43-.09-.86-.42-1.14Zm-6.78,3.23c-.06,.02-.13,.03-.2,0l-5.5-2.36,5.43-4.66c.09-.08,.23-.08,.33,0l5.43,4.66-5.5,2.36Z"/><path d="M15.3,12.87l-3.21,1.28c-.06,.02-.13,.02-.19,0l-3.21-1.28c-.51-.2-1.08-.06-1.42,.36-.35,.42-.39,1-.1,1.46l3.34,5.35c.32,.51,.88,.82,1.48,.82s1.16-.31,1.48-.82l3.34-5.35c.29-.46,.25-1.05-.1-1.46s-.92-.56-1.42-.36Zm-3.09,6.37c-.13,.2-.3,.2-.42,0l-2.94-4.7,2.5,1c.42,.17,.88,.17,1.3,0l2.5-1-2.94,4.7Z"/></g></g></svg>