<?xml version="1.0" encoding="UTF-8"?><svg fill="currentColor" xmlns="http://www.w3.org/2000/svg" viewBox="0 0 24 24"><g id="o"><g><path d="M12,2.25C6.62,2.25,2.25,6.62,2.25,12s4.37,9.75,9.75,9.75,9.75-4.37,9.75-9.75S17.38,2.25,12,2.25Zm0,18c-4.55,0-8.25-3.7-8.25-8.25S7.45,3.75,12,3.75s8.25,3.7,8.25,8.25-3.7,8.25-8.25,8.25Z"/><path d="M16,15.25h-6.46c-.12,0-.18-.07-.21-.11s-.07-.13-.02-.24l1.17-2.63,2.67-.53c.41-.08,.67-.48,.59-.88-.08-.41-.48-.67-.88-.59l-1.63,.33,1.46-3.29c.17-.38,0-.82-.38-.99-.38-.17-.82,0-.99,.38l-1.89,4.26-1.57,.31c-.41,.08-.67,.48-.59,.88,.07,.36,.38,.6,.73,.6,.05,0,.1,0,.15-.01l.53-.11-.74,1.66c-.24,.54-.19,1.17,.13,1.67,.32,.5,.87,.8,1.47,.8h6.46c.41,0,.75-.34,.75-.75s-.34-.75-.75-.75Z"/></g></g></svg>