<?xml version="1.0" encoding="UTF-8"?><svg fill="currentColor" xmlns="http://www.w3.org/2000/svg" viewBox="0 0 24 24"><g id="s"><path d="M12,2.25C6.62,2.25,2.25,6.62,2.25,12s4.37,9.75,9.75,9.75,9.75-4.37,9.75-9.75S17.38,2.25,12,2.25Zm0,1.5c4.55,0,8.25,3.7,8.25,8.25,0,1.15-.24,2.25-.67,3.25h-2.83v-5.82c0-.54-.33-1-.83-1.18-.51-.18-1.05-.02-1.39,.4l-2.52,3.15-2.52-3.15c-.34-.42-.88-.58-1.39-.4-.51,.18-.84,.64-.84,1.18v5.82h-2.83c-.43-1-.67-2.1-.67-3.25C3.75,7.45,7.45,3.75,12,3.75Zm0,16.5c-2.78,0-5.24-1.39-6.73-3.5h2.23c.69,0,1.25-.56,1.25-1.25v-5.36l2.27,2.84c.48,.6,1.48,.6,1.95,0l2.27-2.84v5.36c0,.69,.56,1.25,1.25,1.25h2.23c-1.5,2.11-3.95,3.5-6.73,3.5Z"/></g></svg>