<?xml version="1.0" encoding="UTF-8"?><svg fill="currentColor" xmlns="http://www.w3.org/2000/svg" viewBox="0 0 24 24"><g id="e"><path d="M18.82,14.36c-1.13-.46-2.35-.33-3.33,.23l-1.76-2.01,1.12-2.73c.24,.05,.48,.07,.72,.07,1.5,0,2.93-.89,3.54-2.37,.39-.94,.38-1.98,0-2.92-.39-.94-1.13-1.67-2.07-2.06-.94-.39-1.98-.39-2.92,0-.94,.39-1.67,1.13-2.06,2.07-.39,.94-.38,1.98,0,2.92,.29,.71,.78,1.29,1.41,1.71l-1.12,2.73-2.66,.2c-.04-.15-.08-.3-.14-.45-.39-.94-1.13-1.67-2.07-2.06-.94-.39-1.98-.38-2.92,0-.94,.39-1.67,1.13-2.06,2.07-.39,.94-.38,1.98,0,2.92s1.13,1.67,2.07,2.06c.47,.19,.96,.29,1.45,.29,1.5,0,2.93-.89,3.54-2.37,.13-.32,.2-.65,.24-.98l2.75-.2,1.81,2.08c-.2,.26-.38,.54-.52,.86-.39,.94-.38,1.98,0,2.92,.39,.94,1.13,1.67,2.07,2.06,.47,.19,.96,.29,1.45,.29s1-.1,1.47-.3c.94-.39,1.67-1.13,2.06-2.07,.8-1.95-.13-4.18-2.08-4.98Zm-10.66-.25c-.48,1.18-1.84,1.75-3.03,1.26-.57-.24-1.02-.68-1.26-1.25s-.24-1.2,0-1.77c.23-.57,.68-1.02,1.25-1.26,.29-.12,.59-.18,.89-.18s.6,.06,.88,.17c.57,.24,1.02,.68,1.26,1.25,.24,.57,.24,1.2,0,1.77ZM13.44,5.22c.23-.57,.68-1.02,1.25-1.26,.29-.12,.59-.18,.89-.18s.6,.06,.88,.17c.57,.24,1.02,.68,1.26,1.25,.24,.57,.24,1.2,0,1.77-.48,1.18-1.84,1.75-3.02,1.26h0c-.57-.24-1.02-.68-1.26-1.25-.24-.57-.24-1.2,0-1.77Zm6.08,13.55c-.23,.57-.68,1.02-1.25,1.26-.57,.24-1.2,.24-1.77,0-.57-.24-1.02-.68-1.26-1.25-.24-.57-.24-1.2,0-1.77,.37-.89,1.23-1.44,2.15-1.44,.29,0,.59,.06,.88,.17,1.18,.49,1.75,1.84,1.26,3.03Z"/></g></svg>