<?xml version="1.0" encoding="UTF-8"?><svg fill="currentColor" xmlns="http://www.w3.org/2000/svg" viewBox="0 0 24 24"><g id="f"><g><path d="M20,9.25h-.29c-.01-.21-.01-.42-.04-.62-.1-.82-.6-1.53-1.33-1.9l-5.25-2.62c-.68-.34-1.5-.34-2.18,0l-5.24,2.62c-.74,.37-1.24,1.08-1.34,1.9-.02,.2-.02,.42-.04,.62h-.29c-.96,0-1.75,.79-1.75,1.75v4c0,.96,.79,1.75,1.75,1.75h1.65s0,.03,.01,.04c1.78,3.11,4.64,4.44,5.79,4.86,.17,.06,.36,.1,.54,.1s.37-.03,.54-.1c1.15-.43,4.02-1.75,5.79-4.86,0-.01,0-.03,.01-.04h1.65c.96,0,1.75-.79,1.75-1.75v-4c0-.96-.79-1.75-1.75-1.75Zm-14.18-.45c.04-.32,.23-.59,.52-.73l5.24-2.62c.27-.13,.57-.13,.84,0l5.25,2.62c.28,.14,.48,.42,.51,.73,.02,.15,.01,.3,.03,.45H5.79c.01-.15,0-.3,.03-.45Zm6.16,11.44c-.9-.33-3.02-1.32-4.55-3.5h9.14c-1.53,2.17-3.65,3.16-4.59,3.5Zm8.27-5.25c0,.14-.11,.25-.25,.25H4c-.14,0-.25-.11-.25-.25v-4c0-.14,.11-.25,.25-.25H20c.14,0,.25,.11,.25,.25v4Z"/><path d="M8.24,11.76c-.29-.29-.77-.29-1.06,0l-.18,.18-.18-.18c-.29-.29-.77-.29-1.06,0s-.29,.77,0,1.06l.18,.18-.18,.18c-.29,.29-.29,.77,0,1.06,.15,.15,.34,.22,.53,.22s.38-.07,.53-.22l.18-.18,.18,.18c.15,.15,.34,.22,.53,.22s.38-.07,.53-.22c.29-.29,.29-.77,0-1.06l-.18-.18,.18-.18c.29-.29,.29-.77,0-1.06Z"/><path d="M13.24,11.76c-.29-.29-.77-.29-1.06,0l-.18,.18-.18-.18c-.29-.29-.77-.29-1.06,0s-.29,.77,0,1.06l.18,.18-.18,.18c-.29,.29-.29,.77,0,1.06,.15,.15,.34,.22,.53,.22s.38-.07,.53-.22l.18-.18,.18,.18c.15,.15,.34,.22,.53,.22s.38-.07,.53-.22c.29-.29,.29-.77,0-1.06l-.18-.18,.18-.18c.29-.29,.29-.77,0-1.06Z"/><path d="M18.24,11.76c-.29-.29-.77-.29-1.06,0l-.18,.18-.18-.18c-.29-.29-.77-.29-1.06,0s-.29,.77,0,1.06l.18,.18-.18,.18c-.29,.29-.29,.77,0,1.06,.15,.15,.34,.22,.53,.22s.38-.07,.53-.22l.18-.18,.18,.18c.15,.15,.34,.22,.53,.22s.38-.07,.53-.22c.29-.29,.29-.77,0-1.06l-.18-.18,.18-.18c.29-.29,.29-.77,0-1.06Z"/></g></g></svg>