<?xml version="1.0" encoding="UTF-8"?><svg fill="currentColor" xmlns="http://www.w3.org/2000/svg" viewBox="0 0 24 24"><g id="l"><g><path d="M16.25,8.04c0,.41,.34,.75,.75,.75h4c.41,0,.75-.34,.75-.75V4.04c0-.41-.34-.75-.75-.75s-.75,.34-.75,.75v2.84c-1.77-2.84-4.85-4.59-8.25-4.59C6.62,2.29,2.25,6.66,2.25,12.04s4.37,9.75,9.75,9.75c4.98,0,9.14-3.73,9.69-8.67,.05-.41-.25-.78-.66-.83-.4-.04-.78,.25-.83,.66-.46,4.18-3.99,7.33-8.2,7.33-4.55,0-8.25-3.7-8.25-8.25S7.45,3.79,12,3.79c2.73,0,5.21,1.32,6.74,3.5h-1.74c-.41,0-.75,.34-.75,.75Z"/><path d="M13,7.29h-5c-.41,0-.75,.34-.75,.75s.34,.75,.75,.75h.25v6.5h-.25c-.41,0-.75,.34-.75,.75s.34,.75,.75,.75h5c1.52,0,2.75-1.23,2.75-2.75,0-.79-.33-1.5-.86-2,.53-.5,.86-1.21,.86-2,0-1.52-1.23-2.75-2.75-2.75Zm0,8h-3.25v-2.5h3.25c.69,0,1.25,.56,1.25,1.25s-.56,1.25-1.25,1.25Zm0-4h-3.25v-2.5h3.25c.69,0,1.25,.56,1.25,1.25s-.56,1.25-1.25,1.25Z"/></g></g></svg>