<?xml version="1.0" encoding="UTF-8"?><svg fill="currentColor" xmlns="http://www.w3.org/2000/svg" viewBox="0 0 24 24"><g id="n"><g><path d="M15.58,7.28c-.59-.16-1.19-.08-1.72,.23l-1.33,.78c-.33,.19-.73,.19-1.06,0l-1.33-.78c-.52-.31-1.13-.39-1.72-.23s-1.07,.53-1.37,1.06l.65,.37-.66-.36c-.61,1.08-.24,2.46,.83,3.09l1.36,.79c.32,.19,.52,.53,.52,.91v1.4c0,1.25,1.01,2.27,2.25,2.27s2.25-1.02,2.25-2.27v-1.4c0-.37,.2-.72,.52-.91l1.35-.79c1.07-.63,1.45-2.02,.83-3.1-.3-.53-.79-.9-1.37-1.06Zm-.22,2.86l-1.35,.79c-.78,.46-1.26,1.3-1.26,2.2v1.4c0,.42-.34,.77-.75,.77s-.75-.35-.75-.77v-1.4c0-.9-.48-1.75-1.26-2.2l-1.36-.79c-.36-.21-.49-.69-.3-1.02h0l.02-.03c.1-.17,.26-.3,.46-.35,.06-.02,.13-.03,.2-.03,.13,0,.26,.03,.38,.1l1.33,.78c.79,.46,1.78,.46,2.57,0l1.33-.78c.17-.1,.38-.13,.57-.08,.2,.05,.36,.18,.46,.35,.21,.36,.08,.85-.29,1.06Z"/><path d="M12,2.25C6.62,2.25,2.25,6.62,2.25,12s4.37,9.75,9.75,9.75,9.75-4.37,9.75-9.75S17.38,2.25,12,2.25Zm0,18c-4.55,0-8.25-3.7-8.25-8.25S7.45,3.75,12,3.75s8.25,3.7,8.25,8.25-3.7,8.25-8.25,8.25Z"/></g></g></svg>