<?xml version="1.0" encoding="UTF-8"?><svg fill="currentColor" xmlns="http://www.w3.org/2000/svg" viewBox="0 0 24 24"><g id="b"><path d="M19.7,15.23c1.61-3.23,1.4-6.33,1.13-7.9-.09-.54-.44-1.01-.94-1.25l-7.11-3.56c-.49-.24-1.08-.24-1.56,0l-7.11,3.56c-.5,.25-.85,.72-.94,1.25-.27,1.57-.47,4.66,1.13,7.89,.03,.08,.07,.15,.12,.22,2.05,3.92,5.56,5.58,6.99,6.11,.2,.07,.4,.11,.6,.11s.4-.04,.6-.11c1.43-.53,4.95-2.19,7-6.12,.05-.06,.08-.13,.11-.2ZM4.64,7.59c.01-.07,.06-.13,.13-.17l7.11-3.56s.07-.03,.11-.03,.08,0,.11,.03l7.11,3.55c.07,.04,.12,.1,.13,.17,.23,1.33,.39,3.93-.86,6.66h-1.75v-4.04c0-.51-.3-.96-.77-1.16s-1-.09-1.36,.27l-2.62,2.62-2.62-2.62c-.36-.36-.89-.47-1.36-.27s-.77,.65-.77,1.16v4.04h-1.75c-1.25-2.74-1.09-5.33-.86-6.66Zm7.44,12.56c-.05,.02-.11,.02-.16,0-1.14-.42-3.76-1.65-5.59-4.4h1.17c.69,0,1.25-.56,1.25-1.25v-3.69l2.37,2.37c.49,.49,1.28,.49,1.77,0l2.37-2.37v3.69c0,.69,.56,1.25,1.25,1.25h1.17c-1.83,2.75-4.46,3.98-5.59,4.4Z"/></g></svg>