<?xml version="1.0" encoding="UTF-8"?><svg fill="currentColor" xmlns="http://www.w3.org/2000/svg" viewBox="0 0 24 24"><g id="q"><g><path d="M12,2.25C6.62,2.25,2.25,6.62,2.25,12s4.37,9.75,9.75,9.75,9.75-4.37,9.75-9.75S17.38,2.25,12,2.25Zm0,18c-4.55,0-8.25-3.7-8.25-8.25S7.45,3.75,12,3.75s8.25,3.7,8.25,8.25-3.7,8.25-8.25,8.25Z"/><path d="M15,15.25h-4.59c-.15,0-.21-.1-.23-.15-.02-.06-.05-.17,.05-.27l4.59-4.59c.5-.5,.65-1.25,.38-1.91-.27-.66-.91-1.08-1.62-1.08h-.84v-1.25c0-.41-.34-.75-.75-.75s-.75,.34-.75,.75v1.25h-2.25c-.41,0-.75,.34-.75,.75s.34,.75,.75,.75h4.59c.15,0,.21,.1,.23,.15,.02,.06,.05,.17-.05,.27l-4.59,4.59c-.5,.5-.65,1.25-.38,1.91,.27,.66,.91,1.08,1.62,1.08h.84v1.25c0,.41,.34,.75,.75,.75s.75-.34,.75-.75v-1.25h2.25c.41,0,.75-.34,.75-.75s-.34-.75-.75-.75Z"/></g></g></svg>