<?xml version="1.0" encoding="UTF-8"?><svg fill="currentColor" xmlns="http://www.w3.org/2000/svg" viewBox="0 0 24 24"><g id="c"><g><path d="M6.81,12c0-.78,.04-1.53,.11-2.25H2.52c-.17,.72-.27,1.47-.27,2.25s.1,1.53,.27,2.25H6.91c-.07-.72-.11-1.47-.11-2.25Z"/><path d="M15.57,9.75h-7.15c-.07,.71-.12,1.46-.12,2.25s.04,1.54,.12,2.25h7.15c.07-.71,.12-1.46,.12-2.25s-.04-1.54-.12-2.25Z"/><path d="M15.36,8.25c-.63-3.37-2.05-5.5-3.36-5.5s-2.73,2.13-3.36,5.5h6.72Z"/><path d="M8.64,15.75c.63,3.37,2.05,5.5,3.36,5.5s2.73-2.13,3.36-5.5h-6.72Z"/><path d="M7.11,15.75H3c1.14,2.74,3.5,4.83,6.4,5.64-1.07-1.22-1.87-3.2-2.29-5.64Z"/><path d="M16.89,15.75c-.41,2.44-1.22,4.41-2.29,5.64,2.89-.8,5.25-2.9,6.4-5.64h-4.11Z"/><path d="M21.48,14.25c.17-.72,.27-1.47,.27-2.25s-.1-1.53-.27-2.25h-4.39c.07,.72,.11,1.47,.11,2.25s-.04,1.53-.11,2.25h4.39Z"/><path d="M7.11,8.25c.41-2.44,1.22-4.41,2.29-5.64-2.89,.8-5.25,2.9-6.4,5.64H7.11Z"/><path d="M16.89,8.25h4.11c-1.14-2.74-3.5-4.83-6.4-5.64,1.07,1.22,1.87,3.2,2.29,5.64Z"/></g></g></svg>