<?xml version="1.0" encoding="UTF-8"?><svg fill="currentColor" xmlns="http://www.w3.org/2000/svg" viewBox="0 0 24 24"><g id="l"><path d="M16,2.25H8c-3.17,0-5.75,2.58-5.75,5.75v8c0,3.17,2.58,5.75,5.75,5.75h8c3.17,0,5.75-2.58,5.75-5.75V8c0-3.17-2.58-5.75-5.75-5.75Zm1,14.5H7c-.41,0-.75-.34-.75-.75s.34-.75,.75-.75h1.25v-4.25c0-.41,.34-.75,.75-.75s.75,.34,.75,.75v4.25h1.5v-7.25c0-.41,.34-.75,.75-.75s.75,.34,.75,.75v7.25h1.5v-2.25c0-.41,.34-.75,.75-.75s.75,.34,.75,.75v2.25h1.25c.41,0,.75,.34,.75,.75s-.34,.75-.75,.75Z"/></g></svg>