<?xml version="1.0" encoding="UTF-8"?><svg fill="currentColor" xmlns="http://www.w3.org/2000/svg" viewBox="0 0 24 24"><g id="o"><path d="M16,2.25H8c-3.17,0-5.75,2.58-5.75,5.75v8c0,3.17,2.58,5.75,5.75,5.75h8c3.17,0,5.75-2.58,5.75-5.75V8c0-3.17-2.58-5.75-5.75-5.75Zm-7.25,13.75c0,.41-.34,.75-.75,.75s-.75-.34-.75-.75v-3c0-.41,.34-.75,.75-.75s.75,.34,.75,.75v3Zm4,0c0,.41-.34,.75-.75,.75s-.75-.34-.75-.75v-5c0-.41,.34-.75,.75-.75s.75,.34,.75,.75v5Zm4,0c0,.41-.34,.75-.75,.75s-.75-.34-.75-.75V8c0-.41,.34-.75,.75-.75s.75,.34,.75,.75v8Z"/></g></svg>