<?xml version="1.0" encoding="UTF-8"?><svg fill="currentColor" xmlns="http://www.w3.org/2000/svg" viewBox="0 0 24 24"><g id="d"><g><path d="M21.25,11.85c-.33-.38-.82-.6-1.32-.6h-5.93c-.69,0-1.25-.56-1.25-1.25V4.07c0-.5-.22-.98-.6-1.32-.38-.33-.88-.49-1.37-.43C5.78,2.95,2.11,7.23,2.25,12.28c.14,5.08,4.39,9.33,9.47,9.47,.09,0,.19,0,.28,0,4.93,0,9.06-3.62,9.67-8.53,.06-.5-.09-1-.43-1.37Z"/><path d="M17,9.75h2.9c.53,0,1.03-.24,1.37-.65,.33-.39,.46-.9,.36-1.4-.53-2.71-2.62-4.8-5.33-5.33-.49-.09-1,.04-1.4,.36-.41,.34-.65,.84-.65,1.37v2.9c0,1.52,1.23,2.75,2.75,2.75Z"/></g></g></svg>