<?xml version="1.0" encoding="UTF-8"?><svg fill="currentColor" xmlns="http://www.w3.org/2000/svg" viewBox="0 0 24 24"><g id="t"><g><path d="M19,16.25H6c-1.52,0-2.75,1.23-2.75,2.75s1.23,2.75,2.75,2.75h13c1.52,0,2.75-1.23,2.75-2.75s-1.23-2.75-2.75-2.75Z"/><path d="M6,14.75H14c1.52,0,2.75-1.23,2.75-2.75s-1.23-2.75-2.75-2.75H6c-1.52,0-2.75,1.23-2.75,2.75s1.23,2.75,2.75,2.75Z"/><path d="M6,7.75h4c1.52,0,2.75-1.23,2.75-2.75s-1.23-2.75-2.75-2.75H6c-1.52,0-2.75,1.23-2.75,2.75s1.23,2.75,2.75,2.75Z"/></g></g></svg>