<?xml version="1.0" encoding="UTF-8"?><svg fill="currentColor" xmlns="http://www.w3.org/2000/svg" viewBox="0 0 24 24"><g id="n"><g><rect x="8.75" y="11.75" width="6.5" height="3.5" rx=".25" ry=".25"/><path d="M13.25,10c0-.69-.56-1.25-1.25-1.25s-1.25,.56-1.25,1.25v.25h2.5v-.25Z"/><path d="M12,2.25C6.62,2.25,2.25,6.62,2.25,12s4.37,9.75,9.75,9.75,9.75-4.37,9.75-9.75S17.38,2.25,12,2.25Zm4.75,12.75c0,.96-.79,1.75-1.75,1.75h-6c-.96,0-1.75-.79-1.75-1.75v-3c0-.96,.79-1.75,1.75-1.75h.25v-.25c0-1.52,1.23-2.75,2.75-2.75s2.75,1.23,2.75,2.75v.25h.25c.96,0,1.75,.79,1.75,1.75v3Z"/></g></g></svg>