<?xml version="1.0" encoding="UTF-8"?><svg fill="currentColor" xmlns="http://www.w3.org/2000/svg" viewBox="0 0 24 24"><g id="r"><g><rect x="13.25" y="2.25" width="8.5" height="8.5" rx="3.25" ry="3.25"/><rect x="13.25" y="13.25" width="8.5" height="8.5" rx="3.25" ry="3.25"/><rect x="2.25" y="2.25" width="8.5" height="8.5" rx="3.25" ry="3.25"/><path d="M7,13.25c-2.07,0-3.75,1.68-3.75,3.75,0,.76,.23,1.47,.62,2.06l-1.41,1.41c-.29,.29-.29,.77,0,1.06,.15,.15,.34,.22,.53,.22s.38-.07,.53-.22l1.41-1.41c.59,.39,1.3,.62,2.06,.62,2.07,0,3.75-1.68,3.75-3.75s-1.68-3.75-3.75-3.75Z"/></g></g></svg>