<?xml version="1.0" encoding="UTF-8"?><svg fill="currentColor" xmlns="http://www.w3.org/2000/svg" viewBox="0 0 24 24"><g id="h"><path d="M18.65,5.59l-2.24-2.24c-.7-.7-1.66-1.1-2.65-1.1h-5.76c-2.07,0-3.75,1.68-3.75,3.75v12c0,2.07,1.68,3.75,3.75,3.75h8c2.07,0,3.75-1.68,3.75-3.75V8.24c0-.99-.4-1.95-1.1-2.65Zm-6.65,5.66c1.52,0,2.75,1.23,2.75,2.75,0,1.25-.85,2.3-2,2.63v1.37c0,.41-.34,.75-.75,.75s-.75-.34-.75-.75v-1.25h-1.25c-.41,0-.75-.34-.75-.75s.34-.75,.75-.75h2c.69,0,1.25-.56,1.25-1.25s-.56-1.25-1.25-1.25c-1.52,0-2.75-1.23-2.75-2.75,0-1.25,.85-2.3,2-2.63v-1.37c0-.41,.34-.75,.75-.75s.75,.34,.75,.75v1.25h1.25c.41,0,.75,.34,.75,.75s-.34,.75-.75,.75h-2c-.69,0-1.25,.56-1.25,1.25s.56,1.25,1.25,1.25Z"/></g></svg>