<?xml version="1.0" encoding="UTF-8"?><svg fill="currentColor" xmlns="http://www.w3.org/2000/svg" viewBox="0 0 24 24"><g id="q"><path d="M20,11.75c.41,0,.75-.34,.75-.75V7c0-.96-.79-1.75-1.75-1.75h-2.33c-.35-1.66-1.78-2.93-3.51-3-.98-.04-1.96,.32-2.7,1.02-.57,.54-.96,1.23-1.12,1.98h-2.33c-.96,0-1.75,.79-1.75,1.75v3.33c-1.71,.35-3,1.86-3,3.67s1.29,3.33,3,3.67v2.33c0,.96,.79,1.75,1.75,1.75h12c.96,0,1.75-.79,1.75-1.75v-3c0-.41-.34-.75-.75-.75-1.24,0-2.25-1.01-2.25-2.25s1.01-2.25,2.25-2.25Z"/></g></svg>