<?xml version="1.0" encoding="UTF-8"?><svg fill="currentColor" xmlns="http://www.w3.org/2000/svg" viewBox="0 0 24 24"><g id="b"><g><path d="M6.64,7.73l3.72-3.23c-.2-.12-.41-.22-.63-.31l-4.19-1.75c-.84-.35-1.78-.2-2.47,.4-.68,.59-.97,1.51-.75,2.39l1.12,4.42c.06,.22,.13,.44,.21,.66l2.88-2.5s.07-.04,.11-.06Z"/><path d="M20.41,11.04l-2.25-2.62c-.24-.28-.59-.46-.96-.48l-2.26-.16,1.52,1.77c.97,1.13,1.41,2.54,1.38,3.93l1.61-.11c.53-.04,.99-.37,1.2-.86,.21-.5,.12-1.05-.23-1.46Z"/><path d="M6.22,15.35l-.16,2.28c-.03,.37,.09,.74,.34,1.02l2.25,2.62c.27,.32,.66,.49,1.06,.49,.12,0,.23-.01,.35-.04,.52-.13,.91-.54,1.03-1.06l.34-1.59c-1.43-.17-2.74-.84-3.69-1.95l-1.51-1.76Z"/><path d="M16.38,17.16c-.16,.19-.32,.38-.51,.54-.19,.17-.41,.31-.62,.45l.21,.25c.15,.17,.36,.26,.57,.26,.17,0,.35-.06,.49-.18,.31-.27,.35-.74,.08-1.06l-.22-.26Z"/><path d="M11.89,5.76c-.1-.12-.21-.22-.32-.33l-1.29,1.12s0,.01-.01,.01l-4.56,3.96s-.09,.05-.14,.08l-1.19,1.03c.09,.13,.18,.26,.29,.38h0l3.81,4.44c.83,.97,1.99,1.55,3.26,1.65,.12,0,.23,.01,.35,.01,.89,0,1.75-.25,2.5-.72l-4.39-5.1c-.27-.31-.23-.79,.08-1.06,.31-.27,.79-.23,1.06,.08l4.38,5.09c1.48-1.77,1.52-4.4-.03-6.2l-3.81-4.44Z"/></g></g></svg>