<?xml version="1.0" encoding="UTF-8"?><svg fill="currentColor" xmlns="http://www.w3.org/2000/svg" viewBox="0 0 24 24"><g id="g"><g><path d="M17.82,11.1c-.47,0-.91-.18-1.24-.51-.33-.33-.51-.77-.51-1.24,0-.34,.1-.67,.28-.95-1.5,.7-2.72,1.94-3.4,3.53l-.93,2.17c-.28,.64-.91,1.06-1.61,1.06-.24,0-.47-.05-.69-.14-.43-.18-.76-.52-.94-.96-.17-.43-.17-.91,.02-1.34l.93-2.17c1.28-2.98,3.83-5.13,6.87-5.94-.57-.23-1.19-.36-1.83-.36H7.24c-2.75,0-4.99,2.24-4.99,4.99v7.53c0,2.75,2.24,4.99,4.99,4.99h7.53c2.75,0,4.99-2.24,4.99-4.99v-6.86l-.69,.69c-.33,.33-.77,.51-1.24,.51Z"/><path d="M21.53,5.65l-3.18-3.18c-.29-.29-.77-.29-1.06,0s-.29,.77,0,1.06l1.74,1.74c-3.66,.1-6.93,2.3-8.38,5.68l-.93,2.17c-.16,.38,.01,.82,.39,.98,.1,.04,.2,.06,.29,.06,.29,0,.57-.17,.69-.46l.93-2.17c1.25-2.91,4.1-4.79,7.26-4.79h.08l-2.07,2.07c-.29,.29-.29,.77,0,1.06,.15,.15,.34,.22,.53,.22s.38-.07,.53-.22l3.18-3.18c.14-.14,.22-.33,.22-.53s-.08-.39-.22-.53Z"/></g></g></svg>