<?xml version="1.0" encoding="UTF-8"?><svg fill="currentColor" xmlns="http://www.w3.org/2000/svg" viewBox="0 0 24 24"><g id="j"><path d="M12,2.25C6.62,2.25,2.25,6.62,2.25,12s4.37,9.75,9.75,9.75,9.75-4.37,9.75-9.75S17.38,2.25,12,2.25ZM5.16,12.75h-1.57c-.33,0-.59-.34-.59-.75s.26-.75,.59-.75h1.57c.33,0,.59,.34,.59,.75s-.26,.75-.59,.75Zm7.59,7.66c0,.33-.34,.59-.75,.59s-.75-.26-.75-.59v-1.57c0-.33,.34-.59,.75-.59s.75,.26,.75,.59v1.57Zm0-8.41c0,.2-.08,.39-.22,.53l-3,3c-.15,.15-.34,.22-.53,.22s-.38-.07-.53-.22c-.29-.29-.29-.77,0-1.06l2.78-2.78v-2.69c0-.41,.34-.75,.75-.75s.75,.34,.75,.75v3Zm0-6.84c0,.33-.34,.59-.75,.59s-.75-.26-.75-.59v-1.57c0-.33,.34-.59,.75-.59s.75,.26,.75,.59v1.57Zm7.66,7.59h-1.57c-.33,0-.59-.34-.59-.75s.26-.75,.59-.75h1.57c.33,0,.59,.34,.59,.75s-.26,.75-.59,.75Z"/></g></svg>