<?xml version="1.0" encoding="UTF-8"?><svg fill="currentColor" xmlns="http://www.w3.org/2000/svg" viewBox="0 0 24 24"><g id="m"><g><circle cx="12" cy="9" r="2.25"/><path d="M16,2.25H8c-3.17,0-5.75,2.58-5.75,5.75v8c0,3.17,2.58,5.75,5.75,5.75h8c3.17,0,5.75-2.58,5.75-5.75V8c0-3.17-2.58-5.75-5.75-5.75Zm-4,3c2.07,0,3.75,1.68,3.75,3.75s-1.68,3.75-3.75,3.75-3.75-1.68-3.75-3.75,1.68-3.75,3.75-3.75Zm5,13.5c-.41,0-.75-.34-.75-.75,0-1.24-1.01-2.25-2.25-2.25h-4c-1.24,0-2.25,1.01-2.25,2.25,0,.41-.34,.75-.75,.75s-.75-.34-.75-.75c0-2.07,1.68-3.75,3.75-3.75h4c2.07,0,3.75,1.68,3.75,3.75,0,.41-.34,.75-.75,.75Z"/></g></g></svg>