<?xml version="1.0" encoding="UTF-8"?><svg fill="currentColor" xmlns="http://www.w3.org/2000/svg" viewBox="0 0 24 24"><g id="k"><g><path d="M18,4.25H6c-2.07,0-3.75,1.68-3.75,3.75v7c0,2.07,1.68,3.75,3.75,3.75h6c.41,0,.75-.34,.75-.75s-.34-.75-.75-.75H6c-1.24,0-2.25-1.01-2.25-2.25v-5.25H20.25v4.25c0,.41,.34,.75,.75,.75s.75-.34,.75-.75v-6c0-2.07-1.68-3.75-3.75-3.75ZM3.75,8.25v-.25c0-1.24,1.01-2.25,2.25-2.25h12c1.24,0,2.25,1.01,2.25,2.25v.25H3.75Z"/><path d="M7,14.25c-.41,0-.75,.34-.75,.75s.34,.75,.75,.75h3c.41,0,.75-.34,.75-.75s-.34-.75-.75-.75h-3Z"/><path d="M20,17.25h-1.25v-1.25c0-.41-.34-.75-.75-.75s-.75,.34-.75,.75v1.25h-1.25c-.41,0-.75,.34-.75,.75s.34,.75,.75,.75h1.25v1.25c0,.41,.34,.75,.75,.75s.75-.34,.75-.75v-1.25h1.25c.41,0,.75-.34,.75-.75s-.34-.75-.75-.75Z"/></g></g></svg>