<?xml version="1.0" encoding="UTF-8"?><svg fill="currentColor" xmlns="http://www.w3.org/2000/svg" viewBox="0 0 24 24"><g id="j"><g><path d="M19,7.25h-3.25v-1.25c0-2.07-1.68-3.75-3.75-3.75H6c-2.07,0-3.75,1.68-3.75,3.75v12c0,2.07,1.68,3.75,3.75,3.75h6c2.07,0,3.75-1.68,3.75-3.75v-1.25h3.25c1.52,0,2.75-1.23,2.75-2.75v-4c0-1.52-1.23-2.75-2.75-2.75Zm-4.75,10.75c0,1.24-1.01,2.25-2.25,2.25H6c-1.24,0-2.25-1.01-2.25-2.25V6c0-1.24,1.01-2.25,2.25-2.25h6c1.24,0,2.25,1.01,2.25,2.25v12Zm6-4c0,.69-.56,1.25-1.25,1.25h-3.25v-6.5h3.25c.69,0,1.25,.56,1.25,1.25v4Z"/><path d="M9.02,13.25h-.01c-.41,0-.74,.34-.74,.75s.34,.75,.75,.75,.75-.34,.75-.75-.34-.75-.75-.75Z"/><path d="M9.02,16.25h-.01c-.41,0-.74,.34-.74,.75s.34,.75,.75,.75,.75-.34,.75-.75-.34-.75-.75-.75Z"/><path d="M12.02,13.25h-.01c-.41,0-.74,.34-.74,.75s.34,.75,.75,.75,.75-.34,.75-.75-.34-.75-.75-.75Z"/><path d="M12.02,16.25h-.01c-.41,0-.74,.34-.74,.75s.34,.75,.75,.75,.75-.34,.75-.75-.34-.75-.75-.75Z"/><path d="M6.02,13.25h-.01c-.41,0-.74,.34-.74,.75s.34,.75,.75,.75,.75-.34,.75-.75-.34-.75-.75-.75Z"/><path d="M6.02,16.25h-.01c-.41,0-.74,.34-.74,.75s.34,.75,.75,.75,.75-.34,.75-.75-.34-.75-.75-.75Z"/><path d="M12.75,9v-2c0-.96-.79-1.75-1.75-1.75H7c-.96,0-1.75,.79-1.75,1.75v2c0,.96,.79,1.75,1.75,1.75h4c.96,0,1.75-.79,1.75-1.75Zm-1.5,0c0,.14-.11,.25-.25,.25H7c-.14,0-.25-.11-.25-.25v-2c0-.14,.11-.25,.25-.25h4c.14,0,.25,.11,.25,.25v2Z"/></g></g></svg>