<?xml version="1.0" encoding="UTF-8"?><svg fill="currentColor" xmlns="http://www.w3.org/2000/svg" viewBox="0 0 24 24"><g id="m"><g><path d="M19,4.25H5c-1.52,0-2.75,1.23-2.75,2.75v2c0,1.52,1.23,2.75,2.75,2.75h1.25v7.25c0,.96,.79,1.75,1.75,1.75h8c.96,0,1.75-.79,1.75-1.75v-7.25h1.25c1.52,0,2.75-1.23,2.75-2.75v-2c0-1.52-1.23-2.75-2.75-2.75Zm-2.75,14.75c0,.14-.11,.25-.25,.25H8c-.14,0-.25-.11-.25-.25V9c0-.14,.11-.25,.25-.25h8c.14,0,.25,.11,.25,.25v10Zm4-10c0,.69-.56,1.25-1.25,1.25h-1.25v-1.25c0-.96-.79-1.75-1.75-1.75H8c-.96,0-1.75,.79-1.75,1.75v1.25h-1.25c-.69,0-1.25-.56-1.25-1.25v-2c0-.69,.56-1.25,1.25-1.25h14c.69,0,1.25,.56,1.25,1.25v2Z"/><path d="M12,15.25h-2c-.41,0-.75,.34-.75,.75s.34,.75,.75,.75h2c.41,0,.75-.34,.75-.75s-.34-.75-.75-.75Z"/><path d="M14,11.25h-4c-.41,0-.75,.34-.75,.75s.34,.75,.75,.75h4c.41,0,.75-.34,.75-.75s-.34-.75-.75-.75Z"/></g></g></svg>