<?xml version="1.0" encoding="UTF-8"?><svg fill="currentColor" xmlns="http://www.w3.org/2000/svg" viewBox="0 0 24 24"><g id="r"><g><path d="M19.9,10.77c-.12-1.41-1.32-2.52-2.74-2.52H8.75v-1.5h2.75c.69,0,1.25-.56,1.25-1.25V3.5c0-.69-.56-1.25-1.25-1.25H4.5c-.69,0-1.25,.56-1.25,1.25v2c0,.69,.56,1.25,1.25,1.25h2.75v1.5h-1.41c-1.42,0-2.62,1.11-2.74,2.52l-.67,8c-.06,.76,.2,1.53,.72,2.09,.52,.56,1.26,.89,2.02,.89h12.65c.77,0,1.5-.32,2.02-.89,.52-.56,.78-1.33,.72-2.09l-.67-8ZM4.75,3.75h6.5v1.5H4.75v-1.5Zm1.09,6h11.32c.64,0,1.19,.5,1.25,1.15l.53,6.35H4.07l.53-6.35c.05-.64,.6-1.15,1.25-1.15Zm12.91,10.1c-.24,.26-.57,.4-.92,.4H5.17c-.35,0-.68-.14-.92-.4-.24-.26-.36-.6-.33-.95v-.16s.05,.01,.07,.01h15s.04-.01,.06-.01v.16c.04,.35-.07,.69-.31,.95Z"/><path d="M7.02,12.75c.42,0,.75-.34,.75-.75s-.33-.75-.75-.75h0c-.41,0-.75,.34-.75,.75s.34,.75,.75,.75Z"/><path d="M16.02,12.75c.42,0,.75-.34,.75-.75s-.33-.75-.75-.75h0c-.41,0-.75,.34-.75,.75s.34,.75,.75,.75Z"/><path d="M13.02,12.75c.42,0,.75-.34,.75-.75s-.33-.75-.75-.75h0c-.41,0-.75,.34-.75,.75s.34,.75,.75,.75Z"/><path d="M10.02,12.75c.42,0,.75-.34,.75-.75s-.33-.75-.75-.75h0c-.41,0-.75,.34-.75,.75s.34,.75,.75,.75Z"/><path d="M7.02,15.75c.42,0,.75-.34,.75-.75s-.33-.75-.75-.75h0c-.41,0-.75,.34-.75,.75s.34,.75,.75,.75Z"/><path d="M16.02,15.75c.42,0,.75-.34,.75-.75s-.33-.75-.75-.75h0c-.41,0-.75,.34-.75,.75s.34,.75,.75,.75Z"/><path d="M13.02,15.75c.42,0,.75-.34,.75-.75s-.33-.75-.75-.75h0c-.41,0-.75,.34-.75,.75s.34,.75,.75,.75Z"/><path d="M10.02,15.75c.42,0,.75-.34,.75-.75s-.33-.75-.75-.75h0c-.41,0-.75,.34-.75,.75s.34,.75,.75,.75Z"/></g></g></svg>