<?xml version="1.0" encoding="UTF-8"?><svg fill="currentColor" xmlns="http://www.w3.org/2000/svg" viewBox="0 0 24 24"><g id="l"><path d="M16.13,10.75h.87c1.52,0,2.75-1.23,2.75-2.75V3.5c0-.69-.56-1.25-1.25-1.25h-2c-.69,0-1.25,.56-1.25,1.25v1.75h-1.5v-1.75c0-.69-.56-1.25-1.25-1.25h-2c-.69,0-1.25,.56-1.25,1.25v1.75h-1.5v-1.75c0-.69-.56-1.25-1.25-1.25h-2c-.69,0-1.25,.56-1.25,1.25v4.5c0,1.52,1.23,2.75,2.75,2.75h.87c.1,0,.16,.05,.19,.08,.03,.03,.07,.1,.06,.2l-.78,6.22h-.62c-.75,0-1.42,.48-1.66,1.2l-.77,2.32c-.08,.23-.04,.48,.1,.68s.37,.31,.61,.31h15c.24,0,.47-.12,.61-.31s.18-.45,.1-.68l-.77-2.32c-.24-.72-.91-1.2-1.66-1.2h-.62l-.78-6.22c-.01-.1,.03-.16,.06-.2,.03-.03,.09-.08,.19-.08Zm1.38,8.17l.44,1.33H5.04l.44-1.33c.03-.1,.13-.17,.24-.17h11.56c.11,0,.2,.07,.24,.17Zm-3.12-7.7l.75,6.03H7.85l.75-6.03c.06-.5-.09-1-.42-1.38-.33-.38-.81-.59-1.31-.59h-.87c-.69,0-1.25-.56-1.25-1.25V3.75h1.5v2.25c0,.41,.34,.75,.75,.75h3c.41,0,.75-.34,.75-.75V3.75h1.5v2.25c0,.41,.34,.75,.75,.75h3c.41,0,.75-.34,.75-.75V3.75h1.5v4.25c0,.69-.56,1.25-1.25,1.25h-.87c-.5,0-.98,.22-1.31,.59-.33,.38-.49,.88-.42,1.37Z"/></g></svg>