<?xml version="1.0" encoding="UTF-8"?><svg fill="currentColor" xmlns="http://www.w3.org/2000/svg" viewBox="0 0 24 24"><g id="c"><path d="M21.7,16.72l-1.75-4.37c-.27-.67-.9-1.1-1.62-1.1h-1.32l-1.56-3.9c-.27-.67-.9-1.1-1.62-1.1h-3.65c-.72,0-1.36,.43-1.62,1.1l-1.56,3.9h-1.32c-.72,0-1.36,.43-1.62,1.1l-1.75,4.37c-.09,.23-.06,.49,.08,.7,.14,.21,.37,.33,.62,.33H21c.25,0,.48-.12,.62-.33,.14-.21,.17-.47,.08-.7ZM9.95,7.91c.04-.09,.13-.16,.23-.16h3.65c.1,0,.19,.06,.23,.16l1.34,3.34h-6.78l1.34-3.34Zm2.05,7.07l-.89-2.23h1.78l-.89,2.23Zm-7.89,1.27l1.34-3.34c.04-.09,.13-.16,.23-.16h3.82l1.4,3.5H4.11Zm9,0l1.4-3.5h3.82c.1,0,.19,.06,.23,.16l1.34,3.34h-6.78Z"/></g></svg>