<?xml version="1.0" encoding="UTF-8"?><svg fill="currentColor" xmlns="http://www.w3.org/2000/svg" viewBox="0 0 24 24"><g id="i"><g><path d="M21,18.25H6c-1.24,0-2.25-1.01-2.25-2.25V4c0-.41-.34-.75-.75-.75s-.75,.34-.75,.75v12c0,2.07,1.68,3.75,3.75,3.75h15c.41,0,.75-.34,.75-.75s-.34-.75-.75-.75Z"/><path d="M7,15.75c.19,0,.38-.07,.53-.22l2.42-2.42c.08-.08,.21-.1,.31-.03l1.64,1.09c.69,.46,1.62,.37,2.21-.22l3.14-3.14v1.19c0,.41,.34,.75,.75,.75s.75-.34,.75-.75v-3c0-.41-.34-.75-.75-.75h-3c-.41,0-.75,.34-.75,.75s.34,.75,.75,.75h1.19l-3.14,3.14c-.08,.08-.22,.1-.32,.03l-1.64-1.09c-.69-.46-1.62-.37-2.21,.22l-2.42,2.42c-.29,.29-.29,.77,0,1.06,.15,.15,.34,.22,.53,.22Z"/></g></g></svg>