<?xml version="1.0" encoding="UTF-8"?><svg fill="currentColor" xmlns="http://www.w3.org/2000/svg" viewBox="0 0 24 24"><g id="u"><g><path d="M9,15.25H5c-.69,0-1.25-.56-1.25-1.25v-6c0-.69,.56-1.25,1.25-1.25h13c.41,0,.75-.34,.75-.75s-.34-.75-.75-.75H5c-1.52,0-2.75,1.23-2.75,2.75v6c0,1.52,1.23,2.75,2.75,2.75h4c.41,0,.75-.34,.75-.75s-.34-.75-.75-.75Z"/><path d="M10,12.25h-3c-.41,0-.75,.34-.75,.75s.34,.75,.75,.75h3c.41,0,.75-.34,.75-.75s-.34-.75-.75-.75Z"/><path d="M7,8.25c-.41,0-.75,.34-.75,.75s.34,.75,.75,.75h7c.41,0,.75-.34,.75-.75s-.34-.75-.75-.75H7Z"/><path d="M21.03,8.97c-1.07-1.07-2.95-.94-4.17,.29l-4.4,4.4c-.58,.58-.93,1.32-1,2.08l-.2,2.2c-.02,.22,.06,.44,.22,.6,.14,.14,.33,.22,.53,.22,.02,0,.05,0,.07,0l2.2-.2h0c.76-.07,1.5-.43,2.08-1l4.4-4.4c1.23-1.23,1.36-3.1,.29-4.17Zm-5.74,7.51c-.33,.33-.75,.53-1.15,.57l-1.3,.12,.12-1.3c.04-.41,.25-.83,.57-1.15l3.02-3.02,1.77,1.77-3.02,3.02Zm4.4-4.4l-.32,.32-1.77-1.77,.32-.32c.38-.38,.86-.57,1.29-.57,.3,0,.57,.09,.76,.29,.48,.48,.35,1.42-.29,2.05Z"/></g></g></svg>