<?xml version="1.0" encoding="UTF-8"?><svg fill="currentColor" xmlns="http://www.w3.org/2000/svg" viewBox="0 0 24 24"><g id="h"><g><path d="M7,20.25h-2c-.69,0-1.25-.56-1.25-1.25V5c0-.69,.56-1.25,1.25-1.25h.46l.6,1.8c.24,.72,.91,1.2,1.66,1.2h2.56c.75,0,1.42-.48,1.66-1.2l.6-1.8h.46c.69,0,1.25,.56,1.25,1.25v5c0,.41,.34,.75,.75,.75s.75-.34,.75-.75V5c0-1.52-1.23-2.75-2.75-2.75H5c-1.52,0-2.75,1.23-2.75,2.75v14c0,1.52,1.23,2.75,2.75,2.75h2c.41,0,.75-.34,.75-.75s-.34-.75-.75-.75ZM10.96,3.75l-.44,1.33c-.03,.1-.13,.17-.24,.17h-2.56c-.11,0-.2-.07-.24-.17l-.44-1.33h3.92Z"/><path d="M19,12.25h-7c-1.52,0-2.75,1.23-2.75,2.75v4c0,1.52,1.23,2.75,2.75,2.75h7c1.52,0,2.75-1.23,2.75-2.75v-4c0-1.52-1.23-2.75-2.75-2.75Zm-7,1.5h7c.69,0,1.25,.56,1.25,1.25v.25H10.75v-.25c0-.69,.56-1.25,1.25-1.25Zm7,6.5h-7c-.69,0-1.25-.56-1.25-1.25v-2.25h9.5v2.25c0,.69-.56,1.25-1.25,1.25Z"/></g></g></svg>