<?xml version="1.0" encoding="UTF-8"?><svg fill="currentColor" xmlns="http://www.w3.org/2000/svg" viewBox="0 0 24 24"><g id="p"><g><path d="M18,4.25H6c-2.07,0-3.75,1.68-3.75,3.75v8c0,2.07,1.68,3.75,3.75,3.75h12c2.07,0,3.75-1.68,3.75-3.75V8c0-2.07-1.68-3.75-3.75-3.75Zm2.25,11.75c0,1.24-1.01,2.25-2.25,2.25H6c-1.24,0-2.25-1.01-2.25-2.25V8c0-1.24,1.01-2.25,2.25-2.25h12c1.24,0,2.25,1.01,2.25,2.25v8Z"/><path d="M7.5,9.75h2.5c.41,0,.75-.34,.75-.75s-.34-.75-.75-.75h-1.25v-.25c0-.41-.34-.75-.75-.75s-.75,.34-.75,.75v.28c-1.12,.13-2,1.07-2,2.22,0,1.24,1.01,2.25,2.25,2.25h1c.41,0,.75,.34,.75,.75s-.34,.75-.75,.75h-2.5c-.41,0-.75,.34-.75,.75s.34,.75,.75,.75h1.25v.25c0,.41,.34,.75,.75,.75s.75-.34,.75-.75v-.28c1.12-.13,2-1.07,2-2.22,0-1.24-1.01-2.25-2.25-2.25h-1c-.41,0-.75-.34-.75-.75s.34-.75,.75-.75Z"/><path d="M18,9.25h-5c-.41,0-.75,.34-.75,.75s.34,.75,.75,.75h5c.41,0,.75-.34,.75-.75s-.34-.75-.75-.75Z"/><path d="M18,13.25h-2c-.41,0-.75,.34-.75,.75s.34,.75,.75,.75h2c.41,0,.75-.34,.75-.75s-.34-.75-.75-.75Z"/></g></g></svg>