<?xml version="1.0" encoding="UTF-8"?><svg fill="currentColor" xmlns="http://www.w3.org/2000/svg" viewBox="0 0 24 24"><g id="s"><g><path d="M19.54,4.94l-7.2-1.44c-.51-.1-1.05,.03-1.45,.36-.41,.33-.64,.83-.64,1.35v.03H4c-.96,0-1.75,.79-1.75,1.75v10c0,.7,.41,1.29,1,1.57v1.43c0,.41,.34,.75,.75,.75s.75-.34,.75-.75v-1.25h5.5v.03c0,.53,.23,1.02,.64,1.35,.32,.26,.71,.4,1.11,.4,.11,0,.23-.01,.35-.03l6.91-1.38v.88c0,.41,.34,.75,.75,.75s.75-.34,.75-.75v-1.53c.61-.51,1-1.27,1-2.11V7.64c0-1.31-.93-2.44-2.21-2.7ZM4,17.25c-.14,0-.25-.11-.25-.25V7c0-.14,.11-.25,.25-.25h6.25v10.5H4Zm8.05,1.78c-.1,.02-.17-.02-.21-.05-.03-.03-.09-.09-.09-.19V5.22c0-.1,.06-.17,.09-.19,.03-.02,.08-.06,.16-.06,.02,0,.03,0,.05,0l7.2,1.44c.58,.12,1,.63,1,1.23v8.72c0,.59-.42,1.11-1,1.23l-7.2,1.44Z"/><path d="M15.5,8.25c-1.28,0-2.25,1.61-2.25,3.75s.97,3.75,2.25,3.75,2.25-1.61,2.25-3.75-.97-3.75-2.25-3.75Zm0,6c-.19,0-.75-.8-.75-2.25s.56-2.25,.75-2.25,.75,.8,.75,2.25-.56,2.25-.75,2.25Z"/></g></g></svg>