<?xml version="1.0" encoding="UTF-8"?><svg fill="currentColor" xmlns="http://www.w3.org/2000/svg" viewBox="0 0 24 24"><g id="g"><g><path d="M18.57,5.76c-.7-.49-1.44-.96-2.19-1.41-1.32-.77-2.69-1.46-4.09-2.05-.18-.08-.39-.08-.58,0-1.4,.58-2.78,1.27-4.09,2.05-.75,.45-1.49,.92-2.19,1.41-.74,.52-1.18,1.36-1.18,2.26v4.38c0,2.07,.63,4.05,1.77,5.57,.13,.17,.26,.34,.41,.51,1.86,2.16,4.18,2.96,5.4,3.24,.06,.01,.11,.02,.17,.02s.11,0,.17-.02c1.22-.28,3.54-1.08,5.4-3.24,.15-.17,.28-.34,.41-.51,1.14-1.53,1.77-3.5,1.77-5.57v-4.38c0-.9-.44-1.74-1.18-2.26Zm-.32,6.64c0,1.75-.52,3.41-1.47,4.67-.11,.14-.22,.29-.35,.43-1.5,1.74-3.36,2.44-4.43,2.72-1.08-.27-2.93-.97-4.43-2.72-.12-.14-.24-.29-.35-.43-.95-1.27-1.47-2.93-1.47-4.67v-4.38c0-.41,.2-.79,.54-1.03,.67-.47,1.37-.92,2.09-1.34,1.17-.69,2.38-1.3,3.62-1.83,1.24,.53,2.45,1.15,3.62,1.83,.72,.42,1.42,.88,2.09,1.34,.34,.24,.54,.62,.54,1.03v4.38Z"/><path d="M11.5,9.75h2.5c.41,0,.75-.34,.75-.75s-.34-.75-.75-.75h-1.25v-.25c0-.41-.34-.75-.75-.75s-.75,.34-.75,.75v.28c-1.12,.13-2,1.07-2,2.22,0,1.24,1.01,2.25,2.25,2.25h1c.41,0,.75,.34,.75,.75s-.34,.75-.75,.75h-2.5c-.41,0-.75,.34-.75,.75s.34,.75,.75,.75h1.25v.25c0,.41,.34,.75,.75,.75s.75-.34,.75-.75v-.28c1.12-.13,2-1.07,2-2.22,0-1.24-1.01-2.25-2.25-2.25h-1c-.41,0-.75-.34-.75-.75s.34-.75,.75-.75Z"/></g></g></svg>