<?xml version="1.0" encoding="UTF-8"?><svg fill="currentColor" xmlns="http://www.w3.org/2000/svg" viewBox="0 0 24 24"><g id="d"><path d="M19,10.25h-4.25v-1.25c0-.89-.43-1.73-1.16-2.25-.17-.12-.32-.24-.46-.34-.47-.36-.91-.69-1.82-1.1-.99-.44-1.89-1.35-2.65-2.69-.21-.36-.66-.48-1.02-.28-.36,.21-.48,.66-.28,1.02,.93,1.62,2.06,2.74,3.35,3.31,.75,.34,1.08,.58,1.53,.92,.15,.12,.31,.24,.5,.37,.33,.24,.53,.62,.53,1.03v1.25h-3.25c-.41,0-.75,.34-.75,.75v1.59c0,.46,.19,.91,.51,1.24l.57,.57c.33,.33,.33,.87,0,1.21-.27,.27-.69,.33-1.03,.14l-3.92-2.24c-1.01-.58-1.64-1.66-1.64-2.82v-.68c0-.41-.34-.75-.75-.75s-.75,.34-.75,.75v.68c0,1.7,.92,3.28,2.39,4.12l1.66,.95c-.03,.08-.05,.16-.05,.25v2c0,1.52,1.23,2.75,2.75,2.75h10c1.52,0,2.75-1.23,2.75-2.75v-5c0-1.52-1.23-2.75-2.75-2.75Zm0,9H9c-.69,0-1.25-.56-1.25-1.25v-1.42l.81,.47c.36,.21,.77,.31,1.16,.31,.61,0,1.21-.24,1.67-.69,.92-.92,.92-2.41,0-3.33l-.57-.57s-.07-.11-.07-.18v-.84h8.25c.69,0,1.25,.56,1.25,1.25v1.25h-5.25c-.41,0-.75,.34-.75,.75s.34,.75,.75,.75h5.25v2.25c0,.69-.56,1.25-1.25,1.25Z"/></g></svg>