<?xml version="1.0" encoding="UTF-8"?><svg fill="currentColor" xmlns="http://www.w3.org/2000/svg" viewBox="0 0 24 24"><g id="b"><g><path d="M11.08,20.2c-4.18-.46-7.33-3.99-7.33-8.2C3.75,7.45,7.45,3.75,12,3.75c3.49,0,6.62,2.21,7.78,5.5,.14,.39,.57,.6,.96,.46,.39-.14,.59-.57,.46-.96-1.38-3.89-5.07-6.5-9.2-6.5C6.62,2.25,2.25,6.62,2.25,12c0,4.98,3.73,9.14,8.67,9.69,.03,0,.06,0,.08,0,.38,0,.7-.28,.74-.67,.05-.41-.25-.78-.66-.83Z"/><path d="M17.5,11.25c-2.38,0-4.25,1.21-4.25,2.75v5c0,1.54,1.87,2.75,4.25,2.75s4.25-1.21,4.25-2.75v-5c0-1.54-1.87-2.75-4.25-2.75Zm0,1.5c1.68,0,2.75,.74,2.75,1.25s-1.07,1.25-2.75,1.25-2.75-.74-2.75-1.25,1.07-1.25,2.75-1.25Zm0,7.5c-1.68,0-2.75-.74-2.75-1.25v-2.9c.74,.4,1.69,.65,2.75,.65s2.01-.25,2.75-.65v2.9c0,.51-1.07,1.25-2.75,1.25Z"/><path d="M12,5.25c-.41,0-.75,.34-.75,.75v4.76c0,.48-.26,.91-.69,1.12l-2.89,1.45c-.37,.19-.52,.64-.34,1.01,.13,.26,.4,.42,.67,.42,.11,0,.23-.03,.33-.08l2.89-1.45c.94-.47,1.52-1.41,1.52-2.46V6c0-.41-.34-.75-.75-.75Z"/></g></g></svg>