<?xml version="1.0" encoding="UTF-8"?><svg fill="currentColor" xmlns="http://www.w3.org/2000/svg" viewBox="0 0 24 24"><g id="f"><g><path d="M20,14.25h-4.59c-.47,0-.91,.18-1.24,.51l-.41,.41s-.11,.07-.18,.07h-3.17c-.07,0-.13-.03-.18-.07l-.41-.41c-.33-.33-.77-.51-1.24-.51h-3.84V6c0-.69,.56-1.25,1.25-1.25h13c.41,0,.75-.34,.75-.75s-.34-.75-.75-.75H6c-1.52,0-2.75,1.23-2.75,2.75V14.43c-.59,.28-1,.88-1,1.57v2c0,.96,.79,1.75,1.75,1.75H20c.96,0,1.75-.79,1.75-1.75v-2c0-.96-.79-1.75-1.75-1.75Zm.25,3.75c0,.14-.11,.25-.25,.25H4c-.14,0-.25-.11-.25-.25v-2c0-.14,.11-.25,.25-.25h4.59c.07,0,.13,.03,.18,.07l.41,.41c.33,.33,.77,.51,1.24,.51h3.17c.47,0,.91-.18,1.24-.51l.41-.41s.11-.07,.18-.07h4.59c.14,0,.25,.11,.25,.25v2Z"/><path d="M20,6.25h-5c-.96,0-1.75,.79-1.75,1.75v3c0,.96,.79,1.75,1.75,1.75h5c.96,0,1.75-.79,1.75-1.75v-3c0-.96-.79-1.75-1.75-1.75Zm.25,4.75c0,.14-.11,.25-.25,.25h-5c-.14,0-.25-.11-.25-.25v-3c0-.14,.11-.25,.25-.25h5c.14,0,.25,.11,.25,.25v3Z"/></g></g></svg>