<?xml version="1.0" encoding="UTF-8"?><svg fill="currentColor" xmlns="http://www.w3.org/2000/svg" viewBox="0 0 24 24"><g id="p"><g><path d="M21,13.25c-.41,0-.75,.34-.75,.75v.25h-1.97c.31-.88,.47-1.81,.47-2.75,0-4.55-3.7-8.25-8.25-8.25S2.25,6.95,2.25,11.5s3.7,8.25,8.25,8.25h9.75v.25c0,.41,.34,.75,.75,.75s.75-.34,.75-.75v-6c0-.41-.34-.75-.75-.75Zm-10.5,2.5c-2.34,0-4.25-1.91-4.25-4.25s1.91-4.25,4.25-4.25,4.25,1.91,4.25,4.25-1.91,4.25-4.25,4.25Z"/><circle cx="10.5" cy="11.5" r="2.75"/></g></g></svg>