<?xml version="1.0" encoding="UTF-8"?><svg fill="currentColor" xmlns="http://www.w3.org/2000/svg" viewBox="0 0 24 24"><g id="q"><g><path d="M20,9.25H4c-.41,0-.75,.34-.75,.75v9c0,.96,.79,1.75,1.75,1.75h14c.96,0,1.75-.79,1.75-1.75V10c0-.41-.34-.75-.75-.75Zm-11,5.5h-.25v.25c0,.41-.34,.75-.75,.75s-.75-.34-.75-.75v-.25h-.25c-.41,0-.75-.34-.75-.75s.34-.75,.75-.75h.25v-.25c0-.41,.34-.75,.75-.75s.75,.34,.75,.75v.25h.25c.41,0,.75,.34,.75,.75s-.34,.75-.75,.75Zm8,0h-2c-.41,0-.75-.34-.75-.75s.34-.75,.75-.75h2c.41,0,.75,.34,.75,.75s-.34,.75-.75,.75Z"/><path d="M20,6.25h-1.25v-1.25c0-.96-.79-1.75-1.75-1.75h-1c-.96,0-1.75,.79-1.75,1.75v1.25h-4.5v-1.25c0-.96-.79-1.75-1.75-1.75h-1c-.96,0-1.75,.79-1.75,1.75v1.25h-1.25c-.96,0-1.75,.79-1.75,1.75v.6c.41-.52,1.04-.85,1.75-.85H20c.71,0,1.34,.34,1.75,.85v-.6c0-.96-.79-1.75-1.75-1.75Z"/></g></g></svg>