<?xml version="1.0" encoding="UTF-8"?><svg fill="currentColor" xmlns="http://www.w3.org/2000/svg" viewBox="0 0 24 24"><g id="g"><g><path d="M15.66,12.06c.06,.3,.09,.62,.09,.94,0,2.62-2.13,4.75-4.75,4.75s-4.75-2.13-4.75-4.75,2.13-4.75,4.75-4.75c.32,0,.63,.03,.94,.09-.7-.38-1.19-1.12-1.19-1.97v-2.11c-4.71,.13-8.5,4-8.5,8.74s3.92,8.75,8.75,8.75,8.6-3.79,8.74-8.5h-2.11c-.85,0-1.59-.48-1.97-1.19Z"/><circle cx="11" cy="13" r="3.25"/><path d="M13,2.25c-.41,0-.75,.34-.75,.75v3.38c0,.41,.34,.75,.75,.75,2.14,0,3.88,1.74,3.88,3.88,0,.41,.34,.75,.75,.75h3.38c.41,0,.75-.34,.75-.75,0-4.83-3.92-8.75-8.75-8.75Z"/></g></g></svg>