<?xml version="1.0" encoding="UTF-8"?><svg fill="currentColor" xmlns="http://www.w3.org/2000/svg" viewBox="0 0 24 24"><g id="e"><g><path d="M19.87,6.83l-1.63-.54c-.08-.03-.16-.04-.24-.04H4c-.96,0-1.75,.79-1.75,1.75v3c0,.96,.79,1.75,1.75,1.75h1.28c0,.08-.03,.16-.03,.25,0,.45,.12,.87,.31,1.25h-1.56c-.41,0-.75,.34-.75,.75s.34,.75,.75,.75h7.25v4.5H7c-.41,0-.75,.34-.75,.75s.34,.75,.75,.75h10c.41,0,.75-.34,.75-.75s-.34-.75-.75-.75h-4.25v-4.5h7.25c.41,0,.75-.34,.75-.75s-.34-.75-.75-.75h-1.56c.19-.38,.31-.8,.31-1.25,0-.09-.02-.17-.03-.25h1.28c.96,0,1.75-.79,1.75-1.75v-1.56c0-1.19-.76-2.23-1.88-2.61Zm-6.87,1.42h1c.41,0,.75,.34,.75,.75s-.34,.75-.75,.75h-1c-.41,0-.75-.34-.75-.75s.34-.75,.75-.75Zm.56,6h-3.13c.19-.38,.31-.8,.31-1.25,0-.09-.02-.17-.03-.25h2.55c0,.08-.03,.16-.03,.25,0,.45,.12,.87,.31,1.25Z"/><path d="M16.95,3.22c-.3-.6-.9-.97-1.57-.97h-3.63v2.5h5.96l-.77-1.53Z"/><path d="M10.25,2.25h-3.47c-.8,0-1.5,.54-1.7,1.33l-.29,1.17h5.46V2.25Z"/></g></g></svg>