<?xml version="1.0" encoding="UTF-8"?><svg fill="currentColor" xmlns="http://www.w3.org/2000/svg" viewBox="0 0 24 24"><g id="r"><g><polygon points="6.75 7.75 6.75 11.25 16.19 11.25 12.69 7.75 6.75 7.75"/><path d="M21.24,10.18L14.82,3.76c-.33-.33-.78-.51-1.24-.51H4c-.96,0-1.75,.79-1.75,1.75v14c0,.96,.79,1.75,1.75,1.75H14.11c.84,0,1.56-.6,1.72-1.42,.15-.79,.56-1.91,1.63-2.74,.92-.71,1.92-.88,2.6-.9,.95-.03,1.7-.79,1.7-1.75v-2.53c0-.47-.18-.91-.51-1.24Zm-12.24,5.57h-2c-.41,0-.75-.34-.75-.75s.34-.75,.75-.75h2c.41,0,.75,.34,.75,.75s-.34,.75-.75,.75Zm8.95-3.77c-.19,.47-.65,.77-1.16,.77H6.5c-.69,0-1.25-.56-1.25-1.25V7.5c0-.69,.56-1.25,1.25-1.25h6.29c.33,0,.65,.13,.88,.37l4,4c.36,.36,.47,.89,.27,1.36Z"/></g></g></svg>