<?xml version="1.0" encoding="UTF-8"?><svg fill="currentColor" xmlns="http://www.w3.org/2000/svg" viewBox="0 0 24 24"><g id="m"><g><path d="M9,11.25H4c-.96,0-1.75,.79-1.75,1.75v3.84c0,.19,.03,.37,.09,.55l.72,2.16c.24,.72,.91,1.2,1.66,1.2h3.56c.75,0,1.42-.48,1.66-1.2l.72-2.16c.06-.18,.09-.37,.09-.55v-3.84c0-.96-.79-1.75-1.75-1.75Z"/><path d="M20,11.25h-5c-.96,0-1.75,.79-1.75,1.75v3.84c0,.19,.03,.37,.09,.55l.72,2.16c.24,.72,.91,1.2,1.66,1.2h3.56c.75,0,1.42-.48,1.66-1.2l.72-2.16c.06-.18,.09-.37,.09-.55v-3.84c0-.96-.79-1.75-1.75-1.75Z"/><path d="M13.25,3.75v2.42c0,.73,.29,1.43,.81,1.94l.83,.83c.22,.22,.33,.5,.35,.81h4.52v-.92c0-.73-.29-1.43-.81-1.94l-.83-.83c-.24-.24-.37-.55-.37-.88v-1.42h3.25c.41,0,.75-.34,.75-.75s-.34-.75-.75-.75H3c-.41,0-.75,.34-.75,.75s.34,.75,.75,.75h3.25v1.42c0,.33-.13,.65-.37,.88l-.83,.83c-.52,.52-.81,1.21-.81,1.94v.92h4.52c.02-.3,.13-.59,.35-.81l.83-.83c.52-.52,.81-1.21,.81-1.94V3.75h2.5Z"/></g></g></svg>