<?xml version="1.0" encoding="UTF-8"?><svg fill="currentColor" xmlns="http://www.w3.org/2000/svg" viewBox="0 0 24 24"><g id="u"><g><circle cx="8" cy="16" r="2.75"/><circle cx="16" cy="16" r="2.75"/><path d="M16.95,7.22c-.3-.6-.9-.97-1.57-.97h-3.63v2.5h5.96l-.77-1.53Z"/><path d="M10.25,6.25h-3.47c-.8,0-1.5,.54-1.7,1.33l-.29,1.17h5.46v-2.5Z"/><path d="M19.87,10.83l-1.63-.54c-.08-.03-.16-.04-.24-.04H4c-.96,0-1.75,.79-1.75,1.75v3c0,.9,.69,1.64,1.57,1.73-.04-.24-.07-.48-.07-.73,0-2.34,1.91-4.25,4.25-4.25,1.86,0,3.42,1.21,4,2.87,.58-1.66,2.14-2.87,4-2.87,2.34,0,4.25,1.91,4.25,4.25,0,.25-.03,.49-.07,.73,.88-.09,1.57-.83,1.57-1.73v-1.56c0-1.19-.76-2.23-1.88-2.61Z"/></g></g></svg>