<?xml version="1.0" encoding="UTF-8"?><svg fill="currentColor" xmlns="http://www.w3.org/2000/svg" viewBox="0 0 24 24"><g id="o"><path d="M20,8.25h-.59c-.47,0-.91,.18-1.24,.51l-.49,.49h-2.94v-2.94l.49-.49c.33-.33,.51-.77,.51-1.24v-.59c0-.96-.79-1.75-1.75-1.75h-4c-.96,0-1.75,.79-1.75,1.75v.59c0,.47,.18,.91,.51,1.24l.49,.49v2.94h-2.94l-.49-.49c-.33-.33-.77-.51-1.24-.51h-.59c-.96,0-1.75,.79-1.75,1.75v4c0,.96,.79,1.75,1.75,1.75h.59c.47,0,.91-.18,1.24-.51l.49-.49h2.94v2.94l-.49,.49c-.33,.33-.51,.77-.51,1.24v.59c0,.96,.79,1.75,1.75,1.75h4c.96,0,1.75-.79,1.75-1.75v-.59c0-.47-.18-.91-.51-1.24l-.49-.49v-2.94h2.94l.49,.49c.33,.33,.77,.51,1.24,.51h.59c.96,0,1.75-.79,1.75-1.75v-4c0-.96-.79-1.75-1.75-1.75ZM4.59,14.25h-.59c-.14,0-.25-.11-.25-.25v-4c0-.14,.11-.25,.25-.25h.59c.07,0,.13,.03,.18,.07l.49,.49v3.38l-.49,.49s-.11,.07-.18,.07ZM9.75,4c0-.14,.11-.25,.25-.25h4c.14,0,.25,.11,.25,.25v.59c0,.07-.03,.13-.07,.18l-.49,.49h-3.38l-.49-.49s-.07-.11-.07-.18v-.59Zm4.5,16c0,.14-.11,.25-.25,.25h-4c-.14,0-.25-.11-.25-.25v-.59c0-.07,.03-.13,.07-.18l.49-.49h3.38l.49,.49s.07,.11,.07,.18v.59Zm6-6c0,.14-.11,.25-.25,.25h-.59c-.07,0-.13-.03-.18-.07l-.49-.49v-3.38l.49-.49s.11-.07,.18-.07h.59c.14,0,.25,.11,.25,.25v4Z"/></g></svg>