<?xml version="1.0" encoding="UTF-8"?><svg fill="currentColor" xmlns="http://www.w3.org/2000/svg" viewBox="0 0 24 24"><g id="n"><g><path d="M20.51,15.81l.24-.13c.36-.2,.5-.65,.3-1.02-.2-.36-.65-.5-1.02-.3l-.9,.49h0l-.9,.49c-.36,.2-.5,.65-.3,1.02,.14,.25,.39,.39,.66,.39,.12,0,.24-.03,.36-.09l.24-.13,.13,.24c.62,1.13,.2,2.55-.93,3.17-1.13,.62-2.55,.2-3.17-.93l-1.12-2.05,1.17-.64c.41-.22,.71-.59,.84-1.04,.13-.45,.08-.92-.14-1.33L11.04,4.86c-.22-.41-.59-.71-1.04-.84s-.92-.08-1.33,.14l-3.66,1.99c-.85,.46-1.16,1.53-.7,2.37l4.94,9.08c.22,.41,.59,.71,1.04,.84,.16,.05,.33,.07,.5,.07,.29,0,.57-.07,.83-.21l1.17-.64,1.12,2.05c.49,.9,1.3,1.55,2.28,1.84,.36,.11,.73,.16,1.09,.16,.63,0,1.26-.16,1.83-.47,.9-.49,1.55-1.3,1.84-2.28s.18-2.02-.31-2.92l-.13-.24Z"/><path d="M7.95,2.84c.21-.11,.43-.19,.66-.26-.18-.24-.48-.36-.78-.28L3.72,3.36c-.22,.06-.41,.22-.5,.43-.09,.21-.08,.45,.03,.66l.44,.81c.18-.16,.38-.3,.59-.42l3.66-1.99Z"/></g></g></svg>