<?xml version="1.0" encoding="UTF-8"?><svg fill="currentColor" xmlns="http://www.w3.org/2000/svg" viewBox="0 0 24 24"><g id="c"><g><path d="M9.25,11c0-.49,.14-.93,.36-1.33l-1.09-1.09c-.48,.69-.77,1.52-.77,2.42s.29,1.73,.77,2.42l1.09-1.09c-.22-.4-.36-.85-.36-1.33Z"/><circle cx="12" cy="11" r="1.25"/><path d="M12,13.75c-.49,0-.93-.14-1.33-.36l-1.09,1.09c.69,.48,1.52,.77,2.42,.77s1.73-.29,2.42-.77l-1.09-1.09c-.4,.22-.85,.36-1.33,.36Z"/><path d="M14.39,9.67c.22,.4,.36,.85,.36,1.33s-.14,.93-.36,1.33l1.09,1.09c.48-.69,.77-1.52,.77-2.42s-.29-1.73-.77-2.42l-1.09,1.09Z"/><path d="M12,8.25c.49,0,.93,.14,1.33,.36l1.09-1.09c-.69-.48-1.52-.77-2.42-.77s-1.73,.29-2.42,.77l1.09,1.09c.4-.22,.85-.36,1.33-.36Z"/><path d="M21.6,17.03c-.31-.49-.73-.67-1.01-.78,.03-.04,.06-.09,.09-.13,.2-.29,.47-.69,.64-1.22,.29-.94,.44-1.91,.44-2.9,0-5.38-4.37-9.75-9.75-9.75S2.25,6.62,2.25,12c0,.99,.15,1.97,.44,2.9,.17,.54,.44,.94,.64,1.23,.03,.04,.06,.09,.09,.13-.29,.1-.72,.28-1.04,.74-.46,.68-.57,1.83,.08,2.51,.14,.15,.34,.23,.54,.23H21c.2,0,.4-.08,.54-.23,.6-.62,.44-1.89,.06-2.49Zm-9.6-.28c-3.17,0-5.75-2.58-5.75-5.75s2.58-5.75,5.75-5.75,5.75,2.58,5.75,5.75-2.58,5.75-5.75,5.75Z"/></g></g></svg>