<?xml version="1.0" encoding="UTF-8"?><svg fill="currentColor" xmlns="http://www.w3.org/2000/svg" viewBox="0 0 24 24"><g id="l"><g><path d="M11.16,5.24l-.51-.55-3.02,3.02c-.68,.68-.68,1.79,0,2.47l.27,.27c.47,.47,1.16,.64,1.79,.42l.95-.32c.09-.03,.19,0,.26,.06l2.66,2.66c.07,.07,.09,.17,.06,.26l-.32,.95c-.21,.63-.05,1.32,.42,1.79l.27,.27c.34,.34,.79,.51,1.24,.51s.9-.17,1.24-.51l2.99-2.99-.53-.56-7.76-7.76Z"/><path d="M21.41,9.13L15.05,2.76c-.68-.68-1.79-.68-2.47,0l-.87,.87,.53,.57,7.76,7.76,.52,.54,.9-.9c.68-.68,.68-1.79,0-2.48Z"/><path d="M10.16,12.3c-.33,.11-.68,.17-1.03,.17-.19,0-.37-.02-.55-.05l-3.18,3.18c-.92-.01-1.73,.32-2.37,.95-.61,.61-.95,1.43-.95,2.3s.34,1.68,.95,2.3,1.43,.95,2.3,.95,1.68-.34,2.3-.95c.64-.64,.97-1.48,.95-2.37l3.18-3.18c-.09-.52-.06-1.06,.11-1.58l.07-.22-1.57-1.57-.21,.07Z"/></g></g></svg>