<?xml version="1.0" encoding="UTF-8"?><svg fill="currentColor" xmlns="http://www.w3.org/2000/svg" viewBox="0 0 24 24"><g id="t"><g><path d="M7,10.48c-.15,.48-.25,.99-.25,1.52,0,.1,.02,.19,.03,.28,.55-.21,1.58-.45,2.56,.05,.7,.36,1.24,1.03,1.51,1.9,.28,.89,.23,1.89-.09,2.85,.4,.1,.81,.16,1.24,.16s.84-.07,1.24-.17c-.33-.96-.37-1.97-.09-2.87,.27-.86,.81-1.53,1.51-1.89,.98-.5,2.01-.25,2.56-.05,0-.1,.03-.19,.03-.28,0-.53-.1-1.03-.25-1.52-3.25-.95-6.75-.96-10,0Zm5.02,2.27c-.41,0-.75-.34-.75-.75s.33-.75,.74-.75h.01c.41,0,.75,.34,.75,.75s-.34,.75-.75,.75Z"/><path d="M8.66,13.67c-.51-.26-1.14-.06-1.39,.03-.07,.03-.12,.07-.18,.1,.42,1.15,1.24,2.11,2.28,2.72,.2-.63,.22-1.28,.05-1.84-.15-.47-.42-.84-.76-1.01Z"/><path d="M16.04,8.69c-.96-1.18-2.41-1.94-4.04-1.94s-3.08,.77-4.04,1.94c2.66-.57,5.42-.57,8.08,0Z"/><path d="M12,2.25C6.62,2.25,2.25,6.62,2.25,12s4.37,9.75,9.75,9.75,9.75-4.37,9.75-9.75S17.38,2.25,12,2.25Zm6.56,11.33s-.01,.06-.02,.09c-.75,2.91-3.39,5.08-6.53,5.08s-5.79-2.16-6.53-5.08c0-.03-.02-.06-.02-.09-.12-.51-.2-1.04-.2-1.58,0-3.72,3.03-6.75,6.75-6.75,2.82,0,5.24,1.74,6.25,4.21,.08,.11,.13,.24,.14,.38,.23,.68,.36,1.4,.36,2.16,0,.55-.07,1.07-.19,1.58Z"/><path d="M15.34,13.67c-.33,.17-.61,.53-.76,1-.18,.56-.16,1.21,.04,1.85,1.05-.61,1.86-1.57,2.28-2.72-.06-.03-.12-.07-.18-.1-.25-.1-.88-.29-1.39-.03Z"/></g></g></svg>