<?xml version="1.0" encoding="UTF-8"?><svg fill="currentColor" xmlns="http://www.w3.org/2000/svg" viewBox="0 0 24 24"><g id="j"><g><polygon points="14.75 8.4 14.75 11.6 17.75 9.6 17.75 6.4 14.75 8.4"/><polygon points="7.25 11.37 7.25 14.6 10.25 16.6 10.25 13.4 7.58 11.62 7.25 11.37"/><polygon points="7.25 9.5 8.45 10.4 10.25 11.6 10.25 8.4 7.25 6.4 7.25 9.5"/><polygon points="14.75 16.6 17.75 14.6 17.75 11.4 14.75 13.4 14.75 16.6"/><rect x="11.75" y="2.25" width="1.5" height="19.5"/><path d="M7.25,19c0,1.52,1.23,2.75,2.75,2.75h.25v-3.35l-3-2v2.6Z"/><path d="M15,2.25h-.25V6.6l2.96-1.97c-.19-1.34-1.32-2.37-2.71-2.37Z"/><path d="M14.75,21.75h.25c1.52,0,2.75-1.23,2.75-2.75v-2.6l-3,2v3.35Z"/><path d="M7.29,4.62l2.96,1.97V2.25h-.25c-1.39,0-2.53,1.04-2.71,2.37Z"/></g></g></svg>