<?xml version="1.0" encoding="UTF-8"?><svg fill="currentColor" xmlns="http://www.w3.org/2000/svg" viewBox="0 0 24 24"><g id="b"><g><rect x="9.25" y="5.25" width="12.5" height="6.5" rx="1.75" ry="1.75"/><path d="M17,2.25h-3c-1.22,0-2.3,.59-2.98,1.5h8.96c-.69-.91-1.76-1.5-2.98-1.5Z"/><path d="M11.62,19.25c-.12,0-.24,0-.37-.01v.76c0,.41,.34,.75,.75,.75h7c.41,0,.75-.34,.75-.75v-.85c-.24,.06-.49,.1-.75,.1h-7.38Z"/><path d="M19,16.25h-7c-1.24,0-2.25-1.01-2.25-2.25v-.55l-.25,.04c-.1,.02-.21-.03-.26-.12l-.17-.31c-.29-.5-.82-.81-1.4-.81h-1.87c-.58,0-1.12,.31-1.4,.81l-.93,1.63c-.29,.5-.29,1.12,0,1.62l.94,1.63c.29,.5,.82,.81,1.4,.81h1.87c.58,0,1.12-.31,1.4-.81l.17-.29c.05-.09,.15-.14,.26-.12l.78,.12c.44,.07,.89,.1,1.34,.1h7.38c.96,0,1.75-.79,1.75-1.75v-.6c-.41,.52-1.04,.85-1.75,.85Z"/><path d="M19,14.75c.41,0,.75-.34,.75-.75v-.75H11.25v.75c0,.41,.34,.75,.75,.75h7Z"/></g></g></svg>