<?xml version="1.0" encoding="UTF-8"?><svg fill="currentColor" xmlns="http://www.w3.org/2000/svg" viewBox="0 0 24 24"><g id="d"><g><path d="M20.66,9.61l-.63-1.9c-.21-.62-.69-1.09-1.28-1.31v-2.4c0-.41-.34-.75-.75-.75s-.75,.34-.75,.75v2.4c-.59,.22-1.07,.69-1.28,1.31l-.63,1.9c-.06,.18-.09,.37-.09,.55v5.84c0,.96,.79,1.75,1.75,1.75h.25v1.25c0,.69-.56,1.25-1.25,1.25h-3c-.69,0-1.25-.56-1.25-1.25v-.37c1.15-.33,2-1.38,2-2.63v-7.25H2.25v7.25c0,1.52,1.23,2.75,2.75,2.75h5.25v.25c0,1.52,1.23,2.75,2.75,2.75h3c1.52,0,2.75-1.23,2.75-2.75v-1.25h.25c.96,0,1.75-.79,1.75-1.75v-5.84c0-.19-.03-.37-.09-.55Zm-12.66,6.14c-1.52,0-2.75-1.23-2.75-2.75s1.23-2.75,2.75-2.75,2.75,1.23,2.75,2.75-1.23,2.75-2.75,2.75Z"/><path d="M13.75,5c0-1.52-1.23-2.75-2.75-2.75H5c-1.52,0-2.75,1.23-2.75,2.75v2.25H13.75v-2.25Z"/><circle cx="8" cy="13" r="1.25"/></g></g></svg>