<?xml version="1.0" encoding="UTF-8"?><svg fill="currentColor" xmlns="http://www.w3.org/2000/svg" viewBox="0 0 24 24"><g id="k"><g><circle cx="12" cy="12" r="1.25"/><path d="M12,7.75c-2.34,0-4.25,1.91-4.25,4.25s1.91,4.25,4.25,4.25,4.25-1.91,4.25-4.25-1.91-4.25-4.25-4.25Zm0,7c-1.52,0-2.75-1.23-2.75-2.75s1.23-2.75,2.75-2.75,2.75,1.23,2.75,2.75-1.23,2.75-2.75,2.75Z"/><path d="M20.3,17.12c.95-1.54,1.45-3.29,1.45-5.12s-.5-3.6-1.46-5.14l.8-.77c.88-.88,.88-2.3,0-3.18s-2.33-.85-3.18,0l-.79,.79c-3.07-1.9-7.17-1.9-10.24,0l-.79-.79c-.85-.85-2.33-.85-3.18,0-.88,.88-.88,2.3,0,3.18l.79,.79c-.95,1.54-1.45,3.29-1.45,5.12s.5,3.58,1.45,5.12l-.79,.79c-.88,.88-.88,2.3,0,3.18s2.33,.85,3.18,0l.79-.79c3.07,1.9,7.16,1.9,10.24,0l.79,.79c.42,.42,.99,.66,1.59,.66s1.17-.23,1.59-.66c.88-.88,.88-2.3,0-3.18l-.79-.79Zm-8.3,.63c-3.17,0-5.75-2.58-5.75-5.75s2.58-5.75,5.75-5.75,5.75,2.58,5.75,5.75-2.58,5.75-5.75,5.75Z"/></g></g></svg>