<svg fill="currentColor" xmlns="http://www.w3.org/2000/svg" viewBox="0 0 32 32"><g id="_3d_glasses" data-name="3d glasses"><path d="M28.18,10H3.82A1.83,1.83,0,0,0,2,11.82v9.36A1.83,1.83,0,0,0,3.82,23h8.57a2.46,2.46,0,0,0,1.75-.73L16,20.41l1.86,1.86a2.46,2.46,0,0,0,1.75.73h8.57A1.83,1.83,0,0,0,30,21.18V11.82A1.83,1.83,0,0,0,28.18,10ZM12.73,20.86a.49.49,0,0,1-.34.14H4V12H15v6.59ZM28,21H19.61a.49.49,0,0,1-.34-.14L17,18.59V12H28Z"/><path d="M13,13H6a1,1,0,0,0-1,1v5a1,1,0,0,0,1,1h5a1,1,0,0,0,.71-.29l2-2A1,1,0,0,0,14,17V14A1,1,0,0,0,13,13Zm-1,3.59L10.59,18H7V15h5Z"/><path d="M18.29,17.71l2,2A1,1,0,0,0,21,20h5a1,1,0,0,0,1-1V14a1,1,0,0,0-1-1H19a1,1,0,0,0-1,1v3A1,1,0,0,0,18.29,17.71ZM20,15h5v3H21.41L20,16.59Z"/></g></svg>