<svg fill="currentColor" xmlns="http://www.w3.org/2000/svg" viewBox="0 0 32 32"><g id="barrier"><path d="M29,25.76V9a1.07,1.07,0,0,0-.06-.31,4,4,0,1,0-5.88,0A1.07,1.07,0,0,0,23,9v2.64A9.5,9.5,0,0,1,16,15a9.39,9.39,0,0,1-7-3.35V9a1.07,1.07,0,0,0-.06-.31,4,4,0,1,0-5.88,0A1.07,1.07,0,0,0,3,9V25.76A2.94,2.94,0,0,0,2,28v1a1,1,0,0,0,1,1H9a1,1,0,0,0,1-1V28a2.94,2.94,0,0,0-1-2.2V18a13.19,13.19,0,0,0,7,2,13.61,13.61,0,0,0,7-2v7.78A2.94,2.94,0,0,0,22,28v1a1,1,0,0,0,1,1h6a1,1,0,0,0,1-1V28A2.94,2.94,0,0,0,29,25.76ZM26,10a4.09,4.09,0,0,0,1-.14V11H25V9.86A4.09,4.09,0,0,0,26,10Zm-1,3h2V25H25Zm1-9a2,2,0,1,1-2,2A2,2,0,0,1,26,4ZM5,25V13H7V25ZM6,10a4.09,4.09,0,0,0,1-.14V11H5V9.86A4.09,4.09,0,0,0,6,10ZM6,4A2,2,0,1,1,4,6,2,2,0,0,1,6,4ZM4,28v0a1,1,0,0,1,1-1H7a1,1,0,0,1,1,1ZM16,18a11.34,11.34,0,0,1-7-2.47V14.44A11,11,0,0,0,16,17a11.6,11.6,0,0,0,7-2.53v1A11.45,11.45,0,0,1,16,18Zm8,10v0a1,1,0,0,1,1-1H27a1,1,0,0,1,1,1Z"/></g></svg>