<svg fill="currentColor" xmlns="http://www.w3.org/2000/svg" viewBox="0 0 32 32"><g id="bow_tie" data-name="bow tie"><path d="M28.49,9.74a3.73,3.73,0,0,0-3.31-.58L19.73,10.8A2.47,2.47,0,0,0,18,10.06h-3.9a2.47,2.47,0,0,0-1.78.74L6.82,9.16A3.74,3.74,0,0,0,2,12.74v6.64A3.74,3.74,0,0,0,6.82,23l5.45-1.64a2.51,2.51,0,0,0,1.78.74H18a2.51,2.51,0,0,0,1.78-.74L25.18,23A3.74,3.74,0,0,0,30,19.38V12.74A3.7,3.7,0,0,0,28.49,9.74ZM6.24,21A1.74,1.74,0,0,1,4,19.38V12.74a1.73,1.73,0,0,1,.7-1.39,1.7,1.7,0,0,1,1.54-.27l5.19,1.55a14.89,14.89,0,0,0-.3,1.62A3.3,3.3,0,0,0,10,14.06a3.61,3.61,0,0,0-2.8,1.4,1,1,0,0,0,.2,1.4,1,1,0,0,0,.6.2,1,1,0,0,0,.8-.4,1.62,1.62,0,0,1,1.2-.6,1.54,1.54,0,0,1,1,.41,14,14,0,0,0,.41,3Zm12.19-1.33a.5.5,0,0,1-.48.35h-3.9a.51.51,0,0,1-.48-.34,12,12,0,0,1,0-7.31.5.5,0,0,1,.48-.35H18a.51.51,0,0,1,.48.34A12,12,0,0,1,19,16.06,11.9,11.9,0,0,1,18.43,19.71ZM28,19.38A1.74,1.74,0,0,1,25.76,21l-5.19-1.55a14,14,0,0,0,.41-3,1.54,1.54,0,0,1,1-.41,1.62,1.62,0,0,1,1.2.6,1,1,0,0,0,.8.4,1,1,0,0,0,.6-.2,1,1,0,0,0,.2-1.4,3.61,3.61,0,0,0-2.8-1.4,3.3,3.3,0,0,0-1.13.19,14.89,14.89,0,0,0-.3-1.62l5.19-1.55a1.7,1.7,0,0,1,1.54.27,1.73,1.73,0,0,1,.7,1.39Z"/></g></svg>