<svg fill="currentColor" xmlns="http://www.w3.org/2000/svg" viewBox="0 0 32 32"><g id="camera"><path d="M20,9a1,1,0,0,0,0-2h0a1,1,0,1,0,0,2Z"/><path d="M27,13a1,1,0,0,0-1,1v4.59l-2-2V12.46a6,6,0,1,0-9.89-5.62A4.49,4.49,0,1,0,8,13.24V14H6a1,1,0,0,0,0,2H8v5a1,1,0,0,0,1,1h5.56l-2.25,6H7a1,1,0,0,0,0,2H26a1,1,0,0,0,0-2H19.69l-2.25-6H23a1,1,0,0,0,1-1V19.41l1,1a1.76,1.76,0,0,0,1.25.52A1.75,1.75,0,0,0,28,19.14V14A1,1,0,0,0,27,13ZM14.44,28,16,23.85,17.56,28ZM20,4a4,4,0,1,1-4,4A4,4,0,0,1,20,4ZM10.5,7A2.5,2.5,0,1,1,8,9.5,2.5,2.5,0,0,1,10.5,7ZM22,20H10V14a4.23,4.23,0,0,0,.5.05,4.47,4.47,0,0,0,4.25-3.1A6,6,0,0,0,22,13.65Z"/></g></svg>