<svg fill="currentColor" xmlns="http://www.w3.org/2000/svg" viewBox="0 0 32 32"><g id="cinema"><path d="M28.13,10H26V8.14A2.14,2.14,0,0,0,23.86,6h-3a5,5,0,0,0-9.8,0h-3A2.14,2.14,0,0,0,6,8.14V10H3.88A1.88,1.88,0,0,0,2,11.88v3.25A1.88,1.88,0,0,0,3.88,17H4V29a1,1,0,0,0,1,1H27a1,1,0,0,0,1-1V17h.13A1.87,1.87,0,0,0,30,15.13V11.88A1.88,1.88,0,0,0,28.13,10ZM24,8.14V10H20a4.84,4.84,0,0,0,.93-2h3A.14.14,0,0,1,24,8.14ZM16,4a3,3,0,1,1-3,3A3,3,0,0,1,16,4ZM8,8.14A.14.14,0,0,1,8.14,8h3A4.84,4.84,0,0,0,12,10H8ZM6,17h5V28H6Zm13,0V28H13V17Zm7,11H21V17h5Zm2-13H4V12H28Z"/></g></svg>