<svg fill="currentColor" xmlns="http://www.w3.org/2000/svg" viewBox="0 0 32 32"><g id="clapperboard"><path d="M28,11H15.09l13-2.87a1.59,1.59,0,0,0,1-.7,1.64,1.64,0,0,0,.22-1.22l-.65-2.93a1.59,1.59,0,0,0-.7-1,1.64,1.64,0,0,0-1.22-.22L4.55,7A1.61,1.61,0,0,0,3.32,8.87L4,11.79a.88.88,0,0,1,0,.15S4,12,4,12V28a2,2,0,0,0,2,2H28a2,2,0,0,0,2-2V13A2,2,0,0,0,28,11ZM13.63,9.24,11.25,7.52l4-.87a1.07,1.07,0,0,0,.25.22L18,8.32l-4.32.95Zm7.95-3.93L24.06,7l-3.23.71s-.06-.07-.1-.09L18,6l3.51-.77S21.56,5.3,21.58,5.31Zm5.26-1.22.48,2.17-.55.12h0L24.21,4.67Zm-18.2,4,2.41,1.75L5.83,11,5.36,8.82ZM28,28H6V13H28Zm0,1V28h0Z"/><path d="M10,19H24a1,1,0,0,0,0-2H10a1,1,0,0,0,0,2Z"/><path d="M10,23h3v2a1,1,0,0,0,2,0V23h4v2a1,1,0,0,0,2,0V23h3a1,1,0,0,0,0-2H10a1,1,0,0,0,0,2Z"/></g></svg>