<svg fill="currentColor" xmlns="http://www.w3.org/2000/svg" viewBox="0 0 32 32"><g id="column"><path d="M30,11a4.93,4.93,0,0,0-2-3.93S28,7,28,7V3a1,1,0,0,0-1-1H6A1,1,0,0,0,5,3V7s0,0,0,.07a4.88,4.88,0,0,0,1,8.45V29a1,1,0,0,0,1,1H26a1,1,0,0,0,1-1V15.52A5,5,0,0,0,30,11ZM7,6V4H26V6H7ZM8.17,16H8v0ZM25,20H8V18H25ZM14,28H12V26a1,1,0,0,1,2,0Zm7,0H19V26a1,1,0,0,1,2,0Zm4,0H23V26a3,3,0,0,0-6,0v2H16V26a3,3,0,0,0-6,0v2H8V22H25Zm0-12h-.17L25,16Zm-.17-2h-.59a1.29,1.29,0,1,1,0-2.57,1.4,1.4,0,0,1,.7.18,1,1,0,0,0,1-1.75,3.43,3.43,0,0,0-1.67-.43,3.29,3.29,0,1,0,0,6.57H8.76a3.29,3.29,0,1,0,0-6.57,3.43,3.43,0,0,0-1.67.43,1,1,0,1,0,1,1.75,1.4,1.4,0,0,1,.7-.18,1.29,1.29,0,1,1,0,2.57H8.17A3.09,3.09,0,0,1,5,11,3.09,3.09,0,0,1,8.17,8H24.83A3.09,3.09,0,0,1,28,11,3.09,3.09,0,0,1,24.83,14Z"/></g></svg>