<svg fill="currentColor" xmlns="http://www.w3.org/2000/svg" viewBox="0 0 32 32"><g id="director_chair" data-name="director chair"><path d="M24,15.13V3a1,1,0,0,0-.4-.8A1,1,0,0,0,22.72,2,24.18,24.18,0,0,1,9.28,2a1,1,0,0,0-.88.16A1,1,0,0,0,8,3V15.13a1.66,1.66,0,0,0-1,1.52v1.7A1.65,1.65,0,0,0,8.65,20h1l4.8,4L9.36,28.23a1,1,0,0,0-.13,1.41A1,1,0,0,0,10,30a1,1,0,0,0,.64-.23L16,25.3l5.36,4.47A1,1,0,0,0,22,30a1,1,0,0,0,.77-.36,1,1,0,0,0-.13-1.41L17.56,24l4.8-4h1A1.65,1.65,0,0,0,25,18.35v-1.7A1.66,1.66,0,0,0,24,15.13ZM10,15V11.28A25.85,25.85,0,0,0,16,12a25.85,25.85,0,0,0,6-.72V15ZM10,4.3a26.16,26.16,0,0,0,12,0V9.24a24.14,24.14,0,0,1-12,0Zm6,18.4L12.76,20h6.48ZM23,18H9V17H23Z"/></g></svg>