<svg fill="currentColor" xmlns="http://www.w3.org/2000/svg" viewBox="0 0 32 32"><g id="electronics"><path d="M27.52,6h-23A2.48,2.48,0,0,0,2,8.48v15A2.48,2.48,0,0,0,4.48,26h23A2.48,2.48,0,0,0,30,23.52v-15A2.48,2.48,0,0,0,27.52,6ZM8.62,24l1-2H22.38l1,2ZM28,23.52a.49.49,0,0,1-.48.48h-1.9l-1.73-3.45A1,1,0,0,0,23,20H9a1,1,0,0,0-.89.55L6.38,24H4.48A.49.49,0,0,1,4,23.52v-15A.49.49,0,0,1,4.48,8h23a.49.49,0,0,1,.48.48Z"/><path d="M25,9H7a1,1,0,0,0-1,1v8a1,1,0,0,0,1,1H25a1,1,0,0,0,1-1V10A1,1,0,0,0,25,9Zm-1,8H8V11H24Z"/><path d="M11,16a2,2,0,0,0,1.72-1h6.56a2,2,0,1,0,0-2H12.72A2,2,0,1,0,11,16Z"/></g></svg>