<svg fill="currentColor" xmlns="http://www.w3.org/2000/svg" viewBox="0 0 32 32"><g id="film_reel" data-name="film reel"><path d="M13,16a4,4,0,1,0-4,4A4,4,0,0,0,13,16ZM9,18a2,2,0,1,1,2-2A2,2,0,0,1,9,18Z"/><path d="M17,16a4,4,0,1,0,4-4A4,4,0,0,0,17,16Zm4-2a2,2,0,1,1-2,2A2,2,0,0,1,21,14Z"/><path d="M15,14a4,4,0,1,0-4-4A4,4,0,0,0,15,14Zm0-6a2,2,0,1,1-2,2A2,2,0,0,1,15,8Z"/><path d="M19,22a4,4,0,1,0-4,4A4,4,0,0,0,19,22Zm-6,0a2,2,0,1,1,2,2A2,2,0,0,1,13,22Z"/><path d="M29,27H21.9A13,13,0,1,0,15,29H29a1,1,0,0,0,0-2ZM4,16A11,11,0,1,1,15,27,11,11,0,0,1,4,16Z"/></g></svg>