<svg fill="currentColor" xmlns="http://www.w3.org/2000/svg" viewBox="0 0 32 32"><g id="happy_mask" data-name="happy mask"><path d="M29.71,19.29l-.12-.12A2,2,0,0,1,29,17.76V16a4,4,0,0,0-3-3.86V7a1,1,0,0,0-.58-.91,22.62,22.62,0,0,0-18.84,0A1,1,0,0,0,6,7v5.14A4,4,0,0,0,3,16v1.76a2,2,0,0,1-.59,1.41l-.12.12a1,1,0,0,0,0,1.42,1,1,0,0,0,1.42,0l.12-.12A4,4,0,0,0,5,17.76V16a2,2,0,0,1,1-1.72V18.7a10,10,0,1,0,20,0V14.28A2,2,0,0,1,27,16v1.76a4,4,0,0,0,1.17,2.83l.12.12a1,1,0,0,0,1.42,0A1,1,0,0,0,29.71,19.29ZM24,18.7a8,8,0,1,1-16,0v-11a20.56,20.56,0,0,1,16,0Z"/><path d="M11,13a1,1,0,0,1,2,0,1,1,0,0,0,2,0,3,3,0,0,0-6,0,1,1,0,0,0,2,0Z"/><path d="M20,10a3,3,0,0,0-3,3,1,1,0,0,0,2,0,1,1,0,0,1,2,0,1,1,0,0,0,2,0A3,3,0,0,0,20,10Z"/><path d="M21.55,17.17a1,1,0,0,0-.93-.09,12.12,12.12,0,0,1-9.24,0,1,1,0,0,0-.93.09A1,1,0,0,0,10,18a6,6,0,0,0,12,0A1,1,0,0,0,21.55,17.17ZM16,22a4,4,0,0,1-3.71-2.5,14.15,14.15,0,0,0,7.42,0A4,4,0,0,1,16,22Z"/></g></svg>