<svg fill="currentColor" xmlns="http://www.w3.org/2000/svg" viewBox="0 0 32 32"><g id="hd"><path d="M29.93,25.63v0h0L26,15.81V3a1,1,0,0,0-1-1H7A1,1,0,0,0,6,3V15.81l-3.92,9.8h0v0A.94.94,0,0,0,2,26v3a1,1,0,0,0,1,1H29a1,1,0,0,0,1-1V26A.94.94,0,0,0,29.93,25.63ZM7.68,17H24.32l3.2,8h-23ZM8,4H24V15H8ZM4,28V27H28v1Z"/><path d="M22,5H10A1,1,0,0,0,9,6v7a1,1,0,0,0,1,1H22a1,1,0,0,0,1-1V6A1,1,0,0,0,22,5Zm-1,7H11V7H21Z"/><path d="M16,24c3.48,0,7-.93,7-3s-3.52-3-7-3-7,.93-7,3S12.52,24,16,24Zm0-4c2.76,0,4.44.63,4.91,1-.47.37-2.15,1-4.91,1s-4.44-.63-4.91-1C11.56,20.63,13.24,20,16,20Z"/></g></svg>