<svg fill="currentColor" xmlns="http://www.w3.org/2000/svg" viewBox="0 0 32 32"><g id="lights_2" data-name="lights 2"><path d="M26,2H24.5A11.52,11.52,0,0,0,13.92,9H6a1,1,0,0,0-1,1v7a1,1,0,0,0,1,1H7v2a1,1,0,0,0,1,1H9v1.7L5.17,28.45a1,1,0,1,0,1.66,1.1L9,26.3V29a1,1,0,0,0,2,0V26.3l2.17,3.25A1,1,0,0,0,14,30a.94.94,0,0,0,.55-.17,1,1,0,0,0,.28-1.38L11,22.7V21h1a1,1,0,0,0,1-1V18h.92A11.52,11.52,0,0,0,24.5,25H26a1,1,0,0,0,1-1V3A1,1,0,0,0,26,2ZM11,19H9V18h2Zm1-3H7V11h6.28a11.3,11.3,0,0,0,0,5Zm13,7h-.5a9.5,9.5,0,0,1,0-19H25Z"/></g></svg>