<svg fill="currentColor" xmlns="http://www.w3.org/2000/svg" viewBox="0 0 32 32"><g id="lights"><path d="M28,17.15a1,1,0,0,0-.64-.72l-5.52-1.9L15,7.59V3a1,1,0,0,0-1-1H11.07a1,1,0,0,0-1,1V8.47L5.84,12.68a2.86,2.86,0,0,0,0,4l6.78,7,1.78,5.62a1,1,0,0,0,1,.7,1,1,0,0,0,.71-.29l2.64-2.63a3.6,3.6,0,0,0,1.79.5h0a3.72,3.72,0,0,0,2.63-1.08l1.3-1.3a3.78,3.78,0,0,0,.64-4.48l2.66-2.64A1,1,0,0,0,28,17.15ZM12.07,4H13V14h-.93ZM7.25,14.09l2.82-2.79V15a1,1,0,0,0,1,1H14a1,1,0,0,0,1-1V10.45l4.85,4.94-6.37,6.34L7.23,15.28A.85.85,0,0,1,7.25,14.09ZM23,23.79l-1.3,1.29a1.59,1.59,0,0,1-1.23.5l-.28,0,3.31-3.3A1.81,1.81,0,0,1,23,23.79Zm.06-3.91h0l-7.29,7.24-1.17-3.7,6.92-6.88,3.64,1.25Z"/></g></svg>