<svg fill="currentColor" xmlns="http://www.w3.org/2000/svg" viewBox="0 0 32 32"><g id="mask"><path d="M30,14V11a1,1,0,0,0-.48-.86,1,1,0,0,0-1,0A6.92,6.92,0,0,1,25,11a7,7,0,0,1-2.24-.49,6.88,6.88,0,0,0-2.84-.5A7,7,0,0,0,16,11.67,7,7,0,0,0,12.06,10a6.71,6.71,0,0,0-2.84.51A7.1,7.1,0,0,1,7,11a6.94,6.94,0,0,1-3.5-.88A1,1,0,0,0,2,11v2.93a7.74,7.74,0,0,0,2,5.78A6.89,6.89,0,0,0,9,22h.07a7.25,7.25,0,0,0,6.64-4.87.21.21,0,0,1,.21-.13h.18a.21.21,0,0,1,.21.13A7.25,7.25,0,0,0,22.94,22H23A6.89,6.89,0,0,0,28,19.71,7.68,7.68,0,0,0,30,14Zm-3.5,4.36A4.94,4.94,0,0,1,23,20h0a5.3,5.3,0,0,1-4.76-3.57A2.24,2.24,0,0,0,16.09,15h-.18a2.24,2.24,0,0,0-2.09,1.43A5.24,5.24,0,0,1,9,20,4.94,4.94,0,0,1,5.5,18.36,5.78,5.78,0,0,1,4,14V12.53A8.41,8.41,0,0,0,7,13a9.07,9.07,0,0,0,2.84-.6,4.93,4.93,0,0,1,2.07-.4,5.53,5.53,0,0,1,3.37,1.72,1,1,0,0,0,1.38,0A5.53,5.53,0,0,1,20.06,12a5,5,0,0,1,2.07.39A9,9,0,0,0,25,13,8.24,8.24,0,0,0,28,12.52v1.55A5.72,5.72,0,0,1,26.5,18.36Z"/><path d="M9,13.5a4.4,4.4,0,0,0-3.87,2,1,1,0,0,0,0,1A4.4,4.4,0,0,0,9,18.5a4.4,4.4,0,0,0,3.87-2,1,1,0,0,0,0-1A4.4,4.4,0,0,0,9,13.5ZM7.32,16a3.27,3.27,0,0,1,3.36,0A3.31,3.31,0,0,1,7.32,16Z"/><path d="M23,13.5a4.4,4.4,0,0,0-3.87,2,1,1,0,0,0,0,1,4.4,4.4,0,0,0,3.87,2,4.4,4.4,0,0,0,3.87-2,1,1,0,0,0,0-1A4.4,4.4,0,0,0,23,13.5ZM21.32,16a3.27,3.27,0,0,1,3.36,0A3.31,3.31,0,0,1,21.32,16Z"/></g></svg>