<svg fill="currentColor" xmlns="http://www.w3.org/2000/svg" viewBox="0 0 32 32"><g id="megaphone"><path d="M29.12,5.83a2.14,2.14,0,0,0-1.91-.31L7.67,11.74a2.63,2.63,0,0,1-1.42,0L4.3,11.29A1.85,1.85,0,0,0,2,13.09v4.83a1.83,1.83,0,0,0,.71,1.45,1.87,1.87,0,0,0,1.58.34l2-.49a2.63,2.63,0,0,1,1.42,0L9.9,20a3.6,3.6,0,0,0,2.29,5l1.69.48a3.46,3.46,0,0,0,1,.15,3.64,3.64,0,0,0,3-1.62l.79-1.19,8.52,2.71a2.05,2.05,0,0,0,.65.1A2.14,2.14,0,0,0,30,23.44V7.56A2.12,2.12,0,0,0,29.12,5.83ZM6.88,17.14a4.77,4.77,0,0,0-1.12.14L4,17.72V13.28l1.76.44a4.6,4.6,0,0,0,2.52-.08L24,8.64V22.36l-15.72-5A4.45,4.45,0,0,0,6.88,17.14Zm9.35,5.71a1.61,1.61,0,0,1-1.8.66L12.74,23a1.63,1.63,0,0,1-.92-2.45l4.89,1.56ZM28,23.44a.14.14,0,0,1-.06.11.12.12,0,0,1-.13,0L26,23V8l1.81-.57a.12.12,0,0,1,.13,0,.14.14,0,0,1,.06.11Z"/></g></svg>