<svg fill="currentColor" xmlns="http://www.w3.org/2000/svg" viewBox="0 0 32 32"><g id="movie"><path d="M27.12,6H4.88A2.88,2.88,0,0,0,2,8.88V23.12A2.88,2.88,0,0,0,4.88,26H27.12A2.88,2.88,0,0,0,30,23.12V8.88A2.88,2.88,0,0,0,27.12,6ZM28,20H25V17h3ZM4,17H7v3H4Zm0-5H7v3H4ZM9,8H23V24H9Zm16,7V12h3v3Zm3-6.12V10H25V8h2.12A.89.89,0,0,1,28,8.88Zm-24,0A.89.89,0,0,1,4.88,8H7v2H4ZM4,23.12V22H7v2H4.88A.89.89,0,0,1,4,23.12Zm24,0a.89.89,0,0,1-.88.88H25V22h3Z"/><path d="M19.45,15.11l-6-3A1,1,0,0,0,12,13v6a1,1,0,0,0,.47.85A1,1,0,0,0,13,20a1,1,0,0,0,.45-.11l6-3a1,1,0,0,0,0-1.78ZM14,17.38V14.62L16.76,16Z"/></g></svg>