<svg fill="currentColor" xmlns="http://www.w3.org/2000/svg" viewBox="0 0 32 32"><g id="oscar"><path d="M16,8a3,3,0,1,0-3-3A3,3,0,0,0,16,8Zm0-4a1,1,0,1,1-1,1A1,1,0,0,1,16,4Z"/><path d="M24,28H22V26a1,1,0,0,0-1-1H19.11l.79-8H21a1,1,0,0,0,1-1V14.19a4.52,4.52,0,0,0-2.52-4.07l-1.14-.57a5.34,5.34,0,0,0-4.68,0l-1.14.57A4.52,4.52,0,0,0,10,14.19V16a1,1,0,0,0,1,1h1.1l.79,8H11a1,1,0,0,0-1,1v2H8a1,1,0,0,0,0,2H24a1,1,0,0,0,0-2ZM14,15.9a1,1,0,0,0-1-.9H12v-.81a2.54,2.54,0,0,1,1.41-2.28l1.14-.57a3.28,3.28,0,0,1,2.9,0l1.14.57A2.54,2.54,0,0,1,20,14.19V15H19a1,1,0,0,0-1,.9L17.1,25H17V14a1,1,0,0,0-2,0V25h-.1ZM12,28V27h8v1Z"/></g></svg>