<svg fill="currentColor" xmlns="http://www.w3.org/2000/svg" viewBox="0 0 32 32"><g id="popcorn"><path d="M26.82,6.43a3.73,3.73,0,0,0-3-1.52,3,3,0,0,0-1.37-1.78,3.07,3.07,0,0,0-3.16.15,3.08,3.08,0,0,0-4.5-.56,4.86,4.86,0,0,0-5.52.55A4.3,4.3,0,0,0,8.05,5.76,4,4,0,0,0,7,5.93a3.23,3.23,0,0,0-1.83,4.59,1,1,0,0,0-.14.64l3,18A1,1,0,0,0,9,30H23a1,1,0,0,0,1-.84l3-18a1,1,0,0,0-.16-.68,3.93,3.93,0,0,0,.52-1.33A3.57,3.57,0,0,0,26.82,6.43Zm-19.93,2a1.25,1.25,0,0,1,1.66-.56,1,1,0,0,0,1-.07A1,1,0,0,0,10,6.9a2.73,2.73,0,0,1,.69-2.17,3,3,0,0,1,3.72.07,1,1,0,0,0,.76.19,1,1,0,0,0,.65-.42A1.25,1.25,0,0,1,16.92,4,1.28,1.28,0,0,1,18,5.14,1,1,0,0,0,18.8,6a1,1,0,0,0,1.06-.46,1.33,1.33,0,0,1,1.65-.65A1.21,1.21,0,0,1,22,6a1,1,0,0,0,.37.81,1,1,0,0,0,.86.2,1.86,1.86,0,0,1,1.95.6,1.59,1.59,0,0,1,.21,1.21A2.11,2.11,0,0,1,24.65,10H7.31A1.24,1.24,0,0,1,6.89,8.45Zm12.89,11a1.09,1.09,0,0,0,.14.23A.89.89,0,0,1,20,20c0,.94-1.71,2-4,2s-4-1.06-4-2a.89.89,0,0,1,.08-.35,1.09,1.09,0,0,0,.14-.23A4.77,4.77,0,0,1,16,18,4.77,4.77,0,0,1,19.78,19.42ZM15,16.06A7.51,7.51,0,0,0,12,17l-.83-5H15Zm0,7.88V28H13.85l-.75-4.48A8,8,0,0,0,15,23.94Zm2,0a8,8,0,0,0,1.9-.42L18.15,28H17Zm3-7a7.51,7.51,0,0,0-3-.93V12h3.82ZM7.18,12h2l1.13,6.77A2.91,2.91,0,0,0,10,20a3.06,3.06,0,0,0,.85,2.07.27.27,0,0,0,0,.09l1,5.84h-2Zm15,16h-2l1-5.84a.27.27,0,0,0,0-.09A3.06,3.06,0,0,0,22,20a2.91,2.91,0,0,0-.28-1.23L22.85,12h2Z"/></g></svg>