<svg fill="currentColor" xmlns="http://www.w3.org/2000/svg" viewBox="0 0 32 32"><g id="projector"><path d="M26.84,14H19V7h.3A2.7,2.7,0,0,0,22,4.3V3a1,1,0,0,0-1-1H11a1,1,0,0,0-1,1V4.3A2.7,2.7,0,0,0,12.7,7H13v7H5.16A3.17,3.17,0,0,0,2,17.16v9.68A3.17,3.17,0,0,0,5.16,30H26.84A3.17,3.17,0,0,0,30,26.84V17.16A3.17,3.17,0,0,0,26.84,14ZM12,4.3V4h8v.3a.7.7,0,0,1-.7.7H12.7A.7.7,0,0,1,12,4.3ZM15,7h2v7H15ZM28,26.84A1.16,1.16,0,0,1,26.84,28H5.16A1.16,1.16,0,0,1,4,26.84V17.16A1.16,1.16,0,0,1,5.16,16H26.84A1.16,1.16,0,0,1,28,17.16Z"/><path d="M16,17a5,5,0,1,0,5,5A5,5,0,0,0,16,17Zm0,8a3,3,0,1,1,3-3A3,3,0,0,1,16,25Z"/><path d="M26,18H23a1,1,0,0,0,0,2h3a1,1,0,0,0,0-2Z"/><path d="M26,21H23a1,1,0,0,0,0,2h3a1,1,0,0,0,0-2Z"/><path d="M26,24H23a1,1,0,0,0,0,2h3a1,1,0,0,0,0-2Z"/><path d="M9,18H6a1,1,0,0,0,0,2H9a1,1,0,0,0,0-2Z"/><path d="M9,21H6a1,1,0,0,0,0,2H9a1,1,0,0,0,0-2Z"/><path d="M9,24H6a1,1,0,0,0,0,2H9a1,1,0,0,0,0-2Z"/><path d="M16,21h0a1,1,0,1,0,1,1A1,1,0,0,0,16,21Z"/></g></svg>