<svg fill="currentColor" xmlns="http://www.w3.org/2000/svg" viewBox="0 0 32 32"><g id="soda"><path d="M23.58,10H19.22l.6-3H23a1,1,0,0,0,1-1V3a1,1,0,0,0-1-1H18a3.49,3.49,0,0,0-3.39,2.65L13.22,10H8.42A1.43,1.43,0,0,0,7,11.42v2.16A1.42,1.42,0,0,0,8.06,15l.88,13.17A2,2,0,0,0,11,30h10.1a2,2,0,0,0,2-1.88L23.94,15A1.42,1.42,0,0,0,25,13.58V11.42A1.43,1.43,0,0,0,23.58,10ZM21.8,17l-.13.1a9.85,9.85,0,0,1-3,2.54A3,3,0,0,0,16,18a3,3,0,0,0-3,3,2.21,2.21,0,0,0,0,.37,8.77,8.77,0,0,0-2.42,2L10.07,15H21.93ZM17,21a1,1,0,1,1-1-1A1,1,0,0,1,17,21ZM16.5,5.14A1.49,1.49,0,0,1,18,4H22V5H19.52a1.63,1.63,0,0,0-1.6,1.31L17.18,10h-1.9ZM9,12H23v1H9Zm1.93,16-.09-1.46s0,0,0-.06A7.88,7.88,0,0,1,14,23.18a3,3,0,0,0,5-1.49A10.22,10.22,0,0,0,21.59,20l-.54,8Z"/></g></svg>