<svg fill="currentColor" xmlns="http://www.w3.org/2000/svg" viewBox="0 0 32 32"><g id="stage"><path d="M27.72,2H4.28A2.28,2.28,0,0,0,2,4.28V27.72A2.28,2.28,0,0,0,4.28,30H27.72A2.28,2.28,0,0,0,30,27.72V4.28A2.28,2.28,0,0,0,27.72,2ZM28,14.66a10.28,10.28,0,0,1-2.95-6.75A6,6,0,0,0,26,8a6.13,6.13,0,0,0,2-.34ZM23,7.2c0,2,.59,6.39,4.09,9.32a8.59,8.59,0,0,1-2.49-1.31c-3.93-3-3.76-8.4-3.65-9.76l0,0A6.3,6.3,0,0,0,23,7.2Zm-3.64-3a.93.93,0,0,0-.26.33,4.08,4.08,0,0,1-6.22,0,1,1,0,0,0-.24-.31A2.2,2.2,0,0,1,12.48,4h7C19.48,4.08,19.42,4.15,19.37,4.23ZM11,5.34a.39.39,0,0,0,.08.1c.11,1.36.29,6.74-3.65,9.77A8.59,8.59,0,0,1,4.9,16.52C8.42,13.57,9,9.11,9,7.16A6.92,6.92,0,0,0,11,5.34ZM4,14.66V7.75A4.92,4.92,0,0,0,4.81,8a5.24,5.24,0,0,0,1,.1A5.79,5.79,0,0,0,7,8,10.32,10.32,0,0,1,4,14.66Zm4.61,4.55a10.07,10.07,0,0,0-2-1.21,10.57,10.57,0,0,0,2-1.21c3.54-2.72,4.33-6.94,4.44-9.56a6,6,0,0,0,5.9,0c.11,2.62.9,6.84,4.44,9.56a10.57,10.57,0,0,0,2,1.21,10.07,10.07,0,0,0-2,1.21A12,12,0,0,0,19,28H13A12,12,0,0,0,8.61,19.21ZM11,28H9a12.16,12.16,0,0,0-4.09-8.55,8.53,8.53,0,0,1,2.53,1.34A10,10,0,0,1,11,28Zm13.64-7.21a8.53,8.53,0,0,1,2.53-1.34A12.16,12.16,0,0,0,23.05,28H21A10,10,0,0,1,24.61,20.79ZM28,4.28V5.47A4.09,4.09,0,0,1,26,6a4.13,4.13,0,0,1-3.52-2h5.24A.27.27,0,0,1,28,4.28ZM4.28,4H9.43A4.25,4.25,0,0,1,5.19,6,3.82,3.82,0,0,1,4,5.54V4.28A.27.27,0,0,1,4.28,4ZM4,27.72V21.34A10.22,10.22,0,0,1,6.94,28H4.28A.27.27,0,0,1,4,27.72ZM27.72,28H25.06A10.22,10.22,0,0,1,28,21.34v6.38A.27.27,0,0,1,27.72,28Z"/></g></svg>