<svg fill="currentColor" xmlns="http://www.w3.org/2000/svg" viewBox="0 0 32 32"><g id="ticket"><path d="M27.06,8H4.94A2.94,2.94,0,0,0,2,10.94V13a1,1,0,0,0,1,1,2,2,0,0,1,0,4,1,1,0,0,0-1,1v2.06A2.94,2.94,0,0,0,4.94,24H27.06A2.94,2.94,0,0,0,30,21.06V10.94A2.94,2.94,0,0,0,27.06,8ZM4,21.06V19.87a4,4,0,0,0,0-7.74V10.94A.94.94,0,0,1,4.94,10H19.16A2.38,2.38,0,0,0,19,11.11a2.75,2.75,0,0,0,.75,1.54c.18.21.24.29.24.35s-.05.12-.24.33a2.21,2.21,0,0,0,0,3.34c.19.21.24.28.24.33s-.05.11-.23.32A2.37,2.37,0,0,0,19,19a2.45,2.45,0,0,0,.71,1.66c.21.24.28.34.3.46a1.4,1.4,0,0,1-.44.89H4.94A.94.94,0,0,1,4,21.06Zm24,0a.94.94,0,0,1-.94.94H21.84A2.38,2.38,0,0,0,22,20.89a2.81,2.81,0,0,0-.75-1.54c-.18-.2-.24-.29-.24-.34s0-.11.24-.34a2.21,2.21,0,0,0,0-3.34c-.19-.21-.24-.28-.24-.33s.05-.12.24-.33A2.37,2.37,0,0,0,22,13a2.49,2.49,0,0,0-.71-1.65c-.21-.23-.28-.34-.3-.46a1.4,1.4,0,0,1,.44-.89h5.63a.94.94,0,0,1,.94.94Z"/><path d="M16,12H10a1,1,0,0,0,0,2h6a1,1,0,0,0,0-2Z"/><path d="M16,15H13a1,1,0,0,0,0,2h3a1,1,0,0,0,0-2Z"/><path d="M16,18H11a1,1,0,0,0,0,2h5a1,1,0,0,0,0-2Z"/></g></svg>