<svg fill="currentColor" xmlns="http://www.w3.org/2000/svg" viewBox="0 0 32 32"><g id="walk_of_fame" data-name="walk of fame"><path d="M30,13.33a1,1,0,0,0-.81-.68l-8.46-1.23L16.9,3.75a1,1,0,0,0-1.8,0l-3.78,7.67L2.86,12.65a1,1,0,0,0-.56,1.7l6.13,6L7,28.75a1,1,0,0,0,.4,1,1,1,0,0,0,1,.07l7.57-4,7.57,4a1,1,0,0,0,.46.12,1,1,0,0,0,.59-.19,1,1,0,0,0,.4-1l-1.45-8.43,6.13-6A1,1,0,0,0,30,13.33ZM21.8,19.26a1,1,0,0,0-.29.88l1.2,7-6.24-3.28a1.06,1.06,0,0,0-.94,0L9.29,27.09l1.2-6.95a1,1,0,0,0-.29-.88l-5-4.93,7-1a1,1,0,0,0,.75-.55L16,6.45l3.12,6.32a1,1,0,0,0,.75.55l7,1Z"/><path d="M16,13a5,5,0,1,0,5,5A5,5,0,0,0,16,13Zm0,8a3,3,0,1,1,3-3A3,3,0,0,1,16,21Z"/></g></svg>