<?xml version="1.0" encoding="UTF-8"?><svg fill="currentColor" xmlns="http://www.w3.org/2000/svg" viewBox="0 0 24 24"><g id="t"><g><path d="M6,14.25c-2.07,0-3.75,1.68-3.75,3.75s1.68,3.75,3.75,3.75,3.75-1.68,3.75-3.75-1.68-3.75-3.75-3.75Zm0,6c-1.24,0-2.25-1.01-2.25-2.25s1.01-2.25,2.25-2.25,2.25,1.01,2.25,2.25-1.01,2.25-2.25,2.25Z"/><path d="M18,14.25c-2.07,0-3.75,1.68-3.75,3.75s1.68,3.75,3.75,3.75,3.75-1.68,3.75-3.75-1.68-3.75-3.75-3.75Zm0,6c-1.24,0-2.25-1.01-2.25-2.25s1.01-2.25,2.25-2.25,2.25,1.01,2.25,2.25-1.01,2.25-2.25,2.25Z"/><path d="M14.07,10.9c.31,.52,.89,.85,1.5,.85h2.43c.41,0,.75-.34,.75-.75s-.34-.75-.75-.75h-2.43c-.09,0-.17-.05-.21-.12l-1.98-3.31c-.29-.48-.8-.8-1.37-.84-.56-.04-1.12,.19-1.48,.62l-3.16,3.79c-.37,.44-.5,1.04-.34,1.6,.16,.56,.58,1,1.13,1.18l3.77,1.26c.12,.04,.19,.16,.17,.29l-.83,4.13c-.08,.41,.18,.8,.59,.88,.05,.01,.1,.01,.15,.01,.35,0,.66-.25,.73-.6l.83-4.13c.17-.86-.33-1.73-1.16-2l-.8-.27,2.47-1.85h0Zm-4.2,1.27l-1.24-.41c-.11-.04-.15-.12-.16-.17-.01-.05-.03-.14,.05-.23l3.16-3.79c.07-.09,.16-.09,.21-.09,.05,0,.14,.02,.2,.12l1.2,2.01-3.42,2.57Z"/><path d="M17,7.75c1.52,0,2.75-1.23,2.75-2.75s-1.23-2.75-2.75-2.75-2.75,1.23-2.75,2.75,1.23,2.75,2.75,2.75Zm0-4c.69,0,1.25,.56,1.25,1.25s-.56,1.25-1.25,1.25-1.25-.56-1.25-1.25,.56-1.25,1.25-1.25Z"/></g></g></svg>