<?xml version="1.0" encoding="UTF-8"?><svg fill="currentColor" xmlns="http://www.w3.org/2000/svg" viewBox="0 0 24 24"><g id="p"><path d="M19,18.25h-1.25v-2.25c0-.41-.34-.75-.75-.75h-2.25v-2.25c0-1.25-.85-2.3-2-2.63v-1.62c1.09-.04,2.04-.7,2.45-1.72l.99-2.49c.19-.48,.65-.79,1.16-.79h1.65c.41,0,.75-.34,.75-.75s-.34-.75-.75-.75h-1.65c-.86,0-1.64,.39-2.15,1.04-.07-.02-.13-.04-.2-.04h-6c-.07,0-.14,.02-.2,.04-.51-.65-1.29-1.04-2.15-1.04h-1.65c-.41,0-.75,.34-.75,.75s.34,.75,.75,.75h1.65c.51,0,.97,.31,1.16,.79l.99,2.49c.41,1.02,1.36,1.68,2.45,1.72v1.62c-1.15,.33-2,1.38-2,2.63v2.25h-1.5v-3.25c0-.41-.34-.75-.75-.75h-2c-.41,0-.75,.34-.75,.75s.34,.75,.75,.75h1.25v3.25c0,.41,.34,.75,.75,.75h2.25v2.25c0,1.52,1.23,2.75,2.75,2.75s2.75-1.23,2.75-2.75v-2.25h1.5v2.25c0,.41,.34,.75,.75,.75h2c.41,0,.75-.34,.75-.75s-.34-.75-.75-.75ZM10.19,6.46l-.69-1.71h4.98l-.69,1.71c-.19,.48-.65,.79-1.16,.79h-1.29c-.51,0-.97-.31-1.16-.79Zm3.06,12.54c0,.69-.56,1.25-1.25,1.25s-1.25-.56-1.25-1.25v-6c0-.69,.56-1.25,1.25-1.25s1.25,.56,1.25,1.25v6Z"/></g></svg>