<?xml version="1.0" encoding="UTF-8"?><svg fill="currentColor" xmlns="http://www.w3.org/2000/svg" viewBox="0 0 24 24"><g id="i"><path d="M16.15,2.25h-7.15c-.41,0-.75,.34-.75,.75s.34,.75,.75,.75h.25v1.5h-1.25c-.96,0-1.75,.79-1.75,1.75v1c0,.7,.41,1.29,1,1.57v10.43c0,.96,.79,1.75,1.75,1.75h5c.96,0,1.75-.79,1.75-1.75V9.57c.59-.28,1-.88,1-1.57v-.54l.56-.28c.89-.44,1.44-1.34,1.44-2.33,0-1.44-1.17-2.6-2.6-2.6Zm-5.4,1.5h1.5v1.5h-1.5v-1.5Zm-3,3.25c0-.14,.11-.25,.25-.25h7c.14,0,.25,.11,.25,.25v1c0,.14-.11,.25-.25,.25h-7c-.14,0-.25-.11-.25-.25v-1Zm6.5,13c0,.14-.11,.25-.25,.25h-5c-.14,0-.25-.11-.25-.25V9.75h5.5v10.25Zm2.39-14.16l-.24,.12c-.32-.43-.83-.71-1.4-.71h-1.25v-1.5h2.4c.61,0,1.1,.5,1.1,1.1,0,.42-.23,.8-.61,.99Z"/></g></svg>