<?xml version="1.0" encoding="UTF-8"?><svg fill="currentColor" xmlns="http://www.w3.org/2000/svg" viewBox="0 0 24 24"><g id="h"><g><path d="M9.17,18.14c.71-.71,1.1-1.65,1.1-2.65,0-.75-.22-1.46-.62-2.07l1.65-1.65s.05-.08,.07-.12c.02-.03,.05-.04,.07-.07,.01-.02,.01-.05,.02-.07,.01-.04,.02-.07,.03-.11,.02-.08,.02-.15,.01-.23,0-.02,0-.04,0-.07l-1.11-5.57,1.01,.51c-.08,.31-.14,.63-.14,.97,0,1,.39,1.94,1.1,2.65s1.65,1.1,2.65,1.1,1.94-.39,2.65-1.1,1.1-1.65,1.1-2.65-.39-1.94-1.1-2.65c-1.42-1.42-3.89-1.42-5.3,0-.11,.11-.19,.23-.28,.35L7.5,2.41c-.67-.34-1.49-.21-2.02,.33l-.9,.91c-.29,.29-.29,.77,0,1.06,.29,.29,.77,.29,1.06,0l.9-.9c.08-.08,.19-.1,.29-.05l1.86,.93,1.04,5.21-3.36-1.68c.27-.29,.26-.74-.02-1.03s-.77-.29-1.06,0l-2.12,2.12c-.29,.29-.29,.77,0,1.06,.15,.15,.34,.22,.53,.22s.38-.07,.53-.22l1.03-1.03,4.24,2.12-.91,.91c-1.44-.92-3.48-.76-4.71,.47-.71,.71-1.1,1.65-1.1,2.65s.39,1.94,1.1,2.65,1.65,1.1,2.65,1.1,1.94-.39,2.65-1.1ZM15,4.75c.6,0,1.17,.23,1.59,.66s.66,.99,.66,1.59-.23,1.17-.66,1.59c-.85,.85-2.33,.85-3.18,0-.42-.42-.66-.99-.66-1.59,0-.09,.02-.18,.03-.27l1.89,.94c.11,.05,.22,.08,.33,.08,.28,0,.54-.15,.67-.42,.19-.37,.04-.82-.34-1.01l-1.89-.95c.42-.41,.97-.63,1.56-.63ZM4.26,15.49c0-.6,.23-1.17,.66-1.59s.99-.66,1.59-.66c.34,0,.67,.08,.96,.23l-1.49,1.49c-.29,.29-.29,.77,0,1.06,.15,.15,.34,.22,.53,.22s.38-.07,.53-.22l1.49-1.49c.14,.3,.23,.62,.23,.96,0,.6-.23,1.17-.66,1.59-.85,.85-2.33,.85-3.18,0-.42-.42-.66-.99-.66-1.59Z"/><path d="M20.67,9.8c-.68-.27-1.44-.1-1.95,.43-.07,.08-.15,.15-.22,.21-.67,.6-1.4,.86-2.16,1.13-1.01,.36-2.16,.76-2.97,2.03-.42,.66-.49,1.16-.55,1.59-.06,.4-.11,.78-.47,1.45-.81,1.48-2.04,2.33-2.71,2.7-1.5,.84-3.63,.9-3.65,.9-.41,.01-.74,.35-.73,.76,0,.41,.34,.74,.75,.74h14c.96,0,1.75-.79,1.75-1.75V11.4c0-.72-.41-1.34-1.08-1.61Zm-.42,10.2c0,.14-.11,.25-.25,.25H11.02c.82-.56,1.88-1.49,2.64-2.89,.49-.91,.58-1.49,.64-1.96,.05-.38,.08-.61,.33-.99,.53-.83,1.27-1.09,2.2-1.42,.83-.29,1.78-.62,2.67-1.42,.1-.09,.21-.19,.31-.3,.12-.13,.26-.1,.31-.08,.14,.05,.14,.17,.14,.21v8.6Z"/></g></g></svg>