<?xml version="1.0" encoding="UTF-8"?><svg fill="currentColor" xmlns="http://www.w3.org/2000/svg" viewBox="0 0 24 24"><g id="d"><path d="M20.62,6.42l-4.26-1.57c-.9-.34-1.91,.13-2.25,1.03l-1.92,5.19-.16,.42-.22-.61-1.92-5.19c-.16-.44-.48-.79-.91-.98s-.9-.21-1.34-.05l-4.26,1.57c-.91,.33-1.37,1.34-1.04,2.25l1.57,4.26c.26,.71,.93,1.14,1.64,1.14,.2,0,.41-.03,.6-.11l4.49-1.66,.57,1.55-1.88,5.08c-.14,.39,.06,.82,.44,.96,.09,.03,.17,.05,.26,.05,.31,0,.59-.19,.7-.49l1.27-3.43,1.2,3.25c.11,.3,.4,.49,.7,.49,.09,0,.17-.01,.26-.05,.39-.14,.59-.57,.44-.96l-1.81-4.89,.5-1.36,4.49,1.66c.2,.07,.4,.11,.6,.11,.71,0,1.38-.44,1.64-1.14l1.57-4.26c.33-.91-.13-1.91-1.04-2.25Zm-12.45-.35s.06-.02,.09-.02c.05,0,.08,.01,.1,.02,.04,.02,.1,.06,.13,.14l.53,1.42-1.66,.61-.61-1.66,1.42-.53Zm-4.26,1.57l1.42-.53,.61,1.66-1.66,.61-.53-1.42c-.05-.13,.02-.27,.15-.32Zm1.75,4.73c-.13,.04-.27-.02-.32-.15l-.53-1.42,1.66-.61,.61,1.66-1.42,.53Zm2.83-1.05l-.61-1.66,1.66-.61,.61,1.66-1.66,.61Zm11.76-3.17l-.53,1.42-1.66-.61,.61-1.66,1.42,.53c.13,.05,.2,.19,.15,.32Zm-4.4-1.89l1.42,.53-.61,1.66-1.66-.61,.53-1.42c.05-.13,.2-.19,.32-.15Zm-1.37,2.98l1.66,.61-.61,1.66-1.66-.61,.61-1.66Zm4.07,3.31s-.11,.04-.19,0l-1.42-.53,.61-1.66,1.66,.61-.53,1.42c-.03,.08-.1,.12-.13,.14Z"/></g></svg>