<?xml version="1.0" encoding="UTF-8"?><svg fill="currentColor" xmlns="http://www.w3.org/2000/svg" viewBox="0 0 24 24"><g id="f"><g><path d="M20.88,9.82l-.65-.65c-.68-.68-1.79-.68-2.47,0l-1.01,1.01V5c0-.96-.79-1.75-1.75-1.75h-1c-.14,0-.27,.02-.4,.05-.27-.62-.89-1.05-1.6-1.05h-1c-.71,0-1.33,.43-1.6,1.05-.13-.03-.26-.05-.4-.05h-1c-.71,0-1.33,.43-1.6,1.05-.13-.03-.26-.05-.4-.05h-1c-.96,0-1.75,.79-1.75,1.75V14.06c0,.73,.17,1.47,.5,2.12l.16,.31c.22,.45,.34,.95,.34,1.45v2.06c0,.96,.79,1.75,1.75,1.75H15c.96,0,1.75-.79,1.75-1.75v-1.55c0-.76,.27-1.5,.75-2.08l3.49-4.19c.58-.7,.54-1.71-.11-2.36Zm-5.88,10.43H6c-.14,0-.25-.11-.25-.25v-1.25H15.25v1.25c0,.14-.11,.25-.25,.25Zm4.84-9.03l-3.49,4.19c-.45,.54-.75,1.17-.93,1.84H5.69c-.07-.5-.22-.98-.44-1.43l-.16-.31c-.22-.45-.34-.95-.34-1.45V6c0-.14,.11-.25,.25-.25h1c.14,0,.25,.11,.25,.25v2c0,.41,.34,.75,.75,.75s.75-.34,.75-.75v-3c0-.14,.11-.25,.25-.25h1c.14,0,.25,.11,.25,.25v3c0,.41,.34,.75,.75,.75s.75-.34,.75-.75V4c0-.14,.11-.25,.25-.25h1c.14,0,.25,.11,.25,.25v4c0,.41,.34,.75,.75,.75s.75-.34,.75-.75v-3c0-.14,.11-.25,.25-.25h1c.14,0,.25,.11,.25,.25v7c0,.3,.18,.58,.46,.69,.28,.12,.6,.05,.82-.16l2.29-2.29c.1-.1,.26-.1,.35,0l.65,.65c.09,.09,.1,.24,.01,.34Z"/><path d="M13,12.25h-5c-.41,0-.75,.34-.75,.75s.34,.75,.75,.75h5c.41,0,.75-.34,.75-.75s-.34-.75-.75-.75Z"/></g></g></svg>