<?xml version="1.0" encoding="UTF-8"?><svg fill="currentColor" xmlns="http://www.w3.org/2000/svg" viewBox="0 0 24 24"><g id="r"><path d="M16.5,3.25c-1.87,0-3.56,.97-4.5,2.55-.95-1.56-2.67-2.55-4.5-2.55-2.17,0-4.99,2.31-5.25,5.18-.13,1.42,.43,2.74,2.15,5.02,1.83,2.43,4.01,4.67,6.5,6.65,.32,.25,.71,.38,1.1,.38s.78-.13,1.1-.38c1.22-.97,2.38-2.01,3.44-3.09,.29-.3,.29-.77,0-1.06-.29-.29-.77-.29-1.06,0-1.02,1.04-2.13,2.03-3.3,2.97-.09,.07-.24,.07-.33,0-1.97-1.57-3.73-3.31-5.27-5.17h1.43c.25,0,.49-.13,.62-.33l1.34-2.01,2.39,3.98c.14,.23,.38,.36,.64,.36h.03c.27-.01,.52-.17,.64-.41l1.33-2.66,.33,.66c.13,.25,.39,.41,.67,.41h3c.41,0,.75-.34,.75-.75s-.34-.75-.75-.75h-2.54l-.79-1.59c-.25-.51-1.09-.51-1.34,0l-1.39,2.78-2.3-3.83c-.13-.22-.37-.36-.63-.36-.26,0-.5,.12-.64,.33l-1.78,2.67h-2.22c-1.45-1.98-1.71-2.87-1.64-3.68,.18-2.02,2.25-3.82,3.75-3.82,1.41,0,2.73,.83,3.37,2.11,.22,.44,.65,.71,1.13,.71h0c.48,0,.91-.28,1.13-.72,.63-1.3,1.93-2.11,3.37-2.11s3.57,1.8,3.75,3.82c.04,.41-.01,.76-.16,1.19-.14,.39,.07,.82,.46,.96,.39,.13,.82-.07,.96-.46,.22-.62,.29-1.2,.24-1.82-.26-2.87-3.08-5.18-5.25-5.18Z"/></g></svg>