<?xml version="1.0" encoding="UTF-8"?><svg fill="currentColor" xmlns="http://www.w3.org/2000/svg" viewBox="0 0 24 24"><g id="o"><g><path d="M21.52,9.34c-.34-1.49-1-2.78-1.97-3.84-.45-.5-1.48-1.44-3.27-2.19-2.81-1.17-8.46-2.25-11.82,1.17-.3,.3-2.89,3.03-2.19,5.71,.1,.37,.24,.69,.39,1.02,.23,.51,.47,1.04,.59,1.89,.06,.41,.07,.83,.05,1.25-.04,.69,.32,1.32,.92,1.65,1.22,.67,2.2,1,2.98,1,.17,0,.32-.04,.47-.07l1.77,2.95c.55,.91,1.51,1.44,2.53,1.44,.31,0,.63-.05,.95-.15,1.07-.36,1.86-1.32,2-2.44l.71-5.71c.44-.51,.87-.99,1.65-1.31,.68-.28,1.47-.36,2.33-.24,.55,.08,1.11-.13,1.49-.54,.39-.43,.55-1.02,.42-1.58Zm-9.08,10.39c-.65,.22-1.36-.04-1.71-.63l-1.82-3.04c.16-.29,.24-.59,.29-.84,.07-.33,.12-.51,.28-.65,.19-.16,.43-.14,1.13,.03,.68,.16,1.53,.37,2.56,.12,.29-.07,.54-.16,.76-.27l-.51,4.07c-.07,.55-.46,1.03-.99,1.2Zm7.55-9.83s-.09,.09-.18,.07c-1.13-.15-2.17-.04-3.1,.34-1.15,.47-1.78,1.2-2.28,1.79-.5,.58-.86,1-1.61,1.18-.68,.16-1.28,.02-1.86-.12-.77-.18-1.64-.39-2.44,.27-.56,.47-.69,1.05-.78,1.48-.07,.3-.1,.43-.19,.5-.09,.07-.64,.35-2.6-.73h0c-.09-.05-.14-.15-.14-.25,.03-.51,0-1.03-.06-1.53-.15-1.06-.46-1.75-.71-2.31-.13-.29-.24-.53-.31-.78-.5-1.92,1.78-4.26,1.81-4.29,1.36-1.38,3.26-1.85,5.12-1.85,1.96,0,3.88,.52,5.06,1.01,1.58,.66,2.44,1.49,2.73,1.81,.79,.87,1.33,1.93,1.61,3.16,.03,.12-.04,.2-.06,.23Z"/><path d="M13,10.25h-2c-.41,0-.75,.34-.75,.75s.34,.75,.75,.75h2c.41,0,.75-.34,.75-.75s-.34-.75-.75-.75Z"/></g></g></svg>