<?xml version="1.0" encoding="UTF-8"?><svg fill="currentColor" xmlns="http://www.w3.org/2000/svg" viewBox="0 0 24 24"><g id="j"><path d="M20.28,7.57l-.53-.8v-1.77c0-.96-.79-1.75-1.75-1.75H6c-.96,0-1.75,.79-1.75,1.75v1.77l-.53,.8c-.96,1.44-1.47,3.12-1.47,4.85v6.58c0,.96,.79,1.75,1.75,1.75h5.22c.8,0,1.5-.54,1.7-1.33l1.08-4.33,1.08,4.33c.2,.78,.89,1.33,1.7,1.33h5.22c.96,0,1.75-.79,1.75-1.75v-6.58c0-1.73-.51-3.41-1.47-4.85Zm-2.03-2.57v1.25h-5.5v-1.5h5.25c.14,0,.25,.11,.25,.25Zm-12.5,0c0-.14,.11-.25,.25-.25h5.25v1.5H5.75v-1.25Zm14.5,14c0,.14-.11,.25-.25,.25h-5.22c-.11,0-.21-.08-.24-.19l-1.81-7.24c-.08-.33-.38-.57-.73-.57s-.64,.23-.73,.57l-1.81,7.24c-.03,.11-.13,.19-.24,.19H4c-.14,0-.25-.11-.25-.25v-6.58c0-1.44,.42-2.83,1.22-4.02l.43-.65h5.85v1.25c0,.41,.34,.75,.75,.75s.75-.34,.75-.75v-1.25h5.85l.43,.65c.8,1.2,1.22,2.58,1.22,4.02v6.58Z"/></g></svg>