<?xml version="1.0" encoding="UTF-8"?><svg fill="currentColor" xmlns="http://www.w3.org/2000/svg" viewBox="0 0 24 24"><g id="c"><path d="M18.75,10v-1c0-3.72-3.03-6.75-6.75-6.75s-6.75,3.03-6.75,6.75v1c0,.41,.34,.75,.75,.75h.26c0,.08-.01,.17-.01,.25,0,2.18,1.21,4.07,3,5.05v.95c0,.14-.11,.25-.25,.25h-1c-1.52,0-2.75,1.23-2.75,2.75v1c0,.41,.34,.75,.75,.75h12c.41,0,.75-.34,.75-.75v-1c0-1.52-1.23-2.75-2.75-2.75h-1c-.14,0-.25-.11-.25-.25v-.95c1.79-.98,3-2.87,3-5.05,0-.08,0-.17-.01-.25h.26c.41,0,.75-.34,.75-.75Zm-12-1c0-1.42,.58-2.72,1.5-3.66v.66c0,.41,.34,.75,.75,.75s.75-.34,.75-.75v-1.72c.47-.22,.97-.37,1.5-.45v3.17c0,.41,.34,.75,.75,.75s.75-.34,.75-.75V3.83c.53,.08,1.03,.23,1.5,.45v1.72c0,.41,.34,.75,.75,.75s.75-.34,.75-.75v-.66c.92,.95,1.5,2.24,1.5,3.66v.25H6.75v-.25Zm0,11c0-.69,.56-1.25,1.25-1.25h.63l1.13,1.5h-3v-.25Zm10.5,0v.25h-3l1.13-1.5h.63c.69,0,1.25,.56,1.25,1.25Zm-3.41-1.7l-1.46,1.95h-.75l-1.46-1.95c.36-.32,.59-.78,.59-1.3v-.39c.4,.09,.82,.14,1.25,.14s.85-.05,1.25-.14v.39c0,.52,.23,.98,.59,1.3Zm2.41-7.3c0,2.34-1.91,4.25-4.25,4.25s-4.25-1.91-4.25-4.25c0-.08,.02-.17,.02-.25h8.45c0,.08,.02,.17,.02,.25Z"/></g></svg>