<?xml version="1.0" encoding="UTF-8"?><svg fill="currentColor" xmlns="http://www.w3.org/2000/svg" viewBox="0 0 24 24"><g id="g"><g><path d="M20.65,3.35c-1.42-1.42-3.89-1.42-5.3,0l-3.57,3.56c-1.14,1.14-2.78,1.69-4.46,1.45-1.45-.21-2.94,.29-4.04,1.39-1.83,1.83-1.83,4.81,.04,6.68,.68,.68,1.79,.68,2.48,0l.71-.71c.47-.47,1.29-.47,1.77,0,.24,.24,.37,.55,.37,.88s-.13,.65-.37,.88l-.71,.71c-.68,.68-.68,1.79,.04,2.52,.9,.9,2.09,1.36,3.29,1.36s2.46-.48,3.43-1.44c1.05-1.05,1.54-2.55,1.32-4.01v-.03c-.24-1.61,.31-3.25,1.46-4.4l3.55-3.55c.71-.71,1.1-1.65,1.1-2.65s-.39-1.94-1.1-2.65Zm-1.06,4.24l-3.55,3.55c-1.49,1.49-2.19,3.62-1.88,5.7v.02c.15,.99-.19,2-.97,2.78-1.25,1.25-3.28,1.26-4.57-.03-.1-.1-.1-.26,0-.35l.71-.71c.52-.52,.81-1.21,.81-1.94s-.29-1.42-.81-1.94-1.21-.81-1.94-.81-1.43,.29-1.94,.81l-.71,.71c-.1,.1-.26,.1-.4-.04-1.24-1.24-1.24-3.27,.06-4.58,.71-.71,1.71-1.04,2.78-.89,2.07,.3,4.18-.41,5.66-1.89l3.57-3.56c.85-.85,2.33-.85,3.18,0,.42,.42,.66,.99,.66,1.59s-.23,1.17-.66,1.59Z"/><path d="M14.64,8.3l-3.54,3.54c-.29,.29-.29,.77,0,1.06,.15,.15,.34,.22,.53,.22s.38-.07,.53-.22l3.54-3.54c.29-.29,.29-.77,0-1.06s-.77-.29-1.06,0Z"/></g></g></svg>