<?xml version="1.0" encoding="UTF-8"?><svg fill="currentColor" xmlns="http://www.w3.org/2000/svg" viewBox="0 0 24 24"><g id="l"><path d="M18.1,9.26c-1.23-.17-2.17-.05-2.93,.06-.76,.1-1.3,.18-1.95-.03-.84-.27-1.6-.96-2.25-2.07-.2-.33-.52-.55-.9-.6-.39-.05-.76,.07-1.04,.34-.42,.4-.89,.69-1.42,.86-1.07,.34-2.06,.09-2.69-.19-.36-.16-.79-.13-1.13,.06-.35,.2-.57,.54-.61,.94l-.55,4.94c-.12,1.06,.22,2.12,.93,2.92,.71,.79,1.73,1.25,2.79,1.25h11.13c2.35,0,4.27-1.92,4.27-4.28,0-2.1-1.57-3.91-3.65-4.21ZM4.68,15.5c-.43-.48-.63-1.11-.56-1.75v-.02s.07,0,.1,0c1.18-.35,2.45-.04,3.24,.8,.53,.57,.72,1.23,.78,1.74h-1.89c-.65,0-1.24-.27-1.68-.75Zm12.81,.75h-7.74c-.06-.76-.32-1.84-1.19-2.76-1.08-1.14-2.67-1.62-4.25-1.32l.34-3.03c.86,.32,2.09,.55,3.44,.12,.65-.21,1.25-.55,1.78-1,.32,.5,.68,.92,1.05,1.28l-.57,1.13c-.19,.37-.04,.82,.34,1.01,.11,.05,.22,.08,.33,.08,.28,0,.54-.15,.67-.41l.45-.9c.21,.11,.43,.21,.65,.28,.09,.03,.17,.04,.26,.06l-.26,1.04c-.1,.4,.14,.81,.55,.91,.06,.02,.12,.02,.18,.02,.34,0,.64-.23,.73-.57l.32-1.29c.27-.02,.55-.05,.83-.09,.05,0,.1-.01,.16-.02l-.26,1.04c-.1,.4,.14,.81,.55,.91,.06,.02,.12,.02,.18,.02,.34,0,.64-.23,.73-.57l.38-1.51c.25,0,.51,.03,.79,.07,1.34,.2,2.36,1.37,2.36,2.74,0,1.53-1.24,2.77-2.77,2.77Z"/></g></svg>