<?xml version="1.0" encoding="UTF-8"?><svg fill="currentColor" xmlns="http://www.w3.org/2000/svg" viewBox="0 0 24 24"><g id="e"><g><path d="M20.89,9.91L14.09,3.12c-1.12-1.12-3.06-1.12-4.18,0L3.11,9.91c-1.15,1.15-1.15,3.02,0,4.18l6.8,6.8c.56,.56,1.3,.87,2.09,.87s1.53-.31,2.09-.87l6.8-6.8c1.15-1.15,1.15-3.02,0-4.18Zm-1.06,3.12l-6.8,6.8c-.57,.57-1.49,.57-2.05,0l-6.8-6.8c-.57-.57-.57-1.49,0-2.05l6.8-6.8c.28-.28,.66-.42,1.03-.42s.74,.14,1.03,.42l6.8,6.8c.57,.57,.57,1.49,0,2.05Z"/><path d="M13.5,11.25c-.41,0-.75-.34-.75-.75v-1.69l.72,.72c.15,.15,.34,.22,.53,.22s.38-.07,.53-.22c.29-.29,.29-.77,0-1.06l-2-2c-.07-.07-.15-.12-.24-.16-.18-.08-.39-.08-.57,0-.09,.04-.17,.09-.24,.16l-2,2c-.29,.29-.29,.77,0,1.06s.77,.29,1.06,0l.72-.72v1.69c0,1.24,1.01,2.25,2.25,2.25,.41,0,.75,.34,.75,.75s-.34,.75-.75,.75c-1.24,0-2.25,1.01-2.25,2.25v.5c0,.41,.34,.75,.75,.75s.75-.34,.75-.75v-.5c0-.41,.34-.75,.75-.75,1.24,0,2.25-1.01,2.25-2.25s-1.01-2.25-2.25-2.25Z"/></g></g></svg>