<?xml version="1.0" encoding="UTF-8"?><svg fill="currentColor" xmlns="http://www.w3.org/2000/svg" viewBox="0 0 24 24"><g id="q"><g><path d="M19.74,13.28l-.91-8.53h1.17c.41,0,.75-.34,.75-.75s-.34-.75-.75-.75h-4.38c-.67,0-1.27,.37-1.57,.97l-.72,1.45c-.19,.37-.04,.82,.34,1.01,.11,.05,.22,.08,.33,.08,.28,0,.54-.15,.67-.41l.72-1.45c.04-.08,.13-.14,.22-.14h1.71l.85,8.02-10.25-1.71c-.06-.01-.12-.01-.19-.02,0-.01,0-.03,0-.04v-2.25h1.25c.41,0,.75-.34,.75-.75s-.34-.75-.75-.75H5c-.41,0-.75,.34-.75,.75s.34,.75,.75,.75h1.25v2.25s.01,.05,.01,.07c-.83,.15-1.63,.51-2.29,1.08-1.1,.93-1.72,2.29-1.72,3.72,0,2.69,2.19,4.88,4.88,4.88h10.62c2.2,0,4-1.79,4-4,0-1.47-.79-2.78-2.01-3.47Zm-1.99,5.97H7.13c-1.86,0-3.38-1.52-3.38-3.38,0-.99,.44-1.93,1.19-2.58,.62-.52,1.39-.8,2.18-.8,.19,0,.37,.02,.56,.05l10.48,1.75c1.21,.2,2.09,1.24,2.09,2.46,0,1.38-1.12,2.5-2.5,2.5Z"/><path d="M10,15.25h-3c-.41,0-.75,.34-.75,.75s.34,.75,.75,.75h3c.41,0,.75-.34,.75-.75s-.34-.75-.75-.75Z"/></g></g></svg>