<?xml version="1.0" encoding="UTF-8"?><svg fill="currentColor" xmlns="http://www.w3.org/2000/svg" viewBox="0 0 24 24"><g id="s"><g><path d="M13,13.25h-2c-.96,0-1.75,.79-1.75,1.75v5c0,.96,.79,1.75,1.75,1.75h2c.96,0,1.75-.79,1.75-1.75v-5c0-.96-.79-1.75-1.75-1.75Zm.25,6.75c0,.14-.11,.25-.25,.25h-2c-.14,0-.25-.11-.25-.25v-5c0-.14,.11-.25,.25-.25h2c.14,0,.25,.11,.25,.25v5Z"/><path d="M6,15.25h-2c-.96,0-1.75,.79-1.75,1.75v3c0,.96,.79,1.75,1.75,1.75h2c.96,0,1.75-.79,1.75-1.75v-3c0-.96-.79-1.75-1.75-1.75Zm.25,4.75c0,.14-.11,.25-.25,.25h-2c-.14,0-.25-.11-.25-.25v-3c0-.14,.11-.25,.25-.25h2c.14,0,.25,.11,.25,.25v3Z"/><path d="M20,16.25h-2c-.96,0-1.75,.79-1.75,1.75v2c0,.96,.79,1.75,1.75,1.75h2c.96,0,1.75-.79,1.75-1.75v-2c0-.96-.79-1.75-1.75-1.75Zm.25,3.75c0,.14-.11,.25-.25,.25h-2c-.14,0-.25-.11-.25-.25v-2c0-.14,.11-.25,.25-.25h2c.14,0,.25,.11,.25,.25v2Z"/><path d="M14.81,8.12l1.72-1.67c.2-.2,.28-.5,.19-.77-.09-.27-.32-.47-.6-.51l-2.37-.35-1.06-2.15c-.25-.51-1.09-.51-1.34,0l-1.06,2.15-2.37,.35c-.28,.04-.52,.24-.61,.51-.09,.27-.01,.57,.19,.77l1.72,1.67-.41,2.36c-.05,.28,.07,.57,.3,.73,.23,.17,.54,.19,.79,.06l2.12-1.12,2.12,1.12c.11,.06,.23,.09,.35,.09,.16,0,.31-.05,.44-.14,.23-.17,.35-.45,.3-.73l-.41-2.36Zm-1.33-.8c-.18,.17-.26,.42-.22,.66l.21,1.26-1.13-.59c-.11-.06-.23-.09-.35-.09s-.24,.03-.35,.09l-1.13,.59,.22-1.25c.04-.24-.04-.49-.22-.66l-.91-.89,1.26-.18c.24-.04,.46-.19,.56-.41l.56-1.14,.56,1.14c.11,.22,.32,.37,.56,.41l1.26,.18-.91,.89Z"/></g></g></svg>