<?xml version="1.0" encoding="UTF-8"?><svg fill="currentColor" xmlns="http://www.w3.org/2000/svg" viewBox="0 0 24 24"><g id="b"><g><path d="M12,2.25C6.62,2.25,2.25,6.62,2.25,12s4.37,9.75,9.75,9.75,9.75-4.37,9.75-9.75S17.38,2.25,12,2.25Zm0,18c-4.55,0-8.25-3.7-8.25-8.25S7.45,3.75,12,3.75s8.25,3.7,8.25,8.25-3.7,8.25-8.25,8.25Z"/><path d="M12,5.25c-3.72,0-6.75,3.03-6.75,6.75s3.03,6.75,6.75,6.75,6.75-3.03,6.75-6.75-3.03-6.75-6.75-6.75Zm5.17,6h-3.36l2.38-2.38c.51,.69,.86,1.49,.98,2.38Zm-4.42-4.42c.89,.13,1.69,.47,2.38,.98l-2.38,2.38v-3.36Zm-1.5,3.36l-2.38-2.38c.69-.51,1.49-.86,2.38-.98v3.36Zm0,6.98c-.89-.13-1.69-.47-2.38-.98l2.38-2.38v3.36Zm1.5-3.36l2.38,2.38c-.69,.51-1.49,.86-2.38,.98v-3.36Zm-4.94-4.94l2.38,2.38h-3.36c.13-.89,.47-1.69,.98-2.38Zm-.98,3.88h3.36l-2.38,2.38c-.51-.69-.86-1.49-.98-2.38Zm9.36,2.38l-2.38-2.38h3.36c-.13,.89-.47,1.69-.98,2.38Z"/></g></g></svg>