<?xml version="1.0" encoding="UTF-8"?><svg fill="currentColor" xmlns="http://www.w3.org/2000/svg" viewBox="0 0 24 24"><g id="k"><g><path d="M21.64,10.61l-1.83-3.06c-.85-1.42-2.4-2.3-4.06-2.31v-1.25c0-.96-.79-1.75-1.75-1.75h-4c-.96,0-1.75,.79-1.75,1.75v1.25c-1.65,0-3.21,.89-4.06,2.31l-1.83,3.06c-.15,.25-.14,.56,.02,.8l2,3c.12,.19,.33,.31,.55,.33,.22,.03,.45-.06,.6-.22l.72-.72v6.19c0,.96,.79,1.75,1.75,1.75h8c.96,0,1.75-.79,1.75-1.75v-6.19l.72,.72c.16,.16,.38,.24,.6,.22,.22-.02,.43-.14,.55-.33l2-3c.16-.24,.17-.55,.02-.8Zm-7.39-6.61v1.25h-1.5v-1.5h1.25c.14,0,.25,.11,.25,.25Zm-4.5,0c0-.14,.11-.25,.25-.25h1.25v1.5h-1.5v-1.25Zm9.13,8.82l-1.35-1.35c-.21-.21-.54-.28-.82-.16-.28,.12-.46,.39-.46,.69v8c0,.14-.11,.25-.25,.25H8c-.14,0-.25-.11-.25-.25V12c0-.3-.18-.58-.46-.69-.09-.04-.19-.06-.29-.06-.19,0-.39,.08-.53,.22l-1.35,1.35-1.23-1.84,1.59-2.65c.58-.97,1.65-1.58,2.79-1.58h2.99v7.25c0,.41,.34,.75,.75,.75s.75-.34,.75-.75V6.75h2.99c1.14,0,2.2,.6,2.79,1.58l1.59,2.65-1.23,1.84Z"/><path d="M12,16.25c-.41,0-.75,.34-.75,.75v1c0,.41,.34,.75,.75,.75s.75-.34,.75-.75v-1c0-.41-.34-.75-.75-.75Z"/></g></g></svg>