<?xml version="1.0" encoding="UTF-8"?><svg fill="currentColor" xmlns="http://www.w3.org/2000/svg" viewBox="0 0 24 24"><g id="m"><g><path d="M5,10.75c.21,0,.42-.09,.56-.25,.75-.84,1.38-1.78,1.86-2.79,.18-.38,.35-.78,.49-1.18,.34-.98,.19-2.08-.41-2.94-.58-.83-1.47-1.31-2.54-1.32-.98,.01-1.88,.49-2.46,1.32-.6,.86-.75,1.96-.41,2.94h0c.14,.4,.31,.8,.49,1.18,.49,1.01,1.11,1.95,1.86,2.79,.14,.16,.34,.25,.56,.25Zm-1.5-4.72c-.18-.52-.1-1.11,.22-1.58,.3-.43,.75-.67,1.3-.68,.49,0,.95,.25,1.25,.68,.33,.46,.41,1.05,.22,1.58-.12,.33-.26,.67-.43,1.03-.3,.62-.65,1.21-1.07,1.76-.41-.55-.77-1.14-1.07-1.76-.17-.36-.31-.7-.43-1.03Z"/><path d="M19.75,17.28v-.53h.25c.41,0,.75-.34,.75-.75s-.34-.75-.75-.75h-2c-.41,0-.75,.34-.75,.75s.34,.75,.75,.75h.25v.88c-.14,.09-.27,.21-.38,.33l-3.42-2.56s-.02,0-.02-.01l.11-.45c.03-.11,.13-.19,.24-.19,.41,0,.75-.34,.75-.75s-.34-.75-.75-.75c-.8,0-1.5,.54-1.7,1.33l-.67,2.68c-1.2,.05-2.16,1.03-2.16,2.24s1.01,2.25,2.25,2.25,2.25-1.01,2.25-2.25c0-.73-.36-1.38-.9-1.79l.19-.75,3.23,2.42s-.01,.08-.01,.12c0,1.24,1.01,2.25,2.25,2.25s2.25-1.01,2.25-2.25c0-1.16-.88-2.1-2-2.22Zm-7.25,2.97c-.41,0-.75-.34-.75-.75s.34-.75,.75-.75,.75,.34,.75,.75-.34,.75-.75,.75Zm7,0c-.41,0-.75-.34-.75-.75s.34-.75,.75-.75,.75,.34,.75,.75-.34,.75-.75,.75Z"/><path d="M8,17.25h-2.19c-.58,0-1.06-.47-1.06-1.06,0-.42,.25-.81,.64-.97l11.81-5.06c.94-.4,1.55-1.33,1.55-2.35,0-1.41-1.15-2.56-2.56-2.56h-5.19c-.41,0-.75,.34-.75,.75s.34,.75,.75,.75h5.19c.58,0,1.06,.47,1.06,1.06,0,.42-.25,.81-.64,.97L4.8,13.84c-.94,.4-1.55,1.33-1.55,2.35,0,1.41,1.15,2.56,2.56,2.56h2.19c.41,0,.75-.34,.75-.75s-.34-.75-.75-.75Z"/></g></g></svg>