<?xml version="1.0" encoding="UTF-8"?><svg fill="currentColor" xmlns="http://www.w3.org/2000/svg" viewBox="0 0 24 24"><g id="r"><g><path d="M4,16.75H20c.22,0,.43-.1,.58-.27,.14-.17,.2-.4,.16-.61l-1.55-8.54c-.33-1.78-1.88-3.08-3.69-3.08h-6.99c-1.81,0-3.37,1.29-3.69,3.08l-1.55,8.54c-.04,.22,.02,.44,.16,.61,.14,.17,.35,.27,.58,.27Zm7.25-7.75c0-.41,.34-.75,.75-.75s.75,.34,.75,.75v3c0,.41-.34,.75-.75,.75s-.75-.34-.75-.75v-3Z"/><path d="M21.73,17.44c-.43,.51-1.06,.81-1.73,.81H4c-.67,0-1.3-.29-1.73-.81,0-.01-.01-.02-.02-.03v.59c0,.96,.79,1.75,1.75,1.75H20c.96,0,1.75-.79,1.75-1.75v-.59s-.01,.02-.02,.04Z"/></g></g></svg>