<?xml version="1.0" encoding="UTF-8"?><svg fill="currentColor" xmlns="http://www.w3.org/2000/svg" viewBox="0 0 24 24"><g id="h"><g><path d="M18,2.25H6c-1.81,0-3.33,1.29-3.67,3H21.67c-.35-1.71-1.86-3-3.67-3Z"/><circle cx="7.5" cy="16.5" r=".75"/><circle cx="12" cy="10.5" r=".75"/><path d="M2.25,6.75v11.25c0,2.07,1.68,3.75,3.75,3.75h12c2.07,0,3.75-1.68,3.75-3.75V6.75H2.25Zm14,2.25c0-.41,.34-.75,.75-.75s.75,.34,.75,.75v3c0,.41-.34,.75-.75,.75s-.75-.34-.75-.75v-3Zm-10,0c0-.41,.34-.75,.75-.75s.75,.34,.75,.75v3c0,.41-.34,.75-.75,.75s-.75-.34-.75-.75v-3Zm1.25,9.75c-1.24,0-2.25-1.01-2.25-2.25s1.01-2.25,2.25-2.25,2.25,1.01,2.25,2.25-1.01,2.25-2.25,2.25Zm5.25-.75c0,.41-.34,.75-.75,.75s-.75-.34-.75-.75v-3c0-.41,.34-.75,.75-.75s.75,.34,.75,.75v3Zm-.75-5.25c-1.24,0-2.25-1.01-2.25-2.25s1.01-2.25,2.25-2.25,2.25,1.01,2.25,2.25-1.01,2.25-2.25,2.25Zm4.5,6c-1.24,0-2.25-1.01-2.25-2.25s1.01-2.25,2.25-2.25,2.25,1.01,2.25,2.25-1.01,2.25-2.25,2.25Z"/><circle cx="16.5" cy="16.5" r=".75"/></g></g></svg>