<?xml version="1.0" encoding="UTF-8"?><svg fill="currentColor" xmlns="http://www.w3.org/2000/svg" viewBox="0 0 24 24"><g id="e"><g><path d="M12.73,9.38c-.12-.08-.27-.13-.42-.13H5.68c-.15,0-.29,.04-.42,.13-1.89,1.26-3.02,3.36-3.02,5.63,0,3.72,3.03,6.75,6.75,6.75s6.75-3.03,6.75-6.75c0-2.27-1.13-4.37-3.02-5.63Z"/><path d="M21,6.25h-1c-.41,0-.75,.34-.75,.75s.34,.75,.75,.75h1c.41,0,.75-.34,.75-.75s-.34-.75-.75-.75Z"/><path d="M19,5.75c.19,0,.38-.07,.53-.22l.71-.71c.29-.29,.29-.77,0-1.06s-.77-.29-1.06,0l-.71,.71c-.29,.29-.29,.77,0,1.06,.15,.15,.34,.22,.53,.22Z"/><path d="M19.53,8.47c-.29-.29-.77-.29-1.06,0s-.29,.77,0,1.06l.71,.71c.15,.15,.34,.22,.53,.22s.38-.07,.53-.22c.29-.29,.29-.77,0-1.06l-.71-.71Z"/><path d="M17,6.25h-.5c-.41,0-.75-.34-.75-.75,0-1.24-1.01-2.25-2.25-2.25h-3c-1.24,0-2.25,1.01-2.25,2.25v.75h-2.25c-.96,0-1.75,.79-1.75,1.75v.27c.06-.05,.12-.1,.19-.14,.38-.25,.8-.38,1.25-.38h6.63c.44,0,.87,.13,1.24,.37,.07,.04,.13,.1,.19,.15v-.27c0-.96-.79-1.75-1.75-1.75h-2.25v-.75c0-.41,.34-.75,.75-.75h3c.41,0,.75,.34,.75,.75,0,1.24,1.01,2.25,2.25,2.25h.5c.41,0,.75-.34,.75-.75s-.34-.75-.75-.75Z"/></g></g></svg>