<?xml version="1.0" encoding="UTF-8"?><svg fill="currentColor" xmlns="http://www.w3.org/2000/svg" viewBox="0 0 24 24"><g id="s"><g><path d="M18.97,9.32c-.17-.44-.5-.78-.93-.97l-8.23-3.64c-.43-.19-.9-.2-1.34-.03-.44,.17-.78,.5-.97,.92l-1.62,3.66c-.19,.43-.2,.9-.03,1.34,.17,.44,.5,.78,.92,.97l3.29,1.45-1.11,1.66c-.23,.35-.62,.56-1.04,.56H3.75v-6.25c0-.41-.34-.75-.75-.75s-.75,.34-.75,.75v10c0,.41,.34,.75,.75,.75s.75-.34,.75-.75v-2.25H7.93c.92,0,1.78-.46,2.29-1.22l1.25-1.88,3.55,1.57c.23,.1,.47,.15,.7,.15,.67,0,1.31-.39,1.6-1.04l1.62-3.66c.19-.43,.2-.9,.03-1.34Z"/><path d="M21.31,11.45c-.15-.39-.43-.69-.79-.89-.05,.24-.11,.48-.21,.71l-1.61,3.66c-.1,.23-.24,.44-.38,.63,.18,.06,.37,.1,.56,.1,.21,0,.43-.04,.63-.12,.44-.17,.78-.5,.97-.92l.81-1.83c.19-.43,.2-.9,.03-1.34Z"/></g></g></svg>