<?xml version="1.0" encoding="UTF-8"?><svg fill="currentColor" xmlns="http://www.w3.org/2000/svg" viewBox="0 0 24 24"><g id="t"><path d="M17,2.25H7c-2.62,0-4.75,2.13-4.75,4.75v10c0,2.62,2.13,4.75,4.75,4.75h10c2.62,0,4.75-2.13,4.75-4.75V7c0-2.62-2.13-4.75-4.75-4.75ZM7.75,17c0,.41-.34,.75-.75,.75s-.75-.34-.75-.75v-6c0-.41,.34-.75,.75-.75s.75,.34,.75,.75v6Zm5,1c0,.41-.34,.75-.75,.75s-.75-.34-.75-.75v-1c0-.41,.34-.75,.75-.75s.75,.34,.75,.75v1Zm0-4c0,.41-.34,.75-.75,.75s-.75-.34-.75-.75v-2c0-.41,.34-.75,.75-.75s.75,.34,.75,.75v2Zm.75-3.68c-.41-.37-.95-.57-1.5-.57-1.24,0-2.25,1.01-2.25,2.25v4c0,.41-.34,.75-.75,.75s-.75-.34-.75-.75v-4c0-2.07,1.68-3.75,3.75-3.75,.92,0,1.81,.34,2.5,.96,.31,.28,.33,.75,.06,1.06-.28,.31-.75,.34-1.06,.06Zm2.25,5.68c0,.41-.34,.75-.75,.75s-.75-.34-.75-.75v-3c0-.41,.34-.75,.75-.75s.75,.34,.75,.75v3Zm2,1c0,.41-.34,.75-.75,.75s-.75-.34-.75-.75v-6c0-2.34-1.91-4.25-4.25-4.25-1.35,0-2.59,.62-3.4,1.7-.25,.33-.72,.4-1.05,.15-.33-.25-.4-.72-.15-1.05,1.1-1.46,2.77-2.3,4.6-2.3,3.17,0,5.75,2.58,5.75,5.75v6Z"/></g></svg>