<?xml version="1.0" encoding="UTF-8"?><svg fill="currentColor" xmlns="http://www.w3.org/2000/svg" viewBox="0 0 24 24"><g id="n"><g><rect x="9.75" y="12.75" width="4.5" height="2.5"/><rect x="2.25" y="8.75" width="3" height="2.5"/><rect x="9.75" y="3.25" width="4.5" height="4"/><rect x="12.75" y="8.75" width="4.5" height="2.5"/><rect x="2.25" y="12.75" width="6" height="2.5"/><rect x="6.75" y="8.75" width="4.5" height="2.5"/><rect x="18.75" y="8.75" width="3" height="2.5"/><path d="M8.25,3.25h-3.25c-1.52,0-2.75,1.23-2.75,2.75v1.25h6V3.25Z"/><path d="M19,3.25h-3.25V7.25h6v-1.25c0-1.52-1.23-2.75-2.75-2.75Z"/><path d="M2.25,18c0,1.52,1.23,2.75,2.75,2.75h.25v-4H2.25v1.25Z"/><path d="M18.75,20.75h.25c1.52,0,2.75-1.23,2.75-2.75v-1.25h-3v4Z"/><rect x="12.75" y="16.75" width="4.5" height="4"/><rect x="6.75" y="16.75" width="4.5" height="4"/><rect x="15.75" y="12.75" width="6" height="2.5"/></g></g></svg>