<?xml version="1.0" encoding="UTF-8"?><svg fill="currentColor" xmlns="http://www.w3.org/2000/svg" viewBox="0 0 24 24"><g id="b"><g><path d="M9,17.25H5c-.41,0-.75,.34-.75,.75v1c0,1.52,1.23,2.75,2.75,2.75s2.75-1.23,2.75-2.75v-1c0-.41-.34-.75-.75-.75Z"/><path d="M7,2.25c-1.52,0-2.87,.91-3.44,2.33-.87,2.18-1,4.62-.35,6.88l1.07,3.75c.09,.32,.39,.54,.72,.54h4c.33,0,.63-.22,.72-.54l1.07-3.75c.65-2.26,.52-4.7-.35-6.88-.57-1.42-1.92-2.33-3.44-2.33Z"/><path d="M19,17.25h-4c-.41,0-.75,.34-.75,.75v1c0,1.52,1.23,2.75,2.75,2.75s2.75-1.23,2.75-2.75v-1c0-.41-.34-.75-.75-.75Z"/><path d="M20.44,4.58c-.57-1.42-1.92-2.33-3.44-2.33s-2.87,.91-3.44,2.33c-.87,2.18-1,4.62-.35,6.88l1.07,3.75c.09,.32,.39,.54,.72,.54h4c.33,0,.63-.22,.72-.54l1.07-3.75c.65-2.26,.52-4.7-.35-6.88Z"/></g></g></svg>