<?xml version="1.0" encoding="UTF-8"?><svg fill="currentColor" xmlns="http://www.w3.org/2000/svg" viewBox="0 0 24 24"><g id="d"><g><circle cx="12" cy="16" r="1.25"/><path d="M12,11.75c-1.05,0-2.05,.45-2.75,1.24-.7,.79-1.02,1.84-.89,2.88l.55,4.37c.97,.33,2.01,.51,3.09,.51s2.12-.18,3.09-.51l.55-4.37c.13-1.04-.19-2.09-.89-2.88-.7-.79-1.7-1.24-2.75-1.24Zm0,7c-1.52,0-2.75-1.23-2.75-2.75s1.23-2.75,2.75-2.75,2.75,1.23,2.75,2.75-1.23,2.75-2.75,2.75Z"/><path d="M20.25,6.28v-.03H3.75v.03c-.2,.05-.39,.18-.49,.38-.67,1.35-1.01,2.81-1.01,4.33,0,3.68,2.05,6.88,5.06,8.54l-.44-3.49c-.18-1.47,.27-2.95,1.25-4.06,.98-1.11,2.39-1.75,3.87-1.75s2.89,.64,3.87,1.75c.98,1.11,1.44,2.59,1.25,4.06l-.44,3.49c3.01-1.66,5.06-4.87,5.06-8.54,0-1.52-.34-2.98-1.01-4.33-.1-.2-.28-.33-.49-.38Z"/><path d="M20,2.25H4c-.96,0-1.75,.79-1.75,1.75v.78l1.5-.03H21.75v-.75c0-.96-.79-1.75-1.75-1.75Z"/></g></g></svg>