<?xml version="1.0" encoding="UTF-8"?><svg fill="currentColor" xmlns="http://www.w3.org/2000/svg" viewBox="0 0 24 24"><g id="q"><g><path d="M20.61,7.23l-.6-2.98c-.11-.53-.45-.98-.93-1.23-.47-.24-1.01-.25-1.49-.03-.25,.12-.52,.21-.78,.28-1.68,.44-3.2-.2-3.96-.63-.53-.3-1.18-.3-1.71,0-.75,.42-2.27,1.07-3.96,.63-.27-.07-.53-.17-.78-.28-.47-.22-1.02-.21-1.49,.03-.49,.25-.83,.69-.93,1.23l-.6,2.98c-.75,3.73,.56,7.62,3.4,10.14l4.05,3.6c.33,.29,.75,.44,1.16,.44s.83-.15,1.16-.44l4.05-3.6c2.84-2.53,4.15-6.41,3.4-10.14Zm-7.86,5.4v2.37c0,.41-.34,.75-.75,.75s-.75-.34-.75-.75v-2.37c-1.15-.33-2-1.38-2-2.63,0-1.52,1.23-2.75,2.75-2.75s2.75,1.23,2.75,2.75c0,1.25-.85,2.3-2,2.63Z"/><circle cx="12" cy="10" r="1.25"/></g></g></svg>