<?xml version="1.0" encoding="UTF-8"?><svg fill="currentColor" xmlns="http://www.w3.org/2000/svg" viewBox="0 0 24 24"><g id="g"><g><path d="M19.74,4.26c-2.64-2.64-6.95-2.64-9.59,0-1.84,1.84-2.47,4.4-1.69,6.79l-5.13,5.15c-.1,.1-.17,.24-.2,.38l-.85,4.26c-.05,.25,.03,.5,.21,.68,.14,.14,.33,.22,.53,.22,.05,0,.1,0,.15-.01l4.26-.85c.14-.03,.28-.1,.38-.21l5.14-5.14c2.39,.74,5.01,.1,6.8-1.68,2.64-2.64,2.64-6.95,0-9.59ZM10.35,14.71l-3.54,3.54c-.15,.15-.34,.22-.53,.22s-.38-.07-.53-.22c-.29-.29-.29-.77,0-1.06l3.54-3.54c.29-.29,.77-.29,1.06,0s.29,.77,0,1.06Zm7.78-5.66c-.44,.44-1.01,.66-1.59,.66s-1.15-.22-1.59-.66c-.88-.88-.88-2.3,0-3.18s2.3-.88,3.18,0,.88,2.3,0,3.18Z"/><path d="M16.54,6.71c-.19,0-.38,.07-.53,.22-.29,.29-.29,.77,0,1.06s.77,.29,1.06,0,.29-.77,0-1.06c-.15-.15-.34-.22-.53-.22Z"/></g></g></svg>