<?xml version="1.0" encoding="UTF-8"?><svg fill="currentColor" xmlns="http://www.w3.org/2000/svg" viewBox="0 0 24 24"><g id="o"><path d="M17.75,9.37v-1.37c0-3.17-2.58-5.75-5.75-5.75s-5.75,2.58-5.75,5.75v1.37c-1.15,.33-2,1.38-2,2.63v7c0,1.52,1.23,2.75,2.75,2.75h10c1.52,0,2.75-1.23,2.75-2.75v-7c0-1.25-.85-2.3-2-2.63Zm-5.75-3.62c1.24,0,2.25,1.01,2.25,2.25v1.25h-4.5v-1.25c0-1.24,1.01-2.25,2.25-2.25Zm.75,10.82v1.43c0,.41-.34,.75-.75,.75s-.75-.34-.75-.75v-1.43c-.59-.28-1-.88-1-1.57,0-.96,.79-1.75,1.75-1.75s1.75,.79,1.75,1.75c0,.7-.41,1.29-1,1.57Z"/></g></svg>