<?xml version="1.0" encoding="UTF-8"?><svg fill="currentColor" xmlns="http://www.w3.org/2000/svg" viewBox="0 0 24 24"><g id="i"><path d="M19,10.25h-1.25v-1.25c0-3.17-2.58-5.75-5.75-5.75s-5.75,2.58-5.75,5.75v1.25h-1.25c-1.52,0-2.75,1.23-2.75,2.75v4c0,1.52,1.23,2.75,2.75,2.75h14c1.52,0,2.75-1.23,2.75-2.75v-4c0-1.52-1.23-2.75-2.75-2.75Zm-11.25-1.25c0-2.34,1.91-4.25,4.25-4.25s4.25,1.91,4.25,4.25v1.25H7.75v-1.25Zm.78,6.47c.29,.29,.29,.77,0,1.06-.15,.15-.34,.22-.53,.22s-.38-.07-.53-.22l-.47-.47-.47,.47c-.15,.15-.34,.22-.53,.22s-.38-.07-.53-.22c-.29-.29-.29-.77,0-1.06l.47-.47-.47-.47c-.29-.29-.29-.77,0-1.06s.77-.29,1.06,0l.47,.47,.47-.47c.29-.29,.77-.29,1.06,0s.29,.77,0,1.06l-.47,.47,.47,.47Zm5,0c.29,.29,.29,.77,0,1.06-.15,.15-.34,.22-.53,.22s-.38-.07-.53-.22l-.47-.47-.47,.47c-.15,.15-.34,.22-.53,.22s-.38-.07-.53-.22c-.29-.29-.29-.77,0-1.06l.47-.47-.47-.47c-.29-.29-.29-.77,0-1.06s.77-.29,1.06,0l.47,.47,.47-.47c.29-.29,.77-.29,1.06,0,.29,.29,.29,.77,0,1.06l-.47,.47,.47,.47Zm5,0c.29,.29,.29,.77,0,1.06-.15,.15-.34,.22-.53,.22s-.38-.07-.53-.22l-.47-.47-.47,.47c-.15,.15-.34,.22-.53,.22s-.38-.07-.53-.22c-.29-.29-.29-.77,0-1.06l.47-.47-.47-.47c-.29-.29-.29-.77,0-1.06s.77-.29,1.06,0l.47,.47,.47-.47c.29-.29,.77-.29,1.06,0s.29,.77,0,1.06l-.47,.47,.47,.47Z"/></g></svg>