<?xml version="1.0" encoding="UTF-8"?><svg fill="currentColor" xmlns="http://www.w3.org/2000/svg" viewBox="0 0 24 24"><g id="f"><g><path d="M11.7,14.69c.1,.04,.2,.06,.3,.06s.2-.02,.3-.06c.34-.15,2.07-1,2.44-3.06,.09-.49,.09-.99,0-1.51-.04-.21-.16-.4-.34-.51l-2-1.25c-.24-.15-.55-.15-.8,0l-2,1.25c-.18,.11-.31,.3-.34,.51-.09,.51-.09,1.02,0,1.51,.37,2.06,2.1,2.91,2.44,3.06Z"/><path d="M15.02,14.45c-.84,1.01-1.84,1.49-2.13,1.62-.28,.12-.58,.19-.9,.19s-.62-.06-.9-.19c-.28-.12-1.27-.6-2.11-1.6-.96,.12-1.91,.27-2.83,.5-.02,0-.05,0-.07,0,1.02,1.68,2.87,2.78,4.92,2.78h2c2.05,0,3.9-1.1,4.92-2.78-.02,0-.03,0-.05,0-.94-.23-1.89-.4-2.85-.52Z"/><path d="M21.52,8.73l-.07-.14c-.41-.79-1.27-1.25-2.18-1.16-.64,.06-1.28,.01-1.88-.15-1.43-.38-2.32-1.26-2.78-1.81l-.31-.3c-1.26-1.22-3.32-1.22-4.58,0l-.37,.36c-.4,.49-1.29,1.37-2.72,1.75-.61,.16-1.24,.21-1.89,.15-.91-.1-1.77,.37-2.18,1.16l-.07,.14c-.42,.81-.27,1.76,.37,2.44,.09,.09,.18,.19,.27,.3,.26,.32,.48,.67,.65,1.05,.35,.77,1.2,1.18,2.03,.98,.77-.19,1.55-.33,2.34-.45-.15-.35-.27-.73-.35-1.15-.12-.66-.12-1.34,0-2.02,.11-.64,.48-1.2,1.03-1.54l2-1.25c.36-.22,.77-.34,1.19-.34s.83,.12,1.19,.34l2,1.25c.54,.34,.92,.9,1.03,1.54,.11,.68,.11,1.36,0,2.02-.08,.43-.2,.8-.35,1.16,.8,.12,1.59,.26,2.37,.45,.14,.03,.27,.05,.41,.05,.67,0,1.3-.39,1.59-1.03,.17-.38,.39-.73,.65-1.05,.09-.11,.18-.21,.27-.3,.64-.68,.79-1.63,.37-2.44Z"/></g></g></svg>