<?xml version="1.0" encoding="UTF-8"?><svg fill="currentColor" xmlns="http://www.w3.org/2000/svg" viewBox="0 0 24 24"><g id="c"><g><path d="M20,4.25h-1c-.96,0-1.75,.79-1.75,1.75v2.32l-2.56,5.98-.2,.45h2.76v3.25c0,.96,.79,1.75,1.75,1.75h1c.96,0,1.75-.79,1.75-1.75V6c0-.96-.79-1.75-1.75-1.75Z"/><path d="M12.5,6.25h-2.43l-.37,1.01-2.96,6.91v-3.81l1.56-3.65,.16-.45h-1.73v-.25c0-.96-.79-1.75-1.75-1.75h-1c-.96,0-1.75,.79-1.75,1.75v12c0,.96,.79,1.75,1.75,1.75h1c.96,0,1.75-.79,1.75-1.75v-3.25h2.14l.41-1.03,3.01-7.02,.19-.45Z"/><polygon points="16.52 6.25 14.12 6.25 13.69 7.29 10.69 14.3 10.51 14.75 12.85 14.75 13.31 13.7 16.31 6.7 16.52 6.25"/></g></g></svg>