<?xml version="1.0" encoding="UTF-8"?><svg fill="currentColor" xmlns="http://www.w3.org/2000/svg" viewBox="0 0 24 24"><g id="j"><g><circle cx="12" cy="12" r="1.25"/><path d="M20.77,14.88c-.17-.58-.56-1.05-1.09-1.33-.51-.27-1.1-.33-1.65-.18l-1.19-1.52,1.07-1.56c.17,.04,.34,.06,.51,.06,.4,0,.8-.11,1.17-.33,1.06-.64,1.4-2.03,.75-3.09-.64-1.06-2.03-1.39-3.09-.75-.48,.29-.82,.75-.98,1.29l-1.97,.28-.84-1.75c.38-.43,.59-.98,.57-1.56-.04-1.24-1.04-2.18-2.32-2.18-1.24,.04-2.22,1.08-2.18,2.32,.02,.58,.26,1.11,.66,1.52l-.73,1.8-1.94-.15c-.18-.54-.56-.99-1.06-1.26-1.1-.59-2.46-.17-3.04,.92-.28,.53-.34,1.14-.17,1.71s.56,1.05,1.09,1.33c.33,.18,.69,.27,1.06,.27,.2,0,.4-.04,.59-.09l1.19,1.52-1.07,1.56c-.55-.13-1.15-.05-1.67,.27-1.06,.64-1.4,2.03-.75,3.09,.42,.69,1.17,1.08,1.93,1.08,.4,0,.8-.11,1.17-.33,.48-.29,.82-.75,.98-1.29l1.97-.28,.84,1.75c-.38,.43-.59,.98-.57,1.56,.04,1.22,1.04,2.18,2.25,2.18,.02,0,.05,0,.07,0,1.24-.04,2.22-1.08,2.18-2.32-.02-.58-.26-1.11-.66-1.52l.73-1.8,1.94,.15c.18,.54,.56,.99,1.06,1.26,.34,.18,.7,.27,1.06,.27,.8,0,1.58-.43,1.99-1.19,.28-.53,.34-1.14,.17-1.71Zm-8.77-.13c-1.52,0-2.75-1.23-2.75-2.75s1.23-2.75,2.75-2.75,2.75,1.23,2.75,2.75-1.23,2.75-2.75,2.75Z"/></g></g></svg>