<?xml version="1.0" encoding="UTF-8"?><svg fill="currentColor" xmlns="http://www.w3.org/2000/svg" viewBox="0 0 24 24"><g id="l"><g><path d="M13.33,6.46h0l-2.48-.35s-.02,0-.04,0c-.07,0-.13,.03-.17,.07l-4.24,4.24c-.06,.06-.08,.13-.07,.21l.35,2.47c.02,.13,.11,.18,.17,.2,.06,.02,.16,.04,.25-.06l6.36-6.36c.09-.1,.08-.2,.06-.26s-.07-.15-.2-.17Z"/><path d="M17.62,10.71s-.05-.01-.08-.01c-.05,0-.11,.02-.17,.07l-6.36,6.36c-.09,.1-.08,.2-.06,.26s.07,.15,.2,.17l2.47,.35c.08,.02,.16-.02,.21-.07l4.24-4.24c.05-.06,.08-.13,.07-.21l-.35-2.48c-.02-.13-.11-.18-.17-.2Z"/><path d="M20.94,6.88l-3.83-3.83c-.52-.52-1.21-.81-1.94-.81h-6.34c-.73,0-1.42,.29-1.94,.81l-3.83,3.83c-.52,.52-.81,1.21-.81,1.94v6.34c0,.73,.29,1.43,.81,1.94l3.83,3.83c.52,.52,1.21,.81,1.94,.81h6.34c.73,0,1.42-.29,1.94-.81l3.83-3.83c.52-.52,.81-1.21,.81-1.94v-6.34c0-.73-.29-1.43-.81-1.94Zm-12.78,7.42c-.33,.33-.78,.51-1.23,.51-.19,0-.37-.03-.56-.09-.63-.21-1.08-.75-1.18-1.41l-.35-2.47c-.08-.54,.11-1.1,.5-1.49l4.24-4.24c.38-.39,.93-.58,1.49-.49l2.47,.35c.66,.09,1.2,.55,1.41,1.18,.21,.63,.05,1.32-.42,1.79l-6.36,6.36Zm10.96,.35l-4.24,4.24c-.33,.33-.78,.51-1.24,.51-.08,0-.16,0-.24-.02l-2.48-.35c-.66-.09-1.2-.55-1.41-1.18s-.05-1.32,.42-1.79l6.36-6.36c.47-.47,1.16-.63,1.79-.42,.63,.21,1.08,.75,1.18,1.41l.35,2.48c.08,.54-.11,1.1-.49,1.48Z"/></g></g></svg>