<?xml version="1.0" encoding="UTF-8"?><svg fill="currentColor" xmlns="http://www.w3.org/2000/svg" viewBox="0 0 24 24"><g id="p"><g><path d="M8.39,4.11c.04,.09,.13,.14,.22,.14h2.76c.1,0,.18-.05,.22-.14l.7-1.4,.15-.46H7.51l.19,.47,.7,1.39Z"/><path d="M14.3,18.62c-1.44-.89-3.94-2.89-4.51-6.23-.11-.64-.14-1.29-.1-1.94,.08-1.15,.77-2.18,1.79-2.7l3.07-1.53c.45-.22,.95-.34,1.45-.34,.25,0,.5,.03,.75,.09-.02-1.7-1.18-3.12-2.75-3.56l-.28,.84s-.02,.07-.04,.1l-.72,1.45c-.3,.6-.9,.97-1.57,.97h-2.76c-.67,0-1.27-.37-1.57-.97l-.72-1.45-.37-.92c-1.56,.45-2.71,1.88-2.71,3.59v12c0,2.07,1.68,3.75,3.75,3.75h6c.16,0,.32-.01,.48-.03,1.42-.18,2.55-1.26,2.95-2.65-.14,.02-.28,.03-.43,.03-.6,0-1.19-.17-1.7-.48Z"/><path d="M20.82,10.54c-.04-.62-.41-1.18-.97-1.46l-3.07-1.53c-.49-.25-1.07-.25-1.56,0h0l-3.07,1.53c-.55,.28-.92,.84-.97,1.46-.04,.53-.01,1.07,.08,1.58,.48,2.77,2.6,4.45,3.83,5.21,.28,.17,.59,.26,.91,.26s.63-.09,.91-.26c1.22-.76,3.35-2.45,3.83-5.21,.09-.52,.12-1.05,.08-1.58Zm-2.79,1.47l-2,2c-.15,.15-.34,.22-.53,.22s-.38-.07-.53-.22l-1-1c-.29-.29-.29-.77,0-1.06s.77-.29,1.06,0l.47,.47,1.47-1.47c.29-.29,.77-.29,1.06,0s.29,.77,0,1.06Z"/></g></g></svg>