<?xml version="1.0" encoding="UTF-8"?><svg fill="currentColor" xmlns="http://www.w3.org/2000/svg" viewBox="0 0 24 24"><g id="k"><path d="M21.33,15.83L14.76,5.08c-.59-.97-1.63-1.55-2.76-1.55s-2.17,.58-2.76,1.55L2.67,15.83c-.62,1.01-.64,2.24-.06,3.27,.58,1.04,1.64,1.65,2.82,1.65h13.13c1.19,0,2.24-.62,2.82-1.65,.58-1.04,.56-2.26-.06-3.27Zm-10.08-5.83c0-.41,.34-.75,.75-.75s.75,.34,.75,.75v4c0,.41-.34,.75-.75,.75s-.75-.34-.75-.75v-4Zm.77,7.75c-.41,0-.75-.34-.75-.75s.33-.75,.74-.75h.01c.41,0,.75,.34,.75,.75s-.34,.75-.75,.75Z"/></g></svg>