<?xml version="1.0" encoding="UTF-8"?><svg fill="currentColor" xmlns="http://www.w3.org/2000/svg" viewBox="0 0 24 24"><g id="t"><g><path d="M11.25,8.25V3.57c-1.5,1.43-2.35,3.16-2.84,4.68h2.84Z"/><path d="M12.75,3.63v4.62h2.88c-.73-2.15-1.96-3.7-2.88-4.62Z"/><path d="M6.25,12c0-.1,.01-.99,.25-2.25H2.52c-.17,.72-.27,1.47-.27,2.25s.1,1.53,.27,2.25h3.92c-.12-.71-.2-1.45-.2-2.25Z"/><path d="M11.25,9.75h-3.23c-.25,1.25-.27,2.16-.27,2.25,0,.81,.1,1.55,.23,2.25h3.27v-4.5Z"/><path d="M12.75,15.75v4.66c1.49-1.43,2.35-3.14,2.84-4.66h-2.84Z"/><path d="M11.25,15.75h-2.87c.73,2.15,1.96,3.7,2.87,4.62v-4.62Z"/><path d="M6.85,8.25c.53-1.85,1.55-4.06,3.47-5.85-3.31,.58-6.06,2.82-7.32,5.85h3.85Z"/><path d="M6.8,15.75H3c1.27,3.04,4.04,5.29,7.38,5.85-1.12-1.09-2.75-3.05-3.58-5.85Z"/><path d="M17.15,15.75c-.53,1.85-1.55,4.06-3.47,5.85,3.31-.58,6.06-2.82,7.32-5.85h-3.85Z"/><path d="M21.48,14.25c.17-.72,.27-1.47,.27-2.25s-.1-1.53-.27-2.25h-3.92c.12,.71,.2,1.45,.2,2.25,0,.1-.01,.99-.25,2.25h3.97Z"/><path d="M16.03,9.75h-3.28v4.5h3.24c.26-1.26,.26-2.16,.26-2.25,0-.8-.08-1.55-.22-2.25Z"/><path d="M17.2,8.25h3.8c-1.27-3.04-4.04-5.29-7.38-5.85,1.12,1.09,2.75,3.05,3.58,5.85Z"/></g></g></svg>