<?xml version="1.0" encoding="UTF-8"?><svg fill="currentColor" xmlns="http://www.w3.org/2000/svg" viewBox="0 0 24 24"><g id="o"><g><circle cx="10" cy="14" r="1.25"/><path d="M21.67,7.25c-.36-2.26-2.31-4-4.67-4H7c-2.36,0-4.31,1.74-4.67,4H21.67Z"/><path d="M2.25,8.75v7.25c0,2.62,2.13,4.75,4.75,4.75h10c2.62,0,4.75-2.13,4.75-4.75v-7.25H2.25Zm15.75,6h-5.37c-.33,1.15-1.38,2-2.63,2s-2.3-.85-2.63-2h-1.37c-.41,0-.75-.34-.75-.75s.34-.75,.75-.75h1.37c.33-1.15,1.38-2,2.63-2s2.3,.85,2.63,2h5.37c.41,0,.75,.34,.75,.75s-.34,.75-.75,.75Z"/></g></g></svg>