<?xml version="1.0" encoding="UTF-8"?><svg fill="currentColor" xmlns="http://www.w3.org/2000/svg" viewBox="0 0 24 24"><g id="l"><g><path d="M6.37,5.32l2.33,4.94c.65-1.23,1.9-1.98,3.26-2,.02,0,.03,0,.05,0h8.98c-1.02-2.44-3.01-4.47-5.68-5.43-2.45-.88-5.1-.75-7.45,.36-.67,.32-1.29,.71-1.87,1.16l.39,.98Z"/><path d="M12,9.75c-.92,0-1.78,.57-2.11,1.49-.2,.56-.17,1.17,.08,1.72h0c.26,.55,.71,.96,1.27,1.16,1.17,.42,2.46-.19,2.88-1.36,.2-.57,.17-1.18-.08-1.72-.26-.54-.71-.96-1.27-1.16-.24-.09-.49-.13-.74-.13h-.03Z"/><path d="M11.42,20.27l1.69-4.69c-.36,.11-.73,.17-1.11,.17-.42,0-.85-.07-1.26-.22-.94-.34-1.7-1.02-2.12-1.93h0l-3.61-7.68-.2-.49c-.86,.94-1.53,2.05-1.97,3.28-1.82,5.06,.82,10.65,5.88,12.47,.71,.26,1.44,.42,2.17,.51l.54-1.41Z"/><path d="M15,9.75c.15,.2,.28,.42,.39,.65,.43,.91,.48,1.92,.14,2.87h0l-2.7,7.53-.36,.93c1.26-.06,2.51-.36,3.69-.91,2.36-1.11,4.14-3.07,5.02-5.52,.66-1.85,.73-3.77,.3-5.55h-6.48Z"/></g></g></svg>