<?xml version="1.0" encoding="UTF-8"?><svg fill="currentColor" xmlns="http://www.w3.org/2000/svg" viewBox="0 0 24 24"><g id="c"><path d="M21,18.25h-6.37c-.26-.91-.97-1.62-1.88-1.88v-1.62h5.37c1.1,0,2.18-.5,2.87-1.34,.64-.77,.89-1.71,.71-2.67-.03-.14-.06-.27-.1-.41-.41-1.27-1.5-2.21-2.82-2.49-.25-2.92-2.65-5.36-5.65-5.58-2.78-.2-5.4,1.54-6.3,4.13-2.42,.19-4.41,1.94-4.55,4.12-.07,1.1,.37,2.25,1.22,3.14,.65,.69,1.61,1.09,2.62,1.09h5.16v1.62c-.91,.26-1.62,.97-1.88,1.88H3c-.41,0-.75,.34-.75,.75s.34,.75,.75,.75h6.37c.33,1.15,1.38,2,2.63,2s2.3-.85,2.63-2h6.37c.41,0,.75-.34,.75-.75s-.34-.75-.75-.75Z"/></g></svg>