<?xml version="1.0" encoding="UTF-8"?><svg fill="currentColor" xmlns="http://www.w3.org/2000/svg" viewBox="0 0 24 24"><g id="e"><g><circle cx="9.5" cy="15.5" r=".75"/><circle cx="8.5" cy="8.5" r=".75"/><path d="M19.77,8.88c.02-.26-.09-.51-.29-.66-.2-.16-.47-.2-.71-.11-.27,.1-.52,.14-.76,.14-1.24,0-2.25-1.01-2.24-2.34,0,0,.01-.12,.02-.13,.03-.28-.1-.56-.34-.71-.24-.15-.54-.15-.79,0-.84,.5-1.89-.15-1.89-1.06,0-.21,.06-.42,.17-.61,.13-.23,.09-.51-.04-.74s-.41-.38-.67-.39c-.07,0-.14,0-.21,0C6.62,2.25,2.25,6.62,2.25,12s4.37,9.75,9.75,9.75,9.75-4.37,9.75-9.75c0-.37-.02-.73-.06-1.09-.04-.37-.35-.66-.72-.67-.68-.02-1.21-.57-1.21-1.24m-13.5-.5c0-1.24,1.01-2.25,2.25-2.25s2.25,1.01,2.25,2.25-1.01,2.25-2.25,2.25-2.25-1.01-2.25-2.25Zm3.25,9.25c-1.24,0-2.25-1.01-2.25-2.25s1.01-2.25,2.25-2.25,2.25,1.01,2.25,2.25-1.01,2.25-2.25,2.25Zm6-3c-1.24,0-2.25-1.01-2.25-2.25s1.01-2.25,2.25-2.25,2.25,1.01,2.25,2.25-1.01,2.25-2.25,2.25Z"/><circle cx="15.5" cy="12.5" r=".75"/></g></g></svg>