<?xml version="1.0" encoding="UTF-8"?><svg fill="currentColor" xmlns="http://www.w3.org/2000/svg" viewBox="0 0 24 24"><g id="s"><path d="M17.19,9.4c-.9-2.59-3.51-4.34-6.3-4.13-3,.22-5.41,2.66-5.65,5.58-1.33,.28-2.42,1.22-2.82,2.49-.04,.14-.08,.27-.1,.41-.18,.95,.07,1.89,.71,2.66,.69,.84,1.77,1.34,2.87,1.34h12.03c1.01,0,1.96-.4,2.62-1.09,.85-.89,1.29-2.04,1.22-3.14-.14-2.18-2.13-3.93-4.55-4.12Zm-2.66,3.13l-2,2c-.07,.07-.15,.12-.24,.16-.09,.04-.19,.06-.29,.06s-.19-.02-.29-.06c-.09-.04-.17-.09-.24-.16l-2-2c-.29-.29-.29-.77,0-1.06s.77-.29,1.06,0l.72,.72v-2.19c0-.41,.34-.75,.75-.75s.75,.34,.75,.75v2.19l.72-.72c.29-.29,.77-.29,1.06,0s.29,.77,0,1.06Z"/></g></svg>