<?xml version="1.0" encoding="UTF-8"?><svg fill="currentColor" xmlns="http://www.w3.org/2000/svg" viewBox="0 0 24 24"><g id="i"><g><path d="M10,10.25h4c.14,0,.25-.11,.25-.25v-1.25h-4.5v1.25c0,.14,.11,.25,.25,.25Z"/><rect x="9.75" y="2.25" width="4.5" height="5"/><path d="M17,2.25h-1.25v7.75c0,.96-.79,1.75-1.75,1.75h-4c-.96,0-1.75-.79-1.75-1.75V2.25h-1.25c-2.62,0-4.75,2.13-4.75,4.75v10c0,2.62,2.13,4.75,4.75,4.75h10c2.62,0,4.75-2.13,4.75-4.75V7c0-2.62-2.13-4.75-4.75-4.75Zm-7,16.5h-3c-.41,0-.75-.34-.75-.75s.34-.75,.75-.75h3c.41,0,.75,.34,.75,.75s-.34,.75-.75,.75Z"/></g></g></svg>