<?xml version="1.0" encoding="UTF-8"?><svg fill="currentColor" xmlns="http://www.w3.org/2000/svg" viewBox="0 0 24 24"><g id="u"><g><path d="M21.67,7.25c-.36-2.26-2.31-4-4.67-4H7c-2.36,0-4.31,1.74-4.67,4H21.67Z"/><path d="M2.25,8.75v7.25c0,2.62,2.13,4.75,4.75,4.75h10c2.62,0,4.75-2.13,4.75-4.75v-7.25H2.25Zm7.28,6.72c.29,.29,.29,.77,0,1.06-.15,.15-.34,.22-.53,.22s-.38-.07-.53-.22l-2-2c-.29-.29-.29-.77,0-1.06l2-2c.29-.29,.77-.29,1.06,0s.29,.77,0,1.06l-1.47,1.47,1.47,1.47Zm8-.94l-2,2c-.15,.15-.34,.22-.53,.22s-.38-.07-.53-.22c-.29-.29-.29-.77,0-1.06l1.47-1.47-1.47-1.47c-.29-.29-.29-.77,0-1.06s.77-.29,1.06,0l2,2c.29,.29,.29,.77,0,1.06Z"/></g></g></svg>