<?xml version="1.0" encoding="UTF-8"?><svg fill="currentColor" xmlns="http://www.w3.org/2000/svg" viewBox="0 0 24 24"><g id="f"><g><path d="M20,14.17h-4.34c-.63,0-1.21,.24-1.72,.75-.16,.16-.37,.25-.59,.25h-2.68c-.22,0-.44-.09-.66-.32-.44-.44-1.03-.68-1.65-.68H4c-.96,0-1.75,.79-1.75,1.75,0,1.52,1.23,2.75,2.75,2.75h14c1.52,0,2.75-1.23,2.75-2.75,0-.96-.79-1.75-1.75-1.75Z"/><path d="M8.34,12.67c.97,0,1.88,.35,2.58,1h2.15c.74-.66,1.63-1,2.58-1h4.34c.26,0,.51,.04,.75,.1V7.92c0-2.07-1.68-3.75-3.75-3.75H7c-2.07,0-3.75,1.68-3.75,3.75v4.85c.24-.06,.49-.1,.75-.1h4.34Z"/></g></g></svg>