<?xml version="1.0" encoding="UTF-8"?><svg fill="currentColor" xmlns="http://www.w3.org/2000/svg" viewBox="0 0 24 24"><g id="d"><g><path d="M18,10.25H6c-2.07,0-3.75,1.68-3.75,3.75v4c0,2.07,1.68,3.75,3.75,3.75h12c2.07,0,3.75-1.68,3.75-3.75v-4c0-2.07-1.68-3.75-3.75-3.75Zm-4,6.5h-1.25v1.25c0,.41-.34,.75-.75,.75s-.75-.34-.75-.75v-1.25h-1.25c-.41,0-.75-.34-.75-.75s.34-.75,.75-.75h1.25v-1.25c0-.41,.34-.75,.75-.75s.75,.34,.75,.75v1.25h1.25c.41,0,.75,.34,.75,.75s-.34,.75-.75,.75Z"/><path d="M17.71,5.75c.68,0,1.31,.15,1.89,.4-.36-1.1-1.38-1.9-2.6-1.9H7c-1.22,0-2.24,.8-2.6,1.9,.58-.25,1.21-.4,1.89-.4h11.43Z"/><path d="M18,8.75c.99,0,1.91,.29,2.7,.77-.25-1.29-1.49-2.27-2.98-2.27H6.29c-1.49,0-2.73,.98-2.98,2.27,.79-.48,1.71-.77,2.7-.77h12Z"/></g></g></svg>