<?xml version="1.0" encoding="UTF-8"?><svg fill="currentColor" xmlns="http://www.w3.org/2000/svg" viewBox="0 0 24 24"><g id="m"><g><path d="M9,5.25H5c-1.52,0-2.75,1.23-2.75,2.75v3c0,1.52,1.23,2.75,2.75,2.75h1c-.23,.3-.59,.5-1,.5s-.75,.34-.75,.75v3c0,.41,.34,.75,.75,.75,3.72,0,6.75-3.03,6.75-6.75v-4c0-1.52-1.23-2.75-2.75-2.75Z"/><path d="M19,5.25h-4c-1.52,0-2.75,1.23-2.75,2.75v3c0,1.52,1.23,2.75,2.75,2.75h1c-.23,.3-.59,.5-1,.5s-.75,.34-.75,.75v3c0,.41,.34,.75,.75,.75,3.72,0,6.75-3.03,6.75-6.75v-4c0-1.52-1.23-2.75-2.75-2.75Z"/></g></g></svg>