<?xml version="1.0" encoding="UTF-8"?><svg fill="currentColor" xmlns="http://www.w3.org/2000/svg" viewBox="0 0 24 24"><g id="k"><path d="M21.02,17.5l-4.08-4.08c1.42-2.89,.94-6.5-1.47-8.9-3.02-3.02-7.94-3.02-10.96,0-1.46,1.46-2.27,3.41-2.27,5.48s.81,4.02,2.27,5.48,3.5,2.27,5.48,2.27c1.17,0,2.34-.27,3.42-.8l4.08,4.08c.47,.47,1.1,.73,1.76,.73s1.29-.26,1.76-.73c.47-.47,.73-1.1,.73-1.76s-.26-1.29-.73-1.76Zm-15.45-3.08c-1.18-1.18-1.83-2.75-1.83-4.42s.65-3.24,1.83-4.42c1.22-1.22,2.82-1.83,4.42-1.83s3.2,.61,4.42,1.83c2.44,2.44,2.44,6.4,0,8.84s-6.4,2.44-8.84,0Z"/></g></svg>