<?xml version="1.0" encoding="UTF-8"?><svg fill="currentColor" xmlns="http://www.w3.org/2000/svg" viewBox="0 0 24 24"><g id="j"><g><path d="M20.7,9.16l-4.12-4.05c-.5-.49-1.24-.63-1.89-.36-.65,.27-1.06,.9-1.06,1.6,0,.12-.08,.21-.19,.23-1.48,.2-4.26,.9-6.27,3.46-1.09,1.39-1.74,3.08-1.89,4.89-.05,.59,.3,1.11,.85,1.29,.13,.04,.27,.07,.4,.07,.41,0,.8-.21,1.04-.58,.66-1.04,1.83-2.38,3.68-2.86,.7-.18,1.43-.23,2.17-.14,.11,.01,.2,.11,.2,.23v.48c0,.66,.36,1.25,.95,1.55,.59,.3,1.28,.24,1.81-.15l4.12-3.03c.41-.3,.67-.77,.7-1.27s-.15-1-.52-1.36Z"/><path d="M15.37,16.66c-.5,0-1.01-.12-1.46-.35-.86-.43-1.46-1.21-1.68-2.12-.2,.02-.4,.06-.59,.11-1.37,.36-2.27,1.4-2.79,2.21-.51,.8-1.37,1.28-2.31,1.28-.3,0-.59-.05-.88-.14-1.2-.4-1.97-1.57-1.87-2.84,.17-2.11,.93-4.08,2.2-5.7,1.97-2.5,4.55-3.48,6.33-3.86,.13-.37,.34-.7,.59-1H6c-2.07,0-3.75,1.68-3.75,3.75v9c0,2.07,1.68,3.75,3.75,3.75H15c2.07,0,3.75-1.68,3.75-3.75v-2.05l-1.47,1.08c-.56,.41-1.22,.63-1.92,.63Z"/></g></g></svg>