<?xml version="1.0" encoding="UTF-8"?><svg fill="currentColor" xmlns="http://www.w3.org/2000/svg" viewBox="0 0 24 24"><g id="g"><g><path d="M2.25,8.75v7.25c0,2.62,2.13,4.75,4.75,4.75h10c2.62,0,4.75-2.13,4.75-4.75v-7.25H2.25Zm13.37,5.55l-.89,.84,.21,1.17c.08,.46-.1,.91-.48,1.19-.39,.29-.9,.33-1.33,.11l-1.13-.57-1.13,.57c-.18,.09-.38,.14-.57,.14-.27,0-.53-.08-.75-.25-.38-.28-.56-.74-.48-1.19l.21-1.17-.89-.84c-.35-.33-.47-.81-.33-1.26,.15-.46,.54-.78,1.02-.85l1.26-.18,.56-1.09c.21-.42,.64-.67,1.12-.67s.9,.26,1.12,.67h0l.56,1.09,1.26,.18c.48,.07,.87,.39,1.02,.85,.14,.45,.02,.93-.33,1.26Z"/><path d="M12.4,12.81l-.4-.78-.4,.78c-.18,.36-.53,.61-.94,.66l-.83,.12,.58,.54c.3,.28,.44,.7,.37,1.1l-.14,.81,.79-.4c.36-.18,.79-.18,1.14,0l.79,.4-.14-.81c-.07-.41,.07-.82,.37-1.1l.58-.54-.83-.12c-.41-.06-.76-.31-.94-.67Z"/><path d="M21.67,7.25c-.36-2.26-2.31-4-4.67-4H7c-2.36,0-4.31,1.74-4.67,4H21.67Z"/></g></g></svg>