<?xml version="1.0" encoding="UTF-8"?><svg fill="currentColor" xmlns="http://www.w3.org/2000/svg" viewBox="0 0 24 24"><g id="q"><path d="M14,2.25h-4c-2.07,0-3.75,1.68-3.75,3.75v12c0,2.07,1.68,3.75,3.75,3.75h4c2.07,0,3.75-1.68,3.75-3.75V6c0-2.07-1.68-3.75-3.75-3.75Zm-.12,12.25c-.15,.17-.36,.25-.56,.25-.18,0-.35-.06-.5-.19-.46-.4-1.2-.4-1.65,0-.31,.27-.78,.24-1.06-.07-.27-.31-.24-.78,.07-1.06,1-.89,2.63-.89,3.64,0,.31,.27,.34,.75,.07,1.06Zm1.61-2.08c-.14,.13-.32,.19-.5,.19-.21,0-.41-.09-.56-.25-.62-.7-1.5-1.1-2.44-1.1s-1.82,.4-2.44,1.1c-.27,.31-.75,.34-1.06,.07-.31-.27-.34-.75-.07-1.06,.9-1.02,2.2-1.61,3.56-1.61s2.66,.59,3.56,1.61c.27,.31,.24,.78-.07,1.06Z"/></g></svg>