<?xml version="1.0" encoding="UTF-8"?><svg fill="currentColor" xmlns="http://www.w3.org/2000/svg" viewBox="0 0 24 24"><g id="m"><path d="M21.45,12.06l-1.77-4.73c-.69-1.84-2.48-3.08-4.45-3.08h-6.46c-1.97,0-3.76,1.24-4.45,3.08l-1.77,4.72c-.2,.53-.3,1.1-.3,1.67v2.27c0,2.62,2.13,4.75,4.75,4.75h10c2.62,0,4.75-2.13,4.75-4.75v-2.27c0-.57-.1-1.13-.3-1.67ZM5.02,9.75h1.86c.4,0,.77,.23,.95,.59,.44,.87,1.31,1.41,2.29,1.41h3.76c.98,0,1.85-.54,2.29-1.41,.18-.36,.54-.59,.95-.59h1.86l1.06,2.83c.08,.22,.13,.44,.16,.66h-3.09c-.98,0-1.85,.54-2.29,1.42-.18,.36-.54,.59-.95,.59h-3.76c-.4,0-.77-.22-.95-.59-.44-.87-1.31-1.41-2.29-1.41H3.79c.03-.23,.08-.45,.16-.67l1.06-2.83Zm3.75-4h6.46c1.35,0,2.57,.85,3.04,2.11l.15,.39h-1.3c-.98,0-1.85,.54-2.29,1.41-.18,.36-.54,.59-.95,.59h-3.76c-.4,0-.77-.22-.95-.59-.44-.87-1.31-1.41-2.29-1.41h-1.3l.15-.39c.47-1.26,1.7-2.11,3.04-2.11Zm8.23,13.5H7c-1.79,0-3.25-1.46-3.25-3.25v-1.25h3.13c.4,0,.77,.23,.95,.59,.44,.87,1.31,1.41,2.29,1.41h3.76c.98,0,1.85-.54,2.29-1.41,.18-.36,.54-.59,.95-.59h3.13v1.25c0,1.79-1.46,3.25-3.25,3.25Z"/></g></svg>