<?xml version="1.0" encoding="UTF-8"?><svg fill="currentColor" xmlns="http://www.w3.org/2000/svg" viewBox="0 0 24 24"><g id="k"><g><path d="M18,5.25H6c-2.07,0-3.75,1.68-3.75,3.75v6c0,2.07,1.68,3.75,3.75,3.75h12c2.07,0,3.75-1.68,3.75-3.75v-6c0-2.07-1.68-3.75-3.75-3.75Zm2.25,9.75c0,1.24-1.01,2.25-2.25,2.25H6c-1.24,0-2.25-1.01-2.25-2.25v-6c0-1.24,1.01-2.25,2.25-2.25h12c1.24,0,2.25,1.01,2.25,2.25v6Z"/><path d="M17,8.25h-2c-.96,0-1.75,.79-1.75,1.75v1c0,.96,.79,1.75,1.75,1.75h2c.96,0,1.75-.79,1.75-1.75v-1c0-.96-.79-1.75-1.75-1.75Zm.25,2.75c0,.14-.11,.25-.25,.25h-2c-.14,0-.25-.11-.25-.25v-1c0-.14,.11-.25,.25-.25h2c.14,0,.25,.11,.25,.25v1Z"/><path d="M6,12.75h3c.41,0,.75-.34,.75-.75s-.34-.75-.75-.75h-3c-.41,0-.75,.34-.75,.75s.34,.75,.75,.75Z"/><path d="M11,14.25H6c-.41,0-.75,.34-.75,.75s.34,.75,.75,.75h5c.41,0,.75-.34,.75-.75s-.34-.75-.75-.75Z"/></g></g></svg>