<?xml version="1.0" encoding="UTF-8"?><svg fill="currentColor" xmlns="http://www.w3.org/2000/svg" viewBox="0 0 24 24"><g id="p"><g><path d="M19.75,13.91v-4.91c0-2.62-2.13-4.75-4.75-4.75H7c-1.83,0-3.41,1.06-4.2,2.58h-.01s-.03,.07-.04,.1c-.31,.63-.5,1.33-.5,2.07v3c0,2.62,2.13,4.75,4.75,4.75h6.33c-.04,.24-.08,.49-.08,.75,0,2.34,1.91,4.25,4.25,4.25s4.25-1.91,4.25-4.25c0-1.52-.8-2.84-2-3.59ZM7,5.75H15c1.08,0,2.03,.53,2.62,1.35l-4.67,3.5c-1.15,.86-2.75,.86-3.9,0l-4.67-3.5c.59-.81,1.54-1.35,2.62-1.35Zm0,9.5c-1.79,0-3.25-1.46-3.25-3.25v-3c0-.16,.02-.31,.05-.47l4.35,3.26c.84,.63,1.84,.94,2.85,.94s2.01-.31,2.85-.94l4.35-3.26c.02,.15,.05,.31,.05,.47v4.33c-.24-.04-.49-.08-.75-.08-1.51,0-2.84,.8-3.59,2H7Zm10.5,5c-1.52,0-2.75-1.23-2.75-2.75s1.23-2.75,2.75-2.75,2.75,1.23,2.75,2.75-1.23,2.75-2.75,2.75Z"/><path d="M18.84,15.83c-.37-.18-.82-.03-1.01,.34l-.53,1.07-.26-.26c-.29-.29-.77-.29-1.06,0s-.29,.77,0,1.06l1,1c.14,.14,.33,.22,.53,.22,.04,0,.08,0,.12,0,.24-.04,.44-.19,.55-.4l1-2c.19-.37,.04-.82-.34-1.01Z"/></g></g></svg>