<?xml version="1.0" encoding="UTF-8"?><svg fill="currentColor" xmlns="http://www.w3.org/2000/svg" viewBox="0 0 24 24"><g id="g"><g><path d="M18,4.25H9c-1.83,0-3.36,1.33-3.68,3.07-1.74,.32-3.07,1.85-3.07,3.68v4c0,2.07,1.68,3.75,3.75,3.75H15c1.83,0,3.36-1.33,3.68-3.07,1.74-.32,3.07-1.85,3.07-3.68v-4c0-2.07-1.68-3.75-3.75-3.75Zm-3,13H6c-1.24,0-2.25-1.01-2.25-2.25v-4c0-1.24,1.01-2.25,2.25-2.25H15c1.24,0,2.25,1.01,2.25,2.25v4c0,1.24-1.01,2.25-2.25,2.25Zm5.25-5.25c0,.98-.63,1.8-1.5,2.11v-3.11c0-2.07-1.68-3.75-3.75-3.75H6.89c.31-.87,1.14-1.5,2.11-1.5h9c1.24,0,2.25,1.01,2.25,2.25v4Z"/><path d="M13.54,12.19l-1.66,1.29c-.81,.63-1.95,.63-2.76,0l-1.66-1.29c-.33-.25-.8-.19-1.05,.13-.25,.33-.2,.8,.13,1.05l1.66,1.29c.68,.53,1.49,.79,2.3,.79s1.63-.26,2.3-.79l1.66-1.29c.33-.25,.39-.73,.13-1.05-.25-.33-.72-.39-1.05-.13Z"/></g></g></svg>