<?xml version="1.0" encoding="UTF-8"?><svg fill="currentColor" xmlns="http://www.w3.org/2000/svg" viewBox="0 0 24 24"><g id="b"><path d="M21.69,10.9c-.5-4.57-4.19-8.19-8.78-8.61-3.04-.27-5.98,.84-8.05,3.07-2.07,2.23-2.97,5.25-2.48,8.29,.68,4.16,4.09,7.46,8.28,8.01,.44,.06,.88,.09,1.32,.09,1.94,0,3.83-.56,5.43-1.64,.34-.23,.44-.7,.21-1.04-.23-.34-.7-.44-1.04-.21-1.67,1.12-3.71,1.58-5.72,1.31-3.54-.47-6.42-3.26-7-6.77-.42-2.58,.34-5.14,2.09-7.02,1.75-1.88,4.23-2.83,6.82-2.6,3.82,.35,7.01,3.48,7.42,7.28,.11,1.01,.04,2.01-.2,2.97-.18,.71-.84,1.21-1.6,1.21-.91,0-1.65-.74-1.65-1.65v-5.6c0-.41-.34-.75-.75-.75s-.75,.34-.75,.75v.55c-.85-.8-1.99-1.3-3.25-1.3-2.62,0-4.75,2.13-4.75,4.75s2.13,4.75,4.75,4.75c1.46,0,2.74-.67,3.62-1.71,.53,1.01,1.57,1.71,2.78,1.71,1.45,0,2.7-.96,3.05-2.34,.29-1.14,.37-2.31,.24-3.5Zm-9.69,4.35c-1.79,0-3.25-1.46-3.25-3.25s1.46-3.25,3.25-3.25,3.25,1.46,3.25,3.25-1.46,3.25-3.25,3.25Z"/></g></svg>