<?xml version="1.0" encoding="UTF-8"?><svg fill="currentColor" xmlns="http://www.w3.org/2000/svg" viewBox="0 0 24 24"><g id="o"><path d="M15,2.25h-6c-3.17,0-5.75,2.58-5.75,5.75v8c0,3.17,2.58,5.75,5.75,5.75h6c3.17,0,5.75-2.58,5.75-5.75V8c0-3.17-2.58-5.75-5.75-5.75Zm-6,1.5h6c2.22,0,4.03,1.72,4.21,3.9l-2.87,2.15c-.39,.29-.87,.45-1.35,.45h-2.25v-.62c1.15-.33,2-1.38,2-2.63,0-1.52-1.23-2.75-2.75-2.75s-2.75,1.23-2.75,2.75c0,1.25,.85,2.3,2,2.63v.62h-2.25c-.48,0-.96-.16-1.35-.45l-2.87-2.15c.18-2.18,1.99-3.9,4.21-3.9Zm3,4.5c-.69,0-1.25-.56-1.25-1.25s.56-1.25,1.25-1.25,1.25,.56,1.25,1.25-.56,1.25-1.25,1.25Zm3,12h-6c-2.34,0-4.25-1.91-4.25-4.25v-6.5l2,1.5c.64,.48,1.44,.75,2.25,.75h2.25v.62c-1.15,.33-2,1.38-2,2.63,0,1.52,1.23,2.75,2.75,2.75s2.75-1.23,2.75-2.75c0-1.25-.85-2.3-2-2.63v-.62h2.25c.81,0,1.6-.27,2.25-.75l2-1.5v6.5c0,2.34-1.91,4.25-4.25,4.25Zm-3-6.5c.69,0,1.25,.56,1.25,1.25s-.56,1.25-1.25,1.25-1.25-.56-1.25-1.25,.56-1.25,1.25-1.25Z"/></g></svg>