<?xml version="1.0" encoding="UTF-8"?><svg fill="currentColor" xmlns="http://www.w3.org/2000/svg" viewBox="0 0 24 24"><g id="q"><path d="M21.73,10.12c.02-.11,.01-.23-.02-.34-.18-1.5-1.07-2.83-2.4-3.58l-5-2.78c-1.45-.8-3.17-.8-4.61,0l-5,2.78c-1.34,.74-2.22,2.08-2.4,3.58-.04,.11-.04,.23-.02,.34,0,.08-.02,.15-.02,.23v5.65c0,2.62,2.13,4.75,4.75,4.75h10c2.62,0,4.75-2.13,4.75-4.75v-5.65c0-.08-.01-.15-.02-.23ZM5.42,7.51l5-2.78c.49-.27,1.04-.41,1.58-.41s1.08,.14,1.58,.41l5,2.78c.83,.46,1.41,1.27,1.6,2.18l-2.42,1.89v-1.58c0-.96-.79-1.75-1.75-1.75H8c-.96,0-1.75,.79-1.75,1.75v1.58l-2.42-1.89c.19-.91,.76-1.72,1.6-2.18Zm10.83,5.23l-2.25,1.75c-1.17,.91-2.82,.91-3.99,0l-2.25-1.75v-2.74c0-.14,.11-.25,.25-.25h8c.14,0,.25,.11,.25,.25v2.74Zm.75,6.51H7c-1.79,0-3.25-1.46-3.25-3.25v-4.47l5.33,4.15c.86,.67,1.89,1,2.92,1s2.06-.33,2.92-1l5.33-4.15v4.47c0,1.79-1.46,3.25-3.25,3.25Z"/></g></svg>