<?xml version="1.0" encoding="UTF-8"?><svg fill="currentColor" xmlns="http://www.w3.org/2000/svg" viewBox="0 0 24 24"><g id="n"><g><path d="M15,2.25h-6c-3.17,0-5.75,2.58-5.75,5.75v8c0,3.17,2.58,5.75,5.75,5.75h6c3.17,0,5.75-2.58,5.75-5.75V8c0-3.17-2.58-5.75-5.75-5.75Zm-6,1.5h6c2.34,0,4.25,1.91,4.25,4.25v6.25h-2.13c-.98,0-1.85,.54-2.29,1.41-.18,.36-.54,.59-.95,.59h-3.76c-.4,0-.77-.22-.95-.59-.44-.87-1.31-1.41-2.29-1.41h-2.13v-6.25c0-2.34,1.91-4.25,4.25-4.25Zm6,16.5h-6c-2.34,0-4.25-1.91-4.25-4.25v-.25h2.13c.4,0,.77,.22,.95,.59,.44,.87,1.31,1.41,2.29,1.41h3.76c.98,0,1.85-.54,2.29-1.41,.18-.36,.54-.59,.95-.59h2.13v.25c0,2.34-1.91,4.25-4.25,4.25Z"/><path d="M8,7.75h8c.41,0,.75-.34,.75-.75s-.34-.75-.75-.75H8c-.41,0-.75,.34-.75,.75s.34,.75,.75,.75Z"/><path d="M8,11.75h8c.41,0,.75-.34,.75-.75s-.34-.75-.75-.75H8c-.41,0-.75,.34-.75,.75s.34,.75,.75,.75Z"/></g></g></svg>