<?xml version="1.0" encoding="UTF-8"?><svg fill="currentColor" xmlns="http://www.w3.org/2000/svg" viewBox="0 0 24 24"><g id="r"><g><path d="M20.34,7.77l-1.59-.88v-.89c0-2.07-1.68-3.75-3.75-3.75h-6c-2.07,0-3.75,1.68-3.75,3.75v.89l-1.59,.88c-.87,.48-1.41,1.41-1.41,2.4v6.82c0,2.62,2.13,4.75,4.75,4.75h10c2.62,0,4.75-2.13,4.75-4.75v-6.82c0-1-.54-1.92-1.41-2.4Zm-.73,1.31c.4,.22,.64,.64,.64,1.09v.46l-1.5,1.17v-3.19l.86,.48ZM9,3.75h6c1.24,0,2.25,1.01,2.25,2.25v6.97l-3.25,2.53c-1.17,.91-2.82,.91-3.99,0l-3.25-2.53V6c0-1.24,1.01-2.25,2.25-2.25Zm-4.61,5.33l.86-.48v3.19l-1.5-1.17v-.46c0-.45,.25-.87,.64-1.09Zm12.61,11.17H7c-1.79,0-3.25-1.46-3.25-3.25v-4.47l5.33,4.15c.86,.67,1.89,1,2.92,1s2.06-.33,2.92-1l5.33-4.15v4.47c0,1.79-1.46,3.25-3.25,3.25Z"/><path d="M9,7.75h6c.41,0,.75-.34,.75-.75s-.34-.75-.75-.75h-6c-.41,0-.75,.34-.75,.75s.34,.75,.75,.75Z"/><path d="M9,11.75h6c.41,0,.75-.34,.75-.75s-.34-.75-.75-.75h-6c-.41,0-.75,.34-.75,.75s.34,.75,.75,.75Z"/></g></g></svg>