<?xml version="1.0" encoding="UTF-8"?><svg fill="currentColor" xmlns="http://www.w3.org/2000/svg" viewBox="0 0 24 24"><g id="f"><g><path d="M17,8.25h-1.25v-1.5h2.38c.65,0,1.24-.35,1.54-.92,.3-.57,.27-1.26-.09-1.8l-.67-1c-.33-.49-.87-.78-1.46-.78h-2.46c-.41,0-.75,.34-.75,.75v5.25H7c-2.62,0-4.75,2.13-4.75,4.75v3c0,1.52,1.23,2.75,2.75,2.75h5.25v2.25c0,.41,.34,.75,.75,.75h4c.41,0,.75-.34,.75-.75v-2.25h3.25c1.52,0,2.75-1.23,2.75-2.75v-3c0-2.62-2.13-4.75-4.75-4.75Zm-1.25-4.5h1.71c.08,0,.16,.04,.21,.11l.67,1c.07,.11,.04,.21,.01,.26-.03,.05-.09,.13-.22,.13h-2.38v-1.5ZM3.75,16v-3c0-1.79,1.46-3.25,3.25-3.25s3.25,1.46,3.25,3.25v4.25H5c-.69,0-1.25-.56-1.25-1.25Zm10.5,4.25h-2.5v-1.5h2.5v1.5Zm6-4.25c0,.69-.56,1.25-1.25,1.25h-7.25v-4.25c0-1.26-.5-2.4-1.3-3.25h3.8v2.5h-.25c-.41,0-.75,.34-.75,.75s.34,.75,.75,.75h2c.41,0,.75-.34,.75-.75s-.34-.75-.75-.75h-.25v-2.5h1.25c1.79,0,3.25,1.46,3.25,3.25v3Z"/><path d="M8,12.25h-2c-.41,0-.75,.34-.75,.75s.34,.75,.75,.75h2c.41,0,.75-.34,.75-.75s-.34-.75-.75-.75Z"/></g></g></svg>