<?xml version="1.0" encoding="UTF-8"?><svg fill="currentColor" xmlns="http://www.w3.org/2000/svg" viewBox="0 0 24 24"><g id="j"><g><path d="M17,3.25H7c-2.62,0-4.75,2.13-4.75,4.75v13c0,.41,.34,.75,.75,.75s.75-.34,.75-.75v-1.25h6.5v1.25c0,.41,.34,.75,.75,.75s.75-.34,.75-.75v-1.25h8.5v1.25c0,.41,.34,.75,.75,.75s.75-.34,.75-.75V8c0-2.62-2.13-4.75-4.75-4.75Zm3.25,4.75v10.25H11.75V8c0-1.26-.5-2.4-1.3-3.25h6.55c1.79,0,3.25,1.46,3.25,3.25Zm-16.5,0c0-1.79,1.46-3.25,3.25-3.25s3.25,1.46,3.25,3.25v10.25H3.75V8Z"/><path d="M15,16.75h2c.96,0,1.75-.79,1.75-1.75v-1c0-.96-.79-1.75-1.75-1.75h-2c-.96,0-1.75,.79-1.75,1.75v1c0,.96,.79,1.75,1.75,1.75Zm-.25-2.75c0-.14,.11-.25,.25-.25h2c.14,0,.25,.11,.25,.25v1c0,.14-.11,.25-.25,.25h-2c-.14,0-.25-.11-.25-.25v-1Z"/><path d="M14,10.75h4c.41,0,.75-.34,.75-.75s-.34-.75-.75-.75h-4c-.41,0-.75,.34-.75,.75s.34,.75,.75,.75Z"/></g></g></svg>