<?xml version="1.0" encoding="UTF-8"?><svg fill="currentColor" xmlns="http://www.w3.org/2000/svg" viewBox="0 0 24 24"><g id="u"><path d="M21.75,10c0-.72-.17-1.4-.46-2.01-.02-.05-.04-.11-.08-.16,0,0,0,0-.01-.01-.79-1.52-2.37-2.57-4.2-2.57H7c-1.83,0-3.41,1.05-4.2,2.58h-.01c-.03,.05-.05,.1-.07,.15-.29,.62-.47,1.3-.47,2.02v4c0,1.29,.52,2.45,1.35,3.31h0v.02c.87,.87,2.07,1.42,3.39,1.42h10c1.32,0,2.52-.55,3.38-1.42h0v-.02c.84-.86,1.36-2.02,1.36-3.31v-4Zm-1.5,0v4c0,.66-.2,1.27-.54,1.79l-3.63-3.01,4.13-3.21c.02,.14,.04,.29,.04,.43ZM7,6.75h10c1.09,0,2.04,.54,2.63,1.36l-5.64,4.39c-1.18,.91-2.82,.91-3.99,0l-5.64-4.39c.59-.82,1.55-1.36,2.63-1.36Zm-2.71,9.04c-.34-.51-.54-1.13-.54-1.79v-4c0-.15,.02-.29,.04-.43l4.13,3.21-3.63,3.01Zm2.71,1.46c-.58,0-1.12-.17-1.6-.44l3.73-3.1c.85,.64,1.86,.97,2.86,.97s2.02-.33,2.86-.97l3.73,3.1c-.47,.27-1.01,.44-1.6,.44H7Z"/></g></svg>