<?xml version="1.0" encoding="UTF-8"?><svg fill="currentColor" xmlns="http://www.w3.org/2000/svg" viewBox="0 0 24 24"><g id="h"><g><path d="M20,11.25c-.41,0-.75,.34-.75,.75v3c0,1.79-1.46,3.25-3.25,3.25H7c-1.79,0-3.25-1.46-3.25-3.25v-4c0-1.79,1.46-3.25,3.25-3.25h7c.41,0,.75-.34,.75-.75s-.34-.75-.75-.75H7c-2.62,0-4.75,2.13-4.75,4.75v4c0,2.62,2.13,4.75,4.75,4.75h9c2.62,0,4.75-2.13,4.75-4.75v-3c0-.41-.34-.75-.75-.75Z"/><path d="M8.99,13.06l-1.7-1.61c-.3-.28-.78-.27-1.06,.03-.28,.3-.27,.78,.03,1.06l1.7,1.61c.91,.86,2.09,1.29,3.27,1.29,1.05,0,2.1-.34,2.96-1.03l2.28-1.83c.32-.26,.38-.73,.12-1.05-.26-.32-.73-.37-1.05-.12l-2.28,1.83c-1.26,1.01-3.09,.93-4.26-.18Z"/><path d="M19,4.25c-1.52,0-2.75,1.23-2.75,2.75s1.23,2.75,2.75,2.75,2.75-1.23,2.75-2.75-1.23-2.75-2.75-2.75Zm0,4c-.69,0-1.25-.56-1.25-1.25s.56-1.25,1.25-1.25,1.25,.56,1.25,1.25-.56,1.25-1.25,1.25Z"/></g></g></svg>