<?xml version="1.0" encoding="UTF-8"?><svg fill="currentColor" xmlns="http://www.w3.org/2000/svg" viewBox="0 0 24 24"><g id="t"><path d="M21.75,10.35c0-.08-.01-.15-.02-.23,.02-.11,.01-.23-.02-.34-.18-1.5-1.07-2.83-2.4-3.58l-5-2.78c-1.44-.8-3.17-.8-4.61,0l-5,2.78c-1.34,.74-2.22,2.08-2.4,3.58-.04,.11-.04,.23-.02,.34,0,.08-.02,.15-.02,.23v5.65c0,1.29,.52,2.45,1.35,3.31h0v.02c.87,.87,2.07,1.42,3.39,1.42h10c1.32,0,2.52-.54,3.38-1.42h.01v-.02c.84-.86,1.36-2.02,1.36-3.31v-5.65Zm-1.5,5.65c0,.66-.2,1.27-.54,1.79l-3.63-3.01,4.17-3.24v4.47ZM5.42,7.51l5-2.78c.49-.27,1.04-.41,1.58-.41s1.08,.14,1.58,.41l5,2.78c.83,.46,1.41,1.27,1.6,2.18l-6.18,4.81c-1.17,.91-2.82,.91-3.99,0L3.83,9.69c.19-.91,.76-1.72,1.6-2.18Zm-1.13,10.27c-.34-.51-.54-1.13-.54-1.79v-4.47l4.17,3.24-3.63,3.01Zm2.71,1.46c-.58,0-1.12-.17-1.6-.44l3.73-3.1c.85,.64,1.86,.97,2.86,.97s2.02-.33,2.86-.97l3.73,3.1c-.47,.27-1.01,.44-1.6,.44H7Z"/></g></svg>