<?xml version="1.0" encoding="UTF-8"?><svg fill="currentColor" xmlns="http://www.w3.org/2000/svg" viewBox="0 0 24 24"><g id="s"><g><path d="M18.75,8.59v-2.59c0-2.07-1.68-3.75-3.75-3.75h-6c-2.07,0-3.75,1.68-3.75,3.75v2.59c-1.75,.7-3,2.41-3,4.41v4c0,2.62,2.13,4.75,4.75,4.75h10c2.62,0,4.75-2.13,4.75-4.75v-4c0-2-1.25-3.71-3-4.41ZM6.75,6c0-1.24,1.01-2.25,2.25-2.25h6c1.24,0,2.25,1.01,2.25,2.25v2.28c-.08,0-.16-.03-.25-.03H7c-.09,0-.17,.02-.25,.03v-2.28Zm13.5,11c0,1.79-1.46,3.25-3.25,3.25H7c-1.79,0-3.25-1.46-3.25-3.25v-4c0-1.79,1.46-3.25,3.25-3.25h10c1.79,0,3.25,1.46,3.25,3.25v4Z"/><path d="M16.5,11.25c-1.24,0-2.25,1.01-2.25,2.25s1.01,2.25,2.25,2.25,2.25-1.01,2.25-2.25-1.01-2.25-2.25-2.25Zm0,3c-.41,0-.75-.34-.75-.75s.34-.75,.75-.75,.75,.34,.75,.75-.34,.75-.75,.75Z"/><path d="M10,17.25H6c-.41,0-.75,.34-.75,.75s.34,.75,.75,.75h4c.41,0,.75-.34,.75-.75s-.34-.75-.75-.75Z"/><path d="M6,15.75h2c.41,0,.75-.34,.75-.75s-.34-.75-.75-.75h-2c-.41,0-.75,.34-.75,.75s.34,.75,.75,.75Z"/></g></g></svg>