<?xml version="1.0" encoding="UTF-8"?><svg fill="currentColor" xmlns="http://www.w3.org/2000/svg" viewBox="0 0 24 24"><g id="l"><path d="M21.25,4.18l-1.41-1.41c-.68-.68-1.79-.68-2.48,0l-3.49,3.49h-5.87c-3.17,0-5.75,2.58-5.75,5.75v4c0,3.17,2.58,5.75,5.75,5.75h4c3.17,0,5.75-2.58,5.75-5.75v-5.85l3.5-3.5c.33-.33,.51-.77,.51-1.24s-.18-.91-.51-1.24Zm-4.78,5.13h0l-5.89,5.89s-.11,.07-.18,.07h-1.41c-.14,0-.25-.11-.25-.25v-1.41c0-.07,.03-.13,.07-.18l7.66-7.66,1.77,1.77-1.77,1.77Zm-.22,6.69c0,2.34-1.91,4.25-4.25,4.25h-4c-2.34,0-4.25-1.91-4.25-4.25v-4c0-2.34,1.91-4.25,4.25-4.25h4.37l-4.62,4.62c-.33,.33-.51,.77-.51,1.24v1.41c0,.96,.79,1.75,1.75,1.75h1.41c.46,0,.91-.19,1.24-.51l4.61-4.61v4.35Zm3.94-10.41l-.88,.88-1.77-1.77,.88-.88s.11-.07,.18-.07,.13,.02,.18,.07l1.41,1.41c.06,.06,.07,.14,.07,.18s0,.11-.07,.18Z"/></g></svg>