<?xml version="1.0" encoding="UTF-8"?><svg fill="currentColor" xmlns="http://www.w3.org/2000/svg" viewBox="0 0 24 24"><g id="o"><g><path d="M18,11.25c-.31,0-.61,.04-.9,.12-.98-1.9-2.93-3.12-5.1-3.12s-4.12,1.23-5.1,3.12c-.29-.07-.59-.12-.9-.12-2.07,0-3.75,1.68-3.75,3.75s1.68,3.75,3.75,3.75h12c2.07,0,3.75-1.68,3.75-3.75s-1.68-3.75-3.75-3.75Z"/><path d="M17.86,9.75s.09,0,.14,0c.91,0,1.76,.25,2.51,.67,.14-.46,.24-.93,.24-1.42,0-2.62-2.13-4.75-4.75-4.75-1.8,0-3.36,1.02-4.16,2.51,.05,0,.11,0,.16,0,2.35,0,4.51,1.13,5.86,3Z"/></g></g></svg>