<?xml version="1.0" encoding="UTF-8"?><svg fill="currentColor" xmlns="http://www.w3.org/2000/svg" viewBox="0 0 24 24"><g id="m"><g><path d="M18,14.25c-.31,0-.61,.04-.9,.12-.98-1.9-2.93-3.12-5.1-3.12s-4.12,1.23-5.1,3.12c-.29-.07-.59-.12-.9-.12-2.07,0-3.75,1.68-3.75,3.75s1.68,3.75,3.75,3.75h12c2.07,0,3.75-1.68,3.75-3.75s-1.68-3.75-3.75-3.75Z"/><path d="M15.95,6.8c.19,0,.38-.07,.53-.22l.71-.71c.29-.29,.29-.77,0-1.06s-.77-.29-1.06,0l-.71,.71c-.29,.29-.29,.77,0,1.06,.15,.15,.34,.22,.53,.22Z"/><path d="M5.52,6.58c.15,.15,.34,.22,.53,.22s.38-.07,.53-.22c.29-.29,.29-.77,0-1.06l-.71-.71c-.29-.29-.77-.29-1.06,0s-.29,.77,0,1.06l.71,.71Z"/><path d="M11,4.75c.41,0,.75-.34,.75-.75v-1c0-.41-.34-.75-.75-.75s-.75,.34-.75,.75v1c0,.41,.34,.75,.75,.75Z"/><path d="M3,11.75h1c.41,0,.75-.34,.75-.75s-.34-.75-.75-.75h-1c-.41,0-.75,.34-.75,.75s.34,.75,.75,.75Z"/><path d="M18,11.75h1c.41,0,.75-.34,.75-.75s-.34-.75-.75-.75h-1c-.41,0-.75,.34-.75,.75s.34,.75,.75,.75Z"/><path d="M6.46,12.35c1.36-1.63,3.36-2.6,5.54-2.6,1.35,0,2.63,.38,3.74,1.06-.05-1.17-.52-2.3-1.38-3.16-.9-.9-2.09-1.39-3.36-1.39s-2.46,.49-3.36,1.39c-1.27,1.27-1.66,3.09-1.18,4.71Z"/></g></g></svg>