<?xml version="1.0" encoding="UTF-8"?><svg fill="currentColor" xmlns="http://www.w3.org/2000/svg" viewBox="0 0 24 24"><g id="b"><path d="M18,7.25c-.31,0-.61,.04-.9,.12-.98-1.9-2.93-3.12-5.1-3.12s-4.12,1.23-5.1,3.12c-.29-.07-.59-.12-.9-.12-2.07,0-3.75,1.68-3.75,3.75s1.68,3.75,3.75,3.75h4.6l-1.22,1.83c-.15,.23-.17,.53-.04,.77,.13,.24,.38,.4,.66,.4h1.6l-1.22,1.83c-.23,.34-.14,.81,.21,1.04,.13,.08,.27,.13,.42,.13,.24,0,.48-.12,.63-.33l2-3c.15-.23,.17-.53,.04-.77-.13-.24-.38-.4-.66-.4h-1.6l1-1.5h5.6c2.07,0,3.75-1.68,3.75-3.75s-1.68-3.75-3.75-3.75Z"/></g></svg>