<?xml version="1.0" encoding="UTF-8"?><svg fill="currentColor" xmlns="http://www.w3.org/2000/svg" viewBox="0 0 24 24"><g id="g"><g><path d="M19,16.25c-.16,0-.31,.03-.47,.05-.72-1.26-2.06-2.05-3.53-2.05s-2.82,.8-3.54,2.05c-.15-.03-.31-.05-.46-.05-1.52,0-2.75,1.23-2.75,2.75s1.23,2.75,2.75,2.75h8c1.52,0,2.75-1.23,2.75-2.75s-1.23-2.75-2.75-2.75Z"/><path d="M15,12.75c1.54,0,2.99,.65,4.03,1.74,.47-1.09,.72-2.27,.72-3.49,0-4.83-3.92-8.75-8.75-8.75S2.25,6.17,2.25,11c0,3.26,1.79,6.15,4.53,7.66,.17-2.09,1.84-3.76,3.93-3.9,1.05-1.26,2.62-2.01,4.28-2.01Z"/></g></g></svg>