<?xml version="1.0" encoding="UTF-8"?><svg fill="currentColor" xmlns="http://www.w3.org/2000/svg" viewBox="0 0 24 24"><g id="n"><g><path d="M18,12.25c-.31,0-.61,.04-.9,.12-.98-1.9-2.93-3.12-5.1-3.12s-4.12,1.23-5.1,3.12c-.29-.07-.59-.12-.9-.12-2.07,0-3.75,1.68-3.75,3.75s1.68,3.75,3.75,3.75h12c2.07,0,3.75-1.68,3.75-3.75s-1.68-3.75-3.75-3.75Z"/><path d="M17.86,10.75s.09,0,.14,0c1.13,0,2.18,.37,3.03,.98,.27-.49,.49-1.02,.6-1.58,.04-.22,0-.44-.15-.61s-.34-.28-.56-.29c-.35-.01-2.14-.16-3.34-1.71-1.09-1.41-.93-2.97-.85-3.42,.04-.22-.03-.44-.17-.61s-.35-.27-.57-.27c-2.81,0-5.15,2.03-5.65,4.69,.53-.12,1.08-.19,1.65-.19,2.35,0,4.51,1.13,5.86,3Z"/></g></g></svg>