<?xml version="1.0" encoding="UTF-8"?><svg fill="currentColor" xmlns="http://www.w3.org/2000/svg" viewBox="0 0 24 24"><g id="f"><path d="M18,7.25c-.31,0-.61,.04-.9,.12-.98-1.9-2.93-3.12-5.1-3.12s-4.12,1.23-5.1,3.12c-.29-.07-.59-.12-.9-.12-2.07,0-3.75,1.68-3.75,3.75s1.68,3.75,3.75,3.75h1.25v5.25c0,.41,.34,.75,.75,.75s.75-.34,.75-.75v-5.25h2.5v3.25c0,.41,.34,.75,.75,.75s.75-.34,.75-.75v-3.25h2.5v5.25c0,.41,.34,.75,.75,.75s.75-.34,.75-.75v-5.25h1.25c2.07,0,3.75-1.68,3.75-3.75s-1.68-3.75-3.75-3.75Z"/></g></svg>