<?xml version="1.0" encoding="UTF-8"?><svg fill="currentColor" xmlns="http://www.w3.org/2000/svg" viewBox="0 0 24 24"><g id="q"><g><path d="M9.75,13c0-1.24,1.01-2.25,2.25-2.25s2.25,1.01,2.25,2.25c0,.41,.34,.75,.75,.75h2.25v-.75c0-2.9-2.36-5.25-5.25-5.25s-5.25,2.35-5.25,5.25v.75h2.25c.41,0,.75-.34,.75-.75Z"/><path d="M12,3.25C6.62,3.25,2.25,7.62,2.25,13c0,.41,.34,.75,.75,.75h2.25v-.75c0-3.72,3.03-6.75,6.75-6.75s6.75,3.03,6.75,6.75v.75h2.25c.41,0,.75-.34,.75-.75,0-5.38-4.37-9.75-9.75-9.75Z"/><path d="M19,15.25H5c-.41,0-.75,.34-.75,.75s.34,.75,.75,.75h14c.41,0,.75-.34,.75-.75s-.34-.75-.75-.75Z"/><path d="M16,18.25H8c-.41,0-.75,.34-.75,.75s.34,.75,.75,.75h8c.41,0,.75-.34,.75-.75s-.34-.75-.75-.75Z"/></g></g></svg>