<?xml version="1.0" encoding="UTF-8"?><svg fill="currentColor" xmlns="http://www.w3.org/2000/svg" viewBox="0 0 24 24"><g id="t"><g><path d="M8.64,11.64c-1.85,1.85-1.85,4.87,0,6.72,.14,.14,.33,.22,.53,.22h5.66c.2,0,.39-.08,.53-.22,1.85-1.85,1.85-4.87,0-6.72-1.85-1.85-4.87-1.85-6.72,0Z"/><path d="M18.89,8.11c-.29-.29-.77-.29-1.06,0l-1.41,1.41c-.29,.29-.29,.77,0,1.06,.15,.15,.34,.22,.53,.22s.38-.07,.53-.22l1.41-1.41c.29-.29,.29-.77,0-1.06Z"/><path d="M7.58,9.52l-1.41-1.41c-.29-.29-.77-.29-1.06,0s-.29,.77,0,1.06l1.41,1.41c.15,.15,.34,.22,.53,.22s.38-.07,.53-.22c.29-.29,.29-.77,0-1.06Z"/><path d="M12,8.75c.41,0,.75-.34,.75-.75v-2c0-.41-.34-.75-.75-.75s-.75,.34-.75,.75v2c0,.41,.34,.75,.75,.75Z"/><path d="M21,14.25h-2c-.41,0-.75,.34-.75,.75s.34,.75,.75,.75h2c.41,0,.75-.34,.75-.75s-.34-.75-.75-.75Z"/><path d="M5,14.25H3c-.41,0-.75,.34-.75,.75s.34,.75,.75,.75h2c.41,0,.75-.34,.75-.75s-.34-.75-.75-.75Z"/></g></g></svg>