<?xml version="1.0" encoding="UTF-8"?><svg fill="currentColor" xmlns="http://www.w3.org/2000/svg" viewBox="0 0 24 24"><g id="l"><g><path d="M18,5.25c-.31,0-.61,.04-.9,.12-.98-1.9-2.93-3.12-5.1-3.12s-4.12,1.23-5.1,3.12c-.29-.07-.59-.12-.9-.12-2.07,0-3.75,1.68-3.75,3.75s1.68,3.75,3.75,3.75h12c2.07,0,3.75-1.68,3.75-3.75s-1.68-3.75-3.75-3.75Z"/><path d="M18,14.25h-1c-.41,0-.75,.34-.75,.75s.34,.75,.75,.75h1c.14,0,.25,.11,.25,.25s-.11,.25-.25,.25H8c-.41,0-.75,.34-.75,.75s.34,.75,.75,.75h10c.96,0,1.75-.79,1.75-1.75s-.79-1.75-1.75-1.75Z"/><path d="M10,19.25H4c-.41,0-.75,.34-.75,.75s.34,.75,.75,.75h6c.41,0,.75-.34,.75-.75s-.34-.75-.75-.75Z"/><path d="M16,19.25h-3c-.41,0-.75,.34-.75,.75s.34,.75,.75,.75h3c.41,0,.75-.34,.75-.75s-.34-.75-.75-.75Z"/></g></g></svg>