<svg fill="currentColor" xmlns="http://www.w3.org/2000/svg" viewBox="0 0 32 32"><g id="billboard"><path d="M27.73,6H26V5h1a1,1,0,0,0,0-2H23a1,1,0,0,0,0,2h1V6H17V5h1a1,1,0,0,0,0-2H14a1,1,0,0,0,0,2h1V6H8V5H9A1,1,0,0,0,9,3H5A1,1,0,0,0,5,5H6V6H4.27A2.27,2.27,0,0,0,2,8.27V18.73A2.27,2.27,0,0,0,4.27,21H10v.29A2.72,2.72,0,0,0,12.71,24H13v5a1,1,0,0,0,2,0V24h2v5a1,1,0,0,0,2,0V24h.29A2.72,2.72,0,0,0,22,21.29V21h5.73A2.27,2.27,0,0,0,30,18.73V8.27A2.27,2.27,0,0,0,27.73,6ZM20,21.29a.71.71,0,0,1-.71.71H12.71a.71.71,0,0,1-.71-.71V21h8Zm8-2.56a.27.27,0,0,1-.27.27H4.27A.27.27,0,0,1,4,18.73V8.27A.27.27,0,0,1,4.27,8H27.73a.27.27,0,0,1,.27.27Z"/><path d="M16.51,12.14l-5-3a1,1,0,0,0-1,0l-5,3a1,1,0,0,0,1,1.72L7,13.57v3A1.47,1.47,0,0,0,8.47,18h5.06A1.47,1.47,0,0,0,15,16.53v-3l.49.29A1,1,0,0,0,16,14a1,1,0,0,0,.51-1.86ZM13,16H9V12.37l2-1.2,2,1.2Z"/><path d="M26,11H19a1,1,0,0,0,0,2h7a1,1,0,0,0,0-2Z"/><path d="M26,14H19a1,1,0,0,0,0,2h7a1,1,0,0,0,0-2Z"/></g></svg>