<svg fill="currentColor" xmlns="http://www.w3.org/2000/svg" viewBox="0 0 32 32"><g id="camera"><path d="M29.53,11.15a1,1,0,0,0-1,0L24.76,13H22v-.93A2.07,2.07,0,0,0,19.93,10H19V8.22A2.23,2.23,0,0,0,16.78,6H12.61a2.24,2.24,0,0,0-1.78.89L8.5,10H4.07A2.07,2.07,0,0,0,2,12.07v8.86a2.06,2.06,0,0,0,1.22,1.88l.5,1.52A2.44,2.44,0,0,0,6,26H10a2.44,2.44,0,0,0,2.31-1.67L12.72,23h1.47l.25,1.22A2,2,0,0,0,16.27,26h2.46a2,2,0,0,0,1.83-1.78l.3-1.45A2.08,2.08,0,0,0,22,20.93V20h2.76l3.79,1.89A1,1,0,0,0,29,22a1,1,0,0,0,.53-.15A1,1,0,0,0,30,21V12A1,1,0,0,0,29.53,11.15ZM12.43,8.09A.23.23,0,0,1,12.61,8h4.17a.22.22,0,0,1,.22.22V10H11ZM4,12.07A.07.07,0,0,1,4.07,12H19.93a.07.07,0,0,1,.07.07v8.86a.07.07,0,0,1-.07.07H4.07A.07.07,0,0,1,4,20.93ZM10.38,23.7A.44.44,0,0,1,10,24H6a.44.44,0,0,1-.41-.3L5.39,23h5.22Zm8.22.11a.85.85,0,0,1-.06.19H16.46a.85.85,0,0,1-.06-.19L16.23,23h2.54ZM22,15h2v3H22Zm6,4.38-2-1V14.62l2-1Z"/><path d="M8,20h8a1,1,0,0,0,1-1V14a1,1,0,0,0-1-1H8a1,1,0,0,0-1,1v5A1,1,0,0,0,8,20Zm1-5h6v3H9Z"/></g></svg>