<svg fill="currentColor" xmlns="http://www.w3.org/2000/svg" viewBox="0 0 32 32"><g id="car_key" data-name="car key"><path d="M24.41,2H19.59A5.6,5.6,0,0,0,14,7H10.91A4.91,4.91,0,0,0,6,11.91v2.27A3,3,0,0,0,4,17v0a2.3,2.3,0,0,0-2,2.28v8.38A2.32,2.32,0,0,0,4.31,30H9.69A2.32,2.32,0,0,0,12,27.69V19.31A2.3,2.3,0,0,0,10,17v0a3,3,0,0,0-2-2.82V11.91A2.91,2.91,0,0,1,10.91,9H14v3.71A2.3,2.3,0,0,0,16.29,15H18V26a1,1,0,0,0,.29.71l3,3a1,1,0,0,0,1.42,0l3-3a1,1,0,0,0,.18-1.16L25.12,24l.77-1.55a1,1,0,0,0,0-.9L25.12,20l.77-1.55A1,1,0,0,0,26,18V15h1.71A2.3,2.3,0,0,0,30,12.71V7.59A5.6,5.6,0,0,0,24.41,2ZM7,16a1,1,0,0,1,1,1H6A1,1,0,0,1,7,16Zm3,11.69a.31.31,0,0,1-.31.31H4.31A.31.31,0,0,1,4,27.69V19.31A.31.31,0,0,1,4.31,19H9.69a.31.31,0,0,1,.31.31Zm14-9.93-.89,1.79a1,1,0,0,0,0,.9L23.88,22l-.77,1.55a1,1,0,0,0,0,.9l.67,1.35L22,27.59l-2-2V15h4Zm4-5.05a.29.29,0,0,1-.29.29H16.29a.29.29,0,0,1-.29-.29V9h2v1a1,1,0,0,0,1,1h6a1,1,0,0,0,1-1V8.79A3.79,3.79,0,0,0,22.21,5h-.42a3.77,3.77,0,0,0-3.37,2.1A1,1,0,0,0,18,7H16.06a3.58,3.58,0,0,1,3.53-3h4.82A3.59,3.59,0,0,1,28,7.59ZM20,9V8.79A1.79,1.79,0,0,1,21.79,7h.42A1.79,1.79,0,0,1,24,8.79V9Z"/></g></svg>