<svg fill="currentColor" xmlns="http://www.w3.org/2000/svg" viewBox="0 0 32 32"><g id="car"><path d="M24.15,13h-.67L20.21,8.91A2.4,2.4,0,0,0,18.31,8H9.17A2.44,2.44,0,0,0,6.79,10L6.18,13H5.12A3.12,3.12,0,0,0,2,16.12V19.8A2.21,2.21,0,0,0,4.2,22H6.05A3.48,3.48,0,0,0,13,22h5.1A3.48,3.48,0,0,0,25,22H27.8A2.21,2.21,0,0,0,30,19.8v-.95A5.85,5.85,0,0,0,24.15,13Zm-5.5-2.84L20.92,13h-6.7l.6-3h3.49A.44.44,0,0,1,18.65,10.16ZM9.17,10h3.61l-.6,3h-4l.53-2.66A.43.43,0,0,1,9.17,10ZM9.5,23A1.5,1.5,0,1,1,11,21.5,1.5,1.5,0,0,1,9.5,23Zm12,0A1.5,1.5,0,1,1,23,21.5,1.5,1.5,0,0,1,21.5,23ZM28,19.8a.2.2,0,0,1-.2.2H24.65a3.48,3.48,0,0,0-6.3,0h-5.7a3.48,3.48,0,0,0-6.3,0H4.2a.2.2,0,0,1-.2-.2V18H5a1,1,0,0,0,0-2H4a1.12,1.12,0,0,1,1.1-1h19a3.87,3.87,0,0,1,2.57,1H26a1,1,0,0,0,0,2h1.9a4,4,0,0,1,.1.85Z"/><path d="M16,16H15a1,1,0,0,0,0,2h1a1,1,0,0,0,0-2Z"/></g></svg>