<svg fill="currentColor" xmlns="http://www.w3.org/2000/svg" viewBox="0 0 32 32"><g id="cheque"><path d="M27.11,15H23.45l5.68-8.53a2.08,2.08,0,0,0-.58-2.91L26.81,2.4A2.1,2.1,0,0,0,23.9,3L16.17,14.57A1,1,0,0,0,16,15H4.89A2.9,2.9,0,0,0,2,17.89v8.22A2.9,2.9,0,0,0,4.89,29H27.11A2.9,2.9,0,0,0,30,26.11V17.89A2.9,2.9,0,0,0,27.11,15ZM18,15.43,25.56,4.09a.1.1,0,0,1,.14,0l1.74,1.16,0,.15L19.91,16.7,18,17.5ZM4,26.11V17.89A.89.89,0,0,1,4.89,17H6V27H4.89A.89.89,0,0,1,4,26.11Zm24,0a.89.89,0,0,1-.89.89H8V17h8v2a1,1,0,0,0,1.38.92L21,18.43a1,1,0,0,0,.45-.36L22.12,17h5a.89.89,0,0,1,.89.89Z"/><path d="M25,21H11a1,1,0,0,0,0,2H25a1,1,0,0,0,0-2Z"/><path d="M25,24H11a1,1,0,0,0,0,2H25a1,1,0,0,0,0-2Z"/><path d="M11,20h2a1,1,0,0,0,0-2H11a1,1,0,0,0,0,2Z"/></g></svg>