<svg fill="currentColor" xmlns="http://www.w3.org/2000/svg" viewBox="0 0 32 32"><g id="dentification_card" data-name="dentification card"><path d="M27.45,6H4.55A2.56,2.56,0,0,0,2,8.55v14.9A2.56,2.56,0,0,0,4.55,26h22.9A2.56,2.56,0,0,0,30,23.45V8.55A2.56,2.56,0,0,0,27.45,6ZM11,15a2,2,0,1,1,2-2A2,2,0,0,1,11,15Zm3,6v3H8V21a3,3,0,0,1,6,0Zm14,2.45a.55.55,0,0,1-.55.55H16V21a5,5,0,0,0-3-4.57,4,4,0,1,0-4,0A5,5,0,0,0,6,21v3H4.55A.55.55,0,0,1,4,23.45V8.55A.55.55,0,0,1,4.55,8h22.9a.55.55,0,0,1,.55.55Z"/><path d="M25,13H18a1,1,0,0,0,0,2h7a1,1,0,0,0,0-2Z"/><path d="M25,17H18a1,1,0,0,0,0,2h7a1,1,0,0,0,0-2Z"/></g></svg>