<svg fill="currentColor" xmlns="http://www.w3.org/2000/svg" viewBox="0 0 32 32"><g id="discount"><path d="M29.52,10.15l-13-8a1,1,0,0,0-1,0l-13,8a1,1,0,0,0,1,1.7l.64-.39L5.88,27H4a1,1,0,0,0,0,2H28a1,1,0,0,0,0-2H26.12l1.72-15.54.64.39A1,1,0,0,0,29,12a1,1,0,0,0,.52-1.85ZM24.1,27H7.9L6,10.3,16,4.17,26,10.3Z"/><path d="M9,17a7,7,0,1,0,7-7A7,7,0,0,0,9,17Zm12,0a5,5,0,1,1-5-5A5,5,0,0,1,21,17Z"/><path d="M13.29,19.71a1,1,0,0,0,1.42,0l4-4a1,1,0,0,0-1.42-1.42l-4,4A1,1,0,0,0,13.29,19.71Z"/><path d="M14,16a1,1,0,0,0,0-2h0a1,1,0,0,0,0,2Z"/><path d="M18,18h0a1,1,0,1,0,1,1A1,1,0,0,0,18,18Z"/></g></svg>