<svg fill="currentColor" xmlns="http://www.w3.org/2000/svg" viewBox="0 0 32 32"><g id="dress"><path d="M24.61,2.21A1,1,0,0,0,23.75,2,31.52,31.52,0,0,1,8.25,2,1,1,0,0,0,7,3V8a1,1,0,0,0,.39.79A1,1,0,0,0,8,9a1.07,1.07,0,0,0,.25,0c.69-.18,1.39-.32,2.1-.45l.43,3a6.23,6.23,0,0,1-.22,2.65A14.42,14.42,0,0,0,10,18.36a16.24,16.24,0,0,0,.47,3.24A24.55,24.55,0,0,1,11,24.82a22.42,22.42,0,0,1,.05,3.38,1.68,1.68,0,0,0,.46,1.26,1.71,1.71,0,0,0,1.24.54h6.49A1.71,1.71,0,0,0,21,28.2,22.42,22.42,0,0,1,21,24.82a21.59,21.59,0,0,1,.54-3.22A15.58,15.58,0,0,0,22,18.36a14,14,0,0,0-.55-4.22,6.23,6.23,0,0,1-.22-2.65l.42-3c.71.13,1.41.27,2.1.45A1,1,0,0,0,25,8V3A1,1,0,0,0,24.61,2.21ZM19.52,14.69A12,12,0,0,1,20,18.31a13.4,13.4,0,0,1-.42,2.86A25.47,25.47,0,0,0,19,24.64,25.1,25.1,0,0,0,18.93,28H13.07A23.53,23.53,0,0,0,13,24.64a25.26,25.26,0,0,0-.58-3.47A14.06,14.06,0,0,1,12,18.31a12,12,0,0,1,.49-3.62,8.32,8.32,0,0,0,.27-3.48l-.43-3a32.17,32.17,0,0,1,7.34,0l-.42,3A8.32,8.32,0,0,0,19.52,14.69ZM23,6.74a33.7,33.7,0,0,0-14,0V4.26a33.7,33.7,0,0,0,14,0Z"/></g></svg>