<svg fill="currentColor" xmlns="http://www.w3.org/2000/svg" viewBox="0 0 32 32"><g id="give_key" data-name="give key"><path d="M4.29,12.71A1,1,0,0,0,5,13h9.05a1,1,0,0,0,.95.75h.83a1.17,1.17,0,0,1,.9.45,7.38,7.38,0,0,0,5.8,2.8,8.08,8.08,0,0,0,1.2-.09A7.51,7.51,0,0,0,28.1,4.5a7.45,7.45,0,0,0-11.4.32,1.1,1.1,0,0,1-.87.43H15a1,1,0,0,0-.95.75H13a1,1,0,0,0-.45.11L11,6.88,9.45,6.11a1,1,0,0,0-.9,0L7,6.88,5.45,6.11a1,1,0,0,0-1.28.34l-2,3a1,1,0,0,0,.12,1.26Zm14-6.64A5.41,5.41,0,0,1,22.54,4a5.5,5.5,0,0,1,.88,10.93,5.42,5.42,0,0,1-5.13-2h0A3.18,3.18,0,0,0,16,11.75V7.25A3.1,3.1,0,0,0,18.27,6.07ZM5.34,8.29l1.21.6a1,1,0,0,0,.9,0L9,8.12l1.55.77a1,1,0,0,0,.9,0L13.24,8H14v3H5.41L4.29,9.87Z"/><path d="M26.15,20.81l-4,2.59A4.11,4.11,0,0,0,18.4,21H17.05a1.18,1.18,0,0,1-.69-.22L13.93,19a5.38,5.38,0,0,0-3.15-1H7a1,1,0,0,0-1-1H3a1,1,0,0,0-1,1v9a1,1,0,0,0,1,1H6a1,1,0,0,0,.68-.27l1.94,1.41a4.64,4.64,0,0,0,2.67.86h9.06A4.64,4.64,0,0,0,23,29.14l6-4.34a2.41,2.41,0,0,0,.27-3.69A2.53,2.53,0,0,0,26.15,20.81ZM5,26H4V19H5Zm22.82-2.82-6,4.34a2.55,2.55,0,0,1-1.49.48H11.29a2.55,2.55,0,0,1-1.49-.48l-2.8-2V20h3.78a3.36,3.36,0,0,1,2,.64l2.43,1.76a3.2,3.2,0,0,0,1.87.6H18.4a2.13,2.13,0,0,1,1.8,1H14.76a5.57,5.57,0,0,1-2.45-.56l-.71-.34a1,1,0,0,0-.87,1.8l.71.34a7.58,7.58,0,0,0,3.32.76h5.81a4.14,4.14,0,0,0,2.25-.66l4.42-2.85a.53.53,0,0,1,.63.06.43.43,0,0,1,.13.32A.44.44,0,0,1,27.82,23.18Z"/><path d="M24,13a3.29,3.29,0,0,0,3-3.5A3.29,3.29,0,0,0,24,6a3.29,3.29,0,0,0-3,3.5A3.29,3.29,0,0,0,24,13Zm0-5c.53,0,1,.7,1,1.5S24.53,11,24,11s-1-.7-1-1.5S23.47,8,24,8Z"/></g></svg>