<svg fill="currentColor" xmlns="http://www.w3.org/2000/svg" viewBox="0 0 32 32"><g id="home"><path d="M29.52,10.15l-13-8a1,1,0,0,0-1,0l-13,8a1,1,0,0,0,1,1.7l.64-.39L5.88,27H4a1,1,0,0,0,0,2H28a1,1,0,0,0,0-2H26.12l1.72-15.54.64.39A1,1,0,0,0,29,12a1,1,0,0,0,.52-1.85ZM13,27V19.43a.43.43,0,0,1,.43-.43h5.14a.43.43,0,0,1,.43.43V27Zm11.1,0H21V19.43A2.43,2.43,0,0,0,18.57,17H13.43A2.43,2.43,0,0,0,11,19.43V27H7.9L6,10.3,16,4.17,26,10.3Z"/><path d="M12,11a4,4,0,1,0,4-4A4,4,0,0,0,12,11Zm6,0a2,2,0,1,1-2-2A2,2,0,0,1,18,11Z"/></g></svg>