<svg fill="currentColor" xmlns="http://www.w3.org/2000/svg" viewBox="0 0 32 32"><g id="house"><path d="M29,28H27V19.84a1.7,1.7,0,0,0,1-1.55V16.71a1.7,1.7,0,0,0-1-1.55V6.84a1.7,1.7,0,0,0,1-1.55V3.71A1.72,1.72,0,0,0,26.29,2H5.71A1.72,1.72,0,0,0,4,3.71V5.29A1.7,1.7,0,0,0,5,6.84v8.32a1.7,1.7,0,0,0-1,1.55v1.58a1.7,1.7,0,0,0,1,1.55V28H3a1,1,0,0,0,0,2H29a1,1,0,0,0,0-2ZM6,17H26v1H6ZM7,7h8v8H7ZM25,7v8H17V7ZM6,4H26V5H6ZM19,28H13V24.32a.32.32,0,0,1,.32-.32h5.36a.32.32,0,0,1,.32.32Zm2,0V24.32A2.32,2.32,0,0,0,18.68,22H13.32A2.32,2.32,0,0,0,11,24.32V28H7V20H25v8Z"/></g></svg>