<svg fill="currentColor" xmlns="http://www.w3.org/2000/svg" viewBox="0 0 32 32"><g id="invoice"><path d="M24.23,2H11.77A1.77,1.77,0,0,0,10,3.77V6H7.77A1.77,1.77,0,0,0,6,7.77V28.23A1.77,1.77,0,0,0,7.77,30H20.23A1.77,1.77,0,0,0,22,28.23V26h2.23A1.77,1.77,0,0,0,26,24.23V3.77A1.77,1.77,0,0,0,24.23,2ZM20,28H8V8H20Zm4-4H22V7.77A1.77,1.77,0,0,0,20.23,6H12V4H24Z"/><path d="M18,11H10a1,1,0,0,0,0,2h8a1,1,0,0,0,0-2Z"/><path d="M18,15H10a1,1,0,0,0,0,2h8a1,1,0,0,0,0-2Z"/><path d="M18,19H10a1,1,0,0,0,0,2h8a1,1,0,0,0,0-2Z"/><path d="M16,23H10a1,1,0,0,0,0,2h6a1,1,0,0,0,0-2Z"/></g></svg>