<svg fill="currentColor" xmlns="http://www.w3.org/2000/svg" viewBox="0 0 32 32"><g id="key"><path d="M21.5,3.9A7.51,7.51,0,0,0,9.09,8.27a7.39,7.39,0,0,0,2.71,7,1.17,1.17,0,0,1,.45.9V17A1,1,0,0,0,13,18V27a1,1,0,0,0,.29.71l2,2A1,1,0,0,0,16,30a1,1,0,0,0,.55-.17l3-2a1,1,0,0,0,.34-1.28L19.12,25l.77-1.55a1,1,0,0,0,0-.9L19.12,21l.77-1.55A1,1,0,0,0,20,19V18a1,1,0,0,0,.75-.95v-.83a1.1,1.1,0,0,1,.43-.87A7.45,7.45,0,0,0,21.5,3.9ZM18,18.76l-.89,1.79a1,1,0,0,0,0,.9L17.88,23l-.77,1.55a1,1,0,0,0,0,.9l.6,1.21-1.58,1.05L15,26.59V18h3Zm1.93-5A3.1,3.1,0,0,0,18.75,16h-4.5a3.18,3.18,0,0,0-1.2-2.29,5.42,5.42,0,0,1-2-5.13A5.5,5.5,0,0,1,22,9.46,5.41,5.41,0,0,1,19.93,13.73Z"/><path d="M16.5,5A3.29,3.29,0,0,0,13,8a3.29,3.29,0,0,0,3.5,3A3.29,3.29,0,0,0,20,8,3.29,3.29,0,0,0,16.5,5Zm0,4C15.7,9,15,8.53,15,8s.7-1,1.5-1S18,7.47,18,8,17.3,9,16.5,9Z"/></g></svg>