<svg fill="currentColor" xmlns="http://www.w3.org/2000/svg" viewBox="0 0 32 32"><g id="location"><path d="M18.5,15.11A5.5,5.5,0,0,0,19,6.23a5.55,5.55,0,0,0-4.64-1.11,5.51,5.51,0,0,0-1.82,10h0a1.11,1.11,0,0,1,.49.94v6.43A2.5,2.5,0,0,0,18,23H19a1,1,0,0,0,0-2H18V20h1a1,1,0,0,0,0-2H18V16.06A1.13,1.13,0,0,1,18.5,15.11ZM16,22.49a.5.5,0,1,1-1,0V16.06a3.1,3.1,0,0,0-1.4-2.62,3.5,3.5,0,1,1,3.81,0A3.11,3.11,0,0,0,16,16.06Z"/><path d="M25.3,7A11.12,11.12,0,0,0,16,2,11.25,11.25,0,0,0,6.79,6.83,10.85,10.85,0,0,0,5.5,16.93c.18.48.37,1,.58,1.46a39.54,39.54,0,0,0,6.08,10,4.5,4.5,0,0,0,6.63.26,34.68,34.68,0,0,0,7.12-10.26c.13-.28.25-.56.37-.83A11.23,11.23,0,0,0,25.3,7Zm-.86,9.82c-.12.26-.23.52-.35.79a32.74,32.74,0,0,1-6.71,9.66,2.57,2.57,0,0,1-3.68-.12,37.42,37.42,0,0,1-5.78-9.52c-.19-.46-.38-.92-.55-1.38A8.9,8.9,0,0,1,8.43,8,9.25,9.25,0,0,1,16,4a9,9,0,0,1,7.62,4.08A9.24,9.24,0,0,1,24.44,16.8Z"/></g></svg>