<svg fill="currentColor" xmlns="http://www.w3.org/2000/svg" viewBox="0 0 32 32"><g id="locker"><path d="M6,7h7a1,1,0,0,0,0-2H6A1,1,0,0,0,6,7Z"/><path d="M13,9h0a1,1,0,1,0,1,1A1,1,0,0,0,13,9Z"/><path d="M27.8,2H4.2A2.21,2.21,0,0,0,2,4.2V27.8A2.21,2.21,0,0,0,4.2,30H27.8A2.21,2.21,0,0,0,30,27.8V4.2A2.21,2.21,0,0,0,27.8,2ZM28,4.2V15H17V4H27.8A.2.2,0,0,1,28,4.2ZM4.2,4H15V15H4V4.2A.2.2,0,0,1,4.2,4ZM4,27.8V17H15V28H4.2A.2.2,0,0,1,4,27.8Zm23.8.2H17V17H28V27.8A.2.2,0,0,1,27.8,28Z"/><path d="M19,7h7a1,1,0,0,0,0-2H19a1,1,0,0,0,0,2Z"/><path d="M26,9h0a1,1,0,1,0,1,1A1,1,0,0,0,26,9Z"/><path d="M14,19a1,1,0,0,0-1-1H6a1,1,0,0,0,0,2h7A1,1,0,0,0,14,19Z"/><path d="M13,22h0a1,1,0,1,0,1,1A1,1,0,0,0,13,22Z"/><path d="M27,19a1,1,0,0,0-1-1H19a1,1,0,0,0,0,2h7A1,1,0,0,0,27,19Z"/><path d="M26,22h0a1,1,0,1,0,1,1A1,1,0,0,0,26,22Z"/></g></svg>