<svg fill="currentColor" xmlns="http://www.w3.org/2000/svg" viewBox="0 0 32 32"><g id="money"><path d="M24.77,4a5.5,5.5,0,0,0-8.88.47,1.13,1.13,0,0,1-1,.5H13V4a1,1,0,0,0-2,0V5H10V4A1,1,0,0,0,8,4v1a2.5,2.5,0,0,0,.51,5h6.43a1.11,1.11,0,0,1,.94.49A5.52,5.52,0,0,0,20.52,13a4.88,4.88,0,0,0,.85-.07,5.47,5.47,0,0,0,4.51-4.26A5.55,5.55,0,0,0,24.77,4Zm-.85,4.23A3.5,3.5,0,0,1,17.56,9.4,3.1,3.1,0,0,0,14.94,8H8.51a.5.5,0,1,1,0-1h6.43a3.14,3.14,0,0,0,2.63-1.41,3.5,3.5,0,0,1,6.35,2.67Z"/><path d="M21.87,18H8.13A2.14,2.14,0,0,0,6,20.13v7.74A2.14,2.14,0,0,0,8.13,30H21.87A2.14,2.14,0,0,0,24,27.87V20.13A2.14,2.14,0,0,0,21.87,18ZM22,27.87a.13.13,0,0,1-.13.13H8.13A.13.13,0,0,1,8,27.87V20.13A.13.13,0,0,1,8.13,20H21.87a.13.13,0,0,1,.13.13Z"/><path d="M15,21a3,3,0,1,0,3,3A3,3,0,0,0,15,21Zm0,4a1,1,0,1,1,1-1A1,1,0,0,1,15,25Z"/><path d="M10,23h0a1,1,0,1,0,1,1A1,1,0,0,0,10,23Z"/><path d="M20,23h0a1,1,0,1,0,1,1A1,1,0,0,0,20,23Z"/><path d="M6,15a1,1,0,0,0,1-1V11a1,1,0,0,0-1-1H3a1,1,0,0,0,0,2h.67A7.76,7.76,0,0,0,2,16.83v.34a7.81,7.81,0,0,0,1.35,4.39,1,1,0,0,0,.83.44,1,1,0,0,0,.55-.17A1,1,0,0,0,5,20.44a5.86,5.86,0,0,1-1-3.27v-.34a5.81,5.81,0,0,1,1-3.27V14A1,1,0,0,0,6,15Z"/><path d="M30,14.83a7.81,7.81,0,0,0-1.35-4.39,1,1,0,0,0-1.38-.27A1,1,0,0,0,27,11.56a5.86,5.86,0,0,1,1,3.27v.34a5.81,5.81,0,0,1-1,3.27V18a1,1,0,0,0-2,0v3a1,1,0,0,0,1,1h3a1,1,0,0,0,0-2h-.67A7.76,7.76,0,0,0,30,15.17Z"/></g></svg>