<svg fill="currentColor" xmlns="http://www.w3.org/2000/svg" viewBox="0 0 32 32"><g id="motorcycle"><path d="M26.57,17.06l-1.46-2.21a2.64,2.64,0,0,0,.27-.79V14c.21,0,.41.05.62.05a1,1,0,0,0,1-1V8a1,1,0,0,0-1-1,3.91,3.91,0,0,0-3.9,2.77,2.34,2.34,0,0,0-.75,0l-.9-1.4A3.06,3.06,0,0,0,17.88,7H16a1,1,0,0,0,0,2h1.88a1.05,1.05,0,0,1,.89.49L19.71,11a2.18,2.18,0,0,0-.27.65A5.34,5.34,0,0,0,17,11a5,5,0,0,0-4.69,3H5.92A1.91,1.91,0,0,0,4,15.93v1.63A4,4,0,1,0,9.45,23H18a1,1,0,0,0,.61-.2,6.15,6.15,0,0,0,1.19-1.2A6.39,6.39,0,0,0,21,17.89a1,1,0,0,0,.47-.41A4.2,4.2,0,0,0,22,16a2.75,2.75,0,0,0,.56.16l.38,0a2.57,2.57,0,0,0,.62-.08l.84,1.26a4,4,0,1,0,2.2-.3ZM25,9.21v2.58a1.51,1.51,0,0,1-1-1.29A1.51,1.51,0,0,1,25,9.21ZM12,16a4.22,4.22,0,0,0,.48,1.48.76.76,0,0,0,.08.11l-.11.21a.36.36,0,0,1-.32.2H9a.94.94,0,0,0-.3.06A4,4,0,0,0,6,17V16ZM6,23a2,2,0,1,1,2-2A2,2,0,0,1,6,23Zm12.2-2.6a3.47,3.47,0,0,1-.55.6H10a4.09,4.09,0,0,0-.14-1h2.3a2.34,2.34,0,0,0,2.11-1.31l.35-.69H19A4.4,4.4,0,0,1,18.2,20.4ZM14.07,16a2.08,2.08,0,0,1-.07-.5A2.79,2.79,0,0,1,17,13a2.78,2.78,0,0,1,3,2.5,2.07,2.07,0,0,1-.06.5Zm8.76-1.82a.48.48,0,0,1-.33-.2h0l-1.06-1.44a.5.5,0,0,1,.11-.7.46.46,0,0,1,.29-.1h.08a.48.48,0,0,1,.33.2l1.06,1.44a.48.48,0,0,1,.09.37.5.5,0,0,1-.2.33A.53.53,0,0,1,22.83,14.18ZM26,23a2,2,0,1,1,2-2A2,2,0,0,1,26,23Z"/></g></svg>