<svg fill="currentColor" xmlns="http://www.w3.org/2000/svg" viewBox="0 0 32 32"><g id="move"><path d="M27.53,16H23V7.84a1.73,1.73,0,0,0,1-1.56V3.72A1.72,1.72,0,0,0,22.28,2H9.72A1.72,1.72,0,0,0,8,3.72V6.28A1.73,1.73,0,0,0,9,7.84V16H4.47A1.47,1.47,0,0,0,3,17.47V28.53A1.47,1.47,0,0,0,4.47,30H15.53a1.45,1.45,0,0,0,.47-.08,1.45,1.45,0,0,0,.47.08H27.53A1.47,1.47,0,0,0,29,28.53V17.47A1.47,1.47,0,0,0,27.53,16ZM21,18h2v2H21ZM10,4H22V6H10Zm1,4H21v8H11ZM9,18h2v2H9ZM5,18H7v3a1,1,0,0,0,1,1h4a1,1,0,0,0,1-1V18h2V28H5ZM27,28H17V18h2v3a1,1,0,0,0,1,1h4a1,1,0,0,0,1-1V18h2Z"/><path d="M25,25H23a1,1,0,0,0,0,2h2a1,1,0,0,0,0-2Z"/><path d="M13,25H11a1,1,0,0,0,0,2h2a1,1,0,0,0,0-2Z"/><path d="M16,12a3.61,3.61,0,0,0,2.8-1.4,1,1,0,1,0-1.6-1.2,1.5,1.5,0,0,1-2.4,0,1,1,0,0,0-1.6,1.2A3.6,3.6,0,0,0,16,12Z"/></g></svg>