<svg fill="currentColor" xmlns="http://www.w3.org/2000/svg" viewBox="0 0 32 32"><g id="rent"><path d="M27.74,5H20V4.58A2.59,2.59,0,0,0,17.42,2H14.58A2.59,2.59,0,0,0,12,4.58V5H4.26A2.26,2.26,0,0,0,2,7.26v9.48A2.26,2.26,0,0,0,4.26,19H12v9H10a1,1,0,0,0,0,2H22a1,1,0,0,0,0-2H20V19h7.74A2.26,2.26,0,0,0,30,16.74V7.26A2.26,2.26,0,0,0,27.74,5ZM14,4.58A.58.58,0,0,1,14.58,4h2.84a.58.58,0,0,1,.58.58V5H14ZM18,28H14V19h4ZM28,16.74a.26.26,0,0,1-.26.26H4.26A.26.26,0,0,1,4,16.74V7.26A.26.26,0,0,1,4.26,7H27.74a.26.26,0,0,1,.26.26Z"/><path d="M9,8H6A1,1,0,0,0,5,9v6a1,1,0,0,0,2,0V13.8l1.17,1.75A1,1,0,0,0,9,16a.94.94,0,0,0,.55-.17,1,1,0,0,0,.28-1.38L8.87,13H9a1,1,0,0,0,1-1V9A1,1,0,0,0,9,8ZM8,11H7V10H8Z"/><path d="M15,10a1,1,0,0,0,0-2H12a1,1,0,0,0-1,1v6a1,1,0,0,0,1,1h3a1,1,0,0,0,0-2H13V13h2a1,1,0,0,0,0-2H13V10Z"/><path d="M21,8a1,1,0,0,0-1,1v1.76L18.89,8.55A1,1,0,0,0,17.77,8,1,1,0,0,0,17,9v6a1,1,0,0,0,2,0V13.24l1.11,2.21A1,1,0,0,0,21,16a.91.91,0,0,0,.23,0A1,1,0,0,0,22,15V9A1,1,0,0,0,21,8Z"/><path d="M26,8H24a1,1,0,0,0,0,2v5a1,1,0,0,0,2,0V10a1,1,0,0,0,0-2Z"/></g></svg>