<svg fill="currentColor" xmlns="http://www.w3.org/2000/svg" viewBox="0 0 32 32"><g id="signature"><path d="M9,12h7a1,1,0,0,0,0-2H9a1,1,0,0,0,0,2Z"/><path d="M9,16h6a1,1,0,0,0,0-2H9a1,1,0,0,0,0,2Z"/><path d="M9,20h6a1,1,0,0,0,0-2H9a1,1,0,0,0,0,2Z"/><path d="M16,22H9a1,1,0,0,0,0,2h7a1,1,0,0,0,0-2Z"/><path d="M30,4.89a2.07,2.07,0,0,0-.9-1.33L27.32,2.4A2.1,2.1,0,0,0,24.41,3L22,6.6V5.77A1.77,1.77,0,0,0,20.23,4H5.77A1.77,1.77,0,0,0,4,5.77V28.23A1.77,1.77,0,0,0,5.77,30H20.23A1.77,1.77,0,0,0,22,28.23V18s0,0,0,0L29.65,6.47A2.08,2.08,0,0,0,30,4.89ZM6,28V6H20V9.6l-3.32,5a1,1,0,0,0-.17.56V19a1,1,0,0,0,.45.83,1,1,0,0,0,.55.17,1.09,1.09,0,0,0,.39-.08l2.1-.87v9ZM20.42,16.7l-1.91.8V15.43L26.07,4.09a.1.1,0,0,1,.14,0L28,5.22l0,.15Z"/></g></svg>