<svg fill="currentColor" xmlns="http://www.w3.org/2000/svg" viewBox="0 0 32 32"><g id="sky_equipment" data-name="sky equipment"><path d="M5,4A3,3,0,0,0,2,7V9a3,3,0,0,0,2,2.82V25H3a1,1,0,0,0,0,2H4v1a1,1,0,0,0,2,0V27H7a1,1,0,0,0,0-2H6V11.82A3,3,0,0,0,8,9V7A3,3,0,0,0,5,4ZM6,9A1,1,0,0,1,4,9V7A1,1,0,0,1,6,7Z"/><path d="M12,3A3,3,0,0,0,9,6V26a3,3,0,0,0,6,0V6A3,3,0,0,0,12,3ZM11,9h2V23H11Zm1-4a1,1,0,0,1,1,1V7H11V6A1,1,0,0,1,12,5Zm0,22a1,1,0,0,1-1-1V25h2v1A1,1,0,0,1,12,27Z"/><path d="M20,3a3,3,0,0,0-3,3V26a3,3,0,0,0,6,0V6A3,3,0,0,0,20,3ZM19,9h2V23H19Zm1-4a1,1,0,0,1,1,1V7H19V6A1,1,0,0,1,20,5Zm0,22a1,1,0,0,1-1-1V25h2v1A1,1,0,0,1,20,27Z"/><path d="M30,9V7a3,3,0,0,0-6,0V9a3,3,0,0,0,2,2.82V25H25a1,1,0,0,0,0,2h1v1a1,1,0,0,0,2,0V27h1a1,1,0,0,0,0-2H28V11.82A3,3,0,0,0,30,9ZM26,7a1,1,0,0,1,2,0V9a1,1,0,0,1-2,0Z"/></g></svg>