<svg fill="currentColor" xmlns="http://www.w3.org/2000/svg" viewBox="0 0 32 32"><g id="van"><path d="M29.36,12.82,24.5,6.34A3.33,3.33,0,0,0,21.83,5H4.41A2.41,2.41,0,0,0,2,7.41V21.28A2.72,2.72,0,0,0,4.72,24h.33A3.48,3.48,0,0,0,12,24h8.1A3.48,3.48,0,0,0,27,24h.33A2.72,2.72,0,0,0,30,21.28V14.73A3.18,3.18,0,0,0,29.36,12.82ZM27.75,14,17,14.05,17,10h7.8ZM8.5,25A1.5,1.5,0,0,1,7,23.5a1.45,1.45,0,0,1,0-.3A1.5,1.5,0,1,1,8.5,25Zm15,0A1.5,1.5,0,0,1,22,23.5a1.45,1.45,0,0,1,0-.3A1.5,1.5,0,1,1,23.5,25Zm3.78-3h-.63a3.48,3.48,0,0,0-6.3,0h-8.7a3.48,3.48,0,0,0-6.3,0H4.72A.73.73,0,0,1,4,21.28V19h7a1,1,0,0,0,0-2H4V7.41A.42.42,0,0,1,4.41,7H21.83a1.33,1.33,0,0,1,1.07.54l.35.46H17A2,2,0,0,0,15,10v4.1A2,2,0,0,0,17,16H28v1H24a1,1,0,0,0,0,2h4v2.28A.73.73,0,0,1,27.28,22Z"/><path d="M12.05,8H7A2,2,0,0,0,5,10v4.1A2,2,0,0,0,7,16h5.1A2,2,0,0,0,14,14.05V10A2,2,0,0,0,12.05,8ZM12,14l-5,.05L7,10,12,10Z"/></g></svg>