<svg fill="currentColor" xmlns="http://www.w3.org/2000/svg" viewBox="0 0 32 32"><g id="vest"><path d="M27.94,22.67A17.42,17.42,0,0,1,27,17.94a17,17,0,0,1,.94-6.61,1,1,0,0,0-.06-.8,1,1,0,0,0-.62-.5,4.31,4.31,0,0,1-1.63-.81C23.25,7.3,24,3.35,24,3.18a1,1,0,0,0-.21-.82A1,1,0,0,0,23,2H20a1,1,0,0,0-.41.1l-.1.06a1.1,1.1,0,0,0-.23.2s0,0-.05,0A4.2,4.2,0,0,1,16,4a4.18,4.18,0,0,1-3.2-1.6A1,1,0,0,0,12,2H9a1,1,0,0,0-.77.36A1,1,0,0,0,8,3.18c0,.17.73,4.12-1.65,6A4.31,4.31,0,0,1,4.74,10a1,1,0,0,0-.62.5,1,1,0,0,0-.06.8A17,17,0,0,1,5,17.94a17.42,17.42,0,0,1-.94,4.73,1,1,0,0,0,.23,1l6,6A1,1,0,0,0,11,30a1,1,0,0,0,.62-.22l4.53-3.62,4.2,3.6a1.74,1.74,0,0,0,.18.11.6.6,0,0,0,.11.06A1.15,1.15,0,0,0,21,30h0a1,1,0,0,0,.39-.08l.12-.08a1.13,1.13,0,0,0,.2-.13l6-6A1,1,0,0,0,27.94,22.67Zm-10.09-17L16,10.38l-2-4.77A6.45,6.45,0,0,0,16,6,5.6,5.6,0,0,0,17.85,5.69Zm-6.78,22L6.14,22.73A19.13,19.13,0,0,0,7,18.06a19,19,0,0,0-.75-6.44,6.06,6.06,0,0,0,1.38-.84C10,8.85,10.22,5.72,10.12,4h1l3.84,9-1.85,4.62A.94.94,0,0,0,13,18v5a1,1,0,0,0,.35.76l1.25,1.08Zm9.88,0L15,22.54V18.19L20.68,4h1.2c-.1,1.72.1,4.85,2.49,6.78a6.06,6.06,0,0,0,1.38.84,18.92,18.92,0,0,0,.11,11.11Z"/></g></svg>