<?xml version="1.0" encoding="UTF-8"?><svg fill="currentColor" xmlns="http://www.w3.org/2000/svg" viewBox="0 0 24 24"><g id="p"><g><path d="M12,5.75c.41,0,.75-.34,.75-.75v-1c0-.41-.34-.75-.75-.75s-.75,.34-.75,.75v1c0,.41,.34,.75,.75,.75Z"/><path d="M16,5.75c.41,0,.75-.34,.75-.75V3c0-.41-.34-.75-.75-.75s-.75,.34-.75,.75v2c0,.41,.34,.75,.75,.75Z"/><path d="M8,5.75c.41,0,.75-.34,.75-.75V3c0-.41-.34-.75-.75-.75s-.75,.34-.75,.75v2c0,.41,.34,.75,.75,.75Z"/><path d="M15.83,16.86c2.91-1.42,4.92-4.41,4.92-7.86,0-.96-.79-1.75-1.75-1.75H5c-.96,0-1.75,.79-1.75,1.75,0,3.45,2.01,6.43,4.92,7.86l-2.77,3.69c-.25,.33-.18,.8,.15,1.05,.14,.1,.29,.15,.45,.15,.23,0,.45-.1,.6-.3l3-4s.01-.03,.02-.04c.53,.15,1.07,.25,1.63,.3v3.29c0,.41,.34,.75,.75,.75s.75-.34,.75-.75v-3.29c.56-.05,1.11-.15,1.63-.3,0,.01,0,.03,.02,.04l3,4c.15,.2,.37,.3,.6,.3,.16,0,.31-.05,.45-.15,.33-.25,.4-.72,.15-1.05l-2.77-3.69Z"/></g></g></svg>