<?xml version="1.0" encoding="UTF-8"?><svg fill="currentColor" xmlns="http://www.w3.org/2000/svg" viewBox="0 0 24 24"><g id="d"><g><path d="M17.55,5.25h0c.07-.77-.19-1.54-.71-2.1s-1.26-.9-2.03-.9h-5.62c-.77,0-1.51,.33-2.03,.9-.52,.57-.78,1.34-.71,2.1h11.1Z"/><path d="M18,7.25h-.63l.05-.5H6.59l.67,7.32c.04,.39,.36,.68,.75,.68h8c.39,0,.71-.3,.75-.68l.14-1.57,1.66-.55c.72-.24,1.2-.91,1.2-1.66v-1.28c0-.96-.79-1.75-1.75-1.75Zm.25,3.03c0,.11-.07,.2-.17,.24l-1.04,.35,.19-2.11h.77c.14,0,.25,.11,.25,.25v1.28Z"/><path d="M16,16.25H8c-.6,0-1.15-.24-1.55-.62-.12,.43-.2,.87-.2,1.32v3.06c0,.96,.79,1.75,1.75,1.75h8c.96,0,1.75-.79,1.75-1.75v-3.06c0-.45-.07-.89-.19-1.32-.4,.39-.95,.62-1.56,.62Zm-3,2.5h-2c-.41,0-.75-.34-.75-.75s.34-.75,.75-.75h2c.41,0,.75,.34,.75,.75s-.34,.75-.75,.75Z"/></g></g></svg>