<?xml version="1.0" encoding="UTF-8"?><svg fill="currentColor" xmlns="http://www.w3.org/2000/svg" viewBox="0 0 24 24"><g id="f"><path d="M19,4.25H9.17c-.55,0-1.07-.13-1.52-.38-.46-.26-.95-.46-1.45-.59-1.39-.38-2.61-.21-3.39,0-.28,.07-.49,.3-.54,.58-.05,.28,.06,.57,.29,.74,.33,.24,.61,.53,.85,.85,.67,.91,.84,1.9,.85,2.61l.86,11.15c.11,1.42,1.31,2.54,2.74,2.54h6.27c1.45,0,2.65-1.13,2.74-2.58l.84-13.42h1.3c.69,0,1.25,.56,1.25,1.25v5c0,.41,.34,.75,.75,.75s.75-.34,.75-.75V7c0-1.52-1.23-2.75-2.75-2.75Zm-6.25,12.75c0,.41-.34,.75-.75,.75s-.75-.34-.75-.75v-.25h-1.25c-.41,0-.75-.34-.75-.75s.34-.75,.75-.75h1.25v-1.5h-1.25c-.41,0-.75-.34-.75-.75s.34-.75,.75-.75h1.25v-1.5h-1.25c-.41,0-.75-.34-.75-.75s.34-.75,.75-.75h1.25v-.25c0-.41,.34-.75,.75-.75s.75,.34,.75,.75v8Z"/></g></svg>