<?xml version="1.0" encoding="UTF-8"?><svg fill="currentColor" xmlns="http://www.w3.org/2000/svg" viewBox="0 0 24 24"><g id="n"><g><rect x="6.75" y="9.75" width="7.5" height="4.5" rx=".25" ry=".25"/><path d="M18,5.25H6c-2.07,0-3.75,1.68-3.75,3.75v6c0,1.81,1.29,3.33,3,3.67v1.33c0,.41,.34,.75,.75,.75s.75-.34,.75-.75v-1.25h10.5v1.25c0,.41,.34,.75,.75,.75s.75-.34,.75-.75v-1.33c1.71-.35,3-1.86,3-3.67v-6c0-2.07-1.68-3.75-3.75-3.75Zm-2.25,8.75c0,.96-.79,1.75-1.75,1.75H7c-.96,0-1.75-.79-1.75-1.75v-4c0-.96,.79-1.75,1.75-1.75h7c.96,0,1.75,.79,1.75,1.75v4Zm3,1c0,.41-.34,.75-.75,.75s-.75-.34-.75-.75v-6c0-.41,.34-.75,.75-.75s.75,.34,.75,.75v6Z"/></g></g></svg>