<?xml version="1.0" encoding="UTF-8"?><svg fill="currentColor" xmlns="http://www.w3.org/2000/svg" viewBox="0 0 24 24"><g id="b"><g><path d="M20.49,2.69c-.87-.57-2-.59-2.88-.06-.79,.48-1.28,1.27-1.35,2.17-.03,.34-.12,.59-.29,.76l-.33,.33c-.29,.29-.29,.77,0,1.06l1.41,1.42c.15,.15,.34,.22,.53,.22s.38-.07,.53-.22l.41-.41c.15-.15,.39-.19,.56-.2,.7-.02,1.36-.31,1.86-.8,.59-.59,.88-1.4,.79-2.23-.09-.83-.54-1.57-1.25-2.03Z"/><path d="M6.8,15.79c-.07-.07-.16-.13-.25-.16-.04-.02-.09-.02-.14-.03-.05,0-.1-.03-.14-.03-.04,0-.08,.02-.12,.02-.06,0-.11,.01-.16,.03-.09,.04-.17,.09-.25,.16l-.33,.33c-.17,.17-.42,.26-.76,.29-.9,.07-1.69,.56-2.17,1.34-.53,.87-.5,2.03,.05,2.88,.46,.71,1.2,1.17,2.03,1.25,.1,.01,.19,.02,.29,.02,.73,0,1.42-.29,1.94-.81,.5-.5,.78-1.16,.8-1.85,0-.17,.04-.41,.2-.56l.41-.41c.29-.29,.29-.77,0-1.06l-1.41-1.42Z"/><path d="M16,9.42l-1.41-1.42c-.5-.5-.71-1.18-.63-1.84l-7.92,7.92c.07-.01,.15-.02,.24-.02,.19,0,.34,.03,.43,.05,.09,.01,.24,.04,.41,.11,.29,.12,.54,.28,.75,.5l1.41,1.42c.5,.5,.71,1.18,.63,1.84l7.92-7.92c-.08,0-.16,.02-.25,.02-.6,0-1.17-.23-1.59-.66Z"/></g></g></svg>