<?xml version="1.0" encoding="UTF-8"?><svg fill="currentColor" xmlns="http://www.w3.org/2000/svg" viewBox="0 0 24 24"><g id="q"><g><path d="M20.94,8.71L15.29,3.06c-1.07-1.07-2.82-1.07-3.89,0l-2.78,2.78c-1.09,1.09-1.68,2.53-1.68,4.07v3.59c0,.2,.08,.39,.22,.53l2.83,2.83c.14,.14,.33,.22,.53,.22h3.59c1.54,0,2.98-.6,4.07-1.68l2.78-2.78c1.07-1.07,1.07-2.82,0-3.89Zm-9.72,.57c-.19,0-.38-.07-.53-.22-.29-.29-.29-.77,0-1.06l2.12-2.12c.29-.29,.77-.29,1.06,0s.29,.77,0,1.06l-2.12,2.12c-.15,.15-.34,.22-.53,.22Zm2.65,1.9c-.15,.15-.34,.22-.53,.22s-.38-.07-.53-.22c-.29-.29-.29-.77,0-1.06l2.12-2.12c.29-.29,.77-.29,1.06,0s.29,.77,0,1.06l-2.12,2.12Zm4.24,0l-2.12,2.12c-.15,.15-.34,.22-.53,.22s-.38-.07-.53-.22c-.29-.29-.29-.77,0-1.06l2.12-2.12c.29-.29,.77-.29,1.06,0s.29,.77,0,1.06Z"/><path d="M6.1,15.08c-.18-.18-.32-.4-.43-.63l-2.58,2.58c-.52,.52-.81,1.21-.81,1.94s.29,1.43,.81,1.94c.54,.54,1.24,.8,1.94,.8s1.41-.27,1.94-.8l2.58-2.58c-.23-.11-.44-.25-.63-.43l-2.83-2.83Z"/></g></g></svg>