<?xml version="1.0" encoding="UTF-8"?><svg fill="currentColor" xmlns="http://www.w3.org/2000/svg" viewBox="0 0 24 24"><g id="e"><g><path d="M21.62,11.58l-1.41-2.11c-.51-.77-1.37-1.22-2.29-1.22H5c-1.52,0-2.75,1.23-2.75,2.75v1c0,.28,.16,.54,.41,.67l1.45,.72c.08,.04,.14,.13,.14,.22v3.38c0,1.52,1.23,2.75,2.75,2.75H15c1.52,0,2.75-1.23,2.75-2.75v-7.25h.18c.42,0,.81,.21,1.04,.56l1.41,2.11c.14,.22,.38,.33,.62,.33,.14,0,.29-.04,.42-.13,.34-.23,.44-.7,.21-1.04Z"/><path d="M14.61,5.56c-1.12-1.53-2.63-2.09-3.43-2.29-.12-.03-.24-.03-.36,0-.8,.2-2.31,.76-3.43,2.29-.29,.4-.5,.8-.67,1.19H15.27c-.16-.39-.37-.79-.67-1.19Z"/></g></g></svg>