<?xml version="1.0" encoding="UTF-8"?><svg fill="currentColor" xmlns="http://www.w3.org/2000/svg" viewBox="0 0 24 24"><g id="l"><g><path d="M19,2.25H5c-1.52,0-2.75,1.23-2.75,2.75v3.25H21.75v-3.25c0-1.52-1.23-2.75-2.75-2.75ZM8.02,6.75c-.41,0-.75-.34-.75-.75s.33-.75,.75-.75h0c.42,0,.75,.34,.75,.75s-.33,.75-.75,.75Zm4,0c-.41,0-.75-.34-.75-.75s.33-.75,.75-.75h0c.42,0,.75,.34,.75,.75s-.33,.75-.75,.75Zm4,0c-.41,0-.75-.34-.75-.75s.33-.75,.75-.75h0c.42,0,.75,.34,.75,.75s-.33,.75-.75,.75Z"/><path d="M2.25,17c0,2.62,2.13,4.75,4.75,4.75h10c2.62,0,4.75-2.13,4.75-4.75v-7.25H2.25v7.25Zm3-4c0-.96,.79-1.75,1.75-1.75h10c.96,0,1.75,.79,1.75,1.75v4c0,.96-.79,1.75-1.75,1.75H7c-.96,0-1.75-.79-1.75-1.75v-4Z"/><rect x="6.75" y="12.75" width="10.5" height="4.5" rx=".25" ry=".25"/></g></g></svg>