<?xml version="1.0" encoding="UTF-8"?><svg fill="currentColor" xmlns="http://www.w3.org/2000/svg" viewBox="0 0 24 24"><g id="g"><g><path d="M2.27,18.75c0,.08-.02,.17-.02,.25v1c0,.96,.79,1.75,1.75,1.75H20c.96,0,1.75-.79,1.75-1.75v-1c0-.08-.01-.17-.01-.25H2.27Z"/><path d="M21.58,17.25c-.21-1.17-.63-2.26-1.22-3.24,.9-1.17,1.39-2.61,1.39-4.1,0-.78-.14-1.53-.38-2.22,0,0,0-.02,0-.03,0-.01-.01-.02-.02-.03-.94-2.6-3.42-4.47-6.35-4.47-3.72,0-6.75,3.03-6.75,6.75,0,.03,.01,.06,.02,.09-.45,.19-.89,.4-1.31,.65l-.95-.95c-.49-.49-1.28-.49-1.77,0l-1.41,1.41c-.49,.49-.49,1.28,0,1.77l.92,.92c-.67,1.06-1.1,2.23-1.32,3.44H21.58ZM13.25,4.99v.85c0,.48,.2,.95,.55,1.28s.83,.5,1.32,.46c.46-.03,.85,.07,1.19,.3,.23,.15,.42,.36,.56,.61,.33,.58,.93,.92,1.55,.92,.19,0,.38-.03,.57-.1l1.16-.41c.07,.33,.1,.67,.1,1.02,0,1-.29,1.97-.81,2.8-1.79-2.12-4.46-3.46-7.44-3.46-.75,0-1.49,.11-2.22,.27,.16-2.1,1.55-3.85,3.47-4.54Z"/></g></g></svg>