<?xml version="1.0" encoding="UTF-8"?><svg fill="currentColor" xmlns="http://www.w3.org/2000/svg" viewBox="0 0 24 24"><g id="i"><g><path d="M2.25,19c0,1.52,1.23,2.75,2.75,2.75h12c1.52,0,2.75-1.23,2.75-2.75v-.25H2.25v.25Z"/><path d="M21,13.25h-1.33c-.35-1.71-1.86-3-3.67-3H6c-2.07,0-3.75,1.68-3.75,3.75v3.25H19.75v-2.5h1.25c.41,0,.75-.34,.75-.75s-.34-.75-.75-.75Z"/><path d="M16,8.75c.26,0,.5,.04,.75,.08v-3.83c0-1.52-1.23-2.75-2.75-2.75h-6c-1.52,0-2.75,1.23-2.75,2.75v3.83c.25-.04,.49-.08,.75-.08h10Zm-3.75-4c0-.41,.34-.75,.75-.75s.75,.34,.75,.75v2c0,.41-.34,.75-.75,.75s-.75-.34-.75-.75v-2Zm-4,0c0-.41,.34-.75,.75-.75s.75,.34,.75,.75v2c0,.41-.34,.75-.75,.75s-.75-.34-.75-.75v-2Z"/></g></g></svg>