<?xml version="1.0" encoding="UTF-8"?><svg fill="currentColor" xmlns="http://www.w3.org/2000/svg" viewBox="0 0 24 24"><g id="r"><g><path d="M19.77,4.23c-1.27-1.27-2.97-1.98-4.77-1.98s-3.5,.7-4.77,1.98l-1.42,1.41c-2.63,2.63-2.63,6.91,0,9.55,1.28,1.27,2.97,1.98,4.77,1.98s3.5-.7,4.77-1.98l1.41-1.41c1.28-1.27,1.98-2.97,1.98-4.77s-.7-3.5-1.98-4.77ZM9.87,14.13c-.17-.17-.3-.36-.44-.54,.66-1.81,1.62-3.44,2.9-4.84,1.96-2.14,4.21-3.27,5.88-3.87,.17,.13,.34,.25,.49,.41,.15,.15,.28,.33,.41,.5-.82,2.3-2.12,4.28-3.87,5.88-1.4,1.28-3.03,2.24-4.84,2.9-.18-.14-.37-.28-.54-.44Zm0-7.42l1.42-1.41c.99-.99,2.31-1.54,3.71-1.54,.5,0,.98,.09,1.45,.23-1.63,.73-3.52,1.9-5.22,3.76-1.1,1.21-2,2.56-2.68,4.05-.47-1.76-.05-3.71,1.33-5.08Zm8.84,6.01l-1.41,1.41c-.99,.99-2.31,1.54-3.71,1.54-.47,0-.93-.08-1.38-.2,1.49-.69,2.85-1.58,4.05-2.69,1.61-1.47,2.85-3.24,3.75-5.25,.14,.48,.24,.97,.24,1.48,0,1.4-.55,2.72-1.54,3.71Z"/><path d="M6.09,13.85l-2.68,2.68c-1.37,1.37-1.57,3.39-.45,4.51,.47,.47,1.13,.73,1.85,.73,.13,0,.27,0,.4-.03,.81-.11,1.61-.51,2.25-1.15l2.67-2.67c-.88-.4-1.69-.96-2.4-1.66-.71-.71-1.26-1.53-1.66-2.4Z"/></g></g></svg>