<?xml version="1.0" encoding="UTF-8"?><svg fill="currentColor" xmlns="http://www.w3.org/2000/svg" viewBox="0 0 24 24"><g id="e"><g><path d="M17.68,6.32c-.33-2.29-2.3-4.07-4.68-4.07H7c-2.62,0-4.75,2.13-4.75,4.75v6c0,2.39,1.77,4.35,4.07,4.68,.33,2.29,2.3,4.07,4.68,4.07h6c2.62,0,4.75-2.13,4.75-4.75v-6c0-2.39-1.77-4.35-4.07-4.68ZM3.75,13V7c0-1.79,1.46-3.25,3.25-3.25h6c1.79,0,3.25,1.46,3.25,3.25v6c0,1.79-1.46,3.25-3.25,3.25H7c-1.79,0-3.25-1.46-3.25-3.25Zm16.5,4c0,1.79-1.46,3.25-3.25,3.25h-6c-1.53,0-2.81-1.07-3.15-2.5h5.15c2.62,0,4.75-2.13,4.75-4.75V7.85c1.43,.34,2.5,1.62,2.5,3.15v6Z"/><path d="M9.25,10.75v2.25c0,.41,.34,.75,.75,.75s.75-.34,.75-.75v-2.25h2.25c.41,0,.75-.34,.75-.75s-.34-.75-.75-.75h-2.25v-2.25c0-.41-.34-.75-.75-.75s-.75,.34-.75,.75v2.25h-2.25c-.41,0-.75,.34-.75,.75s.34,.75,.75,.75h2.25Z"/></g></g></svg>