<?xml version="1.0" encoding="UTF-8"?><svg fill="currentColor" xmlns="http://www.w3.org/2000/svg" viewBox="0 0 24 24"><g id="f"><path d="M20.27,7.3c-.22-.04-.47-.09-.73-.17-.51-.16-.99-.39-1.44-.7-.33-.2-.86-.45-1.55-.48-.39-.02-.77,.04-1.2,.18l-4.23,1.75-2.65-.34c-.43-.06-.86,.01-1.25,.19l-.19,.09c-.61,.29-1.29,.44-1.96,.44h-1.07c-.96,0-1.75,.79-1.75,1.75v5c0,.96,.79,1.75,1.75,1.75h1.02c.71,0,1.42,.19,2.03,.55l1.69,.98c.45,.26,.94,.39,1.43,.39,.63,0,1.25-.21,1.77-.63l2.92-2.32s.09,.03,.14,.03h5c.96,0,1.75-.79,1.75-1.75v-4.98c0-.86-.62-1.59-1.48-1.73Zm-9.26,9.57c-.44,.35-1.04,.39-1.52,.11l-1.69-.98c-.84-.49-1.81-.75-2.78-.75h-1.02c-.14,0-.25-.11-.25-.25v-5c0-.14,.11-.25,.25-.25h1.07c.89,0,1.79-.2,2.6-.58l.19-.09c.13-.06,.28-.09,.43-.07l.24,.03c-.11,.1-.21,.21-.29,.33-.24,.38-.33,.82-.23,1.24,.18,.81,.97,1.38,1.79,1.33,.86,.03,1.72-.03,2.57-.17,.58-.1,1.15-.26,1.71-.44l.42,2.78-3.46,2.75Zm9.24-2.87c0,.14-.11,.25-.25,.25h-4.04c0-.11,.01-.23,0-.34l-.52-3.5c-.05-.32-.29-.55-.59-.62-.19-.12-.43-.16-.66-.07-.67,.27-1.37,.46-2.09,.59-.74,.13-1.5,.18-2.33,.15-.16,.02-.29-.08-.3-.16,0-.04,.01-.08,.03-.1,.02-.03,.08-.1,.2-.13,.05,0,.09-.02,.14-.04l1.59-.66c.13-.02,.25-.07,.35-.14l4.12-1.7c.2-.07,.4-.1,.61-.09,.36,.02,.65,.15,.79,.24,.56,.38,1.17,.67,1.82,.88,.33,.1,.64,.17,.93,.22,.13,.02,.22,.12,.22,.25v4.98Z"/></g></svg>