<?xml version="1.0" encoding="UTF-8"?><svg fill="currentColor" xmlns="http://www.w3.org/2000/svg" viewBox="0 0 24 24"><g id="h"><g><path d="M21,13.25c-.41,0-.75,.34-.75,.75v3c0,1.79-1.46,3.25-3.25,3.25H7c-1.79,0-3.25-1.46-3.25-3.25v-3c0-.41-.34-.75-.75-.75s-.75,.34-.75,.75v3c0,2.62,2.13,4.75,4.75,4.75h10c2.62,0,4.75-2.13,4.75-4.75v-3c0-.41-.34-.75-.75-.75Z"/><path d="M18,5.25h-2.25v-1.25c0-.96-.79-1.75-1.75-1.75h-4c-.96,0-1.75,.79-1.75,1.75v1.25h-2.25c-2.07,0-3.75,1.68-3.75,3.75v1.35c0,.7,.41,1.34,1.05,1.61,2.72,1.17,5.73,1.79,8.7,1.79s5.97-.62,8.69-1.79c.64-.28,1.06-.91,1.06-1.61v-1.35c0-2.07-1.68-3.75-3.75-3.75Zm-8.25-1.25c0-.14,.11-.25,.25-.25h4c.14,0,.25,.11,.25,.25v1.25h-4.5v-1.25Zm10.5,6.35c0,.1-.06,.19-.15,.23-5.08,2.18-11.13,2.18-16.2,0-.09-.04-.15-.13-.15-.23v-1.35c0-1.24,1.01-2.25,2.25-2.25h12c1.24,0,2.25,1.01,2.25,2.25v1.35Z"/></g></g></svg>