<?xml version="1.0" encoding="UTF-8"?><svg fill="currentColor" xmlns="http://www.w3.org/2000/svg" viewBox="0 0 24 24"><g id="u"><g><path d="M15,2.25h-7c-2.62,0-4.75,2.13-4.75,4.75v10c0,2.62,2.13,4.75,4.75,4.75h7c2.62,0,4.75-2.13,4.75-4.75V7c0-2.62-2.13-4.75-4.75-4.75Zm3.25,14.75c0,1.79-1.46,3.25-3.25,3.25h-7c-1.79,0-3.25-1.46-3.25-3.25V7c0-1.79,1.46-3.25,3.25-3.25h7c1.79,0,3.25,1.46,3.25,3.25v10Z"/><path d="M15,5.25h-7c-.96,0-1.75,.79-1.75,1.75v1c0,.96,.79,1.75,1.75,1.75h7c.96,0,1.75-.79,1.75-1.75v-1c0-.96-.79-1.75-1.75-1.75Zm.25,2.75c0,.14-.11,.25-.25,.25h-7c-.14,0-.25-.11-.25-.25v-1c0-.14,.11-.25,.25-.25h7c.14,0,.25,.11,.25,.25v1Z"/><path d="M15,11.25h-7c-.96,0-1.75,.79-1.75,1.75v4c0,.96,.79,1.75,1.75,1.75h7c.96,0,1.75-.79,1.75-1.75v-4c0-.96-.79-1.75-1.75-1.75Zm-2.75,6h-1.5v-1.5h1.5v1.5Zm0-3h-1.5v-1.5h1.5v1.5Zm-4.25-1.5h1.25v1.5h-1.5v-1.25c0-.14,.11-.25,.25-.25Zm-.25,4.25v-1.25h1.5v1.5h-1.25c-.14,0-.25-.11-.25-.25Zm7.5,0c0,.14-.11,.25-.25,.25h-1.25v-4.5h1.25c.14,0,.25,.11,.25,.25v4Z"/></g></g></svg>