<?xml version="1.0" encoding="UTF-8"?><svg fill="currentColor" xmlns="http://www.w3.org/2000/svg" viewBox="0 0 24 24"><g id="b"><g><path d="M21,11.61h-7c-.69,0-1.25-.56-1.25-1.25V4.43c0-.5-.22-.98-.6-1.32-.38-.33-.88-.49-1.37-.43C5.78,3.31,2.11,7.58,2.25,12.63c.14,5.08,4.39,9.33,9.47,9.47,.09,0,.19,0,.28,0,2.55,0,4.96-.97,6.79-2.76,1.9-1.85,2.95-4.33,2.95-6.99,0-.41-.34-.75-.75-.75Zm-3.25,6.66c-1.61,1.57-3.72,2.42-5.99,2.33-4.3-.12-7.89-3.71-8.01-8.01-.12-4.27,2.98-7.89,7.21-8.42h.03c.08,0,.13,.04,.16,.06,.03,.03,.09,.09,.09,.19v5.93c0,1.52,1.23,2.75,2.75,2.75h6.22c-.17,1.96-1.04,3.77-2.46,5.16Z"/><path d="M17,10.11h4c.41,0,.75-.34,.75-.75,0-3.22-2.29-6.01-5.46-6.63-.49-.1-1,.04-1.4,.36-.41,.34-.65,.84-.65,1.37v2.9c0,1.52,1.23,2.75,2.75,2.75Zm-1.25-5.65c0-.08,.04-.16,.1-.21,.04-.03,.08-.05,.13-.05,.01,0,.02,0,.03,0,2.21,.43,3.87,2.22,4.19,4.4h-3.2c-.69,0-1.25-.56-1.25-1.25v-2.9Z"/></g></g></svg>