<?xml version="1.0" encoding="UTF-8"?><svg fill="currentColor" xmlns="http://www.w3.org/2000/svg" viewBox="0 0 24 24"><g id="l"><g><path d="M13,20.25H7c-1.24,0-2.25-1.01-2.25-2.25V8c0-1.12,.83-2.05,1.91-2.22,.41,.58,1.08,.97,1.84,.97h5c.76,0,1.44-.38,1.84-.97,1.08,.17,1.91,1.09,1.91,2.22v4c0,.41,.34,.75,.75,.75s.75-.34,.75-.75v-4c0-1.82-1.3-3.33-3.02-3.68-.09-1.16-1.05-2.07-2.23-2.07h-5c-1.18,0-2.14,.92-2.23,2.07-1.72,.34-3.02,1.86-3.02,3.68v10c0,2.07,1.68,3.75,3.75,3.75h6c.41,0,.75-.34,.75-.75s-.34-.75-.75-.75ZM8.5,3.75h5c.41,0,.75,.34,.75,.75s-.34,.75-.75,.75h-5c-.41,0-.75-.34-.75-.75s.34-.75,.75-.75Z"/><path d="M18,14.25c-2.07,0-3.75,1.68-3.75,3.75s1.68,3.75,3.75,3.75,3.75-1.68,3.75-3.75-1.68-3.75-3.75-3.75Zm0,6c-1.24,0-2.25-1.01-2.25-2.25s1.01-2.25,2.25-2.25,2.25,1.01,2.25,2.25-1.01,2.25-2.25,2.25Z"/><path d="M19.33,16.33c-.37-.18-.82-.03-1.01,.34l-.53,1.07-.26-.26c-.29-.29-.77-.29-1.06,0s-.29,.77,0,1.06l1,1c.14,.14,.33,.22,.53,.22,.04,0,.08,0,.12,0,.24-.04,.44-.19,.55-.4l1-2c.19-.37,.04-.82-.34-1.01Z"/></g></g></svg>