<?xml version="1.0" encoding="UTF-8"?><svg fill="currentColor" xmlns="http://www.w3.org/2000/svg" viewBox="0 0 24 24"><g id="i"><g><path d="M17,2.25H7c-2.62,0-4.75,2.13-4.75,4.75v6c0,2.62,2.13,4.75,4.75,4.75h2.33c.02,.37,.02,.73-.06,1.09-.13,.6-.39,1.07-.64,1.41h-.63c-.41,0-.75,.34-.75,.75s.34,.75,.75,.75h8c.41,0,.75-.34,.75-.75s-.34-.75-.75-.75h-.63c-.24-.34-.5-.81-.63-1.41-.09-.4-.1-.77-.08-1.09h2.35c2.62,0,4.75-2.13,4.75-4.75V7c0-2.62-2.13-4.75-4.75-4.75Zm-3.73,16.91c.08,.38,.21,.74,.38,1.09h-3.29c.16-.35,.29-.71,.38-1.09,.1-.46,.14-.94,.12-1.41h2.29c-.02,.47,.02,.95,.12,1.41Zm6.98-6.16c0,1.79-1.46,3.25-3.25,3.25H7c-1.79,0-3.25-1.46-3.25-3.25V7c0-1.79,1.46-3.25,3.25-3.25h10c1.79,0,3.25,1.46,3.25,3.25v6Z"/><path d="M18,8.25h-3c-.2,0-.39,.08-.53,.22l-2.57,2.57-2.49-1.66c-.3-.2-.69-.16-.95,.09l-3,3c-.29,.29-.29,.77,0,1.06,.15,.15,.34,.22,.53,.22s.38-.07,.53-.22l2.57-2.57,2.49,1.66c.3,.2,.69,.16,.95-.09l2.78-2.78h2.69c.41,0,.75-.34,.75-.75s-.34-.75-.75-.75Z"/></g></g></svg>