<?xml version="1.0" encoding="UTF-8"?><svg fill="currentColor" xmlns="http://www.w3.org/2000/svg" viewBox="0 0 24 24"><g id="m"><g><path d="M18,15.75c2.07,0,3.75-1.68,3.75-3.75,0-1.23-.6-2.32-1.52-3,.92-.68,1.52-1.77,1.52-3,0-2.07-1.68-3.75-3.75-3.75H6c-2.07,0-3.75,1.68-3.75,3.75,0,1.23,.6,2.32,1.52,3-.92,.68-1.52,1.77-1.52,3,0,2.07,1.68,3.75,3.75,3.75h5.25v.62c-.91,.26-1.62,.97-1.88,1.88H4c-.41,0-.75,.34-.75,.75s.34,.75,.75,.75h5.37c.33,1.15,1.38,2,2.63,2s2.3-.85,2.63-2h5.37c.41,0,.75-.34,.75-.75s-.34-.75-.75-.75h-5.37c-.26-.91-.97-1.62-1.88-1.88v-.62h5.25Zm-4.75,3.25c0,.69-.56,1.25-1.25,1.25s-1.25-.56-1.25-1.25,.56-1.25,1.25-1.25,1.25,.56,1.25,1.25ZM3.75,6c0-1.24,1.01-2.25,2.25-2.25h12c1.24,0,2.25,1.01,2.25,2.25s-1.01,2.25-2.25,2.25H6c-1.24,0-2.25-1.01-2.25-2.25Zm0,6c0-1.24,1.01-2.25,2.25-2.25h12c1.24,0,2.25,1.01,2.25,2.25s-1.01,2.25-2.25,2.25H6c-1.24,0-2.25-1.01-2.25-2.25Z"/><path d="M18.77,6c0-.41-.33-.75-.75-.75h0c-.41,0-.75,.34-.75,.75s.34,.75,.75,.75,.75-.34,.75-.75Z"/><path d="M18.02,12.75c.42,0,.75-.34,.75-.75s-.33-.75-.75-.75h0c-.41,0-.75,.34-.75,.75s.34,.75,.75,.75Z"/><path d="M15.02,5.25h0c-.41,0-.75,.34-.75,.75s.34,.75,.75,.75,.75-.34,.75-.75-.33-.75-.75-.75Z"/><path d="M15.02,12.75c.42,0,.75-.34,.75-.75s-.33-.75-.75-.75h0c-.41,0-.75,.34-.75,.75s.34,.75,.75,.75Z"/><path d="M12.02,5.25h0c-.41,0-.75,.34-.75,.75s.34,.75,.75,.75,.75-.34,.75-.75-.33-.75-.75-.75Z"/><path d="M12.77,12c0-.41-.33-.75-.75-.75h0c-.41,0-.75,.34-.75,.75s.34,.75,.75,.75,.75-.34,.75-.75Z"/></g></g></svg>