<?xml version="1.0" encoding="UTF-8"?><svg fill="currentColor" xmlns="http://www.w3.org/2000/svg" viewBox="0 0 24 24"><g id="d"><g><path d="M20,13.25h-3.53c-.49,0-.97,.22-1.32,.61-1.23,1.35-2.95,1.39-3.15,1.39-1.6,0-2.68-.91-3.18-1.44-.33-.35-.8-.56-1.3-.56h-3.52c-.96,0-1.75,.79-1.75,1.75v2c0,2.07,1.68,3.75,3.75,3.75h12c2.07,0,3.75-1.68,3.75-3.75v-2c0-.96-.79-1.75-1.75-1.75Zm.25,3.75c0,1.24-1.01,2.25-2.25,2.25H6c-1.24,0-2.25-1.01-2.25-2.25v-2c0-.14,.11-.25,.25-.25h3.52c.08,0,.15,.03,.19,.08,.67,.72,2.11,1.92,4.28,1.92,.42,0,2.62-.09,4.26-1.88,.07-.07,.14-.12,.21-.12h3.53c.14,0,.25,.11,.25,.25v2Z"/><path d="M3.76,11.71c.39,.13,.82-.08,.95-.47l1.32-3.95c.31-.92,1.16-1.54,2.13-1.54h7.68c.97,0,1.83,.62,2.13,1.54l1.32,3.95c.11,.31,.4,.51,.71,.51,.08,0,.16-.01,.24-.04,.39-.13,.61-.56,.47-.95l-1.32-3.95c-.51-1.53-1.94-2.56-3.56-2.56h-7.68c-1.62,0-3.05,1.03-3.56,2.56l-1.32,3.95c-.13,.39,.08,.82,.47,.95Z"/><path d="M16,8.75c.41,0,.75-.34,.75-.75s-.34-.75-.75-.75H8c-.41,0-.75,.34-.75,.75s.34,.75,.75,.75h8Z"/><path d="M6.25,11c0,.41,.34,.75,.75,.75h10c.41,0,.75-.34,.75-.75s-.34-.75-.75-.75H7c-.41,0-.75,.34-.75,.75Z"/></g></g></svg>