<?xml version="1.0" encoding="UTF-8"?><svg fill="currentColor" xmlns="http://www.w3.org/2000/svg" viewBox="0 0 24 24"><g id="k"><path d="M17,4.25H8c-2.58,0-4.68,2.07-4.75,4.63-.61,.5-1,1.27-1,2.12v7c0,1.52,1.23,2.75,2.75,2.75h14c1.52,0,2.75-1.23,2.75-2.75V9c0-2.62-2.13-4.75-4.75-4.75ZM5,19.25c-.69,0-1.25-.56-1.25-1.25v-7c0-.69,.56-1.25,1.25-1.25h1.17c.33,0,.65,.13,.88,.37l.83,.83c.52,.52,1.21,.81,1.94,.81h4.17c1.24,0,2.25,1.01,2.25,2.25v4c0,.45,.11,.88,.3,1.25H5Zm15.25-1.25c0,.69-.56,1.25-1.25,1.25s-1.25-.56-1.25-1.25v-4c0-2.07-1.68-3.75-3.75-3.75h-4.17c-.33,0-.65-.13-.88-.37l-.83-.83c-.52-.52-1.21-.81-1.94-.81h-1.17c-.06,0-.11,0-.16,0,.34-1.43,1.63-2.5,3.16-2.5h9c1.79,0,3.25,1.46,3.25,3.25v9Z"/></g></svg>