<?xml version="1.0" encoding="UTF-8"?><svg fill="currentColor" xmlns="http://www.w3.org/2000/svg" viewBox="0 0 24 24"><g id="n"><g><path d="M19.62,8.4c-.69-3.6-3.95-6.27-7.6-6.15-3.67-.13-6.95,2.55-7.64,6.15-.58,3.04,.8,6.19,3.42,7.85,.36,.23,.69,.83,.69,1.25v2.11c0,1.18,.91,2.14,2.02,2.14h2.96c1.11,0,2.02-.96,2.02-2.14v-2.11c0-.42,.33-1.02,.69-1.25,2.63-1.66,4-4.81,3.42-7.85Zm-6.14,11.85h-2.96c-.29,0-.52-.29-.52-.64v-.86h3.96s.03,0,.05,0v.87c0,.35-.23,.64-.52,.64Zm1.91-5.27c-.73,.46-1.27,1.41-1.36,2.29-.03,0-.05-.02-.08-.02h-3.99c-.09-.87-.63-1.81-1.35-2.27-2.11-1.33-3.22-3.87-2.75-6.3,.54-2.84,3.09-4.93,6.01-4.93,.05,0,.1,0,.15,0,2.97-.09,5.57,2.04,6.13,4.93,.46,2.44-.64,4.97-2.75,6.3Z"/><path d="M9.09,5.88c-.5,.28-1.2,.8-1.67,1.68-1.02,1.87-.19,3.78-.02,4.15,.13,.27,.4,.42,.68,.42,.11,0,.22-.02,.32-.07,.37-.18,.53-.63,.35-1-.07-.15-.7-1.53-.02-2.78,.31-.56,.76-.9,1.09-1.09,.36-.2,.49-.66,.28-1.02-.2-.36-.66-.49-1.02-.28Z"/></g></g></svg>