<?xml version="1.0" encoding="UTF-8"?><svg fill="currentColor" xmlns="http://www.w3.org/2000/svg" viewBox="0 0 24 24"><g id="c"><g><path d="M20.43,3.55c-.21-.73-.84-1.24-1.59-1.31-2.91-.28-5.72,1.08-7.34,3.54l-2.3,3.48c-1.31-.69-2.56-.73-3.21-.68-.79,.06-1.54,.28-2.23,.65-.45,.24-.74,.68-.79,1.19-.05,.54,.17,1.07,.59,1.41l3.08,2.53h0l1.56,1.29-.84,1.03c-.26,.32-.22,.79,.1,1.06,.14,.12,.31,.17,.48,.17,.22,0,.43-.09,.58-.27l.84-1.03,1.56,1.28h0l3.08,2.53c.3,.25,.67,.38,1.04,.38,.16,0,.31-.02,.46-.07,.49-.15,.87-.53,1.02-1.01,.23-.75,.3-1.53,.21-2.32-.08-.65-.36-1.86-1.29-3.02l2.97-2.93c2.09-2.07,2.88-5.09,2.05-7.89Zm-1.73,.19c.14,.01,.25,.11,.29,.24,.44,1.5,.3,3.08-.33,4.46-.57,0-1.74-.1-2.79-.97-.38-.31-1.24-1.16-1.49-2.55,1.24-.89,2.76-1.33,4.31-1.18ZM4.45,10.54c.51-.27,1.06-.43,1.64-.48,.47-.04,1.33-.01,2.27,.44l-1.43,2.16-2.44-2c-.06-.05-.05-.11-.04-.13Zm10.76,7.03c.07,.58,.02,1.15-.15,1.7-.01,0-.07,.03-.13-.02l-2.44-2,1.85-1.82c.63,.83,.82,1.68,.87,2.14Zm-3.88-1.28h-.01l-1.03-.85,.84-1.03c.26-.32,.22-.79-.1-1.06s-.79-.22-1.06,.1l-.84,1.03-1.02-.84h-.01l4.65-7.04c.12-.19,.26-.36,.41-.53,.48,1.35,1.35,2.21,1.77,2.55,.98,.81,2.02,1.13,2.84,1.25-.14,.17-.28,.34-.44,.5l-5.99,5.92Z"/><path d="M5.92,17.22c-.27-.23-.67-.23-.94,0-.34,.27-.8,.75-1.05,1.49-.39,1.17,.04,2.17,.24,2.54,.09,.17,.25,.3,.44,.36,.2,.06,.56,.15,.99,.15s1-.09,1.54-.4c.68-.38,1.06-.93,1.26-1.31,.16-.31,.08-.7-.19-.92l-2.3-1.89Zm.5,2.82c-.38,.21-.77,.23-1.05,.19-.08-.26-.15-.65-.01-1.06,.04-.13,.1-.24,.16-.34l1.2,.99c-.08,.08-.19,.16-.3,.22Z"/></g></g></svg>