<?xml version="1.0" encoding="UTF-8"?><svg fill="currentColor" xmlns="http://www.w3.org/2000/svg" viewBox="0 0 24 24"><g id="t"><g><path d="M13.5,2.25c-4.55,0-8.25,3.7-8.25,8.25,0,2,.72,3.84,1.91,5.28l-4.69,4.69c-.29,.29-.29,.77,0,1.06,.15,.15,.34,.22,.53,.22s.38-.07,.53-.22l4.69-4.69c1.43,1.19,3.27,1.91,5.28,1.91,4.55,0,8.25-3.7,8.25-8.25S18.05,2.25,13.5,2.25Zm0,15c-3.72,0-6.75-3.03-6.75-6.75s3.03-6.75,6.75-6.75,6.75,3.03,6.75,6.75-3.03,6.75-6.75,6.75Z"/><path d="M18.45,7.4c-.33-.25-.8-.18-1.05,.15l-2.31,3.08c-.06,.08-.14,.1-.18,.1-.04,0-.12,0-.19-.07l-1.48-1.48c-.68-.68-1.79-.68-2.47,0l-2.29,2.29c-.29,.29-.29,.77,0,1.06,.15,.15,.34,.22,.53,.22s.38-.07,.53-.22l2.29-2.29c.1-.1,.26-.1,.35,0l1.48,1.48c.36,.36,.85,.54,1.36,.51,.51-.04,.97-.29,1.28-.7l2.31-3.08c.25-.33,.18-.8-.15-1.05Z"/></g></g></svg>