<?xml version="1.0" encoding="UTF-8"?><svg fill="currentColor" xmlns="http://www.w3.org/2000/svg" viewBox="0 0 24 24"><g id="j"><g><path d="M20.23,9.03c-.16-.04-.28-.15-.35-.3-.06-.15-.05-.32,.03-.46,.48-.79,.35-1.8-.3-2.45l-1.44-1.44c-.65-.65-1.66-.78-2.45-.3-.14,.08-.31,.1-.46,.03-.15-.06-.26-.19-.3-.35-.22-.9-1.03-1.52-1.95-1.52h-2.03c-.92,0-1.72,.63-1.95,1.52-.04,.16-.15,.28-.3,.35-.15,.06-.32,.05-.46-.03-.79-.47-1.8-.35-2.45,.3l-1.44,1.44c-.65,.65-.78,1.66-.3,2.45,.08,.14,.1,.31,.03,.46-.06,.15-.19,.26-.35,.3-.9,.22-1.52,1.02-1.52,1.95v2.04c0,.92,.63,1.73,1.52,1.95,.16,.04,.28,.15,.35,.3,.06,.15,.05,.32-.03,.46-.48,.79-.35,1.8,.3,2.45l1.44,1.44c.65,.65,1.66,.78,2.45,.3,.14-.08,.31-.1,.46-.03,.15,.06,.26,.19,.3,.35,.22,.9,1.03,1.52,1.95,1.52h2.03c.92,0,1.72-.63,1.95-1.52,.04-.16,.15-.28,.3-.35,.15-.06,.32-.05,.46,.03,.79,.47,1.8,.35,2.45-.3l1.44-1.44c.65-.65,.78-1.66,.3-2.45-.08-.14-.1-.31-.03-.46,.06-.15,.19-.26,.35-.3,.9-.22,1.52-1.02,1.52-1.95v-2.04c0-.92-.63-1.73-1.52-1.95Zm.02,3.98c0,.23-.16,.44-.39,.49-.62,.16-1.12,.59-1.37,1.18-.25,.59-.2,1.25,.13,1.8,.12,.2,.09,.46-.08,.62l-1.44,1.44c-.17,.17-.42,.2-.62,.08-.55-.33-1.21-.38-1.8-.13-.59,.25-1.02,.75-1.18,1.37-.06,.23-.26,.39-.49,.39h-2.03c-.23,0-.44-.16-.49-.38-.16-.62-.59-1.12-1.18-1.37-.25-.1-.51-.16-.77-.16-.36,0-.71,.1-1.03,.29-.2,.12-.46,.09-.62-.08l-1.44-1.44c-.17-.17-.2-.42-.08-.62,.33-.55,.38-1.21,.13-1.8-.25-.59-.74-1.02-1.37-1.18-.23-.06-.38-.26-.38-.49v-2.04c0-.23,.16-.44,.39-.49,.62-.16,1.12-.59,1.37-1.18,.25-.59,.2-1.25-.13-1.8-.12-.2-.09-.46,.08-.62l1.44-1.44c.17-.16,.42-.2,.62-.08,.55,.33,1.21,.38,1.8,.13,.59-.25,1.02-.75,1.18-1.37,.06-.23,.26-.39,.49-.39h2.03c.23,0,.44,.16,.49,.38,.16,.62,.59,1.12,1.18,1.37,.6,.25,1.25,.2,1.8-.13,.2-.12,.46-.09,.62,.08l1.44,1.44c.17,.17,.2,.42,.08,.62-.33,.55-.38,1.21-.13,1.8,.25,.59,.74,1.02,1.37,1.18h0c.23,.06,.38,.26,.38,.49v2.04Z"/><path d="M12,7.25c-2.62,0-4.75,2.13-4.75,4.75s2.13,4.75,4.75,4.75,4.75-2.13,4.75-4.75-2.13-4.75-4.75-4.75Zm0,8c-1.79,0-3.25-1.46-3.25-3.25s1.46-3.25,3.25-3.25,3.25,1.46,3.25,3.25-1.46,3.25-3.25,3.25Z"/></g></g></svg>