<?xml version="1.0" encoding="UTF-8"?><svg fill="currentColor" xmlns="http://www.w3.org/2000/svg" viewBox="0 0 24 24"><g id="r"><g><path d="M16,3.25H8c-3.17,0-5.75,2.58-5.75,5.75v6c0,3.17,2.58,5.75,5.75,5.75h8c3.17,0,5.75-2.58,5.75-5.75v-6c0-3.17-2.58-5.75-5.75-5.75Zm4.25,11.75c0,2.34-1.91,4.25-4.25,4.25H8c-2.34,0-4.25-1.91-4.25-4.25v-6c0-2.34,1.91-4.25,4.25-4.25h8c2.34,0,4.25,1.91,4.25,4.25v6Z"/><path d="M10,13.25h-1c-.69,0-1.25-.56-1.25-1.25s.56-1.25,1.25-1.25h1c.41,0,.75-.34,.75-.75s-.34-.75-.75-.75h-1c-1.52,0-2.75,1.23-2.75,2.75s1.23,2.75,2.75,2.75h1c.41,0,.75-.34,.75-.75s-.34-.75-.75-.75Z"/><path d="M15,9.25h-1c-.41,0-.75,.34-.75,.75s.34,.75,.75,.75h1c.69,0,1.25,.56,1.25,1.25s-.56,1.25-1.25,1.25h-1c-.41,0-.75,.34-.75,.75s.34,.75,.75,.75h1c1.52,0,2.75-1.23,2.75-2.75s-1.23-2.75-2.75-2.75Z"/><path d="M9.25,12c0,.41,.34,.75,.75,.75h4c.41,0,.75-.34,.75-.75s-.34-.75-.75-.75h-4c-.41,0-.75,.34-.75,.75Z"/></g></g></svg>