<?xml version="1.0" encoding="UTF-8"?><svg fill="currentColor" xmlns="http://www.w3.org/2000/svg" viewBox="0 0 24 24"><g id="q"><g><path d="M14.75,12c0-.48-.13-.93-.36-1.33l2.38-2.38c.29-.29,.29-.77,0-1.06s-.77-.29-1.06,0l-2.38,2.38c-1.05-.58-2.39-.44-3.28,.45-.52,.52-.81,1.21-.81,1.94s.29,1.43,.81,1.94c.54,.54,1.24,.8,1.94,.8s1.41-.27,1.94-.8c.52-.52,.81-1.21,.81-1.94Zm-1.87,.88c-.49,.49-1.28,.49-1.77,0-.24-.24-.37-.55-.37-.88s.13-.65,.37-.88c.24-.24,.56-.37,.88-.37s.64,.12,.88,.37c.24,.24,.37,.55,.37,.88s-.13,.65-.37,.88Z"/><path d="M12,2.25C6.62,2.25,2.25,6.62,2.25,12s4.37,9.75,9.75,9.75,9.75-4.37,9.75-9.75S17.38,2.25,12,2.25Zm0,18c-4.55,0-8.25-3.7-8.25-8.25S7.45,3.75,12,3.75s8.25,3.7,8.25,8.25-3.7,8.25-8.25,8.25Z"/><path d="M10.3,15.9c-1.55-.68-2.55-2.21-2.55-3.9,0-2.34,1.91-4.25,4.25-4.25,.29,0,.57,.03,.85,.08,.4,.08,.8-.18,.88-.59,.08-.41-.18-.8-.59-.88-.38-.08-.76-.12-1.15-.12-3.17,0-5.75,2.58-5.75,5.75,0,2.29,1.35,4.36,3.45,5.27,.1,.04,.2,.06,.3,.06,.29,0,.56-.17,.69-.45,.17-.38,0-.82-.39-.99Z"/><path d="M16.75,10.27c-.41,.08-.67,.48-.59,.88,.06,.28,.08,.56,.08,.85,0,1.69-1,3.22-2.55,3.9-.38,.17-.55,.61-.39,.99,.12,.28,.4,.45,.69,.45,.1,0,.2-.02,.3-.06,2.09-.92,3.45-2.98,3.45-5.27,0-.39-.04-.77-.11-1.15-.08-.41-.49-.67-.88-.59Z"/></g></g></svg>