<?xml version="1.0" encoding="UTF-8"?><svg fill="currentColor" xmlns="http://www.w3.org/2000/svg" viewBox="0 0 24 24"><g id="s"><path d="M19,3.25h-2c-1.52,0-2.75,1.23-2.75,2.75v1.25h-3.25c-1.52,0-2.75,1.23-2.75,2.75v2.25h-3.25c-1.52,0-2.75,1.23-2.75,2.75v3c0,1.52,1.23,2.75,2.75,2.75h14c1.52,0,2.75-1.23,2.75-2.75V6c0-1.52-1.23-2.75-2.75-2.75ZM3.75,18v-3c0-.69,.56-1.25,1.25-1.25h3.25v5.5h-3.25c-.69,0-1.25-.56-1.25-1.25Zm6-5v-3c0-.69,.56-1.25,1.25-1.25h3.25v10.5h-4.5v-6.25Zm10.5,5c0,.69-.56,1.25-1.25,1.25h-3.25V6c0-.69,.56-1.25,1.25-1.25h2c.69,0,1.25,.56,1.25,1.25v12Z"/></g></svg>