<?xml version="1.0" encoding="UTF-8"?><svg fill="currentColor" xmlns="http://www.w3.org/2000/svg" viewBox="0 0 24 24"><g id="g"><path d="M12,3.25C6.62,3.25,2.25,7.62,2.25,13c0,.3,.18,.57,.46,.69,.28,.12,.6,.06,.82-.16,.25-.25,.8-.68,1.58-.79,.78-.11,1.44,.17,1.86,.41,.28,.17,.59,.23,.89,.24,.03,0,.06,.02,.09,.02,.03,0,.05,0,.08,0,.38-.03,.75-.18,1.04-.46,.47-.44,1.21-.94,2.18-1.12v6.68c0,.41-.34,.75-.75,.75s-.75-.34-.75-.75v-.5c0-.41-.34-.75-.75-.75s-.75,.34-.75,.75v.5c0,1.24,1.01,2.25,2.25,2.25s2.25-1.01,2.25-2.25v-6.66c.6,.12,1.44,.4,2.17,1.08,.3,.28,.68,.44,1.06,.47,.02,0,.05,0,.07,0s.05-.01,.07-.01c.31,0,.63-.06,.92-.23,.6-.36,1.23-.5,1.85-.41,.78,.11,1.32,.54,1.58,.79,.14,.14,.33,.21,.53,.21,.1,0,.2-.02,.29-.06,.28-.12,.46-.39,.46-.69,0-5.38-4.37-9.75-9.75-9.75Zm-6.54,7.97c-.18,0-.37,.01-.57,.04-.35,.05-.69,.14-1.02,.28,.54-2.99,2.7-5.42,5.54-6.36-.37,.42-.74,.89-1.06,1.45-1.06,1.8-1.28,3.61-1.25,4.94-.46-.19-1.01-.34-1.64-.34Zm6.54-.97c-1.47,0-2.6,.55-3.4,1.14,0-1.11,.19-2.56,1.04-4.01,.7-1.2,1.61-1.98,2.35-2.48,.75,.5,1.65,1.28,2.35,2.48,.85,1.44,1.05,2.89,1.04,3.99-1.47-1.06-3.06-1.12-3.4-1.12Zm7.1,1.01c-.87-.12-1.62,.06-2.21,.3,.03-1.33-.19-3.14-1.25-4.94-.32-.55-.69-1.03-1.06-1.45,2.84,.94,5,3.37,5.54,6.36-.33-.14-.67-.23-1.02-.28Z"/></g></svg>