<?xml version="1.0" encoding="UTF-8"?><svg fill="currentColor" xmlns="http://www.w3.org/2000/svg" viewBox="0 0 24 24"><g id="b"><g><path d="M20.78,4.99l-3.92-2.35c-.43-.26-.92-.39-1.41-.39h-6.89c-.5,0-.99,.14-1.41,.39l-3.92,2.35c-.63,.38-.96,1.12-.82,1.84l.64,3.2c.1,.49,.4,.92,.84,1.17s.96,.3,1.43,.15l.94-.31v5.18c0,.74,.48,1.4,1.19,1.66,.39,.14,.74,.36,1.03,.65s.51,.65,.65,1.03c.26,.71,.92,1.19,1.66,1.19h2.45c.74,0,1.4-.48,1.66-1.19,.14-.39,.36-.74,.65-1.03s.65-.51,1.03-.65c.71-.26,1.19-.92,1.19-1.66v-5.18l.94,.31c.47,.16,1,.11,1.43-.15,.43-.25,.74-.68,.84-1.17l.64-3.2c.14-.72-.18-1.47-.82-1.84Zm-6.67-1.24c-.31,.87-1.14,1.5-2.11,1.5s-1.8-.63-2.11-1.5h4.22Zm5.38,5.99c-.02,.1-.08,.15-.12,.17-.04,.02-.11,.05-.2,.02l-1.93-.64c-.23-.08-.48-.04-.68,.1-.2,.14-.31,.37-.31,.61v6.22c0,.13-.11,.21-.2,.25-.75,.27-1.27,.69-1.58,1-.45,.45-.79,.98-1,1.59-.03,.09-.12,.19-.25,.19h-2.45c-.13,0-.21-.11-.25-.2-.27-.75-.69-1.27-1-1.58-.45-.45-.98-.79-1.59-1-.09-.03-.19-.12-.19-.25v-6.22c0-.24-.12-.47-.31-.61-.13-.09-.28-.14-.44-.14-.08,0-.16,.01-.24,.04l-1.93,.64c-.09,.03-.17,0-.2-.02-.04-.02-.1-.07-.12-.17l-.64-3.2c-.02-.1,.03-.21,.12-.26l3.92-2.35c.13-.08,.27-.12,.42-.15,.36,1.69,1.87,2.97,3.67,2.97s3.31-1.28,3.67-2.97c.15,.03,.29,.07,.42,.15l3.92,2.35c.09,.05,.14,.16,.12,.26l-.64,3.2Z"/><path d="M13.75,10.4l-.7-.1-.31-.63c-.25-.51-1.09-.51-1.35,0l-.31,.63-.7,.1c-.28,.04-.52,.24-.61,.51-.09,.27-.02,.57,.19,.77l.51,.5-.12,.7c-.05,.28,.07,.57,.3,.73,.13,.1,.29,.14,.44,.14,.12,0,.24-.03,.35-.09l.63-.33,.63,.33c.25,.13,.56,.11,.79-.06,.23-.17,.35-.45,.3-.73l-.12-.7,.51-.49c.2-.2,.28-.5,.19-.77-.09-.27-.32-.47-.61-.51Z"/></g></g></svg>