<?xml version="1.0" encoding="UTF-8"?><svg fill="currentColor" xmlns="http://www.w3.org/2000/svg" viewBox="0 0 24 24"><g id="d"><path d="M21.66,17.32l-1.31-9.14c-.37-2.61-2.5-4.59-5.07-4.88-.09-.04-.18-.06-.28-.06-.04,0-.07,.02-.11,.02-.08,0-.15-.02-.23-.02h-5.33c-.08,0-.15,.02-.23,.02-.04,0-.07-.02-.11-.02-.1,0-.2,.02-.28,.06-2.57,.28-4.7,2.27-5.07,4.88l-1.31,9.14c-.05,.36,.06,.72,.29,1,.24,.27,.58,.43,.94,.43h2.03c.57,0,1.07-.39,1.21-.95l.43-1.71v3.91c0,.96,.79,1.75,1.75,1.75h6c.96,0,1.75-.79,1.75-1.75v-3.91l.43,1.71c.14,.56,.64,.95,1.21,.95h2.03c.36,0,.71-.16,.94-.43,.24-.27,.34-.64,.29-1ZM12,6.25c-.98,0-1.8-.63-2.11-1.5h4.22c-.31,.87-1.14,1.5-2.11,1.5Zm-3.25,13.75V10c0-.38-.28-.7-.66-.74-.03,0-.06,0-.09,0-.34,0-.64,.23-.73,.57l-1.86,7.43h-1.55l1.26-8.85c.25-1.75,1.57-3.12,3.24-3.52,.34,1.4,1.46,2.51,2.89,2.8v12.58h-2.25c-.14,0-.25-.11-.25-.25Zm9.84-2.75l-1.86-7.43c-.09-.37-.45-.61-.82-.56-.38,.05-.66,.37-.66,.74v10c0,.14-.11,.25-.25,.25h-2.25V7.67c1.42-.29,2.55-1.39,2.89-2.8,1.66,.4,2.99,1.77,3.24,3.52l1.26,8.85h-1.55Z"/></g></svg>