<?xml version="1.0" encoding="UTF-8"?><svg fill="currentColor" xmlns="http://www.w3.org/2000/svg" viewBox="0 0 24 24"><g id="u"><path d="M21.58,11.75l-.71-4.97c-.11-.77-.55-1.47-1.2-1.9l-1.75-1.17c-.45-.3-.98-.46-1.53-.46H7.61c-.54,0-1.07,.16-1.53,.46l-1.75,1.17c-.65,.43-1.09,1.13-1.2,1.9l-.71,4.97c-.07,.5,.08,1.01,.41,1.39,.33,.38,.81,.6,1.32,.6h2.1v5.25c0,.96,.79,1.75,1.75,1.75h8c.96,0,1.75-.79,1.75-1.75v-5.25h2.1c.51,0,.99-.22,1.32-.6,.33-.38,.48-.89,.41-1.39ZM12,6.25c-.98,0-1.8-.63-2.11-1.5h4.22c-.31,.87-1.14,1.5-2.11,1.5Zm8.04,5.91s-.09,.09-.19,.09h-2.1v-1.25c0-.41-.34-.75-.75-.75s-.75,.34-.75,.75v8c0,.14-.11,.25-.25,.25H8c-.14,0-.25-.11-.25-.25V11c0-.41-.34-.75-.75-.75s-.75,.34-.75,.75v1.25h-2.1c-.1,0-.16-.05-.19-.09s-.07-.1-.06-.2l.71-4.97c.05-.35,.25-.67,.54-.86l1.75-1.17c.21-.14,.45-.21,.69-.21h.72c.3,1.47,1.46,2.63,2.92,2.92v2.33c0,.41,.34,.75,.75,.75s.75-.34,.75-.75v-2.33c1.47-.3,2.63-1.46,2.92-2.92h.72c.25,0,.49,.07,.69,.21l1.75,1.17c.3,.2,.49,.51,.54,.86l.71,4.97c.01,.1-.03,.17-.06,.2Z"/></g></svg>