<?xml version="1.0" encoding="UTF-8"?><svg fill="currentColor" xmlns="http://www.w3.org/2000/svg" viewBox="0 0 24 24"><g id="c"><g><path d="M16.75,5.3v-1.26c0-.51-.22-.99-.6-1.33-.37-.33-.86-.48-1.35-.41-.36,.05-.72,.12-1.07,.23l-1.65,.49s-.1,.01-.15,0l-1.63-.49c-.35-.11-.72-.18-1.09-.23-.5-.07-.99,.09-1.37,.42-.38,.33-.6,.81-.6,1.32v1.27c-2.82,.37-5,2.78-5,5.7v6c0,.96,.79,1.75,1.75,1.75h2.25v1.25c0,.96,.79,1.75,1.75,1.75h8c.96,0,1.75-.79,1.75-1.75v-1.25h2.25c.96,0,1.75-.79,1.75-1.75v-6c0-2.92-2.18-5.33-5-5.7Zm-8-1.27c0-.1,.05-.17,.09-.19,.04-.03,.1-.07,.18-.06,.29,.04,.58,.1,.85,.18l1.63,.5c.33,.1,.68,.1,1.01,0l1.64-.49c.28-.08,.56-.14,.84-.18,.07,0,.13,.02,.16,.05,.03,.02,.09,.09,.09,.2v1.21h-6.5v-1.21Zm11.5,12.96c0,.14-.11,.25-.25,.25h-2.25v-6.25c0-.41-.34-.75-.75-.75s-.75,.34-.75,.75v9c0,.14-.11,.25-.25,.25H8c-.14,0-.25-.11-.25-.25V11c0-.41-.34-.75-.75-.75s-.75,.34-.75,.75v6.25h-2.25c-.14,0-.25-.11-.25-.25v-6c0-2.34,1.91-4.25,4.25-4.25h1.25v2.25c0,.41,.34,.75,.75,.75s.75-.34,.75-.75v-2.25h2.5v2.25c0,.41,.34,.75,.75,.75s.75-.34,.75-.75v-2.25h1.25c2.34,0,4.25,1.91,4.25,4.25v6Z"/><path d="M14.94,15.45c-.24-.72-.91-1.2-1.66-1.2h-2.56c-.75,0-1.42,.48-1.66,1.2l-.33,1c-.18,.53-.09,1.12,.24,1.58,.33,.46,.86,.73,1.42,.73h3.22c.56,0,1.09-.27,1.42-.73,.33-.46,.42-1.04,.24-1.58l-.33-1Zm-1.12,1.7s-.09,.1-.2,.1h-3.22c-.11,0-.17-.07-.2-.1-.03-.04-.07-.12-.04-.22l.33-1c.03-.1,.13-.17,.24-.17h2.56c.11,0,.2,.07,.24,.17l.33,1c.04,.11,0,.19-.03,.22Z"/></g></g></svg>