<?xml version="1.0" encoding="UTF-8"?><svg fill="currentColor" xmlns="http://www.w3.org/2000/svg" viewBox="0 0 24 24"><g id="k"><g><path d="M20.17,11.17c-.21-.19-.4-.4-.57-.62-.67-.91-.84-1.9-.85-2.55V3.5c0-.69-.56-1.25-1.25-1.25h-2c-.69,0-1.25,.56-1.25,1.25v1.33c0,1.2-.84,2.25-1.92,2.4-.22,.03-.45,.03-.66,0-1.08-.14-1.92-1.2-1.92-2.4v-1.33c0-.69-.56-1.25-1.25-1.25h-2c-.69,0-1.25,.56-1.25,1.25V7.98c-.02,.67-.18,1.66-.85,2.57-.17,.22-.36,.43-.57,.62-.37,.33-.58,.8-.58,1.29v7.53c0,.96,.79,1.75,1.75,1.75h14c.96,0,1.75-.79,1.75-1.75v-7.53c0-.5-.21-.97-.58-1.3Zm-15.35,1.12c.29-.25,.55-.54,.78-.85,.91-1.22,1.13-2.54,1.15-3.45V3.75h1.5v1.08c0,1.97,1.38,3.64,3.22,3.88,.35,.05,.71,.05,1.06,0,1.83-.25,3.22-1.92,3.22-3.88v-1.08h1.5v4.27c.02,.89,.24,2.21,1.15,3.43,.23,.31,.49,.59,.78,.84,.05,.04,.08,.11,.08,.18v4.78H4.75v-4.78c0-.07,.03-.13,.07-.17Zm14.18,7.96H5c-.14,0-.25-.11-.25-.25v-1.25h14.5v1.25c0,.14-.11,.25-.25,.25Z"/><path d="M12,13.75h.25v1.25c0,.41,.34,.75,.75,.75s.75-.34,.75-.75v-4c0-.41-.34-.75-.75-.75s-.75,.34-.75,.75v1.25h-.25c-.14,0-.25-.11-.25-.25v-1c0-.41-.34-.75-.75-.75s-.75,.34-.75,.75v1c0,.96,.79,1.75,1.75,1.75Z"/></g></g></svg>