<?xml version="1.0" encoding="UTF-8"?><svg fill="currentColor" xmlns="http://www.w3.org/2000/svg" viewBox="0 0 24 24"><g id="i"><path d="M19.59,19.77l-1.84-13.82v-1.95c0-.96-.79-1.75-1.75-1.75H8c-.96,0-1.75,.79-1.75,1.75v1.95l-1.84,13.82c-.07,.5,.09,1,.42,1.38,.33,.38,.81,.6,1.32,.6h2.11c.78,0,1.45-.5,1.68-1.25l2.07-6.89,2.07,6.89c.22,.73,.91,1.25,1.68,1.25h2.11c.5,0,.99-.22,1.32-.6,.33-.38,.48-.88,.42-1.38ZM7.75,4c0-.14,.11-.25,.25-.25h8c.14,0,.25,.11,.25,.25v1.25H7.75v-1.25Zm10.3,16.17s-.09,.08-.19,.08h-2.11c-.11,0-.21-.07-.24-.18l-2.79-9.29c-.1-.32-.39-.53-.72-.53s-.62,.22-.72,.53l-2.79,9.29c-.03,.11-.13,.18-.24,.18h-2.11c-.1,0-.16-.05-.19-.08-.03-.03-.07-.1-.06-.2l1.76-13.22h2.59v1.25c0,.41,.34,.75,.75,.75s.75-.34,.75-.75v-1.25h.5v1.25c0,.41,.34,.75,.75,.75s.75-.34,.75-.75v-1.25h2.59l1.76,13.22c.01,.1-.03,.17-.06,.2Z"/></g></svg>