<?xml version="1.0" encoding="UTF-8"?><svg fill="currentColor" xmlns="http://www.w3.org/2000/svg" viewBox="0 0 24 24"><g id="j"><path d="M19.59,19.77l-1.84-13.82v-1.95c0-.96-.79-1.75-1.75-1.75H8c-.96,0-1.75,.79-1.75,1.75v1.95l-1.84,13.82c-.07,.5,.09,1,.42,1.38,.33,.38,.81,.6,1.32,.6h11.72c.5,0,.98-.22,1.32-.6,.33-.38,.48-.88,.42-1.38ZM7.75,4c0-.14,.11-.25,.25-.25h8c.14,0,.25,.11,.25,.25v1.25H7.75v-1.25Zm3.5,2.75v13.5h-2.39l1.8-13.5h.59Zm1.5,0h.59l1.8,13.5h-2.39V6.75Zm-6.8,13.42s-.07-.1-.06-.2l1.76-13.22h1.49l-1.8,13.5h-1.2c-.1,0-.16-.05-.19-.08Zm12.09,0s-.09,.08-.19,.08h-1.2l-1.8-13.5h1.49l1.76,13.22c.01,.1-.03,.17-.06,.2Z"/></g></svg>