<?xml version="1.0" encoding="UTF-8"?><svg fill="currentColor" xmlns="http://www.w3.org/2000/svg" viewBox="0 0 24 24"><g id="f"><path d="M20.75,6.9v-1.9c0-.96-.79-1.75-1.75-1.75H5c-.96,0-1.75,.79-1.75,1.75v1.9c-.61,1.98-.95,4.02-1,6.08-.05,2.23,.23,4.44,.84,6.59,.19,.68,.76,1.18,1.45,1.27,.76,.1,1.53,.16,2.29,.18,.16,0,.32,0,.47,0,1.08,0,1.75-.1,2.39-.2,.62-.09,1.21-.18,2.21-.19,1.03,0,1.64,.08,2.29,.17,.76,.11,1.55,.22,2.96,.19,.76-.02,1.54-.07,2.3-.16,.7-.08,1.28-.58,1.47-1.27,.61-2.14,.89-4.36,.84-6.58-.05-2.06-.39-4.11-1-6.08Zm-.93,2.38s-.04,0-.06,0c-.3,.1-.89,.24-1.5,0-.64-.24-1.14-.82-1.37-1.55h2.55c.15,.51,.27,1.02,.37,1.53ZM4.75,5c0-.14,.11-.25,.25-.25h14c.14,0,.25,.11,.25,.25v1.25H4.75v-1.25Zm-.19,2.75h2.55c-.23,.73-.73,1.31-1.37,1.55-.61,.23-1.2,.09-1.5,0-.02,0-.04,0-.06,0,.11-.51,.23-1.03,.37-1.53Zm14.91,11.4c-.03,.1-.11,.18-.2,.19-.71,.08-1.44,.14-2.15,.15-1.29,.03-1.99-.07-2.72-.17-.68-.1-1.37-.18-2.51-.19-1.11,0-1.78,.11-2.42,.21-.7,.11-1.36,.21-2.6,.18-.71-.02-1.43-.07-2.13-.17-.1-.01-.17-.08-.2-.19-.57-2-.83-4.07-.78-6.15,.02-.76,.09-1.51,.19-2.26,.36,.1,.73,.17,1.09,.17,.43,0,.85-.07,1.24-.22,1.22-.45,2.1-1.58,2.39-2.95h2.6v4.25c0,.41,.34,.75,.75,.75s.75-.34,.75-.75V7.75h2.6c.29,1.38,1.17,2.5,2.39,2.95,.39,.15,.81,.22,1.24,.22,.36,0,.73-.06,1.09-.17,.1,.75,.17,1.51,.19,2.26,.05,2.07-.21,4.14-.78,6.14Z"/></g></svg>