<?xml version="1.0" encoding="UTF-8"?><svg fill="currentColor" xmlns="http://www.w3.org/2000/svg" viewBox="0 0 24 24"><g id="h"><path d="M21.35,9.87l-1.43-3.57c-.21-.52-.56-.96-1.03-1.27l-1.75-1.16c-.14-.47-.45-.86-.89-1.07l-.93-.46s-.03,0-.05-.01c-.05-.02-.1-.04-.16-.05-.03,0-.05,0-.08-.01-.02,0-.03,0-.05,0h-6s-.03,0-.05,0c-.03,0-.06,0-.08,.01-.06,0-.11,.03-.16,.05-.01,0-.03,0-.05,.01l-.93,.46c-.44,.22-.75,.61-.89,1.07l-1.75,1.16c-.46,.31-.82,.75-1.03,1.27l-1.43,3.57c-.34,.84,.03,1.81,.84,2.21l2.76,1.38v6.54c0,.96,.79,1.75,1.75,1.75h8c.96,0,1.75-.79,1.75-1.75v-6.54l2.76-1.38c.81-.4,1.18-1.38,.84-2.21Zm-10.49-3.14l-.64,.32-1.91-2.54c-.06-.08-.05-.17-.04-.21,.01-.04,.04-.12,.13-.17l.37-.18,2.08,2.78Zm4.36-2.78l.37,.18c.09,.04,.12,.12,.13,.17,0,.04,.02,.13-.04,.21l-1.91,2.54-.64-.32,2.08-2.78Zm-1.72-.2l-1.5,2-1.5-2h3Zm6.34,6.99l-2.09,1.05v-.79c0-.41-.34-.75-.75-.75s-.75,.34-.75,.75v9c0,.14-.11,.25-.25,.25H8c-.14,0-.25-.11-.25-.25V11c0-.41-.34-.75-.75-.75s-.75,.34-.75,.75v.79l-2.09-1.05c-.12-.06-.17-.19-.12-.32l1.43-3.57c.09-.24,.26-.44,.47-.58l1.23-.82,2.24,2.99c.15,.19,.37,.3,.6,.3,.11,0,.23-.03,.33-.08l.92-.46v2.79c0,.41,.34,.75,.75,.75s.75-.34,.75-.75v-2.79l.92,.46c.11,.05,.22,.08,.33,.08,.23,0,.45-.11,.6-.3l2.24-2.99,1.22,.82c.21,.14,.37,.34,.47,.58l1.43,3.57c.05,.12,0,.26-.12,.32Z"/></g></svg>