<?xml version="1.0" encoding="UTF-8"?><svg fill="currentColor" xmlns="http://www.w3.org/2000/svg" viewBox="0 0 24 24"><g id="m"><path d="M21.38,15.77l-2.63-7.9v-1.88c0-.96-.79-1.75-1.75-1.75H7c-.96,0-1.75,.79-1.75,1.75v1.88l-2.63,7.9c-.15,.46-.11,.94,.11,1.37,.22,.42,.61,.74,1.07,.87l5.13,1.46c.86,.24,1.77-.2,2.11-1.03l.97-2.42,.97,2.42c.27,.68,.92,1.1,1.62,1.1,.16,0,.32-.02,.49-.07l5.13-1.46c.46-.13,.84-.45,1.07-.87,.22-.43,.26-.91,.11-1.37Zm-3.37-5.36c-.23,0-.49-.02-.75-.12-.64-.24-1.14-.82-1.37-1.55h1.57l.55,1.66ZM6.75,6c0-.14,.11-.25,.25-.25h10c.14,0,.25,.11,.25,.25v1.25H6.75v-1.25Zm-.21,2.75h1.57c-.23,.73-.73,1.31-1.37,1.55-.26,.1-.52,.12-.75,.12l.55-1.66Zm13.4,7.69s-.06,.1-.15,.12l-5.13,1.46c-.13,.04-.25-.03-.3-.15l-1.67-4.16c-.11-.28-.39-.47-.7-.47s-.58,.19-.7,.47l-1.67,4.16c-.05,.12-.17,.19-.3,.15l-5.13-1.46c-.09-.03-.13-.09-.15-.12-.02-.04-.04-.11-.02-.2l1.46-4.37c.18,.02,.35,.04,.53,.04,.43,0,.85-.07,1.24-.22,1.21-.46,2.1-1.58,2.39-2.95h1.6v1.25c0,.41,.34,.75,.75,.75s.75-.34,.75-.75v-1.25h1.6c.29,1.38,1.17,2.5,2.39,2.95,.39,.15,.81,.22,1.24,.22,.17,0,.35-.02,.53-.04l1.46,4.37c.03,.09,0,.16-.02,.2Z"/></g></svg>