<?xml version="1.0" encoding="UTF-8"?><svg fill="currentColor" xmlns="http://www.w3.org/2000/svg" viewBox="0 0 24 24"><g id="r"><path d="M20.78,5.99l-3.92-2.35c-.43-.26-.92-.39-1.41-.39h-7.45c-.14,0-.27,.04-.39,.11L3.22,5.99c-.63,.38-.96,1.12-.81,1.84l.64,3.2c.1,.49,.4,.92,.84,1.17,.44,.25,.96,.31,1.43,.15l.94-.31v7.96c0,.96,.79,1.75,1.75,1.75h8c.96,0,1.75-.79,1.75-1.75v-7.96l.94,.31c.48,.16,1,.1,1.43-.15,.43-.25,.74-.68,.84-1.17l.64-3.2c.14-.72-.18-1.46-.82-1.84Zm-6.67-1.24c-.31,.87-1.14,1.5-2.11,1.5s-1.8-.63-2.11-1.5h4.22Zm5.37,5.99c-.02,.1-.08,.15-.12,.17-.04,.02-.11,.05-.2,.02l-1.93-.64c-.23-.08-.48-.04-.68,.1-.2,.14-.31,.37-.31,.61v9c0,.14-.11,.25-.25,.25H8c-.14,0-.25-.11-.25-.25V11c0-.24-.12-.47-.31-.61-.13-.09-.28-.14-.44-.14-.08,0-.16,.01-.24,.04l-1.93,.64c-.09,.03-.17,0-.2-.02-.04-.02-.1-.07-.12-.17l-.64-3.2c-.02-.1,.03-.21,.12-.26l4.22-2.53h.12c.35,1.71,1.86,3,3.67,3s3.31-1.28,3.67-2.97c.15,.03,.29,.07,.42,.15l3.92,2.35c.09,.05,.14,.16,.12,.26l-.64,3.2Z"/></g></svg>