<?xml version="1.0" encoding="UTF-8"?><svg fill="currentColor" xmlns="http://www.w3.org/2000/svg" viewBox="0 0 24 24"><g id="l"><path d="M21.43,15.01l-2.68-7.15v-1.86c0-.96-.79-1.75-1.75-1.75H7c-.96,0-1.75,.79-1.75,1.75v1.86l-2.68,7.15c-.29,.77-.02,1.62,.66,2.07,1.83,1.22,4.83,2.67,8.77,2.67,1.79,0,5.32-.35,8.79-2.68,.67-.45,.93-1.29,.64-2.06ZM6.75,6c0-.14,.11-.25,.25-.25h10c.14,0,.25,.11,.25,.25v1.25H6.75v-1.25Zm13.2,9.83c-.79,.53-1.59,.95-2.37,1.28l-.85-4.25c-.08-.41-.48-.67-.88-.59-.41,.08-.67,.48-.59,.88l.89,4.47c-1.31,.4-2.5,.56-3.41,.61v-5.23c0-.41-.34-.75-.75-.75s-.75,.34-.75,.75v5.22c-1.25-.07-2.39-.29-3.41-.6l.89-4.47c.08-.41-.18-.8-.59-.88-.41-.08-.8,.18-.88,.59l-.85,4.25c-.93-.4-1.72-.85-2.35-1.27-.09-.06-.13-.18-.09-.29l2.55-6.79h10.96l2.55,6.79c.04,.11,0,.23-.08,.28Z"/></g></svg>