<?xml version="1.0" encoding="UTF-8"?><svg fill="currentColor" xmlns="http://www.w3.org/2000/svg" viewBox="0 0 24 24"><g id="n"><path d="M20.33,9.3c.41-.35,.63-.86,.6-1.4-.03-.55-.32-1.06-.78-1.37l-1-.66c-.71-.47-1.65-.37-2.23,.25-1.96,2.08-4.63,2.14-4.93,2.14-2.46,0-4.15-1.36-4.93-2.16-.58-.6-1.51-.69-2.21-.22l-1,.67c-.46,.31-.75,.82-.78,1.37-.03,.54,.19,1.05,.6,1.4,.33,.28,.53,.57,.6,.87,.05,.21,.03,.39,0,.66-.04,.33-.09,.73,0,1.28,.12,.76,.46,1.48,.99,2.14v1.74c0,.96,.79,1.75,1.75,1.75h10c.96,0,1.75-.79,1.75-1.75v-1.74c.53-.67,.87-1.38,.99-2.14,.08-.54,.03-.95,0-1.28-.03-.27-.06-.45,0-.66,.07-.3,.27-.59,.6-.87Zm-3.08,6.7c0,.14-.11,.25-.25,.25H7c-.14,0-.25-.11-.25-.25v-1.25h10.5v1.25Zm2.11-7.85c-.58,.49-.95,1.05-1.09,1.67-.11,.48-.07,.86-.02,1.19,.04,.28,.07,.53,.01,.87-.07,.47-.28,.93-.61,1.36H6.35c-.33-.44-.54-.9-.61-1.36-.05-.34-.02-.58,.01-.87,.04-.34,.09-.72-.02-1.19-.15-.62-.51-1.18-1.09-1.67-.06-.05-.07-.12-.07-.17,0-.04,.02-.14,.12-.2l1-.67c.1-.07,.23-.06,.3,.02,.95,.98,3,2.62,6.01,2.62,.6,0,3.68-.13,6.02-2.61,.08-.08,.21-.09,.3-.03l.99,.66c.1,.07,.11,.17,.12,.2,0,.05,0,.12-.07,.17Z"/></g></svg>