<?xml version="1.0" encoding="UTF-8"?><svg fill="currentColor" xmlns="http://www.w3.org/2000/svg" viewBox="0 0 24 24"><g id="t"><path d="M21.35,9.87l-1.43-3.57c-.21-.52-.56-.96-1.03-1.27l-1.98-1.32c-.45-.3-.98-.46-1.53-.46h-6.79c-.54,0-1.07,.16-1.53,.46l-1.98,1.32c-.47,.31-.82,.75-1.03,1.27l-1.43,3.57c-.34,.84,.03,1.81,.84,2.22l2.76,1.38v6.54c0,.96,.79,1.75,1.75,1.75h8c.96,0,1.75-.79,1.75-1.75v-6.54l2.76-1.38c.81-.4,1.18-1.38,.84-2.22Zm-7.24-5.12c-.31,.87-1.14,1.5-2.11,1.5s-1.8-.63-2.11-1.5h4.22Zm2.14,12.5H7.75v-1.5h8.5v1.5Zm-.25,3H8c-.14,0-.25-.11-.25-.25v-1.25h8.5v1.25c0,.14-.11,.25-.25,.25Zm3.84-9.51l-2.09,1.05v-.79c0-.41-.34-.75-.75-.75s-.75,.34-.75,.75v3.25H7.75v-3.25c0-.41-.34-.75-.75-.75s-.75,.34-.75,.75v.79l-2.09-1.05c-.12-.06-.17-.2-.12-.32l1.43-3.57c.09-.24,.26-.43,.47-.58l1.98-1.32c.13-.09,.28-.14,.43-.17,.36,1.69,1.87,2.96,3.66,2.96s3.3-1.27,3.66-2.96c.15,.03,.3,.08,.43,.17l1.98,1.32c.21,.14,.37,.34,.47,.58l1.43,3.57c.05,.12,0,.26-.12,.32Z"/></g></svg>