<?xml version="1.0" encoding="UTF-8"?><svg fill="currentColor" xmlns="http://www.w3.org/2000/svg" viewBox="0 0 24 24"><g id="p"><path d="M18.7,14.26c.09-.24,.21-.49,.32-.74,.44-.95,.98-2.13,.71-3.65-.06-.36-.26-1.45-1.21-2.4-.58-.58-1.22-.88-1.78-1.06V3c0-.41-.34-.75-.75-.75s-.75,.34-.75,.75v3.51c-1.26,.58-2.45,.74-3.25,.74-1.37,0-2.47-.36-3.25-.72V3c0-.41-.34-.75-.75-.75s-.75,.34-.75,.75v3.41c-.56,.17-1.2,.48-1.78,1.06-.95,.95-1.14,2.04-1.21,2.4-.27,1.52,.27,2.7,.71,3.65,.12,.26,.23,.5,.32,.74,.52,1.38,.39,3.09-.39,5.08-.21,.55-.14,1.17,.19,1.65,.32,.47,.86,.76,1.44,.76h10.93c.57,0,1.11-.28,1.44-.76,.33-.48,.4-1.1,.19-1.65-.77-2-.9-3.71-.39-5.08Zm-1.01,5.63c.05,.13,0,.22-.03,.26-.03,.05-.09,.1-.2,.1H6.53c-.1,0-.17-.06-.2-.1-.02-.04-.08-.13-.03-.26,.91-2.35,1.04-4.42,.39-6.15-.1-.28-.23-.56-.37-.85-.4-.88-.79-1.71-.6-2.76,.04-.24,.18-.99,.79-1.6,.44-.44,.95-.65,1.36-.74,.94,.47,2.36,.96,4.11,.96,1,0,2.51-.17,4.11-.96,.41,.1,.92,.31,1.36,.74,.62,.62,.75,1.36,.79,1.6,.19,1.05-.19,1.88-.6,2.76-.13,.29-.26,.57-.37,.85-.65,1.73-.52,3.8,.39,6.15Z"/></g></svg>