<?xml version="1.0" encoding="UTF-8"?><svg fill="currentColor" xmlns="http://www.w3.org/2000/svg" viewBox="0 0 24 24"><g id="o"><path d="M20.78,5.99l-4.4-2.64c-.12-.07-.25-.11-.39-.11H8c-.14,0-.27,.04-.39,.11L3.22,5.99c-.63,.38-.96,1.12-.82,1.84l.64,3.2c.1,.49,.4,.92,.84,1.17s.96,.3,1.43,.15l.94-.31v7.96c0,.96,.79,1.75,1.75,1.75h8c.96,0,1.75-.79,1.75-1.75v-7.96l.94,.31c.48,.16,1,.11,1.43-.15s.74-.68,.84-1.17l.64-3.2c.15-.72-.18-1.46-.82-1.84Zm-6.67-1.24c-.31,.87-1.14,1.5-2.11,1.5s-1.8-.63-2.11-1.5h4.22ZM4.84,10.93c-.09,.03-.17,0-.2-.02-.04-.02-.1-.07-.12-.17l-.64-3.2c-.02-.1,.03-.21,.12-.26l3.49-2.09c-.74,1.55-1.16,3.15-1.23,4.78,0,.17,0,.33,0,.49l-1.41,.47Zm11.41,9.07c0,.14-.11,.25-.25,.25H8c-.14,0-.25-.11-.25-.25V11s0-.01,0-.02c0,0,0-.01,0-.02-.01-.3-.01-.61,0-.93,.06-1.39,.41-2.77,1.04-4.1,.66,1.09,1.85,1.82,3.21,1.82s2.56-.73,3.21-1.82c.63,1.34,.97,2.71,1.04,4.1,.01,.32,.01,.63,0,.93,0,0,0,.01,0,.02,0,0,0,.01,0,.02v9Zm3.24-9.26c-.02,.1-.08,.15-.12,.17-.04,.02-.11,.05-.2,.02l-1.41-.47c0-.16,0-.32,0-.49-.07-1.63-.49-3.23-1.23-4.78l3.49,2.09c.09,.05,.14,.16,.12,.26l-.64,3.2Z"/></g></svg>