<?xml version="1.0" encoding="UTF-8"?><svg fill="currentColor" xmlns="http://www.w3.org/2000/svg" viewBox="0 0 24 24"><g id="g"><path d="M20.53,10.18c-.48-.47-1.14-1.27-1.5-2.41-.36-1.13-.3-2.14-.18-2.8,.16-.88-.39-1.73-1.28-1.97-.76-.21-1.54-.36-2.32-.48-.04-.01-.07-.01-.11-.02-2.08-.31-4.19-.31-6.27,0-.04,0-.07,0-.11,.02-.79,.12-1.58,.28-2.35,.49-.87,.24-1.4,1.08-1.25,1.97h0c.12,.66,.18,1.67-.18,2.8-.37,1.15-1.02,1.94-1.5,2.41-.34,.33-.53,.78-.53,1.26v7.32c0,.27,.06,.54,.18,.78l.62,1.24c.3,.6,.9,.97,1.57,.97h4.28c.46,0,.91-.19,1.24-.51l1.18-1.18,1.18,1.18c.33,.33,.78,.51,1.24,.51h4.28c.67,0,1.27-.37,1.57-.97l.62-1.24c.12-.24,.18-.51,.18-.78v-7.32c0-.48-.19-.92-.53-1.26ZM14.39,3.9c.14,1.18,.1,3-1.01,4.68-.37,.56-.83,1.06-1.37,1.49-.54-.43-1-.93-1.38-1.49-1.11-1.68-1.15-3.5-1.01-4.68,1.58-.19,3.19-.19,4.78,0Zm-4.63,16.27s-.11,.07-.18,.07H5.31c-.1,0-.18-.05-.22-.14l-.62-1.24s-.03-.07-.03-.11v-.9c.19,.03,.38,.04,.57,.04,.42,0,.84-.07,1.23-.2,1.7-.58,2.35-2.15,2.46-2.45,.14-.39-.06-.82-.45-.96-.39-.14-.82,.06-.96,.45-.07,.2-.48,1.19-1.54,1.55-.52,.18-1,.13-1.32,.05v-4.9c0-.07,.03-.13,.08-.18,.61-.59,1.42-1.59,1.89-3.03,.45-1.42,.37-2.7,.23-3.52-.02-.12,.05-.23,.17-.26,.42-.12,.85-.22,1.28-.31-.11,1.42,.05,3.4,1.29,5.27,.5,.75,1.13,1.41,1.88,1.96v7.31l-1.49,1.49Zm9.77-1.3l-.62,1.24c-.04,.08-.13,.14-.22,.14h-4.28c-.07,0-.13-.03-.18-.07l-1.49-1.49v-7.31c.74-.55,1.38-1.21,1.88-1.96,1.24-1.87,1.4-3.85,1.29-5.27,.42,.09,.84,.18,1.25,.3,.13,.04,.22,.15,.2,.27-.15,.82-.22,2.1,.23,3.52,.46,1.44,1.28,2.44,1.89,3.03,.05,.05,.08,.11,.08,.18v4.9c-.32,.08-.8,.12-1.32-.05-1.05-.36-1.46-1.35-1.54-1.55-.14-.39-.57-.59-.96-.45-.39,.14-.59,.57-.45,.96,.11,.31,.76,1.88,2.46,2.45,.39,.13,.81,.2,1.23,.2,.19,0,.38-.02,.57-.04v.9s0,.08-.03,.11Z"/></g></svg>