<?xml version="1.0" encoding="UTF-8"?><svg fill="currentColor" xmlns="http://www.w3.org/2000/svg" viewBox="0 0 24 24"><g id="j"><g><path d="M13,12.75h-2.25v2.25c0,.14,.11,.25,.25,.25h2c.69,0,1.25-.56,1.25-1.25s-.56-1.25-1.25-1.25Z"/><path d="M13,8.75h-2c-.14,0-.25,.11-.25,.25v2.25h2.25c.69,0,1.25-.56,1.25-1.25s-.56-1.25-1.25-1.25Z"/><path d="M19.75,12.75h1.25c.41,0,.75-.34,.75-.75s-.34-.75-.75-.75h-1.25v-2.25c0-.09-.02-.17-.03-.25h1.28c.41,0,.75-.34,.75-.75s-.34-.75-.75-.75h-1.59c-.48-1.21-1.45-2.17-2.66-2.66v-1.59c0-.41-.34-.75-.75-.75s-.75,.34-.75,.75v1.28c-.08,0-.16-.03-.25-.03h-2.25v-1.25c0-.41-.34-.75-.75-.75s-.75,.34-.75,.75v1.25h-2.25c-.09,0-.17,.02-.25,.03v-1.28c0-.41-.34-.75-.75-.75s-.75,.34-.75,.75v1.59c-1.21,.48-2.17,1.45-2.66,2.66h-1.59c-.41,0-.75,.34-.75,.75s.34,.75,.75,.75h1.28c0,.08-.03,.16-.03,.25v2.25h-1.25c-.41,0-.75,.34-.75,.75s.34,.75,.75,.75h1.25v2.25c0,.09,.02,.17,.03,.25h-1.28c-.41,0-.75,.34-.75,.75s.34,.75,.75,.75h1.59c.48,1.21,1.45,2.17,2.66,2.66v1.59c0,.41,.34,.75,.75,.75s.75-.34,.75-.75v-1.28c.08,0,.16,.03,.25,.03h2.25v1.25c0,.41,.34,.75,.75,.75s.75-.34,.75-.75v-1.25h2.25c.09,0,.17-.02,.25-.03v1.28c0,.41,.34,.75,.75,.75s.75-.34,.75-.75v-1.59c1.21-.48,2.17-1.45,2.66-2.66h1.59c.41,0,.75-.34,.75-.75s-.34-.75-.75-.75h-1.28c0-.08,.03-.16,.03-.25v-2.25Zm-6.75,4h-4c-.41,0-.75-.34-.75-.75s.34-.75,.75-.75h.28c-.01-.08-.03-.16-.03-.25v-6c0-.09,.01-.17,.03-.25h-.28c-.41,0-.75-.34-.75-.75s.34-.75,.75-.75h4c1.52,0,2.75,1.23,2.75,2.75,0,.79-.33,1.5-.86,2,.53,.5,.86,1.21,.86,2,0,1.52-1.23,2.75-2.75,2.75Z"/></g></g></svg>