<?xml version="1.0" encoding="UTF-8"?><svg fill="currentColor" xmlns="http://www.w3.org/2000/svg" viewBox="0 0 24 24"><g id="p"><g><path d="M4.75,12c0-3.49,2.21-6.62,5.5-7.78,.39-.14,.6-.57,.46-.96-.14-.39-.57-.6-.96-.46-3.89,1.37-6.5,5.07-6.5,9.19,0,1.11,.19,2.21,.56,3.25,.11,.31,.4,.5,.71,.5,.08,0,.17-.01,.25-.04,.39-.14,.6-.57,.46-.96-.31-.88-.47-1.81-.47-2.75Z"/><path d="M18.5,18.15c-1.51,1.35-3.47,2.1-5.5,2.1s-3.99-.75-5.5-2.1c-.31-.28-.78-.25-1.06,.06-.28,.31-.25,.78,.06,1.06,1.79,1.6,4.1,2.48,6.5,2.48s4.71-.88,6.5-2.48c.31-.28,.33-.75,.06-1.06-.28-.31-.75-.34-1.06-.06Z"/><path d="M16.25,2.81c-.39-.14-.82,.07-.96,.46-.14,.39,.07,.82,.46,.96,3.29,1.16,5.5,4.29,5.5,7.78,0,.94-.16,1.87-.47,2.75-.14,.39,.07,.82,.46,.96,.08,.03,.17,.04,.25,.04,.31,0,.6-.19,.71-.5,.37-1.04,.56-2.14,.56-3.25,0-4.13-2.61-7.82-6.5-9.19Z"/><circle cx="13" cy="12" r="5.75"/></g></g></svg>