<?xml version="1.0" encoding="UTF-8"?><svg fill="currentColor" xmlns="http://www.w3.org/2000/svg" viewBox="0 0 24 24"><g id="u"><g><path d="M12.18,9.24s-.11-.07-.18-.07-.13,.02-.18,.07l-2.59,2.59c-.1,.1-.1,.26,0,.35l2.59,2.59c.1,.1,.26,.1,.35,0l2.59-2.59c.1-.1,.1-.26,0-.35l-2.59-2.59Z"/><path d="M12,2.25C6.62,2.25,2.25,6.62,2.25,12s4.37,9.75,9.75,9.75,9.75-4.37,9.75-9.75S17.38,2.25,12,2.25Zm3.82,10.99l-2.59,2.59c-.34,.34-.79,.51-1.24,.51s-.9-.17-1.24-.51l-2.59-2.59c-.68-.68-.68-1.79,0-2.47l2.59-2.59c.68-.68,1.79-.68,2.47,0l2.59,2.59c.68,.68,.68,1.79,0,2.47Z"/></g></g></svg>