<?xml version="1.0" encoding="UTF-8"?><svg fill="currentColor" xmlns="http://www.w3.org/2000/svg" viewBox="0 0 24 24"><g id="c"><g><circle cx="8" cy="8" r="4.75"/><circle cx="16" cy="16" r="4.75"/><path d="M21.3,7.51c-.58-.8-1.47-1.26-2.46-1.26h-2.03l.72-.72c.29-.29,.29-.77,0-1.06s-.77-.29-1.06,0l-2,2c-.29,.29-.29,.77,0,1.06l2,2c.15,.15,.34,.22,.53,.22s.38-.07,.53-.22c.29-.29,.29-.77,0-1.06l-.72-.72h2.03c.5,0,.95,.23,1.24,.63,.29,.4,.37,.91,.21,1.38-.13,.39,.08,.82,.47,.95,.08,.03,.16,.04,.24,.04,.31,0,.61-.2,.71-.51,.31-.93,.16-1.93-.42-2.73Z"/><path d="M7.53,14.47c-.29-.29-.77-.29-1.06,0s-.29,.77,0,1.06l.72,.72h-2.03c-.5,0-.95-.23-1.24-.63-.29-.4-.37-.91-.21-1.38,.13-.39-.08-.82-.47-.95-.4-.13-.82,.08-.95,.47-.31,.93-.16,1.93,.42,2.73,.58,.8,1.47,1.26,2.46,1.26h2.03l-.72,.72c-.29,.29-.29,.77,0,1.06,.15,.15,.34,.22,.53,.22s.38-.07,.53-.22l2-2c.29-.29,.29-.77,0-1.06l-2-2Z"/></g></g></svg>