<?xml version="1.0" encoding="UTF-8"?><svg fill="currentColor" xmlns="http://www.w3.org/2000/svg" viewBox="0 0 24 24"><g id="g"><g><path d="M11,14.25h3.25v-3.25c0-.69-.56-1.25-1.25-1.25h-3.25v3.25c0,.69,.56,1.25,1.25,1.25Z"/><path d="M8.25,8.25V2.83c-.24,.15-.46,.32-.66,.51L3.35,7.59c-.2,.2-.37,.42-.51,.66h5.42Z"/><path d="M9.75,8.25h3.25c1.52,0,2.75,1.23,2.75,2.75v3.25h5.95c.02-.16,.05-.33,.05-.49V6c0-2.07-1.68-3.75-3.75-3.75h-7.76c-.17,0-.33,.03-.49,.05v5.95Z"/><path d="M15.75,15.75v5.42c.24-.15,.46-.32,.66-.51l4.24-4.24c.2-.2,.37-.42,.51-.66h-5.42Z"/><path d="M14.25,15.75h-3.25c-1.52,0-2.75-1.23-2.75-2.75v-3.25H2.3c-.02,.16-.05,.33-.05,.49v7.76c0,2.07,1.68,3.75,3.75,3.75h7.76c.17,0,.33-.03,.49-.05v-5.95Z"/></g></g></svg>