<?xml version="1.0" encoding="UTF-8"?><svg fill="currentColor" xmlns="http://www.w3.org/2000/svg" viewBox="0 0 24 24"><g id="r"><path d="M12,2.25C6.62,2.25,2.25,6.62,2.25,12s4.37,9.75,9.75,9.75,9.75-4.37,9.75-9.75S17.38,2.25,12,2.25ZM6.25,12c0-.41,.34-.75,.75-.75h3c.41,0,.75,.34,.75,.75s-.34,.75-.75,.75h-3c-.41,0-.75-.34-.75-.75Zm11.41-1.64l-.99,2.87c-.52,1.51-1.97,2.52-3.61,2.52h-5.06c-.41,0-.75-.34-.75-.75s.34-.75,.75-.75h5.06c1,0,1.88-.61,2.19-1.51l.99-2.87c-.02-.08-.06-.12-.12-.12h-6.12c-.41,0-.75-.34-.75-.75s.34-.75,.75-.75h6.12c.53,0,1.03,.25,1.33,.68,.3,.42,.37,.94,.21,1.42Z"/></g></svg>