<?xml version="1.0" encoding="UTF-8"?><svg fill="currentColor" xmlns="http://www.w3.org/2000/svg" viewBox="0 0 24 24"><g id="d"><g><path d="M7.25,12c0-2.72,1.42-5.12,3.55-6.5-.58-.16-1.19-.25-1.8-.25-3.72,0-6.75,3.03-6.75,6.75s3.03,6.75,6.75,6.75c.61,0,1.22-.09,1.8-.25-2.13-1.38-3.55-3.78-3.55-6.5Z"/><path d="M15.18,10.24c-.06-.06-.14-.07-.18-.07s-.11,0-.18,.07l-1.59,1.59c-.06,.06-.07,.14-.07,.18s0,.11,.07,.18l1.59,1.59c.13,.13,.23,.13,.35,0l1.59-1.59c.06-.06,.07-.14,.07-.18s0-.11-.07-.18l-1.59-1.59Z"/><path d="M15,5.25c-3.72,0-6.75,3.03-6.75,6.75s3.03,6.75,6.75,6.75,6.75-3.03,6.75-6.75-3.03-6.75-6.75-6.75Zm2.82,7.99l-1.59,1.59c-.34,.34-.79,.51-1.24,.51s-.9-.17-1.24-.51l-1.59-1.59c-.68-.68-.68-1.79,0-2.47l1.59-1.59c.68-.68,1.79-.68,2.47,0l1.59,1.59c.68,.68,.68,1.79,0,2.47Z"/></g></g></svg>