<?xml version="1.0" encoding="UTF-8"?><svg fill="currentColor" xmlns="http://www.w3.org/2000/svg" viewBox="0 0 24 24"><g id="o"><path d="M12,2.25C6.62,2.25,2.25,6.62,2.25,12s4.37,9.75,9.75,9.75,9.75-4.37,9.75-9.75S17.38,2.25,12,2.25Zm4,14.5h-6.46c-.59,0-1.14-.3-1.47-.8-.32-.5-.37-1.12-.13-1.67l.74-1.66-.53,.11s-.1,.01-.15,.01c-.35,0-.66-.25-.73-.6-.08-.41,.18-.8,.59-.88l1.57-.31,1.89-4.26c.17-.38,.61-.55,.99-.38,.38,.17,.55,.61,.38,.99l-1.46,3.29,1.63-.33c.4-.08,.8,.18,.88,.59,.08,.41-.18,.8-.59,.88l-2.67,.53-1.17,2.63c-.05,.11,0,.2,.02,.24s.09,.11,.21,.11h6.46c.41,0,.75,.34,.75,.75s-.34,.75-.75,.75Z"/></g></svg>