<?xml version="1.0" encoding="UTF-8"?><svg fill="currentColor" xmlns="http://www.w3.org/2000/svg" viewBox="0 0 24 24"><g id="s"><g><path d="M4,15.25h3.25v-5.82c0-.54,.33-1,.84-1.18,.51-.18,1.05-.02,1.39,.4l2.52,3.15,2.52-3.15c.34-.42,.88-.58,1.39-.4,.51,.18,.83,.64,.83,1.18v5.82h4.43c.36-1.02,.57-2.11,.57-3.25,0-5.38-4.37-9.75-9.75-9.75S2.25,6.62,2.25,12c0,1.14,.21,2.23,.57,3.25h1.18Z"/><path d="M20,16.75h-3.5c-.69,0-1.25-.56-1.25-1.25v-5.36l-2.27,2.84c-.48,.6-1.48,.6-1.95,0l-2.27-2.84v5.36c0,.69-.56,1.25-1.25,1.25H3.49c1.67,2.98,4.86,5,8.51,5s6.84-2.02,8.51-5h-.51Z"/></g></g></svg>