<?xml version="1.0" encoding="UTF-8"?><svg fill="currentColor" xmlns="http://www.w3.org/2000/svg" viewBox="0 0 24 24"><g id="f"><g><path d="M18.34,6.73l-5.25-2.62c-.68-.34-1.5-.34-2.18,0l-5.24,2.62c-.62,.31-1.06,.87-1.24,1.52h15.15c-.19-.66-.62-1.21-1.24-1.52Z"/><path d="M11.46,21.65c.17,.06,.36,.1,.54,.1s.37-.03,.54-.1c1.02-.38,3.4-1.48,5.16-3.9H6.3c1.76,2.42,4.14,3.52,5.16,3.9Z"/><path d="M20,9.25H4c-.96,0-1.75,.79-1.75,1.75v4c0,.96,.79,1.75,1.75,1.75H20c.96,0,1.75-.79,1.75-1.75v-4c0-.96-.79-1.75-1.75-1.75Zm-11.76,3.93c.29,.29,.29,.77,0,1.06-.15,.15-.34,.22-.53,.22s-.38-.07-.53-.22l-.18-.18-.18,.18c-.15,.15-.34,.22-.53,.22s-.38-.07-.53-.22c-.29-.29-.29-.77,0-1.06l.18-.18-.18-.18c-.29-.29-.29-.77,0-1.06s.77-.29,1.06,0l.18,.18,.18-.18c.29-.29,.77-.29,1.06,0s.29,.77,0,1.06l-.18,.18,.18,.18Zm5,0c.29,.29,.29,.77,0,1.06-.15,.15-.34,.22-.53,.22s-.38-.07-.53-.22l-.18-.18-.18,.18c-.15,.15-.34,.22-.53,.22s-.38-.07-.53-.22c-.29-.29-.29-.77,0-1.06l.18-.18-.18-.18c-.29-.29-.29-.77,0-1.06s.77-.29,1.06,0l.18,.18,.18-.18c.29-.29,.77-.29,1.06,0s.29,.77,0,1.06l-.18,.18,.18,.18Zm5,0c.29,.29,.29,.77,0,1.06-.15,.15-.34,.22-.53,.22s-.38-.07-.53-.22l-.18-.18-.18,.18c-.15,.15-.34,.22-.53,.22s-.38-.07-.53-.22c-.29-.29-.29-.77,0-1.06l.18-.18-.18-.18c-.29-.29-.29-.77,0-1.06s.77-.29,1.06,0l.18,.18,.18-.18c.29-.29,.77-.29,1.06,0s.29,.77,0,1.06l-.18,.18,.18,.18Z"/></g></g></svg>