<?xml version="1.0" encoding="UTF-8"?><svg fill="currentColor" xmlns="http://www.w3.org/2000/svg" viewBox="0 0 24 24"><g id="l"><g><path d="M21.75,8.04v-3.04c0-.41-.34-.75-.75-.75s-.75,.34-.75,.75v1.87c-1.77-2.84-4.85-4.59-8.25-4.59C6.62,2.29,2.25,6.66,2.25,12.04s4.37,9.75,9.75,9.75c4.98,0,9.14-3.73,9.69-8.67,.05-.41-.25-.78-.66-.83-.4-.04-.78,.25-.83,.66-.46,4.18-3.99,7.33-8.2,7.33-4.55,0-8.25-3.7-8.25-8.25S7.45,3.79,12,3.79c2.73,0,5.21,1.32,6.74,3.5h-.74c-.41,0-.75,.34-.75,.75s.34,.75,.75,.75h3c.41,0,.75-.34,.75-.75Z"/><path d="M13,8.79h-3.25v2.5h3.25c.69,0,1.25-.56,1.25-1.25s-.56-1.25-1.25-1.25Z"/><path d="M13,12.79h-3.25v2.5h3.25c.69,0,1.25-.56,1.25-1.25s-.56-1.25-1.25-1.25Z"/><path d="M12,5c-3.86,0-7,3.14-7,7s3.14,7,7,7,7-3.14,7-7c0-.77-.13-1.52-.36-2.21h-.64c-.96,0-1.75-.79-1.75-1.75,0-.46,.18-.87,.47-1.19-1.25-1.14-2.9-1.85-4.72-1.85Zm3.75,9.04c0,1.52-1.23,2.75-2.75,2.75h-5c-.41,0-.75-.34-.75-.75s.34-.75,.75-.75h.25v-6.5h-.25c-.41,0-.75-.34-.75-.75s.34-.75,.75-.75h5c1.52,0,2.75,1.23,2.75,2.75,0,.79-.33,1.5-.86,2,.53,.5,.86,1.21,.86,2Z"/></g></g></svg>