<?xml version="1.0" encoding="UTF-8"?><svg fill="currentColor" xmlns="http://www.w3.org/2000/svg" viewBox="0 0 24 24"><g id="n"><g><path d="M15.19,8.73c-.2-.05-.4-.03-.57,.08l-1.33,.78c-.79,.46-1.78,.46-2.57,0l-1.33-.78c-.12-.07-.25-.1-.38-.1-.07,0-.13,0-.2,.03-.19,.05-.36,.18-.46,.35l-.02,.03h0c-.19,.34-.06,.82,.3,1.03l1.36,.79c.78,.46,1.26,1.3,1.26,2.2v1.4c0,.42,.34,.77,.75,.77s.75-.35,.75-.77v-1.4c0-.9,.48-1.75,1.26-2.2l1.35-.79c.36-.21,.49-.7,.29-1.06-.1-.17-.26-.3-.46-.35Z"/><path d="M12,2.25C6.62,2.25,2.25,6.62,2.25,12s4.37,9.75,9.75,9.75,9.75-4.37,9.75-9.75S17.38,2.25,12,2.25Zm-4.95,6.09c.3-.53,.79-.9,1.37-1.06s1.19-.08,1.72,.23l1.33,.78c.33,.19,.73,.19,1.06,0l1.33-.78c.52-.31,1.13-.39,1.72-.23,.58,.16,1.07,.53,1.37,1.06,.62,1.08,.24,2.47-.83,3.1l-1.35,.79c-.32,.19-.52,.53-.52,.91v1.4c0,1.25-1.01,2.27-2.25,2.27s-2.25-1.02-2.25-2.27v-1.4c0-.37-.2-.72-.52-.91l-1.36-.79c-1.07-.63-1.44-2.01-.83-3.09"/></g></g></svg>