<?xml version="1.0" encoding="UTF-8"?><svg fill="currentColor" xmlns="http://www.w3.org/2000/svg" viewBox="0 0 24 24"><g id="b"><g><path d="M5,14.25h2.25v-4.04c0-.51,.3-.96,.77-1.16s1-.09,1.36,.27l2.62,2.62,2.62-2.62c.36-.36,.89-.47,1.36-.27s.77,.65,.77,1.16v4.04h3.39c1.13-2.87,.94-5.51,.7-6.92-.09-.54-.44-1.01-.94-1.25l-7.11-3.56c-.49-.24-1.08-.24-1.56,0l-7.11,3.56c-.5,.25-.85,.72-.94,1.25-.24,1.41-.43,4.05,.7,6.92h1.13Z"/><path d="M19,15.75h-2.5c-.69,0-1.25-.56-1.25-1.25v-3.69l-2.37,2.37c-.49,.49-1.28,.49-1.77,0l-2.37-2.37v3.69c0,.69-.56,1.25-1.25,1.25h-2.91c2.07,3.69,5.42,5.29,6.81,5.81,.2,.07,.4,.11,.6,.11s.4-.04,.6-.11c1.39-.52,4.74-2.11,6.81-5.8h-.41Z"/></g></g></svg>