<?xml version="1.0" encoding="UTF-8"?><svg fill="currentColor" xmlns="http://www.w3.org/2000/svg" viewBox="0 0 24 24"><g id="q"><path d="M12,2.25C6.62,2.25,2.25,6.62,2.25,12s4.37,9.75,9.75,9.75,9.75-4.37,9.75-9.75S17.38,2.25,12,2.25Zm3,14.5h-2.25v1.25c0,.41-.34,.75-.75,.75s-.75-.34-.75-.75v-1.25h-.84c-.71,0-1.34-.42-1.62-1.08-.27-.66-.12-1.41,.38-1.91l4.59-4.59c.1-.1,.08-.21,.05-.27-.02-.06-.08-.15-.23-.15h-4.59c-.41,0-.75-.34-.75-.75s.34-.75,.75-.75h2.25v-1.25c0-.41,.34-.75,.75-.75s.75,.34,.75,.75v1.25h.84c.71,0,1.34,.42,1.62,1.08,.27,.66,.12,1.41-.38,1.91l-4.59,4.59c-.1,.1-.08,.21-.05,.27,.02,.06,.08,.15,.23,.15h4.59c.41,0,.75,.34,.75,.75s-.34,.75-.75,.75Z"/></g></svg>