<?xml version="1.0" encoding="UTF-8"?><svg fill="currentColor" xmlns="http://www.w3.org/2000/svg" viewBox="0 0 24 24"><g id="u"><g><path d="M21.08,12.48l-.18-.36c-.27-.54-.8-.87-1.4-.87H4.51c-.6,0-1.14,.33-1.4,.87l-.18,.36c-.24,.49-.22,1.06,.07,1.53,.29,.47,.79,.74,1.33,.74h15.35c.55,0,1.05-.28,1.33-.74,.29-.47,.31-1.04,.07-1.53Z"/><path d="M19.49,10.25c.36,0,.71,.1,1.03,.24-.74-3.59-3.94-6.24-7.64-6.24h-1.77c-3.7,0-6.9,2.65-7.64,6.24,.32-.14,.66-.24,1.02-.24h14.99Z"/><path d="M4.32,15.75c-.24,0-.46-.03-.68-.09l.25,1.01c.31,1.23,1.4,2.08,2.67,2.08h10.88c1.26,0,2.36-.86,2.67-2.08l.25-1.01c-.22,.06-.45,.09-.68,.09H4.32Z"/></g></g></svg>