<?xml version="1.0" encoding="UTF-8"?><svg fill="currentColor" xmlns="http://www.w3.org/2000/svg" viewBox="0 0 24 24"><g id="b"><g><path d="M5.25,8.75v7.61l.21-.22c.86-1,1.8-1.99,2.77-2.91,.46-.44,1.02-.97,1.68-1.54-.48-.62-1.01-1.18-1.62-1.65-.74-.56-1.55-1-2.42-1.29h-.63Z"/><path d="M17.39,3.76c-.73-.52-1.66-.55-2.43-.09-.25,.15-.57,.13-.8-.04l-1.17-.88c-.88-.66-2.13-.57-2.9,.21l-.59,.59c-.22,.22-.55,.27-.83,.13l-.82-.41c-.77-.38-1.67-.3-2.35,.22-.68,.52-1,1.37-.82,2.21l.32,1.54h1.01c.08,0,.16,.01,.23,.04,.29,.09,.58,.21,.86,.33,.92-1.44,2.63-2.36,4.5-2.36s3.58,.92,4.5,2.36c.2-.1,.4-.2,.6-.29,.1-.04,.2-.07,.31-.07h1.02l.25-1.22c.18-.88-.16-1.74-.89-2.26Z"/><path d="M17.16,8.75c-.86,.39-1.71,.84-2.53,1.34-2.52,1.52-4.24,3.15-5.37,4.23-.93,.89-1.84,1.84-2.7,2.84l-1.29,1.32c.15,1.83,1.62,3.27,3.42,3.27h5.6c1.9,0,3.45-1.61,3.45-3.58V9.76l.06-1.01h-.64Zm-6.13,8.09l-1,1c-.15,.15-.34,.22-.53,.22s-.38-.07-.53-.22c-.29-.29-.29-.77,0-1.06l1-1c.29-.29,.77-.29,1.06,0s.29,.77,0,1.06Zm4,1l-1,1c-.15,.15-.34,.22-.53,.22s-.38-.07-.53-.22c-.29-.29-.29-.77,0-1.06l1-1c.29-.29,.77-.29,1.06,0s.29,.77,0,1.06Zm0-4l-1,1c-.15,.15-.34,.22-.53,.22s-.38-.07-.53-.22c-.29-.29-.29-.77,0-1.06l1-1c.29-.29,.77-.29,1.06,0s.29,.77,0,1.06Z"/><path d="M10.71,11.08l.28,.36c.88-.71,1.91-1.47,3.13-2.21,.43-.26,.87-.51,1.32-.74-.67-1.34-2.17-2.24-3.84-2.24s-3.18,.9-3.85,2.25c.4,.22,.79,.47,1.15,.75,.64,.49,1.23,1.09,1.8,1.84Z"/></g></g></svg>