<?xml version="1.0" encoding="UTF-8"?><svg fill="currentColor" xmlns="http://www.w3.org/2000/svg" viewBox="0 0 24 24"><g id="s"><g><path d="M21,12.07H3c-.41,0-.75,.34-.75,.75v2.43h.75c.12,0,.23,.03,.34,.08,1.21,.61,2.44,.94,3.66,.92,1.01,0,1.58-.21,2.25-.46,.7-.25,1.49-.54,2.75-.54s2.05,.29,2.75,.54c.67,.24,1.25,.45,2.25,.46h.03c1.21,0,2.43-.31,3.63-.92,.11-.05,.22-.08,.34-.08h.75v-2.43c0-.41-.34-.75-.75-.75Z"/><path d="M17.03,17.75h-.04c-1.27,0-2.06-.29-2.76-.55-.67-.24-1.24-.45-2.24-.45s-1.57,.21-2.24,.45c-.7,.25-1.49,.54-2.76,.55-1.4-.02-2.81-.33-4.18-1h-.57v1.25c0,1.52,1.23,2.75,2.75,2.75h14c1.52,0,2.75-1.23,2.75-2.75v-1.25h-.57c-1.36,.66-2.75,1-4.14,1Z"/><path d="M21.52,11.16c-.27-1.09-.84-2.44-2.07-3.64-1.33-1.31-2.85-1.85-3.89-2.08-.95-.21-1.93-.04-2.76,.47L4.41,11.07H21c.18,0,.35,.04,.52,.09Z"/></g></g></svg>