<?xml version="1.0" encoding="UTF-8"?><svg fill="currentColor" xmlns="http://www.w3.org/2000/svg" viewBox="0 0 24 24"><g id="q"><g><path d="M18.72,7.77c-.31-3.08-3.06-5.5-6.29-5.52-3.22,.02-5.98,2.44-6.28,5.52-.23,2.29,.95,4.58,3,5.84,.29,.18,.46,.46,.46,.75v.42c0,.39,.17,.76,.46,1.01,.29,.26,.68,.37,1.14,.32l.44-.1c.33-.12,.56-.14,.59-.13,.04,.02,.08,.04,.12,.06,.15,.08,.35,.19,.69,.27,.12,.02,.24,.04,.36,.04,.42,0,.83-.15,1.16-.42,.44-.36,.69-.9,.69-1.47,0-.29,.17-.58,.46-.75,2.05-1.25,3.23-3.54,3-5.84Z"/><path d="M15.71,17.9l-1.14-.76v-.16c-.37,.17-.76,.26-1.17,.26-.18,0-.37-.02-.56-.06-.36-.08-.61-.18-.79-.27-.03,0-.14,.05-.14,.05l-.54,.13h-.05c-.12,.02-.24,.03-.35,.03-.24,0-.46-.04-.68-.1v.11l-1.14,.76c-.59,.39-.94,1.04-.94,1.75,0,1.16,.94,2.1,2.1,2.1h.16c.55,0,1.1-.23,1.52-.65,.24-.23,.62-.23,.88,.03,.39,.39,.93,.62,1.49,.62h.16c1.16,0,2.1-.94,2.1-2.1,0-.71-.35-1.36-.94-1.75Z"/></g></g></svg>