<?xml version="1.0" encoding="UTF-8"?><svg fill="currentColor" xmlns="http://www.w3.org/2000/svg" viewBox="0 0 24 24"><g id="o"><g><path d="M11.5,9.29c1.4,0,2.54-1.11,2.54-2.48,0-1.25-.95-2.28-2.18-2.45,0-.04,0-.09,.01-.13,.07-.25,.26-.53,.6-.49,.41,.06,.79-.23,.85-.64,.06-.41-.23-.79-.64-.85-1.02-.14-1.98,.52-2.26,1.58-.07,.27-.09,.53-.09,.77-.81,.41-1.37,1.23-1.37,2.19,0,1.37,1.14,2.48,2.54,2.48Z"/><path d="M16.67,17.73c-.56-.06-1.08-.22-1.56-.47-.54,.29-1.18,.44-1.85,.44-.63,0-1.24-.14-1.77-.4-.52,.26-1.13,.4-1.76,.4-.67,0-1.3-.15-1.85-.44-.47,.25-.98,.41-1.51,.46-.14,.01-.27,.02-.41,.02-.45,0-.88-.09-1.29-.24v.04c.07,.81,.23,1.63,.46,2.43,.31,1.05,1.5,1.78,2.9,1.78h6.92c1.4,0,2.59-.73,2.9-1.78,.23-.8,.39-1.62,.46-2.43v-.03c-.41,.15-.84,.24-1.28,.24-.12,0-.24,0-.37-.02Z"/><path d="M19.71,13.73l-.25-1.32c-.2-1.08-.59-2.03-1.16-2.82-.82-1.14-1.96-2.02-3.28-2.6-.09,1.84-1.63,3.31-3.52,3.31s-3.43-1.47-3.52-3.31c-1.33,.58-2.46,1.47-3.28,2.6-.57,.79-.96,1.73-1.16,2.82l-.25,1.32c-.14,.76,.09,1.54,.63,2.14,.58,.63,1.44,.96,2.35,.87,.71-.08,1.25-.37,1.63-.67,.95,.83,2.62,.85,3.6,.05,.98,.8,2.65,.78,3.6-.05,.39,.3,.94,.59,1.66,.67,.09,0,.18,.01,.27,.01,.77,0,1.52-.32,2.04-.89,.54-.59,.78-1.37,.63-2.14Z"/></g></g></svg>