<?xml version="1.0" encoding="UTF-8"?><svg fill="currentColor" xmlns="http://www.w3.org/2000/svg" viewBox="0 0 24 24"><g id="i"><g><path d="M12,10.3c-.94,0-1.7,.76-1.7,1.7s.76,1.7,1.7,1.7,1.7-.76,1.7-1.7-.76-1.7-1.7-1.7Z"/><path d="M12,2.25C6.62,2.25,2.25,6.62,2.25,12c0,1.54,.37,2.98,1,4.28l1.27,.02s.08,0,.13,.01c.4,.07,.76,.22,1.02,.43l.22,.17c.3,.23,1.18,.23,1.48,0,.83-.64,2.47-.64,3.31,0l.22,.17c.25,.19,1.01,.25,1.41,.04l1.11-.57c.9-.46,2.28-.38,3.01,.18l.22,.17c.3,.23,1.18,.23,1.48,0l.09-.07c.27-.21,.63-.36,1.04-.43,.04,0,.07,0,.11-.01l1.36-.05c.66-1.31,1.04-2.79,1.04-4.35,0-5.38-4.37-9.75-9.75-9.75Zm-1.16,3.89l.75-1.45c.19-.37,.64-.51,1.01-.32,.37,.19,.51,.64,.32,1.01l-.75,1.45c-.13,.26-.4,.4-.67,.4-.12,0-.23-.03-.34-.08-.37-.19-.51-.64-.32-1.01Zm-3.31,8.69c-.14,.12-.31,.18-.48,.18-.21,0-.43-.09-.57-.27l-1.05-1.25c-.27-.32-.23-.79,.09-1.06,.32-.27,.79-.23,1.06,.09l1.05,1.25c.27,.32,.23,.79-.09,1.06Zm.56-4.71c-.11,.06-.23,.08-.34,.08-.27,0-.53-.15-.67-.4l-.75-1.45c-.19-.37-.05-.82,.32-1.01,.37-.19,.82-.05,1.01,.32l.75,1.45c.19,.37,.05,.82-.32,1.01Zm3.9,5.09c-1.77,0-3.2-1.44-3.2-3.2s1.44-3.2,3.2-3.2,3.2,1.44,3.2,3.2-1.44,3.2-3.2,3.2Zm3.58-6.1l.75-1.45c.19-.37,.64-.51,1.01-.32,.37,.19,.51,.64,.32,1.01l-.75,1.45c-.13,.26-.4,.4-.67,.4-.12,0-.23-.03-.34-.08-.37-.19-.51-.64-.32-1.01Zm2.62,6.19c-.14,.12-.31,.18-.48,.18-.21,0-.43-.09-.57-.27l-1.05-1.25c-.27-.32-.23-.79,.09-1.06,.32-.27,.79-.23,1.06,.09l1.05,1.25c.27,.32,.23,.79-.09,1.06Z"/><path d="M19.13,18.02l-.09,.07c-.83,.64-2.47,.64-3.31,0l-.22-.17c-.25-.19-1.01-.25-1.41-.04l-1.11,.57c-.39,.2-.87,.3-1.35,.3-.62,0-1.24-.17-1.66-.48l-.22-.17c-.3-.23-1.18-.23-1.48,0-.83,.64-2.47,.64-3.31,0l-.22-.17s-.12-.08-.32-.13h-.25c1.78,2.39,4.62,3.96,7.83,3.96s5.97-1.52,7.76-3.87h-.29c-.21,.05-.31,.12-.34,.14Z"/></g></g></svg>