<?xml version="1.0" encoding="UTF-8"?><svg fill="currentColor" xmlns="http://www.w3.org/2000/svg" viewBox="0 0 24 24"><g id="g"><path d="M21.65,14.75l-.71-3.81c-.79-4.23-4.55-7.3-8.94-7.3S3.85,6.71,3.06,10.93l-.71,3.81c-.32,1.71,.14,3.46,1.26,4.81,1.16,1.39,2.87,2.19,4.7,2.19h7.38c1.83,0,3.54-.8,4.7-2.19,1.12-1.35,1.58-3.1,1.26-4.81Zm-11.8-6.49l-1.38,2.08c-.14,.22-.38,.33-.63,.33-.14,0-.29-.04-.42-.13-.34-.23-.44-.7-.21-1.04l1.38-2.08c.23-.34,.7-.44,1.04-.21s.44,.7,.21,1.04Zm2.9,1.74c0,.41-.34,.75-.75,.75s-.75-.34-.75-.75v-2c0-.41,.34-.75,.75-.75s.75,.34,.75,.75v2Zm3.82,.55c-.13,.08-.27,.13-.42,.13-.24,0-.48-.12-.63-.33l-1.38-2.08c-.23-.34-.14-.81,.21-1.04,.35-.23,.81-.14,1.04,.21l1.38,2.08c.23,.34,.14,.81-.21,1.04Z"/></g></svg>