<?xml version="1.0" encoding="UTF-8"?><svg fill="currentColor" xmlns="http://www.w3.org/2000/svg" viewBox="0 0 24 24"><g id="l"><g><path d="M19.34,8.86c-.34-.39-.83-.61-1.36-.61h-1.98c-.3,0-.56,.17-.68,.44-.76,1.71-2.49,2.73-4.24,2.56-1.47-.15-2.77-1.13-3.39-2.55-.12-.27-.39-.45-.69-.45h-1.99c-.53,0-1.02,.22-1.36,.61-.31,.36-.46,.84-.39,1.31l1.22,8.38c.27,1.83,1.86,3.21,3.71,3.21h6.59c1.85,0,3.44-1.38,3.71-3.21l1.23-8.37h0c.07-.47-.08-.95-.39-1.31Zm-6.34,9.89h-3c-.41,0-.75-.34-.75-.75s.34-.75,.75-.75h3c.41,0,.75,.34,.75,.75s-.34,.75-.75,.75Z"/><path d="M11.46,10.27c.87,0,1.69-.38,2.29-1.02V4c0-.96-.79-1.75-1.75-1.75h-1c-.96,0-1.75,.79-1.75,1.75v5.28c.51,.55,1.19,.91,1.92,.98,.09,0,.19,.01,.28,.01Z"/><path d="M14.75,7.79c.32-.33,.77-.54,1.25-.54h.75v-2.25c0-.96-.79-1.75-1.75-1.75h-.37c.07,.24,.12,.49,.12,.75v3.79Z"/><path d="M17.75,7.25h.23c.53,0,1.04,.16,1.48,.43l.2-1.16c.08-.47-.04-.97-.33-1.35-.29-.38-.73-.63-1.21-.69l-.45-.05c.04,.18,.06,.37,.06,.57v2.25Z"/><path d="M8.25,7.79v-3.79c0-.26,.05-.51,.12-.75h-.37c-.96,0-1.75,.79-1.75,1.75v2.25h.75c.48,0,.93,.21,1.25,.54Z"/><path d="M3.69,7.59c.4-.21,.85-.34,1.32-.34h.24v-2.25c0-.16,.02-.32,.05-.48l-.42,.07c-.48,.08-.91,.36-1.18,.77-.27,.41-.35,.92-.23,1.39l.22,.83Z"/></g></g></svg>