<?xml version="1.0" encoding="UTF-8"?><svg fill="currentColor" xmlns="http://www.w3.org/2000/svg" viewBox="0 0 24 24"><g id="t"><g><path d="M19.61,9.34c1.27-1.27,1.27-3.33,0-4.6l-.35-.35c-1.27-1.27-3.33-1.27-4.6,0L4.21,14.84c-1.27,1.27-1.27,3.33,0,4.6l.35,.35c.63,.63,1.47,.95,2.3,.95s1.66-.32,2.3-.95l10.45-10.45ZM7.64,17.89s-.08,0-.12,0c-.41-.06-.69-.45-.62-.86,.25-1.57,.86-2.77,1.82-3.57,.68-.56,1.31-.74,1.82-.88,.49-.14,.84-.23,1.24-.63s.49-.75,.63-1.24c.14-.51,.32-1.14,.88-1.82,.79-.96,1.99-1.57,3.57-1.82,.41-.07,.79,.21,.86,.62,.06,.41-.21,.79-.62,.86-1.2,.19-2.09,.63-2.65,1.29-.36,.43-.46,.82-.59,1.26-.16,.57-.34,1.22-1.01,1.9s-1.32,.85-1.9,1.01c-.45,.12-.83,.23-1.26,.59-.67,.55-1.1,1.45-1.29,2.65-.06,.37-.38,.63-.74,.63Z"/><path d="M21.09,9.33l-.14-.14c-.18,.3-.38,.59-.64,.85l-10.45,10.45c-.26,.26-.55,.46-.85,.64l.14,.14c.44,.44,1.01,.66,1.59,.66s1.15-.22,1.59-.66l8.76-8.76c.43-.42,.66-.99,.66-1.59s-.23-1.17-.66-1.59Z"/><path d="M13.95,3.69c.26-.26,.55-.46,.85-.64l-.14-.14c-.85-.85-2.33-.85-3.18,0L2.73,11.67c-.88,.88-.88,2.3,0,3.18l.14,.14c.18-.3,.38-.59,.64-.85L13.95,3.69Z"/></g></g></svg>