<?xml version="1.0" encoding="UTF-8"?><svg fill="currentColor" xmlns="http://www.w3.org/2000/svg" viewBox="0 0 24 24"><g id="p"><g><path d="M20.71,4.7c-.67-.47-1.4-.76-2.17-.87-.32-.05-.64-.06-.97-.04-.46-.46-1.35-1.13-2.63-1.13h-.01c-.79,0-1.42,.26-1.84,.51-.56-.15-1.49-.28-2.5,.13-1.09,.44-1.69,1.25-1.98,1.77-1.17,.27-1.96,.91-2.35,1.3-.8,.8-1.15,1.71-1.3,2.35-.52,.29-1.34,.89-1.78,1.98-.4,1.01-.28,1.93-.13,2.5-.25,.42-.51,1.06-.51,1.86,0,1.28,.67,2.17,1.13,2.63-.02,.32,0,.65,.04,.97,.12,.81,.43,1.57,.95,2.27,.44,.6,1.14,.93,1.86,.93,.36,0,.73-.08,1.08-.26l.63-.31-.94-1.44c-2.18-3.54-1.63-8.21,1.29-11.13,3.01-3.01,7.78-3.5,11.34-1.16l1.27,.72,.27-.54c.53-1.06,.21-2.33-.77-3.01Z"/><path d="M9.66,9.75c-2.43,2.43-2.89,6.33-1.08,9.27l1.03,1.58c2.4-1.1,4.58-2.58,6.45-4.45s3.4-4.11,4.5-6.55l-1.39-.79c-3.01-1.98-6.99-1.58-9.5,.94Z"/></g></g></svg>