<?xml version="1.0" encoding="UTF-8"?><svg fill="currentColor" xmlns="http://www.w3.org/2000/svg" viewBox="0 0 24 24"><g id="k"><g><rect x="7.25" y="11.25" width="9.5" height="10.5" rx="2.75" ry="2.75"/><path d="M20.92,12.04l-4.99-7.62c-.89-1.35-2.36-2.16-3.93-2.16s-3.05,.81-3.93,2.16L3.08,12.04c-1.02,1.56-1.1,3.55-.21,5.2,.74,1.36,2,2.25,3.45,2.46-.04-.23-.07-.46-.07-.7v-5c0-2.07,1.68-3.75,3.75-3.75h4c2.07,0,3.75,1.68,3.75,3.75v5c0,.24-.03,.47-.07,.7,1.45-.21,2.72-1.1,3.45-2.46,.89-1.65,.81-3.64-.21-5.2Z"/></g></g></svg>