<?xml version="1.0" encoding="UTF-8"?><svg fill="currentColor" xmlns="http://www.w3.org/2000/svg" viewBox="0 0 24 24"><g id="m"><g><path d="M3,13.25h0c.11,0,.21,.02,.31,.07,1.15,.52,2.29,.71,3.39,.58,.98-.12,1.57-.45,2.19-.8,.73-.41,1.49-.84,2.75-.84s2.01,.43,2.75,.84c.62,.35,1.21,.68,2.19,.8,1.1,.13,2.23-.06,3.37-.57,.1-.04,.2-.07,.31-.07h1.45c-.56-4.53-4.7-8-9.69-8S2.88,8.72,2.31,13.25h.69Zm10.92-4.82c.29-.29,.77-.29,1.06,0l.58,.58c.29,.29,.29,.77,0,1.06-.15,.15-.34,.22-.53,.22s-.38-.07-.53-.22l-.58-.58c-.29-.29-.29-.77,0-1.06Zm-2.67,.53c0-.41,.34-.75,.75-.75s.75,.34,.75,.75v.98c0,.41-.34,.75-.75,.75s-.75-.34-.75-.75v-.98Zm-2.81,.05l.58-.58c.29-.29,.77-.29,1.06,0,.29,.29,.29,.77,0,1.06l-.58,.58c-.15,.15-.34,.22-.53,.22s-.38-.07-.53-.22c-.29-.29-.29-.77,0-1.06Z"/><path d="M20.4,14.75c-1.06,.45-2.12,.68-3.16,.68-.28,0-.57-.02-.85-.05-1.28-.15-2.06-.59-2.75-.98-.64-.36-1.15-.65-2.01-.65s-1.37,.29-2.01,.65c-.69,.39-1.47,.83-2.75,.98-1.32,.16-2.68-.06-4.03-.64h-.34l.71,1.7c.59,1.4,1.94,2.3,3.46,2.3h10.66c1.52,0,2.87-.9,3.46-2.3l.71-1.69h-1.1Z"/></g></g></svg>