<?xml version="1.0" encoding="UTF-8"?><svg fill="currentColor" xmlns="http://www.w3.org/2000/svg" viewBox="0 0 24 24"><g id="f"><g><path d="M21.27,14.83c-.23-.36-.62-.58-1.05-.58H3.78c-.43,0-.82,.21-1.05,.58-.23,.36-.26,.81-.08,1.2l.49,1.06c.47,1.01,1.46,1.67,2.52,1.67h12.68c1.06,0,2.06-.66,2.52-1.67l.49-1.06c.18-.39,.15-.84-.08-1.2Z"/><path d="M13.09,4.25h-2.17c-1.13,0-2.09,.83-2.47,2h7.12c-.39-1.17-1.35-2-2.47-2Z"/><path d="M19.18,9.27c-.11-1.15-1.13-2.02-2.37-2.02H7.19c-1.23,0-2.25,.87-2.37,2.02l-.4,3.98h15.16l-.4-3.98Z"/></g></g></svg>