<?xml version="1.0" encoding="UTF-8"?><svg fill="currentColor" xmlns="http://www.w3.org/2000/svg" viewBox="0 0 24 24"><g id="c"><g><path d="M11.75,12.5c0-3.45-2.13-6.25-4.75-6.25s-4.75,2.8-4.75,6.25,2.13,6.25,4.75,6.25,4.75-2.8,4.75-6.25Zm-2.93,1.7c-.29,.87-1.1,1.46-2.02,1.46-.99,0-1.84-.66-2.07-1.61l-.13-.52c-.24-.97-.06-2.01,.49-2.84l.69-1.04c.23-.34,.69-.44,1.04-.21,.34,.23,.44,.7,.21,1.04l-.69,1.04c-.32,.48-.43,1.08-.29,1.65l.13,.52c.07,.28,.32,.48,.61,.48s.52-.17,.6-.43c.1-.3-.04-.62-.32-.76l-.31-.16c-.37-.18-.52-.63-.34-1.01,.18-.37,.64-.52,1.01-.34l.32,.16c.94,.47,1.4,1.58,1.07,2.58Z"/><path d="M12.67,11.31c.62,.17,1.08,.72,1.08,1.38v.69c0,.35,.34,.64,.75,.64s.75-.29,.75-.64v-2.08c0-1.18,1.01-2.14,2.25-2.14s2.25,.96,2.25,2.14l1.93-.03c-.33-2.9-1.83-5.02-3.68-5.02H9.9c1.44,1.07,2.48,2.9,2.77,5.06Z"/><path d="M19.75,12.75c-.83,0-1.5-.65-1.5-1.44,0-.35-.34-.64-.75-.64s-.75,.29-.75,.64v2.08c0,1.18-1.01,2.14-2.25,2.14-.85,0-1.58-.45-1.96-1.11-.4,1.84-1.36,3.39-2.64,4.34h8.1c2.05,0,3.67-2.62,3.74-6h-1.99Z"/></g></g></svg>