<?xml version="1.0" encoding="UTF-8"?><svg fill="currentColor" xmlns="http://www.w3.org/2000/svg" viewBox="0 0 24 24"><g id="e"><g><path d="M21.04,9.52c-1-1.15-2.86-2.85-5.57-3.72l-.32,1.09c-.16,.46-.3,.91-.43,1.37-.09,.33-.15,.67-.23,1,1.28,.2,2.53,.54,3.73,1.03,1.19,.48,2.1,1.39,2.6,2.51,.05-.05,.11-.09,.15-.14,.85-.87,.87-2.22,.06-3.15Z"/><path d="M17.85,11.22c-1.15-.47-2.35-.79-3.57-.98-.39,2.16-.47,4.4-.21,6.67l.06,.83h3.16c1.64,0,2.97-1.33,2.97-2.97s-.94-2.96-2.4-3.56Z"/><path d="M2.83,9.52c-.81,.93-.77,2.33,.11,3.2h0s.07,.06,.1,.09c.5-1.12,1.42-2.03,2.61-2.52,1.01-.41,2.07-.72,3.15-.93,.11-.5,.2-1.01,.34-1.5,.14-.49,.29-.97,.45-1.42l.3-1.01c-3.53,.62-5.89,2.74-7.07,4.09Z"/><path d="M11.94,5.25c-.14,0-.28,.01-.42,.01l-.49,1.64c-.16,.46-.3,.9-.43,1.36-.09,.34-.16,.68-.23,1.03l2.6-.06c.1-.46,.19-.92,.31-1.37,.14-.49,.29-.97,.45-1.42l.29-1c-.65-.12-1.34-.19-2.08-.19Z"/><path d="M6.04,11.22c-1.47,.59-2.41,1.99-2.41,3.56s1.33,2.97,2.97,2.97h1.93l-.08-.65c-.25-2.27-.19-4.5,.16-6.65-.88,.19-1.74,.44-2.56,.78Z"/><path d="M10.13,10.3c-.38,2.14-.45,4.36-.2,6.62l.11,.83h2.57l-.05-.7c-.26-2.31-.19-4.6,.19-6.82l-2.62,.06Z"/></g></g></svg>