<?xml version="1.0" encoding="UTF-8"?><svg fill="currentColor" xmlns="http://www.w3.org/2000/svg" viewBox="0 0 24 24"><g id="j"><g><path d="M11.99,9.25c-4.35,0-8.22,2.51-9.63,6.25-.2,.53-.18,1.11,.05,1.62,.25,.54,.7,.95,1.27,1.16,2.61,.96,5.48,1.47,8.3,1.47s5.65-.5,8.3-1.47c.57-.21,1.03-.62,1.27-1.16,.24-.51,.25-1.09,.05-1.62-1.41-3.74-5.28-6.25-9.63-6.25Z"/><path d="M12,6.25c-1.64,0-3.01,1.06-3.53,2.52,1.11-.34,2.3-.52,3.51-.52s2.42,.19,3.54,.53c-.51-1.47-1.89-2.53-3.53-2.53Z"/><path d="M2.25,11.52l.36,1.4c1.14-1.61,2.76-2.88,4.64-3.68l.28-.8c.67-1.91,2.46-3.19,4.47-3.19s3.81,1.29,4.47,3.2l.28,.8c1.86,.81,3.47,2.06,4.6,3.66l.36-1.39s.02-.07,.02-.1c.04-.37,.1-1.64-.92-2.62-.23-.22-.49-.41-.78-.55-.18-.09-.24-.29-.25-.45-.01-.92-.41-1.78-1.08-2.37-.78-.67-1.88-.94-2.94-.71-.4,.08-.84-.06-1.15-.38-.68-.69-1.64-1.09-2.63-1.09s-1.94,.4-2.63,1.09c-.32,.32-.76,.47-1.15,.38-1.07-.23-2.17,.04-2.94,.71-.68,.58-1.07,1.45-1.08,2.37,0,.16-.07,.36-.25,.45-.29,.15-.55,.33-.78,.55-1.02,.99-.96,2.26-.92,2.63,0,.04,.01,.07,.02,.1Z"/></g></g></svg>