<?xml version="1.0" encoding="UTF-8"?><svg fill="currentColor" xmlns="http://www.w3.org/2000/svg" viewBox="0 0 24 24"><g id="h"><g><path d="M20.53,16.26c-.23-.32-.6-.51-1-.51H3.47c-.4,0-.77,.19-1,.51-.22,.31-.28,.71-.15,1.07l.35,.99c.72,2.05,2.72,3.42,4.98,3.42h7.72c2.26,0,4.26-1.38,4.98-3.42l.35-.99c.13-.36,.07-.76-.15-1.07Z"/><path d="M6,4.5c.12,0,.24-.04,.34-.1l1.76,1.77c-1.1,.78-1.83,1.98-1.85,3.35,.55-.17,1.14-.27,1.74-.27,1.36,0,2.59,.48,3.57,1.26,.99-.81,2.22-1.26,3.54-1.26,.21,0,.41,.01,.61,.03-.17-2.25-2.21-4.03-4.72-4.03-.51,0-1,.09-1.46,.23h0l-2.13-2.14c.15-.28,.11-.64-.12-.87-.29-.29-.77-.29-1.06,0l-.75,.75c-.29,.29-.29,.77,0,1.06,.15,.15,.34,.22,.53,.22Z"/><path d="M12.32,11.2c.85,.96,1.37,2.2,1.41,3.55h5.8c.07,0,.13,.02,.2,.02-.08-2.51-2.12-4.52-4.62-4.52-1.03,0-2,.34-2.79,.95Z"/><path d="M12.73,14.75c-.1-2.5-2.17-4.5-4.73-4.5s-4.65,2.02-4.73,4.52c.07,0,.13-.02,.2-.02H12.73Z"/></g></g></svg>