<?xml version="1.0" encoding="UTF-8"?><svg fill="currentColor" xmlns="http://www.w3.org/2000/svg" viewBox="0 0 24 24"><g id="n"><g><path d="M12,4.75c.41,0,.75-.34,.75-.75v-1c0-.41-.34-.75-.75-.75s-.75,.34-.75,.75v1c0,.41,.34,.75,.75,.75Z"/><path d="M16,4.75c.41,0,.75-.34,.75-.75v-1c0-.41-.34-.75-.75-.75s-.75,.34-.75,.75v1c0,.41,.34,.75,.75,.75Z"/><path d="M8,4.75c.41,0,.75-.34,.75-.75v-1c0-.41-.34-.75-.75-.75s-.75,.34-.75,.75v1c0,.41,.34,.75,.75,.75Z"/><path d="M21,19.25h-.25v-2.25c0-1.52-1.23-2.75-2.75-2.75H6c-1.52,0-2.75,1.23-2.75,2.75v2.25h-.25c-.41,0-.75,.34-.75,.75s.34,.75,.75,.75H21c.41,0,.75-.34,.75-.75s-.34-.75-.75-.75Z"/><path d="M18,13.25c.26,0,.51,.03,.75,.08v-1.33c0-1.25-.85-2.3-2-2.63v-2.37c0-.41-.34-.75-.75-.75s-.75,.34-.75,.75v2.25h-2.5v-2.25c0-.41-.34-.75-.75-.75s-.75,.34-.75,.75v2.25h-2.5v-2.25c0-.41-.34-.75-.75-.75s-.75,.34-.75,.75v2.37c-.45,.13-.86,.35-1.19,.69-.52,.52-.81,1.21-.81,1.94v1.33c.24-.05,.49-.08,.75-.08h12Z"/></g></g></svg>