<?xml version="1.0" encoding="UTF-8"?><svg fill="currentColor" xmlns="http://www.w3.org/2000/svg" viewBox="0 0 24 24"><g id="d"><g><ellipse cx="12" cy="14.5" rx="1.25" ry="1.75"/><path d="M12.41,2.26c-2.02-.1-3.97,.59-5.49,1.96-1.59,1.44-2.53,3.42-2.63,5.6-.03,.64-.04,1.29-.02,1.94,.04,1.23,.17,2.46,.39,3.66,.44,2.4,1.85,4.58,3.87,5.97l.05,.04c.3,.21,.66,.32,1.01,.32,.28,0,.55-.07,.81-.2,.6-.31,.97-.93,.97-1.62v-1.7c0-.22,.12-.41,.3-.52-1.35-.2-2.4-1.56-2.4-3.21,0-1.48,.85-2.72,2-3.11v-3.39c0-.41,.34-.75,.75-.75s.75,.34,.75,.75v3.39c1.15,.39,2,1.63,2,3.11,0,1.65-1.05,3-2.4,3.21,.18,.11,.3,.3,.3,.52v1.63c0,.7,.38,1.34,.99,1.66,.59,.31,1.3,.26,1.84-.12,2.01-1.4,3.42-3.57,3.86-5.97,.22-1.21,.36-2.44,.39-3.66,.01-.49,.01-.97,0-1.44-.12-4.3-3.34-7.84-7.33-8.06Z"/></g></g></svg>