<?xml version="1.0" encoding="UTF-8"?><svg fill="currentColor" xmlns="http://www.w3.org/2000/svg" viewBox="0 0 24 24"><g id="r"><g><path d="M17.1,16.51c-.81-4.95-4.66-8.8-9.61-9.61h-.98l-3.19,9.56c-.55,1.66-.36,3.12,.54,4.02,.46,.47,1.07,.71,1.71,.71,.28,0,.57-.05,.85-.14l10.67-3.56v-.98Zm-9.08,.24c-.41,0-.75-.34-.75-.75s.33-.75,.75-.75h0c.42,0,.75,.34,.75,.75s-.33,.75-.75,.75Zm1-4c-.41,0-.75-.34-.75-.75s.33-.75,.75-.75h0c.42,0,.75,.34,.75,.75s-.33,.75-.75,.75Zm4,3c-.41,0-.75-.34-.75-.75s.33-.75,.75-.75h0c.42,0,.75,.34,.75,.75s-.33,.75-.75,.75Z"/><path d="M21.64,13.69c-.77-5.9-5.43-10.56-11.33-11.33-1.28-.16-2.49,.62-2.91,1.86l-.39,1.18h.54s.08,0,.12,0c5.65,.89,10.04,5.28,10.93,10.92,0,.04,0,.08,0,.12v.54l.12-.04c2.65-.88,3.06-2.26,2.93-3.26Z"/></g></g></svg>