<?xml version="1.0" encoding="UTF-8"?><svg fill="currentColor" xmlns="http://www.w3.org/2000/svg" viewBox="0 0 24 24"><g id="c"><g><path d="M6,17.23c-1.01,0-1.95-.3-2.75-.8v2.55c0,.96,.79,1.75,1.75,1.75h14c.96,0,1.75-.79,1.75-1.75v-2.55c-.8,.5-1.74,.8-2.75,.8H6Z"/><path d="M20,6.23h-3.25v-1.25c0-.96-.79-1.75-1.75-1.75h-6c-.96,0-1.75,.79-1.75,1.75v1.25h-3.25c-.96,0-1.75,.79-1.75,1.75v4c0,2.07,1.68,3.75,3.75,3.75h5.25v-1.75c0-.41,.34-.75,.75-.75s.75,.34,.75,.75v1.75h5.25c2.07,0,3.75-1.68,3.75-3.75V7.98c0-.96-.79-1.75-1.75-1.75Zm-11.25-1.25c0-.14,.11-.25,.25-.25h6c.14,0,.25,.11,.25,.25v1.25h-6.5v-1.25Z"/></g></g></svg>