<?xml version="1.0" encoding="UTF-8"?><svg fill="currentColor" xmlns="http://www.w3.org/2000/svg" viewBox="0 0 24 24"><g id="i"><g><circle cx="13" cy="8.98" r="1.25"/><path d="M19,2.23H7c-1.52,0-2.75,1.23-2.75,2.75v1.25h1.75c.41,0,.75,.34,.75,.75s-.34,.75-.75,.75h-1.75v3.5h1.75c.41,0,.75,.34,.75,.75s-.34,.75-.75,.75h-1.75v3.5h1.75c.41,0,.75,.34,.75,.75s-.34,.75-.75,.75h-1.75v1.25c0,1.52,1.23,2.75,2.75,2.75h12c1.52,0,2.75-1.23,2.75-2.75V4.98c0-1.52-1.23-2.75-2.75-2.75Zm-6,4c1.52,0,2.75,1.23,2.75,2.75s-1.23,2.75-2.75,2.75-2.75-1.23-2.75-2.75,1.23-2.75,2.75-2.75Zm3.75,10.75c0,.41-.34,.75-.75,.75s-.75-.34-.75-.75v-1c0-.69-.56-1.25-1.25-1.25h-2c-.69,0-1.25,.56-1.25,1.25v1c0,.41-.34,.75-.75,.75s-.75-.34-.75-.75v-1c0-1.52,1.23-2.75,2.75-2.75h2c1.52,0,2.75,1.23,2.75,2.75v1Z"/><path d="M3,6.23c-.41,0-.75,.34-.75,.75s.34,.75,.75,.75h1.25v-1.5h-1.25Z"/><path d="M3,11.23c-.41,0-.75,.34-.75,.75s.34,.75,.75,.75h1.25v-1.5h-1.25Z"/><path d="M3,16.23c-.41,0-.75,.34-.75,.75s.34,.75,.75,.75h1.25v-1.5h-1.25Z"/></g></g></svg>