<?xml version="1.0" encoding="UTF-8"?><svg fill="currentColor" xmlns="http://www.w3.org/2000/svg" viewBox="0 0 24 24"><g id="g"><g><path d="M20,20.23H7.75v-1.5h7.5v-7.5H7.75v-1.5h7.5V2.23H5c-1.52,0-2.75,1.23-2.75,2.75v2c0,1.52,1.23,2.75,2.75,2.75h1.25v1.5h-1.25c-1.52,0-2.75,1.23-2.75,2.75v2c0,1.52,1.23,2.75,2.75,2.75h1.25v1.5h-2.25c-.41,0-.75,.34-.75,.75s.34,.75,.75,.75H20c.41,0,.75-.34,.75-.75s-.34-.75-.75-.75ZM6,6.73c-.41,0-.75-.34-.75-.75s.34-.75,.75-.75h1c.41,0,.75,.34,.75,.75s-.34,.75-.75,.75h-1Zm1,9h-1c-.41,0-.75-.34-.75-.75s.34-.75,.75-.75h1c.41,0,.75,.34,.75,.75s-.34,.75-.75,.75Z"/><path d="M19,2.23h-2.25v7.5h2.25c1.52,0,2.75-1.23,2.75-2.75v-2c0-1.52-1.23-2.75-2.75-2.75Z"/><path d="M19,11.23h-2.25v7.5h2.25c1.52,0,2.75-1.23,2.75-2.75v-2c0-1.52-1.23-2.75-2.75-2.75Z"/></g></g></svg>