<?xml version="1.0" encoding="UTF-8"?><svg fill="currentColor" xmlns="http://www.w3.org/2000/svg" viewBox="0 0 24 24"><g id="u"><g><rect x="2.25" y="7.23" width="5.5" height="13.5" rx="1.75" ry="1.75"/><rect x="9.25" y="11.23" width="5.5" height="9.5" rx="1.75" ry="1.75"/><rect x="16.25" y="15.23" width="5.5" height="5.5" rx="1.75" ry="1.75"/><path d="M19.17,9.71s.08-.04,.12-.05c.03-.01,.07-.03,.1-.05,.09-.06,.17-.13,.23-.22,0,0,.01,0,.02-.02,.05-.09,.09-.18,.1-.27,.01-.08,0-.17,0-.26,0-.01,0-.02,0-.03l-.65-2.75c-.1-.4-.5-.65-.9-.56-.4,.09-.65,.5-.56,.9l.23,.99-3.56-2.21c-.35-.22-.81-.11-1.03,.24-.22,.35-.11,.81,.24,1.03l3.56,2.21-.99,.23c-.4,.09-.65,.5-.56,.9,.08,.35,.39,.58,.73,.58,.06,0,.11,0,.17-.02l2.75-.65Z"/></g></g></svg>