<?xml version="1.0" encoding="UTF-8"?><svg fill="currentColor" xmlns="http://www.w3.org/2000/svg" viewBox="0 0 24 24"><g id="q"><g><path d="M21.12,16.96c-.35-1.06-1.4-1.69-2.5-1.51l-3.21,.53c-.91,.15-1.83,.12-2.72-.11l-1.22-.31c-.42-.1-.71-.48-.71-.91,0-.52,.42-.93,.93-.93h.82c1.24,0,2.25-1.01,2.25-2.25s-1.01-2.25-2.25-2.25h-3.07c-1.05,0-2.07,.2-3.04,.59l-3.67,1.47c-.29,.11-.47,.39-.47,.7v7c0,.34,.23,.64,.57,.73l6.38,1.59c.65,.16,1.32,.24,1.99,.24,.54,0,1.08-.05,1.6-.16l6.69-1.34c.63-.13,1.18-.52,1.5-1.08,.32-.56,.39-1.23,.19-1.84l-.06-.17Z"/><path d="M12.5,7.73c2.07,0,3.75,1.68,3.75,3.75,0,1.28-.64,2.41-1.62,3.09,.18-.01,.35-.03,.53-.06l3.21-.53c.21-.03,.42-.05,.62-.05,.52,0,1.02,.12,1.48,.32,.81-1.22,1.28-2.69,1.28-4.26,0-4.27-3.48-7.75-7.75-7.75-3.66,0-6.73,2.56-7.54,5.98,.96-.31,1.95-.48,2.97-.48h3.07Z"/></g></g></svg>