<?xml version="1.0" encoding="UTF-8"?><svg fill="currentColor" xmlns="http://www.w3.org/2000/svg" viewBox="0 0 24 24"><g id="p"><g><rect x="10.75" y="13.23" width="2.5" height="8.5"/><path d="M4.25,13.14v5.85c0,1.52,1.23,2.75,2.75,2.75h2.25V13.23H5c-.26,0-.51-.04-.75-.1Z"/><path d="M14.75,13.23v8.5h2.25c1.52,0,2.75-1.23,2.75-2.75v-5.85c-.24,.06-.49,.1-.75,.1h-4.25Z"/><path d="M19,7.23h-3.19l.77-.77c.6-.6,.82-1.44,.59-2.25s-.85-1.42-1.67-1.63c-1.12-.28-2.28,.32-2.71,1.38l-.8,1.99-.8-1.99c-.43-1.07-1.59-1.66-2.71-1.38-.82,.21-1.44,.81-1.67,1.63s0,1.66,.59,2.25l.77,.77h-3.19c-.96,0-1.75,.79-1.75,1.75v1c0,.96,.79,1.75,1.75,1.75h4.25V7.23h1.06l-1.83-1.83c-.3-.3-.25-.65-.21-.79s.17-.47,.59-.57c.4-.1,.8,.11,.95,.49l1.08,2.71h-.14v4.5h2.5V7.23h-.14l1.08-2.71c.15-.38,.56-.59,.95-.49,.41,.1,.55,.43,.59,.57s.09,.49-.21,.79l-1.83,1.83h1.06v4.5h4.25c.96,0,1.75-.79,1.75-1.75v-1c0-.96-.79-1.75-1.75-1.75Z"/></g></g></svg>