<?xml version="1.0" encoding="UTF-8"?><svg fill="currentColor" xmlns="http://www.w3.org/2000/svg" viewBox="0 0 24 24"><g id="d"><g><path d="M18.86,14.9c-2.84-1.24-5.64-.59-6.86,.74-1.21-1.33-4.02-1.98-6.86-.74-.34,.15-.52,.52-.42,.88,.83,3.08,3.23,4.91,5.05,4.91,.06,0,.11,0,.17,0,.77-.05,1.48-.43,2.06-1.07,.58,.64,1.29,1.02,2.06,1.07,.05,0,.11,0,.17,0,1.82,0,4.22-1.83,5.05-4.91,.1-.36-.08-.73-.42-.88Z"/><path d="M12,13.73c3.17,0,5.75-2.58,5.75-5.75s-2.58-5.75-5.75-5.75-5.75,2.58-5.75,5.75,2.58,5.75,5.75,5.75Zm-1-6.5h2c.41,0,.75,.34,.75,.75s-.34,.75-.75,.75h-2c-.41,0-.75-.34-.75-.75s.34-.75,.75-.75Z"/></g></g></svg>