<?xml version="1.0" encoding="UTF-8"?><svg fill="currentColor" xmlns="http://www.w3.org/2000/svg" viewBox="0 0 24 24"><g id="t"><g><path d="M21.67,15.09c-.1-.56-.27-1.11-.53-1.61l-1.57-3.1c-.99-1.94-2.97-3.15-5.17-3.15h-4.79c-2.2,0-4.18,1.21-5.17,3.15l-1.57,3.1c-.26,.51-.44,1.05-.53,1.61-.28,1.64,.18,3.31,1.26,4.59,1.1,1.3,2.72,2.05,4.44,2.05h7.94c1.72,0,3.34-.75,4.44-2.05,1.08-1.28,1.54-2.95,1.26-4.59Z"/><path d="M8.18,5.89c.47-.09,.94-.15,1.43-.15h4.79c.49,0,.96,.06,1.43,.15l.45-1.35c.18-.53,.09-1.12-.24-1.58-.33-.46-.86-.73-1.42-.73h-5.23c-.56,0-1.09,.27-1.42,.73-.33,.46-.42,1.04-.24,1.58l.45,1.35Z"/></g></g></svg>