<?xml version="1.0" encoding="UTF-8"?><svg fill="currentColor" xmlns="http://www.w3.org/2000/svg" viewBox="0 0 24 24"><g id="r"><path d="M19,7.23H5c-1.52,0-2.75,1.23-2.75,2.75v4c0,1.52,1.23,2.75,2.75,2.75h14c1.52,0,2.75-1.23,2.75-2.75v-4c0-1.52-1.23-2.75-2.75-2.75ZM7.94,12.16c.29,.29,.29,.77,0,1.06-.15,.15-.34,.22-.53,.22s-.38-.07-.53-.22l-.18-.18-.18,.18c-.15,.15-.34,.22-.53,.22s-.38-.07-.53-.22c-.29-.29-.29-.77,0-1.06l.18-.18-.18-.18c-.29-.29-.29-.77,0-1.06s.77-.29,1.06,0l.18,.18,.18-.18c.29-.29,.77-.29,1.06,0s.29,.77,0,1.06l-.18,.18,.18,.18Zm5.29,0c.29,.29,.29,.77,0,1.06-.15,.15-.34,.22-.53,.22s-.38-.07-.53-.22l-.18-.18-.18,.18c-.15,.15-.34,.22-.53,.22s-.38-.07-.53-.22c-.29-.29-.29-.77,0-1.06l.18-.18-.18-.18c-.29-.29-.29-.77,0-1.06s.77-.29,1.06,0l.18,.18,.18-.18c.29-.29,.77-.29,1.06,0s.29,.77,0,1.06l-.18,.18,.18,.18Zm5.29,0c.29,.29,.29,.77,0,1.06-.15,.15-.34,.22-.53,.22s-.38-.07-.53-.22l-.18-.18-.18,.18c-.15,.15-.34,.22-.53,.22s-.38-.07-.53-.22c-.29-.29-.29-.77,0-1.06l.18-.18-.18-.18c-.29-.29-.29-.77,0-1.06s.77-.29,1.06,0l.18,.18,.18-.18c.29-.29,.77-.29,1.06,0s.29,.77,0,1.06l-.18,.18,.18,.18Z"/></g></svg>