<?xml version="1.0" encoding="UTF-8"?><svg fill="currentColor" xmlns="http://www.w3.org/2000/svg" viewBox="0 0 24 24"><g id="e"><g><path d="M9,2.23H4c-.96,0-1.75,.79-1.75,1.75v5c0,.96,.79,1.75,1.75,1.75h5c.96,0,1.75-.79,1.75-1.75V3.98c0-.96-.79-1.75-1.75-1.75Zm-1.25,4.75c0,.41-.34,.75-.75,.75h-1c-.41,0-.75-.34-.75-.75v-1c0-.41,.34-.75,.75-.75h1c.41,0,.75,.34,.75,.75v1Z"/><path d="M9,12.23H4c-.96,0-1.75,.79-1.75,1.75v5c0,.96,.79,1.75,1.75,1.75h5c.96,0,1.75-.79,1.75-1.75v-5c0-.96-.79-1.75-1.75-1.75Zm-1.25,4.75c0,.41-.34,.75-.75,.75h-1c-.41,0-.75-.34-.75-.75v-1c0-.41,.34-.75,.75-.75h1c.41,0,.75,.34,.75,.75v1Z"/><path d="M19,2.23h-5c-.96,0-1.75,.79-1.75,1.75v5c0,.96,.79,1.75,1.75,1.75h5c.96,0,1.75-.79,1.75-1.75V3.98c0-.96-.79-1.75-1.75-1.75Zm-1.25,4.75c0,.41-.34,.75-.75,.75h-1c-.41,0-.75-.34-.75-.75v-1c0-.41,.34-.75,.75-.75h1c.41,0,.75,.34,.75,.75v1Z"/><path d="M20,17.23c-.41,0-.75,.34-.75,.75v1c0,.14-.11,.25-.25,.25h-1c-.41,0-.75,.34-.75,.75s.34,.75,.75,.75h1c.96,0,1.75-.79,1.75-1.75v-1c0-.41-.34-.75-.75-.75Z"/><path d="M16,15.23h-2.25v-2.25c0-.41-.34-.75-.75-.75s-.75,.34-.75,.75v6c0,.96,.79,1.75,1.75,1.75h1c.41,0,.75-.34,.75-.75s-.34-.75-.75-.75h-1c-.14,0-.25-.11-.25-.25v-2.25h2.25c.41,0,.75-.34,.75-.75s-.34-.75-.75-.75Z"/><path d="M20,12.23h-4c-.41,0-.75,.34-.75,.75s.34,.75,.75,.75h4c.41,0,.75-.34,.75-.75s-.34-.75-.75-.75Z"/><path d="M19.77,15.98c0-.41-.34-.75-.75-.75h-.01c-.41,0-.74,.34-.74,.75s.34,.75,.75,.75,.75-.34,.75-.75Z"/></g></g></svg>