<?xml version="1.0" encoding="UTF-8"?><svg fill="currentColor" xmlns="http://www.w3.org/2000/svg" viewBox="0 0 24 24"><g id="n"><g><path d="M12,1.98c-2.64,0-5.15,1.06-7,2.86v-.86c0-.55-.45-1-1-1s-1,.45-1,1V7.98c0,.55,.45,1,1,1h3c.55,0,1-.45,1-1s-.45-1-1-1h-1.24c1.51-1.87,3.8-3,6.24-3,4.41,0,8,3.59,8,8s-3.59,8-8,8-8-3.59-8-8c0-.55-.45-1-1-1s-1,.45-1,1c0,5.51,4.49,10,10,10s10-4.49,10-10S17.51,1.98,12,1.98Z"/><path d="M12,6.98c-.55,0-1,.45-1,1v4c0,.33,.17,.65,.45,.83l3,2c.17,.11,.36,.17,.55,.17,.32,0,.64-.16,.83-.45,.31-.46,.18-1.08-.28-1.39l-2.55-1.7v-3.46c0-.55-.45-1-1-1Z"/></g></g></svg>