<?xml version="1.0" encoding="UTF-8"?><svg fill="currentColor" xmlns="http://www.w3.org/2000/svg" viewBox="0 0 24 24"><g id="s"><path d="M20.67,7.38c-.08-.81-.7-1.46-1.5-1.57-1.02-.14-2.01-.44-2.94-.88-1.12-.53-2.13-1.26-3.02-2.17h0c-.65-.67-1.77-.67-2.42,0-.89,.91-1.9,1.64-3.02,2.17-.93,.44-1.92,.74-2.94,.88-.8,.11-1.42,.76-1.5,1.57-.21,2.03-.3,7.18,3.23,11.04,1.33,1.45,2.98,2.52,4.9,3.18,.18,.06,.36,.09,.54,.09s.36-.03,.54-.09c1.92-.66,3.57-1.73,4.9-3.18,3.54-3.86,3.44-9,3.23-11.04Zm-5.07,3.06l-3,4c-.13,.17-.33,.28-.55,.3-.02,0-.04,0-.05,0-.2,0-.39-.08-.53-.22l-2-2c-.29-.29-.29-.77,0-1.06s.77-.29,1.06,0l1.39,1.39,2.48-3.31c.25-.33,.72-.4,1.05-.15,.33,.25,.4,.72,.15,1.05Z"/></g></svg>