<?xml version="1.0" encoding="UTF-8"?><svg fill="currentColor" xmlns="http://www.w3.org/2000/svg" viewBox="0 0 24 24"><g id="h"><g><path d="M20.6,12.43c.2-.27,.2-.63,0-.9-3.07-4.09-7.7-4.3-8.6-4.3-5.12,0-8.06,3.58-8.6,4.3-.2,.27-.2,.63,0,.9,3.07,4.09,7.7,4.3,8.6,4.3,5.12,0,8.06-3.58,8.6-4.3Zm-8.6,1.8c-1.24,0-2.25-1.01-2.25-2.25s1.01-2.25,2.25-2.25,2.25,1.01,2.25,2.25-1.01,2.25-2.25,2.25Z"/><path d="M3,7.73c.41,0,.75-.34,.75-.75V3.98c0-.14,.11-.25,.25-.25h3c.41,0,.75-.34,.75-.75s-.34-.75-.75-.75h-3c-.96,0-1.75,.79-1.75,1.75v3c0,.41,.34,.75,.75,.75Z"/><path d="M20,2.23h-3c-.41,0-.75,.34-.75,.75s.34,.75,.75,.75h3c.14,0,.25,.11,.25,.25v3c0,.41,.34,.75,.75,.75s.75-.34,.75-.75V3.98c0-.96-.79-1.75-1.75-1.75Z"/><path d="M7,20.23h-3c-.14,0-.25-.11-.25-.25v-3c0-.41-.34-.75-.75-.75s-.75,.34-.75,.75v3c0,.96,.79,1.75,1.75,1.75h3c.41,0,.75-.34,.75-.75s-.34-.75-.75-.75Z"/><path d="M21,16.23c-.41,0-.75,.34-.75,.75v3c0,.14-.11,.25-.25,.25h-3c-.41,0-.75,.34-.75,.75s.34,.75,.75,.75h3c.96,0,1.75-.79,1.75-1.75v-3c0-.41-.34-.75-.75-.75Z"/></g></g></svg>