<?xml version="1.0" encoding="UTF-8"?><svg fill="currentColor" xmlns="http://www.w3.org/2000/svg" viewBox="0 0 24 24"><g id="l"><path d="M20,9.23h-1.84c-.34-.76-.81-1.46-1.42-2.06-1.3-1.28-3-1.97-4.84-1.94-2.67,.04-5.01,1.67-6.06,4h-1.85c-.96,0-1.75,.79-1.75,1.75v2c0,.96,.79,1.75,1.75,1.75h2c.06,0,.11-.02,.17-.03,.14,.03,.28,.04,.42,0,.39-.14,.59-.57,.46-.96-.24-.68-.34-1.4-.29-2.13,.19-2.65,2.5-4.83,5.16-4.87,1.41-.03,2.75,.52,3.76,1.51s1.56,2.32,1.56,3.74c0,1.93-1.06,3.71-2.76,4.62-.3,.16-.66,.19-.99,.08l-1.27-.42c-.39-.13-.82,.08-.95,.48-.13,.39,.08,.82,.48,.95l1.27,.42c.28,.09,.58,.14,.87,.14,.45,0,.9-.11,1.3-.32,1.34-.72,2.36-1.86,2.96-3.19h1.84c.96,0,1.75-.79,1.75-1.75v-2c0-.96-.79-1.75-1.75-1.75Z"/></g></svg>