<?xml version="1.0" encoding="UTF-8"?><svg fill="currentColor" xmlns="http://www.w3.org/2000/svg" viewBox="0 0 24 24"><g id="m"><g><path d="M11.25,13.98c0-.41,.34-.75,.75-.75h4.75v-1.5h-4.75c-.3,0-.58-.18-.69-.46-.12-.28-.05-.6,.16-.82l2-2c.29-.29,.77-.29,1.06,0s.29,.77,0,1.06l-.72,.72h2.94V4.98c0-1.52-1.23-2.75-2.75-2.75H6c-1.52,0-2.75,1.23-2.75,2.75v14c0,1.52,1.23,2.75,2.75,2.75H14c1.52,0,2.75-1.23,2.75-2.75v-4.25h-4.75c-.41,0-.75-.34-.75-.75Zm-.25,4.75h-2c-.41,0-.75-.34-.75-.75s.34-.75,.75-.75h2c.41,0,.75,.34,.75,.75s-.34,.75-.75,.75Z"/><path d="M20,11.73c.41,0,.75-.34,.75-.75s-.34-.75-.75-.75h-3.25v1.5h3.25Z"/><path d="M20,13.23h-3.25v1.5h1.44l-.72,.72c-.29,.29-.29,.77,0,1.06,.15,.15,.34,.22,.53,.22s.38-.07,.53-.22l2-2c.21-.21,.28-.54,.16-.82-.12-.28-.39-.46-.69-.46Z"/></g></g></svg>