<?xml version="1.0" encoding="UTF-8"?><svg fill="currentColor" xmlns="http://www.w3.org/2000/svg" viewBox="0 0 24 24"><g id="b"><g><path d="M11.67,10.9c.28-.15,.62-.33,1.12-.47,.75-.22,1.58-.28,2.46-.17v-1.69c-.75-.11-1.43-.08-2.04,.1-.35,.1-.59,.23-.84,.36-.33,.17-.7,.37-1.25,.46-.74,.12-1.53,.01-2.37-.32v1.55c.8,.43,1.52,.6,2.13,.5,.31-.05,.51-.16,.79-.31Z"/><path d="M9.82,15.75l.41,.41s.11,.07,.18,.07h3.17c.07,0,.13-.03,.18-.07l.42-.42c.33-.33,.77-.51,1.24-.51h5.34V7.98c0-2.07-1.68-3.75-3.75-3.75H7c-2.07,0-3.75,1.68-3.75,3.75v7.25h5.33c.47,0,.91,.18,1.24,.51Zm-2.57-4.61v-3.21c0-.27,.15-.52,.38-.65,.24-.13,.53-.13,.76,.01,.95,.58,1.79,.82,2.49,.7,.31-.05,.51-.16,.79-.31,.28-.15,.62-.33,1.12-.47,1.01-.3,2.15-.3,3.38,0,.34,.08,.58,.38,.58,.73v3.21c0,.23-.1,.45-.28,.59-.18,.14-.42,.19-.64,.14-.98-.23-1.86-.23-2.62,0-.35,.1-.59,.23-.84,.36-.33,.17-.7,.37-1.25,.46-.2,.03-.4,.05-.6,.05-.9,0-1.88-.32-2.91-.95-.22-.14-.36-.38-.36-.64Z"/><path d="M21.72,16.73h-6.31c-.07,0-.13,.03-.18,.07l-.42,.42c-.33,.33-.77,.51-1.24,.51h-3.17c-.47,0-.91-.18-1.24-.51l-.41-.41s-.11-.07-.18-.07H2.28c-.01,.08-.03,.16-.03,.25v1c0,1.52,1.23,2.75,2.75,2.75h14c1.52,0,2.75-1.23,2.75-2.75v-1c0-.09-.01-.17-.03-.25Z"/></g></g></svg>