<?xml version="1.0" encoding="UTF-8"?><svg fill="currentColor" xmlns="http://www.w3.org/2000/svg" viewBox="0 0 24 24"><g id="o"><path d="M21,7.75c.41,0,.75-.34,.75-.75s-.34-.75-.75-.75h-.25V3.75h.25c.41,0,.75-.34,.75-.75s-.34-.75-.75-.75H3c-.41,0-.75,.34-.75,.75s.34,.75,.75,.75h.25v2.5h-.25c-.41,0-.75,.34-.75,.75s.34,.75,.75,.75h.25v7.5h-.25c-.41,0-.75,.34-.75,.75s.34,.75,.75,.75h.25v4.25c0,.41,.34,.75,.75,.75H20c.41,0,.75-.34,.75-.75v-4.25h.25c.41,0,.75-.34,.75-.75s-.34-.75-.75-.75h-.25V7.75h.25Zm-1.75-1.5h-3.5V3.75h3.5v2.5Zm-9.5,0V3.75h4.5v2.5h-4.5ZM4.75,3.75h3.5v2.5h-3.5V3.75Zm0,13h3.5v3.5h-3.5v-3.5Zm9.5,3.5h-4.5v-5.25c0-1.24,1.01-2.25,2.25-2.25s2.25,1.01,2.25,2.25v5.25Zm5,0h-3.5v-3.5h3.5v3.5Zm0-5h-3.5v-.25c0-2.07-1.68-3.75-3.75-3.75s-3.75,1.68-3.75,3.75v.25h-3.5V7.75h14.5v7.5Z"/></g></svg>