<?xml version="1.0" encoding="UTF-8"?><svg fill="currentColor" xmlns="http://www.w3.org/2000/svg" viewBox="0 0 24 24"><g id="j"><g><path d="M17,11.25h-.25v-1.5h.25c.3,0,.58-.18,.69-.46s.05-.6-.16-.82l-2.87-2.88-.94-2.83c-.1-.31-.39-.51-.71-.51h-1c-.32,0-.61,.21-.71,.51l-.94,2.83-2.87,2.88c-.21,.21-.28,.54-.16,.82s.39,.46,.69,.46h.25v1.5h-.25c-.41,0-.75,.34-.75,.75v9c0,.41,.34,.75,.75,.75h9c.41,0,.75-.34,.75-.75V12c0-.41-.34-.75-.75-.75Zm-5.47-4.72c.08-.08,.14-.18,.18-.29l.79-2.37,.79,2.37c.04,.11,.1,.21,.18,.29l1.72,1.72h-5.38l1.72-1.72Zm-1.78,3.22h5.5v1.5h-5.5v-1.5Zm6.5,10.5h-7.5v-7.5h7.5v7.5Z"/><path d="M12.5,14.25c-1.24,0-2.25,1.01-2.25,2.25s1.01,2.25,2.25,2.25,2.25-1.01,2.25-2.25-1.01-2.25-2.25-2.25Zm0,3c-.41,0-.75-.34-.75-.75s.34-.75,.75-.75,.75,.34,.75,.75-.34,.75-.75,.75Z"/></g></g></svg>