<?xml version="1.0" encoding="UTF-8"?><svg fill="currentColor" xmlns="http://www.w3.org/2000/svg" viewBox="0 0 24 24"><g id="p"><path d="M19,20.25h-1c1.62-6.14-.23-12.28-4.61-14.89-1.35-.81-2.92-1.22-4.63-1.29v-1.06c0-.41-.34-.75-.75-.75s-.75,.34-.75,.75V20.25h-1.25c-.41,0-.75,.34-.75,.75s.34,.75,.75,.75h13c.41,0,.75-.34,.75-.75s-.34-.75-.75-.75ZM8.75,7.65c1.23,1.04,2.6,2.56,3.57,4.66,1.47,3.18,1.35,6.15,1.06,7.94h-4.62V7.65Zm6.15,12.6c.29-2,.35-5.18-1.21-8.56-1.34-2.91-3.36-4.8-4.93-5.93v-.2c1.44,.07,2.74,.42,3.87,1.09,3.9,2.32,5.47,7.98,3.83,13.61h-1.55Z"/></g></svg>