<?xml version="1.0" encoding="UTF-8"?><svg fill="currentColor" xmlns="http://www.w3.org/2000/svg" viewBox="0 0 24 24"><g id="f"><path d="M21,11.25h-2.41l-.59-2.37c-.23-.92-.9-1.64-1.8-1.94l-1.17-.39c-.32-.11-.57-.33-.72-.63l-1.08-2.15c-.47-.94-1.41-1.52-2.46-1.52H6c-.96,0-1.75,.79-1.75,1.75v7.25h-.25c-.41,0-.75,.34-.75,.75s.34,.75,.75,.75h.25v8.25c0,.41,.34,.75,.75,.75h15c.41,0,.75-.34,.75-.75V12.75h.25c.41,0,.75-.34,.75-.75s-.34-.75-.75-.75ZM5.75,4c0-.14,.11-.25,.25-.25h4.76c.48,0,.9,.26,1.12,.69l1.08,2.15c.33,.66,.89,1.15,1.59,1.38l1.17,.39c.41,.14,.71,.47,.82,.88l.5,2h-5.29v-2.75c0-1.24-1.01-2.25-2.25-2.25s-2.25,1.01-2.25,2.25v2.75h-1.5V4Zm4.5,7.25h-1.5v-2.75c0-.41,.34-.75,.75-.75s.75,.34,.75,.75v2.75Zm-1.5,9v-2.75c0-.41,.34-.75,.75-.75s.75,.34,.75,.75v2.75h-1.5Zm6,0v-2.75c0-.41,.34-.75,.75-.75s.75,.34,.75,.75v2.75h-1.5Zm4.5,0h-1.5v-2.75c0-1.24-1.01-2.25-2.25-2.25s-2.25,1.01-2.25,2.25v2.75h-1.5v-2.75c0-1.24-1.01-2.25-2.25-2.25s-2.25,1.01-2.25,2.25v2.75h-1.5v-7.5h13.5v7.5Z"/></g></svg>