<?xml version="1.0" encoding="UTF-8"?><svg fill="currentColor" xmlns="http://www.w3.org/2000/svg" viewBox="0 0 24 24"><g id="n"><path d="M21,20.25h-2.6c-1.02-1.45-1.81-2.96-2.35-4.5h.95c.41,0,.75-.34,.75-.75s-.34-.75-.75-.75h-1.42c-.14-.57-.25-1.15-.43-2.15-.07-.38-.15-.83-.25-1.35h1.1c.41,0,.75-.34,.75-.75s-.34-.75-.75-.75h-1.38c-.25-1.33-.49-2.49-.68-3.43-.14-.65-.6-1.17-1.19-1.42v-1.4c0-.41-.34-.75-.75-.75s-.75,.34-.75,.75v1.4c-.59,.24-1.05,.77-1.19,1.42-.19,.93-.43,2.1-.68,3.43h-1.38c-.41,0-.75,.34-.75,.75s.34,.75,.75,.75h1.1c-.1,.52-.18,.97-.25,1.36-.18,.99-.28,1.57-.42,2.14h-1.42c-.41,0-.75,.34-.75,.75s.34,.75,.75,.75h.95c-.55,1.54-1.33,3.05-2.35,4.5H3c-.41,0-.75,.34-.75,.75s.34,.75,.75,.75H21c.41,0,.75-.34,.75-.75s-.34-.75-.75-.75ZM11.53,6.13c.09-.44,.85-.44,.94,0,.18,.86,.39,1.92,.62,3.12h-2.19c.23-1.2,.45-2.26,.62-3.12Zm-1.21,6.25c.08-.45,.18-.98,.3-1.63h2.76c.12,.64,.22,1.17,.3,1.61,.15,.83,.25,1.38,.36,1.89h-4.07c.11-.51,.21-1.07,.36-1.88Zm2.93,7.88h-2.5v-.25c0-.69,.56-1.25,1.25-1.25s1.25,.56,1.25,1.25v.25Zm1.5,0v-.25c0-1.52-1.23-2.75-2.75-2.75s-2.75,1.23-2.75,2.75v.25h-1.83c.92-1.45,1.63-2.96,2.12-4.5h4.92c.5,1.54,1.2,3.05,2.12,4.5h-1.83Z"/></g></svg>