<?xml version="1.0" encoding="UTF-8"?><svg fill="currentColor" xmlns="http://www.w3.org/2000/svg" viewBox="0 0 24 24"><g id="c"><g><path d="M21.59,18.54l-7-9c-.28-.37-.9-.37-1.18,0l-2.33,3c-.25,.33-.2,.8,.13,1.05,.33,.26,.8,.2,1.05-.13l1.74-2.24,5.47,7.03h-6.12l-4.78-5.73c-.29-.34-.87-.34-1.15,0l-5,6c-.19,.22-.23,.54-.1,.8,.12,.26,.39,.43,.68,.43H21c.29,0,.55-.16,.67-.42,.13-.26,.09-.56-.08-.79Zm-16.99-.29l3.4-4.08,3.4,4.08H4.6Z"/><path d="M5.5,10.75c1.79,0,3.25-1.46,3.25-3.25s-1.46-3.25-3.25-3.25-3.25,1.46-3.25,3.25,1.46,3.25,3.25,3.25Zm0-5c.96,0,1.75,.79,1.75,1.75s-.79,1.75-1.75,1.75-1.75-.79-1.75-1.75,.79-1.75,1.75-1.75Z"/></g></g></svg>