<?xml version="1.0" encoding="UTF-8"?><svg fill="currentColor" xmlns="http://www.w3.org/2000/svg" viewBox="0 0 24 24"><g id="d"><path d="M20.7,6.74s-.02-.04-.03-.06c-.03-.06-.07-.12-.12-.18-.01-.01-.02-.03-.03-.04-.05-.05-.12-.1-.18-.13L12.34,2.33c-.21-.11-.46-.11-.67,0L3.66,6.33c-.07,.03-.13,.08-.18,.13-.01,.01-.02,.03-.03,.04-.05,.05-.09,.11-.12,.17-.01,.02-.02,.04-.03,.07-.03,.08-.05,.17-.05,.26v10c0,.28,.16,.54,.41,.67l8,4s.01,0,.02,0c.1,.05,.2,.07,.31,.07s.22-.03,.31-.07c0,0,.01,0,.02,0l8-4c.25-.13,.42-.39,.42-.67V7c0-.09-.02-.18-.05-.26Zm-15.95,1.47l6.5,3.25v1.32l-6.5-3.25v-1.32Zm8,3.25l6.5-3.25v1.32l-6.5,3.25v-1.32Zm-.75-7.62l6.32,3.16-6.32,3.16-6.32-3.16,6.32-3.16Zm-7.25,7.37l6.5,3.25v5.32l-6.5-3.25v-5.32Zm11.51,6.82l-.51,.25v-1.82l.5-.25v1.79s0,.02,0,.03Zm1.49-.75v-2.29c0-.26-.13-.5-.36-.64-.22-.14-.5-.15-.73-.03l-2,1c-.25,.13-.42,.39-.42,.67v3s0,.02,0,.03l-1.51,.75v-5.32l6.5-3.25v5.32l-1.5,.75Z"/></g></svg>