<?xml version="1.0" encoding="UTF-8"?><svg fill="currentColor" xmlns="http://www.w3.org/2000/svg" viewBox="0 0 24 24"><g id="h"><path d="M21,17.25h-.25v-2.25c0-.41-.34-.75-.75-.75h-.25v-2.25c0-.41-.34-.75-.75-.75h-.25v-2.25c0-.41-.34-.75-.75-.75h-1.25V3.75h.25c.41,0,.75-.34,.75-.75s-.34-.75-.75-.75H7c-.41,0-.75,.34-.75,.75s.34,.75,.75,.75h.25v4.5h-1.25c-.41,0-.75,.34-.75,.75v2.25h-.25c-.41,0-.75,.34-.75,.75v2.25h-.25c-.41,0-.75,.34-.75,.75v2.25h-.25c-.41,0-.75,.34-.75,.75v3c0,.41,.34,.75,.75,.75H7c.41,0,.75-.34,.75-.75v-2.25h.25c.41,0,.75-.34,.75-.75v-2.25h.25c.41,0,.75-.34,.75-.75v-2.25h.25c.41,0,.75-.34,.75-.75v-2.25h2.5v2.25c0,.41,.34,.75,.75,.75h.25v2.25c0,.41,.34,.75,.75,.75h.25v2.25c0,.41,.34,.75,.75,.75h.25v2.25c0,.41,.34,.75,.75,.75h4c.41,0,.75-.34,.75-.75v-3c0-.41-.34-.75-.75-.75ZM8.75,3.75h6.5v4.5h-6.5V3.75Zm-2.5,16.5H3.75v-1.5h2.5v1.5Zm1-3h-2.5v-1.5h2.5v1.5Zm1-3h-2.5v-1.5h2.5v1.5Zm1-3h-2.5v-1.5h2.5v1.5Zm6.75-1.5h1.25v1.5h-2.5v-1.5h1.25Zm2,3h.25v1.5h-2.5v-1.5h2.25Zm1,3h.25v1.5h-2.5v-1.5h2.25Zm1.25,4.5h-2.5v-1.5h2.5v1.5Z"/></g></svg>