<?xml version="1.0" encoding="UTF-8"?><svg fill="currentColor" xmlns="http://www.w3.org/2000/svg" viewBox="0 0 24 24"><g id="b"><path d="M21.23,13.29c-.58-.19-1.11-.18-1.56,.04-.43,.21-.65,.53-.8,.76-.1,.15-.15,.21-.2,.24-.09,.04-.25,.03-.44-.04-.23-.07-.48-.04-.67,.11-.2,.14-.31,.37-.31,.61v3c0,.32,.21,.61,.52,.71,.27,.09,.54,.13,.78,.13,.28,0,.54-.06,.78-.17,.43-.21,.64-.53,.8-.76,.06-.08,.09-.14,.13-.17v2.51h-3.59l-1.92-15.34c-.02-.17-.1-.32-.21-.44l-2-2c-.07-.07-.15-.12-.24-.16-.18-.08-.39-.08-.57,0-.09,.04-.17,.09-.24,.16l-2,2c-.12,.12-.19,.27-.21,.44l-1.92,15.34H3.75v-2.61s.07,.09,.13,.17c.16,.23,.37,.56,.8,.76,.24,.11,.5,.17,.77,.17,.25,0,.51-.04,.78-.13,.31-.1,.52-.39,.52-.71v-3c0-.24-.12-.47-.31-.61-.19-.14-.44-.18-.67-.11-.2,.07-.36,.08-.44,.04-.05-.03-.1-.09-.2-.24-.16-.23-.37-.55-.8-.76-.45-.21-.97-.23-1.55-.04-.31,.1-.52,.39-.52,.71v7.1c0,.41,.34,.75,.75,.75H21c.41,0,.75-.34,.75-.75v-7c0-.32-.21-.61-.52-.71ZM3.75,14.64s.07,.09,.13,.18c.16,.23,.37,.56,.8,.76,.18,.09,.37,.14,.57,.16v1.42s-.07-.09-.13-.18c-.16-.23-.37-.55-.8-.76-.18-.08-.37-.14-.57-.16v-1.42ZM10.71,5.35l.54-.54v15.44h-2.4l1.86-14.9Zm2.04,14.9V4.81l.54,.54,1.86,14.9h-2.4Zm6.93-3.93c-.43,.21-.65,.53-.8,.76-.05,.08-.09,.14-.13,.18v-1.42c.2-.02,.39-.07,.57-.16,.43-.21,.64-.53,.8-.76,.05-.08,.09-.14,.13-.18v1.42c-.2,.02-.39,.08-.57,.16Z"/></g></svg>