<?xml version="1.0" encoding="UTF-8"?><svg fill="currentColor" xmlns="http://www.w3.org/2000/svg" viewBox="0 0 24 24"><g id="r"><path d="M21,20.25h-2.25v-3.5h2.25c.38,0,.7-.28,.74-.66,.05-.38-.2-.73-.56-.82-1.18-.3-2.33-.71-3.43-1.22v-5.3h1.4c.81,0,1.54-.45,1.91-1.18,.25-.51,.3-1.09,.12-1.63-.18-.54-.56-.98-1.07-1.23-.37-.18-.82-.03-1.01,.34-.19,.37-.04,.82,.34,1.01,.15,.08,.26,.21,.32,.37,.05,.16,.04,.33-.03,.48-.11,.22-.32,.35-.57,.35h-1.94c-.97-.51-1.88-1.12-2.72-1.82-.69-.58-1.33-1.22-1.91-1.91-.29-.34-.86-.34-1.15,0-.58,.69-1.22,1.33-1.91,1.91-.84,.7-1.75,1.31-2.72,1.82h-1.94c-.24,0-.46-.13-.57-.35-.08-.15-.09-.32-.03-.48,.05-.16,.17-.29,.32-.37,.37-.19,.52-.64,.34-1.01-.19-.37-.64-.52-1.01-.34-.51,.25-.89,.69-1.07,1.23-.18,.54-.14,1.12,.12,1.63,.36,.73,1.09,1.18,1.91,1.18h1.4v5.3c-1.1,.51-2.25,.93-3.43,1.22-.37,.09-.61,.44-.56,.82,.05,.38,.37,.66,.74,.66h2.25v3.5H3c-.41,0-.75,.34-.75,.75s.34,.75,.75,.75H21c.41,0,.75-.34,.75-.75s-.34-.75-.75-.75Zm-4.75-11.5v4.52c-1.35-.78-2.61-1.73-3.73-2.81-.29-.28-.75-.28-1.04,0-1.12,1.09-2.38,2.03-3.73,2.81v-4.52h8.5Zm-7.88,5.9c1.3-.74,2.52-1.62,3.63-2.62,1.11,1,2.33,1.89,3.63,2.62,.37,.21,.75,.41,1.13,.6H7.24c.38-.19,.76-.39,1.13-.6Zm2.11-8.08c.53-.45,1.04-.93,1.52-1.44,.48,.51,.99,1,1.52,1.44,.28,.23,.57,.46,.86,.68h-4.75c.29-.22,.58-.44,.86-.68Zm2.27,13.68v-1.25c0-.41-.34-.75-.75-.75s-.75,.34-.75,.75v1.25H6.75v-3.5h10.5v3.5h-4.5Z"/></g></svg>