<?xml version="1.0" encoding="UTF-8"?><svg fill="currentColor" xmlns="http://www.w3.org/2000/svg" viewBox="0 0 24 24"><g id="m"><path d="M20.75,10.43v-2.43s0-.01,0-.02c0-.05-.02-.1-.03-.15-.01-.05-.02-.1-.04-.14,0,0,0-.02,0-.02l-1.92-3.84v-.82c0-.41-.34-.75-.75-.75s-.75,.34-.75,.75v.82l-1.92,3.84s0,.02,0,.02c-.02,.04-.03,.09-.04,.14-.01,.05-.03,.1-.03,.15,0,0,0,.01,0,.02v2.43c-.59,.28-1,.88-1,1.57v1.25h-4.5v-1.25c0-.7-.41-1.29-1-1.57v-2.43s0-.01,0-.02c0-.05-.02-.1-.03-.15-.01-.05-.02-.1-.04-.14,0,0,0-.02,0-.02l-1.92-3.84v-.82c0-.41-.34-.75-.75-.75s-.75,.34-.75,.75v.82l-1.92,3.84s0,.02,0,.02c-.02,.04-.03,.09-.04,.14-.01,.05-.03,.1-.03,.15,0,0,0,.01,0,.02v2.43c-.59,.28-1,.88-1,1.57v9c0,.41,.34,.75,.75,.75h6c.41,0,.75-.34,.75-.75v-3.41c.53-.16,1.18-.47,1.78-1.06,.13-.13,.3-.32,.47-.56,.13,.19,.29,.38,.47,.56,.31,.31,.91,.78,1.78,1.05v3.42c0,.41,.34,.75,.75,.75h6c.41,0,.75-.34,.75-.75V12c0-.7-.41-1.29-1-1.57Zm-2.75-4.75l.79,1.57h-1.57l.79-1.57Zm-1.25,3.07h2.5v1.5h-2.5v-1.5ZM6,5.68l.79,1.57h-1.57l.79-1.57Zm-1.25,3.07h2.5v1.5h-2.5v-1.5Zm3.5,11.5H3.75V12c0-.14,.11-.25,.25-.25h4c.14,0,.25,.11,.25,.25v8.25Zm1.5-4.27v-1.23h1.23c-.17,.33-.37,.58-.51,.72-.24,.23-.48,.39-.72,.51Zm3.78-.51c-.24-.24-.39-.48-.51-.72h1.23v1.23c-.33-.17-.58-.37-.72-.51Zm6.72,4.78h-4.5V12c0-.14,.11-.25,.25-.25h4c.14,0,.25,.11,.25,.25v8.25Z"/></g></svg>