<?xml version="1.0" encoding="UTF-8"?><svg fill="currentColor" xmlns="http://www.w3.org/2000/svg" viewBox="0 0 24 24"><g id="u"><path d="M20.82,6.85c-.07-.9-.84-1.6-1.74-1.6h-2.36c-.75,0-1.42,.48-1.66,1.2l-1.6,4.8h-2.92l-1.6-4.8c-.24-.72-.91-1.2-1.66-1.2h-2.36c-.9,0-1.67,.71-1.74,1.6l-.83,10c-.04,.49,.13,.97,.46,1.33s.8,.57,1.29,.57h15.83c.49,0,.96-.21,1.29-.57s.5-.84,.46-1.33l-.83-10ZM3.9,17.17s-.07-.09-.06-.19l.83-10c.01-.13,.12-.23,.25-.23h2.36c.11,0,.2,.07,.24,.17l1.44,4.33h-1.96c-.41,0-.75,.34-.75,.75s.34,.75,.75,.75h.25v4.5h-3.16c-.1,0-.16-.05-.18-.08Zm8.85,.08v-1.25c0-.41-.34-.75-.75-.75s-.75,.34-.75,.75v1.25h-2.5v-4.5h6.5v4.5h-2.5Zm7.35-.08s-.09,.08-.18,.08h-3.16v-4.5h.25c.41,0,.75-.34,.75-.75s-.34-.75-.75-.75h-1.96l1.44-4.33c.03-.1,.13-.17,.24-.17h2.36c.13,0,.24,.1,.25,.23l.83,10c0,.09-.04,.16-.06,.19Z"/></g></svg>