<?xml version="1.0" encoding="UTF-8"?><svg fill="currentColor" xmlns="http://www.w3.org/2000/svg" viewBox="0 0 24 24"><g id="l"><path d="M21,20.25h-3.2l.64-1.71h0l1.74-4.68h0l1.39-3.75c.16-.44,.15-.91-.05-1.34-.19-.43-.54-.75-.98-.91l-.23-.09,.44-1.17c.16-.44,.15-.91-.05-1.34-.2-.43-.54-.75-.98-.91l-5.32-1.98c-.9-.34-1.91,.13-2.25,1.03l-.44,1.17-.54-.2c-.44-.16-.91-.15-1.34,.05-.42,.19-.75,.54-.91,.98L3.39,20.25h-.39c-.41,0-.75,.34-.75,.75s.34,.75,.75,.75H21c.41,0,.75-.34,.75-.75s-.34-.75-.75-.75ZM13.56,3.91c.05-.13,.19-.2,.32-.15l5.32,1.98c.08,.03,.12,.09,.14,.13,.02,.04,.04,.11,0,.19l-.44,1.17-5.79-2.15,.43-1.17Zm2.32,10.73c-.39-.14-.82,.05-.96,.44l-.44,1.17-1.41-.52,.44-1.17c.14-.39-.05-.82-.44-.96-.39-.14-.82,.05-.96,.44l-.44,1.17-1.4-.52,.44-1.17c.14-.39-.05-.82-.44-.96-.39-.14-.82,.05-.96,.44l-.44,1.17-1.41-.52,1.22-3.28,2.11,.78h0l5.62,2.09h0l2.11,.79-1.22,3.28-1.41-.52,.44-1.17c.14-.39-.05-.82-.44-.96ZM10.33,5.91c.05-.13,.2-.19,.32-.15l9.37,3.49c.08,.03,.12,.1,.14,.13,.02,.03,.04,.11,0,.19l-1.13,3.05-1.4-.52,.44-1.17c.14-.39-.05-.82-.44-.96-.38-.14-.82,.05-.96,.44l-.44,1.17-1.41-.52,.44-1.17c.14-.39-.05-.82-.44-.96-.39-.14-.82,.05-.96,.44l-.44,1.17-1.41-.52,.44-1.17c.14-.39-.05-.82-.44-.96-.39-.14-.82,.05-.96,.44l-.44,1.17-1.41-.52,1.13-3.05Zm-3.4,9.14l2.11,.78h0l5.62,2.09h0l2.11,.79-.57,1.54h-1.61c.11-.38-.08-.78-.45-.92-.39-.14-.82,.05-.96,.44l-.18,.47h-1.6l.37-1c.14-.39-.05-.82-.44-.96-.39-.14-.82,.05-.96,.44l-.57,1.52h-1.6l.76-2.04c.14-.39-.05-.82-.44-.96-.38-.14-.82,.05-.96,.44l-.96,2.57h-1.6l1.94-5.2Z"/></g></svg>