<?xml version="1.0" encoding="UTF-8"?><svg fill="currentColor" xmlns="http://www.w3.org/2000/svg" viewBox="0 0 24 24"><g id="t"><path d="M18,20.25h-1.25v-4.25c0-.34-.23-.64-.57-.73l-.46-.12c.01-.05,.03-.1,.03-.16v-5c0-.32-.21-.61-.51-.71l-.51-.17s.02-.08,.02-.12V5c0-.28-.16-.54-.41-.67l-4-2c-.23-.12-.51-.1-.73,.03-.22,.14-.36,.38-.36,.64V7.29h-.01c-.23-.08-.48-.04-.68,.1-.2,.14-.31,.37-.31,.61v5.29l-.07-.02c-.23-.06-.46,0-.64,.14-.18,.14-.29,.36-.29,.59v6.25h-1.25c-.41,0-.75,.34-.75,.75s.34,.75,.75,.75h12c.41,0,.75-.34,.75-.75s-.34-.75-.75-.75ZM10.75,4.21l2.5,1.25v3.16l-2.5-.83v-3.58Zm-1,4.83l4.5,1.5v4.25l-4.5-1.13v-4.62Zm-1,11.21v-5.29l6.5,1.63v3.66h-6.5Z"/></g></svg>