<?xml version="1.0" encoding="UTF-8"?><svg fill="currentColor" xmlns="http://www.w3.org/2000/svg" viewBox="0 0 24 24"><g id="k"><path d="M16,20.25h-1.25v-2.5h.25c.32,0,.61-.21,.71-.51l1-3c.08-.23,.04-.48-.1-.68s-.37-.31-.61-.31h-1.25V6c0-.96-.79-1.75-1.75-1.75h-.25v-1.25c0-.41-.34-.75-.75-.75s-.75,.34-.75,.75v1.25h-.25c-.96,0-1.75,.79-1.75,1.75v7.25h-1.25c-.24,0-.47,.12-.61,.31s-.18,.45-.1,.68l1,3c.1,.31,.39,.51,.71,.51h.25v2.5h-1.25c-.41,0-.75,.34-.75,.75s.34,.75,.75,.75h8c.41,0,.75-.34,.75-.75s-.34-.75-.75-.75Zm-5.25-11.5h2.5v1.5h-2.5v-1.5Zm.25-3h2c.14,0,.25,.11,.25,.25v1.25h-2.5v-1.25c0-.14,.11-.25,.25-.25Zm-.25,6h2.5v1.5h-2.5v-1.5Zm-.75,3h4.96l-.5,1.5h-4.92l-.5-1.5h.96Zm.75,5.5v-2.5h2.5v2.5h-2.5Z"/></g></svg>