<?xml version="1.0" encoding="UTF-8"?><svg fill="currentColor" xmlns="http://www.w3.org/2000/svg" viewBox="0 0 24 24"><g id="e"><path d="M18.75,17.37v-.24c0-1.06-.36-2.05-.96-2.85l2.74-2.74c.15-.15,.23-.36,.22-.58-.09-1.3-.58-4.56-3.3-6.55-.62-.46-1.33-.81-2.09-1.06-1.31-.94-2.66-1.09-3.36-1.09-1.6,0-2.77,.66-3.37,1.09-.75,.25-1.45,.6-2.08,1.05-2.72,2-3.22,5.25-3.3,6.55-.01,.22,.07,.43,.22,.58l2.74,2.74c-.6,.8-.96,1.79-.96,2.85v.24c-1.15,.33-2,1.38-2,2.63v1c0,.41,.34,.75,.75,.75h6c.41,0,.75-.34,.75-.75v-4c0-.14,.11-.25,.25-.25h2c.14,0,.25,.11,.25,.25v4c0,.41,.34,.75,.75,.75h6c.41,0,.75-.34,.75-.75v-1c0-1.25-.85-2.3-2-2.63Zm.47-6.65l-2.51,2.51c-.46-.32-.98-.57-1.56-.72-.24-.06-.4-.27-.4-.51v-1.71c.63-.69,1-1.6,1-2.53v-2.65c.28,.14,.55,.31,.81,.49,2.02,1.48,2.54,3.87,2.67,5.11ZM9.75,4.4c.48-.3,1.26-.65,2.25-.65,.48,0,1.36,.09,2.25,.64v3.36c0,.59-.24,1.17-.66,1.59l-.41,.41c-.63,.63-1.73,.63-2.35,0l-.41-.41c-.42-.42-.66-1-.66-1.59v-3.36Zm-2.31,1.21c.25-.19,.52-.35,.81-.49v2.65c0,.94,.37,1.84,1,2.53v1.71c0,.24-.17,.46-.4,.51-.57,.14-1.09,.39-1.56,.72l-2.51-2.51c.13-1.24,.65-3.63,2.67-5.11Zm1.81,14.65H4.75v-.25c0-.69,.56-1.25,1.25-1.25h2c.69,0,1.25,.56,1.25,1.25v.25Zm3.75-5h-2c-.96,0-1.75,.79-1.75,1.75v.56c-.38-.19-.8-.31-1.25-.31h-1.25v-.13c0-1.49,1.01-2.79,2.46-3.15,.91-.23,1.54-1.04,1.54-1.97v-.51c.39,.17,.81,.26,1.25,.26s.86-.09,1.25-.26v.51c0,.93,.63,1.74,1.54,1.97,1.45,.36,2.46,1.66,2.46,3.15v.13h-1.25c-.45,0-.87,.12-1.25,.31v-.56c0-.96-.79-1.75-1.75-1.75Zm6.25,5h-4.5v-.25c0-.69,.56-1.25,1.25-1.25h2c.69,0,1.25,.56,1.25,1.25v.25Z"/></g></svg>