<?xml version="1.0" encoding="UTF-8"?><svg fill="currentColor" xmlns="http://www.w3.org/2000/svg" viewBox="0 0 24 24"><g id="q"><path d="M21.55,19.75l-.68-4.07c-.14-.83-.85-1.43-1.69-1.43-.09,0-.14-.05-.17-.08s-.06-.09-.04-.18l.65-3.24h.17c.53,0,1.02-.23,1.35-.64s.47-.94,.36-1.45l-.6-3c-.16-.81-.88-1.41-1.72-1.41H10.24c-.27,0-.54,.06-.78,.18l-1.58,.79s-.07,.03-.11,.03h-3.76c-.96,0-1.75,.79-1.75,1.75v2c0,.96,.79,1.75,1.75,1.75h.25v1.85c0,.06-.02,.11-.06,.15l-.43,.43c-.33,.32-.5,.76-.5,1.22v5.63c0,.95,.77,1.72,1.72,1.72h2.97c.48,0,.94-.2,1.27-.56,.33-.36,.49-.83,.44-1.31l-.83-9.13h5.36l-.83,9.13c-.04,.48,.12,.96,.44,1.31,.32,.36,.79,.56,1.27,.56h4.8c.51,0,.98-.22,1.31-.61s.47-.89,.38-1.39ZM3.75,9v-2c0-.14,.11-.25,.25-.25h3.76c.27,0,.54-.06,.78-.18l1.58-.79s.07-.03,.11-.03h8.94c.12,0,.22,.08,.25,.2l.6,3c.02,.1-.02,.17-.05,.21s-.09,.09-.19,.09H4c-.14,0-.25-.11-.25-.25Zm4.41,11.01c0,.08-.03,.14-.06,.17-.02,.03-.08,.07-.16,.07h-2.97c-.12,0-.22-.1-.22-.22v-5.63c0-.06,.02-.11,.06-.15l.43-.43c.33-.32,.5-.76,.5-1.22v-1.85h1.57l.84,9.26Zm11.87,.16s-.08,.08-.17,.08h-4.8c-.08,0-.14-.04-.16-.07-.02-.03-.06-.08-.06-.17l.84-9.26h2.4l-.59,2.95c-.1,.51,.03,1.03,.36,1.43,.33,.4,.81,.63,1.33,.63,.11,0,.2,.08,.21,.18l.68,4.06c.01,.09-.02,.15-.05,.18Z"/></g></svg>