<?xml version="1.0" encoding="UTF-8"?><svg fill="currentColor" xmlns="http://www.w3.org/2000/svg" viewBox="0 0 24 24"><g id="s"><path d="M21,10.25h-2.25v-1.93c.78-.39,1.44-1.02,1.85-1.84l1.07-2.14c.13-.26,.1-.57-.08-.8-.18-.23-.48-.33-.76-.27-5.79,1.3-11.88,1.3-17.67,0-.28-.06-.58,.04-.75,.27-.18,.23-.21,.54-.08,.8l1.07,2.14c.41,.82,1.07,1.45,1.85,1.84v1.93H3c-.24,0-.47,.12-.61,.31-.14,.2-.18,.45-.1,.68l1,3c.1,.31,.39,.51,.71,.51h1.25v5.25c0,.96,.79,1.75,1.75,1.75h1c.96,0,1.75-.79,1.75-1.75v-5.25h4.5v5.25c0,.96,.79,1.75,1.75,1.75h1c.96,0,1.75-.79,1.75-1.75v-5.25h1.25c.32,0,.61-.21,.71-.51l1-3c.08-.23,.04-.48-.1-.68-.14-.2-.37-.31-.61-.31ZM4.74,5.8l-.38-.76c5.04,.94,10.24,.94,15.28,0l-.38,.76c-.45,.89-1.34,1.45-2.34,1.45H7.08c-1,0-1.89-.55-2.34-1.45Zm9.51,4.45h-4.5v-1.5h4.5v1.5Zm-9.71,3l-.5-1.5h1.21v1.5h-.71Zm3.71,6.75c0,.14-.11,.25-.25,.25h-1c-.14,0-.25-.11-.25-.25V8.75h1.5v11.25Zm1.5-6.75v-1.5h4.5v1.5h-4.5Zm7.5,6.75c0,.14-.11,.25-.25,.25h-1c-.14,0-.25-.11-.25-.25V8.75h1.5v11.25Zm2.21-6.75h-.71v-1.5h1.21l-.5,1.5Z"/></g></svg>