<?xml version="1.0" encoding="UTF-8"?><svg fill="currentColor" xmlns="http://www.w3.org/2000/svg" viewBox="0 0 24 24"><g id="i"><g><path d="M12.02,9.25h-.01c-.41,0-.74,.34-.74,.75s.34,.75,.75,.75,.75-.34,.75-.75-.34-.75-.75-.75Z"/><path d="M12.02,13.25h-.01c-.41,0-.74,.34-.74,.75s.34,.75,.75,.75,.75-.34,.75-.75-.34-.75-.75-.75Z"/><path d="M12.02,17.25h-.01c-.41,0-.74,.34-.74,.75s.34,.75,.75,.75,.75-.34,.75-.75-.34-.75-.75-.75Z"/><path d="M17,20.25h-1.3l-.95-13.3h0c0-.11-.03-.2-.08-.29h0l-2-4c-.25-.51-1.09-.51-1.34,0l-2,4h0c-.04,.09-.07,.18-.08,.28h0l-.95,13.3h-1.3c-.41,0-.75,.34-.75,.75s.34,.75,.75,.75h10c.41,0,.75-.34,.75-.75s-.34-.75-.75-.75ZM12,4.68l.79,1.57h-1.57l.79-1.57Zm-2.19,15.57l.89-12.5h2.6l.89,12.5h-4.39Z"/></g></g></svg>