<?xml version="1.0" encoding="UTF-8"?><svg fill="currentColor" xmlns="http://www.w3.org/2000/svg" viewBox="0 0 24 24"><g id="t"><g><path d="M16.25,15.67v4.58h-1.25c-.41,0-.75,.34-.75,.75s.34,.75,.75,.75h4c.41,0,.75-.34,.75-.75s-.34-.75-.75-.75h-1.25v-4.58c2.02-.32,3.61-1.91,3.93-3.92H12.32c.32,2.01,1.92,3.6,3.93,3.92Z"/><path d="M20.5,7.25h-7c-.69,0-1.25,.56-1.25,1.25v1.75h9.5v-1.75c0-.69-.56-1.25-1.25-1.25Z"/><path d="M9.53,10.47c-.5-.5-.78-1.18-.78-1.88v-1.84H4.25v1.84c0,.7-.28,1.39-.78,1.88-.75,.75-1.16,1.73-1.2,2.78H10.73c-.04-1.05-.46-2.03-1.2-2.78Z"/><rect x="2.25" y="14.75" width="8.5" height="2.5"/><path d="M2.25,20c0,.96,.79,1.75,1.75,1.75h5c.96,0,1.75-.79,1.75-1.75v-1.25H2.25v1.25Z"/><path d="M8.75,4c0-.96-.79-1.75-1.75-1.75h-1c-.96,0-1.75,.79-1.75,1.75v1.25h4.5v-1.25Z"/></g></g></svg>