<?xml version="1.0" encoding="UTF-8"?><svg fill="currentColor" xmlns="http://www.w3.org/2000/svg" viewBox="0 0 24 24"><g id="b"><g><path d="M18.76,16.75c1.05,0,1.99-.58,2.46-1.52l.45-.89c.19-.37,.04-.82-.34-1.01s-.82-.04-1.01,.34l-.45,.89c-.21,.43-.64,.69-1.12,.69h-1.14c.08-.39,.13-.79,.13-1.2,0-.24-.05-.47-.14-.68,1.26-.61,2.14-1.88,2.14-3.37v-.37c1.15-.33,2-1.38,2-2.63,0-2.07-1.68-3.75-3.75-3.75h-1c-.41,0-.75,.34-.75,.75v3c0,1.25,.85,2.3,2,2.63v.37c0,1.24-1.01,2.25-2.25,2.25h-1.79l.46-.92c.19-.37,.04-.82-.34-1.01-.37-.19-.82-.04-1.01,.34l-.79,1.58h-1.07l-.79-1.58c-.19-.37-.64-.52-1.01-.34-.37,.19-.52,.64-.34,1.01l.46,.92h-1.79c-1.24,0-2.25-1.01-2.25-2.25v-.37c1.15-.33,2-1.38,2-2.63v-3c0-.41-.34-.75-.75-.75h-1c-2.07,0-3.75,1.68-3.75,3.75,0,1.25,.85,2.3,2,2.63v.37c0,1.49,.88,2.76,2.14,3.37-.09,.21-.14,.44-.14,.68,0,.41,.05,.81,.13,1.2h-1.14c-.48,0-.91-.26-1.12-.69l-.45-.89c-.19-.37-.63-.52-1.01-.34s-.52,.64-.34,1.01l.45,.89c.47,.94,1.41,1.52,2.46,1.52h1.69c.21,.39,.46,.74,.75,1.07l-2.12,1.06c-.35,.17-.77,.17-1.12,0l-1.11-.55c-.37-.19-.82-.04-1.01,.34-.19,.37-.04,.82,.34,1.01l1.11,.55c.38,.19,.81,.29,1.23,.29s.84-.1,1.23-.29l2.7-1.35c.88,.55,1.91,.88,3.02,.88h.11c1.11,0,2.14-.32,3.02-.88l2.7,1.35c.38,.19,.81,.29,1.23,.29s.84-.1,1.23-.29l1.11-.55c.37-.19,.52-.64,.34-1.01-.19-.37-.64-.52-1.01-.34l-1.11,.55c-.35,.17-.77,.17-1.12,0l-2.12-1.06c.29-.33,.54-.68,.75-1.07h1.69Z"/><path d="M15.54,9.46c-.5-.69-.79-1.54-.79-2.46v-1.75h-.75c-.41,0-.75,.34-.75,.75,0,1.55,.95,2.89,2.29,3.46Z"/><path d="M10.75,6c0-.41-.34-.75-.75-.75h-.75v1.75c0,.92-.3,1.76-.79,2.46,1.35-.57,2.29-1.9,2.29-3.46Z"/></g></g></svg>