<?xml version="1.0" encoding="UTF-8"?><svg fill="currentColor" xmlns="http://www.w3.org/2000/svg" viewBox="0 0 24 24"><g id="c"><g><path d="M8.76,2.06h0c-2.22,0-3.6,2.73-3.75,4.69-.18,2.37,1.3,4.06,2,4.71v9.34c0,.96,.79,1.75,1.75,1.75s1.75-.79,1.75-1.75V11.42c.69-.65,2.16-2.31,2-4.67-.16-2.22-1.73-4.7-3.75-4.7Z"/><path d="M15.91,2.99l-.59-.68c-.21-.24-.54-.32-.83-.21-.29,.11-.49,.39-.49,.7V20.81c0,.96,.79,1.75,1.75,1.75s1.75-.79,1.75-1.75v-6.19l1.27-1.21c.15-.14,.23-.34,.23-.54v-1.64c0-3.03-1.1-5.96-3.09-8.23Z"/></g></g></svg>