<?xml version="1.0" encoding="UTF-8"?><svg fill="currentColor" xmlns="http://www.w3.org/2000/svg" viewBox="0 0 24 24"><g id="k"><g><path d="M18.1,9.92c-.33-.43-.84-.67-1.38-.67H7.28c-.54,0-1.05,.25-1.38,.67s-.45,.97-.32,1.5l.72,2.88c.65,2.62,3,4.45,5.7,4.45s5.04-1.83,5.7-4.45l.72-2.88c.13-.53,.02-1.07-.32-1.5Z"/><path d="M16.72,7.75c.3,0,.6,.05,.88,.13-.58-3.22-2.87-5.63-5.6-5.63s-5.02,2.41-5.6,5.63c.28-.08,.58-.13,.88-.13h9.44Z"/><path d="M15.72,19.23c-1.1,.65-2.37,1.02-3.72,1.02s-2.62-.38-3.72-1.02l-.39,.58c-.26,.38-.28,.88-.06,1.28,.22,.41,.64,.66,1.1,.66h6.13c.46,0,.88-.25,1.1-.66,.22-.41,.19-.9-.06-1.28l-.39-.58Z"/></g></g></svg>