<?xml version="1.0" encoding="UTF-8"?><svg fill="currentColor" xmlns="http://www.w3.org/2000/svg" viewBox="0 0 24 24"><g id="u"><g><path d="M20,9.25H7.75V5c0-1.52-1.23-2.75-2.75-2.75H3c-.41,0-.75,.34-.75,.75s.34,.75,.75,.75h2c.69,0,1.25,.56,1.25,1.25v4.25h-.25c-.96,0-1.75,.79-1.75,1.75v1c0,.96,.79,1.75,1.75,1.75h14c.96,0,1.75-.79,1.75-1.75v-1c0-.96-.79-1.75-1.75-1.75Z"/><circle cx="7" cy="19" r="2.75"/><circle cx="19" cy="19" r="2.75"/><path d="M14.75,5.33v-.33c0-.41-.34-.75-.75-.75s-.75,.34-.75,.75v.33c-1.48,.24-2.72,1.16-3.41,2.42h8.33c-.69-1.27-1.94-2.19-3.41-2.42Z"/><path d="M17.04,15.25H8.96c1.36,.71,2.29,2.12,2.29,3.75,0,.26-.03,.51-.08,.75h3.65c-.04-.24-.08-.49-.08-.75,0-1.63,.94-3.04,2.29-3.75Z"/></g></g></svg>