<?xml version="1.0" encoding="UTF-8"?><svg fill="currentColor" xmlns="http://www.w3.org/2000/svg" viewBox="0 0 24 24"><g id="n"><g><path d="M20.12,6.94c-.21-.43-.64-.69-1.12-.69H9c-.48,0-.9,.26-1.12,.69-.21,.43-.17,.93,.12,1.31l.75,1h10.5l.75-1c.29-.38,.33-.88,.12-1.31Z"/><path d="M18.13,10.75H9.88l3.37,4.5v5h-1.25c-.41,0-.75,.34-.75,.75s.34,.75,.75,.75h4c.41,0,.75-.34,.75-.75s-.34-.75-.75-.75h-1.25v-5l3.38-4.5Z"/><path d="M6.54,6.27c.47-.94,1.41-1.52,2.46-1.52h1.52c-.52-1.45-1.89-2.5-3.52-2.5-2.07,0-3.75,1.68-3.75,3.75s1.68,3.75,3.75,3.75c.08,0,.16-.02,.23-.02l-.43-.58c-.63-.84-.73-1.94-.26-2.88Z"/></g></g></svg>