<?xml version="1.0" encoding="UTF-8"?><svg fill="currentColor" xmlns="http://www.w3.org/2000/svg" viewBox="0 0 24 24"><g id="g"><g><path d="M20,13.25H4c-.96,0-1.75,.79-1.75,1.75v2c0,.06,0,.12,.02,.18,.33,1.32,1.35,2.32,2.59,2.55,1.27,.24,2.57-.36,3.33-1.43,1.07,.94,2.28,1.27,3.06,1.38v1.31c0,.41,.34,.75,.75,.75s.75-.34,.75-.75v-1.3c1.37-.18,2.4-.84,3.05-1.4,.65,.92,1.69,1.5,2.77,1.5,.19,0,.37-.02,.56-.05,1.24-.23,2.26-1.24,2.59-2.55,.01-.06,.02-.12,.02-.18v-2c0-.96-.79-1.75-1.75-1.75Z"/><path d="M7,8.75h4.25v1.58c-.91,.19-1.69,.71-2.23,1.42h5.97c-.54-.72-1.32-1.24-2.23-1.42v-1.58h4.25c.96,0,1.75-.79,1.75-1.75v-3c0-.96-.79-1.75-1.75-1.75H7c-.96,0-1.75,.79-1.75,1.75v3c0,.96,.79,1.75,1.75,1.75Z"/></g></g></svg>