<?xml version="1.0" encoding="UTF-8"?><svg fill="currentColor" xmlns="http://www.w3.org/2000/svg" viewBox="0 0 24 24"><g id="d"><g><path d="M13.59,11.41c-1.41-.95-2.25-2.57-2.25-4.33,0-.31-.25-.56-.56-.56-.21,0-.4,.11-.49,.29-.79,1.45-2.47,5.17-.97,8.31,.28,.59,.94,1.96,2.3,2.36,1.47,.43,3.38-.37,3.93-1.65,.51-1.18-.08-3.16-1.95-4.41Z"/><path d="M16.99,9.53c-.79-.6-1.24-1.47-1.24-2.38v-.5c0-2.42-1.97-4.39-4.39-4.39-1.5,0-2.87,.74-3.67,1.97-3.16,4.88-3.77,10.11-1.61,13.67,.48,.79,2.28,3.39,5.37,3.8,.29,.04,.59,.06,.9,.06,1.78,0,3.67-.67,5.11-1.84,1.44-1.17,2.31-2.74,2.43-4.43,.16-2.22-.92-4.45-2.9-5.96Zm-.08,6.88c-.69,1.61-2.58,2.68-4.45,2.68-.44,0-.87-.06-1.29-.18-2-.59-2.89-2.46-3.23-3.16-1.73-3.63-.11-7.61,1.01-9.67,.36-.66,1.05-1.07,1.81-1.07,1.14,0,2.06,.93,2.06,2.06,0,1.26,.59,2.42,1.59,3.09,2.29,1.54,3.36,4.22,2.49,6.25Z"/></g></g></svg>