<?xml version="1.0" encoding="UTF-8"?><svg fill="currentColor" xmlns="http://www.w3.org/2000/svg" viewBox="0 0 24 24"><g id="p"><g><path d="M21,6.75c.41,0,.75-.34,.75-.75s-.34-.75-.75-.75h-6.25v-1.5h6.25c.41,0,.75-.34,.75-.75s-.34-.75-.75-.75H7c-.41,0-.75,.34-.75,.75s.34,.75,.75,.75h2.25v1.5h-2.25c-.41,0-.75,.34-.75,.75s.34,.75,.75,.75h2.25v4.82H3c-.22,0-.42,.09-.56,.25s-.21,.38-.18,.59c.15,1.17,.52,2.27,1.09,3.28,.98,1.71,2.32,2.72,3.28,3.28,.11,.07,.24,.1,.38,.1h10c.13,0,.26-.03,.38-.1,.96-.55,2.3-1.57,3.28-3.28,.58-1.01,.94-2.11,1.09-3.28,.03-.21-.04-.43-.18-.59s-.35-.25-.56-.25h-6.25V6.75h6.25Zm-7.75,4.5h-.5V3.75h.5v7.5Zm-2-7.5v7.5h-.5V3.75h.5Z"/><path d="M7,20.57c-.25,0-.5-.06-.74-.14,.06,.91,.81,1.64,1.74,1.64h8c.93,0,1.68-.73,1.74-1.64-.24,.08-.48,.14-.74,.14H7Z"/></g></g></svg>