<?xml version="1.0" encoding="UTF-8"?><svg fill="currentColor" xmlns="http://www.w3.org/2000/svg" viewBox="0 0 24 24"><g id="e"><g><path d="M19.73,9.08s.02-.05,.02-.08c0-.02,0-.03,0-.04,0-.04-.01-.07-.02-.1-.01-.07-.03-.13-.06-.19-.03-.06-.06-.11-.1-.15-.01-.02-.03-.04-.04-.05-.09-.09-.19-.17-.33-.2-.05-.01-.11,0-.16,0-.01,0-.02,0-.03,0H5.78c-.8,0-1.5,.54-1.7,1.33l-1.5,6c-.13,.53-.02,1.07,.32,1.5s.84,.67,1.38,.67h12.72s.06-.01,.09-.02c.35,0,.68-.26,.78-.66l1.85-7.8c.02-.06,0-.13,.01-.19Zm-5.73,6.17H7c-.41,0-.75-.34-.75-.75s.34-.75,.75-.75h7c.41,0,.75,.34,.75,.75s-.34,.75-.75,.75Zm1-3h-7c-.41,0-.75-.34-.75-.75s.34-.75,.75-.75h7c.41,0,.75,.34,.75,.75s-.34,.75-.75,.75Z"/><path d="M21.42,15.58l-.85-3.39-1.24,5.22c-.03,.12-.06,.23-.11,.34h.5c.54,0,1.05-.25,1.38-.67s.45-.97,.32-1.5Z"/></g></g></svg>