<?xml version="1.0" encoding="UTF-8"?><svg fill="currentColor" xmlns="http://www.w3.org/2000/svg" viewBox="0 0 24 24"><g id="r"><g><path d="M14.75,10v3.25h.5v-2.25c0-.41-.2-.77-.5-1Z"/><path d="M9.75,11c0,.57,.14,.96,.25,1.15,.11-.19,.25-.57,.25-1.15s-.14-.96-.25-1.15c-.11,.19-.25,.57-.25,1.15Z"/><path d="M21,2.25H3c-.41,0-.75,.34-.75,.75s.34,.75,.75,.75h3.25V7.82c-1.24,1.37-2,3.19-2,5.18,0,4.27,3.48,7.75,7.75,7.75s7.75-3.48,7.75-7.75c0-1.99-.76-3.8-2-5.18V3.75h3.25c.41,0,.75-.34,.75-.75s-.34-.75-.75-.75ZM10.75,13.5v3.5c0,.41-.34,.75-.75,.75s-.75-.34-.75-.75v-3.5c-.61-.42-1-1.34-1-2.5,0-1.59,.74-2.75,1.75-2.75s1.75,1.16,1.75,2.75c0,1.16-.39,2.09-1,2.5Zm6,.5c0,.41-.34,.75-.75,.75h-1.25v2.25c0,.41-.34,.75-.75,.75s-.75-.34-.75-.75V9c0-.41,.34-.75,.75-.75,1.52,0,2.75,1.23,2.75,2.75v3Zm-.5-7.47c-1.22-.8-2.68-1.28-4.25-1.28s-3.03,.47-4.25,1.28V3.75h8.5v2.78Z"/></g></g></svg>