<?xml version="1.0" encoding="UTF-8"?><svg fill="currentColor" xmlns="http://www.w3.org/2000/svg" viewBox="0 0 24 24"><g id="q"><g><path d="M21.56,10.5c-.14-.16-.35-.25-.56-.25H3c-.22,0-.42,.09-.56,.25s-.21,.38-.18,.59c.15,1.17,.52,2.27,1.09,3.28,.98,1.71,2.32,2.72,3.28,3.28,.11,.07,.24,.1,.38,.1h10c.13,0,.26-.03,.38-.1,.96-.55,2.3-1.57,3.28-3.28,.58-1.01,.94-2.11,1.09-3.28,.03-.21-.04-.43-.18-.59Z"/><path d="M20.65,8.63c-.42-.74-1.17-1.23-2-1.36-.14-.56-.46-1.32-1.2-1.87-.95-.7-2.24-.8-3.35-.3-.59-.45-1.28-.74-1.99-.84-1.49-.21-2.63,.43-3.24,.88-.59-.18-1.44-.25-2.24,.21-.72,.41-1.2,1.13-1.35,1.93-.8,.14-1.52,.63-1.93,1.35-.02,.04-.04,.08-.06,.12H20.71s-.03-.08-.06-.12Z"/><path d="M7,19.25c-.25,0-.5-.06-.74-.14,.06,.91,.81,1.64,1.74,1.64h8c.93,0,1.68-.73,1.74-1.64-.24,.08-.48,.14-.74,.14H7Z"/></g></g></svg>