<?xml version="1.0" encoding="UTF-8"?><svg fill="currentColor" xmlns="http://www.w3.org/2000/svg" viewBox="0 0 24 24"><g id="l"><g><path d="M6,11.25H3.75V6c0-.41-.34-.75-.75-.75s-.75,.34-.75,.75v13c0,.41,.34,.75,.75,.75s.75-.34,.75-.75v-3.25h3.5v3.25c0,.41,.34,.75,.75,.75s.75-.34,.75-.75v-5c0-1.52-1.23-2.75-2.75-2.75Z"/><path d="M21,5.25c-.41,0-.75,.34-.75,.75v5.25h-2.25c-1.52,0-2.75,1.23-2.75,2.75v5c0,.41,.34,.75,.75,.75s.75-.34,.75-.75v-3.25h3.5v3.25c0,.41,.34,.75,.75,.75s.75-.34,.75-.75V6c0-.41-.34-.75-.75-.75Z"/><path d="M13,18.25h-.25V9.75h4.25c.41,0,.75-.34,.75-.75s-.34-.75-.75-.75H7c-.41,0-.75,.34-.75,.75s.34,.75,.75,.75h4.25v8.5h-.25c-.41,0-.75,.34-.75,.75s.34,.75,.75,.75h2c.41,0,.75-.34,.75-.75s-.34-.75-.75-.75Z"/></g></g></svg>