<?xml version="1.0" encoding="UTF-8"?><svg fill="currentColor" xmlns="http://www.w3.org/2000/svg" viewBox="0 0 24 24"><g id="j"><g><path d="M18,12.25h-.65l.17-.94c.09-.51-.04-1.04-.38-1.43s-.82-.63-1.34-.63h-5.55v3.03c.85,.12,1.5,.85,1.5,1.72v2c0,.96-.79,1.75-1.75,1.75h-1c-.96,0-1.75-.79-1.75-1.75v-2c0-.88,.65-1.6,1.5-1.72v-3.03h-3.55c-.52,0-1.01,.23-1.34,.63s-.47,.92-.38,1.43l1.49,8.18c.24,1.31,1.38,2.26,2.71,2.26h5.66c1.24,0,2.3-.83,2.64-2.01,.01,0,.02,0,.03,0h2c1.52,0,2.75-1.23,2.75-2.75v-2c0-1.52-1.23-2.75-2.75-2.75Zm1.25,4.75c0,.69-.56,1.25-1.25,1.25h-1.74l.82-4.5h.92c.69,0,1.25,.56,1.25,1.25v2Z"/><path d="M6.5,6.75h2c.32,0,.6,.2,.71,.5,.03,.08,.04,.16,.04,.25,0,.41,.34,.75,.75,.75s.75-.34,.75-.75c0-.26-.04-.51-.13-.75-.32-.9-1.17-1.5-2.12-1.5h-2c-.41,0-.75-.34-.75-.75s.34-.75,.75-.75h6.5c.41,0,.75-.34,.75-.75s-.34-.75-.75-.75H6.5c-1.24,0-2.25,1.01-2.25,2.25s1.01,2.25,2.25,2.25Z"/><rect x="8.75" y="13.75" width="1.5" height="2.5" rx=".25" ry=".25"/></g></g></svg>