<?xml version="1.0" encoding="UTF-8"?><svg fill="currentColor" xmlns="http://www.w3.org/2000/svg" viewBox="0 0 24 24"><g id="o"><g><rect x="2.25" y="14.25" width="19.5" height="4.5" rx=".75" ry=".75"/><path d="M13.7,6.32c-.14-.03-.27-.07-.42-.07h-2.56c-.15,0-.28,.03-.42,.07l1.7,2.27,1.7-2.27Z"/><path d="M7.4,4.95c-.46-.61-1.22-.85-1.95-.61-.73,.24-1.2,.89-1.2,1.66v6.75H13.25L7.4,4.95Z"/><path d="M15.13,12.75h4.62V6c0-.77-.47-1.42-1.2-1.66-.73-.24-1.49,0-1.95,.61l-3.66,4.88,2.19,2.92Z"/><path d="M5.88,20.94c.52,.52,1.21,.81,1.94,.81h8.34c.73,0,1.43-.29,1.94-.81l.69-.69H5.19l.69,.69Z"/></g></g></svg>