<?xml version="1.0" encoding="UTF-8"?><svg fill="currentColor" xmlns="http://www.w3.org/2000/svg" viewBox="0 0 24 24"><g id="f"><g><path d="M7.01,4.44l-.44-1.15c-.34-.9-1.35-1.36-2.26-1.02l-.93,.35c-.44,.17-.78,.49-.98,.92-.19,.43-.21,.9-.04,1.34l.44,1.16,4.21-1.6Z"/><path d="M20,11.25h-5c-.41,0-.75,.34-.75,.75v5c0,.96,.79,1.75,1.75,1.75h3c.96,0,1.75-.79,1.75-1.75v-5c0-.41-.34-.75-.75-.75Z"/><path d="M12.75,17v-5c0-.26,.05-.51,.14-.75H4.25c-.53,0-1.03,.24-1.36,.66-.33,.42-.46,.95-.34,1.47l1.38,6.22c.28,1.27,1.39,2.15,2.68,2.15H15.4c1.06,0,1.98-.59,2.44-1.5h-1.84c-1.79,0-3.25-1.46-3.25-3.25Z"/><path d="M3.63,8.24c.19,.51,.22,1.05,.1,1.57,.17-.03,.34-.06,.52-.06h6.83c-.43-.71-1.06-1.27-1.84-1.62-.65-.29-1.14-.82-1.4-1.48l-.3-.8-4.2,1.6,.3,.79Z"/></g></g></svg>