<?xml version="1.0" encoding="UTF-8"?><svg fill="currentColor" xmlns="http://www.w3.org/2000/svg" viewBox="0 0 24 24"><g id="o"><g><path d="M19.74,12.98c0-4.27-3.48-7.75-7.75-7.75s-7.75,3.48-7.75,7.75c0,2.38,1.08,4.5,2.76,5.92l-1.54,1.54c-.29,.29-.29,.77,0,1.06,.15,.15,.34,.22,.53,.22s.38-.07,.53-.22l1.74-1.74c1.11,.61,2.38,.96,3.73,.96s2.62-.35,3.73-.96l1.74,1.74c.15,.15,.34,.22,.53,.22s.38-.07,.53-.22c.29-.29,.29-.77,0-1.06l-1.54-1.54c1.69-1.42,2.76-3.55,2.76-5.92Zm-8.25-.75h1c1.24,0,2.25,1.01,2.25,2.25,0,1.16-.88,2.1-2,2.22v.28c0,.41-.34,.75-.75,.75s-.75-.34-.75-.75v-.25h-.25c-.96,0-1.75-.79-1.75-1.75,0-.41,.34-.75,.75-.75s.75,.34,.75,.75c0,.14,.11,.25,.25,.25h1.5c.41,0,.75-.34,.75-.75s-.34-.75-.75-.75h-1c-1.24,0-2.25-1.01-2.25-2.25,0-1.16,.88-2.1,2-2.22v-.28c0-.41,.34-.75,.75-.75s.75,.34,.75,.75v.25h.25c.96,0,1.75,.79,1.75,1.75,0,.41-.34,.75-.75,.75s-.75-.34-.75-.75c0-.14-.11-.25-.25-.25h-1.5c-.41,0-.75,.34-.75,.75s.34,.75,.75,.75Z"/><path d="M16.99,3.23c-.91,0-1.75,.33-2.41,.88,2.47,.72,4.52,2.46,5.66,4.72,.31-.55,.5-1.18,.5-1.85,0-2.07-1.68-3.75-3.75-3.75Z"/><path d="M9.46,4.09c-.65-.54-1.49-.86-2.39-.86-2.07,0-3.75,1.68-3.75,3.75,0,.63,.16,1.24,.45,1.77,1.16-2.25,3.21-3.96,5.69-4.66Z"/></g></g></svg>