<?xml version="1.0" encoding="UTF-8"?><svg fill="currentColor" xmlns="http://www.w3.org/2000/svg" viewBox="0 0 24 24"><g id="f"><g><circle cx="8.99" cy="14.98" r="6.75"/><path d="M18.7,6.75l-.47-1.42c-.41-1.23-1.51-2.13-2.8-2.3l-3.37-.42c-.97-.12-1.94,.18-2.67,.83-.54,.48-.91,1.11-1.06,1.8h-.34c-1.39,0-2.54,1.05-2.71,2.39,1.12-.57,2.38-.89,3.71-.89s2.6,.33,3.71,.89c-.18-1.35-1.32-2.39-2.71-2.39h-.09c.11-.25,.27-.49,.48-.67,.41-.36,.95-.53,1.49-.46l3.37,.42c.72,.09,1.34,.59,1.57,1.28l.47,1.42c.1,.31,.4,.51,.71,.51,.08,0,.16-.01,.24-.04,.39-.13,.6-.56,.47-.95Z"/><path d="M19.66,9.65c-.18-.37-.64-.52-1.01-.34-.37,.19-.52,.64-.34,1.01l.5,1c.13,.26,.4,.42,.67,.42,.11,0,.23-.03,.33-.08,.37-.19,.52-.64,.34-1.01l-.5-1Z"/><path d="M20.99,7.23h-1c-.41,0-.75,.34-.75,.75s.34,.75,.75,.75h1c.41,0,.75-.34,.75-.75s-.34-.75-.75-.75Z"/><path d="M16.46,8.45l-1,1c-.29,.29-.29,.77,0,1.06,.15,.15,.34,.22,.53,.22s.38-.07,.53-.22l1-1c.29-.29,.29-.77,0-1.06s-.77-.29-1.06,0Z"/></g></g></svg>