<?xml version="1.0" encoding="UTF-8"?><svg fill="currentColor" xmlns="http://www.w3.org/2000/svg" viewBox="0 0 24 24"><g id="u"><g><path d="M19.99,9.23H3.99c-.96,0-1.75,.79-1.75,1.75v4c0,.96,.79,1.75,1.75,1.75H19.99c.96,0,1.75-.79,1.75-1.75v-4c0-.96-.79-1.75-1.75-1.75ZM7.99,13.73h-2c-.41,0-.75-.34-.75-.75s.34-.75,.75-.75h2c.41,0,.75,.34,.75,.75s-.34,.75-.75,.75Zm10,0h-2c-.41,0-.75-.34-.75-.75s.34-.75,.75-.75h2c.41,0,.75,.34,.75,.75s-.34,.75-.75,.75Z"/><path d="M15.24,18.48c0,1.24,1.01,2.25,2.25,2.25s2.25-1.01,2.25-2.25v-.25h-4.5v.25Z"/><path d="M4.24,18.48c0,1.24,1.01,2.25,2.25,2.25s2.25-1.01,2.25-2.25v-.25H4.24v.25Z"/><path d="M19.01,5.53c-.22-1.33-1.36-2.3-2.71-2.3H7.69c-1.35,0-2.49,.97-2.71,2.3l-.37,2.2h14.77l-.37-2.2Z"/></g></g></svg>