<?xml version="1.0" encoding="UTF-8"?><svg fill="currentColor" xmlns="http://www.w3.org/2000/svg" viewBox="0 0 24 24"><g id="l"><g><path d="M20.99,13.23h-.25V4.73h.25c.41,0,.75-.34,.75-.75s-.34-.75-.75-.75H12.99c-.41,0-.75,.34-.75,.75s.34,.75,.75,.75h.25V13.23h-.25c-.41,0-.75,.34-.75,.75s.34,.75,.75,.75h8c.41,0,.75-.34,.75-.75s-.34-.75-.75-.75Z"/><path d="M20.99,19.23h-.25v-.25c0-1.52-1.23-2.75-2.75-2.75h-2c-1.52,0-2.75,1.23-2.75,2.75v.25h-.25c-.41,0-.75,.34-.75,.75s.34,.75,.75,.75h8c.41,0,.75-.34,.75-.75s-.34-.75-.75-.75Z"/><path d="M2.24,8.98c0,1.52,1.23,2.75,2.75,2.75h6.75V6.23H4.99c-1.52,0-2.75,1.23-2.75,2.75Z"/></g></g></svg>