<?xml version="1.0" encoding="UTF-8"?><svg fill="currentColor" xmlns="http://www.w3.org/2000/svg" viewBox="0 0 24 24"><g id="m"><g><path d="M20.99,14.23h-1.25V4.98c0-1.52-1.23-2.75-2.75-2.75H6.99c-1.52,0-2.75,1.23-2.75,2.75V14.23h-1.25c-.41,0-.75,.34-.75,.75s.34,.75,.75,.75H20.99c.41,0,.75-.34,.75-.75s-.34-.75-.75-.75ZM8.24,6.48c0-.69,.56-1.25,1.25-1.25s1.25,.56,1.25,1.25-.56,1.25-1.25,1.25-1.25-.56-1.25-1.25Zm1.75,5.25c-.19,0-.38-.07-.53-.22-.29-.29-.29-.77,0-1.06l4-4c.29-.29,.77-.29,1.06,0s.29,.77,0,1.06l-4,4c-.15,.15-.34,.22-.53,.22Zm4.5,1c-.69,0-1.25-.56-1.25-1.25s.56-1.25,1.25-1.25,1.25,.56,1.25,1.25-.56,1.25-1.25,1.25Z"/><path d="M18.99,17.23H4.99c-.41,0-.75,.34-.75,.75v1c0,1.52,1.23,2.75,2.75,2.75h10c1.52,0,2.75-1.23,2.75-2.75v-1c0-.41-.34-.75-.75-.75Z"/></g></g></svg>