<?xml version="1.0" encoding="UTF-8"?><svg fill="currentColor" xmlns="http://www.w3.org/2000/svg" viewBox="0 0 24 24"><g id="h"><g><path d="M21.3,9.3L12.3,5.3c-.19-.09-.42-.09-.61,0L2.69,9.3c-.27,.12-.45,.39-.45,.69s.17,.57,.45,.69l9,4c.1,.04,.2,.06,.3,.06s.21-.02,.3-.06l9-4c.27-.12,.45-.39,.45-.69s-.17-.57-.45-.69Z"/><path d="M18.98,13.34l-6.07,2.7c-.29,.13-.6,.19-.91,.19s-.63-.07-.91-.19l-6.07-2.7-.37,2.19c-.13,.8,.09,1.61,.62,2.23,.52,.62,1.29,.97,2.1,.97h9.28c.81,0,1.58-.35,2.1-.97,.52-.62,.75-1.43,.62-2.23l-.37-2.19Z"/></g></g></svg>