<?xml version="1.0" encoding="UTF-8"?><svg fill="currentColor" xmlns="http://www.w3.org/2000/svg" viewBox="0 0 24 24"><g id="r"><g><path d="M17.55,16.04l-1.47,.98c-.21,.14-.44,.21-.69,.21h-3.89c-.41,0-.75-.34-.75-.75s.34-.75,.75-.75c1.24,0,2.25-1.01,2.25-2.25s-1.01-2.25-2.25-2.25h-3.12c-.35,0-.7,.07-1.02,.2l-4.64,1.86c-.29,.11-.47,.39-.47,.7v6c0,.34,.23,.64,.57,.73l3.76,.94c.22,.05,.44,.08,.67,.08h9.93c.73,0,1.42-.29,1.94-.81l1.35-1.35c.42-.42,.66-.99,.66-1.59s-.23-1.17-.73-1.66c-.76-.76-1.95-.88-2.84-.28Z"/><circle cx="16.99" cy="6.98" r="4.75"/></g></g></svg>