<?xml version="1.0" encoding="UTF-8"?><svg fill="currentColor" xmlns="http://www.w3.org/2000/svg" viewBox="0 0 24 24"><g id="t"><g><path d="M12.99,15.73h-2c-.14,0-.25,.11-.25,.25v3.75h2.5v-3.75c0-.14-.11-.25-.25-.25Z"/><path d="M15.99,4.23H7.99c-.96,0-1.75,.79-1.75,1.75v13c0,.41,.34,.75,.75,.75h2.25v-3.75c0-.96,.79-1.75,1.75-1.75h2c.96,0,1.75,.79,1.75,1.75v3.75h2.25c.41,0,.75-.34,.75-.75V5.98c0-.96-.79-1.75-1.75-1.75Zm-5.31,8.04c-.04,.09-.09,.17-.16,.24-.14,.14-.33,.22-.53,.22-.1,0-.19-.02-.29-.06-.09-.03-.17-.09-.24-.16-.07-.07-.12-.15-.16-.24-.04-.09-.06-.19-.06-.29s.02-.19,.06-.29c.04-.09,.09-.17,.16-.24,.07-.07,.15-.13,.24-.16,.19-.08,.39-.08,.58,0,.09,.04,.17,.09,.24,.16,.07,.07,.12,.15,.16,.24,.04,.1,.06,.19,.06,.29s-.02,.2-.06,.29Zm0-3c-.04,.09-.09,.17-.16,.24-.14,.14-.33,.22-.53,.22-.1,0-.19-.02-.29-.06-.09-.03-.17-.09-.24-.16-.07-.07-.12-.15-.16-.24-.04-.09-.06-.19-.06-.29s.02-.19,.06-.29c.04-.09,.09-.17,.16-.24,.07-.07,.15-.12,.24-.16,.19-.08,.39-.08,.58,0,.09,.04,.17,.09,.24,.16,.07,.07,.12,.15,.16,.24,.04,.1,.06,.19,.06,.29s-.02,.2-.06,.29Zm4,3c-.04,.09-.09,.17-.16,.24s-.15,.12-.24,.16c-.09,.04-.19,.06-.29,.06s-.19-.02-.29-.06c-.09-.04-.17-.09-.24-.16-.07-.07-.12-.15-.16-.24-.04-.09-.06-.19-.06-.29s.02-.2,.06-.29c.03-.09,.09-.17,.16-.24,.07-.07,.15-.12,.24-.16,.19-.08,.39-.08,.58,0,.09,.04,.17,.09,.24,.16,.07,.07,.12,.15,.16,.24,.04,.09,.06,.19,.06,.29s-.02,.19-.06,.29Zm0-3c-.04,.09-.09,.17-.16,.24s-.15,.12-.24,.16c-.09,.04-.19,.06-.29,.06-.2,0-.39-.08-.53-.22-.07-.07-.13-.15-.16-.24-.04-.09-.06-.19-.06-.29,0-.2,.08-.39,.22-.53,.07-.07,.15-.12,.24-.16,.19-.08,.39-.08,.58,0,.09,.04,.17,.09,.24,.16,.14,.14,.22,.33,.22,.53,0,.1-.02,.2-.06,.29Z"/><path d="M19.99,8.23h-.75v10.75c0,.26-.05,.51-.14,.75h1.89c.41,0,.75-.34,.75-.75V9.98c0-.96-.79-1.75-1.75-1.75Z"/><path d="M4.74,8.23h-.75c-.96,0-1.75,.79-1.75,1.75v9c0,.41,.34,.75,.75,.75h1.89c-.08-.24-.14-.49-.14-.75V8.23Z"/></g></g></svg>