<?xml version="1.0" encoding="UTF-8"?><svg fill="currentColor" xmlns="http://www.w3.org/2000/svg" viewBox="0 0 24 24"><g id="g"><g><path d="M10.84,12c.66-.57,1.65-.57,2.3,0l2.58,2.25,3.02-2.27V3.98c0-.96-.79-1.75-1.75-1.75H6.99c-.96,0-1.75,.79-1.75,1.75V11.98l3.02,2.27,2.58-2.25Zm3.17-1.26c-.41,0-.75-.34-.75-.75s.33-.75,.75-.75h0c.42,0,.75,.34,.75,.75s-.33,.75-.75,.75Zm-4.01-5.5h0c.42,0,.75,.34,.75,.75s-.33,.75-.75,.75-.75-.34-.75-.75,.33-.75,.75-.75Zm-.54,4.22l4-4c.29-.29,.77-.29,1.06,0s.29,.77,0,1.06l-4,4c-.15,.15-.34,.22-.53,.22s-.38-.07-.53-.22c-.29-.29-.29-.77,0-1.06Z"/><polygon points="20.49 12.55 16.88 15.26 20.47 18.41 20.74 18.62 20.74 12.32 20.49 12.55"/><path d="M3.54,12.58l-.3-.23v6.33l.21-.22s.02-.01,.03-.02c0,0,.01-.02,.02-.03l3.61-3.16-3.57-2.68Z"/><path d="M19.52,19.56s-.01,0-.02-.01l-7.34-6.42c-.09-.08-.23-.08-.33,0l-7.32,6.4-.85,.9c.49,.78,1.35,1.31,2.33,1.31h12c1.05,0,1.96-.6,2.42-1.47l-.88-.69s0-.01-.01-.01Z"/></g></g></svg>