<?xml version="1.0" encoding="UTF-8"?><svg fill="currentColor" xmlns="http://www.w3.org/2000/svg" viewBox="0 0 24 24"><g id="i"><g><path d="M13.99,16.35c-1.18,0-2.37-.32-3.52-.94-1.06-.57-1.73-1.67-1.73-2.88v-3.8c0-1.07,.53-2.07,1.41-2.69,.54-.38,1.17-.57,1.83-.57,.38,0,.76,.07,1.11,.2,.32,.12,.61,.18,.9,.18,.38-.02,.73-.12,1.25-.31,.15-.06,.31-.11,.49-.18v-.39c0-1.52-1.23-2.75-2.75-2.75H4.99c-1.52,0-2.75,1.23-2.75,2.75v14c0,1.52,1.23,2.75,2.75,2.75H12.99c1.52,0,2.75-1.23,2.75-2.75v-2.87c-.5,.14-1.06,.24-1.73,.24h-.03Zm-4,2.38h-2c-.41,0-.75-.34-.75-.75s.34-.75,.75-.75h2c.41,0,.75,.34,.75,.75s-.34,.75-.75,.75Z"/><path d="M20.11,6.25c-.75-.05-1.51,0-2.24,.11-.9,.15-1.54,.38-2.1,.59-.62,.23-1.12,.37-1.77,.4-.47,0-.94-.09-1.42-.27-.52-.19-1.11-.12-1.57,.2-.48,.33-.76,.87-.76,1.45v3.8c0,.65,.36,1.24,.94,1.55,.93,.5,1.88,.76,2.81,.76h.03c.92,0,1.58-.24,2.27-.49,.53-.19,1.07-.39,1.83-.52,.58-.1,1.18-.13,1.78-.1,.47,.03,.96-.15,1.31-.49,.35-.33,.54-.78,.54-1.26v-4c0-.92-.72-1.69-1.63-1.75Z"/></g></g></svg>