<?xml version="1.0" encoding="UTF-8"?><svg fill="currentColor" xmlns="http://www.w3.org/2000/svg" viewBox="0 0 24 24"><g id="k"><g><path d="M13.99,7.23h-4c-3.17,0-5.75,2.58-5.75,5.75v5c0,2.07,1.68,3.75,3.75,3.75H15.99c2.07,0,3.75-1.68,3.75-3.75v-5c0-3.17-2.58-5.75-5.75-5.75Zm-5.75,5.25c0-.69,.56-1.25,1.25-1.25s1.25,.56,1.25,1.25-.56,1.25-1.25,1.25-1.25-.56-1.25-1.25Zm1.75,5.25c-.19,0-.38-.07-.53-.22-.29-.29-.29-.77,0-1.06l4-4c.29-.29,.77-.29,1.06,0s.29,.77,0,1.06l-4,4c-.15,.15-.34,.22-.53,.22Zm4.5,1c-.69,0-1.25-.56-1.25-1.25s.56-1.25,1.25-1.25,1.25,.56,1.25,1.25-.56,1.25-1.25,1.25Z"/><path d="M8.36,5.93c.53-.12,1.07-.19,1.63-.19h4c.56,0,1.11,.07,1.63,.19l1.07-2.66c.14-.35,0-.75-.33-.93-.33-.18-.74-.1-.97,.2-.51,.68-1.31,.7-1.4,.7-.85,0-1.35-.63-1.4-.7-.28-.38-.92-.38-1.2,0-.51,.68-1.31,.7-1.4,.7-.85,0-1.35-.63-1.4-.7-.23-.3-.64-.39-.97-.2-.33,.18-.47,.58-.33,.93l1.07,2.66Z"/></g></g></svg>