<?xml version="1.0" encoding="UTF-8"?><svg fill="currentColor" xmlns="http://www.w3.org/2000/svg" viewBox="0 0 24 24"><g id="e"><path d="M20.73,6.85c-.06-.34-.34-.59-.68-.62-.67-.05-2.34-.32-3.48-1.72-.4-.5-.69-1.07-.86-1.72-.09-.33-.38-.56-.73-.56h-6c-.34,0-.64,.23-.73,.56-.17,.64-.46,1.22-.86,1.72-1.14,1.4-2.81,1.67-3.48,1.72-.34,.03-.62,.28-.68,.62-.21,1.17-1.04,7.25,3.2,11.65,1.42,1.47,3.26,2.58,5.33,3.2,.07,.02,.14,.03,.21,.03s.15-.01,.21-.03c2.06-.62,3.9-1.72,5.33-3.2,4.24-4.4,3.41-10.48,3.2-11.65Zm-12.49,3.63c0-.69,.56-1.25,1.25-1.25s1.25,.56,1.25,1.25-.56,1.25-1.25,1.25-1.25-.56-1.25-1.25Zm2.34,4.97c-.15,.18-.37,.28-.59,.28-.16,0-.33-.05-.47-.16-.32-.26-.38-.73-.12-1.05l4-5c.26-.32,.73-.38,1.05-.12,.32,.26,.38,.73,.12,1.05l-4,5Zm3.91,.28c-.69,0-1.25-.56-1.25-1.25s.56-1.25,1.25-1.25,1.25,.56,1.25,1.25-.56,1.25-1.25,1.25Z"/></g></svg>