<?xml version="1.0" encoding="UTF-8"?><svg fill="currentColor" xmlns="http://www.w3.org/2000/svg" viewBox="0 0 24 24"><g id="q"><g><path d="M21.52,2.45c-.29-.29-.77-.29-1.06,0l-3.48,3.48c-.79-.43-1.74-.45-2.55-.06,.76,.42,1.47,.94,2.1,1.57,.64,.64,1.16,1.35,1.57,2.1,.4-.81,.38-1.76-.06-2.55l3.48-3.48c.29-.29,.29-.77,0-1.06Z"/><path d="M4.51,8.5c-3.02,3.02-3.02,7.94,0,10.96,1.51,1.51,3.5,2.27,5.48,2.27s3.97-.76,5.48-2.27c3.02-3.02,3.02-7.94,0-10.96s-7.94-3.02-10.96,0Zm1.73,3.48c0-.69,.56-1.25,1.25-1.25s1.25,.56,1.25,1.25-.56,1.25-1.25,1.25-1.25-.56-1.25-1.25Zm2.34,4.97c-.15,.19-.37,.28-.59,.28-.17,0-.33-.05-.47-.16-.32-.26-.38-.73-.12-1.05l4-5c.26-.32,.73-.37,1.05-.12,.32,.26,.38,.73,.12,1.05l-4,5Zm3.91,.28c-.69,0-1.25-.56-1.25-1.25s.56-1.25,1.25-1.25,1.25,.56,1.25,1.25-.56,1.25-1.25,1.25Z"/></g></g></svg>