<?xml version="1.0" encoding="UTF-8"?><svg fill="currentColor" xmlns="http://www.w3.org/2000/svg" viewBox="0 0 24 24"><g id="b"><g><path d="M15.99,13.23H7.99c-1.52,0-2.75,1.23-2.75,2.75v1c0,.96,.79,1.75,1.75,1.75h10c.96,0,1.75-.79,1.75-1.75v-1c0-1.52-1.23-2.75-2.75-2.75Z"/><path d="M17.99,20.23H5.99c-.41,0-.75,.34-.75,.75s.34,.75,.75,.75h12c.41,0,.75-.34,.75-.75s-.34-.75-.75-.75Z"/><path d="M9.48,8.94l-.7,2.8h6.44l-.68-2.84c-.02-.08,0-.16,.05-.21,.74-.71,1.15-1.67,1.15-2.7,0-1.11-.49-2.16-1.35-2.88-.86-.71-1.98-1.01-3.1-.81-1.49,.27-2.69,1.45-2.98,2.93-.25,1.29,.16,2.6,1.11,3.49,.06,.05,.08,.14,.06,.22Z"/></g></g></svg>