<?xml version="1.0" encoding="UTF-8"?><svg fill="currentColor" xmlns="http://www.w3.org/2000/svg" viewBox="0 0 24 24"><g id="j"><g><circle cx="11.99" cy="11.98" r="1.25"/><path d="M20.63,6.02c-.96-.37-1.93-.59-2.89-.71v2.67c0,.41-.34,.75-.75,.75s-.75-.34-.75-.75v-2.75c-.09,0-.19,0-.28,0-1.77,.08-3.03,.57-4.24,1.05-1.15,.45-2.23,.88-3.76,.95-1.13,.04-2.28-.11-3.43-.47-.53-.17-1.12-.07-1.57,.26-.45,.33-.71,.84-.71,1.4v7.05c0,.58,.28,1.11,.74,1.44,1.63,1.13,3.3,1.74,4.97,1.83,.13,0,.26,0,.39,0,1.51,0,2.67-.44,3.89-.91,1.1-.42,2.24-.86,3.87-1.11,.04,0,.09,0,.14-.01v-2.73c0-.41,.34-.75,.75-.75s.75,.34,.75,.75v2.59c.7-.03,1.41-.03,2.11,.03,.48,.03,.96-.12,1.32-.45,.36-.33,.57-.8,.57-1.29V7.66c0-.72-.45-1.38-1.11-1.64ZM11.99,14.73c-1.52,0-2.75-1.23-2.75-2.75s1.23-2.75,2.75-2.75,2.75,1.23,2.75,2.75-1.23,2.75-2.75,2.75Zm5.75-2.75c0,.41-.34,.75-.75,.75s-.75-.34-.75-.75v-2c0-.41,.34-.75,.75-.75s.75,.34,.75,.75v2Z"/></g></g></svg>