<?xml version="1.0" encoding="UTF-8"?><svg fill="currentColor" xmlns="http://www.w3.org/2000/svg" viewBox="0 0 24 24"><g id="s"><path d="M20.55,9.65c-.12-.53,.15-1.24,.68-1.8,.73-.77,.78-1.91,.11-2.58l-2.63-2.63c-.67-.67-1.8-.62-2.58,.11-.56,.53-1.27,.8-1.8,.68-.2-.05-.37-.15-.52-.31-.29-.31-.7-.49-1.15-.5-.54,0-1.06,.21-1.46,.61l-1.76,1.76,1.93,1.96c.29,.29,.29,.77,0,1.06-.15,.15-.34,.22-.53,.22s-.38-.07-.53-.22l-1.93-1.96L3.24,11.19c-.4,.4-.62,.93-.61,1.46,0,.45,.19,.86,.5,1.15,.16,.15,.26,.32,.31,.52,.12,.53-.14,1.24-.68,1.8-.73,.77-.78,1.91-.11,2.58l2.63,2.63c.32,.32,.74,.47,1.17,.47,.49,0,1-.2,1.41-.58,.56-.53,1.27-.8,1.8-.68,.2,.05,.37,.15,.52,.31,.29,.31,.7,.49,1.15,.5,.53-.02,1.06-.21,1.46-.61l5.1-5.1-1.93-1.96c-.29-.29-.29-.77,0-1.06,.29-.29,.77-.29,1.06,0l1.93,1.96,1.8-1.8c.4-.4,.62-.93,.61-1.46,0-.45-.18-.86-.5-1.16-.16-.15-.26-.32-.31-.52Zm-5.66,1.91c-.15,.15-.34,.22-.53,.22s-.38-.07-.53-.22l-1.41-1.41c-.29-.29-.29-.77,0-1.06s.77-.29,1.06,0l1.41,1.41c.29,.29,.29,.77,0,1.06Z"/></g></svg>