<?xml version="1.0" encoding="UTF-8"?><svg fill="currentColor" xmlns="http://www.w3.org/2000/svg" viewBox="0 0 24 24"><g id="p"><g><path d="M10.91,2.3C6.04,2.84,2.24,6.98,2.24,11.98c0,.3,.18,.57,.45,.69,.27,.12,.59,.06,.81-.14,.18-.17,1.12-.98,2.38-.8,.57,.08,1.02,.34,1.31,.56l.05-.39c.23-1.43,.58-2.82,1.03-4.15,.65-1.91,1.54-3.73,2.62-5.44Z"/><path d="M13.08,2.3c1.08,1.71,1.97,3.54,2.62,5.44,.46,1.34,.8,2.72,1.03,4.12l.05,.43c.3-.23,.74-.49,1.32-.57,1.27-.18,2.21,.64,2.38,.8,.14,.13,.33,.2,.51,.2,.1,0,.2-.02,.3-.06,.27-.12,.45-.39,.45-.69,0-5.01-3.8-9.14-8.66-9.69Z"/><path d="M12.74,14.31v-2.53c1.05,.1,1.91,.4,2.55,.7l-.04-.42c-.21-1.27-.54-2.58-.96-3.84-.58-1.7-1.35-3.33-2.29-4.86-.94,1.54-1.71,3.17-2.29,4.86-.43,1.26-.76,2.56-.97,3.88l-.05,.38c.64-.3,1.51-.6,2.55-.7v2.53c-1.71,.35-3,1.86-3,3.67,0,2.07,1.68,3.75,3.75,3.75s3.75-1.68,3.75-3.75c0-1.81-1.29-3.33-3-3.67Z"/></g></g></svg>