<?xml version="1.0" encoding="UTF-8"?><svg fill="currentColor" xmlns="http://www.w3.org/2000/svg" viewBox="0 0 24 24"><g id="d"><g><path d="M18.99,3.23c-1.52,0-2.75,1.23-2.75,2.75v1.25h5.5v-1.25c0-1.52-1.23-2.75-2.75-2.75Z"/><path d="M16.24,16.38c0,.54,.16,1.07,.46,1.53l1.66,2.5c.14,.21,.37,.33,.62,.33s.49-.13,.62-.33l1.66-2.5c.3-.45,.46-.98,.46-1.53v-7.64h-5.5v7.64Z"/><path d="M11.99,3.23H4.99c-1.52,0-2.75,1.23-2.75,2.75v12c0,1.52,1.23,2.75,2.75,2.75h7c1.52,0,2.75-1.23,2.75-2.75V5.98c0-1.52-1.23-2.75-2.75-2.75Zm-3,12.5h-3c-.41,0-.75-.34-.75-.75s.34-.75,.75-.75h3c.41,0,.75,.34,.75,.75s-.34,.75-.75,.75Zm1-3H5.99c-.41,0-.75-.34-.75-.75s.34-.75,.75-.75h4c.41,0,.75,.34,.75,.75s-.34,.75-.75,.75Zm1-3H5.99c-.41,0-.75-.34-.75-.75s.34-.75,.75-.75h5c.41,0,.75,.34,.75,.75s-.34,.75-.75,.75Z"/></g></g></svg>