<?xml version="1.0" encoding="UTF-8"?><svg fill="currentColor" xmlns="http://www.w3.org/2000/svg" viewBox="0 0 24 24"><g id="j"><g><path d="M21.73,11.9s0-.07,0-.1l-1.71-6c-.13-.46-.45-.84-.87-1.07-.43-.23-.91-.26-1.37-.11l-2.01,.67c-.39,.13-.6,.56-.47,.95,.13,.39,.56,.6,.95,.47l2.01-.67c.09-.03,.16,0,.2,.02s.1,.06,.12,.15l1.44,5.04H3.99l1.44-5.04c.03-.09,.09-.13,.12-.15,.04-.02,.11-.05,.2-.02l2.01,.67c.39,.13,.82-.08,.95-.47,.13-.39-.08-.82-.47-.95l-2.01-.67c-.46-.15-.94-.11-1.37,.11-.42,.22-.74,.61-.87,1.07l-1.71,6s0,.07,0,.1c0,.03-.02,.07-.02,.1v5c0,1.52,1.23,2.75,2.75,2.75h4.17c.73,0,1.43-.29,1.94-.81l.88-.88,.88,.88c.52,.52,1.21,.81,1.94,.81h4.17c1.52,0,2.75-1.23,2.75-2.75v-5s-.02-.07-.02-.1Zm-1.48,5.1c0,.69-.56,1.25-1.25,1.25h-4.17c-.33,0-.65-.13-.88-.37l-1.41-1.41c-.15-.15-.34-.22-.53-.22s-.38,.07-.53,.22l-1.41,1.41c-.24,.24-.55,.37-.88,.37H5c-.69,0-1.25-.56-1.25-1.25v-4.25H20.25v4.25Z"/><path d="M5.5,17.75h3.29c.33,0,.65-.13,.88-.37l.71-.71c.24-.24,.37-.55,.37-.88v-1.29c0-.69-.56-1.25-1.25-1.25H5.5c-.69,0-1.25,.56-1.25,1.25v2c0,.69,.56,1.25,1.25,1.25Zm.25-3h3.5v.94l-.56,.56h-2.94v-1.5Z"/><path d="M14.32,17.38c.23,.23,.55,.37,.88,.37h3.29c.69,0,1.25-.56,1.25-1.25v-2c0-.69-.56-1.25-1.25-1.25h-4c-.69,0-1.25,.56-1.25,1.25v1.29c0,.33,.13,.65,.37,.88l.71,.71Zm.43-2.63h3.5v1.5h-2.94l-.56-.56v-.94Z"/></g></g></svg>