<?xml version="1.0" encoding="UTF-8"?><svg fill="currentColor" xmlns="http://www.w3.org/2000/svg" viewBox="0 0 24 24"><g id="f"><g><path d="M20,3.25h-1.84c-.19,0-.37,.03-.55,.09l-2.41,.8-1.38-1.38c-.33-.33-.77-.51-1.24-.51H4c-.96,0-1.75,.79-1.75,1.75v6c0,.96,.79,1.75,1.75,1.75h2.25v1.25c0,.59,.3,1.11,.75,1.43l-2.69,6.27c-.16,.38,.01,.82,.39,.99,.38,.16,.82-.01,.98-.39l2.56-5.98v5.68c0,.41,.34,.75,.75,.75s.75-.34,.75-.75v-5.68l2.56,5.97c.12,.28,.4,.45,.69,.45,.1,0,.2-.02,.29-.06,.38-.16,.56-.6,.39-.99l-2.69-6.27c.45-.32,.75-.84,.75-1.43v-1.25h2.25c.95,0,1.72-.76,1.75-1.71l1.86,.62c.18,.06,.37,.09,.55,.09h1.84c.96,0,1.75-.79,1.75-1.75V5c0-.96-.79-1.75-1.75-1.75ZM10.25,13c0,.14-.11,.25-.25,.25h-2c-.14,0-.25-.11-.25-.25v-1.25h2.5v1.25Zm4-3c0,.14-.11,.25-.25,.25H4c-.14,0-.25-.11-.25-.25V4c0-.14,.11-.25,.25-.25H12.59c.07,0,.13,.03,.18,.07l1.41,1.41s.07,.11,.07,.18v4.59Zm6-1c0,.14-.11,.25-.25,.25h-1.92l-2.33-.79v-2.92l2.41-.79h1.84c.14,0,.25,.11,.25,.25v4Z"/><path d="M9,6.25h-3c-.41,0-.75,.34-.75,.75s.34,.75,.75,.75h3c.41,0,.75-.34,.75-.75s-.34-.75-.75-.75Z"/></g></g></svg>