<?xml version="1.0" encoding="UTF-8"?><svg fill="currentColor" xmlns="http://www.w3.org/2000/svg" viewBox="0 0 24 24"><g id="r"><g><path d="M20,10.25H10.27l9.46-2.3c.94-.23,1.52-1.18,1.29-2.11l-.47-1.94c-.23-.94-1.18-1.51-2.11-1.29L3.85,6.15c-.94,.23-1.52,1.18-1.29,2.11l.69,2.83v8.91c0,.96,.79,1.75,1.75,1.75h15c.96,0,1.75-.79,1.75-1.75V12c0-.96-.79-1.75-1.75-1.75Zm-5.22-5.21l-1.14,2.85-4.41,1.07,1.14-2.85,4.41-1.07Zm4-.97s.04,0,.06,0c.11,0,.21,.08,.24,.19l.47,1.94c.03,.13-.05,.27-.18,.3l-3.94,.96,1.14-2.85,2.22-.54ZM4.21,7.61l4.37-1.06-1.14,2.85-2.88,.7-.53-2.19c-.03-.13,.05-.27,.18-.3Zm16.04,12.39c0,.14-.11,.25-.25,.25H5c-.14,0-.25-.11-.25-.25V11.75h15.25c.14,0,.25,.11,.25,.25v8Z"/><path d="M17,14.75c.41,0,.75-.34,.75-.75s-.34-.75-.75-.75H8c-.41,0-.75,.34-.75,.75s.34,.75,.75,.75h1.25v2.5h-1.25c-.41,0-.75,.34-.75,.75s.34,.75,.75,.75h9c.41,0,.75-.34,.75-.75s-.34-.75-.75-.75h-1.25v-2.5h1.25Zm-2.75,2.5h-3.5v-2.5h3.5v2.5Z"/></g></g></svg>