<?xml version="1.0" encoding="UTF-8"?><svg fill="currentColor" xmlns="http://www.w3.org/2000/svg" viewBox="0 0 24 24"><g id="n"><g><path d="M12,2.25C6.62,2.25,2.25,6.62,2.25,12s4.37,9.75,9.75,9.75,9.75-4.37,9.75-9.75S17.38,2.25,12,2.25Zm0,18c-4.55,0-8.25-3.7-8.25-8.25S7.45,3.75,12,3.75s8.25,3.7,8.25,8.25-3.7,8.25-8.25,8.25Z"/><path d="M14.75,12c0-1.52-1.23-2.75-2.75-2.75s-2.75,1.23-2.75,2.75,1.23,2.75,2.75,2.75,2.75-1.23,2.75-2.75Zm-4,0c0-.69,.56-1.25,1.25-1.25s1.25,.56,1.25,1.25-.56,1.25-1.25,1.25-1.25-.56-1.25-1.25Z"/><path d="M12,7.75c.59,0,1.16,.12,1.7,.35,.1,.04,.2,.06,.3,.06,.29,0,.56-.17,.69-.45,.17-.38,0-.82-.39-.99-.73-.32-1.5-.48-2.3-.48-.41,0-.75,.34-.75,.75s.34,.75,.75,.75Z"/><path d="M7.75,12c0-.59,.12-1.16,.35-1.7,.17-.38,0-.82-.39-.99-.38-.17-.82,0-.99,.39-.32,.73-.48,1.5-.48,2.3,0,1.26,.4,2.45,1.15,3.45,.15,.2,.37,.3,.6,.3,.16,0,.31-.05,.45-.15,.33-.25,.4-.72,.15-1.05-.56-.74-.85-1.62-.85-2.55Z"/><path d="M15.4,14.55c-.81,1.08-2.05,1.7-3.4,1.7-.41,0-.75,.34-.75,.75s.34,.75,.75,.75c1.83,0,3.5-.84,4.6-2.3,.25-.33,.18-.8-.15-1.05-.33-.25-.8-.18-1.05,.15Z"/></g></g></svg>