<?xml version="1.0" encoding="UTF-8"?><svg fill="currentColor" xmlns="http://www.w3.org/2000/svg" viewBox="0 0 24 24"><g id="t"><g><path d="M9.68,10.69c.11,.02,.21,.02,.32,.02,1.1,0,2.07-.81,2.23-1.93,.08-.59-.07-1.19-.43-1.67-.36-.48-.89-.79-1.48-.88-.6-.08-1.19,.07-1.67,.43-.48,.36-.79,.89-.88,1.48-.08,.59,.07,1.19,.43,1.67,.36,.48,.89,.79,1.48,.88Zm-.13-2.83c.13-.1,.29-.15,.45-.15,.04,0,.07,0,.11,0,.41,.06,.69,.44,.64,.85-.06,.41-.44,.7-.85,.64-.2-.03-.37-.13-.49-.29-.12-.16-.17-.36-.14-.56s.13-.37,.29-.49Z"/><path d="M11.31,11.68c-.18,1.23,.68,2.37,1.91,2.55,.11,.02,.22,.02,.32,.02,.48,0,.95-.16,1.35-.45,.48-.36,.79-.89,.88-1.48,.08-.59-.07-1.19-.43-1.67-.36-.48-.89-.79-1.48-.88-.59-.08-1.19,.07-1.67,.43-.48,.36-.79,.89-.88,1.48Zm1.78-.28c.13-.1,.29-.15,.45-.15,.04,0,.07,0,.11,0,.2,.03,.37,.13,.49,.29,.12,.16,.17,.36,.14,.56-.06,.41-.43,.7-.85,.64-.41-.06-.69-.44-.64-.85,.03-.2,.13-.37,.29-.49Z"/><path d="M11.35,17.34c.48-.36,.79-.89,.88-1.48,.08-.59-.07-1.19-.43-1.67-.36-.48-.89-.79-1.48-.88-1.22-.17-2.37,.68-2.55,1.91-.08,.59,.07,1.19,.43,1.67,.36,.48,.89,.79,1.48,.88,.11,.02,.22,.02,.32,.02,.48,0,.95-.16,1.35-.45Zm-2.09-1.91c.05-.37,.37-.64,.74-.64,.04,0,.07,0,.11,0,.2,.03,.37,.13,.49,.29,.12,.16,.17,.36,.14,.56s-.13,.37-.29,.49c-.16,.12-.36,.17-.56,.14-.41-.06-.69-.44-.64-.85Z"/><path d="M8.69,12.32c.18-1.23-.68-2.37-1.91-2.55-.59-.08-1.19,.07-1.67,.43-.48,.36-.79,.89-.88,1.48-.08,.59,.07,1.19,.43,1.67,.36,.48,.89,.79,1.48,.88,.11,.02,.22,.02,.32,.02,.48,0,.95-.16,1.35-.45,.48-.36,.79-.89,.88-1.48Zm-1.78,.28c-.16,.12-.36,.17-.56,.14-.2-.03-.37-.13-.49-.29-.12-.16-.17-.36-.14-.56,.05-.37,.38-.64,.74-.64,.04,0,.07,0,.11,0,.41,.06,.69,.44,.64,.85-.03,.2-.13,.37-.29,.49Z"/><path d="M21,18.25h-6.43c1.63-1.19,2.79-3.01,3.1-5.15,.6-4.23-2.35-8.16-6.58-8.77C6.87,3.72,2.93,6.67,2.33,10.9c-.6,4.23,2.35,8.16,6.58,8.77,.37,.05,.74,.08,1.1,.08h10.99c.41,0,.75-.34,.75-.75s-.34-.75-.75-.75ZM3.81,11.12c.44-3.11,3.13-5.37,6.18-5.37,.29,0,.59,.02,.89,.06,3.41,.49,5.79,3.66,5.3,7.07-.49,3.41-3.66,5.8-7.07,5.3-3.41-.49-5.79-3.66-5.3-7.07Z"/></g></g></svg>