<?xml version="1.0" encoding="UTF-8"?><svg fill="currentColor" xmlns="http://www.w3.org/2000/svg" viewBox="0 0 24 24"><g id="d"><g><path d="M4.5,4.25c-1.24,0-2.25,1.01-2.25,2.25v7c0,.78,.4,1.46,1,1.87v3.63c0,.41,.34,.75,.75,.75h1c.41,0,.75-.34,.75-.75s-.34-.75-.75-.75h-.25v-2.53c1.12-.13,2-1.07,2-2.22V6.5c0-1.24-1.01-2.25-2.25-2.25Zm.75,9.25c0,.41-.34,.75-.75,.75s-.75-.34-.75-.75V6.5c0-.41,.34-.75,.75-.75s.75,.34,.75,.75v7Z"/><path d="M19.5,4.25c-1.24,0-2.25,1.01-2.25,2.25v6c0,1.15,.88,2.1,2,2.22v3.53h-.25c-.41,0-.75,.34-.75,.75s.34,.75,.75,.75h1c.41,0,.75-.34,.75-.75v-4.63c.6-.4,1-1.09,1-1.87V6.5c0-1.24-1.01-2.25-2.25-2.25Zm-.75,8.25V6.5c0-.41,.34-.75,.75-.75s.75,.34,.75,.75v6c0,.41-.34,.75-.75,.75s-.75-.34-.75-.75Z"/><path d="M15,5.25h-6c-.96,0-1.75,.79-1.75,1.75v4c0,.96,.79,1.75,1.75,1.75h2.25v1.5h-2.25c-.96,0-1.75,.79-1.75,1.75v3c0,.41,.34,.75,.75,.75h8c.41,0,.75-.34,.75-.75v-3c0-.96-.79-1.75-1.75-1.75h-2.25v-1.5h2.25c.96,0,1.75-.79,1.75-1.75V7c0-.96-.79-1.75-1.75-1.75Zm.25,10.75v2.25h-6.5v-2.25c0-.14,.11-.25,.25-.25h6c.14,0,.25,.11,.25,.25Zm0-5c0,.14-.11,.25-.25,.25h-6c-.14,0-.25-.11-.25-.25V7c0-.14,.11-.25,.25-.25h6c.14,0,.25,.11,.25,.25v4Z"/><path d="M11.27,17c0,.41,.34,.75,.75,.75s.75-.34,.75-.75-.34-.75-.75-.75h-.01c-.41,0-.74,.34-.74,.75Z"/></g></g></svg>