<?xml version="1.0" encoding="UTF-8"?><svg fill="currentColor" xmlns="http://www.w3.org/2000/svg" viewBox="0 0 24 24"><g id="k"><g><path d="M21.58,9.16c-.2-.42-.56-.74-1-.89l-4.83-1.68v-.59c0-.96-.79-1.75-1.75-1.75H4c-.96,0-1.75,.79-1.75,1.75v4.75c0,3.57,2.65,6.63,6.03,6.97,.19,.02,.38,.03,.58,.03,.54,.56,1.17,1.02,1.89,1.35,.22,.1,.44,.19,.67,.27,.23,.08,.46,.15,.69,.2,.48,.12,.97,.17,1.46,.17,2.82,0,5.53-1.89,6.53-4.77l1.56-4.48c.15-.44,.13-.92-.08-1.34ZM3.75,10.75V6c0-.14,.11-.25,.25-.25H14c.14,0,.25,.11,.25,.25v4.75c0,2.81-2.05,5.21-4.68,5.47-.38,.04-.77,.04-1.15,0-2.62-.26-4.68-2.67-4.68-5.47Zm16.49-.74l-1.56,4.48c-.92,2.65-3.65,4.24-6.22,3.63-.19-.05-.37-.1-.55-.16-.18-.06-.36-.14-.53-.22-.16-.07-.3-.18-.45-.27,2.78-.85,4.82-3.59,4.82-6.72v-2.57l4.33,1.51c.08,.03,.13,.09,.14,.13,.02,.03,.04,.11,.01,.19Z"/><path d="M6.75,9c0-.27,.5-.27,.5,0,0,.41,.34,.75,.75,.75s.75-.34,.75-.75c0-.96-.79-1.75-1.75-1.75s-1.75,.79-1.75,1.75c0,.41,.34,.75,.75,.75s.75-.34,.75-.75Z"/><path d="M10,9.75c.41,0,.75-.34,.75-.75,0-.27,.5-.27,.5,0,0,.41,.34,.75,.75,.75s.75-.34,.75-.75c0-.96-.79-1.75-1.75-1.75s-1.75,.79-1.75,1.75c0,.41,.34,.75,.75,.75Z"/><path d="M11.75,12c0-.41-.34-.75-.75-.75H7c-.41,0-.75,.34-.75,.75,0,1.52,1.23,2.75,2.75,2.75s2.75-1.23,2.75-2.75Zm-2.75,1.25c-.41,0-.77-.2-1-.5h2c-.23,.3-.59,.5-1,.5Z"/></g></g></svg>