<?xml version="1.0" encoding="UTF-8"?><svg fill="currentColor" xmlns="http://www.w3.org/2000/svg" viewBox="0 0 24 24"><g id="h"><g><path d="M19,8.25h-1.79c-.74-.61-1.67-1-2.71-1s-1.97,.39-2.71,1H5c-1.52,0-2.75,1.23-2.75,2.75v1c0,1.25,.85,2.3,2,2.63v1.37c0,.41,.34,.75,.75,.75s.75-.34,.75-.75v-1.25h6.04c.74,.61,1.67,1,2.71,1s1.97-.39,2.71-1h1.04v1.25c0,.41,.34,.75,.75,.75s.75-.34,.75-.75v-1.37c1.15-.33,2-1.38,2-2.63v-1c0-1.52-1.23-2.75-2.75-2.75ZM3.75,12v-1c0-.69,.56-1.25,1.25-1.25h5.64c-.24,.54-.39,1.12-.39,1.75s.14,1.21,.39,1.75H5c-.69,0-1.25-.56-1.25-1.25Zm8-.5c0-1.52,1.23-2.75,2.75-2.75s2.75,1.23,2.75,2.75-1.23,2.75-2.75,2.75-2.75-1.23-2.75-2.75Zm8.5,.5c0,.69-.56,1.25-1.25,1.25h-.64c.24-.54,.39-1.12,.39-1.75s-.14-1.21-.39-1.75h.64c.69,0,1.25,.56,1.25,1.25v1Z"/><path d="M6,12.75h2c.41,0,.75-.34,.75-.75s-.34-.75-.75-.75h-2c-.41,0-.75,.34-.75,.75s.34,.75,.75,.75Z"/><path d="M14.5,10.25c-.69,0-1.25,.56-1.25,1.25s.56,1.25,1.25,1.25,1.25-.56,1.25-1.25-.56-1.25-1.25-1.25Zm-.25,1.25c0-.14,.11-.25,.25-.25s.25,.11,.25,.25c0,.28-.5,.28-.5,0Z"/></g></g></svg>