<?xml version="1.0" encoding="UTF-8"?><svg fill="currentColor" xmlns="http://www.w3.org/2000/svg" viewBox="0 0 24 24"><g id="e"><g><path d="M17,2.25H7c-2.62,0-4.75,2.13-4.75,4.75v6c0,2.62,2.13,4.75,4.75,4.75h.79l-1.46,2.92c-.19,.37-.04,.82,.34,1.01,.37,.19,.82,.04,1.01-.34l1.79-3.58h5.07l1.79,3.58c.13,.26,.4,.42,.67,.42,.11,0,.23-.03,.33-.08,.37-.19,.52-.64,.34-1.01l-1.46-2.92h.79c2.62,0,4.75-2.13,4.75-4.75V7c0-2.62-2.13-4.75-4.75-4.75Zm3.25,10.75c0,1.79-1.46,3.25-3.25,3.25H7c-1.79,0-3.25-1.46-3.25-3.25V7c0-1.79,1.46-3.25,3.25-3.25h10c1.79,0,3.25,1.46,3.25,3.25v6Z"/><path d="M11,7.25c-.41,0-.75,.34-.75,.75v1.25h-2.5v-1.25c0-.41-.34-.75-.75-.75s-.75,.34-.75,.75v4c0,.41,.34,.75,.75,.75s.75-.34,.75-.75v-1.25h2.5v1.25c0,.41,.34,.75,.75,.75s.75-.34,.75-.75v-4c0-.41-.34-.75-.75-.75Z"/><path d="M15,7.25h-2c-.41,0-.75,.34-.75,.75v4c0,.41,.34,.75,.75,.75h2c1.52,0,2.75-1.23,2.75-2.75s-1.23-2.75-2.75-2.75Zm0,4h-1.25v-2.5h1.25c.69,0,1.25,.56,1.25,1.25s-.56,1.25-1.25,1.25Z"/></g></g></svg>