<?xml version="1.0" encoding="UTF-8"?><svg fill="currentColor" xmlns="http://www.w3.org/2000/svg" viewBox="0 0 24 24"><g id="q"><path d="M12,2.25C6.62,2.25,2.25,6.62,2.25,12s4.37,9.75,9.75,9.75,9.75-4.37,9.75-9.75S17.38,2.25,12,2.25Zm7.34,6h-7.74l3.04-4.06c2.04,.69,3.73,2.16,4.7,4.06Zm-4.22,3.95l-1.37,2.05h-3.29l-1.34-2.7,1.35-1.8h3.1l1.54,2.45ZM13.04,3.82l-4.66,6.22-1.94-3.92s-.06-.08-.09-.12c1.48-1.39,3.46-2.26,5.65-2.26,.35,0,.7,.03,1.04,.07Zm-7.74,3.38l3.49,7.05H4.07c-.2-.72-.32-1.47-.32-2.25,0-1.79,.58-3.44,1.55-4.8Zm-.64,8.55H12.75l-2.76,4.14s-.02,.06-.04,.09c-2.31-.59-4.23-2.16-5.29-4.23Zm7.34,4.5c-.15,0-.29-.01-.43-.02l4.43-6.64,2.29,3.65s.03,.02,.04,.04c-1.51,1.81-3.79,2.97-6.33,2.97Zm7.24-4.31l-3.89-6.19h4.57c.2,.72,.32,1.47,.32,2.25,0,1.43-.37,2.77-1.01,3.94Z"/></g></svg>