<?xml version="1.0" encoding="UTF-8"?><svg fill="currentColor" xmlns="http://www.w3.org/2000/svg" viewBox="0 0 24 24"><g id="g"><g><path d="M14,4.25h-4c-1.52,0-2.75,1.23-2.75,2.75v10c0,1.52,1.23,2.75,2.75,2.75h4c1.52,0,2.75-1.23,2.75-2.75V7c0-1.52-1.23-2.75-2.75-2.75Zm1.25,12.75c0,.69-.56,1.25-1.25,1.25h-4c-.69,0-1.25-.56-1.25-1.25V7c0-.69,.56-1.25,1.25-1.25h4c.69,0,1.25,.56,1.25,1.25v10Z"/><path d="M5.97,9.93c-.29-.29-.77-.29-1.06,0-.42,.42-.66,.99-.66,1.59s.23,1.17,.66,1.59c.15,.15,.34,.22,.53,.22s.38-.07,.53-.22c.29-.29,.29-.77,0-1.06-.14-.14-.22-.33-.22-.53s.08-.39,.22-.53c.29-.29,.29-.77,0-1.06Z"/><path d="M4.56,9.58c.29-.29,.29-.77,0-1.06s-.77-.29-1.06,0c-1.66,1.66-1.66,4.35,0,6.01,.15,.15,.34,.22,.53,.22s.38-.07,.53-.22c.29-.29,.29-.77,0-1.06-1.07-1.07-1.07-2.82,0-3.89Z"/><path d="M19.09,9.88c-.29-.29-.77-.29-1.06,0s-.29,.77,0,1.06c.14,.14,.22,.33,.22,.53s-.08,.39-.22,.53c-.29,.29-.29,.77,0,1.06,.15,.15,.34,.22,.53,.22s.38-.07,.53-.22c.42-.42,.66-.99,.66-1.59s-.23-1.17-.66-1.59Z"/><path d="M20.5,8.47c-.29-.29-.77-.29-1.06,0s-.29,.77,0,1.06c1.07,1.07,1.07,2.82,0,3.89-.29,.29-.29,.77,0,1.06,.15,.15,.34,.22,.53,.22s.38-.07,.53-.22c1.66-1.66,1.66-4.35,0-6.01Z"/><path d="M12,6.25c-1.52,0-2.75,1.23-2.75,2.75s1.23,2.75,2.75,2.75,2.75-1.23,2.75-2.75-1.23-2.75-2.75-2.75Zm0,4c-.69,0-1.25-.56-1.25-1.25s.56-1.25,1.25-1.25,1.25,.56,1.25,1.25-.56,1.25-1.25,1.25Z"/><path d="M12,12.25c-1.52,0-2.75,1.23-2.75,2.75s1.23,2.75,2.75,2.75,2.75-1.23,2.75-2.75-1.23-2.75-2.75-2.75Zm0,4c-.69,0-1.25-.56-1.25-1.25s.56-1.25,1.25-1.25,1.25,.56,1.25,1.25-.56,1.25-1.25,1.25Z"/><path d="M12.02,8.25h0c-.41,0-.75,.34-.75,.75s.34,.75,.75,.75,.75-.34,.75-.75-.33-.75-.75-.75Z"/><path d="M12.02,14.25h0c-.41,0-.75,.34-.75,.75s.34,.75,.75,.75,.75-.34,.75-.75-.33-.75-.75-.75Z"/></g></g></svg>