<?xml version="1.0" encoding="UTF-8"?><svg fill="currentColor" xmlns="http://www.w3.org/2000/svg" viewBox="0 0 24 24"><g id="o"><g><path d="M20.98,6.03c-.48-.33-1.09-.39-1.63-.18l-2,.8,.8-2c.22-.54,.15-1.15-.18-1.63-.33-.48-.87-.77-1.45-.77H7.48c-.58,0-1.12,.29-1.45,.77-.33,.48-.39,1.09-.18,1.63l.8,2-2-.8c-.54-.22-1.15-.15-1.63,.18-.48,.33-.77,.87-.77,1.45v9.05c0,.58,.29,1.12,.77,1.45,.29,.2,.64,.3,.98,.3,.22,0,.44-.04,.65-.13l2-.8-.8,2c-.22,.54-.15,1.15,.18,1.63,.33,.48,.87,.77,1.45,.77h9.05c.58,0,1.12-.29,1.45-.77,.33-.48,.39-1.09,.18-1.63l-.8-2,2,.8c.21,.08,.43,.13,.65,.13,.34,0,.69-.1,.98-.3,.48-.33,.77-.87,.77-1.45V7.48c0-.58-.29-1.12-.77-1.45ZM8.75,15.25v-6.5h6.5v6.5h-6.5ZM7.27,3.86s.09-.11,.21-.11h9.05c.12,0,.18,.07,.21,.11s.07,.13,.03,.23l-1.26,3.16h-6.98l-1.26-3.16c-.04-.11,0-.19,.03-.23Zm-3.18,12.9c-.11,.04-.19,0-.23-.03-.04-.03-.11-.09-.11-.21V7.48c0-.12,.07-.18,.11-.21,.03-.02,.08-.04,.14-.04,.03,0,.06,0,.09,.02l3.16,1.26v6.98l-3.16,1.26Zm12.64,3.38s-.09,.11-.21,.11H7.48c-.12,0-.18-.07-.21-.11s-.07-.13-.03-.23l1.26-3.16h6.98l1.26,3.16c.04,.11,0,.19-.03,.23Zm3.52-3.62c0,.12-.07,.18-.11,.21-.04,.03-.13,.07-.23,.03l-3.16-1.26v-6.98l3.16-1.26c.11-.04,.19,0,.23,.03,.04,.03,.11,.09,.11,.21v9.05Z"/><path d="M12,9.25c-1.52,0-2.75,1.23-2.75,2.75s1.23,2.75,2.75,2.75,2.75-1.23,2.75-2.75-1.23-2.75-2.75-2.75Zm0,4c-.69,0-1.25-.56-1.25-1.25s.56-1.25,1.25-1.25,1.25,.56,1.25,1.25-.56,1.25-1.25,1.25Z"/></g></g></svg>