<?xml version="1.0" encoding="UTF-8"?><svg fill="currentColor" xmlns="http://www.w3.org/2000/svg" viewBox="0 0 24 24"><g id="p"><path d="M18.88,3.25c-.77,0-1.49,.3-2.03,.84l-.69,.69c-.68-.44-1.59-.36-2.19,.23l-.88,.88-.18-.18c-.66-.66-1.81-.66-2.47,0l-4.79,4.79-2.4,.48c-.45,.09-.82,.42-.95,.86-.13,.44-.01,.92,.31,1.25l.36,.36c-.85,1.62-.58,3.66,.74,4.99,.82,.82,1.91,1.24,3.01,1.24,.68,0,1.36-.17,1.98-.5l.36,.36c.24,.24,.56,.37,.88,.37,.12,0,.24-.02,.36-.05,.44-.13,.77-.5,.86-.95l.48-2.4,4.79-4.79c.33-.33,.51-.77,.51-1.24s-.18-.91-.51-1.24l-.18-.18,.88-.88c.33-.33,.51-.77,.51-1.24,0-.42-.16-.82-.43-1.14l.67-.67c.26-.26,.6-.4,.97-.4,.76,0,1.37,.62,1.37,1.37v14.88c0,.41,.34,.75,.75,.75s.75-.34,.75-.75V6.12c0-1.58-1.29-2.87-2.87-2.87ZM4.78,17.38c-.74-.74-.97-1.83-.67-2.79l3.45,3.45c-.96,.31-2.04,.08-2.79-.66Zm5.02,.78l-5.8-5.8,1.77-.35,4.38,4.38-.35,1.77Zm5.59-7.49l-4.42,4.42-3.89-3.89,4.42-4.42c.13-.13,.23-.13,.35,0l3.54,3.54c.06,.06,.07,.14,.07,.18s0,.11-.07,.18Zm-.35-4.6c.1-.1,.26-.1,.35,0l.71,.71c.1,.1,.1,.26,0,.35l-.88,.88-1.06-1.06,.88-.88Z"/></g></svg>