<?xml version="1.0" encoding="UTF-8"?><svg fill="currentColor" xmlns="http://www.w3.org/2000/svg" viewBox="0 0 24 24"><g id="u"><g><path d="M20.04,7.53c-.24,0-.46-.06-.65-.18-.3-.18-.52-.48-.6-.84-.18-.75-.87-1.27-1.68-1.27H6.9c-.81,0-1.5,.52-1.68,1.27-.08,.35-.31,.66-.6,.84-.19,.12-.41,.18-.65,.18-.94,0-1.71,.79-1.71,1.75v5.44c0,.96,.77,1.74,1.71,1.75,.24,0,.46,.06,.65,.18,.3,.18,.52,.48,.6,.84,.18,.75,.87,1.27,1.68,1.27h10.2c.81,0,1.5-.52,1.68-1.27,.08-.35,.31-.66,.6-.84,.19-.12,.41-.18,.65-.18,.94,0,1.71-.79,1.71-1.75v-5.44c0-.96-.77-1.74-1.71-1.75Zm.21,7.19c0,.13-.1,.25-.21,.25-.51,0-.99,.13-1.42,.39-.64,.39-1.11,1.03-1.29,1.77-.02,.07-.12,.12-.22,.12H6.9c-.1,0-.21-.06-.22-.13-.18-.74-.65-1.38-1.29-1.77-.43-.26-.91-.39-1.42-.39-.12,0-.21-.11-.21-.25v-5.44c0-.13,.1-.25,.21-.25,.51,0,.99-.13,1.42-.39,.64-.39,1.11-1.03,1.29-1.77,.02-.07,.12-.12,.22-.12h10.2c.1,0,.21,.06,.22,.13,.18,.74,.65,1.38,1.29,1.77,.43,.26,.91,.39,1.42,.39,.12,0,.21,.11,.21,.25v5.44Z"/><path d="M15.61,10.57l-2.03-.29-.91-1.84c-.25-.51-1.09-.51-1.34,0l-.91,1.84-2.03,.29c-.28,.04-.52,.24-.61,.51-.09,.27-.01,.57,.19,.77l1.47,1.43-.35,2.02c-.05,.28,.07,.57,.3,.73,.23,.17,.54,.19,.79,.06l1.81-.95,1.81,.95c.11,.06,.23,.09,.35,.09,.16,0,.31-.05,.44-.14,.23-.17,.35-.45,.3-.73l-.35-2.02,1.47-1.43c.2-.2,.28-.5,.19-.77-.09-.27-.32-.47-.61-.51Zm-2.38,1.91c-.18,.17-.26,.42-.22,.66l.16,.91-.82-.43c-.11-.06-.23-.09-.35-.09s-.24,.03-.35,.09l-.82,.43,.16-.91c.04-.24-.04-.49-.22-.66l-.66-.65,.92-.13c.24-.04,.46-.19,.56-.41l.41-.83,.41,.83c.11,.22,.32,.37,.56,.41l.92,.13-.66,.65Z"/></g></g></svg>