<?xml version="1.0" encoding="UTF-8"?><svg fill="currentColor" xmlns="http://www.w3.org/2000/svg" viewBox="0 0 24 24"><g id="b"><g><path d="M17,5.25h-2.6l1.22-1.83c.23-.34,.14-.81-.21-1.04-.35-.23-.81-.14-1.04,.21l-1.78,2.67h-.2l-1.78-2.67c-.23-.34-.7-.44-1.04-.21s-.44,.7-.21,1.04l1.22,1.83h-2.6c-2.07,0-3.75,1.68-3.75,3.75v9c0,2.07,1.68,3.75,3.75,3.75h9c2.07,0,3.75-1.68,3.75-3.75V9c0-2.07-1.68-3.75-3.75-3.75Zm2.25,12.75c0,1.24-1.01,2.25-2.25,2.25H8c-1.24,0-2.25-1.01-2.25-2.25V9c0-1.24,1.01-2.25,2.25-2.25h9c1.24,0,2.25,1.01,2.25,2.25v9Z"/><path d="M16,8.25h-7c-.96,0-1.75,.79-1.75,1.75v5c0,.96,.79,1.75,1.75,1.75h7c.96,0,1.75-.79,1.75-1.75v-5c0-.96-.79-1.75-1.75-1.75Zm.25,6.75c0,.14-.11,.25-.25,.25h-7c-.14,0-.25-.11-.25-.25v-5c0-.14,.11-.25,.25-.25h7c.14,0,.25,.11,.25,.25v5Z"/><path d="M9.02,18.25h0c-.41,0-.75,.34-.75,.75s.34,.75,.75,.75,.75-.34,.75-.75-.33-.75-.75-.75Z"/></g></g></svg>