<?xml version="1.0" encoding="UTF-8"?><svg fill="currentColor" xmlns="http://www.w3.org/2000/svg" viewBox="0 0 24 24"><g id="m"><g><path d="M17,2.25H7c-2.62,0-4.75,2.13-4.75,4.75v6c0,2.62,2.13,4.75,4.75,4.75h.79l-1.46,2.91c-.19,.37-.04,.82,.34,1.01s.82,.04,1.01-.34l1.79-3.59h5.07l1.79,3.59c.13,.26,.4,.41,.67,.41,.11,0,.23-.03,.33-.08,.37-.19,.52-.64,.34-1.01l-1.46-2.91h.79c2.62,0,4.75-2.13,4.75-4.75V7c0-2.62-2.13-4.75-4.75-4.75Zm3.25,10.75c0,1.79-1.46,3.25-3.25,3.25H7c-1.79,0-3.25-1.46-3.25-3.25V7c0-1.79,1.46-3.25,3.25-3.25h10c1.79,0,3.25,1.46,3.25,3.25v6Z"/><path d="M15.17,8.54l-3.2-2.13c-.54-.36-1.23-.39-1.8-.09-.57,.31-.92,.9-.92,1.54v4.26c0,.65,.35,1.24,.92,1.54,.26,.14,.54,.21,.83,.21,.34,0,.68-.1,.97-.29l3.2-2.13c.49-.33,.78-.87,.78-1.46s-.29-1.13-.78-1.46Zm-.83,1.66l-3.2,2.13c-.11,.07-.21,.04-.26,.01-.05-.03-.13-.09-.13-.22V7.87c0-.13,.08-.19,.13-.22,.03-.01,.07-.03,.12-.03,.04,0,.09,.01,.14,.04l3.2,2.13c.1,.06,.11,.16,.11,.21s-.01,.14-.11,.21Z"/></g></g></svg>