<?xml version="1.0" encoding="UTF-8"?><svg fill="currentColor" xmlns="http://www.w3.org/2000/svg" viewBox="0 0 24 24"><g id="l"><g><path d="M20,11.25h-1.84c-.19,0-.38,.03-.55,.09l-2.41,.8-1.38-1.38c-.33-.33-.78-.51-1.24-.51h-3.84v-2.5h1.68c.28,.59,.88,1,1.57,1h3.5c1.24,0,2.25-1.01,2.25-2.25s-1.01-2.25-2.25-2.25h-3.5c-.96,0-1.75,.79-1.75,1.75v.25H6c-.96,0-1.75,.79-1.75,1.75v2.25h-.25c-.96,0-1.75,.79-1.75,1.75v6c0,.96,.79,1.75,1.75,1.75H14c.95,0,1.72-.76,1.75-1.71l1.86,.62c.18,.06,.37,.09,.55,.09h1.84c.96,0,1.75-.79,1.75-1.75v-4c0-.96-.79-1.75-1.75-1.75ZM11.75,6c0-.14,.11-.25,.25-.25h3.5c.41,0,.75,.34,.75,.75s-.34,.75-.75,.75h-3.5c-.14,0-.25-.11-.25-.25v-1Zm-6,2c0-.14,.11-.25,.25-.25h1.25v2.5h-1.5v-2.25Zm8.5,10c0,.14-.11,.25-.25,.25H4c-.14,0-.25-.11-.25-.25v-6c0-.14,.11-.25,.25-.25H12.59c.07,0,.13,.03,.18,.07l1.41,1.41s.07,.11,.07,.18v4.59Zm6-1c0,.14-.11,.25-.25,.25h-1.92l-2.33-.79v-2.92l2.41-.79h1.84c.14,0,.25,.11,.25,.25v4Z"/><path d="M9,14.25h-3c-.41,0-.75,.34-.75,.75s.34,.75,.75,.75h3c.41,0,.75-.34,.75-.75s-.34-.75-.75-.75Z"/></g></g></svg>