<?xml version="1.0" encoding="UTF-8"?><svg fill="currentColor" xmlns="http://www.w3.org/2000/svg" viewBox="0 0 24 24"><g id="k"><g><path d="M21.29,6.81c-.07-.09-.15-.16-.26-.22l-7.82-3.84c-.77-.38-1.65-.38-2.41,0L2.9,6.59c-.17,.08-.28,.22-.35,.38-.18,.22-.29,.5-.29,.79v7.93c0,1.09,.64,2.07,1.63,2.51l7,3.11c.36,.16,.74,.24,1.12,.24,.38,0,.76-.08,1.12-.24l7-3.11c.99-.44,1.63-1.43,1.63-2.51V7.77c0-.38-.18-.72-.46-.96Zm-9.84-2.71c.35-.17,.75-.17,1.1,0l6.24,3.06-2.8,1.25-6.16-3.52,1.63-.79Zm.65,6.03c-.06,.03-.14,.03-.2,0l-6.72-2.98,3.01-1.46,6.09,3.48-2.18,.97Zm-7.61,6.71c-.45-.2-.74-.65-.74-1.14v-7.55l7.5,3.33v8.36l-6.76-3Zm15.76-1.14c0,.49-.29,.94-.74,1.14l-6.76,3V11.49l7.5-3.33v7.55Z"/><path d="M15.33,12.33c.13,.26,.4,.42,.67,.42,.11,0,.23-.03,.33-.08l2-1c.37-.19,.52-.64,.34-1.01-.19-.37-.63-.52-1.01-.34l-2,1c-.37,.19-.52,.64-.34,1.01Z"/></g></g></svg>