<?xml version="1.0" encoding="UTF-8"?><svg fill="currentColor" xmlns="http://www.w3.org/2000/svg" viewBox="0 0 24 24"><g id="l"><g><path d="M21.53,19.47l-1.41-1.41c.36-.54,.59-1.17,.63-1.84,.06-1-.28-1.96-.94-2.71h0c-.31-.35-.67-.61-1.06-.81v-4.7c0-2.07-1.68-3.75-3.75-3.75H6c-2.07,0-3.75,1.68-3.75,3.75v5c0,2.07,1.68,3.75,3.75,3.75h7.34c.13,.64,.41,1.24,.86,1.74,.74,.83,1.77,1.26,2.81,1.26,.72,0,1.43-.21,2.06-.63l1.41,1.41c.15,.15,.34,.22,.53,.22s.38-.07,.53-.22c.29-.29,.29-.77,0-1.06ZM3.75,13v-5c0-1.24,1.01-2.25,2.25-2.25H15c1.24,0,2.25,1.01,2.25,2.25v4.26c-.97-.06-1.96,.24-2.74,.93-.61,.55-1.01,1.26-1.17,2.05H6c-1.24,0-2.25-1.01-2.25-2.25Zm11.57,4.5c-.82-.93-.74-2.35,.19-3.18,.43-.38,.96-.57,1.49-.57,.62,0,1.24,.25,1.68,.75,.4,.45,.6,1.03,.56,1.63-.04,.6-.3,1.15-.75,1.55-.93,.82-2.35,.74-3.18-.19Z"/><path d="M6,7.25c-.41,0-.75,.34-.75,.75v5c0,.41,.34,.75,.75,.75s.75-.34,.75-.75v-5c0-.41-.34-.75-.75-.75Z"/><path d="M9,7.25c-.41,0-.75,.34-.75,.75v5c0,.41,.34,.75,.75,.75s.75-.34,.75-.75v-5c0-.41-.34-.75-.75-.75Z"/><path d="M12,7.25c-.41,0-.75,.34-.75,.75v5c0,.41,.34,.75,.75,.75s.75-.34,.75-.75v-5c0-.41-.34-.75-.75-.75Z"/><path d="M15,11.75c.41,0,.75-.34,.75-.75v-3c0-.41-.34-.75-.75-.75s-.75,.34-.75,.75v3c0,.41,.34,.75,.75,.75Z"/></g></g></svg>