<?xml version="1.0" encoding="UTF-8"?><svg fill="currentColor" xmlns="http://www.w3.org/2000/svg" viewBox="0 0 24 24"><g id="u"><g><path d="M20.75,10c0-.08-.02-.15-.02-.22-.05-1.42-.34-2.82-.87-4.15l-.66-1.65c-.42-1.05-1.42-1.73-2.55-1.73H7.35c-1.13,0-2.13,.68-2.55,1.73l-.66,1.65c-.53,1.33-.81,2.72-.87,4.15,0,.07-.02,.15-.02,.22,0,.02,0,.03,0,.05,0,.07,0,.14,0,.21v8.75c0,1.52,1.23,2.75,2.75,2.75h12c1.52,0,2.75-1.23,2.75-2.75V10.25c0-.07,0-.14,0-.2,0-.02,0-.03,0-.05Zm-2.94-5.46l.66,1.65c.16,.4,.29,.81,.4,1.22-.27-.09-.56-.15-.86-.15h-5.25V3.75h3.9c.51,0,.97,.31,1.16,.79Zm-12.27,1.65l.66-1.65c.19-.48,.65-.79,1.16-.79h3.9v3.5H6c-.3,0-.59,.06-.86,.15,.11-.41,.24-.82,.4-1.22Zm13.72,12.81c0,.69-.56,1.25-1.25,1.25H6c-.69,0-1.25-.56-1.25-1.25V10.25c0-.11,.01-.22,.01-.33,.04-.65,.57-1.17,1.23-1.17h12c.66,0,1.19,.52,1.23,1.17,0,.11,.02,.22,.02,.33v8.75Z"/><path d="M17,17.25h-3c-.41,0-.75,.34-.75,.75s.34,.75,.75,.75h3c.41,0,.75-.34,.75-.75s-.34-.75-.75-.75Z"/></g></g></svg>