<?xml version="1.0" encoding="UTF-8"?><svg fill="currentColor" xmlns="http://www.w3.org/2000/svg" viewBox="0 0 24 24"><g id="i"><g><path d="M19,10.25h-2.56c.19-.38,.31-.8,.31-1.25V5c0-1.52-1.23-2.75-2.75-2.75h-4c-1.52,0-2.75,1.23-2.75,2.75v4c0,.45,.12,.87,.31,1.25h-2.56c-1.52,0-2.75,1.23-2.75,2.75v5c0,1.52,1.23,2.75,2.75,2.75h5c.79,0,1.5-.34,2-.87,.5,.54,1.21,.87,2,.87h5c1.52,0,2.75-1.23,2.75-2.75v-5c0-1.52-1.23-2.75-2.75-2.75Zm-10.25-1.25V5c0-.69,.56-1.25,1.25-1.25h4c.69,0,1.25,.56,1.25,1.25v4c0,.69-.56,1.25-1.25,1.25h-4c-.69,0-1.25-.56-1.25-1.25Zm1.25,10.25H5c-.69,0-1.25-.56-1.25-1.25v-5c0-.69,.56-1.25,1.25-1.25h5c.69,0,1.25,.56,1.25,1.25v5c0,.69-.56,1.25-1.25,1.25Zm10.25-1.25c0,.69-.56,1.25-1.25,1.25h-5c-.69,0-1.25-.56-1.25-1.25v-5c0-.69,.56-1.25,1.25-1.25h5c.69,0,1.25,.56,1.25,1.25v5Z"/><path d="M11,8.25h-1c-.41,0-.75,.34-.75,.75s.34,.75,.75,.75h1c.41,0,.75-.34,.75-.75s-.34-.75-.75-.75Z"/><path d="M6,17.25h-1c-.41,0-.75,.34-.75,.75s.34,.75,.75,.75h1c.41,0,.75-.34,.75-.75s-.34-.75-.75-.75Z"/><path d="M15,17.25h-1c-.41,0-.75,.34-.75,.75s.34,.75,.75,.75h1c.41,0,.75-.34,.75-.75s-.34-.75-.75-.75Z"/></g></g></svg>