<?xml version="1.0" encoding="UTF-8"?><svg fill="currentColor" xmlns="http://www.w3.org/2000/svg" viewBox="0 0 24 24"><g id="d"><g><path d="M12,3.25C6.62,3.25,2.25,6.73,2.25,11c0,2.17,1.15,4.26,3.16,5.72,.53,.38,.84,1.04,.84,1.75v2.53c0,.27,.15,.52,.38,.65,.11,.07,.24,.1,.37,.1,.13,0,.27-.04,.39-.11l4.34-2.6c.31-.18,.68-.29,1.1-.32,5.09-.34,8.93-3.66,8.93-7.72,0-4.27-4.37-7.75-9.75-7.75Zm.73,13.98c-.67,.04-1.26,.22-1.78,.53l-3.2,1.92v-1.21c0-1.19-.54-2.3-1.46-2.97-1.64-1.19-2.54-2.79-2.54-4.5,0-3.45,3.7-6.25,8.25-6.25s8.25,2.8,8.25,6.25c0,3.21-3.31,5.95-7.52,6.23Z"/><path d="M12.02,10.25h-.01c-.41,0-.74,.34-.74,.75s.34,.75,.75,.75,.75-.34,.75-.75-.34-.75-.75-.75Z"/><path d="M16.02,10.25h0c-.41,0-.75,.34-.75,.75s.34,.75,.75,.75,.75-.34,.75-.75-.33-.75-.75-.75Z"/><path d="M8.02,10.25h-.01c-.41,0-.74,.34-.74,.75s.34,.75,.75,.75,.75-.34,.75-.75-.34-.75-.75-.75Z"/></g></g></svg>