<?xml version="1.0" encoding="UTF-8"?><svg fill="currentColor" xmlns="http://www.w3.org/2000/svg" viewBox="0 0 24 24"><g id="s"><g><path d="M16,4.25h-1.43c-.28-.59-.88-1-1.57-1h-2c-.7,0-1.29,.41-1.57,1h-1.43c-2.62,0-4.75,2.13-4.75,4.75v8c0,2.62,2.13,4.75,4.75,4.75h8c2.62,0,4.75-2.13,4.75-4.75V9c0-2.62-2.13-4.75-4.75-4.75Zm-5,.5h2c.14,0,.25,.11,.25,.25v2.79l-.91-.46c-.11-.05-.22-.08-.34-.08s-.23,.03-.34,.08l-.91,.46v-2.79c0-.14,.11-.25,.25-.25Zm8.25,12.25c0,1.79-1.46,3.25-3.25,3.25H8c-1.79,0-3.25-1.46-3.25-3.25V9c0-1.79,1.46-3.25,3.25-3.25h1.25v3.25c0,.26,.13,.5,.36,.64,.22,.14,.5,.15,.73,.03l1.66-.83,1.67,.83c.11,.05,.22,.08,.33,.08,.14,0,.27-.04,.39-.11,.22-.14,.36-.38,.36-.64v-3.25h1.25c1.79,0,3.25,1.46,3.25,3.25v8Z"/><path d="M17,17.25h-3c-.41,0-.75,.34-.75,.75s.34,.75,.75,.75h3c.41,0,.75-.34,.75-.75s-.34-.75-.75-.75Z"/></g></g></svg>