<?xml version="1.0" encoding="UTF-8"?><svg fill="currentColor" xmlns="http://www.w3.org/2000/svg" viewBox="0 0 24 24"><g id="n"><g><path d="M17,4.25h-.25v-.25c0-.41-.34-.75-.75-.75s-.75,.34-.75,.75v.25h-6.5v-.25c0-.41-.34-.75-.75-.75s-.75,.34-.75,.75v.25h-.25c-2.62,0-4.75,2.13-4.75,4.75v8c0,2.62,2.13,4.75,4.75,4.75h10c2.62,0,4.75-2.13,4.75-4.75V9c0-2.62-2.13-4.75-4.75-4.75Zm3.25,12.75c0,1.79-1.46,3.25-3.25,3.25H7c-1.79,0-3.25-1.46-3.25-3.25V9c0-1.79,1.46-3.25,3.25-3.25h.25v.25c0,.41,.34,.75,.75,.75s.75-.34,.75-.75v-.25h6.5v.25c0,.41,.34,.75,.75,.75s.75-.34,.75-.75v-.25h.25c1.79,0,3.25,1.46,3.25,3.25v8Z"/><path d="M16,9.25H8c-1.52,0-2.75,1.23-2.75,2.75v4c0,1.52,1.23,2.75,2.75,2.75h8c1.52,0,2.75-1.23,2.75-2.75v-4c0-1.52-1.23-2.75-2.75-2.75Zm1.25,2.75v1.25h-4.5v-2.5h3.25c.69,0,1.25,.56,1.25,1.25Zm-9.25-1.25h3.25v2.5H6.75v-1.25c0-.69,.56-1.25,1.25-1.25Zm-1.25,5.25v-1.25h4.5v2.5h-3.25c-.69,0-1.25-.56-1.25-1.25Zm9.25,1.25h-3.25v-2.5h4.5v1.25c0,.69-.56,1.25-1.25,1.25Z"/></g></g></svg>