<?xml version="1.0" encoding="UTF-8"?><svg fill="currentColor" xmlns="http://www.w3.org/2000/svg" viewBox="0 0 24 24"><g id="b"><path d="M21.67,16.66c-.19-.37-.64-.52-1.01-.33-.12,.06-.24,.11-.36,.16l.98-2.94c.18-.53,.09-1.12-.24-1.58-.08-.11-.18-.22-.28-.31v-3.67c0-.96-.79-1.75-1.75-1.75h-6c-.96,0-1.75,.79-1.75,1.75v5.26h-1.5v-3.26c0-.96-.79-1.75-1.75-1.75h-.25v-1.25c0-.41-.34-.75-.75-.75s-.75,.34-.75,.75v1.25h-.25c-.96,0-1.75,.79-1.75,1.75v3.25h-.25c-.97,0-1.75,.78-1.75,1.75v2s.02,.07,.02,.1c0,.05,.01,.11,.03,.16,.02,.04,.04,.08,.07,.12,.03,.04,.05,.08,.08,.12,.04,.04,.08,.06,.12,.1,.03,.02,.05,.05,.09,.07,.01,0,.03,.01,.04,.02h0c1.4,.7,2.83,1.06,4.25,1.06h.04c1.27,0,2.06-.29,2.76-.55,.67-.24,1.24-.45,2.24-.45s1.57,.21,2.24,.45c.7,.25,1.49,.54,2.76,.55h.04c.76,0,1.51-.11,2.27-.3h.04c.67-.19,1.34-.44,2-.78,.37-.19,.52-.64,.33-1.01ZM12.75,8c0-.14,.11-.25,.25-.25h6c.14,0,.25,.11,.25,.25v3.25h-2.25c-.29,0-.54,.16-.67,.42l-.79,1.6h-2.79v-5.27Zm-7,2c0-.14,.11-.25,.25-.25h2c.14,0,.25,.11,.25,.25v3.26h-2.5v-3.26Zm11.25,7.25c-1.01,0-1.58-.21-2.25-.46-.7-.25-1.49-.54-2.75-.54s-2.05,.29-2.75,.54c-.67,.24-1.25,.45-2.26,.46h-.03c-1.07,0-2.15-.26-3.21-.74v-1.51c0-.14,.11-.25,.25-.25l12,.02h0c.29,0,.54-.16,.67-.42l.79-1.6h2.15c.11,0,.17,.07,.2,.1,.03,.04,.07,.12,.03,.23l-1.33,4c-.51,.1-1.01,.17-1.52,.17Z"/></g></svg>