<?xml version="1.0" encoding="UTF-8"?><svg fill="currentColor" xmlns="http://www.w3.org/2000/svg" viewBox="0 0 24 24"><g id="f"><path d="M21.53,10.85l-1.49-3.36c-.33-.75-1.08-1.24-1.91-1.24h-3.5c-.33-1.15-1.38-2-2.63-2H5c-1.52,0-2.75,1.23-2.75,2.75v9c0,1.52,1.23,2.75,2.75,2.75h.37c.33,1.15,1.38,2,2.63,2s2.3-.85,2.63-2h2.73c.33,1.15,1.38,2,2.63,2s2.3-.85,2.63-2h.37c1.52,0,2.75-1.23,2.75-2.75v-4.12c0-.36-.07-.71-.22-1.04Zm-1.37,.61c.06,.13,.09,.28,.09,.43v.37h-2.5v-1.5h2.1l.31,.71ZM5,5.75h7c.69,0,1.25,.56,1.25,1.25v5c0,.69-.56,1.25-1.25,1.25H3.75V7c0-.69,.56-1.25,1.25-1.25Zm3,13.5c-.69,0-1.25-.56-1.25-1.25s.56-1.25,1.25-1.25,1.25,.56,1.25,1.25-.56,1.25-1.25,1.25Zm8,0c-.69,0-1.25-.56-1.25-1.25s.56-1.25,1.25-1.25,1.25,.56,1.25,1.25-.56,1.25-1.25,1.25Zm3-2h-.37c-.33-1.15-1.38-2-2.63-2s-2.3,.85-2.63,2h-2.73c-.33-1.15-1.38-2-2.63-2s-2.3,.85-2.63,2h-.37c-.69,0-1.25-.56-1.25-1.25v-1.25H12c1.52,0,2.75-1.23,2.75-2.75V7.75h3.38c.23,0,.44,.14,.54,.35l.51,1.15h-2.18c-.41,0-.75,.34-.75,.75v3c0,.41,.34,.75,.75,.75h3.25v2.25c0,.69-.56,1.25-1.25,1.25Z"/></g></svg>