<?xml version="1.0" encoding="UTF-8"?><svg fill="currentColor" xmlns="http://www.w3.org/2000/svg" viewBox="0 0 24 24"><g id="j"><g><path d="M20.89,16.26l-10.02,1.51c-.19-.42-.48-.8-.86-1.08-.38-.28-.82-.45-1.28-.5l-1.69-11.24c-.23-1.5-1.63-2.55-3.13-2.31l-.99,.15c-.41,.06-.69,.44-.63,.85,.06,.41,.44,.69,.85,.63l.99-.15c.68-.09,1.32,.37,1.42,1.05l1.69,11.24c-.42,.19-.8,.48-1.08,.86-.44,.59-.62,1.32-.51,2.04,.21,1.36,1.38,2.34,2.72,2.34,.14,0,.27,0,.41-.03,.73-.11,1.37-.49,1.8-1.08,.28-.38,.45-.82,.5-1.28l10.02-1.51c.41-.06,.69-.44,.63-.85-.06-.41-.45-.7-.85-.63Zm-11.51,3.38c-.2,.27-.49,.44-.82,.49-.68,.1-1.32-.37-1.42-1.05-.05-.33,.03-.66,.23-.93,.2-.27,.49-.44,.82-.49,.06,0,.13-.01,.19-.01,.26,0,.52,.08,.74,.24,.27,.2,.44,.49,.49,.82,.05,.33-.03,.66-.23,.93Z"/><path d="M9.71,12.63c.15,.99,.67,1.86,1.48,2.46,.65,.48,1.42,.74,2.22,.74,.19,0,.38-.01,.56-.04l3.96-.59c.99-.15,1.86-.67,2.46-1.48,.59-.81,.84-1.79,.69-2.79l-.59-3.96c-.15-.99-.67-1.86-1.48-2.46-.81-.6-1.8-.85-2.79-.69l-3.96,.59c-2.04,.31-3.46,2.22-3.15,4.27l.59,3.96Zm2.78-6.74l3.96-.59c.11-.02,.23-.03,.34-.03,.48,0,.94,.15,1.33,.44,.48,.36,.8,.88,.89,1.48l.59,3.96c.09,.59-.06,1.19-.42,1.67s-.88,.8-1.48,.89l-3.96,.59c-.59,.09-1.19-.06-1.67-.42-.48-.36-.8-.88-.89-1.48l-.59-3.96c-.18-1.23,.66-2.38,1.89-2.56Z"/></g></g></svg>