<?xml version="1.0" encoding="UTF-8"?><svg fill="currentColor" xmlns="http://www.w3.org/2000/svg" viewBox="0 0 24 24"><g id="m"><g><path d="M16,4.25h-.54l-.35-.69c-.4-.81-1.22-1.31-2.12-1.31h-2c-.9,0-1.71,.5-2.12,1.31l-.35,.69h-.54c-2.07,0-3.75,1.68-3.75,3.75v10c0,2.07,1.68,3.75,3.75,3.75h8c2.07,0,3.75-1.68,3.75-3.75V8c0-2.07-1.68-3.75-3.75-3.75Zm-5.78-.02c.15-.3,.45-.48,.78-.48h2c.33,0,.63,.18,.78,.48l.38,.76c.06,.12,.09,.25,.09,.39,0,.48-.39,.87-.87,.87h-2.76c-.48,0-.87-.39-.87-.87,0-.13,.03-.27,.09-.39l.38-.76Zm8.03,13.77c0,1.24-1.01,2.25-2.25,2.25H8c-1.24,0-2.25-1.01-2.25-2.25V8c0-1.24,1.01-2.25,2.25-2.25h.29c.18,1.13,1.15,2,2.33,2h2.76c1.18,0,2.15-.87,2.33-2h.29c1.24,0,2.25,1.01,2.25,2.25v10Z"/><path d="M10.47,9.47l-1.47,1.47-.47-.47c-.29-.29-.77-.29-1.06,0s-.29,.77,0,1.06l1,1c.15,.15,.34,.22,.53,.22s.38-.07,.53-.22l2-2c.29-.29,.29-.77,0-1.06s-.77-.29-1.06,0Z"/><path d="M16,10.25h-3c-.41,0-.75,.34-.75,.75s.34,.75,.75,.75h3c.41,0,.75-.34,.75-.75s-.34-.75-.75-.75Z"/><path d="M10.47,14.47l-1.47,1.47-.47-.47c-.29-.29-.77-.29-1.06,0s-.29,.77,0,1.06l1,1c.15,.15,.34,.22,.53,.22s.38-.07,.53-.22l2-2c.29-.29,.29-.77,0-1.06s-.77-.29-1.06,0Z"/><path d="M16,15.25h-3c-.41,0-.75,.34-.75,.75s.34,.75,.75,.75h3c.41,0,.75-.34,.75-.75s-.34-.75-.75-.75Z"/></g></g></svg>