<?xml version="1.0" encoding="UTF-8"?><svg fill="currentColor" xmlns="http://www.w3.org/2000/svg" viewBox="0 0 24 24"><g id="c"><g><path d="M18.75,9c0-3.72-3.03-6.75-6.75-6.75s-6.75,3.03-6.75,6.75c0,1.19,.31,2.35,.9,3.38h0l5.2,9c.13,.23,.38,.38,.65,.38s.52-.14,.65-.38l5.19-9h0c.59-1.02,.9-2.19,.9-3.38Zm-6.75,10.5l-4.55-7.87h0c-.46-.8-.7-1.7-.7-2.63,0-2.89,2.36-5.25,5.25-5.25s5.25,2.36,5.25,5.25c0,.92-.24,1.83-.7,2.62h0l-4.55,7.88Z"/><path d="M12,6.25c-1.52,0-2.75,1.23-2.75,2.75s1.23,2.75,2.75,2.75,2.75-1.23,2.75-2.75-1.23-2.75-2.75-2.75Zm0,4c-.69,0-1.25-.56-1.25-1.25s.56-1.25,1.25-1.25,1.25,.56,1.25,1.25-.56,1.25-1.25,1.25Z"/></g></g></svg>