<?xml version="1.0" encoding="UTF-8"?><svg fill="currentColor" xmlns="http://www.w3.org/2000/svg" viewBox="0 0 24 24"><g id="o"><g><path d="M16,2.25H8c-3.17,0-5.75,2.58-5.75,5.75v8c0,3.17,2.58,5.75,5.75,5.75h8c3.17,0,5.75-2.58,5.75-5.75V8c0-3.17-2.58-5.75-5.75-5.75Zm4.25,13.75c0,2.34-1.91,4.25-4.25,4.25H8c-2.34,0-4.25-1.91-4.25-4.25V8c0-2.34,1.91-4.25,4.25-4.25h8c2.34,0,4.25,1.91,4.25,4.25v8Z"/><path d="M16,7.25h-6.5c-1.79,0-3.25,1.46-3.25,3.25,0,1.35,.83,2.51,2,3v1.82c0,1.34,1.09,2.43,2.43,2.43,1.12,0,2.09-.76,2.36-1.84l.54-2.16h1.41c.31,0,.58-.19,.7-.47l1.63-4.07c.18-.44,.12-.94-.14-1.33-.27-.39-.71-.63-1.18-.63Zm-4.41,8.29c-.1,.42-.48,.71-.91,.71-.52,0-.93-.42-.93-.93v-1.57h2.29l-.45,1.79Zm2.9-3.29h-4.99c-.96,0-1.75-.79-1.75-1.75s.79-1.75,1.75-1.75h6.39l-1.4,3.5Z"/></g></g></svg>