<?xml version="1.0" encoding="UTF-8"?><svg fill="currentColor" xmlns="http://www.w3.org/2000/svg" viewBox="0 0 24 24"><g id="g"><g><path d="M17.75,13.43v-3.67c0-.64-.33-1.21-.89-1.52-.03-.02-.06-.02-.09-.04l-3.82-2.48c-.58-.38-1.33-.38-1.91,0l-3.83,2.49s-.06,.02-.08,.03c-.56,.32-.89,.88-.89,1.52v3.67c0,.61,.33,1.19,.85,1.5l4,2.4c.28,.17,.59,.25,.9,.25s.62-.08,.9-.25l4-2.4c.52-.31,.85-.89,.85-1.5Zm-5.89-6.45c.08-.05,.19-.05,.27,0l2.45,1.59-2.46,1.47c-.08,.05-.18,.05-.26,0l-2.46-1.47,2.45-1.59Zm-3.99,6.67c-.07-.04-.12-.13-.12-.21v-3.67c0-.13,.08-.19,.13-.22,.03-.02,.07-.03,.12-.03,.04,0,.08,0,.13,.04l2.97,1.78s.1,.04,.15,.06v4.28l-3.38-2.03Zm8.38-.21c0,.09-.05,.17-.12,.21l-3.38,2.03v-4.28s.1-.04,.15-.06l2.97-1.78c.11-.06,.21-.03,.25,0,.05,.03,.13,.09,.13,.22v3.67Z"/><path d="M18,2.25h-2c-.41,0-.75,.34-.75,.75s.34,.75,.75,.75h2c1.24,0,2.25,1.01,2.25,2.25v2c0,.41,.34,.75,.75,.75s.75-.34,.75-.75v-2c0-2.07-1.68-3.75-3.75-3.75Z"/><path d="M3,8.75c.41,0,.75-.34,.75-.75v-2c0-1.24,1.01-2.25,2.25-2.25h2c.41,0,.75-.34,.75-.75s-.34-.75-.75-.75h-2c-2.07,0-3.75,1.68-3.75,3.75v2c0,.41,.34,.75,.75,.75Z"/><path d="M8,19.25h-2c-1.24,0-2.25-1.01-2.25-2.25v-2c0-.41-.34-.75-.75-.75s-.75,.34-.75,.75v2c0,2.07,1.68,3.75,3.75,3.75h2c.41,0,.75-.34,.75-.75s-.34-.75-.75-.75Z"/><path d="M21,14.25c-.41,0-.75,.34-.75,.75v2c0,1.24-1.01,2.25-2.25,2.25h-2c-.41,0-.75,.34-.75,.75s.34,.75,.75,.75h2c2.07,0,3.75-1.68,3.75-3.75v-2c0-.41-.34-.75-.75-.75Z"/></g></g></svg>