<?xml version="1.0" encoding="UTF-8"?><svg fill="currentColor" xmlns="http://www.w3.org/2000/svg" viewBox="0 0 24 24"><g id="t"><g><path d="M16,2.25H8c-3.17,0-5.75,2.58-5.75,5.75v8c0,3.17,2.58,5.75,5.75,5.75h8c3.17,0,5.75-2.58,5.75-5.75V8c0-3.17-2.58-5.75-5.75-5.75Zm-6.25,1.5h4.5v3.25c0,.69-.56,1.25-1.25,1.25h-2c-.69,0-1.25-.56-1.25-1.25V3.75Zm10.5,12.25c0,2.34-1.91,4.25-4.25,4.25H8c-2.34,0-4.25-1.91-4.25-4.25V8c0-2.34,1.91-4.25,4.25-4.25h.25v3.25c0,1.52,1.23,2.75,2.75,2.75h2c1.52,0,2.75-1.23,2.75-2.75V3.75h.25c2.34,0,4.25,1.91,4.25,4.25v8Z"/><path d="M8.53,13.47c-.07-.07-.15-.12-.24-.16-.18-.08-.39-.08-.57,0-.09,.04-.17,.09-.24,.16l-2,2c-.29,.29-.29,.77,0,1.06s.77,.29,1.06,0l.72-.72v2.19c0,.41,.34,.75,.75,.75s.75-.34,.75-.75v-2.19l.72,.72c.15,.15,.34,.22,.53,.22s.38-.07,.53-.22c.29-.29,.29-.77,0-1.06l-2-2Z"/></g></g></svg>