<?xml version="1.0" encoding="UTF-8"?><svg fill="currentColor" xmlns="http://www.w3.org/2000/svg" viewBox="0 0 24 24"><g id="p"><path d="M19.92,8.21L13.07,2.89c-.63-.49-1.52-.49-2.15,0l-6.84,5.32c-1.17,.91-1.83,2.27-1.83,3.75v6.04c0,2.07,1.68,3.75,3.75,3.75h12c2.07,0,3.75-1.68,3.75-3.75v-6.04c0-1.48-.67-2.84-1.83-3.75ZM7.75,15.75h8.5v1.5H7.75v-1.5Zm8.5-1.5H7.75v-1.25c0-.14,.11-.25,.25-.25h8c.14,0,.25,.11,.25,.25v1.25Zm-8.5,4.5h8.5v1.5H7.75v-1.5Zm12.5-.75c0,1.24-1.01,2.25-2.25,2.25h-.25v-7.25c0-.96-.79-1.75-1.75-1.75H8c-.96,0-1.75,.79-1.75,1.75v7.25h-.25c-1.24,0-2.25-1.01-2.25-2.25v-6.04c0-1.01,.46-1.95,1.25-2.57l6.84-5.32s.1-.05,.15-.05,.11,.02,.15,.05l6.84,5.32c.8,.62,1.25,1.56,1.25,2.57v6.04Z"/></g></svg>