<?xml version="1.0" encoding="UTF-8"?><svg fill="currentColor" xmlns="http://www.w3.org/2000/svg" viewBox="0 0 24 24"><g id="e"><g><path d="M15,7.25h-6c-.96,0-1.75,.79-1.75,1.75v6c0,.96,.79,1.75,1.75,1.75h6c.96,0,1.75-.79,1.75-1.75v-6c0-.96-.79-1.75-1.75-1.75Zm-4.25,1.5h2.5v1.25c0,.14-.11,.25-.25,.25h-2c-.14,0-.25-.11-.25-.25v-1.25Zm4.5,6.25c0,.14-.11,.25-.25,.25h-6c-.14,0-.25-.11-.25-.25v-6c0-.14,.11-.25,.25-.25h.25v1.25c0,.96,.79,1.75,1.75,1.75h2c.96,0,1.75-.79,1.75-1.75v-1.25h.25c.14,0,.25,.11,.25,.25v6Z"/><path d="M16,2.25H8c-3.17,0-5.75,2.58-5.75,5.75v8c0,3.17,2.58,5.75,5.75,5.75h8c3.17,0,5.75-2.58,5.75-5.75V8c0-3.17-2.58-5.75-5.75-5.75Zm4.25,13.75c0,2.34-1.91,4.25-4.25,4.25H8c-2.34,0-4.25-1.91-4.25-4.25V8c0-2.34,1.91-4.25,4.25-4.25h8c2.34,0,4.25,1.91,4.25,4.25v8Z"/></g></g></svg>