<?xml version="1.0" encoding="UTF-8"?><svg fill="currentColor" xmlns="http://www.w3.org/2000/svg" viewBox="0 0 24 24"><g id="q"><path d="M16,2.25H8c-3.17,0-5.75,2.58-5.75,5.75v8c0,3.17,2.58,5.75,5.75,5.75h8c3.17,0,5.75-2.58,5.75-5.75V8c0-3.17-2.58-5.75-5.75-5.75Zm0,1.5c.9,0,1.73,.29,2.42,.77l-1.84,1.84c-.18-.07-.38-.11-.58-.11H8c-.21,0-.4,.04-.58,.11l-1.84-1.84c.69-.48,1.52-.77,2.42-.77h8Zm.25,7.5H7.75v-3.25c0-.14,.11-.25,.25-.25h8c.14,0,.25,.11,.25,.25v3.25Zm-8.5,1.5h8.5v3.25c0,.14-.11,.25-.25,.25H8c-.14,0-.25-.11-.25-.25v-3.25Zm-4,3.25V8c0-.9,.29-1.73,.77-2.42l1.84,1.84c-.07,.18-.11,.38-.11,.58v8c0,.21,.04,.4,.11,.58l-1.84,1.84c-.48-.69-.77-1.52-.77-2.42Zm4.25,4.25c-.9,0-1.73-.29-2.42-.77l1.84-1.84c.18,.07,.38,.11,.58,.11h8c.21,0,.4-.04,.58-.11l1.84,1.84c-.69,.48-1.52,.77-2.42,.77H8Zm12.25-4.25c0,.9-.29,1.73-.77,2.42l-1.84-1.84c.07-.18,.11-.38,.11-.58V8c0-.21-.04-.4-.11-.58l1.84-1.84c.48,.69,.77,1.52,.77,2.42v8Z"/></g></svg>