<?xml version="1.0" encoding="UTF-8"?><svg fill="currentColor" xmlns="http://www.w3.org/2000/svg" viewBox="0 0 24 24"><g id="n"><g><path d="M3.65,6.66c.11,.06,.23,.09,.35,.09,.27,0,.53-.15,.67-.4,.45-.86,.99-1.41,1.6-1.65,.61-.23,1.18-.13,1.91,0,.84,.15,1.79,.33,3,.02,.81-.2,1.58-.59,2.28-1.14,.33-.26,.38-.73,.13-1.05-.25-.33-.73-.38-1.05-.13-.54,.42-1.11,.71-1.72,.86-.9,.22-1.61,.09-2.37-.04-.84-.15-1.72-.31-2.72,.07-.97,.37-1.77,1.16-2.4,2.35-.19,.37-.05,.82,.32,1.01Z"/><path d="M6.74,8.95c-.02-.39-.34-.7-.74-.7H3c-.41,0-.75,.34-.75,.75v1.25H6.74v-1.3Z"/><path d="M21.42,11.38c-.21-.14-.47-.17-.7-.08l-3.97,1.59v-.89c0-.25-.12-.48-.33-.62s-.47-.17-.7-.08l-3.97,1.59v-.89c0-.25-.12-.48-.33-.62s-.47-.17-.7-.08l-2.48,.99v3.7c0,.41-.34,.75-.75,.75s-.75-.34-.75-.75v-4.25H2.25v9.25c0,.41,.34,.75,.75,.75h5.25v-2.75c0-.96,.79-1.75,1.75-1.75h7c.96,0,1.75,.79,1.75,1.75v2.75h2.25c.41,0,.75-.34,.75-.75V12c0-.25-.12-.48-.33-.62Z"/><path d="M17,18.75h-7c-.14,0-.25,.11-.25,.25v2.75h7.5v-2.75c0-.14-.11-.25-.25-.25Z"/></g></g></svg>