<?xml version="1.0" encoding="UTF-8"?><svg fill="currentColor" xmlns="http://www.w3.org/2000/svg" viewBox="0 0 24 24"><g id="s"><g><path d="M16.75,5c0-.96-.79-1.75-1.75-1.75H5c-.96,0-1.75,.79-1.75,1.75v3.25h13.5v-3.25Z"/><path d="M21.57,9.45l-.62-1.24c-.3-.6-.9-.97-1.57-.97-.41,0-.75,.34-.75,.75s.34,.75,.75,.75c.1,0,.18,.05,.22,.14l.62,1.24s.03,.07,.03,.11v7.26c0,.41-.34,.75-.75,.75s-.75-.34-.75-.75v-3.5c0-.96-.79-1.75-1.75-1.75h-.25v-2.5H3.25v10.5h-.25c-.41,0-.75,.34-.75,.75s.34,.75,.75,.75h14c.41,0,.75-.34,.75-.75s-.34-.75-.75-.75h-.25v-6.5h.25c.14,0,.25,.11,.25,.25v3.5c0,1.24,1.01,2.25,2.25,2.25s2.25-1.01,2.25-2.25v-7.26c0-.27-.06-.54-.18-.78ZM7.47,14.47l3-3c.29-.29,.77-.29,1.06,0s.29,.77,0,1.06l-1.72,1.72h2.19c.3,0,.58,.18,.69,.46s.05,.6-.16,.82l-3,3c-.15,.15-.34,.22-.53,.22s-.38-.07-.53-.22c-.29-.29-.29-.77,0-1.06l1.72-1.72h-2.19c-.3,0-.58-.18-.69-.46s-.05-.6,.16-.82Z"/></g></g></svg>