<?xml version="1.0" encoding="UTF-8"?><svg fill="currentColor" xmlns="http://www.w3.org/2000/svg" viewBox="0 0 24 24"><g id="c"><path d="M19,5.25h-1.25v1.75c0,.41-.34,.75-.75,.75s-.75-.34-.75-.75v-1.75h-3.5v1.75c0,.41-.34,.75-.75,.75s-.75-.34-.75-.75v-1.75h-3.5v1.75c0,.41-.34,.75-.75,.75s-.75-.34-.75-.75v-1.75h-1.25c-1.52,0-2.75,1.23-2.75,2.75v9c0,1.52,1.23,2.75,2.75,2.75h14c1.52,0,2.75-1.23,2.75-2.75V8c0-1.52-1.23-2.75-2.75-2.75Zm-8.2,10.91c-.11,.31-.4,.5-.71,.5-.08,0-.17-.01-.25-.04-.67-.23-1.19-.78-1.4-1.47-.21-.69-.08-1.42,.35-2l.45-.6c.25-.33,.72-.4,1.05-.15,.33,.25,.4,.72,.15,1.05l-.45,.6c-.2,.27-.16,.53-.12,.67,.07,.23,.24,.42,.46,.49,.39,.14,.6,.56,.46,.96Zm-.06-4.65c-.19-.37-.05-.82,.32-1.01,.98-.51,2.17-.23,2.83,.65l.8,1.07c.25,.33,.18,.8-.15,1.05-.13,.1-.29,.15-.45,.15-.23,0-.45-.1-.6-.3l-.8-1.07c-.25-.33-.66-.36-.94-.22-.37,.19-.82,.05-1.01-.32Zm4.97,3.74c-.32,.91-1.16,1.5-2.12,1.5h-1.24c-.41,0-.75-.34-.75-.75s.34-.75,.75-.75h1.24c.39,0,.62-.26,.71-.5,.14-.39,.57-.6,.96-.45,.39,.14,.59,.57,.45,.96Z"/></g></svg>