<?xml version="1.0" encoding="UTF-8"?><svg fill="currentColor" xmlns="http://www.w3.org/2000/svg" viewBox="0 0 24 24"><g id="h"><g><path d="M20.75,15.15v-3.65c0-1.24-1.01-2.25-2.25-2.25s-2.25,1.01-2.25,2.25v3.66c-.63,.61-1,1.46-1,2.34,0,1.02,.46,1.96,1.27,2.58,.57,.44,1.27,.67,1.98,.67,.29,0,.58-.04,.88-.12,1.07-.28,1.95-1.15,2.24-2.21,.34-1.2,0-2.44-.87-3.27Z"/><path d="M5.72,14.3c.38-.16,.71-.27,.97-.36s.57-.2,.64-.26c.06-.17-.21-.81-.64-1-.13-.06-.22-.05-.55,0-.29,.05-.7,.12-1.22,.06-.67-.08-1.31-.34-1.91-.77l-.72-.57c-.01,.2-.03,.4-.03,.6,0,1.35,.32,2.62,.86,3.76l.84-.6c.62-.35,1.18-.62,1.76-.86Z"/><path d="M7.54,7.48c.68,.7,1.74,1.09,2.06,.89,.07-.04,.1-.19,.15-.48,.08-.43,.19-1.08,.83-1.51,.72-.48,1.5-.28,2.07-.12,.47,.13,.78,.2,1,.08,.28-.15,.44-.59,.52-.94l.27-1.44c-1.06-.45-2.22-.71-3.44-.71-1.61,0-3.12,.45-4.42,1.21l.17,1.45c.07,.39,.27,1.03,.79,1.56Z"/><path d="M14.26,12.3c-.05,.54-.12,1.28-.62,2.09-.72,1.19-1.8,1.64-2.66,2-.72,.3-1.13,.49-1.27,.87-.21,.58,.27,1.43,.7,2.04l1.05,1.43c1.07-.06,2.08-.29,3.02-.7-.47-.75-.73-1.61-.73-2.53,0-1.05,.36-2.08,1-2.91v-3.07c-.17,.01-.27,.06-.31,.09-.11,.08-.13,.21-.18,.69Z"/><path d="M18.5,7.75c.05,0,.1,.01,.15,.02-.68-1.23-1.66-2.27-2.83-3.04l-.18,.98c-.23,.98-.66,1.63-1.29,1.96-.76,.4-1.52,.19-2.08,.04-.43-.12-.71-.18-.85-.08-.09,.06-.12,.18-.19,.53-.08,.43-.19,1.08-.83,1.49-.31,.2-.67,.28-1.03,.28-1.06,0-2.24-.71-2.91-1.39-.78-.8-1.08-1.74-1.2-2.39l-.07-.65c-1.25,1.11-2.17,2.58-2.62,4.24l1.34,1.06c.37,.26,.77,.43,1.18,.48,.31,.04,.54,0,.79-.05,.38-.07,.87-.15,1.43,.11,1.11,.51,1.8,1.99,1.38,2.97-.27,.64-.82,.83-1.51,1.07-.25,.09-.54,.19-.9,.33-.52,.21-1.03,.46-1.52,.73l-.89,.63c1.31,1.84,3.32,3.16,5.64,3.55l-.32-.44c-.94-1.32-1.25-2.47-.9-3.43,.37-1.02,1.29-1.4,2.1-1.74,.77-.32,1.49-.62,1.96-1.39,.31-.52,.36-.99,.4-1.45,.05-.57,.12-1.28,.8-1.77,.4-.29,.9-.41,1.49-.36,.57-1.34,1.9-2.28,3.45-2.28Z"/></g></g></svg>