<?xml version="1.0" encoding="UTF-8"?><svg fill="currentColor" xmlns="http://www.w3.org/2000/svg" viewBox="0 0 24 24"><g id="p"><g><path d="M17.38,13.25l-1.88-2.5c-.7-.94-1.83-1.5-3-1.5h-.75v3.75c0,.14,.11,.25,.25,.25h5.38Z"/><path d="M12,14.75c-.96,0-1.75-.79-1.75-1.75v-3.75h-1.5v3.75c0,.96-.79,1.75-1.75,1.75H2.25v3.25c0,.96,.79,1.75,1.75,1.75h.37c.33,1.15,1.38,2,2.63,2s2.3-.85,2.63-2h3.73c.33,1.15,1.38,2,2.63,2s2.3-.85,2.63-2h1.37c.96,0,1.75-.79,1.75-1.75v-1c0-.85-.29-1.62-.77-2.25H12Zm-5,5.5c-.4,0-.74-.2-.97-.5h1.95c-.23,.3-.57,.5-.97,.5Zm9,0c-.4,0-.74-.2-.97-.5h1.95c-.23,.3-.57,.5-.97,.5Z"/><path d="M21,5.25h-1.25v-.5h1.25c.41,0,.75-.34,.75-.75s-.34-.75-.75-.75h-1.25v-.25c0-.41-.34-.75-.75-.75h-2c-1.25,0-2.3,.85-2.63,2H6c-2.07,0-3.75,1.68-3.75,3.75v5.25H7c.14,0,.25-.11,.25-.25v-3.75H3.75v-1.25c0-1.24,1.01-2.25,2.25-2.25H14.37c.33,1.15,1.38,2,2.63,2h2c.41,0,.75-.34,.75-.75v-.25h1.25c.41,0,.75-.34,.75-.75s-.34-.75-.75-.75Z"/></g></g></svg>