<?xml version="1.0" encoding="UTF-8"?><svg fill="currentColor" xmlns="http://www.w3.org/2000/svg" viewBox="0 0 24 24"><g id="f"><g><path d="M10.15,18.65c.15,.07,.31,.1,.47,.1,.36,0,.7-.16,.93-.46l4.57-5.87c.28-.36,.33-.84,.13-1.25-.2-.41-.61-.67-1.07-.67h-1.57l1.23-3.69c.12-.36,.06-.76-.16-1.07s-.58-.49-.96-.49h-2.59c-.49,0-.94,.31-1.11,.77l-2.3,6.13c-.14,.37-.09,.77,.14,1.09,.22,.32,.59,.51,.98,.51h1.13l-.52,3.64c-.08,.54,.21,1.05,.71,1.26Z"/><path d="M21.69,10.92c-.05-.41-.42-.72-.83-.66-.41,.04-.71,.42-.66,.83,.03,.3,.05,.61,.05,.92,0,4.55-3.7,8.25-8.25,8.25-2.72,0-5.21-1.32-6.75-3.5h1.75c.41,0,.75-.34,.75-.75s-.34-.75-.75-.75h-3c-.41,0-.75,.34-.75,.75v3c0,.41,.34,.75,.75,.75s.75-.34,.75-.75v-.49c1.82,2.04,4.43,3.24,7.25,3.24,5.38,0,9.75-4.37,9.75-9.75,0-.37-.02-.73-.06-1.08Z"/><path d="M3.75,12C3.75,7.45,7.45,3.75,12,3.75c2.25,0,4.36,.92,5.9,2.5h-.9c-.41,0-.75,.34-.75,.75s.34,.75,.75,.75h3c.41,0,.75-.34,.75-.75v-3c0-.41-.34-.75-.75-.75s-.75,.34-.75,.75v1.49c-1.84-2.05-4.46-3.24-7.25-3.24C6.62,2.25,2.25,6.62,2.25,12c0,.41,.34,.75,.75,.75s.75-.34,.75-.75Z"/></g></g></svg>