<?xml version="1.0" encoding="UTF-8"?><svg fill="currentColor" xmlns="http://www.w3.org/2000/svg" viewBox="0 0 24 24"><g id="e"><g><path d="M12.13,2.25c-2.11-.05-4.07,.76-5.56,2.22-1.49,1.47-2.31,3.43-2.31,5.52,0,2.74,1.47,5.31,3.84,6.69,.04,.02,.16,.1,.16,.23v.32h3v-2.75c-1.28-.34-2.14-1.61-2-3.04,.12-1.16,.5-2.19,1.15-3.05,.23-.31,.49-.59,.79-.85,.47-.41,1.16-.41,1.63,0h0c.29,.26,.56,.55,.79,.86,.65,.86,1.03,1.88,1.15,3.04,.08,.77-.16,1.56-.64,2.15-.36,.44-.83,.74-1.36,.9v2.75h3v-.32c0-.09,.06-.18,.16-.23,2.47-1.45,3.94-4.12,3.83-6.98-.15-4.05-3.57-7.39-7.62-7.46Z"/><path d="M12.95,12.65c.24-.29,.35-.67,.31-1.05-.09-.88-.38-1.65-.86-2.29-.12-.16-.25-.31-.4-.46-.14,.14-.28,.3-.4,.46-.48,.64-.77,1.42-.86,2.3-.05,.5,.17,.97,.51,1.24v-1c0-.41,.34-.75,.75-.75s.75,.34,.75,.75v.96c.07-.05,.14-.1,.2-.16Z"/><path d="M8.25,19c0,1.52,1.23,2.75,2.75,2.75h2c1.52,0,2.75-1.23,2.75-2.75v-.25h-7.5v.25Z"/></g></g></svg>