<?xml version="1.0" encoding="UTF-8"?><svg fill="currentColor" xmlns="http://www.w3.org/2000/svg" viewBox="0 0 24 24"><g id="t"><g><circle cx="12" cy="16" r="5.75"/><path d="M20.5,12.25h-1.5c-.26,0-.5,.05-.74,.11,.62,1.07,.99,2.31,.99,3.64s-.36,2.57-.99,3.64c.24,.07,.48,.11,.74,.11h1.5c.69,0,1.25-.56,1.25-1.25v-5c0-.69-.56-1.25-1.25-1.25Z"/><path d="M5,12.25h-1.5c-.69,0-1.25,.56-1.25,1.25v5c0,.69,.56,1.25,1.25,1.25h1.5c.26,0,.5-.05,.74-.11-.62-1.07-.99-2.31-.99-3.64s.36-2.57,.99-3.64c-.24-.07-.48-.11-.74-.11Z"/><path d="M15.27,9.54l-.15-.73c-.3-1.49-1.61-2.56-3.13-2.56s-2.83,1.08-3.13,2.56l-.15,.73c.98-.5,2.09-.79,3.27-.79s2.29,.29,3.27,.79Z"/><path d="M20.75,7v-2c0-.96-.79-1.75-1.75-1.75H5c-.96,0-1.75,.79-1.75,1.75v2c0,1.52,1.23,2.75,2.75,2.75h1.16l.25-1.23c.44-2.18,2.37-3.77,4.6-3.77s4.16,1.59,4.6,3.77l.25,1.23h1.16c1.52,0,2.75-1.23,2.75-2.75Z"/></g></g></svg>