<?xml version="1.0" encoding="UTF-8"?><svg fill="currentColor" xmlns="http://www.w3.org/2000/svg" viewBox="0 0 24 24"><g id="b"><g><path d="M19.84,8.83c-.05-.33-.3-.59-.63-.64-.54-.08-1.09-.08-1.63,0-.67,.1-1.31,.31-1.92,.65-.69,.38-1.18,1.03-1.35,1.79-.12,.52-.07,1.05,.13,1.52l1.69-1.32c.33-.25,.8-.19,1.05,.13,.25,.33,.19,.8-.13,1.05l-1.65,1.28c.43,.29,.92,.45,1.44,.45,.15,0,.3-.01,.45-.04,.83-.14,1.53-.64,1.92-1.38,.32-.59,.53-1.22,.62-1.87,.08-.54,.08-1.08,0-1.63Z"/><path d="M12.75,13.47v-3.79c1.71-.35,3-1.86,3-3.67v-1c0-.41-.34-.75-.75-.75h-.25v-1.25c0-.41-.34-.75-.75-.75s-.75,.34-.75,.75v1.25h-2.5v-1.25c0-.41-.34-.75-.75-.75s-.75,.34-.75,.75v1.25h-.25c-.41,0-.75,.34-.75,.75v1c0,1.81,1.29,3.33,3,3.67v3.79l-1.7-1.33c.17-.43,.24-.89,.17-1.37-.13-.82-.61-1.52-1.33-1.91-.62-.34-1.27-.56-1.94-.66-.54-.08-1.09-.08-1.63,0-.33,.05-.59,.31-.63,.64-.08,.55-.08,1.09,0,1.63,.09,.62,.29,1.23,.59,1.8,.39,.76,1.12,1.3,1.96,1.44,.15,.03,.31,.04,.46,.04,.51,0,1-.16,1.43-.44l-1.67-1.31c-.33-.25-.38-.73-.13-1.05,.25-.33,.72-.39,1.05-.13l1.69,1.32-.94,1.17,2.49,1.94H7c-.41,0-.75,.34-.75,.75s.34,.75,.75,.75h.39l.88,4.4c.07,.35,.38,.6,.74,.6h6c.36,0,.67-.25,.74-.6l.88-4.4h.39c.41,0,.75-.34,.75-.75s-.34-.75-.75-.75h-4.1l2.51-1.95-.96-1.15-1.7,1.32Z"/></g></g></svg>