<?xml version="1.0" encoding="UTF-8"?><svg fill="currentColor" xmlns="http://www.w3.org/2000/svg" viewBox="0 0 24 24"><g id="k"><g><path d="M6.63,5.67c.31,.96,1.15,1.75,2.14,2,.21,.05,.43,.08,.64,.08,.57,0,1.1-.21,1.55-.63,0,0,.06-.07,.07-.08,.51-.56,.67-1.34,.46-2.14-.26-.98-1.02-1.78-1.98-2.1-.24-.08-.5-.15-.77-.21-.58-.13-1.17-.18-1.74-.16-.4,.01-.71,.33-.73,.73-.02,.58,.04,1.16,.16,1.74,.06,.27,.13,.53,.21,.77Z"/><path d="M12.94,7.19c.4,.37,.91,.56,1.47,.56,.21,0,.43-.03,.65-.08,.98-.25,1.82-1.04,2.14-2,.08-.24,.15-.5,.21-.77,.13-.58,.18-1.17,.16-1.74-.01-.4-.33-.71-.73-.73-.58-.02-1.16,.04-1.74,.16-.27,.06-.53,.13-.78,.21-.96,.32-1.72,1.12-1.98,2.1-.21,.8-.05,1.58,.46,2.14l.14,.14Z"/><path d="M15,9.75c.41,0,.75-.34,.75-.75s-.34-.75-.75-.75h-6c-.41,0-.75,.34-.75,.75s.34,.75,.75,.75h.25v3.14c0,.49-.17,.97-.47,1.36h6.43c-.3-.39-.47-.87-.47-1.36v-3.14h.25Z"/><path d="M17.74,17.21l-1.25-1.46H7.51l-1.25,1.46c-.71,.83-.86,1.95-.41,2.94s1.41,1.6,2.5,1.6h7.3c1.09,0,2.04-.61,2.5-1.6s.3-2.11-.41-2.94Z"/></g></g></svg>