<?xml version="1.0" encoding="UTF-8"?><svg fill="currentColor" xmlns="http://www.w3.org/2000/svg" viewBox="0 0 24 24"><g id="r"><g><path d="M21.1,10.95c-.21-.43-.64-.7-1.12-.7h-1.94l1.45-4.35c.13-.38,.06-.8-.17-1.13-.23-.33-.61-.52-1.01-.52h-2.96c-.52,0-.99,.33-1.17,.81l-2.63,7c-.14,.38-.09,.81,.14,1.15s.62,.54,1.03,.54h1.41l-.61,4.28c-.08,.57,.22,1.1,.75,1.33,.16,.07,.33,.1,.5,.1,.37,0,.73-.17,.98-.49l5.22-6.71c.3-.38,.35-.88,.14-1.32Z"/><path d="M12,4.75c.41,0,.75-.34,.75-.75v-1c0-.41-.34-.75-.75-.75s-.75,.34-.75,.75v1c0,.41,.34,.75,.75,.75Z"/><path d="M12,19.25c-.41,0-.75,.34-.75,.75v1c0,.41,.34,.75,.75,.75s.75-.34,.75-.75v-1c0-.41-.34-.75-.75-.75Z"/><path d="M4,11.25h-1c-.41,0-.75,.34-.75,.75s.34,.75,.75,.75h1c.41,0,.75-.34,.75-.75s-.34-.75-.75-.75Z"/><path d="M5.47,6.53c.15,.15,.34,.22,.53,.22s.38-.07,.53-.22c.29-.29,.29-.77,0-1.06l-.71-.71c-.29-.29-.77-.29-1.06,0s-.29,.77,0,1.06l.71,.71Z"/><path d="M5.47,17.47l-.71,.71c-.29,.29-.29,.77,0,1.06,.15,.15,.34,.22,.53,.22s.38-.07,.53-.22l.71-.71c.29-.29,.29-.77,0-1.06s-.77-.29-1.06,0Z"/><path d="M12.06,18.75c-.06-.3-.07-.61-.02-.93l.37-2.58c-.78-.09-1.49-.51-1.95-1.16-.51-.74-.63-1.68-.32-2.53l2.35-6.26c-.16-.01-.33-.03-.49-.03-3.72,0-6.75,3.03-6.75,6.75s3.03,6.75,6.75,6.75c.02,0,.04,0,.06,0Z"/></g></g></svg>