<?xml version="1.0" encoding="UTF-8"?><svg fill="currentColor" xmlns="http://www.w3.org/2000/svg" viewBox="0 0 24 24"><g id="u"><g><path d="M7.65,8.66c.45,.24,.92,.44,1.4,.6,.94,.31,1.92,.47,2.93,.47,.58,0,1.17-.05,1.77-.16h.01c.91-.18,1.78-.49,2.59-.92,.23-.12,.38-.36,.4-.63,.01-.26-.12-.52-.34-.66-1.13-.74-2.07-1.68-2.78-2.78-.37-.58-.69-1.2-.93-1.85-.11-.29-.39-.49-.7-.49s-.6,.2-.7,.49c-.24,.65-.55,1.27-.93,1.85-.72,1.1-1.65,2.04-2.78,2.78-.22,.15-.35,.4-.34,.66,.01,.26,.16,.5,.4,.63Z"/><path d="M18.38,15.02c-.43-.25-.84-.53-1.23-.81-.74,.31-1.51,.57-2.3,.74-.99,.2-1.95,.29-2.88,.29-1.35,0-2.68-.2-3.96-.59-.39-.12-.78-.27-1.17-.43-.39,.28-.79,.55-1.21,.8-.24,.14-.38,.4-.37,.68,.01,.28,.18,.53,.43,.65,1.23,.58,3.15,1.26,5.57,1.38v3.28c0,.41,.34,.75,.75,.75s.75-.34,.75-.75v-3.27c1.49-.08,3.49-.4,5.57-1.38,.25-.12,.42-.37,.43-.65,.01-.28-.13-.54-.37-.68Z"/><path d="M6.67,12.51c.58,.29,1.17,.52,1.78,.71,1.14,.35,2.31,.52,3.52,.52,.84,0,1.69-.09,2.56-.26h.01c.97-.21,1.92-.54,2.8-.98,.24-.12,.4-.37,.42-.64,.01-.27-.13-.53-.36-.67-.41-.25-.79-.53-1.16-.82-.7,.3-1.43,.53-2.18,.67l-.1,.02c-.7,.12-1.34,.17-1.97,.17-1.17,0-2.31-.19-3.41-.55-.27-.09-.54-.19-.81-.31-.37,.29-.75,.56-1.16,.81-.23,.14-.37,.4-.36,.67,.01,.27,.17,.52,.42,.64Z"/></g></g></svg>