<?xml version="1.0" encoding="UTF-8"?><svg fill="currentColor" xmlns="http://www.w3.org/2000/svg" viewBox="0 0 24 24"><g id="l"><g><path d="M7.49,7.69c-1.04,.43-1.96,1.04-2.75,1.84-.09,.09-.17,.2-.25,.3,0,0,.01,.02,.02,.03,.13,.13,.26,.25,.41,.36,.6,.46,1.32,.7,2.08,.7,.2,0,.41-.02,.62-.05,1.04-.18,1.96-.78,2.54-1.65,.5-.76,.92-1.58,1.25-2.44,.38-1.01,.62-2.07,.71-3.15h0c.03-.38-.1-.74-.36-1-.26-.26-.63-.39-1-.36-1.08,.1-2.14,.34-3.15,.71-.86,.32-1.68,.74-2.44,1.24-.88,.58-1.48,1.51-1.65,2.54-.1,.6-.04,1.19,.15,1.73h0c.95-.95,2.04-1.68,3.26-2.18,.38-.16,.82,.02,.98,.41,.16,.38-.02,.82-.41,.98Z"/><path d="M3.09,14.69l.42,.64c.95,1.42,2.52,2.21,4.14,2.21,.75,0,1.5-.17,2.21-.52l.68-.34c.37-.19,.52-.64,.34-1.01-.19-.37-.64-.52-1.01-.34l-.68,.34c-1.56,.78-3.46,.27-4.43-1.18l-.42-.64c-.84-1.25-.77-2.88,.13-4.03l-.82-1.34c-1.63,1.64-1.87,4.25-.56,6.2Z"/><path d="M20.35,15.51c-.95,.95-2.04,1.68-3.26,2.18-.09,.04-.19,.06-.29,.06-.29,0-.57-.17-.69-.46-.16-.38,.02-.82,.41-.98,1.04-.43,1.96-1.04,2.75-1.84,.09-.09,.17-.2,.25-.3,0,0-.01-.02-.02-.03-.13-.13-.26-.25-.41-.36-.76-.58-1.72-.81-2.7-.64-1.04,.18-1.96,.78-2.54,1.65-.5,.76-.92,1.58-1.25,2.44-.38,1.01-.62,2.07-.71,3.15h0c-.03,.38,.1,.74,.36,1,.24,.23,.55,.36,.88,.36,.04,0,.08,0,.11,0,1.08-.1,2.14-.34,3.15-.71,.86-.32,1.68-.74,2.44-1.24,.88-.58,1.48-1.51,1.65-2.54,.1-.6,.04-1.19-.15-1.73h0Z"/><path d="M20.91,9.31l-.42-.64c-1.39-2.08-4.11-2.8-6.35-1.69l-.68,.34c-.37,.19-.52,.64-.34,1.01,.19,.37,.63,.52,1.01,.34l.68-.34c1.56-.78,3.46-.27,4.43,1.18l.42,.64c.84,1.25,.77,2.88-.13,4.03l.82,1.34c1.63-1.64,1.87-4.25,.56-6.2Z"/></g></g></svg>