<?xml version="1.0" encoding="UTF-8"?><svg fill="currentColor" xmlns="http://www.w3.org/2000/svg" viewBox="0 0 24 24"><g id="d"><g><path d="M8,14.75h7c1.52,0,2.75-1.23,2.75-2.75,0-.57-.17-1.1-.47-1.54,.16-.1,.32-.21,.48-.34,.43-.37,.7-.8,.87-1.18,.21,.06,.43,.1,.65,.1s.47-.03,.7-.11c.82-.25,1.43-.89,1.63-1.72,.05-.22,.1-.46,.13-.71,.07-.53,.07-1.06,0-1.6-.04-.34-.31-.61-.65-.65-.54-.07-1.07-.07-1.6,0-.25,.03-.48,.08-.7,.13-.83,.2-1.49,.83-1.74,1.66-.2,.67-.08,1.36,.32,1.96-.07,.28-.23,.67-.6,.99-.3,.26-.63,.37-.89,.42-.28-.1-.58-.16-.89-.16h-7c-1.52,0-2.75,1.23-2.75,2.75s1.23,2.75,2.75,2.75Z"/><path d="M19.5,18.25h-1.5c-.14,0-.25-.11-.25-.25v-2.79c-.74,.64-1.7,1.04-2.75,1.04h-3.3c-.1,.29-.37,.5-.7,.5s-.6-.21-.7-.5h-.55v.75c0,.41-.34,.75-.75,.75s-.75-.34-.75-.75v-.75h-.25c-1.05,0-2.01-.4-2.75-1.04v2.79c0,.14-.11,.25-.25,.25h-.5c-1.24,0-2.25,1.01-2.25,2.25,0,.69,.56,1.25,1.25,1.25H12.25v-2.75c0-.41,.34-.75,.75-.75s.75,.34,.75,.75v2.75h.5v-3.75c0-.41,.34-.75,.75-.75s.75,.34,.75,.75v3.75h4.75c.69,0,1.25-.56,1.25-1.25,0-1.24-1.01-2.25-2.25-2.25Z"/></g></g></svg>