<?xml version="1.0" encoding="UTF-8"?><svg fill="currentColor" xmlns="http://www.w3.org/2000/svg" viewBox="0 0 24 24"><g id="r"><g><path d="M20.65,15.38l-1.46-8.05c-.33-1.78-1.88-3.08-3.69-3.08h-6.99c-1.81,0-3.37,1.29-3.69,3.08l-1.46,8.05c-.64,.26-1.1,.89-1.1,1.62v1c0,.96,.79,1.75,1.75,1.75H20c.96,0,1.75-.79,1.75-1.75v-1c0-.73-.46-1.36-1.1-1.62ZM6.29,7.6c.19-1.07,1.13-1.85,2.21-1.85h6.99c1.09,0,2.02,.78,2.21,1.85l1.39,7.65H4.9l1.39-7.65Zm13.96,10.4c0,.14-.11,.25-.25,.25H4c-.14,0-.25-.11-.25-.25v-1c0-.14,.11-.25,.25-.25H20c.14,0,.25,.11,.25,.25v1Z"/><path d="M12,8.25c-.41,0-.75,.34-.75,.75v3c0,.41,.34,.75,.75,.75s.75-.34,.75-.75v-3c0-.41-.34-.75-.75-.75Z"/></g></g></svg>