<?xml version="1.0" encoding="UTF-8"?><svg fill="currentColor" xmlns="http://www.w3.org/2000/svg" viewBox="0 0 24 24"><g id="h"><g><path d="M18,2.25H6c-2.07,0-3.75,1.68-3.75,3.75v12c0,2.07,1.68,3.75,3.75,3.75h12c2.07,0,3.75-1.68,3.75-3.75V6c0-2.07-1.68-3.75-3.75-3.75ZM6,3.75h12c.98,0,1.82,.64,2.12,1.52-.04,0-.08-.02-.12-.02H4s-.08,.02-.12,.02c.3-.88,1.13-1.52,2.12-1.52Zm12,16.5H6c-1.24,0-2.25-1.01-2.25-2.25V6.7c.08,.03,.16,.05,.25,.05H20c.09,0,.17-.02,.25-.05v11.3c0,1.24-1.01,2.25-2.25,2.25Z"/><path d="M7.5,14.25c-1.24,0-2.25,1.01-2.25,2.25s1.01,2.25,2.25,2.25,2.25-1.01,2.25-2.25-1.01-2.25-2.25-2.25Zm0,3c-.41,0-.75-.34-.75-.75s.34-.75,.75-.75,.75,.34,.75,.75-.34,.75-.75,.75Z"/><path d="M16.5,14.25c-1.24,0-2.25,1.01-2.25,2.25s1.01,2.25,2.25,2.25,2.25-1.01,2.25-2.25-1.01-2.25-2.25-2.25Zm0,3c-.41,0-.75-.34-.75-.75s.34-.75,.75-.75,.75,.34,.75,.75-.34,.75-.75,.75Z"/><path d="M12,8.25c-1.24,0-2.25,1.01-2.25,2.25s1.01,2.25,2.25,2.25,2.25-1.01,2.25-2.25-1.01-2.25-2.25-2.25Zm0,3c-.41,0-.75-.34-.75-.75s.34-.75,.75-.75,.75,.34,.75,.75-.34,.75-.75,.75Z"/><path d="M12,14.25c-.41,0-.75,.34-.75,.75v3c0,.41,.34,.75,.75,.75s.75-.34,.75-.75v-3c0-.41-.34-.75-.75-.75Z"/><path d="M17,12.75c.41,0,.75-.34,.75-.75v-3c0-.41-.34-.75-.75-.75s-.75,.34-.75,.75v3c0,.41,.34,.75,.75,.75Z"/><path d="M7,12.75c.41,0,.75-.34,.75-.75v-3c0-.41-.34-.75-.75-.75s-.75,.34-.75,.75v3c0,.41,.34,.75,.75,.75Z"/></g></g></svg>