<?xml version="1.0" encoding="UTF-8"?><svg fill="currentColor" xmlns="http://www.w3.org/2000/svg" viewBox="0 0 24 24"><g id="e"><g><path d="M17,6.25h-.5c-.41,0-.75-.34-.75-.75,0-1.24-1.01-2.25-2.25-2.25h-3c-1.24,0-2.25,1.01-2.25,2.25v.75h-2.25c-.96,0-1.75,.79-1.75,1.75v2.22c-1.26,1.25-2,2.96-2,4.78,0,3.72,3.03,6.75,6.75,6.75s6.75-3.03,6.75-6.75c0-1.82-.74-3.52-2-4.78v-2.22c0-.96-.79-1.75-1.75-1.75h-2.25v-.75c0-.41,.34-.75,.75-.75h3c.41,0,.75,.34,.75,.75,0,1.24,1.01,2.25,2.25,2.25h.5c.41,0,.75-.34,.75-.75s-.34-.75-.75-.75Zm-2.75,8.75c0,2.89-2.35,5.25-5.25,5.25s-5.25-2.36-5.25-5.25c0-1.69,.82-3.26,2.18-4.25h6.13c1.37,.99,2.18,2.56,2.18,4.25Zm-2-7v1.25H5.75v-1.25c0-.14,.11-.25,.25-.25h6c.14,0,.25,.11,.25,.25Z"/><path d="M21,6.25h-1c-.41,0-.75,.34-.75,.75s.34,.75,.75,.75h1c.41,0,.75-.34,.75-.75s-.34-.75-.75-.75Z"/><path d="M19,5.75c.19,0,.38-.07,.53-.22l.71-.71c.29-.29,.29-.77,0-1.06s-.77-.29-1.06,0l-.71,.71c-.29,.29-.29,.77,0,1.06,.15,.15,.34,.22,.53,.22Z"/><path d="M19.53,8.47c-.29-.29-.77-.29-1.06,0s-.29,.77,0,1.06l.71,.71c.15,.15,.34,.22,.53,.22s.38-.07,.53-.22c.29-.29,.29-.77,0-1.06l-.71-.71Z"/></g></g></svg>