<?xml version="1.0" encoding="UTF-8"?><svg fill="currentColor" xmlns="http://www.w3.org/2000/svg" viewBox="0 0 24 24"><g id="s"><path d="M21.31,11.45c-.17-.44-.5-.78-.92-.97l-1.3-.58c0-.2-.04-.39-.11-.58-.17-.44-.5-.78-.93-.97l-8.23-3.64c-.43-.19-.9-.2-1.34-.03-.44,.17-.78,.5-.97,.92l-1.62,3.66c-.19,.43-.2,.9-.03,1.34,.17,.44,.5,.78,.92,.97l3.29,1.45-1.11,1.66c-.23,.35-.62,.56-1.04,.56H3.75v-6.25c0-.41-.34-.75-.75-.75s-.75,.34-.75,.75v10c0,.41,.34,.75,.75,.75s.75-.34,.75-.75v-2.25H7.93c.92,0,1.78-.46,2.29-1.22l1.25-1.88,3.55,1.57c.23,.1,.47,.15,.7,.15,.42,0,.81-.16,1.13-.43l1.32,.58c.23,.1,.47,.15,.71,.15,.21,0,.43-.04,.63-.12,.44-.17,.78-.5,.97-.92l.81-1.83c.19-.43,.2-.9,.03-1.34Zm-5.69,2.39l-8.23-3.64c-.08-.04-.12-.1-.13-.14-.01-.04-.03-.11,0-.19l1.62-3.66c.04-.08,.1-.12,.14-.13,.02,0,.05-.02,.09-.02,.03,0,.06,0,.1,.02l8.23,3.64c.08,.04,.12,.1,.13,.14,.01,.04,.03,.11,0,.19l-1.62,3.66h0c-.06,.13-.2,.18-.33,.13Zm4.29-1.66l-.81,1.83c-.04,.08-.1,.12-.14,.13-.04,.01-.11,.03-.19,0l-1.14-.51,1.01-2.29,1.14,.51c.08,.04,.12,.1,.13,.14,.01,.04,.03,.11,0,.19Z"/></g></svg>