<?xml version="1.0" encoding="UTF-8"?><svg fill="currentColor" xmlns="http://www.w3.org/2000/svg" viewBox="0 0 24 24"><g id="t"><g><path d="M3,9.75c.41,0,.75-.34,.75-.75v-2c0-1.79,1.46-3.25,3.25-3.25h2c.41,0,.75-.34,.75-.75s-.34-.75-.75-.75h-2c-2.62,0-4.75,2.13-4.75,4.75v2c0,.41,.34,.75,.75,.75Z"/><path d="M9,20.25h-2c-1.79,0-3.25-1.46-3.25-3.25v-2c0-.41-.34-.75-.75-.75s-.75,.34-.75,.75v2c0,2.62,2.13,4.75,4.75,4.75h2c.41,0,.75-.34,.75-.75s-.34-.75-.75-.75Z"/><path d="M21,14.25c-.41,0-.75,.34-.75,.75v2c0,1.79-1.46,3.25-3.25,3.25h-2c-.41,0-.75,.34-.75,.75s.34,.75,.75,.75h2c2.62,0,4.75-2.13,4.75-4.75v-2c0-.41-.34-.75-.75-.75Z"/><path d="M17,2.25h-2c-.41,0-.75,.34-.75,.75s.34,.75,.75,.75h2c1.79,0,3.25,1.46,3.25,3.25v2c0,.41,.34,.75,.75,.75s.75-.34,.75-.75v-2c0-2.62-2.13-4.75-4.75-4.75Z"/><path d="M17,17.75c.41,0,.75-.34,.75-.75v-6c0-3.17-2.58-5.75-5.75-5.75-1.83,0-3.5,.84-4.6,2.3-.25,.33-.18,.8,.15,1.05,.33,.25,.8,.18,1.05-.15,.81-1.08,2.05-1.7,3.4-1.7,2.34,0,4.25,1.91,4.25,4.25v6c0,.41,.34,.75,.75,.75Z"/><path d="M7,10.25c-.41,0-.75,.34-.75,.75v6c0,.41,.34,.75,.75,.75s.75-.34,.75-.75v-6c0-.41-.34-.75-.75-.75Z"/><path d="M14.25,13v3c0,.41,.34,.75,.75,.75s.75-.34,.75-.75v-3c0-.41-.34-.75-.75-.75s-.75,.34-.75,.75Z"/><path d="M14.5,9.21c-.69-.62-1.58-.96-2.5-.96-2.07,0-3.75,1.68-3.75,3.75v4c0,.41,.34,.75,.75,.75s.75-.34,.75-.75v-4c0-1.24,1.01-2.25,2.25-2.25,.55,0,1.09,.2,1.5,.57,.31,.28,.78,.25,1.06-.06,.28-.31,.25-.78-.06-1.06Z"/><path d="M12,16.25c-.41,0-.75,.34-.75,.75v1c0,.41,.34,.75,.75,.75s.75-.34,.75-.75v-1c0-.41-.34-.75-.75-.75Z"/><path d="M12,11.25c-.41,0-.75,.34-.75,.75v2c0,.41,.34,.75,.75,.75s.75-.34,.75-.75v-2c0-.41-.34-.75-.75-.75Z"/></g></g></svg>