<?xml version="1.0" encoding="UTF-8"?><svg fill="currentColor" xmlns="http://www.w3.org/2000/svg" viewBox="0 0 24 24"><g id="n"><path d="M19,3.25H5c-1.52,0-2.75,1.23-2.75,2.75v12c0,1.52,1.23,2.75,2.75,2.75h14c1.52,0,2.75-1.23,2.75-2.75V6c0-1.52-1.23-2.75-2.75-2.75Zm-7.75,5.5v2.5H6.75v-2.5h4.5Zm9,0v2.5h-1.5v-2.5h1.5Zm-3,2.5h-4.5v-2.5h4.5v2.5Zm-7.5,4v-2.5h4.5v2.5h-4.5Zm0-8v-2.5h4.5v2.5h-4.5Zm-4.5,4h-1.5v-2.5h1.5v2.5Zm-1.5,1.5h4.5v2.5H3.75v-2.5Zm7.5,4v2.5H6.75v-2.5h4.5Zm1.5,0h4.5v2.5h-4.5v-2.5Zm3-1.5v-2.5h4.5v2.5h-4.5Zm4.5-9.25v1.25h-4.5v-2.5h3.25c.69,0,1.25,.56,1.25,1.25Zm-15.25-1.25h3.25v2.5H3.75v-1.25c0-.69,.56-1.25,1.25-1.25Zm-1.25,13.25v-1.25h1.5v2.5h-.25c-.69,0-1.25-.56-1.25-1.25Zm15.25,1.25h-.25v-2.5h1.5v1.25c0,.69-.56,1.25-1.25,1.25Z"/></g></svg>