<?xml version="1.0" encoding="UTF-8"?><svg fill="currentColor" xmlns="http://www.w3.org/2000/svg" viewBox="0 0 24 24"><g id="b"><g><path d="M9,17.25H5c-.41,0-.75,.34-.75,.75v1c0,1.52,1.23,2.75,2.75,2.75s2.75-1.23,2.75-2.75v-1c0-.41-.34-.75-.75-.75Zm-.75,1.75c0,.69-.56,1.25-1.25,1.25s-1.25-.56-1.25-1.25v-.25h2.5v.25Z"/><path d="M7,2.25c-1.52,0-2.87,.91-3.44,2.33-.87,2.18-1,4.62-.35,6.88l1.07,3.75c.09,.32,.39,.54,.72,.54h4c.33,0,.63-.22,.72-.54l1.07-3.75c.65-2.26,.52-4.7-.35-6.88-.57-1.42-1.92-2.33-3.44-2.33Zm2.35,8.8l-.92,3.2h-2.87l-.92-3.2c-.55-1.94-.45-4.04,.3-5.91,.34-.84,1.14-1.39,2.05-1.39s1.71,.54,2.05,1.39c.75,1.87,.86,3.97,.3,5.91Z"/><path d="M19,17.25h-4c-.41,0-.75,.34-.75,.75v1c0,1.52,1.23,2.75,2.75,2.75s2.75-1.23,2.75-2.75v-1c0-.41-.34-.75-.75-.75Zm-.75,1.75c0,.69-.56,1.25-1.25,1.25s-1.25-.56-1.25-1.25v-.25h2.5v.25Z"/><path d="M20.44,4.58c-.57-1.42-1.92-2.33-3.44-2.33s-2.87,.91-3.44,2.33c-.87,2.18-1,4.62-.35,6.88l1.07,3.75c.09,.32,.39,.54,.72,.54h4c.33,0,.63-.22,.72-.54l1.07-3.75c.65-2.26,.52-4.7-.35-6.88Zm-1.09,6.47l-.92,3.2h-2.87l-.92-3.2c-.55-1.94-.45-4.04,.3-5.91,.34-.84,1.14-1.39,2.05-1.39s1.71,.54,2.05,1.39c.75,1.87,.86,3.97,.3,5.91Z"/></g></g></svg>