<?xml version="1.0" encoding="UTF-8"?><svg fill="currentColor" xmlns="http://www.w3.org/2000/svg" viewBox="0 0 24 24"><g id="d"><g><path d="M21.75,6v-2c0-.96-.79-1.75-1.75-1.75H4c-.96,0-1.75,.79-1.75,1.75v2c0,.57,.28,1.07,.7,1.39-.46,1.15-.7,2.35-.7,3.61,0,5.38,4.37,9.75,9.75,9.75s9.75-4.37,9.75-9.75c0-1.25-.24-2.46-.7-3.61,.42-.32,.7-.82,.7-1.39ZM3.75,4c0-.14,.11-.25,.25-.25H20c.14,0,.25,.11,.25,.25v2c0,.14-.11,.25-.25,.25H4c-.14,0-.25-.11-.25-.25v-2Zm4.95,14.56l-.34-2.69c-.13-1.04,.19-2.09,.89-2.88,.7-.79,1.7-1.24,2.75-1.24s2.05,.45,2.75,1.24c.69,.79,1.02,1.84,.89,2.88l-.34,2.69c-1.01,.44-2.13,.69-3.3,.69s-2.29-.25-3.3-.69Zm8.23-.96l.19-1.54c.18-1.47-.27-2.95-1.25-4.06-.98-1.11-2.39-1.75-3.87-1.75s-2.89,.64-3.87,1.75c-.98,1.11-1.44,2.59-1.25,4.06l.19,1.54c-2.01-1.51-3.32-3.9-3.32-6.6,0-1.13,.24-2.22,.68-3.25h15.14c.44,1.03,.68,2.12,.68,3.25,0,2.7-1.31,5.09-3.32,6.6Z"/><path d="M12,13.25c-1.52,0-2.75,1.23-2.75,2.75s1.23,2.75,2.75,2.75,2.75-1.23,2.75-2.75-1.23-2.75-2.75-2.75Zm0,4c-.69,0-1.25-.56-1.25-1.25s.56-1.25,1.25-1.25,1.25,.56,1.25,1.25-.56,1.25-1.25,1.25Z"/></g></g></svg>