<?xml version="1.0" encoding="UTF-8"?><svg fill="currentColor" xmlns="http://www.w3.org/2000/svg" viewBox="0 0 24 24"><g id="u"><g><path d="M21.32,11.32c-.53-.25-1.07-.46-1.61-.66l-.78-4.65c-.08-.49-.37-.92-.78-1.18-.42-.27-.93-.34-1.41-.21-3.09,.86-6.39,.85-9.49,0-.47-.13-.98-.06-1.39,.21-.42,.27-.71,.7-.79,1.19l-.78,4.65c-.55,.2-1.09,.42-1.61,.66-.38,.18-.54,.62-.36,1,.13,.27,.4,.43,.68,.43,.11,0,.21-.02,.32-.07,5.4-2.52,11.97-2.52,17.36,0,.38,.18,.82,.01,1-.36,.18-.38,.01-.82-.36-1Zm-15.41-1.19l.65-3.88c.02-.1,.08-.15,.11-.17,.04-.02,.11-.05,.18-.03,3.35,.93,6.94,.93,10.29,0,.09-.03,.16,0,.2,.03s.1,.07,.11,.17l.65,3.88c-3.95-1.12-8.24-1.11-12.19,0Z"/><path d="M16.5,12.25c-1.35,0-2.51,.83-3,2h-3c-.49-1.17-1.65-2-3-2-1.79,0-3.25,1.46-3.25,3.25s1.46,3.25,3.25,3.25,3.09-1.33,3.22-3h2.55c.13,1.67,1.52,3,3.22,3,1.79,0,3.25-1.46,3.25-3.25s-1.46-3.25-3.25-3.25Zm-9,5c-.96,0-1.75-.79-1.75-1.75s.79-1.75,1.75-1.75,1.75,.79,1.75,1.75-.79,1.75-1.75,1.75Zm9,0c-.96,0-1.75-.79-1.75-1.75s.79-1.75,1.75-1.75,1.75,.79,1.75,1.75-.79,1.75-1.75,1.75Z"/></g></g></svg>