<?xml version="1.0" encoding="UTF-8"?><svg fill="currentColor" xmlns="http://www.w3.org/2000/svg" viewBox="0 0 24 24"><g id="g"><g><path d="M19.74,4.26c-2.64-2.64-6.95-2.64-9.59,0-1.84,1.84-2.47,4.4-1.69,6.79l-5.13,5.15c-.1,.1-.17,.24-.2,.38l-.85,4.26c-.05,.25,.03,.5,.21,.68,.14,.14,.33,.22,.53,.22,.05,0,.1,0,.15-.01l4.26-.85c.14-.03,.28-.1,.38-.21l5.14-5.14c2.39,.74,5.01,.1,6.8-1.68,2.64-2.64,2.64-6.95,0-9.59Zm-1.06,8.53c-1.49,1.49-3.71,1.95-5.66,1.18-.28-.11-.59-.04-.8,.17l-5.31,5.31-2.94,.59,.59-2.94,5.31-5.33c.21-.21,.28-.53,.16-.81-.79-1.95-.33-4.11,1.19-5.64,2.06-2.06,5.41-2.06,7.47,0,2.06,2.06,2.06,5.41,0,7.47Z"/><path d="M18.13,5.87c-.88-.88-2.3-.88-3.18,0s-.88,2.3,0,3.18c.44,.44,1.01,.66,1.59,.66s1.15-.22,1.59-.66c.88-.88,.88-2.3,0-3.18Zm-1.06,2.12c-.29,.29-.77,.29-1.06,0s-.29-.77,0-1.06c.15-.15,.34-.22,.53-.22s.38,.07,.53,.22c.29,.29,.29,.77,0,1.06Z"/><path d="M9.29,13.65l-3.54,3.54c-.29,.29-.29,.77,0,1.06,.15,.15,.34,.22,.53,.22s.38-.07,.53-.22l3.54-3.54c.29-.29,.29-.77,0-1.06s-.77-.29-1.06,0Z"/></g></g></svg>