<?xml version="1.0" encoding="UTF-8"?><svg fill="currentColor" xmlns="http://www.w3.org/2000/svg" viewBox="0 0 24 24"><g id="f"><path d="M21.52,8.73l-.07-.14c-.41-.79-1.27-1.25-2.18-1.16-.64,.06-1.28,.01-1.88-.15-1.43-.38-2.32-1.26-2.78-1.81l-.31-.3c-1.26-1.22-3.32-1.22-4.58,0l-.37,.36c-.4,.49-1.29,1.37-2.72,1.75-.61,.16-1.24,.21-1.89,.15-.91-.1-1.77,.37-2.18,1.16l-.07,.14c-.42,.81-.27,1.76,.37,2.44,.09,.09,.18,.19,.27,.3,.26,.32,.48,.67,.65,1.05,.31,.67,.99,1.07,1.71,1.02,.69,2.45,2.93,4.2,5.52,4.2h2c2.59,0,4.83-1.75,5.52-4.21,.04,0,.08,.01,.12,.01,.67,0,1.3-.39,1.59-1.03,.17-.38,.39-.73,.65-1.05,.09-.11,.18-.21,.27-.3,.64-.68,.79-1.63,.37-2.44Zm-8.52,7.52h-2c-1.87,0-3.49-1.24-4.04-2.99,.91-.18,1.82-.32,2.75-.4,.65,1.18,1.73,1.71,2,1.82,.1,.04,.2,.06,.3,.06s.2-.02,.3-.06c.26-.11,1.34-.65,2-1.82,.92,.08,1.84,.22,2.75,.4-.55,1.75-2.18,2.99-4.04,2.99Zm.26-4.88c-.17,.97-.85,1.53-1.26,1.78-.41-.25-1.09-.81-1.26-1.78-.04-.22-.05-.44-.04-.67l1.3-.81,1.3,.81c.01,.23,0,.46-.04,.67Zm6.8-1.24c-.12,.12-.23,.25-.35,.4-.34,.42-.62,.88-.85,1.37-.05,.12-.17,.18-.28,.15-1.25-.31-2.54-.51-3.83-.64,.05-.42,.05-.85-.02-1.28-.04-.21-.16-.4-.34-.51l-2-1.25c-.24-.15-.55-.15-.8,0l-2,1.25c-.18,.11-.31,.3-.34,.51-.07,.44-.07,.86-.02,1.28-1.28,.13-2.56,.33-3.8,.63-.13,.03-.25-.02-.3-.14-.22-.49-.51-.96-.85-1.37-.12-.14-.23-.28-.35-.4-.2-.21-.25-.48-.13-.72l.07-.14c.13-.25,.41-.38,.71-.36,.82,.08,1.63,.01,2.41-.19,1.84-.49,2.98-1.62,3.44-2.19l.3-.29c.68-.65,1.82-.65,2.5,0l.25,.23c.52,.63,1.66,1.77,3.5,2.25,.78,.21,1.59,.27,2.41,.19,.3-.02,.58,.11,.71,.36l.07,.14c.12,.23,.07,.51-.12,.71Z"/></g></svg>