<?xml version="1.0" encoding="UTF-8"?><svg fill="currentColor" xmlns="http://www.w3.org/2000/svg" viewBox="0 0 24 24"><g id="c"><path d="M20,4.25h-1c-.96,0-1.75,.79-1.75,1.75v.25H6.75v-.25c0-.96-.79-1.75-1.75-1.75h-1c-.96,0-1.75,.79-1.75,1.75v12c0,.96,.79,1.75,1.75,1.75h1c.96,0,1.75-.79,1.75-1.75v-3.25h10.5v3.25c0,.96,.79,1.75,1.75,1.75h1c.96,0,1.75-.79,1.75-1.75V6c0-.96-.79-1.75-1.75-1.75ZM11.14,13.25l2.36-5.5h2.37l-2.36,5.5h-2.37Zm-4,0l2.36-5.5h2.37l-2.36,5.5h-2.37Zm.72-5.5l-1.11,2.6v-2.6h1.11Zm-2.61,10.25c0,.14-.11,.25-.25,.25h-1c-.14,0-.25-.11-.25-.25V6c0-.14,.11-.25,.25-.25h1c.14,0,.25,.11,.25,.25v7.99h0v4.01Zm9.89-4.75l2.11-4.93v4.93h-2.11Zm5.11,4.75c0,.14-.11,.25-.25,.25h-1c-.14,0-.25-.11-.25-.25V6c0-.14,.11-.25,.25-.25h1c.14,0,.25,.11,.25,.25v12Z"/></g></svg>