<?xml version="1.0" encoding="UTF-8"?><svg fill="currentColor" xmlns="http://www.w3.org/2000/svg" viewBox="0 0 24 24"><g id="m"><path d="M19.64,5.98l-6.85-3.43c-.49-.25-1.08-.25-1.56,0l-6.85,3.43c-.72,.36-1.1,1.16-.93,1.94l1.76,7.9c.08,.38,.29,.72,.59,.97l5.1,4.25c.33,.27,.72,.41,1.12,.41s.8-.14,1.12-.41l5.1-4.25c.3-.25,.5-.59,.59-.96l1.76-7.91c.17-.78-.21-1.58-.93-1.94Zm-.67,1.34c.1,.05,.16,.17,.13,.28l-.81,3.65h-5.54V4.21l6.22,3.11Zm-13.93,0l6.22-3.11v7.04H5.71l-.81-3.65c-.02-.11,.03-.23,.13-.28Zm1.71,8.32s-.07-.08-.08-.14l-.61-2.75h5.2v6.65l-4.51-3.76Zm10.52,0l-4.51,3.76v-6.65h5.2l-.61,2.75c-.01,.05-.04,.1-.08,.14Z"/></g></svg>