<?xml version="1.0" encoding="UTF-8"?><svg fill="currentColor" xmlns="http://www.w3.org/2000/svg" viewBox="0 0 24 24"><g id="j"><path d="M20.77,14.88c-.17-.58-.56-1.05-1.09-1.33-.51-.27-1.1-.33-1.65-.18l-1.19-1.52,1.07-1.56c.17,.04,.34,.06,.51,.06,.4,0,.8-.11,1.17-.33,1.06-.64,1.4-2.03,.75-3.09-.64-1.06-2.03-1.39-3.09-.75-.48,.29-.82,.75-.98,1.29l-1.97,.28-.84-1.75c.38-.43,.59-.98,.57-1.56-.04-1.24-1.04-2.18-2.32-2.18-1.24,.04-2.22,1.08-2.18,2.32,.02,.58,.26,1.11,.66,1.52l-.73,1.8-1.94-.15c-.18-.54-.56-.99-1.06-1.26-1.1-.59-2.46-.17-3.04,.92-.28,.53-.34,1.14-.17,1.71s.56,1.05,1.09,1.33c.33,.18,.69,.27,1.06,.27,.2,0,.4-.04,.59-.09l1.19,1.52-1.07,1.56c-.55-.13-1.15-.05-1.67,.27-1.06,.64-1.4,2.03-.75,3.09,.42,.69,1.17,1.08,1.93,1.08,.4,0,.8-.11,1.17-.33,.48-.29,.82-.75,.98-1.29l1.97-.28,.84,1.75c-.38,.43-.59,.98-.57,1.56,.04,1.22,1.04,2.18,2.25,2.18,.02,0,.05,0,.07,0,1.24-.04,2.22-1.08,2.18-2.32-.02-.58-.26-1.11-.66-1.52l.73-1.8,1.94,.15c.18,.54,.56,.99,1.06,1.26,.34,.18,.7,.27,1.06,.27,.8,0,1.58-.43,1.99-1.19,.28-.53,.34-1.14,.17-1.71Zm-3.09-6.96c.05-.19,.17-.36,.34-.46,.12-.07,.26-.11,.39-.11,.25,0,.5,.13,.64,.36,.21,.35,.1,.82-.25,1.03-.35,.22-.82,.1-1.03-.25-.1-.17-.14-.37-.09-.57ZM11.74,3.75h.02c.4,0,.74,.32,.75,.73,0,.2-.07,.39-.2,.54-.14,.15-.32,.23-.52,.24-.19,.03-.39-.07-.54-.2-.15-.14-.23-.32-.24-.52-.01-.41,.31-.76,.73-.77Zm-6.71,5.37c-.18-.09-.31-.25-.36-.44-.06-.19-.04-.39,.06-.57,.09-.18,.25-.31,.44-.36,.07-.02,.15-.03,.22-.03,.12,0,.24,.03,.35,.09,.18,.09,.31,.25,.36,.44,.06,.19,.04,.39-.06,.57-.09,.18-.25,.31-.44,.36-.19,.06-.39,.04-.57-.06Zm1.29,6.95c-.05,.19-.17,.36-.34,.46-.35,.21-.82,.1-1.03-.25-.21-.35-.1-.82,.25-1.03,.12-.07,.26-.11,.39-.11,.25,0,.5,.13,.64,.36,.1,.17,.14,.37,.09,.57Zm5.93,4.17c-.41,.03-.76-.31-.77-.73,0-.2,.07-.39,.2-.54,.14-.15,.32-.23,.52-.24,.21-.02,.39,.07,.54,.2,.15,.14,.23,.32,.24,.52,.01,.41-.31,.76-.73,.77Zm1.86-5.67c-.32-.02-.63,.16-.75,.47l-.9,2.23c-.1-.01-.19-.03-.29-.03-.1,0-.2,.02-.3,.04l-1.04-2.17c-.14-.3-.46-.46-.78-.42l-2.39,.33c-.04-.1-.09-.21-.15-.3-.05-.08-.1-.14-.16-.21l1.36-1.98c.18-.27,.17-.63-.03-.89l-1.48-1.89c.06-.08,.11-.15,.16-.24,.05-.09,.08-.19,.12-.28l2.4,.19s.04,0,.06,0c.3,0,.58-.18,.69-.47l.9-2.23c.08,0,.15,.02,.23,.02,.02,0,.05,0,.07,0,.1,0,.2-.02,.3-.04l1.04,2.17c.13,.26,.39,.43,.68,.43,.03,0,.07,0,.1,0l2.39-.33c.04,.1,.09,.21,.15,.3,.05,.08,.11,.13,.16,.2l-1.36,1.99c-.18,.27-.17,.63,.03,.89l1.48,1.89c-.06,.08-.11,.15-.16,.24-.05,.09-.08,.19-.12,.28l-2.4-.19Zm5.16,1.32c-.09,.18-.25,.31-.44,.36-.19,.06-.4,.04-.57-.06-.18-.09-.31-.25-.36-.44-.06-.19-.04-.39,.06-.57,.09-.18,.25-.31,.44-.36,.07-.02,.15-.03,.22-.03,.12,0,.24,.03,.35,.09,.18,.09,.31,.25,.36,.44,.06,.19,.04,.39-.06,.57Z"/></g></svg>