<?xml version="1.0" encoding="UTF-8"?><svg fill="currentColor" xmlns="http://www.w3.org/2000/svg" viewBox="0 0 24 24"><g id="l"><g><path d="M20.94,6.88l-3.83-3.83c-.52-.52-1.21-.81-1.94-.81h-6.34c-.73,0-1.42,.29-1.94,.81l-3.83,3.83c-.52,.52-.81,1.21-.81,1.94v6.34c0,.73,.29,1.43,.81,1.94l3.83,3.83c.52,.52,1.21,.81,1.94,.81h6.34c.73,0,1.42-.29,1.94-.81l3.83-3.83c.52-.52,.81-1.21,.81-1.94v-6.34c0-.73-.29-1.43-.81-1.94Zm-.69,8.29c0,.33-.13,.65-.37,.88l-3.83,3.83c-.23,.23-.55,.37-.88,.37h-6.34c-.33,0-.65-.13-.88-.37l-3.83-3.83c-.24-.24-.37-.55-.37-.88v-6.34c0-.33,.13-.65,.37-.88l3.83-3.83c.23-.23,.55-.37,.88-.37h6.34c.33,0,.65,.13,.88,.37l3.83,3.83c.24,.24,.37,.55,.37,.88v6.34Z"/><path d="M14.95,6.15c-.21-.63-.75-1.08-1.41-1.18l-2.47-.35c-.55-.08-1.1,.11-1.49,.49l-4.24,4.24c-.39,.39-.57,.94-.5,1.49l.35,2.47c.09,.66,.55,1.2,1.18,1.41,.18,.06,.37,.09,.56,.09,.46,0,.9-.18,1.23-.51l6.36-6.36c.47-.47,.63-1.16,.42-1.79Zm-1.48,.73l-6.36,6.36c-.09,.1-.2,.08-.25,.06-.05-.02-.15-.07-.17-.2l-.35-2.47c-.01-.08,.01-.16,.07-.21l4.24-4.24s.11-.07,.17-.07c.01,0,.02,0,.04,0l2.48,.35h0c.13,.02,.18,.11,.2,.17s.03,.16-.06,.26Z"/><path d="M19.27,10.7c-.09-.66-.54-1.2-1.18-1.41-.63-.21-1.32-.05-1.79,.42l-6.36,6.36c-.47,.47-.63,1.16-.42,1.79s.75,1.08,1.41,1.18l2.48,.35c.08,.01,.16,.02,.24,.02,.46,0,.91-.18,1.24-.51l4.24-4.24c.39-.39,.57-.94,.49-1.48l-.35-2.48Zm-1.2,2.9l-4.24,4.24c-.05,.05-.13,.09-.21,.07l-2.47-.35c-.13-.02-.18-.11-.2-.17s-.03-.16,.06-.26l6.36-6.36c.06-.06,.12-.07,.17-.07,.03,0,.06,0,.08,.01,.05,.02,.15,.07,.17,.2l.35,2.48c.01,.08-.02,.16-.07,.21Z"/></g></g></svg>