<?xml version="1.0" encoding="UTF-8"?><svg fill="currentColor" xmlns="http://www.w3.org/2000/svg" viewBox="0 0 24 24"><g id="p"><g><path d="M16.08,18.29c-.39-.14-.82,.07-.96,.46-.32,.9-1.17,1.5-2.12,1.5H7c-1.24,0-2.25-1.01-2.25-2.25V6c0-1.09,.78-2,1.81-2.21l.49,.99c.3,.6,.9,.97,1.57,.97h2.76c.67,0,1.27-.37,1.57-.97l.49-.99c1.03,.21,1.81,1.12,1.81,2.21,0,.41,.34,.75,.75,.75s.75-.34,.75-.75c0-2.05-1.65-3.71-3.68-3.74h-.03s-.02,0-.03,0H7s-.02,0-.03,0h-.03c-2.04,.04-3.68,1.7-3.68,3.75v12c0,2.07,1.68,3.75,3.75,3.75h6c1.59,0,3.01-1,3.54-2.5,.14-.39-.07-.82-.46-.96ZM11.38,4.25h-2.76c-.1,0-.18-.05-.22-.14l-.18-.36h3.57l-.18,.36c-.04,.09-.13,.14-.22,.14Z"/><path d="M20.82,10.54c-.04-.62-.41-1.18-.97-1.46l-3.07-1.53c-.49-.25-1.07-.25-1.56,0h0l-3.07,1.53c-.55,.28-.92,.84-.97,1.46-.04,.53-.01,1.07,.08,1.58,.48,2.77,2.6,4.45,3.83,5.21,.28,.17,.59,.26,.91,.26s.63-.09,.91-.26c1.22-.76,3.35-2.45,3.83-5.21,.09-.52,.12-1.05,.08-1.58Zm-1.56,1.33c-.38,2.19-2.13,3.57-3.14,4.19-.07,.04-.17,.04-.24,0-1.01-.63-2.76-2.01-3.14-4.19-.07-.4-.09-.81-.06-1.22,0-.1,.06-.18,.14-.22l3.07-1.53c.07-.04,.15-.04,.22,0l3.07,1.53c.08,.04,.14,.12,.14,.22,.03,.41,0,.83-.06,1.22Z"/><path d="M16.97,10.95l-1.47,1.47-.47-.47c-.29-.29-.77-.29-1.06,0s-.29,.77,0,1.06l1,1c.15,.15,.34,.22,.53,.22s.38-.07,.53-.22l2-2c.29-.29,.29-.77,0-1.06s-.77-.29-1.06,0Z"/></g></g></svg>