<?xml version="1.0" encoding="UTF-8"?><svg fill="currentColor" xmlns="http://www.w3.org/2000/svg" viewBox="0 0 24 24"><g id="k"><g><path d="M21.33,15.83L14.76,5.08c-.59-.97-1.63-1.55-2.76-1.55s-2.17,.58-2.76,1.55L2.67,15.83c-.62,1.01-.64,2.24-.06,3.27,.58,1.04,1.64,1.65,2.82,1.65h13.13c1.19,0,2.24-.62,2.82-1.65,.58-1.04,.56-2.26-.06-3.27Zm-1.25,2.54c-.31,.56-.88,.89-1.52,.89H5.44c-.64,0-1.2-.33-1.52-.89-.31-.56-.3-1.21,.03-1.76L10.52,5.86c.32-.52,.87-.83,1.48-.83s1.16,.31,1.48,.83l6.57,10.74c.33,.54,.34,1.2,.03,1.76Z"/><path d="M12,14.75c.41,0,.75-.34,.75-.75v-4c0-.41-.34-.75-.75-.75s-.75,.34-.75,.75v4c0,.41,.34,.75,.75,.75Z"/><path d="M12.02,16.25h-.01c-.41,0-.74,.34-.74,.75s.34,.75,.75,.75,.75-.34,.75-.75-.34-.75-.75-.75Z"/></g></g></svg>