<svg fill="currentColor" xmlns="http://www.w3.org/2000/svg" viewBox="0 0 32 32"><g id="apartement"><path d="M21,5H19.33a1,1,0,0,0,0,2H21a1,1,0,0,0,0-2Z"/><path d="M21,9H19.33a1,1,0,0,0,0,2H21a1,1,0,0,0,0-2Z"/><path d="M21,13H19.33a1,1,0,0,0,0,2H21a1,1,0,0,0,0-2Z"/><path d="M21,17H19.33a1,1,0,0,0,0,2H21a1,1,0,0,0,0-2Z"/><path d="M21,21H19.33a1,1,0,0,0,0,2H21a1,1,0,0,0,0-2Z"/><path d="M21,25H19.33a1,1,0,0,0,0,2H21a1,1,0,0,0,0-2Z"/><path d="M26,28H25V4.18A2.19,2.19,0,0,0,22.82,2H9.18A2.19,2.19,0,0,0,7,4.18V28H6a1,1,0,0,0,0,2H26a1,1,0,0,0,0-2ZM9,28V27h7a1,1,0,0,0,0-2H9V23h7a1,1,0,0,0,0-2H9V19h7a1,1,0,0,0,0-2H9V15h7a1,1,0,0,0,0-2H9V11h7a1,1,0,0,0,0-2H9V7h7a1,1,0,0,0,0-2H9V4.18A.18.18,0,0,1,9.18,4H22.82a.18.18,0,0,1,.18.18V28Z"/></g></svg>