<svg fill="currentColor" xmlns="http://www.w3.org/2000/svg" viewBox="0 0 32 32"><g id="barn"><path d="M29.92,16.61l-3-7a.92.92,0,0,0-.35-.43l-10-7a1,1,0,0,0-1.14,0l-10,7a.92.92,0,0,0-.35.43l-3,7a1,1,0,0,0,.47,1.28l2,1A.92.92,0,0,0,5,19V29a1,1,0,0,0,.29.71A1,1,0,0,0,6,30H26a1,1,0,0,0,1-1V19h0a.93.93,0,0,0,.45-.11l2-1A1,1,0,0,0,29.92,16.61ZM21,27l-3.33-2.5L21,22Zm-2,1H13l3-2.25Zm-3-4.75L13,21h6ZM14.33,24.5,11,27V22ZM25,28H23V20s0-.07,0-.11a1.18,1.18,0,0,0,0-.2l-.09-.19s0-.07-.05-.1,0,0-.05,0a1,1,0,0,0-.15-.14,1.53,1.53,0,0,0-.16-.11l-.17-.05a.72.72,0,0,0-.21,0H9.93l-.2,0-.17.06a.83.83,0,0,0-.15.11.7.7,0,0,0-.16.14s0,0-.05,0l0,.1-.09.19a1.18,1.18,0,0,0,0,.2S9,20,9,20v8H7V18.24l2.78-5.57L16,8.23l6.22,4.44L25,18.24Zm1.65-10.94-2.76-5.51a1,1,0,0,0-.31-.36l-7-5a1,1,0,0,0-1.16,0l-7,5a1,1,0,0,0-.31.36L5.35,17.06l-1.06-.53,2.52-5.87L16,4.22l9.19,6.44,2.52,5.87Z"/><path d="M17,13H15a1,1,0,0,0,0,2h2a1,1,0,0,0,0-2Z"/></g></svg>