<svg fill="currentColor" xmlns="http://www.w3.org/2000/svg" viewBox="0 0 32 32"><g id="church"><path d="M29,28V14a.9.9,0,0,0,0-.28L26,4.79V3a1,1,0,0,0-2,0V4.79l-2.95,8.9A.9.9,0,0,0,21,14v2.11L17,8.74V7h1a1,1,0,0,0,0-2H17V4a1,1,0,0,0-2,0V5H14a1,1,0,0,0,0,2h1V8.74l-4,7.34V14a.9.9,0,0,0,0-.28L8,4.79V3A1,1,0,0,0,6,3V4.79l-2.95,8.9A.9.9,0,0,0,3,14V28a1,1,0,0,0,0,2H29a1,1,0,0,0,0-2ZM25,8.13,26.61,13H23.39Zm-9,3,5,9.16V28H19V24a3,3,0,0,0-6,0v4H11V20.25Zm-9-3L8.61,13H5.39ZM5,28V15H9V28Zm10,0V24a1,1,0,0,1,2,0v4Zm8,0V15h4V28Z"/><path d="M25,17a1,1,0,0,0-1,1v3a1,1,0,0,0,2,0V18A1,1,0,0,0,25,17Z"/><path d="M7,17a1,1,0,0,0-1,1v3a1,1,0,0,0,2,0V18A1,1,0,0,0,7,17Z"/></g></svg>