<svg fill="currentColor" xmlns="http://www.w3.org/2000/svg" viewBox="0 0 32 32"><g id="greenhouse"><path d="M30,12.94a1.18,1.18,0,0,0,0-.2,1.27,1.27,0,0,0-.06-.18l-.1-.15-.14-.16,0,0-13-10a1,1,0,0,0-1.22,0l-13,10a.1.1,0,0,0,0,0,1,1,0,0,0-.14.15l-.1.15a1.27,1.27,0,0,0-.06.18,1.18,1.18,0,0,0,0,.2S2,13,2,13V29a1,1,0,0,0,1,1H29a1,1,0,0,0,1-1V13S30,13,30,12.94ZM19,21H13a1,1,0,0,0-1,1v6H11V14H21V28H20V22A1,1,0,0,0,19,21Zm1.23-9H11.77L16,4.94ZM9.43,12H5.94l6.49-5Zm13.14,0-3-5,6.49,5ZM4,14H9V28H4ZM14,28V23h4v5Zm14,0H23V14h5Z"/></g></svg>