<svg fill="currentColor" xmlns="http://www.w3.org/2000/svg" viewBox="0 0 32 32"><g id="hospital"><path d="M15,8a1,1,0,0,0,2,0,1,1,0,0,0,0-2,1,1,0,0,0-2,0,1,1,0,0,0,0,2Z"/><path d="M29,28V10.3A2.3,2.3,0,0,0,26.7,8H20.9A5.47,5.47,0,0,0,21,7,5,5,0,0,0,11,7a5.47,5.47,0,0,0,.1,1H5.3A2.3,2.3,0,0,0,3,10.3V28a1,1,0,0,0,0,2H29a1,1,0,0,0,0-2ZM16,4a3,3,0,1,1-3,3A3,3,0,0,1,16,4ZM5,28V10.3a.29.29,0,0,1,.3-.3H12a5,5,0,0,0,8,0H26.7a.29.29,0,0,1,.3.3V28Z"/><path d="M9,13H7a1,1,0,0,0,0,2H9a1,1,0,0,0,0-2Z"/><path d="M14,13H12a1,1,0,0,0,0,2h2a1,1,0,0,0,0-2Z"/><path d="M20,13H18a1,1,0,0,0,0,2h2a1,1,0,0,0,0-2Z"/><path d="M25,13H23a1,1,0,0,0,0,2h2a1,1,0,0,0,0-2Z"/><path d="M9,17H7a1,1,0,0,0,0,2H9a1,1,0,0,0,0-2Z"/><path d="M14,17H12a1,1,0,0,0,0,2h2a1,1,0,0,0,0-2Z"/><path d="M20,17H18a1,1,0,0,0,0,2h2a1,1,0,0,0,0-2Z"/><path d="M25,17H23a1,1,0,0,0,0,2h2a1,1,0,0,0,0-2Z"/><path d="M9,21H7a1,1,0,0,0,0,2H9a1,1,0,0,0,0-2Z"/><path d="M14,21H12a1,1,0,0,0,0,2h2a1,1,0,0,0,0-2Z"/><path d="M20,21H18a1,1,0,0,0,0,2h2a1,1,0,0,0,0-2Z"/><path d="M25,21H23a1,1,0,0,0,0,2h2a1,1,0,0,0,0-2Z"/><path d="M9,25H7a1,1,0,0,0,0,2H9a1,1,0,0,0,0-2Z"/><path d="M14,25H12a1,1,0,0,0,0,2h2a1,1,0,0,0,0-2Z"/><path d="M20,25H18a1,1,0,0,0,0,2h2a1,1,0,0,0,0-2Z"/><path d="M25,25H23a1,1,0,0,0,0,2h2a1,1,0,0,0,0-2Z"/></g></svg>