<svg fill="currentColor" xmlns="http://www.w3.org/2000/svg" viewBox="0 0 32 32"><g id="hotel"><path d="M19,18H17a1,1,0,0,0,0,2h2a1,1,0,0,0,0-2Z"/><path d="M25,18H22a1,1,0,0,0,0,2h3a1,1,0,0,0,0-2Z"/><path d="M19,21H17a1,1,0,0,0,0,2h2a1,1,0,0,0,0-2Z"/><path d="M25,21H22a1,1,0,0,0,0,2h3a1,1,0,0,0,0-2Z"/><path d="M29,25V15a1,1,0,0,0-1-1H15V7a1,1,0,0,0-1-1H4A1,1,0,0,0,3,7V25a1,1,0,0,0,0,2H29a1,1,0,0,0,0-2ZM5,24h5a1,1,0,0,0,0-2H5V20h5a1,1,0,0,0,0-2H5V16h5a1,1,0,0,0,0-2H5V12h5a1,1,0,0,0,0-2H5V8h8V25H5Zm10,1V16H27v9Z"/></g></svg>