<svg fill="currentColor" xmlns="http://www.w3.org/2000/svg" viewBox="0 0 32 32"><g id="house"><path d="M29.57,11.18l-13-9a1,1,0,0,0-1.14,0l-13,9A1,1,0,0,0,2,12v4a1,1,0,0,0,.54.89,1,1,0,0,0,1-.07l.43-.3V28a1,1,0,0,0,0,2H28a1,1,0,0,0,0-2V16.52l.43.3A1,1,0,0,0,29,17a1,1,0,0,0,.46-.11A1,1,0,0,0,30,16V12A1,1,0,0,0,29.57,11.18ZM13,28V21h6v7Zm13,0H21V20a1,1,0,0,0-1-1H12a1,1,0,0,0-1,1v8H6V15.14L16,8.22l10,6.92Zm2-13.91L16.57,6.18a1,1,0,0,0-1.14,0L4,14.09V12.52l12-8.3,12,8.3Z"/><path d="M13,14a3,3,0,1,0,3-3A3,3,0,0,0,13,14Zm4,0a1,1,0,1,1-1-1A1,1,0,0,1,17,14Z"/></g></svg>