<svg fill="currentColor" xmlns="http://www.w3.org/2000/svg" viewBox="0 0 32 32"><g id="mosque"><path d="M29,28V16a1,1,0,0,0,1-1,1,1,0,0,0-.91-1A22.77,22.77,0,0,0,29,9.89,23.06,23.06,0,0,0,26.9,2.57a1,1,0,0,0-1.8,0A23.06,23.06,0,0,0,23,9.89a22.77,22.77,0,0,0-.1,4.13A1,1,0,0,0,22,15a1,1,0,0,0,1,1v5.38l-2-1V19a5,5,0,0,0-4-4.9V13a1,1,0,0,0-2,0v1.1A5,5,0,0,0,11,19v1.38l-2,1V16a1,1,0,0,0,1-1,1,1,0,0,0-.91-1A22.77,22.77,0,0,0,9,9.89,23.06,23.06,0,0,0,6.9,2.57a1,1,0,0,0-1.8,0A23.06,23.06,0,0,0,3,9.89,22.77,22.77,0,0,0,2.91,14,1,1,0,0,0,2,15a1,1,0,0,0,1,1V28a1,1,0,0,0,0,2H29a1,1,0,0,0,0-2ZM25,10.11a21.34,21.34,0,0,1,1-4.46,21.34,21.34,0,0,1,1,4.46A22,22,0,0,1,27.09,14H24.91A22,22,0,0,1,25,10.11ZM23,23.62V28H21V22.62ZM16,16a3,3,0,0,1,2.82,2H13.18A3,3,0,0,1,16,16Zm-5,6.62V28H9V23.62ZM5,10.11A21.34,21.34,0,0,1,6,5.65a21.34,21.34,0,0,1,1,4.46A22,22,0,0,1,7.09,14H4.91A22,22,0,0,1,5,10.11ZM5,28V16H7V28Zm12,0V24a1,1,0,0,0-2,0v4H13V20h6v8Zm8,0V16h2V28Z"/></g></svg>