<svg fill="currentColor" xmlns="http://www.w3.org/2000/svg" viewBox="0 0 32 32"><g id="parlement"><path d="M30,13V10a1,1,0,0,0-.53-.88l-13-7a1,1,0,0,0-.94,0l-13,7A1,1,0,0,0,2,10v3a1,1,0,0,0,1,1V28a1,1,0,0,0,0,2H29a1,1,0,0,0,0-2V14A1,1,0,0,0,30,13ZM4,10.6,16,4.14,28,10.6V12H4ZM8,28V18.64c0-.3.43-.64,1-.64s1,.34,1,.64V28Zm7,0V18.64c0-.3.43-.64,1-.64s1,.34,1,.64V28Zm7,0V18.64c0-.3.43-.64,1-.64s1,.34,1,.64V28Zm5,0H26V18.64A2.84,2.84,0,0,0,23,16a2.84,2.84,0,0,0-3,2.64V28H19V18.64A2.83,2.83,0,0,0,16,16a2.84,2.84,0,0,0-3,2.64V28H12V18.64A2.84,2.84,0,0,0,9,16a2.84,2.84,0,0,0-3,2.64V28H5V14H27Z"/><path d="M23.39,9.08l-7-3a1,1,0,0,0-.78,0l-7,3A1,1,0,0,0,9,11H23a1,1,0,0,0,.39-1.92ZM13.87,9,16,8.09,18.13,9Z"/></g></svg>