<svg fill="currentColor" xmlns="http://www.w3.org/2000/svg" viewBox="0 0 32 32"><g id="school"><path d="M28,13H26V11a1,1,0,0,0-1-1H17V8h5a1,1,0,0,0,.92-.62,1,1,0,0,0-.21-1.09L21.41,5l1.3-1.29a1,1,0,0,0,.21-1.09A1,1,0,0,0,22,2H16a1,1,0,0,0-1,1v7H7a1,1,0,0,0-1,1v2H4a1,1,0,0,0-1,1V29a1,1,0,0,0,1,1H28a1,1,0,0,0,1-1V14A1,1,0,0,0,28,13ZM17,4h2.59l-.3.29a1,1,0,0,0,0,1.42l.3.29H17ZM8,12H24v1H8ZM8,28V20a1,1,0,0,1,2,0v8Zm7,0V20a1,1,0,0,1,2,0v8Zm7,0V20a1,1,0,0,1,2,0v8Zm5,0H26V20a3,3,0,0,0-6,0v8H19V20a3,3,0,0,0-6,0v8H12V20a3,3,0,0,0-6,0v8H5V15H27Z"/></g></svg>