<svg fill="currentColor" xmlns="http://www.w3.org/2000/svg" viewBox="0 0 32 32"><g id="shop"><path d="M29,6.3A2.3,2.3,0,0,0,26.7,4H4.3A2.3,2.3,0,0,0,2,6.3v4.2A3.48,3.48,0,0,0,3,13S3,13,3,13V28a1,1,0,0,0,1,1H27a1,1,0,0,0,1-1V13s0,0,0-.05a3.48,3.48,0,0,0,1-2.45ZM19,6h3v4.5a1.5,1.5,0,0,1-3,0ZM14,6h3v4.5a1.5,1.5,0,0,1-3,0ZM9,6h3v4.5a1.5,1.5,0,0,1-3,0ZM4,10.5V6.3A.31.31,0,0,1,4.3,6H7v4.5a1.5,1.5,0,0,1-3,0ZM14,27H8V22a3,3,0,0,1,6,0Zm12,0H16V22A5,5,0,0,0,6,22v5H5V14a4,4,0,0,0,.5.05A3.5,3.5,0,0,0,8,12.94a3.48,3.48,0,0,0,5,0,3.48,3.48,0,0,0,5,0,3.48,3.48,0,0,0,5,0A3.5,3.5,0,0,0,25.5,14,4,4,0,0,0,26,14Zm1-16.5a1.5,1.5,0,0,1-3,0V6h2.7a.31.31,0,0,1,.3.3Z"/><path d="M24,16H18a1,1,0,0,0-1,1v5a1,1,0,0,0,1,1h6a1,1,0,0,0,1-1V17A1,1,0,0,0,24,16Zm-1,5H19V18h4Z"/></g></svg>