<svg fill="currentColor" xmlns="http://www.w3.org/2000/svg" viewBox="0 0 32 32"><g id="skyline"><path d="M22,25h-.8c1.61-9.35-.58-17.08-5.72-19.88a9.48,9.48,0,0,0-3.48-1V3a1,1,0,0,0-2,0V25H9a1,1,0,0,0-1,1v3a1,1,0,0,0,1,1H22a1,1,0,0,0,1-1V26A1,1,0,0,0,22,25ZM12,6.08a7.1,7.1,0,0,1,2.52.8c4.37,2.37,6.19,9.6,4.64,18.12h-.92A23.28,23.28,0,0,0,18,14.75a22.51,22.51,0,0,0-2.09-5.23A1,1,0,0,0,15,9H14a1,1,0,0,0-1,1V25H12ZM15,20V17h1.4a21.45,21.45,0,0,1,.28,3Zm1.62,2a22.06,22.06,0,0,1-.41,3H15V22ZM15,15V12.26A20.7,20.7,0,0,1,16,15Zm6,13H10V27H21Z"/></g></svg>