<svg fill="currentColor" xmlns="http://www.w3.org/2000/svg" viewBox="0 0 32 32"><g id="twin_tower" data-name="twin tower"><path d="M29,28h0V8a1,1,0,0,0-.42-.81l-7-5A1,1,0,0,0,20,3V8.16A7.76,7.76,0,0,0,16,7a7.56,7.56,0,0,0-4,1V3a1,1,0,0,0-1.59-.81l-7,5A1,1,0,0,0,3,8V28H3a1,1,0,0,0,0,2h9a1,1,0,0,0,1-1,1,1,0,0,0-1-1V13.52A6.61,6.61,0,0,1,16,12a5.29,5.29,0,0,1,4,1.47V28a1,1,0,0,0,0,2h9a1,1,0,0,0,0-2ZM5,28V8.51l5-3.57V9H8a1,1,0,1,0,0,2h2v1H8a1,1,0,1,0,0,2h2v1H8a1,1,0,0,0,0,2h2v1H8a1,1,0,0,0,0,2h2v1H8a1,1,0,0,0,0,2h2v1H8a1,1,0,1,0,0,2h2v2Zm7-16.85v-.68h0A5.3,5.3,0,0,1,16,9a6.53,6.53,0,0,1,4,1.51V11a7.6,7.6,0,0,0-4-1A7.69,7.69,0,0,0,12,11.15ZM22,28V26h2a1,1,0,1,0,0-2H22V23h2a1,1,0,1,0,0-2H22V20h2a1,1,0,1,0,0-2H22V17h2a1,1,0,1,0,0-2H22V14h2a1,1,0,1,0,0-2H22V11h2a1,1,0,1,0,0-2H22V4.94l5,3.57V28Z"/></g></svg>