<svg fill="currentColor" xmlns="http://www.w3.org/2000/svg" viewBox="0 0 32 32"><g id="villa"><path d="M29.38,9.07l-17-7a1,1,0,0,0-1,.13l-9,7A1,1,0,0,0,2,10v4a1,1,0,0,0,.56.9A1,1,0,0,0,3,15V29a1,1,0,0,0,1,1H28a1,1,0,0,0,1-1V15a1,1,0,0,0,.56-.17A1,1,0,0,0,30,14V10A1,1,0,0,0,29.38,9.07ZM4,10.49l8.15-6.34L28,10.67v1.84L12.38,6.08A.84.84,0,0,0,12,6a1,1,0,0,0-.61.21L4,12ZM5,28V13.71l7.15-5.56L27,14.26V28Z"/><path d="M14.32,12.05l-3-1a1,1,0,0,0-.92.15l-4,3A1,1,0,0,0,6,15v4a1,1,0,0,0,1,1h7a1,1,0,0,0,1-1V13A1,1,0,0,0,14.32,12.05ZM13,18H8V15.5l3.18-2.39,1.82.61Z"/><path d="M25.35,15.06l-8-3A1,1,0,0,0,16,13v6a1,1,0,0,0,1,1h8a1,1,0,0,0,1-1V16A1,1,0,0,0,25.35,15.06ZM24,18H18V14.44l6,2.25Z"/><path d="M14,21H7a1,1,0,0,0-1,1v4a1,1,0,0,0,1,1h7a1,1,0,0,0,1-1V22A1,1,0,0,0,14,21Zm-1,4H8V23h5Z"/><path d="M25,21H17a1,1,0,0,0-1,1v4a1,1,0,0,0,1,1h8a1,1,0,0,0,1-1V22A1,1,0,0,0,25,21Zm-1,4H18V23h6Z"/></g></svg>