<svg fill="currentColor" xmlns="http://www.w3.org/2000/svg" viewBox="0 0 32 32"><g id="water_storage" data-name="water storage"><path d="M22,17a1,1,0,0,0-1-1V8a1,1,0,0,0,0-2h-.59l-3.7-3.71a1,1,0,0,0-1.42,0L11.59,6H11a1,1,0,0,0,0,2v8a1,1,0,0,0,0,2h.82L10,28.84A1,1,0,0,0,10.84,30H11a1,1,0,0,0,1-.84l.37-2.24a.91.91,0,0,0,.22-.11L16,24.37l3.42,2.44a.91.91,0,0,0,.22.11L20,29.16A1,1,0,0,0,21,30h.16A1,1,0,0,0,22,28.84L20.18,18H21A1,1,0,0,0,22,17Zm-3.49,3.15-.09,0L16,21.91l-2.42-1.72-.09,0L13.85,18h4.3ZM16,4.41,17.59,6H14.41ZM13,8h6v8H13Zm-.18,16.19.31-1.87,1.15.82Zm4.9-1.05,1.15-.82.31,1.87Z"/></g></svg>