<?xml version="1.0" encoding="UTF-8"?><svg fill="currentColor" xmlns="http://www.w3.org/2000/svg" viewBox="0 0 24 24"><g id="n"><g><path d="M21.42,11.38c-.21-.14-.47-.17-.7-.08l-3.97,1.59v-.89c0-.25-.12-.48-.33-.62s-.47-.17-.7-.08l-3.97,1.59v-.89c0-.25-.12-.48-.33-.62s-.47-.17-.7-.08l-3.97,1.59v-3.89c0-.41-.34-.75-.75-.75H3c-.41,0-.75,.34-.75,.75v12c0,.41,.34,.75,.75,.75H21c.41,0,.75-.34,.75-.75V12c0-.25-.12-.48-.33-.62Zm-16.17-1.63v.5h-1.5v-.5h1.5Zm4.5,10.5v-1.25c0-.14,.11-.25,.25-.25h7c.14,0,.25,.11,.25,.25v1.25h-7.5Zm10.5,0h-1.5v-1.25c0-.96-.79-1.75-1.75-1.75h-7c-.96,0-1.75,.79-1.75,1.75v1.25H3.75V11.75h1.5v6.25c0,.41,.34,.75,.75,.75s.75-.34,.75-.75v-3.49l3.5-1.4v.89c0,.25,.12,.48,.33,.62,.21,.14,.47,.17,.7,.08l3.97-1.59v.89c0,.25,.12,.48,.33,.62,.21,.14,.47,.17,.7,.08l3.97-1.59v7.14Z"/><path d="M3.65,6.66c.11,.06,.23,.09,.35,.09,.27,0,.53-.15,.67-.4,.45-.86,.99-1.41,1.6-1.65,.61-.23,1.18-.13,1.91,0,.84,.15,1.79,.33,3,.02,.81-.2,1.58-.59,2.28-1.14,.33-.26,.38-.73,.13-1.05-.25-.33-.73-.38-1.05-.13-.54,.42-1.11,.71-1.72,.86-.9,.22-1.61,.09-2.37-.04-.84-.15-1.72-.31-2.72,.07-.97,.37-1.77,1.16-2.4,2.35-.19,.37-.05,.82,.32,1.01Z"/></g></g></svg>