<?xml version="1.0" encoding="UTF-8"?><svg fill="currentColor" xmlns="http://www.w3.org/2000/svg" viewBox="0 0 24 24"><g id="j"><g><path d="M19,2.25h-3c-.41,0-.75,.34-.75,.75V7c0,.14-.11,.25-.25,.25h-6c-.14,0-.25-.11-.25-.25V3c0-.41-.34-.75-.75-.75h-3c-.41,0-.75,.34-.75,.75v15c0,2.07,1.68,3.75,3.75,3.75h8c2.07,0,3.75-1.68,3.75-3.75V3c0-.41-.34-.75-.75-.75Zm-.75,15.75c0,1.24-1.01,2.25-2.25,2.25H8c-1.24,0-2.25-1.01-2.25-2.25V3.75h1.5v3.25c0,.96,.79,1.75,1.75,1.75h6c.96,0,1.75-.79,1.75-1.75V3.75h1.5v14.25Z"/><path d="M15.25,15.29c-.39-.14-.82,.06-.96,.45-.09,.24-.32,.5-.71,.5h-1.24c-.41,0-.75,.34-.75,.75s.34,.75,.75,.75h1.24c.96,0,1.8-.59,2.12-1.5,.14-.39-.06-.82-.46-.96Z"/><path d="M10.33,16.21c-.22-.08-.39-.26-.46-.49-.04-.13-.08-.4,.12-.66l.45-.6c.25-.33,.18-.8-.15-1.05-.33-.25-.8-.18-1.05,.15l-.45,.6c-.44,.58-.56,1.31-.35,2,.21,.69,.73,1.24,1.4,1.47,.08,.03,.17,.04,.25,.04,.31,0,.6-.19,.71-.5,.14-.39-.07-.82-.46-.96Z"/><path d="M12.69,13.05l.8,1.07c.15,.2,.37,.3,.6,.3,.16,0,.31-.05,.45-.15,.33-.25,.4-.72,.15-1.05l-.8-1.07c-.66-.88-1.85-1.16-2.83-.65-.37,.19-.51,.64-.32,1.01s.64,.51,1.01,.32c.28-.14,.69-.12,.94,.22Z"/></g></g></svg>