<?xml version="1.0" encoding="UTF-8"?><svg fill="currentColor" xmlns="http://www.w3.org/2000/svg" viewBox="0 0 24 24"><g id="s"><g><path d="M12,14.25h-2.19l1.72-1.72c.29-.29,.29-.77,0-1.06s-.77-.29-1.06,0l-3,3c-.21,.21-.28,.54-.16,.82s.39,.46,.69,.46h2.19l-1.72,1.72c-.29,.29-.29,.77,0,1.06,.15,.15,.34,.22,.53,.22s.38-.07,.53-.22l3-3c.21-.21,.28-.54,.16-.82s-.39-.46-.69-.46Z"/><path d="M21.57,9.45l-.62-1.24c-.3-.6-.9-.97-1.57-.97-.41,0-.75,.34-.75,.75s.34,.75,.75,.75c.1,0,.18,.05,.22,.14l.62,1.24s.03,.07,.03,.11v7.26c0,.41-.34,.75-.75,.75s-.75-.34-.75-.75v-3.5c0-.96-.79-1.75-1.75-1.75h-.25V5c0-.96-.79-1.75-1.75-1.75H5c-.96,0-1.75,.79-1.75,1.75v15.25h-.25c-.41,0-.75,.34-.75,.75s.34,.75,.75,.75h14c.41,0,.75-.34,.75-.75s-.34-.75-.75-.75h-.25v-6.5h.25c.14,0,.25,.11,.25,.25v3.5c0,1.24,1.01,2.25,2.25,2.25s2.25-1.01,2.25-2.25v-7.26c0-.27-.06-.54-.18-.78ZM5,4.75H15c.14,0,.25,.11,.25,.25v3.25H4.75v-3.25c0-.14,.11-.25,.25-.25Zm-.25,15.5V9.75H15.25v10.5H4.75Z"/></g></g></svg>