<?xml version="1.0" encoding="UTF-8"?><svg fill="currentColor" xmlns="http://www.w3.org/2000/svg" viewBox="0 0 24 24"><g id="q"><g><path d="M15,7.25c-.14,0-.25-.11-.25-.25v-.3c.57-.12,1-.6,1-1.2V3.5c0-.69-.56-1.25-1.25-1.25h-5c-.69,0-1.25,.56-1.25,1.25v2c0,.6,.43,1.08,1,1.2v.3c0,.14-.11,.25-.25,.25-2.07,0-3.75,1.68-3.75,3.75v7c0,2.07,1.68,3.75,3.75,3.75h6c2.07,0,3.75-1.68,3.75-3.75v-7c0-2.07-1.68-3.75-3.75-3.75Zm-5.25-3.5h4.5v1.5h-4.5v-1.5Zm7.5,14.25c0,1.24-1.01,2.25-2.25,2.25h-6c-1.24,0-2.25-1.01-2.25-2.25v-7c0-1.24,1.01-2.25,2.25-2.25,.96,0,1.75-.79,1.75-1.75v-.25h2.5v.25c0,.96,.79,1.75,1.75,1.75,1.24,0,2.25,1.01,2.25,2.25v7Z"/><path d="M15.25,14.29c-.39-.14-.82,.06-.96,.45-.09,.24-.32,.5-.71,.5h-1.24c-.41,0-.75,.34-.75,.75s.34,.75,.75,.75h1.24c.96,0,1.79-.59,2.12-1.5,.14-.39-.06-.82-.45-.96Z"/><path d="M10.34,15.21c-.22-.08-.39-.26-.46-.5-.04-.13-.08-.4,.12-.66l.45-.6c.25-.33,.18-.8-.15-1.05-.33-.25-.8-.18-1.05,.15l-.45,.6c-.44,.58-.57,1.31-.35,2,.21,.69,.73,1.24,1.4,1.47,.08,.03,.17,.04,.25,.04,.31,0,.6-.19,.71-.5,.14-.39-.07-.82-.46-.96Z"/><path d="M12.69,12.05l.8,1.07c.15,.2,.37,.3,.6,.3,.16,0,.31-.05,.45-.15,.33-.25,.4-.72,.15-1.05l-.8-1.07c-.66-.88-1.85-1.16-2.83-.65-.37,.19-.51,.64-.32,1.01,.19,.37,.64,.51,1.01,.32,.28-.14,.69-.12,.94,.22Z"/></g></g></svg>