<?xml version="1.0" encoding="UTF-8"?><svg fill="currentColor" xmlns="http://www.w3.org/2000/svg" viewBox="0 0 24 24"><g id="c"><g><path d="M19,5.25h-1.25v-.25c0-.41-.34-.75-.75-.75s-.75,.34-.75,.75v.25h-3.5v-.25c0-.41-.34-.75-.75-.75s-.75,.34-.75,.75v.25h-3.5v-.25c0-.41-.34-.75-.75-.75s-.75,.34-.75,.75v.25h-1.25c-1.52,0-2.75,1.23-2.75,2.75v9c0,1.52,1.23,2.75,2.75,2.75h14c1.52,0,2.75-1.23,2.75-2.75V8c0-1.52-1.23-2.75-2.75-2.75Zm1.25,11.75c0,.69-.56,1.25-1.25,1.25H5c-.69,0-1.25-.56-1.25-1.25V8c0-.69,.56-1.25,1.25-1.25h1.25v.25c0,.41,.34,.75,.75,.75s.75-.34,.75-.75v-.25h3.5v.25c0,.41,.34,.75,.75,.75s.75-.34,.75-.75v-.25h3.5v.25c0,.41,.34,.75,.75,.75s.75-.34,.75-.75v-.25h1.25c.69,0,1.25,.56,1.25,1.25v9Z"/><path d="M15.25,14.29c-.39-.14-.82,.06-.96,.45-.09,.24-.32,.5-.71,.5h-1.24c-.41,0-.75,.34-.75,.75s.34,.75,.75,.75h1.24c.96,0,1.79-.59,2.12-1.5,.14-.39-.06-.82-.45-.96Z"/><path d="M10.33,15.21c-.22-.08-.39-.26-.46-.49-.04-.13-.08-.4,.12-.67l.45-.6c.25-.33,.18-.8-.15-1.05-.33-.25-.8-.18-1.05,.15l-.45,.6c-.44,.58-.56,1.31-.35,2,.21,.69,.74,1.24,1.4,1.47,.08,.03,.17,.04,.25,.04,.31,0,.6-.19,.71-.5,.14-.39-.07-.82-.46-.96Z"/><path d="M12.69,12.05l.8,1.07c.15,.2,.37,.3,.6,.3,.16,0,.31-.05,.45-.15,.33-.25,.4-.72,.15-1.05l-.8-1.07c-.66-.88-1.85-1.15-2.83-.65-.37,.19-.51,.64-.32,1.01,.19,.37,.64,.51,1.01,.32,.28-.14,.69-.12,.94,.22Z"/></g></g></svg>