<?xml version="1.0" encoding="UTF-8"?><svg fill="currentColor" xmlns="http://www.w3.org/2000/svg" viewBox="0 0 24 24"><g id="m"><g><path d="M7,9.75h2.25v5.25c0,.41,.34,.75,.75,.75s.75-.34,.75-.75v-5.25h1.5v2.25c0,.41,.34,.75,.75,.75s.75-.34,.75-.75v-2.25h2.25c.41,0,.75-.34,.75-.75s-.34-.75-.75-.75h-.25V3c0-.41-.34-.75-.75-.75s-.75,.34-.75,.75v5.25h-5.5V3c0-.41-.34-.75-.75-.75s-.75,.34-.75,.75v5.25h-.25c-.41,0-.75,.34-.75,.75s.34,.75,.75,.75Z"/><path d="M3.34,18.67c1.21-.62,2.4-.94,3.66-.92,1.01,0,1.58,.21,2.25,.46,.7,.25,1.49,.54,2.75,.54s2.05-.29,2.75-.54c.67-.24,1.25-.45,2.25-.46,1.19-.01,2.45,.3,3.66,.92,.11,.06,.22,.08,.34,.08,.27,0,.54-.15,.67-.41,.19-.37,.04-.82-.33-1.01-1.41-.72-2.86-1.08-4.31-1.08h-.04c-1.27,0-2.06,.29-2.76,.55-.67,.24-1.24,.45-2.24,.45s-1.57-.21-2.24-.45c-.7-.25-1.49-.54-2.76-.55h-.04c-1.44,0-2.89,.36-4.31,1.08-.37,.19-.52,.64-.33,1.01,.19,.37,.64,.52,1.01,.33Z"/><path d="M21.34,20.33c-1.41-.72-2.86-1.08-4.31-1.08h-.04c-1.27,0-2.06,.29-2.76,.55-.67,.24-1.24,.45-2.24,.45s-1.57-.21-2.24-.45c-.7-.25-1.49-.54-2.76-.55h-.04c-1.44,0-2.89,.36-4.31,1.08-.37,.19-.52,.64-.33,1.01,.19,.37,.64,.52,1.01,.33,1.2-.61,2.42-.92,3.63-.92h.03c1.01,0,1.58,.21,2.25,.46,.7,.25,1.49,.54,2.75,.54s2.05-.29,2.75-.54c.67-.24,1.25-.45,2.25-.46,1.19-.03,2.45,.3,3.66,.92,.11,.06,.22,.08,.34,.08,.27,0,.54-.15,.67-.41,.19-.37,.04-.82-.33-1.01Z"/><path d="M15.26,14.63c.05,.37,.38,.64,.74,.64,.04,0,.07,0,.11,0,.41-.06,.69-.44,.63-.85,0-.05-.06-.49,.25-.83,.35-.39,.88-.32,.9-.32,.4,.06,.79-.22,.85-.63,.06-.41-.22-.79-.63-.85-.14-.02-1.36-.16-2.22,.79-.74,.81-.67,1.78-.63,2.06Z"/><path d="M6.11,13.64c.14,.09,.35,.25,.49,.51,.17,.31,.17,.62,.15,.78-.04,.41,.26,.78,.67,.82,.02,0,.05,0,.07,0,.38,0,.71-.29,.75-.68,.06-.56-.06-1.14-.33-1.64-.24-.44-.6-.81-1.03-1.08-.36-.21-.82-.1-1.03,.25-.22,.35-.1,.82,.25,1.03Z"/><path d="M13,13.25c-.41,0-.75,.34-.75,.75v1c0,.41,.34,.75,.75,.75s.75-.34,.75-.75v-1c0-.41-.34-.75-.75-.75Z"/></g></g></svg>