<?xml version="1.0" encoding="UTF-8"?><svg fill="currentColor" xmlns="http://www.w3.org/2000/svg" viewBox="0 0 24 24"><g id="h"><path d="M20.75,15.15v-3.65c0-.94-.58-1.74-1.39-2.08-1.12-3.65-4.49-6.17-8.36-6.17C6.17,3.25,2.25,7.17,2.25,12s3.92,8.75,8.75,8.75c1.72,0,3.39-.51,4.82-1.45,.19,.29,.42,.56,.71,.78,.57,.44,1.27,.67,1.98,.67,.29,0,.58-.04,.88-.12,1.07-.28,1.95-1.15,2.24-2.21,.34-1.2,0-2.44-.87-3.27ZM14.15,5.49c-.08,.33-.23,.71-.49,.85-.22,.12-.52,.05-1-.08-.57-.15-1.36-.36-2.07,.12-.63,.43-.75,1.08-.83,1.51-.05,.29-.08,.43-.15,.48-.33,.2-1.38-.19-2.06-.89-.43-.45-.64-.96-.74-1.37,1.19-.85,2.64-1.36,4.21-1.36,1.12,0,2.19,.27,3.15,.74ZM3.77,12.42c.37,.17,.75,.28,1.14,.33,.52,.06,.92,0,1.22-.06,.33-.06,.42-.06,.55,0,.43,.2,.7,.84,.64,1-.07,.06-.37,.17-.64,.26s-.59,.21-.97,.36c-.46,.19-.9,.4-1.34,.63-.35-.78-.55-1.63-.61-2.52Zm1.36,3.83c.38-.2,.76-.39,1.15-.55,.36-.14,.65-.25,.9-.33,.69-.24,1.24-.43,1.51-1.07,.42-.99-.26-2.46-1.38-2.97-.57-.26-1.05-.18-1.43-.11-.25,.04-.49,.08-.79,.05-.41-.05-.81-.21-1.2-.5,0,0-.01,0-.02,0,.24-1.35,.85-2.57,1.72-3.55,.19,.44,.46,.9,.88,1.33,.67,.69,1.84,1.39,2.91,1.39,.37,0,.72-.08,1.03-.28,.64-.4,.76-1.06,.83-1.49,.06-.35,.09-.47,.19-.53,.14-.1,.41-.03,.85,.08,.56,.15,1.33,.35,2.08-.04,.5-.26,.87-.73,1.11-1.38,1.02,.79,1.8,1.86,2.28,3.11-.51,.19-.94,.55-1.2,1.02-1.29-.52-2.28-.53-2.98-.02-.68,.48-.74,1.19-.8,1.77-.04,.46-.09,.94-.4,1.45-.47,.77-1.2,1.07-1.96,1.39-.82,.34-1.74,.72-2.1,1.74-.22,.6-.18,1.27,.11,2.01-1.32-.51-2.45-1.39-3.27-2.52Zm5.86,3c-.22,0-.43-.01-.64-.03-.42-.6-.85-1.4-.65-1.96,.14-.38,.55-.57,1.27-.87,.86-.36,1.94-.81,2.66-2,.5-.81,.57-1.55,.62-2.09,.04-.47,.07-.61,.18-.69,.11-.08,.55-.26,1.81,.3v3.24c-.63,.61-1,1.46-1,2.34,0,.11,.03,.21,.04,.32-1.24,.91-2.74,1.43-4.29,1.43Zm9.18-1.23c-.16,.56-.62,1.02-1.19,1.17-.56,.15-1.12,.04-1.56-.3-.43-.33-.68-.84-.68-1.39s.25-1.07,.7-1.4c.19-.14,.3-.36,.3-.6v-3.91c0-.05,.02-.1,.01-.15,.04-.38,.35-.68,.74-.68,.41,0,.75,.34,.75,.75v4c0,.24,.11,.46,.3,.6,.46,.35,.88,1.04,.63,1.92Z"/></g></svg>