<?xml version="1.0" encoding="UTF-8"?><svg fill="currentColor" xmlns="http://www.w3.org/2000/svg" viewBox="0 0 24 24"><g id="p"><path d="M6,5.75H14.37c.33,1.15,1.38,2,2.63,2h2c.41,0,.75-.34,.75-.75v-.25h1.25c.41,0,.75-.34,.75-.75s-.34-.75-.75-.75h-1.25v-.5h1.25c.41,0,.75-.34,.75-.75s-.34-.75-.75-.75h-1.25v-.25c0-.41-.34-.75-.75-.75h-2c-1.25,0-2.3,.85-2.63,2H6c-2.07,0-3.75,1.68-3.75,3.75v10c0,.96,.79,1.75,1.75,1.75h.37c.33,1.15,1.38,2,2.63,2s2.3-.85,2.63-2h3.73c.33,1.15,1.38,2,2.63,2s2.3-.85,2.63-2h1.37c.96,0,1.75-.79,1.75-1.75v-1c0-2.07-1.68-3.75-3.75-3.75h-.63l-1.88-2.5c-.7-.94-1.83-1.5-3-1.5H3.75v-1.25c0-1.24,1.01-2.25,2.25-2.25Zm11-2h1.25v2.5h-1.25c-.69,0-1.25-.56-1.25-1.25s.56-1.25,1.25-1.25ZM3.75,10.75h3.5v2.25c0,.14-.11,.25-.25,.25H3.75v-2.5Zm3.25,9.5c-.69,0-1.25-.56-1.25-1.25s.56-1.25,1.25-1.25,1.25,.56,1.25,1.25-.56,1.25-1.25,1.25Zm9,0c-.69,0-1.25-.56-1.25-1.25s.56-1.25,1.25-1.25,1.25,.56,1.25,1.25-.56,1.25-1.25,1.25Zm4.25-3.25v1c0,.14-.11,.25-.25,.25h-1.37c-.33-1.15-1.38-2-2.63-2s-2.3,.85-2.63,2h-3.73c-.33-1.15-1.38-2-2.63-2s-2.3,.85-2.63,2h-.37c-.14,0-.25-.11-.25-.25v-3.25h3.25c.96,0,1.75-.79,1.75-1.75v-2.25h1.5v2.25c0,.96,.79,1.75,1.75,1.75h6c1.24,0,2.25,1.01,2.25,2.25Zm-5.95-5.35l1.2,1.6h-3.5c-.14,0-.25-.11-.25-.25v-2.25h.75c.7,0,1.38,.34,1.8,.9Z"/></g></svg>