<?xml version="1.0" encoding="UTF-8"?><svg fill="currentColor" xmlns="http://www.w3.org/2000/svg" viewBox="0 0 24 24"><g id="i"><g><path d="M7,10.62c.09,0,.17-.01,.26-.05l3.54-1.3c.31,.3,.74,.48,1.2,.48s.89-.19,1.2-.48l3.54,1.3c.08,.03,.17,.05,.26,.05,.31,0,.59-.19,.7-.49,.14-.39-.06-.82-.45-.96l-3.52-1.3c-.05-.64-.44-1.18-.99-1.44V3c0-.41-.34-.75-.75-.75s-.75,.34-.75,.75v3.43c-.55,.26-.94,.8-.99,1.44l-3.52,1.3c-.39,.14-.59,.57-.44,.96,.11,.3,.4,.49,.7,.49Zm4.75-2.62c0-.14,.11-.25,.25-.25s.25,.11,.25,.25c0,.28-.5,.28-.5,0Z"/><path d="M17.25,12v1.54l-1.58,.79c-.37,.19-.52,.64-.34,1.01,.19,.37,.63,.52,1.01,.34l1.67-.83,1.67,.83c.11,.05,.22,.08,.33,.08,.28,0,.54-.15,.67-.42,.19-.37,.04-.82-.34-1.01l-1.58-.79v-1.54c0-.41-.34-.75-.75-.75s-.75,.34-.75,.75Z"/><path d="M4.34,15.67l1.66-.83,1.66,.83c.11,.05,.22,.08,.33,.08,.27,0,.54-.15,.67-.42,.19-.37,.04-.82-.34-1.01l-1.59-.79v-1.54c0-.41-.34-.75-.75-.75s-.75,.34-.75,.75v1.54l-1.59,.79c-.37,.19-.52,.64-.34,1.01,.19,.37,.64,.52,1.01,.34Z"/><path d="M18.72,19.14s.03-.09,.03-.14v-2c0-.41-.34-.75-.75-.75s-.75,.34-.75,.75v1.38c-1.77-.78-3.4-1.03-4.5-1.1v-6.28c0-.41-.34-.75-.75-.75s-.75,.34-.75,.75v6.3c-1.75,.11-3.27,.54-4.5,1.09v-1.39c0-.41-.34-.75-.75-.75s-.75,.34-.75,.75v2c0,.06,.02,.11,.03,.16-.79,.48-1.4,.95-1.78,1.28-.31,.27-.34,.75-.07,1.06,.27,.31,.75,.34,1.06,.07,.97-.85,3.64-2.82,7.51-2.82,1.29,0,4.6,.27,7.51,2.82,.14,.12,.32,.18,.49,.18,.21,0,.42-.09,.57-.26,.27-.31,.24-.79-.07-1.06-.58-.51-1.18-.93-1.77-1.29Z"/></g></g></svg>