<?xml version="1.0" encoding="UTF-8"?><svg fill="currentColor" xmlns="http://www.w3.org/2000/svg" viewBox="0 0 24 24"><g id="e"><path d="M12.13,2.25c-2.11-.05-4.07,.76-5.56,2.22-1.49,1.47-2.31,3.43-2.31,5.52,0,2.74,1.47,5.31,3.84,6.69,.04,.02,.16,.1,.16,.23v2.07c0,1.52,1.23,2.75,2.75,2.75h2c1.52,0,2.75-1.23,2.75-2.75v-2.07c0-.09,.06-.18,.16-.23,2.47-1.45,3.94-4.12,3.83-6.98-.15-4.05-3.57-7.39-7.62-7.46Zm.87,18h-2c-.69,0-1.25-.56-1.25-1.25v-.25h4.5v.25c0,.69-.56,1.25-1.25,1.25Zm-1-9.14c-.41,0-.75,.34-.75,.75v1c-.34-.27-.56-.74-.51-1.24,.09-.88,.38-1.66,.86-2.3,.12-.16,.25-.32,.4-.46,.15,.14,.28,.3,.4,.46,.48,.64,.77,1.41,.86,2.29,.04,.38-.08,.76-.31,1.05-.06,.07-.13,.11-.2,.16v-.96c0-.41-.34-.75-.75-.75Zm3.15,4.29c-.57,.33-.9,.9-.9,1.53v.32h-1.5v-2.75c.53-.15,1-.46,1.36-.9,.49-.59,.72-1.38,.64-2.15-.12-1.16-.5-2.18-1.15-3.04-.23-.31-.49-.59-.79-.85h0c-.46-.41-1.16-.41-1.63,0-.29,.26-.56,.54-.79,.85-.65,.87-1.04,1.89-1.15,3.05-.14,1.43,.72,2.7,2,3.04v2.75h-1.5v-.32c0-.63-.34-1.2-.9-1.53-1.91-1.12-3.1-3.19-3.1-5.4,0-1.69,.66-3.27,1.87-4.46,1.18-1.16,2.73-1.79,4.38-1.79,.03,0,.07,0,.1,0,3.27,.05,6.02,2.75,6.14,6.01,.08,2.31-1.1,4.47-3.09,5.63Z"/></g></svg>