<?xml version="1.0" encoding="UTF-8"?><svg fill="currentColor" xmlns="http://www.w3.org/2000/svg" viewBox="0 0 24 24"><g id="t"><path d="M20.5,12.25h-1.5c-.8,0-1.51,.35-2.02,.89-.34-.59-.78-1.12-1.3-1.55l-.37-1.84h2.69c1.52,0,2.75-1.23,2.75-2.75v-2c0-.96-.79-1.75-1.75-1.75H5c-.96,0-1.75,.79-1.75,1.75v2c0,1.52,1.23,2.75,2.75,2.75h2.69l-.37,1.84c-.52,.44-.96,.96-1.3,1.55-.5-.55-1.22-.89-2.02-.89h-1.5c-.69,0-1.25,.56-1.25,1.25v5c0,.69,.56,1.25,1.25,1.25h1.5c.8,0,1.51-.35,2.02-.89,.99,1.73,2.85,2.89,4.98,2.89s3.99-1.17,4.98-2.89c.5,.55,1.22,.89,2.02,.89h1.5c.69,0,1.25-.56,1.25-1.25v-5c0-.69-.56-1.25-1.25-1.25ZM4.75,7v-2c0-.14,.11-.25,.25-.25h14c.14,0,.25,.11,.25,.25v2c0,.69-.56,1.25-1.25,1.25h-3.04c-.48-1.19-1.64-2-2.96-2s-2.48,.81-2.96,2h-3.04c-.69,0-1.25-.56-1.25-1.25Zm5.59,2.11c.16-.79,.85-1.36,1.66-1.36s1.5,.57,1.66,1.36l.3,1.49c-.61-.22-1.27-.35-1.96-.35s-1.34,.13-1.96,.35l.3-1.49Zm-4.09,7.89c0,.69-.56,1.25-1.25,1.25h-1.25v-4.5h1.25c.69,0,1.25,.56,1.25,1.25v2Zm5.75,3.25c-2.34,0-4.25-1.91-4.25-4.25s1.91-4.25,4.25-4.25,4.25,1.91,4.25,4.25-1.91,4.25-4.25,4.25Zm8.25-2h-1.25c-.69,0-1.25-.56-1.25-1.25v-2c0-.69,.56-1.25,1.25-1.25h1.25v4.5Z"/></g></svg>