<?xml version="1.0" encoding="UTF-8"?><svg fill="currentColor" xmlns="http://www.w3.org/2000/svg" viewBox="0 0 24 24"><g id="b"><path d="M19.84,8.83c-.05-.33-.3-.59-.63-.64-.54-.08-1.09-.08-1.63,0-.67,.1-1.31,.31-1.92,.65-.69,.38-1.18,1.03-1.35,1.79-.12,.52-.07,1.05,.13,1.52l-1.7,1.32v-3.79c1.71-.35,3-1.86,3-3.67v-1c0-.41-.34-.75-.75-.75h-.25v-1.25c0-.41-.34-.75-.75-.75s-.75,.34-.75,.75v1.25h-2.5v-1.25c0-.41-.34-.75-.75-.75s-.75,.34-.75,.75v1.25h-.25c-.41,0-.75,.34-.75,.75v1c0,1.81,1.29,3.33,3,3.67v3.79l-1.7-1.33c.17-.43,.24-.89,.17-1.37-.13-.82-.61-1.52-1.33-1.91-.62-.34-1.27-.56-1.94-.66-.54-.08-1.09-.08-1.63,0-.33,.05-.59,.31-.63,.64-.08,.55-.08,1.09,0,1.63,.09,.62,.29,1.23,.59,1.8,.39,.76,1.12,1.3,1.96,1.44,.15,.03,.31,.04,.46,.04,.51,0,1-.16,1.43-.44l2.49,1.94H7c-.41,0-.75,.34-.75,.75s.34,.75,.75,.75h.39l.88,4.4c.07,.35,.38,.6,.74,.6h6c.36,0,.67-.25,.74-.6l.88-4.4h.39c.41,0,.75-.34,.75-.75s-.34-.75-.75-.75h-4.1l2.51-1.95c.43,.29,.92,.45,1.44,.45,.15,0,.3-.01,.45-.04,.83-.14,1.53-.64,1.92-1.38,.32-.59,.53-1.22,.62-1.87,.08-.54,.08-1.08,0-1.63Zm-10.09-2.83v-.25h4.5v.25c0,1.24-1.01,2.25-2.25,2.25s-2.25-1.01-2.25-2.25Zm-2.76,6.23c-.38-.07-.71-.31-.88-.66-.22-.42-.37-.87-.43-1.33-.03-.2-.04-.4-.04-.61,.21,.01,.41,.01,.61,.04,.49,.07,.98,.24,1.43,.49,.31,.17,.51,.47,.57,.83,0,.04,0,.08,0,.11l-.38-.29c-.33-.26-.8-.2-1.05,.13-.25,.33-.2,.8,.13,1.05l.31,.24c-.1,0-.2,0-.26-.01Zm7.4,8.02h-4.77l-.7-3.5h6.17l-.7,3.5Zm3.98-10c-.07,.48-.22,.94-.46,1.38-.17,.33-.48,.55-.85,.61-.07,.01-.17,.02-.28,0l.29-.22c.33-.25,.39-.73,.13-1.05-.25-.33-.72-.39-1.05-.13l-.37,.29c0-.05,0-.11,0-.16,.07-.33,.3-.63,.61-.8,.45-.25,.92-.41,1.41-.48,.2-.03,.4-.04,.6-.04h0c0,.21-.01,.41-.04,.61Z"/></g></svg>