<?xml version="1.0" encoding="UTF-8"?><svg fill="currentColor" xmlns="http://www.w3.org/2000/svg" viewBox="0 0 24 24"><g id="k"><g><path d="M17.74,17.21l-2.45-2.86c-.35-.41-.54-.93-.54-1.46v-3.14h.25c.41,0,.75-.34,.75-.75s-.34-.75-.75-.75h-6c-.41,0-.75,.34-.75,.75s.34,.75,.75,.75h.25v3.14c0,.54-.19,1.06-.54,1.46l-2.45,2.86c-.71,.83-.86,1.95-.41,2.94s1.41,1.6,2.5,1.6h7.3c1.09,0,2.04-.61,2.5-1.6s.3-2.11-.41-2.94Zm-4.49-7.46v3.14c0,.47,.09,.93,.26,1.36h-3.02c.17-.43,.26-.89,.26-1.36v-3.14h2.5Zm3.54,9.77c-.21,.46-.63,.73-1.14,.73h-7.3c-.5,0-.93-.27-1.14-.73-.21-.46-.14-.96,.19-1.34l2.09-2.44h5.02l2.09,2.44c.33,.38,.4,.88,.19,1.34Z"/><path d="M6.63,5.67c.31,.96,1.15,1.75,2.14,2,.21,.05,.43,.08,.64,.08,.57,0,1.1-.21,1.55-.63,0,0,.06-.07,.07-.08,.51-.56,.67-1.34,.46-2.14-.26-.98-1.02-1.78-1.98-2.1-.24-.08-.5-.15-.77-.21-.58-.13-1.17-.18-1.74-.16-.4,.01-.71,.33-.73,.73-.02,.58,.04,1.16,.16,1.74,.06,.27,.13,.53,.21,.77Zm1.78-1.61c.22,.05,.43,.11,.62,.17,.48,.16,.87,.57,1,1.06,.05,.18,.09,.51-.17,.8-.23,.21-.55,.17-.72,.12-.41-.1-.9-.46-1.08-1.01-.06-.2-.12-.4-.17-.62-.04-.21-.08-.42-.1-.62,.21,.02,.42,.06,.62,.1Z"/><path d="M12.94,7.19c.4,.37,.91,.56,1.47,.56,.21,0,.43-.03,.65-.08,.98-.25,1.82-1.04,2.14-2,.08-.24,.15-.5,.21-.77,.13-.58,.18-1.17,.16-1.74-.01-.4-.33-.71-.73-.73-.58-.02-1.16,.04-1.74,.16-.27,.06-.53,.13-.78,.21-.96,.32-1.72,1.12-1.98,2.1-.21,.8-.05,1.58,.46,2.14l.14,.14Zm.85-1.9c.13-.49,.52-.9,1-1.06,.2-.06,.4-.12,.63-.17,.21-.04,.42-.08,.62-.1-.02,.21-.06,.42-.1,.62-.05,.22-.1,.42-.17,.62-.18,.55-.68,.91-1.08,1.01-.17,.05-.49,.09-.77-.17-.22-.24-.17-.58-.12-.75Z"/></g></g></svg>