<?xml version="1.0" encoding="UTF-8"?><svg fill="currentColor" xmlns="http://www.w3.org/2000/svg" viewBox="0 0 24 24"><g id="g"><g><path d="M20.5,12.25H3c-.41,0-.75,.34-.75,.75v3c0,.41,.34,.75,.75,.75H20.5c.69,0,1.25-.56,1.25-1.25v-2c0-.69-.56-1.25-1.25-1.25Zm-14.75,1.5H14.25v1.5H5.75v-1.5Zm14.5,1.5h-4.5v-1.5h4.5v1.5Z"/><path d="M5.65,10.66c.11,.06,.23,.09,.35,.09,.27,0,.53-.15,.67-.4,.45-.86,.99-1.41,1.61-1.65,.61-.23,1.18-.13,1.91,0,.84,.15,1.79,.33,3,.02,.81-.2,1.58-.59,2.28-1.14,.33-.26,.38-.73,.13-1.05-.26-.33-.73-.39-1.05-.13-.54,.42-1.12,.71-1.72,.86-.9,.22-1.61,.09-2.37-.04-.84-.15-1.72-.31-2.72,.07-.97,.37-1.77,1.16-2.39,2.35-.19,.37-.05,.82,.32,1.01Z"/><path d="M2.8,10.72c.07,.02,.13,.03,.2,.03,.33,0,.63-.22,.72-.55,.18-.64,.47-1.22,.87-1.74,.25-.33,.2-.8-.13-1.05-.33-.26-.8-.2-1.05,.13-.52,.67-.9,1.43-1.13,2.26-.11,.4,.12,.81,.52,.92Z"/></g></g></svg>