<?xml version="1.0" encoding="UTF-8"?><svg fill="currentColor" xmlns="http://www.w3.org/2000/svg" viewBox="0 0 24 24"><g id="r"><g><path d="M21.1,10.95c-.21-.43-.64-.7-1.12-.7h-1.94l1.45-4.35c.13-.38,.06-.8-.17-1.13-.23-.33-.61-.52-1.01-.52h-2.96c-.52,0-.99,.33-1.17,.81l-2.63,7c-.14,.38-.09,.81,.14,1.15s.62,.54,1.03,.54h1.41l-.61,4.28c-.08,.57,.22,1.1,.75,1.33,.16,.07,.33,.1,.5,.1,.37,0,.73-.17,.98-.49l5.22-6.71c.3-.38,.35-.88,.14-1.32Zm-5.96,6.36l.6-4.2c.03-.22-.03-.43-.18-.6-.14-.16-.35-.26-.57-.26h-1.92l2.44-6.5h2.44l-1.67,5.01c-.08,.23-.04,.48,.1,.68,.14,.2,.37,.31,.61,.31h2.47l-4.32,5.56Z"/><path d="M12,17.25c-2.89,0-5.25-2.35-5.25-5.25s2.36-5.25,5.25-5.25c.41,0,.75-.34,.75-.75s-.34-.75-.75-.75c-3.72,0-6.75,3.03-6.75,6.75s3.03,6.75,6.75,6.75c.41,0,.75-.34,.75-.75s-.34-.75-.75-.75Z"/><path d="M12,4.75c.41,0,.75-.34,.75-.75v-1c0-.41-.34-.75-.75-.75s-.75,.34-.75,.75v1c0,.41,.34,.75,.75,.75Z"/><path d="M12,19.25c-.41,0-.75,.34-.75,.75v1c0,.41,.34,.75,.75,.75s.75-.34,.75-.75v-1c0-.41-.34-.75-.75-.75Z"/><path d="M4,11.25h-1c-.41,0-.75,.34-.75,.75s.34,.75,.75,.75h1c.41,0,.75-.34,.75-.75s-.34-.75-.75-.75Z"/><path d="M5.47,6.53c.15,.15,.34,.22,.53,.22s.38-.07,.53-.22c.29-.29,.29-.77,0-1.06l-.71-.71c-.29-.29-.77-.29-1.06,0s-.29,.77,0,1.06l.71,.71Z"/><path d="M5.47,17.47l-.71,.71c-.29,.29-.29,.77,0,1.06,.15,.15,.34,.22,.53,.22s.38-.07,.53-.22l.71-.71c.29-.29,.29-.77,0-1.06s-.77-.29-1.06,0Z"/></g></g></svg>