<?xml version="1.0" encoding="UTF-8"?><svg fill="currentColor" xmlns="http://www.w3.org/2000/svg" viewBox="0 0 24 24"><g id="u"><path d="M18.38,15.02c-.94-.55-1.8-1.19-2.57-1.89,.52-.17,1.03-.38,1.52-.62,.24-.12,.4-.37,.42-.64,.01-.27-.13-.53-.36-.67-.91-.56-1.72-1.21-2.42-1.94,.47-.16,.94-.35,1.38-.59,.23-.12,.38-.36,.4-.63,.01-.26-.12-.52-.34-.66-1.13-.74-2.07-1.68-2.78-2.78-.37-.58-.69-1.2-.93-1.85-.11-.29-.39-.49-.7-.49s-.6,.2-.7,.49c-.24,.65-.55,1.27-.93,1.85-.72,1.1-1.65,2.04-2.78,2.78-.22,.15-.35,.4-.34,.66,.01,.26,.16,.5,.4,.63,.44,.24,.91,.42,1.38,.59-.7,.74-1.51,1.39-2.42,1.95-.23,.14-.37,.4-.36,.67,.01,.27,.17,.52,.42,.64,.49,.24,1,.44,1.53,.61-.77,.71-1.63,1.35-2.57,1.9-.24,.14-.38,.4-.37,.68,.01,.28,.18,.53,.43,.65,1.23,.58,3.15,1.26,5.57,1.38v3.28c0,.41,.34,.75,.75,.75s.75-.34,.75-.75v-3.27c1.49-.08,3.49-.4,5.57-1.38,.25-.12,.42-.37,.43-.65,.01-.28-.13-.54-.37-.68Zm-6.38,1.23c-1.74,0-3.23-.33-4.38-.73,.83-.59,1.58-1.25,2.26-1.97,.46,.08,.91,.15,1.38,.17,.02,0,.03,0,.05,0,.39,0,.72-.31,.75-.7,.03-.41-.29-.77-.7-.79-.95-.06-1.89-.25-2.78-.55,.79-.6,1.48-1.29,2.11-2.03,.19,.03,.39,.06,.58,.08,.02,0,.04,0,.06,0,.39,0,.71-.3,.75-.69,.03-.41-.27-.77-.69-.81-.64-.05-1.27-.19-1.88-.39,.83-.7,1.55-1.51,2.14-2.42,.13-.2,.25-.41,.37-.62,.12,.21,.24,.42,.37,.62,.59,.91,1.31,1.72,2.14,2.42-.34,.12-.68,.21-1.03,.28,0,0-.02,0-.02,0-.05,.01-.09,.04-.14,.06-.05,.02-.09,.04-.13,.07,0,0-.02,0-.02,.01-.03,.02-.04,.05-.07,.08-.04,.04-.08,.08-.11,.12-.03,.04-.04,.08-.05,.13-.02,.05-.04,.09-.05,.14,0,.05,0,.1,0,.16,0,.04,0,.07,0,.11,0,0,0,.02,0,.02,.01,.05,.04,.09,.06,.13,.02,.05,.04,.1,.07,.14,0,0,0,.02,.01,.02,.69,.88,1.49,1.68,2.41,2.37-.4,.14-.81,.25-1.22,.34-.02,0-.03,.01-.04,.02-.05,.01-.09,.04-.13,.06-.05,.02-.09,.04-.13,.08-.01,0-.03,.01-.04,.02-.02,.02-.04,.05-.06,.08-.03,.04-.07,.08-.09,.12-.02,.04-.04,.09-.05,.13-.01,.04-.03,.09-.03,.14,0,.05,0,.1,0,.16,0,.03,0,.06,0,.09,0,.02,.01,.03,.02,.05,.01,.04,.03,.07,.04,.1,.02,.05,.05,.1,.09,.15,.01,.02,.02,.03,.03,.05,.75,.84,1.61,1.6,2.56,2.27-1.71,.59-3.28,.73-4.38,.73Z"/></g></svg>