<?xml version="1.0" encoding="UTF-8"?><svg fill="currentColor" xmlns="http://www.w3.org/2000/svg" viewBox="0 0 24 24"><g id="l"><g><path d="M4.5,9.86c.13,.13,.26,.25,.41,.36,.6,.46,1.32,.7,2.08,.7,.2,0,.41-.02,.62-.05,1.04-.18,1.96-.78,2.54-1.65,.5-.76,.92-1.58,1.25-2.44,.38-1.01,.62-2.07,.71-3.15h0c.03-.38-.1-.74-.36-1-.26-.26-.63-.39-1-.36-1.08,.1-2.14,.34-3.15,.71-.86,.32-1.68,.74-2.44,1.24-.88,.58-1.48,1.51-1.65,2.54-.1,.6-.04,1.19,.15,1.73-1.63,1.64-1.86,4.24-.56,6.2l.42,.64c.95,1.42,2.52,2.21,4.14,2.21,.75,0,1.5-.17,2.21-.52l.68-.34c.37-.19,.52-.64,.34-1.01-.19-.37-.64-.52-1.01-.34l-.68,.34c-1.56,.78-3.46,.27-4.43-1.18l-.42-.64c-.84-1.25-.76-2.87,.14-4.02,0,0,.01,.02,.02,.03Zm1.48-4.39c.67-.44,1.39-.81,2.14-1.09,.79-.3,1.62-.49,2.46-.59-.1,.84-.3,1.67-.59,2.46-.28,.75-.65,1.47-1.09,2.14-.35,.53-.91,.9-1.54,1-.56,.1-1.11-.03-1.54-.36-.09-.07-.17-.14-.25-.21,.59-.45,1.22-.83,1.92-1.11,.38-.16,.57-.6,.41-.98-.16-.38-.6-.57-.98-.41-.7,.29-1.35,.66-1.96,1.09,0-.13,0-.26,.03-.39,.11-.63,.47-1.19,1-1.54Z"/><path d="M20.91,9.31l-.42-.64c-1.39-2.08-4.11-2.8-6.35-1.69l-.68,.34c-.37,.19-.52,.64-.34,1.01,.19,.37,.63,.52,1.01,.34l.68-.34c1.56-.78,3.46-.27,4.43,1.18l.42,.64c.84,1.25,.76,2.87-.14,4.02,0,0-.01-.02-.02-.03-.13-.13-.26-.25-.41-.36-.76-.58-1.72-.81-2.7-.64-1.04,.18-1.96,.78-2.54,1.65-.5,.76-.92,1.58-1.25,2.44-.38,1.01-.62,2.07-.71,3.15h0c-.03,.38,.1,.74,.36,1,.24,.23,.55,.36,.88,.36,.04,0,.08,0,.11,0,1.08-.1,2.14-.34,3.15-.71,.86-.32,1.68-.74,2.44-1.24,.88-.58,1.48-1.51,1.65-2.54,.1-.6,.04-1.19-.15-1.73,1.63-1.64,1.86-4.24,.56-6.2Zm-2.89,9.22c-.67,.44-1.39,.81-2.14,1.09-.79,.3-1.62,.49-2.46,.59,.1-.84,.3-1.67,.59-2.46,.28-.75,.65-1.47,1.09-2.14,.35-.53,.91-.9,1.54-1,.12-.02,.24-.03,.36-.03,.43,0,.84,.13,1.18,.39,.09,.07,.17,.14,.25,.21-.59,.45-1.22,.83-1.92,1.11-.38,.16-.57,.6-.41,.98,.12,.29,.4,.46,.69,.46,.1,0,.19-.02,.29-.06,.7-.29,1.35-.66,1.96-1.09,0,.13,0,.26-.03,.39-.11,.63-.47,1.19-1,1.54Z"/></g></g></svg>