<?xml version="1.0" encoding="UTF-8"?><svg fill="currentColor" xmlns="http://www.w3.org/2000/svg" viewBox="0 0 24 24"><g id="d"><path d="M19.5,18.25h-1.5c-.14,0-.25-.11-.25-.25v-6c0-.57-.17-1.1-.47-1.54,.16-.1,.32-.21,.48-.34,.43-.37,.7-.8,.87-1.18,.21,.06,.43,.1,.65,.1s.47-.03,.7-.11c.82-.25,1.43-.89,1.63-1.72,.05-.22,.1-.46,.13-.71,.07-.53,.07-1.06,0-1.6-.04-.34-.31-.61-.65-.65-.54-.07-1.07-.07-1.6,0-.25,.03-.48,.08-.7,.13-.83,.2-1.49,.83-1.74,1.66-.2,.67-.08,1.36,.32,1.96-.07,.28-.23,.67-.6,.99-.3,.26-.63,.37-.89,.42-.28-.1-.58-.16-.89-.16h-7c-1.52,0-2.75,1.23-2.75,2.75v6c0,.14-.11,.25-.25,.25h-.5c-1.24,0-2.25,1.01-2.25,2.25,0,.69,.56,1.25,1.25,1.25H20.5c.69,0,1.25-.56,1.25-1.25,0-1.24-1.01-2.25-2.25-2.25Zm-1.01-11.78c.09-.32,.34-.55,.65-.63,.17-.04,.35-.08,.54-.1,.2-.03,.41-.04,.61-.04h0c0,.21-.01,.41-.04,.62-.02,.19-.06,.37-.1,.54-.07,.31-.3,.54-.61,.64-.14,.04-.5,.11-.88-.24-.28-.3-.22-.65-.18-.79Zm-10.49,4.28h7c.69,0,1.25,.56,1.25,1.25s-.56,1.25-1.25,1.25h-7c-.69,0-1.25-.56-1.25-1.25s.56-1.25,1.25-1.25Zm7.75,9.5v-2.25c0-.41-.34-.75-.75-.75s-.75,.34-.75,.75v2.25h-.5v-1.25c0-.41-.34-.75-.75-.75s-.75,.34-.75,.75v1.25H3.79c.1-.29,.38-.5,.71-.5h.5c.96,0,1.75-.79,1.75-1.75v-3.56c.38,.19,.8,.31,1.25,.31h.25v2.25c0,.41,.34,.75,.75,.75s.75-.34,.75-.75v-2.25h.5v1.25c0,.41,.34,.75,.75,.75s.75-.34,.75-.75v-1.25h3.25c.45,0,.87-.12,1.25-.31v3.56c0,.96,.79,1.75,1.75,1.75h1.5c.33,0,.6,.21,.71,.5h-4.46Z"/></g></svg>