<?xml version="1.0" encoding="UTF-8"?><svg fill="currentColor" xmlns="http://www.w3.org/2000/svg" viewBox="0 0 24 24"><g id="l"><g><circle cx="12" cy="16" r="3.25"/><path d="M20.97,5.91l-2.44-2.44c-.16-.16-.39-.24-.62-.21-.23,.03-.43,.15-.55,.35l-4.81,7.7c2.13,.25,3.83,1.9,4.13,4.02l4.53-7.25c.43-.7,.33-1.59-.25-2.17Z"/><path d="M6.64,3.6c-.12-.19-.32-.32-.55-.35-.23-.03-.45,.05-.62,.21l-2.44,2.44c-.58,.58-.68,1.47-.25,2.17l4.53,7.25c.31-2.12,2-3.77,4.13-4.02L6.64,3.6Z"/><polygon points="12.38 8.75 15.82 3.25 8.18 3.25 11.62 8.75 12.38 8.75"/></g></g></svg>