<?xml version="1.0" encoding="UTF-8"?><svg fill="currentColor" xmlns="http://www.w3.org/2000/svg" viewBox="0 0 24 24"><g id="f"><g><circle cx="12" cy="5" r="2.75"/><path d="M8.5,14.75h.75v3.25c0,.41,.34,.75,.75,.75h4c.41,0,.75-.34,.75-.75v-3.25h.75c.69,0,1.25-.56,1.25-1.25v-3.5c0-.96-.79-1.75-1.75-1.75h-6c-.96,0-1.75,.79-1.75,1.75v3.5c0,.69,.56,1.25,1.25,1.25Z"/><path d="M17.71,20.76l-.77-2.32c-.13-.38-.38-.68-.69-.89v.45c0,1.24-1.01,2.25-2.25,2.25h-4c-1.24,0-2.25-1.01-2.25-2.25v-.45c-.31,.21-.56,.52-.69,.89l-.77,2.32c-.08,.23-.04,.48,.1,.68s.37,.31,.61,.31h10c.24,0,.47-.12,.61-.31s.18-.45,.1-.68Z"/></g></g></svg>