<?xml version="1.0" encoding="UTF-8"?><svg fill="currentColor" xmlns="http://www.w3.org/2000/svg" viewBox="0 0 24 24"><g id="t"><g><path d="M12.64,10.19l-.64-1.3-.64,1.3c-.2,.41-.59,.69-1.04,.76l-1.43,.21,1.04,1.01c.33,.32,.48,.78,.4,1.22l-.24,1.43,1.28-.67c.2-.11,.42-.16,.64-.16s.44,.05,.64,.16l1.28,.67-.24-1.43c-.08-.45,.07-.91,.4-1.23l1.04-1.01-1.43-.21c-.45-.06-.84-.35-1.04-.76Z"/><path d="M18.09,4.65l-5-2.17c-.69-.3-1.48-.3-2.17,0l-5,2.17c-1.01,.44-1.66,1.44-1.66,2.55v4.74c0,1.11,.23,4.94,3.25,7.65,1.08,.97,2.35,1.66,3.78,2.06,.23,.07,.48,.1,.72,.1s.48-.03,.72-.1c1.43-.4,2.71-1.1,3.78-2.06,3.02-2.71,3.25-6.54,3.25-7.65V7.2c0-1.11-.65-2.11-1.66-2.55Zm-1.76,7.42l-1.16,1.13,.27,1.6c.09,.52-.12,1.04-.55,1.35s-.99,.35-1.46,.1l-1.44-.75-1.44,.75c-.2,.11-.43,.16-.65,.16-.29,0-.57-.09-.81-.27-.43-.31-.64-.83-.55-1.35l.27-1.6-1.16-1.13c-.38-.37-.51-.91-.35-1.42s.59-.87,1.12-.94l1.61-.23,.72-1.45c.23-.48,.71-.77,1.24-.77s1.01,.3,1.24,.77l.72,1.45,1.61,.23c.53,.08,.95,.44,1.12,.94s.03,1.05-.35,1.42Z"/></g></g></svg>