<?xml version="1.0" encoding="UTF-8"?><svg fill="currentColor" xmlns="http://www.w3.org/2000/svg" viewBox="0 0 24 24"><g id="s"><g><circle cx="12" cy="14" r="3.75"/><path d="M19,3.25H5c-1.52,0-2.75,1.23-2.75,2.75v7c0,1.52,1.23,2.75,2.75,2.75h2.07c-.2-.55-.32-1.13-.32-1.75,0-2.9,2.35-5.25,5.25-5.25s5.25,2.35,5.25,5.25c0,.62-.13,1.2-.32,1.75h2.07c1.52,0,2.75-1.23,2.75-2.75V6c0-1.52-1.23-2.75-2.75-2.75Z"/><path d="M9.25,18.45v2.55c0,.26,.13,.5,.36,.64,.22,.14,.5,.15,.73,.03l1.66-.83,1.67,.83c.11,.05,.22,.08,.33,.08,.14,0,.27-.04,.39-.11,.22-.14,.36-.38,.36-.64v-2.55c-.8,.5-1.74,.8-2.75,.8s-1.95-.3-2.75-.8Z"/></g></g></svg>