<?xml version="1.0" encoding="UTF-8"?><svg fill="currentColor" xmlns="http://www.w3.org/2000/svg" viewBox="0 0 24 24"><g id="q"><g><path d="M8.26,18.12c.06,.36,.37,.63,.74,.63h6c.38,0,.69-.28,.74-.65l2-15c.05-.36-.17-.7-.51-.81-.34-.11-.72,.03-.89,.35-.45,.82-1.28,1.95-2.69,2.7-2.84,1.5-5.77,.25-6.33-.01-.25-.12-.55-.09-.77,.08-.22,.17-.33,.45-.29,.72l2,12Zm2.74-8.87h2c.41,0,.75,.34,.75,.75s-.34,.75-.75,.75h-2c-.41,0-.75-.34-.75-.75s.34-.75,.75-.75Z"/><path d="M17.29,17.83l-.06,.47c-.15,1.11-1.11,1.95-2.23,1.95h-6c-1.1,0-2.04-.79-2.22-1.88l-.09-.52c-.27,.31-.44,.71-.44,1.15v2c0,.41,.34,.75,.75,.75h10c.41,0,.75-.34,.75-.75v-2c0-.45-.18-.86-.46-1.17Z"/></g></g></svg>