<?xml version="1.0" encoding="UTF-8"?><svg fill="currentColor" xmlns="http://www.w3.org/2000/svg" viewBox="0 0 24 24"><g id="e"><path d="M18,7.25h-.25V3.75h.25c.41,0,.75-.34,.75-.75s-.34-.75-.75-.75H6c-.41,0-.75,.34-.75,.75s.34,.75,.75,.75h.25v3.5h-.25c-.41,0-.75,.34-.75,.75s.34,.75,.75,.75h3.25v.25c0,.87,.41,1.63,1.04,2.13l-3.61,3.61c-.68,.68-.68,1.79,0,2.47l4.09,4.09c.34,.34,.79,.51,1.24,.51s.9-.17,1.24-.51l4.09-4.09c.68-.68,.68-1.79,0-2.47l-3.61-3.61c.63-.5,1.04-1.27,1.04-2.13v-.25h3.25c.41,0,.75-.34,.75-.75s-.34-.75-.75-.75Zm-4.75,1.75c0,.69-.56,1.25-1.25,1.25s-1.25-.56-1.25-1.25v-.25h2.5v.25Z"/></g></svg>