<?xml version="1.0" encoding="UTF-8"?><svg fill="currentColor" xmlns="http://www.w3.org/2000/svg" viewBox="0 0 24 24"><g id="p"><g><path d="M19.95,4.89c-.41-.41-.96-.64-1.55-.64h-.77l.06-.62c.04-.35-.08-.7-.32-.96-.24-.26-.57-.41-.93-.41H7.55c-.35,0-.69,.15-.93,.41-.24,.26-.35,.61-.32,.96l.06,.63h-.77c-.59,0-1.14,.23-1.55,.64-.54,.54-.76,1.34-.58,2.08l.54,2.14c.23,.92,.9,1.64,1.8,1.94l1.96,.65s.09,.02,.13,.02c.95,1.23,2.44,2.02,4.1,2.02s3.16-.78,4.1-2.02c.04,0,.09,0,.13-.02l1.96-.65c.9-.3,1.57-1.02,1.8-1.94l.54-2.14c.19-.74-.04-1.54-.58-2.08ZM6.28,9.64c-.41-.14-.71-.47-.82-.88l-.54-2.14c-.06-.23,.01-.49,.18-.66,.13-.13,.3-.2,.49-.2h.92l.33,3.34c.03,.27,.09,.53,.15,.78l-.73-.24Zm12.26-.88c-.1,.42-.41,.75-.82,.88l-.73,.24c.07-.26,.13-.51,.15-.78l.33-3.34h.92c.19,0,.36,.07,.49,.2,.17,.17,.24,.42,.18,.66l-.54,2.14Z"/><path d="M15,17.25h-.39l-.47-2.36c-.67,.23-1.39,.36-2.14,.36s-1.47-.13-2.14-.36l-.47,2.36h-.39c-.96,0-1.75,.79-1.75,1.75v2c0,.41,.34,.75,.75,.75h8c.41,0,.75-.34,.75-.75v-2c0-.96-.79-1.75-1.75-1.75Z"/></g></g></svg>