<?xml version="1.0" encoding="UTF-8"?><svg fill="currentColor" xmlns="http://www.w3.org/2000/svg" viewBox="0 0 24 24"><g id="n"><g><polygon points="9.28 10.75 12 17.09 14.71 10.75 9.28 10.75"/><polygon points="14.6 9.25 12 5.35 9.4 9.25 14.6 9.25"/><path d="M21.36,9.25c-.04-.1-.06-.21-.12-.31l-2.31-3.85c-.03-.05-.07-.09-.11-.14l-.31,.74-1.52,3.54h4.37Z"/><path d="M17.48,4.26s-.03,0-.04,0h-4.37l2.69,4.03,1.72-4.03Z"/><path d="M7.63,10.75H2.79c.07,.12,.14,.23,.24,.33l7.74,7.74c.13,.13,.28,.23,.44,.31l-.33-.87-3.24-7.52Z"/><path d="M13.14,18.24l-.2,.82c.1-.07,.2-.14,.3-.24l7.74-7.74c.1-.1,.17-.22,.24-.33h-4.86l-3.21,7.49Z"/><path d="M5.15,4.99s-.06,.07-.09,.11l-2.31,3.84c-.06,.1-.08,.2-.12,.31H6.99l-1.83-4.26Z"/><path d="M8.23,8.3l2.7-4.05H6.57s-.05,0-.07,0l.44,1,1.3,3.04Z"/></g></g></svg>