<?xml version="1.0" encoding="UTF-8"?><svg fill="currentColor" xmlns="http://www.w3.org/2000/svg" viewBox="0 0 24 24"><g id="k"><g><path d="M15.61,15.08l-1.67-.24-.75-1.51c-.1-.21-.26-.38-.45-.51v-1.07h1.25c.26,0,.5-.13,.64-.36,.14-.22,.15-.5,.03-.73l-3.86-7.72c-.21-.43-.64-.69-1.12-.69H4.81c-.44,0-.83,.22-1.06,.59s-.25,.83-.06,1.22l3.36,6.72c.3,.6,.9,.97,1.57,.97h2.63v1.07c-.18,.13-.34,.3-.45,.51l-.75,1.51-1.67,.24c-.51,.07-.92,.42-1.08,.91-.16,.49-.03,1.01,.34,1.37l1.21,1.18-.29,1.66c-.09,.5,.12,1,.53,1.31,.23,.17,.51,.25,.78,.25,.21,0,.43-.05,.62-.15l1.49-.78,1.49,.78c.45,.24,.99,.2,1.4-.1,.41-.3,.62-.8,.53-1.31l-.29-1.66,1.21-1.18c.37-.36,.5-.88,.34-1.37-.16-.49-.57-.83-1.08-.91Z"/><path d="M20.25,2.84c-.23-.37-.63-.59-1.06-.59h-4.87c-.49,0-.94,.29-1.14,.74l-.32,.71,3.15,6.29c.25,.49,.29,1.04,.16,1.55,.33-.17,.6-.42,.78-.77l3.36-6.72c.19-.39,.17-.84-.06-1.22Z"/></g></g></svg>