<?xml version="1.0" encoding="UTF-8"?><svg fill="currentColor" xmlns="http://www.w3.org/2000/svg" viewBox="0 0 24 24"><g id="g"><g><path d="M12,8.69c-.27,.54-.79,.92-1.39,1.01,.43,.43,.63,1.03,.53,1.63,.27-.14,.56-.21,.86-.21s.59,.07,.86,.21c-.1-.6,.1-1.21,.53-1.63-.6-.09-1.12-.47-1.39-1.01Z"/><path d="M17.38,5.24l-4-2.31c-.85-.49-1.9-.49-2.75,0l-4,2.31c-.85,.49-1.38,1.4-1.38,2.38v4.62c0,.98,.53,1.89,1.38,2.38l4,2.31c.42,.25,.9,.37,1.38,.37s.95-.12,1.38-.37l4-2.31c.85-.49,1.38-1.4,1.38-2.38V7.62c0-.98-.53-1.89-1.38-2.38Zm-1.85,4.48l-1.08,1.05c-.09,.08-.13,.21-.11,.32l.26,1.49c.05,.28-.07,.57-.3,.73-.13,.09-.29,.14-.44,.14-.12,0-.24-.03-.35-.09l-1.34-.7c-.11-.06-.23-.05-.34,0l-1.34,.7c-.25,.13-.56,.11-.79-.06-.23-.17-.35-.45-.3-.73l.26-1.49c.02-.12-.02-.24-.11-.32l-1.08-1.05c-.2-.2-.28-.5-.19-.77,.09-.27,.32-.47,.61-.51l1.49-.22c.12-.02,.22-.09,.27-.2l.67-1.35c.25-.51,1.09-.51,1.35,0l.67,1.35c.05,.11,.16,.18,.27,.2l1.49,.22c.28,.04,.52,.24,.61,.51,.09,.27,.01,.57-.19,.77Z"/><path d="M12,18.8c-.75,0-1.48-.2-2.13-.57l-2.62-1.52v3.79c0,.44,.22,.83,.59,1.06,.2,.13,.43,.19,.65,.19,.19,0,.38-.04,.56-.13l2.94-1.47,2.94,1.47c.39,.2,.85,.18,1.22-.05,.37-.23,.59-.63,.59-1.06v-3.79l-2.63,1.52c-.64,.37-1.38,.57-2.13,.57Z"/></g></g></svg>