<?xml version="1.0" encoding="UTF-8"?><svg fill="currentColor" xmlns="http://www.w3.org/2000/svg" viewBox="0 0 24 24"><g id="d"><g><path d="M18.75,10c0-3.72-3.03-6.75-6.75-6.75s-6.75,3.03-6.75,6.75,3.03,6.75,6.75,6.75,6.75-3.03,6.75-6.75Zm-6.75,3.75c-2.07,0-3.75-1.68-3.75-3.75s1.68-3.75,3.75-3.75,3.75,1.68,3.75,3.75-1.68,3.75-3.75,3.75Z"/><circle cx="12" cy="10" r="2.25"/><path d="M21.6,18.15l-2.71-3.62c-1.03,1.56-2.57,2.75-4.38,3.33l2.69,3.59c.14,.19,.37,.3,.6,.3,.06,0,.12,0,.19-.02,.29-.08,.51-.32,.56-.62l.29-2.06,2.06,.29c.29,.04,.6-.1,.75-.36,.15-.26,.14-.59-.05-.83Z"/><path d="M5.11,14.53l-2.71,3.62c-.18,.24-.2,.57-.05,.83,.15,.26,.45,.4,.75,.36l2.06-.29,.29,2.06c.04,.3,.26,.54,.56,.62,.06,.02,.12,.02,.19,.02,.23,0,.46-.11,.6-.3l2.69-3.59c-1.81-.58-3.35-1.77-4.38-3.33Z"/></g></g></svg>