<?xml version="1.0" encoding="UTF-8"?><svg fill="currentColor" xmlns="http://www.w3.org/2000/svg" viewBox="0 0 24 24"><g id="j"><path d="M21.18,11.37c.52-.51,.7-1.25,.48-1.94s-.81-1.19-1.53-1.29l-4.23-.62c-.13-.02-.24-.1-.3-.22l-1.89-3.84c-.32-.65-.97-1.06-1.7-1.06s-1.38,.41-1.7,1.06l-1.89,3.84c-.06,.12-.17,.2-.3,.22l-4.23,.62c-.72,.1-1.31,.6-1.53,1.29s-.04,1.44,.48,1.94l3.06,2.98c.09,.09,.14,.22,.11,.35l-.72,4.22c-.12,.72,.17,1.43,.75,1.85,.33,.24,.72,.36,1.11,.36,.3,0,.6-.07,.88-.22l3.79-1.99c.11-.06,.25-.06,.37,0l3.79,1.99c.64,.34,1.41,.29,2-.14,.59-.43,.88-1.14,.75-1.85l-.72-4.22c-.02-.13,.02-.26,.11-.35l3.06-2.99Z"/></g></svg>