<?xml version="1.0" encoding="UTF-8"?><svg fill="currentColor" xmlns="http://www.w3.org/2000/svg" viewBox="0 0 24 24"><g id="i"><g><path d="M16,2.25H8c-2.07,0-3.75,1.68-3.75,3.75v12c0,2.07,1.68,3.75,3.75,3.75h8c2.07,0,3.75-1.68,3.75-3.75V6c0-2.07-1.68-3.75-3.75-3.75Zm-.64,7.34l-.76,.74,.18,1.04c.08,.48-.11,.96-.51,1.25-.4,.29-.91,.32-1.34,.1l-.93-.49-.94,.49c-.19,.1-.39,.15-.6,.15-.26,0-.52-.08-.75-.25-.4-.29-.59-.77-.51-1.25l.18-1.04-.76-.74c-.35-.34-.47-.84-.32-1.31,.15-.47,.54-.8,1.03-.87l1.05-.15,.47-.95c.22-.44,.65-.71,1.14-.71s.93,.27,1.14,.71l.47,.95,1.05,.15c.49,.07,.88,.4,1.03,.87,.15,.46,.03,.96-.32,1.31Z"/><path d="M12.32,8.03l-.32-.64-.32,.65c-.19,.38-.55,.64-.96,.7l-.71,.1,.52,.5c.3,.29,.44,.72,.37,1.13l-.12,.71,.64-.33c.19-.1,.39-.15,.59-.15s.41,.05,.59,.14l.64,.34-.12-.71c-.07-.41,.07-.83,.36-1.13l.52-.51-.71-.1c-.42-.06-.78-.32-.96-.7Z"/></g></g></svg>