<?xml version="1.0" encoding="UTF-8"?><svg fill="currentColor" xmlns="http://www.w3.org/2000/svg" viewBox="0 0 24 24"><g id="h"><g><path d="M17.6,6.54l-3.65-3.65c-1.07-1.07-2.82-1.07-3.89,0l-3.65,3.65c-.78,.78-1.02,1.94-.61,2.97l3.51,8.78c.11,.29,.39,.47,.7,.47h4c.31,0,.58-.19,.7-.47l3.51-8.77c.41-1.02,.17-2.19-.61-2.97Zm-4.6,3.21h-2c-.41,0-.75-.34-.75-.75s.34-.75,.75-.75h2c.41,0,.75,.34,.75,.75s-.34,.75-.75,.75Z"/><path d="M16.09,18.83c-.34,.86-1.16,1.42-2.09,1.42h-4c-.92,0-1.74-.55-2.09-1.41l-.34-.84c-.2,.29-.32,.63-.32,1.01v2c0,.41,.34,.75,.75,.75h8c.41,0,.75-.34,.75-.75v-2c0-.38-.12-.72-.32-1.01l-.34,.84Z"/></g></g></svg>