<?xml version="1.0" encoding="UTF-8"?><svg fill="currentColor" xmlns="http://www.w3.org/2000/svg" viewBox="0 0 24 24"><g id="b"><g><path d="M17.2,6.03c-.15-.47-.55-.81-1.04-.88l-2.07-.3-.93-1.88c-.22-.44-.66-.72-1.16-.72s-.94,.28-1.16,.72l-.93,1.88-2.07,.3c-.49,.07-.89,.41-1.04,.88-.15,.47-.03,.98,.33,1.32l1.5,1.46-.35,2.06c-.08,.49,.11,.97,.51,1.26,.23,.16,.49,.25,.76,.25,.21,0,.41-.05,.6-.15l1.85-.97,1.85,.97c.44,.23,.96,.19,1.36-.1,.4-.29,.6-.77,.51-1.26l-.35-2.06,1.5-1.46c.35-.35,.48-.85,.33-1.32Z"/><path d="M9.27,18.1s.01,.1,.03,.14c.02,.05,.04,.09,.06,.13,.02,.04,.05,.08,.08,.12,.03,.04,.07,.07,.11,.1,.04,.03,.07,.06,.12,.08,.04,.02,.09,.04,.14,.05,.03,0,.06,.03,.09,.03,.02,0,.04,0,.05,0,.02,0,.03,.01,.05,.01h4s.07,0,.11,0c.03,0,.06-.02,.09-.03,.05-.01,.1-.03,.14-.05,.04-.02,.08-.05,.12-.08,.04-.03,.07-.06,.11-.1,.03-.04,.06-.08,.08-.12,.02-.04,.05-.08,.06-.13,.02-.05,.02-.1,.03-.14,0-.03,.02-.06,.02-.1,0-.02,0-.03-.01-.05,0-.02,0-.03,0-.05l-.58-4.05c-.35-.04-.7-.12-1.01-.29l-1.15-.61-1.16,.61c-.31,.16-.66,.25-1.01,.29l-.58,4.05s0,.03,0,.05c0,.02-.01,.03-.01,.05,0,.03,.01,.06,.02,.1Z"/><path d="M16.26,17.89v.06s0,.25,0,.25l-.04,.17c-.01,.08-.04,.21-.08,.35-.05,.14-.11,.27-.18,.39-.08,.14-.16,.25-.25,.35-.1,.11-.2,.21-.31,.29-.11,.09-.23,.17-.36,.24-.1,.05-.22,.1-.33,.13l-.12,.05-.25,.05c-.1,.02-.22,.02-.33,.02h-4.22l-.06-.02-.25-.04-.15-.06c-.11-.03-.22-.07-.34-.13-.13-.07-.25-.15-.36-.24-.11-.09-.22-.18-.31-.29-.09-.1-.16-.21-.23-.33-.08-.14-.14-.27-.19-.4-.04-.11-.06-.22-.08-.33l-.04-.13s-.01-.29-.01-.3v-.21c-.3,.32-.5,.75-.5,1.24v2c0,.41,.34,.75,.75,.75h8c.41,0,.75-.34,.75-.75v-2c0-.48-.2-.92-.51-1.23l.02,.13Z"/></g></g></svg>