<?xml version="1.0" encoding="UTF-8"?><svg fill="currentColor" xmlns="http://www.w3.org/2000/svg" viewBox="0 0 24 24"><g id="k"><g><path d="M20,2.25h-4.25v2.75c0,.96-.79,1.75-1.75,1.75h-4c-.96,0-1.75-.79-1.75-1.75V2.25H4c-.96,0-1.75,.79-1.75,1.75v4.25H21.75V4c0-.96-.79-1.75-1.75-1.75ZM6.02,6.75c-.41,0-.75-.34-.75-.75s.33-.75,.74-.75h.01c.41,0,.75,.34,.75,.75s-.34,.75-.75,.75Zm12,0c-.41,0-.75-.34-.75-.75s.33-.75,.74-.75h.01c.41,0,.75,.34,.75,.75s-.34,.75-.75,.75Z"/><path d="M17.75,12c0,.41-.34,.75-.75,.75s-.75-.34-.75-.75v-2.25h-3.5v2.25c0,.41-.34,.75-.75,.75s-.75-.34-.75-.75v-2.25h-3.5v2.25c0,.41-.34,.75-.75,.75s-.75-.34-.75-.75v-2.25H2.25v4.5H21.75v-4.5h-4v2.25Z"/><path d="M17.75,18c0,.41-.34,.75-.75,.75s-.75-.34-.75-.75v-2.25h-3.5v2.25c0,.41-.34,.75-.75,.75s-.75-.34-.75-.75v-2.25h-3.5v2.25c0,.41-.34,.75-.75,.75s-.75-.34-.75-.75v-2.25H2.25v4.25c0,.96,.79,1.75,1.75,1.75H20c.96,0,1.75-.79,1.75-1.75v-4.25h-4v2.25Z"/><path d="M10,5.25h4c.14,0,.25-.11,.25-.25V2.25h-4.5v2.75c0,.14,.11,.25,.25,.25Z"/></g></g></svg>