<?xml version="1.0" encoding="UTF-8"?><svg fill="currentColor" xmlns="http://www.w3.org/2000/svg" viewBox="0 0 24 24"><g id="q"><path d="M21.74,17.89v-.05c-.02-.27-.06-.53-.13-.79l-1.86-12.11c-.02-.77-.36-1.5-.95-2.01-.6-.52-1.41-.76-2.2-.65-1.34,.19-2.35,1.43-2.35,2.88v1.79c-.65-.44-1.43-.69-2.25-.69s-1.6,.25-2.25,.69v-1.79c0-1.45-1.01-2.69-2.35-2.88-.79-.11-1.6,.12-2.2,.65-.59,.51-.93,1.24-.95,2.01l-1.86,12.11c-.07,.25-.11,.51-.12,.79v.05s-.02,.08-.02,.11c0,2.07,1.68,3.75,3.75,3.75s3.75-1.68,3.75-3.75v-3.6c.48-.3,1.25-.65,2.25-.65h0c1,0,1.77,.35,2.25,.65v3.6c0,2.07,1.68,3.75,3.75,3.75s3.75-1.68,3.75-3.75c0-.04,0-.08,0-.11ZM16.81,3.76c.06,0,.13-.01,.19-.01,.3,0,.59,.11,.82,.31,.27,.24,.43,.58,.43,.94,0,.04,0,.08,0,.11l1.47,9.58c-.52-.27-1.1-.44-1.73-.44-.85,0-1.62,.29-2.25,.77v-6.01h0v-3.85c0-.7,.47-1.31,1.06-1.39Zm-11.07,1.35s0-.08,0-.11c0-.36,.16-.71,.43-.94,.28-.24,.64-.34,1.01-.29,.6,.08,1.06,.69,1.06,1.39v3.85h0v6.02c-.63-.48-1.4-.77-2.25-.77-.63,0-1.21,.17-1.73,.44l1.47-9.58Zm.26,15.14c-1.22,0-2.22-.98-2.25-2.2l.11-.72c.28-.92,1.13-1.59,2.14-1.59,1.24,0,2.25,1.01,2.25,2.25s-1.01,2.25-2.25,2.25Zm6-8h0c-.89,0-1.65,.21-2.25,.46v-3.52c.41-.88,1.28-1.44,2.25-1.44s1.84,.57,2.25,1.44v3.52c-.6-.26-1.36-.47-2.25-.47Zm6,8c-1.24,0-2.25-1.01-2.25-2.25s1.01-2.25,2.25-2.25c1.01,0,1.85,.67,2.14,1.59l.11,.72c-.03,1.22-1.03,2.2-2.25,2.2Z"/></g></svg>