<?xml version="1.0" encoding="UTF-8"?><svg fill="currentColor" xmlns="http://www.w3.org/2000/svg" viewBox="0 0 24 24"><g id="i"><path d="M21.2,5.14c-.67-.63-2.09-1.72-4.14-1.88-2.32-.2-4.08,.92-4.92,1.6-.08,.06-.2,.07-.28,0-.84-.68-2.59-1.79-4.92-1.6-2.05,.17-3.48,1.25-4.14,1.88-.35,.33-.55,.79-.55,1.27v11.04c0,.57,.28,1.11,.74,1.44,.46,.33,1.03,.41,1.56,.23,.79-.27,1.62-.41,2.43-.38,1.78,.05,3.15,.77,3.98,1.38,.31,.22,.67,.34,1.04,.34s.73-.11,1.04-.34c.83-.6,2.2-1.33,3.98-1.38,.82-.03,1.64,.11,2.43,.38,.53,.18,1.1,.1,1.56-.23,.46-.33,.74-.87,.74-1.44V6.41c0-.49-.19-.94-.55-1.27ZM7.02,17.25c-.07,0-.14,0-.22,0-.93,0-1.85,.15-2.74,.46-.09,.03-.15,0-.2-.03-.03-.02-.11-.1-.11-.22V6.41c0-.07,.03-.13,.08-.18,.52-.5,1.64-1.35,3.23-1.48,1.72-.13,3.04,.61,3.85,1.27,.1,.08,.22,.13,.34,.19v12.32c-1.01-.62-2.44-1.23-4.23-1.27Zm13.23,.2c0,.13-.08,.2-.12,.22-.04,.03-.11,.06-.2,.03-.96-.33-1.96-.48-2.96-.46-1.79,.05-3.22,.65-4.23,1.27V6.2c.11-.06,.23-.1,.33-.19,.81-.66,2.13-1.4,3.85-1.27,1.59,.13,2.71,.98,3.23,1.48,.05,.05,.08,.11,.08,.18v11.04Z"/></g></svg>