<?xml version="1.0" encoding="UTF-8"?><svg fill="currentColor" xmlns="http://www.w3.org/2000/svg" viewBox="0 0 24 24"><g id="o"><g><path d="M16,2.25H8c-3.17,0-5.75,2.58-5.75,5.75v8c0,3.17,2.58,5.75,5.75,5.75h8c3.17,0,5.75-2.58,5.75-5.75V8c0-3.17-2.58-5.75-5.75-5.75Zm4.25,13.75c0,2.34-1.91,4.25-4.25,4.25H8c-2.34,0-4.25-1.91-4.25-4.25V8c0-2.34,1.91-4.25,4.25-4.25h8c2.34,0,4.25,1.91,4.25,4.25v8Z"/><path d="M9,5.25c-1.52,0-2.75,1.23-2.75,2.75,0,1.25,.85,2.3,2,2.63v7.37c0,.41,.34,.75,.75,.75s.75-.34,.75-.75v-7.37c1.15-.33,2-1.38,2-2.63,0-1.52-1.23-2.75-2.75-2.75Zm0,4c-.69,0-1.25-.56-1.25-1.25s.56-1.25,1.25-1.25,1.25,.56,1.25,1.25-.56,1.25-1.25,1.25Z"/><path d="M15.75,13.37V6c0-.41-.34-.75-.75-.75s-.75,.34-.75,.75v7.37c-1.15,.33-2,1.38-2,2.63,0,1.52,1.23,2.75,2.75,2.75s2.75-1.23,2.75-2.75c0-1.25-.85-2.3-2-2.63Zm-.75,3.88c-.69,0-1.25-.56-1.25-1.25s.56-1.25,1.25-1.25,1.25,.56,1.25,1.25-.56,1.25-1.25,1.25Z"/></g></g></svg>