<?xml version="1.0" encoding="UTF-8"?><svg fill="currentColor" xmlns="http://www.w3.org/2000/svg" viewBox="0 0 24 24"><g id="s"><path d="M19.16,8.04l-4-3.57c-1.8-1.61-4.52-1.61-6.32,0l-4,3.57c-1.01,.9-1.59,2.19-1.59,3.55v6.36c0,2.1,1.68,3.81,3.75,3.81h10c2.07,0,3.75-1.71,3.75-3.81v-6.36c0-1.35-.58-2.65-1.59-3.55Zm-4.91,12.21h-4.5v-3.25c0-1.24,1.01-2.25,2.25-2.25s2.25,1.01,2.25,2.25v3.25Zm5-2.31c0,1.27-1.01,2.31-2.25,2.31h-1.25v-3.25c0-2.07-1.68-3.75-3.75-3.75s-3.75,1.68-3.75,3.75v3.25h-1.25c-1.24,0-2.25-1.03-2.25-2.31v-6.36c0-.93,.4-1.81,1.09-2.43l4-3.57c1.23-1.1,3.09-1.1,4.32,0l4,3.57c.69,.62,1.09,1.5,1.09,2.43v6.36Z"/></g></svg>