<?xml version="1.0" encoding="UTF-8"?><svg fill="currentColor" xmlns="http://www.w3.org/2000/svg" viewBox="0 0 24 24"><g id="l"><g><path d="M12,2.25C6.62,2.25,2.25,6.62,2.25,12s4.37,9.75,9.75,9.75,9.75-4.37,9.75-9.75S17.38,2.25,12,2.25Zm0,18c-4.55,0-8.25-3.7-8.25-8.25S7.45,3.75,12,3.75s8.25,3.7,8.25,8.25-3.7,8.25-8.25,8.25Z"/><path d="M17,11.25h-5.37c-.33-1.15-1.38-2-2.63-2-1.52,0-2.75,1.23-2.75,2.75s1.23,2.75,2.75,2.75c1.25,0,2.3-.85,2.63-2h1.62v1.25c0,.41,.34,.75,.75,.75s.75-.34,.75-.75v-1.25h1.5v1.25c0,.41,.34,.75,.75,.75s.75-.34,.75-.75v-2c0-.41-.34-.75-.75-.75Zm-8,2c-.69,0-1.25-.56-1.25-1.25s.56-1.25,1.25-1.25,1.25,.56,1.25,1.25-.56,1.25-1.25,1.25Z"/></g></g></svg>