<?xml version="1.0" encoding="UTF-8"?><svg fill="currentColor" xmlns="http://www.w3.org/2000/svg" viewBox="0 0 24 24"><g id="e"><path d="M18.38,4.09c-1.21-1.29-2.9-1.95-4.64-1.83-1.74,.13-3.3,1.02-4.3,2.44-1.16,1.65-1.36,3.82-.53,5.67,.07,.15,.05,.34-.04,.47l-4.29,5.95c-.22,.3-.33,.65-.33,1.02v1.77c0,.57,.28,1.11,.74,1.43,.3,.21,.65,.32,1.01,.32,.2,0,.4-.03,.59-.1l1.7-.62c.34-.12,.63-.34,.84-.64l4.22-6.03c.1-.14,.24-.21,.38-.21,2.4,.17,4.61-1.13,5.64-3.32,.99-2.1,.59-4.64-1-6.31Zm-.36,5.68c-.76,1.63-2.39,2.6-4.17,2.47h0c-.67-.05-1.32,.28-1.72,.84l-4.22,6.03s-.07,.07-.12,.09l-1.7,.62c-.11,.04-.19,0-.23-.03-.04-.03-.11-.09-.11-.21v-1.77c0-.05,.02-.1,.05-.15l4.29-5.95c.4-.57,.48-1.32,.19-1.96-.62-1.36-.47-2.97,.39-4.19,.74-1.05,1.89-1.71,3.18-1.8,.1,0,.2-.01,.31-.01,1.17,0,2.3,.49,3.14,1.38,1.16,1.23,1.46,3.1,.73,4.65Z"/></g></svg>