<?xml version="1.0" encoding="UTF-8"?><svg fill="currentColor" xmlns="http://www.w3.org/2000/svg" viewBox="0 0 24 24"><g id="f"><g><path d="M12,2.25C6.62,2.25,2.25,6.62,2.25,12s4.37,9.75,9.75,9.75,9.75-4.37,9.75-9.75S17.38,2.25,12,2.25Zm0,18c-4.55,0-8.25-3.7-8.25-8.25S7.45,3.75,12,3.75s8.25,3.7,8.25,8.25-3.7,8.25-8.25,8.25Z"/><path d="M16.56,11.74c-.28-.31-.75-.34-1.06-.06-.41,.37-.95,.57-1.5,.57-1.24,0-2.25-1.01-2.25-2.25,0-.55,.2-1.09,.57-1.5,.28-.31,.25-.78-.06-1.06-.2-.18-.47-.22-.71-.15-.04,0-.07-.01-.11-.01-2.15,.26-3.85,1.94-4.14,4.09-.35,2.6,1.48,4.99,4.08,5.34,.21,.03,.42,.04,.63,.04,2.34,0,4.39-1.74,4.71-4.12,0-.06,0-.12-.01-.18,.07-.24,.04-.51-.15-.72Zm-4.98,3.49c-1.78-.24-3.03-1.88-2.79-3.65,.13-1,.73-1.85,1.55-2.35-.05,.25-.09,.51-.09,.78,0,2.07,1.68,3.75,3.75,3.75,.27,0,.54-.04,.81-.1-.65,1.09-1.9,1.75-3.23,1.57Z"/></g></g></svg>