<?xml version="1.0" encoding="UTF-8"?><svg fill="currentColor" xmlns="http://www.w3.org/2000/svg" viewBox="0 0 24 24"><g id="r"><g><path d="M16,2.25H8c-3.17,0-5.75,2.58-5.75,5.75V16c0,3.17,2.58,5.75,5.75,5.75h8c3.17,0,5.75-2.58,5.75-5.75V8c0-3.17-2.58-5.75-5.75-5.75Zm4.25,13.75c0,2.34-1.91,4.25-4.25,4.25H8c-2.34,0-4.25-1.91-4.25-4.25V8c0-2.34,1.91-4.25,4.25-4.25h8c2.34,0,4.25,1.91,4.25,4.25V16Z"/><path d="M17.47,14l-.91,.91c-.35,.35-.89,.37-1.27,.06l-3.78-3.15c-.88-.73-2.12-.76-3.03-.08l-2.93,2.2c-.33,.25-.4,.72-.15,1.05,.25,.33,.72,.4,1.05,.15l2.93-2.2c.35-.26,.83-.25,1.17,.03l3.78,3.15c.46,.38,1.01,.57,1.56,.57,.63,0,1.25-.24,1.73-.72l.91-.91c.29-.29,.29-.77,0-1.06s-.77-.29-1.06,0Z"/><path d="M15.5,10.75c1.24,0,2.25-1.01,2.25-2.25s-1.01-2.25-2.25-2.25-2.25,1.01-2.25,2.25,1.01,2.25,2.25,2.25Zm0-3c.41,0,.75,.34,.75,.75s-.34,.75-.75,.75-.75-.34-.75-.75,.34-.75,.75-.75Z"/></g></g></svg>