<?xml version="1.0" encoding="UTF-8"?><svg fill="currentColor" xmlns="http://www.w3.org/2000/svg" viewBox="0 0 24 24"><g id="m"><path d="M14.82,14.01c-.05-.08-.04-.16-.02-.2,.01-.04,.04-.11,.13-.15h0l1.99-1.02c.54-.28,.89-.8,.95-1.41s-.21-1.19-.7-1.55L7.6,2.55c-.45-.33-1.04-.39-1.54-.13-.5,.25-.81,.75-.81,1.31v12.58c0,.61,.31,1.17,.84,1.49,.52,.32,1.16,.34,1.71,.06l2.07-1.06c.12-.06,.26-.02,.33,.1l2.42,4.12c.2,.35,.54,.6,.93,.69,.1,.02,.21,.03,.31,.03,.29,0,.58-.09,.83-.26l2.08-1.42c.64-.44,.84-1.31,.45-1.98l-2.39-4.08Zm-.92,6.26l-2.42-4.12c-.32-.55-.91-.87-1.51-.87-.27,0-.54,.06-.8,.19l-2.07,1.06c-.11,.06-.2,.02-.25,0-.04-.03-.12-.09-.12-.21l-.05-12.56,9.56,7.13c.1,.07,.1,.17,.1,.22,0,.05-.03,.15-.13,.2l-1.99,1.02c-.43,.22-.75,.61-.88,1.07-.13,.46-.07,.96,.17,1.38l2.39,4.07-2.01,1.44Z"/></g></svg>