<?xml version="1.0" encoding="UTF-8"?><svg fill="currentColor" xmlns="http://www.w3.org/2000/svg" viewBox="0 0 24 24"><g id="c"><path d="M21.52,9.74c-1.96-3.39-5.61-5.49-9.52-5.49S4.44,6.35,2.47,9.74c-.39,.67-.25,1.56,.33,2.1l8.01,7.45c.33,.31,.75,.46,1.17,.46s.84-.15,1.17-.46l8.02-7.45c.58-.54,.73-1.43,.33-2.1Zm-5.51,4.86c-.9-1.33-2.4-2.15-4.02-2.15s-3.12,.82-4.02,2.15l-1.71-1.59c1.2-1.95,3.35-3.16,5.73-3.16s4.52,1.21,5.73,3.16l-1.71,1.59Zm-3.86,3.59c-.09,.08-.22,.08-.3,0l-2.75-2.56h0c.6-1.04,1.71-1.68,2.9-1.68s2.31,.64,2.9,1.68h0l-2.75,2.56Zm8.02-7.45h0l-1.32,1.23c-1.5-2.24-4.05-3.62-6.84-3.62s-5.34,1.38-6.85,3.62l-1.33-1.23c-.07-.07-.1-.18-.06-.25,1.7-2.92,4.85-4.74,8.23-4.74s6.53,1.82,8.23,4.74c.04,.07,.02,.18-.06,.25Z"/></g></svg>