<svg fill="currentColor" xmlns="http://www.w3.org/2000/svg" viewBox="0 0 32 32"><g id="brush"><path d="M30,18.88V17.13A2.12,2.12,0,0,0,27.88,15H26.72l-.52-1.56a2.11,2.11,0,0,0-2-1.44h-.62L20.67,6.9A3.79,3.79,0,0,0,17.39,5H10.5a2.5,2.5,0,0,0,0,5h4.78a1.77,1.77,0,0,1,1.59,1l.51,1H7.8a2.11,2.11,0,0,0-2,1.44L5.28,15H4.13A2.13,2.13,0,0,0,2,17.13v1.75A2.12,2.12,0,0,0,3.69,21L2,26.73a1,1,0,0,0,.16.87A1,1,0,0,0,3,28H29a1,1,0,0,0,.8-.4,1,1,0,0,0,.16-.87L28.31,21A2.12,2.12,0,0,0,30,18.88ZM7.69,14.08A.12.12,0,0,1,7.8,14H19a1,1,0,0,0,.89-1.45l-1.23-2.46A3.75,3.75,0,0,0,15.28,8H10.5a.5.5,0,0,1,0-1h6.89a1.77,1.77,0,0,1,1.54.9l3.2,5.6A1,1,0,0,0,23,14h1.2a.12.12,0,0,1,.11.08l.3.92H7.39ZM4,17.13A.13.13,0,0,1,4.13,17H27.88a.13.13,0,0,1,.12.13v1.75a.13.13,0,0,1-.12.12H4.13A.13.13,0,0,1,4,18.88ZM23,26V24a1,1,0,0,0-2,0v2H17V24a1,1,0,0,0-2,0v2H11V24a1,1,0,0,0-2,0v2H4.33l1.42-5h20.5l1.42,5Z"/></g></svg>