<svg fill="currentColor" xmlns="http://www.w3.org/2000/svg" viewBox="0 0 32 32"><g id="bucket"><path d="M25.73,12.32A1,1,0,0,0,25,12,9.35,9.35,0,0,0,19.93,4,2.49,2.49,0,0,0,17.5,2h-3a2.49,2.49,0,0,0-2.43,2A9.34,9.34,0,0,0,7,12a1,1,0,0,0-.7.31,1,1,0,0,0-.27.74l.89,14.28A2.85,2.85,0,0,0,9.73,30H22.27a2.85,2.85,0,0,0,2.84-2.66L26,13.06A1,1,0,0,0,25.73,12.32ZM14.5,4h3a.5.5,0,0,1,0,1h-3a.5.5,0,0,1,0-1Zm-2,2a2.47,2.47,0,0,0,2,1h3a2.47,2.47,0,0,0,2-1A7.32,7.32,0,0,1,23,12H9A7.32,7.32,0,0,1,12.51,6Zm10.6,21.22a.85.85,0,0,1-.84.79H9.73a.85.85,0,0,1-.84-.79L8.06,14H23.94Z"/></g></svg>