<svg fill="currentColor" xmlns="http://www.w3.org/2000/svg" viewBox="0 0 32 32"><g id="cleaning_liquid_2" data-name="cleaning liquid 2"><path d="M21.88,20.61a13.32,13.32,0,0,1,.08-6c.08-.3.16-.62.22-.94a18.13,18.13,0,0,0,.33-2.92A4.54,4.54,0,0,0,20,6.55V3a1,1,0,0,0-1-1H13a1,1,0,0,0-1,1V6.55a4.54,4.54,0,0,0-2.51,4.2,18.13,18.13,0,0,0,.33,2.92c.06.32.14.64.22.94a13.32,13.32,0,0,1,.08,6c-.12.57-.23,1.16-.31,1.78a24.66,24.66,0,0,0-.22,3.84A3.86,3.86,0,0,0,13.44,30h5.12a3.86,3.86,0,0,0,3.85-3.77,24.47,24.47,0,0,0-.22-3.83C22.11,21.77,22,21.18,21.88,20.61ZM12.15,15h7.7a15.56,15.56,0,0,0,.07,6H12.08A15.56,15.56,0,0,0,12.15,15ZM14,4h4V5.9H14ZM12.22,8.82A2.71,2.71,0,0,1,14.17,8h3.66a2.71,2.71,0,0,1,2,.82,2.57,2.57,0,0,1,.73,1.87A15,15,0,0,1,20.26,13H11.74a15,15,0,0,1-.25-2.31A2.57,2.57,0,0,1,12.22,8.82ZM18.56,28H13.44a1.82,1.82,0,0,1-1.85-1.81A22.74,22.74,0,0,1,11.76,23h8.48a22.74,22.74,0,0,1,.17,3.19A1.82,1.82,0,0,1,18.56,28Z"/></g></svg>