<svg fill="currentColor" xmlns="http://www.w3.org/2000/svg" viewBox="0 0 32 32"><g id="cleaning_liquid" data-name="cleaning liquid"><path d="M18.13,6.25l-.62-.15-1.8-1.81-.1-.06s0-.05-.06-.06L13.23,2.62a2,2,0,0,0-3,2.27l.81,2.43a.43.43,0,0,1,0,.07l0,.06L12,9.16l-.63.42A3,3,0,0,0,10,12.06V26.7A3.3,3.3,0,0,0,13.3,30h5.4A3.3,3.3,0,0,0,22,26.7V11.21A5.1,5.1,0,0,0,18.13,6.25ZM12,17.42a14.14,14.14,0,0,0,8,0v5.89a12.06,12.06,0,0,1-8,0Zm8-6.21V15.3a12.06,12.06,0,0,1-8,0V12.06a1,1,0,0,1,.44-.82l4.75-3.16.46.11A3.11,3.11,0,0,1,20,11.21ZM13.2,5l-.68.45-.4-1.17Zm.09,2.34,1.58-1,.56.55L13.64,8ZM18.7,28H13.3A1.3,1.3,0,0,1,12,26.7V25.41a13.85,13.85,0,0,0,8,0V26.7A1.3,1.3,0,0,1,18.7,28Z"/></g></svg>