<svg fill="currentColor" xmlns="http://www.w3.org/2000/svg" viewBox="0 0 32 32"><g id="cloth_hanger" data-name="cloth hanger"><path d="M27.18,8H4.82A2.82,2.82,0,0,0,2,10.82v4.36A2.82,2.82,0,0,0,4.82,18H9v2a3,3,0,0,0,6,0,1,1,0,0,0-2,0,1,1,0,0,1-2,0V18h8v2a3,3,0,0,0,6,0,1,1,0,0,0-2,0,1,1,0,0,1-2,0V18h6.18A2.82,2.82,0,0,0,30,15.18V10.82A2.82,2.82,0,0,0,27.18,8ZM28,15.18a.82.82,0,0,1-.82.82H21V14h1a1,1,0,0,0,0-2H18a1,1,0,0,0,0,2h1v2H11V14h1a1,1,0,0,0,0-2H8a1,1,0,0,0,0,2H9v2H4.82A.82.82,0,0,1,4,15.18V10.82A.82.82,0,0,1,4.82,10H27.18a.82.82,0,0,1,.82.82Z"/></g></svg>