<svg fill="currentColor" xmlns="http://www.w3.org/2000/svg" viewBox="0 0 32 32"><g id="faucet"><path d="M28,25.26V22.67A9.68,9.68,0,0,0,18.33,13h-.41V11h.38a2.62,2.62,0,0,0,2.62-2.62V4.62A2.62,2.62,0,0,0,18.3,2H12.54A2.62,2.62,0,0,0,9.92,4.62V8.38A2.62,2.62,0,0,0,12.54,11h.38v2H9.61a2.07,2.07,0,0,0-1.77-1H4.92a1,1,0,0,0-1,1v8a1,1,0,0,0,1,1H7.84a2.07,2.07,0,0,0,1.77-1h8.76A1.63,1.63,0,0,1,20,22.63v2.63A1.94,1.94,0,0,0,19,27v1.1A2,2,0,0,0,21,30h6.1A2,2,0,0,0,29,28.05V27A1.94,1.94,0,0,0,28,25.26ZM11.92,8.38V4.62A.62.62,0,0,1,12.54,4H18.3a.62.62,0,0,1,.62.62V8.38A.62.62,0,0,1,18.3,9H12.54A.62.62,0,0,1,11.92,8.38Zm3,2.62h1v2h-1Zm-7,8.92a.09.09,0,0,1-.08.08H5.92V14H7.84a.09.09,0,0,1,.08.08ZM18.37,19H9.92V15h8.41A7.68,7.68,0,0,1,26,22.67V25H22V22.63A3.64,3.64,0,0,0,18.37,19ZM27,28l-6,.05L21,27H27Z"/></g></svg>