<svg fill="currentColor" xmlns="http://www.w3.org/2000/svg" viewBox="0 0 32 32"><g id="glove"><path d="M22.5,5a2.35,2.35,0,0,0-.54.06A2.5,2.5,0,0,0,19.5,3a2.65,2.65,0,0,0-.89.16,2.5,2.5,0,0,0-4.22,0A2.65,2.65,0,0,0,13.5,3,2.5,2.5,0,0,0,11,5.5V8.17A3.15,3.15,0,0,0,9.5,8,3.09,3.09,0,0,0,7,11.11v6A6.2,6.2,0,0,0,8.31,21a4.38,4.38,0,0,1,.83,3.2l-.36,3.15a2.41,2.41,0,0,0,.6,1.87,2.37,2.37,0,0,0,1.78.8h9.68a2.37,2.37,0,0,0,1.78-.8,2.41,2.41,0,0,0,.6-1.87l-.36-3.15a4.38,4.38,0,0,1,.83-3.2A6.2,6.2,0,0,0,25,17.08V7.5A2.5,2.5,0,0,0,22.5,5ZM21.13,27.87a.38.38,0,0,1-.29.13H11.16a.38.38,0,0,1-.29-.13.37.37,0,0,1-.1-.31L11,26h10.1l.18,1.57A.37.37,0,0,1,21.13,27.87ZM23,17.08a4.3,4.3,0,0,1-.87,2.65A6.33,6.33,0,0,0,20.84,24H11.16a6.33,6.33,0,0,0-1.29-4.27A4.3,4.3,0,0,1,9,17.08v-6A1.09,1.09,0,0,1,9.82,10H10a1,1,0,0,1,.65.24A1,1,0,0,1,11,11v3a1,1,0,0,0,2,0V5.5a.5.5,0,0,1,1,0V13a1,1,0,0,0,2,0V4.5a.5.5,0,0,1,1,0V13a1,1,0,0,0,2,0V5.5a.5.5,0,0,1,1,0V13a1,1,0,0,0,2,0V7.5a.5.5,0,0,1,1,0Z"/></g></svg>