<svg fill="currentColor" xmlns="http://www.w3.org/2000/svg" viewBox="0 0 32 32"><g id="hand_dryer" data-name="hand dryer"><path d="M27.42,5H4.58A2.59,2.59,0,0,0,2,7.58v9.84A2.59,2.59,0,0,0,4.58,20H27.42A2.59,2.59,0,0,0,30,17.42V7.58A2.59,2.59,0,0,0,27.42,5ZM15,18V14.68a.67.67,0,0,1,.68-.68h7.64a.67.67,0,0,1,.68.68V18Zm13-.58a.58.58,0,0,1-.58.58H26V14.68A2.68,2.68,0,0,0,23.32,12H15.68A2.68,2.68,0,0,0,13,14.68V18H4.58A.58.58,0,0,1,4,17.42V7.58A.58.58,0,0,1,4.58,7H27.42a.58.58,0,0,1,.58.58Z"/><path d="M10,9H6a1,1,0,0,0,0,2h4a1,1,0,0,0,0-2Z"/><path d="M10,12H6a1,1,0,0,0,0,2h4a1,1,0,0,0,0-2Z"/><path d="M16.45,21.11a1,1,0,0,0-1.34.44l-1,2a1,1,0,0,0,.44,1.34A.93.93,0,0,0,15,25a1,1,0,0,0,.89-.55l1-2A1,1,0,0,0,16.45,21.11Z"/><path d="M20.45,21.11a1,1,0,0,0-1.34.44l-1,2a1,1,0,0,0,.44,1.34A.93.93,0,0,0,19,25a1,1,0,0,0,.89-.55l1-2A1,1,0,0,0,20.45,21.11Z"/><path d="M24.45,21.11a1,1,0,0,0-1.34.44l-1,2a1,1,0,0,0,.44,1.34A.93.93,0,0,0,23,25a1,1,0,0,0,.89-.55l1-2A1,1,0,0,0,24.45,21.11Z"/></g></svg>