<svg fill="currentColor" xmlns="http://www.w3.org/2000/svg" viewBox="0 0 32 32"><g id="liquid_soap" data-name="liquid soap"><path d="M25,7.68l-.49-1.46A3.24,3.24,0,0,0,21.38,4H19V3a1,1,0,0,0-1-1H12a1,1,0,0,0-1,1V6a1,1,0,0,0,1,1h2V8h-.45A2.55,2.55,0,0,0,11,10.55V11H10a3,3,0,0,0-3,3V28.25A1.76,1.76,0,0,0,8.75,30h12.5A1.76,1.76,0,0,0,23,28.25V14a3,3,0,0,0-3-3H19v-.45A2.55,2.55,0,0,0,16.45,8H16V7h2a1,1,0,0,0,1-1h2.38a1.24,1.24,0,0,1,1.18.85l.49,1.47A1,1,0,0,0,24,9,1.25,1.25,0,0,0,24.32,9,1,1,0,0,0,25,7.68ZM21,14V28H9V14a1,1,0,0,1,1-1H20A1,1,0,0,1,21,14Zm-4-3.46V11H13v-.45a.55.55,0,0,1,.55-.55h2.9A.55.55,0,0,1,17,10.55ZM13,5V4h4V5Z"/><path d="M15.61,16.21a1,1,0,0,0-1.22,0A6.1,6.1,0,0,0,13.2,17.4,6.44,6.44,0,0,0,12,20.54a3.08,3.08,0,1,0,6.1,0A6.44,6.44,0,0,0,16.8,17.4,6.1,6.1,0,0,0,15.61,16.21Zm.21,5.42a1.13,1.13,0,0,1-1.64,0,1,1,0,0,1-.25-.83,4.49,4.49,0,0,1,.87-2.2l.2-.24.2.24a4.49,4.49,0,0,1,.87,2.2A1,1,0,0,1,15.82,21.63Z"/></g></svg>