<svg fill="currentColor" xmlns="http://www.w3.org/2000/svg" viewBox="0 0 32 32"><g id="shower_gel" data-name="shower gel"><path d="M26.25,21.7A23.33,23.33,0,0,1,25,17.79a16.07,16.07,0,0,1-.25-4.87,2.68,2.68,0,0,0-.67-2,2.77,2.77,0,0,0-1.06-.7V8.82A1.83,1.83,0,0,0,21.18,7H21V4h2a1,1,0,0,0,0-2H9.69a2.65,2.65,0,0,0-1.88.78L6.29,4.29a1,1,0,0,0,0,1.42,1,1,0,0,0,1.42,0L9.22,4.19A.67.67,0,0,1,9.69,4H16V7h-.18A1.83,1.83,0,0,0,14,8.82v1.36a2.77,2.77,0,0,0-1.06.7,2.68,2.68,0,0,0-.67,2A16.07,16.07,0,0,1,12,17.79a23.33,23.33,0,0,1-1.27,3.91c-.82,2.05-1.53,3.82-.66,5.71a5.41,5.41,0,0,0,2.43,2.47A1,1,0,0,0,13,30H24a1,1,0,0,0,.48-.12,5.44,5.44,0,0,0,2.43-2.46C27.78,25.52,27.07,23.75,26.25,21.7ZM18,4h1V7H18ZM16,9h5v1H16Zm9.09,17.59A3.27,3.27,0,0,1,23.73,28H13.27a3.23,3.23,0,0,1-1.36-1.42c-.49-1.06-.08-2.21.69-4.14A25.32,25.32,0,0,0,14,18.21a18.2,18.2,0,0,0,.28-5.49.62.62,0,0,1,.17-.49.66.66,0,0,1,.51-.23h7.12a.66.66,0,0,1,.51.23.62.62,0,0,1,.17.49A18.2,18.2,0,0,0,23,18.21a25.32,25.32,0,0,0,1.38,4.23C25.17,24.37,25.58,25.52,25.09,26.59Z"/><path d="M9.65,11.59a7.12,7.12,0,0,0-.6-.94A6.65,6.65,0,0,0,7.6,9.2a1,1,0,0,0-1.2,0A6.65,6.65,0,0,0,5,10.65a7.12,7.12,0,0,0-.6.94,3,3,0,1,0,5.3,0Zm-1.8,1.93a1,1,0,0,1-1.7,0,1,1,0,0,1,0-1,5.87,5.87,0,0,1,.43-.67A5.72,5.72,0,0,1,7,11.32a5.72,5.72,0,0,1,.45.53,5.87,5.87,0,0,1,.43.67A1,1,0,0,1,7.85,13.52Z"/></g></svg>