<svg fill="currentColor" xmlns="http://www.w3.org/2000/svg" viewBox="0 0 32 32"><g id="sign"><path d="M27.38,12,16.63,3.23a1,1,0,0,0-1.26,0L4.62,12A2.84,2.84,0,0,0,2,14.84V25.16A2.84,2.84,0,0,0,4.84,28H27.16A2.84,2.84,0,0,0,30,25.16V14.84A2.84,2.84,0,0,0,27.38,12ZM16,5.29,24.2,12H7.8ZM28,25.16a.85.85,0,0,1-.84.84H4.84A.85.85,0,0,1,4,25.16V14.84A.85.85,0,0,1,4.84,14H27.16a.85.85,0,0,1,.84.84Z"/><path d="M15.32,16.05a1,1,0,0,0-1.27.63l-1.24,3.71-.92-1.84a1,1,0,0,0-1.78,0l-.92,1.84L8,16.68a1,1,0,0,0-1.9.64l2,6a1,1,0,0,0,.88.68,1,1,0,0,0,1-.55L11,21.24l1.11,2.21A1,1,0,0,0,13,24h.07a1,1,0,0,0,.88-.68l2-6A1,1,0,0,0,15.32,16.05Z"/><path d="M25,16H19a1,1,0,0,0-1,1v6a1,1,0,0,0,1,1h6a1,1,0,0,0,1-1V22a1,1,0,0,0-2,0H20V18h4a1,1,0,0,0,2,0V17A1,1,0,0,0,25,16Z"/></g></svg>