<svg fill="currentColor" xmlns="http://www.w3.org/2000/svg" viewBox="0 0 32 32"><g id="soap"><path d="M27,18.06V16.33a4.32,4.32,0,0,0-1.26-3.06c-.13-.12-.26-.24-.39-.34a4.24,4.24,0,0,0-3.76-.66,21.83,21.83,0,0,1-11.29,0,4.06,4.06,0,0,0-3.15.35A4.34,4.34,0,0,0,5,16.33v1.73a3.58,3.58,0,0,0-3,3.52V22.9A6.11,6.11,0,0,0,8.1,29H23.9A6.11,6.11,0,0,0,30,22.9V21.58A3.58,3.58,0,0,0,27,18.06ZM7,16.33a2.32,2.32,0,0,1,1.16-2,1.86,1.86,0,0,1,.95-.24,2.63,2.63,0,0,1,.67.09,23.87,23.87,0,0,0,12.33,0,2.32,2.32,0,0,1,2,.3l.2.18A2.32,2.32,0,0,1,25,16.33v4.34A2.33,2.33,0,0,1,22.67,23H9.33A2.33,2.33,0,0,1,7,20.67ZM28,22.9A4.11,4.11,0,0,1,23.9,27H8.1A4.11,4.11,0,0,1,4,22.9V21.58a1.6,1.6,0,0,1,1-1.47v.56A4.33,4.33,0,0,0,9.33,25H22.67A4.33,4.33,0,0,0,27,20.67v-.56a1.6,1.6,0,0,1,1,1.47Z"/><path d="M12.41,21h7.18a4.42,4.42,0,0,0,3.12-1.29,1,1,0,0,0-1.42-1.42,2.37,2.37,0,0,1-1.7.71H12.41a2.37,2.37,0,0,1-1.7-.71,1,1,0,0,0-1.42,1.42A4.42,4.42,0,0,0,12.41,21Z"/><path d="M19,12a3,3,0,1,0-3-3A3,3,0,0,0,19,12Zm0-4a1,1,0,1,1-1,1A1,1,0,0,1,19,8Z"/><path d="M25.5,9A3.5,3.5,0,1,0,22,5.5,3.5,3.5,0,0,0,25.5,9Zm0-5A1.5,1.5,0,1,1,24,5.5,1.5,1.5,0,0,1,25.5,4Z"/></g></svg>