<svg fill="currentColor" xmlns="http://www.w3.org/2000/svg" viewBox="0 0 32 32"><g id="tissue"><path d="M27.84,10H24.41L25,4.1a1,1,0,0,0-.4-.9,1,1,0,0,0-1-.13L20.1,4.48a2,2,0,0,1-1.87-.19,4,4,0,0,0-4.46,0,2,2,0,0,1-1.87.19L8.37,3.07a1,1,0,0,0-1,.13,1,1,0,0,0-.4.9L7.59,10H4.16A2.16,2.16,0,0,0,2,12.16V25.84A2.16,2.16,0,0,0,4.16,28H27.84A2.16,2.16,0,0,0,30,25.84V12.16A2.16,2.16,0,0,0,27.84,10ZM11.15,6.34A4,4,0,0,0,14.88,6a2,2,0,0,1,2.24,0,4,4,0,0,0,3.73.39l2-.8L22.09,13H21V10a1,1,0,0,0-2,0v3H17V10a1,1,0,0,0-2,0v3H13V10a1,1,0,0,0-2,0v3H9.91L9.16,5.54ZM4.16,12H7.79l.11,1A1,1,0,0,0,7,14a1,1,0,0,0,1,1H24a1,1,0,0,0,1-1,1,1,0,0,0-.9-1l.11-1h3.63a.16.16,0,0,1,.16.16V16H4V12.16A.16.16,0,0,1,4.16,12ZM27.84,26H4.16A.16.16,0,0,1,4,25.84V18H28v7.84A.16.16,0,0,1,27.84,26Z"/><path d="M20,19H12a3,3,0,0,0,0,6h8a3,3,0,0,0,0-6Zm0,4H12a1,1,0,0,1,0-2h8a1,1,0,0,1,0,2Z"/></g></svg>