<svg fill="currentColor" xmlns="http://www.w3.org/2000/svg" viewBox="0 0 32 32"><g id="toilet_3" data-name="toilet 3"><path d="M16,2A10,10,0,0,0,6,12V25.88A4.13,4.13,0,0,0,10.13,30H21.88A4.13,4.13,0,0,0,26,25.88V12A10,10,0,0,0,16,2ZM8,18h2c0,.72,0,1.4,0,2H8Zm2.19-2A1.29,1.29,0,0,0,10,16H8V14h2.63A15.53,15.53,0,0,0,10.19,16Zm4.37-5.38a1.9,1.9,0,0,1,2.88,0l.78-.63-.76.65c2.73,3.38,2.78,7.58,2.34,10.51a1.78,1.78,0,0,1-1.22,1.43,8.93,8.93,0,0,1-5.07,0,1.8,1.8,0,0,1-1.31-1.46C11.76,18.26,11.81,14.06,14.56,10.66ZM21.37,14H24v2H21.81A16.73,16.73,0,0,0,21.37,14ZM22,18h2v2H21.94C22,19.39,22,18.72,22,18ZM16,4a8,8,0,0,1,8,8H20.62A12.45,12.45,0,0,0,19,9.44l0,0a3.92,3.92,0,0,0-6,0A12.46,12.46,0,0,0,11.38,12H8A8,8,0,0,1,16,4Zm5.88,24H10.13A2.12,2.12,0,0,1,8,25.88V22h2a.93.93,0,0,0,.33-.07A3.81,3.81,0,0,0,13,24.56a10.83,10.83,0,0,0,6.21,0A3.75,3.75,0,0,0,21.66,22H24v3.88A2.12,2.12,0,0,1,21.88,28Z"/><path d="M16,22a3,3,0,1,0-3-3A3,3,0,0,0,16,22Zm0-4a1,1,0,1,1-1,1A1,1,0,0,1,16,18Z"/></g></svg>