<svg fill="currentColor" xmlns="http://www.w3.org/2000/svg" viewBox="0 0 32 32"><g id="toilet_2" data-name="toilet 2"><path d="M26,12H16a3,3,0,0,0-3,3v1H12V3a1,1,0,0,0-1-1H3a1,1,0,0,0-.76.34,1,1,0,0,0-.23.8l2,14A1,1,0,0,0,5,18H6a7.7,7.7,0,0,0,1.13,3.52A7.94,7.94,0,0,0,11,24.71V28H9a1,1,0,0,0,0,2H23a1,1,0,0,0,0-2H21V24.71a7.94,7.94,0,0,0,3.85-3.19A7.7,7.7,0,0,0,26,18h0a3,3,0,0,0,0-6ZM4.15,4H10V16H5.87Zm19,16.48A6,6,0,0,1,19.73,23,1,1,0,0,0,19,24v4H13V24a1,1,0,0,0-.73-1A5.79,5.79,0,0,1,8,18H24A5.94,5.94,0,0,1,23.15,20.48ZM26,16H15V15a1,1,0,0,1,1-1H26a1,1,0,0,1,0,2Z"/><path d="M8,10A1,1,0,0,0,9,9V7A1,1,0,0,0,7,7V9A1,1,0,0,0,8,10Z"/></g></svg>