<svg fill="currentColor" xmlns="http://www.w3.org/2000/svg" viewBox="0 0 32 32"><g id="toilet_paper" data-name="toilet paper"><path d="M20,2H10L9.88,2,9.5,2C5.92,2,3,5.59,3,10s2.92,8,6.5,8A5.92,5.92,0,0,0,14,15.76V29a1,1,0,0,0,1,1H28a1,1,0,0,0,1-1V11A9,9,0,0,0,20,2ZM9.5,16C7,16,5,13.31,5,10S7,4,9.5,4,14,6.69,14,10,12,16,9.5,16ZM27,28H16V11a1,1,0,0,0,0-.17c0-.28,0-.55,0-.83a8.84,8.84,0,0,0-2.22-6H20a7.05,7.05,0,0,1,7,7Z"/><path d="M9.5,6C8.05,6,7,7.68,7,10s1.05,4,2.5,4S12,12.32,12,10,11,6,9.5,6Zm0,5.94A3.29,3.29,0,0,1,9,10a3.29,3.29,0,0,1,.5-1.94A3.29,3.29,0,0,1,10,10,3.29,3.29,0,0,1,9.5,11.94Z"/></g></svg>