<svg fill="currentColor" xmlns="http://www.w3.org/2000/svg" viewBox="0 0 32 32"><g id="toilet_sign" data-name="toilet sign"><path d="M11,15.59V14a3,3,0,0,0-1.25-2.42,4,4,0,1,0-3.5,0A3,3,0,0,0,5,14v1.59l-2,2A3.32,3.32,0,0,0,2,20v2a1,1,0,0,0,1,1H5v4a1,1,0,0,0,1,1h4a1,1,0,0,0,1-1V23h2a1,1,0,0,0,1-1V20a3.32,3.32,0,0,0-1-2.38ZM8,6A2,2,0,1,1,6,8,2,2,0,0,1,8,6ZM9,26H7V23H9Zm3-5H4V20a1.37,1.37,0,0,1,.4-1l2.31-2.3A1,1,0,0,0,7,16V14a1,1,0,0,1,2,0v2a1,1,0,0,0,.29.71L11.6,19a1.37,1.37,0,0,1,.4,1Z"/><path d="M16,2a1,1,0,0,0-1,1V29a1,1,0,0,0,2,0V3A1,1,0,0,0,16,2Z"/><path d="M26.25,11.31a4,4,0,1,0-4.5,0A5.55,5.55,0,0,0,18,16.55V22a1,1,0,0,0,1,1h2v4a1,1,0,0,0,1,1h4a1,1,0,0,0,1-1V23h2a1,1,0,0,0,1-1V16.55A5.55,5.55,0,0,0,26.25,11.31ZM24,6a2,2,0,1,1-2,2A2,2,0,0,1,24,6Zm1,20H23V23h2Zm3-5H20V16.55A3.55,3.55,0,0,1,23.55,13h.9A3.55,3.55,0,0,1,28,16.55Z"/></g></svg>