<svg fill="currentColor" xmlns="http://www.w3.org/2000/svg" viewBox="0 0 32 32"><g id="toilet_brush" data-name="toilet brush"><path d="M27.15,6.63l-1.44.16a4,4,0,0,0-.5-.9L25.92,5a1,1,0,0,0-.15-1.4,1,1,0,0,0-1.41.15l-.71.89a3.73,3.73,0,0,0-1-.3l-.17-1.47a1,1,0,0,0-2,.22l.16,1.45a3.78,3.78,0,0,0-1,.54l-.89-.71a1,1,0,0,0-1.26,1.56l.79.62-.63.78-.78-.62a1,1,0,0,0-1.25,1.56l.78.62-.62.78L15,9.05a1,1,0,1,0-1.26,1.56l.78.63-.06.08A1.9,1.9,0,0,0,14.74,14l.86.69-5,6.24-.78-.62a1,1,0,0,0-1.41.15L4.66,25.12a3,3,0,0,0,.46,4.22h0a3,3,0,0,0,4.22-.46l3.75-4.68a1,1,0,0,0-.15-1.41l-.78-.63,5-6.24.87.7a1.88,1.88,0,0,0,1.18.41h.21a1.86,1.86,0,0,0,1.27-.7l.07-.08.78.63a1,1,0,0,0,.63.22,1,1,0,0,0,.62-1.78L22,14.68l.62-.78.79.63a1,1,0,0,0,.62.22A1,1,0,0,0,24.67,13l-.79-.63.63-.78.78.62A1,1,0,0,0,26.7,12a1,1,0,0,0-.16-1.41l-.89-.71A3.72,3.72,0,0,0,26,8.77l1.4-.15a1,1,0,0,0-.22-2Zm-19.37,21a1,1,0,0,1-1.4.15A1,1,0,0,1,6,27.11a1,1,0,0,1,.21-.73l3.13-3.91.78.63h0l.78.62ZM19.2,15l-3.12-2.5.62-.78h0l1.88-2.34h0L20.45,7a2,2,0,0,1,1.35-.74,2,2,0,0,1,1.47.43A2,2,0,0,1,24,8.06a2,2,0,0,1-.43,1.47Z"/></g></svg>