<svg fill="currentColor" xmlns="http://www.w3.org/2000/svg" viewBox="0 0 32 32"><g id="towel_2" data-name="towel 2"><path d="M27.84,13,18.71,9.5A7.94,7.94,0,0,0,17,9.07V7a1,1,0,0,0-1-1,1,1,0,1,1,1-1,1,1,0,0,0,2,0,3,3,0,1,0-4,2.82V9.07a7.94,7.94,0,0,0-1.71.43L4.16,13a3.37,3.37,0,0,0,1.21,6.51H7v7.26A3.21,3.21,0,0,0,10.21,30H21.79A3.21,3.21,0,0,0,25,26.79V19.53h1.63A3.37,3.37,0,0,0,27.84,13ZM23,26.79A1.21,1.21,0,0,1,21.79,28H10.21A1.21,1.21,0,0,1,9,26.79v-8.6A.18.18,0,0,1,9.19,18H22.81a.18.18,0,0,1,.19.19Zm3.63-9.26H25l-.1,0A2.2,2.2,0,0,0,22.81,16H9.19a2.19,2.19,0,0,0-2.08,1.53H5.37a1.37,1.37,0,0,1-.49-2.65L14,11.37A5.48,5.48,0,0,1,16,11h0a5.48,5.48,0,0,1,2,.37l9.13,3.51a1.37,1.37,0,0,1-.49,2.65Z"/></g></svg>