<svg fill="currentColor" xmlns="http://www.w3.org/2000/svg" viewBox="0 0 32 32"><g id="towel"><path d="M28.2,13H25.44A3.91,3.91,0,0,0,26,11a4,4,0,0,0-4-4H3.8A1.81,1.81,0,0,0,2,8.8v4.4A1.81,1.81,0,0,0,3.8,15H6.56a3.85,3.85,0,0,0,0,4H3.8A1.81,1.81,0,0,0,2,20.8v4.4A1.81,1.81,0,0,0,3.8,27H22a4,4,0,0,0,4-4,3.91,3.91,0,0,0-.56-2H28.2A1.81,1.81,0,0,0,30,19.2V14.8A1.81,1.81,0,0,0,28.2,13ZM4,12H18a1,1,0,0,0,0-2H4V9H22a2,2,0,0,1,0,4H4ZM24,23a2,2,0,0,1-2,2H4V24H18a1,1,0,0,0,0-2H4V21H22A2,2,0,0,1,24,23Zm-2-4H10a2,2,0,0,1,0-4H28v1H14a1,1,0,0,0,0,2H28v1Z"/></g></svg>