<svg fill="currentColor" xmlns="http://www.w3.org/2000/svg" viewBox="0 0 32 32"><g id="urinal"><path d="M24,21.43A48.64,48.64,0,0,1,22,14.78c-.31-1.36-.56-2.74-.76-4.12A5.39,5.39,0,0,0,17,6.12V4h1a1,1,0,0,0,0-2H14a1,1,0,0,0,0,2h1V6.11a5.29,5.29,0,0,0-4.21,4.53c-.19,1.38-.45,2.77-.76,4.14a48.64,48.64,0,0,1-2,6.65,5.39,5.39,0,0,0,1.33,6,9.88,9.88,0,0,0,13.38,0A5.39,5.39,0,0,0,24,21.43Zm-2.68,4.49a7.89,7.89,0,0,1-10.68,0,3.43,3.43,0,0,1-.81-3.76A51.4,51.4,0,0,0,12,15.22c.33-1.41.6-2.86.8-4.3A3.33,3.33,0,0,1,15.58,8L16,8h.16a3.38,3.38,0,0,1,3.07,2.93c.2,1.43.47,2.88.8,4.28a51.4,51.4,0,0,0,2.12,6.94A3.43,3.43,0,0,1,21.34,25.92Z"/><path d="M19.25,18.41c-.14-.6-.25-1.21-.34-1.82A3,3,0,0,0,16.16,14H16l-.35,0a2.94,2.94,0,0,0-2.56,2.56h0c-.08.61-.2,1.23-.34,1.83a21.81,21.81,0,0,1-.9,2.95,3,3,0,0,0,.74,3.31,5,5,0,0,0,6.82,0,3,3,0,0,0,.74-3.31A21.81,21.81,0,0,1,19.25,18.41ZM18.06,23.2a3.13,3.13,0,0,1-4.12,0,1,1,0,0,1-.23-1.11,23.13,23.13,0,0,0,1-3.23c.15-.66.28-1.34.37-2a1,1,0,0,1,.8-.85H16a1,1,0,0,1,.89.87c.09.66.22,1.33.37,2a23.55,23.55,0,0,0,1,3.23A1,1,0,0,1,18.06,23.2Z"/></g></svg>