<?xml version="1.0" encoding="UTF-8"?><svg fill="currentColor" xmlns="http://www.w3.org/2000/svg" viewBox="0 0 24 24"><g id="l"><g><path d="M9.13,15.75h-1.15c-.05,0-.1-.03-.11-.08-.41-1.18-.61-2.42-.61-3.67s.21-2.49,.61-3.67c.02-.05,.06-.08,.11-.08h1.15c.9,0,1.63-.74,1.63-1.65V3.9c0-.91-.73-1.65-1.63-1.65h-1.46c-1.64,0-3.14,.96-3.83,2.45-1.32,2.87-1.59,5.56-1.59,7.3,0,2.53,.54,4.99,1.6,7.3,.68,1.49,2.18,2.45,3.82,2.45h1.46c.9,0,1.63-.74,1.63-1.65v-2.7c0-.91-.73-1.65-1.63-1.65Z"/><path d="M21,9.25h-4.25v-1.25c0-.29-.17-.55-.42-.68s-.57-.09-.79,.09l-5,4c-.18,.14-.28,.36-.28,.59s.1,.44,.28,.59l5,4c.14,.11,.3,.16,.47,.16,.11,0,.22-.02,.33-.07,.26-.12,.42-.39,.42-.68v-1.25h4.25c.41,0,.75-.34,.75-.75v-4c0-.41-.34-.75-.75-.75Z"/></g></g></svg>