<?xml version="1.0" encoding="UTF-8"?><svg fill="currentColor" xmlns="http://www.w3.org/2000/svg" viewBox="0 0 24 24"><g id="i"><g><circle cx="12" cy="10" r="1.25"/><path d="M16,2.25H8c-2.07,0-3.75,1.68-3.75,3.75v.25h-1.25c-.41,0-.75,.34-.75,.75s.34,.75,.75,.75h1.25v3.5h-1.25c-.41,0-.75,.34-.75,.75s.34,.75,.75,.75h1.25v3.5h-1.25c-.41,0-.75,.34-.75,.75s.34,.75,.75,.75h1.25v.25c0,2.07,1.68,3.75,3.75,3.75h8c2.07,0,3.75-1.68,3.75-3.75V6c0-2.07-1.68-3.75-3.75-3.75Zm-.25,13.75c0,.41-.34,.75-.75,.75s-.75-.34-.75-.75v-1c0-1.24-1.01-2.25-2.25-2.25s-2.25,1.01-2.25,2.25v1c0,.41-.34,.75-.75,.75s-.75-.34-.75-.75v-1c0-1.32,.69-2.48,1.73-3.15-.45-.49-.73-1.14-.73-1.85,0-1.52,1.23-2.75,2.75-2.75s2.75,1.23,2.75,2.75c0,.72-.28,1.36-.73,1.85,1.04,.67,1.73,1.83,1.73,3.15v1Z"/></g></g></svg>