<?xml version="1.0" encoding="UTF-8"?><svg fill="currentColor" xmlns="http://www.w3.org/2000/svg" viewBox="0 0 24 24"><g id="n"><g><path d="M21.75,5c0-1.52-1.23-2.75-2.75-2.75H5c-1.52,0-2.75,1.23-2.75,2.75v5c0,.79,.34,1.5,.87,2-.54,.5-.87,1.21-.87,2v5c0,1.52,1.23,2.75,2.75,2.75h14c1.52,0,2.75-1.23,2.75-2.75v-5c0-.79-.34-1.5-.87-2,.54-.5,.87-1.21,.87-2V5ZM7,18.75h-1c-.41,0-.75-.34-.75-.75s.34-.75,.75-.75h1c.41,0,.75,.34,.75,.75s-.34,.75-.75,.75Zm0-3c-.41,0-.75-.34-.75-.75s.34-.75,.75-.75h1c.41,0,.75,.34,.75,.75s-.34,.75-.75,.75h-1Zm8,3h-6c-.41,0-.75-.34-.75-.75s.34-.75,.75-.75h6c.41,0,.75,.34,.75,.75s-.34,.75-.75,.75Zm-5.75-3.75c0-.41,.34-.75,.75-.75h1c.41,0,.75,.34,.75,.75s-.34,.75-.75,.75h-1c-.41,0-.75-.34-.75-.75Zm3,0c0-.41,.34-.75,.75-.75h1c.41,0,.75,.34,.75,.75s-.34,.75-.75,.75h-1c-.41,0-.75-.34-.75-.75Zm3,0c0-.41,.34-.75,.75-.75h1c.41,0,.75,.34,.75,.75s-.34,.75-.75,.75h-1c-.41,0-.75-.34-.75-.75Zm2.75,3.75h-1c-.41,0-.75-.34-.75-.75s.34-.75,.75-.75h1c.41,0,.75,.34,.75,.75s-.34,.75-.75,.75Zm1.75-9.75c0,.96-.79,1.75-1.75,1.75H6c-.96,0-1.75-.79-1.75-1.75v-3c0-.96,.79-1.75,1.75-1.75h12c.96,0,1.75,.79,1.75,1.75v3Z"/><rect x="5.75" y="5.75" width="12.5" height="3.5" rx=".25" ry=".25"/></g></g></svg>