<?xml version="1.0" encoding="UTF-8"?><svg fill="currentColor" xmlns="http://www.w3.org/2000/svg" viewBox="0 0 24 24"><g id="f"><g><rect x="10.75" y="10.75" width="3.5" height="2.5" rx=".25" ry=".25"/><path d="M12.5,5.25c-2.9,0-5.25,2.36-5.25,5.25v8.5c0,1.52,1.23,2.75,2.75,2.75h5c1.52,0,2.75-1.23,2.75-2.75V10.5c0-2.89-2.35-5.25-5.25-5.25Zm-1.5,14.5h-1c-.41,0-.75-.34-.75-.75s.34-.75,.75-.75h1c.41,0,.75,.34,.75,.75s-.34,.75-.75,.75Zm0-2h-1c-.41,0-.75-.34-.75-.75s.34-.75,.75-.75h1c.41,0,.75,.34,.75,.75s-.34,.75-.75,.75Zm4,2h-1c-.41,0-.75-.34-.75-.75s.34-.75,.75-.75h1c.41,0,.75,.34,.75,.75s-.34,.75-.75,.75Zm0-2h-1c-.41,0-.75-.34-.75-.75s.34-.75,.75-.75h1c.41,0,.75,.34,.75,.75s-.34,.75-.75,.75Zm.75-4.75c0,.96-.79,1.75-1.75,1.75h-3c-.96,0-1.75-.79-1.75-1.75v-2c0-.96,.79-1.75,1.75-1.75h3c.96,0,1.75,.79,1.75,1.75v2Z"/><path d="M15.5,2.25c-1,0-1.84,.66-2.13,1.56,1.76,.23,3.32,1.13,4.38,2.45v-1.77c0-1.24-1.01-2.25-2.25-2.25Z"/></g></g></svg>