<?xml version="1.0" encoding="UTF-8"?><svg fill="currentColor" xmlns="http://www.w3.org/2000/svg" viewBox="0 0 24 24"><g id="m"><g><rect x="9.75" y="9.75" width="4.5" height="1.5" rx=".25" ry=".25"/><path d="M15,6.25h-6c-1.52,0-2.75,1.23-2.75,2.75v4c0,3.17,2.58,5.75,5.75,5.75s5.75-2.58,5.75-5.75v-4c0-1.52-1.23-2.75-2.75-2.75Zm.75,4.75c0,.96-.79,1.75-1.75,1.75h-4c-.96,0-1.75-.79-1.75-1.75v-1c0-.96,.79-1.75,1.75-1.75h4c.96,0,1.75,.79,1.75,1.75v1Z"/><path d="M12,20.25c-2.19,0-4.15-.98-5.48-2.52,.74,2.33,2.91,4.02,5.48,4.02s4.75-1.69,5.48-4.02c-1.33,1.54-3.29,2.52-5.48,2.52Z"/><path d="M15.5,2.25c-1.24,0-2.25,1.01-2.25,2.25v.25h1.75c1.05,0,2.01,.4,2.75,1.04v-1.29c0-1.24-1.01-2.25-2.25-2.25Z"/></g></g></svg>