<?xml version="1.0" encoding="UTF-8"?><svg fill="currentColor" xmlns="http://www.w3.org/2000/svg" viewBox="0 0 24 24"><g id="u"><path d="M21.22,16.26l-2.28-2.28c-.71-.71-1.87-.71-2.58,0l-1,1c-.1,.1-.24,.12-.36,.07-1.36-.65-2.59-1.52-3.66-2.58s-1.93-2.3-2.58-3.66c-.06-.12-.03-.26,.07-.36l1-1c.71-.71,.71-1.87,0-2.58l-2.28-2.28c-.71-.71-1.87-.71-2.58,0l-1.26,1.26c-1.37,1.37-1.85,3.42-1.21,5.2,1.27,3.54,3.28,6.03,4.74,7.49,2.12,2.12,4.64,3.71,7.49,4.74,.53,.19,1.08,.28,1.64,.28,1.31,0,2.6-.52,3.57-1.49l1.26-1.26c.71-.71,.71-1.87,0-2.58Z"/></g></svg>