<?xml version="1.0" encoding="UTF-8"?><svg fill="currentColor" xmlns="http://www.w3.org/2000/svg" viewBox="0 0 24 24"><g id="j"><path d="M18,4.25H6c-2.07,0-3.75,1.68-3.75,3.75v7c0,2.07,1.68,3.75,3.75,3.75h12c2.07,0,3.75-1.68,3.75-3.75v-7c0-2.07-1.68-3.75-3.75-3.75Zm.75,9.13c0,.76-.61,1.38-1.35,1.38h-1.8c-.74,0-1.35-.62-1.35-1.38v-.74c-1.46-.51-3.04-.51-4.5,0v.74c0,.76-.61,1.38-1.35,1.38h-1.8c-.74,0-1.35-.62-1.35-1.38v-1.04c0-1.25,.69-2.39,1.76-2.92,1.58-.77,3.26-1.17,4.99-1.17,1.19,0,3.03,.2,4.99,1.17,1.07,.53,1.76,1.67,1.76,2.92v1.04Z"/></g></svg>