<?xml version="1.0" encoding="UTF-8"?><svg fill="currentColor" xmlns="http://www.w3.org/2000/svg" viewBox="0 0 24 24"><g id="k"><g><path d="M21.24,16.44l-2.28-2.28c-.71-.71-1.87-.71-2.58,0l-1,1c-.1,.1-.24,.12-.35,.07-1.36-.65-2.59-1.52-3.66-2.58-1.06-1.06-1.93-2.29-2.58-3.66-.06-.12-.03-.26,.07-.36l.99-1c.71-.71,.71-1.87,0-2.58l-2.28-2.28c-.71-.71-1.87-.71-2.58,0l-1.26,1.26c-1.37,1.37-1.85,3.42-1.21,5.21,1.27,3.54,3.28,6.03,4.74,7.49,2.12,2.12,4.64,3.71,7.49,4.74,.53,.19,1.08,.28,1.64,.28,1.31,0,2.6-.52,3.57-1.49l1.26-1.26c.71-.71,.71-1.87,0-2.58Z"/><path d="M13,7.75h7c.3,0,.58-.18,.69-.46s.05-.6-.16-.82l-2-2c-.29-.29-.77-.29-1.06,0s-.29,.77,0,1.06l.72,.72h-5.19c-.41,0-.75,.34-.75,.75s.34,.75,.75,.75Z"/><path d="M20.75,10c0-.41-.34-.75-.75-.75h-7c-.3,0-.58,.18-.69,.46s-.05,.6,.16,.82l2,2c.15,.15,.34,.22,.53,.22s.38-.07,.53-.22c.29-.29,.29-.77,0-1.06l-.72-.72h5.19c.41,0,.75-.34,.75-.75Z"/></g></g></svg>