<?xml version="1.0" encoding="UTF-8"?><svg fill="currentColor" xmlns="http://www.w3.org/2000/svg" viewBox="0 0 24 24"><g id="o"><g><path d="M21.24,16.44l-2.28-2.28c-.71-.71-1.87-.71-2.58,0l-1,1c-.1,.1-.24,.13-.36,.07-1.36-.65-2.59-1.52-3.66-2.58-1.06-1.06-1.93-2.3-2.58-3.66-.06-.12-.03-.26,.07-.36l1-1c.71-.71,.71-1.87,0-2.58l-2.28-2.28c-.69-.69-1.89-.69-2.58,0l-1.26,1.26c-1.37,1.37-1.85,3.42-1.21,5.2,1.27,3.54,3.28,6.03,4.74,7.49,2.12,2.12,4.64,3.71,7.49,4.74,.53,.19,1.08,.28,1.64,.28,1.31,0,2.6-.52,3.57-1.49l1.26-1.26c.71-.71,.71-1.87,0-2.58Z"/><path d="M12.18,5.17c1.84-1.03,4.18-.71,5.67,.79,1.5,1.5,1.82,3.83,.79,5.67-.2,.36-.07,.82,.29,1.02,.12,.06,.24,.1,.37,.1,.26,0,.52-.14,.66-.38,1.36-2.43,.93-5.5-1.04-7.47-1.97-1.97-5.04-2.4-7.47-1.04-.36,.2-.49,.66-.29,1.02,.2,.36,.66,.49,1.02,.29Z"/><path d="M16.17,11.32c.13,.08,.27,.13,.41,.13,.24,0,.48-.12,.63-.34,.85-1.28,.68-3-.41-4.09-1.09-1.09-2.81-1.26-4.09-.41-.35,.23-.44,.69-.21,1.04,.23,.35,.69,.44,1.04,.21,.69-.46,1.62-.36,2.2,.22,.59,.59,.68,1.51,.22,2.2-.23,.35-.13,.81,.21,1.04Z"/></g></g></svg>