<?xml version="1.0" encoding="UTF-8"?><svg fill="currentColor" xmlns="http://www.w3.org/2000/svg" viewBox="0 0 24 24"><g id="c"><g><rect x="7.75" y="11.75" width="7.5" height="5.5" rx=".25" ry=".25"/><path d="M19.09,6.11l-4.35-3.48c-.31-.25-.7-.38-1.09-.38H5c-.96,0-1.75,.79-1.75,1.75V20c0,.96,.79,1.75,1.75,1.75h13c.96,0,1.75-.79,1.75-1.75V7.48c0-.54-.24-1.03-.66-1.37Zm-2.34,10.89c0,.96-.79,1.75-1.75,1.75h-7c-.96,0-1.75-.79-1.75-1.75v-5c0-.96,.79-1.75,1.75-1.75h7c.96,0,1.75,.79,1.75,1.75v5Z"/></g></g></svg>