<?xml version="1.0" encoding="UTF-8"?><svg fill="currentColor" xmlns="http://www.w3.org/2000/svg" viewBox="0 0 24 24"><g id="r"><g><path d="M17.91,14.37c-.33-.33-.77-.51-1.24-.51h0c-.47,0-.91,.18-1.24,.51l-.93,.93c-.08,.08-.19,.1-.27,.06-1.26-.6-2.41-1.41-3.39-2.4-.99-.99-1.8-2.13-2.4-3.4-.04-.09-.02-.2,.06-.27l.93-.93c.68-.68,.68-1.79,0-2.48l-2.12-2.12c-.66-.66-1.82-.66-2.48,0l-1.18,1.18c-1.29,1.29-1.74,3.22-1.14,4.9,1.19,3.32,3.07,5.64,4.43,7,1.98,1.98,4.33,3.47,7,4.43,.5,.18,1.02,.27,1.54,.27,1.23,0,2.45-.49,3.36-1.4l1.18-1.18c.33-.33,.51-.77,.51-1.24s-.18-.91-.51-1.24l-2.12-2.12Z"/><path d="M12.26,11.87c-.05,.27,.05,.54,.26,.71,.14,.11,.31,.17,.48,.17,.09,0,.18-.02,.26-.05l2.79-1.05c.31,.06,.63,.09,.95,.09,2.62,0,4.75-2.13,4.75-4.75s-2.13-4.75-4.75-4.75-4.75,2.13-4.75,4.75c0,.74,.17,1.47,.5,2.13l-.49,2.74Z"/></g></g></svg>