<?xml version="1.0" encoding="UTF-8"?><svg fill="currentColor" xmlns="http://www.w3.org/2000/svg" viewBox="0 0 24 24"><g id="t"><g><path d="M19.3,3.84c-2.87-1.32-5.56-1.59-7.3-1.59-2.53,0-4.99,.54-7.3,1.6-1.49,.68-2.45,2.18-2.45,3.82v1.45c0,.9,.74,1.63,1.65,1.63h2.7c.91,0,1.65-.73,1.65-1.63v-1.15c0-.05,.03-.1,.08-.11,2.36-.81,4.97-.81,7.33,0,.05,.02,.08,.06,.08,.11v1.15c0,.9,.74,1.63,1.65,1.63h2.7c.91,0,1.65-.73,1.65-1.63v-1.46c0-1.64-.96-3.14-2.45-3.83Z"/><circle cx="12" cy="16" r="1.25"/><path d="M19.16,13.85c-.16-1.37-1.28-2.4-2.6-2.4h-.29c-.42,0-.8-.26-1-.67-.44-.94-1.35-1.53-2.35-1.53h-1.83c-1.01,0-1.91,.59-2.35,1.53-.19,.41-.58,.67-1,.67h-.29c-1.32,0-2.44,1.03-2.6,2.4l-.57,4.82c-.09,.8,.15,1.61,.68,2.2,.49,.56,1.19,.87,1.92,.87h10.25c.73,0,1.43-.32,1.92-.87,.53-.59,.78-1.4,.68-2.2l-.57-4.82Zm-7.16,4.9c-1.52,0-2.75-1.23-2.75-2.75s1.23-2.75,2.75-2.75,2.75,1.23,2.75,2.75-1.23,2.75-2.75,2.75Z"/></g></g></svg>