<?xml version="1.0" encoding="UTF-8"?><svg fill="currentColor" xmlns="http://www.w3.org/2000/svg" viewBox="0 0 24 24"><g id="g"><g><path d="M9.75,17c0,.14,.11,.25,.25,.25h1.25v-3.5h-1.5v3.25Z"/><path d="M9.75,9v3.25h1.5v-3.5h-1.25c-.14,0-.25,.11-.25,.25Z"/><path d="M14,8.75h-1.25v3.5h1.5v-3.25c0-.14-.11-.25-.25-.25Z"/><path d="M12.75,17.25h1.25c.14,0,.25-.11,.25-.25v-3.25h-1.5v3.5Z"/><path d="M17,5.25H7c-.41,0-.75,.34-.75,.75v14c0,.96,.79,1.75,1.75,1.75h8c.96,0,1.75-.79,1.75-1.75V6c0-.41-.34-.75-.75-.75Zm-1.25,11.75c0,.96-.79,1.75-1.75,1.75h-4c-.96,0-1.75-.79-1.75-1.75V9c0-.96,.79-1.75,1.75-1.75h4c.96,0,1.75,.79,1.75,1.75v8Z"/><path d="M17,3.75c.68,0,1.28,.31,1.69,.78-.17-.74-.73-1.35-1.49-1.57-3.39-.95-7.03-.95-10.43,.01-.74,.21-1.29,.82-1.46,1.56,.41-.48,1.01-.78,1.69-.78h10Z"/></g></g></svg>