<?xml version="1.0" encoding="UTF-8"?><svg fill="currentColor" xmlns="http://www.w3.org/2000/svg" viewBox="0 0 24 24"><g id="s"><path d="M12,2.25C6.62,2.25,2.25,6.62,2.25,12c0,1.46,.33,2.92,.96,4.23l-.95,4.62c-.05,.27,.04,.54,.25,.72,.14,.12,.31,.18,.49,.18,.09,0,.18-.02,.27-.05l3.65-1.38c1.53,.94,3.28,1.43,5.09,1.43,5.38,0,9.75-4.37,9.75-9.75S17.38,2.25,12,2.25Zm5.46,13.41l-.67,.67c-.58,.58-1.36,.89-2.14,.89-.33,0-.67-.06-.99-.17-1.56-.56-2.94-1.44-4.1-2.6-.8-.8-1.9-2.16-2.6-4.11-.39-1.08-.1-2.3,.72-3.13l.67-.67c.52-.51,1.35-.51,1.87,0l1.21,1.21c.51,.51,.51,1.35,0,1.87l-.44,.44c.32,.64,.74,1.22,1.24,1.72s1.08,.92,1.72,1.24l.44-.44c.52-.51,1.35-.51,1.87,0l1.21,1.21c.25,.25,.39,.58,.39,.93s-.14,.68-.39,.93Z"/></g></svg>