<?xml version="1.0" encoding="UTF-8"?><svg fill="currentColor" xmlns="http://www.w3.org/2000/svg" viewBox="0 0 24 24"><g id="e"><path d="M21.27,14.07l-1.89-1.89c-.64-.64-1.68-.64-2.32,0l-.83,.83s-.1,.06-.15,.03c-1.12-.53-2.13-1.25-3-2.12-.87-.87-1.59-1.88-2.12-3-.02-.05-.01-.11,.03-.15l.83-.83c.64-.64,.64-1.68,0-2.32l-1.89-1.89c-.62-.62-1.7-.62-2.32,0l-1.05,1.05c-1.18,1.17-1.58,2.92-1.03,4.45,1.06,2.96,2.74,5.04,3.97,6.27,1.77,1.77,3.88,3.11,6.27,3.96,.16,.06,.32,.09,.48,.13v1c0,.37-.3,.66-.66,.66h-1c-.17,0-.35-.07-.47-.19l-.59-.59c-.82-.82-2.24-.82-3.06,0-.25,.25-.69,.25-.94,0-.82-.82-2.24-.82-3.06,0-.25,.25-.69,.25-.94,0l-1-1c-.29-.29-.77-.29-1.06,0s-.29,.77,0,1.06l1,1c.82,.82,2.24,.82,3.06,0,.25-.25,.69-.25,.94,0,.82,.82,2.24,.82,3.06,0,.25-.25,.69-.25,.94,0l.59,.59c.4,.4,.96,.63,1.53,.63h1c1.19,0,2.16-.97,2.16-2.16v-.94c.91-.13,1.79-.53,2.47-1.21l1.05-1.05c.64-.64,.64-1.68,0-2.32Z"/></g></svg>