<?xml version="1.0" encoding="UTF-8"?><svg fill="currentColor" xmlns="http://www.w3.org/2000/svg" viewBox="0 0 24 24"><g id="h"><g><path d="M7.38,14.46h-.73c-.26-.8-.4-1.62-.4-2.46s.13-1.67,.4-2.46h.73c.76,0,1.38-.63,1.38-1.39v-1.93c0-.77-.62-1.39-1.38-1.39h-1.04c-1.25,0-2.4,.74-2.93,1.87-.96,2.09-1.16,4.04-1.16,5.3,0,1.84,.39,3.62,1.16,5.3,.52,1.14,1.67,1.88,2.93,1.88h1.04c.76,0,1.38-.63,1.38-1.39v-1.93c0-.77-.62-1.39-1.38-1.39Z"/><path d="M12.25,11.98c0-.21,.02-.4,.03-.6-1.37-.39-2.32-1-2.77-1.33l-.76-.59c-.32,.79-.5,1.65-.5,2.55,0,1.06,.25,2.06,.69,2.95l.56-.51c.48-.36,1.45-.97,2.81-1.36-.03-.36-.05-.72-.05-1.1Z"/><path d="M14.96,11.75c-.42,0-.81-.03-1.19-.08,0,.1-.02,.2-.02,.3,0,.28,.02,.54,.04,.8,.4-.05,.81-.09,1.26-.09,.41,0,.79,.03,1.16,.08,.02-.26,.04-.52,.04-.79,0-.11-.01-.21-.02-.32-.39,.05-.8,.09-1.23,.09h-.05Z"/><path d="M21.2,9.35l-.76,.66c-.47,.35-1.4,.94-2.73,1.34,.01,.21,.03,.41,.03,.63,0,.38-.02,.74-.05,1.1,1.36,.4,2.3,1,2.75,1.32l.65,.48c.41-.87,.65-1.84,.65-2.87,0-.94-.2-1.84-.55-2.65Z"/><path d="M15.04,14.19c-.38,0-.73,.03-1.06,.07,.25,1.22,.66,2.18,1.02,2.87,.39-.74,.78-1.71,1.02-2.88-.31-.04-.63-.06-.97-.07Z"/><path d="M19.51,8.83l.93-.81c-1.07-1.46-2.71-2.47-4.58-2.71,.6,.96,1.36,2.5,1.7,4.51,.95-.32,1.62-.74,1.95-.99Z"/><path d="M14.96,10.25h.04c.39,0,.75-.04,1.1-.09-.22-1.37-.66-2.5-1.1-3.34-.41,.78-.86,1.91-1.09,3.36,.33,.04,.68,.07,1.05,.07Z"/><path d="M10.45,15.6l-.7,.63c1.07,1.33,2.64,2.24,4.41,2.46-.51-.78-1.26-2.18-1.65-4.12-1.01,.33-1.72,.77-2.07,1.03Z"/><path d="M17.48,14.57c-.38,1.84-1.09,3.24-1.65,4.12,1.82-.22,3.41-1.17,4.49-2.54l-.75-.55c-.35-.25-1.06-.71-2.08-1.03Z"/><path d="M12.43,9.85c.35-2.13,1.15-3.69,1.69-4.54-1.91,.25-3.58,1.3-4.64,2.81l.93,.73c.33,.24,1.03,.68,2.02,1Z"/></g></g></svg>