<svg fill="currentColor" xmlns="http://www.w3.org/2000/svg" viewBox="0 0 32 32"><g id="binary"><path d="M26.75,2H5.25A3.26,3.26,0,0,0,2,5.25v20.5A3.26,3.26,0,0,0,5.25,29h21.5A3.26,3.26,0,0,0,30,25.75V5.25A3.26,3.26,0,0,0,26.75,2ZM4,5.25A1.25,1.25,0,0,1,5.25,4h21.5A1.25,1.25,0,0,1,28,5.25V6H4Zm24,20.5A1.25,1.25,0,0,1,26.75,27H5.25A1.25,1.25,0,0,1,4,25.75V8H28Z"/><path d="M7,16a1,1,0,0,0,1-1V11a1,1,0,0,0-2,0v4A1,1,0,0,0,7,16Z"/><path d="M7,25a1,1,0,0,0,1-1V20a1,1,0,0,0-2,0v4A1,1,0,0,0,7,25Z"/><path d="M11.5,16A2.5,2.5,0,0,0,14,13.5v-1a2.5,2.5,0,0,0-5,0v1A2.5,2.5,0,0,0,11.5,16ZM11,12.5a.5.5,0,0,1,1,0v1a.5.5,0,0,1-1,0Z"/><path d="M16,16a1,1,0,0,0,1-1V11a1,1,0,0,0-2,0v4A1,1,0,0,0,16,16Z"/><path d="M25,16a1,1,0,0,0,1-1V11a1,1,0,0,0-2,0v4A1,1,0,0,0,25,16Z"/><path d="M20.5,16A2.5,2.5,0,0,0,23,13.5v-1a2.5,2.5,0,0,0-5,0v1A2.5,2.5,0,0,0,20.5,16ZM20,12.5a.5.5,0,0,1,1,0v1a.5.5,0,0,1-1,0Z"/><path d="M11.5,25A2.5,2.5,0,0,0,14,22.5v-1a2.5,2.5,0,0,0-5,0v1A2.5,2.5,0,0,0,11.5,25ZM11,21.5a.5.5,0,0,1,1,0v1a.5.5,0,0,1-1,0Z"/><path d="M16,25a1,1,0,0,0,1-1V20a1,1,0,0,0-2,0v4A1,1,0,0,0,16,25Z"/><path d="M25,25a1,1,0,0,0,1-1V20a1,1,0,0,0-2,0v4A1,1,0,0,0,25,25Z"/><path d="M20.5,25A2.5,2.5,0,0,0,23,22.5v-1a2.5,2.5,0,0,0-5,0v1A2.5,2.5,0,0,0,20.5,25ZM20,21.5a.5.5,0,0,1,1,0v1a.5.5,0,0,1-1,0Z"/></g></svg>