<svg fill="currentColor" xmlns="http://www.w3.org/2000/svg" viewBox="0 0 32 32"><g id="board"><path d="M18.87,10H13.13A3.13,3.13,0,0,0,10,13.13v5.74A3.13,3.13,0,0,0,13.13,22h5.74A3.13,3.13,0,0,0,22,18.87V13.13A3.13,3.13,0,0,0,18.87,10ZM20,18.87A1.14,1.14,0,0,1,18.87,20H13.13A1.14,1.14,0,0,1,12,18.87V13.13A1.14,1.14,0,0,1,13.13,12h5.74A1.14,1.14,0,0,1,20,13.13Z"/><path d="M29,17a1,1,0,0,0,0-2H26V11h3a1,1,0,0,0,0-2H26a3.13,3.13,0,0,0-3-3V3a1,1,0,0,0-2,0V6H17V3a1,1,0,0,0-2,0V6H11V3A1,1,0,0,0,9,3V6A3.13,3.13,0,0,0,6,9H3a1,1,0,0,0,0,2H6v4H3a1,1,0,0,0,0,2H6v4H3a1,1,0,0,0,0,2H6a3.13,3.13,0,0,0,3,3v3a1,1,0,0,0,2,0V26h4v3a1,1,0,0,0,2,0V26h4v3a1,1,0,0,0,2,0V26a3.13,3.13,0,0,0,3-3h3a1,1,0,0,0,0-2H26V17Zm-5,5.87A1.14,1.14,0,0,1,22.87,24H9.13A1.14,1.14,0,0,1,8,22.87V9.13A1.14,1.14,0,0,1,9.13,8H22.87A1.14,1.14,0,0,1,24,9.13Z"/></g></svg>