<svg fill="currentColor" xmlns="http://www.w3.org/2000/svg" viewBox="0 0 32 32"><g id="cache"><path d="M16,28H9a1.12,1.12,0,0,1-1.12-1.06L7.06,12H22.94l-.38,6.94a1,1,0,1,0,2,.12L25,11.8a1.87,1.87,0,0,0,1-1.67V7.87A1.87,1.87,0,0,0,24.13,6H20V4.32A2.32,2.32,0,0,0,17.68,2H12.32A2.32,2.32,0,0,0,10,4.32V6H5.87A1.87,1.87,0,0,0,4,7.87v2.26A1.87,1.87,0,0,0,5,11.8l.85,15.25A3.13,3.13,0,0,0,9,30h7a1,1,0,0,0,0-2ZM12,4.32A.32.32,0,0,1,12.32,4h5.36a.32.32,0,0,1,.32.32V6H12ZM6,8H24v2H6Z"/><path d="M10,16v7a1,1,0,0,0,2,0V16a1,1,0,0,0-2,0Z"/><path d="M14,16v7a1,1,0,0,0,2,0V16a1,1,0,0,0-2,0Z"/><path d="M19,24a1,1,0,0,0,1-1V16a1,1,0,0,0-2,0v7A1,1,0,0,0,19,24Z"/><path d="M27.74,24.06a4.07,4.07,0,0,0-7.48,1,2.72,2.72,0,0,0-2.1,1.59,2.41,2.41,0,0,0,0,1.73A2.79,2.79,0,0,0,20.78,30h6.31a3,3,0,0,0,.65-5.93ZM27.09,28H21a.94.94,0,0,1-1-.37.44.44,0,0,1,0-.27A1,1,0,0,1,21,27a1,1,0,0,0,.74-.22,1,1,0,0,0,.36-.68,2.23,2.23,0,0,1,2-2.09,2.15,2.15,0,0,1,2,1.39,1,1,0,0,0,.92.61,1,1,0,0,1,0,2Z"/></g></svg>