<svg fill="currentColor" xmlns="http://www.w3.org/2000/svg" viewBox="0 0 32 32"><g id="cloud"><path d="M29,24H19.86A4,4,0,0,0,17,21.14V19h5.51a5.41,5.41,0,0,0,5.2-3.6,5.38,5.38,0,0,0-4.42-7.08,8,8,0,0,0-7.23-4.4A7.94,7.94,0,0,0,8.7,10.44a4.88,4.88,0,0,0-4.43,2.83,4,4,0,0,0,0,2.91A4.94,4.94,0,0,0,9,19q.3,0,.6,0H15v2.14A4,4,0,0,0,12.14,24H3a1,1,0,0,0,0,2h9.14a4,4,0,0,0,7.72,0H29a1,1,0,0,0,0-2ZM9.46,17a3.14,3.14,0,0,1-3.33-1.55,2.18,2.18,0,0,1,0-1.45A3,3,0,0,1,9,12.43l.43,0a1,1,0,0,0,.74-.22,1.06,1.06,0,0,0,.36-.69,6.06,6.06,0,0,1,5.58-5.62,6,6,0,0,1,5.58,3.75,1,1,0,0,0,.92.61,3.37,3.37,0,0,1,3.17,4.49A3.44,3.44,0,0,1,22.51,17ZM16,27a2,2,0,1,1,2-2A2,2,0,0,1,16,27Z"/></g></svg>