<svg fill="currentColor" xmlns="http://www.w3.org/2000/svg" viewBox="0 0 32 32"><g id="computer"><path d="M25,24H24V17a2,2,0,0,0-2-2H17V12h2.59a3.47,3.47,0,0,0,.73-6.87,4.79,4.79,0,0,0-8.9,1.19A3.12,3.12,0,0,0,8.86,8.15a2.78,2.78,0,0,0,0,2,3.22,3.22,0,0,0,3,1.88,2.3,2.3,0,0,0,.37,0H15v3H10a2,2,0,0,0-2,2v7H7a1,1,0,0,0-1,1v1.34A3.66,3.66,0,0,0,9.66,30H22.34A3.66,3.66,0,0,0,26,26.34V25A1,1,0,0,0,25,24ZM12.16,10a1.38,1.38,0,0,1-1.44-.61.84.84,0,0,1,0-.5A1.31,1.31,0,0,1,12,8.27h.21a1,1,0,0,0,.74-.23,1.06,1.06,0,0,0,.36-.68A3,3,0,0,1,16,4.58a2.94,2.94,0,0,1,2.75,1.86,1,1,0,0,0,.92.61,1.47,1.47,0,0,1,1.19.62A1.45,1.45,0,0,1,21.05,9h0a1.51,1.51,0,0,1-1.45.94ZM10,17H22v7H19a1,1,0,0,0-.71.29l-.7.71H14.41l-.7-.71A1,1,0,0,0,13,24H10Zm14,9.34A1.66,1.66,0,0,1,22.34,28H9.66A1.66,1.66,0,0,1,8,26.34V26h4.59l.7.71A1,1,0,0,0,14,27h4a1,1,0,0,0,.71-.29l.7-.71H24Z"/></g></svg>