<svg fill="currentColor" xmlns="http://www.w3.org/2000/svg" viewBox="0 0 32 32"><g id="cpu"><path d="M22.52,2h-13A3.48,3.48,0,0,0,6,5.48v21A3.48,3.48,0,0,0,9.48,30h13A3.48,3.48,0,0,0,26,26.52v-21A3.48,3.48,0,0,0,22.52,2ZM24,26.52A1.48,1.48,0,0,1,22.52,28h-13A1.48,1.48,0,0,1,8,26.52v-21A1.48,1.48,0,0,1,9.48,4h13A1.48,1.48,0,0,1,24,5.48Z"/><path d="M21.2,6H10.8A1.81,1.81,0,0,0,9,7.8v2.4A1.81,1.81,0,0,0,10.8,12H21.2A1.81,1.81,0,0,0,23,10.2V7.8A1.81,1.81,0,0,0,21.2,6ZM21,10H11V8H21Z"/><path d="M21.2,13H10.8A1.81,1.81,0,0,0,9,14.8v2.4A1.81,1.81,0,0,0,10.8,19H21.2A1.81,1.81,0,0,0,23,17.2V14.8A1.81,1.81,0,0,0,21.2,13ZM21,17H11V15H21Z"/><path d="M22,24H19a1,1,0,0,0,0,2h3a1,1,0,0,0,0-2Z"/></g></svg>