<svg fill="currentColor" xmlns="http://www.w3.org/2000/svg" viewBox="0 0 32 32"><g id="database"><path d="M27.64,11A2.36,2.36,0,0,0,30,8.64V5.36A2.36,2.36,0,0,0,27.64,3H4.36A2.36,2.36,0,0,0,2,5.36V8.64A2.36,2.36,0,0,0,4.36,11H15v2H4.36A2.36,2.36,0,0,0,2,15.36v3.28A2.36,2.36,0,0,0,4.36,21H15v3.18A3,3,0,0,0,13.18,26H6a1,1,0,0,0,0,2h7.18a3,3,0,0,0,5.64,0H26a1,1,0,0,0,0-2H18.82A3,3,0,0,0,17,24.18V21H27.64A2.36,2.36,0,0,0,30,18.64V15.36A2.36,2.36,0,0,0,27.64,13H17V11ZM16,28a1,1,0,1,1,1-1A1,1,0,0,1,16,28ZM28,15.36v3.28a.36.36,0,0,1-.36.36H4.36A.36.36,0,0,1,4,18.64V15.36A.36.36,0,0,1,4.36,15H27.64A.36.36,0,0,1,28,15.36ZM4,8.64V5.36A.36.36,0,0,1,4.36,5H27.64a.36.36,0,0,1,.36.36V8.64a.36.36,0,0,1-.36.36H4.36A.36.36,0,0,1,4,8.64Z"/><path d="M8,16H7a1,1,0,0,0,0,2H8a1,1,0,0,0,0-2Z"/><path d="M8,6H7A1,1,0,0,0,7,8H8A1,1,0,0,0,8,6Z"/></g></svg>