<svg fill="currentColor" xmlns="http://www.w3.org/2000/svg" viewBox="0 0 32 32"><g id="database_2" data-name="database 2"><path d="M16,2C10.87,2,7,4.15,7,7V25c0,2.85,3.87,5,9,5s9-2.15,9-5V7C25,4.15,21.13,2,16,2Zm7,17c0,1.42-3,3-7,3s-7-1.58-7-3V16.21A12.66,12.66,0,0,0,16,18a12.66,12.66,0,0,0,7-1.79Zm0-6c0,1.42-3,3-7,3s-7-1.58-7-3V10.21A12.66,12.66,0,0,0,16,12a12.66,12.66,0,0,0,7-1.79ZM16,4c4,0,7,1.58,7,3s-3,3-7,3S9,8.42,9,7,12,4,16,4Zm0,24c-4,0-7-1.58-7-3V22.21A12.66,12.66,0,0,0,16,24a12.66,12.66,0,0,0,7-1.79V25C23,26.42,20,28,16,28Z"/></g></svg>