<svg fill="currentColor" xmlns="http://www.w3.org/2000/svg" viewBox="0 0 32 32"><g id="download"><path d="M28.84,14.24a6.21,6.21,0,0,0-4.33-2.54,9.19,9.19,0,0,0-8.42-5.18,9.23,9.23,0,0,0-8.56,7.7,5.6,5.6,0,0,0-5.21,3.23,4.7,4.7,0,0,0,0,3.31A5.65,5.65,0,0,0,7.7,24c.23,0,.47,0,.7,0H23.69a6.22,6.22,0,0,0,6-4.13A6.16,6.16,0,0,0,28.84,14.24Zm-1.07,5A4.27,4.27,0,0,1,23.69,22H8.3c-1.9.19-3.59-.61-4.12-1.94a2.77,2.77,0,0,1,0-1.85,3.69,3.69,0,0,1,3.57-2,5.07,5.07,0,0,1,.55,0,1,1,0,0,0,1.1-.91,7.36,7.36,0,0,1,6.76-6.81,7.23,7.23,0,0,1,6.77,4.54,1,1,0,0,0,.92.61,4.17,4.17,0,0,1,3.92,5.54Z"/><path d="M18.29,15.29,17,16.59V13a1,1,0,0,0-2,0v3.59l-1.29-1.3a1,1,0,0,0-1.42,1.42l3,3a1,1,0,0,0,.33.21.94.94,0,0,0,.76,0,1,1,0,0,0,.33-.21l3-3a1,1,0,0,0-1.42-1.42Z"/></g></svg>