<svg fill="currentColor" xmlns="http://www.w3.org/2000/svg" viewBox="0 0 32 32"><g id="earth"><path d="M27.65,22.07A4.21,4.21,0,0,0,24,20a4.17,4.17,0,0,0-3.79,3,2.69,2.69,0,0,0-2.1,1.6,2.41,2.41,0,0,0,0,1.73A2.79,2.79,0,0,0,20.69,28L21,28h6a3,3,0,0,0,.65-5.93ZM27,26H20.9a.94.94,0,0,1-1-.38.41.41,0,0,1,0-.26,1,1,0,0,1,1-.37,1,1,0,0,0,1.1-.91A2.24,2.24,0,0,1,24,22a2.2,2.2,0,0,1,2,1.39A1,1,0,0,0,27,24a1,1,0,0,1,0,2Z"/><path d="M16.4,10.36l.47,1.4a4,4,0,0,0,5.85,2.17,2,2,0,0,1,2.28.15l3,2.38a11.87,11.87,0,0,1-.29,2.31,1,1,0,0,0,.74,1.2,1,1,0,0,0,1.21-.74A14.54,14.54,0,0,0,30,16,14,14,0,0,0,15.46,2,14.05,14.05,0,0,0,2,15.46,14,14,0,0,0,16,30a1,1,0,0,0,0-2A11.91,11.91,0,0,1,9.29,26l1.37-1.82a4.42,4.42,0,0,0,.56-4.27l-.67-1.67a2.44,2.44,0,0,1,.17-2.12l1-1.71a4.41,4.41,0,0,0-.11-4.7L9.29,6.13A11.73,11.73,0,0,1,15.53,4a13,13,0,0,1,2.34.13L16.48,7.61A4,4,0,0,0,16.4,10.36ZM10,10.77A2.41,2.41,0,0,1,10,13.33L9,15a4.43,4.43,0,0,0-.31,3.9l.66,1.66a2.43,2.43,0,0,1-.3,2.33L7.74,24.68l-.39-.36A11.89,11.89,0,0,1,7.73,7.4ZM24.32,7.35a11.86,11.86,0,0,1,3.46,6.4l-1.53-1.23a4,4,0,0,0-4.55-.3,2,2,0,0,1-2.94-1.09l-.46-1.4a2,2,0,0,1,0-1.38l1.49-3.72A12,12,0,0,1,24.32,7.35Z"/></g></svg>