<svg fill="currentColor" xmlns="http://www.w3.org/2000/svg" viewBox="0 0 32 32"><g id="key"><path d="M28.82,14.24a6.19,6.19,0,0,0-4.33-2.54,9.19,9.19,0,0,0-8.42-5.18,9.21,9.21,0,0,0-8.55,7.69,5.63,5.63,0,0,0-5.21,3.24,4.7,4.7,0,0,0,0,3.31A5.67,5.67,0,0,0,7.69,24q.34,0,.69,0h15.3a6.13,6.13,0,0,0,5.14-9.73Zm-1.07,5h0A4.26,4.26,0,0,1,23.68,22H8.29c-1.91.19-3.6-.61-4.12-1.94a2.64,2.64,0,0,1,0-1.85,3.68,3.68,0,0,1,3.57-2l.55,0A1,1,0,0,0,9,16a1,1,0,0,0,.36-.68,7.37,7.37,0,0,1,6.77-6.81,7.21,7.21,0,0,1,6.76,4.54,1,1,0,0,0,.92.61,4.17,4.17,0,0,1,3.92,5.54Z"/><path d="M22,16H16.82a3,3,0,1,0,0,2H18v1a1,1,0,0,0,2,0V18h1v1a1,1,0,0,0,2,0V17A1,1,0,0,0,22,16Zm-8,2a1,1,0,1,1,1-1A1,1,0,0,1,14,18Z"/></g></svg>