<svg fill="currentColor" xmlns="http://www.w3.org/2000/svg" viewBox="0 0 32 32"><g id="layers"><path d="M27.55,16H23V11.45A2.45,2.45,0,0,0,20.55,9H16V4.45A2.45,2.45,0,0,0,13.55,2H4.45A2.45,2.45,0,0,0,2,4.45v9.1A2.45,2.45,0,0,0,4.45,16H9v4.55A2.45,2.45,0,0,0,11.45,23H16v4.55A2.45,2.45,0,0,0,18.45,30h9.1A2.45,2.45,0,0,0,30,27.55v-9.1A2.45,2.45,0,0,0,27.55,16ZM4.45,14A.45.45,0,0,1,4,13.55V4.45A.45.45,0,0,1,4.45,4h9.1a.45.45,0,0,1,.45.45V9H11.45A2.45,2.45,0,0,0,9,11.45V14Zm7,7a.45.45,0,0,1-.45-.45v-9.1a.45.45,0,0,1,.45-.45h9.1a.45.45,0,0,1,.45.45V16H18.45A2.45,2.45,0,0,0,16,18.45V21ZM28,27.55a.45.45,0,0,1-.45.45h-9.1a.45.45,0,0,1-.45-.45v-9.1a.45.45,0,0,1,.45-.45h9.1a.45.45,0,0,1,.45.45Z"/><path d="M25,20H21a1,1,0,0,0,0,2h4a1,1,0,0,0,0-2Z"/><path d="M19,14a1,1,0,0,0-1-1H14a1,1,0,0,0,0,2h4A1,1,0,0,0,19,14Z"/><path d="M12,7a1,1,0,0,0-1-1H7A1,1,0,0,0,7,8h4A1,1,0,0,0,12,7Z"/></g></svg>