<svg fill="currentColor" xmlns="http://www.w3.org/2000/svg" viewBox="0 0 32 32"><g id="mobile"><path d="M19.79,9H12.21A3.21,3.21,0,0,0,9,12.21V26.79A3.21,3.21,0,0,0,12.21,30h7.58A3.21,3.21,0,0,0,23,26.79V12.21A3.21,3.21,0,0,0,19.79,9ZM21,26.79A1.21,1.21,0,0,1,19.79,28H12.21A1.21,1.21,0,0,1,11,26.79V12.21A1.21,1.21,0,0,1,12.21,11h7.58A1.21,1.21,0,0,1,21,12.21Z"/><path d="M16,5a3.59,3.59,0,0,0-2.8,1.4,1,1,0,1,0,1.6,1.2A1.59,1.59,0,0,1,16,7a1.62,1.62,0,0,1,1.2.6A1,1,0,0,0,18,8a1,1,0,0,0,.6-.2,1,1,0,0,0,.2-1.4A3.61,3.61,0,0,0,16,5Z"/><path d="M12,6a1,1,0,0,0,.8-.4A4.2,4.2,0,0,1,16,4a4.17,4.17,0,0,1,3.2,1.6,1,1,0,1,0,1.6-1.2A6.19,6.19,0,0,0,16,2a6.17,6.17,0,0,0-4.8,2.4,1,1,0,0,0,.2,1.4A1,1,0,0,0,12,6Z"/><path d="M17,25H15a1,1,0,0,0,0,2h2a1,1,0,0,0,0-2Z"/></g></svg>