<svg fill="currentColor" xmlns="http://www.w3.org/2000/svg" viewBox="0 0 32 32"><g id="network_tool" data-name="network tool"><path d="M23,2H9A3,3,0,0,0,6,5V27a3,3,0,0,0,3,3H23a3,3,0,0,0,3-3V5A3,3,0,0,0,23,2ZM9,4H23a1,1,0,0,1,1,1V24H8V5A1,1,0,0,1,9,4ZM23,28H9a1,1,0,0,1-1-1V26H24v1A1,1,0,0,1,23,28Z"/><path d="M11.3,14a1,1,0,0,0,.78-1.18A4.26,4.26,0,0,1,12,12a4,4,0,1,1,4,4,1,1,0,0,0,0,2,6,6,0,1,0-5.88-4.8A1,1,0,0,0,11.3,14Z"/><path d="M11,19a1,1,0,0,0,.71-.29l5-5a1,1,0,0,0-1.42-1.42l-5,5a1,1,0,0,0,0,1.42A1,1,0,0,0,11,19Z"/></g></svg>