<svg fill="currentColor" xmlns="http://www.w3.org/2000/svg" viewBox="0 0 32 32"><g id="network_2" data-name="network 2"><path d="M30,16A14,14,0,1,0,16,30h0A14,14,0,0,0,30,16ZM4.05,17h4a18.44,18.44,0,0,0,1,4.59A17.73,17.73,0,0,0,6.4,23.17,11.93,11.93,0,0,1,4.05,17ZM6.4,8.83A18,18,0,0,0,9,10.39a15.77,15.77,0,0,0-1,4.61h-4A11.93,11.93,0,0,1,6.4,8.83ZM28,15H24a15.58,15.58,0,0,0-1-4.63,17.4,17.4,0,0,0,2.65-1.5A11.93,11.93,0,0,1,28,15ZM17,5.09a16.66,16.66,0,0,1,3.26,4.18A17.24,17.24,0,0,1,17,9.94ZM15,10a14,14,0,0,1-3.29-.63A16.72,16.72,0,0,1,15,5.09Zm0,2v3H10.05a13.68,13.68,0,0,1,.83-3.84A15.51,15.51,0,0,0,15,12Zm0,5v3a15.52,15.52,0,0,0-4.07.78A16.89,16.89,0,0,1,10.06,17Zm0,5V27a14,14,0,0,1-3.29-4.29A14.08,14.08,0,0,1,15,22Zm2,0a16.63,16.63,0,0,1,3.26.68A14.22,14.22,0,0,1,17,27Zm0-2V17h4.94a17.25,17.25,0,0,1-.89,3.89A18.76,18.76,0,0,0,17,20.05ZM17,15V12a18.73,18.73,0,0,0,4.1-.85A13.68,13.68,0,0,1,22,15Zm5.16-6.46a18.44,18.44,0,0,0-2.94-4.09,12,12,0,0,1,5.08,2.9A14.31,14.31,0,0,1,22.16,8.54Zm-12.33,0A15.51,15.51,0,0,1,7.74,7.32a12,12,0,0,1,5-2.87A18.39,18.39,0,0,0,9.83,8.56Zm0,14.88a16.3,16.3,0,0,0,2.85,4.09,11.92,11.92,0,0,1-4.95-2.85A15,15,0,0,1,9.84,23.44Zm12.32,0a16,16,0,0,1,2.14,1.2,12.13,12.13,0,0,1-5,2.88A16.52,16.52,0,0,0,22.16,23.45Zm3.41-.36a16.71,16.71,0,0,0-2.63-1.48A18.65,18.65,0,0,0,24,17h4a11.89,11.89,0,0,1-2.33,6.14Z"/></g></svg>