<svg fill="currentColor" xmlns="http://www.w3.org/2000/svg" viewBox="0 0 32 32"><g id="network"><path d="M27.75,20.42A11.49,11.49,0,0,0,28,18,11.93,11.93,0,0,0,20.36,6.82,1,1,0,0,0,20,6.75a4,4,0,0,0-7.94,0,1,1,0,0,0-.39.07A11.93,11.93,0,0,0,4,18a11.49,11.49,0,0,0,.25,2.42,4,4,0,1,0,4.09,6.81,12,12,0,0,0,15.32,0A4,4,0,0,0,26,28a4,4,0,0,0,1.75-7.58ZM16,5a2,2,0,1,1-2,2A2,2,0,0,1,16,5ZM6,26a2,2,0,1,1,2-2A2,2,0,0,1,6,26Zm3.62-.32A3.94,3.94,0,0,0,10,24a4,4,0,0,0-3.77-4A9.77,9.77,0,0,1,6,18a10,10,0,0,1,6.36-9.32h0a4,4,0,0,0,7.24,0h0A10,10,0,0,1,26,18a9.77,9.77,0,0,1-.23,2A4,4,0,0,0,22,24a3.94,3.94,0,0,0,.38,1.68,9.93,9.93,0,0,1-12.76,0ZM26,26a2,2,0,1,1,2-2A2,2,0,0,1,26,26Z"/></g></svg>