<svg fill="currentColor" xmlns="http://www.w3.org/2000/svg" viewBox="0 0 32 32"><g id="password_wifi" data-name="password wifi"><path d="M23,12H11V9A5,5,0,0,1,21,9a1,1,0,0,0,2,0A7,7,0,0,0,9,9v3a3,3,0,0,0-3,3V27a3,3,0,0,0,3,3H23a3,3,0,0,0,3-3V15A3,3,0,0,0,23,12Zm1,15a1,1,0,0,1-1,1H9a1,1,0,0,1-1-1V15a1,1,0,0,1,1-1H23a1,1,0,0,1,1,1Z"/><path d="M16,20a6,6,0,0,0-3.6,1.2,1,1,0,0,0,1.2,1.6,4,4,0,0,1,4.8,0,1,1,0,0,0,.6.2,1,1,0,0,0,.8-.4,1,1,0,0,0-.2-1.4A6.07,6.07,0,0,0,16,20Z"/><path d="M16,17a8.33,8.33,0,0,0-5.69,2.28,1,1,0,0,0,0,1.41,1,1,0,0,0,1.41,0,6.26,6.26,0,0,1,8.62,0,1,1,0,0,0,1.38-1.44A8.35,8.35,0,0,0,16,17Z"/><path d="M16,23h0a1,1,0,1,0,1,1A1,1,0,0,0,16,23Z"/></g></svg>