<svg fill="currentColor" xmlns="http://www.w3.org/2000/svg" viewBox="0 0 32 32"><g id="refresh"><path d="M11,21a3.39,3.39,0,0,0,.45,0h9.31a4.16,4.16,0,0,0,4-2.74,4.15,4.15,0,0,0-3.24-5.47,6,6,0,0,0-5.39-3.19,6,6,0,0,0-5.52,4.7,3.77,3.77,0,0,0-3.21,2.2,3.21,3.21,0,0,0,0,2.3A3.82,3.82,0,0,0,11,21ZM9.26,17.21a1.91,1.91,0,0,1,1.82-.95h.29a1,1,0,0,0,.73-.22,1,1,0,0,0,.36-.68,4.08,4.08,0,0,1,3.74-3.79,4,4,0,0,1,3.74,2.52,1,1,0,0,0,.93.61,2.15,2.15,0,0,1,2,2.88h0A2.19,2.19,0,0,1,20.77,19h-9.4a2,2,0,0,1-2.11-.94A1.25,1.25,0,0,1,9.26,17.21Z"/><path d="M16,2A13.88,13.88,0,0,0,7,5.28V4A1,1,0,0,0,5,4V8A1,1,0,0,0,6,9h4a1,1,0,0,0,0-2H8.07a12,12,0,0,1,19,13.62,1,1,0,0,0,.53,1.31A1.09,1.09,0,0,0,28,22a1,1,0,0,0,.92-.62A13.8,13.8,0,0,0,30,16,14,14,0,0,0,16,2Z"/><path d="M26,23H22a1,1,0,0,0,0,2h1.93a12,12,0,0,1-19-13.62,1,1,0,0,0-.53-1.31,1,1,0,0,0-1.31.54A13.8,13.8,0,0,0,2,16,14,14,0,0,0,25,26.72V28a1,1,0,0,0,2,0V24A1,1,0,0,0,26,23Z"/></g></svg>