<svg fill="currentColor" xmlns="http://www.w3.org/2000/svg" viewBox="0 0 32 32"><g id="router"><path d="M27.87,18H27V7.5a2.5,2.5,0,0,0-5,0V18H10V7.5a2.5,2.5,0,0,0-5,0V18H4.13A2.14,2.14,0,0,0,2,20.13v3.74A2.14,2.14,0,0,0,4.13,26H27.87A2.14,2.14,0,0,0,30,23.87V20.13A2.14,2.14,0,0,0,27.87,18ZM24,7.5a.5.5,0,0,1,1,0V18H24ZM7,7.5a.5.5,0,0,1,1,0V18H7ZM28,23.87a.13.13,0,0,1-.13.13H4.13A.13.13,0,0,1,4,23.87V20.13A.13.13,0,0,1,4.13,20H27.87a.13.13,0,0,1,.13.13Z"/><path d="M25,21H24a1,1,0,0,0,0,2h1a1,1,0,0,0,0-2Z"/><path d="M21,21H20a1,1,0,0,0,0,2h1a1,1,0,0,0,0-2Z"/><path d="M17,21H16a1,1,0,0,0,0,2h1a1,1,0,0,0,0-2Z"/></g></svg>