<svg fill="currentColor" xmlns="http://www.w3.org/2000/svg" viewBox="0 0 32 32"><g id="share"><path d="M16,2A14,14,0,1,0,30,16,14,14,0,0,0,16,2Zm0,26A12,12,0,1,1,28,16,12,12,0,0,1,16,28Z"/><path d="M20,14a3,3,0,1,0-2.94-3.6l-4.57,2.74a1,1,0,0,0-.19.17A3,3,0,0,0,11,13a3,3,0,0,0,0,6,3,3,0,0,0,1.3-.31,1,1,0,0,0,.19.17l4.57,2.74a3,3,0,1,0,.36-2.11l-3.71-2.23a2.88,2.88,0,0,0,0-2.52l3.71-2.23A3,3,0,0,0,20,14Zm0-4a1,1,0,1,1-1,1A1,1,0,0,1,20,10Zm-9,7a1,1,0,1,1,1-1A1,1,0,0,1,11,17Zm9,3a1,1,0,1,1-1,1A1,1,0,0,1,20,20Z"/></g></svg>