<svg fill="currentColor" xmlns="http://www.w3.org/2000/svg" viewBox="0 0 32 32"><g id="signal"><path d="M9,13a1,1,0,0,0,.87-1.5A6.93,6.93,0,0,1,8.93,8,7,7,0,0,1,9.8,4.61a1,1,0,0,0-1.75-1,9,9,0,0,0,.08,8.86A1,1,0,0,0,9,13Z"/><path d="M22.59,3.25a1,1,0,0,0-.39,1.36A7,7,0,0,1,23.07,8a6.93,6.93,0,0,1-.94,3.5,1,1,0,0,0,1.74,1A9,9,0,0,0,24,3.64,1,1,0,0,0,22.59,3.25Z"/><path d="M4.65,2.11a1,1,0,0,0-1.34.43,12,12,0,0,0,0,10.92A1,1,0,0,0,4.2,14a1,1,0,0,0,.45-.11,1,1,0,0,0,.44-1.35,10,10,0,0,1,0-9.08A1,1,0,0,0,4.65,2.11Z"/><path d="M28.69,2.54a1,1,0,0,0-1.78.92,10,10,0,0,1,0,9.08,1,1,0,0,0,.44,1.35,1,1,0,0,0,.45.11,1,1,0,0,0,.89-.54,12,12,0,0,0,0-10.92Z"/><path d="M18.09,10.14A3,3,0,0,0,19,8a3,3,0,0,0-6,0,3,3,0,0,0,.91,2.14L8.05,28.7A1,1,0,0,0,8.7,30,.79.79,0,0,0,9,30a1,1,0,0,0,.95-.7L11,26H21l1.05,3.3A1,1,0,0,0,23,30a.79.79,0,0,0,.3-.05A1,1,0,0,0,24,28.7ZM16,7a1,1,0,1,1-1,1A1,1,0,0,1,16,7Zm0,4a2.3,2.3,0,0,0,.26,0l2.22,7h-5l2.22-7A2.3,2.3,0,0,0,16,11ZM11.63,24l1.27-4,.1,0h6l.1,0,1.27,4Z"/></g></svg>