<svg fill="currentColor" xmlns="http://www.w3.org/2000/svg" viewBox="0 0 32 32"><g id="ssl"><path d="M9.5,12H11a1,1,0,0,0,0-2H9.5a2.5,2.5,0,0,0,0,5,.5.5,0,0,1,0,1H8a1,1,0,0,0,0,2H9.5a2.5,2.5,0,0,0,0-5,.5.5,0,0,1,0-1Z"/><path d="M15.5,16H14a1,1,0,0,0,0,2h1.5a2.5,2.5,0,0,0,0-5,.5.5,0,0,1,0-1H17a1,1,0,0,0,0-2H15.5a2.5,2.5,0,0,0,0,5,.5.5,0,0,1,0,1Z"/><path d="M22,18h2a1,1,0,0,0,0-2H22a1,1,0,0,1-1-1V11a1,1,0,0,0-2,0v4A3,3,0,0,0,22,18Z"/><path d="M29,21V7.59A2.59,2.59,0,0,0,26.41,5H5.59A2.59,2.59,0,0,0,3,7.59V21a1,1,0,0,0-1,1v1.5A3.5,3.5,0,0,0,5.5,27h21A3.5,3.5,0,0,0,30,23.5V22A1,1,0,0,0,29,21ZM5,7.59A.6.6,0,0,1,5.59,7H26.41a.6.6,0,0,1,.59.59V21H19.71a2.69,2.69,0,0,0-1.92.79.67.67,0,0,1-.5.21H14.71a.67.67,0,0,1-.5-.21A2.69,2.69,0,0,0,12.29,21H5ZM28,23.5A1.5,1.5,0,0,1,26.5,25H5.5A1.5,1.5,0,0,1,4,23.5V23h8.29a.67.67,0,0,1,.5.21,2.69,2.69,0,0,0,1.92.79h2.58a2.69,2.69,0,0,0,1.92-.79.67.67,0,0,1,.5-.21H28Z"/></g></svg>