<svg fill="currentColor" xmlns="http://www.w3.org/2000/svg" viewBox="0 0 32 32"><g id="upload"><path d="M28.84,11.24A6.21,6.21,0,0,0,24.51,8.7a9.19,9.19,0,0,0-8.42-5.18,9.23,9.23,0,0,0-8.56,7.7,5.6,5.6,0,0,0-5.21,3.23,4.7,4.7,0,0,0,0,3.31A5.65,5.65,0,0,0,7.7,21c.23,0,.47,0,.7,0H13v2.24A1.79,1.79,0,0,0,14.81,25h2.41A1.8,1.8,0,0,0,19,23.21V21h4.67a6.22,6.22,0,0,0,6-4.13A6.16,6.16,0,0,0,28.84,11.24ZM17,23H15V17a1,1,0,0,0-1-1h-.87L16,12.56,18.88,16H18a1,1,0,0,0-1,1Zm10.75-6.79A4.27,4.27,0,0,1,23.69,19H19V18h2a1,1,0,0,0,.9-.58,1,1,0,0,0-.13-1.06l-5-6a1,1,0,0,0-1.54,0l-5,6A1,1,0,0,0,11,18h2v1H8.3c-1.9.19-3.59-.61-4.12-1.94a2.77,2.77,0,0,1,0-1.85c.53-1.33,2.22-2.13,4.12-1.94a1,1,0,0,0,1.1-.91,7.36,7.36,0,0,1,6.76-6.81,7.23,7.23,0,0,1,6.77,4.54,1,1,0,0,0,.92.61,4.17,4.17,0,0,1,3.92,5.54Z"/><path d="M22.31,24.29l-.66.66A3.58,3.58,0,0,1,19.12,26h-6.2A3.56,3.56,0,0,1,10.38,25l-.66-.66a1,1,0,0,0-1.41,0,1,1,0,0,0,0,1.42l.66.65A5.51,5.51,0,0,0,12.92,28h6.2a5.63,5.63,0,0,0,3.95-1.64l.65-.65a1,1,0,0,0,0-1.42A1,1,0,0,0,22.31,24.29Z"/></g></svg>