<svg fill="currentColor" xmlns="http://www.w3.org/2000/svg" viewBox="0 0 32 32"><g id="wifi"><path d="M26,25H18.82A3,3,0,0,0,17,23.18V20h4.23A2.77,2.77,0,0,0,24,17.23V8.9l1.46.94A1,1,0,0,0,26,10a1,1,0,0,0,.54-1.84L17.91,2.57a3.49,3.49,0,0,0-3.82,0L5.46,8.16A1,1,0,0,0,6.54,9.84L8,8.9v8.33A2.77,2.77,0,0,0,10.77,20H15v3.18A3,3,0,0,0,13.18,25H6a1,1,0,0,0,0,2h7.18a3,3,0,0,0,5.64,0H26a1,1,0,0,0,0-2ZM10,17.23V8a1,1,0,0,0-.07-.35l5.25-3.4a1.48,1.48,0,0,1,1.64,0l5.25,3.4A1,1,0,0,0,22,8v9.23a.78.78,0,0,1-.77.77H10.77A.78.78,0,0,1,10,17.23ZM16,27a1,1,0,1,1,1-1A1,1,0,0,1,16,27Z"/><path d="M17.2,14.6a1,1,0,0,0,.8.4,1,1,0,0,0,.6-.2,1,1,0,0,0,.2-1.4,3.5,3.5,0,0,0-5.6,0,1,1,0,0,0,1.6,1.2A1.59,1.59,0,0,1,16,14,1.62,1.62,0,0,1,17.2,14.6Z"/><path d="M16,11a4.17,4.17,0,0,1,3.2,1.6,1,1,0,1,0,1.6-1.2A6.19,6.19,0,0,0,16,9a6.17,6.17,0,0,0-4.8,2.4,1,1,0,0,0,.2,1.4,1,1,0,0,0,.6.2,1,1,0,0,0,.8-.4A4.2,4.2,0,0,1,16,11Z"/></g></svg>