<?xml version="1.0" encoding="UTF-8"?><svg fill="currentColor" xmlns="http://www.w3.org/2000/svg" viewBox="0 0 24 24"><g id="l"><g><path d="M19.75,12v-1c0-.96-.79-1.75-1.75-1.75H5c-.96,0-1.75,.79-1.75,1.75v1c0,.96,.79,1.75,1.75,1.75h.04l-1.77,7.07c-.1,.4,.14,.81,.55,.91,.06,.02,.12,.02,.18,.02,.34,0,.64-.23,.73-.57l1.86-7.43h9.83l1.86,7.43c.08,.34,.39,.57,.73,.57,.06,0,.12,0,.18-.02,.4-.1,.65-.51,.55-.91l-1.77-7.07h.04c.96,0,1.75-.79,1.75-1.75Z"/><path d="M16.75,7.5c0-2.9-2.36-5.25-5.25-5.25s-5.25,2.35-5.25,5.25v.25h10.5v-.25Z"/><path d="M11.5,17.75c1.64,0,3.08-1.01,3.67-2.5H7.83c.59,1.49,2.03,2.5,3.67,2.5Z"/></g></g></svg>