<?xml version="1.0" encoding="UTF-8"?><svg fill="currentColor" xmlns="http://www.w3.org/2000/svg" viewBox="0 0 24 24"><g id="c"><g><path d="M20,7.25H6.75v-1.25c0-.96-.79-1.75-1.75-1.75H3c-.41,0-.75,.34-.75,.75s.34,.75,.75,.75h2c.14,0,.25,.11,.25,.25v1.25h-.25c-.96,0-1.75,.79-1.75,1.75v1c0,3.17,2.58,5.75,5.75,5.75h6c3.17,0,5.75-2.58,5.75-5.75v-2c0-.41-.34-.75-.75-.75Z"/><circle cx="7.5" cy="19.5" r="2.25"/><circle cx="16.5" cy="19.5" r="2.25"/><path d="M20.23,5.77c-.36-.9-.93-1.81-1.86-2.54-.45-.35-.95-.64-1.49-.86-.75-.3-1.61-.05-2.09,.61l-2.05,2.77h7.27c.08,0,.15,.02,.23,.02Z"/></g></g></svg>