<?xml version="1.0" encoding="UTF-8"?><svg fill="currentColor" xmlns="http://www.w3.org/2000/svg" viewBox="0 0 24 24"><g id="j"><g><circle cx="12" cy="16" r="1.25"/><path d="M18.67,3.64c-.4-.47-.97-.74-1.59-.76-.63-.03-1.25,.22-1.69,.66-.13,.13-.23,.27-.32,.41-.02,.02-.05,.02-.07,.04-1.22,1.21-2.82,1.24-3,1.24-1.4,0-2.41-.69-3-1.26-.02-.02-.06-.03-.08-.05-.09-.14-.19-.27-.31-.39-.44-.45-1.06-.69-1.69-.66-.62,.02-1.19,.29-1.59,.76-3.23,3.73-4.03,8.84-1.99,12.71,1.31,2.49,4.37,5.4,8.66,5.4s7.35-2.91,8.66-5.4c2.04-3.87,1.24-8.97-1.99-12.71Zm-6.67,15.11c-1.52,0-2.75-1.23-2.75-2.75s1.23-2.75,2.75-2.75,2.75,1.23,2.75,2.75-1.23,2.75-2.75,2.75Zm3.31-10.04c-.58,1.39-2.51,1.54-3.31,1.54s-2.72-.15-3.31-1.54c-.31-.73-.2-1.66,.29-2.47,.06-.09,.1-.19,.14-.29,.48,.28,1.06,.53,1.73,.67l-.52,1.04c-.19,.37-.04,.82,.34,1.01,.37,.18,.82,.04,1.01-.34l.16-.31c.24,.3,.55,.54,.9,.68,.09,.03,.18,.05,.27,.05,.3,0,.58-.18,.7-.48,.15-.39-.04-.82-.43-.97-.19-.07-.37-.31-.46-.62,.56-.09,1.3-.28,2.07-.72,.04,.09,.08,.19,.14,.28,.49,.82,.6,1.74,.29,2.47Z"/></g></g></svg>