<?xml version="1.0" encoding="UTF-8"?><svg fill="currentColor" xmlns="http://www.w3.org/2000/svg" viewBox="0 0 24 24"><g id="g"><path d="M20,3.25h-4.13c-.79,0-1.47,.54-1.7,1.34-.27,.98-1.16,1.66-2.17,1.66s-1.9-.68-2.17-1.66c-.22-.8-.91-1.34-1.7-1.34H4c-.96,0-1.75,.79-1.75,1.75v3c0,.96,.79,1.75,1.75,1.75h2c.14,0,.25,.11,.25,.25v5.29c0,.72,.42,1.35,1.08,1.62,.43,.17,.84,.4,1.21,.69,.85,.66,1.31,1.49,1.55,2.07,.27,.66,.91,1.09,1.62,1.09h.58c.71,0,1.35-.43,1.62-1.09,.24-.58,.7-1.4,1.55-2.07,.37-.29,.78-.52,1.21-.69,.65-.26,1.08-.89,1.08-1.61v-5.29c0-.14,.11-.25,.25-.25h2c.96,0,1.75-.79,1.75-1.75v-3c0-.96-.79-1.75-1.75-1.75Zm-7.98,10.5c-.41,0-.75-.34-.75-.75s.33-.75,.75-.75h0c.42,0,.75,.34,.75,.75s-.33,.75-.75,.75Zm0-3c-.41,0-.75-.34-.75-.75s.33-.75,.75-.75h0c.42,0,.75,.34,.75,.75s-.33,.75-.75,.75Z"/></g></svg>