<?xml version="1.0" encoding="UTF-8"?><svg fill="currentColor" xmlns="http://www.w3.org/2000/svg" viewBox="0 0 24 24"><g id="t"><g><path d="M19.5,10.25h-.16c-.03-.12-.08-.23-.12-.35-.59,.44-1.34,.69-2.18,.69-.95,0-2-.31-3.03-.87-.6,.33-1.28,.53-2.02,.53s-1.42-.2-2.02-.53c-1.02,.56-2.07,.87-3.03,.87-.79,0-1.51-.21-2.08-.61-.04,.09-.08,.18-.12,.27h-.25c-1.24,0-2.25,1.01-2.25,2.25s.98,2.22,2.2,2.25c.8,3.46,3.94,6,7.55,6s6.75-2.54,7.55-6c1.22-.03,2.2-1.03,2.2-2.25s-1.01-2.25-2.25-2.25Zm-9.49,1h.01c.41,0,.75,.34,.75,.75s-.34,.75-.75,.75-.75-.34-.75-.75,.33-.75,.74-.75Zm4.59,5.2c-.16,.22-1.05,1.3-2.6,1.3-.27,0-1.67-.06-2.6-1.3-.25-.33-.18-.8,.15-1.05,.33-.25,.8-.18,1.05,.15,.51,.68,1.31,.7,1.4,.7,.85,0,1.35-.63,1.4-.7,.25-.33,.72-.4,1.05-.15,.33,.25,.4,.72,.15,1.05Zm-.58-3.7c-.41,0-.75-.34-.75-.75s.33-.75,.74-.75h.01c.41,0,.75,.34,.75,.75s-.34,.75-.75,.75Z"/><path d="M5.45,8.51c.36,.39,.89,.58,1.51,.58,.91,0,2.01-.42,3.07-1.18,.5,.52,1.2,.85,1.98,.85s1.48-.33,1.98-.85c1.06,.76,2.16,1.18,3.07,1.18,.62,0,1.15-.19,1.51-.58,.64-.7,.46-1.79,.24-2.51,.23-.72,.4-1.8-.24-2.51-.88-.97-2.79-.69-4.58,.6-.5-.52-1.2-.84-1.97-.84s-1.47,.32-1.97,.84c-1.79-1.28-3.7-1.56-4.58-.6-.64,.7-.46,1.79-.24,2.51-.23,.72-.4,1.8,.24,2.51Zm6.55-3.76c.69,0,1.25,.56,1.25,1.25s-.56,1.25-1.25,1.25-1.25-.56-1.25-1.25,.56-1.25,1.25-1.25Z"/></g></g></svg>