<?xml version="1.0" encoding="UTF-8"?><svg fill="currentColor" xmlns="http://www.w3.org/2000/svg" viewBox="0 0 24 24"><g id="r"><g><path d="M15.24,11.31c-.58-.19-1.12-.51-1.56-.95-.45-.45-.76-.98-.95-1.56-1.74-.55-2.98-1.63-3.33-2.95-.48,.28-.93,.62-1.28,1.02l-4,4c-1.21,1.21-1.88,2.82-1.88,4.53,0,.03,0,.05,0,.08,.05-.04,.09-.1,.14-.14,.84-.7,1.83-1.15,2.88-1.31,.69-.1,1.33-.06,1.88,.04-.22-1.14,.11-2.37,.99-3.26,1.41-1.41,3.71-1.41,5.12,0,1.41,1.41,1.41,3.71,0,5.12-.68,.68-1.59,1.06-2.56,1.06h0c-.89,0-1.72-.33-2.38-.91-.5-.3-1.53-.76-2.84-.57-.78,.12-1.5,.44-2.14,.97-.3,.25-.57,.53-.82,.83,.3,.97,.84,1.87,1.58,2.61,1.21,1.21,2.82,1.88,4.53,1.88s3.32-.67,4.53-1.88l4-4c.39-.39,.71-.82,.98-1.28-1.31-.36-2.37-1.59-2.91-3.33Z"/><path d="M12.22,14.86c.83-.83,.83-2.17,0-3-.41-.41-.96-.62-1.5-.62s-1.09,.21-1.5,.62c-.83,.83-.83,2.17,0,3,.4,.4,.93,.62,1.5,.62s1.1-.22,1.5-.62Z"/><path d="M19.03,7.48c0-.63-.25-1.26-.73-1.74-.46-.47-1.08-.72-1.74-.73-.33-1.92-1.36-3.3-2.56-3.22-.87,.04-1.45,.83-1.77,1.44-.61,.32-1.4,.91-1.44,1.77-.06,1.18,1.3,2.22,3.22,2.56,0,.66,.27,1.27,.73,1.74,.46,.46,1.08,.72,1.74,.73,.33,1.88,1.34,3.22,2.49,3.22,.02,0,.05,0,.07,0,.87-.04,1.45-.83,1.77-1.44,.61-.32,1.4-.9,1.44-1.77,.06-1.18-1.3-2.22-3.22-2.56Zm-3.52,.04c0-.27,.11-.53,.3-.72,.19-.19,.45-.3,.72-.3h0c.27,0,.52,.1,.71,.29,.39,.39,.39,1.04,0,1.43h0c-.19,.19-.45,.3-.72,.3-.3,0-.52-.1-.71-.29-.19-.19-.29-.44-.29-.71Z"/></g></g></svg>