<?xml version="1.0" encoding="UTF-8"?><svg fill="currentColor" xmlns="http://www.w3.org/2000/svg" viewBox="0 0 24 24"><g id="k"><g><path d="M17.58,13.82c-1.88,0-3.73-.73-5.12-2.13-2.21-2.21-2.76-5.56-1.37-8.35l.12-.21c-.55,.32-1.07,.7-1.53,1.16-1.36,1.36-2.12,3.18-2.12,5.11s.75,3.74,2.12,5.11c1.36,1.36,3.18,2.12,5.11,2.12s3.74-.75,5.11-2.12c.46-.46,.84-.97,1.16-1.52l-.22,.07c-1.04,.52-2.15,.77-3.26,.77Z"/><path d="M19.9,4.28c-1.36-1.36-3.18-2.12-5.11-2.12-.46,0-.92,.05-1.36,.13l-1.02,1.75c-1.08,2.17-.64,4.83,1.11,6.58s4.46,2.2,6.69,1.05c.04-.02,.08-.04,.12-.05l1.45-.44c.15-.58,.23-1.18,.23-1.8,0-1.93-.75-3.74-2.12-5.11Z"/><path d="M7.23,13.73l-1.54,1.54s-.08,.06-.09,.06c-1.21-.03-2.29,.62-2.9,1.7-.54,.96-.53,2.19,.02,3.15,.52,.9,1.4,1.5,2.41,1.63,.14,.02,.29,.03,.43,.03,.86,0,1.67-.33,2.29-.95,.6-.6,.94-1.41,.95-2.26,0-.08,.02-.12,.02-.12l1.57-1.57c-.64-.37-1.24-.83-1.78-1.36-.55-.55-1.01-1.17-1.39-1.83Z"/></g></g></svg>