<?xml version="1.0" encoding="UTF-8"?><svg fill="currentColor" xmlns="http://www.w3.org/2000/svg" viewBox="0 0 24 24"><g id="b"><g><circle cx="8.5" cy="5.5" r="2.25"/><circle cx="14.5" cy="7.5" r="2.25"/><circle cx="19.5" cy="4.5" r="2.25"/><path d="M17.66,18.25c-.77,0-1.54-.11-2.28-.32-.54-.15-1.04-.38-1.54-.64-.38,.28-.84,.46-1.34,.46-1.05,0-1.94-.73-2.18-1.71l-1.06-.32c-.28-.03-.54-.11-.78-.23l-.81-.24h-3.17c-.33,0-.65-.06-.96-.14l.35,2.42c.26,1.84,1.86,3.22,3.71,3.22h9.06c1.63,0,3.04-1.05,3.55-2.57-.23,.04-.46,.07-.7,.07h-1.84Z"/><path d="M11.75,15.5c0,.41,.34,.75,.75,.75s.75-.34,.75-.75v-5.02l-.44-.26c-1.05-.63-2.25-.96-3.47-.96h-.59v4.25c0,.12,.04,.24,.09,.34,0,.01,.01,.02,.02,.03,.06,.1,.13,.18,.23,.24h0c.12,.08,.26,.14,.41,.14,.21,0,.4-.09,.54-.23,.01-.01,.02-.03,.03-.04,.05-.06,.1-.12,.13-.19,.04-.09,.06-.18,.06-.29,0-.41,.34-.75,.75-.75s.75,.34,.75,.75v2Z"/><path d="M7.28,13.75c0-.08-.03-.16-.03-.25v-4.25h-2.75c-1.24,0-2.25,1.01-2.25,2.25s1.01,2.25,2.25,2.25h2.78Z"/><path d="M19.5,12.25h-1.84c-.95,0-1.88-.26-2.7-.75l-.21-.13v4.13c0,.19-.03,.37-.07,.54,.36,.18,.73,.34,1.12,.45,.61,.17,1.24,.26,1.87,.26h1.84c1.24,0,2.25-1.01,2.25-2.25s-1.01-2.25-2.25-2.25Z"/></g></g></svg>