<?xml version="1.0" encoding="UTF-8"?><svg fill="currentColor" xmlns="http://www.w3.org/2000/svg" viewBox="0 0 24 24"><g id="o"><g><path d="M6.5,11.75c1.24,0,2.25-1.01,2.25-2.25s-1.01-2.25-2.25-2.25H3.5c-.69,0-1.25,.56-1.25,1.25v2c0,.69,.56,1.25,1.25,1.25h3Z"/><path d="M19.89,14.74c-.46-.07-2.06-.2-3.44,.85-2.03,1.55-1.72,4.28-1.71,4.31,0,.03,0,.07,0,.1v.7c3.12-.34,5.61-2.84,5.96-5.97h-.7s-.08,0-.12,0Z"/><path d="M7.54,15.6c-1.38-1.06-2.98-.92-3.44-.85-.04,0-.09,0-.12,0h-.69c.34,3.12,2.83,5.61,5.97,5.96v-.7s0-.07,0-.1c0-.03,.32-2.76-1.71-4.31Z"/><path d="M20.5,7.25h-3c-1.24,0-2.25,1.01-2.25,2.25s1.01,2.25,2.25,2.25h3c.69,0,1.25-.56,1.25-1.25v-2c0-.69-.56-1.25-1.25-1.25Z"/><path d="M15.54,14.4c.98-.75,2.01-1.05,2.88-1.15h-.92c-2.07,0-3.75-1.68-3.75-3.75s1.68-3.75,3.75-3.75h2.94c-.46-.89-1.37-1.5-2.44-1.5H6c-1.06,0-1.98,.61-2.44,1.5h2.94c2.07,0,3.75,1.68,3.75,3.75s-1.68,3.75-3.75,3.75h-.92c.87,.11,1.9,.4,2.88,1.15,2.55,1.96,2.34,5.15,2.29,5.63v.71h2.49v-.71c-.04-.48-.25-3.68,2.3-5.63Z"/></g></g></svg>