<?xml version="1.0" encoding="UTF-8"?><svg fill="currentColor" xmlns="http://www.w3.org/2000/svg" viewBox="0 0 24 24"><g id="i"><g><path d="M17.5,12.5c.4-.84,.81-2.19,.5-3.8-.32-1.61-1.06-2.81-2.22-3.57-1.76-1.17-4.19-1.17-5.9,0-1.66,1.14-2.47,3.25-2.18,5.4l1.39,1c.8,.53,1.35,1.24,1.56,2.04,.58,2.21-1.48,4.42-3.69,5.02-.43,.12-.84,.17-1.24,.17-1.26,0-2.32-.49-2.91-.84l-.27-.2c.08,.27,.18,.53,.3,.79,.47,1.02,1.24,1.93,2.21,2.61,.6,.42,1.3,.64,2.04,.64h7.93c1.55,0,2.94-1.01,3.39-2.45,.49-1.58,.45-3.49-.1-5.12-.2-.59-.47-1.15-.81-1.69Zm-3.48-2.75c-.41,0-.75-.34-.75-.75s.33-.75,.75-.75h0c.42,0,.75,.34,.75,.75s-.33,.75-.75,.75Z"/><path d="M6.57,17.14c1.47-.4,2.96-1.91,2.63-3.19-.14-.55-.6-.95-.96-1.18l-1.15-.83c-.19-.02-.37-.06-.55-.11-.35-.09-.68-.23-1-.41-.8-.44-1.81-.15-2.26,.64-.65,1.14-.98,2.38-1,3.6l1.37,1c.65,.37,1.74,.8,2.94,.48Z"/><path d="M21.75,10.2c-.16-.69-.77-1.21-1.58-1.37l-.67-.13c.22,1.45,0,2.72-.34,3.68,.05,.09,.09,.19,.14,.29,.59-.11,1.14-.33,1.58-.66l.22-.16c.55-.42,.79-1.03,.65-1.65Z"/></g></g></svg>