<?xml version="1.0" encoding="UTF-8"?><svg fill="currentColor" xmlns="http://www.w3.org/2000/svg" viewBox="0 0 24 24"><g id="p"><g><path d="M11,9.25h-.46l-.2-.59c-.48-1.44-1.82-2.41-3.34-2.41s-2.86,.97-3.34,2.41l-.2,.59h-.46c-.41,0-.75,.34-.75,.75v3c0,2.62,2.13,4.75,4.75,4.75s4.75-2.13,4.75-4.75v-3c0-.41-.34-.75-.75-.75Zm-5.92-.12c.28-.83,1.05-1.38,1.92-1.38s1.65,.56,1.92,1.38l.04,.12h-3.92l.04-.12Z"/><path d="M19.5,10.25h-6.25v2.75c0,.61-.09,1.19-.25,1.75h6.5c1.24,0,2.25-1.01,2.25-2.25s-1.01-2.25-2.25-2.25Z"/></g></g></svg>