<?xml version="1.0" encoding="UTF-8"?><svg fill="currentColor" xmlns="http://www.w3.org/2000/svg" viewBox="0 0 24 24"><g id="s"><g><path d="M19.35,5.71c-.51-.95-.4-1.71-.2-1.87,.13-.1,.38-.12,.42-.08,.04,.04,.08,.24-.08,.45-.24,.34-.17,.81,.17,1.05,.33,.24,.8,.16,1.05-.17,.55-.77,.52-1.76-.06-2.37-.65-.67-1.75-.56-2.4-.07-.43,.33-.68,.86-.74,1.47-2.79-1.7-6.49-1.35-8.9,1.06l-4.24,4.24c-1.37,1.37-2.12,3.19-2.12,5.13,0,.04,0,.08,0,.11,.07-.15,.14-.31,.21-.46,.18-.32,1.71-2.91,4.83-3.23,.86-.09,1.63,.03,2.29,.22-.29-1.36,.09-2.84,1.14-3.89,1.66-1.66,4.35-1.66,6.01,0,1.66,1.66,1.66,4.35,0,6.01-.83,.83-1.92,1.24-3,1.24-.82,0-1.64-.24-2.35-.71-.1-.03-.19-.08-.27-.15-.37-.34-1.73-1.42-3.66-1.22-2.37,.24-3.54,2.22-3.66,2.45-.39,.75-.72,1.56-1.01,2.38,.36,.88,.89,1.69,1.59,2.38,1.41,1.41,3.27,2.12,5.13,2.12s3.71-.71,5.13-2.12l4.24-4.24c2.65-2.65,2.81-6.87,.49-9.71h0Z"/><path d="M15.69,12.26c1.07-1.07,1.07-2.82,0-3.89-.54-.54-1.24-.8-1.94-.8s-1.41,.27-1.95,.8c-1.07,1.07-1.07,2.82,0,3.89,1.07,1.07,2.82,1.07,3.89,0Z"/></g></g></svg>