<?xml version="1.0" encoding="UTF-8"?><svg fill="currentColor" xmlns="http://www.w3.org/2000/svg" viewBox="0 0 24 24"><g id="h"><g><path d="M14.72,15.28h0c0-.09,.03-.19,.03-.28v-1c0-.41-.34-.75-.75-.75h-4c-.41,0-.75,.34-.75,.75v1c0,.1,.02,.2,.03,.3-.03,0-.06,0-.09,0-1.84,.59-2.94,1.72-2.94,3.01,0,1.92,2.53,3.43,5.75,3.43s5.75-1.51,5.75-3.43c0-1.31-1.13-2.45-3.03-3.04Zm-2.72,4.97c-2.43,0-4.25-1.02-4.25-1.93,0-.58,.76-1.21,1.9-1.58,.06-.02,.11-.06,.16-.09,.5,.66,1.29,1.1,2.19,1.1s1.67-.43,2.18-1.09c.04,.02,.06,.04,.1,.06,1.18,.37,1.97,1.01,1.97,1.6,0,.91-1.82,1.93-4.25,1.93Z"/><path d="M18.92,10.02c-.47-.37-1.06-.51-1.62-.37-.74,.17-1.56,.34-2.55,.45v-.88c0-.38,.14-.78,.42-1.21,.38-.6,.58-1.29,.58-2.01,0-1.11-.49-2.16-1.34-2.87-.85-.71-1.97-1.01-3.08-.82-1.52,.27-2.76,1.51-3.02,3.03-.17,.97,.04,1.95,.58,2.76,.24,.35,.35,.68,.36,1v1c-.99-.11-1.81-.28-2.55-.45-.57-.13-1.16,0-1.62,.37-.52,.42-.83,1.06-.83,1.82,0,1.03,.65,1.91,1.57,2.14,.65,.16,1.28,.3,1.93,.41v-.4c0-1.24,1.01-2.25,2.25-2.25h4c1.24,0,2.25,1.01,2.25,2.25v.4c.65-.12,1.28-.25,1.93-.41,.92-.23,1.57-1.11,1.57-2.14v-.05c0-.71-.3-1.35-.83-1.77Z"/></g></g></svg>