<?xml version="1.0" encoding="UTF-8"?><svg fill="currentColor" xmlns="http://www.w3.org/2000/svg" viewBox="0 0 24 24"><g id="n"><g><path d="M9.46,12.08c-.44,.56-.7,1.25-.7,1.98,0,.37,.08,.73,.19,1.06,1,.16,2.02,.26,3.04,.27,.1,0,.2,0,.3,0,.91,0,1.81-.08,2.71-.2,.13-.36,.22-.74,.22-1.14,0-.74-.25-1.43-.7-1.99-.42,.99-1.4,1.68-2.53,1.68s-2.11-.69-2.53-1.67Z"/><path d="M13.24,11c0-.69-.56-1.25-1.25-1.25s-1.25,.56-1.25,1.25,.56,1.25,1.25,1.25,1.25-.56,1.25-1.25Z"/><path d="M21.48,7.91c-.7-2.19-2.71-3.66-5-3.66-.82,0-1.6,.18-2.32,.54-.63,.31-1.19,.46-1.71,.46h-.95c-.52,0-1.07-.15-1.69-.46-1.05-.52-2.22-.67-3.39-.44-2.02,.4-3.65,2.02-4.07,4.03-.29,1.4,.06,2.53,.14,2.74,.66,1.9,2.51,3.29,4.85,3.68-.04-.25-.08-.49-.08-.75,0-1.59,.79-3.06,2.11-3.94,0,0,.02,0,.03-.01,.37-1.08,1.39-1.86,2.59-1.86s2.25,.81,2.61,1.91c.07,.02,.15,.05,.22,.1,1.19,.89,1.91,2.31,1.91,3.79,0,.3-.03,.59-.09,.88,2.56-.55,4.46-2.19,4.98-4.28,.22-.89,.18-1.81-.13-2.75Z"/><path d="M11.99,17.29c-1.41,0-2.61-.91-3.05-2.16l-1.62-.32c.36,2.25,2.32,3.98,4.67,3.98s4.23-1.66,4.65-3.85l-1.63,.26c-.46,1.22-1.64,2.09-3.02,2.09Z"/></g></g></svg>