<?xml version="1.0" encoding="UTF-8"?><svg fill="currentColor" xmlns="http://www.w3.org/2000/svg" viewBox="0 0 24 24"><g id="d"><g><path d="M20.01,4.02c-2.39-2.39-6.28-2.39-8.67,0l-.35,.35c-.87,.87-1.01,2.19-.45,3.21l-4.01,4.01c-1.03,.17-2.02,.63-2.81,1.43-.97,.97-1.51,2.27-1.51,3.64s.54,2.67,1.51,3.64c1,1,2.32,1.51,3.64,1.51s2.64-.5,3.64-1.51c.77-.77,1.26-1.75,1.43-2.81l4.01-4.01c.4,.22,.85,.34,1.3,.34,.69,0,1.39-.26,1.91-.79l.35-.35c2.39-2.39,2.39-6.28,0-8.67Zm-5.19,4.17l.34-.34c.28-.28,.73-.28,1.01,0,.14,.14,.21,.32,.21,.51s-.07,.37-.21,.51l-.34,.35c-.51,.51-.79,1.19-.79,1.91,0,.46,.13,.9,.35,1.3l-3.02,3.02c-.22-.91-.67-1.75-1.35-2.43-.69-.69-1.54-1.13-2.44-1.35l3.03-3.03c1.03,.57,2.34,.42,3.21-.45Zm-5.88,10.03h0c-.42,.42-.98,.65-1.57,.65s-1.15-.23-1.57-.65c-.86-.86-.86-2.27,0-3.14,.84-.84,2.3-.84,3.14,0s.86,2.27,0,3.14Z"/><path d="M7.38,15.94c-.19,0-.37,.07-.51,.21-.28,.28-.28,.74,0,1.01,.27,.27,.74,.27,1.01,0h0c.28-.28,.28-.74,0-1.01-.14-.14-.32-.21-.51-.21Z"/></g></g></svg>