<?xml version="1.0" encoding="UTF-8"?><svg fill="currentColor" xmlns="http://www.w3.org/2000/svg" viewBox="0 0 24 24"><g id="q"><g><path d="M14,12.25h3.75v-.25c0-2.07-1.68-3.75-3.75-3.75h-4c-2.07,0-3.75,1.68-3.75,3.75v6c0,2.07,1.68,3.75,3.75,3.75h4c2.07,0,3.75-1.68,3.75-3.75v-.25h-3.75c-.41,0-.75-.34-.75-.75s.34-.75,.75-.75h3.75v-2.5h-3.75c-.41,0-.75-.34-.75-.75s.34-.75,.75-.75Z"/><path d="M14,6.75c1.01,0,1.95,.3,2.75,.8v-.55c0-.96-.79-1.75-1.75-1.75h-.84l-.08-.12c.23-.68,.12-1.4-.3-1.97-.42-.58-1.07-.91-1.78-.91s-1.36,.33-1.78,.91c-.42,.58-.53,1.3-.3,1.97l-.08,.12h-.84c-.96,0-1.75,.79-1.75,1.75v.55c.8-.5,1.74-.8,2.75-.8h4Z"/></g></g></svg>