<?xml version="1.0" encoding="UTF-8"?><svg fill="currentColor" xmlns="http://www.w3.org/2000/svg" viewBox="0 0 24 24"><g id="e"><g><path d="M14.6,14.59l-.29-1.68,1.22-1.19c.2-.2,.28-.5,.19-.77-.09-.27-.32-.47-.61-.51l-1.69-.25-.68-1.37v-2.06c1.82,.09,4.31,.51,6.9,1.89,.11,.06,.23,.09,.35,.09,.27,0,.53-.14,.66-.4,.2-.37,.06-.82-.31-1.01-2.86-1.53-5.61-1.98-7.6-2.07V3c0-.41-.34-.75-.75-.75s-.75,.34-.75,.75v2.27c-2,.09-4.74,.55-7.6,2.07-.37,.2-.5,.65-.31,1.01,.13,.25,.39,.4,.66,.4,.12,0,.24-.03,.35-.09,2.59-1.38,5.07-1.81,6.9-1.89v2.06l-.68,1.37-1.69,.25c-.28,.04-.52,.24-.61,.51-.09,.27-.01,.57,.19,.77l1.22,1.19-.29,1.68c-.05,.28,.07,.57,.3,.73,.23,.17,.54,.19,.79,.06l1.51-.79,1.51,.79c.11,.06,.23,.09,.35,.09,.16,0,.31-.05,.44-.14,.23-.17,.35-.45,.3-.73Z"/><path d="M9.12,16.44l-1.69-.25-.68-1.37v-4.83c0-.41-.34-.75-.75-.75s-.75,.34-.75,.75v4.83l-.68,1.37-1.69,.25c-.28,.04-.52,.24-.61,.51-.09,.27-.01,.57,.19,.77l1.22,1.19-.29,1.68c-.05,.28,.07,.57,.3,.73,.23,.17,.54,.19,.79,.06l1.51-.79,1.51,.79c.11,.06,.23,.09,.35,.09,.16,0,.31-.05,.44-.14,.23-.17,.35-.45,.3-.73l-.29-1.68,1.22-1.19c.2-.2,.28-.5,.19-.77-.09-.27-.32-.47-.61-.51Z"/><path d="M21.72,16.95c-.09-.27-.32-.47-.61-.51l-1.69-.25-.68-1.37v-4.83c0-.41-.34-.75-.75-.75s-.75,.34-.75,.75v4.83l-.68,1.37-1.69,.25c-.28,.04-.52,.24-.61,.51-.09,.27-.01,.57,.19,.77l1.22,1.19-.29,1.68c-.05,.28,.07,.57,.3,.73,.23,.17,.54,.19,.79,.06l1.51-.79,1.51,.79c.11,.06,.23,.09,.35,.09,.16,0,.31-.05,.44-.14,.23-.17,.35-.45,.3-.73l-.29-1.68,1.22-1.19c.2-.2,.28-.5,.19-.77Z"/></g></g></svg>