<?xml version="1.0" encoding="UTF-8"?><svg fill="currentColor" xmlns="http://www.w3.org/2000/svg" viewBox="0 0 24 24"><g id="f"><g><path d="M3.73,17.08l-.58,.58c-.42,.42-.65,.97-.65,1.56s.23,1.15,.67,1.59c.43,.43,1,.67,1.6,.67h0c.6,0,1.17-.24,1.59-.66l.54-.54-2.66-2.64-.51-.56Z"/><path d="M20.51,3.5c-1.66-1.66-4.35-1.66-6.01,0l-7.98,7.98c-.67,.67-1.11,1.5-1.3,2.43l-.23,1.16c-.06,.29-.16,.57-.3,.84l.64,.7,2.75,2.73c.27-.14,.56-.25,.86-.31l1.16-.23c.92-.18,1.76-.63,2.43-1.3l7.98-7.98c.8-.8,1.24-1.87,1.24-3s-.44-2.2-1.24-3Zm-3.54,4.6l-7.07,7.07c-.15,.15-.34,.22-.53,.22s-.38-.07-.53-.22c-.29-.29-.29-.77,0-1.06l7.07-7.07c.29-.29,.77-.29,1.06,0s.29,.77,0,1.06Z"/></g></g></svg>