<?xml version="1.0" encoding="UTF-8"?><svg fill="currentColor" xmlns="http://www.w3.org/2000/svg" viewBox="0 0 24 24"><g id="g"><g><path d="M17.49,13.23h-1.06c-.54,0-1.02-.34-1.19-.85l-.54-1.63c-.1-.31-.39-.51-.71-.51h-4c-.32,0-.61,.21-.71,.51l-.54,1.63c-.17,.51-.65,.85-1.19,.85h-1.06c-2.26,0-4.09,1.77-4.22,4H21.71c-.13-2.23-1.97-4-4.22-4Z"/><path d="M6.49,21.73h11c1.91,0,3.5-1.27,4.04-3H2.45c.54,1.73,2.14,3,4.04,3Z"/><path d="M6.99,4.73h9.5c.41,0,.75,.34,.75,.75s-.34,.75-.75,.75h-3.5c-.96,0-1.75,.79-1.75,1.75v1c0,.41,.34,.75,.75,.75s.75-.34,.75-.75v-1c0-.14,.11-.25,.25-.25h3.5c1.24,0,2.25-1.01,2.25-2.25s-1.01-2.25-2.25-2.25H6.99c-.14,0-.25-.11-.25-.25,0-.41-.34-.75-.75-.75s-.75,.34-.75,.75c0,.96,.79,1.75,1.75,1.75Z"/></g></g></svg>