<?xml version="1.0" encoding="UTF-8"?><svg fill="currentColor" xmlns="http://www.w3.org/2000/svg" viewBox="0 0 24 24"><g id="s"><g><path d="M12.6,13.54c-.14-.2-.37-.31-.61-.31s-.47,.12-.61,.31l-3.87,5.42c-.38,.54-.43,1.23-.13,1.82s.9,.95,1.56,.95h6.11c.66,0,1.26-.36,1.56-.95,.3-.59,.25-1.28-.13-1.82l-3.87-5.42Z"/><path d="M5.99,4.73c1,0,1.92,.23,2.71,.61,.02-.12,.04-.24,.04-.36,0-1.52-1.23-2.75-2.75-2.75s-2.75,1.23-2.75,2.75c0,.12,.02,.24,.04,.36,.79-.38,1.71-.61,2.71-.61Z"/><path d="M4.49,8.73h5.22c-.17-1.42-1.73-2.5-3.72-2.5-2.1,0-3.75,1.21-3.75,2.75,0,.16,.03,.32,.06,.47,.62-.45,1.37-.72,2.19-.72Z"/><path d="M19.49,8.73c.77,0,1.49,.24,2.09,.64,.09-.28,.16-.58,.16-.89,0-1.79-1.68-3.25-3.75-3.25s-3.75,1.46-3.75,3.25c0,.09,.02,.17,.03,.25h5.22Z"/><path d="M19.49,10.23H4.49c-1.24,0-2.25,1.01-2.25,2.25s1.01,2.25,2.25,2.25h4.2l1.47-2.06c.42-.59,1.11-.94,1.83-.94s1.41,.35,1.83,.94l1.47,2.06h4.2c1.24,0,2.25-1.01,2.25-2.25s-1.01-2.25-2.25-2.25Z"/></g></g></svg>