<?xml version="1.0" encoding="UTF-8"?><svg fill="currentColor" xmlns="http://www.w3.org/2000/svg" viewBox="0 0 24 24"><g id="c"><g><path d="M21.06,8.14s-.06-.06-.1-.09l-5.15-3.43c-.45-.3-1.01-.38-1.52-.21L3.44,8.04c-.11,.04-.19,.1-.29,.15l.78,.46,6.03,3.45c.06,.04,.14,.05,.21,.02l10.03-3.65,.86-.33Z"/><path d="M3.17,9.95l-.89-.53c-.02,.09-.04,.18-.04,.28v5.7c0,.63,.34,1.21,.88,1.52l6.09,3.48h0l.02-6.99s-.02,0-.02,0l-6.04-3.45Z"/><path d="M21.74,9.49l-1.02,.38-9.98,3.63-.02,7.01,9.87-3.59c.69-.25,1.15-.91,1.15-1.64v-5.79Z"/></g></g></svg>