<?xml version="1.0" encoding="UTF-8"?><svg fill="currentColor" xmlns="http://www.w3.org/2000/svg" viewBox="0 0 24 24"><g id="t"><g><path d="M21.66,14.65c-.12-.26-.39-.43-.68-.43H2.99c-.29,0-.55,.17-.68,.43-.13,.26-.09,.57,.09,.79l.88,1.1c.81,1.01,1.77,1.85,2.83,2.51l-.79,1.59c-.19,.37-.04,.82,.34,1.01,.11,.05,.22,.08,.33,.08,.27,0,.54-.15,.67-.41l.78-1.56c1.41,.63,2.95,.98,4.55,.98s3.14-.35,4.55-.98l.78,1.56c.13,.26,.4,.41,.67,.41,.11,0,.23-.03,.33-.08,.37-.19,.52-.64,.34-1.01l-.79-1.59c1.06-.66,2.02-1.51,2.83-2.51l.88-1.1c.18-.23,.22-.53,.09-.79Z"/><path d="M15.9,7.73h.19c.78-.03,1.46-.48,1.82-1.18,.36-.71,.31-1.57-.13-2.23l-1.17-1.75c-.14-.21-.37-.33-.62-.33s-.48,.13-.62,.33l-1.17,1.75c-.45,.67-.49,1.54-.12,2.26,.36,.7,1.04,1.13,1.82,1.16Z"/><path d="M7.9,7.73h.19c.78-.03,1.46-.48,1.82-1.18,.36-.71,.31-1.57-.13-2.23l-1.17-1.75c-.14-.21-.37-.33-.62-.33s-.48,.13-.62,.33l-1.17,1.75c-.45,.67-.49,1.54-.12,2.26,.36,.7,1.04,1.13,1.82,1.16Z"/><path d="M10.74,9.98c0-.96-.79-1.75-1.75-1.75h-2c-.96,0-1.75,.79-1.75,1.75v2.75h5.5v-2.75Z"/><path d="M18.74,9.98c0-.96-.79-1.75-1.75-1.75h-2c-.96,0-1.75,.79-1.75,1.75v2.75h5.5v-2.75Z"/></g></g></svg>