<?xml version="1.0" encoding="UTF-8"?><svg fill="currentColor" xmlns="http://www.w3.org/2000/svg" viewBox="0 0 24 24"><g id="l"><path d="M21,12.75c-.49-.68-.95-1.4-1.35-2.14-.45-.81-.71-1.43-.95-1.97-.29-.67-.56-1.3-1.12-2.14-.5-.76-1.56-2.34-3.25-3.2-3.27-1.65-7.64-.68-9.92,2.2-2.4,3.03-2.36,7.81,.08,10.02,.45,.4,.98,.72,1.58,.95,.11,.04,.17,.13,.17,.23v3.26c0,.96,.79,1.75,1.75,1.75h5c.96,0,1.75-.79,1.75-1.75v-1c0-.14,.11-.25,.25-.25h2c.96,0,1.75-.79,1.75-1.75v-2c0-.14,.11-.25,.25-.25h.99c.47,0,.9-.26,1.12-.68,.21-.42,.18-.91-.1-1.29Zm-10.51-1.52c.41,0,.75,.34,.75,.75s-.34,.75-.75,.75c-1.24,0-2.25-1.01-2.25-2.25s1.01-2.25,2.25-2.25,2.25,1.01,2.25,2.25c0,.41-.34,.75-.75,.75s-.75-.34-.75-.75-.34-.75-.75-.75-.75,.34-.75,.75,.34,.75,.75,.75Zm0,4.5c-.6,0-1.19-.1-1.75-.3-.39-.14-.6-.57-.46-.96s.57-.59,.96-.46c.4,.14,.82,.21,1.25,.21,2.07,0,3.75-1.68,3.75-3.75s-1.68-3.75-3.75-3.75-3.75,1.68-3.75,3.75c0,.43,.07,.85,.21,1.25,.14,.39-.07,.82-.46,.96-.39,.14-.82-.07-.96-.46-.2-.56-.3-1.15-.3-1.75,0-2.9,2.36-5.25,5.25-5.25s5.25,2.35,5.25,5.25-2.36,5.25-5.25,5.25Z"/></g></svg>