<?xml version="1.0" encoding="UTF-8"?><svg fill="currentColor" xmlns="http://www.w3.org/2000/svg" viewBox="0 0 24 24"><g id="f"><g><path d="M18.69,9.71c-.14-.33-.31-.64-.47-.96H5.77c-.16,.32-.33,.63-.47,.96-1.46,3.47-1.81,7.32-1.05,11.43,.07,.35,.38,.61,.74,.61h14c.36,0,.67-.26,.74-.61,.77-4.11,.41-7.96-1.05-11.43Zm-1.94,8.29c0,.41-.34,.75-.75,.75H8c-.41,0-.75-.34-.75-.75v-1c0-2.62,2.13-4.75,4.75-4.75s4.75,2.13,4.75,4.75v1Z"/><path d="M12,13.75c-1.79,0-3.25,1.46-3.25,3.25v.25h6.5v-.25c0-1.79-1.46-3.25-3.25-3.25Z"/><path d="M18.73,7.25c1.09-1.6,1.11-3.38,1.02-4.33-.04-.38-.36-.67-.75-.67H5c-.38,0-.71,.29-.75,.67-.1,.94-.08,2.72,1.02,4.33h13.46Z"/></g></g></svg>