<?xml version="1.0" encoding="UTF-8"?><svg fill="currentColor" xmlns="http://www.w3.org/2000/svg" viewBox="0 0 24 24"><g id="e"><path d="M21.74,14.98c0-.41-.34-.75-.75-.75H8.74l2.71-1.92c.38,.27,.83,.42,1.28,.42s.91-.13,1.3-.42l5.71-4.06c1.01-.72,1.25-2.13,.53-3.14-.72-1.01-2.13-1.25-3.14-.53l-5.71,4.06c-.8,.57-1.1,1.56-.85,2.45l-4.42,3.14H2.99c-.41,0-.75,.34-.75,.75,0,1.68,1.11,3.08,2.63,3.56l-.55,1.1c-.19,.37-.04,.82,.34,1.01,.11,.05,.22,.08,.33,.08,.27,0,.54-.15,.67-.42l.79-1.58h11.07l.79,1.58c.13,.26,.4,.42,.67,.42,.11,0,.23-.03,.33-.08,.37-.19,.52-.64,.34-1.01l-.55-1.1c1.52-.48,2.63-1.89,2.63-3.56Z"/></g></svg>