<?xml version="1.0" encoding="UTF-8"?><svg fill="currentColor" xmlns="http://www.w3.org/2000/svg" viewBox="0 0 24 24"><g id="q"><g><path d="M18.18,4.43c-.07-.32-.14-.63-.23-.94-.21-.73-.9-1.24-1.68-1.24H7.73c-.77,0-1.46,.51-1.68,1.24-.09,.31-.17,.62-.23,.94,4.04,1.06,8.33,1.06,12.37,0Z"/><path d="M18.19,8.83c.15-.93,.27-1.78,.2-2.9-2.09,.53-4.23,.82-6.38,.82s-4.3-.29-6.38-.82c-.08,1.12,.04,1.97,.2,2.9,.11,.68,.23,1.38,.28,2.32,.06,1.06,0,1.56-.07,2.2-.08,.64-.17,1.36-.16,2.74,0,1.38,.09,2.78,.27,4.15,.11,.86,.86,1.51,1.74,1.51h2.11c.47,0,.92-.19,1.25-.52,.33-.34,.51-.79,.5-1.27-.02-.97,0-1.96,.03-2.93,.05-1.1,.13-2.2,.25-3.29,.12,1.1,.21,2.2,.25,3.29,.04,.97,.05,1.96,.03,2.93,0,.48,.17,.93,.5,1.27,.33,.34,.77,.52,1.25,.52h2.11c.88,0,1.62-.65,1.74-1.51,.18-1.37,.27-2.77,.27-4.15,0-1.38-.09-2.1-.16-2.74-.08-.64-.14-1.14-.07-2.2,.06-.95,.17-1.65,.28-2.32Z"/></g></g></svg>