<?xml version="1.0" encoding="UTF-8"?><svg fill="currentColor" xmlns="http://www.w3.org/2000/svg" viewBox="0 0 24 24"><g id="d"><g><path d="M12.44,5.38c-.27-.2-.64-.2-.9,0-.55,.41-3.3,2.68-3.3,6.6,0,.69,.16,4.24,3.3,6.6,.13,.1,.29,.15,.45,.15s.32-.05,.45-.15c.55-.41,3.3-2.68,3.3-6.6,0-.69-.16-4.24-3.3-6.6Z"/><path d="M21.29,9.33c-.05-.33-.31-.59-.64-.64-.39-.05-2.03-.22-3.89,.41,.42,1.37,.47,2.5,.47,2.88,0,3.11-1.46,5.33-2.61,6.6,1.33-.24,2.93-.85,4.33-2.25,.49-.49,2.89-3.11,2.33-7Z"/><path d="M7.18,9.12c-1.82-.59-3.4-.42-3.78-.37-.33,.05-.59,.31-.64,.64-.55,3.88,1.85,6.51,2.33,7,1.38,1.38,2.95,1.98,4.26,2.23-2.47-2.67-2.62-5.93-2.62-6.64,0-1.06,.17-2.01,.44-2.86Z"/></g></g></svg>