<?xml version="1.0" encoding="UTF-8"?><svg fill="currentColor" xmlns="http://www.w3.org/2000/svg" viewBox="0 0 24 24"><g id="i"><g><path d="M12,3.25c-2.66,0-4.91,1.99-5.24,4.63l-.42,3.37h1.51l.4-3.19c.24-1.89,1.85-3.31,3.75-3.31s3.52,1.42,3.75,3.31l.4,3.19h1.51l-.42-3.37c-.33-2.64-2.58-4.63-5.24-4.63Z"/><polygon points="7.74 12.09 7.75 19.75 16.25 19.75 16.25 12 16.16 11.25 7.85 11.25 7.74 12.09"/><path d="M19,11.25h-1.34l.08,.66v7.84h1.26c1.52,0,2.75-1.23,2.75-2.75v-3c0-1.52-1.23-2.75-2.75-2.75Z"/><path d="M2.25,14v3c0,1.52,1.23,2.75,2.75,2.75h1.25v-7.75l.09-.75h-1.34c-1.52,0-2.75,1.23-2.75,2.75Z"/></g></g></svg>