<?xml version="1.0" encoding="UTF-8"?><svg fill="currentColor" xmlns="http://www.w3.org/2000/svg" viewBox="0 0 24 24"><g id="m"><g><path d="M14.22,16.75l-2.23-.95-2.23,.95c-.13,.05-.17,.15-.15,.28,.03,.13,.11,.2,.25,.2h4.26c.14,0,.22-.07,.25-.2,.03-.13-.02-.23-.15-.28Z"/><circle cx="11.99" cy="7.98" r="1.25"/><path d="M15.99,2.23H7.99c-1.52,0-2.75,1.23-2.75,2.75v14c0,1.52,1.23,2.75,2.75,2.75H15.99c1.52,0,2.75-1.23,2.75-2.75V4.98c0-1.52-1.23-2.75-2.75-2.75Zm-.16,15.1c-.17,.82-.87,1.4-1.71,1.4h-4.26c-.84,0-1.55-.58-1.71-1.4s.25-1.63,1.03-1.96l2.07-.89v-1.46l-2.01,.67c-.4,.13-.82-.08-.95-.47-.13-.39,.08-.82,.47-.95l2.49-.83v-.83c-1.15-.33-2-1.38-2-2.63,0-1.52,1.23-2.75,2.75-2.75s2.75,1.23,2.75,2.75c0,1.25-.85,2.3-2,2.63v.83l2.49,.83c.39,.13,.61,.56,.47,.95-.11,.31-.4,.51-.71,.51-.08,0-.16-.01-.24-.04l-2.01-.67v1.46l2.07,.89c.77,.33,1.19,1.14,1.02,1.96Z"/></g></g></svg>