<?xml version="1.0" encoding="UTF-8"?><svg fill="currentColor" xmlns="http://www.w3.org/2000/svg" viewBox="0 0 24 24"><g id="h"><g><path d="M21.57,14.51l-5.24-6.11c-.67-.78-1.99-.78-2.66,0l-5.24,6.11c-.19,.22-.23,.54-.11,.8,.12,.27,.39,.44,.68,.44h12c.29,0,.56-.17,.68-.44,.12-.27,.08-.58-.11-.8Z"/><circle cx="10" cy="5" r="2.75"/><path d="M3.39,17.25c1.93,2.77,5.09,4.48,8.55,4.5h.06c3.49,0,6.67-1.71,8.61-4.5H3.39Z"/><path d="M7.29,13.54l2.77-3.23-.72-.86c-.67-.8-2.02-.8-2.69,0L2.42,14.52c-.19,.22-.23,.54-.1,.8,.12,.26,.39,.43,.68,.43h3.9c-.27-.76-.13-1.6,.39-2.21Z"/></g></g></svg>