<?xml version="1.0" encoding="UTF-8"?><svg fill="currentColor" xmlns="http://www.w3.org/2000/svg" viewBox="0 0 24 24"><g id="n"><g><path d="M16.66,12.49l-.86-4.29c-.06-.31-.25-.57-.52-.73-.27-.16-.59-.19-.89-.09-1.85,.62-2.92,2.58-2.45,4.47l.16,.62c.03,.1-.02,.21-.1,.27l-1.29,.86c-.36,.24-.83,.19-1.13-.11-.32-.32-.35-.84-.07-1.2l1.4-1.75c1.19-1.49,1.08-3.64-.28-4.99-.35-.35-.92-.35-1.26,0L2.75,12.16c-.33,.33-.51,.77-.51,1.24v4.59c0,.96,.79,1.75,1.75,1.75H12.99c.28,0,.54-.16,.67-.42l2.85-5.69c.17-.35,.23-.75,.15-1.13Z"/><path d="M22.01,13.97c-.13-.53-.51-.95-1.02-1.12-.95-.32-1.95-.23-2.81,.18-.03,.43-.13,.86-.33,1.25l-2.49,4.98,2.48-.5h0c.34-.07,.65-.23,.89-.48l2.86-2.86c.38-.38,.54-.93,.42-1.46Z"/></g></g></svg>