<?xml version="1.0" encoding="UTF-8"?><svg fill="currentColor" xmlns="http://www.w3.org/2000/svg" viewBox="0 0 24 24"><g id="k"><g><path d="M21.74,13.48c0-2.23-5.05-3.25-9.75-3.25s-9.75,1.02-9.75,3.25c0,.11,.02,.22,.05,.33-.03,.06-.05,.11-.05,.17,0,4.27,3.93,7.75,8.75,7.75h2c4.82,0,8.75-3.48,8.75-7.75,0-.07-.02-.14-.04-.21,.02-.1,.04-.19,.04-.29Zm-9.75-1.75c5.42,0,8.12,1.26,8.25,1.75-.13,.49-2.83,1.75-8.25,1.75s-8.14-1.27-8.25-1.74c.11-.48,2.81-1.76,8.25-1.76Z"/><path d="M10.73,8.42c.39,.2,.83,.31,1.26,.31s.87-.11,1.26-.31c1.23-.64,1.73-2.18,1.15-3.52-.22-.5-.49-.96-.82-1.38-.33-.42-.71-.8-1.13-1.13-.27-.21-.65-.21-.92,0-.42,.33-.8,.71-1.13,1.13-.33,.42-.6,.89-.82,1.38-.58,1.33-.08,2.88,1.15,3.52Z"/></g></g></svg>