<?xml version="1.0" encoding="UTF-8"?><svg fill="currentColor" xmlns="http://www.w3.org/2000/svg" viewBox="0 0 24 24"><g id="p"><g><path d="M21.53,14.47c-.29-.29-.77-.29-1.06,0l-1.41,1.41c-.09,.09-.2,.15-.31,.2v-.26c0-.38-.08-.74-.22-1.08h-5.06c-.14,.34-.22,.7-.22,1.08v.42h-2.5v-.42c0-.38-.08-.74-.22-1.08H5.47c-.14,.34-.22,.7-.22,1.08v.26c-.11-.06-.22-.12-.31-.2l-1.41-1.41c-.29-.29-.77-.29-1.06,0s-.29,.77,0,1.06l1.41,1.41c.52,.52,1.21,.81,1.94,.81h3.74c-.19,.38-.31,.8-.31,1.25,0,1.52,1.23,2.75,2.75,2.75s2.75-1.23,2.75-2.75c0-.45-.12-.87-.31-1.25h3.74c.73,0,1.43-.29,1.94-.81l1.41-1.41c.29-.29,.29-.77,0-1.06Z"/><path d="M9.82,13.25l.93-10.18c.02-.21-.05-.42-.19-.57-.14-.16-.34-.24-.55-.24H6c-.21,0-.41,.09-.55,.24-.14,.16-.21,.36-.19,.57l.93,10.18h3.64Z"/><path d="M17.82,13.25l.93-10.18c.02-.21-.05-.42-.19-.57-.14-.16-.34-.24-.55-.24h-4c-.21,0-.41,.09-.55,.24-.14,.16-.21,.36-.19,.57l.93,10.18h3.64Z"/></g></g></svg>