<?xml version="1.0" encoding="UTF-8"?><svg fill="currentColor" xmlns="http://www.w3.org/2000/svg" viewBox="0 0 24 24"><g id="j"><g><path d="M21.38,19.34l-1.57-.94c-.75-.45-1.54-.82-2.35-1.13,.89-.49,1.57-1.34,1.83-2.38,.16-.64,.02-1.31-.39-1.84-.41-.52-1.02-.82-1.69-.82H6.77c-.66,0-1.28,.3-1.69,.82-.41,.52-.55,1.19-.39,1.84,.26,1.04,.94,1.89,1.83,2.38-.81,.31-1.6,.68-2.35,1.13l-1.57,.94c-.35,.21-.47,.67-.26,1.03,.21,.36,.67,.47,1.03,.26l1.57-.94c4.25-2.55,9.83-2.55,14.09,0l1.57,.94c.12,.07,.25,.11,.39,.11,.25,0,.5-.13,.64-.36,.21-.35,.1-.82-.26-1.03Z"/><path d="M6.77,10.73h10.05c-.14-.38-.36-.74-.7-1.01-1.2-.96-2.71-1.49-4.26-1.49H7.27c-.97,0-1.8,.59-2.12,1.5-.16,.47-.17,.95-.03,1.4,.51-.26,1.07-.4,1.66-.4Z"/><path d="M11.86,6.73c.29,0,.57,.02,.86,.05-.1-1.42-1.28-2.55-2.73-2.55h-1c-1.48,0-2.68,1.18-2.74,2.64,.32-.09,.66-.14,1.02-.14h4.6Z"/></g></g></svg>