<?xml version="1.0" encoding="UTF-8"?><svg fill="currentColor" xmlns="http://www.w3.org/2000/svg" viewBox="0 0 24 24"><g id="b"><path d="M21.06,10.37c-.21-.45-.32-.9-.32-1.33V3.98c0-.96-.79-1.75-1.75-1.75h-1c-.96,0-1.75,.79-1.75,1.75V7.98c0,2.34-1.91,4.25-4.25,4.25s-4.25-1.91-4.25-4.25V3.98c0-.96-.79-1.75-1.75-1.75h-1c-.96,0-1.75,.79-1.75,1.75v5.06c0,.44-.11,.88-.32,1.33-.38,.81-.8,2.09-.68,3.66,.07,.9,.3,1.77,.7,2.59,.2,.41,.3,.85,.3,1.29v2.06c0,.96,.79,1.75,1.75,1.75h14c.96,0,1.75-.79,1.75-1.75v-2.06c0-.45,.1-.88,.3-1.29,.39-.82,.63-1.7,.7-2.59,.12-1.57-.3-2.85-.68-3.66Z"/></g></svg>