<?xml version="1.0" encoding="UTF-8"?><svg fill="currentColor" xmlns="http://www.w3.org/2000/svg" viewBox="0 0 24 24"><g id="r"><g><path d="M11.99,2.23c-.27,0-.54,.02-.8,.04-.28,.06-2.58,.55-3.65,2.73-.05,.1-1.13,2.4,.01,4.35,.51,.86,1.24,1.31,1.36,1.37,.56,.33,1.21,.51,1.89,.51h2.47c1.89,0,3.58,.97,4.54,2.6s.96,3.59,.03,5.23l-.63,1.11s-.02,.03-.03,.04c2.73-1.73,4.55-4.77,4.55-8.23,0-5.38-4.37-9.75-9.75-9.75Zm0,7.5c-.96,0-1.75-.79-1.75-1.75s.79-1.75,1.75-1.75,1.75,.79,1.75,1.75-.79,1.75-1.75,1.75Z"/><path d="M15.24,13.13c-.56-.33-1.21-.51-1.89-.51h-2.47c-1.89,0-3.58-.97-4.54-2.6s-.96-3.59-.03-5.23l.63-1.11s.02-.03,.03-.04c-2.73,1.73-4.55,4.77-4.55,8.23,0,5.38,4.37,9.75,9.75,9.75,.27,0,.54-.02,.8-.04,.28-.06,2.58-.55,3.65-2.73,.05-.1,1.13-2.4-.01-4.35-.51-.87-1.24-1.31-1.36-1.37Zm-3.08,4.49c-.96,0-1.75-.79-1.75-1.75s.79-1.75,1.75-1.75,1.75,.79,1.75,1.75-.79,1.75-1.75,1.75Z"/></g></g></svg>