<?xml version="1.0" encoding="UTF-8"?><svg fill="currentColor" xmlns="http://www.w3.org/2000/svg" viewBox="0 0 24 24"><g id="u"><g><path d="M9.74,5.98c0-2.07-1.68-3.75-3.75-3.75s-3.75,1.68-3.75,3.75v12c0,2.07,1.68,3.75,3.75,3.75s3.75-1.68,3.75-3.75V5.98Zm-3.75,14.25c-1.24,0-2.25-1.01-2.25-2.25s1.01-2.25,2.25-2.25,2.25,1.01,2.25,2.25-1.01,2.25-2.25,2.25Z"/><path d="M19.99,6.23H11.24v11.75c0,.16-.02,.31-.05,.45-.11,1.29-.67,2.44-1.54,3.3h10.34c.96,0,1.75-.79,1.75-1.75V7.98c0-.96-.79-1.75-1.75-1.75Z"/></g></g></svg>