<?xml version="1.0" encoding="UTF-8"?><svg fill="currentColor" xmlns="http://www.w3.org/2000/svg" viewBox="0 0 24 24"><g id="o"><g><path d="M14.74,12.98c0-.73-.29-1.43-.81-1.94-1.04-1.04-2.85-1.04-3.89,0-.52,.52-.81,1.21-.81,1.94s.29,1.42,.81,1.94,1.21,.81,1.94,.81,1.43-.29,1.94-.81c.52-.52,.81-1.21,.81-1.94Z"/><path d="M20.37,10.16c-.18-.24-.49-.35-.79-.27-.29,.08-.51,.32-.55,.63-.11,.79-.48,2.31-1.76,3.57-.51,.5-1.1,.9-1.76,1.2-.81,.36-1.44,1.09-1.66,1.95-.21,.79-.06,1.61,.44,2.28,.58,.77,1.47,1.17,2.37,1.17,.63,0,1.26-.2,1.79-.6l.62-.47c2.97-2.25,3.55-6.49,1.3-9.46Z"/><path d="M7.76,8.85c.71-.37,2.16-.95,3.93-.64,.7,.12,1.37,.37,2,.74,.46,.27,.99,.41,1.52,.41,.35,0,.7-.06,1.03-.19,.76-.29,1.34-.89,1.6-1.69,.49-1.56-.39-3.23-1.95-3.72l-.75-.23c-3.55-1.11-7.35,.88-8.46,4.43-.09,.29,0,.61,.24,.8,.23,.19,.56,.23,.83,.09Z"/><path d="M10.72,18.95c-.67-.43-1.89-1.41-2.49-3.11-.24-.67-.35-1.38-.33-2.1,.02-.89-.38-1.76-1.06-2.33-.63-.52-1.43-.74-2.25-.57-1.6,.34-2.63,1.92-2.29,3.52l.16,.76c.67,3.17,3.48,5.35,6.6,5.35,.46,0,.93-.05,1.4-.15,.3-.06,.53-.3,.58-.6,.05-.3-.08-.6-.33-.77Z"/></g></g></svg>