<?xml version="1.0" encoding="UTF-8"?><svg fill="currentColor" xmlns="http://www.w3.org/2000/svg" viewBox="0 0 24 24"><g id="e"><g><path d="M19.17,11.92c-.04-.37-.35-.66-.72-.67-.9-.02-1.84,.15-2.77,.53-.1,.04-.21,.09-.31,.13-.35,.16-.67,.39-.96,.65-.46-.74-1.06-1.39-1.75-1.88-.26-.19-.61-.18-.87,0-.69,.49-1.29,1.14-1.75,1.88-.29-.26-.61-.49-.96-.66-.1-.05-.2-.09-.31-.13-.93-.38-1.86-.54-2.77-.53-.37,.01-.68,.3-.72,.67-.1,.91,0,1.85,.3,2.8,.03,.11,.07,.22,.11,.32,.43,1.19,1.46,2.14,2.63,2.45,.43,.48,.93,1.23,1.08,2.24,.02,.17,.04,.33,.04,.48,.02,.87,.72,1.55,1.59,1.55h2.38c.87,0,1.57-.68,1.59-1.55,0-.15,.02-.31,.04-.48,.15-1,.64-1.75,1.07-2.23,1.17-.31,2.2-1.26,2.64-2.45,.04-.1,.07-.21,.11-.32,.3-.95,.41-1.9,.3-2.8Z"/><path d="M9.89,6.21c.32-.32,.66-.63,1.04-.9,.25-.18,.53-.28,.82-.34h0c.16-.03,.31-.07,.48-.07s.32,.04,.48,.07h0c.29,.06,.58,.17,.83,.34,.38,.27,.72,.58,1.05,.9,.79-.4,1.61-.67,2.43-.81-.06-.23-.13-.45-.24-.66-.05-.09-.1-.19-.16-.29-.48-.84-1.11-1.54-1.88-2.08-.26-.18-.61-.18-.87,0-.65,.46-1.2,1.04-1.64,1.71-.45-.67-.99-1.25-1.64-1.71-.26-.18-.61-.18-.87,0-.77,.55-1.4,1.25-1.88,2.09-.05,.1-.11,.19-.15,.29-.11,.21-.17,.43-.23,.65,.68,.11,1.39,.32,2.09,.64l.35,.16Z"/><path d="M12.67,6.54c-.26-.19-.61-.18-.87,0-.77,.55-1.4,1.25-1.88,2.08-.05,.1-.11,.19-.16,.29-.31,.61-.41,1.3-.32,1.95,.44-.53,.94-1,1.49-1.39,.38-.27,.83-.41,1.3-.41s.92,.14,1.31,.42c.55,.39,1.04,.86,1.48,1.39,.09-.65,0-1.34-.32-1.95-.05-.1-.1-.19-.15-.29-.48-.84-1.11-1.54-1.88-2.08Z"/><path d="M15.85,7.88c.07,.12,.13,.23,.19,.35,.28,.55,.43,1.14,.48,1.73,.6-.13,1.21-.21,1.82-.21h.14s.03,0,.05,0c.1-.81,.07-1.62-.11-2.35-.09-.36-.42-.61-.8-.57-.69,.07-1.39,.27-2.07,.58,.1,.15,.21,.3,.3,.46Z"/><path d="M5.97,9.75h.13c.62,0,1.24,.07,1.85,.21,.05-.59,.2-1.18,.48-1.73,.06-.12,.12-.23,.19-.35,.09-.16,.2-.31,.3-.47-.68-.31-1.39-.51-2.07-.58-.37-.05-.71,.21-.8,.57-.18,.74-.21,1.53-.11,2.35,.01,0,.02,0,.04,0Z"/></g></g></svg>