<?xml version="1.0" encoding="UTF-8"?><svg fill="currentColor" xmlns="http://www.w3.org/2000/svg" viewBox="0 0 24 24"><g id="j"><g><path d="M11.26,13.51c-1.26-1.08-2.81-1.85-4.47-2.24-.41-.1-.81,.16-.9,.56-.09,.4,.16,.81,.56,.9,.27,.06,.54,.14,.81,.23,0,.01,0,.03,0,.04v7.36c0,.77,.63,1.39,1.39,1.39h5.59c.21,0,.41-.09,.55-.24,.14-.15,.21-.36,.19-.57-.12-1.38-.73-4.88-3.72-7.43Z"/><path d="M15.27,5.35c-.23-.5-.5-.98-.83-1.41-.44-.58-.95-1.09-1.53-1.53-.27-.2-.64-.2-.9,0-.58,.44-1.1,.96-1.53,1.53-.33,.44-.59,.91-.83,1.41,.86,.29,1.85,.77,2.8,1.51,.96-.74,1.95-1.21,2.81-1.51Z"/><path d="M15.3,10.56c.47-.21,.95-.39,1.45-.53v-2c.25-.06,.48-.11,.67-.14,.41-.06,.69-.44,.63-.85s-.44-.69-.85-.63c-.82,.12-2.24,.49-3.61,1.48,.79,.86,1.34,1.78,1.72,2.67Z"/><path d="M7.5,7.9c.21,.03,.46,.08,.75,.16v2.09c1.46,.49,2.83,1.24,3.98,2.23,.03,.02,.05,.05,.08,.07,.03-.02,.05-.05,.08-.07,.49-.42,1.03-.78,1.59-1.12-.35-.86-.88-1.74-1.68-2.54-1.62-1.64-3.56-2.14-4.57-2.29-.41-.07-.79,.22-.85,.63-.06,.41,.22,.79,.63,.85Z"/><path d="M18.73,11.83c-.09-.4-.5-.66-.9-.56-1.65,.38-3.19,1.15-4.45,2.22,2.42,2.73,2.97,5.94,3.09,7.31,.03,.32-.02,.65-.12,.95h0c.77,0,1.39-.63,1.39-1.39v-7.36s-.02-.09-.03-.14c.15-.04,.3-.1,.45-.13,.4-.09,.65-.5,.56-.9Z"/></g></g></svg>