<?xml version="1.0" encoding="UTF-8"?><svg fill="currentColor" xmlns="http://www.w3.org/2000/svg" viewBox="0 0 24 24"><g id="p"><path d="M18.07,11.66c-.43-.98-1.07-1.84-1.9-2.54-.66-.56-1.52-.87-2.4-.87h-.45l2.32-3.86c.21-.35,.1-.82-.26-1.03-.35-.21-.82-.1-1.03,.26l-1.61,2.68V3c0-.41-.34-.75-.75-.75s-.75,.34-.75,.75v3.29l-1.61-2.68c-.21-.35-.68-.47-1.03-.26-.36,.21-.47,.67-.26,1.03l2.32,3.86h-.45c-.88,0-1.74,.31-2.4,.87-.83,.7-1.47,1.56-1.9,2.54-1.06,2.42-.95,6.02,.88,7.54,.56,.46,1.13,.59,1.63,.71,.55,.13,1.07,.25,1.75,.78,.2,.16,.39,.33,.57,.53,.32,.34,.77,.54,1.24,.54s.92-.2,1.24-.54c.18-.19,.37-.37,.57-.53,.68-.53,1.2-.65,1.75-.78,.5-.12,1.07-.25,1.63-.71,1.84-1.51,1.94-5.12,.88-7.54Z"/></g></svg>