<?xml version="1.0" encoding="UTF-8"?><svg fill="currentColor" xmlns="http://www.w3.org/2000/svg" viewBox="0 0 24 24"><g id="k"><g><path d="M20.74,8.08c-.46-.6-1.09-1.09-1.8-1.42,.02-.86-.37-1.7-1.08-2.2-.82-.58-1.91-.59-2.74-.09-.58-1.26-1.89-2.13-3.3-2.13s-2.63,.81-3.24,1.99c-.8-.35-1.73-.29-2.45,.22-.71,.5-1.1,1.34-1.08,2.2-.71,.32-1.33,.81-1.8,1.42-.26,.33-1.5,2.1-.79,4.16,.12,.34,.78,2.06,2.54,2.56,.3,.09,.61,.13,.9,.13,1.36,0,2.59-.82,3.3-1.79,.28-.38,.47-.77,.6-1.15,1.23,.96,3.15,.96,4.38,0,.13,.38,.32,.77,.6,1.15,.87,1.17,2.5,2.14,4.2,1.66,1.76-.5,2.43-2.22,2.54-2.56,.7-2.06-.54-3.83-.79-4.16Z"/><path d="M13.59,14.03l-.04-.05c-.49,.15-1.02,.23-1.55,.23s-1.05-.08-1.55-.23c-.01,.02-.02,.03-.04,.05-.55,.74-1.41,1.5-2.48,1.97l.95,.95c.23,.23,.37,.55,.37,.88v2.17c0,.96,.79,1.75,1.75,1.75h2c.96,0,1.75-.79,1.75-1.75v-2.17c0-.33,.13-.65,.37-.88l.95-.95c-1.07-.46-1.93-1.23-2.48-1.96Z"/></g></g></svg>