<?xml version="1.0" encoding="UTF-8"?><svg fill="currentColor" xmlns="http://www.w3.org/2000/svg" viewBox="0 0 24 24"><g id="i"><path d="M21.63,6.46c-.8-.6-1.62-.79-2.2-.84l.86-.86c.29-.29,.29-.77,0-1.06s-.77-.29-1.06,0l-.88,.88c-.09-1.05-.53-1.83-.82-2.21-.25-.33-.72-.4-1.05-.15-.33,.25-.4,.72-.15,1.05,.21,.28,.56,.86,.56,1.67,0,.21-.04,.55-.17,.93-.9-.72-2.06-1.09-3.32-1.05-.86,.04-1.72,.27-2.51,.66l.6,.74,1.73,1.73c.29,.29,.29,.77,0,1.06-.15,.15-.34,.22-.53,.22s-.38-.07-.53-.22l-1.78-1.78-.77-.94c-.4,.32-.78,.68-1.13,1.1-.65,.78-1.26,1.59-1.84,2.42l.93,.98,2.11,2.11c.29,.29,.29,.77,0,1.06-.15,.15-.34,.22-.53,.22s-.38-.07-.53-.22l-2.12-2.12-.71-.74c-1.39,2.22-2.53,4.6-3.38,7.1-.36,1.07-.16,2.13,.55,2.83,.48,.48,1.11,.73,1.81,.73,.33,0,.68-.06,1.03-.18,1.17-.4,2.3-.86,3.41-1.38l-2-2c-.29-.29-.29-.77,0-1.06s.77-.29,1.06,0l2.36,2.36c1.66-.87,3.25-1.87,4.76-3.02l-2.53-2.52c-.29-.29-.29-.77,0-1.06s.77-.29,1.06,0l2.65,2.64s.06-.04,.08-.07c1.51-1.27,2.43-3.04,2.51-4.87,.06-1.27-.33-2.42-1.05-3.32,.26-.09,.57-.17,.93-.17s1.03,.07,1.67,.56c.13,.1,.29,.15,.45,.15,.23,0,.45-.1,.6-.3,.25-.33,.18-.8-.15-1.05Z"/></g></svg>