<?xml version="1.0" encoding="UTF-8"?><svg fill="currentColor" xmlns="http://www.w3.org/2000/svg" viewBox="0 0 24 24"><g id="f"><g><path d="M19.52,8.9c-.2-1.16-.75-2.11-1.59-2.74-.39-.29-.83-.51-1.31-.65-.11-.03-.21-.13-.18-.26l.08-.34c.06-.25,.11-.51,.17-.74,.17-.71-.17-1.43-.81-1.75-.39-.2-.85-.22-1.26-.06-.41,.16-.73,.48-.89,.89-.11,.28-.22,.59-.33,.89-.16,.43-.31,.85-.47,1.22-.02,.05-.06,.09-.11,.11-.48,.16-.91,.41-1.26,.75-.77,.72-1.16,1.81-1.09,3,.03,.49,.31,.91,.75,1.13,.44,.22,.96,.18,1.36-.09l.75-.5,.49,.49c.26,.26,.61,.39,.96,.39s.69-.13,.96-.4l.54-.54,1.3,.65c.46,.23,1,.18,1.41-.12,.41-.31,.62-.81,.53-1.33Z"/><path d="M18.19,11.99h0c-.44,0-.88-.1-1.28-.3l-.35-.17c-.5,.4-1.13,.62-1.78,.62-.58,0-1.14-.17-1.6-.49-.41,.22-.87,.34-1.35,.34-.06,0-.11-.02-.17-.02,0,1.34-.31,2.99-1.51,4.46-1.41,1.72-3.29,2.27-4.28,2.44-.3,.05-.55,.29-.61,.59-.06,.3,.07,.61,.33,.78,.13,.08,2.43,1.53,5.32,1.53,1.12,0,2.32-.22,3.52-.81,3.25-1.6,5.11-5.33,4.78-9.15-.33,.13-.67,.2-1.03,.2Z"/></g></g></svg>