<?xml version="1.0" encoding="UTF-8"?><svg fill="currentColor" xmlns="http://www.w3.org/2000/svg" viewBox="0 0 24 24"><g id="q"><g><path d="M20.68,17.69c-.73-1.57-1.75-2.64-2.95-3.1-2.39-.92-5.11,.43-7.13,2.23,.33-2.61-.16-5.46-2.38-6.72-1.11-.62-2.62-.75-4.37-.38-.27,.06-.49,.26-.56,.53-.08,.27,0,.56,.21,.75,1.06,1,1.73,2.01,2.02,2.99,.21,.74,.17,1.33,.12,1.96-.06,.8-.14,1.71,.36,2.88,.39,.93,1.04,1.8,1.93,2.61,.02,.02,.05,.03,.08,.05,.02,.01,.04,.02,.06,.04,.06,.03,.12,.06,.19,.08,.03,0,.05,.03,.09,.04,.52,.08,1.03,.12,1.52,.12,.64,0,1.25-.07,1.83-.22,1.27-.32,2-.91,2.64-1.42,.51-.42,1-.81,1.78-1.1,1.03-.38,2.31-.47,3.81-.27,.27,.04,.54-.08,.7-.3,.16-.22,.19-.51,.08-.76Z"/><path d="M12.09,13.93c1.24-.68,2.6-1.14,4-1.14,.48,0,.94,.07,1.39,.18l2.18-3.98c.72-1.34,.89-2.85,.47-4.13-.33-1.02-1.02-1.81-1.94-2.25-2.12-1-4.91,.19-6.23,2.63l-.5,.85,2.44,1.63c.34,.23,.44,.7,.21,1.04-.14,.22-.38,.33-.63,.33-.14,0-.29-.04-.42-.13l-2.36-1.58-1.07,1.85c1.48,1.13,2.21,2.85,2.46,4.69Zm6.32-6.53c.36,.21,.48,.66,.28,1.02-.14,.24-.39,.38-.65,.38-.13,0-.25-.03-.37-.1l-.74-.42c-.36-.21-.48-.66-.28-1.02,.2-.36,.66-.49,1.02-.28l.74,.42Zm-2.88-3.34c.2-.36,.66-.49,1.02-.28l.74,.42c.36,.21,.48,.66,.28,1.02-.14,.24-.39,.38-.65,.38-.13,0-.25-.03-.37-.1l-.74-.42c-.36-.21-.48-.66-.28-1.02Zm-3.09,6.33c.23-.34,.69-.44,1.04-.21l.4,.27c.34,.23,.44,.7,.21,1.04-.14,.22-.38,.33-.63,.33-.14,0-.29-.04-.42-.13l-.4-.27c-.34-.23-.44-.7-.21-1.04Z"/></g></g></svg>