<?xml version="1.0" encoding="UTF-8"?><svg fill="currentColor" xmlns="http://www.w3.org/2000/svg" viewBox="0 0 24 24"><g id="g"><path d="M20.28,6.47c-.02-.22-.13-.42-.3-.55-.61-.45-1.37-.68-2.07-.69-.27,0-.52,.04-.75,.1-.04-.02-.07-.05-.12-.07-.02,0-.46-.15-.58-.56-.08-.31,.03-.64,.29-.85,.32-.26,.37-.73,.11-1.05-.26-.32-.73-.37-1.05-.11-.72,.58-1.03,1.53-.8,2.41,.12,.45,.36,.78,.61,1.02-.2,.18-.35,.33-.44,.44-.35-.05-.7-.06-1.06-.01-1.21,.17-2.24,.88-2.84,1.95-.59,1.05-1.29,2.04-2.1,2.92-1.13,1.24-2.46,2.29-3.94,3.12-1.08,.61-1.8,1.65-1.97,2.87-.16,1.18,.22,2.34,1.06,3.2l.02,.02c.74,.74,1.73,1.13,2.72,1.13,.65,0,1.29-.16,1.88-.5,2.1-1.21,4.01-2.72,5.66-4.48,1.29-1.37,2.41-2.89,3.36-4.53,.6-1.03,.64-2.26,.21-3.33l1.86-1.86c.16-.15,.23-.37,.22-.59Zm-10.56,12.12c-.42,.33-.85,.65-1.3,.95-.13,.08-.27,.13-.41,.13-.24,0-.48-.12-.63-.33-.23-.35-.13-.81,.21-1.04,.41-.27,.81-.57,1.19-.87,.32-.26,.8-.21,1.05,.12,.26,.32,.21,.8-.12,1.05Zm-1.23-1.73c-.14,.12-.31,.18-.48,.18-.21,0-.43-.09-.57-.27-.27-.32-.22-.79,.09-1.06,.75-.63,1.48-1.39,2.6-2.59,.28-.3,.76-.32,1.06-.03,.3,.28,.32,.76,.03,1.06-1.17,1.24-1.92,2.03-2.73,2.71Zm5.67-2.76s-.63,.79-1.61,1.82c-.15,.16-.35,.24-.54,.24-.18,0-.37-.07-.51-.21-.3-.28-.32-.76-.03-1.06,.93-.99,1.53-1.73,1.53-1.73,.26-.33,.73-.38,1.05-.12,.32,.26,.38,.73,.12,1.05Zm.37-4.61c-.15,.48-.37,1.06-1.01,1.95-.15,.21-.38,.31-.61,.31-.15,0-.3-.04-.43-.14-.34-.24-.42-.71-.17-1.05,.54-.75,.69-1.18,.79-1.51,.12-.4,.54-.62,.94-.5,.4,.12,.62,.54,.5,.94Zm2.84-1.85h0c-.19-.19-.4-.35-.62-.49,.27-.2,.67-.41,1.17-.41,.13,.02,.22,.01,.33,.03l-.87,.87Z"/></g></svg>