<?xml version="1.0" encoding="UTF-8"?><svg fill="currentColor" xmlns="http://www.w3.org/2000/svg" viewBox="0 0 24 24"><g id="r"><g><path d="M16.69,10.71c-.19-.46-.42-.91-.68-1.34-.83-1.36-1.26-2.87-1.26-4.38v-.99c0-.96-.79-1.75-1.75-1.75h-2c-.96,0-1.75,.79-1.75,1.75v.99c0,1.5-.44,3.02-1.26,4.38-.26,.43-.49,.88-.68,1.34-1.17,2.8-1.15,5.52,.04,7.65,1.22,2.18,2.87,3.39,4.66,3.39s3.44-1.2,4.66-3.38c1.19-2.14,1.2-4.85,.04-7.65Z"/><path d="M18.37,8.37c-.48-.32-1.01-.57-1.56-.76,.14,.33,.3,.66,.49,.97,.3,.5,.56,1.02,.79,1.55,1.35,3.23,1.31,6.41-.11,8.96-.48,.87-1.04,1.59-1.64,2.2,.5,.12,.99,.19,1.46,.19,1.05,0,1.98-.31,2.66-.92,1.05-.94,1.15-2.24,1.25-3.5,.14-1.86,.11-6.43-3.34-8.69Z"/><path d="M5.92,10.13c.22-.53,.48-1.05,.78-1.54,.19-.32,.36-.65,.5-.99-.58,.19-1.12,.44-1.61,.77-3.45,2.26-3.48,6.83-3.34,8.69,.1,1.26,.2,2.57,1.25,3.5,.69,.61,1.61,.92,2.66,.92,.48,0,.98-.07,1.5-.19-.6-.6-1.15-1.33-1.63-2.19-1.42-2.54-1.46-5.73-.11-8.96Z"/></g></g></svg>