<?xml version="1.0" encoding="UTF-8"?><svg fill="currentColor" xmlns="http://www.w3.org/2000/svg" viewBox="0 0 24 24"><g id="d"><g><path d="M13.75,16.15v-4.03c0-.24-.11-.46-.31-.61-.19-.14-.44-.18-.67-.11l-2,.63c-.31,.1-.52,.39-.52,.71v3.4c-.5,.37-1.26,1.13-1.33,2.25-.06,.88,.33,1.8,1.04,2.47,.6,.57,1.36,.88,2.13,.88,.11,0,.23,0,.34-.02,1.58-.2,2.8-1.73,2.65-3.34-.1-1.14-.84-1.87-1.33-2.24Z"/><path d="M13.7,3.19c-.12-.53-.57-.94-1.14-.94h-1.12c-.52,0-.95,.34-1.11,.81,.67,.32,1.23,.7,1.72,1.08,.54-.39,1.1-.7,1.65-.95Z"/><path d="M9.7,6.72c.35-.6,.76-1.12,1.2-1.58-.43-.31-.9-.61-1.47-.86-.92-.4-1.89-.62-2.91-.66-.41-.03-.8,.17-1.04,.5-.24,.32-.3,.73-.17,1.11l.42,1.19c.16,.44,.56,.76,1.03,.81,.49,.05,.96,.19,1.39,.41,.36,.19,.63,.42,.85,.63,.17-.51,.39-1.03,.69-1.55Z"/><path d="M18.49,4.15c-.27-.33-.68-.5-1.12-.45-1.36,.17-4.69,.87-6.37,3.77-.66,1.14-.87,2.3-.91,3.22,.08-.03,.15-.07,.23-.09l2-.63c.22-.07,.45-.11,.68-.11,.34,0,.66,.1,.96,.25,.09-.36,.23-.76,.49-1.15,.86-1.27,2.29-1.63,2.87-1.72,.44-.07,.81-.38,.96-.8l.4-1.15c.14-.39,.06-.82-.2-1.14Z"/></g></g></svg>