<?xml version="1.0" encoding="UTF-8"?><svg fill="currentColor" xmlns="http://www.w3.org/2000/svg" viewBox="0 0 24 24"><g id="c"><g><path d="M12.73,5.6c-.08-.34-.38-.58-.73-.58s-.65,.24-.73,.58c-.27,1.15-.5,2.33-.7,3.51-.58,3.47-.35,6.73-.15,9.6,.06,.8,.11,1.57,.14,2.32,.02,.4,.35,.71,.75,.71h1.38c.4,0,.73-.32,.75-.71,.04-.75,.09-1.53,.14-2.32,.2-2.88,.42-6.13-.15-9.61-.2-1.17-.43-2.36-.7-3.51Z"/><path d="M7.46,2.85c.19-.21,.39-.4,.59-.57-1.41-.07-2.47,.4-2.63,.47-1.28,.6-2.28,1.67-2.81,3.04-.75,1.92-.34,4.16,1.08,5.84,.7,.83,1.26,1.72,1.69,2.65,.26,.57,.41,1.09,.55,1.55-.01-.53,.04-1.03,.1-1.53,.05-.5,.11-1.01,.11-1.63,0-.91-.1-1.84-.32-2.78-.6-2.56,.03-5.26,1.64-7.04Z"/><path d="M21.38,5.79c-.53-1.36-1.53-2.44-2.81-3.04-.15-.07-1.22-.54-2.63-.48,.21,.18,.41,.37,.59,.57,1.61,1.78,2.24,4.48,1.64,7.04-.22,.94-.33,1.88-.32,2.78,0,.62,.06,1.13,.11,1.63,.05,.5,.11,1,.1,1.53,.14-.46,.29-.98,.55-1.55,.42-.93,.99-1.82,1.69-2.65,1.41-1.68,1.83-3.92,1.08-5.84Z"/><path d="M12,2.25c-1.27,0-2.49,.57-3.43,1.61-1.29,1.42-1.78,3.6-1.29,5.69,.25,1.05,.37,2.11,.36,3.14,0,.7-.07,1.28-.12,1.78-.1,.93-.19,1.74,.18,2.66,.25,.62,.67,1.15,1.22,1.59-.2-2.93-.42-6.25,.18-9.85,.2-1.21,.45-2.42,.72-3.6,.24-1.02,1.14-1.74,2.19-1.74s1.95,.71,2.19,1.74c.28,1.19,.52,2.4,.72,3.6,.6,3.61,.38,6.92,.18,9.86,.55-.44,.97-.97,1.22-1.59,.37-.91,.28-1.72,.18-2.66-.05-.51-.12-1.08-.12-1.78,0-1.03,.11-2.09,.36-3.14,.49-2.09,0-4.27-1.29-5.69-.94-1.04-2.16-1.61-3.43-1.61Z"/></g></g></svg>