<?xml version="1.0" encoding="UTF-8"?><svg fill="currentColor" xmlns="http://www.w3.org/2000/svg" viewBox="0 0 24 24"><g id="s"><g><path d="M13.54,9.87h-4.47c-.59,0-1.14,.29-1.46,.79-.32,.49-.37,1.1-.14,1.64,.51,1.17,.56,2.91,.14,4.89-.24,1.14,.03,2.3,.76,3.2,.7,.87,1.75,1.37,2.87,1.37h.15c1.12,0,2.17-.5,2.87-1.37,.72-.89,1-2.06,.76-3.2-.42-1.98-.37-3.72,.14-4.89h0c.23-.54,.18-1.15-.14-1.64-.32-.49-.87-.79-1.46-.79Z"/><path d="M13.97,2.25h-5.33c-3.35,0-6.08,2.73-6.08,6.08,0,2.39,1.55,4.41,3.7,5.13-.05-.2-.09-.41-.16-.57-.44-1-.34-2.15,.26-3.06,.6-.92,1.62-1.47,2.72-1.47h4.47c1.1,0,2.12,.55,2.72,1.47,.6,.91,.7,2.06,.26,3.06-.07,.17-.12,.37-.16,.58,2.15-.72,3.7-2.75,3.7-5.13,0-3.35-2.73-6.08-6.08-6.08Z"/></g></g></svg>