<?xml version="1.0" encoding="UTF-8"?><svg fill="currentColor" xmlns="http://www.w3.org/2000/svg" viewBox="0 0 24 24"><g id="l"><g><path d="M8.47,12.63c2.02-.7,3.64-2.32,4.34-4.34,.16-.45,.05-.93-.28-1.26-.26-.26-.55-.33-.76-.34l-1.01-.1c-.77,1.75-2.16,3.17-3.9,3.96v1.1c.01,.15,.08,.45,.34,.71,.33,.33,.81,.43,1.26,.28Z"/><path d="M20.3,3.74c-1.38-1.38-3.34-1.94-5.24-1.49-1.62,.38-2.95,1.44-3.69,2.89l.53,.05c.62,.04,1.23,.32,1.69,.78,.74,.73,.98,1.81,.63,2.81-.84,2.45-2.81,4.42-5.27,5.27-.3,.1-.61,.15-.91,.15-.7,0-1.39-.27-1.9-.79-.46-.46-.74-1.07-.78-1.72v-.54c-1.48,.73-2.55,2.08-2.94,3.71-.45,1.9,.11,3.86,1.49,5.24,1.07,1.07,2.49,1.64,3.94,1.64,.59,0,1.2-.1,1.78-.29,5.64-1.88,10.13-6.37,12.01-12,.67-2.02,.16-4.22-1.35-5.72Z"/></g></g></svg>