<?xml version="1.0" encoding="UTF-8"?><svg fill="currentColor" xmlns="http://www.w3.org/2000/svg" viewBox="0 0 24 24"><g id="o"><g><path d="M8.96,7.08l.79,.63v-.71c0-1.24,1.01-2.25,2.25-2.25s2.25,1.01,2.25,2.25v.71l.79-.63c.57-.34,.97-.9,1.11-1.55,.13-.59,.03-1.16-.28-1.58-.29-.4-.76-.66-1.3-.72-.27-.03-.54,0-.81,.07-.36-.63-1.02-1.05-1.77-1.05s-1.41,.42-1.77,1.05c-.26-.07-.54-.1-.81-.07-.54,.06-1.02,.32-1.3,.72-.3,.42-.4,1-.28,1.58,.14,.65,.55,1.21,1.11,1.55Z"/><path d="M17.93,11.46c-.19-.37-.63-.52-1.01-.34l-.77,.39c-.85,.42-1.46,1.23-1.65,2.16l-.24,1.21c-.1,.48-.41,.9-.85,1.11l-.66,.33V7c0-.41-.34-.75-.75-.75s-.75,.34-.75,.75v9.32l-.66-.33c-.44-.22-.75-.63-.85-1.11l-.24-1.21c-.19-.94-.79-1.73-1.65-2.16l-.74-.37c-.37-.18-.82-.03-1.01,.34-.19,.37-.04,.82,.34,1.01l.74,.37c.44,.22,.75,.63,.85,1.11l.24,1.21c.19,.94,.79,1.73,1.65,2.16l1.33,.66v3c0,.41,.34,.75,.75,.75s.75-.34,.75-.75v-3l1.33-.66c.85-.42,1.46-1.23,1.65-2.16l.24-1.21c.1-.48,.41-.9,.85-1.11l.77-.39c.37-.19,.52-.64,.34-1.01Z"/><path d="M21.58,12.22c-.11-.25-.26-.48-.46-.67,.08-.14,.15-.3,.2-.46,.17-.54,.11-1.11-.16-1.6-.37-.66-1.06-1.02-1.78-1.03-.07-.26-.18-.51-.34-.74-.32-.44-.78-.73-1.26-.78-.52-.06-1.07,.14-1.51,.54-.5,.44-.79,1.07-.81,1.73l-.17,1.06c.06-.03,.12-.07,.18-.1l.78-.39c.32-.16,.66-.24,1.01-.24,.86,0,1.63,.48,2.01,1.24,.55,1.11,.1,2.46-1.01,3.02l-.7,.35,.88,.36c.37,.21,.78,.31,1.19,.31,.24,0,.48-.04,.71-.11,.57-.18,1.03-.55,1.24-1.02,.21-.45,.2-.99-.02-1.49Z"/><path d="M4.76,10.81c.38-.77,1.16-1.24,2.01-1.24,.34,0,.69,.08,1,.23l.74,.37c.06,.03,.12,.07,.18,.1l-.17-1.06c-.02-.66-.31-1.29-.81-1.73-.45-.4-1-.59-1.51-.54-.49,.05-.95,.34-1.26,.78-.16,.22-.27,.47-.34,.74-.72,0-1.41,.37-1.78,1.03s-.33,1.44,.04,2.06c-.19,.19-.35,.42-.45,.67-.22,.5-.22,1.04-.02,1.49,.22,.47,.67,.84,1.24,1.02,.23,.07,.47,.11,.71,.11,.41,0,.83-.11,1.19-.31l.85-.35-.62-.34c-1.11-.56-1.56-1.91-1.01-3.02Z"/></g></g></svg>