<?xml version="1.0" encoding="UTF-8"?><svg fill="currentColor" xmlns="http://www.w3.org/2000/svg" viewBox="0 0 24 24"><g id="h"><path d="M16,12.25h3.8c.71-2.72,.49-5.34-.69-7.23-.18-.3-.4-.58-.63-.86-1.12-1.28-2.66-1.98-4.22-1.91-.57,.02-1.12,.14-1.61,.34-1.23,.51-1.69,1.37-2.17,2.28-.06,.12-.13,.25-.2,.37h2.73c.41,0,.75,.34,.75,.75s-.34,.75-.75,.75h-3.72c-.08,.1-.15,.2-.25,.31-.96,1.1-1.88,1.66-2.69,2.15-1.08,.65-2.11,1.27-2.71,2.84-.32,.84-.39,1.61-.38,2.2h4.75c.41,0,.75,.34,.75,.75s-.34,.75-.75,.75H3.44c.29,1.4,.96,2.74,2.04,3.89,.91,.99,2.2,1.6,3.53,1.7,.22,.02,.45,.02,.67,.02,.81,0,1.6-.11,2.35-.31,3.08-.86,5.88-3.65,7.3-7.29h-3.32c-.41-.01-.75-.35-.75-.76s.34-.75,.75-.75Zm-7,.5c-.41,0-.75-.34-.75-.75s.34-.75,.75-.75h1c.41,0,.75,.34,.75,.75s-.34,.75-.75,.75h-1Zm4,5h-2c-.41,0-.75-.34-.75-.75s.34-.75,.75-.75h2c.41,0,.75,.34,.75,.75s-.34,.75-.75,.75Zm2-7h-2c-.41,0-.75-.34-.75-.75s.34-.75,.75-.75h2c.41,0,.75,.34,.75,.75s-.34,.75-.75,.75Z"/></g></svg>