<?xml version="1.0" encoding="UTF-8"?><svg fill="currentColor" xmlns="http://www.w3.org/2000/svg" viewBox="0 0 24 24"><g id="m"><g><path d="M16.75,11c0-2.07-1.68-3.75-3.75-3.75h-.33c-.02-.37-.02-.73,.06-1.09,.29-1.34,1.19-2.18,1.71-2.55,.33-.24,.41-.71,.16-1.05-.24-.33-.71-.41-1.05-.16-.69,.5-1.9,1.62-2.29,3.45-.1,.46-.13,.93-.11,1.41h-.16c-2.07,0-3.75,1.68-3.75,3.75v7c0,2.07,1.68,3.75,3.75,3.75h2c2.07,0,3.75-1.68,3.75-3.75v-7Z"/><path d="M16,6.25h-.77c1.78,.84,3.02,2.65,3.02,4.75v7c0,1.43-.58,2.73-1.51,3.68,2.27-.36,4.01-2.31,4.01-4.68v-6c0-2.62-2.13-4.75-4.75-4.75Z"/><path d="M5.75,11c0-2.1,1.25-3.91,3.04-4.75h-.79c-2.62,0-4.75,2.13-4.75,4.75v6c0,2.37,1.74,4.32,4.01,4.68-.93-.95-1.51-2.24-1.51-3.68v-7Z"/></g></g></svg>