<?xml version="1.0" encoding="UTF-8"?><svg fill="currentColor" xmlns="http://www.w3.org/2000/svg" viewBox="0 0 24 24"><g id="b"><path d="M17.4,2.74c-.07-.31-.33-.54-.65-.58-.28-.03-2.71-.23-4.16,1.69-.03,.03-.04,.07-.06,.1-.02-.03-.04-.07-.06-.1-1.45-1.91-3.88-1.71-4.16-1.69-.32,.03-.58,.27-.65,.58-.05,.21-.43,2.05,.88,3.46,.26,.28,.58,.52,.92,.71-.61,.68-1.01,1.58-1.05,2.58-.05,1.12-.14,2.23-.28,3.34l1.63-.54c.4-.13,.82,.08,.95,.47,.13,.39-.08,.82-.47,.95l-2.09,.7c-.08,.03-.16,.04-.24,.04,0,0-.01,0-.02,0-.1,.6-.21,1.2-.34,1.8-.33,1.52-.75,3.04-1.26,4.52-.09,.26-.03,.54,.15,.74,.14,.16,.35,.25,.56,.25,.05,0,.11,0,.16-.02,.67-.15,1.9-.51,3.24-1.28l-.93-.93c-.29-.29-.29-.77,0-1.06s.77-.29,1.06,0l1.14,1.14c.73-.56,1.46-1.25,2.12-2.14,.94-1.26,1.5-2.56,1.84-3.78l-1.16-1.16c-.29-.29-.29-.77,0-1.06s.77-.29,1.06,0l.46,.46c.14-1.06,.12-2,.07-2.68-.06-.79-.33-1.51-.78-2.07-.02-.03-.05-.05-.08-.08,.5-.2,.95-.5,1.32-.9,1.3-1.41,.92-3.26,.88-3.46Zm-5.4,13.01h-1c-.41,0-.75-.34-.75-.75s.34-.75,.75-.75h1c.41,0,.75,.34,.75,.75s-.34,.75-.75,.75Zm1-5h-1c-.41,0-.75-.34-.75-.75s.34-.75,.75-.75h1c.41,0,.75,.34,.75,.75s-.34,.75-.75,.75Z"/></g></svg>