<?xml version="1.0" encoding="UTF-8"?><svg fill="currentColor" xmlns="http://www.w3.org/2000/svg" viewBox="0 0 24 24"><g id="n"><g><path d="M14.53,13.47c-.29-.29-.77-.29-1.06,0l-.72,.72v-2.88l1.78-1.78c.29-.29,.29-.77,0-1.06s-.77-.29-1.06,0l-.72,.72v-2.19c0-.41-.34-.75-.75-.75s-.75,.34-.75,.75v2.19l-.72-.72c-.29-.29-.77-.29-1.06,0s-.29,.77,0,1.06l1.78,1.78v2.88l-.72-.72c-.29-.29-.77-.29-1.06,0s-.29,.77,0,1.06l1.78,1.78v4.69c0,.41,.34,.75,.75,.75s.75-.34,.75-.75v-4.69l1.78-1.78c.29-.29,.29-.77,0-1.06Z"/><path d="M18.72,9.81c-.18-.67-.45-1.02-.66-1.31-.17-.22-.26-.35-.33-.65-.07-.34-.02-.57,.03-.83,.07-.36,.17-.8-.09-1.34-.33-.7-1.04-1.14-2.17-1.36-.7-1.27-2.03-2.07-3.5-2.07s-2.81,.8-3.5,2.07c-1.13,.21-1.84,.66-2.17,1.36-.26,.54-.16,.98-.09,1.34,.05,.26,.1,.49,.03,.83-.06,.3-.16,.43-.33,.65-.21,.28-.48,.63-.66,1.31-.1,.36-.29,1.31,0,2.39,.18,.67,.45,1.02,.66,1.3,.17,.22,.26,.35,.33,.65,.07,.35,.02,.58-.04,.84-.08,.36-.2,.84,.14,1.39,.37,.62,.95,.74,1.37,.82,.34,.07,.54,.12,.74,.32,.19,.19,.25,.39,.33,.73,.09,.4,.22,.94,.76,1.34,.06,.04,.13,.07,.19,.1v-2.77l-1.34-1.34c-.88-.88-.88-2.3,0-3.18,.33-.33,.74-.54,1.19-.62l-1.19-1.19c-.88-.88-.88-2.3,0-3.18,.37-.37,.84-.59,1.35-.65,.12-1.13,1.08-2.01,2.24-2.01s2.12,.88,2.24,2.01c.51,.05,.99,.28,1.35,.65,.88,.88,.88,2.3,0,3.18l-1.19,1.19c.45,.08,.86,.29,1.19,.62,.88,.88,.88,2.3,0,3.18l-1.34,1.34v2.77c.06-.04,.14-.05,.19-.1,.55-.4,.67-.95,.76-1.34,.08-.34,.13-.54,.32-.73s.4-.25,.74-.32c.42-.09,1-.2,1.37-.82,.33-.55,.22-1.04,.14-1.39-.06-.26-.11-.49-.04-.84,.06-.3,.16-.43,.33-.65,.21-.28,.48-.63,.66-1.31,.29-1.08,.1-2.03,0-2.39Z"/></g></g></svg>