<?xml version="1.0" encoding="UTF-8"?><svg fill="currentColor" xmlns="http://www.w3.org/2000/svg" viewBox="0 0 24 24"><g id="t"><g><path d="M6.84,10.27c.7-.15,1.22-.48,1.56-.75,.06-.06,.12-.1,.15-.12,.32-.24,.78-.18,1.04,.13,.25,.32,.21,.78-.1,1.04-.04,.04-.09,.07-.13,.11-.19,.18-.61,.63-.61,1.32,0,.08,.01,.7,.47,1.19,.36-.1,.83-.3,1.25-.72,.25-.25,.67-.78,.79-1.58,.05-.37,.37-.64,.74-.64h0c.37,0,.69,.27,.74,.64,.05,.34,.22,1.01,.79,1.58,.21,.21,.63,.55,1.24,.72,.21-.23,.48-.63,.48-1.19,0-.08-.02-.79-.58-1.3-.05-.04-.11-.09-.16-.13-.31-.26-.35-.72-.1-1.04,.25-.32,.71-.37,1.04-.13,.06,.05,.13,.1,.19,.15,.34,.27,.86,.57,1.53,.72,.55,.12,1.13,.12,1.68,0l.68-.21c-1.43-2.12-3.97-3.6-6.9-3.78-.04-.29-.03-.65,.1-1.04,.36-1.05,1.35-1.46,1.55-1.54,.39-.14,.59-.57,.45-.96s-.57-.59-.96-.45c-.31,.11-1.88,.76-2.45,2.46-.19,.56-.22,1.09-.18,1.53-2.86,.26-5.31,1.75-6.69,3.85l.7,.11c.59,.13,1.17,.13,1.72,0Z"/><path d="M20.23,11.4l-1.01,.31c-.82,.19-1.63,.19-2.39,.02-.04,0-.07-.02-.1-.02,.01,.13,.02,.24,.02,.29,0,1.55-1.08,2.44-1.3,2.6-.13,.1-.29,.15-.45,.15-.04,0-.07,0-.11,0-1.23-.18-2.05-.83-2.42-1.21-.18-.18-.34-.37-.47-.56-.17,.24-.34,.43-.47,.56-.88,.88-1.9,1.14-2.42,1.21-.19,.03-.4-.02-.56-.14-1.24-.93-1.3-2.33-1.3-2.6,0-.1,0-.2,.01-.29-.03,0-.07,.02-.1,.02-.76,.17-1.56,.17-2.32,0l-1.13-.18c-.29,.77-.46,1.59-.46,2.45,0,4.27,3.93,7.75,8.75,7.75s8.75-3.48,8.75-7.75c0-.91-.19-1.78-.52-2.6Z"/></g></g></svg>