<?xml version="1.0" encoding="UTF-8"?><svg fill="currentColor" xmlns="http://www.w3.org/2000/svg" viewBox="0 0 24 24"><g id="r"><g><polygon points="13.24 3 13.24 2.25 10.74 2.25 10.74 3 10.74 7.75 13.24 7.75 13.24 3"/><path d="M6.99,7.75h2.25V2.25h-2.25c-.96,0-1.75,.79-1.75,1.75v2c0,.96,.79,1.75,1.75,1.75Z"/><path d="M16.99,2.25h-2.25V7.75h2.25c.96,0,1.75-.79,1.75-1.75V4c0-.96-.79-1.75-1.75-1.75Z"/><path d="M2.24,17c0,1.14,.7,2.12,1.69,2.54-.04-.28-.05-.56-.03-.84l.36-5c-1.19,.63-2.02,1.87-2.02,3.31Z"/><path d="M19.73,13.69l.36,5c.02,.28,0,.56-.03,.84,.99-.42,1.69-1.4,1.69-2.54,0-1.44-.82-2.68-2.02-3.31Z"/><path d="M16.99,9.25h-2.25v1.75c0,.41-.34,.75-.75,.75s-.75-.34-.75-.75v-1.75h-2.5v1.75c0,.41-.34,.75-.75,.75s-.75-.34-.75-.75v-1.75h-2.25c-.32,0-.61-.06-.9-.14l-.69,9.7c-.05,.76,.21,1.51,.73,2.07,.52,.56,1.25,.88,2.01,.88h7.7c.76,0,1.5-.32,2.01-.88,.52-.56,.78-1.31,.73-2.07l-.69-9.7c-.29,.08-.59,.14-.9,.14Zm-2,9.5c-.41,0-.75-.34-.75-.75,0-1.24-1.01-2.25-2.25-2.25s-2.25,1.01-2.25,2.25c0,.41-.34,.75-.75,.75s-.75-.34-.75-.75c0-2.07,1.68-3.75,3.75-3.75s3.75,1.68,3.75,3.75c0,.41-.34,.75-.75,.75Z"/></g></g></svg>