<?xml version="1.0" encoding="UTF-8"?><svg fill="currentColor" xmlns="http://www.w3.org/2000/svg" viewBox="0 0 24 24"><g id="s"><g><path d="M2.99,6.75H13.99c.96,0,1.75-.79,1.75-1.75v-1c0-.96-.79-1.75-1.75-1.75H3.99c-.96,0-1.75,.79-1.75,1.75v2c0,.41,.34,.75,.75,.75Z"/><path d="M20.11,11.44l-1.45,2.89c-.13,.26-.4,.41-.67,.41-.11,0-.23-.03-.33-.08-.37-.19-.52-.64-.34-1.01l1.52-3.04c-.51-.22-1.07-.33-1.65-.35l-1.53,3.06c-.13,.26-.4,.41-.67,.41-.11,0-.23-.03-.33-.08-.37-.19-.52-.64-.34-1.01l1.21-2.41h-.54c-.14,0-.25-.11-.25-.25v-1.85c-.24,.06-.49,.1-.75,.1H2.99c-.26,0-.51-.05-.75-.14v8.89c0,.41,.34,.75,.75,.75H20.99c.41,0,.75-.34,.75-.75v-2c0-1.42-.64-2.68-1.63-3.56Z"/><path d="M2.99,19.25c-.26,0-.5-.05-.73-.13,.12,1.47,1.35,2.63,2.85,2.63,.7,0,1.36-.25,1.88-.7,.52,.45,1.18,.7,1.88,.7h1.24c.7,0,1.36-.25,1.88-.7,.52,.45,1.19,.7,1.88,.7h1.24c.69,0,1.36-.25,1.88-.7,.52,.45,1.19,.7,1.88,.7,1.5,0,2.72-1.16,2.85-2.63-.23,.08-.47,.13-.73,.13H2.99Z"/></g></g></svg>