<?xml version="1.0" encoding="UTF-8"?><svg fill="currentColor" xmlns="http://www.w3.org/2000/svg" viewBox="0 0 24 24"><g id="p"><path d="M21.56,19.73c-.44-2.68-1.06-5.36-1.85-7.95-.22-.72-.45-1.43-.68-2.11-.29-.85-1.1-1.42-2.04-1.42h0c-.62,0-1.19,.27-1.58,.7-.17-1.06-.4-2.12-.69-3.15-.18-.67-.39-1.34-.62-1.99-.33-.93-1.2-1.56-2.18-1.56-.87,0-1.66,.48-2.06,1.25-.19,.37-.38,.78-.56,1.21-.2,.49-.37,.99-.52,1.5-.4-.6-1.08-.97-1.82-.97-.9,0-1.7,.55-2.04,1.39-.67,1.68-1.23,3.43-1.65,5.18-.64,2.66-.98,5.4-1.02,8.15,0,.47,.17,.92,.5,1.26,.33,.34,.77,.52,1.25,.52h5c.37,0,.68-.26,.74-.63l.67-4.03c.13-.78,.8-1.35,1.59-1.35s1.46,.57,1.59,1.35l.67,4.03c.06,.36,.37,.63,.74,.63h4.83c.52,0,1.01-.23,1.34-.62,.33-.39,.47-.9,.39-1.4Z"/></g></svg>