<?xml version="1.0" encoding="UTF-8"?><svg fill="currentColor" xmlns="http://www.w3.org/2000/svg" viewBox="0 0 24 24"><g id="u"><g><ellipse cx="15.02" cy="5" rx="2.77" ry="2.75"/><path d="M20.74,8c0-.41-.33-.75-.75-.75h0c-.41,0-.75,.33-.75,.75v3.25h-1.9c-.06,0-.11-.02-.16-.05l-3.7-2.96c-.43-.34-.98-.47-1.52-.33-.53,.13-.97,.5-1.18,1.01l-2.08,4.85c-.19,.44-.19,.92,0,1.36,.12,.3,.32,.54,.58,.73-.01,.05-.03,.09-.03,.15v1.7s-.01,.1-.04,.14l-1.83,2.75c-.23,.34-.14,.81,.21,1.04,.13,.09,.27,.13,.42,.13,.24,0,.48-.12,.62-.33l1.83-2.75c.19-.29,.29-.62,.29-.97v-1.18l2.3,.93c.1,.04,.16,.13,.16,.23v3.33c0,.41,.34,.75,.75,.75s.75-.34,.75-.75v-3.33c0-.67-.39-1.27-.99-1.56l1.78-4.36,.76,.61c.31,.25,.7,.38,1.09,.38h1.88l-.03,8.25c0,.41,.33,.75,.75,.75h0c.41,0,.75-.33,.75-.75l.03-8.93s.01-.04,.01-.07-.01-.04-.01-.07v-3.93Z"/><path d="M7.93,12.71l2.56-5.98c.26-.61,0-1.31-.59-1.61l-.29-.14c-1.06-.53-2.34-.32-3.17,.52l-2.35,2.35c-.56,.56-.85,1.34-.8,2.14,.06,.8,.45,1.53,1.09,2.01l1.65,1.23c.22,.17,.48,.25,.75,.25,.11,0,.22-.01,.33-.04,.37-.1,.67-.36,.83-.72Z"/></g></g></svg>