<?xml version="1.0" encoding="UTF-8"?><svg fill="currentColor" xmlns="http://www.w3.org/2000/svg" viewBox="0 0 24 24"><g id="k"><g><ellipse cx="5.99" cy="18" rx="2.75" ry="3.75"/><path d="M8.25,8.11c.05,.33,.02,.55-.02,.81-.05,.33-.11,.73,.04,1.28,.41,1.49,1.83,2.24,2.43,2.49,.26,.11,.95,.36,1.82,.36,.53,0,1.14-.09,1.76-.36,1.03-.44,1.83-1.24,2.38-2.36,1-2.05,.26-4.06,.01-4.63-.15-.34-.52-.52-.88-.42-.36,.09-.59,.43-.56,.8,.05,.47-.1,.85-.29,1.07,.05-.58-.06-1.1-.32-1.53-.22-.37-.5-.57-.7-.71-.16-.12-.24-.18-.3-.29-.21-.35-.08-.94,.07-1.36,.09-.26,.03-.56-.16-.76-.19-.2-.48-.29-.75-.21-1.13,.31-1.84,.84-2.12,1.57-.22,.57-.11,1.05-.01,1.49,.06,.28,.13,.55,.12,.88-.39-.42-.92-.79-1.62-.95-.43-.1-.87-.1-1.32,0-.26,.06-.47,.25-.56,.5-.08,.25-.03,.53,.15,.73,.46,.51,.73,1.06,.82,1.62Z"/><path d="M17.99,14.25H8.99c.78,.95,1.25,2.27,1.25,3.75s-.48,2.8-1.25,3.75h9c1.54,0,2.75-1.65,2.75-3.75s-1.21-3.75-2.75-3.75Z"/></g></g></svg>