<?xml version="1.0" encoding="UTF-8"?><svg fill="currentColor" xmlns="http://www.w3.org/2000/svg" viewBox="0 0 24 24"><g id="j"><g><path d="M8.12,7.82c-.71,.71-1.13,1.64-1.19,2.6l-.02,.33c-.03,.59-.3,1.18-.75,1.62l-2.73,2.72c-1.49,1.49-1.59,3.82-.23,5.19,.64,.64,1.5,.96,2.39,.96,.99,0,2.01-.4,2.8-1.19l2.72-2.72c.44-.44,1.04-.72,1.62-.75l.33-.02c.96-.05,1.89-.47,2.6-1.19l.02-.02-7.56-7.56-.02,.02Zm1.23,6.33c.29,.29,.29,.77,0,1.06l-1.45,1.45c-.15,.15-.34,.22-.53,.22s-.38-.07-.53-.22c-.29-.29-.29-.77,0-1.06l1.45-1.45c.29-.29,.77-.29,1.06,0Z"/><path d="M12.55,5.74c-.32-.32-.78-.5-1.24-.47-.44,.02-.87,.22-1.19,.54l-.92,.92,7.56,7.56,.92-.92c.35-.34,.54-.81,.54-1.29,0-.44-.17-.85-.47-1.15l-5.2-5.2Z"/><path d="M16.87,7.63c.19,0,.38-.07,.53-.22l1.41-1.41c.29-.29,.29-.77,0-1.06s-.77-.29-1.06,0l-1.41,1.41c-.29,.29-.29,.77,0,1.06,.15,.15,.34,.22,.53,.22Z"/><path d="M20.99,8.25h-2c-.41,0-.75,.34-.75,.75s.34,.75,.75,.75h2c.41,0,.75-.34,.75-.75s-.34-.75-.75-.75Z"/><path d="M14.99,5.75c.41,0,.75-.34,.75-.75V3c0-.41-.34-.75-.75-.75s-.75,.34-.75,.75v2c0,.41,.34,.75,.75,.75Z"/></g></g></svg>