<?xml version="1.0" encoding="UTF-8"?><svg fill="currentColor" xmlns="http://www.w3.org/2000/svg" viewBox="0 0 24 24"><g id="o"><g><path d="M11.38,13.72c-.12-.4-.53-.63-.93-.51l-4.8,1.4c-.19,.06-.35,.19-.45,.36-.1,.17-.12,.38-.06,.57l.25,.85c.36,1.25,1.51,2.06,2.75,2.06,.27,0,.53-.04,.8-.12l.74-.22h0c1.51-.44,2.39-2.04,1.94-3.55l-.25-.85Z"/><path d="M10.56,10.96c-.24-2.01-.81-3.94-1.68-5.73-.29-.59-.61-1.17-.96-1.73-.64-1.02-1.94-1.48-3.16-1.12h-.03c-.96,.29-1.69,.99-1.95,1.9-.27,.91-.42,1.84-.43,2.77-.05,2.63,.91,4.67,1.73,5.92,.14,.22,.38,.34,.63,.34,.07,0,.14,0,.21-.03l5.11-1.5c.35-.1,.58-.45,.53-.81Z"/><path d="M18.36,17.98l-4.76-1.54c-.19-.06-.4-.04-.57,.05-.18,.09-.31,.25-.37,.44l-.27,.84c-.23,.73-.17,1.5,.18,2.18,.35,.68,.94,1.18,1.67,1.42l.74,.24c.29,.09,.59,.14,.88,.14,1.21,0,2.33-.77,2.73-1.98l.27-.84c.13-.39-.09-.82-.48-.94Z"/><path d="M21.51,7.71c-.24-.91-.95-1.64-1.9-1.94h-.03c-1.21-.4-2.52,.03-3.19,1.03-.37,.55-.71,1.12-1.01,1.71-.92,1.77-1.54,3.69-1.83,5.69-.05,.36,.16,.71,.51,.82l5.07,1.64c.08,.02,.15,.04,.23,.04,.24,0,.47-.12,.62-.32,.85-1.23,1.88-3.24,1.89-5.87,0-.93-.11-1.86-.36-2.78Z"/></g></g></svg>