<?xml version="1.0" encoding="UTF-8"?><svg fill="currentColor" xmlns="http://www.w3.org/2000/svg" viewBox="0 0 24 24"><g id="i"><g><path d="M11.99,12.75c3.12,0,5.38-1.35,6.45-2.15,.26-.19,.36-.53,.26-.84l-1.6-4.79c-.34-1.03-1.3-1.72-2.38-1.72-.67,0-1.3,.26-1.78,.74l-.78,.78c-.1,.1-.26,.1-.35,0l-.78-.78c-.47-.47-1.11-.74-1.78-.74-1.08,0-2.04,.69-2.38,1.72l-1.6,4.79c-.1,.31,0,.64,.26,.84,2.49,1.87,5.11,2.15,6.45,2.15Z"/><path d="M21.74,12.5c0-.83-.67-1.44-1.59-1.89-.13,.47-.41,.89-.81,1.19-1.22,.92-3.8,2.45-7.35,2.45-1.52,0-4.51-.32-7.35-2.45-.41-.3-.68-.73-.81-1.19-.92,.45-1.59,1.06-1.59,1.89,0,1.29,1.69,2.17,4.02,2.69l.21,1.04c.52,2.62,2.85,4.52,5.52,4.52s5-1.9,5.52-4.52l.21-1.04c2.33-.52,4.02-1.4,4.02-2.69Zm-5.7,3.43c-.38,1.92-2.09,3.32-4.05,3.32s-3.66-1.4-4.05-3.32l-.09-.46c1.32,.19,2.74,.28,4.14,.28s2.82-.09,4.14-.28l-.09,.46Z"/></g></g></svg>