<?xml version="1.0" encoding="UTF-8"?><svg fill="currentColor" xmlns="http://www.w3.org/2000/svg" viewBox="0 0 24 24"><g id="n"><g><circle cx="10.49" cy="5.5" r="3.25"/><path d="M20.99,16.25h-2.25v-5.94l2.78-2.78c.16-.16,.24-.38,.22-.6-.02-.22-.14-.43-.33-.55l-3-2c-.23-.15-.53-.17-.77-.04-.24,.13-.4,.38-.4,.66v6.25h-1.42c-.33,0-.65-.13-.88-.37l-1.12-1.12c-.33-.33-.77-.51-1.24-.51h-3.59c-.96,0-1.75,.79-1.75,1.75v9.25H2.99c-.41,0-.75,.34-.75,.75s.34,.75,.75,.75h7.38c.67,0,1.27-.37,1.57-.97l.45-.89c.04-.08,.13-.14,.22-.14h2.76c.67,0,1.27-.37,1.57-.97l.45-.89c.04-.08,.13-.14,.22-.14h3.38c.41,0,.75-.34,.75-.75s-.34-.75-.75-.75Zm-9.95,2.97l-.45,.89c-.04,.08-.13,.14-.22,.14h-1.63v-3.5h4.25c.14,0,.25,.11,.25,.25v1.25h-.63c-.67,0-1.27,.37-1.57,.97Zm5-2l-.45,.89c-.04,.08-.13,.14-.22,.14h-.63v-1.25c0-.96-.79-1.75-1.75-1.75h-.11l.62-3.69,.38,.38c.51,.51,1.22,.8,1.94,.8h1.42v3.55c-.51,.11-.96,.43-1.2,.92Z"/><path d="M3.99,15.75h1.5c.69,0,1.25-.56,1.25-1.25v-4.23c0-.42-.21-.81-.56-1.04l-1.22-.81c-.54-.36-1.23-.39-1.8-.09-.57,.31-.92,.9-.92,1.54v4.13c0,.96,.79,1.75,1.75,1.75Z"/></g></g></svg>