<?xml version="1.0" encoding="UTF-8"?><svg fill="currentColor" xmlns="http://www.w3.org/2000/svg" viewBox="0 0 24 24"><g id="b"><g><path d="M17.99,13.25H5.99c-2.07,0-3.75,1.68-3.75,3.75s1.68,3.75,3.75,3.75h12c2.07,0,3.75-1.68,3.75-3.75s-1.68-3.75-3.75-3.75Zm-5,4.5H6.99c-.41,0-.75-.34-.75-.75s.34-.75,.75-.75h6c.41,0,.75,.34,.75,.75s-.34,.75-.75,.75Zm4,0h-1c-.41,0-.75-.34-.75-.75s.34-.75,.75-.75h1c.41,0,.75,.34,.75,.75s-.34,.75-.75,.75Z"/><path d="M8.73,11.75h8.38L6.4,2.43c-.31-.27-.79-.24-1.06,.07-1.72,1.98-1.51,4.98,.46,6.7l2.92,2.54Z"/></g></g></svg>