<?xml version="1.0" encoding="UTF-8"?><svg fill="currentColor" xmlns="http://www.w3.org/2000/svg" viewBox="0 0 24 24"><g id="h"><g><path d="M17.99,20.25h-1.25v-1.25c0-.96-.79-1.75-1.75-1.75h-6c-.96,0-1.75,.79-1.75,1.75v1.25h-1.25c-.41,0-.75,.34-.75,.75s.34,.75,.75,.75h12c.41,0,.75-.34,.75-.75s-.34-.75-.75-.75Z"/><path d="M6.99,7.75h.25v1.25c0,.96,.79,1.75,1.75,1.75h6c.96,0,1.75-.79,1.75-1.75v-1.25h.25c.41,0,.75-.34,.75-.75s-.34-.75-.75-.75h-.41l-.67-2.67c-.2-.78-.89-1.33-1.7-1.33-.41,0-.75,.34-.75,.75s.34,.75,.75,.75c.12,0,.21,.08,.24,.19l.58,2.31h-6.08l.58-2.31c.03-.11,.13-.19,.24-.19,.41,0,.75-.34,.75-.75s-.34-.75-.75-.75c-.8,0-1.5,.54-1.7,1.33l-.67,2.67h-.41c-.41,0-.75,.34-.75,.75s.34,.75,.75,.75Z"/><path d="M8.99,12.25c-.26,0-.51-.04-.75-.1v3.69c.24-.06,.49-.1,.75-.1h6c.26,0,.51,.04,.75,.1v-3.69c-.24,.06-.49,.1-.75,.1h-6Z"/></g></g></svg>