<?xml version="1.0" encoding="UTF-8"?><svg fill="currentColor" xmlns="http://www.w3.org/2000/svg" viewBox="0 0 24 24"><g id="t"><g><path d="M11.39,10.25c-.53-.79-1.41-1.26-2.37-1.22-.95,.03-1.81,.54-2.29,1.36l-4.51,7.73c-.32,.55-.32,1.2,0,1.75s.88,.88,1.52,.88H15.12c.65,0,1.24-.35,1.54-.92,.3-.57,.27-1.26-.09-1.8l-5.19-7.78Z"/><circle cx="18.49" cy="6.5" r="3.25"/><path d="M21.58,18.03l-3.14-4.72c-.54-.8-1.42-1.25-2.4-1.22-.49,.02-.94,.16-1.34,.41l3.13,4.7c.67,1,.73,2.28,.16,3.34-.04,.08-.09,.15-.14,.22h2.27c.65,0,1.24-.35,1.54-.92,.3-.57,.27-1.26-.09-1.8Z"/></g></g></svg>