<?xml version="1.0" encoding="UTF-8"?><svg fill="currentColor" xmlns="http://www.w3.org/2000/svg" viewBox="0 0 24 24"><g id="q"><g><path d="M20.52,3.47c-1.11-1.11-2.66-1.62-4.36-1.46-1.65,.16-3.26,.95-4.54,2.23-.29,.29-.29,.77,0,1.06l2.12,2.12c.14,.14,.33,.22,.53,.22s.39-.08,.53-.22c.64-.65,1.59-.79,2.08-.31,.48,.48,.34,1.43-.31,2.08-.14,.14-.22,.33-.22,.53s.08,.39,.22,.53l2.12,2.12c.14,.14,.33,.22,.53,.22s.39-.08,.53-.22c2.67-2.67,3.01-6.66,.77-8.9Z"/><path d="M15.29,17.18l-.71-.71-2.12-2.12-5.66-5.66c-.29-.29-.77-.29-1.06,0s-.29,.77,0,1.06l.18,.18-1.19,1.19c-2.67,2.67-3.01,6.66-.77,8.9,.97,.97,2.28,1.49,3.74,1.49,.21,0,.42-.01,.63-.03,1.65-.16,3.26-.95,4.54-2.23l1.19-1.19,.18,.18c.15,.15,.34,.22,.53,.22s.38-.07,.53-.22c.29-.29,.29-.77,0-1.06Zm-5.61-1.11c-.65,.64-1.6,.79-2.08,.31-.48-.48-.34-1.43,.31-2.08l1.19-1.19,1.77,1.77-1.19,1.19Z"/><path d="M8.68,5.41c-.29-.29-.77-.29-1.06,0s-.29,.77,0,1.06l8.59,8.59c.59,.59,.71,1.55,.31,2.51l-1.19,2.84c-.16,.38,.02,.82,.4,.98,.09,.04,.19,.06,.29,.06,.29,0,.57-.17,.69-.46l1.19-2.84c.63-1.51,.38-3.13-.63-4.15L8.68,5.41Z"/></g></g></svg>