<?xml version="1.0" encoding="UTF-8"?><svg fill="currentColor" xmlns="http://www.w3.org/2000/svg" viewBox="0 0 24 24"><g id="d"><path d="M21.52,19.73L11.74,9.95l.88-.88h0l.71-.71c.29-.29,.29-.77,0-1.06s-.77-.29-1.06,0l-.18,.18-3.71-3.71c-.66-.66-1.81-.66-2.47,0l-1.41,1.41c-.3,.3-.46,.68-.5,1.07-.62,.42-1.19,1.2-1.53,2.15-.65,1.8-.32,3.39,.79,3.79,.16,.06,.32,.08,.49,.08,.97,0,1.98-.96,2.53-2.5,.03-.09,.04-.18,.07-.26l1.86,1.86-.18,.18c-.29,.29-.29,.77,0,1.06,.15,.15,.34,.22,.53,.22s.38-.07,.53-.22l.71-.71h0l.88-.88,9.78,9.78c.15,.15,.34,.22,.53,.22s.38-.07,.53-.22c.29-.29,.29-.77,0-1.06ZM4.87,9.26c-.38,1.04-.96,1.5-1.08,1.52-.13-.11-.29-.84,.09-1.88,.19-.52,.45-.92,.69-1.18l.51,.51c-.02,.33-.08,.67-.21,1.03Z"/></g></svg>