<?xml version="1.0" encoding="UTF-8"?><svg fill="currentColor" xmlns="http://www.w3.org/2000/svg" viewBox="0 0 24 24"><g id="g"><path d="M21.73,19.96c0-.05-.02-.1-.03-.15-.01-.05-.02-.1-.04-.14,0,0,0-.02,0-.02l-2.72-5.45c-.3-.6-.9-.97-1.57-.97h-4.76c-.67,0-1.27,.37-1.57,.97l-2.52,5.03h-1.79v-4.32c.29,.29,.59,.52,.82,.69,.13,.09,.28,.13,.43,.13,.24,0,.47-.11,.62-.32,.24-.34,.15-.81-.19-1.04-.44-.31-1.49-1.16-1.68-2.45v-1.39c.82,.69,1.71,1.06,1.99,1.17,.08,.03,.17,.04,.26,.04,.31,0,.59-.19,.71-.49,.14-.39-.06-.82-.45-.96-.23-.08-2.21-.85-2.51-2.39v-.97c.29,.29,.59,.52,.82,.69,.13,.09,.28,.13,.43,.13,.24,0,.47-.11,.62-.32,.24-.34,.15-.81-.19-1.04-.45-.31-1.51-1.17-1.68-2.49,0-.02-.01-.03-.02-.05,0-.03-.02-.06-.03-.1-.01-.03-.03-.06-.04-.1-.01-.03-.03-.05-.04-.08-.02-.03-.04-.05-.06-.07-.02-.03-.05-.05-.07-.07-.02-.02-.04-.04-.07-.05-.03-.02-.05-.03-.08-.05-.03-.02-.06-.03-.09-.04-.03-.01-.07-.02-.1-.03-.01,0-.03-.01-.04-.01-.02,0-.03,0-.05,0-.02,0-.03,0-.05,0s-.03,0-.05,0c-.02,0-.03,0-.05,0-.01,0-.03,.01-.04,.01-.04,0-.07,.02-.11,.03-.03,.01-.06,.02-.09,.04-.03,.01-.05,.03-.08,.04-.03,.02-.05,.04-.08,.06-.03,.02-.05,.04-.07,.07-.02,.02-.04,.05-.06,.07-.02,.03-.03,.05-.05,.08-.02,.03-.03,.06-.04,.09-.01,.03-.02,.06-.03,.1,0,.02-.01,.03-.02,.05-.18,1.31-1.24,2.17-1.68,2.49-.34,.24-.42,.7-.19,1.04,.15,.21,.38,.32,.62,.32,.15,0,.3-.04,.43-.13,.24-.16,.53-.4,.82-.69v.97c-.3,1.54-2.28,2.31-2.51,2.39-.39,.14-.59,.57-.45,.96,.11,.3,.4,.49,.71,.49,.08,0,.17-.01,.26-.04,.28-.1,1.17-.47,1.99-1.17v1.39c-.19,1.29-1.23,2.15-1.68,2.45-.34,.24-.42,.7-.19,1.04,.15,.21,.38,.32,.62,.32,.15,0,.3-.04,.43-.13,.24-.16,.53-.4,.82-.69v4.32H2.98c-.41,0-.75,.34-.75,.75s.34,.75,.75,.75H15.23v-2.75c0-.41,.34-.75,.75-.75s.75,.34,.75,.75v2.75h4.26c.1,0,.21-.03,.31-.07,0,0,.01,0,.02,0,.03-.02,.05-.05,.08-.07,.04-.03,.09-.06,.13-.1,.03-.04,.05-.08,.08-.12,.02-.04,.05-.08,.07-.12,.02-.05,.02-.11,.03-.16,0-.04,.02-.07,.02-.1,0,0,0-.01,0-.02Z"/></g></svg>