<?xml version="1.0" encoding="UTF-8"?><svg fill="currentColor" xmlns="http://www.w3.org/2000/svg" viewBox="0 0 24 24"><g id="e"><g><circle cx="11.99" cy="15" r="1.25"/><path d="M19.73,9.22c-.52-.62-1.29-.97-2.1-.97h-1.89v-1.5h.25c.96,0,1.75-.79,1.75-1.75v-1c0-.96-.79-1.75-1.75-1.75H7.99c-.96,0-1.75,.79-1.75,1.75v1c0,.96,.79,1.75,1.75,1.75h.25v1.5h-1.89c-.81,0-1.57,.35-2.1,.97-.52,.62-.75,1.43-.61,2.23l1.33,8c.22,1.33,1.36,2.3,2.71,2.3h8.61c1.35,0,2.49-.97,2.71-2.3l1.33-8c.13-.8-.09-1.61-.61-2.23Zm-9.99-2.47h4.5v1.5h-4.5v-1.5Zm2.25,11c-1.52,0-2.75-1.23-2.75-2.75s1.23-2.75,2.75-2.75,2.75,1.23,2.75,2.75-1.23,2.75-2.75,2.75Z"/></g></g></svg>