<?xml version="1.0" encoding="UTF-8"?><svg fill="currentColor" xmlns="http://www.w3.org/2000/svg" viewBox="0 0 24 24"><g id="s"><g><rect x="9.75" y="14.75" width="4.5" height="4"/><rect x="9.75" y="9.25" width="4.5" height="4"/><path d="M20,9.25h-4.25v4h4.6l.39-3.16c.03-.21-.04-.43-.18-.59-.14-.16-.35-.25-.56-.25Z"/><path d="M15.75,18.75h1.48c1.38,0,2.56-1.04,2.73-2.41l.2-1.59h-4.41v4Z"/><path d="M4.04,16.34c.17,1.37,1.34,2.41,2.73,2.41h1.48v-4H3.84l.2,1.59Z"/><path d="M3.44,9.5c-.14,.16-.21,.38-.18,.59l.39,3.16h4.6v-4H4c-.22,0-.42,.09-.56,.25Z"/><path d="M20.5,6.25H3.5c-.69,0-1.25,.56-1.25,1.25v1.1s.04-.06,.06-.09c.43-.49,1.04-.76,1.69-.76H20c.64,0,1.26,.28,1.69,.76,.02,.03,.04,.06,.06,.09v-1.1c0-.69-.56-1.25-1.25-1.25Z"/></g></g></svg>