<?xml version="1.0" encoding="UTF-8"?><svg fill="currentColor" xmlns="http://www.w3.org/2000/svg" viewBox="0 0 24 24"><g id="j"><path d="M19.55,9.49c-.14-.16-.34-.24-.55-.24h-.3c-.22-1.97-1.29-3.74-2.95-4.86v-.89c0-.69-.56-1.25-1.25-1.25h-5c-.69,0-1.25,.56-1.25,1.25v.89c-1.67,1.12-2.73,2.9-2.95,4.86h-.3c-.21,0-.41,.09-.55,.24s-.21,.36-.19,.57l.83,9.18c.13,1.43,1.31,2.5,2.74,2.5h8.35c1.43,0,2.61-1.08,2.74-2.5l.83-9.18c.02-.21-.05-.42-.19-.57Zm-12.75-.24c.17-1.2,.75-2.29,1.64-3.11,.22,.36,.6,.61,1.05,.61h5c.45,0,.83-.25,1.05-.61,.89,.82,1.47,1.91,1.64,3.11H6.81Z"/></g></svg>