<?xml version="1.0" encoding="UTF-8"?><svg fill="currentColor" xmlns="http://www.w3.org/2000/svg" viewBox="0 0 24 24"><g id="h"><g><rect x="10.75" y="11.75" width="2.5" height="4.5" rx=".25" ry=".25"/><path d="M15.68,7.5l-6.34-3.17c-.34-.17-.75-.06-.96,.25l-1.16,1.74c-.63,.95-.97,2.05-.97,3.19v9.49c0,1.52,1.23,2.75,2.75,2.75h6c1.52,0,2.75-1.23,2.75-2.75V10.85c0-1.43-.79-2.72-2.07-3.35Zm-.93,8.5c0,.96-.79,1.75-1.75,1.75h-2c-.96,0-1.75-.79-1.75-1.75v-4c0-.96,.79-1.75,1.75-1.75h2c.96,0,1.75,.79,1.75,1.75v4Z"/><path d="M13.75,4.86v-.24c0-.67-.37-1.27-.97-1.57l-.8-.4c-.67-.34-1.48-.21-2.01,.32,.01,0,.03,0,.04,.02l3.74,1.87Z"/></g></g></svg>