<?xml version="1.0" encoding="UTF-8"?><svg fill="currentColor" xmlns="http://www.w3.org/2000/svg" viewBox="0 0 24 24"><g id="b"><g><path d="M10,15.75h-3c-.14,0-.25,.11-.25,.25v4.75h3.5v-4.75c0-.14-.11-.25-.25-.25Z"/><path d="M11.23,11.25h-.48V6.5c0-1.24-1.01-2.25-2.25-2.25s-2.25,1.01-2.25,2.25v4.75h-.48c-1.38,0-2.56,1.04-2.73,2.41l-.78,6.25c-.03,.21,.04,.43,.18,.59s.35,.25,.56,.25h2.25v-4.75c0-.96,.79-1.75,1.75-1.75h3c.96,0,1.75,.79,1.75,1.75v4.75h2.25c.21,0,.42-.09,.56-.25s.21-.38,.18-.59l-.78-6.25c-.17-1.37-1.34-2.41-2.73-2.41Z"/><path d="M19,6.25h2.75v-1.25c0-.41-.34-.75-.75-.75h-3c-1.52,0-2.75,1.23-2.75,2.75v12c0,.96,.79,1.75,1.75,1.75s1.75-.79,1.75-1.75v-6c0-.14,.11-.25,.25-.25h2c.41,0,.75-.34,.75-.75v-1.25h-2.75c-.41,0-.75-.34-.75-.75s.34-.75,.75-.75h2.75v-1.5h-2.75c-.41,0-.75-.34-.75-.75s.34-.75,.75-.75Z"/></g></g></svg>