<?xml version="1.0" encoding="UTF-8"?><svg fill="currentColor" xmlns="http://www.w3.org/2000/svg" viewBox="0 0 24 24"><g id="p"><g><path d="M20.73,3.41c-1.23-1.23-3.37-1.23-4.6,0l-.71,.71c-1.27,1.27-1.27,3.33,0,4.6,.63,.63,1.47,.95,2.3,.95s1.66-.32,2.3-.95l.71-.71c.61-.61,.95-1.43,.95-2.3s-.34-1.68-.95-2.3Z"/><path d="M4.12,15.43l-.71,.71c-.61,.61-.95,1.43-.95,2.3s.34,1.68,.95,2.3c.61,.61,1.43,.95,2.3,.95s1.68-.34,2.3-.95l.71-.71c1.27-1.27,1.27-3.33,0-4.6-1.27-1.27-3.33-1.27-4.6,0Z"/><path d="M13.2,7.76l-5.43,5.43c.75,.22,1.44,.61,2.01,1.17s.95,1.26,1.17,2.01l5.43-5.43c-.75-.22-1.44-.61-2.01-1.17s-.95-1.26-1.17-2.01Z"/></g></g></svg>