<?xml version="1.0" encoding="UTF-8"?><svg fill="currentColor" xmlns="http://www.w3.org/2000/svg" viewBox="0 0 24 24"><g id="o"><g><path d="M17.75,4c0-.96-.79-1.75-1.75-1.75h-7c-.96,0-1.75,.79-1.75,1.75v7.25h10.5V4Zm-7.75,3.75c-.19,0-.38-.07-.53-.22-.29-.29-.29-.77,0-1.06l1-1c.29-.29,.77-.29,1.06,0s.29,.77,0,1.06l-1,1c-.15,.15-.34,.22-.53,.22Zm4.53-1.22l-2,2c-.15,.15-.34,.22-.53,.22s-.38-.07-.53-.22c-.29-.29-.29-.77,0-1.06l2-2c.29-.29,.77-.29,1.06,0s.29,.77,0,1.06Z"/><path d="M5.25,12.75v.75c0,.69,.56,1.25,1.25,1.25h12c.69,0,1.25-.56,1.25-1.25v-.75H5.25Z"/><path d="M6.5,16.25c-.08,0-.15-.02-.23-.02,.12,1.41,1.29,2.52,2.73,2.52h1.25v.75c0,1.24,1.01,2.25,2.25,2.25s2.25-1.01,2.25-2.25v-.75h1.25c1.44,0,2.61-1.11,2.73-2.52-.08,0-.15,.02-.23,.02H6.5Z"/></g></g></svg>