<?xml version="1.0" encoding="UTF-8"?><svg fill="currentColor" xmlns="http://www.w3.org/2000/svg" viewBox="0 0 24 24"><g id="n"><g><rect x="7.25" y="10.25" width="9.5" height="6.5" rx=".75" ry=".75"/><path d="M16,18.25H8c-1.11,0-2.03-.81-2.21-1.87-.33,.46-.54,1.01-.54,1.62v1c0,1.52,1.23,2.75,2.75,2.75h8c1.52,0,2.75-1.23,2.75-2.75v-1c0-.61-.2-1.16-.54-1.62-.18,1.06-1.1,1.87-2.21,1.87Z"/><path d="M16,5.25H8c-1.52,0-2.75,1.23-2.75,2.75v1c0,.61,.2,1.16,.54,1.62,.18-1.06,1.1-1.87,2.21-1.87h8c1.11,0,2.03,.81,2.21,1.87,.33-.46,.54-1.01,.54-1.62v-1c0-1.52-1.23-2.75-2.75-2.75Z"/><path d="M13,2.25h-2c-.88,0-1.6,.65-1.72,1.5h5.45c-.12-.85-.85-1.5-1.72-1.5Z"/></g></g></svg>