<?xml version="1.0" encoding="UTF-8"?><svg fill="currentColor" xmlns="http://www.w3.org/2000/svg" viewBox="0 0 24 24"><g id="r"><g><path d="M19.93,16.07l-6.69-5.95c-.37-.33-.86-.48-1.34-.43-.49,.05-.93,.31-1.23,.7l-1.08,1.46c-.29,.4-.4,.9-.31,1.38,.1,.48,.39,.9,.81,1.16l7.65,4.64c.3,.18,.63,.27,.96,.27,.57,0,1.12-.26,1.48-.75,.57-.77,.46-1.84-.26-2.47Z"/><path d="M10.06,6.25c1.64,.12,2.93-.5,3.55-.89,.04-.02,.08-.04,.12-.06l.74-.3-.75-2.25c-.08-.25-.28-.43-.54-.49-.25-.06-.52,.01-.7,.19-.25,.25-.8,.68-1.58,.79-1.27,.17-2.21-.64-2.38-.8-.19-.18-.45-.24-.7-.18-.25,.06-.45,.25-.53,.49l-.73,2.18,.77,.39c.63,.39,1.54,.83,2.72,.92Z"/><path d="M7.81,13.52c-.18-.9,.03-1.83,.57-2.56l1.08-1.46c.54-.73,1.37-1.21,2.28-1.3,.11-.01,.22-.02,.33-.02,.8,0,1.57,.29,2.17,.82l.3,.27,.18-2.75-.38,.15c-.72,.44-2.09,1.1-3.85,1.1-.18,0-.36,0-.54-.02-1.18-.09-2.33-.48-3.34-1.11l-.32-.16,.85,12.71c.09,1.44,1.3,2.57,2.74,2.57h1.26c1.44,0,2.65-1.13,2.74-2.57l.05-.72-4.61-2.8c-.78-.47-1.32-1.25-1.5-2.15Zm2.7,3.73h0c.42,0,.75,.34,.75,.75s-.33,.75-.75,.75-.75-.34-.75-.75,.33-.75,.75-.75Z"/></g></g></svg>