<?xml version="1.0" encoding="UTF-8"?><svg fill="currentColor" xmlns="http://www.w3.org/2000/svg" viewBox="0 0 24 24"><g id="m"><g><path d="M5.26,9.11c.05,.37,.37,.64,.74,.64h0c.37,0,.69-.27,.74-.64,.05-.34,.22-1,.79-1.58,.24-.25,.77-.67,1.58-.79,.37-.05,.64-.37,.64-.74s-.27-.69-.64-.74c-.34-.05-1-.22-1.58-.79-.25-.25-.67-.78-.79-1.58-.05-.37-.37-.64-.74-.64h0c-.37,0-.69,.27-.74,.64-.05,.34-.22,1-.79,1.58-.24,.25-.77,.67-1.58,.79-.37,.05-.64,.37-.64,.74s.27,.69,.64,.74c.34,.05,1,.22,1.58,.79,.25,.25,.67,.78,.79,1.58Z"/><circle cx="12.5" cy="12.5" r="4.92"/><path d="M12.5,3.25c-1.09,0-2.12,.2-3.09,.54,1.06,.19,1.84,1.12,1.84,2.21,0,.07-.01,.14-.02,.21,.41-.08,.83-.13,1.27-.13,3.54,0,6.42,2.88,6.42,6.42s-2.88,6.42-6.42,6.42-6.42-2.88-6.42-6.42c0-.43,.04-.86,.13-1.27-.07,0-.14,.02-.21,.02h0c-1.08,0-2.01-.79-2.21-1.84-.35,.97-.54,2.01-.54,3.09,0,5.1,4.15,9.25,9.25,9.25s9.25-4.15,9.25-9.25S17.6,3.25,12.5,3.25Z"/></g></g></svg>