<?xml version="1.0" encoding="UTF-8"?><svg fill="currentColor" xmlns="http://www.w3.org/2000/svg" viewBox="0 0 24 24"><g id="e"><g><path d="M8.25,10.75v1.25c0,.96,.79,1.75,1.75,1.75h10c.96,0,1.75-.79,1.75-1.75v-1.25H8.25Z"/><path d="M14.25,5v1.25h-2.18c-.92,0-1.78,.46-2.29,1.22l-1.07,1.6c-.04,.05-.06,.11-.1,.17h12.77c-.03-.06-.06-.12-.1-.17l-1.07-1.61c-.51-.77-1.37-1.22-2.29-1.22h-2.18v-1.25c0-1.52-1.23-2.75-2.75-2.75H7c-1.52,0-2.75,1.23-2.75,2.75V21c0,.41,.34,.75,.75,.75s.75-.34,.75-.75V5c0-.69,.56-1.25,1.25-1.25h6c.69,0,1.25,.56,1.25,1.25Z"/><path d="M11,15.25c-.41,0-.75,.34-.75,.75v1c0,.41,.34,.75,.75,.75s.75-.34,.75-.75v-1c0-.41-.34-.75-.75-.75Z"/><path d="M19,15.25c-.41,0-.75,.34-.75,.75v1c0,.41,.34,.75,.75,.75s.75-.34,.75-.75v-1c0-.41-.34-.75-.75-.75Z"/><path d="M15,15.25c-.41,0-.75,.34-.75,.75v1c0,.41,.34,.75,.75,.75s.75-.34,.75-.75v-1c0-.41-.34-.75-.75-.75Z"/><path d="M13,18.25c-.41,0-.75,.34-.75,.75v1c0,.41,.34,.75,.75,.75s.75-.34,.75-.75v-1c0-.41-.34-.75-.75-.75Z"/><path d="M17,18.25c-.41,0-.75,.34-.75,.75v1c0,.41,.34,.75,.75,.75s.75-.34,.75-.75v-1c0-.41-.34-.75-.75-.75Z"/></g></g></svg>