<?xml version="1.0" encoding="UTF-8"?><svg fill="currentColor" xmlns="http://www.w3.org/2000/svg" viewBox="0 0 24 24"><g id="u"><g><path d="M20.65,6.27c-.11-.11-.23-.21-.35-.31-.87-.67-2.09-.87-3.27-.52-3.3,.98-6.85,.97-10.15-.03-.97-.29-1.98-.2-2.76,.26-1.15,.67-1.87,1.91-1.87,3.24v3c0,1,.39,1.94,1.1,2.65,.11,.11,.23,.21,.35,.31,.87,.68,2.09,.87,3.27,.52,3.3-.98,6.85-.97,10.15,.03,.37,.11,.74,.17,1.11,.17,.59,0,1.17-.14,1.65-.43,1.15-.67,1.87-1.91,1.87-3.24v-3c0-1-.39-1.94-1.1-2.65ZM6.02,10.75c-.41,0-.75-.34-.75-.75s.33-.75,.74-.75h.01c.41,0,.75,.34,.75,.75s-.34,.75-.75,.75Zm2,2c-.41,0-.75-.34-.75-.75s.33-.75,.74-.75h.01c.41,0,.75,.34,.75,.75s-.34,.75-.75,.75Zm4-2c-.41,0-.75-.34-.75-.75s.33-.75,.74-.75h.01c.41,0,.75,.34,.75,.75s-.34,.75-.75,.75Zm4,2c-.41,0-.75-.34-.75-.75s.33-.75,.74-.75h.01c.41,0,.75,.34,.75,.75s-.34,.75-.75,.75Zm1-3c-.41,0-.75-.34-.75-.75s.33-.75,.74-.75h.01c.41,0,.75,.34,.75,.75s-.34,.75-.75,.75Z"/><path d="M18.23,17.09c-.52,0-1.04-.08-1.54-.23-1.52-.46-3.09-.69-4.69-.69s-3.12,.22-4.61,.66c-.52,.15-1.05,.23-1.58,.23-1.12,0-2.2-.36-3.04-1.01-.17-.13-.33-.27-.49-.43-.01-.01-.02-.03-.04-.05v.41c0,1,.39,1.94,1.1,2.65,.11,.11,.23,.21,.35,.31,.87,.68,2.09,.87,3.27,.52,3.3-.98,6.85-.97,10.15,.03,.37,.11,.74,.17,1.11,.17,.59,0,1.17-.14,1.65-.43,1.15-.67,1.87-1.91,1.87-3.24v-.41c-.33,.33-.7,.63-1.11,.87-.71,.41-1.54,.63-2.41,.63Z"/></g></g></svg>