<?xml version="1.0" encoding="UTF-8"?><svg fill="currentColor" xmlns="http://www.w3.org/2000/svg" viewBox="0 0 24 24"><g id="g"><g><path d="M9,2.25H5c-.96,0-1.75,.79-1.75,1.75v2c0,.7,.41,1.29,1,1.57v2.43c0,.41,.34,.75,.75,.75h4c.41,0,.75-.34,.75-.75v-2.43c.59-.28,1-.88,1-1.57v-2c0-.96-.79-1.75-1.75-1.75Z"/><path d="M17,11.25h-4.75v4.5h3.75c.14,0,.25,.11,.25,.25v1c0,.41,.34,.75,.75,.75h3c.41,0,.75-.34,.75-.75v-2c0-2.07-1.68-3.75-3.75-3.75Z"/><path d="M12.15,6.75h2.85c.96,0,1.75-.79,1.75-1.75s-.79-1.75-1.75-1.75h-2.85c.06,.24,.1,.49,.1,.75v2c0,.26-.04,.51-.1,.75Z"/><path d="M9,12.25H5c-.71,0-1.34-.34-1.75-.85v9.6c0,.41,.34,.75,.75,.75h6c.41,0,.75-.34,.75-.75V11.4c-.41,.52-1.04,.85-1.75,.85Z"/></g></g></svg>