<?xml version="1.0" encoding="UTF-8"?><svg fill="currentColor" xmlns="http://www.w3.org/2000/svg" viewBox="0 0 24 24"><g id="t"><path d="M21.01,6.26h-1s-.02,0-.04,0c-.07-.22-.16-.43-.28-.63l.57-.56c.3-.29,.3-.77,0-1.06-.29-.29-.76-.3-1.06,0l-.57,.56c-.29-.19-.6-.32-.93-.39,.01-.05,.03-.11,.04-.17v-1c.02-.41-.31-.75-.73-.76h0c-.41,0-.74,.33-.75,.74v1c-.01,.09,0,.17,.03,.25-.24,.07-.47,.16-.68,.3l-.56-.57c-.29-.29-.76-.3-1.06,0-.3,.29-.3,.77,0,1.06l.51,.52-.51,.5-.51-.52c-.29-.29-.76-.3-1.06,0-.3,.29-.3,.77,0,1.06l.51,.52-.51,.5-.51-.52c-.29-.3-.76-.3-1.06,0-.3,.29-.3,.77,0,1.06l.51,.52-.08,.07c-.26,.26-.41,.6-.41,.96,0,.37,.14,.71,.39,.97l.59,.6-2.7,2.63-.51-.52c-.14-.14-.33-.22-.53-.22-.2-.02-.39,.08-.53,.22l-4.64,4.59c-.88,.86-.89,2.27-.03,3.15,.44,.44,1.01,.66,1.59,.66s1.13-.21,1.56-.64l4.64-4.59c.29-.29,.3-.76,0-1.06l-.51-.52,2.7-2.63,.59,.6c.26,.26,.6,.41,.96,.41h.01c.36,0,.7-.14,.96-.39l.08-.07,.51,.52c.15,.15,.34,.22,.54,.22s.38-.07,.53-.21c.3-.29,.3-.77,0-1.06l-.51-.52,.51-.5,.51,.52c.15,.15,.34,.22,.54,.22s.38-.07,.53-.21c.3-.29,.3-.77,0-1.06l-.51-.52,.51-.5,.51,.52c.15,.15,.34,.22,.54,.22s.38-.07,.53-.21c.3-.29,.3-.76,0-1.06l-.56-.57c.18-.28,.31-.58,.38-.91h.95c.41,.01,.74-.32,.75-.73,0-.41-.33-.75-.74-.76Z"/></g></svg>