<?xml version="1.0" encoding="UTF-8"?><svg fill="currentColor" xmlns="http://www.w3.org/2000/svg" viewBox="0 0 24 24"><g id="c"><g><path d="M19,11.25h-1.25v-2.1c-.24,.06-.49,.1-.75,.1H8c-.26,0-.51-.04-.75-.1v2.1h-1.25c-.41,0-.75,.34-.75,.75s.34,.75,.75,.75h13c.41,0,.75-.34,.75-.75s-.34-.75-.75-.75Z"/><path d="M18.72,14.25H6.28c.1,1.83,1.23,3.38,2.82,4.09l-.64,1.91h-.46c-.41,0-.75,.34-.75,.75s.34,.75,.75,.75h9c.41,0,.75-.34,.75-.75s-.34-.75-.75-.75h-.46l-.64-1.91c1.59-.71,2.72-2.26,2.82-4.09Z"/><path d="M20,4.25h-1.25v-.25c0-.96-.79-1.75-1.75-1.75H8c-.96,0-1.75,.79-1.75,1.75v2c0,.96,.79,1.75,1.75,1.75h9c.96,0,1.75-.79,1.75-1.75v-.25h1.25c.41,0,.75-.34,.75-.75s-.34-.75-.75-.75Z"/></g></g></svg>