<?xml version="1.0" encoding="UTF-8"?><svg fill="currentColor" xmlns="http://www.w3.org/2000/svg" viewBox="0 0 24 24"><g id="d"><g><path d="M20,7.75c.26,0,.51,.04,.75,.1v-2.85c0-.3-.18-.58-.46-.69-.28-.12-.6-.05-.82,.16l-1.12,1.12c-.42,.42-1,.66-1.59,.66h-5.26c-1,0-1.84,.66-2.13,1.56,.2-.04,.42-.06,.63-.06h10Z"/><path d="M7.06,14.88c-.24,.24-.55,.37-.88,.37H3c-.41,0-.75,.34-.75,.75v3c0,.41,.34,.75,.75,.75H19c1.52,0,2.75-1.23,2.75-2.75v-2.25H7.19l-.13,.13Z"/><path d="M20,9.25h-1.25v2.75c0,.41-.34,.75-.75,.75s-.75-.34-.75-.75v-2.75h-1.5v2.75c0,.41-.34,.75-.75,.75s-.75-.34-.75-.75v-2.75h-1.5v2.75c0,.41-.34,.75-.75,.75s-.75-.34-.75-.75v-2.75h-1.25c-.96,0-1.75,.79-1.75,1.75v2.25h13.5v-2.25c0-.96-.79-1.75-1.75-1.75Z"/></g></g></svg>