<?xml version="1.0" encoding="UTF-8"?><svg fill="currentColor" xmlns="http://www.w3.org/2000/svg" viewBox="0 0 24 24"><g id="l"><g><path d="M12,5.25c1.24,0,2.25-1.01,2.25-2.25v-.75h-4.5v.75c0,1.24,1.01,2.25,2.25,2.25Z"/><path d="M21,11.25h-3.25v-1.85l2.67-1.78c.31-.21,.42-.62,.25-.96l-1.45-2.89c-.47-.94-1.41-1.52-2.46-1.52h-1.01v.75c0,2.07-1.68,3.75-3.75,3.75s-3.75-1.68-3.75-3.75v-.75h-1.01c-1.05,0-1.99,.58-2.46,1.52l-1.45,2.89c-.17,.34-.06,.75,.25,.96l2.67,1.78v1.85H3c-.41,0-.75,.34-.75,.75v2c0,.41,.34,.75,.75,.75H21c.41,0,.75-.34,.75-.75v-2c0-.41-.34-.75-.75-.75Z"/><path d="M3.98,18.45c.22,1.33,1.36,2.3,2.71,2.3h10.61c1.35,0,2.49-.97,2.71-2.3l.37-2.2H3.61l.37,2.2Z"/></g></g></svg>