<?xml version="1.0" encoding="UTF-8"?><svg fill="currentColor" xmlns="http://www.w3.org/2000/svg" viewBox="0 0 24 24"><g id="q"><g><path d="M12.01,10.59c-.16-.26-.41-.29-.51-.29s-.35,.03-.51,.29l-1.66,2.76c-.16,.27-.06,.51,0,.6,.05,.09,.2,.3,.51,.3h3.31c.31,0,.46-.21,.51-.3,.05-.09,.15-.33,0-.6l-1.66-2.76Z"/><path d="M16.94,4.7c-.15-1.4-1.33-2.45-2.73-2.45h-5.42c-1.4,0-2.58,1.05-2.73,2.45l-1.8,16.22c-.05,.41,.25,.78,.66,.83,.42,.05,.78-.25,.83-.66l.26-2.33h10.99l.26,2.33c.04,.38,.37,.67,.74,.67,.03,0,.06,0,.08,0,.41-.05,.71-.42,.66-.83l-1.8-16.22Zm-6.94,.55h3c.41,0,.75,.34,.75,.75s-.34,.75-.75,.75h-3c-.41,0-.75-.34-.75-.75s.34-.75,.75-.75Zm4.98,9.44c-.38,.66-1.06,1.06-1.82,1.06h-3.31c-.76,0-1.44-.4-1.82-1.06s-.37-1.45,.03-2.11l1.66-2.76c.38-.64,1.05-1.02,1.79-1.02s1.41,.38,1.79,1.02l1.66,2.76c.39,.65,.4,1.44,.03,2.11Z"/></g></g></svg>