<?xml version="1.0" encoding="UTF-8"?><svg fill="currentColor" xmlns="http://www.w3.org/2000/svg" viewBox="0 0 24 24"><g id="i"><g><path d="M10.6,9.63c-.9-.9-2.09-1.39-3.36-1.39-1.01,0-1.96,.32-2.76,.9l.48,.51,9.18,9.18,.48,.47c1.34-1.86,1.19-4.46-.48-6.13l-3.54-3.54Z"/><path d="M3.88,10.69l-.51-.55-.9,.9c-.29,.29-.29,.77,0,1.06l9.19,9.19c.15,.15,.34,.22,.53,.22s.38-.07,.53-.22l.89-.89-.53-.51L3.88,10.69Z"/><path d="M20.85,2.91c-.88-.88-2.3-.88-3.18,0l-5.83,5.83,3.18,3.18,5.83-5.83c.88-.88,.88-2.3,0-3.18Z"/></g></g></svg>