<?xml version="1.0" encoding="UTF-8"?><svg fill="currentColor" xmlns="http://www.w3.org/2000/svg" viewBox="0 0 24 24"><g id="m"><g><path d="M16.25,11c0-.14-.11-.25-.25-.25H8c-.14,0-.25,.11-.25,.25v2.75h8.5v-2.75Z"/><path d="M19,3.25H5c-1.52,0-2.75,1.23-2.75,2.75v5c0,1.52,1.23,2.75,2.75,2.75h1.25v-2.75c0-.96,.79-1.75,1.75-1.75h8c.96,0,1.75,.79,1.75,1.75v2.75h1.25c1.52,0,2.75-1.23,2.75-2.75V6c0-1.52-1.23-2.75-2.75-2.75Zm-3.98,4.5c-.41,0-.75-.34-.75-.75s.33-.75,.75-.75h0c.42,0,.75,.34,.75,.75s-.33,.75-.75,.75Zm3,0c-.41,0-.75-.34-.75-.75s.33-.75,.75-.75h0c.42,0,.75,.34,.75,.75s-.33,.75-.75,.75Z"/><path d="M12,15.25c-.41,0-.75,.34-.75,.75v4c0,.41,.34,.75,.75,.75s.75-.34,.75-.75v-4c0-.41-.34-.75-.75-.75Z"/><path d="M17,20.25h-1c-.14,0-.25-.11-.25-.25v-4c0-.41-.34-.75-.75-.75s-.75,.34-.75,.75v4c0,.96,.79,1.75,1.75,1.75h1c.41,0,.75-.34,.75-.75s-.34-.75-.75-.75Z"/><path d="M9,15.25c-.41,0-.75,.34-.75,.75v4c0,.14-.11,.25-.25,.25h-1c-.41,0-.75,.34-.75,.75s.34,.75,.75,.75h1c.96,0,1.75-.79,1.75-1.75v-4c0-.41-.34-.75-.75-.75Z"/></g></g></svg>