<?xml version="1.0" encoding="UTF-8"?><svg fill="currentColor" xmlns="http://www.w3.org/2000/svg" viewBox="0 0 24 24"><g id="d"><g><path d="M20.99,11.07c-.37-.25-.81-.35-1.24-.29V5c0-1.52-1.23-2.75-2.75-2.75h-1c-1.52,0-2.75,1.23-2.75,2.75,0,.41,.34,.75,.75,.75s.75-.34,.75-.75c0-.69,.56-1.25,1.25-1.25h1c.69,0,1.25,.56,1.25,1.25v5.19l-.72-.72c-.29-.29-.77-.29-1.06,0s-.29,.77,0,1.06l.98,.98c-4.21,1.15-8.72,.95-12.82-.63-.54-.21-1.15-.14-1.62,.19s-.76,.87-.76,1.44v2.49c0,2.23,1.54,4.08,3.61,4.6l-.53,1.07c-.19,.37-.04,.82,.34,1.01,.11,.05,.22,.08,.33,.08,.27,0,.54-.15,.67-.42l.79-1.58h9.07l.79,1.58c.13,.26,.4,.42,.67,.42,.11,0,.23-.03,.33-.08,.37-.19,.52-.64,.34-1.01l-.53-1.07c2.07-.51,3.61-2.37,3.61-4.6v-2.49c0-.57-.28-1.11-.76-1.44Z"/><path d="M14.02,10.75c.42,0,.75-.34,.75-.75s-.33-.75-.75-.75h0c-.41,0-.75,.34-.75,.75s.34,.75,.75,.75Z"/><path d="M14.02,8.75c.42,0,.75-.34,.75-.75s-.33-.75-.75-.75h0c-.41,0-.75,.34-.75,.75s.34,.75,.75,.75Z"/></g></g></svg>