<?xml version="1.0" encoding="UTF-8"?><svg fill="currentColor" xmlns="http://www.w3.org/2000/svg" viewBox="0 0 24 24"><g id="u"><g><path d="M6.56,10.75c.46-.89,1.37-1.5,2.44-1.5h1c.79,0,1.5,.34,2,.87,.5-.54,1.21-.87,2-.87h1c1.06,0,1.98,.61,2.44,1.5h1.56c.26,0,.51,.03,.75,.08v-2.83c0-1.52-1.23-2.75-2.75-2.75H7c-1.52,0-2.75,1.23-2.75,2.75v2.83c.24-.04,.49-.08,.75-.08h1.56Z"/><path d="M19,12.25h-2.75v-.25c0-.69-.56-1.25-1.25-1.25h-1c-.69,0-1.25,.56-1.25,1.25v.25h-1.5v-.25c0-.69-.56-1.25-1.25-1.25h-1c-.69,0-1.25,.56-1.25,1.25v.25h-2.75c-1.52,0-2.75,1.23-2.75,2.75v2c0,.96,.79,1.75,1.75,1.75h.25v1.25c0,.41,.34,.75,.75,.75s.75-.34,.75-.75v-1.25h12.5v1.25c0,.41,.34,.75,.75,.75s.75-.34,.75-.75v-1.25h.25c.96,0,1.75-.79,1.75-1.75v-2c0-1.52-1.23-2.75-2.75-2.75Z"/></g></g></svg>