<?xml version="1.0" encoding="UTF-8"?><svg fill="currentColor" xmlns="http://www.w3.org/2000/svg" viewBox="0 0 24 24"><g id="r"><path d="M16.87,12.83l-6.27-2.09c-.51-.17-.85-.65-.85-1.19v-.56c0-1.24,1.01-2.25,2.25-2.25s2.25,1.01,2.25,2.25c0,.96,.79,1.75,1.75,1.75h1c.96,0,1.75-.79,1.75-1.75,0-3.72-3.03-6.75-6.75-6.75s-6.75,3.03-6.75,6.75v10c0,1.52,1.23,2.75,2.75,2.75h8c1.52,0,2.75-1.23,2.75-2.75v-3.56c0-1.19-.76-2.23-1.88-2.61Zm-2.87,4.92h-4c-.41,0-.75-.34-.75-.75s.34-.75,.75-.75h4c.41,0,.75,.34,.75,.75s-.34,.75-.75,.75Z"/></g></svg>