<?xml version="1.0" encoding="UTF-8"?><svg fill="currentColor" xmlns="http://www.w3.org/2000/svg" viewBox="0 0 24 24"><g id="h"><g><path d="M17.53,16.78c.75-.01,1.97-.22,3-1.25,1.45-1.45,1.26-3.28,1.21-3.64-.05-.37-.37-.64-.74-.64h-2.46l.2-1.12c.04-.22-.02-.44-.16-.61s-.35-.27-.58-.27H4c-.22,0-.43,.1-.58,.27s-.2,.4-.16,.61l1.25,6.89c.23,1.29,.89,2.4,1.81,3.22h-1.32c-.41,0-.75,.34-.75,.75s.34,.75,.75,.75h12c.41,0,.75-.34,.75-.75s-.34-.75-.75-.75h-1.32c.91-.83,1.57-1.94,1.81-3.22l.05-.25Zm2.73-4.03c-.05,.48-.23,1.15-.79,1.72-.55,.54-1.18,.73-1.66,.78l.46-2.5h2Z"/><path d="M11.1,7.75c.08,0,.16-.01,.23-.04,.39-.13,.61-.55,.48-.95-.08-.25-.07-.38-.05-.42,.04-.05,.28-.12,.43-.17,.33-.1,.78-.25,1.25-.56,.46-.31,.86-.72,1.19-1.22,.22-.35,.12-.81-.23-1.04-.35-.22-.81-.12-1.04,.23-.21,.33-.46,.59-.75,.78-.3,.2-.59,.29-.88,.38-.44,.14-1,.31-1.31,.9-.23,.44-.25,.97-.05,1.58,.1,.32,.4,.52,.71,.52Z"/><path d="M16.1,7.75c.08,0,.16-.01,.23-.04,.39-.13,.61-.55,.48-.95-.08-.25-.07-.38-.05-.42,.04-.05,.28-.12,.43-.17,.33-.1,.78-.25,1.25-.56,.46-.31,.86-.72,1.19-1.22,.22-.35,.12-.81-.23-1.04-.35-.22-.81-.12-1.04,.23-.21,.33-.46,.59-.75,.78-.3,.2-.59,.29-.88,.38-.44,.14-1,.31-1.31,.9-.23,.44-.25,.97-.05,1.58,.1,.32,.4,.52,.71,.52Z"/><path d="M6.1,7.75c.08,0,.16-.01,.23-.04,.39-.13,.61-.55,.48-.95-.08-.25-.07-.38-.05-.42,.04-.05,.28-.12,.43-.17,.33-.1,.78-.25,1.25-.56,.46-.31,.86-.72,1.19-1.22,.22-.35,.12-.81-.23-1.04-.35-.22-.81-.12-1.04,.23-.21,.33-.46,.59-.75,.78-.3,.2-.59,.29-.88,.38-.44,.14-1,.31-1.31,.9-.23,.44-.25,.97-.05,1.58,.1,.32,.4,.52,.71,.52Z"/></g></g></svg>