<?xml version="1.0" encoding="UTF-8"?><svg fill="currentColor" xmlns="http://www.w3.org/2000/svg" viewBox="0 0 24 24"><g id="b"><g><path d="M20.9,10.66c-.16-.81-.89-1.41-1.72-1.41H8.61l-.56-2.79c-.26-1.28-1.39-2.21-2.7-2.21h-1.36c-.41,0-.75,.34-.75,.75s.34,.75,.75,.75h1.36c.59,0,1.11,.42,1.23,1l.65,3.25-.97,4.85c-.04,.21,0,.43,.14,.6,.93,1.24,2.33,1.3,2.6,1.3,.48,0,.9-.11,1.25-.26v.78c-1.12,.13-2,1.07-2,2.22,0,1.24,1.01,2.25,2.25,2.25s2.25-1.01,2.25-2.25c0-.78-.4-1.46-1-1.87v-1.36c.91,.39,1.75,.48,2.25,.48,.89,0,1.65-.21,2.25-.47v1.35c-.6,.4-1,1.09-1,1.87,0,1.24,1.01,2.25,2.25,2.25s2.25-1.01,2.25-2.25c0-1.15-.88-2.1-2-2.22v-.79c.58,.24,1.1,.26,1.25,.26,1.54,0,2.43-1.08,2.6-1.3,.13-.17,.18-.39,.14-.6l-.84-4.2Z"/><path d="M14.75,4.33v-.58h.25c.41,0,.75-.34,.75-.75s-.34-.75-.75-.75h-2c-.41,0-.75,.34-.75,.75s.34,.75,.75,.75h.25v.58c-1.84,.3-3.32,1.65-3.81,3.42h9.13c-.49-1.77-1.97-3.13-3.81-3.42Z"/></g></g></svg>