<?xml version="1.0" encoding="UTF-8"?><svg fill="currentColor" xmlns="http://www.w3.org/2000/svg" viewBox="0 0 24 24"><g id="p"><path d="M19,5.25h-1.33c-.35-1.71-1.86-3-3.67-3h-3c-2.07,0-3.75,1.68-3.75,3.75v4.69l-2.19,2.19c-.52,.52-.81,1.21-.81,1.94v4.17c0,1.52,1.23,2.75,2.75,2.75h2c1.52,0,2.75-1.23,2.75-2.75v-4.17c0-.73-.29-1.43-.81-1.94l-2.19-2.19V6c0-1.24,1.01-2.25,2.25-2.25h3c.98,0,1.8,.63,2.11,1.5h-1.11c-1.52,0-2.75,1.23-2.75,2.75v2c0,1.52,1.23,2.75,2.75,2.75h1.25v8.25c0,.41,.34,.75,.75,.75s.75-.34,.75-.75v-1.25h1.5v.25c0,.41,.34,.75,.75,.75s.75-.34,.75-.75v-2c0-.41-.34-.75-.75-.75s-.75,.34-.75,.75v.25h-1.5v-5.5h1.25c1.52,0,2.75-1.23,2.75-2.75v-2c0-1.52-1.23-2.75-2.75-2.75Zm-10,12c.41,0,.75,.34,.75,.75s-.34,.75-.75,.75h-2c-.41,0-.75-.34-.75-.75s.34-.75,.75-.75h2Z"/></g></svg>