<?xml version="1.0" encoding="UTF-8"?><svg fill="currentColor" xmlns="http://www.w3.org/2000/svg" viewBox="0 0 24 24"><g id="g"><g><path d="M13.88,14.74c-.85-.14-1.43-.41-1.9-.63-.38-.18-.69-.32-1.07-.37-.64-.07-1.35,.15-2.12,.64,.19,1.61,1.55,2.87,3.21,2.87,1.51,0,2.77-1.04,3.13-2.43-.05,0-.09,.01-.14,.01-.38,0-.75-.03-1.11-.09Z"/><path d="M12,10.75c-1.27,0-2.35,.74-2.89,1.79,.68-.26,1.34-.37,1.98-.29,.62,.08,1.08,.29,1.52,.5,.44,.21,.86,.4,1.51,.51,.34,.06,.7,.07,1.05,.06-.32-1.46-1.62-2.57-3.17-2.57Z"/><path d="M9.25,5V2.25h-2.25c-2.07,0-3.75,1.68-3.75,3.75v.25h4.75c.69,0,1.25-.56,1.25-1.25Z"/><path d="M17,2.25h-6.25v2.75c0,1.52-1.23,2.75-2.75,2.75H3.25v10.25c0,2.07,1.68,3.75,3.75,3.75h10c2.07,0,3.75-1.68,3.75-3.75V6c0-2.07-1.68-3.75-3.75-3.75Zm-3.99,3h0c.42,0,.75,.34,.75,.75s-.33,.75-.75,.75-.75-.34-.75-.75,.33-.75,.75-.75Zm-1.01,13.5c-2.62,0-4.75-2.13-4.75-4.75,0-.03,0-.06,0-.1,0-.01,0-.02,0-.03,.07-2.56,2.16-4.62,4.74-4.62s4.67,2.06,4.74,4.62h0s0,.02,0,.02c0,.04,.01,.07,.01,.1,0,2.62-2.13,4.75-4.75,4.75Zm4.02-12c-.41,0-.75-.34-.75-.75s.33-.75,.75-.75h0c.42,0,.75,.34,.75,.75s-.33,.75-.75,.75Z"/></g></g></svg>