<?xml version="1.0" encoding="UTF-8"?><svg fill="currentColor" xmlns="http://www.w3.org/2000/svg" viewBox="0 0 24 24"><g id="n"><g><path d="M8.54,11.43c-.17-.15-.41-.21-.63-.16-.22,.04-.42,.19-.52,.39-.43,.83-.8,1.7-1.1,2.59-.51,1.5-.84,3.08-.97,4.68-.06,.69,.25,1.35,.81,1.71,.54,.35,1.19,.37,1.76,.07,1.7-.93,3.31-1.07,4.11-1.07,1.43,0,2.82,.36,4.12,1.08,.26,.14,.54,.21,.82,.21,.34,0,.68-.1,.97-.31,.19-.13,.31-.35,.32-.58s-.09-.46-.26-.61L8.54,11.43Z"/><path d="M9.46,7.67c.2,0,.41-.03,.61-.1,1.2-.4,1.76-1.85,1.28-3.32-.22-.66-.62-1.22-1.14-1.59-.58-.4-1.25-.52-1.85-.32-1.2,.4-1.76,1.85-1.28,3.32,.4,1.22,1.38,2.01,2.39,2.01Z"/><path d="M13.94,7.57c.2,.07,.4,.1,.6,.1,1.01,0,1.99-.79,2.39-2.01,.22-.66,.23-1.35,.02-1.96-.22-.67-.7-1.16-1.3-1.36-1.2-.39-2.51,.44-3,1.91h0c-.48,1.47,.08,2.92,1.28,3.32Z"/><path d="M6.81,11.05c.12-.62,.03-1.31-.27-1.94h0c-.67-1.39-2.08-2.05-3.22-1.51-.57,.27-.98,.83-1.12,1.52-.12,.62-.03,1.31,.27,1.94,.3,.63,.77,1.13,1.34,1.43,.34,.18,.7,.27,1.05,.27,.29,0,.57-.06,.83-.19,.57-.27,.98-.83,1.12-1.52Z"/><path d="M18.31,12.56c.26,.12,.54,.19,.83,.19,.35,0,.71-.09,1.05-.27,.56-.29,1.04-.8,1.34-1.43,.67-1.39,.29-2.91-.84-3.45-1.14-.54-2.55,.12-3.22,1.51-.3,.63-.4,1.32-.27,1.94,.14,.69,.55,1.24,1.12,1.52Z"/><path d="M18.35,16.67c-.17-.82-.38-1.63-.64-2.42-.44-1.29-1.01-2.52-1.7-3.67-.88-1.46-2.38-2.33-4.01-2.33-.85,0-1.67,.25-2.39,.7L4.5,4.44c-.31-.27-.78-.24-1.06,.07-.27,.31-.24,.78,.07,1.06l17,15c.14,.13,.32,.19,.5,.19,.21,0,.41-.09,.56-.25,.27-.31,.24-.78-.07-1.06l-3.14-2.77Z"/></g></g></svg>