<?xml version="1.0" encoding="UTF-8"?><svg fill="currentColor" xmlns="http://www.w3.org/2000/svg" viewBox="0 0 24 24"><g id="e"><path d="M17,2.25H7c-2.62,0-4.75,2.13-4.75,4.75v10c0,2.62,2.13,4.75,4.75,4.75h10c2.62,0,4.75-2.13,4.75-4.75V7c0-2.62-2.13-4.75-4.75-4.75Zm-4,11.5h-2c-.41,0-.75-.34-.75-.75s.34-.75,.75-.75h2c1.24,0,2.25-1.01,2.25-2.25s-1.01-2.25-2.25-2.25h-4c-.14,0-.25,.11-.25,.25v9c0,.41-.34,.75-.75,.75s-.75-.34-.75-.75V8c0-.96,.79-1.75,1.75-1.75h4c2.07,0,3.75,1.68,3.75,3.75s-1.68,3.75-3.75,3.75Z"/></g></svg>