<?xml version="1.0" encoding="UTF-8"?><svg fill="currentColor" xmlns="http://www.w3.org/2000/svg" viewBox="0 0 24 24"><g id="k"><g><path d="M3.45,17.89c1.18-.6,2.36-.89,3.54-.89,.96,0,1.52,.21,2.17,.44,.72,.26,1.53,.56,2.83,.56s2.12-.3,2.83-.56c.65-.24,1.21-.44,2.17-.44,1.18,0,2.37,.29,3.54,.89,.15,.07,.3,.11,.45,.11,.36,0,.72-.2,.89-.55,.25-.49,.05-1.09-.44-1.34-1.45-.74-2.93-1.11-4.42-1.11h-.04V5.5c0-.28,.22-.5,.5-.5s.5,.22,.5,.5v.5c0,.55,.45,1,1,1s1-.45,1-1v-.5c0-1.38-1.12-2.5-2.5-2.5s-2.5,1.12-2.5,2.5V15.29c-.3,.09-.59,.18-.85,.28-.64,.23-1.2,.44-2.15,.44s-1.51-.2-2.15-.44c-.72-.26-1.53-.56-2.84-.56h0v-1h6c.55,0,1-.45,1-1s-.45-1-1-1H7v-2h6c.55,0,1-.45,1-1s-.45-1-1-1H7v-2.5c0-.28,.22-.5,.5-.5s.5,.22,.5,.5v.5c0,.55,.45,1,1,1s1-.45,1-1v-.5c0-1.38-1.12-2.5-2.5-2.5s-2.5,1.12-2.5,2.5V15.23c-.82,.18-1.65,.47-2.45,.87-.49,.25-.69,.85-.44,1.34s.85,.69,1.34,.44Z"/><path d="M21.45,19.11c-1.46-.74-2.94-1.07-4.46-1.11-1.31,0-2.13,.3-2.84,.56-.64,.23-1.2,.44-2.15,.44s-1.51-.2-2.15-.44c-.72-.26-1.53-.56-2.84-.56h-.04c-1.48,0-2.97,.37-4.42,1.11-.49,.25-.69,.85-.44,1.34s.85,.69,1.34,.44c1.18-.6,2.36-.87,3.54-.89,.96,0,1.52,.21,2.17,.44,.72,.26,1.53,.56,2.83,.56s2.12-.3,2.83-.56c.65-.24,1.21-.44,2.17-.44,1.18-.01,2.37,.29,3.54,.89,.15,.07,.3,.11,.45,.11,.36,0,.72-.2,.89-.55,.25-.49,.05-1.09-.44-1.34Z"/></g></g></svg>