<?xml version="1.0" encoding="UTF-8"?><svg fill="currentColor" xmlns="http://www.w3.org/2000/svg" viewBox="0 0 24 24"><g id="j"><g><path d="M20.97,8.08l-2.3-1.54c-.29-.19-.62-.29-.97-.29h-.95v-.25c0-2.07-1.68-3.75-3.75-3.75h-4c-2.07,0-3.75,1.68-3.75,3.75v15c0,.41,.34,.75,.75,.75s.75-.34,.75-.75V6c0-1.24,1.01-2.25,2.25-2.25h4c1.24,0,2.25,1.01,2.25,2.25v.25h-.95c-.35,0-.68,.1-.97,.29l-2.3,1.54c-.49,.33-.78,.87-.78,1.46v.46c0,.96,.79,1.75,1.75,1.75h8c.96,0,1.75-.79,1.75-1.75v-.46c0-.59-.29-1.13-.78-1.46Z"/><path d="M15.77,13c0-.41-.34-.75-.75-.75h-.01c-.41,0-.74,.34-.74,.75s.34,.75,.75,.75,.75-.34,.75-.75Z"/><path d="M17.77,13c0-.41-.34-.75-.75-.75h-.01c-.41,0-.74,.34-.74,.75s.34,.75,.75,.75,.75-.34,.75-.75Z"/><path d="M16.77,15c0-.41-.34-.75-.75-.75h-.01c-.41,0-.74,.34-.74,.75s.34,.75,.75,.75,.75-.34,.75-.75Z"/><path d="M18.77,15c0-.41-.34-.75-.75-.75h-.01c-.41,0-.74,.34-.74,.75s.34,.75,.75,.75,.75-.34,.75-.75Z"/><path d="M14.77,15c0-.41-.34-.75-.75-.75h-.01c-.41,0-.74,.34-.74,.75s.34,.75,.75,.75,.75-.34,.75-.75Z"/><path d="M17.02,16.25h-.01c-.41,0-.74,.34-.74,.75s.34,.75,.75,.75,.75-.34,.75-.75-.34-.75-.75-.75Z"/><path d="M15.02,16.25h-.01c-.41,0-.74,.34-.74,.75s.34,.75,.75,.75,.75-.34,.75-.75-.34-.75-.75-.75Z"/><path d="M19.02,16.25h-.01c-.41,0-.74,.34-.74,.75s.34,.75,.75,.75,.75-.34,.75-.75-.34-.75-.75-.75Z"/><path d="M13.02,16.25h-.01c-.41,0-.74,.34-.74,.75s.34,.75,.75,.75,.75-.34,.75-.75-.34-.75-.75-.75Z"/></g></g></svg>