<?xml version="1.0" encoding="UTF-8"?><svg fill="currentColor" xmlns="http://www.w3.org/2000/svg" viewBox="0 0 24 24"><g id="q"><g><path d="M7,3.25c-2.62,0-4.75,2.13-4.75,4.75v2.25H11.75v-2.25c0-2.62-2.13-4.75-4.75-4.75Z"/><path d="M2.25,14c0,.41,.34,.75,.75,.75H11c.41,0,.75-.34,.75-.75v-2.25H2.25v2.25Z"/><path d="M17,3.25c-2.62,0-4.75,2.13-4.75,4.75v2.25h9.5v-2.25c0-2.62-2.13-4.75-4.75-4.75Z"/><path d="M12.25,14c0,.41,.34,.75,.75,.75h8c.41,0,.75-.34,.75-.75v-2.25H12.25v2.25Z"/><path d="M3.25,18c0,1.52,1.23,2.75,2.75,2.75h2c1.52,0,2.75-1.23,2.75-2.75v-1.75H3.25v1.75Z"/><path d="M13.25,18c0,1.52,1.23,2.75,2.75,2.75h2c1.52,0,2.75-1.23,2.75-2.75v-1.75h-7.5v1.75Z"/></g></g></svg>