<?xml version="1.0" encoding="UTF-8"?><svg fill="currentColor" xmlns="http://www.w3.org/2000/svg" viewBox="0 0 24 24"><g id="f"><g><path d="M12,12.75c2.92,0,5.33-2.18,5.7-5H6.3c.37,2.82,2.78,5,5.7,5Z"/><path d="M17.75,3c0-.41-.34-.75-.75-.75H7c-.41,0-.75,.34-.75,.75v3.25h11.5V3Z"/><path d="M7.7,12.56c-2.08,1.39-3.45,3.76-3.45,6.44v2c0,.41,.34,.75,.75,.75h6.25v-4.5l-2.85-3.8-.7-.89Z"/><path d="M16.3,12.55l-.7,.91-2.84,3.79v4.5h6.25c.41,0,.75-.34,.75-.75v-2c0-2.69-1.37-5.05-3.45-6.45Zm-.3,7.2h-1c-.41,0-.75-.34-.75-.75s.34-.75,.75-.75h1c.41,0,.75,.34,.75,.75s-.34,.75-.75,.75Z"/><path d="M12,14.25c-.41,0-.81-.04-1.2-.11l1.2,1.61,1.2-1.61c-.39,.07-.79,.11-1.2,.11Z"/></g></g></svg>