<?xml version="1.0" encoding="UTF-8"?><svg fill="currentColor" xmlns="http://www.w3.org/2000/svg" viewBox="0 0 24 24"><g id="c"><g><path d="M5.25,15c0,.96,.79,1.75,1.75,1.75h2c.96,0,1.75-.79,1.75-1.75v-6c0-.96-.79-1.75-1.75-1.75h-.25v-3.25c0-.41-.34-.75-.75-.75s-.75,.34-.75,.75v3.25h-.25c-.96,0-1.75,.79-1.75,1.75v6Z"/><path d="M19,5.25H10.25v.75c1.17,.49,2,1.65,2,3v6c0,1.79-1.46,3.25-3.25,3.25h-2c-1.79,0-3.25-1.46-3.25-3.25v-6c0-1.35,.83-2.51,2-3v-.75h-.75c-1.52,0-2.75,1.23-2.75,2.75v8c0,1.52,1.23,2.75,2.75,2.75h14c1.52,0,2.75-1.23,2.75-2.75V8c0-1.52-1.23-2.75-2.75-2.75Zm-4.98,10.5c-.41,0-.75-.34-.75-.75s.33-.75,.75-.75h0c.42,0,.75,.34,.75,.75s-.33,.75-.75,.75Zm0-3c-.41,0-.75-.34-.75-.75s.33-.75,.75-.75h0c.42,0,.75,.34,.75,.75s-.33,.75-.75,.75Zm3,3c-.41,0-.75-.34-.75-.75s.33-.75,.75-.75h0c.42,0,.75,.34,.75,.75s-.33,.75-.75,.75Zm0-3c-.41,0-.75-.34-.75-.75s.33-.75,.75-.75h0c.42,0,.75,.34,.75,.75s-.33,.75-.75,.75Zm-3.02-3c-.41,0-.75-.34-.75-.75s.34-.75,.75-.75h6c.41,0,.75,.34,.75,.75s-.34,.75-.75,.75h-6Zm6.02,6c-.41,0-.75-.34-.75-.75s.33-.75,.75-.75h0c.42,0,.75,.34,.75,.75s-.33,.75-.75,.75Zm0-3c-.41,0-.75-.34-.75-.75s.33-.75,.75-.75h0c.42,0,.75,.34,.75,.75s-.33,.75-.75,.75Z"/></g></g></svg>