<?xml version="1.0" encoding="UTF-8"?><svg fill="currentColor" xmlns="http://www.w3.org/2000/svg" viewBox="0 0 24 24"><g id="s"><g><path d="M20.04,6.98c-.21-.45-.64-.73-1.14-.73h-1.84l-1.29,3h3.26l.81-.93c.33-.37,.4-.89,.2-1.34Z"/><path d="M10.93,9.11l1.23-2.86H5.1c-.5,0-.93,.28-1.14,.73-.21,.45-.13,.97,.2,1.34l.81,.93h5.92s.02-.09,.04-.14Z"/><path d="M14.16,14.81l3.55-4.06H6.28l3.55,4.06c.37,.43,.87,.72,1.41,.85v3.64c-1.28,.17-2.22,.73-2.7,1.1-.33,.25-.4,.72-.15,1.05,.25,.33,.72,.4,1.05,.15,.42-.32,1.32-.85,2.55-.85,.53,0,1.56,.11,2.55,.85,.13,.1,.29,.15,.45,.15,.23,0,.45-.1,.6-.3,.25-.33,.18-.8-.15-1.05-.96-.72-1.95-1-2.7-1.1v-3.64c.54-.13,1.04-.42,1.41-.85Z"/><path d="M16.43,3.9c.04-.09,.13-.15,.23-.15h2.34c.41,0,.75-.34,.75-.75s-.34-.75-.75-.75h-2.34c-.7,0-1.33,.42-1.61,1.06l-2.55,5.94h1.63l2.29-5.35Z"/></g></g></svg>