<?xml version="1.0" encoding="UTF-8"?><svg fill="currentColor" xmlns="http://www.w3.org/2000/svg" viewBox="0 0 24 24"><g id="t"><g><path d="M17,2.25H7c-.41,0-.75,.34-.75,.75V12c0,1.52,1.23,2.75,2.75,2.75h6c1.52,0,2.75-1.23,2.75-2.75V3c0-.41-.34-.75-.75-.75Zm-4,9.5h-2c-.41,0-.75-.34-.75-.75s.34-.75,.75-.75h2c.41,0,.75,.34,.75,.75s-.34,.75-.75,.75Z"/><path d="M10.06,16.55c.19,.56,.64,.97,1.19,1.12v3.32c0,.41,.34,.75,.75,.75s.75-.34,.75-.75v-3.32c.55-.15,1-.56,1.19-1.12l.1-.3h-4.08l.1,.3Z"/></g></g></svg>