<?xml version="1.0" encoding="UTF-8"?><svg fill="currentColor" xmlns="http://www.w3.org/2000/svg" viewBox="0 0 24 24"><g id="b"><g><path d="M19,4.25H5c-1.52,0-2.75,1.23-2.75,2.75v6c0,1.52,1.23,2.75,2.75,2.75h3c.39,0,.76,.19,1,.5l1.6,2.13c.33,.45,.84,.7,1.4,.7s1.07-.26,1.4-.7l1.6-2.13c.23-.31,.61-.5,1-.5h3c1.52,0,2.75-1.23,2.75-2.75v-.25h-1.75c-.96,0-1.75-.79-1.75-1.75v-2c0-.96,.79-1.75,1.75-1.75h1.75v-.25c0-1.52-1.23-2.75-2.75-2.75ZM6.75,11c0,.41-.34,.75-.75,.75s-.75-.34-.75-.75v-2c0-.41,.34-.75,.75-.75s.75,.34,.75,.75v2Z"/><path d="M19.75,9v2c0,.14,.11,.25,.25,.25h1.75v-2.5h-1.75c-.14,0-.25,.11-.25,.25Z"/></g></g></svg>