<?xml version="1.0" encoding="UTF-8"?><svg fill="currentColor" xmlns="http://www.w3.org/2000/svg" viewBox="0 0 24 24"><g id="l"><path d="M20,14.25h-.33l-.62-5.55c-.22-1.96-1.87-3.45-3.93-3.45s-3.88,1.74-3.88,3.88v8.75c0,1.31-1.07,2.38-2.38,2.38-1.22,0-2.26-.96-2.37-2.18l-.69-8.32h1.19c.96,0,1.75-.79,1.75-1.75v-3c0-.41-.34-.75-.75-.75h-.25v-1.25c0-.41-.34-.75-.75-.75s-.75,.34-.75,.75v1.25h-1.5v-1.25c0-.41-.34-.75-.75-.75s-.75,.34-.75,.75v1.25h-.25c-.41,0-.75,.34-.75,.75v3c0,.96,.79,1.75,1.75,1.75h.31l.7,8.45c.17,1.99,1.86,3.55,3.86,3.55,2.14,0,3.88-1.74,3.88-3.88V9.13c0-1.31,1.07-2.38,2.45-2.38,1.21,0,2.23,.91,2.36,2.11l.6,5.39h-1.16c-.96,0-1.75,.79-1.75,1.75v3c0,.41,.34,.75,.75,.75h.25v1.25c0,.41,.34,.75,.75,.75h3c.41,0,.75-.34,.75-.75v-1.25h.25c.41,0,.75-.34,.75-.75v-3c0-.96-.79-1.75-1.75-1.75Zm-.75,6h-1.5v-.5h1.5v.5Z"/></g></svg>