<?xml version="1.0" encoding="UTF-8"?><svg fill="currentColor" xmlns="http://www.w3.org/2000/svg" viewBox="0 0 24 24"><g id="n"><g><path d="M9,4.25h2c.14,0,.25-.11,.25-.25v-1.75h-2.5v1.75c0,.14,.11,.25,.25,.25Z"/><path d="M14.01,16.01c-.31,.16-.66,.24-1.01,.24-.42,0-.83-.12-1.18-.33-.67-.42-1.07-1.13-1.07-1.92v-4c0-1.79,1.46-3.25,3.25-3.25h1.75v-1.75c0-1.52-1.23-2.75-2.75-2.75h-.25v1.75c0,.96-.79,1.75-1.75,1.75h-2c-.96,0-1.75-.79-1.75-1.75v-1.75h-.25c-1.52,0-2.75,1.23-2.75,2.75v14c0,1.52,1.23,2.75,2.75,2.75h6c1.52,0,2.75-1.23,2.75-2.75v-3.75h-.22l-1.53,.76Zm-3.01,2.74h-2c-.41,0-.75-.34-.75-.75s.34-.75,.75-.75h2c.41,0,.75,.34,.75,.75s-.34,.75-.75,.75Z"/><path d="M19,8.25h-5c-.96,0-1.75,.79-1.75,1.75v4c0,.26,.13,.5,.36,.64,.12,.07,.26,.11,.39,.11,.11,0,.23-.03,.33-.08l1.84-.92h3.82c.96,0,1.75-.79,1.75-1.75v-2c0-.96-.79-1.75-1.75-1.75Z"/></g></g></svg>