<?xml version="1.0" encoding="UTF-8"?><svg fill="currentColor" xmlns="http://www.w3.org/2000/svg" viewBox="0 0 24 24"><g id="q"><g><path d="M13,2.25h-.25v1.75c0,.96-.79,1.75-1.75,1.75h-2c-.96,0-1.75-.79-1.75-1.75v-1.75h-.25c-1.52,0-2.75,1.23-2.75,2.75v14c0,1.52,1.23,2.75,2.75,2.75h6c1.52,0,2.75-1.23,2.75-2.75V5c0-1.52-1.23-2.75-2.75-2.75Zm-2,16.5h-2c-.41,0-.75-.34-.75-.75s.34-.75,.75-.75h2c.41,0,.75,.34,.75,.75s-.34,.75-.75,.75Z"/><path d="M9,4.25h2c.14,0,.25-.11,.25-.25v-1.75h-2.5v1.75c0,.14,.11,.25,.25,.25Z"/><path d="M19,5.25h-1.75v4.5h.75c.2,0,.39-.08,.53-.22l1-1c.14-.14,.22-.33,.22-.53v-2c0-.41-.34-.75-.75-.75Z"/></g></g></svg>