<?xml version="1.0" encoding="UTF-8"?><svg fill="currentColor" xmlns="http://www.w3.org/2000/svg" viewBox="0 0 24 24"><g id="h"><g><rect x="12.75" y="2.25" width="1.5" height="2"/><path d="M17,2.25h-1.25v2.25c0,.69-.56,1.25-1.25,1.25h-2c-.69,0-1.25-.56-1.25-1.25V2.25h-1.25c-.96,0-1.75,.79-1.75,1.75v13c0,.96,.79,1.75,1.75,1.75h7c.96,0,1.75-.79,1.75-1.75V4c0-.96-.79-1.75-1.75-1.75Zm-3,13.5h-1c-.41,0-.75-.34-.75-.75s.34-.75,.75-.75h1c.41,0,.75,.34,.75,.75s-.34,.75-.75,.75Z"/><path d="M6.75,17V5.28c-.85,.12-1.5,.85-1.5,1.72v13c0,.96,.79,1.75,1.75,1.75h7c.88,0,1.6-.65,1.72-1.5h-5.72c-1.79,0-3.25-1.46-3.25-3.25Z"/></g></g></svg>