<?xml version="1.0" encoding="UTF-8"?><svg fill="currentColor" xmlns="http://www.w3.org/2000/svg" viewBox="0 0 24 24"><g id="e"><g><path d="M20,9.25h-5c-.96,0-1.75,.79-1.75,1.75v9c0,.96,.79,1.75,1.75,1.75h5c.96,0,1.75-.79,1.75-1.75V11c0-.96-.79-1.75-1.75-1.75Zm-2,9.5h-1c-.41,0-.75-.34-.75-.75s.34-.75,.75-.75h1c.41,0,.75,.34,.75,.75s-.34,.75-.75,.75Z"/><path d="M6,12.25c-.41,0-.75,.34-.75,.75s.34,.75,.75,.75h.25v3.25c0,.96,.79,1.75,1.75,1.75h3.75v-6.5H6Z"/><path d="M19.44,7.75c-.46-.89-1.37-1.5-2.44-1.5H5c-1.52,0-2.75,1.23-2.75,2.75v5c0,1.43,1.1,2.6,2.5,2.72v-1.85c-.6-.4-1-1.09-1-1.87,0-1.24,1.01-2.25,2.25-2.25h5.78c.13-1.67,1.52-3,3.22-3h4.44Z"/><path d="M15.75,4c0-.96-.79-1.75-1.75-1.75h-6c-.96,0-1.75,.79-1.75,1.75v.75H15.75v-.75Z"/></g></g></svg>