<?xml version="1.0" encoding="UTF-8"?><svg fill="currentColor" xmlns="http://www.w3.org/2000/svg" viewBox="0 0 24 24"><g id="d"><g><path d="M11,2.25H5c-1.52,0-2.75,1.23-2.75,2.75v14c0,1.52,1.23,2.75,2.75,2.75h6c1.52,0,2.75-1.23,2.75-2.75V5c0-1.52-1.23-2.75-2.75-2.75Zm-2,16.5h-2c-.41,0-.75-.34-.75-.75s.34-.75,.75-.75h2c.41,0,.75,.34,.75,.75s-.34,.75-.75,.75Zm1.53-9.22l-3,3c-.14,.14-.33,.22-.53,.22-.04,0-.08,0-.12,0-.24-.04-.44-.19-.55-.41l-1-2c-.19-.37-.04-.82,.34-1.01,.37-.18,.82-.04,1.01,.34l.53,1.07,2.26-2.26c.29-.29,.77-.29,1.06,0s.29,.77,0,1.06Z"/><path d="M19,8.75c.96,0,1.75-.79,1.75-1.75v-1.76c0-.27-.06-.54-.18-.78l-.62-1.24c-.3-.6-.9-.97-1.57-.97h-.76c-.67,0-1.27,.37-1.57,.97l-.62,1.24c-.12,.24-.18,.51-.18,.78v1.76c0,.96,.79,1.75,1.75,1.75h.25v3.5h-.25c-.96,0-1.75,.79-1.75,1.75v5c0,1.52,1.23,2.75,2.75,2.75s2.75-1.23,2.75-2.75v-5c0-.96-.79-1.75-1.75-1.75h-.25v-3.5h.25Z"/></g></g></svg>