<?xml version="1.0" encoding="UTF-8"?><svg fill="currentColor" xmlns="http://www.w3.org/2000/svg" viewBox="0 0 24 24"><g id="g"><g><path d="M9.24,6.49c-1.52,0-2.75,1.23-2.75,2.75,0,.41,.34,.75,.75,.75s.75-.34,.75-.75c0-.69,.56-1.25,1.25-1.25,.41,0,.75-.34,.75-.75s-.34-.75-.75-.75Z"/><path d="M4.24,9.99c.41,0,.75-.34,.75-.75,0-2.34,1.91-4.25,4.25-4.25,.41,0,.75-.34,.75-.75s-.34-.75-.75-.75c-3.17,0-5.75,2.58-5.75,5.75,0,.41,.34,.75,.75,.75Z"/><path d="M21,20.25h-4.36c.72-.44,1.41-.96,2.03-1.58,3.4-3.4,4.06-8.6,1.54-12.11-.3-.41-.76-.67-1.27-.71-.53-.04-1.02,.14-1.39,.51l-3,3c-1.44-.92-3.48-.76-4.71,.47-.71,.71-1.1,1.65-1.1,2.65,0,.75,.22,1.46,.62,2.07l-3,3h0c-.37,.37-.55,.87-.51,1.39,.04,.51,.3,.97,.71,1.27,.02,.02,.05,.03,.07,.04H3c-.41,0-.75,.34-.75,.75s.34,.75,.75,.75H21c.41,0,.75-.34,.75-.75s-.34-.75-.75-.75Zm-10.76-7.76c0-.6,.23-1.17,.66-1.59s.99-.66,1.59-.66c.34,0,.67,.08,.97,.22l-3,3c-.14-.3-.22-.63-.22-.97Z"/></g></g></svg>