<?xml version="1.0" encoding="UTF-8"?><svg fill="currentColor" xmlns="http://www.w3.org/2000/svg" viewBox="0 0 24 24"><g id="p"><g><path d="M21.56,3.5c-.28-.31-.75-.34-1.06-.06L2.5,19.44c-.31,.28-.34,.75-.06,1.06,.15,.17,.35,.25,.56,.25,.18,0,.35-.06,.5-.19l.88-.78c.34,1.14,1.38,1.97,2.62,1.97h10c1.52,0,2.75-1.23,2.75-2.75V6.11l1.75-1.55c.31-.28,.34-.75,.06-1.06ZM12.02,19.75c-.41,0-.75-.34-.75-.75s.33-.75,.74-.75h.01c.41,0,.75,.34,.75,.75s-.34,.75-.75,.75Z"/><path d="M11,4.25h2c.14,0,.25-.11,.25-.25v-1.75h-2.5v1.75c0,.14,.11,.25,.25,.25Z"/><path d="M4.7,15.69c.1,.04,.2,.06,.3,.06,.18,0,.36-.07,.5-.19L18.5,3.82c.18-.16,.27-.4,.24-.64-.02-.24-.16-.45-.37-.57-.42-.24-.89-.37-1.38-.37h-2.25v1.75c0,.96-.79,1.75-1.75,1.75h-2c-.96,0-1.75-.79-1.75-1.75v-1.75h-2.25c-1.52,0-2.75,1.23-2.75,2.75V15c0,.3,.17,.56,.45,.69Z"/></g></g></svg>