<?xml version="1.0" encoding="UTF-8"?><svg fill="currentColor" xmlns="http://www.w3.org/2000/svg" viewBox="0 0 24 24"><g id="o"><g><path d="M19,2.25h-.25v1.75c0,.96-.79,1.75-1.75,1.75h-2c-.96,0-1.75-.79-1.75-1.75v-1.75h-.25c-1.52,0-2.75,1.23-2.75,2.75v4.25h2.04c-.09-.26-.03-.57,.18-.78,.29-.29,.77-.29,1.06,0l1,1c.21,.21,.28,.54,.16,.82s-.39,.46-.69,.46h-3.75v1.5h3.75c.41,0,.75,.34,.75,.75s-.34,.75-.75,.75h-3.75v5.25c0,1.52,1.23,2.75,2.75,2.75h6c1.52,0,2.75-1.23,2.75-2.75V5c0-1.52-1.23-2.75-2.75-2.75Zm-2,16.5h-2c-.41,0-.75-.34-.75-.75s.34-.75,.75-.75h2c.41,0,.75,.34,.75,.75s-.34,.75-.75,.75Z"/><path d="M15,4.25h2c.14,0,.25-.11,.25-.25v-1.75h-2.5v1.75c0,.14,.11,.25,.25,.25Z"/><path d="M8.75,14.7c-.1-.04-.2-.09-.28-.17l-1-1c-.21-.21-.28-.54-.16-.82s.39-.46,.69-.46h.75v-1.5h-.75c-.41,0-.75-.34-.75-.75s.34-.75,.75-.75h.75V5c0-.26,.03-.51,.08-.75h-3.83c-1.52,0-2.75,1.23-2.75,2.75v11c0,1.52,1.23,2.75,2.75,2.75h4.14c-.24-.54-.39-1.12-.39-1.75v-4.3Zm-1.75,3.05h-1c-.41,0-.75-.34-.75-.75s.34-.75,.75-.75h1c.41,0,.75,.34,.75,.75s-.34,.75-.75,.75Z"/></g></g></svg>