<?xml version="1.0" encoding="UTF-8"?><svg fill="currentColor" xmlns="http://www.w3.org/2000/svg" viewBox="0 0 24 24"><g id="m"><g><path d="M19,9.25H5c-1.52,0-2.75,1.23-2.75,2.75v6c0,1.52,1.23,2.75,2.75,2.75h14c1.52,0,2.75-1.23,2.75-2.75v-.25h-1.75c-.96,0-1.75-.79-1.75-1.75v-2c0-.96,.79-1.75,1.75-1.75h1.75v-.25c0-1.52-1.23-2.75-2.75-2.75Zm-12.25,6.75c0,.41-.34,.75-.75,.75s-.75-.34-.75-.75v-2c0-.41,.34-.75,.75-.75s.75,.34,.75,.75v2Z"/><path d="M19.75,14v2c0,.14,.11,.25,.25,.25h1.75v-2.5h-1.75c-.14,0-.25,.11-.25,.25Z"/><path d="M5.33,7.34c.13,.26,.39,.41,.67,.41,.08,0,.16-.01,.24-.04l3-1c.39-.13,.61-.56,.47-.95-.13-.39-.55-.61-.95-.47l-.93,.31c.37-.94,1.98-1.85,4.17-1.85s3.8,.91,4.17,1.85l-.93-.31c-.4-.13-.82,.08-.95,.47-.13,.39,.08,.82,.47,.95l3,1c.08,.03,.16,.04,.24,.04,.28,0,.54-.15,.67-.41l1-2c.19-.37,.04-.82-.34-1.01-.37-.18-.82-.03-1.01,.34l-.59,1.18c-.12-2.03-2.59-3.6-5.74-3.6s-5.62,1.57-5.74,3.6l-.59-1.18c-.19-.37-.64-.52-1.01-.34-.37,.19-.52,.64-.34,1.01l1,2Z"/></g></g></svg>