<?xml version="1.0" encoding="UTF-8"?><svg fill="currentColor" xmlns="http://www.w3.org/2000/svg" viewBox="0 0 24 24"><g id="u"><g><path d="M10,5.25H4c-.96,0-1.75,.79-1.75,1.75v12c0,.96,.79,1.75,1.75,1.75h6c.96,0,1.75-.79,1.75-1.75V7c0-.96-.79-1.75-1.75-1.75Zm-2,12.5h-2c-.41,0-.75-.34-.75-.75s.34-.75,.75-.75h2c.41,0,.75,.34,.75,.75s-.34,.75-.75,.75Z"/><path d="M19.56,7.36c-.71-.2-1.45-.12-2.09,.24-.64,.36-1.11,.94-1.31,1.65-.11,.4,.12,.81,.52,.93,.07,.02,.14,.03,.21,.03,.33,0,.63-.21,.72-.54,.09-.32,.3-.59,.59-.75,.29-.16,.63-.2,.95-.11,.4,.11,.81-.12,.93-.52,.11-.4-.12-.81-.52-.93Z"/><path d="M13.79,9.35c.07,.02,.14,.03,.21,.03,.33,0,.63-.21,.72-.54,.64-2.25,3-3.56,5.25-2.92,.4,.11,.81-.12,.93-.52s-.12-.81-.52-.93c-3.05-.87-6.24,.9-7.11,3.95-.11,.4,.12,.81,.52,.93Z"/><path d="M19.75,14.37v-3.37c0-.41-.34-.75-.75-.75s-.75,.34-.75,.75v3.25h-5v4.75c0,.65-.19,1.24-.52,1.75h6.27c1.52,0,2.75-1.23,2.75-2.75v-1c0-1.25-.85-2.3-2-2.63Z"/></g></g></svg>