<svg fill="currentColor" xmlns="http://www.w3.org/2000/svg" viewBox="0 0 32 32"><g id="cable"><path d="M16,2A14,14,0,1,0,30,16,14,14,0,0,0,16,2Zm3,16v1a3,3,0,0,1-6,0V18ZM17,28V23.9A5,5,0,0,0,21,19V17a1,1,0,0,0-1-1H19V14a1,1,0,0,0-2,0v2H15V14a1,1,0,0,0-2,0v2H12a1,1,0,0,0-1,1v2a5,5,0,0,0,4,4.9V28a12,12,0,1,1,2,0Z"/><path d="M16,6A11.11,11.11,0,0,0,9.4,8.2a1,1,0,0,0,1.2,1.6,9,9,0,0,1,10.8,0,1,1,0,0,0,.6.2,1,1,0,0,0,.8-.4,1,1,0,0,0-.2-1.4A11.11,11.11,0,0,0,16,6Z"/><path d="M16,9a6,6,0,0,0-3.6,1.2,1,1,0,0,0,1.2,1.6,4,4,0,0,1,4.8,0,1,1,0,0,0,.6.2,1,1,0,0,0,.8-.4,1,1,0,0,0-.2-1.4A6.07,6.07,0,0,0,16,9Z"/></g></svg>