<svg fill="currentColor" xmlns="http://www.w3.org/2000/svg" viewBox="0 0 32 32"><g id="cleaning_robot" data-name="cleaning robot"><path d="M16,2A14,14,0,1,0,30,16,14,14,0,0,0,16,2Zm0,26A12,12,0,1,1,28,16,12,12,0,0,1,16,28Z"/><path d="M20.88,9H11.13A2.13,2.13,0,0,0,9,11.13v1.75A2.12,2.12,0,0,0,11.13,15h9.75A2.12,2.12,0,0,0,23,12.88V11.13A2.12,2.12,0,0,0,20.88,9ZM21,12.88a.13.13,0,0,1-.12.12H11.13a.13.13,0,0,1-.13-.12V11.13a.13.13,0,0,1,.13-.13h9.75a.13.13,0,0,1,.12.13Z"/><path d="M16,17a11.11,11.11,0,0,0-6.6,2.2,1,1,0,0,0,1.2,1.6,9,9,0,0,1,10.8,0,1,1,0,0,0,.6.2,1,1,0,0,0,.8-.4,1,1,0,0,0-.2-1.4A11.11,11.11,0,0,0,16,17Z"/><path d="M16,20a6,6,0,0,0-3.6,1.2,1,1,0,0,0,1.2,1.6,4,4,0,0,1,4.8,0,1,1,0,0,0,.6.2,1,1,0,0,0,.8-.4,1,1,0,0,0-.2-1.4A6.07,6.07,0,0,0,16,20Z"/></g></svg>