<svg fill="currentColor" xmlns="http://www.w3.org/2000/svg" viewBox="0 0 32 32"><g id="digital_clock" data-name="digital clock"><path d="M27,11H5a3,3,0,0,0-3,3v9a3,3,0,0,0,3,3v2a1,1,0,0,0,2,0V26H25v2a1,1,0,0,0,2,0V26a3,3,0,0,0,3-3V14A3,3,0,0,0,27,11Zm1,12a1,1,0,0,1-1,1H5a1,1,0,0,1-1-1V14a1,1,0,0,1,1-1H27a1,1,0,0,1,1,1Z"/><path d="M19,15H16a1,1,0,0,0-1,1v5a1,1,0,0,0,1,1h3a1,1,0,0,0,1-1V16A1,1,0,0,0,19,15Zm-1,5H17V17h1Z"/><path d="M25,15H22a1,1,0,0,0-1,1v5a1,1,0,0,0,1,1h3a1,1,0,0,0,1-1V16A1,1,0,0,0,25,15Zm-1,5H23V17h1Z"/><path d="M10,15H7a1,1,0,0,0-1,1v5a1,1,0,0,0,1,1h3a1,1,0,0,0,1-1V16A1,1,0,0,0,10,15ZM9,20H8V17H9Z"/><path d="M13,16h0a1,1,0,1,0,1,1A1,1,0,0,0,13,16Z"/><path d="M13,19h0a1,1,0,1,0,1,1A1,1,0,0,0,13,19Z"/><path d="M10,7a1,1,0,0,0,.6-.2,9,9,0,0,1,10.8,0,1,1,0,1,0,1.2-1.6,11,11,0,0,0-13.2,0,1,1,0,0,0-.2,1.4A1,1,0,0,0,10,7Z"/><path d="M12.4,7.2a1,1,0,0,0,1.2,1.6,4,4,0,0,1,4.8,0A1,1,0,0,0,19,9a1,1,0,0,0,.8-.4,1,1,0,0,0-.2-1.4,6,6,0,0,0-7.2,0Z"/></g></svg>