<svg fill="currentColor" xmlns="http://www.w3.org/2000/svg" viewBox="0 0 32 32"><g id="door"><path d="M25,24a1,1,0,0,0-1,1v2a1,1,0,0,1-1,1H11.16l1.46-.49A3.47,3.47,0,0,0,15,24.22V7.78a3.47,3.47,0,0,0-2.38-3.29L11.16,4H23a1,1,0,0,1,1,1V7a1,1,0,0,0,2,0V5a3,3,0,0,0-3-3H4.87A3,3,0,0,0,2,5V27a3,3,0,0,0,2.94,3H23a3,3,0,0,0,3-3V25A1,1,0,0,0,25,24ZM4,5a1,1,0,0,1,.91-1L12,6.38a1.49,1.49,0,0,1,1,1.4V24.22a1.48,1.48,0,0,1-1,1.4L4.91,28A1,1,0,0,1,4,27Z"/><path d="M27.8,9.4a1,1,0,0,0-1.6,1.2,9,9,0,0,1,0,10.8,1,1,0,0,0,.2,1.4,1,1,0,0,0,.6.2,1,1,0,0,0,.8-.4,11,11,0,0,0,0-13.2Z"/><path d="M24.4,19.8a1,1,0,0,0,.6.2,1,1,0,0,0,.8-.4,6,6,0,0,0,0-7.2,1,1,0,0,0-1.6,1.2,4,4,0,0,1,0,4.8A1,1,0,0,0,24.4,19.8Z"/><path d="M11,18a1,1,0,0,0,1-1V15a1,1,0,0,0-2,0v2A1,1,0,0,0,11,18Z"/></g></svg>