<svg fill="currentColor" xmlns="http://www.w3.org/2000/svg" viewBox="0 0 32 32"><g id="electric"><path d="M27,8.64,18.46,2.77a4.3,4.3,0,0,0-4.92,0L5,8.64a4.52,4.52,0,0,0-2,3.75V25.48A4.48,4.48,0,0,0,7.42,30H24.58A4.48,4.48,0,0,0,29,25.48V12.39A4.52,4.52,0,0,0,27,8.64Zm0,16.84A2.48,2.48,0,0,1,24.58,28H7.42A2.48,2.48,0,0,1,5,25.48V12.39a2.54,2.54,0,0,1,1.09-2.1l8.58-5.87a2.32,2.32,0,0,1,2.66,0l8.58,5.87A2.54,2.54,0,0,1,27,12.39Z"/><path d="M19,16H14.77l2.09-3.49a1,1,0,1,0-1.72-1l-3,5A1,1,0,0,0,13,18h4.23l-2.09,3.49a1,1,0,0,0,.35,1.37A1,1,0,0,0,16,23a1,1,0,0,0,.86-.49l3-5A1,1,0,0,0,19,16Z"/></g></svg>