<svg fill="currentColor" xmlns="http://www.w3.org/2000/svg" viewBox="0 0 32 32"><g id="home_setting" data-name="home setting"><path d="M27,7H5a3,3,0,0,0-3,3V22a3,3,0,0,0,3,3H27a3,3,0,0,0,3-3V10A3,3,0,0,0,27,7Zm1,15a1,1,0,0,1-1,1H5a1,1,0,0,1-1-1V10A1,1,0,0,1,5,9H27a1,1,0,0,1,1,1Z"/><path d="M11.63,11.22a1,1,0,0,0-1.25,0l-5,4a1,1,0,0,0-.16,1.4,1,1,0,0,0,1.41.16l.37-.3v2.24A2.28,2.28,0,0,0,9.28,21h3.44A2.28,2.28,0,0,0,15,18.72V16.48l.38.3A1,1,0,0,0,16,17a1,1,0,0,0,.78-.38,1,1,0,0,0-.15-1.4ZM13,15v3.72a.27.27,0,0,1-.28.28H9.28A.27.27,0,0,1,9,18.72V15s0-.07,0-.1l2-1.62,2,1.62S13,15,13,15Z"/><path d="M26,12H25a1,1,0,0,0-2,0H19a1,1,0,0,0,0,2h4a1,1,0,0,0,2,0h1a1,1,0,0,0,0-2Z"/><path d="M26,18H22a1,1,0,0,0-2,0H19a1,1,0,0,0,0,2h1a1,1,0,0,0,2,0h4a1,1,0,0,0,0-2Z"/></g></svg>