<svg fill="currentColor" xmlns="http://www.w3.org/2000/svg" viewBox="0 0 32 32"><g id="home_wifi" data-name="home wifi"><path d="M27,8.64,18.46,2.77a4.3,4.3,0,0,0-4.92,0L5,8.64a4.52,4.52,0,0,0-2,3.75V25.48A4.48,4.48,0,0,0,7.42,30H24.58A4.48,4.48,0,0,0,29,25.48V12.39A4.52,4.52,0,0,0,27,8.64Zm0,16.84A2.48,2.48,0,0,1,24.58,28H7.42A2.48,2.48,0,0,1,5,25.48V12.39a2.54,2.54,0,0,1,1.09-2.1l8.58-5.87a2.32,2.32,0,0,1,2.66,0l8.58,5.87A2.54,2.54,0,0,1,27,12.39Z"/><path d="M16,16a11.11,11.11,0,0,0-6.6,2.2,1,1,0,0,0,1.2,1.6,9,9,0,0,1,10.8,0,1,1,0,0,0,.6.2,1,1,0,0,0,.8-.4,1,1,0,0,0-.2-1.4A11.11,11.11,0,0,0,16,16Z"/><path d="M16,19a6,6,0,0,0-3.6,1.2,1,1,0,0,0,1.2,1.6,4,4,0,0,1,4.8,0,1,1,0,0,0,.6.2,1,1,0,0,0,.8-.4,1,1,0,0,0-.2-1.4A6.07,6.07,0,0,0,16,19Z"/><path d="M16,22h0a1,1,0,1,0,1,1A1,1,0,0,0,16,22Z"/></g></svg>