<svg fill="currentColor" xmlns="http://www.w3.org/2000/svg" viewBox="0 0 32 32"><g id="home_button" data-name="home button"><path d="M16,2A14,14,0,1,0,30,16,14,14,0,0,0,16,2Zm0,26A12,12,0,1,1,28,16,12,12,0,0,1,16,28Z"/><path d="M17.57,10.84a2.84,2.84,0,0,0-3.14,0l-5,3.33a1,1,0,0,0,1.1,1.66l.45-.29v3.62A2.85,2.85,0,0,0,13.84,22h4.32A2.85,2.85,0,0,0,21,19.16V15.54l.45.29A.94.94,0,0,0,22,16a1,1,0,0,0,.55-1.83ZM19,19.16a.85.85,0,0,1-.84.84H13.84a.85.85,0,0,1-.84-.84v-5l2.54-1.69a.81.81,0,0,1,.92,0L19,14.2Z"/></g></svg>