<svg fill="currentColor" xmlns="http://www.w3.org/2000/svg" viewBox="0 0 32 32"><g id="lamp"><path d="M19,2H5a1,1,0,0,0-1,.85l-2,13A1,1,0,0,0,3,17H4v5a1,1,0,0,0,2,0V17h5v7H8.84A2.85,2.85,0,0,0,6,26.84V29a1,1,0,0,0,1,1H17a1,1,0,0,0,1-1V26.84A2.85,2.85,0,0,0,15.16,24H13V17h8a1,1,0,0,0,1-1.15l-2-13A1,1,0,0,0,19,2ZM16,26.84V28H8V26.84A.85.85,0,0,1,8.84,26h6.32A.85.85,0,0,1,16,26.84ZM4.17,15,5.86,4H18.14l1.69,11Z"/><path d="M26.8,9.4a1,1,0,0,0-1.6,1.2,9,9,0,0,1,0,10.8,1,1,0,0,0,.2,1.4,1,1,0,0,0,.6.2,1,1,0,0,0,.8-.4,11,11,0,0,0,0-13.2Z"/><path d="M24.8,12.4a1,1,0,0,0-1.6,1.2,4,4,0,0,1,0,4.8,1,1,0,0,0,.2,1.4,1,1,0,0,0,.6.2,1,1,0,0,0,.8-.4,6,6,0,0,0,0-7.2Z"/></g></svg>