<svg fill="currentColor" xmlns="http://www.w3.org/2000/svg" viewBox="0 0 32 32"><g id="lock"><path d="M19.34,12H19V10A7,7,0,0,0,5,10v2H4.66A2.66,2.66,0,0,0,2,14.66V26.34A2.66,2.66,0,0,0,4.66,29H19.34A2.66,2.66,0,0,0,22,26.34V14.66A2.66,2.66,0,0,0,19.34,12ZM7,10a5,5,0,0,1,10,0v2H7ZM20,26.34a.65.65,0,0,1-.66.66H4.66A.65.65,0,0,1,4,26.34V14.66A.65.65,0,0,1,4.66,14H19.34a.65.65,0,0,1,.66.66Z"/><path d="M12,16a3,3,0,0,0-1,5.82V24a1,1,0,0,0,2,0V21.82A3,3,0,0,0,12,16Zm0,4a1,1,0,1,1,1-1A1,1,0,0,1,12,20Z"/><path d="M21.69,9A1,1,0,0,0,22,11a2.53,2.53,0,0,1,2.87,2.87A1,1,0,0,0,25.69,15h.14a1,1,0,0,0,1-.86,4.63,4.63,0,0,0-1.28-3.85A4.7,4.7,0,0,0,21.69,9Z"/><path d="M28.62,8.38A6.9,6.9,0,0,0,21.6,6,1,1,0,0,0,22.06,8a4.89,4.89,0,0,1,5,1.65,5.06,5.06,0,0,1,.82,4.13A1,1,0,0,0,28.59,15l.24,0a1,1,0,0,0,1-.75A7,7,0,0,0,28.62,8.38Z"/></g></svg>