<svg fill="currentColor" xmlns="http://www.w3.org/2000/svg" viewBox="0 0 32 32"><g id="mobile"><path d="M26.64,17H26V11.31A4.12,4.12,0,0,0,24.23,7.9l-7.5-5.2a3.88,3.88,0,0,0-4.46,0L4.77,7.9A4.12,4.12,0,0,0,3,11.31V22.89A4.06,4.06,0,0,0,7,27H20v.64A2.36,2.36,0,0,0,22.36,30h4.28A2.36,2.36,0,0,0,29,27.64V19.36A2.36,2.36,0,0,0,26.64,17ZM7,25a2.06,2.06,0,0,1-2-2.11V11.31a2.15,2.15,0,0,1,.9-1.77l7.51-5.2a1.91,1.91,0,0,1,2.18,0L23.1,9.54a2.15,2.15,0,0,1,.9,1.77V17H22.36A2.36,2.36,0,0,0,20,19.36V25Zm20,2.64a.36.36,0,0,1-.36.36H22.36a.36.36,0,0,1-.36-.36V19.36a.36.36,0,0,1,.36-.36h4.28a.36.36,0,0,1,.36.36Z"/><path d="M25,25H24a1,1,0,0,0,0,2h1a1,1,0,0,0,0-2Z"/></g></svg>