<svg fill="currentColor" xmlns="http://www.w3.org/2000/svg" viewBox="0 0 32 32"><g id="network"><path d="M27,8.64,18.46,2.77a4.3,4.3,0,0,0-4.92,0L5,8.64a4.52,4.52,0,0,0-2,3.75V25.48A4.48,4.48,0,0,0,7.42,30H24.58A4.48,4.48,0,0,0,29,25.48V12.39A4.52,4.52,0,0,0,27,8.64ZM16,13a1,1,0,1,1,1-1A1,1,0,0,1,16,13ZM27,25.48A2.48,2.48,0,0,1,24.58,28H17v-.38l5.45-2.73A1,1,0,0,0,23,24V20.82a3,3,0,1,0-2,0v2.56l-4,2V14.82a3,3,0,1,0-2,0v8.79l-4-1.33V20.82a3,3,0,1,0-2,0V23a1,1,0,0,0,.68.95L15,25.72V28H7.42A2.48,2.48,0,0,1,5,25.48V12.39a2.54,2.54,0,0,1,1.09-2.1l8.58-5.87a2.32,2.32,0,0,1,2.66,0l8.58,5.87A2.54,2.54,0,0,1,27,12.39ZM22,19a1,1,0,1,1,1-1A1,1,0,0,1,22,19ZM10,19a1,1,0,1,1,1-1A1,1,0,0,1,10,19Z"/></g></svg>