<svg fill="currentColor" xmlns="http://www.w3.org/2000/svg" viewBox="0 0 32 32"><g id="refrigerator"><path d="M18.5,2H5.5A3.5,3.5,0,0,0,2,5.5v19A3.5,3.5,0,0,0,5,28V29a1,1,0,0,0,2,0V28H17v1a1,1,0,0,0,2,0V28a3.5,3.5,0,0,0,3-3.45V5.5A3.5,3.5,0,0,0,18.5,2ZM5.5,4h13A1.5,1.5,0,0,1,20,5.5V12H4V5.5A1.5,1.5,0,0,1,5.5,4Zm13,22H5.5A1.5,1.5,0,0,1,4,24.5V14H20V24.5A1.5,1.5,0,0,1,18.5,26Z"/><path d="M7,10A1,1,0,0,0,8,9V7A1,1,0,0,0,6,7V9A1,1,0,0,0,7,10Z"/><path d="M7,16a1,1,0,0,0-1,1v2a1,1,0,0,0,2,0V17A1,1,0,0,0,7,16Z"/><path d="M27.8,8.4a1,1,0,0,0-1.6,1.2,9,9,0,0,1,0,10.8,1,1,0,0,0,.2,1.4,1,1,0,0,0,.6.2,1,1,0,0,0,.8-.4,11,11,0,0,0,0-13.2Z"/><path d="M25.8,11.4a1,1,0,0,0-1.6,1.2,4,4,0,0,1,0,4.8,1,1,0,0,0,.2,1.4,1,1,0,0,0,.6.2,1,1,0,0,0,.8-.4,6,6,0,0,0,0-7.2Z"/></g></svg>