<svg fill="currentColor" xmlns="http://www.w3.org/2000/svg" viewBox="0 0 32 32"><g id="remote"><path d="M26.17,8.14,18.31,2.72a4.07,4.07,0,0,0-4.62,0L5.83,8.14A4.27,4.27,0,0,0,4,11.67V23.75A4.2,4.2,0,0,0,8.14,28h4.42a4,4,0,0,0,6.88,0h4.42A4.2,4.2,0,0,0,28,23.75V11.67A4.27,4.27,0,0,0,26.17,8.14ZM16,28a2,2,0,0,1-2-2l-.06-6L18,19.94V26A2,2,0,0,1,16,28Zm10-4.25A2.2,2.2,0,0,1,23.86,26H20V19.94A1.94,1.94,0,0,0,18.06,18H13.94A1.94,1.94,0,0,0,12,19.94V26H8.14A2.2,2.2,0,0,1,6,23.75V11.67A2.27,2.27,0,0,1,7,9.79l7.86-5.42a2,2,0,0,1,2.34,0L25,9.79a2.27,2.27,0,0,1,1,1.88Z"/><path d="M16,22h0a1,1,0,1,0,1,1A1,1,0,0,0,16,22Z"/><path d="M16,10a11.11,11.11,0,0,0-6.6,2.2,1,1,0,0,0,1.2,1.6,9,9,0,0,1,10.8,0,1,1,0,0,0,.6.2,1,1,0,0,0,.8-.4,1,1,0,0,0-.2-1.4A11.11,11.11,0,0,0,16,10Z"/><path d="M16,13a6,6,0,0,0-3.6,1.2,1,1,0,0,0,1.2,1.6,4,4,0,0,1,4.8,0,1,1,0,0,0,.6.2,1,1,0,0,0,.8-.4,1,1,0,0,0-.2-1.4A6.07,6.07,0,0,0,16,13Z"/></g></svg>