<svg fill="currentColor" xmlns="http://www.w3.org/2000/svg" viewBox="0 0 32 32"><g id="router"><path d="M25,17H9V11a1,1,0,0,0-2,0v6H7a5,5,0,0,0-5,5V24a5,5,0,0,0,5,5H25a5,5,0,0,0,5-5V22A5,5,0,0,0,25,17Zm3,7a3,3,0,0,1-3,3H7a3,3,0,0,1-3-3V22a3,3,0,0,1,3-3H25a3,3,0,0,1,3,3Z"/><path d="M24,22H11a1,1,0,0,0,0,2H24a1,1,0,0,0,0-2Z"/><path d="M8,22H8a1,1,0,1,0,1,1A1,1,0,0,0,8,22Z"/><path d="M8.14,8.16a2.63,2.63,0,0,1,2.15.71A2.69,2.69,0,0,1,11,11a1,1,0,0,0,.85,1.14H12a1,1,0,0,0,1-.86,4.67,4.67,0,0,0-1.28-3.85A4.63,4.63,0,0,0,7.86,6.18,1,1,0,0,0,7,7.31,1,1,0,0,0,8.14,8.16Z"/><path d="M8.23,5.14a4.88,4.88,0,0,1,5,1.64A5.08,5.08,0,0,1,14,10.92a1,1,0,0,0,.72,1.22l.25,0a1,1,0,0,0,1-.76,7.05,7.05,0,0,0-1.18-5.86,6.9,6.9,0,0,0-7-2.36,1,1,0,0,0,.46,1.95Z"/></g></svg>