<svg fill="currentColor" xmlns="http://www.w3.org/2000/svg" viewBox="0 0 32 32"><g id="smartphone"><path d="M16.73,2H5.27A3.28,3.28,0,0,0,2,5.27V26.73A3.28,3.28,0,0,0,5.27,30H16.73A3.28,3.28,0,0,0,20,26.73V5.27A3.28,3.28,0,0,0,16.73,2ZM18,26.73A1.27,1.27,0,0,1,16.73,28H5.27A1.27,1.27,0,0,1,4,26.73V5.27A1.27,1.27,0,0,1,5.27,4H16.73A1.27,1.27,0,0,1,18,5.27Z"/><path d="M14.71,11.29h0l-3-3a1,1,0,0,0-1.42,0l-3,3h0l-2,2a1,1,0,0,0,1.42,1.42l.29-.3V16a2.91,2.91,0,0,0,2.91,2.91h2.18A2.91,2.91,0,0,0,15,16V14.41l.29.3a1,1,0,0,0,1.42,0,1,1,0,0,0,0-1.42ZM13,16a.91.91,0,0,1-.91.91H9.91A.91.91,0,0,1,9,16V12.41l2-2,2,2Z"/><path d="M12,24H10a1,1,0,0,0,0,2h2a1,1,0,0,0,0-2Z"/><path d="M21.69,9.18a1,1,0,0,0-.85,1.13,1,1,0,0,0,1.13.85,2.66,2.66,0,0,1,2.16.71A2.7,2.7,0,0,1,24.84,14a1,1,0,0,0,.85,1.14h.14a1,1,0,0,0,1-.86,4.53,4.53,0,0,0-5.13-5.13Z"/><path d="M28.62,8.55a6.9,6.9,0,0,0-7-2.36,1,1,0,0,0-.74,1.21,1,1,0,0,0,1.2.74,4.9,4.9,0,0,1,5,1.64,5.08,5.08,0,0,1,.82,4.14,1,1,0,0,0,.73,1.22l.24,0a1,1,0,0,0,1-.76A7,7,0,0,0,28.62,8.55Z"/></g></svg>