<svg fill="currentColor" xmlns="http://www.w3.org/2000/svg" viewBox="0 0 32 32"><g id="switch"><path d="M17.89,8H7.11A3.11,3.11,0,0,0,4,11.11V26.89A3.11,3.11,0,0,0,7.11,30H17.89A3.11,3.11,0,0,0,21,26.89V11.11A3.11,3.11,0,0,0,17.89,8ZM19,26.89A1.11,1.11,0,0,1,17.89,28H7.11A1.11,1.11,0,0,1,6,26.89V11.11A1.11,1.11,0,0,1,7.11,10H17.89A1.11,1.11,0,0,1,19,11.11Z"/><path d="M15,12H10a1,1,0,0,0-1,1V25a1,1,0,0,0,1,1h5a1,1,0,0,0,1-1V13A1,1,0,0,0,15,12Zm-1,2v4H11V14ZM11,24V20h3v4Z"/><path d="M20.69,5.18a1,1,0,1,0,.29,2,2.66,2.66,0,0,1,2.15.71A2.7,2.7,0,0,1,23.84,10a1,1,0,0,0,.85,1.14h.14a1,1,0,0,0,1-.86,4.53,4.53,0,0,0-5.13-5.13Z"/><path d="M27.62,4.55a6.92,6.92,0,0,0-7-2.36,1,1,0,0,0,.46,1.95,4.88,4.88,0,0,1,5,1.64,5,5,0,0,1,.82,4.14,1,1,0,0,0,.73,1.22l.24,0a1,1,0,0,0,1-.76A7,7,0,0,0,27.62,4.55Z"/></g></svg>