<svg fill="currentColor" xmlns="http://www.w3.org/2000/svg" viewBox="0 0 32 32"><g id="television"><path d="M25.12,10H6.88A2.88,2.88,0,0,0,4,12.88V23.12A2.88,2.88,0,0,0,6.88,26H11.1a2.72,2.72,0,0,1-.08.78A3.45,3.45,0,0,1,10.5,28H10a1,1,0,0,0,0,2H22a1,1,0,0,0,0-2h-.5A3.45,3.45,0,0,1,21,26.78,2.72,2.72,0,0,1,20.9,26h4.22A2.88,2.88,0,0,0,28,23.12V12.88A2.88,2.88,0,0,0,25.12,10ZM19,27.22a5.4,5.4,0,0,0,.24.78H12.74a5.4,5.4,0,0,0,.24-.78A6.24,6.24,0,0,0,13.11,26h5.78A6.24,6.24,0,0,0,19,27.22Zm7-4.1a.89.89,0,0,1-.88.88H6.88A.89.89,0,0,1,6,23.12V12.88A.89.89,0,0,1,6.88,12H25.12a.89.89,0,0,1,.88.88Z"/><path d="M10.6,5.8a9,9,0,0,1,10.8,0A1,1,0,0,0,22,6a1,1,0,0,0,.8-.4,1,1,0,0,0-.2-1.4,11,11,0,0,0-13.2,0,1,1,0,1,0,1.2,1.6Z"/><path d="M12.4,6.2a1,1,0,1,0,1.2,1.6,4,4,0,0,1,4.8,0A1,1,0,0,0,19,8a1,1,0,0,0,.8-.4,1,1,0,0,0-.2-1.4,6,6,0,0,0-7.2,0Z"/></g></svg>