<svg fill="currentColor" xmlns="http://www.w3.org/2000/svg" viewBox="0 0 32 32"><g id="warehouse"><path d="M23.24,10.9,15.73,5.7a3.88,3.88,0,0,0-4.46,0l-7.5,5.2A4.12,4.12,0,0,0,2,14.31V25.89A4.06,4.06,0,0,0,6,30H21a4.06,4.06,0,0,0,4-4.11V14.31A4.14,4.14,0,0,0,23.24,10.9ZM8,22H19v2H8Zm11-2H8V18H19ZM8,28V26H19v2Zm15-2.11A2.06,2.06,0,0,1,21,28h0V17a1,1,0,0,0-1-1H7a1,1,0,0,0-1,1V28H6a2.06,2.06,0,0,1-2-2.11V14.31a2.15,2.15,0,0,1,.9-1.77l7.51-5.2A2,2,0,0,1,13.5,7a1.91,1.91,0,0,1,1.09.35l7.51,5.19a2.15,2.15,0,0,1,.9,1.77Z"/><path d="M21.69,5.18a1,1,0,0,0-.85,1.13A1,1,0,0,0,22,7.16a2.66,2.66,0,0,1,2.16.71A2.7,2.7,0,0,1,24.84,10a1,1,0,0,0,.85,1.14h.14a1,1,0,0,0,1-.86,4.53,4.53,0,0,0-5.13-5.13Z"/><path d="M28.62,4.55a6.9,6.9,0,0,0-7-2.36,1,1,0,0,0-.74,1.21,1,1,0,0,0,1.2.74,4.9,4.9,0,0,1,5,1.64,5.08,5.08,0,0,1,.82,4.14,1,1,0,0,0,.73,1.22l.24,0a1,1,0,0,0,1-.76A7,7,0,0,0,28.62,4.55Z"/></g></svg>