<svg fill="currentColor" xmlns="http://www.w3.org/2000/svg" viewBox="0 0 32 32"><g id="wifi"><path d="M16,10a11.34,11.34,0,0,0-8.8,4.4,1,1,0,1,0,1.6,1.2A9.44,9.44,0,0,1,16,12a9.42,9.42,0,0,1,7.2,3.6,1,1,0,0,0,.8.4,1,1,0,0,0,.6-.2,1,1,0,0,0,.2-1.4A11.31,11.31,0,0,0,16,10Z"/><path d="M16,14a6.64,6.64,0,0,0-5.88,3.53,1,1,0,0,0,1.76.94,4.67,4.67,0,0,1,8.24,0,1,1,0,1,0,1.76-.94A6.64,6.64,0,0,0,16,14Z"/><path d="M26.18,4H5.82A3.82,3.82,0,0,0,2,7.82V24.18A3.82,3.82,0,0,0,5.82,28H26.18A3.82,3.82,0,0,0,30,24.18V7.82A3.82,3.82,0,0,0,26.18,4ZM28,24.18A1.83,1.83,0,0,1,26.18,26H5.82A1.83,1.83,0,0,1,4,24.18V7.82A1.83,1.83,0,0,1,5.82,6H26.18A1.83,1.83,0,0,1,28,7.82Z"/><path d="M16,18a3.6,3.6,0,0,0-2.8,1.4,1,1,0,1,0,1.6,1.2,1.5,1.5,0,0,1,2.4,0,1,1,0,0,0,.8.4,1,1,0,0,0,.6-.2,1,1,0,0,0,.2-1.4A3.61,3.61,0,0,0,16,18Z"/></g></svg>