<svg fill="currentColor" xmlns="http://www.w3.org/2000/svg" viewBox="0 0 32 32"><g id="world"><path d="M19.8,12h3.74A10,10,0,0,1,24,15a1,1,0,0,0,2,0A12,12,0,0,0,15.37,3.08a1,1,0,0,0-.6,0c-.25,0-.51,0-.77,0s-.52,0-.78,0a1,1,0,0,0-.6,0,12,12,0,1,0,5.74,23.09,1,1,0,1,0-.72-1.86,8.58,8.58,0,0,1-1.09.34A16.75,16.75,0,0,0,20,15,15.61,15.61,0,0,0,19.8,12ZM18,15a14.19,14.19,0,0,1-.43,3H10.44A13.57,13.57,0,0,1,10,15a14.84,14.84,0,0,1,.21-3h7.57A14.14,14.14,0,0,1,18,15ZM4,15a10,10,0,0,1,.46-3H8.19A16.44,16.44,0,0,0,8,15a15.33,15.33,0,0,0,.39,3H4.46A10,10,0,0,1,4,15ZM14,5c.19,0,.37,0,.55,0a15.52,15.52,0,0,1,2.73,5H10.72a15.34,15.34,0,0,1,2.72-5C13.63,5,13.81,5,14,5Zm8.65,5H19.37a17.06,17.06,0,0,0-1.95-4.38A10.07,10.07,0,0,1,22.65,10ZM10.57,5.62a17.06,17.06,0,0,0-2,4.38H5.35A10,10,0,0,1,10.57,5.62ZM5.35,20H8.94a16.78,16.78,0,0,0,2.5,4.65A10,10,0,0,1,5.35,20ZM14,25h0a1,1,0,0,0-.24-.66A15.47,15.47,0,0,1,11.09,20h5.82a15.68,15.68,0,0,1-2.67,4.34A1,1,0,0,0,14,25Z"/><path d="M30,20.93c0-.07,0-.13,0-.2l-.06-.17a.83.83,0,0,0-.11-.15.7.7,0,0,0-.14-.16s0,0,0-.05l-4-3a1,1,0,0,0-1.2,0l-4,3s0,0,0,.05a.7.7,0,0,0-.14.16.83.83,0,0,0-.11.15l-.06.17c0,.07,0,.13,0,.2S20,21,20,21v5.86A2.14,2.14,0,0,0,22.14,29h5.72A2.14,2.14,0,0,0,30,26.86V21S30,21,30,20.93ZM27.86,27H22.14a.14.14,0,0,1-.14-.14V21.5l3-2.25,3,2.25v5.36A.14.14,0,0,1,27.86,27Z"/></g></svg>