<?xml version="1.0" encoding="UTF-8"?><svg fill="currentColor" xmlns="http://www.w3.org/2000/svg" viewBox="0 0 24 24"><g id="o"><g><path d="M19,3.25H5c-1.52,0-2.75,1.23-2.75,2.75v12c0,1.52,1.23,2.75,2.75,2.75h14c1.52,0,2.75-1.23,2.75-2.75V6c0-1.52-1.23-2.75-2.75-2.75Zm-14,1.5h14c.69,0,1.25,.56,1.25,1.25v1.25H3.75v-1.25c0-.69,.56-1.25,1.25-1.25Zm14,14.5H5c-.69,0-1.25-.56-1.25-1.25V8.75H20.25v9.25c0,.69-.56,1.25-1.25,1.25Z"/><path d="M17,11.25H7c-.41,0-.75,.34-.75,.75s.34,.75,.75,.75h10c.41,0,.75-.34,.75-.75s-.34-.75-.75-.75Z"/><path d="M18.02,6.75c.41,0,.75-.34,.75-.75s-.34-.75-.75-.75h-.01c-.41,0-.74,.34-.74,.75s.34,.75,.75,.75Z"/><path d="M12,15.25H7c-.41,0-.75,.34-.75,.75s.34,.75,.75,.75h5c.41,0,.75-.34,.75-.75s-.34-.75-.75-.75Z"/></g></g></svg>