<?xml version="1.0" encoding="UTF-8"?><svg fill="currentColor" xmlns="http://www.w3.org/2000/svg" viewBox="0 0 24 24"><g id="d"><g><path d="M19.45,17.6s.03-.03,.04-.04c.02-.02,.05-.04,.07-.07,.04-.05,.07-.09,.1-.15,.01-.03,.03-.05,.04-.08,.03-.08,.05-.16,.05-.25h0V4c0-.96-.79-1.75-1.75-1.75H6c-1.52,0-2.75,1.23-2.75,2.75v14c0,1.52,1.23,2.75,2.75,2.75h13c.32,0,.61-.21,.71-.51s0-.64-.26-.84c-.07-.05-.7-.55-.7-1.4,0-.09,.02-.89,.7-1.4ZM6,3.75h12c.14,0,.25,.11,.25,.25v12.25H6c-.45,0-.87,.12-1.25,.31V5c0-.69,.56-1.25,1.25-1.25Zm11.51,16.5H6c-.69,0-1.25-.56-1.25-1.25s.56-1.25,1.25-1.25h11.51c-.24,.58-.26,1.1-.26,1.25,0,.48,.11,.9,.26,1.25Z"/><path d="M9,8.75h5c.41,0,.75-.34,.75-.75s-.34-.75-.75-.75h-5c-.41,0-.75,.34-.75,.75s.34,.75,.75,.75Z"/></g></g></svg>