<?xml version="1.0" encoding="UTF-8"?><svg fill="currentColor" xmlns="http://www.w3.org/2000/svg" viewBox="0 0 24 24"><g id="i"><path d="M17,2.25H7c-2.62,0-4.75,2.13-4.75,4.75v10c0,2.62,2.13,4.75,4.75,4.75h10c2.62,0,4.75-2.13,4.75-4.75V7c0-2.62-2.13-4.75-4.75-4.75ZM7,3.75h10c1.79,0,3.25,1.46,3.25,3.25v6.25h-2.81c-1.19,0-2.23,.76-2.61,1.88l-.09,.26c-.17,.51-.65,.85-1.19,.85h-3.12c-.54,0-1.02-.34-1.19-.85l-.09-.27c-.38-1.12-1.42-1.88-2.61-1.88H3.75V7c0-1.79,1.46-3.25,3.25-3.25Zm10,16.5H7c-1.79,0-3.25-1.46-3.25-3.25v-2.25h2.81c.54,0,1.02,.34,1.19,.85l.09,.27c.38,1.12,1.42,1.88,2.61,1.88h3.12c1.19,0,2.23-.76,2.61-1.88l.09-.26c.17-.51,.65-.85,1.19-.85h2.81v2.25c0,1.79-1.46,3.25-3.25,3.25Z"/></g></svg>