<?xml version="1.0" encoding="UTF-8"?><svg fill="currentColor" xmlns="http://www.w3.org/2000/svg" viewBox="0 0 24 24"><g id="s"><path d="M18,2.25H7c-1.52,0-2.75,1.23-2.75,2.75v14c0,1.52,1.23,2.75,2.75,2.75h11c1.52,0,2.75-1.23,2.75-2.75V5c0-1.52-1.23-2.75-2.75-2.75Zm-1.75,1.5v3.44l-.72-.72c-.15-.15-.34-.22-.53-.22s-.38,.07-.53,.22l-.72,.72V3.75h2.5Zm3,15.25c0,.69-.56,1.25-1.25,1.25H7c-.69,0-1.25-.56-1.25-1.25V5c0-.69,.56-1.25,1.25-1.25h5.25v5.25c0,.3,.18,.58,.46,.69,.28,.12,.6,.05,.82-.16l1.47-1.47,1.47,1.47c.14,.14,.33,.22,.53,.22,.1,0,.19-.02,.29-.06,.28-.12,.46-.39,.46-.69V3.75h.25c.69,0,1.25,.56,1.25,1.25v14Z"/></g></svg>