<?xml version="1.0" encoding="UTF-8"?><svg fill="currentColor" xmlns="http://www.w3.org/2000/svg" viewBox="0 0 24 24"><g id="u"><g><path d="M19,4.25H5c-1.52,0-2.75,1.23-2.75,2.75V15c0,1.52,1.23,2.75,2.75,2.75h6.65c.06,0,.11,.02,.16,.05l4.73,3.78c.14,.11,.3,.16,.47,.16,.11,0,.22-.02,.32-.07,.26-.12,.43-.39,.43-.68v-3c0-.14,.11-.25,.25-.25h1c1.52,0,2.75-1.23,2.75-2.75V7c0-1.52-1.23-2.75-2.75-2.75Zm1.25,10.75c0,.69-.56,1.25-1.25,1.25h-1c-.96,0-1.75,.79-1.75,1.75v1.44l-3.51-2.81c-.31-.25-.7-.38-1.09-.38H5c-.69,0-1.25-.56-1.25-1.25V7c0-.69,.56-1.25,1.25-1.25h14c.69,0,1.25,.56,1.25,1.25V15Z"/><path d="M17,8.25H7c-.41,0-.75,.34-.75,.75s.34,.75,.75,.75h10c.41,0,.75-.34,.75-.75s-.34-.75-.75-.75Z"/><path d="M13,12.25H7c-.41,0-.75,.34-.75,.75s.34,.75,.75,.75h6c.41,0,.75-.34,.75-.75s-.34-.75-.75-.75Z"/></g></g></svg>