<?xml version="1.0" encoding="UTF-8"?><svg fill="currentColor" xmlns="http://www.w3.org/2000/svg" viewBox="0 0 24 24"><g id="r"><g><path d="M19.75,10.3V5c0-1.52-1.23-2.75-2.75-2.75H7c-1.52,0-2.75,1.23-2.75,2.75v14c0,1.52,1.23,2.75,2.75,2.75h10c1.52,0,2.75-1.23,2.75-2.75v-4.3c.57-.12,1-.6,1-1.2v-2c0-.6-.43-1.08-1-1.2Zm-2.25,2.95c-.41,0-.75-.34-.75-.75s.34-.75,.75-.75h1.75v1.5h-1.75Zm-.5,7H7c-.69,0-1.25-.56-1.25-1.25V5c0-.69,.56-1.25,1.25-1.25h10c.69,0,1.25,.56,1.25,1.25v5.25h-.75c-1.24,0-2.25,1.01-2.25,2.25s1.01,2.25,2.25,2.25h.75v4.25c0,.69-.56,1.25-1.25,1.25Z"/><path d="M14,7.25h-4c-.41,0-.75,.34-.75,.75s.34,.75,.75,.75h4c.41,0,.75-.34,.75-.75s-.34-.75-.75-.75Z"/></g></g></svg>