<?xml version="1.0" encoding="UTF-8"?><svg fill="currentColor" xmlns="http://www.w3.org/2000/svg" viewBox="0 0 24 24"><g id="j"><g><path d="M17,2.25H7c-1.52,0-2.75,1.23-2.75,2.75v14c0,1.52,1.23,2.75,2.75,2.75h7.17c.73,0,1.43-.29,1.94-.81l2.83-2.83c.52-.52,.81-1.21,.81-1.94V5c0-1.52-1.23-2.75-2.75-2.75ZM5.75,19V5c0-.69,.56-1.25,1.25-1.25h10c.69,0,1.25,.56,1.25,1.25V15.25h-3.25c-.96,0-1.75,.79-1.75,1.75v3.25H7c-.69,0-1.25-.56-1.25-1.25Zm9.31,.88c-.09,.09-.2,.15-.31,.2v-3.09c0-.14,.11-.25,.25-.25h3.09c-.06,.11-.12,.22-.2,.31l-2.83,2.83Z"/><path d="M9,9.75h6c.41,0,.75-.34,.75-.75s-.34-.75-.75-.75h-6c-.41,0-.75,.34-.75,.75s.34,.75,.75,.75Z"/><path d="M12,12.25h-3c-.41,0-.75,.34-.75,.75s.34,.75,.75,.75h3c.41,0,.75-.34,.75-.75s-.34-.75-.75-.75Z"/></g></g></svg>