<?xml version="1.0" encoding="UTF-8"?><svg fill="currentColor" xmlns="http://www.w3.org/2000/svg" viewBox="0 0 24 24"><g id="k"><path d="M20.7,5.85h0c-.47-.37-1.05-.6-1.69-.6H5c-1.52,0-2.75,1.23-2.75,2.75v7c0,1.52,1.23,2.75,2.75,2.75h14c1.52,0,2.75-1.23,2.75-2.75v-7c0-.87-.42-1.64-1.05-2.15Zm-8.01,4.78c-.42,.28-.97,.28-1.39,0l-5.83-3.89h13.05l-5.83,3.89Zm7.56,4.36c0,.69-.56,1.25-1.25,1.25H5c-.69,0-1.25-.56-1.25-1.25v-7c0-.19,.05-.36,.12-.52l4.55,3.04-2.95,2.95c-.29,.29-.29,.77,0,1.06,.15,.15,.34,.22,.53,.22s.38-.07,.53-.22l3-3c.06-.06,.09-.12,.13-.19l.82,.55c.46,.31,.99,.46,1.52,.46s1.06-.15,1.53-.46l.82-.55c.03,.07,.07,.13,.13,.19l3,3c.15,.15,.34,.22,.53,.22s.38-.07,.53-.22c.29-.29,.29-.77,0-1.06l-2.95-2.95,4.55-3.04c.07,.16,.12,.33,.12,.52v7Z"/></g></svg>