<?xml version="1.0" encoding="UTF-8"?><svg fill="currentColor" xmlns="http://www.w3.org/2000/svg" viewBox="0 0 24 24"><g id="l"><g><path d="M20,13.25h-.25V4c0-.96-.79-1.75-1.75-1.75H6c-.96,0-1.75,.79-1.75,1.75V13.25h-.25c-.96,0-1.75,.79-1.75,1.75v4c0,1.52,1.23,2.75,2.75,2.75h14c1.52,0,2.75-1.23,2.75-2.75v-4c0-.96-.79-1.75-1.75-1.75ZM5.75,4c0-.14,.11-.25,.25-.25h12c.14,0,.25,.11,.25,.25V13.25h-.75c-1.24,0-2.25,1.01-2.25,2.25,0,.41-.34,.75-.75,.75h-5c-.41,0-.75-.34-.75-.75,0-1.24-1.01-2.25-2.25-2.25h-.75V4Zm14.5,15c0,.69-.56,1.25-1.25,1.25H5c-.69,0-1.25-.56-1.25-1.25v-4c0-.14,.11-.25,.25-.25h2.5c.41,0,.75,.34,.75,.75,0,1.24,1.01,2.25,2.25,2.25h5c1.24,0,2.25-1.01,2.25-2.25,0-.41,.34-.75,.75-.75h2.5c.14,0,.25,.11,.25,.25v4Z"/><path d="M9,7.75h6c.41,0,.75-.34,.75-.75s-.34-.75-.75-.75h-6c-.41,0-.75,.34-.75,.75s.34,.75,.75,.75Z"/><path d="M9,11.75h3c.41,0,.75-.34,.75-.75s-.34-.75-.75-.75h-3c-.41,0-.75,.34-.75,.75s.34,.75,.75,.75Z"/></g></g></svg>