<?xml version="1.0" encoding="UTF-8"?><svg fill="currentColor" xmlns="http://www.w3.org/2000/svg" viewBox="0 0 24 24"><g id="q"><path d="M21.79,12.12c-.32-.55-.88-.87-1.51-.87H8.16c-.98,0-1.9,.53-2.39,1.39l-2.02,3.54V8c0-.69,.56-1.25,1.25-1.25h3.17c.33,0,.65,.13,.88,.37l1.12,1.12c.33,.33,.78,.51,1.24,.51h6.59c.41,0,.75-.34,.75-.75s-.34-.75-.75-.75h-6.59c-.07,0-.13-.03-.18-.07l-1.12-1.12c-.52-.52-1.21-.81-1.94-.81h-3.17c-1.52,0-2.75,1.23-2.75,2.75v11h0c0,.13,.04,.24,.09,.34,0,.01,0,.02,0,.04,.01,.02,.03,.03,.04,.04,.05,.07,.11,.13,.18,.18,.03,.02,.05,.04,.08,.05,.1,.05,.21,.09,.34,.09h14.42c.63,0,1.21-.34,1.52-.88l2.86-5c.31-.55,.31-1.2,0-1.75Zm-1.3,1l-2.86,5c-.04,.08-.13,.13-.22,.13H4.29l2.78-4.87c.22-.39,.64-.63,1.09-.63h12.12c.13,0,.19,.08,.22,.13,.03,.05,.06,.14,0,.25Z"/></g></svg>