<?xml version="1.0" encoding="UTF-8"?><svg fill="currentColor" xmlns="http://www.w3.org/2000/svg" viewBox="0 0 24 24"><g id="n"><g><path d="M21.72,2.81c-.07-.26-.27-.46-.53-.53-3.02-.8-6.05,.04-7.85,1.98H6c-2.07,0-3.75,1.68-3.75,3.75v10c0,2.07,1.68,3.75,3.75,3.75h10c2.07,0,3.75-1.68,3.75-3.75v-3c0-.41-.34-.75-.75-.75s-.75,.34-.75,.75v3c0,1.24-1.01,2.25-2.25,2.25H6c-1.24,0-2.25-1.01-2.25-2.25V8c0-1.24,1.01-2.25,2.25-2.25h6.3c-.94,1.97-.53,3.96-.16,5.06l-2.66,2.66c-.29,.29-.29,.77,0,1.06,.15,.15,.34,.22,.53,.22s.38-.07,.53-.22l2.66-2.66c.6,.2,1.46,.42,2.45,.42,.84,0,1.77-.16,2.7-.61,2.94-1.45,4.37-5.18,3.39-8.86Zm-7.31,7.84l2.12-2.12c.29-.29,.29-.77,0-1.06s-.77-.29-1.06,0l-2.12,2.12c-.18-.88-.25-2.1,.32-3.25,1.06-2.16,3.89-3.28,6.7-2.71,.57,2.81-.55,5.64-2.71,6.7-1.16,.57-2.37,.5-3.25,.32Z"/><path d="M15,16.25H7c-.41,0-.75,.34-.75,.75s.34,.75,.75,.75H15c.41,0,.75-.34,.75-.75s-.34-.75-.75-.75Z"/></g></g></svg>