<?xml version="1.0" encoding="UTF-8"?><svg fill="currentColor" xmlns="http://www.w3.org/2000/svg" viewBox="0 0 24 24"><g id="c"><g><path d="M10,15.25h-3c-.41,0-.75,.34-.75,.75s.34,.75,.75,.75h3c.41,0,.75-.34,.75-.75s-.34-.75-.75-.75Z"/><path d="M10,11.25h-3c-.41,0-.75,.34-.75,.75s.34,.75,.75,.75h3c.41,0,.75-.34,.75-.75s-.34-.75-.75-.75Z"/><path d="M14,8.75c.41,0,.75-.34,.75-.75s-.34-.75-.75-.75h-3c-.41,0-.75,.34-.75,.75s.34,.75,.75,.75h3Z"/><path d="M21.53,18.42l-2.35-2.35c.96-1.46,.8-3.44-.48-4.72-.28-.28-.61-.5-.95-.67V5c0-1.52-1.23-2.75-2.75-2.75H7.83c-.73,0-1.42,.29-1.94,.81l-2.83,2.83c-.52,.52-.81,1.21-.81,1.94v11.17c0,1.52,1.23,2.75,2.75,2.75h12c.41,0,.75-.34,.75-.75s-.34-.75-.75-.75H5c-.69,0-1.25-.56-1.25-1.25V8.75h3.25c.96,0,1.75-.79,1.75-1.75V3.75h6.25c.69,0,1.25,.56,1.25,1.25v5.27c-1.03-.05-2.07,.3-2.85,1.08-1.46,1.46-1.46,3.84,0,5.3,.73,.73,1.69,1.1,2.65,1.1,.72,0,1.44-.21,2.07-.62l2.35,2.35c.15,.15,.34,.22,.53,.22s.38-.07,.53-.22c.29-.29,.29-.77,0-1.06ZM7,7.25H3.91c.06-.11,.12-.22,.2-.31l2.83-2.83c.09-.09,.2-.15,.31-.2v3.09c0,.14-.11,.25-.25,.25Zm7.46,8.34c-.88-.88-.88-2.3,0-3.18,.44-.44,1.01-.66,1.59-.66s1.15,.22,1.59,.66c.88,.88,.88,2.3,0,3.18-.88,.88-2.3,.88-3.18,0Z"/></g></g></svg>