<?xml version="1.0" encoding="UTF-8"?><svg fill="currentColor" xmlns="http://www.w3.org/2000/svg" viewBox="0 0 24 24"><g id="p"><g><path d="M21,10.75c.41,0,.75-.34,.75-.75v-3c0-1.52-1.23-2.75-2.75-2.75H6c-2.07,0-3.75,1.68-3.75,3.75v8c0,2.07,1.68,3.75,3.75,3.75h13c1.52,0,2.75-1.23,2.75-2.75v-2c0-.96-.79-1.75-1.75-1.75h-2.25V7c0-.69,.56-1.25,1.25-1.25s1.25,.56,1.25,1.25v3c0,.41,.34,.75,.75,.75Zm-.75,4.25v2c0,.69-.56,1.25-1.25,1.25s-1.25-.56-1.25-1.25v-2.25h2.25c.14,0,.25,.11,.25,.25Zm-4-8v10c0,.45,.12,.87,.31,1.25H6c-1.24,0-2.25-1.01-2.25-2.25V8c0-1.24,1.01-2.25,2.25-2.25h10.56c-.19,.38-.31,.8-.31,1.25Z"/><path d="M5.25,9.5v2c0,.69,.56,1.25,1.25,1.25h7c.69,0,1.25-.56,1.25-1.25v-2c0-.69-.56-1.25-1.25-1.25H6.5c-.69,0-1.25,.56-1.25,1.25Zm1.5,.25h6.5v1.5H6.75v-1.5Z"/><path d="M10,14.25H6c-.41,0-.75,.34-.75,.75s.34,.75,.75,.75h4c.41,0,.75-.34,.75-.75s-.34-.75-.75-.75Z"/></g></g></svg>