<?xml version="1.0" encoding="UTF-8"?><svg fill="currentColor" xmlns="http://www.w3.org/2000/svg" viewBox="0 0 24 24"><g id="e"><path d="M21.44,5.55c-.6-.43-2.77-1.78-5.61-1.12-1.9,.44-3.13,1.56-3.83,2.43-.7-.87-1.93-1.99-3.83-2.43-2.84-.66-5.01,.69-5.61,1.12-.2,.14-.31,.37-.31,.61v11c0,.24,.12,.47,.32,.61,.2,.14,.45,.17,.69,.09,1.05-.38,3.17-.89,5.48,0,1.03,.39,1.94,1.01,2.73,1.82,0,0,.02,.01,.03,.02,.06,.05,.12,.1,.19,.13,.01,0,.02,.01,.03,.02h0c.09,.04,.19,.06,.28,.06s.19-.02,.28-.05h0s.02-.02,.03-.02c.07-.03,.14-.08,.19-.13,0,0,.02-.01,.03-.02,.78-.81,1.7-1.43,2.73-1.82,2.31-.88,4.42-.38,5.48,0,.23,.08,.49,.05,.69-.09s.32-.37,.32-.61V6.16c0-.24-.12-.47-.31-.61ZM6.06,15.87c-.88,0-1.66,.12-2.31,.28V6.56c.67-.4,2.21-1.11,4.08-.68,1.97,.46,3.03,1.85,3.42,2.47v9.16c-.61-.44-1.28-.79-1.98-1.06-1.13-.44-2.23-.59-3.21-.59Zm14.19,.28c-1.37-.33-3.37-.52-5.52,.31-.71,.27-1.37,.63-1.98,1.06V8.36c.39-.62,1.45-2.02,3.42-2.47,1.87-.43,3.41,.28,4.08,.68v9.58Z"/></g></svg>