<?xml version="1.0" encoding="UTF-8"?><svg fill="currentColor" xmlns="http://www.w3.org/2000/svg" viewBox="0 0 24 24"><g id="f"><g><path d="M19.75,11.3V5c0-1.52-1.23-2.75-2.75-2.75h-7.33c-.59,0-1.18,.2-1.65,.55l-2.67,2c-.69,.52-1.1,1.34-1.1,2.2v4.3c-.57,.12-1,.6-1,1.2v6.5c0,1.52,1.23,2.75,2.75,2.75h12c1.52,0,2.75-1.23,2.75-2.75v-6.5c0-.6-.43-1.08-1-1.2ZM5.75,7c0-.39,.19-.77,.5-1l2.67-2c.21-.16,.48-.25,.75-.25h7.33c.69,0,1.25,.56,1.25,1.25v6.25H5.75V7Zm13.5,12c0,.69-.56,1.25-1.25,1.25H6c-.69,0-1.25-.56-1.25-1.25v-6.25h14.5v6.25Z"/><path d="M15,7.25h-6c-.41,0-.75,.34-.75,.75s.34,.75,.75,.75h6c.41,0,.75-.34,.75-.75s-.34-.75-.75-.75Z"/><path d="M14,15.25h-4c-.41,0-.75,.34-.75,.75s.34,.75,.75,.75h4c.41,0,.75-.34,.75-.75s-.34-.75-.75-.75Z"/></g></g></svg>