<?xml version="1.0" encoding="UTF-8"?><svg fill="currentColor" xmlns="http://www.w3.org/2000/svg" viewBox="0 0 24 24"><g id="t"><path d="M17,4.25h-1.37c-.33-1.15-1.38-2-2.63-2h-2c-1.25,0-2.3,.85-2.63,2h-1.37c-1.52,0-2.75,1.23-2.75,2.75v12c0,1.52,1.23,2.75,2.75,2.75h10c1.52,0,2.75-1.23,2.75-2.75V7c0-1.52-1.23-2.75-2.75-2.75Zm-6-.5h2c.69,0,1.25,.56,1.25,1.25v.25h-4.5v-.25c0-.69,.56-1.25,1.25-1.25Zm7.25,15.25c0,.69-.56,1.25-1.25,1.25H7c-.69,0-1.25-.56-1.25-1.25V7c0-.69,.56-1.25,1.25-1.25h1.3c.12,.57,.6,1,1.2,1h5c.6,0,1.08-.43,1.2-1h1.3c.69,0,1.25,.56,1.25,1.25v12Z"/></g></svg>