<?xml version="1.0" encoding="UTF-8"?><svg fill="currentColor" xmlns="http://www.w3.org/2000/svg" viewBox="0 0 24 24"><g id="b"><path d="M20.5,15.25h-.75V6c0-1.52-1.23-2.75-2.75-2.75H5c-1.52,0-2.75,1.23-2.75,2.75v4c0,.41,.34,.75,.75,.75s.75-.34,.75-.75V6c0-.69,.56-1.25,1.25-1.25s1.25,.56,1.25,1.25v12c0,1.52,1.23,2.75,2.75,2.75h10c1.52,0,2.75-1.23,2.75-2.75v-1.5c0-.69-.56-1.25-1.25-1.25Zm-12.75,2.75V6c0-.45-.12-.87-.31-1.25h9.56c.69,0,1.25,.56,1.25,1.25V15.25h-6.54c-.39,0-.76,.18-1,.49-.24,.31-.31,.7-.21,1.08,.13,.48,.21,1.18-.15,1.8-.14,.25-.35,.45-.6,.63h-.75c-.69,0-1.25-.56-1.25-1.25Zm12.5,0c0,.69-.56,1.25-1.25,1.25h-7.28c.47-.89,.45-1.8,.31-2.5h8.22v1.25Z"/></g></svg>