<?xml version="1.0" encoding="UTF-8"?><svg fill="currentColor" xmlns="http://www.w3.org/2000/svg" viewBox="0 0 24 24"><g id="h"><g><path d="M18.94,5.88l-2.83-2.83c-.52-.52-1.21-.81-1.94-.81h-6.17c-2.07,0-3.75,1.68-3.75,3.75v12c0,2.07,1.68,3.75,3.75,3.75h8c2.07,0,3.75-1.68,3.75-3.75V7.83c0-.73-.29-1.42-.81-1.94Zm-.69,12.12c0,1.24-1.01,2.25-2.25,2.25H8c-1.24,0-2.25-1.01-2.25-2.25V6c0-1.24,1.01-2.25,2.25-2.25h6.17c.33,0,.65,.13,.88,.37l2.83,2.83c.23,.23,.37,.55,.37,.88v10.17Z"/><path d="M13.46,8.83c-.33-.49-.87-.78-1.46-.78s-1.13,.29-1.46,.78l-2.13,3.2c-.36,.54-.39,1.23-.09,1.8,.3,.57,.9,.92,1.54,.92h4.26c.65,0,1.24-.35,1.54-.92,.31-.57,.27-1.26-.09-1.8l-2.13-3.2Zm.9,4.29s-.09,.13-.22,.13h-4.26c-.13,0-.19-.08-.22-.13-.03-.05-.06-.15,.01-.26l2.13-3.2c.06-.1,.16-.11,.21-.11s.14,.01,.21,.11l2.13,3.2c.07,.11,.04,.21,.01,.26Z"/></g></g></svg>