<?xml version="1.0" encoding="UTF-8"?><svg fill="currentColor" xmlns="http://www.w3.org/2000/svg" viewBox="0 0 24 24"><g id="m"><g><path d="M18,3.25H6c-2.07,0-3.75,1.68-3.75,3.75v10c0,2.07,1.68,3.75,3.75,3.75h12c2.07,0,3.75-1.68,3.75-3.75V7c0-2.07-1.68-3.75-3.75-3.75Zm-12,1.5h12c1.24,0,2.25,1.01,2.25,2.25v.25H3.75v-.25c0-1.24,1.01-2.25,2.25-2.25Zm12,14.5H6c-1.24,0-2.25-1.01-2.25-2.25V8.75H20.25v8.25c0,1.24-1.01,2.25-2.25,2.25Z"/><path d="M15.29,11.95c-.3-.41-.77-.66-1.27-.7-.5-.04-1,.15-1.35,.5l-1.21,1.17-.22-.27c-.68-.68-1.79-.68-2.53,.06l-2,2.52c-.26,.32-.2,.8,.12,1.05s.8,.2,1.05-.12l1.94-2.46c.1-.1,.26-.1,.3-.06l2.29,2.82c.15,.18,.36,.28,.58,.28,.17,0,.33-.06,.47-.17,.32-.26,.37-.73,.11-1.06l-1.18-1.44,1.31-1.26c.07-.07,.15-.07,.2-.07,.04,0,.12,.02,.15,.05l2.05,3.26c.14,.23,.39,.35,.64,.35,.14,0,.27-.04,.4-.12,.35-.22,.46-.68,.24-1.03l-2.09-3.31Z"/><path d="M17.02,6.75c.42,0,.75-.34,.75-.75s-.33-.75-.75-.75h0c-.41,0-.75,.34-.75,.75s.34,.75,.75,.75Z"/></g></g></svg>