<svg fill="currentColor" xmlns="http://www.w3.org/2000/svg" viewBox="0 0 32 32"><g id="antenna"><path d="M5.75,9.92A1,1,0,1,0,5,8.08,4.84,4.84,0,0,0,5,17a.84.84,0,0,0,.38.08,1,1,0,0,0,.39-1.92,2.84,2.84,0,0,1,0-5.25Z"/><path d="M8.31,15.71a1,1,0,0,0,.6.2,1,1,0,0,0,.8-.4,1,1,0,0,0-.2-1.4,2.09,2.09,0,0,1-.78-1.56A2.12,2.12,0,0,1,9.51,11a1,1,0,0,0-1.2-1.6,4.09,4.09,0,0,0-1.58,3.17A4,4,0,0,0,8.31,15.71Z"/><path d="M27,8.08a1,1,0,1,0-.77,1.84,2.84,2.84,0,0,1,0,5.25,1,1,0,0,0,.39,1.92A.84.84,0,0,0,27,17a4.84,4.84,0,0,0,0-8.93Z"/><path d="M23.69,9.38a1,1,0,0,0-1.2,1.6,2.12,2.12,0,0,1,.78,1.57,2.09,2.09,0,0,1-.78,1.56,1,1,0,0,0-.2,1.4,1,1,0,0,0,.8.4,1,1,0,0,0,.6-.2,4,4,0,0,0,1.58-3.16A4.09,4.09,0,0,0,23.69,9.38Z"/><path d="M24,23H20.9A5,5,0,0,0,17,19.1V16.34l2.88-1a1,1,0,0,0,.57-.51,1,1,0,0,0,0-.76L18.58,8.67a1,1,0,0,0-1.27-.61L12.12,9.89a1.06,1.06,0,0,0-.57.51,1,1,0,0,0,0,.77l1.91,5.38a1,1,0,0,0,.94.67,1,1,0,0,0,.33-.06l.31-.11V19.1A5,5,0,0,0,11.1,23H8a1,1,0,0,0,0,2H24a1,1,0,0,0,0-2ZM13.73,11.44,17,10.28l1.24,3.49L15,14.94ZM13.17,23a3,3,0,0,1,5.66,0Z"/></g></svg>