<svg fill="currentColor" xmlns="http://www.w3.org/2000/svg" viewBox="0 0 32 32"><g id="backup"><path d="M30,16c-.2-3.15-3.07-5.67-6.55-5.92a8.94,8.94,0,0,0-9-6,8.88,8.88,0,0,0-8.09,8.11,5.36,5.36,0,0,0-4.08,3.59,5.66,5.66,0,0,0-.15.59,4.62,4.62,0,0,0,1,3.81A5.31,5.31,0,0,0,7.17,22H9v3.85A2.14,2.14,0,0,0,11.14,28h9.72A2.14,2.14,0,0,0,23,25.86V22h1.54a5.11,5.11,0,0,0,3.72-1.56A6.11,6.11,0,0,0,30,16Zm-8,1H10V16H22Zm-1,8.86a.14.14,0,0,1-.14.14H11.14a.14.14,0,0,1-.14-.14V19H21Zm5.8-6.77a3.11,3.11,0,0,1-2.26.93H23V19a1,1,0,0,0,1-1V15a1,1,0,0,0-1-1H9a1,1,0,0,0-1,1v3a1,1,0,0,0,1,1v1H7.16a3.3,3.3,0,0,1-2.52-1.17,2.58,2.58,0,0,1-.59-2.17,3.59,3.59,0,0,1,.08-.35A3.44,3.44,0,0,1,7.32,14a1,1,0,0,0,1-1,6.8,6.8,0,0,1,13.42-1.74,1,1,0,0,0,1,.77c3-.08,5.15,2,5.28,4.07A4.09,4.09,0,0,1,26.8,19.09Z"/><path d="M17,21H15a1,1,0,0,0,0,2h2a1,1,0,0,0,0-2Z"/></g></svg>