<svg fill="currentColor" xmlns="http://www.w3.org/2000/svg" viewBox="0 0 32 32"><g id="chat"><path d="M30.79,15.94c-.21-3.15-3.07-5.67-6.55-5.92A8.8,8.8,0,0,0,7.11,12.11,5.36,5.36,0,0,0,3,15.7a5.66,5.66,0,0,0-.15.59,4.62,4.62,0,0,0,1,3.81A5.31,5.31,0,0,0,8,22H9l.11,0a7.34,7.34,0,0,0,1.73,1.52L10,26.76A1,1,0,0,0,11,28a1,1,0,0,0,.48-.12L16.76,25a9.35,9.35,0,0,0,7.14-3l.1,0h1.33a5.12,5.12,0,0,0,3.73-1.56A6.11,6.11,0,0,0,30.79,15.94ZM16.5,23a1,1,0,0,0-.48.12L12.52,25,13,23.24a1,1,0,0,0-.52-1.13C10.92,21.34,10,20.18,10,19c0-2.17,3-4,6.5-4S23,16.83,23,19,20,23,16.5,23Zm11.1-3.93a3.11,3.11,0,0,1-2.27.93h-.45A4.8,4.8,0,0,0,25,19c0-3.36-3.73-6-8.5-6S8,15.64,8,19a4.22,4.22,0,0,0,.13,1H8a3.3,3.3,0,0,1-2.52-1.17,2.62,2.62,0,0,1-.6-2.17c0-.12.06-.24.1-.36A3.42,3.42,0,0,1,8.12,14a1,1,0,0,0,1-1,6.83,6.83,0,0,1,6.26-7,6.91,6.91,0,0,1,7.16,5.23,1,1,0,0,0,1,.77c3-.08,5.15,2,5.28,4.06A4.1,4.1,0,0,1,27.6,19.07Z"/><path d="M19,17H14a1,1,0,0,0,0,2h5a1,1,0,0,0,0-2Z"/><path d="M19,20H16a1,1,0,0,0,0,2h3a1,1,0,0,0,0-2Z"/></g></svg>