<svg fill="currentColor" xmlns="http://www.w3.org/2000/svg" viewBox="0 0 32 32"><g id="cloud_computing" data-name="cloud computing"><path d="M26,24a3,3,0,0,0-2.81,2L22,26V20h2.54a5.11,5.11,0,0,0,3.72-1.56A6.11,6.11,0,0,0,30,14c-.21-3.15-3.07-5.67-6.55-5.92a8.92,8.92,0,0,0-9-6,8.88,8.88,0,0,0-8.09,8.11,5.36,5.36,0,0,0-4.08,3.59,5.66,5.66,0,0,0-.15.59,4.62,4.62,0,0,0,1,3.81A5.31,5.31,0,0,0,7.16,20H10l0,6H8.82a3,3,0,1,0,0,2H10a2,2,0,0,0,2-2V20h3v2.16a3,3,0,1,0,2,0V20h3V26a2,2,0,0,0,2,2h1.15A3,3,0,1,0,26,24ZM6,28a1,1,0,1,1,1-1A1,1,0,0,1,6,28Zm10-2a1,1,0,1,1,1-1A1,1,0,0,1,16,26ZM4.64,16.85a2.58,2.58,0,0,1-.59-2.17c0-.12,0-.24.08-.36A3.44,3.44,0,0,1,7.32,12a1,1,0,0,0,1-1,6.83,6.83,0,0,1,6.26-7l.5,0a6.91,6.91,0,0,1,6.66,5.25,1,1,0,0,0,1,.77c3-.06,5.15,2,5.28,4.07a4.09,4.09,0,0,1-1.19,3,3.11,3.11,0,0,1-2.26.93H21.11L21,18l-.11,0H11.11L11,18l-.11,0H7.16A3.3,3.3,0,0,1,4.64,16.85ZM26,28a1,1,0,1,1,1-1A1,1,0,0,1,26,28Z"/></g></svg>