<svg fill="currentColor" xmlns="http://www.w3.org/2000/svg" viewBox="0 0 32 32"><g id="cloud"><path d="M15.56,14H26.25a3.52,3.52,0,0,0,2.58-1.1A4.2,4.2,0,0,0,30,9.83a4.57,4.57,0,0,0-4.13-4A5.78,5.78,0,0,0,14.68,7.16a3.7,3.7,0,0,0-2.52,2.43,3.2,3.2,0,0,0-.1.42,3.28,3.28,0,0,0,.72,2.71A3.6,3.6,0,0,0,15.56,14ZM14,10.37a1.21,1.21,0,0,1,.05-.18A1.71,1.71,0,0,1,15.67,9a1,1,0,0,0,1-1,3.86,3.86,0,0,1,3.5-4h.27a3.89,3.89,0,0,1,3.73,3,1,1,0,0,0,1,.77A2.67,2.67,0,0,1,28,10a2.22,2.22,0,0,1-.64,1.6,1.51,1.51,0,0,1-1.11.46H15.56a1.63,1.63,0,0,1-1.24-.58A1.31,1.31,0,0,1,14,10.37Z"/><path d="M26.47,21.33l-6.34,1.51a2.79,2.79,0,0,1-1.15,0l-3.06-.59a.67.67,0,0,1-.58-.63.69.69,0,0,1,.73-.65H17a2.5,2.5,0,1,0,0-5H14.11a6.39,6.39,0,0,0-1.9.29L7.93,17.65A1,1,0,0,0,7,17H3a1,1,0,0,0-1,1V29a1,1,0,0,0,1,1H7a1,1,0,0,0,1-.89l5.7.6a13.36,13.36,0,0,0,1.54.08,14.25,14.25,0,0,0,4-.58L28,26.65a2.82,2.82,0,0,0,1.87-1.75,2.69,2.69,0,0,0-.34-2.44A2.9,2.9,0,0,0,26.47,21.33ZM6,28H4V19H6Zm22-3.76a.79.79,0,0,1-.55.5L18.7,27.29a12.2,12.2,0,0,1-4.81.43L8,27.1V19.73l4.82-1.53a4.29,4.29,0,0,1,1.29-.2H17a.5.5,0,1,1,0,1h-.89a2.64,2.64,0,0,0-.53,5.25l3.06.58a4.81,4.81,0,0,0,2,0l6.34-1.52a.89.89,0,0,1,.93.34A.69.69,0,0,1,28,24.24Z"/></g></svg>