<svg fill="currentColor" xmlns="http://www.w3.org/2000/svg" viewBox="0 0 32 32"><g id="database"><path d="M26.14,18.27l1.58-2.34a1.66,1.66,0,0,0,0-1.86l-1.58-2.34A1.67,1.67,0,0,0,25,11V10a1.67,1.67,0,0,0,1.14-.7l1.58-2.34a1.66,1.66,0,0,0,0-1.86L26.14,2.73A1.67,1.67,0,0,0,24.75,2H7.25a1.67,1.67,0,0,0-1.39.73L4.28,5.07a1.66,1.66,0,0,0,0,1.86L5.86,9.27A1.67,1.67,0,0,0,7,10V11a1.67,1.67,0,0,0-1.14.7L4.28,14.07a1.66,1.66,0,0,0,0,1.86l1.58,2.34A1.67,1.67,0,0,0,7,19V20a1.67,1.67,0,0,0-1.14.7L4.28,23.07a1.66,1.66,0,0,0,0,1.86l1.58,2.34A1.67,1.67,0,0,0,7.25,28H8v1a1,1,0,0,0,2,0V28H22v1a1,1,0,0,0,2,0V28h.75a1.67,1.67,0,0,0,1.39-.73l1.58-2.34a1.66,1.66,0,0,0,0-1.86l-1.58-2.34A1.67,1.67,0,0,0,25,20V19A1.67,1.67,0,0,0,26.14,18.27ZM23,20H9V19H23ZM9,10H23v1H9ZM6.07,6,7.42,4H24.58l1.35,2L24.58,8H7.42Zm0,9,1.35-2H24.58l1.35,2-1.35,2H7.42Zm19.86,9-1.35,2H7.42L6.07,24l1.35-2H24.58Z"/><path d="M9,7h4a1,1,0,0,0,0-2H9A1,1,0,0,0,9,7Z"/><path d="M9,16h4a1,1,0,0,0,0-2H9a1,1,0,0,0,0,2Z"/><path d="M13,23H9a1,1,0,0,0,0,2h4a1,1,0,0,0,0-2Z"/><path d="M23,7a1,1,0,0,0,0-2h0a1,1,0,0,0,0,2Z"/><path d="M20,7a1,1,0,0,0,0-2h0a1,1,0,0,0,0,2Z"/><path d="M23,16a1,1,0,0,0,0-2h0a1,1,0,0,0,0,2Z"/><path d="M20,16a1,1,0,0,0,0-2h0a1,1,0,0,0,0,2Z"/><path d="M23,23h0a1,1,0,1,0,1,1A1,1,0,0,0,23,23Z"/><path d="M20,23h0a1,1,0,1,0,1,1A1,1,0,0,0,20,23Z"/></g></svg>