<svg fill="currentColor" xmlns="http://www.w3.org/2000/svg" viewBox="0 0 32 32"><g id="document"><path d="M20.86,15.78A5.78,5.78,0,0,0,9.68,17.14a3.68,3.68,0,0,0-2.52,2.43c0,.14-.08.28-.11.42a3.32,3.32,0,0,0,.73,2.71A3.6,3.6,0,0,0,10.56,24H21.25a3.5,3.5,0,0,0,2.58-1.1A4.2,4.2,0,0,0,25,19.81,4.54,4.54,0,0,0,20.86,15.78Zm1.5,5.76a1.51,1.51,0,0,1-1.11.46H10.56a1.63,1.63,0,0,1-1.24-.58A1.31,1.31,0,0,1,9,20.35a1.21,1.21,0,0,1,.05-.18A1.7,1.7,0,0,1,10.67,19a1,1,0,0,0,1-1,3.86,3.86,0,0,1,3.5-4h.27a3.88,3.88,0,0,1,3.73,3,1,1,0,0,0,1,.78A2.68,2.68,0,0,1,23,19.94,2.22,2.22,0,0,1,22.36,21.54Z"/><path d="M27.58,9H13.63a.44.44,0,0,1-.39-.2L11.86,6.25A2.45,2.45,0,0,0,9.7,5H4.42A2.37,2.37,0,0,0,2,7.31V24.69A2.37,2.37,0,0,0,4.42,27H27.58A2.37,2.37,0,0,0,30,24.69V11.31A2.37,2.37,0,0,0,27.58,9ZM28,24.69c0,.17-.19.31-.42.31H4.42c-.23,0-.42-.14-.42-.31V7.31c0-.17.19-.31.42-.31H9.7a.47.47,0,0,1,.4.2l1.38,2.55A2.42,2.42,0,0,0,13.63,11H27.58c.23,0,.42.14.42.31Z"/></g></svg>