<svg fill="currentColor" xmlns="http://www.w3.org/2000/svg" viewBox="0 0 32 32"><g id="earth"><path d="M27.29,22.31a4,4,0,0,0-2.11-2A11.81,11.81,0,0,0,26,16h0A12,12,0,0,0,14,4h0A12,12,0,0,0,2,16H2A12,12,0,0,0,14,28h0a11.89,11.89,0,0,0,4.58-.92,2.72,2.72,0,0,0,2,.92h6.68a2.59,2.59,0,0,0,1.87-.77A2.84,2.84,0,0,0,30,25.06,3.15,3.15,0,0,0,27.29,22.31Zm-7.57.87a2.64,2.64,0,0,0-1.6,1.63c0,.11-.06.21-.08.3v0c-.23.1-.46.21-.7.29a28.36,28.36,0,0,0,1.26-4.81,28.3,28.3,0,0,0,4.82-1.27,6,6,0,0,1-.28.7A4,4,0,0,0,19.72,23.18ZM13.86,26a1.32,1.32,0,0,1-1.18-.86,25.62,25.62,0,0,1-1.2-4.25Q12.74,21,14,21c.84,0,1.68,0,2.51-.11a25.54,25.54,0,0,1-1.18,4.21A1.39,1.39,0,0,1,14,26ZM4,16s0-.09,0-.13a1.32,1.32,0,0,1,.86-1.18,25.62,25.62,0,0,1,4.25-1.2Q9,14.74,9,16c0,.84,0,1.68.11,2.51A25.54,25.54,0,0,1,4.9,17.33,1.39,1.39,0,0,1,4,16Zm7,0a24.58,24.58,0,0,1,.18-2.83A26.35,26.35,0,0,1,14,13a24.58,24.58,0,0,1,2.83.18A26.35,26.35,0,0,1,17,16a24.58,24.58,0,0,1-.18,2.83A26.35,26.35,0,0,1,14,19a24.58,24.58,0,0,1-2.83-.18A26.35,26.35,0,0,1,11,16ZM14,6h.13a1.32,1.32,0,0,1,1.18.86,25.62,25.62,0,0,1,1.2,4.25Q15.26,11,14,11c-.84,0-1.68,0-2.51.11A25.54,25.54,0,0,1,12.67,6.9,1.39,1.39,0,0,1,14,6ZM24,16s0,.09,0,.14a1.32,1.32,0,0,1-.86,1.17,25.62,25.62,0,0,1-4.25,1.2Q19,17.26,19,16c0-.84,0-1.68-.11-2.51a25.54,25.54,0,0,1,4.21,1.18A1.39,1.39,0,0,1,24,16Zm-.59-3.36a29.19,29.19,0,0,0-4.8-1.25,28,28,0,0,0-1.27-4.81A10,10,0,0,1,23.41,12.65ZM10.65,6.59a29.19,29.19,0,0,0-1.25,4.8,28,28,0,0,0-4.81,1.27A10,10,0,0,1,10.65,6.59ZM4.59,19.35a29.19,29.19,0,0,0,4.8,1.25,28,28,0,0,0,1.27,4.81A10,10,0,0,1,4.59,19.35Zm23.12,6.49a.58.58,0,0,1-.43.16H20.6a.68.68,0,0,1-.51-.23.36.36,0,0,1-.07-.33.7.7,0,0,1,.66-.44,1,1,0,0,0,.7-.31,1,1,0,0,0,.27-.72,2,2,0,0,1,1.84-2h.14a2,2,0,0,1,2,1.49,1,1,0,0,0,1,.76,1.24,1.24,0,0,1,1.4.95A.89.89,0,0,1,27.71,25.84Z"/></g></svg>