<svg fill="currentColor" xmlns="http://www.w3.org/2000/svg" viewBox="0 0 32 32"><g id="email"><path d="M29,21H19a1,1,0,0,0-1,1v3H17V20h7.54a5.11,5.11,0,0,0,3.72-1.56A6.11,6.11,0,0,0,30,14c-.2-3.15-3.07-5.67-6.55-5.92a8.92,8.92,0,0,0-9-6,8.88,8.88,0,0,0-8.09,8.11,5.36,5.36,0,0,0-4.08,3.59,5.66,5.66,0,0,0-.15.59,4.62,4.62,0,0,0,1,3.81A5.31,5.31,0,0,0,7.16,20H15v5H14V22a1,1,0,0,0-1-1H3a1,1,0,0,0-1,1v7a1,1,0,0,0,1,1H13a1,1,0,0,0,1-1V27h4v2a1,1,0,0,0,1,1H29a1,1,0,0,0,1-1V22A1,1,0,0,0,29,21ZM4.64,16.85a2.58,2.58,0,0,1-.59-2.17c0-.12,0-.24.08-.36A3.44,3.44,0,0,1,7.32,12a1,1,0,0,0,1-1,6.83,6.83,0,0,1,6.26-7l.5,0a6.91,6.91,0,0,1,6.66,5.25,1,1,0,0,0,1,.77c3-.06,5.15,2,5.28,4.07a4.09,4.09,0,0,1-1.19,3,3.11,3.11,0,0,1-2.26.93H7.16A3.3,3.3,0,0,1,4.64,16.85ZM11.06,23,8,24.83,4.94,23ZM12,28H4V24.77l3.49,2.09a1,1,0,0,0,1,0L12,24.77Zm15.06-5L24,24.83,20.94,23ZM20,28V24.77l3.49,2.09a1,1,0,0,0,1,0L28,24.77V28Z"/></g></svg>