<svg fill="currentColor" xmlns="http://www.w3.org/2000/svg" viewBox="0 0 32 32"><g id="error"><path d="M27,4H5A3,3,0,0,0,2,7V21a3,3,0,0,0,3,3H11.3a4.86,4.86,0,0,1-1.63,2H9a1,1,0,0,0,0,2H23a1,1,0,0,0,0-2h-.67a4.86,4.86,0,0,1-1.63-2H27a3,3,0,0,0,3-3V7A3,3,0,0,0,27,4ZM18.65,24.31A6,6,0,0,0,19.52,26h-7a6,6,0,0,0,.87-1.69,1.1,1.1,0,0,0,0-.31h5.22A1.1,1.1,0,0,0,18.65,24.31ZM28,21a1,1,0,0,1-1,1H5a1,1,0,0,1-1-1V7A1,1,0,0,1,5,6H27a1,1,0,0,1,1,1Z"/><path d="M15,12V11a3,3,0,0,0-6,0v1a3,3,0,0,0,6,0Zm-4,0V11a1,1,0,0,1,2,0v1a1,1,0,0,1-2,0Z"/><path d="M20,8a3,3,0,0,0-3,3v1a3,3,0,0,0,6,0V11A3,3,0,0,0,20,8Zm1,4a1,1,0,0,1-2,0V11a1,1,0,0,1,2,0Z"/><path d="M16,16a6.17,6.17,0,0,0-4.8,2.4,1,1,0,1,0,1.6,1.2A4.2,4.2,0,0,1,16,18a4.18,4.18,0,0,1,3.2,1.6,1,1,0,0,0,.8.4,1,1,0,0,0,.6-.2,1,1,0,0,0,.2-1.4A6.19,6.19,0,0,0,16,16Z"/></g></svg>