<svg fill="currentColor" xmlns="http://www.w3.org/2000/svg" viewBox="0 0 32 32"><g id="ethernet"><path d="M22,13V3.32A1.32,1.32,0,0,0,20.68,2H11.32A1.32,1.32,0,0,0,10,3.32V13a1,1,0,0,0-1,1v7.19a4.4,4.4,0,0,0,.47,2l1.27,2.55A2.46,2.46,0,0,1,11,26.81V29a1,1,0,0,0,1,1h8a1,1,0,0,0,1-1V26.81a2.46,2.46,0,0,1,.26-1.09l1.27-2.55a4.4,4.4,0,0,0,.47-2V14A1,1,0,0,0,22,13ZM11.16,22a2.25,2.25,0,0,1-.16-.81V15h2v4a1,1,0,0,0,1,1h4a1,1,0,0,0,1-1V15h2v6.19a2.25,2.25,0,0,1-.16.81ZM17,18H15V9h2ZM12,4h8v9H19V8a1,1,0,0,0-1-1H14a1,1,0,0,0-1,1v5H12Zm7,22.81V28H13V26.81a4.4,4.4,0,0,0-.47-2L12.12,24h7.76l-.41.83A4.4,4.4,0,0,0,19,26.81Z"/></g></svg>