<svg fill="currentColor" xmlns="http://www.w3.org/2000/svg" viewBox="0 0 32 32"><g id="firewall"><path d="M28,10H21.86a5.94,5.94,0,0,0-1.05-2.2,5.15,5.15,0,0,1-1-2,6.23,6.23,0,0,1,0-2.58,1,1,0,0,0-.33-1,1,1,0,0,0-1-.17A5.9,5.9,0,0,0,16,3.87a5.53,5.53,0,0,0-1.14,2.41l0,0a.93.93,0,0,1-.23-1,1,1,0,0,0-1.62-1A8.93,8.93,0,0,0,10,10H4a1,1,0,0,0-1,1v3a1,1,0,0,0,1,1H5V29a1,1,0,0,0,1,1H26a1,1,0,0,0,1-1V15h1a1,1,0,0,0,1-1V11A1,1,0,0,0,28,10ZM13,7.22a2.81,2.81,0,0,0,.46.52,3.18,3.18,0,0,0,2.32.76,1,1,0,0,0,.91-1,3.75,3.75,0,0,1,.82-2.36l.17-.19a7.87,7.87,0,0,0,.17,1.28,7,7,0,0,0,1.28,2.72A5.24,5.24,0,0,1,19.78,10H12A6,6,0,0,1,13,7.22ZM19,15v3H14V15Zm6,5v3H24V20Zm-3,3H17V20h5ZM7,23V20H8v3Zm3-3h5v3H10Zm9,5v3H14V25Zm-7-7H7V15h5ZM7,25h5v3H7Zm18,3H21V25h4Zm0-10H21V15h4Zm2-5H5V12H27Z"/></g></svg>