<svg fill="currentColor" xmlns="http://www.w3.org/2000/svg" viewBox="0 0 32 32"><g id="loading"><path d="M7.16,21H24.54a5.11,5.11,0,0,0,3.72-1.56A6.11,6.11,0,0,0,30,14.94c-.2-3.15-3.07-5.67-6.55-5.92a8.93,8.93,0,0,0-9-6,8.88,8.88,0,0,0-8.09,8.11A5.36,5.36,0,0,0,2.23,14.7a5.66,5.66,0,0,0-.15.59,4.62,4.62,0,0,0,1,3.81A5.31,5.31,0,0,0,7.16,21ZM4.05,15.66c0-.12,0-.24.08-.36A3.44,3.44,0,0,1,7.32,13a1,1,0,0,0,1-1,6.83,6.83,0,0,1,6.26-7,4.1,4.1,0,0,1,.5,0,6.91,6.91,0,0,1,6.66,5.25,1,1,0,0,0,1,.77c3-.07,5.15,2,5.28,4.06a4.1,4.1,0,0,1-1.19,3,3.11,3.11,0,0,1-2.26.93H7.16a3.3,3.3,0,0,1-2.52-1.17A2.58,2.58,0,0,1,4.05,15.66Z"/><path d="M27,22H5a3,3,0,0,0,0,6H27a3,3,0,0,0,0-6ZM16.41,26l2-2h4.18l-2,2Zm-7,0,2-2h4.18l-2,2ZM4,25a1,1,0,0,1,1-1H8.59l-2,2H5A1,1,0,0,1,4,25Zm23,1H23.41l2-2H27a1,1,0,0,1,0,2Z"/></g></svg>