<svg fill="currentColor" xmlns="http://www.w3.org/2000/svg" viewBox="0 0 32 32"><g id="magnet"><path d="M29,16c-.21-3.15-3.07-5.67-6.55-5.92a8.92,8.92,0,0,0-9-6,8.88,8.88,0,0,0-8.09,8.11,5.36,5.36,0,0,0-4.08,3.58q-.09.3-.15.6a4.65,4.65,0,0,0,1,3.81A5.34,5.34,0,0,0,6.16,22H7.71A7.59,7.59,0,0,0,9.52,25.6a7.46,7.46,0,0,0,11,0A7.59,7.59,0,0,0,22.29,22h1.25a5.11,5.11,0,0,0,3.72-1.56A6.11,6.11,0,0,0,29,16ZM11.74,17H9.84l.08-1h1.95ZM19,24.24a5.44,5.44,0,0,1-9.42-4.13L9.67,19h1.82l-.11.9a3.65,3.65,0,1,0,7.24,0l-.11-.9h1.82l.09,1.11A5.34,5.34,0,0,1,19,24.24ZM18.13,16h1.95l.08,1h-1.9Zm7.67,3.09a3.11,3.11,0,0,1-2.26.93H22.42v-.08l-.42-5A1,1,0,0,0,21,14H17a1,1,0,0,0-.75.34,1,1,0,0,0-.24.78l.63,5a1.65,1.65,0,0,1-.4,1.29,1.69,1.69,0,0,1-2.48,0,1.65,1.65,0,0,1-.4-1.29l.63-5a1,1,0,0,0-.24-.78A1,1,0,0,0,13,14H9a1,1,0,0,0-1,.92l-.42,5V20H6.16a3.34,3.34,0,0,1-2.53-1.17A2.65,2.65,0,0,1,3,16.68c0-.12.06-.23.1-.36A3.42,3.42,0,0,1,6.32,14a1,1,0,0,0,1-1,6.83,6.83,0,0,1,6.26-7,6.91,6.91,0,0,1,7.16,5.23,1,1,0,0,0,1,.77c3-.07,5.15,2,5.28,4.07A4.09,4.09,0,0,1,25.8,19.09Z"/></g></svg>