<svg fill="currentColor" xmlns="http://www.w3.org/2000/svg" viewBox="0 0 32 32"><g id="microchip"><path d="M27,13a1,1,0,0,0,0-2H25V9h2a1,1,0,0,0,0-2H24.82A3,3,0,0,0,22,5H21V3a1,1,0,0,0-2,0V5H17V3a1,1,0,0,0-2,0V5H13V3a1,1,0,0,0-2,0V5H10a3,3,0,0,0-2.8,2H5A1,1,0,0,0,5,9H7v2H5a1,1,0,0,0,0,2H7v2H5a1,1,0,0,0,0,2H7v2H5a1,1,0,0,0,0,2H7v2H5a1,1,0,0,0,0,2H7.18A3,3,0,0,0,10,27h1v2a1,1,0,0,0,2,0V27h2v2a1,1,0,0,0,2,0V27h2v2a1,1,0,0,0,2,0V27h1a3,3,0,0,0,2.8-2H27a1,1,0,0,0,0-2H25V21h2a1,1,0,0,0,0-2H25V17h2a1,1,0,0,0,0-2H25V13ZM13,7h6V9H13ZM23,24a1,1,0,0,1-1,1H10a1,1,0,0,1-1-1V8a1,1,0,0,1,1-1h1v3a1,1,0,0,0,1,1h8a1,1,0,0,0,1-1V7h1a1,1,0,0,1,1,1Z"/><path d="M20,12H12a1,1,0,0,0-1,1V23a1,1,0,0,0,1,1h8a1,1,0,0,0,1-1V13A1,1,0,0,0,20,12ZM19,22H13V14h6Z"/></g></svg>