<svg fill="currentColor" xmlns="http://www.w3.org/2000/svg" viewBox="0 0 32 32"><g id="mobile"><path d="M12.6,19h6.68a2.59,2.59,0,0,0,1.87-.77A2.84,2.84,0,0,0,22,16.06a3.15,3.15,0,0,0-2.7-2.75A4.06,4.06,0,0,0,15.34,11a4,4,0,0,0-3.62,3.17,2.65,2.65,0,0,0-1.6,1.64c0,.1-.06.19-.08.29A2.31,2.31,0,0,0,10.55,18,2.67,2.67,0,0,0,12.6,19ZM12,16.44a.7.7,0,0,1,.66-.44,1,1,0,0,0,1-1,2,2,0,0,1,1.83-2h.15a2,2,0,0,1,2,1.49,1,1,0,0,0,1,.76h.07A1.27,1.27,0,0,1,20,16.2a.89.89,0,0,1-.29.64.58.58,0,0,1-.43.16H12.6a.68.68,0,0,1-.51-.23A.36.36,0,0,1,12,16.44Z"/><path d="M22.05,2H10A3,3,0,0,0,7,5v22.1A3,3,0,0,0,10,30h12.1A3,3,0,0,0,25,27.05V5A3,3,0,0,0,22.05,2ZM10,4h12.1A1,1,0,0,1,23,5V24H9V5A1,1,0,0,1,10,4Zm12.1,24H10A1,1,0,0,1,9,27.05V26H23v1.05A1,1,0,0,1,22.05,28Z"/><path d="M14,7h4a1,1,0,0,0,0-2H14a1,1,0,0,0,0,2Z"/></g></svg>