<svg fill="currentColor" xmlns="http://www.w3.org/2000/svg" viewBox="0 0 32 32"><g id="network"><path d="M22.13,7H22V3a1,1,0,0,0-1-1H11a1,1,0,0,0-1,1V7H9.87A1.87,1.87,0,0,0,8,8.87V19.13A1.87,1.87,0,0,0,9.87,21H12v3a2,2,0,0,0,2,2h1v3a1,1,0,0,0,2,0V26h1a2,2,0,0,0,2-2V21h2.13A1.87,1.87,0,0,0,24,19.13V8.87A1.87,1.87,0,0,0,22.13,7ZM20,7H19V4h1ZM17,4V7H15V4ZM12,4h1V7H12Zm6,20H14V21h4Zm4-5H10V9H22Z"/><path d="M19,11H13a1,1,0,0,0,0,2h6a1,1,0,0,0,0-2Z"/><path d="M19,15H13a1,1,0,0,0,0,2h6a1,1,0,0,0,0-2Z"/></g></svg>