<svg fill="currentColor" xmlns="http://www.w3.org/2000/svg" viewBox="0 0 32 32"><g id="picture"><path d="M30,15.94c-.21-3.15-3.07-5.67-6.55-5.92a8.93,8.93,0,0,0-9-6,8.88,8.88,0,0,0-8.09,8.11A5.36,5.36,0,0,0,2.23,15.7a5.66,5.66,0,0,0-.15.59,4.62,4.62,0,0,0,1,3.81A5.31,5.31,0,0,0,7.16,22H8v3.33A1.67,1.67,0,0,0,9.67,27H22.33A1.67,1.67,0,0,0,24,25.33V22h.54a5.11,5.11,0,0,0,3.72-1.56A6.11,6.11,0,0,0,30,15.94ZM22,21l-2.4-1.8a1,1,0,0,0-1.31.09l-2.56,2.57-2.41-.81a1,1,0,0,0-1,.24L10,23.59V17H22ZM11.41,25l1.86-1.86,2.41.81a1,1,0,0,0,1-.24l2.38-2.39L22,23.5V25ZM26.8,19.07a3.11,3.11,0,0,1-2.26.93H24V16.67A1.67,1.67,0,0,0,22.33,15H9.67A1.67,1.67,0,0,0,8,16.67V20H7.16a3.3,3.3,0,0,1-2.52-1.17,2.58,2.58,0,0,1-.59-2.17c0-.12,0-.24.08-.36A3.44,3.44,0,0,1,7.32,14a1,1,0,0,0,1-1,6.82,6.82,0,0,1,6.26-7,6.9,6.9,0,0,1,7.16,5.23,1,1,0,0,0,1,.77c3-.1,5.15,2,5.28,4.06A4.06,4.06,0,0,1,26.8,19.07Z"/><path d="M13,20a1,1,0,0,0,0-2h0a1,1,0,0,0,0,2Z"/></g></svg>