<svg fill="currentColor" xmlns="http://www.w3.org/2000/svg" viewBox="0 0 32 32"><g id="protection"><path d="M30,17c-.21-3.15-3.07-5.67-6.55-5.92a8.92,8.92,0,0,0-9-6,8.88,8.88,0,0,0-8.09,8.11,5.36,5.36,0,0,0-4.08,3.58q-.09.3-.15.6a4.65,4.65,0,0,0,1,3.81A5.34,5.34,0,0,0,7.16,23h3.45a8.65,8.65,0,0,0,1.65,2.66,8.79,8.79,0,0,0,3.39,2.26,1.05,1.05,0,0,0,.7,0,8.79,8.79,0,0,0,3.39-2.26A8.65,8.65,0,0,0,21.39,23h3.15a5.11,5.11,0,0,0,3.72-1.56A6.11,6.11,0,0,0,30,17ZM18.26,24.32A6.54,6.54,0,0,1,16,25.92a6.54,6.54,0,0,1-2.26-1.6,7.63,7.63,0,0,1-1.8-5.72L16,16.17l4.06,2.43A7.63,7.63,0,0,1,18.26,24.32Zm8.54-4.23a3.11,3.11,0,0,1-2.26.93h-2.6a10.81,10.81,0,0,0,0-3.16,1,1,0,0,0-.48-.72l-5-3a1,1,0,0,0-1,0l-5,3a1,1,0,0,0-.48.72A10.81,10.81,0,0,0,10.06,21H7.16a3.34,3.34,0,0,1-2.53-1.17A2.65,2.65,0,0,1,4,17.68c0-.12.06-.23.1-.36A3.42,3.42,0,0,1,7.32,15a1,1,0,0,0,1-1,6.83,6.83,0,0,1,6.26-7,6.91,6.91,0,0,1,7.16,5.23,1,1,0,0,0,1,.77c3-.07,5.15,2,5.28,4.07A4.09,4.09,0,0,1,26.8,20.09Z"/><path d="M17,19H15a1,1,0,0,0,0,2h2a1,1,0,0,0,0-2Z"/></g></svg>