<svg fill="currentColor" xmlns="http://www.w3.org/2000/svg" viewBox="0 0 32 32"><g id="queue"><path d="M27.67,15H24V11.33A2.33,2.33,0,0,0,21.67,9H17V4.33A2.34,2.34,0,0,0,14.67,2H4.33A2.34,2.34,0,0,0,2,4.33V14.67A2.34,2.34,0,0,0,4.33,17H9v4.67A2.34,2.34,0,0,0,11.33,24H15v3.67A2.34,2.34,0,0,0,17.33,30H27.67A2.33,2.33,0,0,0,30,27.67V17.33A2.33,2.33,0,0,0,27.67,15ZM4.33,15A.33.33,0,0,1,4,14.67V4.33A.33.33,0,0,1,4.33,4H14.67a.33.33,0,0,1,.33.33V9H11.33A2.34,2.34,0,0,0,9,11.33V15Zm7,7a.33.33,0,0,1-.33-.33V11.33a.33.33,0,0,1,.33-.33H21.67a.33.33,0,0,1,.33.33V15H17.33A2.34,2.34,0,0,0,15,17.33V22ZM28,27.67a.33.33,0,0,1-.33.33H17.33a.33.33,0,0,1-.33-.33V17.33a.33.33,0,0,1,.33-.33H27.67a.33.33,0,0,1,.33.33Z"/><path d="M13,6a1,1,0,0,0-1-1H7A1,1,0,0,0,7,7h5A1,1,0,0,0,13,6Z"/><path d="M20,13a1,1,0,0,0-1-1H14a1,1,0,0,0,0,2h5A1,1,0,0,0,20,13Z"/><path d="M25,18H20a1,1,0,0,0,0,2h5a1,1,0,0,0,0-2Z"/></g></svg>