<svg fill="currentColor" xmlns="http://www.w3.org/2000/svg" viewBox="0 0 32 32"><g id="router"><path d="M29,17H28V8.5a2.5,2.5,0,0,0-5,0V17H9V8.5a2.5,2.5,0,0,0-5,0V17H3a1,1,0,0,0-1,1v2.8A4.2,4.2,0,0,0,6.2,25H25.8A4.2,4.2,0,0,0,30,20.8V18A1,1,0,0,0,29,17ZM25,8.5a.5.5,0,0,1,1,0V17H25ZM6,8.5a.5.5,0,0,1,1,0V17H6ZM28,20.8A2.21,2.21,0,0,1,25.8,23H6.2A2.21,2.21,0,0,1,4,20.8V19H28Z"/><path d="M16,20h0a1,1,0,1,0,1,1A1,1,0,0,0,16,20Z"/><path d="M19,20h0a1,1,0,1,0,1,1A1,1,0,0,0,19,20Z"/><path d="M13,20h0a1,1,0,1,0,1,1A1,1,0,0,0,13,20Z"/><path d="M10,20h0a1,1,0,1,0,1,1A1,1,0,0,0,10,20Z"/><path d="M22,20h0a1,1,0,1,0,1,1A1,1,0,0,0,22,20Z"/></g></svg>