<svg fill="currentColor" xmlns="http://www.w3.org/2000/svg" viewBox="0 0 32 32"><g id="server"><path d="M25,25V4.18A2.19,2.19,0,0,0,22.82,2H9.18A2.19,2.19,0,0,0,7,4.18V25a1,1,0,0,0-1,1v3a1,1,0,0,0,1,1H25a1,1,0,0,0,1-1V26A1,1,0,0,0,25,25Zm-2-8H21.5a.5.5,0,0,1,0-1H23ZM9.18,4H22.82a.18.18,0,0,1,.18.18V11H9V4.18A.18.18,0,0,1,9.18,4ZM9,16h1.5a.5.5,0,0,1,0,1H9Zm0,3h1.5a2.5,2.5,0,0,0,0-5H9V13H23v1H21.5a2.5,2.5,0,0,0,0,5H23v6H21.91a6,6,0,0,0-11.82,0H9Zm10.87,6H12.13a4,4,0,0,1,7.74,0ZM24,28H8V27H24Z"/><path d="M11,10H21a1,1,0,0,0,1-1V6a1,1,0,0,0-1-1H11a1,1,0,0,0-1,1V9A1,1,0,0,0,11,10Zm1-3h8V8H12Z"/></g></svg>