<svg fill="currentColor" xmlns="http://www.w3.org/2000/svg" viewBox="0 0 32 32"><g id="structure"><path d="M27.06,22.82A4.38,4.38,0,0,0,24,20.33V18.75A1.76,1.76,0,0,0,22.25,17H17V15h4.91a3.85,3.85,0,0,0,2.8-1.17A4.46,4.46,0,0,0,26,10.5a5,5,0,0,0-4.62-4.34A6.41,6.41,0,0,0,9,7.64a4,4,0,0,0-2.83,2.62c0,.15-.08.3-.11.44a3.49,3.49,0,0,0,.76,2.87A4,4,0,0,0,9.88,15H15v2H8.75A1.76,1.76,0,0,0,7,18.75v1.62a4.35,4.35,0,0,0-3.12,3.42,2.85,2.85,0,0,0-1.76,1.79c0,.11-.06.21-.08.32A2.54,2.54,0,0,0,2.6,28a2.83,2.83,0,0,0,2.16,1h7.35a2.77,2.77,0,0,0,2-.84A3.16,3.16,0,0,0,15,25.82a3.4,3.4,0,0,0-2.93-3A4.38,4.38,0,0,0,9,20.33V19H22v1.37a4.35,4.35,0,0,0-3.12,3.42,2.85,2.85,0,0,0-1.76,1.79c0,.11-.06.21-.08.32A2.54,2.54,0,0,0,17.6,28a2.83,2.83,0,0,0,2.16,1h7.35a2.77,2.77,0,0,0,2-.84A3.16,3.16,0,0,0,30,25.82,3.4,3.4,0,0,0,27.06,22.82ZM8.36,12.3A1.53,1.53,0,0,1,8,11.08l.06-.21A2.05,2.05,0,0,1,10,9.51a1,1,0,0,0,1-1A4.39,4.39,0,0,1,15,4h.32a4.45,4.45,0,0,1,4.31,3.37,1,1,0,0,0,1,.76A3.12,3.12,0,0,1,24,10.63a2.47,2.47,0,0,1-.75,1.83,1.84,1.84,0,0,1-1.34.54h-12A2,2,0,0,1,8.36,12.3Zm2,11.7a1,1,0,0,0,1,.77A1.5,1.5,0,0,1,13,26a1.16,1.16,0,0,1-.35.84.77.77,0,0,1-.54.21H4.76a.81.81,0,0,1-.62-.29A.55.55,0,0,1,4,26.19a.89.89,0,0,1,.82-.58,1,1,0,0,0,1-1,2.3,2.3,0,0,1,2.12-2.35H8.1A2.34,2.34,0,0,1,10.35,24Zm17.3,2.79a.77.77,0,0,1-.54.21H19.76a.81.81,0,0,1-.62-.29.55.55,0,0,1-.11-.52.89.89,0,0,1,.82-.58,1,1,0,0,0,1-1,2.3,2.3,0,0,1,2.12-2.35h.17A2.34,2.34,0,0,1,25.35,24a1,1,0,0,0,1,.77A1.5,1.5,0,0,1,28,26,1.16,1.16,0,0,1,27.65,26.79Z"/></g></svg>