<svg fill="currentColor" xmlns="http://www.w3.org/2000/svg" viewBox="0 0 32 32"><g id="tower"><path d="M7.38,8.08a2.26,2.26,0,0,1,0-4.16,1,1,0,0,0-.76-1.84,4.24,4.24,0,0,0,0,7.84A.84.84,0,0,0,7,10a1,1,0,0,0,.38-1.92Z"/><path d="M9.4,8.8A1,1,0,0,0,10,9a1,1,0,0,0,.8-.4,1,1,0,0,0-.2-1.4A1.61,1.61,0,0,1,10,6a1.62,1.62,0,0,1,.6-1.2A1,1,0,0,0,9.4,3.2,3.61,3.61,0,0,0,8,6,3.61,3.61,0,0,0,9.4,8.8Z"/><path d="M25.38,2.08a1,1,0,1,0-.76,1.84,2.26,2.26,0,0,1,0,4.16A1,1,0,0,0,25,10a.84.84,0,0,0,.38-.08,4.24,4.24,0,0,0,0-7.84Z"/><path d="M21.4,7.2a1,1,0,0,0-.2,1.4A1,1,0,0,0,22,9a1,1,0,0,0,.6-.2A3.61,3.61,0,0,0,24,6a3.61,3.61,0,0,0-1.4-2.8,1,1,0,1,0-1.2,1.6A1.62,1.62,0,0,1,22,6,1.61,1.61,0,0,1,21.4,7.2Z"/><path d="M18.17,9.35a4,4,0,1,0-4.34,0L8.05,26.68a1,1,0,0,0,1.9.64l1.6-4.82L15,24.57V29a1,1,0,0,0,2,0V24.57l3.45-2.07,1.6,4.82A1,1,0,0,0,23,28a1.25,1.25,0,0,0,.32-.05A1,1,0,0,0,24,26.68ZM15,16.13l-1.08-.72L15,12.16Zm2-4,1.08,3.25L17,16.13ZM16,4a2,2,0,1,1-2,2A2,2,0,0,1,16,4ZM12.2,20.56l1.06-3.18L15,18.54v3.69ZM17,22.23V18.54l1.74-1.16,1.06,3.18Z"/></g></svg>