<svg fill="currentColor" xmlns="http://www.w3.org/2000/svg" viewBox="0 0 32 32"><g id="transfer"><path d="M25.8,4.69A4.68,4.68,0,0,0,21.22,2,4.56,4.56,0,0,0,17,5.68a3,3,0,0,0-1.9,1.82,2,2,0,0,0-.09.33,2.5,2.5,0,0,0,.54,2.09A3,3,0,0,0,17.92,11H21V24a4,4,0,0,1-4,4H13a4,4,0,0,1-3.86-3h2.54A2.32,2.32,0,0,0,14,22.68V12.32A2.32,2.32,0,0,0,11.68,10H4.32A2.32,2.32,0,0,0,2,12.32V22.68A2.32,2.32,0,0,0,4.32,25H7.09A6,6,0,0,0,13,30h4a6,6,0,0,0,6-6V11h2.94A2.92,2.92,0,0,0,28,10.16a3.14,3.14,0,0,0,1-2.41A3.55,3.55,0,0,0,25.8,4.69ZM9,23H7V20H9Zm-5-.32V12.32A.32.32,0,0,1,4.32,12h7.36a.32.32,0,0,1,.32.32V22.68a.32.32,0,0,1-.32.32H11V19a1,1,0,0,0-1-1H6a1,1,0,0,0-1,1v4H4.32A.32.32,0,0,1,4,22.68ZM26.61,8.75a.92.92,0,0,1-.67.25h-8a1,1,0,0,1-.79-.35.55.55,0,0,1-.1-.51,1,1,0,0,1,1-.62,1,1,0,0,0,.7-.32A1,1,0,0,0,19,6.48,2.49,2.49,0,0,1,21.37,4h.19a2.59,2.59,0,0,1,2.55,1.86,1,1,0,0,0,1,.76A1.73,1.73,0,0,1,27,7.89,1.14,1.14,0,0,1,26.61,8.75Z"/><path d="M7,16H9a1,1,0,0,0,0-2H7a1,1,0,0,0,0,2Z"/></g></svg>