<?xml version="1.0" encoding="UTF-8"?><svg fill="currentColor" xmlns="http://www.w3.org/2000/svg" viewBox="0 0 24 24"><g id="p"><g><path d="M16,2.25H8c-3.17,0-5.75,2.58-5.75,5.75v8c0,3.17,2.58,5.75,5.75,5.75h8c3.17,0,5.75-2.58,5.75-5.75V8c0-3.17-2.58-5.75-5.75-5.75Zm4.25,13.75c0,2.34-1.91,4.25-4.25,4.25H8c-2.34,0-4.25-1.91-4.25-4.25V8c0-2.34,1.91-4.25,4.25-4.25h8c2.34,0,4.25,1.91,4.25,4.25v8Z"/><path d="M17.47,9.47l-3.47,3.47-3.47-3.47c-.29-.29-.77-.29-1.06,0l-4,4c-.29,.29-.29,.77,0,1.06s.77,.29,1.06,0l3.47-3.47,3.47,3.47c.15,.15,.34,.22,.53,.22s.38-.07,.53-.22l4-4c.29-.29,.29-.77,0-1.06s-.77-.29-1.06,0Z"/></g></g></svg>