<?xml version="1.0" encoding="UTF-8"?><svg fill="currentColor" xmlns="http://www.w3.org/2000/svg" viewBox="0 0 24 24"><g id="n"><g><path d="M12,2.25C6.62,2.25,2.25,6.62,2.25,12s4.37,9.75,9.75,9.75,9.75-4.37,9.75-9.75S17.38,2.25,12,2.25Zm0,18c-4.55,0-8.25-3.7-8.25-8.25S7.45,3.75,12,3.75s8.25,3.7,8.25,8.25-3.7,8.25-8.25,8.25Z"/><path d="M15,10.25h-.25v-.25c0-1.52-1.23-2.75-2.75-2.75s-2.75,1.23-2.75,2.75v.25h-.25c-.96,0-1.75,.79-1.75,1.75v3c0,.96,.79,1.75,1.75,1.75h6c.96,0,1.75-.79,1.75-1.75v-3c0-.96-.79-1.75-1.75-1.75Zm-4.25-.25c0-.69,.56-1.25,1.25-1.25s1.25,.56,1.25,1.25v.25h-2.5v-.25Zm4.5,5c0,.14-.11,.25-.25,.25h-6c-.14,0-.25-.11-.25-.25v-3c0-.14,.11-.25,.25-.25h6c.14,0,.25,.11,.25,.25v3Z"/></g></g></svg>