<?xml version="1.0" encoding="UTF-8"?><svg fill="currentColor" xmlns="http://www.w3.org/2000/svg" viewBox="0 0 24 24"><g id="r"><g><path d="M18.5,2.25h-2c-1.79,0-3.25,1.46-3.25,3.25v2c0,1.79,1.46,3.25,3.25,3.25h2c1.79,0,3.25-1.46,3.25-3.25v-2c0-1.79-1.46-3.25-3.25-3.25Zm1.75,5.25c0,.96-.79,1.75-1.75,1.75h-2c-.96,0-1.75-.79-1.75-1.75v-2c0-.96,.79-1.75,1.75-1.75h2c.96,0,1.75,.79,1.75,1.75v2Z"/><path d="M18.5,13.25h-2c-1.79,0-3.25,1.46-3.25,3.25v2c0,1.79,1.46,3.25,3.25,3.25h2c1.79,0,3.25-1.46,3.25-3.25v-2c0-1.79-1.46-3.25-3.25-3.25Zm1.75,5.25c0,.96-.79,1.75-1.75,1.75h-2c-.96,0-1.75-.79-1.75-1.75v-2c0-.96,.79-1.75,1.75-1.75h2c.96,0,1.75,.79,1.75,1.75v2Z"/><path d="M7.5,2.25h-2c-1.79,0-3.25,1.46-3.25,3.25v2c0,1.79,1.46,3.25,3.25,3.25h2c1.79,0,3.25-1.46,3.25-3.25v-2c0-1.79-1.46-3.25-3.25-3.25Zm1.75,5.25c0,.96-.79,1.75-1.75,1.75h-2c-.96,0-1.75-.79-1.75-1.75v-2c0-.96,.79-1.75,1.75-1.75h2c.96,0,1.75,.79,1.75,1.75v2Z"/><path d="M7,13.25c-2.07,0-3.75,1.68-3.75,3.75,0,.76,.23,1.47,.62,2.06l-1.41,1.41c-.29,.29-.29,.77,0,1.06,.15,.15,.34,.22,.53,.22s.38-.07,.53-.22l1.41-1.41c.59,.39,1.3,.62,2.06,.62,2.07,0,3.75-1.68,3.75-3.75s-1.68-3.75-3.75-3.75Zm0,6c-1.24,0-2.25-1.01-2.25-2.25s1.01-2.25,2.25-2.25,2.25,1.01,2.25,2.25-1.01,2.25-2.25,2.25Z"/></g></g></svg>