<?xml version="1.0" encoding="UTF-8"?><svg fill="currentColor" xmlns="http://www.w3.org/2000/svg" viewBox="0 0 24 24"><g id="e"><g><path d="M18.89,5.11c-2.05-2.05-4.9-3.08-7.81-2.81C6.52,2.71,2.83,6.31,2.32,10.86c-.2,1.79,.08,3.59,.82,5.2,.33,.71,.34,1.58,.03,2.38l-.87,2.29c-.1,.28-.04,.59,.17,.8,.14,.14,.33,.22,.53,.22,.09,0,.18-.02,.27-.05l2.29-.87c.8-.3,1.67-.29,2.38,.03,1.61,.74,3.41,1.02,5.2,.82,4.55-.52,8.15-4.21,8.57-8.77,.27-2.91-.76-5.75-2.81-7.81Zm1.32,7.67c-.35,3.8-3.46,6.99-7.24,7.42-1.52,.17-3.05-.07-4.41-.69h0c-.56-.26-1.19-.39-1.83-.39-.57,0-1.16,.11-1.71,.32l-.73,.28,.28-.73c.45-1.18,.42-2.47-.07-3.54-.63-1.36-.86-2.89-.69-4.41,.43-3.78,3.62-6.9,7.42-7.24,2.46-.22,4.88,.64,6.61,2.38,1.74,1.74,2.61,4.15,2.38,6.61Z"/><path d="M12,8.75h2c.41,0,.75-.34,.75-.75s-.34-.75-.75-.75h-1.25v-1.25c0-.41-.34-.75-.75-.75s-.75,.34-.75,.75v1.37c-1.15,.33-2,1.38-2,2.63,0,1.52,1.23,2.75,2.75,2.75,.69,0,1.25,.56,1.25,1.25s-.56,1.25-1.25,1.25h-2c-.41,0-.75,.34-.75,.75s.34,.75,.75,.75h1.25v1.25c0,.41,.34,.75,.75,.75s.75-.34,.75-.75v-1.37c1.15-.33,2-1.38,2-2.63,0-1.52-1.23-2.75-2.75-2.75-.69,0-1.25-.56-1.25-1.25s.56-1.25,1.25-1.25Z"/></g></g></svg>