<?xml version="1.0" encoding="UTF-8"?><svg fill="currentColor" xmlns="http://www.w3.org/2000/svg" viewBox="0 0 24 24"><g id="b"><path d="M20.41,11.04l-2.25-2.62c-.24-.28-.59-.46-.96-.48l-3.67-.27-1.64-1.91c-.59-.68-1.33-1.23-2.16-1.57l-4.19-1.75c-.84-.35-1.78-.2-2.47,.4-.68,.59-.97,1.51-.75,2.39l1.12,4.42c.22,.87,.65,1.7,1.23,2.38h0l1.64,1.91-.27,3.69c-.03,.37,.09,.74,.34,1.02l2.25,2.62c.27,.32,.66,.49,1.06,.49,.12,0,.23-.01,.35-.04,.52-.13,.91-.54,1.03-1.06l.52-2.42c.01-.05,0-.1,0-.15,.05,0,.1,.02,.16,.03,.12,0,.23,.01,.35,.01,.89,0,1.75-.25,2.5-.72l.87,1.01c.15,.17,.36,.26,.57,.26,.17,0,.35-.06,.49-.18,.31-.27,.35-.74,.08-1.06l-.88-1.02c.7-.83,1.07-1.84,1.11-2.88,.03,0,.06,.02,.1,.02,.02,0,.04,0,.05,0l2.45-.17c.53-.04,.99-.37,1.2-.86,.21-.5,.12-1.05-.23-1.46ZM4.05,3.96c.25-.22,.6-.27,.91-.15l4.18,1.75-4.24,3.69-1.11-4.4c-.08-.33,.02-.67,.28-.89Zm6.08,13.94l-.48,2.23-2.1-2.41,.16-2.19,.78,.91c.48,.56,1.07,.97,1.73,1.25-.04,.06-.07,.13-.09,.2Zm1.22-6.6c-.27-.31-.75-.35-1.06-.08-.31,.27-.35,.74-.08,1.06l3.39,3.95c-.53,.28-1.13,.42-1.74,.37-.87-.06-1.66-.46-2.24-1.13l-1.97-2.29h0l-1.84-2.14c-.11-.13-.21-.26-.3-.4,.07-.03,.14-.07,.2-.12l4.56-3.96c.05-.05,.09-.1,.12-.16,.12,.11,.25,.21,.36,.33l1.85,2.15h0l1.97,2.29c1.01,1.17,1.04,2.86,.17,4.07l-3.38-3.94Zm5.53,.73c-.07,0-.14,.03-.2,.06-.18-.68-.49-1.33-.98-1.9l-.8-.94,2.12,.14,2.19,2.47-2.33,.16Z"/></g></svg>