<?xml version="1.0" encoding="UTF-8"?><svg fill="currentColor" xmlns="http://www.w3.org/2000/svg" viewBox="0 0 24 24"><g id="g"><g><path d="M19,12.25c-.41,0-.75,.34-.75,.75v3.76c0,1.92-1.56,3.49-3.49,3.49H7.24c-1.92,0-3.49-1.56-3.49-3.49v-7.53c0-1.92,1.56-3.49,3.49-3.49h4.76c.41,0,.75-.34,.75-.75s-.34-.75-.75-.75H7.24c-2.75,0-4.99,2.24-4.99,4.99v7.53c0,2.75,2.24,4.99,4.99,4.99h7.53c2.75,0,4.99-2.24,4.99-4.99v-3.76c0-.41-.34-.75-.75-.75Z"/><path d="M21.53,5.65l-3.18-3.18c-.29-.29-.77-.29-1.06,0s-.29,.77,0,1.06l1.74,1.74c-3.66,.1-6.93,2.3-8.38,5.68l-.93,2.17c-.16,.38,.01,.82,.39,.98,.1,.04,.2,.06,.29,.06,.29,0,.57-.17,.69-.46l.93-2.17c1.25-2.91,4.1-4.79,7.26-4.79h.08l-2.07,2.07c-.29,.29-.29,.77,0,1.06,.15,.15,.34,.22,.53,.22s.38-.07,.53-.22l3.18-3.18c.14-.14,.22-.33,.22-.53s-.08-.39-.22-.53Z"/></g></g></svg>