<?xml version="1.0" encoding="UTF-8"?><svg fill="currentColor" xmlns="http://www.w3.org/2000/svg" viewBox="0 0 24 24"><g id="u"><g><path d="M5,2.25c-1.52,0-2.75,1.23-2.75,2.75v13c0,1.52,1.23,2.75,2.75,2.75s2.75-1.23,2.75-2.75V5c0-1.52-1.23-2.75-2.75-2.75Zm1.25,15.75c0,.69-.56,1.25-1.25,1.25s-1.25-.56-1.25-1.25V5c0-.69,.56-1.25,1.25-1.25s1.25,.56,1.25,1.25v13Z"/><path d="M12,7.25c-1.52,0-2.75,1.23-2.75,2.75v8c0,1.52,1.23,2.75,2.75,2.75s2.75-1.23,2.75-2.75V10c0-1.52-1.23-2.75-2.75-2.75Zm1.25,10.75c0,.69-.56,1.25-1.25,1.25s-1.25-.56-1.25-1.25V10c0-.69,.56-1.25,1.25-1.25s1.25,.56,1.25,1.25v8Z"/><path d="M19,11.25c-1.52,0-2.75,1.23-2.75,2.75v4c0,1.52,1.23,2.75,2.75,2.75s2.75-1.23,2.75-2.75v-4c0-1.52-1.23-2.75-2.75-2.75Zm1.25,6.75c0,.69-.56,1.25-1.25,1.25s-1.25-.56-1.25-1.25v-4c0-.69,.56-1.25,1.25-1.25s1.25,.56,1.25,1.25v4Z"/></g></g></svg>