<?xml version="1.0" encoding="UTF-8"?><svg fill="currentColor" xmlns="http://www.w3.org/2000/svg" viewBox="0 0 24 24"><g id="j"><g><path d="M12,2.25C6.62,2.25,2.25,6.62,2.25,12s4.37,9.75,9.75,9.75,9.75-4.37,9.75-9.75S17.38,2.25,12,2.25Zm.75,17.96v-1.21c0-.41-.34-.75-.75-.75s-.75,.34-.75,.75v1.21c-3.95-.36-7.1-3.51-7.46-7.46h1.21c.41,0,.75-.34,.75-.75s-.34-.75-.75-.75h-1.21c.36-3.95,3.51-7.1,7.46-7.46v1.21c0,.41,.34,.75,.75,.75s.75-.34,.75-.75v-1.21c3.95,.36,7.1,3.51,7.46,7.46h-1.21c-.41,0-.75,.34-.75,.75s.34,.75,.75,.75h1.21c-.36,3.95-3.51,7.1-7.46,7.46Z"/><path d="M12,8.25c-.41,0-.75,.34-.75,.75v2.69l-2.78,2.78c-.29,.29-.29,.77,0,1.06,.15,.15,.34,.22,.53,.22s.38-.07,.53-.22l3-3c.14-.14,.22-.33,.22-.53v-3c0-.41-.34-.75-.75-.75Z"/></g></g></svg>