<?xml version="1.0" encoding="UTF-8"?><svg fill="currentColor" xmlns="http://www.w3.org/2000/svg" viewBox="0 0 24 24"><g id="o"><g><path d="M20.75,7c0-2.07-1.68-3.75-3.75-3.75-1.49,0-2.79,.86-3.39,2.17-.52-.11-1.05-.17-1.61-.17s-1.04,.05-1.54,.15c-.61-1.3-1.9-2.15-3.39-2.15-2.07,0-3.75,1.68-3.75,3.75,0,1.2,.57,2.31,1.52,3.01-.39,.92-.6,1.93-.6,2.99,0,2.38,1.08,4.5,2.76,5.92l-1.54,1.54c-.29,.29-.29,.77,0,1.06,.15,.15,.34,.22,.53,.22s.38-.07,.53-.22l1.74-1.74c1.11,.61,2.38,.96,3.73,.96s2.62-.35,3.73-.96l1.74,1.74c.15,.15,.34,.22,.53,.22s.38-.07,.53-.22c.29-.29,.29-.77,0-1.06l-1.54-1.54c1.69-1.42,2.76-3.55,2.76-5.92,0-1.04-.21-2.04-.59-2.95,.98-.69,1.59-1.82,1.59-3.05Zm-15.92,0c0-1.24,1.01-2.25,2.25-2.25,.82,0,1.54,.43,1.93,1.1-1.4,.59-2.59,1.57-3.43,2.82-.47-.42-.75-1.02-.75-1.67Zm7.17,12.25c-3.45,0-6.25-2.8-6.25-6.25,0-2.78,1.83-5.15,4.35-5.95,.02,0,.04,0,.07,0,.04,0,.07-.03,.1-.05,.55-.16,1.13-.25,1.73-.25,3.45,0,6.25,2.8,6.25,6.25s-2.8,6.25-6.25,6.25Zm6.45-10.53c-.83-1.25-2.01-2.24-3.4-2.84,.39-.68,1.12-1.13,1.95-1.13,1.24,0,2.25,1.01,2.25,2.25,0,.67-.3,1.3-.8,1.72Z"/><path d="M11.5,10.75h1.5c.14,0,.25,.11,.25,.25,0,.41,.34,.75,.75,.75s.75-.34,.75-.75c0-.96-.79-1.75-1.75-1.75h-.25v-.25c0-.41-.34-.75-.75-.75s-.75,.34-.75,.75v.28c-1.12,.13-2,1.07-2,2.22,0,1.24,1.01,2.25,2.25,2.25h1c.41,0,.75,.34,.75,.75s-.34,.75-.75,.75h-1.5c-.14,0-.25-.11-.25-.25,0-.41-.34-.75-.75-.75s-.75,.34-.75,.75c0,.96,.79,1.75,1.75,1.75h.25v.25c0,.41,.34,.75,.75,.75s.75-.34,.75-.75v-.28c1.12-.13,2-1.07,2-2.22,0-1.24-1.01-2.25-2.25-2.25h-1c-.41,0-.75-.34-.75-.75s.34-.75,.75-.75Z"/></g></g></svg>