<?xml version="1.0" encoding="UTF-8"?><svg fill="currentColor" xmlns="http://www.w3.org/2000/svg" viewBox="0 0 24 24"><g id="f"><g><path d="M18.71,6.76l-.47-1.42c-.41-1.23-1.51-2.13-2.8-2.3l-3.37-.42c-.97-.12-1.94,.18-2.67,.83-.54,.48-.91,1.11-1.06,1.8h-.34c-1.52,0-2.75,1.23-2.75,2.75v1.39c-1.81,1.21-3,3.27-3,5.61,0,3.72,3.03,6.75,6.75,6.75s6.75-3.03,6.75-6.75c0-2.34-1.19-4.4-3-5.61v-1.39c0-1.52-1.23-2.75-2.75-2.75h-.09c.11-.25,.27-.49,.48-.67,.41-.36,.95-.53,1.49-.46l3.37,.42c.72,.09,1.34,.59,1.57,1.28l.47,1.42c.1,.31,.4,.51,.71,.51,.08,0,.16-.01,.24-.04,.39-.13,.6-.56,.47-.95Zm-4.46,8.24c0,2.89-2.35,5.25-5.25,5.25s-5.25-2.36-5.25-5.25,2.35-5.25,5.25-5.25,5.25,2.36,5.25,5.25Zm-3-7v.64c-.71-.25-1.46-.39-2.25-.39s-1.54,.14-2.25,.39v-.64c0-.69,.56-1.25,1.25-1.25h2c.69,0,1.25,.56,1.25,1.25Z"/><path d="M19.67,9.67c-.18-.37-.63-.52-1.01-.34-.37,.19-.52,.64-.34,1.01l.5,1c.13,.26,.4,.42,.67,.42,.11,0,.23-.03,.33-.08,.37-.19,.52-.64,.34-1.01l-.5-1Z"/><path d="M21,7.25h-1c-.41,0-.75,.34-.75,.75s.34,.75,.75,.75h1c.41,0,.75-.34,.75-.75s-.34-.75-.75-.75Z"/><path d="M16.47,8.47l-1,1c-.29,.29-.29,.77,0,1.06,.15,.15,.34,.22,.53,.22s.38-.07,.53-.22l1-1c.29-.29,.29-.77,0-1.06s-.77-.29-1.06,0Z"/></g></g></svg>