<?xml version="1.0" encoding="UTF-8"?><svg fill="currentColor" xmlns="http://www.w3.org/2000/svg" viewBox="0 0 24 24"><g id="u"><g><path d="M20,9.25h-.36l-.62-3.7c-.22-1.33-1.36-2.3-2.71-2.3H7.69c-1.35,0-2.49,.97-2.71,2.3l-.62,3.7h-.36c-.96,0-1.75,.79-1.75,1.75v4c0,.96,.79,1.75,1.75,1.75h.25v1.75c0,1.24,1.01,2.25,2.25,2.25s2.25-1.01,2.25-2.25v-1.75h6.5v1.75c0,1.24,1.01,2.25,2.25,2.25s2.25-1.01,2.25-2.25v-1.75h.25c.96,0,1.75-.79,1.75-1.75v-4c0-.96-.79-1.75-1.75-1.75ZM6.46,5.79c.1-.6,.62-1.04,1.23-1.04h8.61c.61,0,1.13,.44,1.23,1.04l.58,3.46H5.89l.58-3.46Zm.79,12.71c0,.41-.34,.75-.75,.75s-.75-.34-.75-.75v-1.75h1.5v1.75Zm11,0c0,.41-.34,.75-.75,.75s-.75-.34-.75-.75v-1.75h1.5v1.75Zm2-3.5c0,.14-.11,.25-.25,.25H4c-.14,0-.25-.11-.25-.25v-4c0-.14,.11-.25,.25-.25H20c.14,0,.25,.11,.25,.25v4Z"/><path d="M8,12.25h-2c-.41,0-.75,.34-.75,.75s.34,.75,.75,.75h2c.41,0,.75-.34,.75-.75s-.34-.75-.75-.75Z"/><path d="M18,12.25h-2c-.41,0-.75,.34-.75,.75s.34,.75,.75,.75h2c.41,0,.75-.34,.75-.75s-.34-.75-.75-.75Z"/></g></g></svg>