<?xml version="1.0" encoding="UTF-8"?><svg fill="currentColor" xmlns="http://www.w3.org/2000/svg" viewBox="0 0 24 24"><g id="l"><g><path d="M21,13.25h-.25V4.75h.25c.41,0,.75-.34,.75-.75s-.34-.75-.75-.75H13c-.41,0-.75,.34-.75,.75s.34,.75,.75,.75h.25v1.5H5c-1.52,0-2.75,1.23-2.75,2.75s1.23,2.75,2.75,2.75H13.25v1.5h-.25c-.41,0-.75,.34-.75,.75s.34,.75,.75,.75h8c.41,0,.75-.34,.75-.75s-.34-.75-.75-.75ZM5,10.25c-.69,0-1.25-.56-1.25-1.25s.56-1.25,1.25-1.25H13.25v2.5H5Zm9.75,3V4.75h4.5V13.25h-4.5Z"/><path d="M21,19.25h-.25v-.25c0-1.52-1.23-2.75-2.75-2.75h-2c-1.52,0-2.75,1.23-2.75,2.75v.25h-.25c-.41,0-.75,.34-.75,.75s.34,.75,.75,.75h8c.41,0,.75-.34,.75-.75s-.34-.75-.75-.75Zm-6.25,0v-.25c0-.69,.56-1.25,1.25-1.25h2c.69,0,1.25,.56,1.25,1.25v.25h-4.5Z"/></g></g></svg>