<?xml version="1.0" encoding="UTF-8"?><svg fill="currentColor" xmlns="http://www.w3.org/2000/svg" viewBox="0 0 24 24"><g id="h"><path d="M21.3,9.31L12.3,5.31c-.19-.09-.42-.09-.61,0L2.7,9.31c-.27,.12-.45,.39-.45,.69s.17,.57,.45,.69l2.58,1.15s-.01,.03-.02,.04l-.61,3.67c-.13,.8,.09,1.61,.62,2.23,.52,.62,1.29,.97,2.1,.97h9.28c.81,0,1.58-.35,2.1-.97,.52-.62,.75-1.43,.62-2.23l-.61-3.67s-.01-.03-.02-.04l2.58-1.15c.27-.12,.45-.39,.45-.69s-.17-.57-.45-.69Zm-3.43,6.48c.06,.36-.04,.73-.28,1.01-.24,.28-.59,.44-.95,.44H7.36c-.37,0-.72-.16-.95-.44-.24-.28-.34-.65-.28-1.01l.56-3.34,5.01,2.23c.1,.04,.2,.06,.3,.06s.21-.02,.3-.06l5.01-2.23,.56,3.34Zm-5.87-2.61l-7.15-3.18,7.15-3.18,7.15,3.18-7.15,3.18Z"/></g></svg>