<?xml version="1.0" encoding="UTF-8"?><svg fill="currentColor" xmlns="http://www.w3.org/2000/svg" viewBox="0 0 24 24"><g id="r"><g><path d="M17.56,16.06l-1.47,.98c-.21,.14-.44,.21-.69,.21h-3.89c-.41,0-.75-.34-.75-.75s.34-.75,.75-.75c1.24,0,2.25-1.01,2.25-2.25s-1.01-2.25-2.25-2.25h-3.12c-.35,0-.7,.07-1.02,.2l-4.64,1.86c-.38,.15-.57,.59-.42,.97,.15,.38,.59,.57,.97,.42l4.64-1.86c.15-.06,.3-.09,.46-.09h3.12c.41,0,.75,.34,.75,.75s-.34,.75-.75,.75c-1.24,0-2.25,1.01-2.25,2.25s1.01,2.25,2.25,2.25h3.89c.55,0,1.07-.16,1.53-.46l1.47-.98c.3-.2,.7-.16,.95,.09l.07,.07c.14,.14,.22,.33,.22,.53s-.08,.39-.22,.53l-1.35,1.35c-.23,.23-.55,.37-.88,.37H7.25c-.1,0-.2-.01-.3-.04l-3.76-.94c-.4-.1-.81,.14-.91,.55-.1,.4,.14,.81,.55,.91l3.76,.94c.22,.05,.44,.08,.67,.08h9.93c.73,0,1.42-.29,1.94-.81l1.35-1.35c.42-.42,.66-.99,.66-1.59s-.23-1.17-.73-1.66c-.76-.76-1.95-.88-2.84-.28Z"/><path d="M17,11.75c2.62,0,4.75-2.13,4.75-4.75s-2.13-4.75-4.75-4.75-4.75,2.13-4.75,4.75,2.13,4.75,4.75,4.75Zm0-8c1.79,0,3.25,1.46,3.25,3.25s-1.46,3.25-3.25,3.25-3.25-1.46-3.25-3.25,1.46-3.25,3.25-3.25Z"/></g></g></svg>