<?xml version="1.0" encoding="UTF-8"?><svg fill="currentColor" xmlns="http://www.w3.org/2000/svg" viewBox="0 0 24 24"><g id="t"><g><path d="M20,8.25h-2.25v-2.25c0-.96-.79-1.75-1.75-1.75H8c-.96,0-1.75,.79-1.75,1.75v2.25h-2.25c-.96,0-1.75,.79-1.75,1.75v9c0,.41,.34,.75,.75,.75H21c.41,0,.75-.34,.75-.75V10c0-.96-.79-1.75-1.75-1.75ZM3.75,10c0-.14,.11-.25,.25-.25h2.25v8.5H3.75V10Zm4-1v-3c0-.14,.11-.25,.25-.25h8c.14,0,.25,.11,.25,.25v12.25h-1.5v-2.25c0-.96-.79-1.75-1.75-1.75h-2c-.96,0-1.75,.79-1.75,1.75v2.25h-1.5V9Zm3,9.25v-2.25c0-.14,.11-.25,.25-.25h2c.14,0,.25,.11,.25,.25v2.25h-2.5Zm9.5,0h-2.5V9.75h2.25c.14,0,.25,.11,.25,.25v8.25Z"/><path d="M9.47,12.53c.07,.07,.15,.13,.24,.16,.1,.04,.19,.06,.29,.06s.2-.02,.29-.06c.09-.03,.17-.09,.24-.16s.12-.15,.16-.24c.04-.09,.06-.19,.06-.29s-.02-.19-.06-.29c-.04-.09-.09-.17-.16-.24-.07-.07-.15-.13-.24-.16-.19-.08-.39-.08-.58,0-.09,.04-.17,.09-.24,.16-.07,.07-.12,.15-.16,.24-.04,.1-.06,.19-.06,.29s.02,.2,.06,.29c.04,.09,.09,.17,.16,.24Z"/><path d="M14,12.75c.1,0,.2-.02,.29-.06,.09-.04,.17-.09,.24-.16s.12-.15,.16-.24c.04-.09,.06-.19,.06-.29s-.02-.19-.06-.29c-.04-.09-.09-.17-.16-.24-.07-.07-.15-.13-.24-.16-.28-.12-.61-.05-.82,.16-.07,.07-.12,.15-.16,.24-.04,.1-.06,.19-.06,.29,0,.2,.08,.39,.22,.53s.33,.22,.53,.22Z"/><path d="M9.47,9.53c.14,.14,.34,.22,.53,.22,.1,0,.2-.02,.29-.06,.09-.03,.17-.09,.24-.16s.12-.15,.16-.24c.04-.09,.06-.19,.06-.29,0-.19-.08-.39-.22-.53-.07-.07-.15-.12-.24-.16-.19-.08-.39-.08-.58,0-.09,.04-.17,.09-.24,.16-.07,.07-.12,.15-.16,.24-.04,.1-.06,.19-.06,.29s.02,.2,.06,.29c.04,.09,.09,.17,.16,.24Z"/><path d="M13.47,9.53c.07,.07,.15,.12,.24,.16,.1,.04,.19,.06,.29,.06s.2-.02,.29-.06c.09-.04,.17-.09,.24-.16,.14-.14,.22-.33,.22-.53s-.08-.39-.22-.53c-.07-.07-.15-.12-.24-.16-.28-.11-.61-.05-.82,.16-.07,.07-.12,.15-.16,.24-.04,.09-.06,.19-.06,.29s.02,.2,.06,.29c.04,.09,.09,.17,.16,.24Z"/></g></g></svg>