<?xml version="1.0" encoding="UTF-8"?><svg fill="currentColor" xmlns="http://www.w3.org/2000/svg" viewBox="0 0 24 24"><g id="g"><g><path d="M20.33,11.33c-.25-.13-.56-.1-.79,.07l-.8,.6V4c0-.96-.79-1.75-1.75-1.75H7c-.96,0-1.75,.79-1.75,1.75V12l-.8-.6c-.23-.17-.53-.2-.79-.07-.25,.13-.42,.39-.42,.67v7c0,1.52,1.23,2.75,2.75,2.75h12c1.52,0,2.75-1.23,2.75-2.75v-7c0-.28-.16-.54-.42-.67Zm-1.08,6.02l-2.37-2.07,2.37-1.78v3.85ZM6.75,13V4c0-.14,.11-.25,.25-.25h10c.14,0,.25,.11,.25,.25V13s.02,.07,.02,.11l-1.54,1.16-2.58-2.25c-.66-.57-1.65-.57-2.3,0l-2.58,2.25-1.54-1.16s.02-.07,.02-.11Zm.37,2.28l-2.37,2.07v-3.85l2.37,1.78Zm10.88,4.97H6c-.58,0-1.07-.4-1.21-.94l7.05-6.17c.09-.08,.23-.08,.33,0l7.05,6.17c-.14,.54-.63,.94-1.21,.94Z"/><path d="M10,10.75c.19,0,.38-.07,.53-.22l4-4c.29-.29,.29-.77,0-1.06s-.77-.29-1.06,0l-4,4c-.29,.29-.29,.77,0,1.06,.15,.15,.34,.22,.53,.22Z"/><path d="M10.02,6.75c.42,0,.75-.34,.75-.75s-.33-.75-.75-.75h0c-.41,0-.75,.34-.75,.75s.34,.75,.75,.75Z"/><path d="M14.02,9.25h0c-.41,0-.75,.34-.75,.75s.34,.75,.75,.75,.75-.34,.75-.75-.33-.75-.75-.75Z"/></g></g></svg>