<?xml version="1.0" encoding="UTF-8"?><svg fill="currentColor" xmlns="http://www.w3.org/2000/svg" viewBox="0 0 24 24"><g id="i"><g><path d="M15,16.25c-.41,0-.75,.34-.75,.75v2c0,.69-.56,1.25-1.25,1.25H5c-.69,0-1.25-.56-1.25-1.25V5c0-.69,.56-1.25,1.25-1.25H13c.69,0,1.25,.56,1.25,1.25,0,.41,.34,.75,.75,.75s.75-.34,.75-.75c0-1.52-1.23-2.75-2.75-2.75H5c-1.52,0-2.75,1.23-2.75,2.75v14c0,1.52,1.23,2.75,2.75,2.75H13c1.52,0,2.75-1.23,2.75-2.75v-2c0-.41-.34-.75-.75-.75Z"/><path d="M7.25,18c0,.41,.34,.75,.75,.75h2c.41,0,.75-.34,.75-.75s-.34-.75-.75-.75h-2c-.41,0-.75,.34-.75,.75Z"/><path d="M20.12,6.27c-.75-.05-1.51,0-2.24,.11-.9,.15-1.54,.38-2.1,.59-.62,.23-1.12,.39-1.77,.4-.47,0-.94-.09-1.42-.27-.52-.19-1.11-.12-1.57,.2-.48,.33-.76,.87-.76,1.45v3.8c0,.65,.36,1.24,.94,1.55,.93,.5,1.88,.76,2.81,.76h.03c.92,0,1.58-.24,2.27-.49,.53-.19,1.07-.39,1.83-.52,.58-.1,1.18-.13,1.78-.1,.47,.04,.96-.15,1.31-.49,.35-.33,.54-.78,.54-1.26v-4c0-.92-.72-1.69-1.63-1.75Zm.13,5.74c0,.08-.04,.14-.07,.17-.03,.03-.11,.07-.21,.08-.71-.04-1.41,0-2.09,.12-.9,.15-1.54,.38-2.1,.59-.62,.23-1.11,.37-1.77,.4-.68,0-1.39-.2-2.1-.58-.09-.05-.15-.14-.15-.23v-3.8c0-.13,.09-.2,.12-.22,.04-.03,.08-.04,.12-.04,.02,0,.05,0,.07,.01,.64,.24,1.3,.36,1.94,.37h.03c.92,0,1.58-.24,2.27-.49,.53-.19,1.07-.39,1.83-.52,.62-.1,1.26-.14,1.9-.09,.13,0,.22,.12,.22,.25v4Z"/></g></g></svg>