<?xml version="1.0" encoding="UTF-8"?><svg fill="currentColor" xmlns="http://www.w3.org/2000/svg" viewBox="0 0 24 24"><g id="k"><g><path d="M15.07,7.35l1.63-4.07c.14-.35,0-.75-.33-.93-.33-.18-.74-.1-.97,.2-.51,.68-1.31,.7-1.4,.7-.85,0-1.35-.63-1.4-.7-.28-.38-.92-.38-1.2,0-.51,.68-1.31,.7-1.4,.7-.85,0-1.35-.63-1.4-.7-.23-.3-.64-.39-.97-.2-.33,.18-.47,.58-.33,.93l1.63,4.07c-2.66,.5-4.68,2.84-4.68,5.65v5c0,2.07,1.68,3.75,3.75,3.75h8c2.07,0,3.75-1.68,3.75-3.75v-5c0-2.81-2.02-5.15-4.68-5.65Zm-5.07-2.6c.22,0,1.16-.04,2.01-.7,.44,.34,1.11,.7,1.99,.7,.08,0,.27,0,.51-.05l-1.02,2.55h-2.98l-1.02-2.54c.16,.03,.33,.04,.51,.04Zm8.25,13.25c0,1.24-1.01,2.25-2.25,2.25H8c-1.24,0-2.25-1.01-2.25-2.25v-5c0-2.34,1.91-4.25,4.25-4.25h4c2.34,0,4.25,1.91,4.25,4.25v5Z"/><path d="M10.75,12.5c0-.69-.56-1.25-1.25-1.25s-1.25,.56-1.25,1.25,.56,1.25,1.25,1.25,1.25-.56,1.25-1.25Zm-1.5,0c0-.14,.11-.25,.25-.25s.25,.11,.25,.25c0,.28-.5,.28-.5,0Z"/><path d="M14.5,16.25c-.69,0-1.25,.56-1.25,1.25s.56,1.25,1.25,1.25,1.25-.56,1.25-1.25-.56-1.25-1.25-1.25Zm-.25,1.25c0-.14,.11-.25,.25-.25s.25,.11,.25,.25c0,.28-.5,.28-.5,0Z"/><path d="M14.53,12.47c-.29-.29-.77-.29-1.06,0l-4,4c-.29,.29-.29,.77,0,1.06,.15,.15,.34,.22,.53,.22s.38-.07,.53-.22l4-4c.29-.29,.29-.77,0-1.06Z"/></g></g></svg>