<?xml version="1.0" encoding="UTF-8"?><svg fill="currentColor" xmlns="http://www.w3.org/2000/svg" viewBox="0 0 24 24"><g id="e"><g><path d="M20.74,6.87c-.06-.34-.34-.59-.68-.62-.67-.05-2.34-.32-3.48-1.72-.4-.5-.69-1.07-.86-1.72-.09-.33-.38-.56-.73-.56h-6c-.34,0-.64,.23-.73,.56-.17,.64-.46,1.22-.86,1.72-1.14,1.4-2.81,1.67-3.48,1.72-.34,.03-.62,.28-.68,.62-.21,1.17-1.04,7.25,3.2,11.65,1.42,1.47,3.26,2.58,5.33,3.2,.07,.02,.14,.03,.21,.03s.15-.01,.21-.03c2.06-.62,3.9-1.72,5.33-3.2,4.24-4.4,3.41-10.48,3.2-11.65Zm-4.28,10.61c-1.19,1.24-2.73,2.18-4.46,2.74-1.73-.55-3.27-1.5-4.46-2.74-3.29-3.42-3.1-8.05-2.88-9.81,1.04-.18,2.7-.69,3.93-2.2,.42-.51,.74-1.09,.97-1.72h4.9c.23,.63,.55,1.21,.97,1.72,1.22,1.51,2.89,2.02,3.93,2.2,.22,1.76,.41,6.39-2.88,9.81Z"/><path d="M10.75,10.5c0-.69-.56-1.25-1.25-1.25s-1.25,.56-1.25,1.25,.56,1.25,1.25,1.25,1.25-.56,1.25-1.25Zm-1.5,0c0-.14,.11-.25,.25-.25s.25,.11,.25,.25c0,.28-.5,.28-.5,0Z"/><path d="M14.5,13.25c-.69,0-1.25,.56-1.25,1.25s.56,1.25,1.25,1.25,1.25-.56,1.25-1.25-.56-1.25-1.25-1.25Zm-.25,1.25c0-.14,.11-.25,.25-.25s.25,.11,.25,.25c0,.28-.5,.28-.5,0Z"/><path d="M14.47,9.41c-.32-.26-.8-.2-1.05,.12l-4,5c-.26,.32-.21,.8,.12,1.05,.14,.11,.3,.16,.47,.16,.22,0,.44-.1,.59-.28l4-5c.26-.32,.21-.8-.12-1.05Z"/></g></g></svg>