<?xml version="1.0" encoding="UTF-8"?><svg fill="currentColor" xmlns="http://www.w3.org/2000/svg" viewBox="0 0 24 24"><g id="q"><g><path d="M21.53,2.47c-.29-.29-.77-.29-1.06,0l-3.48,3.48c-1.05-.58-2.39-.44-3.28,.45l-.54,.54c-2.85-1.28-6.32-.75-8.65,1.58-3.02,3.02-3.02,7.94,0,10.96,1.51,1.51,3.5,2.27,5.48,2.27s3.97-.76,5.48-2.27c2.34-2.34,2.86-5.8,1.58-8.65l.54-.54c.89-.89,1.03-2.23,.45-3.28l3.48-3.48c.29-.29,.29-.77,0-1.06Zm-7.11,15.95c-2.44,2.44-6.4,2.44-8.84,0-2.44-2.44-2.44-6.4,0-8.84,1.22-1.22,2.82-1.83,4.42-1.83s3.2,.61,4.42,1.83c2.44,2.44,2.44,6.4,0,8.84Zm1.06-9.9c-.3-.3-.63-.56-.96-.81l.25-.25c.49-.49,1.28-.49,1.77,0,.49,.49,.49,1.28,0,1.77l-.25,.25c-.24-.34-.5-.66-.81-.96Z"/><path d="M8.75,12c0-.69-.56-1.25-1.25-1.25s-1.25,.56-1.25,1.25,.56,1.25,1.25,1.25,1.25-.56,1.25-1.25Zm-1.5,0c0-.14,.11-.25,.25-.25s.25,.11,.25,.25c0,.28-.5,.28-.5,0Z"/><path d="M12.5,14.75c-.69,0-1.25,.56-1.25,1.25s.56,1.25,1.25,1.25,1.25-.56,1.25-1.25-.56-1.25-1.25-1.25Zm-.25,1.25c0-.14,.11-.25,.25-.25s.25,.11,.25,.25c0,.28-.5,.28-.5,0Z"/><path d="M12.47,10.91c-.32-.26-.79-.21-1.05,.12l-4,5c-.26,.32-.21,.8,.12,1.05,.14,.11,.3,.16,.47,.16,.22,0,.44-.1,.59-.28l4-5c.26-.32,.21-.8-.12-1.05Z"/></g></g></svg>