<?xml version="1.0" encoding="UTF-8"?><svg fill="currentColor" xmlns="http://www.w3.org/2000/svg" viewBox="0 0 24 24"><g id="b"><g><path d="M16,13.25h-.41l-1.04-4.34c-.02-.08,0-.16,.05-.21,.74-.71,1.15-1.67,1.15-2.7,0-1.11-.49-2.16-1.35-2.88-.86-.71-1.99-1.01-3.1-.81-1.49,.27-2.69,1.45-2.98,2.93-.25,1.29,.16,2.6,1.11,3.49,.06,.05,.08,.14,.06,.22l-1.07,4.3h-.41c-1.52,0-2.75,1.23-2.75,2.75v1c0,.96,.79,1.75,1.75,1.75h10c.96,0,1.75-.79,1.75-1.75v-1c0-1.52-1.23-2.75-2.75-2.75Zm-5.54-5.61c-.57-.54-.82-1.32-.66-2.11,.17-.87,.9-1.59,1.78-1.74,.69-.12,1.35,.05,1.87,.48,.51,.43,.81,1.06,.81,1.73,0,.62-.25,1.19-.69,1.62-.43,.42-.61,1.04-.47,1.64l.96,3.99h-4.09l.98-3.93c.15-.61-.03-1.25-.49-1.68Zm6.79,9.36c0,.14-.11,.25-.25,.25H7c-.14,0-.25-.11-.25-.25v-1c0-.69,.56-1.25,1.25-1.25h8c.69,0,1.25,.56,1.25,1.25v1Z"/><path d="M18,20.25H6c-.41,0-.75,.34-.75,.75s.34,.75,.75,.75h12c.41,0,.75-.34,.75-.75s-.34-.75-.75-.75Z"/></g></g></svg>