<?xml version="1.0" encoding="UTF-8"?><svg fill="currentColor" xmlns="http://www.w3.org/2000/svg" viewBox="0 0 24 24"><g id="n"><path d="M21,19.25h-2.25v-5.62c.2-.06,.4-.14,.58-.24l1.14,1.14c.15,.15,.34,.22,.53,.22s.38-.07,.53-.22c.29-.29,.29-.77,0-1.06l-1.14-1.14c.22-.4,.36-.85,.36-1.33,0-1.52-1.23-2.75-2.75-2.75-.68,0-1.29,.26-1.77,.67l-1.62-1.08c.09-.27,.14-.54,.14-.84,0-1.52-1.23-2.75-2.75-2.75s-2.75,1.23-2.75,2.75c0,.56,.17,1.08,.46,1.52l-2.56,2.99c-.35-.16-.74-.26-1.15-.26-1.52,0-2.75,1.23-2.75,2.75,0,.49,.14,.93,.36,1.33l-1.14,1.14c-.29,.29-.29,.77,0,1.06,.15,.15,.34,.22,.53,.22s.38-.07,.53-.22l1.14-1.14c.18,.1,.38,.18,.58,.24v2.62H3c-.41,0-.75,.34-.75,.75s.34,.75,.75,.75H21c.41,0,.75-.34,.75-.75s-.34-.75-.75-.75ZM12.75,9.63c.38-.11,.73-.3,1.02-.55l1.62,1.08c-.09,.27-.14,.54-.14,.84,0,1.25,.85,2.3,2,2.63v5.62h-4.5V9.63Zm5.25,.12c.69,0,1.25,.56,1.25,1.25,0,.33-.14,.63-.35,.86,0,0-.02,0-.03,.02s0,.02-.02,.03c-.22,.21-.52,.35-.86,.35-.69,0-1.25-.56-1.25-1.25s.56-1.25,1.25-1.25Zm-6-4c.69,0,1.25,.56,1.25,1.25s-.56,1.25-1.25,1.25-1.25-.56-1.25-1.25,.56-1.25,1.25-1.25Zm-6,7c.69,0,1.25,.56,1.25,1.25s-.56,1.25-1.25,1.25-1.25-.56-1.25-1.25,.56-1.25,1.25-1.25Zm.75,3.88c1.15-.33,2-1.38,2-2.63,0-.56-.17-1.08-.46-1.52l2.56-2.99c.13,.06,.26,.1,.4,.14v9.62H6.75v-2.62Z"/></g></svg>