<?xml version="1.0" encoding="UTF-8"?><svg fill="currentColor" xmlns="http://www.w3.org/2000/svg" viewBox="0 0 24 24"><g id="j"><g><path d="M20.64,6.04c-1.2-.46-2.4-.72-3.6-.78-.01,0-.03,0-.04,0-.01,0-.03,0-.04,0-.33-.02-.66-.02-.99,0-1.77,.08-3.03,.57-4.24,1.05-1.15,.45-2.23,.88-3.76,.95-1.13,.05-2.28-.11-3.43-.47-.53-.17-1.12-.07-1.57,.26-.45,.33-.71,.84-.71,1.4v7.05c0,.58,.28,1.11,.74,1.44,1.63,1.13,3.3,1.74,4.97,1.83,.13,0,.26,0,.39,0,1.51,0,2.67-.44,3.89-.91,1.1-.42,2.24-.86,3.87-1.11,1.23-.19,2.49-.23,3.75-.12,.48,.04,.96-.12,1.32-.45,.36-.33,.57-.8,.57-1.29V7.68c0-.72-.45-1.38-1.11-1.64Zm-.39,8.84c0,.1-.05,.16-.08,.19-.03,.03-.09,.06-.17,.06-.75-.06-1.5-.08-2.24-.04v-1.08c0-.41-.34-.75-.75-.75s-.75,.34-.75,.75v1.21c-.12,.02-.24,.03-.36,.04-1.78,.27-3.05,.76-4.18,1.19-1.28,.49-2.29,.87-3.67,.8-1.39-.07-2.8-.59-4.19-1.56-.06-.04-.1-.12-.1-.21v-7.05c0-.1,.05-.16,.1-.19,.03-.02,.08-.05,.15-.05,.03,0,.05,0,.08,.01,1.32,.42,2.66,.61,3.95,.54,1.77-.08,3.02-.57,4.24-1.05,1.15-.45,2.24-.88,3.76-.95,.07,0,.14,0,.22,0v1.25c0,.41,.34,.75,.75,.75s.75-.34,.75-.75v-1.16c.78,.11,1.57,.3,2.35,.6,.08,.03,.15,.13,.15,.23v7.2Z"/><path d="M12,9.25c-1.52,0-2.75,1.23-2.75,2.75s1.23,2.75,2.75,2.75,2.75-1.23,2.75-2.75-1.23-2.75-2.75-2.75Zm0,4c-.69,0-1.25-.56-1.25-1.25s.56-1.25,1.25-1.25,1.25,.56,1.25,1.25-.56,1.25-1.25,1.25Z"/><path d="M17,9.25c-.41,0-.75,.34-.75,.75v2c0,.41,.34,.75,.75,.75s.75-.34,.75-.75v-2c0-.41-.34-.75-.75-.75Z"/></g></g></svg>