<?xml version="1.0" encoding="UTF-8"?><svg fill="currentColor" xmlns="http://www.w3.org/2000/svg" viewBox="0 0 24 24"><g id="s"><g><path d="M20.56,9.66c-.12-.53,.15-1.24,.68-1.8,.73-.77,.78-1.91,.11-2.58l-2.63-2.63c-.67-.67-1.8-.62-2.58,.11-.56,.53-1.27,.8-1.8,.68-.2-.05-.37-.15-.52-.31-.29-.31-.7-.49-1.15-.5-.53-.01-1.06,.21-1.46,.61L3.25,11.21c-.4,.4-.62,.93-.61,1.46,0,.45,.19,.86,.5,1.15,.16,.15,.26,.32,.31,.52,.12,.53-.14,1.24-.68,1.8-.73,.77-.78,1.91-.11,2.58l2.63,2.63c.32,.32,.74,.47,1.17,.47,.49,0,1-.2,1.41-.58,.56-.53,1.27-.8,1.8-.68,.2,.05,.37,.15,.52,.31,.29,.31,.7,.49,1.15,.5,.52,0,1.06-.21,1.46-.61l5.65-5.65h0l2.31-2.31c.4-.4,.62-.93,.61-1.46,0-.45-.18-.86-.5-1.16-.16-.15-.26-.32-.31-.52Zm-.41-2.83c-.88,.93-1.28,2.14-1.05,3.16,.11,.5,.36,.93,.77,1.37,0,.09-.04,.24-.17,.37h0l-1.78,1.78-.88-.88c-.29-.29-.77-.29-1.06,0-.29,.29-.29,.77,0,1.06l.88,.88-5.12,5.12c-.13,.13-.28,.17-.45,.15-.36-.38-.79-.63-1.28-.74-1.02-.23-2.23,.17-3.16,1.05-.2,.19-.42,.21-.49,.14l-2.63-2.63c-.07-.07-.05-.29,.14-.49,.88-.93,1.28-2.14,1.05-3.16-.11-.49-.36-.93-.77-1.37,0-.09,.04-.24,.17-.37l5.12-5.12,.88,.88c.15,.15,.34,.22,.53,.22s.38-.07,.53-.22c.29-.29,.29-.77,0-1.06l-.88-.88,1.78-1.78c.11-.11,.23-.16,.36-.16,.03,0,.06,0,.09,0,.36,.38,.79,.63,1.28,.74,1.02,.23,2.23-.17,3.16-1.05,.2-.19,.42-.21,.49-.14l2.63,2.63c.07,.07,.05,.29-.14,.49Z"/><path d="M13.49,9.1c-.29-.29-.77-.29-1.06,0s-.29,.77,0,1.06l1.41,1.41c.15,.15,.34,.22,.53,.22s.38-.07,.53-.22c.29-.29,.29-.77,0-1.06l-1.42-1.41Z"/></g></g></svg>