<?xml version="1.0" encoding="UTF-8"?><svg fill="currentColor" xmlns="http://www.w3.org/2000/svg" viewBox="0 0 24 24"><g id="p"><path d="M12,2.25C6.62,2.25,2.25,6.62,2.25,12c0,.3,.18,.57,.45,.69,.27,.12,.59,.06,.81-.14,.18-.17,1.12-.98,2.38-.8,.78,.11,1.32,.54,1.58,.79,.02,.02,.05,.04,.08,.06,.03,.02,.05,.04,.08,.05,.07,.04,.14,.07,.22,.08,.01,0,.02,0,.03,.01h.03s.06,0,.1,0c.02,0,.04,0,.05,0,.05,0,.1-.01,.14-.03,.04,0,.07-.02,.1-.03,.02,0,.03,0,.05-.02,.65-.35,1.66-.73,2.9-.86v2.52c-1.71,.35-3,1.86-3,3.67,0,2.07,1.68,3.75,3.75,3.75s3.75-1.68,3.75-3.75c0-1.81-1.29-3.33-3-3.67v-2.52c1.24,.12,2.25,.51,2.9,.86,.02,0,.03,.01,.05,.02,.03,.01,.07,.03,.1,.04,.05,.01,.1,.02,.14,.03,.02,0,.04,0,.05,0,.03,0,.06,0,.1,0h.03s.02-.01,.03-.01c.08-.02,.15-.04,.22-.08,.03-.02,.05-.04,.08-.05,.03-.02,.06-.03,.08-.06,.25-.25,.8-.68,1.58-.79,1.27-.17,2.21,.64,2.38,.8,.14,.13,.33,.2,.51,.2,.1,0,.2-.02,.3-.06,.27-.12,.45-.39,.45-.69,0-5.38-4.37-9.75-9.75-9.75Zm0,8c-1.15,0-2.15,.22-2.98,.5,.19-.85,.41-1.69,.69-2.51,.53-1.55,1.23-3.06,2.07-4.48,.07,0,.15,0,.22,0s.15,0,.22,0c.84,1.42,1.54,2.93,2.07,4.48,.28,.82,.5,1.66,.69,2.51-.82-.28-1.82-.5-2.98-.5Zm-6.47-.03c-.63,0-1.19,.15-1.65,.34,.56-3.18,2.95-5.73,6.03-6.54-.64,1.2-1.18,2.45-1.62,3.74-.33,.97-.58,1.96-.79,2.96-.39-.21-.85-.39-1.4-.46-.2-.03-.39-.04-.58-.04Zm8.72,7.78c0,1.24-1.01,2.25-2.25,2.25s-2.25-1.01-2.25-2.25,1.01-2.25,2.25-2.25,2.25,1.01,2.25,2.25Zm3.65-7.74c-.55,.08-1.01,.26-1.4,.46-.21-1-.46-2-.79-2.96-.44-1.28-.98-2.53-1.62-3.74,3.08,.81,5.47,3.36,6.03,6.54-.6-.25-1.35-.42-2.23-.3Z"/></g></svg>