<?xml version="1.0" encoding="UTF-8"?><svg fill="currentColor" xmlns="http://www.w3.org/2000/svg" viewBox="0 0 24 24"><g id="d"><g><path d="M12,3.25H5c-1.52,0-2.75,1.23-2.75,2.75v12c0,1.52,1.23,2.75,2.75,2.75h7c1.52,0,2.75-1.23,2.75-2.75V6c0-1.52-1.23-2.75-2.75-2.75Zm1.25,14.75c0,.69-.56,1.25-1.25,1.25H5c-.69,0-1.25-.56-1.25-1.25V6c0-.69,.56-1.25,1.25-1.25h7c.69,0,1.25,.56,1.25,1.25v12Z"/><path d="M19,3.25c-1.52,0-2.75,1.23-2.75,2.75v10.39c0,.54,.16,1.07,.46,1.53l1.66,2.5c.14,.21,.37,.33,.62,.33s.49-.13,.62-.33l1.66-2.5c.3-.45,.46-.98,.46-1.53V6c0-1.52-1.23-2.75-2.75-2.75Zm0,1.5c.69,0,1.25,.56,1.25,1.25v1.25h-2.5v-1.25c0-.69,.56-1.25,1.25-1.25Zm1.04,12.34l-1.04,1.56-1.04-1.56c-.14-.21-.21-.45-.21-.69v-7.64h2.5v7.64c0,.25-.07,.49-.21,.69Z"/><path d="M11,8.25H6c-.41,0-.75,.34-.75,.75s.34,.75,.75,.75h5c.41,0,.75-.34,.75-.75s-.34-.75-.75-.75Z"/><path d="M10,11.25H6c-.41,0-.75,.34-.75,.75s.34,.75,.75,.75h4c.41,0,.75-.34,.75-.75s-.34-.75-.75-.75Z"/><path d="M9,14.25h-3c-.41,0-.75,.34-.75,.75s.34,.75,.75,.75h3c.41,0,.75-.34,.75-.75s-.34-.75-.75-.75Z"/></g></g></svg>