<?xml version="1.0" encoding="UTF-8"?><svg fill="currentColor" xmlns="http://www.w3.org/2000/svg" viewBox="0 0 24 24"><g id="h"><g><path d="M20,9.75c.96,0,1.75-.79,1.75-1.75v-2c0-.96-.79-1.75-1.75-1.75-.58,0-1.12,.18-1.57,.5-.46-.88-1.37-1.5-2.43-1.5H8c-1.06,0-1.98,.61-2.43,1.5-.45-.31-.98-.5-1.57-.5-.96,0-1.75,.79-1.75,1.75v2c0,.96,.79,1.75,1.75,1.75h1.25v2.5h-.25c-1.52,0-2.75,1.23-2.75,2.75v2c0,.96,.79,1.75,1.75,1.75h1.37c.33,1.15,1.38,2,2.63,2h8c1.25,0,2.3-.85,2.63-2h1.37c.96,0,1.75-.79,1.75-1.75v-2c0-1.52-1.23-2.75-2.75-2.75h-.25v-2.5h1.25Zm0-4c.14,0,.25,.11,.25,.25v2c0,.14-.11,.25-.25,.25h-1.25v-1.25c0-.69,.56-1.25,1.25-1.25Zm-13.25,.25c0-.69,.56-1.25,1.25-1.25h8c.69,0,1.25,.56,1.25,1.25v2.46c-.82,.25-1.66,.44-2.5,.57v-.03c0-.41-.34-.75-.75-.75s-.75,.34-.75,.75v.2c-.83,.06-1.67,.06-2.5,0v-.2c0-.41-.34-.75-.75-.75s-.75,.34-.75,.75v.03c-.84-.13-1.68-.32-2.5-.58v-2.46Zm-3,2v-2c0-.14,.11-.25,.25-.25,.69,0,1.25,.56,1.25,1.25v1.25h-1.25c-.14,0-.25-.11-.25-.25Zm0,9v-2c0-.69,.56-1.25,1.25-1.25h.25v3.5h-1.25c-.14,0-.25-.11-.25-.25Zm12.25,2.25H8c-.69,0-1.25-.56-1.25-1.25v-8c.82,.23,1.66,.41,2.5,.54v.46c0,.41,.34,.75,.75,.75s.75-.34,.75-.75v-.3c.42,.03,.83,.05,1.25,.05s.83-.02,1.25-.05v.3c0,.41,.34,.75,.75,.75s.75-.34,.75-.75v-.46c.84-.12,1.68-.3,2.5-.54v7.99c0,.69-.56,1.25-1.25,1.25Zm3-5.5c.69,0,1.25,.56,1.25,1.25v2c0,.14-.11,.25-.25,.25h-1.25v-3.5h.25Z"/><path d="M14,13.25h-4c-.96,0-1.75,.79-1.75,1.75v1c0,.96,.79,1.75,1.75,1.75h4c.96,0,1.75-.79,1.75-1.75v-1c0-.96-.79-1.75-1.75-1.75Zm.25,2.75c0,.14-.11,.25-.25,.25h-4c-.14,0-.25-.11-.25-.25v-1c0-.14,.11-.25,.25-.25h4c.14,0,.25,.11,.25,.25v1Z"/></g></g></svg>