<?xml version="1.0" encoding="UTF-8"?><svg fill="currentColor" xmlns="http://www.w3.org/2000/svg" viewBox="0 0 24 24"><g id="n"><g><path d="M18,7.25h-2.25v-.25c0-1.52-1.23-2.75-2.75-2.75h-2c-1.52,0-2.75,1.23-2.75,2.75v.25h-2.25c-2.07,0-3.75,1.68-3.75,3.75v5c0,2.07,1.68,3.75,3.75,3.75h12c2.07,0,3.75-1.68,3.75-3.75v-5c0-2.07-1.68-3.75-3.75-3.75Zm-1.77,11H7.76c-.05-.76-.3-1.85-1.23-2.78-.93-.93-2.02-1.18-2.78-1.23v-1.47c.76-.05,1.85-.31,2.78-1.24,.93-.93,1.18-2.02,1.23-2.78h8.47c.05,.76,.3,1.85,1.24,2.78,.93,.93,2.02,1.19,2.78,1.24v1.47c-.76,.05-1.85,.3-2.78,1.23-.93,.93-1.19,2.03-1.24,2.78Zm4.02-7.25v.26c-.49-.05-1.15-.22-1.72-.79-.57-.57-.74-1.24-.79-1.72h.26c1.24,0,2.25,1.01,2.25,2.25ZM9.75,7c0-.69,.56-1.25,1.25-1.25h2c.69,0,1.25,.56,1.25,1.25v.25h-4.5v-.25Zm-3.75,1.75h.26c-.05,.49-.22,1.15-.79,1.72-.57,.57-1.23,.74-1.72,.79v-.26c0-1.24,1.01-2.25,2.25-2.25Zm-2.25,7.25v-.26c.49,.05,1.15,.22,1.72,.79,.57,.57,.74,1.23,.79,1.72h-.26c-1.24,0-2.25-1.01-2.25-2.25Zm14.25,2.25h-.26c.05-.48,.22-1.15,.79-1.72,.57-.57,1.23-.74,1.72-.79v.26c0,1.24-1.01,2.25-2.25,2.25Z"/><path d="M14,11.25h-4c-.96,0-1.75,.79-1.75,1.75v1c0,.96,.79,1.75,1.75,1.75h4c.96,0,1.75-.79,1.75-1.75v-1c0-.96-.79-1.75-1.75-1.75Zm.25,2.75c0,.14-.11,.25-.25,.25h-4c-.14,0-.25-.11-.25-.25v-1c0-.14,.11-.25,.25-.25h4c.14,0,.25,.11,.25,.25v1Z"/></g></g></svg>