<?xml version="1.0" encoding="UTF-8"?><svg fill="currentColor" xmlns="http://www.w3.org/2000/svg" viewBox="0 0 24 24"><g id="d"><g><path d="M20,7.25H11.3c-.63-1.18-1.86-2-3.3-2h-2c-2.07,0-3.75,1.68-3.75,3.75v9c0,2.07,1.68,3.75,3.75,3.75h2c2.07,0,3.75-1.68,3.75-3.75v-2.25h8.25c.96,0,1.75-.79,1.75-1.75v-5c0-.96-.79-1.75-1.75-1.75Zm-9.75,10.75c0,1.24-1.01,2.25-2.25,2.25h-2c-1.24,0-2.25-1.01-2.25-2.25V9c0-1.24,1.01-2.25,2.25-2.25h2c1.24,0,2.25,1.01,2.25,2.25v9Zm10-4c0,.14-.11,.25-.25,.25H11.75v-5.25c0-.09-.02-.17-.03-.25h8.28c.14,0,.25,.11,.25,.25v5Z"/><path d="M7,8.25c-.96,0-1.75,.79-1.75,1.75s.79,1.75,1.75,1.75,1.75-.79,1.75-1.75-.79-1.75-1.75-1.75Zm-.25,1.75c0-.14,.11-.25,.25-.25s.25,.11,.25,.25c0,.28-.5,.28-.5,0Z"/><path d="M18,10.25h-4c-.41,0-.75,.34-.75,.75s.34,.75,.75,.75h4c.41,0,.75-.34,.75-.75s-.34-.75-.75-.75Z"/></g></g></svg>