<?xml version="1.0" encoding="UTF-8"?><svg fill="currentColor" xmlns="http://www.w3.org/2000/svg" viewBox="0 0 24 24"><g id="l"><g><path d="M18,6.25h-7.25v-.25c0-.96-.79-1.75-1.75-1.75h-3c-.96,0-1.75,.79-1.75,1.75v.7c-1.18,.63-2,1.86-2,3.3v6c0,2.07,1.68,3.75,3.75,3.75h12c2.07,0,3.75-1.68,3.75-3.75v-6c0-2.07-1.68-3.75-3.75-3.75Zm-12.25-.25c0-.14,.11-.25,.25-.25h3c.14,0,.25,.11,.25,.25v.25h-3.25c-.09,0-.17,.02-.25,.03v-.28Zm14.5,10c0,1.24-1.01,2.25-2.25,2.25H6c-1.24,0-2.25-1.01-2.25-2.25v-6c0-1.24,1.01-2.25,2.25-2.25h12c1.24,0,2.25,1.01,2.25,2.25v6Z"/><path d="M12,9.25c-2.07,0-3.75,1.68-3.75,3.75s1.68,3.75,3.75,3.75,3.75-1.68,3.75-3.75-1.68-3.75-3.75-3.75Zm0,6c-1.24,0-2.25-1.01-2.25-2.25s1.01-2.25,2.25-2.25,2.25,1.01,2.25,2.25-1.01,2.25-2.25,2.25Z"/><path d="M12.02,12.25h0c-.41,0-.75,.34-.75,.75s.34,.75,.75,.75,.75-.34,.75-.75-.33-.75-.75-.75Z"/></g></g></svg>