<?xml version="1.0" encoding="UTF-8"?><svg fill="currentColor" xmlns="http://www.w3.org/2000/svg" viewBox="0 0 24 24"><g id="g"><path d="M21.5,17.44c-1.39-1.22-2.71-2.54-3.93-3.93-1.85-2.11-3.51-4.43-4.91-6.88-.27-.47-1.03-.47-1.3,0-1.41,2.45-3.06,4.76-4.91,6.88-1.22,1.39-2.54,2.71-3.93,3.93-.23,.21-.32,.54-.21,.83,.11,.29,.39,.49,.7,.49H21c.31,0,.59-.19,.7-.49,.11-.29,.03-.62-.21-.83Zm-13.93-2.94c1.34-1.53,2.57-3.15,3.69-4.86v3.1l-3.61,4.51h-2.71c.92-.88,1.8-1.8,2.64-2.76Zm2,2.76l2.44-3.05,2.44,3.05h-4.88Zm6.8,0l-3.61-4.51v-3.1c1.12,1.7,2.35,3.33,3.69,4.86,.83,.95,1.72,1.87,2.64,2.76h-2.71Z"/></g></svg>