<?xml version="1.0" encoding="UTF-8"?><svg fill="currentColor" xmlns="http://www.w3.org/2000/svg" viewBox="0 0 24 24"><g id="q"><path d="M20.02,12.8l-3.39-1.35-.67-2.7h.04c.41,0,.75-.34,.75-.75s-.34-.75-.75-.75h-1.25v-2.25c0-.96-.79-1.75-1.75-1.75h-3c-.72,0-1.33,.43-1.6,1.05-.13-.03-.26-.05-.4-.05h-1c-.96,0-1.75,.79-1.75,1.75v1.25h-.25c-.41,0-.75,.34-.75,.75s.34,.75,.75,.75h.09l-.66,3.3c-.02,.12-.13,.2-.25,.2h-.18c-.96,0-1.75,.79-1.75,1.75v3c0,.96,.79,1.75,1.75,1.75h1.28c.13,1.12,1.07,2,2.22,2s2.1-.88,2.22-2h4.55c.13,1.12,1.07,2,2.22,2s2.1-.88,2.22-2h1.28c.96,0,1.75-.79,1.75-1.75v-1.65c0-1.13-.68-2.13-1.73-2.55Zm-4.9-1.2l-.83,.41c-.31,.16-.66,.24-1.01,.24h-1.54v-3.5h2.66l.71,2.85Zm-5.38-6.6c0-.14,.11-.25,.25-.25h3c.14,0,.25,.11,.25,.25v2.25h-3.5v-2.25Zm-3,1c0-.14,.11-.25,.25-.25h1c.14,0,.25,.11,.25,.25v1.25h-1.5v-1.25Zm-.13,2.75h3.63v3.5H5.92l.7-3.5Zm.88,10.5c-.41,0-.75-.34-.75-.75s.34-.75,.75-.75,.75,.34,.75,.75-.34,.75-.75,.75Zm9,0c-.41,0-.75-.34-.75-.75s.34-.75,.75-.75,.75,.34,.75,.75-.34,.75-.75,.75Zm3.75-2.25c0,.14-.11,.25-.25,.25h-1.63c-.4-.6-1.09-1-1.87-1s-1.46,.4-1.87,1h-5.26c-.4-.6-1.09-1-1.87-1s-1.46,.4-1.87,1h-1.63c-.14,0-.25-.11-.25-.25v-3c0-.14,.11-.25,.25-.25H13.29c.58,0,1.16-.14,1.68-.4l1.07-.53,3.43,1.37c.48,.19,.79,.65,.79,1.16v1.65Z"/></g></svg>