<?xml version="1.0" encoding="UTF-8"?><svg fill="currentColor" xmlns="http://www.w3.org/2000/svg" viewBox="0 0 24 24"><g id="c"><g><path d="M7,12.75h1c.96,0,1.75-.79,1.75-1.75v-1c0-.96-.79-1.75-1.75-1.75h-1c-.96,0-1.75,.79-1.75,1.75v1c0,.96,.79,1.75,1.75,1.75Zm-.25-2.75c0-.14,.11-.25,.25-.25h1c.14,0,.25,.11,.25,.25v1c0,.14-.11,.25-.25,.25h-1c-.14,0-.25-.11-.25-.25v-1Z"/><path d="M21,16.25h-2.02c.48-.63,.77-1.4,.77-2.25v-4c0-2.62-2.13-4.75-4.75-4.75H5c-1.52,0-2.75,1.23-2.75,2.75v8c0,.96,.79,1.75,1.75,1.75h.28c.13,1.12,1.07,2,2.22,2s2.1-.88,2.22-2h12.28c.41,0,.75-.34,.75-.75s-.34-.75-.75-.75Zm-17.25-.25V8c0-.69,.56-1.25,1.25-1.25H15c1.79,0,3.25,1.46,3.25,3.25v4c0,.98-.63,1.8-1.5,2.11v-4.11c0-1.52-1.23-2.75-2.75-2.75s-2.75,1.23-2.75,2.75v4.25h-2.88c-.4-.6-1.09-1-1.87-1s-1.46,.4-1.87,1h-.63c-.14,0-.25-.11-.25-.25Zm2.75,2.25c-.41,0-.75-.34-.75-.75s.34-.75,.75-.75,.75,.34,.75,.75-.34,.75-.75,.75Zm6.25-6.25c0-.69,.56-1.25,1.25-1.25s1.25,.56,1.25,1.25v4.25h-2.5v-4.25Z"/></g></g></svg>