<?xml version="1.0" encoding="UTF-8"?><svg fill="currentColor" xmlns="http://www.w3.org/2000/svg" viewBox="0 0 24 24"><g id="m"><g><path d="M18.89,5.11c-1.84-1.84-4.29-2.86-6.89-2.86s-5.05,1.01-6.89,2.86c-3.8,3.8-3.8,9.99,0,13.79,1.84,1.84,4.29,2.86,6.89,2.86s5.05-1.01,6.89-2.86c3.8-3.8,3.8-9.99,0-13.79Zm-1.06,12.73c-1.56,1.56-3.63,2.42-5.83,2.42s-4.28-.86-5.83-2.42c-3.22-3.22-3.22-8.45,0-11.67,1.56-1.56,3.63-2.42,5.83-2.42s4.28,.86,5.83,2.42c3.22,3.22,3.22,8.45,0,11.67Z"/><path d="M14.55,6.75l-4.47,1.36c-.92,.28-1.69,1.05-1.97,1.97l-1.36,4.47c-.25,.84-.08,1.67,.48,2.22,.39,.39,.91,.59,1.48,.59,.24,0,.49-.04,.74-.11l4.47-1.36c.92-.28,1.69-1.05,1.97-1.97l1.36-4.47c.25-.84,.08-1.67-.48-2.22-.55-.56-1.39-.73-2.22-.48Zm1.27,2.26l-1.36,4.47c-.14,.45-.53,.84-.97,.97l-4.47,1.36c-.3,.09-.57,.05-.72-.1-.16-.16-.2-.42-.1-.72l1.36-4.47c.14-.45,.53-.84,.97-.97l4.47-1.36c.11-.03,.21-.05,.31-.05,.17,0,.32,.05,.42,.15,.16,.16,.2,.42,.1,.72Z"/><path d="M12.02,11.25h0c-.41,0-.75,.34-.75,.75s.34,.75,.75,.75,.75-.34,.75-.75-.33-.75-.75-.75Z"/></g></g></svg>