<?xml version="1.0" encoding="UTF-8"?><svg fill="currentColor" xmlns="http://www.w3.org/2000/svg" viewBox="0 0 24 24"><g id="i"><path d="M18,11.25h-3.25v-1.5h.95c.35,0,.68-.1,.97-.29l2.75-1.83c.21-.14,.33-.37,.33-.62s-.13-.49-.33-.62l-2.75-1.83c-.29-.19-.62-.29-.97-.29h-.95v-.25c0-.96-.79-1.75-1.75-1.75h-1c-.96,0-1.75,.79-1.75,1.75v.25H6c-.96,0-1.75,.79-1.75,1.75v2c0,.96,.79,1.75,1.75,1.75h4.25v1.5h-1.95c-.35,0-.68,.1-.97,.29l-2.75,1.83c-.21,.14-.33,.37-.33,.62s.13,.49,.33,.62l2.75,1.83c.29,.19,.62,.29,.97,.29h1.95v4.25c0,.41,.34,.75,.75,.75h3c.41,0,.75-.34,.75-.75v-4.25h3.25c.96,0,1.75-.79,1.75-1.75v-2c0-.96-.79-1.75-1.75-1.75Zm-6.25-7.25c0-.14,.11-.25,.25-.25h1c.14,0,.25,.11,.25,.25v.25h-1.5v-.25Zm-6,4v-2c0-.14,.11-.25,.25-.25H15.7s.1,.01,.14,.04l1.81,1.21-1.81,1.21s-.09,.04-.14,.04H6c-.14,0-.25-.11-.25-.25Zm6,1.75h1.5v1.5h-1.5v-1.5Zm1.5,10.5h-1.5v-3.5h1.5v3.5Zm5-5.25c0,.14-.11,.25-.25,.25H8.3s-.1-.01-.14-.04l-1.81-1.21,1.81-1.21s.09-.04,.14-.04h9.7c.14,0,.25,.11,.25,.25v2Z"/></g></svg>