<?xml version="1.0" encoding="UTF-8"?><svg fill="currentColor" xmlns="http://www.w3.org/2000/svg" viewBox="0 0 24 24"><g id="b"><g><path d="M19.23,6.65c-1.42-2.72-4.08-4.36-7.09-4.4h-.26c-3.02,.04-5.67,1.68-7.1,4.4-1.43,2.73-1.26,6,.45,8.54l.16,.24c1.53,2.2,3.4,4.14,5.57,5.75,.31,.23,.68,.35,1.05,.35s.73-.12,1.05-.35c2.17-1.61,4.04-3.54,5.57-5.75l.17-.24c1.71-2.53,1.88-5.8,.44-8.53Zm-1.68,7.69l-.16,.23c-1.43,2.07-3.19,3.88-5.23,5.39h0c-.09,.07-.21,.07-.31,0-2.04-1.51-3.8-3.33-5.23-5.39l-.16-.23c-1.42-2.1-1.55-4.72-.36-7,1.16-2.22,3.33-3.57,5.79-3.6h.22c2.46,.03,4.62,1.37,5.79,3.6,1.19,2.28,1.06,4.9-.35,6.99Z"/><path d="M12,4.25c-3.17,0-5.75,2.58-5.75,5.75s2.58,5.75,5.75,5.75c1.89,0,3.57-.92,4.62-2.34,0,0,.02-.01,.02-.02v-.02c.69-.95,1.11-2.11,1.11-3.37,0-3.17-2.58-5.75-5.75-5.75Zm-3.41,8.26l2.3-1.53c.08-.05,.19-.05,.27,0l3.65,2.19c-.75,.67-1.73,1.09-2.81,1.09-1.4,0-2.64-.69-3.41-1.74Zm7.15-.54l-3.82-2.29c-.58-.34-1.31-.33-1.87,.04l-2.13,1.42c-.1-.37-.18-.75-.18-1.15,0-2.34,1.91-4.25,4.25-4.25s4.25,1.91,4.25,4.25c0,.71-.19,1.38-.51,1.97Z"/><path d="M14.02,8.25h0c-.41,0-.75,.34-.75,.75s.34,.75,.75,.75,.75-.34,.75-.75-.33-.75-.75-.75Z"/></g></g></svg>