<?xml version="1.0" encoding="UTF-8"?><svg fill="currentColor" xmlns="http://www.w3.org/2000/svg" viewBox="0 0 24 24"><g id="o"><g><path d="M21.64,19.61l-4.29-7.14c-.5-.84-1.38-1.34-2.36-1.34s-1.86,.5-2.36,1.34l-.64,1.07-.64-1.07c-.5-.84-1.38-1.34-2.36-1.34s-1.86,.5-2.36,1.34l-4.29,7.14c-.14,.23-.14,.52,0,.76,.13,.23,.38,.38,.65,.38H21c.27,0,.52-.15,.65-.38,.13-.24,.13-.52,0-.76Zm-17.32-.36l3.6-6.01c.46-.76,1.69-.76,2.14,0l3.6,6.01H4.32Zm11.1,0l-2.55-4.25,1.05-1.76c.46-.76,1.69-.76,2.14,0l3.6,6.01h-4.25Z"/><path d="M12,10.75c1.52,0,2.75-1.23,2.75-2.75s-1.23-2.75-2.75-2.75-2.75,1.23-2.75,2.75,1.23,2.75,2.75,2.75Zm0-4c.69,0,1.25,.56,1.25,1.25s-.56,1.25-1.25,1.25-1.25-.56-1.25-1.25,.56-1.25,1.25-1.25Z"/><path d="M12,4.75c.41,0,.75-.34,.75-.75v-1c0-.41-.34-.75-.75-.75s-.75,.34-.75,.75v1c0,.41,.34,.75,.75,.75Z"/><path d="M15,5.75c.19,0,.38-.07,.53-.22l.71-.71c.29-.29,.29-.77,0-1.06s-.77-.29-1.06,0l-.71,.71c-.29,.29-.29,.77,0,1.06,.15,.15,.34,.22,.53,.22Z"/><path d="M8.47,5.53c.15,.15,.34,.22,.53,.22s.38-.07,.53-.22c.29-.29,.29-.77,0-1.06l-.71-.71c-.29-.29-.77-.29-1.06,0s-.29,.77,0,1.06l.71,.71Z"/><path d="M15.25,8c0,.41,.34,.75,.75,.75h1c.41,0,.75-.34,.75-.75s-.34-.75-.75-.75h-1c-.41,0-.75,.34-.75,.75Z"/><path d="M7,8.75h1c.41,0,.75-.34,.75-.75s-.34-.75-.75-.75h-1c-.41,0-.75,.34-.75,.75s.34,.75,.75,.75Z"/></g></g></svg>