<?xml version="1.0" encoding="UTF-8"?><svg fill="currentColor" xmlns="http://www.w3.org/2000/svg" viewBox="0 0 24 24"><g id="k"><g><path d="M17,6.25h-.25v-1.14c0-.97-.51-1.87-1.35-2.4-.91-.56-2.02-.62-2.98-.14-.4,.2-.8,.4-1.2,.6-1.9,.98-3.79,2.05-5.61,3.19-.03,.02-.05,.05-.08,.07-.03,.02-.05,.04-.07,.06-.05,.05-.08,.11-.11,.16-.01,.02-.03,.04-.03,.06-.03,.08-.05,.17-.05,.26v12.02c0,1.52,1.23,2.75,2.75,2.75h9c1.52,0,2.75-1.23,2.75-2.75V9c0-1.52-1.23-2.75-2.75-2.75Zm-5.1-1.74c.4-.2,.79-.4,1.18-.59,.49-.24,1.06-.22,1.53,.07,.41,.26,.65,.67,.65,1.12v1.14h-6.55c1.05-.61,2.12-1.19,3.2-1.74Zm6.35,14.49c0,.69-.56,1.25-1.25,1.25H8c-.69,0-1.25-.56-1.25-1.25V7.75h10.25c.69,0,1.25,.56,1.25,1.25v10Z"/><path d="M12.5,9.25c-1.79,0-3.25,1.46-3.25,3.25s1.46,3.25,3.25,3.25,3.25-1.46,3.25-3.25-1.46-3.25-3.25-3.25Zm0,5c-.96,0-1.75-.79-1.75-1.75s.79-1.75,1.75-1.75,1.75,.79,1.75,1.75-.79,1.75-1.75,1.75Z"/><path d="M15,17.25h-5c-.41,0-.75,.34-.75,.75s.34,.75,.75,.75h5c.41,0,.75-.34,.75-.75s-.34-.75-.75-.75Z"/></g></g></svg>