<?xml version="1.0" encoding="UTF-8"?><svg fill="currentColor" xmlns="http://www.w3.org/2000/svg" viewBox="0 0 24 24"><g id="s"><g><path d="M12.02,15.25h-.01c-.41,0-.74,.34-.74,.75s.34,.75,.75,.75,.75-.34,.75-.75-.34-.75-.75-.75Z"/><path d="M16.02,15.25h0c-.41,0-.75,.34-.75,.75s.34,.75,.75,.75,.75-.34,.75-.75-.33-.75-.75-.75Z"/><path d="M8.02,15.25h-.01c-.41,0-.74,.34-.74,.75s.34,.75,.75,.75,.75-.34,.75-.75-.34-.75-.75-.75Z"/><path d="M21.42,18.38l-1.32-.88,.86-1.71c.27-.55,.24-1.18-.08-1.7-.29-.47-.78-.76-1.32-.81l-.61-1.82c-.21-.63-.75-1.05-1.38-1.15l-.62-1.85c-.24-.72-.91-1.2-1.66-1.2h-.53v-1.25c0-.96-.79-1.75-1.75-1.75h-2c-.96,0-1.75,.79-1.75,1.75v1.25h-.53c-.75,0-1.42,.48-1.66,1.2l-.62,1.85c-.63,.1-1.18,.53-1.38,1.15l-.61,1.82c-.54,.05-1.03,.34-1.32,.81-.32,.52-.35,1.16-.08,1.7l.86,1.71-1.32,.88c-.34,.23-.44,.7-.21,1.04,.23,.34,.69,.44,1.04,.21l1.5-1c.66-.44,1.51-.44,2.17,0,1.16,.78,2.67,.78,3.83,0,.66-.44,1.51-.44,2.17,0,1.16,.78,2.67,.78,3.83,0,.66-.44,1.51-.44,2.17,0l1.5,1c.13,.09,.27,.13,.42,.13,.24,0,.48-.12,.63-.33,.23-.34,.14-.81-.21-1.04ZM10.75,6c0-.14,.11-.25,.25-.25h2c.14,0,.25,.11,.25,.25v1.25h-2.5v-1.25Zm-2.27,2.92c.03-.1,.13-.17,.24-.17h6.56c.11,0,.2,.07,.24,.17l.44,1.33h-7.92l.44-1.33Zm-2,3c.03-.1,.13-.17,.24-.17h10.56c.11,0,.2,.07,.24,.17l.44,1.33H6.04l.44-1.33Zm9.6,5.46c-.66,.44-1.51,.44-2.17,0-1.16-.78-2.67-.78-3.83,0-.66,.44-1.51,.44-2.17,0-.79-.53-1.74-.69-2.64-.5l-.88-1.77c-.05-.11-.02-.2,.01-.24,.03-.04,.09-.12,.21-.12h14.76c.12,0,.19,.07,.21,.12s.06,.13,.01,.24l-.88,1.77c-.89-.19-1.84-.03-2.64,.5Z"/></g></g></svg>