<?xml version="1.0" encoding="UTF-8"?><svg fill="currentColor" xmlns="http://www.w3.org/2000/svg" viewBox="0 0 24 24"><g id="t"><g><path d="M18.4,8.75h1.1c1.24,0,2.25-1.01,2.25-2.25s-1.01-2.25-2.25-2.25H6c-2.07,0-3.75,1.68-3.75,3.75v9c0,.96,.79,1.75,1.75,1.75h1.28c.13,1.12,1.07,2,2.22,2s2.1-.88,2.22-2h3.55c.13,1.12,1.07,2,2.22,2s2.1-.88,2.22-2h1.49c.8,0,1.5-.54,1.7-1.33l.7-2.81c.12-.48,.03-.99-.24-1.4l-2.98-4.47Zm.53,3.5h-3.93c-.14,0-.25-.11-.25-.25v-3c0-.14,.11-.25,.25-.25h1.6l2.33,3.5Zm-11.43,7c-.41,0-.75-.34-.75-.75s.34-.75,.75-.75,.75,.34,.75,.75-.34,.75-.75,.75Zm8,0c-.41,0-.75-.34-.75-.75s.34-.75,.75-.75,.75,.34,.75,.75-.34,.75-.75,.75Zm3.72-2h-1.85c-.4-.6-1.09-1-1.87-1s-1.46,.4-1.87,1h-4.26c-.4-.6-1.09-1-1.87-1s-1.46,.4-1.87,1h-1.63c-.14,0-.25-.11-.25-.25V8c0-1.24,1.01-2.25,2.25-2.25h13.5c.41,0,.75,.34,.75,.75s-.34,.75-.75,.75h-4.5c-.96,0-1.75,.79-1.75,1.75v3c0,.96,.79,1.75,1.75,1.75h4.93l.2,.3c.04,.06,.05,.13,.03,.2v.03c-.06-.01-.11-.03-.17-.03h-1c-.41,0-.75,.34-.75,.75s.34,.75,.75,.75h.79l-.33,1.31c-.03,.11-.13,.19-.24,.19Z"/><path d="M10,8.25h-3c-.96,0-1.75,.79-1.75,1.75v2c0,.96,.79,1.75,1.75,1.75h3c.96,0,1.75-.79,1.75-1.75v-2c0-.96-.79-1.75-1.75-1.75Zm.25,3.75c0,.14-.11,.25-.25,.25h-3c-.14,0-.25-.11-.25-.25v-2c0-.14,.11-.25,.25-.25h3c.14,0,.25,.11,.25,.25v2Z"/></g></g></svg>