<?xml version="1.0" encoding="UTF-8"?><svg fill="currentColor" xmlns="http://www.w3.org/2000/svg" viewBox="0 0 24 24"><g id="f"><g><path d="M19,6.25h-.59c-.47,0-.91,.18-1.24,.51l-.41,.41s-.11,.07-.18,.07h-1.17c-.07,0-.13-.03-.18-.07l-.41-.41c-.33-.33-.77-.51-1.24-.51H5c-1.52,0-2.75,1.23-2.75,2.75v6c0,1.52,1.23,2.75,2.75,2.75H13.59c.47,0,.91-.18,1.24-.51l.41-.41s.11-.07,.18-.07h1.17c.07,0,.13,.03,.18,.07l.41,.41c.33,.33,.77,.51,1.24,.51h.59c1.52,0,2.75-1.23,2.75-2.75v-6c0-1.52-1.23-2.75-2.75-2.75Zm1.25,8.75c0,.69-.56,1.25-1.25,1.25h-.59c-.07,0-.13-.03-.18-.07l-.41-.41c-.33-.33-.77-.51-1.24-.51h-1.17c-.47,0-.91,.18-1.24,.51l-.41,.41s-.11,.07-.18,.07H5c-.69,0-1.25-.56-1.25-1.25v-6c0-.69,.56-1.25,1.25-1.25H13.59c.07,0,.13,.03,.18,.07l.41,.41c.33,.33,.77,.51,1.24,.51h1.17c.47,0,.91-.18,1.24-.51l.41-.41s.11-.07,.18-.07h.59c.69,0,1.25,.56,1.25,1.25v6Z"/><path d="M16,9.25c-.41,0-.75,.34-.75,.75v4c0,.41,.34,.75,.75,.75s.75-.34,.75-.75v-4c0-.41-.34-.75-.75-.75Z"/><path d="M12,11.25h-1.69l-1.78-1.78c-.29-.29-.77-.29-1.06,0s-.29,.77,0,1.06l.72,.72h-1.44v-.25c0-.41-.34-.75-.75-.75s-.75,.34-.75,.75v2c0,.41,.34,.75,.75,.75s.75-.34,.75-.75v-.25h1.44l-.72,.72c-.29,.29-.29,.77,0,1.06,.15,.15,.34,.22,.53,.22s.38-.07,.53-.22l1.78-1.78h1.69c.41,0,.75-.34,.75-.75s-.34-.75-.75-.75Z"/></g></g></svg>