<?xml version="1.0" encoding="UTF-8"?><svg fill="currentColor" xmlns="http://www.w3.org/2000/svg" viewBox="0 0 24 24"><g id="e"><path d="M12,2.25C6.62,2.25,2.25,6.62,2.25,12s4.37,9.75,9.75,9.75,9.75-4.37,9.75-9.75S17.38,2.25,12,2.25Zm8.23,9.39l-1.6,1.2c-1.02,.76-2.38,.83-3.47,.18l-1.02-.61c-.23-.13-.37-.36-.41-.62-.03-.26,.06-.52,.24-.7l.63-.63c.79-.79,.91-2.04,.29-2.96l-.39-.58c-.26-.39-.15-.92,.24-1.18l1.34-.89c2.38,1.37,4.02,3.89,4.14,6.8Zm-16.48,.36c0-.75,.11-1.48,.3-2.17l2.86,1.14c.72,.29,1.13,1.04,.98,1.8l-.28,1.4c-.13,.64,.04,1.29,.45,1.79,.41,.5,1.02,.79,1.67,.79,.33,0,.5,.22,.56,.31,.06,.09,.18,.34,.03,.64l-.98,1.96s-.02,.08-.03,.12c-3.22-1.12-5.55-4.18-5.55-7.79Zm8.25,8.25c-.42,0-.83-.04-1.24-.1l.89-1.77c.34-.67,.3-1.46-.09-2.1-.4-.64-1.08-1.02-1.84-1.02-.27,0-.44-.15-.51-.24-.07-.09-.19-.28-.14-.55l.28-1.4c.29-1.47-.5-2.93-1.89-3.49l-2.89-1.15c1.34-2.76,4.16-4.67,7.42-4.67,.86,0,1.68,.13,2.46,.37l-.55,.36c-1.08,.72-1.37,2.18-.65,3.26l.39,.58c.22,.33,.18,.79-.11,1.07l-.63,.63c-.52,.51-.76,1.22-.67,1.95,.09,.72,.5,1.35,1.12,1.73l1.02,.61c.74,.44,1.56,.66,2.38,.66,.98,0,1.95-.31,2.77-.93l.56-.42c-.76,3.77-4.09,6.63-8.09,6.63Z"/></g></svg>