<?xml version="1.0" encoding="UTF-8"?><svg fill="currentColor" xmlns="http://www.w3.org/2000/svg" viewBox="0 0 24 24"><g id="b"><g><path d="M16,10.25c-.41,0-.75,.34-.75,.75s.34,.75,.75,.75c2.34,0,4.25,1.91,4.25,4.25s-1.91,4.25-4.25,4.25H8c-2.34,0-4.25-1.91-4.25-4.25s1.91-4.25,4.25-4.25c.41,0,.75-.34,.75-.75s-.34-.75-.75-.75c-3.17,0-5.75,2.58-5.75,5.75s2.58,5.75,5.75,5.75h8c3.17,0,5.75-2.58,5.75-5.75s-2.58-5.75-5.75-5.75Z"/><path d="M6.25,16c0,1.52,1.23,2.75,2.75,2.75h6c1.52,0,2.75-1.23,2.75-2.75s-1.23-2.75-2.75-2.75h-6c-1.52,0-2.75,1.23-2.75,2.75Zm10,0c0,.69-.56,1.25-1.25,1.25h-6c-.69,0-1.25-.56-1.25-1.25s.56-1.25,1.25-1.25h6c.69,0,1.25,.56,1.25,1.25Z"/><path d="M9.09,7.53c.14,.4,.31,.8,.49,1.18,.49,1.01,1.11,1.96,1.86,2.79,.14,.16,.34,.25,.56,.25s.42-.09,.56-.25c.75-.84,1.38-1.78,1.86-2.79,.18-.38,.35-.78,.49-1.18,.34-.98,.19-2.08-.41-2.94-.58-.83-1.47-1.31-2.54-1.32-.98,.01-1.88,.49-2.46,1.32-.6,.86-.75,1.96-.41,2.94h0Zm1.64-2.08c.3-.43,.75-.67,1.3-.68,.49,0,.95,.25,1.25,.68,.33,.46,.41,1.05,.22,1.58-.12,.33-.26,.67-.43,1.03-.3,.62-.66,1.21-1.07,1.76-.41-.55-.77-1.14-1.07-1.76-.17-.36-.31-.7-.43-1.03-.18-.52-.1-1.11,.22-1.58Z"/></g></g></svg>