<?xml version="1.0" encoding="UTF-8"?><svg fill="currentColor" xmlns="http://www.w3.org/2000/svg" viewBox="0 0 24 24"><g id="j"><path d="M21,2.25c-.41,0-.75,.34-.75,.75v1.25H3.75v-1.25c0-.41-.34-.75-.75-.75s-.75,.34-.75,.75V21c0,.41,.34,.75,.75,.75s.75-.34,.75-.75v-4.86c2.61,1.05,5.44,1.61,8.25,1.61s5.64-.55,8.25-1.61v4.86c0,.41,.34,.75,.75,.75s.75-.34,.75-.75V3c0-.41-.34-.75-.75-.75Zm-.75,6h-3.11c-.25-.37-.39-.8-.39-1.25s.14-.88,.39-1.25h3.11v2.5Zm-4.78,0h-6.94c.14-.4,.22-.82,.22-1.25s-.08-.85-.22-1.25h6.94c-.14,.4-.22,.82-.22,1.25s.08,.85,.22,1.25ZM6.86,5.75c.25,.37,.39,.8,.39,1.25s-.14,.88-.39,1.25H3.75v-2.5h3.11ZM3.75,14.51v-4.76H20.25v4.76c-5.17,2.27-11.33,2.27-16.5,0Z"/></g></svg>