<?xml version="1.0" encoding="UTF-8"?><svg fill="currentColor" xmlns="http://www.w3.org/2000/svg" viewBox="0 0 24 24"><g id="r"><path d="M20,6.25h-5.43c-.28-.59-.88-1-1.57-1h-3c-.85,0-1.6,.39-2.1,1h-.9c-2.07,0-3.75,1.68-3.75,3.75v.25h-.25c-.41,0-.75,.34-.75,.75v6c0,1.52,1.23,2.75,2.75,2.75h2c1.52,0,2.75-1.23,2.75-2.75v-3.19l1.72,1.72c.15,.15,.34,.22,.53,.22s.38-.07,.53-.22c.29-.29,.29-.77,0-1.06l-1.72-1.72h2.19c.7,0,1.29-.41,1.57-1h5.43c.96,0,1.75-.79,1.75-1.75v-2c0-.96-.79-1.75-1.75-1.75Zm-15.25,3.75c0-1.24,1.01-2.25,2.25-2.25h.28c0,.08-.03,.16-.03,.25v2c0,.09,.02,.17,.03,.25h-2.53v-.25Zm2.25,8.25h-2c-.69,0-1.25-.56-1.25-1.25v-5.25H7.9c.11,.13,.22,.25,.35,.35v4.9c0,.69-.56,1.25-1.25,1.25Zm6-7h-3c-.69,0-1.25-.56-1.25-1.25v-2c0-.69,.56-1.25,1.25-1.25h3c.14,0,.25,.11,.25,.25v4c0,.14-.11,.25-.25,.25Zm7.25-1.25c0,.14-.11,.25-.25,.25h-5.25v-2.5h5.25c.14,0,.25,.11,.25,.25v2Z"/></g></svg>