<?xml version="1.0" encoding="UTF-8"?><svg fill="currentColor" xmlns="http://www.w3.org/2000/svg" viewBox="0 0 24 24"><g id="g"><path d="M19.5,17.25h-4.5c-.69,0-1.25-.56-1.25-1.25v-.28c1.12-.13,2-1.07,2-2.22v-4.76c1.68-.13,3-1.53,3-3.24,0-1.79-1.46-3.25-3.25-3.25h-1.5c-1.52,0-2.75,1.23-2.75,2.75V13.5c0,.78,.4,1.46,1,1.87v.63c0,1.52,1.23,2.75,2.75,2.75h4.5c.41,0,.75,.34,.75,.75s-.34,.75-.75,.75H11c-1.24,0-2.25-1.01-2.25-2.25v-1.63c.6-.4,1-1.09,1-1.87V6c0-1.52-1.23-2.75-2.75-2.75h-1.5c-1.79,0-3.25,1.46-3.25,3.25s1.32,3.11,3,3.24v4.76c0,1.15,.88,2.1,2,2.22v1.28c0,2.07,1.68,3.75,3.75,3.75h8.5c1.24,0,2.25-1.01,2.25-2.25s-1.01-2.25-2.25-2.25Zm-6-3c-.41,0-.75-.34-.75-.75v-.75h1.5v.75c0,.41-.34,.75-.75,.75Zm.5-10.5h1.5c.96,0,1.75,.79,1.75,1.75s-.79,1.75-1.75,1.75h-.5c-.41,0-.75,.34-.75,.75v3.25h-1.5V5c0-.69,.56-1.25,1.25-1.25ZM3.75,6.5c0-.96,.79-1.75,1.75-1.75h1.5c.69,0,1.25,.56,1.25,1.25v6.25h-1.5v-3.25c0-.41-.34-.75-.75-.75h-.5c-.96,0-1.75-.79-1.75-1.75Zm3,8v-.75h1.5v.75c0,.41-.34,.75-.75,.75s-.75-.34-.75-.75Z"/></g></svg>