<?xml version="1.0" encoding="UTF-8"?><svg fill="currentColor" xmlns="http://www.w3.org/2000/svg" viewBox="0 0 24 24"><g id="l"><g><path d="M16.5,8.75c.83,0,1.66-.32,2.3-.95,.61-.61,.95-1.43,.95-2.3s-.34-1.68-.95-2.3c-1.27-1.27-3.33-1.27-4.6,0-.61,.61-.95,1.43-.95,2.3s.34,1.68,.95,2.3c.63,.63,1.47,.95,2.3,.95Zm-1.24-4.49c.34-.34,.79-.51,1.24-.51s.9,.17,1.24,.51c.33,.33,.51,.77,.51,1.24s-.18,.91-.51,1.24c-.68,.68-1.79,.68-2.47,0-.33-.33-.51-.77-.51-1.24s.18-.91,.51-1.24Z"/><path d="M19,12.25h-2.5c-.08,0-.15-.04-.2-.1l-2.1-2.8c-.52-.69-1.34-1.1-2.2-1.1H7.54c-.59,0-1.13,.29-1.46,.78l-1.7,2.55c-.23,.34-.14,.81,.21,1.04,.35,.23,.81,.14,1.04-.21l1.7-2.55c.05-.07,.12-.11,.21-.11h.4l-.98,2.37c-.52,1.27-.05,2.7,1.13,3.4l.11,.07-.17,.21c-.24,.29-.59,.45-.96,.45h-3.06c-.41,0-.75,.34-.75,.75s.34,.75,.75,.75h3.06c.82,0,1.59-.36,2.11-.99l.33-.39,1.14,.69c.37,.22,.61,.64,.61,1.07v2.87c0,.41,.34,.75,.75,.75s.75-.34,.75-.75v-2.87c0-.96-.51-1.86-1.33-2.36l-.94-.56,3.3-3.92,1.32,1.76c.33,.44,.85,.7,1.4,.7h2.5c.41,0,.75-.34,.75-.75s-.34-.75-.75-.75Zm-10.14,1.99c-.53-.32-.75-.97-.51-1.55l1.21-2.94h2.44c.31,0,.61,.12,.84,.33l-3.66,4.35-.31-.19Z"/></g></g></svg>