<?xml version="1.0" encoding="UTF-8"?><svg fill="currentColor" xmlns="http://www.w3.org/2000/svg" viewBox="0 0 24 24"><g id="q"><g><path d="M6.22,10.48c.75-.84,1.38-1.78,1.86-2.79,.18-.39,.35-.78,.49-1.18,.34-.98,.19-2.08-.41-2.93-.58-.83-1.47-1.31-2.54-1.32-.98,.01-1.88,.49-2.46,1.32-.6,.86-.75,1.96-.41,2.94,.14,.4,.31,.8,.49,1.18,.49,1.02,1.11,1.96,1.86,2.79,.14,.16,.35,.25,.56,.25s.42-.09,.56-.25Zm-1.63-3.44c-.17-.36-.31-.7-.43-1.03-.18-.52-.1-1.11,.22-1.58,.3-.43,.75-.67,1.3-.68,.49,0,.95,.25,1.25,.68,.32,.46,.41,1.05,.22,1.58-.11,.33-.25,.67-.43,1.03-.3,.62-.66,1.21-1.07,1.76-.41-.55-.77-1.14-1.07-1.76Z"/><path d="M20.84,14.59c-.58-.83-1.47-1.31-2.54-1.32-.98,.01-1.88,.49-2.46,1.32-.6,.86-.75,1.96-.41,2.94,.14,.4,.3,.8,.49,1.18,.49,1.01,1.11,1.95,1.86,2.79,.14,.16,.34,.25,.56,.25s.42-.09,.56-.25c.75-.84,1.38-1.78,1.86-2.79,.18-.38,.35-.78,.49-1.18,.34-.98,.19-2.08-.41-2.94Zm-1,2.44c-.12,.33-.26,.67-.43,1.03-.3,.62-.65,1.21-1.07,1.76-.41-.55-.77-1.14-1.07-1.76-.17-.36-.31-.7-.43-1.03h0c-.18-.53-.1-1.12,.22-1.58,.3-.43,.75-.67,1.3-.68,.49,0,.95,.25,1.25,.68,.33,.46,.41,1.05,.22,1.58Z"/><path d="M13,16.25h-4.83c-.78,0-1.42-.63-1.42-1.42,0-.69,.5-1.28,1.18-1.4l8.38-1.4c1.41-.24,2.44-1.45,2.44-2.88,0-1.61-1.31-2.92-2.92-2.92h-4.83c-.41,0-.75,.34-.75,.75s.34,.75,.75,.75h4.83c.78,0,1.42,.63,1.42,1.42,0,.69-.5,1.28-1.18,1.4l-8.38,1.4c-1.41,.24-2.44,1.45-2.44,2.88,0,1.61,1.31,2.92,2.92,2.92h4.83c.41,0,.75-.34,.75-.75s-.34-.75-.75-.75Z"/></g></g></svg>