<?xml version="1.0" encoding="UTF-8"?><svg fill="currentColor" xmlns="http://www.w3.org/2000/svg" viewBox="0 0 24 24"><g id="d"><path d="M20,11.25h-4.25v-3.25c0-.96-.79-1.75-1.75-1.75h-4c-.96,0-1.75,.79-1.75,1.75v1.25H4c-.96,0-1.75,.79-1.75,1.75v5c0,.96,.79,1.75,1.75,1.75H20c.96,0,1.75-.79,1.75-1.75v-3c0-.96-.79-1.75-1.75-1.75ZM3.75,16v-5c0-.14,.11-.25,.25-.25h4.25v5.5H4c-.14,0-.25-.11-.25-.25Zm6-6v-2c0-.14,.11-.25,.25-.25h4c.14,0,.25,.11,.25,.25v8.25h-4.5v-6.25Zm10.5,6c0,.14-.11,.25-.25,.25h-4.25v-3.5h4.25c.14,0,.25,.11,.25,.25v3Z"/></g></svg>