<?xml version="1.0" encoding="UTF-8"?><svg fill="currentColor" xmlns="http://www.w3.org/2000/svg" viewBox="0 0 24 24"><g id="c"><path d="M19.93,17.73c-.75-.97-1.74-1.33-2.44-1.46-.09-.02-.16-.09-.2-.19l-1.74-4.77c-.03-.09-.1-.17-.15-.25l4.39-7.69c.21-.36,.08-.82-.28-1.02-.36-.21-.82-.08-1.02,.28l-4.51,7.89s-.08,0-.12,.02c-.4,.16-1.03,.31-1.74,.12-.77-.2-1.26-.69-1.54-1.07-.36-.49-.76-.89-1.18-1.2l-.51-.37c-.09-.07-.19-.13-.29-.17l2.95-4.42c.23-.34,.14-.81-.21-1.04-.35-.23-.81-.14-1.04,.21l-4,6s-.01,.03-.02,.05l-2.68,3.6c-.28,.38-.4,.84-.33,1.31,.07,.46,.32,.87,.7,1.15l8.46,6.15c.82,.59,1.78,.91,2.79,.91h3.77c.49,0,.95-.2,1.28-.56,.33-.36,.5-.85,.46-1.34-.06-.79-.34-1.52-.81-2.13ZM4.76,13.31s0-.11,.05-.19l.61-.82c.32,.49,.69,.92,1.12,1.27,.58,.47,1.13,.72,1.62,.94,.63,.29,.97,.45,1.2,.85,.22,.38,.27,.89,.17,1.49l-4.67-3.39c-.07-.05-.09-.12-.1-.16Zm14.42,6.86s-.09,.08-.18,.08h-3.77c-.69,0-1.35-.21-1.91-.62l-2.49-1.81c.36-1.26,.32-2.34-.18-3.2-.48-.83-1.19-1.15-1.88-1.46-.43-.19-.87-.39-1.3-.74-.45-.36-.8-.83-1.09-1.42l1.35-1.81h0s.06-.04,.09-.04c.08,0,.16,.06,.18,.07l.51,.37c.31,.22,.59,.51,.86,.88,.42,.57,1.17,1.32,2.37,1.63,.99,.26,1.86,.11,2.47-.1l.37,1.01-.81,.27c-.39,.13-.61,.56-.47,.95,.11,.31,.4,.51,.71,.51,.08,0,.16-.01,.24-.04l.85-.28,.24,.67-.57,.19c-.39,.13-.61,.56-.47,.95,.11,.31,.4,.51,.71,.51,.08,0,.16-.01,.24-.04l.61-.2,.03,.08c.22,.59,.73,1.03,1.33,1.15,.44,.08,1.07,.31,1.54,.91,.29,.38,.46,.82,.5,1.32,0,.1-.04,.17-.07,.2Z"/></g></svg>