<?xml version="1.0" encoding="UTF-8"?><svg fill="currentColor" xmlns="http://www.w3.org/2000/svg" viewBox="0 0 24 24"><g id="e"><g><path d="M18,2.25H6c-2.07,0-3.75,1.68-3.75,3.75v12c0,2.07,1.68,3.75,3.75,3.75h12c2.07,0,3.75-1.68,3.75-3.75V6c0-2.07-1.68-3.75-3.75-3.75Zm2.25,15.75c0,1.24-1.01,2.25-2.25,2.25H6c-1.24,0-2.25-1.01-2.25-2.25V6c0-1.24,1.01-2.25,2.25-2.25h12c1.24,0,2.25,1.01,2.25,2.25v12Z"/><path d="M15.93,6.13c-2.44-1.14-5.4-1.15-7.85,0-.57,.27-.85,.92-.65,1.53l.75,2.24c.17,.51,.65,.86,1.19,.86h5.28c.54,0,1.02-.34,1.19-.85l.75-2.24c.2-.6-.08-1.26-.65-1.53Zm-1.47,3.13h-2l-.44-.88c-.18-.37-.64-.52-1.01-.34-.37,.19-.52,.64-.34,1.01l.11,.21h-1.25l-.62-1.86c.72-.31,1.79-.64,3.08-.64,.74,0,1.87,.11,3.08,.64l-.62,1.86Z"/></g></g></svg>