<?xml version="1.0" encoding="UTF-8"?><svg fill="currentColor" xmlns="http://www.w3.org/2000/svg" viewBox="0 0 24 24"><g id="s"><g><path d="M21.53,7.47l-2.33-2.33c-.52-.52-1.16-.91-1.86-1.15l-2.1-.7c-.38-.13-.78,.06-.93,.42-.39,.93-1.3,1.54-2.31,1.54s-1.92-.6-2.31-1.54c-.15-.36-.56-.55-.93-.42l-2.1,.7c-.7,.23-1.34,.63-1.86,1.15l-2.33,2.33c-.19,.19-.26,.46-.2,.71l1,4c.06,.24,.23,.43,.46,.52,.23,.09,.48,.06,.69-.08l1.83-1.22v8.6c0,.96,.79,1.75,1.75,1.75h8c.96,0,1.75-.79,1.75-1.75V11.4l1.83,1.22c.2,.14,.46,.16,.69,.08,.23-.09,.4-.28,.46-.52l1-4c.06-.26-.01-.53-.2-.71Zm-2,3.32l-2.11-1.41c-.23-.15-.53-.17-.77-.04-.24,.13-.4,.38-.4,.66v10c0,.14-.11,.25-.25,.25H8c-.14,0-.25-.11-.25-.25V10c0-.28-.15-.53-.4-.66-.11-.06-.23-.09-.35-.09-.15,0-.29,.04-.42,.13l-2.11,1.41-.64-2.56,2.03-2.03c.35-.35,.79-.63,1.27-.79l1.5-.5c.73,1.13,1.98,1.84,3.37,1.84s2.64-.7,3.37-1.84l1.5,.5c.48,.16,.92,.43,1.27,.79l2.03,2.03-.64,2.56Z"/><path d="M13,11.25h-2c-.96,0-1.75,.79-1.75,1.75v1c0,.96,.79,1.75,1.75,1.75h2c.96,0,1.75-.79,1.75-1.75v-1c0-.96-.79-1.75-1.75-1.75Zm.25,2.75c0,.14-.11,.25-.25,.25h-2c-.14,0-.25-.11-.25-.25v-1c0-.14,.11-.25,.25-.25h2c.14,0,.25,.11,.25,.25v1Z"/></g></g></svg>