<?xml version="1.0" encoding="UTF-8"?><svg fill="currentColor" xmlns="http://www.w3.org/2000/svg" viewBox="0 0 24 24"><g id="h"><path d="M18.24,9.18l-.24-.24c-.8-.8-1.25-1.87-1.25-3.01V3.5c0-.69-.56-1.25-1.25-1.25h-1.06c-.59,0-1.1,.41-1.22,.99-.11,.59-.63,1.01-1.23,1.01s-1.11-.43-1.23-1.01c-.11-.57-.62-.99-1.22-.99h-1.06c-.69,0-1.25,.56-1.25,1.25v2.43c0,1.14-.44,2.2-1.25,3.01l-.24,.24c-.33,.33-.51,.78-.51,1.24v8.85c0,.78,.5,1.46,1.25,1.68,1.79,.53,3.64,.8,5.5,.8s3.73-.27,5.52-.81c.73-.22,1.23-.9,1.23-1.67V10.41c0-.46-.19-.91-.51-1.24Zm-11.41,1.06l.24-.24c1.09-1.09,1.68-2.53,1.68-4.07V3.75h.61c.33,1.17,1.41,2,2.64,2s2.31-.83,2.65-2h.6v2.18c0,1.46,.56,2.84,1.55,3.9L6.75,15.69v-5.28c0-.07,.03-.13,.07-.18Zm-.07,9.03v-1.84l10.5-6.12v2.28l-9.6,6.11c-.24-.06-.49-.12-.73-.19-.1-.03-.17-.13-.17-.24Zm10.34,.24c-2.36,.71-4.84,.9-7.28,.6l7.44-4.74v3.9c0,.11-.07,.21-.16,.24Z"/></g></svg>