<?xml version="1.0" encoding="UTF-8"?><svg fill="currentColor" xmlns="http://www.w3.org/2000/svg" viewBox="0 0 24 24"><g id="f"><g><path d="M14.11,15.9l-1.75-1.05c-.37-.22-.61-.63-.61-1.07V6.92c0-.96-.79-1.75-1.75-1.75h-3c-.96,0-1.75,.79-1.75,1.75V15.89c0,.89,.43,1.72,1.15,2.24l4.26,3.04c.55,.39,1.19,.58,1.82,.58,.96,0,1.92-.43,2.53-1.25,.53-.71,.74-1.62,.57-2.49-.17-.87-.71-1.64-1.47-2.09ZM7,6.67h3c.14,0,.25,.11,.25,.25v1.25h-3.5v-1.25c0-.14,.11-.25,.25-.25Zm6.81,12.93c-.53,.71-1.55,.87-2.27,.35l-4.26-3.04c-.33-.23-.52-.61-.52-1.02v-6.22h3.5v4.12c0,.96,.51,1.86,1.34,2.36l1.75,1.05c.41,.24,.68,.63,.77,1.1,.09,.46-.02,.93-.3,1.3Z"/><path d="M18.58,15.08c-.17-.87-.71-1.64-1.47-2.09l-1.75-1.05c-.38-.23-.61-.64-.61-1.07V4c0-.96-.79-1.75-1.75-1.75h-4c-.41,0-.75,.34-.75,.75s.34,.75,.75,.75h4c.14,0,.25,.11,.25,.25v6.87c0,.96,.51,1.86,1.34,2.36l1.75,1.05c.41,.24,.68,.63,.77,1.1,.09,.46-.02,.93-.3,1.3-.25,.33-.18,.8,.15,1.05,.13,.1,.29,.15,.45,.15,.23,0,.45-.1,.6-.3,.53-.71,.74-1.62,.57-2.49Z"/></g></g></svg>