<?xml version="1.0" encoding="UTF-8"?><svg fill="currentColor" xmlns="http://www.w3.org/2000/svg" viewBox="0 0 24 24"><g id="k"><path d="M21.42,5.62c.21-.14,.33-.37,.33-.62s-.13-.49-.33-.62l-3-2c-.23-.15-.53-.17-.77-.04s-.4,.38-.4,.66v5.25h-4.5v-.85l2.67-1.78c.21-.14,.33-.37,.33-.62s-.13-.49-.33-.62l-3-2c-.23-.15-.53-.17-.77-.04-.24,.13-.4,.38-.4,.66v5.25H6.75v-.85l2.67-1.78c.21-.14,.33-.37,.33-.62s-.13-.49-.33-.62l-3-2c-.23-.15-.53-.17-.77-.04-.24,.13-.4,.38-.4,.66v5.37c-1.15,.33-2,1.38-2,2.63v9c0,.96,.79,1.75,1.75,1.75h14c.96,0,1.75-.79,1.75-1.75V11c0-1.25-.85-2.3-2-2.63v-.97l2.67-1.78Zm-2.67-1.22l.9,.6-.9,.6v-1.2Zm-6,0l.9,.6-.9,.6v-1.2Zm-6,0l.9,.6-.9,.6v-1.2Zm1,15.85v-4.25c0-.69,.56-1.25,1.25-1.25h2.25v5.5h-3.5Zm5,0v-5.5h2.25c.69,0,1.25,.56,1.25,1.25v4.25h-3.5Zm6.5-9.25v9c0,.14-.11,.25-.25,.25h-1.25v-4.25c0-1.52-1.23-2.75-2.75-2.75h-6c-1.52,0-2.75,1.23-2.75,2.75v4.25h-1.25c-.14,0-.25-.11-.25-.25V11c0-.69,.56-1.25,1.25-1.25h12c.69,0,1.25,.56,1.25,1.25Z"/></g></svg>