<?xml version="1.0" encoding="UTF-8"?><svg fill="currentColor" xmlns="http://www.w3.org/2000/svg" viewBox="0 0 24 24"><g id="o"><path d="M21.75,14.02c.03-1.24-.19-2.23-.43-3.28-.24-1.06-.5-2.26-.57-4-.02-.49-.02-1.8-.01-2.73,0-.47-.18-.91-.51-1.24-.33-.33-.77-.52-1.24-.52h-.99c-.77,0-1.41,.5-1.65,1.19-2.79,1.06-5.9,1.06-8.7,0-.24-.69-.88-1.19-1.65-1.19h-.98c-.47,0-.91,.18-1.25,.52-.33,.33-.51,.77-.5,1.24,0,1.07,0,2.43-.02,2.95-.08,1.66-.34,2.81-.57,3.83-.23,1.03-.45,2-.43,3.22,.03,1.37,.37,2.76,1,4.13v1.85c0,.96,.79,1.75,1.75,1.75h14c.96,0,1.75-.79,1.75-1.75v-1.85c.63-1.37,.97-2.76,1-4.13Zm-5.5-8.95v2.94c0,2.34-1.91,4.25-4.25,4.25s-4.25-1.91-4.25-4.25v-2.93c1.37,.45,2.79,.68,4.25,.68s2.88-.24,4.25-.68ZM4.14,11.12c.25-1.08,.52-2.3,.61-4.09,.03-.58,.03-1.98,.02-3.04,0-.08,.04-.14,.07-.17,.03-.03,.09-.07,.18-.07h.98c.14,0,.25,.11,.25,.25v4c0,3.17,2.58,5.75,5.75,5.75s5.75-2.58,5.75-5.75V4c0-.14,.11-.25,.25-.25h.99c.09,0,.15,.05,.18,.07,.03,.03,.07,.09,.07,.18,0,.96,0,2.3,.01,2.8,.08,1.87,.36,3.14,.61,4.27,.22,1,.41,1.86,.39,2.91-.02,1.07-.27,2.17-.73,3.27H4.49c-.47-1.09-.71-2.19-.73-3.26-.02-1.04,.17-1.89,.39-2.86Zm15.11,8.88c0,.14-.11,.25-.25,.25H5c-.14,0-.25-.11-.25-.25v-1.23l13.61-.02h.89v1.25Z"/></g></svg>