<?xml version="1.0" encoding="UTF-8"?><svg fill="currentColor" xmlns="http://www.w3.org/2000/svg" viewBox="0 0 24 24"><g id="m"><g><path d="M12,4.25c-4.83,0-8.75,3.93-8.75,8.75s3.92,8.75,8.75,8.75,8.75-3.93,8.75-8.75-3.92-8.75-8.75-8.75Zm0,16c-4,0-7.25-3.25-7.25-7.25s3.25-7.25,7.25-7.25,7.25,3.25,7.25,7.25-3.25,7.25-7.25,7.25Z"/><path d="M8,3.75h8c.41,0,.75-.34,.75-.75s-.34-.75-.75-.75H8c-.41,0-.75,.34-.75,.75s.34,.75,.75,.75Z"/><path d="M12,8.25c-.41,0-.75,.34-.75,.75v3.69l-2.78,2.78c-.29,.29-.29,.77,0,1.06,.15,.15,.34,.22,.53,.22s.38-.07,.53-.22l3-3c.14-.14,.22-.33,.22-.53v-4c0-.41-.34-.75-.75-.75Z"/></g></g></svg>