<?xml version="1.0" encoding="UTF-8"?><svg fill="currentColor" xmlns="http://www.w3.org/2000/svg" viewBox="0 0 24 24"><g id="i"><path d="M12,2.25c-3.72,0-6.75,3.03-6.75,6.75v6c0,3.72,3.03,6.75,6.75,6.75s6.75-3.03,6.75-6.75v-6c0-3.72-3.03-6.75-6.75-6.75Zm0,1.5c2.89,0,5.25,2.36,5.25,5.25v.25h-1.58c-.35-1.71-1.86-3-3.67-3-2.07,0-3.75,1.68-3.75,3.75v3.25h-1.5v-4.25c0-2.89,2.35-5.25,5.25-5.25Zm2.25,6.25v4c0,1.24-1.01,2.25-2.25,2.25s-2.25-1.01-2.25-2.25v-4c0-1.24,1.01-2.25,2.25-2.25s2.25,1.01,2.25,2.25Zm-2.25,10.25c-2.9,0-5.25-2.36-5.25-5.25v-.25h1.58c.35,1.71,1.86,3,3.67,3,2.07,0,3.75-1.68,3.75-3.75v-3.25h1.5v4.25c0,2.89-2.36,5.25-5.25,5.25Z"/></g></svg>