<?xml version="1.0" encoding="UTF-8"?><svg fill="currentColor" xmlns="http://www.w3.org/2000/svg" viewBox="0 0 24 24"><g id="n"><path d="M21.75,17c0-1.28-.88-2.34-2.06-2.65l-.9-9.01,1.51-.65c.38-.16,.56-.6,.39-.98s-.6-.56-.99-.39l-7,3c-.38,.16-.56,.6-.39,.98,.12,.28,.4,.45,.69,.45,.1,0,.2-.02,.3-.06l.95-.41v6.97H5c-1.52,0-2.75,1.23-2.75,2.75,0,1.25,.85,2.3,2,2.63v.37c0,.41,.34,.75,.75,.75s.75-.34,.75-.75v-.25h12.5v.25c0,.41,.34,.75,.75,.75s.75-.34,.75-.75v-.37c1.15-.33,2-1.38,2-2.63ZM15.75,6.64l1.59-.68,.83,8.29h-2.42V6.64Zm3.25,11.61H5c-.69,0-1.25-.56-1.25-1.25s.56-1.25,1.25-1.25h14c.69,0,1.25,.56,1.25,1.25s-.56,1.25-1.25,1.25Z"/></g></svg>