<?xml version="1.0" encoding="UTF-8"?><svg fill="currentColor" xmlns="http://www.w3.org/2000/svg" viewBox="0 0 24 24"><g id="t"><g><path d="M9,10.25c-2.07,0-3.75,1.68-3.75,3.75s1.68,3.75,3.75,3.75,3.75-1.68,3.75-3.75-1.68-3.75-3.75-3.75Zm0,6c-1.24,0-2.25-1.01-2.25-2.25s1.01-2.25,2.25-2.25,2.25,1.01,2.25,2.25-1.01,2.25-2.25,2.25Z"/><path d="M21,6.25c-.41,0-.75,.34-.75,.75v.25H9c-2.04,0-3.95,.91-5.24,2.49-1.29,1.59-1.78,3.66-1.36,5.7,.53,2.55,2.6,4.62,5.16,5.16,.47,.1,.94,.15,1.4,.15,3.14,0,5.97-2.17,6.64-5.33,.1-.46,.5-.83,1-.92l3.65-.61v.11c0,.41,.34,.75,.75,.75s.75-.34,.75-.75V7c0-.41-.34-.75-.75-.75Zm-.75,6.11l-3.89,.65c-1.1,.18-1.99,1.02-2.22,2.08-.61,2.87-3.36,4.64-6.27,4.03-1.98-.41-3.58-2.02-3.99-3.99-.33-1.59,.05-3.21,1.06-4.45,1-1.23,2.49-1.94,4.08-1.94h7.25v1.25c0,.41,.34,.75,.75,.75s.75-.34,.75-.75v-1.25h2.5v3.61Z"/></g></g></svg>