<?xml version="1.0" encoding="UTF-8"?><svg fill="currentColor" xmlns="http://www.w3.org/2000/svg" viewBox="0 0 24 24"><g id="b"><g><path d="M20.74,8.22c-.52-.62-1.29-.97-2.1-.97h-.89v-1.25c0-2.07-1.68-3.75-3.75-3.75h-4c-2.07,0-3.75,1.68-3.75,3.75v1.25h-.89c-.81,0-1.58,.35-2.1,.97-.52,.62-.75,1.43-.62,2.23l1.33,8c.22,1.33,1.36,2.3,2.71,2.3h10.61c1.35,0,2.49-.97,2.71-2.3l1.33-8c.13-.8-.09-1.61-.62-2.23ZM7.75,6c0-1.24,1.01-2.25,2.25-2.25h4c1.24,0,2.25,1.01,2.25,2.25v1.25H7.75v-1.25Zm12.12,4.21l-1.33,8c-.1,.6-.62,1.04-1.23,1.04H6.69c-.61,0-1.13-.44-1.23-1.04l-1.33-8c-.06-.36,.04-.73,.28-1.01,.24-.28,.59-.44,.95-.44h13.28c.37,0,.72,.16,.95,.44,.24,.28,.34,.65,.28,1.01Z"/><path d="M7,10.25c-.41,0-.75,.34-.75,.75v1c0,.41,.34,.75,.75,.75s.75-.34,.75-.75v-1c0-.41-.34-.75-.75-.75Z"/><path d="M17,10.25c-.41,0-.75,.34-.75,.75v1c0,.41,.34,.75,.75,.75s.75-.34,.75-.75v-1c0-.41-.34-.75-.75-.75Z"/></g></g></svg>