<?xml version="1.0" encoding="UTF-8"?><svg fill="currentColor" xmlns="http://www.w3.org/2000/svg" viewBox="0 0 24 24"><g id="h"><g><path d="M12,5.25c-.41,0-.75,.34-.75,.75v13c0,.41,.34,.75,.75,.75s.75-.34,.75-.75V6c0-.41-.34-.75-.75-.75Z"/><path d="M20,5.25c-.41,0-.75,.34-.75,.75v13c0,.41,.34,.75,.75,.75s.75-.34,.75-.75V6c0-.41-.34-.75-.75-.75Z"/><path d="M16,5.25c-.41,0-.75,.34-.75,.75V15c0,.41,.34,.75,.75,.75s.75-.34,.75-.75V6c0-.41-.34-.75-.75-.75Z"/><path d="M4,5.25c-.41,0-.75,.34-.75,.75v13c0,.41,.34,.75,.75,.75s.75-.34,.75-.75V6c0-.41-.34-.75-.75-.75Z"/><path d="M8,5.25c-.41,0-.75,.34-.75,.75V15c0,.41,.34,.75,.75,.75s.75-.34,.75-.75V6c0-.41-.34-.75-.75-.75Z"/><path d="M16,17.25c-.41,0-.75,.34-.75,.75v1c0,.41,.34,.75,.75,.75s.75-.34,.75-.75v-1c0-.41-.34-.75-.75-.75Z"/><path d="M8,17.25c-.41,0-.75,.34-.75,.75v1c0,.41,.34,.75,.75,.75s.75-.34,.75-.75v-1c0-.41-.34-.75-.75-.75Z"/></g></g></svg>