<?xml version="1.0" encoding="UTF-8"?><svg fill="currentColor" xmlns="http://www.w3.org/2000/svg" viewBox="0 0 24 24"><g id="s"><g><path d="M21.13,8.89c-.33-.41-.83-.64-1.35-.64h-1.32l-1.79-3.59c-.19-.37-.63-.52-1.01-.34s-.52,.64-.34,1.01l1.46,2.91H7.21l1.46-2.91c.19-.37,.04-.82-.34-1.01-.37-.18-.82-.04-1.01,.34l-1.79,3.59h-1.32c-.53,0-1.02,.23-1.35,.64s-.47,.94-.36,1.45l1.12,5.59c.44,2.21,2.4,3.82,4.66,3.82h7.44c2.26,0,4.22-1.61,4.66-3.82l1.12-5.59c.1-.52-.03-1.05-.36-1.45Zm-2.23,6.75c-.3,1.51-1.64,2.61-3.19,2.61h-7.44c-1.54,0-2.88-1.1-3.19-2.61l-1.12-5.59c-.02-.1,.02-.17,.05-.21s.09-.09,.19-.09h15.56c.1,0,.17,.06,.19,.09s.07,.11,.05,.21l-1.12,5.59Z"/><path d="M8.73,11.82c-.1-.4-.51-.64-.91-.55-.4,.1-.65,.51-.55,.91l1,4c.08,.34,.39,.57,.73,.57,.06,0,.12,0,.18-.02,.4-.1,.65-.51,.55-.91l-1-4Z"/><path d="M16.18,11.27c-.4-.1-.81,.14-.91,.55l-1,4c-.1,.4,.14,.81,.55,.91,.06,.02,.12,.02,.18,.02,.34,0,.64-.23,.73-.57l1-4c.1-.4-.14-.81-.55-.91Z"/><path d="M12,11.25c-.41,0-.75,.34-.75,.75v4c0,.41,.34,.75,.75,.75s.75-.34,.75-.75v-4c0-.41-.34-.75-.75-.75Z"/></g></g></svg>