<?xml version="1.0" encoding="UTF-8"?><svg fill="currentColor" xmlns="http://www.w3.org/2000/svg" viewBox="0 0 24 24"><g id="t"><path d="M19,8.25h-.49c-.77-2.87-3.4-5-6.51-5s-5.74,2.13-6.51,5h-.49c-1.52,0-2.75,1.23-2.75,2.75v1c0,1.52,1.23,2.75,2.75,2.75h1c.41,0,.75-.34,.75-.75v-4c0-2.9,2.35-5.25,5.25-5.25s5.25,2.35,5.25,5.25v4c0,1.61-1.17,2.93-2.71,3.19-.29-.56-.87-.94-1.54-.94h-2c-.96,0-1.75,.79-1.75,1.75s.79,1.75,1.75,1.75h2c.72,0,1.34-.44,1.61-1.06,2.08-.27,3.74-1.88,4.07-3.94h.33c1.52,0,2.75-1.23,2.75-2.75v-1c0-1.52-1.23-2.75-2.75-2.75ZM3.75,12v-1c0-.69,.56-1.25,1.25-1.25h.26c0,.08-.01,.17-.01,.25v3.25h-.25c-.69,0-1.25-.56-1.25-1.25Zm9.25,6.25h-2c-.14,0-.25-.11-.25-.25s.11-.25,.25-.25h2c.14,0,.25,.11,.25,.25s-.11,.25-.25,.25Zm7.25-6.25c0,.69-.56,1.25-1.25,1.25h-.25v-3.25c0-.08,0-.17-.01-.25h.26c.69,0,1.25,.56,1.25,1.25v1Z"/></g></svg>