<?xml version="1.0" encoding="UTF-8"?><svg fill="currentColor" xmlns="http://www.w3.org/2000/svg" viewBox="0 0 24 24"><g id="q"><path d="M21.18,5.84c-.33-.38-.81-.59-1.31-.59H7.08l-.09-.64c-.19-1.35-1.36-2.36-2.72-2.36h-1.27c-.41,0-.75,.34-.75,.75s.34,.75,.75,.75h1.27c.62,0,1.15,.46,1.24,1.07l1.51,10.57c.1,.7,.47,1.31,.99,1.73-.46,.49-.75,1.15-.75,1.88,0,1.52,1.23,2.75,2.75,2.75s2.75-1.23,2.75-2.75c0-.45-.12-.87-.31-1.25h3.13c-.19,.38-.31,.8-.31,1.25,0,1.52,1.23,2.75,2.75,2.75s2.75-1.23,2.75-2.75-1.23-2.75-2.75-2.75H9.73c-.62,0-1.15-.46-1.24-1.07l-.06-.43h10.68c.88,0,1.63-.66,1.74-1.53l.75-6c.06-.5-.09-1-.42-1.38Zm-9.93,13.16c0,.69-.56,1.25-1.25,1.25s-1.25-.56-1.25-1.25,.56-1.25,1.25-1.25,1.25,.56,1.25,1.25Zm8,0c0,.69-.56,1.25-1.25,1.25s-1.25-.56-1.25-1.25,.56-1.25,1.25-1.25,1.25,.56,1.25,1.25Zm.12-5.97c-.02,.12-.12,.22-.25,.22H8.22l-.93-6.5h12.57c.1,0,.16,.05,.19,.08,.03,.03,.07,.1,.06,.2l-.75,6Z"/></g></svg>