<?xml version="1.0" encoding="UTF-8"?><svg fill="currentColor" xmlns="http://www.w3.org/2000/svg" viewBox="0 0 24 24"><g id="d"><g><path d="M17,2.25H7c-1.52,0-2.75,1.23-2.75,2.75v14c0,1.52,1.23,2.75,2.75,2.75h10c1.52,0,2.75-1.23,2.75-2.75V5c0-1.52-1.23-2.75-2.75-2.75ZM5.75,9.75h12.5v4.5H5.75v-4.5Zm0-4.75c0-.69,.56-1.25,1.25-1.25h10c.69,0,1.25,.56,1.25,1.25v3.25H5.75v-3.25Zm12.5,14c0,.69-.56,1.25-1.25,1.25H7c-.69,0-1.25-.56-1.25-1.25v-3.25h12.5v3.25Z"/><path d="M12.02,5.25h-.01c-.41,0-.74,.34-.74,.75s.34,.75,.75,.75,.75-.34,.75-.75-.34-.75-.75-.75Z"/><path d="M12.02,11.25h-.01c-.41,0-.74,.34-.74,.75s.34,.75,.75,.75,.75-.34,.75-.75-.34-.75-.75-.75Z"/><path d="M12.02,18.75c.41,0,.75-.34,.75-.75s-.34-.75-.75-.75h-.01c-.41,0-.74,.34-.74,.75s.34,.75,.75,.75Z"/></g></g></svg>