<?xml version="1.0" encoding="UTF-8"?><svg fill="currentColor" xmlns="http://www.w3.org/2000/svg" viewBox="0 0 24 24"><g id="n"><path d="M20,10.25h-.28c-.11,0-.2-.07-.24-.17l-.54-1.63c-.24-.72-.91-1.2-1.66-1.2h-3.53v-.25c0-.96-.79-1.75-1.75-1.75H4c-.96,0-1.75,.79-1.75,1.75V15c0,.96,.79,1.75,1.75,1.75h.37c.33,1.15,1.38,2,2.63,2s2.3-.85,2.63-2h4.73c.33,1.15,1.38,2,2.63,2s2.3-.85,2.63-2h.37c.96,0,1.75-.79,1.75-1.75v-3c0-.96-.79-1.75-1.75-1.75Zm-13,7c-.69,0-1.25-.56-1.25-1.25s.56-1.25,1.25-1.25,1.25,.56,1.25,1.25-.56,1.25-1.25,1.25Zm10,0c-.69,0-1.25-.56-1.25-1.25s.56-1.25,1.25-1.25,1.25,.56,1.25,1.25-.56,1.25-1.25,1.25Zm3.25-2.25c0,.14-.11,.25-.25,.25h-.37c-.33-1.15-1.38-2-2.63-2s-2.3,.85-2.63,2h-4.73c-.33-1.15-1.38-2-2.63-2s-2.3,.85-2.63,2h-.37c-.14,0-.25-.11-.25-.25V7c0-.14,.11-.25,.25-.25H12c.14,0,.25,.11,.25,.25v6c0,.41,.34,.75,.75,.75s.75-.34,.75-.75v-4.25h3.53c.11,0,.2,.07,.24,.17l.54,1.63c.24,.72,.91,1.2,1.66,1.2h.28c.14,0,.25,.11,.25,.25v3Z"/></g></svg>