<?xml version="1.0" encoding="UTF-8"?><svg fill="currentColor" xmlns="http://www.w3.org/2000/svg" viewBox="0 0 24 24"><g id="e"><path d="M20.22,11.23l.72-1.45c.27-.55,.24-1.18-.08-1.7s-.88-.83-1.49-.83h-3.17c.06-.42-.03-.85-.27-1.21-.33-.49-.87-.79-1.46-.79H3c-.41,0-.75,.34-.75,.75s.34,.75,.75,.75h1.99l-.45,1.5h-1.54c-.41,0-.75,.34-.75,.75s.34,.75,.75,.75h1.09l-.45,1.5h-.64c-.41,0-.75,.34-.75,.75s.34,.75,.75,.75h.19l-.62,2.05c-.14,.46-.05,.95,.24,1.34s.73,.61,1.21,.61h.34c.33,1.15,1.38,2,2.63,2s2.3-.85,2.63-2h4.73c.33,1.15,1.38,2,2.63,2s2.3-.85,2.63-2h.6c.83,0,1.51-.68,1.51-1.51v-2.47c0-.83-.68-1.51-1.53-1.53Zm-13.22,6.02c-.69,0-1.25-.56-1.25-1.25s.56-1.25,1.25-1.25,1.25,.56,1.25,1.25-.56,1.25-1.25,1.25Zm10,0c-.69,0-1.25-.56-1.25-1.25s.56-1.25,1.25-1.25,1.25,.56,1.25,1.25-.56,1.25-1.25,1.25Zm3.24-2h-.6c-.33-1.15-1.38-2-2.63-2s-2.3,.85-2.63,2h-4.73c-.33-1.15-1.38-2-2.63-2s-2.3,.84-2.63,1.99h-.36L6.56,6.75h7.93c.12,0,.18,.07,.21,.11,.03,.04,.07,.13,.02,.24l-2.4,5.61c-.16,.38,.01,.82,.39,.99,.38,.16,.82-.01,.98-.39l1.95-4.55h3.74c.12,0,.19,.07,.21,.12,.03,.04,.06,.13,.01,.24l-.72,1.45c-.24,.47-.21,1.02,.07,1.47,.28,.45,.76,.72,1.3,.73v2.49Z"/></g></svg>