<?xml version="1.0" encoding="UTF-8"?><svg fill="currentColor" xmlns="http://www.w3.org/2000/svg" viewBox="0 0 24 24"><g id="m"><path d="M20,6.25h-3.56c.19-.38,.31-.8,.31-1.25,0-1.52-1.23-2.75-2.75-2.75-.79,0-1.5,.34-2,.87-.5-.54-1.21-.87-2-.87-1.52,0-2.75,1.23-2.75,2.75,0,.45,.12,.87,.31,1.25h-3.56c-.96,0-1.75,.79-1.75,1.75v2c0,.7,.41,1.29,1,1.57v5.43c0,1.52,1.23,2.75,2.75,2.75h12c1.52,0,2.75-1.23,2.75-2.75v-5.43c.59-.28,1-.88,1-1.57v-2c0-.96-.79-1.75-1.75-1.75Zm.25,1.75v2c0,.14-.11,.25-.25,.25h-7.25v-2.5h7.25c.14,0,.25,.11,.25,.25ZM14,3.75c.69,0,1.25,.56,1.25,1.25s-.56,1.25-1.25,1.25-1.25-.56-1.25-1.25,.56-1.25,1.25-1.25Zm-5.25,1.25c0-.69,.56-1.25,1.25-1.25s1.25,.56,1.25,1.25-.56,1.25-1.25,1.25-1.25-.56-1.25-1.25Zm-5,3c0-.14,.11-.25,.25-.25h7.25v2.5H4c-.14,0-.25-.11-.25-.25v-2Zm1,9v-5.25h6.5v6.5H6c-.69,0-1.25-.56-1.25-1.25Zm14.5,0c0,.69-.56,1.25-1.25,1.25h-5.25v-6.5h6.5v5.25Z"/></g></svg>