<?xml version="1.0" encoding="UTF-8"?><svg fill="currentColor" xmlns="http://www.w3.org/2000/svg" viewBox="0 0 24 24"><g id="i"><path d="M17.64,9.61c-.42-.7-.86-1.16-1.29-1.62-.57-.6-1.11-1.17-1.68-2.33-.43-.88-.75-1.82-.94-2.81-.05-.27-.25-.49-.51-.57-.26-.08-.55-.02-.75,.17-.97,.94-1.71,2.04-2.18,3.27-.56,1.46-.66,2.85-.55,4.02-.04-.06-.09-.12-.13-.18-.38-.56-.69-1.17-.91-1.81-.08-.24-.28-.42-.52-.49-.25-.07-.51,0-.69,.17-3.3,3.02-4.21,7.73-2.12,10.96,1.34,2.08,3.73,3.36,6.18,3.36,.17,0,.34,0,.51-.02h0c3.38-.25,5.23-2.82,5.57-3.34,1.9-2.9,1.34-6.59,.02-8.8Zm-1.27,7.97c-.17,.25-1.69,2.46-4.43,2.66-2.37,.17-4.38-1.21-5.32-2.66-1.53-2.36-1.02-5.75,1.11-8.25,.19,.38,.4,.74,.64,1.08,.59,.86,1.33,1.59,2.19,2.19,.27,.19,.63,.18,.88-.02,.26-.2,.36-.54,.25-.85-.38-1.06-.89-3.17,0-5.48,.23-.6,.54-1.17,.92-1.7,.19,.61,.43,1.2,.7,1.76,.67,1.36,1.34,2.07,1.94,2.7,.41,.43,.76,.8,1.09,1.36,1.13,1.87,1.49,4.95,.02,7.2Z"/></g></svg>