<?xml version="1.0" encoding="UTF-8"?><svg fill="currentColor" xmlns="http://www.w3.org/2000/svg" viewBox="0 0 24 24"><g id="j"><g><path d="M19,6.25H5c-1.52,0-2.75,1.23-2.75,2.75v6c0,1.52,1.23,2.75,2.75,2.75h14c1.52,0,2.75-1.23,2.75-2.75v-6c0-1.52-1.23-2.75-2.75-2.75Zm-14,1.5h1.06c.11,.23,.19,.48,.19,.75,0,.96-.79,1.75-1.75,1.75-.27,0-.52-.08-.75-.19v-1.06c0-.69,.56-1.25,1.25-1.25Zm-1.25,7.25v-3.35c.24,.06,.49,.1,.75,.1,1.79,0,3.25-1.46,3.25-3.25,0-.26-.04-.51-.1-.75h11.35c.69,0,1.25,.56,1.25,1.25v3.35c-.24-.06-.49-.1-.75-.1-1.79,0-3.25,1.46-3.25,3.25,0,.26,.04,.51,.1,.75H5c-.69,0-1.25-.56-1.25-1.25Zm15.25,1.25h-1.06c-.11-.23-.19-.48-.19-.75,0-.96,.79-1.75,1.75-1.75,.27,0,.52,.08,.75,.19v1.06c0,.69-.56,1.25-1.25,1.25Z"/><path d="M12,9.25c-1.52,0-2.75,1.23-2.75,2.75s1.23,2.75,2.75,2.75,2.75-1.23,2.75-2.75-1.23-2.75-2.75-2.75Zm0,4c-.69,0-1.25-.56-1.25-1.25s.56-1.25,1.25-1.25,1.25,.56,1.25,1.25-.56,1.25-1.25,1.25Z"/></g></g></svg>