<?xml version="1.0" encoding="UTF-8"?><svg fill="currentColor" xmlns="http://www.w3.org/2000/svg" viewBox="0 0 24 24"><g id="o"><g><path d="M19.89,9.79c-.11-1.42-1.31-2.54-2.74-2.54H6.85c-1.43,0-2.63,1.12-2.74,2.54l-.69,9c-.06,.76,.21,1.52,.72,2.08,.52,.56,1.25,.88,2.02,.88h11.68c.76,0,1.5-.32,2.02-.88,.52-.56,.78-1.32,.72-2.08l-.69-9Zm-1.13,10.06c-.24,.26-.56,.4-.92,.4H6.16c-.35,0-.68-.14-.92-.4-.24-.26-.36-.59-.33-.94l.69-9c.05-.65,.6-1.15,1.25-1.15h10.3c.65,0,1.2,.51,1.25,1.15l.69,9c.03,.35-.09,.69-.33,.94Z"/><path d="M8,5.75c.41,0,.75-.34,.75-.75,0-.69,.56-1.25,1.25-1.25h4c.69,0,1.25,.56,1.25,1.25,0,.41,.34,.75,.75,.75s.75-.34,.75-.75c0-1.52-1.23-2.75-2.75-2.75h-4c-1.52,0-2.75,1.23-2.75,2.75,0,.41,.34,.75,.75,.75Z"/><path d="M14.55,12.4l-3.48,2.61-1.54-1.54c-.29-.29-.77-.29-1.06,0s-.29,.77,0,1.06l2,2c.15,.15,.34,.22,.53,.22,.16,0,.32-.05,.45-.15l4-3c.33-.25,.4-.72,.15-1.05-.25-.33-.72-.4-1.05-.15Z"/></g></g></svg>