<?xml version="1.0" encoding="UTF-8"?><svg fill="currentColor" xmlns="http://www.w3.org/2000/svg" viewBox="0 0 24 24"><g id="c"><path d="M21.75,11c0-1.81-1.29-3.33-3-3.67v-.72c0-.86-.39-1.66-1.08-2.18s-1.55-.7-2.38-.48L4.29,6.88c-1.2,.32-2.04,1.41-2.04,2.66v2.93c0,1.23,.82,2.31,2,2.64v3.89c0,1.52,1.23,2.75,2.75,2.75h1c1.52,0,2.75-1.23,2.75-2.75v-2.16l4.54,1.21c.24,.06,.48,.09,.72,.09,.6,0,1.18-.2,1.67-.57,.68-.53,1.08-1.32,1.08-2.18v-.72c1.71-.35,3-1.86,3-3.67Zm-12.5,8c0,.69-.56,1.25-1.25,1.25h-1c-.69,0-1.25-.56-1.25-1.25v-3.49l3.5,.93v2.56Zm8-3.6c0,.39-.18,.75-.49,.99-.31,.24-.71,.32-1.08,.22l-11-2.93c-.55-.15-.93-.64-.93-1.21v-2.93c0-.57,.38-1.06,.93-1.21l11-2.93c.11-.03,.22-.04,.33-.04,.27,0,.54,.09,.76,.26,.31,.24,.49,.6,.49,.99V15.4Zm1.5-2.28v-4.24c.87,.31,1.5,1.14,1.5,2.12s-.63,1.81-1.5,2.12Z"/></g></svg>