<?xml version="1.0" encoding="UTF-8"?><svg fill="currentColor" xmlns="http://www.w3.org/2000/svg" viewBox="0 0 24 24"><g id="k"><g><path d="M17,2.25H7c-2.07,0-3.75,1.68-3.75,3.75v13c0,.67,.37,1.27,.97,1.56,.6,.3,1.3,.24,1.83-.17l1.8-1.35c.09-.07,.21-.07,.3,0l2.8,2.1c.31,.23,.68,.35,1.05,.35s.74-.12,1.05-.35l2.8-2.1c.09-.07,.21-.07,.3,0l1.8,1.35h0c.53,.4,1.24,.46,1.83,.17,.6-.3,.97-.9,.97-1.56V6c0-2.07-1.68-3.75-3.75-3.75Zm2.25,16.75c0,.13-.09,.2-.14,.22-.05,.03-.15,.06-.26-.02l-1.8-1.35c-.62-.46-1.48-.46-2.1,0l-2.8,2.1c-.09,.07-.21,.07-.3,0l-2.8-2.1c-.31-.23-.68-.35-1.05-.35s-.74,.12-1.05,.35l-1.8,1.35c-.11,.08-.21,.05-.26,.02-.05-.03-.14-.09-.14-.22V6c0-1.24,1.01-2.25,2.25-2.25h10c1.24,0,2.25,1.01,2.25,2.25v13Z"/><path d="M13,7.25h-5c-.41,0-.75,.34-.75,.75s.34,.75,.75,.75h5c.41,0,.75-.34,.75-.75s-.34-.75-.75-.75Z"/><path d="M16.02,7.25h-.01c-.41,0-.74,.34-.74,.75s.34,.75,.75,.75,.75-.34,.75-.75-.34-.75-.75-.75Z"/><path d="M13,12.25h-5c-.41,0-.75,.34-.75,.75s.34,.75,.75,.75h5c.41,0,.75-.34,.75-.75s-.34-.75-.75-.75Z"/><path d="M16.02,12.25h-.01c-.41,0-.74,.34-.74,.75s.34,.75,.75,.75,.75-.34,.75-.75-.34-.75-.75-.75Z"/></g></g></svg>