<?xml version="1.0" encoding="UTF-8"?><svg fill="currentColor" xmlns="http://www.w3.org/2000/svg" viewBox="0 0 24 24"><g id="r"><g><path d="M4.39,6.75h2.61c.41,0,.75-.34,.75-.75s-.34-.75-.75-.75h-2.61c-1.18,0-2.14,.96-2.14,2.14v1.61c0,.92,.59,1.74,1.46,2.03l1.1,.37c.26,.09,.44,.33,.44,.6s-.17,.52-.43,.6l-1.1,.37c-.87,.29-1.46,1.11-1.46,2.03v1.61c0,1.18,.96,2.14,2.14,2.14h2.61c.41,0,.75-.34,.75-.75s-.34-.75-.75-.75h-2.61c-.35,0-.64-.29-.64-.64v-1.61c0-.27,.17-.52,.43-.6l1.1-.37c.87-.29,1.46-1.11,1.46-2.03s-.59-1.74-1.46-2.03l-1.1-.37c-.26-.09-.44-.33-.44-.6v-1.61c0-.35,.29-.64,.64-.64Z"/><path d="M20.1,11.29l.47-.23c.73-.36,1.18-1.1,1.18-1.91v-1.76c0-1.18-.96-2.14-2.14-2.14H10.75v-1.25c0-.41-.34-.75-.75-.75s-.75,.34-.75,.75V20c0,.41,.34,.75,.75,.75s.75-.34,.75-.75v-1.25h8.86c1.18,0,2.14-.96,2.14-2.14v-1.76c0-.81-.45-1.55-1.18-1.91l-.47-.23c-.22-.11-.35-.33-.35-.57v-.29c0-.24,.13-.46,.35-.57Zm-.67,2.77l.47,.23c.22,.11,.35,.33,.35,.57v1.76c0,.35-.29,.64-.64,.64H10.75V6.75h8.86c.35,0,.64,.29,.64,.64v1.76c0,.24-.13,.46-.35,.57l-.47,.23c-.73,.36-1.18,1.1-1.18,1.91v.29c0,.81,.45,1.55,1.18,1.91Z"/></g></g></svg>