<?xml version="1.0" encoding="UTF-8"?><svg fill="currentColor" xmlns="http://www.w3.org/2000/svg" viewBox="0 0 24 24"><g id="k"><g><path d="M21,13.25c-.14,0-.25-.11-.25-.25v-1c0-.96-.79-1.75-1.75-1.75h-1c-1.24,0-2.25-1.01-2.25-2.25v-2c0-2.07-1.68-3.75-3.75-3.75s-3.75,1.68-3.75,3.75v2c0,1.24-1.01,2.25-2.25,2.25h-1c-.96,0-1.75,.79-1.75,1.75v1c0,.14-.11,.25-.25,.25-.41,0-.75,.34-.75,.75s.34,.75,.75,.75c.96,0,1.75-.79,1.75-1.75v-1c0-.14,.11-.25,.25-.25h.25v8.25c0,.96,.79,1.75,1.75,1.75h10c.96,0,1.75-.79,1.75-1.75V11.75h.25c.14,0,.25,.11,.25,.25v1c0,.96,.79,1.75,1.75,1.75,.41,0,.75-.34,.75-.75s-.34-.75-.75-.75ZM12,3.75c1.24,0,2.25,1.01,2.25,2.25v.25h-4.5v-.25c0-1.24,1.01-2.25,2.25-2.25Zm5.25,16.25c0,.14-.11,.25-.25,.25H7c-.14,0-.25-.11-.25-.25V11.67c1.71-.35,3-1.86,3-3.67v-.25h4.5v.25c0,1.81,1.29,3.33,3,3.67v8.33Z"/><path d="M15,13.25h-6c-.41,0-.75,.34-.75,.75v2c0,1.52,1.23,2.75,2.75,2.75h2c1.52,0,2.75-1.23,2.75-2.75v-2c0-.41-.34-.75-.75-.75Zm-.75,2.75c0,.69-.56,1.25-1.25,1.25h-2c-.69,0-1.25-.56-1.25-1.25v-1.25h4.5v1.25Z"/></g></g></svg>