<?xml version="1.0" encoding="UTF-8"?><svg fill="currentColor" xmlns="http://www.w3.org/2000/svg" viewBox="0 0 24 24"><g id="s"><path d="M20.5,6.25H3.5c-.69,0-1.25,.56-1.25,1.25v2c0,.63,.48,1.13,1.08,1.22l.7,5.62c.17,1.37,1.34,2.41,2.73,2.41h10.47c1.38,0,2.56-1.04,2.73-2.41l.7-5.62c.61-.08,1.08-.59,1.08-1.22v-2c0-.69-.56-1.25-1.25-1.25ZM3.75,7.75H20.25v1.5H3.75v-1.5Zm15.09,5.5h-3.09v-2.5h3.4l-.31,2.5Zm-9.09,0v-2.5h4.5v2.5h-4.5Zm4.5,1.5v2.5h-4.5v-2.5h4.5ZM4.85,10.75h3.4v2.5h-3.09l-.31-2.5Zm.68,5.4l-.18-1.4h2.9v2.5h-1.48c-.63,0-1.16-.47-1.24-1.1Zm11.71,1.1h-1.48v-2.5h2.9l-.18,1.41c-.08,.62-.61,1.09-1.24,1.09Z"/></g></svg>