<?xml version="1.0" encoding="UTF-8"?><svg fill="currentColor" xmlns="http://www.w3.org/2000/svg" viewBox="0 0 24 24"><g id="h"><g><path d="M15.68,7.5l-1.93-.96v-1.92c0-.67-.37-1.27-.97-1.57l-.8-.4c-.67-.34-1.49-.21-2.02,.33l-1.49,1.49s-.02,.04-.04,.06c-.02,.02-.04,.03-.06,.06l-1.16,1.74c-.63,.95-.97,2.05-.97,3.19v9.49c0,1.52,1.23,2.75,2.75,2.75h6c1.52,0,2.75-1.23,2.75-2.75V10.85c0-1.43-.79-2.72-2.07-3.35Zm-4.37-3.51l.8,.4c.08,.04,.14,.13,.14,.22v1.17l-1.98-.99,.75-.75c.08-.08,.19-.09,.29-.05Zm4.94,15.01c0,.69-.56,1.25-1.25,1.25h-6c-.69,0-1.25-.56-1.25-1.25V9.51c0-.84,.25-1.66,.71-2.36l.79-1.19,5.75,2.88c.77,.38,1.24,1.15,1.24,2.01v8.15Z"/><path d="M13,10.25h-2c-.96,0-1.75,.79-1.75,1.75v4c0,.96,.79,1.75,1.75,1.75h2c.96,0,1.75-.79,1.75-1.75v-4c0-.96-.79-1.75-1.75-1.75Zm.25,5.75c0,.14-.11,.25-.25,.25h-2c-.14,0-.25-.11-.25-.25v-4c0-.14,.11-.25,.25-.25h2c.14,0,.25,.11,.25,.25v4Z"/></g></g></svg>