<?xml version="1.0" encoding="UTF-8"?><svg fill="currentColor" xmlns="http://www.w3.org/2000/svg" viewBox="0 0 24 24"><g id="p"><path d="M20.73,3.41c-1.23-1.23-3.37-1.23-4.6,0l-.71,.71c-.66,.66-.97,1.53-.94,2.4-.04,.03-.08,.04-.12,.08l-7.78,7.78s-.05,.08-.08,.12c-.86-.03-1.74,.28-2.4,.94l-.71,.71c-.61,.61-.95,1.43-.95,2.3s.34,1.68,.95,2.3c.61,.61,1.43,.95,2.3,.95s1.68-.34,2.3-.95l.71-.71c.66-.66,.97-1.53,.94-2.4,.04-.03,.08-.04,.12-.08l7.78-7.78s.05-.08,.08-.12c.03,0,.06,0,.1,0,.83,0,1.66-.32,2.3-.95l.71-.71c.61-.61,.95-1.43,.95-2.3s-.34-1.68-.95-2.3ZM7.65,18.97l-.71,.71c-.66,.66-1.81,.66-2.48,0-.33-.33-.51-.77-.51-1.24s.18-.91,.51-1.24l.71-.71c.34-.34,.79-.51,1.24-.51s.9,.17,1.24,.51c.68,.68,.68,1.79,0,2.48Zm1.52-2.94c-.13-.21-.28-.42-.46-.6-.18-.18-.39-.33-.6-.46l6.85-6.85c.13,.21,.28,.42,.46,.6,.18,.18,.39,.33,.6,.46l-6.85,6.85ZM19.67,6.94l-.71,.71c-.68,.68-1.79,.68-2.48,0-.68-.68-.68-1.79,0-2.48l.71-.71c.66-.66,1.81-.66,2.47,0,.33,.33,.51,.77,.51,1.24s-.18,.91-.51,1.24Z"/></g></svg>