<?xml version="1.0" encoding="UTF-8"?><svg fill="currentColor" xmlns="http://www.w3.org/2000/svg" viewBox="0 0 24 24"><g id="o"><g><path d="M18.5,11.25h-.75V4c0-.96-.79-1.75-1.75-1.75h-7c-.96,0-1.75,.79-1.75,1.75v7.25h-.75c-.69,0-1.25,.56-1.25,1.25v1c0,.6,.43,1.08,1,1.2v1.3c0,1.52,1.23,2.75,2.75,2.75h1.25v.75c0,1.24,1.01,2.25,2.25,2.25s2.25-1.01,2.25-2.25v-.75h1.25c1.52,0,2.75-1.23,2.75-2.75v-1.3c.57-.12,1-.6,1-1.2v-1c0-.69-.56-1.25-1.25-1.25ZM8.75,4c0-.14,.11-.25,.25-.25h7c.14,0,.25,.11,.25,.25v7.25h-7.5V4Zm-2,8.75h11.5v.5H6.75v-.5Zm6.5,6.75c0,.41-.34,.75-.75,.75s-.75-.34-.75-.75v-.75h1.5v.75Zm4-3.5c0,.69-.56,1.25-1.25,1.25h-7c-.69,0-1.25-.56-1.25-1.25v-1.25h9.5v1.25Z"/><path d="M11.53,5.47c-.29-.29-.77-.29-1.06,0l-1,1c-.29,.29-.29,.77,0,1.06,.15,.15,.34,.22,.53,.22s.38-.07,.53-.22l1-1c.29-.29,.29-.77,0-1.06Z"/><path d="M13.47,5.47l-2,2c-.29,.29-.29,.77,0,1.06,.15,.15,.34,.22,.53,.22s.38-.07,.53-.22l2-2c.29-.29,.29-.77,0-1.06s-.77-.29-1.06,0Z"/></g></g></svg>