<?xml version="1.0" encoding="UTF-8"?><svg fill="currentColor" xmlns="http://www.w3.org/2000/svg" viewBox="0 0 24 24"><g id="n"><path d="M18.75,9v-1c0-1.52-1.23-2.75-2.75-2.75h-1.25v-1.25c0-.96-.79-1.75-1.75-1.75h-2c-.96,0-1.75,.79-1.75,1.75v1.25h-1.25c-1.52,0-2.75,1.23-2.75,2.75v1c0,1.25,.85,2.3,2,2.63v3.73c-1.15,.33-2,1.38-2,2.63v1c0,1.52,1.23,2.75,2.75,2.75h8c1.52,0,2.75-1.23,2.75-2.75v-1c0-1.25-.85-2.3-2-2.63v-3.73c1.15-.33,2-1.38,2-2.63ZM10.75,4c0-.14,.11-.25,.25-.25h2c.14,0,.25,.11,.25,.25v1.25h-2.5v-1.25Zm-4,5v-1c0-.69,.56-1.25,1.25-1.25h8c.69,0,1.25,.56,1.25,1.25v1c0,.69-.56,1.25-1.25,1.25H8c-.69,0-1.25-.56-1.25-1.25Zm8.5,6.25h-6.5v-3.5h6.5v3.5Zm2,2.75v1c0,.69-.56,1.25-1.25,1.25H8c-.69,0-1.25-.56-1.25-1.25v-1c0-.69,.56-1.25,1.25-1.25h8c.69,0,1.25,.56,1.25,1.25Z"/></g></svg>