<?xml version="1.0" encoding="UTF-8"?><svg fill="currentColor" xmlns="http://www.w3.org/2000/svg" viewBox="0 0 24 24"><g id="r"><g><path d="M19.93,15.53l-5.49-4.88,.31-4.6s0-.05-.01-.08c0-.05,0-.09-.02-.14,0-.02,0-.04,0-.06l-1-3c-.08-.25-.28-.43-.54-.49-.25-.06-.52,.01-.7,.19-.25,.25-.8,.68-1.58,.79-1.27,.17-2.21-.64-2.38-.8-.19-.18-.45-.24-.7-.18-.25,.06-.45,.25-.53,.49l-1,3s0,.04,0,.06c-.01,.05-.02,.09-.02,.14,0,.03-.01,.06-.01,.08l.88,13.13c.09,1.44,1.3,2.57,2.74,2.57h1.26c1.44,0,2.65-1.13,2.74-2.57l.2-2.93,3.68,2.23c.3,.18,.63,.27,.96,.27,.57,0,1.12-.26,1.48-.75,.57-.77,.46-1.84-.26-2.47ZM11.1,4.74c.53-.07,1.04-.25,1.51-.52l.48,1.42c-.7,.34-1.76,.7-3.03,.61-.87-.07-1.6-.33-2.15-.6l.48-1.45c.65,.37,1.58,.7,2.71,.54Zm1.27,14.34c-.04,.65-.59,1.17-1.25,1.17h-1.26c-.66,0-1.2-.51-1.25-1.17l-.79-11.84c.68,.27,1.39,.45,2.11,.5,.18,.01,.36,.02,.54,.02,1.05,0,1.96-.24,2.68-.52l-.15,2.18c-.33-.21-.73-.32-1.13-.28-.49,.05-.93,.31-1.23,.7l-1.08,1.46c-.29,.4-.4,.9-.31,1.38,.1,.48,.39,.9,.81,1.16l2.53,1.54-.25,3.71Zm6.6-1.97c-.11,.15-.3,.18-.46,.09l-7.65-4.64c-.08-.05-.11-.13-.12-.17s-.01-.12,.04-.2l1.08-1.46c.06-.08,.13-.1,.17-.1,.04,0,.12,0,.19,.06l6.69,5.95c.13,.12,.15,.32,.05,.46Z"/><path d="M9.76,18c0,.41,.34,.75,.75,.75s.75-.34,.75-.75-.33-.75-.75-.75h0c-.41,0-.75,.34-.75,.75Z"/></g></g></svg>