<?xml version="1.0" encoding="UTF-8"?><svg fill="currentColor" xmlns="http://www.w3.org/2000/svg" viewBox="0 0 24 24"><g id="m"><g><path d="M5.26,9.11c.05,.37,.37,.64,.74,.64h0c.37,0,.69-.27,.74-.64,.05-.34,.22-1,.79-1.58,.24-.25,.77-.67,1.58-.79,.37-.05,.64-.37,.64-.74s-.27-.69-.64-.74c-.34-.05-1-.22-1.58-.79-.25-.25-.67-.78-.79-1.58-.05-.37-.37-.64-.74-.64h0c-.37,0-.69,.27-.74,.64-.05,.34-.22,1-.79,1.58-.24,.25-.77,.67-1.58,.79-.37,.05-.64,.37-.64,.74s.27,.69,.64,.74c.34,.05,1,.22,1.58,.79,.25,.25,.67,.78,.79,1.58Zm.27-3.58c.18-.18,.34-.37,.47-.56,.17,.24,.34,.43,.47,.56,.18,.18,.37,.34,.56,.47-.24,.17-.43,.34-.56,.47-.18,.18-.34,.37-.47,.56-.17-.24-.34-.43-.47-.56-.18-.18-.37-.34-.56-.47,.24-.17,.43-.34,.56-.47Z"/><path d="M12.5,3.25c-.6,0-1.19,.06-1.77,.17-.41,.08-.67,.47-.59,.88,.08,.41,.48,.67,.88,.59,.48-.09,.98-.14,1.48-.14,4.27,0,7.75,3.48,7.75,7.75s-3.48,7.75-7.75,7.75-7.75-3.48-7.75-7.75c0-.46,.04-.93,.12-1.39,.07-.41-.2-.8-.61-.87-.41-.07-.8,.2-.87,.61-.1,.54-.15,1.1-.15,1.65,0,5.1,4.15,9.25,9.25,9.25s9.25-4.15,9.25-9.25S17.6,3.25,12.5,3.25Z"/><path d="M6.08,12.5c0,3.54,2.88,6.42,6.42,6.42s6.42-2.88,6.42-6.42-2.88-6.42-6.42-6.42-6.42,2.88-6.42,6.42Zm6.42-4.92c2.71,0,4.92,2.21,4.92,4.92s-2.21,4.92-4.92,4.92-4.92-2.21-4.92-4.92,2.21-4.92,4.92-4.92Z"/></g></g></svg>