<?xml version="1.0" encoding="UTF-8"?><svg fill="currentColor" xmlns="http://www.w3.org/2000/svg" viewBox="0 0 24 24"><g id="e"><g><path d="M21.75,10c0-.22-.1-.42-.26-.56-.06-.13-.13-.25-.2-.36l-1.07-1.61c-.51-.77-1.37-1.22-2.29-1.22h-2.18v-1.25c0-1.52-1.23-2.75-2.75-2.75H7c-1.52,0-2.75,1.23-2.75,2.75V21c0,.41,.34,.75,.75,.75s.75-.34,.75-.75V5c0-.69,.56-1.25,1.25-1.25h6c.69,0,1.25,.56,1.25,1.25v1.25h-2.18c-.92,0-1.78,.46-2.29,1.22l-1.07,1.6c-.08,.12-.15,.24-.2,.36-.16,.14-.26,.33-.26,.56,0,.06,.02,.12,.04,.17-.02,.14-.04,.29-.04,.43v1.39c0,.96,.79,1.75,1.75,1.75h10c.96,0,1.75-.79,1.75-1.75v-1.39c0-.15-.01-.29-.04-.43,.01-.06,.04-.11,.04-.17Zm-9.68-2.25h5.86c.42,0,.81,.21,1.04,.56l.63,.94H10.4l.63-.94c.23-.35,.62-.56,1.04-.56Zm7.93,4.5H10c-.14,0-.25-.11-.25-.25v-1.25h10.5v1.25c0,.14-.11,.25-.25,.25Z"/><path d="M11,15.25c-.41,0-.75,.34-.75,.75v1c0,.41,.34,.75,.75,.75s.75-.34,.75-.75v-1c0-.41-.34-.75-.75-.75Z"/><path d="M19,15.25c-.41,0-.75,.34-.75,.75v1c0,.41,.34,.75,.75,.75s.75-.34,.75-.75v-1c0-.41-.34-.75-.75-.75Z"/><path d="M15,15.25c-.41,0-.75,.34-.75,.75v1c0,.41,.34,.75,.75,.75s.75-.34,.75-.75v-1c0-.41-.34-.75-.75-.75Z"/><path d="M13,18.25c-.41,0-.75,.34-.75,.75v1c0,.41,.34,.75,.75,.75s.75-.34,.75-.75v-1c0-.41-.34-.75-.75-.75Z"/><path d="M17,18.25c-.41,0-.75,.34-.75,.75v1c0,.41,.34,.75,.75,.75s.75-.34,.75-.75v-1c0-.41-.34-.75-.75-.75Z"/></g></g></svg>