<?xml version="1.0" encoding="UTF-8"?><svg fill="currentColor" xmlns="http://www.w3.org/2000/svg" viewBox="0 0 24 24"><g id="u"><g><path d="M20.65,6.27c-.11-.11-.23-.21-.35-.31-.87-.67-2.09-.87-3.27-.52-3.3,.98-6.85,.97-10.15-.03-.97-.29-1.98-.2-2.76,.26-1.15,.67-1.87,1.91-1.87,3.24v7.08c0,1,.39,1.94,1.1,2.65,.11,.11,.23,.21,.35,.31,.87,.68,2.09,.87,3.27,.52,3.3-.98,6.85-.97,10.15,.03,.37,.11,.74,.17,1.11,.17,.59,0,1.17-.14,1.65-.43,1.15-.67,1.87-1.91,1.87-3.24v-7.08c0-1-.39-1.94-1.1-2.65ZM3.75,8.92c0-.8,.43-1.54,1.12-1.95,.43-.25,1-.3,1.58-.12,3.58,1.08,7.44,1.09,11.01,.03,.72-.21,1.44-.11,1.93,.27,.07,.05,.14,.11,.21,.18,.43,.43,.66,.99,.66,1.59v3c0,.8-.43,1.54-1.12,1.95h0c-.43,.25-1,.3-1.58,.12-1.8-.54-3.67-.82-5.55-.82s-3.68,.27-5.46,.79c-.72,.21-1.44,.11-1.93-.27-.07-.05-.14-.11-.21-.18-.43-.43-.66-.99-.66-1.59v-3Zm15.38,9.02c-.43,.25-1,.29-1.58,.12-3.58-1.08-7.44-1.09-11.01-.03-.72,.21-1.44,.11-1.93-.27-.07-.05-.14-.11-.21-.18-.43-.42-.66-.99-.66-1.59v-1.09c.87,.64,2.06,.83,3.22,.49,3.3-.98,6.85-.97,10.15,.03,.37,.11,.74,.17,1.11,.17,.59,0,1.17-.14,1.65-.43,.13-.07,.25-.16,.37-.25v1.08c0,.8-.43,1.54-1.12,1.95Z"/><path d="M12.02,10.75c.41,0,.75-.34,.75-.75s-.34-.75-.75-.75h-.01c-.41,0-.74,.34-.74,.75s.34,.75,.75,.75Z"/><path d="M17.02,9.75c.41,0,.75-.34,.75-.75s-.34-.75-.75-.75h-.01c-.41,0-.74,.34-.74,.75s.34,.75,.75,.75Z"/><path d="M16.02,12.75c.41,0,.75-.34,.75-.75s-.34-.75-.75-.75h-.01c-.41,0-.74,.34-.74,.75s.34,.75,.75,.75Z"/><path d="M6.02,10.75c.41,0,.75-.34,.75-.75s-.34-.75-.75-.75h-.01c-.41,0-.74,.34-.74,.75s.34,.75,.75,.75Z"/><path d="M8.02,12.75c.41,0,.75-.34,.75-.75s-.34-.75-.75-.75h-.01c-.41,0-.74,.34-.74,.75s.34,.75,.75,.75Z"/></g></g></svg>