<?xml version="1.0" encoding="UTF-8"?><svg fill="currentColor" xmlns="http://www.w3.org/2000/svg" viewBox="0 0 24 24"><g id="g"><path d="M17,11.25h-6.25v-.25c0-.7-.41-1.29-1-1.57v-1.85c.36-.17,.65-.46,.82-.82h4.43c.96,0,1.75-.79,1.75-1.75s-.79-1.75-1.75-1.75h-4.43c-.28-.59-.88-1-1.57-1H5c-.96,0-1.75,.79-1.75,1.75v2c0,.7,.41,1.29,1,1.57v1.85c-.59,.28-1,.88-1,1.57v10c0,.41,.34,.75,.75,.75h6c.41,0,.75-.34,.75-.75v-5.25h5.25c.14,0,.25,.11,.25,.25v1c0,.41,.34,.75,.75,.75h3c.41,0,.75-.34,.75-.75v-2c0-2.07-1.68-3.75-3.75-3.75ZM5.75,7.75h2.5v1.5h-2.5v-1.5Zm9.5-2.75c0,.14-.11,.25-.25,.25h-4.25v-.5h4.25c.14,0,.25,.11,.25,.25Zm-10.5-1c0-.14,.11-.25,.25-.25h4c.14,0,.25,.11,.25,.25v2c0,.14-.11,.25-.25,.25H5c-.14,0-.25-.11-.25-.25v-2Zm4.5,16.25H4.75V11c0-.14,.11-.25,.25-.25h4c.14,0,.25,.11,.25,.25v9.25Zm10-4h-1.5v-.25c0-.96-.79-1.75-1.75-1.75h-5.25v-1.5h6.25c1.24,0,2.25,1.01,2.25,2.25v1.25Z"/></g></svg>