<?xml version="1.0" encoding="UTF-8"?><svg fill="currentColor" xmlns="http://www.w3.org/2000/svg" viewBox="0 0 24 24"><g id="c"><path d="M20,4.25h-1.25v-.25c0-.96-.79-1.75-1.75-1.75H8c-.96,0-1.75,.79-1.75,1.75v2c0,.7,.41,1.29,1,1.57v3.68h-1.25c-.41,0-.75,.34-.75,.75s.34,.75,.75,.75h.25v1.25c0,1.94,1.17,3.61,2.84,4.34l-.64,1.91h-.46c-.41,0-.75,.34-.75,.75s.34,.75,.75,.75h9c.41,0,.75-.34,.75-.75s-.34-.75-.75-.75h-.46l-.64-1.91c1.67-.74,2.84-2.4,2.84-4.34v-1.25h.25c.41,0,.75-.34,.75-.75s-.34-.75-.75-.75h-1.25v-3.68c.59-.28,1-.88,1-1.57v-.25h1.25c.41,0,.75-.34,.75-.75s-.34-.75-.75-.75Zm-12.25-.25c0-.14,.11-.25,.25-.25h9c.14,0,.25,.11,.25,.25v2c0,.14-.11,.25-.25,.25H8c-.14,0-.25-.11-.25-.25v-2Zm6.71,14.75l.5,1.5h-4.92l.5-1.5h3.92Zm2.79-4.75c0,1.79-1.46,3.25-3.25,3.25h-3c-1.79,0-3.25-1.46-3.25-3.25v-1.25h9.5v1.25Zm-8.5-2.75v-3.5h7.5v3.5h-7.5Z"/></g></svg>