<?xml version="1.0" encoding="UTF-8"?><svg fill="currentColor" xmlns="http://www.w3.org/2000/svg" viewBox="0 0 24 24"><g id="d"><path d="M20.58,9.36c.11-.26,.17-.55,.17-.86v-3.5c0-.3-.18-.58-.46-.69-.28-.12-.6-.05-.82,.16l-1.12,1.12c-.42,.42-1,.66-1.59,.66h-5.26c-1.24,0-2.25,1.01-2.25,2.25,0,.3,.06,.59,.17,.86-.68,.24-1.17,.88-1.17,1.64v2.69l-1.19,1.19c-.24,.24-.55,.37-.88,.37H3c-.41,0-.75,.34-.75,.75s.34,.75,.75,.75h3.17c.73,0,1.43-.29,1.94-.81l1.19-1.19h10.94v2.25c0,.69-.56,1.25-1.25,1.25H3c-.41,0-.75,.34-.75,.75s.34,.75,.75,.75H19c1.52,0,2.75-1.23,2.75-2.75v-6c0-.76-.49-1.4-1.17-1.64Zm-9.08-1.61h5.26c.91,0,1.81-.34,2.49-.95v1.7c0,.41-.34,.75-.75,.75h-7c-.41,0-.75-.34-.75-.75s.34-.75,.75-.75Zm-1.75,3.25c0-.14,.11-.25,.25-.25h1.25v1.25c0,.41,.34,.75,.75,.75s.75-.34,.75-.75v-1.25h1.5v1.25c0,.41,.34,.75,.75,.75s.75-.34,.75-.75v-1.25h1.5v1.25c0,.41,.34,.75,.75,.75s.75-.34,.75-.75v-1.25h1.25c.14,0,.25,.11,.25,.25v2.25H9.75v-2.25Z"/></g></svg>