<?xml version="1.0" encoding="UTF-8"?><svg fill="currentColor" xmlns="http://www.w3.org/2000/svg" viewBox="0 0 24 24"><g id="f"><g><path d="M19,6.25h-.3c-.12-.57-.6-1-1.2-1h-6.03c-.42,0-.85,.1-1.23,.29l-7.58,3.79c-.33,.17-.49,.55-.38,.91l1,3c.1,.31,.39,.51,.71,.51H12.22c.8,0,1.5-.54,1.7-1.33l.62-2.48c.03-.11,.13-.19,.24-.19h2.72c.69,0,1.25-.56,1.25-1.25v-.75h.25c.69,0,1.25,.56,1.25,1.25v5c0,.69-.56,1.25-1.25,1.25H9.5c-1.24,0-2.25,1.01-2.25,2.25s1.01,2.25,2.25,2.25h6.5c.41,0,.75-.34,.75-.75s-.34-.75-.75-.75h-6.5c-.41,0-.75-.34-.75-.75s.34-.75,.75-.75h9.5c1.52,0,2.75-1.23,2.75-2.75v-5c0-1.52-1.23-2.75-2.75-2.75ZM3.92,10.38l1.02-.51,.95,2.38h-1.35l-.62-1.87Zm13.33-2.13h-2.47c-.8,0-1.5,.54-1.7,1.33l-.62,2.48c-.03,.11-.13,.19-.24,.19H7.51l-1.22-3.05,4.63-2.31c.17-.09,.37-.13,.56-.13h5.78v1.5Z"/><path d="M11,9.25h-1c-.41,0-.75,.34-.75,.75s.34,.75,.75,.75h1c.41,0,.75-.34,.75-.75s-.34-.75-.75-.75Z"/></g></g></svg>