<?xml version="1.0" encoding="UTF-8"?><svg fill="currentColor" xmlns="http://www.w3.org/2000/svg" viewBox="0 0 24 24"><g id="l"><path d="M21,11.25h-3.25v-1.85l2.67-1.78c.31-.21,.42-.62,.25-.96l-1.45-2.89c-.47-.94-1.41-1.52-2.46-1.52H7.24c-1.05,0-1.99,.58-2.46,1.52l-1.45,2.89c-.17,.34-.06,.75,.25,.96l2.67,1.78v1.85H3c-.41,0-.75,.34-.75,.75v2c0,.41,.34,.75,.75,.75h.36l.62,3.7c.22,1.33,1.36,2.3,2.71,2.3h10.61c1.35,0,2.49-.97,2.71-2.3l.62-3.7h.36c.41,0,.75-.34,.75-.75v-2c0-.41-.34-.75-.75-.75ZM14.11,3.75c-.31,.87-1.14,1.5-2.11,1.5s-1.8-.63-2.11-1.5h4.22Zm-6.7,4.63l-2.45-1.63,1.15-2.3c.21-.43,.64-.69,1.12-.69h1.09c.35,1.71,1.86,3,3.67,3s3.33-1.29,3.67-3h1.09c.48,0,.91,.26,1.12,.69l1.15,2.3-2.45,1.63c-.21,.14-.33,.37-.33,.62v2.25H7.75v-2.25c0-.25-.13-.48-.33-.62Zm-3.67,4.37H20.25v.5H3.75v-.5Zm14.79,5.46c-.1,.61-.62,1.04-1.23,1.04H6.69c-.61,0-1.13-.44-1.23-1.04l-.58-3.46h14.23l-.58,3.46Z"/></g></svg>