<?xml version="1.0" encoding="UTF-8"?><svg fill="currentColor" xmlns="http://www.w3.org/2000/svg" viewBox="0 0 24 24"><g id="i"><path d="M20.85,2.91c-.88-.88-2.3-.88-3.18,0l-6.89,6.89-.18-.18c-.9-.9-2.09-1.39-3.36-1.39s-2.46,.49-3.36,1.39l-1.41,1.41c-.29,.29-.29,.77,0,1.06l9.19,9.19c.15,.15,.34,.22,.53,.22s.38-.07,.53-.22l1.41-1.41c1.85-1.85,1.85-4.87,0-6.72l-.18-.18,6.89-6.89c.88-.88,.88-2.3,0-3.18ZM4.06,11.57l.35-.35,8.13,8.13-.35,.35L4.06,11.57Zm9.48,6.65l-7.99-7.99c1.24-.74,2.95-.59,3.99,.46l.71,.71,2.12,2.12,.71,.71c1.08,1.08,1.23,2.75,.46,4Zm6.26-13.19l-6.89,6.89-1.06-1.06,6.89-6.89c.28-.28,.78-.28,1.06,0,.14,.14,.22,.33,.22,.53s-.08,.39-.22,.53Z"/></g></svg>