<?xml version="1.0" encoding="UTF-8"?><svg fill="currentColor" xmlns="http://www.w3.org/2000/svg" viewBox="0 0 24 24"><g id="c"><path d="M21.75,8c0-.96-.79-1.75-1.75-1.75h-3.25v-1.25c0-.96-.79-1.75-1.75-1.75h-6c-.96,0-1.75,.79-1.75,1.75v1.25h-3.25c-.96,0-1.75,.79-1.75,1.75v4c0,.99,.39,1.88,1.02,2.55,0,.03-.02,.07-.02,.1v4.34c0,.96,.79,1.75,1.75,1.75h14c.96,0,1.75-.79,1.75-1.75v-4.34s-.02-.07-.02-.1c.63-.67,1.02-1.57,1.02-2.55v-4Zm-13-3c0-.14,.11-.25,.25-.25h6c.14,0,.25,.11,.25,.25v1.25h-6.5v-1.25Zm-5,3c0-.14,.11-.25,.25-.25H20c.14,0,.25,.11,.25,.25v4c0,1.24-1.01,2.25-2.25,2.25h-5.25v-.25c0-.41-.34-.75-.75-.75s-.75,.34-.75,.75v.25H6c-1.24,0-2.25-1.01-2.25-2.25v-4Zm15.25,11.25H5c-.14,0-.25-.11-.25-.25v-3.48c.39,.14,.81,.23,1.25,.23h5.25v.25c0,.41,.34,.75,.75,.75s.75-.34,.75-.75v-.25h5.25c.44,0,.86-.09,1.25-.23v3.48c0,.14-.11,.25-.25,.25Z"/></g></svg>