<?xml version="1.0" encoding="UTF-8"?><svg fill="currentColor" xmlns="http://www.w3.org/2000/svg" viewBox="0 0 24 24"><g id="f"><g><path d="M17.81,3.13c-.57-.3-1.25-.26-1.79,.1l-.89,.61c-.08,.05-.18,.06-.26,0l-1.89-1.29c-.59-.41-1.36-.41-1.95,0l-1.89,1.29c-.08,.05-.18,.05-.26,0l-.89-.61c-.53-.36-1.22-.4-1.79-.1-.58,.31-.94,.91-.94,1.57v14.59c0,.66,.36,1.27,.94,1.57,.57,.3,1.25,.26,1.79-.1l.89-.61c.08-.05,.18-.06,.26,0l1.89,1.29c.3,.2,.64,.3,.98,.3s.68-.1,.98-.3l1.89-1.29c.08-.05,.18-.05,.26,0l.89,.61c.53,.36,1.22,.4,1.79,.1,.58-.31,.94-.91,.94-1.57V4.71c0-.66-.36-1.27-.94-1.57Zm-.56,16.16c0,.15-.1,.22-.14,.25-.06,.03-.14,.05-.24-.01l-.89-.61c-.59-.41-1.36-.41-1.95,0l-1.89,1.29c-.08,.05-.18,.06-.26,0l-1.89-1.29c-.3-.2-.64-.3-.98-.3s-.68,.1-.98,.3l-.89,.61c-.1,.07-.18,.04-.24,.01-.04-.02-.14-.09-.14-.25V4.71c0-.15,.1-.22,.14-.25,.06-.03,.14-.05,.24,.01l.89,.61c.59,.41,1.36,.41,1.95,0l1.89-1.29c.08-.05,.18-.06,.26,0l1.89,1.29c.59,.41,1.36,.41,1.95,0l.89-.61c.1-.07,.19-.04,.24-.01,.04,.02,.14,.09,.14,.25v14.59Z"/><path d="M14,11.25h-5c-.41,0-.75,.34-.75,.75s.34,.75,.75,.75h5c.41,0,.75-.34,.75-.75s-.34-.75-.75-.75Z"/><path d="M15,8.25h-6c-.41,0-.75,.34-.75,.75s.34,.75,.75,.75h6c.41,0,.75-.34,.75-.75s-.34-.75-.75-.75Z"/><path d="M12,14.25h-3c-.41,0-.75,.34-.75,.75s.34,.75,.75,.75h3c.41,0,.75-.34,.75-.75s-.34-.75-.75-.75Z"/></g></g></svg>