<?xml version="1.0" encoding="UTF-8"?><svg fill="currentColor" xmlns="http://www.w3.org/2000/svg" viewBox="0 0 24 24"><g id="o"><g><path d="M19,5.25H5c-1.52,0-2.75,1.23-2.75,2.75v8c0,1.52,1.23,2.75,2.75,2.75h14c1.52,0,2.75-1.23,2.75-2.75V8c0-1.52-1.23-2.75-2.75-2.75Zm1.25,10.75c0,.69-.56,1.25-1.25,1.25H5c-.69,0-1.25-.56-1.25-1.25V8c0-.69,.56-1.25,1.25-1.25h14c.69,0,1.25,.56,1.25,1.25v8Z"/><path d="M8,8.25c-1.52,0-2.75,1.23-2.75,2.75s1.23,2.75,2.75,2.75,2.75-1.23,2.75-2.75-1.23-2.75-2.75-2.75Zm0,4c-.69,0-1.25-.56-1.25-1.25s.56-1.25,1.25-1.25,1.25,.56,1.25,1.25-.56,1.25-1.25,1.25Z"/><path d="M18,14.25h-1c-.41,0-.75,.34-.75,.75s.34,.75,.75,.75h1c.41,0,.75-.34,.75-.75s-.34-.75-.75-.75Z"/><path d="M14,14.25h-1c-.41,0-.75,.34-.75,.75s.34,.75,.75,.75h1c.41,0,.75-.34,.75-.75s-.34-.75-.75-.75Z"/></g></g></svg>