<?xml version="1.0" encoding="UTF-8"?><svg fill="currentColor" xmlns="http://www.w3.org/2000/svg" viewBox="0 0 24 24"><g id="j"><g><path d="M20.18,9.33c-1.44-.13-2.89-.1-4.29,.11-1.78,.27-3.05,.75-4.18,1.17-1.28,.48-2.29,.85-3.68,.79-1.06-.05-2.14-.37-3.2-.93-.56-.3-1.21-.28-1.74,.04-.53,.32-.84,.87-.84,1.48v7.36c0,.72,.45,1.37,1.12,1.62,1.4,.52,2.8,.79,4.19,.79,.16,0,.32,0,.48-.01,1.77-.08,3.02-.56,4.23-1.03,1.15-.44,2.24-.87,3.77-.93,1.12-.05,2.28,.11,3.44,.46,.54,.17,1.13,.07,1.58-.26,.44-.33,.7-.83,.7-1.38v-7.54c0-.9-.67-1.64-1.57-1.72Zm.07,9.26c0,.09-.05,.14-.09,.17-.03,.02-.12,.07-.24,.04-1.32-.41-2.65-.6-3.95-.53-1.77,.08-3.03,.56-4.24,1.03-1.15,.44-2.24,.86-3.76,.93-1.33,.06-2.7-.17-4.08-.68-.08-.03-.14-.12-.14-.22v-7.36c0-.1,.06-.16,.11-.19,.02-.02,.07-.04,.14-.04,.04,0,.08,0,.13,.03,1.26,.67,2.55,1.04,3.84,1.11,1.7,.09,2.95-.39,4.28-.88,1.05-.39,2.24-.84,3.87-1.09,1.28-.19,2.6-.23,3.93-.1,.12,.01,.21,.11,.21,.23v7.54Z"/><path d="M10.53,5.53l.72-.72v3.19c0,.41,.34,.75,.75,.75s.75-.34,.75-.75v-3.19l.72,.72c.15,.15,.34,.22,.53,.22s.38-.07,.53-.22c.29-.29,.29-.77,0-1.06l-2-2c-.07-.07-.15-.12-.24-.16-.18-.08-.39-.08-.57,0-.09,.04-.17,.09-.24,.16l-2,2c-.29,.29-.29,.77,0,1.06s.77,.29,1.06,0Z"/><path d="M12,13.25c-1.24,0-2.25,1.01-2.25,2.25s1.01,2.25,2.25,2.25,2.25-1.01,2.25-2.25-1.01-2.25-2.25-2.25Zm0,3c-.41,0-.75-.34-.75-.75s.34-.75,.75-.75,.75,.34,.75,.75-.34,.75-.75,.75Z"/><path d="M18,12.25h-1c-.41,0-.75,.34-.75,.75s.34,.75,.75,.75h1c.41,0,.75-.34,.75-.75s-.34-.75-.75-.75Z"/><path d="M7,17.25h-1c-.41,0-.75,.34-.75,.75s.34,.75,.75,.75h1c.41,0,.75-.34,.75-.75s-.34-.75-.75-.75Z"/></g></g></svg>