<?xml version="1.0" encoding="UTF-8"?><svg fill="currentColor" xmlns="http://www.w3.org/2000/svg" viewBox="0 0 24 24"><g id="g"><g><path d="M19,9.75c1.52,0,2.75-1.23,2.75-2.75v-2c0-1.52-1.23-2.75-2.75-2.75H5c-1.52,0-2.75,1.23-2.75,2.75v2c0,1.52,1.23,2.75,2.75,2.75h1.25v1.5h-1.25c-1.52,0-2.75,1.23-2.75,2.75v2c0,1.52,1.23,2.75,2.75,2.75h1.25v1.5h-2.25c-.41,0-.75,.34-.75,.75s.34,.75,.75,.75H20c.41,0,.75-.34,.75-.75s-.34-.75-.75-.75H7.75v-1.5h11.25c1.52,0,2.75-1.23,2.75-2.75v-2c0-1.52-1.23-2.75-2.75-2.75H7.75v-1.5h11.25ZM3.75,16v-2c0-.69,.56-1.25,1.25-1.25H15.25v4.5H5c-.69,0-1.25-.56-1.25-1.25Zm16.5-2v2c0,.69-.56,1.25-1.25,1.25h-2.25v-4.5h2.25c.69,0,1.25,.56,1.25,1.25Zm0-9v2c0,.69-.56,1.25-1.25,1.25h-2.25V3.75h2.25c.69,0,1.25,.56,1.25,1.25ZM3.75,7v-2c0-.69,.56-1.25,1.25-1.25H15.25v4.5H5c-.69,0-1.25-.56-1.25-1.25Z"/><path d="M7.75,6c0-.41-.34-.75-.75-.75h-1c-.41,0-.75,.34-.75,.75s.34,.75,.75,.75h1c.41,0,.75-.34,.75-.75Z"/><path d="M7.75,15c0-.41-.34-.75-.75-.75h-1c-.41,0-.75,.34-.75,.75s.34,.75,.75,.75h1c.41,0,.75-.34,.75-.75Z"/></g></g></svg>