<?xml version="1.0" encoding="UTF-8"?><svg fill="currentColor" xmlns="http://www.w3.org/2000/svg" viewBox="0 0 24 24"><g id="u"><g><path d="M6,7.25h-2c-.96,0-1.75,.79-1.75,1.75v10c0,.96,.79,1.75,1.75,1.75h2c.96,0,1.75-.79,1.75-1.75V9c0-.96-.79-1.75-1.75-1.75Zm.25,11.75c0,.14-.11,.25-.25,.25h-2c-.14,0-.25-.11-.25-.25V9c0-.14,.11-.25,.25-.25h2c.14,0,.25,.11,.25,.25v10Z"/><path d="M13,11.25h-2c-.96,0-1.75,.79-1.75,1.75v6c0,.96,.79,1.75,1.75,1.75h2c.96,0,1.75-.79,1.75-1.75v-6c0-.96-.79-1.75-1.75-1.75Zm.25,7.75c0,.14-.11,.25-.25,.25h-2c-.14,0-.25-.11-.25-.25v-6c0-.14,.11-.25,.25-.25h2c.14,0,.25,.11,.25,.25v6Z"/><path d="M20,15.25h-2c-.96,0-1.75,.79-1.75,1.75v2c0,.96,.79,1.75,1.75,1.75h2c.96,0,1.75-.79,1.75-1.75v-2c0-.96-.79-1.75-1.75-1.75Zm.25,3.75c0,.14-.11,.25-.25,.25h-2c-.14,0-.25-.11-.25-.25v-2c0-.14,.11-.25,.25-.25h2c.14,0,.25,.11,.25,.25v2Z"/><path d="M19.17,9.73s.08-.04,.12-.05c.03-.01,.07-.03,.1-.05,.19-.11,.32-.3,.35-.51,.01-.09,0-.17,0-.26,0-.01,0-.02,0-.03l-.65-2.75c-.1-.4-.5-.65-.9-.56-.4,.09-.65,.5-.56,.9l.23,.99-3.56-2.21c-.35-.22-.81-.11-1.03,.24-.22,.35-.11,.81,.24,1.03l3.56,2.21-.99,.23c-.4,.09-.65,.5-.56,.9,.08,.35,.39,.58,.73,.58,.06,0,.11,0,.17-.02l2.75-.65Z"/></g></g></svg>