<?xml version="1.0" encoding="UTF-8"?><svg fill="currentColor" xmlns="http://www.w3.org/2000/svg" viewBox="0 0 24 24"><g id="q"><g><path d="M21.12,16.98c-.35-1.06-1.4-1.69-2.5-1.51l-3.21,.53c-.91,.15-1.83,.12-2.72-.11l-1.22-.31c-.42-.1-.71-.48-.71-.91,0-.52,.42-.93,.93-.93h.82c1.24,0,2.25-1.01,2.25-2.25s-1.01-2.25-2.25-2.25h-3.07c-1.05,0-2.07,.2-3.04,.59l-3.67,1.47c-.38,.15-.57,.59-.42,.97,.15,.38,.59,.57,.97,.42l3.67-1.47c.79-.32,1.63-.48,2.48-.48h3.07c.41,0,.75,.34,.75,.75s-.34,.75-.75,.75h-.82c-1.34,0-2.43,1.09-2.43,2.43,0,1.12,.76,2.09,1.84,2.36l1.22,.31c1.1,.27,2.22,.32,3.33,.13l3.21-.53c.38-.06,.72,.15,.84,.5l.06,.17c.07,.21,.05,.43-.06,.61s-.29,.32-.5,.36l-6.69,1.34c-.96,.19-1.98,.17-2.93-.07l-6.38-1.59c-.4-.1-.81,.14-.91,.55s.14,.81,.55,.91l6.38,1.59c.65,.16,1.32,.24,1.99,.24,.54,0,1.08-.05,1.6-.16l6.69-1.34c.63-.13,1.18-.52,1.5-1.08,.32-.56,.39-1.23,.19-1.84l-.06-.17Z"/><path d="M7.35,7.68c.38,.18,.82,.02,1-.36,1.03-2.17,3.25-3.57,5.65-3.57,3.45,0,6.25,2.8,6.25,6.25,0,.94-.2,1.84-.6,2.68-.18,.37-.02,.82,.35,1,.1,.05,.21,.07,.32,.07,.28,0,.55-.16,.68-.43,.5-1.04,.75-2.16,.75-3.32,0-4.27-3.48-7.75-7.75-7.75-2.98,0-5.73,1.74-7,4.43-.18,.37-.02,.82,.36,1Z"/></g></g></svg>