<?xml version="1.0" encoding="UTF-8"?><svg fill="currentColor" xmlns="http://www.w3.org/2000/svg" viewBox="0 0 24 24"><g id="p"><path d="M19,7.25h-3.19l.77-.77c.6-.6,.82-1.44,.59-2.25s-.85-1.42-1.67-1.63c-1.12-.28-2.28,.32-2.71,1.38l-.8,1.99-.8-1.99c-.43-1.07-1.59-1.67-2.71-1.38-.82,.21-1.44,.81-1.67,1.63s0,1.66,.59,2.25l.77,.77h-3.19c-.96,0-1.75,.79-1.75,1.75v1c0,.7,.41,1.29,1,1.57v7.43c0,1.52,1.23,2.75,2.75,2.75h10c1.52,0,2.75-1.23,2.75-2.75v-7.43c.59-.28,1-.88,1-1.57v-1c0-.96-.79-1.75-1.75-1.75Zm.25,1.75v1c0,.14-.11,.25-.25,.25h-4.25v-1.5h4.25c.14,0,.25,.11,.25,.25Zm-8.5-.25h2.5v1.5h-2.5v-1.5Zm3.44-4.21c.15-.38,.56-.59,.95-.49,.41,.1,.55,.43,.59,.57s.09,.49-.21,.79l-1.83,1.83h-.58l1.08-2.71Zm-5.92,.09c.04-.14,.17-.47,.59-.57,.4-.1,.8,.11,.95,.49l1.08,2.71h-.58l-1.83-1.83c-.3-.3-.25-.65-.21-.79Zm-3.52,4.37c0-.14,.11-.25,.25-.25h4.25v1.5H5c-.14,0-.25-.11-.25-.25v-1Zm1,10v-7.25h3.5v8.5h-2.25c-.69,0-1.25-.56-1.25-1.25Zm5,1.25V11.75h2.55c-.03,.08-.05,.16-.05,.25v8.25h-2.5Zm7.5-1.25c0,.69-.56,1.25-1.25,1.25h-2.25V12c0-.09-.02-.17-.05-.25h3.55v7.25Z"/></g></svg>