<?xml version="1.0" encoding="UTF-8"?><svg fill="currentColor" xmlns="http://www.w3.org/2000/svg" viewBox="0 0 24 24"><g id="d"><g><path d="M12,13.75c3.17,0,5.75-2.58,5.75-5.75s-2.58-5.75-5.75-5.75-5.75,2.58-5.75,5.75,2.58,5.75,5.75,5.75Zm0-10c2.34,0,4.25,1.91,4.25,4.25s-1.91,4.25-4.25,4.25-4.25-1.91-4.25-4.25,1.91-4.25,4.25-4.25Z"/><path d="M18.86,14.92c-2.84-1.24-5.64-.59-6.86,.74-1.21-1.33-4.02-1.98-6.86-.74-.34,.15-.52,.52-.42,.88,.83,3.08,3.23,4.91,5.05,4.91,.06,0,.11,0,.17,0,.77-.05,1.48-.43,2.06-1.07,.58,.64,1.29,1.02,2.06,1.07,.05,0,.11,0,.17,0,1.82,0,4.22-1.83,5.05-4.91,.1-.36-.08-.73-.42-.88Zm-7.72,3.42c-.27,.4-.71,.84-1.29,.87-.96,.04-2.66-1.03-3.47-3.16,2.17-.7,4.07-.07,4.63,.73,.34,.48,.26,1.09,.13,1.55Zm3.02,.87c-.58-.04-1.02-.48-1.29-.87-.14-.46-.21-1.08,.13-1.55,.56-.79,2.46-1.43,4.63-.73-.81,2.13-2.45,3.19-3.47,3.16Z"/><path d="M11,8.75h2c.41,0,.75-.34,.75-.75s-.34-.75-.75-.75h-2c-.41,0-.75,.34-.75,.75s.34,.75,.75,.75Z"/></g></g></svg>