<?xml version="1.0" encoding="UTF-8"?><svg fill="currentColor" xmlns="http://www.w3.org/2000/svg" viewBox="0 0 24 24"><g id="t"><path d="M21.67,15.11c-.1-.56-.27-1.11-.53-1.61l-1.57-3.1c-.84-1.66-2.41-2.77-4.22-3.06l.93-2.78c.18-.53,.09-1.12-.24-1.58-.33-.46-.86-.73-1.42-.73h-5.23c-.56,0-1.09,.27-1.42,.73-.33,.46-.42,1.04-.24,1.58l.93,2.78c-1.81,.29-3.38,1.41-4.22,3.06l-1.57,3.1c-.26,.51-.44,1.05-.53,1.61-.28,1.64,.18,3.31,1.26,4.59,1.1,1.3,2.72,2.05,4.44,2.05h7.94c1.72,0,3.34-.75,4.44-2.05,1.08-1.28,1.54-2.95,1.26-4.59ZM9.18,3.85s.09-.1,.2-.1h5.23c.11,0,.17,.06,.2,.1,.03,.04,.07,.12,.03,.23l-1.06,3.17h-3.59l-1.06-3.17c-.04-.11,0-.19,.03-.23Zm10.08,14.88c-.82,.97-2.02,1.52-3.3,1.52h-7.94c-1.28,0-2.48-.55-3.3-1.52-.79-.94-1.13-2.17-.93-3.37,.07-.41,.2-.81,.39-1.19l1.57-3.1c.73-1.44,2.2-2.33,3.83-2.33h4.79c1.63,0,3.1,.89,3.83,2.33l1.57,3.1c.19,.37,.32,.77,.39,1.19,.2,1.2-.13,2.43-.93,3.37Z"/></g></svg>