<?xml version="1.0" encoding="UTF-8"?><svg fill="currentColor" xmlns="http://www.w3.org/2000/svg" viewBox="0 0 24 24"><g id="r"><g><path d="M19,7.25H5c-1.52,0-2.75,1.23-2.75,2.75v4c0,1.52,1.23,2.75,2.75,2.75h14c1.52,0,2.75-1.23,2.75-2.75v-4c0-1.52-1.23-2.75-2.75-2.75Zm1.25,6.75c0,.69-.56,1.25-1.25,1.25H5c-.69,0-1.25-.56-1.25-1.25v-4c0-.69,.56-1.25,1.25-1.25h14c.69,0,1.25,.56,1.25,1.25v4Z"/><path d="M13.24,10.76c-.29-.29-.77-.29-1.06,0l-.18,.18-.18-.18c-.29-.29-.77-.29-1.06,0s-.29,.77,0,1.06l.18,.18-.18,.18c-.29,.29-.29,.77,0,1.06,.15,.15,.34,.22,.53,.22s.38-.07,.53-.22l.18-.18,.18,.18c.15,.15,.34,.22,.53,.22s.38-.07,.53-.22c.29-.29,.29-.77,0-1.06l-.18-.18,.18-.18c.29-.29,.29-.77,0-1.06Z"/><path d="M18.53,10.76c-.29-.29-.77-.29-1.06,0l-.18,.18-.18-.18c-.29-.29-.77-.29-1.06,0s-.29,.77,0,1.06l.18,.18-.18,.18c-.29,.29-.29,.77,0,1.06,.15,.15,.34,.22,.53,.22s.38-.07,.53-.22l.18-.18,.18,.18c.15,.15,.34,.22,.53,.22s.38-.07,.53-.22c.29-.29,.29-.77,0-1.06l-.18-.18,.18-.18c.29-.29,.29-.77,0-1.06Z"/><path d="M7.94,10.76c-.29-.29-.77-.29-1.06,0l-.18,.18-.18-.18c-.29-.29-.77-.29-1.06,0s-.29,.77,0,1.06l.18,.18-.18,.18c-.29,.29-.29,.77,0,1.06,.15,.15,.34,.22,.53,.22s.38-.07,.53-.22l.18-.18,.18,.18c.15,.15,.34,.22,.53,.22s.38-.07,.53-.22c.29-.29,.29-.77,0-1.06l-.18-.18,.18-.18c.29-.29,.29-.77,0-1.06Z"/></g></g></svg>