<?xml version="1.0" encoding="UTF-8"?><svg fill="currentColor" xmlns="http://www.w3.org/2000/svg" viewBox="0 0 24 24"><g id="k"><g><path d="M12,2.25c-1.29,0-2.54,.25-3.72,.74h0s-.04,.02-.06,.03c-.06,.02-.1,.06-.15,.1-.01,.01-.03,.01-.04,.03h0c-.24,.22-.33,.55-.2,.86,.05,.11,.13,.2,.21,.28l2.89,3.25s.03,.02,.05,.04c.04,.04,.09,.07,.14,.1,.04,.02,.07,.04,.11,.06,.05,.02,.11,.03,.17,.03,.03,0,.06,.02,.1,.02,.01,0,.03,0,.04,0,.01,0,.02,0,.03,0,.15-.01,.3-.02,.46-.02,2.34,0,4.25,1.91,4.25,4.25,0,1.35-.62,2.59-1.7,3.4-.01,0-.02,.02-.03,.03-.05,.04-.09,.09-.13,.14-.02,.03-.04,.05-.06,.09-.03,.05-.04,.1-.05,.16-.01,.04-.02,.08-.03,.12,0,.02-.01,.04-.01,.06v4.49s.02,.09,.03,.14c0,.04,0,.08,.02,.12,0,0,0,.01,.01,.02,.01,.03,.03,.05,.04,.07,.03,.06,.06,.11,.11,.16,.02,.02,.04,.04,.06,.06,.05,.04,.1,.08,.16,.11,.02,.01,.04,.02,.06,.03,.09,.03,.17,.06,.27,.06,.08,0,.17-.01,.25-.04,3.89-1.37,6.5-5.07,6.5-9.19,0-5.38-4.37-9.75-9.75-9.75Zm3.75,17.09v-2.99c1.27-1.09,2-2.65,2-4.35,0-3.17-2.58-5.75-5.75-5.75-.07,0-.14,0-.21,.01l-1.97-2.21c.71-.19,1.43-.3,2.18-.3,4.55,0,8.25,3.7,8.25,8.25,0,3.12-1.77,5.94-4.5,7.34Z"/><path d="M12,16.25c-2.34,0-4.25-1.91-4.25-4.25,0-1.14,.44-2.2,1.24-3,.29-.29,.29-.77,0-1.06l-2.83-2.83c-.29-.29-.77-.29-1.06,0-1.84,1.84-2.86,4.29-2.86,6.89,0,5.38,4.37,9.75,9.75,9.75,.41,0,.75-.34,.75-.75v-4c0-.41-.34-.75-.75-.75ZM3.75,12c0-1.95,.68-3.8,1.91-5.28l1.79,1.79c-.77,1-1.21,2.2-1.21,3.48,0,2.92,2.18,5.33,5,5.7v2.52c-4.2-.38-7.5-3.92-7.5-8.21Z"/></g></g></svg>