<?xml version="1.0" encoding="UTF-8"?><svg fill="currentColor" xmlns="http://www.w3.org/2000/svg" viewBox="0 0 24 24"><g id="e"><g><path d="M9,2.25H4c-.96,0-1.75,.79-1.75,1.75v5c0,.96,.79,1.75,1.75,1.75h5c.96,0,1.75-.79,1.75-1.75V4c0-.96-.79-1.75-1.75-1.75Zm.25,6.75c0,.14-.11,.25-.25,.25H4c-.14,0-.25-.11-.25-.25V4c0-.14,.11-.25,.25-.25h5c.14,0,.25,.11,.25,.25v5Z"/><rect x="5.25" y="5.25" width="2.5" height="2.5" rx=".75" ry=".75"/><path d="M9,12.25H4c-.96,0-1.75,.79-1.75,1.75v5c0,.96,.79,1.75,1.75,1.75h5c.96,0,1.75-.79,1.75-1.75v-5c0-.96-.79-1.75-1.75-1.75Zm.25,6.75c0,.14-.11,.25-.25,.25H4c-.14,0-.25-.11-.25-.25v-5c0-.14,.11-.25,.25-.25h5c.14,0,.25,.11,.25,.25v5Z"/><rect x="5.25" y="15.25" width="2.5" height="2.5" rx=".75" ry=".75"/><path d="M19,2.25h-5c-.96,0-1.75,.79-1.75,1.75v5c0,.96,.79,1.75,1.75,1.75h5c.96,0,1.75-.79,1.75-1.75V4c0-.96-.79-1.75-1.75-1.75Zm.25,6.75c0,.14-.11,.25-.25,.25h-5c-.14,0-.25-.11-.25-.25V4c0-.14,.11-.25,.25-.25h5c.14,0,.25,.11,.25,.25v5Z"/><rect x="15.25" y="5.25" width="2.5" height="2.5" rx=".75" ry=".75"/><path d="M20,17.25c-.41,0-.75,.34-.75,.75v1c0,.14-.11,.25-.25,.25h-1c-.41,0-.75,.34-.75,.75s.34,.75,.75,.75h1c.96,0,1.75-.79,1.75-1.75v-1c0-.41-.34-.75-.75-.75Z"/><path d="M16,15.25h-2.25v-2.25c0-.41-.34-.75-.75-.75s-.75,.34-.75,.75v6c0,.96,.79,1.75,1.75,1.75h1c.41,0,.75-.34,.75-.75s-.34-.75-.75-.75h-1c-.14,0-.25-.11-.25-.25v-2.25h2.25c.41,0,.75-.34,.75-.75s-.34-.75-.75-.75Z"/><path d="M20,12.25h-4c-.41,0-.75,.34-.75,.75s.34,.75,.75,.75h4c.41,0,.75-.34,.75-.75s-.34-.75-.75-.75Z"/><path d="M19.77,16c0-.41-.34-.75-.75-.75h-.01c-.41,0-.74,.34-.74,.75s.34,.75,.75,.75,.75-.34,.75-.75Z"/></g></g></svg>