<?xml version="1.0" encoding="UTF-8"?><svg fill="currentColor" xmlns="http://www.w3.org/2000/svg" viewBox="0 0 24 24"><g id="n"><g><path d="M12,2.25c-2.79,0-5.42,1.23-7.25,3.26v-1.51c0-.41-.34-.75-.75-.75s-.75,.34-.75,.75v4c0,.41,.34,.75,.75,.75h3c.41,0,.75-.34,.75-.75s-.34-.75-.75-.75h-1.72c1.54-2.17,4.05-3.5,6.72-3.5,4.55,0,8.25,3.7,8.25,8.25s-3.7,8.25-8.25,8.25S3.75,16.55,3.75,12c0-.41-.34-.75-.75-.75s-.75,.34-.75,.75c0,5.38,4.37,9.75,9.75,9.75s9.75-4.37,9.75-9.75S17.38,2.25,12,2.25Z"/><path d="M12,7.25c-.41,0-.75,.34-.75,.75v4c0,.25,.13,.48,.33,.62l3,2c.13,.09,.27,.13,.42,.13,.24,0,.48-.12,.63-.33,.23-.34,.14-.81-.21-1.04l-2.67-1.78v-3.6c0-.41-.34-.75-.75-.75Z"/></g></g></svg>