<?xml version="1.0" encoding="UTF-8"?><svg fill="currentColor" xmlns="http://www.w3.org/2000/svg" viewBox="0 0 24 24"><g id="s"><g><path d="M20.67,7.39c-.08-.81-.7-1.46-1.5-1.57-1.02-.14-2.01-.44-2.94-.88-1.12-.53-2.13-1.26-3.02-2.17h0c-.65-.67-1.77-.67-2.42,0-.89,.91-1.9,1.64-3.02,2.17-.93,.44-1.92,.74-2.94,.88-.8,.11-1.42,.76-1.5,1.57-.21,2.03-.3,7.18,3.23,11.04,1.33,1.45,2.98,2.52,4.9,3.18,.18,.06,.36,.09,.54,.09s.36-.03,.54-.09c1.92-.66,3.57-1.73,4.9-3.18,3.54-3.86,3.44-9,3.23-11.04Zm-4.34,10.02c-1.16,1.27-2.6,2.2-4.38,2.78-1.68-.58-3.12-1.51-4.28-2.78-3.12-3.41-3.03-8.04-2.85-9.87,.01-.13,.1-.22,.21-.24,1.17-.16,2.31-.5,3.38-1.01,1.28-.61,2.44-1.44,3.44-2.48,.04-.04,.09-.06,.14-.06s.1,.02,.14,.06c1.01,1.04,2.17,1.87,3.45,2.48,1.07,.51,2.21,.85,3.38,1.01,.12,.02,.2,.11,.21,.24,.19,1.83,.28,6.47-2.84,9.87Z"/><path d="M14.4,9.55l-2.48,3.31-1.39-1.39c-.29-.29-.77-.29-1.06,0s-.29,.77,0,1.06l2,2c.14,.14,.33,.22,.53,.22,.02,0,.04,0,.05,0,.22-.02,.42-.12,.55-.3l3-4c.25-.33,.18-.8-.15-1.05-.33-.25-.8-.18-1.05,.15Z"/></g></g></svg>