<?xml version="1.0" encoding="UTF-8"?><svg fill="currentColor" xmlns="http://www.w3.org/2000/svg" viewBox="0 0 24 24"><g id="m"><g><path d="M16,16.25c-.41,0-.75,.34-.75,.75v2c0,.69-.56,1.25-1.25,1.25H6c-.69,0-1.25-.56-1.25-1.25V5c0-.69,.56-1.25,1.25-1.25H14c.69,0,1.25,.56,1.25,1.25v2c0,.41,.34,.75,.75,.75s.75-.34,.75-.75v-2c0-1.52-1.23-2.75-2.75-2.75H6c-1.52,0-2.75,1.23-2.75,2.75v14c0,1.52,1.23,2.75,2.75,2.75H14c1.52,0,2.75-1.23,2.75-2.75v-2c0-.41-.34-.75-.75-.75Z"/><path d="M14.53,9.53c.29-.29,.29-.77,0-1.06s-.77-.29-1.06,0l-2,2c-.21,.21-.28,.54-.16,.82,.12,.28,.39,.46,.69,.46h8c.41,0,.75-.34,.75-.75s-.34-.75-.75-.75h-6.19l.72-.72Z"/><path d="M20,13.25H12c-.41,0-.75,.34-.75,.75s.34,.75,.75,.75h6.19l-.72,.72c-.29,.29-.29,.77,0,1.06,.15,.15,.34,.22,.53,.22s.38-.07,.53-.22l2-2c.21-.21,.28-.54,.16-.82-.12-.28-.39-.46-.69-.46Z"/><path d="M8.25,18c0,.41,.34,.75,.75,.75h2c.41,0,.75-.34,.75-.75s-.34-.75-.75-.75h-2c-.41,0-.75,.34-.75,.75Z"/></g></g></svg>