<?xml version="1.0" encoding="UTF-8"?><svg fill="currentColor" xmlns="http://www.w3.org/2000/svg" viewBox="0 0 24 24"><g id="b"><g><path d="M20.75,15.43v-7.43c0-2.07-1.68-3.75-3.75-3.75H7c-2.07,0-3.75,1.68-3.75,3.75v7.43c-.59,.28-1,.88-1,1.57v1c0,1.52,1.23,2.75,2.75,2.75h14c1.52,0,2.75-1.23,2.75-2.75v-1c0-.7-.41-1.29-1-1.57ZM7,5.75h10c1.24,0,2.25,1.01,2.25,2.25v7.25h-3.84c-.46,0-.91,.19-1.24,.51l-.41,.41s-.11,.07-.18,.07h-3.17c-.07,0-.13-.03-.18-.07l-.41-.41c-.33-.33-.78-.51-1.24-.51h-3.84v-7.25c0-1.24,1.01-2.25,2.25-2.25Zm13.25,12.25c0,.69-.56,1.25-1.25,1.25H5c-.69,0-1.25-.56-1.25-1.25v-1c0-.14,.11-.25,.25-.25h4.59c.07,0,.13,.03,.18,.07l.41,.41c.33,.33,.78,.51,1.24,.51h3.17c.46,0,.91-.19,1.24-.51l.41-.41s.11-.07,.18-.07h4.59c.14,0,.25,.11,.25,.25v1Z"/><path d="M10.52,12.75c.2,0,.4-.02,.6-.05,.55-.09,.92-.29,1.25-.46,.25-.13,.49-.26,.84-.36,.76-.22,1.64-.22,2.62,0,.22,.05,.46,0,.64-.14,.18-.14,.28-.36,.28-.59v-3.21c0-.35-.24-.65-.58-.73-1.23-.29-2.37-.29-3.39,0-.49,.15-.84,.33-1.11,.47-.28,.15-.48,.26-.8,.31-.69,.12-1.53-.12-2.49-.7-.23-.14-.52-.15-.76-.01-.24,.13-.38,.38-.38,.65v3.21c0,.26,.14,.5,.36,.64,1.04,.63,2.01,.95,2.91,.95Zm-1.77-3.58c.84,.34,1.63,.44,2.37,.32,.55-.09,.92-.29,1.25-.46,.25-.13,.49-.26,.84-.36,.61-.18,1.29-.21,2.04-.1v1.69c-.88-.1-1.71-.04-2.46,.18-.5,.15-.84,.33-1.12,.47-.28,.15-.48,.26-.79,.31-.61,.1-1.32-.06-2.13-.5v-1.55Z"/></g></g></svg>