<?xml version="1.0" encoding="UTF-8"?><svg fill="currentColor" xmlns="http://www.w3.org/2000/svg" viewBox="0 0 24 24"><g id="g"><g><path d="M19,7.25H5c-.41,0-.75,.34-.75,.75v8c0,2.62,2.13,4.75,4.75,4.75h6c2.62,0,4.75-2.13,4.75-4.75V8c0-.41-.34-.75-.75-.75Zm-4,5.5h-6c-.41,0-.75-.34-.75-.75s.34-.75,.75-.75h6c.41,0,.75,.34,.75,.75s-.34,.75-.75,.75Z"/><path d="M19,3.25H5c-1.52,0-2.75,1.23-2.75,2.75,0,.61,.2,1.16,.54,1.62,.18-1.06,1.1-1.87,2.21-1.87h14c1.11,0,2.03,.81,2.21,1.87,.33-.46,.54-1.01,.54-1.62,0-1.52-1.23-2.75-2.75-2.75Z"/></g></g></svg>