<?xml version="1.0" encoding="UTF-8"?><svg fill="currentColor" xmlns="http://www.w3.org/2000/svg" viewBox="0 0 24 24"><g id="q"><g><circle cx="6" cy="18" r="3.75"/><circle cx="18" cy="18" r="3.75"/><path d="M7.4,2.28c-.79-.11-1.6,.12-2.2,.65-.59,.51-.93,1.24-.95,2.01l-1.36,8.86c.87-.65,1.94-1.05,3.11-1.05,1.47,0,2.8,.61,3.75,1.59V5.15c0-1.45-1.01-2.69-2.35-2.88Z"/><path d="M21.11,13.8l-1.36-8.86c-.02-.77-.36-1.5-.95-2.01-.6-.52-1.41-.76-2.2-.65-1.34,.19-2.35,1.43-2.35,2.88V14.34c.95-.98,2.28-1.59,3.75-1.59,1.17,0,2.24,.4,3.11,1.05Z"/><path d="M11.25,6.58v7.5c.23-.04,.48-.07,.75-.07h0c.27,0,.52,.03,.75,.07V6.58c-.24-.05-.49-.08-.75-.08s-.51,.03-.75,.08Z"/></g></g></svg>