<?xml version="1.0" encoding="UTF-8"?><svg fill="currentColor" xmlns="http://www.w3.org/2000/svg" viewBox="0 0 24 24"><g id="i"><path d="M21.2,5.14c-.67-.63-2.09-1.72-4.14-1.88-2.32-.2-4.08,.92-4.92,1.6-.08,.06-.2,.07-.28,0-.84-.68-2.59-1.79-4.92-1.6-2.05,.17-3.48,1.25-4.14,1.88-.35,.33-.55,.79-.55,1.27v11.04c0,.57,.28,1.11,.74,1.44,.46,.33,1.03,.41,1.56,.23,.79-.27,1.62-.41,2.43-.38,1.78,.05,3.15,.77,3.98,1.38,.31,.22,.67,.34,1.04,.34s.73-.11,1.04-.34c.83-.6,2.2-1.33,3.98-1.38,.82-.03,1.64,.11,2.43,.38,.53,.18,1.1,.1,1.56-.23,.46-.33,.74-.87,.74-1.44V6.41c0-.49-.19-.94-.55-1.27Zm-8.45,12.2c0,.36-.34,.66-.75,.66s-.75-.3-.75-.66V7.66c0-.36,.34-.66,.75-.66s.75,.3,.75,.66v9.68Z"/></g></svg>