<?xml version="1.0" encoding="UTF-8"?><svg fill="currentColor" xmlns="http://www.w3.org/2000/svg" viewBox="0 0 24 24"><g id="o"><g><path d="M16,2.25H8c-3.17,0-5.75,2.58-5.75,5.75v8c0,3.17,2.58,5.75,5.75,5.75h8c3.17,0,5.75-2.58,5.75-5.75V8c0-3.17-2.58-5.75-5.75-5.75Zm-6.25,8.38v7.37c0,.41-.34,.75-.75,.75s-.75-.34-.75-.75v-7.37c-1.15-.33-2-1.38-2-2.63,0-1.52,1.23-2.75,2.75-2.75s2.75,1.23,2.75,2.75c0,1.25-.85,2.3-2,2.63Zm5.25,8.12c-1.52,0-2.75-1.23-2.75-2.75,0-1.25,.85-2.3,2-2.63V6c0-.41,.34-.75,.75-.75s.75,.34,.75,.75v7.37c1.15,.33,2,1.38,2,2.63,0,1.52-1.23,2.75-2.75,2.75Z"/><circle cx="9" cy="8" r="1.25"/><circle cx="15" cy="16" r="1.25"/></g></g></svg>