<?xml version="1.0" encoding="UTF-8"?><svg fill="currentColor" xmlns="http://www.w3.org/2000/svg" viewBox="0 0 24 24"><g id="s"><path d="M19.16,8.04l-4-3.57c-1.8-1.61-4.52-1.61-6.32,0l-4,3.57c-1.01,.9-1.59,2.19-1.59,3.55v6.36c0,2.1,1.68,3.81,3.75,3.81h10c2.07,0,3.75-1.71,3.75-3.81v-6.36c0-1.35-.58-2.65-1.59-3.55Zm-3.41,10.71c0,.41-.34,.75-.75,.75s-.75-.34-.75-.75v-3c0-1.24-1.01-2.25-2.25-2.25s-2.25,1.01-2.25,2.25v3c0,.41-.34,.75-.75,.75s-.75-.34-.75-.75v-3c0-2.07,1.68-3.75,3.75-3.75s3.75,1.68,3.75,3.75v3Z"/></g></svg>