<?xml version="1.0" encoding="UTF-8"?><svg fill="currentColor" xmlns="http://www.w3.org/2000/svg" viewBox="0 0 24 24"><g id="e"><path d="M18.38,4.09c-1.21-1.29-2.9-1.95-4.64-1.83-1.74,.13-3.3,1.02-4.3,2.44-1.16,1.65-1.36,3.82-.53,5.67,.07,.15,.05,.34-.04,.47l-4.29,5.95c-.22,.3-.33,.65-.33,1.02v1.77c0,.57,.28,1.11,.74,1.43,.3,.21,.65,.32,1.01,.32,.2,0,.4-.03,.59-.1l1.7-.62c.34-.12,.63-.34,.84-.64l4.22-6.03c.1-.14,.24-.21,.38-.21,2.4,.17,4.61-1.13,5.64-3.32,.99-2.1,.59-4.64-1-6.31Zm-3.45,3.91c-.83,0-1.5-.67-1.5-1.5s.67-1.5,1.5-1.5,1.5,.67,1.5,1.5-.67,1.5-1.5,1.5Z"/></g></svg>