<?xml version="1.0" encoding="UTF-8"?><svg fill="currentColor" xmlns="http://www.w3.org/2000/svg" viewBox="0 0 24 24"><g id="f"><g><path d="M12,2.25C6.62,2.25,2.25,6.62,2.25,12s4.37,9.75,9.75,9.75,9.75-4.37,9.75-9.75S17.38,2.25,12,2.25Zm4.72,10.38c-.32,2.38-2.36,4.12-4.71,4.12-.21,0-.42-.01-.63-.04-2.6-.35-4.43-2.74-4.08-5.34,.29-2.15,1.99-3.83,4.14-4.09,.04,0,.07,0,.11,.01,.24-.07,.51-.03,.71,.15,.31,.28,.33,.75,.06,1.06-.37,.41-.57,.95-.57,1.5,0,1.24,1.01,2.25,2.25,2.25,.55,0,1.09-.2,1.5-.57,.31-.28,.78-.25,1.06,.06,.18,.2,.22,.47,.15,.72,0,.06,.02,.12,.01,.18Z"/><path d="M14,13.75c-2.07,0-3.75-1.68-3.75-3.75,0-.26,.03-.52,.09-.78-.83,.5-1.42,1.34-1.55,2.35-.24,1.78,1.02,3.41,2.79,3.65,1.33,.18,2.58-.48,3.23-1.57-.26,.06-.53,.1-.81,.1Z"/></g></g></svg>