<?xml version="1.0" encoding="UTF-8"?><svg fill="currentColor" xmlns="http://www.w3.org/2000/svg" viewBox="0 0 24 24"><g id="r"><g><path d="M16,2.25H8c-3.17,0-5.75,2.58-5.75,5.75V16c0,3.17,2.58,5.75,5.75,5.75h8c3.17,0,5.75-2.58,5.75-5.75V8c0-3.17-2.58-5.75-5.75-5.75Zm-.5,4c1.24,0,2.25,1.01,2.25,2.25s-1.01,2.25-2.25,2.25-2.25-1.01-2.25-2.25,1.01-2.25,2.25-2.25Zm3.03,8.82l-.91,.91c-.48,.48-1.1,.72-1.73,.72-.55,0-1.11-.19-1.56-.57l-3.78-3.15c-.34-.28-.82-.29-1.17-.03l-2.93,2.2c-.33,.25-.8,.18-1.05-.15-.25-.33-.18-.8,.15-1.05l2.93-2.2c.91-.68,2.16-.65,3.03,.08l3.78,3.15c.38,.31,.92,.29,1.27-.06l.91-.91c.29-.29,.77-.29,1.06,0s.29,.77,0,1.06Z"/><circle cx="15.5" cy="8.5" r=".75"/></g></g></svg>