<?xml version="1.0" encoding="UTF-8"?><svg fill="currentColor" xmlns="http://www.w3.org/2000/svg" viewBox="0 0 24 24"><g id="t"><g><path d="M12.25,18.97c0-.8,.15-1.56,.4-2.27-.31,.04-.54,.05-.65,.05-2.74,0-4.31-1.92-4.6-2.3-.25-.33-.18-.8,.15-1.05,.33-.25,.8-.18,1.05,.15,.13,.17,1.33,1.7,3.4,1.7,.13,0,.83-.02,1.64-.35,1.23-1.61,3.16-2.65,5.33-2.65h2.78v-4.25c0-3.17-2.58-5.75-5.75-5.75H8c-3.17,0-5.75,2.58-5.75,5.75v8c0,3.17,2.58,5.75,5.75,5.75h4.25v-2.78Zm1-9.97c0-.41,.34-.75,.75-.75s.75,.34,.75,.75v1c0,.41-.34,.75-.75,.75s-.75-.34-.75-.75v-1Zm-4,0c0-.41,.34-.75,.75-.75s.75,.34,.75,.75v1c0,.41-.34,.75-.75,.75s-.75-.34-.75-.75v-1Z"/><path d="M18.97,13.75c-2.88,0-5.22,2.34-5.22,5.22v2.78h2.25c3.17,0,5.75-2.58,5.75-5.75v-2.25h-2.78Z"/></g></g></svg>