<?xml version="1.0" encoding="UTF-8"?><svg fill="currentColor" xmlns="http://www.w3.org/2000/svg" viewBox="0 0 24 24"><g id="u"><g><path d="M12,2.25C6.62,2.25,2.25,6.62,2.25,12s4.37,9.75,9.75,9.75,9.75-4.37,9.75-9.75S17.38,2.25,12,2.25Zm0,2.75c2.07,0,3.75,1.68,3.75,3.75s-1.68,3.75-3.75,3.75-3.75-1.68-3.75-3.75,1.68-3.75,3.75-3.75Zm5.42,13.06c-.34,.23-.81,.14-1.04-.21-.98-1.47-2.61-2.35-4.38-2.35-1.87,0-3.61,1.01-4.55,2.63-.14,.24-.39,.37-.65,.37-.13,0-.26-.03-.38-.1-.36-.21-.48-.67-.27-1.02,1.2-2.08,3.44-3.37,5.85-3.37,2.27,0,4.37,1.13,5.63,3.02,.23,.35,.14,.81-.21,1.04Z"/><circle cx="12" cy="8.75" r="2.25"/></g></g></svg>