<?xml version="1.0" encoding="UTF-8"?><svg fill="currentColor" xmlns="http://www.w3.org/2000/svg" viewBox="0 0 24 24"><g id="c"><path d="M21.52,9.74c-1.96-3.39-5.61-5.49-9.52-5.49S4.44,6.35,2.47,9.74c-.39,.67-.25,1.56,.33,2.1l8.01,7.45c.33,.31,.75,.46,1.17,.46s.84-.15,1.17-.46l8.02-7.45c.58-.54,.73-1.43,.33-2.1Zm-6.01,5.32c-.14,.13-.33,.2-.51,.2-.2,0-.4-.08-.55-.24-1.28-1.38-3.62-1.38-4.9,0-.28,.3-.76,.32-1.06,.04-.3-.28-.32-.76-.04-1.06,.91-.98,2.21-1.54,3.54-1.54s2.64,.56,3.55,1.55c.28,.3,.27,.78-.04,1.06Zm2.94-2.41c-.14,.1-.29,.15-.45,.15-.23,0-.45-.1-.6-.3-1.25-1.66-3.27-2.65-5.4-2.65s-4.11,.97-5.36,2.61c-.25,.33-.72,.39-1.05,.14-.33-.25-.39-.72-.14-1.05,1.54-2,3.99-3.19,6.55-3.19s5.06,1.21,6.6,3.25c.25,.33,.18,.8-.15,1.05Z"/></g></svg>