<?xml version="1.0" encoding="UTF-8"?><svg fill="currentColor" xmlns="http://www.w3.org/2000/svg" viewBox="0 0 24 24"><g id="p"><g><path d="M16,2.25H8c-3.17,0-5.75,2.58-5.75,5.75v8c0,3.17,2.58,5.75,5.75,5.75h8c3.17,0,5.75-2.58,5.75-5.75V8c0-3.17-2.58-5.75-5.75-5.75Zm4.25,13.75c0,2.34-1.91,4.25-4.25,4.25H8c-2.34,0-4.25-1.91-4.25-4.25V8c0-2.34,1.91-4.25,4.25-4.25h8c2.34,0,4.25,1.91,4.25,4.25v8Z"/><path d="M14.83,9.64c-.03-.1-.09-.19-.15-.26,0,0-.02-.01-.03-.02-.07-.07-.16-.13-.25-.16-.01,0-.02-.02-.04-.02l-4.47-1.49c-.63-.21-1.32-.05-1.79,.42-.47,.47-.63,1.16-.42,1.79l1.49,4.47s.02,.02,.02,.04c.04,.1,.09,.18,.17,.25,0,0,.01,.02,.02,.03,.07,.07,.16,.12,.26,.15l4.47,1.49c.18,.06,.37,.09,.56,.09,.46,0,.9-.18,1.23-.51,.47-.47,.63-1.16,.42-1.79l-1.49-4.47Zm-5.67-.48s.09-.07,.17-.07c.03,0,.05,0,.08,.01l3.32,1.11-2.53,2.53-1.11-3.31c-.04-.13,.02-.22,.06-.26Zm5.68,5.68s-.13,.1-.26,.06l-3.32-1.11,2.53-2.53,1.11,3.31c.04,.13-.02,.22-.06,.26Z"/></g></g></svg>