<?xml version="1.0" encoding="UTF-8"?><svg fill="currentColor" xmlns="http://www.w3.org/2000/svg" viewBox="0 0 24 24"><g id="l"><path d="M12,2.25C6.62,2.25,2.25,6.62,2.25,12s4.37,9.75,9.75,9.75,9.75-4.37,9.75-9.75S17.38,2.25,12,2.25Zm8.21,9h-4.47c-.08-2.76-.57-5.46-1.46-7.17,3.21,.92,5.62,3.75,5.93,7.17Zm-8.21,9c-.73,0-2.11-2.64-2.24-7.5h4.47c-.13,4.86-1.51,7.5-2.24,7.5Zm-2.24-9c.13-4.86,1.51-7.5,2.24-7.5s2.11,2.64,2.24,7.5h-4.47Zm-.04-7.17c-.89,1.71-1.38,4.41-1.46,7.17H3.79c.31-3.43,2.72-6.25,5.93-7.17ZM3.79,12.75h4.47c.08,2.76,.57,5.46,1.46,7.17-3.21-.92-5.62-3.75-5.93-7.17Zm10.49,7.17c.89-1.71,1.38-4.41,1.46-7.17h4.47c-.31,3.43-2.72,6.25-5.93,7.17Z"/></g></svg>