<?xml version="1.0" encoding="UTF-8"?><svg fill="currentColor" xmlns="http://www.w3.org/2000/svg" viewBox="0 0 24 24"><g id="u"><g><path d="M15.09,12.43c-.41-.05-.78,.25-.83,.66-.05,.41,.25,.78,.66,.83,3.77,.44,5.34,1.58,5.34,2.08,0,.76-2.91,2.25-8.25,2.25s-8.25-1.49-8.25-2.25c0-.51,1.57-1.64,5.34-2.08,.41-.05,.71-.42,.66-.83-.05-.41-.43-.71-.83-.66-4.17,.49-6.66,1.83-6.66,3.57,0,2.46,4.9,3.75,9.75,3.75s9.75-1.29,9.75-3.75c0-1.75-2.49-3.08-6.66-3.57Z"/><path d="M9.25,16c0,.41,.34,.75,.75,.75h4c.41,0,.75-.34,.75-.75s-.34-.75-.75-.75h-1.25v-4.79l3.8-1.9c.6-.3,.97-.9,.97-1.57s-.37-1.27-.97-1.57l-3.49-1.74c-.39-.2-.84-.17-1.22,.06-.37,.23-.59,.63-.59,1.06V15.25h-1.25c-.41,0-.75,.34-.75,.75Zm3.5-10.79l3.13,1.56c.12,.06,.14,.17,.14,.22s-.02,.16-.14,.22l-3.13,1.56v-3.57Z"/></g></g></svg>