<?xml version="1.0" encoding="UTF-8"?><svg fill="currentColor" xmlns="http://www.w3.org/2000/svg" viewBox="0 0 24 24"><g id="i"><path d="M16,2.25H8c-3.17,0-5.75,2.58-5.75,5.75v8c0,3.17,2.58,5.75,5.75,5.75h8c3.17,0,5.75-2.58,5.75-5.75V8c0-3.17-2.58-5.75-5.75-5.75ZM3.75,16V8c0-.9,.29-1.73,.77-2.42l6.42,6.42-6.42,6.42c-.48-.69-.77-1.52-.77-2.42Zm4.25,4.25c-.9,0-1.73-.29-2.42-.77l6.42-6.42,6.42,6.42c-.69,.48-1.52,.77-2.42,.77H8Zm12.25-4.25c0,.9-.29,1.73-.77,2.42L5.58,4.52c.69-.48,1.52-.77,2.42-.77h8c2.34,0,4.25,1.91,4.25,4.25v8Z"/></g></svg>