<?xml version="1.0" encoding="UTF-8"?><svg fill="currentColor" xmlns="http://www.w3.org/2000/svg" viewBox="0 0 24 24"><g id="q"><path d="M19.82,13.76l-1-1c-.33-.33-.78-.51-1.24-.51h-4.84v-2.5h4.25c.96,0,1.75-.79,1.75-1.75v-2c0-.96-.79-1.75-1.75-1.75h-4.25v-1.25c0-.41-.34-.75-.75-.75s-.75,.34-.75,.75v1.25H6.41c-.46,0-.91,.19-1.24,.51l-1,1c-.68,.68-.68,1.79,0,2.47l1,1c.33,.33,.78,.51,1.24,.51h4.84v2.5H7c-.96,0-1.75,.79-1.75,1.75v2c0,.96,.79,1.75,1.75,1.75h4.25v3.25c0,.41,.34,.75,.75,.75s.75-.34,.75-.75v-3.25h4.84c.46,0,.91-.19,1.24-.51l1-1c.68-.68,.68-1.79,0-2.47ZM6.24,8.18l-1-1c-.1-.1-.1-.26,0-.35l1-1s.11-.07,.18-.07h10.59c.14,0,.25,.11,.25,.25v2c0,.14-.11,.25-.25,.25H6.41c-.07,0-.13-.03-.18-.07Zm12.53,7l-1,1s-.11,.07-.18,.07H7c-.14,0-.25-.11-.25-.25v-2c0-.14,.11-.25,.25-.25h10.59c.07,0,.13,.03,.18,.07l1,1c.1,.1,.1,.26,0,.35Z"/></g></svg>