<?xml version="1.0" encoding="UTF-8"?><svg fill="currentColor" xmlns="http://www.w3.org/2000/svg" viewBox="0 0 24 24"><g id="b"><g><path d="M17,4.25H8.75v-.79c0-.67-.53-1.22-1.2-1.24-1.06-.02-2.61,.14-4,1.18-.18,.14-.35,.28-.5,.42-.51,.48-.81,1.19-.81,1.95v12.24c0,2.07,1.68,3.75,3.75,3.75h11c2.62,0,4.75-2.13,4.75-4.75V9c0-2.62-2.13-4.75-4.75-4.75ZM3.75,5.76c0-.34,.12-.65,.34-.86,.11-.1,.23-.21,.36-.31,.94-.7,2-.88,2.8-.89V15.21c-.98,0-2.29,.22-3.5,1.04V5.76Zm16.5,11.24c0,1.79-1.46,3.25-3.25,3.25H6c-1.16,0-2.1-.88-2.22-2,.21-.24,.43-.46,.67-.65,1.03-.77,2.21-.92,3.02-.88,.33,0,.65-.12,.9-.35,.24-.24,.38-.56,.38-.9V5.75h8.25c1.79,0,3.25,1.46,3.25,3.25v8Z"/><path d="M15.15,8.25h-.27c-1.12,.03-2.14,.58-2.82,1.51-.69,.95-.91,2.13-.59,3.24,.29,1.01,.75,1.94,1.36,2.76,.49,.65,1.07,1.24,1.73,1.73,.13,.1,.29,.15,.45,.15s.32-.05,.45-.15c.66-.49,1.24-1.08,1.73-1.73,.56-.76,1-1.61,1.29-2.54,.37-1.16,.17-2.43-.51-3.41-.66-.94-1.69-1.51-2.82-1.56Zm1.91,4.52c-.24,.77-.6,1.47-1.07,2.1-.29,.38-.61,.74-.98,1.06-.36-.32-.69-.68-.98-1.06-.5-.68-.88-1.45-1.12-2.28-.19-.66-.06-1.37,.36-1.94,.4-.55,1-.87,1.65-.89l-.02-.75,.19,.75c.67,.03,1.26,.36,1.66,.92,.42,.6,.54,1.39,.31,2.1Z"/><path d="M15.02,11.25h0c-.41,0-.75,.34-.75,.75s.34,.75,.75,.75,.75-.34,.75-.75-.33-.75-.75-.75Z"/></g></g></svg>