<?xml version="1.0" encoding="UTF-8"?><svg fill="currentColor" xmlns="http://www.w3.org/2000/svg" viewBox="0 0 24 24"><g id="c"><g><path d="M17.15,4.21c-1.65-1.47-3.87-2.17-6.09-1.9-3.88,.46-6.81,3.89-6.81,7.99,0,1.93,.7,3.79,1.97,5.24l4.46,5.1c.33,.38,.81,.6,1.32,.6s.99-.22,1.32-.6l4.46-5.1c1.27-1.45,1.97-3.31,1.97-5.24v-.29c0-2.21-.95-4.32-2.6-5.79Zm1.1,6.09c0,1.56-.57,3.07-1.6,4.25l-4.46,5.1c-.13,.15-.25,.15-.38,0l-4.46-5.1c-1.03-1.18-1.6-2.69-1.6-4.25,0-3.34,2.36-6.13,5.49-6.5,.26-.03,.51-.05,.77-.05,1.54,0,2.98,.55,4.14,1.58,1.33,1.19,2.1,2.89,2.1,4.67v.29Z"/><path d="M12,6.25c-2.07,0-3.75,1.68-3.75,3.75s1.68,3.75,3.75,3.75,3.75-1.68,3.75-3.75-1.68-3.75-3.75-3.75Zm0,6c-1.24,0-2.25-1.01-2.25-2.25s1.01-2.25,2.25-2.25,2.25,1.01,2.25,2.25-1.01,2.25-2.25,2.25Z"/></g></g></svg>