<?xml version="1.0" encoding="UTF-8"?><svg fill="currentColor" xmlns="http://www.w3.org/2000/svg" viewBox="0 0 24 24"><g id="e"><g><path d="M11.25,10.67v5.58h-1.25c-.41,0-.75,.34-.75,.75s.34,.75,.75,.75h4c.41,0,.75-.34,.75-.75s-.34-.75-.75-.75h-1.25v-5.58c1.71-.35,3-1.86,3-3.67,0-2.07-1.68-3.75-3.75-3.75s-3.75,1.68-3.75,3.75c0,1.81,1.29,3.33,3,3.67Zm.75-5.92c1.24,0,2.25,1.01,2.25,2.25s-1.01,2.25-2.25,2.25-2.25-1.01-2.25-2.25,1.01-2.25,2.25-2.25Z"/><path d="M15.09,13.43c-.41-.04-.78,.25-.83,.66-.05,.41,.25,.78,.66,.83,3.77,.44,5.34,1.58,5.34,2.08,0,.76-2.91,2.25-8.25,2.25s-8.25-1.49-8.25-2.25c0-.51,1.57-1.64,5.34-2.08,.41-.05,.71-.42,.66-.83-.05-.41-.42-.7-.83-.66-4.17,.49-6.66,1.83-6.66,3.57,0,2.46,4.9,3.75,9.75,3.75s9.75-1.29,9.75-3.75c0-1.75-2.49-3.08-6.66-3.57Z"/></g></g></svg>