<?xml version="1.0" encoding="UTF-8"?><svg fill="currentColor" xmlns="http://www.w3.org/2000/svg" viewBox="0 0 24 24"><g id="t"><g><path d="M20.45,3.9c-.82-.51-1.82-.55-2.68-.12l-2.21,1.11c-.35,.18-.77,.18-1.12,0l-4.21-2.11c-.77-.38-1.69-.38-2.46,0L3.77,4.78c-.94,.47-1.52,1.41-1.52,2.46v10.53c0,.96,.49,1.83,1.3,2.34,.82,.51,1.82,.55,2.68,.12l2.21-1.11c.35-.18,.77-.18,1.12,0l4.21,2.11c.38,.19,.81,.29,1.23,.29s.84-.1,1.23-.29l4-2c.94-.47,1.52-1.41,1.52-2.46V6.24c0-.96-.49-1.83-1.3-2.34Zm-.2,12.87c0,.48-.26,.9-.69,1.12l-4,2c-.35,.18-.77,.18-1.12,0l-4.21-2.11c-.38-.19-.81-.29-1.23-.29s-.84,.1-1.23,.29l-2.21,1.11c-.4,.2-.84,.18-1.22-.05-.38-.23-.59-.62-.59-1.06V7.24c0-.48,.26-.9,.69-1.12l4-2c.35-.18,.77-.18,1.12,0l4.21,2.11c.77,.38,1.69,.38,2.46,0l2.21-1.11c.4-.2,.84-.18,1.22,.05s.59,.62,.59,1.06v10.53Z"/><path d="M15,8.25c-.41,0-.75,.34-.75,.75v8c0,.41,.34,.75,.75,.75s.75-.34,.75-.75V9c0-.41-.34-.75-.75-.75Z"/><path d="M9,6.25c-.41,0-.75,.34-.75,.75V15c0,.41,.34,.75,.75,.75s.75-.34,.75-.75V7c0-.41-.34-.75-.75-.75Z"/></g></g></svg>