<?xml version="1.0" encoding="UTF-8"?><svg fill="currentColor" xmlns="http://www.w3.org/2000/svg" viewBox="0 0 24 24"><g id="h"><path d="M18,12.25c-1.81,0-3.33,1.29-3.67,3h-.33c-1.79,0-3.25-1.46-3.25-3.25v-1c0-2.62-2.13-4.75-4.75-4.75h-1.19l.72-.72c.29-.29,.29-.77,0-1.06s-.77-.29-1.06,0l-2,2c-.07,.07-.12,.15-.16,.24-.08,.18-.08,.39,0,.57,.04,.09,.09,.17,.16,.24l2,2c.15,.15,.34,.22,.53,.22s.38-.07,.53-.22c.29-.29,.29-.77,0-1.06l-.72-.72h1.19c1.79,0,3.25,1.46,3.25,3.25v1c0,2.62,2.13,4.75,4.75,4.75h.33c.35,1.71,1.86,3,3.67,3,2.07,0,3.75-1.68,3.75-3.75s-1.68-3.75-3.75-3.75Zm0,6c-1.24,0-2.25-1.01-2.25-2.25s1.01-2.25,2.25-2.25,2.25,1.01,2.25,2.25-1.01,2.25-2.25,2.25Z"/></g></svg>