<?xml version="1.0" encoding="UTF-8"?><svg fill="currentColor" xmlns="http://www.w3.org/2000/svg" viewBox="0 0 24 24"><g id="n"><g><path d="M21,11.25c-.41,0-.75,.34-.75,.75,0,4.55-3.7,8.25-8.25,8.25S3.75,16.55,3.75,12,7.45,3.75,12,3.75c1.98,0,3.89,.71,5.39,2.01-.08,.23-.14,.48-.14,.74,0,1.24,1.01,2.25,2.25,2.25s2.25-1.01,2.25-2.25-1.01-2.25-2.25-2.25c-.43,0-.83,.13-1.18,.34-1.76-1.51-4-2.34-6.32-2.34C6.62,2.25,2.25,6.62,2.25,12s4.37,9.75,9.75,9.75,9.75-4.37,9.75-9.75c0-.41-.34-.75-.75-.75Zm-1.5-5.5c.41,0,.75,.34,.75,.75s-.34,.75-.75,.75-.75-.34-.75-.75,.34-.75,.75-.75Z"/><path d="M12,6.25c-3.17,0-5.75,2.58-5.75,5.75s2.58,5.75,5.75,5.75,5.75-2.58,5.75-5.75-2.58-5.75-5.75-5.75Zm0,10c-2.34,0-4.25-1.91-4.25-4.25s1.91-4.25,4.25-4.25,4.25,1.91,4.25,4.25-1.91,4.25-4.25,4.25Z"/></g></g></svg>