<?xml version="1.0" encoding="UTF-8"?><svg fill="currentColor" xmlns="http://www.w3.org/2000/svg" viewBox="0 0 24 24"><g id="o"><g><path d="M8.22,3.28c-.4-.12-.82,.1-.94,.49L2.28,19.78c-.12,.4,.1,.82,.49,.94,.07,.02,.15,.03,.22,.03,.32,0,.62-.21,.72-.53L8.72,4.22c.12-.4-.1-.82-.49-.94Z"/><path d="M21.72,19.78L16.72,3.78c-.12-.4-.54-.62-.94-.49-.4,.12-.62,.54-.49,.94l5,16c.1,.32,.4,.53,.72,.53,.07,0,.15-.01,.22-.03,.4-.12,.62-.54,.49-.94Z"/><path d="M13.18,14.9c-.51-.81-1.85-.81-2.35,0l-2.37,3.79c-.3,.48-.27,1.08,.08,1.53,.27,.35,.67,.54,1.09,.54,.14,0,.29-.02,.44-.07l1.91-.63,1.97,.63c.56,.18,1.16,0,1.53-.47,.35-.45,.38-1.05,.08-1.53l-2.37-3.79Zm-.75,3.73c-.28-.09-.58-.09-.86,0l-1.64,.52,2.06-3.3,2.06,3.3-1.64-.52Z"/><path d="M12,7.75c.41,0,.75-.34,.75-.75v-2c0-.41-.34-.75-.75-.75s-.75,.34-.75,.75v2c0,.41,.34,.75,.75,.75Z"/><path d="M12,12.75c.41,0,.75-.34,.75-.75v-2c0-.41-.34-.75-.75-.75s-.75,.34-.75,.75v2c0,.41,.34,.75,.75,.75Z"/></g></g></svg>