<?xml version="1.0" encoding="UTF-8"?><svg fill="currentColor" xmlns="http://www.w3.org/2000/svg" viewBox="0 0 24 24"><g id="r"><g><path d="M12,9.25c-1.52,0-2.75,1.23-2.75,2.75s1.23,2.75,2.75,2.75,2.75-1.23,2.75-2.75-1.23-2.75-2.75-2.75Zm0,4c-.69,0-1.25-.56-1.25-1.25s.56-1.25,1.25-1.25,1.25,.56,1.25,1.25-.56,1.25-1.25,1.25Z"/><path d="M21,11.25h-1.29c-.35-3.68-3.29-6.61-6.96-6.96v-1.29c0-.41-.34-.75-.75-.75s-.75,.34-.75,.75v1.29c-3.68,.35-6.61,3.29-6.96,6.96h-1.29c-.41,0-.75,.34-.75,.75s.34,.75,.75,.75h1.29c.35,3.68,3.29,6.61,6.96,6.96v1.29c0,.41,.34,.75,.75,.75s.75-.34,.75-.75v-1.29c3.68-.35,6.61-3.29,6.96-6.96h1.29c.41,0,.75-.34,.75-.75s-.34-.75-.75-.75Zm-8.25,6.95v-1.2c0-.41-.34-.75-.75-.75s-.75,.34-.75,.75v1.2c-2.85-.34-5.11-2.6-5.45-5.45h1.2c.41,0,.75-.34,.75-.75s-.34-.75-.75-.75h-1.2c.34-2.85,2.6-5.11,5.45-5.45v1.2c0,.41,.34,.75,.75,.75s.75-.34,.75-.75v-1.2c2.85,.34,5.11,2.6,5.45,5.45h-1.2c-.41,0-.75,.34-.75,.75s.34,.75,.75,.75h1.2c-.34,2.85-2.6,5.11-5.45,5.45Z"/></g></g></svg>