<?xml version="1.0" encoding="UTF-8"?><svg fill="currentColor" xmlns="http://www.w3.org/2000/svg" viewBox="0 0 24 24"><g id="f"><g><path d="M12,2.25C6.62,2.25,2.25,6.62,2.25,12c0,1.94,.57,3.81,1.64,5.42,.23,.34,.7,.44,1.04,.21,.34-.23,.44-.7,.21-1.04-.91-1.36-1.39-2.94-1.39-4.58C3.75,7.45,7.45,3.75,12,3.75s8.25,3.7,8.25,8.25c0,1.64-.48,3.23-1.39,4.58-.23,.34-.14,.81,.21,1.04,.13,.09,.27,.13,.42,.13,.24,0,.48-.12,.62-.33,1.07-1.6,1.64-3.48,1.64-5.42,0-5.38-4.37-9.75-9.75-9.75Z"/><path d="M12,5.25c-3.72,0-6.75,3.03-6.75,6.75,0,1.66,.61,3.26,1.72,4.5,.27,.31,.75,.33,1.06,.06,.31-.28,.33-.75,.06-1.06-.86-.96-1.34-2.21-1.34-3.5,0-2.89,2.35-5.25,5.25-5.25s5.25,2.36,5.25,5.25c0,1.29-.47,2.54-1.34,3.5-.28,.31-.25,.78,.06,1.06,.14,.13,.32,.19,.5,.19,.21,0,.41-.08,.56-.25,1.11-1.24,1.72-2.84,1.72-4.5,0-3.72-3.03-6.75-6.75-6.75Z"/><path d="M14.36,16.05c-.5-.83-1.38-1.33-2.36-1.33h0c-.97,0-1.85,.5-2.36,1.33l-2.19,3.65c-.32,.53-.25,1.21,.16,1.65,.24,.26,.55,.4,.88,.4,.17,0,.34-.04,.51-.12l2.47-1.17c.34-.16,.73-.16,1.07,0l2.47,1.17c.48,.23,1.02,.12,1.39-.28,.41-.45,.47-1.13,.16-1.66l-2.19-3.65Zm-1.18,3.06c-.75-.36-1.61-.36-2.36,0l-1.77,.84,1.88-3.12c.23-.38,.63-.61,1.07-.61s.84,.23,1.07,.61l1.88,3.12-1.77-.84Z"/></g></g></svg>