<?xml version="1.0" encoding="UTF-8"?><svg fill="currentColor" xmlns="http://www.w3.org/2000/svg" viewBox="0 0 24 24"><g id="j"><path d="M12,2.25C6.62,2.25,2.25,6.62,2.25,12s4.37,9.75,9.75,9.75,9.75-4.37,9.75-9.75S17.38,2.25,12,2.25Zm4.09,2.6l-4.09,4.09L7.91,4.85c1.21-.69,2.6-1.1,4.09-1.1s2.88,.4,4.09,1.1Zm-1.54,3.75c1.08,.81,1.7,2.05,1.7,3.4,0,2.34-1.91,4.25-4.25,4.25s-4.25-1.91-4.25-4.25c0-1.35,.62-2.59,1.7-3.4,.02-.01,.03-.03,.04-.05l1.98,1.98c.15,.15,.34,.22,.53,.22s.38-.07,.53-.22l1.98-1.98s.02,.03,.04,.05Zm-2.55,11.65c-4.55,0-8.25-3.7-8.25-8.25,0-2.51,1.13-4.76,2.91-6.28l1.77,1.77c-1.39,1.1-2.19,2.73-2.19,4.5,0,3.17,2.58,5.75,5.75,5.75s5.75-2.58,5.75-5.75c0-1.78-.8-3.41-2.19-4.5l1.77-1.77c1.78,1.51,2.91,3.77,2.91,6.28,0,4.55-3.7,8.25-8.25,8.25Z"/></g></svg>