<?xml version="1.0" encoding="UTF-8"?><svg fill="currentColor" xmlns="http://www.w3.org/2000/svg" viewBox="0 0 24 24"><g id="d"><g><path d="M9,10.25h-.25v-.25c0-.41-.34-.75-.75-.75s-.75,.34-.75,.75v.25h-.25c-.41,0-.75,.34-.75,.75s.34,.75,.75,.75h.25v.36c0,.41,.34,.75,.75,.75s.75-.34,.75-.75v-.36h.25c.41,0,.75-.34,.75-.75s-.34-.75-.75-.75Z"/><path d="M20.53,11.78l-1.47-.98c-.26-.17-.44-.43-.52-.74l-.43-1.74c-.31-1.23-1.4-2.08-2.67-2.08h-.69v-1.25c0-.96-.79-1.75-1.75-1.75h-1c-.96,0-1.75,.79-1.75,1.75v1.25H5c-1.52,0-2.75,1.23-2.75,2.75v7c0,1.29,.89,2.36,2.09,2.66,.3,1.2,1.37,2.09,2.66,2.09,1.21,0,2.24-.8,2.6-1.89h3.8c.36,1.09,1.38,1.89,2.6,1.89s2.3-.85,2.63-2h.37c1.52,0,2.75-1.23,2.75-2.75v-1.93c0-.92-.46-1.78-1.22-2.29Zm-3.87-3.08l.39,1.55h-2.48c-.57,0-1.07-.39-1.21-.95l-.39-1.55h2.48c.57,0,1.07,.39,1.21,.95Zm-4.9-3.7c0-.14,.11-.25,.25-.25h1c.14,0,.25,.11,.25,.25v1.25h-1.5v-1.25Zm-4.75,14.25c-.69,0-1.25-.56-1.25-1.25s.56-1.25,1.25-1.25,1.25,.56,1.25,1.25-.56,1.25-1.25,1.25Zm9,0c-.69,0-1.25-.56-1.25-1.25s.56-1.25,1.25-1.25,1.25,.56,1.25,1.25-.56,1.25-1.25,1.25Zm4.25-3.25c0,.69-.56,1.25-1.25,1.25h-.37c-.33-1.15-1.38-2-2.63-2s-2.38,.9-2.67,2.11h-3.67c-.29-1.21-1.37-2.11-2.67-2.11-1.19,0-2.2,.77-2.58,1.84-.39-.21-.67-.61-.67-1.09v-7c0-.69,.56-1.25,1.25-1.25h6.41l.48,1.92c.31,1.23,1.4,2.08,2.67,2.08h3.29c.12,.11,.24,.21,.37,.3l1.47,.98c.35,.23,.56,.62,.56,1.04v1.93Z"/></g></g></svg>