<?xml version="1.0" encoding="UTF-8"?><svg fill="currentColor" xmlns="http://www.w3.org/2000/svg" viewBox="0 0 24 24"><g id="i"><g><path d="M20.84,10.56c-.39,0-.71,.31-.74,.69h-.63c-.14-1.47-.71-2.91-1.7-4.12l.44-.44c.14,.12,.31,.19,.48,.19,.19,0,.38-.07,.53-.22,.29-.29,.29-.77,0-1.06l-.49-.49h0l-.49-.49c-.29-.29-.77-.29-1.06,0-.28,.28-.28,.72-.03,1.01l-.44,.44c-1.21-.99-2.64-1.56-4.12-1.7v-.63c.39-.03,.69-.34,.69-.74,0-.41-.34-.75-.75-.75h-1.38c-.41,0-.75,.34-.75,.75s.31,.71,.69,.74v.63c-1.47,.14-2.91,.71-4.12,1.7l-.44-.44c.25-.29,.25-.73-.03-1.01-.29-.29-.77-.29-1.06,0l-.49,.49h0l-.49,.49c-.29,.29-.29,.77,0,1.06,.15,.15,.34,.22,.53,.22,.17,0,.34-.07,.48-.19l.44,.44c-.99,1.21-1.56,2.64-1.7,4.12h-.63c-.03-.39-.34-.69-.74-.69-.41,0-.75,.34-.75,.75v1.38c0,.41,.34,.75,.75,.75s.71-.31,.74-.69h.63c.14,1.47,.71,2.91,1.7,4.12l-.44,.44c-.29-.25-.73-.25-1.01,.03-.29,.29-.29,.77,0,1.06l.49,.49h0l.49,.49c.15,.15,.34,.22,.53,.22s.38-.07,.53-.22c.28-.28,.28-.72,.03-1.01l.44-.44c1.21,.99,2.65,1.56,4.12,1.7v.63c-.39,.03-.69,.34-.69,.74,0,.41,.34,.75,.75,.75h1.38c.41,0,.75-.34,.75-.75s-.31-.71-.69-.74v-.63c1.47-.14,2.91-.71,4.12-1.7l.44,.44c-.25,.29-.25,.73,.03,1.01,.15,.15,.34,.22,.53,.22s.38-.07,.53-.22l.49-.49h0l.49-.49c.29-.29,.29-.77,0-1.06-.28-.28-.72-.28-1.01-.03l-.44-.44c.99-1.21,1.56-2.64,1.7-4.12h.63c.03,.39,.34,.69,.74,.69,.41,0,.75-.34,.75-.75v-1.38c0-.41-.34-.75-.75-.75Zm-4.63,5.81c-2.41,2.41-6.32,2.41-8.73,0-2.41-2.41-2.41-6.32,0-8.73,2.41-2.41,6.32-2.41,8.73,0s2.41,6.32,0,8.73Z"/><path d="M7.71,11.94h-.01c-.41,0-.74,.34-.74,.75s.34,.75,.75,.75,.75-.34,.75-.75-.34-.75-.75-.75Z"/><path d="M14.63,14.71h0c-.41,0-.75,.34-.75,.75s.34,.75,.75,.75,.75-.34,.75-.75-.33-.75-.75-.75Z"/><path d="M14.63,7.79h0c-.41,0-.75,.34-.75,.75s.34,.75,.75,.75,.75-.34,.75-.75-.33-.75-.75-.75Z"/><path d="M10.02,8.25h-.01c-.41,0-.74,.34-.74,.75s.34,.75,.75,.75,.75-.34,.75-.75-.34-.75-.75-.75Z"/><path d="M12.02,11.25h-.01c-.41,0-.74,.34-.74,.75s.34,.75,.75,.75,.75-.34,.75-.75-.34-.75-.75-.75Z"/><path d="M10.02,15.25h-.01c-.41,0-.74,.34-.74,.75s.34,.75,.75,.75,.75-.34,.75-.75-.34-.75-.75-.75Z"/></g></g></svg>