<?xml version="1.0" encoding="UTF-8"?><svg fill="currentColor" xmlns="http://www.w3.org/2000/svg" viewBox="0 0 24 24"><g id="c"><g><path d="M11.5,2.25H3.5c-.69,0-1.25,.56-1.25,1.25v2c0,.6,.43,1.08,1,1.2v10.8c0,2.34,1.91,4.25,4.25,4.25s4.25-1.91,4.25-4.25V6.7c.57-.12,1-.6,1-1.2V3.5c0-.69-.56-1.25-1.25-1.25ZM3.75,3.75h7.5v1.5H3.75v-1.5Zm3.75,16.5c-1.52,0-2.75-1.23-2.75-2.75v-.75h2.25c.41,0,.75-.34,.75-.75s-.34-.75-.75-.75h-2.25v-1.5h2.25c.41,0,.75-.34,.75-.75s-.34-.75-.75-.75h-2.25v-1.5h2.25c.41,0,.75-.34,.75-.75s-.34-.75-.75-.75h-2.25v-2.5h5.5v10.75c0,1.52-1.23,2.75-2.75,2.75Z"/><path d="M21.7,17.1c-.07-.45-.18-.9-.33-1.34-.34-1.02-1.22-2.95-3.29-4.38-.26-.18-.6-.18-.85,0-.89,.62-2.49,2-3.28,4.38-.13,.4-.24,.83-.31,1.26-.2,1.17,.13,2.36,.9,3.28,.78,.92,1.92,1.46,3.13,1.46s2.35-.53,3.14-1.45c.76-.89,1.09-2.06,.9-3.2Zm-2.04,2.22c-1,1.17-2.99,1.17-3.98,0-.48-.57-.69-1.32-.56-2.05,.06-.36,.15-.71,.26-1.03,.54-1.63,1.54-2.69,2.29-3.3,1.4,1.14,2.03,2.53,2.29,3.3,.12,.36,.21,.74,.27,1.11,.12,.71-.08,1.42-.56,1.98Z"/><path d="M18.77,16.29c-.39,.13-.61,.55-.48,.95,.04,.11,.08,.31,.01,.5-.08,.19-.27,.36-.54,.45-.39,.13-.6,.56-.46,.95,.11,.31,.4,.51,.71,.51,.08,0,.16-.01,.24-.04,.69-.24,1.22-.72,1.46-1.33,.23-.58,.13-1.14,.01-1.5-.13-.39-.55-.61-.95-.48Z"/></g></g></svg>