<?xml version="1.0" encoding="UTF-8"?><svg fill="currentColor" xmlns="http://www.w3.org/2000/svg" viewBox="0 0 24 24"><g id="e"><g><path d="M21.75,11.39c0-1.74-1.38-3.16-3.1-3.23-.21-.59-.71-1.04-1.36-1.14l-5-.83c-.19-.03-.38-.03-.57,0l-5,.83c-.65,.11-1.15,.56-1.36,1.14-1.72,.08-3.1,1.49-3.1,3.23s1.34,3.11,3.03,3.23c.07,.49,.33,.93,.74,1.2,1.25,.83,3.29,1.82,5.98,1.82,1.22,0,3.62-.24,5.99-1.82,.41-.27,.66-.71,.73-1.2,1.69-.12,3.03-1.51,3.03-3.23Zm-18,0c0-.88,.65-1.61,1.5-1.73v3.46c-.85-.12-1.5-.85-1.5-1.73Zm13.5,2.98c0,.08-.04,.16-.09,.2-2.04,1.37-4.1,1.57-5.16,1.57-2.31,0-4.08-.85-5.15-1.57-.06-.04-.1-.12-.1-.2v-5.63c0-.12,.09-.23,.21-.25l5.08-.83,5,.83c.12,.02,.21,.13,.21,.25v5.63Zm1.5-1.25v-3.46c.85,.12,1.5,.85,1.5,1.73s-.65,1.61-1.5,1.73Z"/><path d="M15.18,12.5c-2.01,.82-4.35,.82-6.36,0-.39-.16-.82,.03-.98,.41-.16,.38,.03,.82,.41,.98,1.17,.48,2.47,.73,3.74,.73s2.55-.25,3.74-.73c.38-.16,.57-.59,.41-.98-.16-.38-.59-.57-.98-.41Z"/><path d="M15.18,9.8c-2.01,.82-4.34,.82-6.36,0-.38-.15-.82,.03-.98,.41-.16,.38,.03,.82,.41,.98,1.19,.48,2.45,.73,3.74,.73s2.55-.25,3.74-.73c.38-.16,.57-.59,.41-.98-.16-.38-.59-.57-.98-.41Z"/></g></g></svg>