<?xml version="1.0" encoding="UTF-8"?><svg fill="currentColor" xmlns="http://www.w3.org/2000/svg" viewBox="0 0 24 24"><g id="n"><g><path d="M21.24,6.52c-.87-2.02-2.79-3.27-5.01-3.27-1.45,0-2.82,.56-3.85,1.58l-.41,.4-.41-.4c-1.03-1.02-2.4-1.58-3.85-1.58-2.22,0-4.14,1.25-5.01,3.27-.86,1.99-.47,4.21,1.02,5.79l7.7,8.2c.14,.15,.34,.24,.55,.24s.4-.09,.55-.24l7.7-8.2c1.49-1.58,1.88-3.81,1.02-5.79Zm-2.11,4.77l-7.16,7.62-7.16-7.62c-1.07-1.14-1.35-2.74-.74-4.17,.63-1.46,2.02-2.37,3.63-2.37,1.04,0,2.06,.42,2.8,1.14l.94,.93c.29,.29,.76,.29,1.05,0l.94-.93c.74-.73,1.75-1.14,2.8-1.14,1.61,0,3,.91,3.63,2.37,.62,1.43,.34,3.03-.74,4.17Z"/><path d="M16,10.25h-2c-.28,0-.54,.16-.67,.41l-.33,.66-1.33-2.66c-.25-.51-1.09-.51-1.34,0l-.79,1.59h-1.54c-.41,0-.75,.34-.75,.75s.34,.75,.75,.75h2c.28,0,.54-.16,.67-.41l.33-.66,1.33,2.66c.13,.25,.39,.41,.67,.41s.54-.16,.67-.41l.79-1.59h1.54c.41,0,.75-.34,.75-.75s-.34-.75-.75-.75Z"/></g></g></svg>