<?xml version="1.0" encoding="UTF-8"?><svg fill="currentColor" xmlns="http://www.w3.org/2000/svg" viewBox="0 0 24 24"><g id="s"><path d="M18,4.25H6c-2.07,0-3.75,1.68-3.75,3.75v8c0,2.07,1.68,3.75,3.75,3.75h12c2.07,0,3.75-1.68,3.75-3.75V8c0-2.07-1.68-3.75-3.75-3.75Zm-12,1.5h12c1.24,0,2.25,1.01,2.25,2.25v3.25h-3.85l-1.78-2.67c-.28-.42-.97-.42-1.25,0l-3.38,5.06-1.38-2.06c-.14-.21-.37-.33-.62-.33H3.75v-3.25c0-1.24,1.01-2.25,2.25-2.25Zm12,12.5H6c-1.24,0-2.25-1.01-2.25-2.25v-3.25h3.85l1.78,2.67c.14,.21,.37,.33,.62,.33s.48-.13,.62-.33l3.38-5.06,1.38,2.06c.14,.21,.37,.33,.62,.33h4.25v3.25c0,1.24-1.01,2.25-2.25,2.25Z"/></g></svg>