<?xml version="1.0" encoding="UTF-8"?><svg fill="currentColor" xmlns="http://www.w3.org/2000/svg" viewBox="0 0 24 24"><g id="f"><g><path d="M18,7.25h-.41l-.29-1.16c-.42-1.67-1.91-2.84-3.64-2.84h-3.32c-1.72,0-3.22,1.17-3.64,2.84l-.29,1.16h-.41c-2.07,0-3.75,1.68-3.75,3.75v6c0,2.07,1.68,3.75,3.75,3.75h12c2.07,0,3.75-1.68,3.75-3.75v-6c0-2.07-1.68-3.75-3.75-3.75Zm-9.84-.8c.25-1,1.15-1.7,2.18-1.7h3.32c1.03,0,1.93,.7,2.18,1.7l.2,.8H7.96l.2-.8Zm12.09,10.55c0,1.24-1.01,2.25-2.25,2.25H6c-1.24,0-2.25-1.01-2.25-2.25v-6c0-1.24,1.01-2.25,2.25-2.25h12c1.24,0,2.25,1.01,2.25,2.25v6Z"/><path d="M14,13.25h-1.25v-1.25c0-.41-.34-.75-.75-.75s-.75,.34-.75,.75v1.25h-1.25c-.41,0-.75,.34-.75,.75s.34,.75,.75,.75h1.25v1.25c0,.41,.34,.75,.75,.75s.75-.34,.75-.75v-1.25h1.25c.41,0,.75-.34,.75-.75s-.34-.75-.75-.75Z"/></g></g></svg>