<?xml version="1.0" encoding="UTF-8"?><svg fill="currentColor" xmlns="http://www.w3.org/2000/svg" viewBox="0 0 24 24"><g id="j"><g><path d="M11.89,2.25c-2.72,0-5.3,1.14-7.14,3.04v-1.29c0-.41-.34-.75-.75-.75s-.75,.34-.75,.75v4c0,.41,.34,.75,.75,.75h4c.41,0,.75-.34,.75-.75s-.34-.75-.75-.75h-2.93c1.56-2.17,4.1-3.5,6.82-3.5,4.61,0,8.36,3.7,8.36,8.25s-3.75,8.25-8.36,8.25c-3.93,0-7.29-2.64-8.16-6.42-.09-.4-.49-.66-.9-.56-.4,.09-.66,.5-.56,.9,1.03,4.46,4.98,7.58,9.62,7.58,5.44,0,9.86-4.37,9.86-9.75S17.33,2.25,11.89,2.25Z"/><path d="M14,14.75c1.52,0,2.75-1.23,2.75-2.75s-1.23-2.75-2.75-2.75h-4c-1.52,0-2.75,1.23-2.75,2.75s1.23,2.75,2.75,2.75h4Zm1.25-2.75c0,.69-.56,1.25-1.25,1.25h-1.25v-2.5h1.25c.69,0,1.25,.56,1.25,1.25Zm-6.5,0c0-.69,.56-1.25,1.25-1.25h1.25v2.5h-1.25c-.69,0-1.25-.56-1.25-1.25Z"/></g></g></svg>