<?xml version="1.0" encoding="UTF-8"?><svg fill="currentColor" xmlns="http://www.w3.org/2000/svg" viewBox="0 0 24 24"><g id="l"><g><path d="M15,11.12h-2.25v-2.12c0-.41-.34-.75-.75-.75s-.75,.34-.75,.75v2.12h-2.25c-.41,0-.75,.34-.75,.75s.34,.75,.75,.75h2.25v2.38c0,.41,.34,.75,.75,.75s.75-.34,.75-.75v-2.38h2.25c.41,0,.75-.34,.75-.75s-.34-.75-.75-.75Z"/><path d="M20.11,6.34c-.25-.78-.86-1.42-1.67-1.75l-5.25-2.12c-.76-.3-1.62-.3-2.38,0l-5.25,2.12h0c-.81,.33-1.42,.96-1.67,1.75-.68,2.13-1.42,6.31,1.2,10.4,1.5,2.34,3.57,3.76,5.04,4.55,.58,.31,1.22,.46,1.87,.46s1.29-.15,1.87-.46c1.47-.78,3.54-2.21,5.04-4.55,2.62-4.09,1.88-8.27,1.2-10.4Zm-2.47,9.59c-1.32,2.07-3.17,3.33-4.48,4.03-.72,.38-1.61,.38-2.33,0-1.31-.7-3.16-1.96-4.48-4.03-2.29-3.58-1.63-7.26-1.04-9.14,.11-.35,.4-.65,.8-.81l5.25-2.12c.4-.16,.86-.16,1.26,0l5.25,2.12c.4,.16,.69,.46,.8,.81,.6,1.88,1.25,5.56-1.04,9.14Z"/></g></g></svg>