<?xml version="1.0" encoding="UTF-8"?><svg fill="currentColor" xmlns="http://www.w3.org/2000/svg" viewBox="0 0 24 24"><g id="p"><g><path d="M16,4.25h-.25v-.25c0-.96-.79-1.75-1.75-1.75h-4c-.96,0-1.75,.79-1.75,1.75v.25h-.25c-2.07,0-3.75,1.68-3.75,3.75v10c0,2.07,1.68,3.75,3.75,3.75h8c2.07,0,3.75-1.68,3.75-3.75V8c0-2.07-1.68-3.75-3.75-3.75Zm-6.25-.25c0-.14,.11-.25,.25-.25h4c.14,0,.25,.11,.25,.25v1c0,.14-.11,.25-.25,.25h-4c-.14,0-.25-.11-.25-.25v-1Zm8.5,14c0,1.24-1.01,2.25-2.25,2.25H8c-1.24,0-2.25-1.01-2.25-2.25V8c0-1.24,1.01-2.25,2.25-2.25h.43c.28,.59,.88,1,1.57,1h4c.7,0,1.29-.41,1.57-1h.43c1.24,0,2.25,1.01,2.25,2.25v10Z"/><path d="M10,12.75h1.25v1.25c0,.41,.34,.75,.75,.75s.75-.34,.75-.75v-1.25h1.25c.41,0,.75-.34,.75-.75s-.34-.75-.75-.75h-1.25v-1.25c0-.41-.34-.75-.75-.75s-.75,.34-.75,.75v1.25h-1.25c-.41,0-.75,.34-.75,.75s.34,.75,.75,.75Z"/><path d="M15,16.25h-6c-.41,0-.75,.34-.75,.75s.34,.75,.75,.75h6c.41,0,.75-.34,.75-.75s-.34-.75-.75-.75Z"/></g></g></svg>