<?xml version="1.0" encoding="UTF-8"?><svg fill="currentColor" xmlns="http://www.w3.org/2000/svg" viewBox="0 0 24 24"><g id="k"><g><path d="M17,7.25c-.41,0-.75,.34-.75,.75v2c0,.69-.56,1.25-1.25,1.25s-1.25-.56-1.25-1.25v-2c0-.41-.34-.75-.75-.75s-.75,.34-.75,.75v2c0,1.25,.85,2.3,2,2.63v.87c0,1.52-1.23,2.75-2.75,2.75s-2.67-1.17-2.74-2.62c1.14-.33,1.99-1.38,1.99-2.63,0-1.52-1.23-2.75-2.75-2.75s-2.75,1.23-2.75,2.75c0,1.26,.86,2.31,2.01,2.64,.07,2.28,1.94,4.11,4.24,4.11s4.25-1.91,4.25-4.25v-.87c1.15-.33,2-1.38,2-2.63v-2c0-.41-.34-.75-.75-.75Zm-10.25,3.75c0-.69,.56-1.25,1.25-1.25s1.25,.56,1.25,1.25-.56,1.25-1.25,1.25-1.25-.56-1.25-1.25Z"/><path d="M17,2.25H7c-2.62,0-4.75,2.13-4.75,4.75v10c0,2.62,2.13,4.75,4.75,4.75h10c2.62,0,4.75-2.13,4.75-4.75V7c0-2.62-2.13-4.75-4.75-4.75Zm3.25,14.75c0,1.79-1.46,3.25-3.25,3.25H7c-1.79,0-3.25-1.46-3.25-3.25V7c0-1.79,1.46-3.25,3.25-3.25h10c1.79,0,3.25,1.46,3.25,3.25v10Z"/></g></g></svg>