<?xml version="1.0" encoding="UTF-8"?><svg fill="currentColor" xmlns="http://www.w3.org/2000/svg" viewBox="0 0 24 24"><g id="h"><g><path d="M19.19,5.11c-.2-.93-.75-1.73-1.55-2.27-1.66-1.11-3.89-.7-4.97,.91l-3.79,5.66c-.38,.57-.58,1.24-.57,1.94v.87c.02,.39-.09,.76-.3,1.08l-3.4,5.08c-.32,.48-.43,1.06-.31,1.63,.12,.56,.45,1.05,.94,1.37,.38,.25,.81,.38,1.23,.38,.69,0,1.37-.33,1.77-.94l3.4-5.08c.21-.32,.51-.56,.88-.7l.81-.32c.65-.25,1.19-.69,1.57-1.26l3.79-5.66c.53-.79,.71-1.74,.5-2.67ZM6.07,20.13c-.16-.11-.26-.26-.3-.44-.04-.17,0-.34,.08-.47l.74-1.11,1.14,.77-.74,1.11c-.2,.29-.61,.36-.93,.15ZM17.44,6.95l-3.79,5.66c-.21,.32-.52,.56-.88,.7l-.81,.32c-.65,.26-1.19,.69-1.57,1.26l-1.83,2.73-1.14-.77,1.83-2.73c.38-.57,.58-1.24,.57-1.94v-.87c-.02-.39,.09-.76,.3-1.08l3.79-5.66c.38-.57,1.02-.87,1.68-.87,.42,0,.84,.12,1.22,.37,.48,.32,.8,.8,.92,1.34,.12,.54,.02,1.08-.28,1.52Z"/><path d="M13.51,7.66l-1.93,2.88c-.23,.34-.14,.81,.21,1.04,.13,.09,.27,.13,.42,.13,.24,0,.48-.12,.62-.33l1.93-2.88c.23-.34,.14-.81-.21-1.04-.35-.23-.81-.14-1.04,.21Z"/></g></g></svg>