<?xml version="1.0" encoding="UTF-8"?><svg fill="currentColor" xmlns="http://www.w3.org/2000/svg" viewBox="0 0 24 24"><g id="m"><g><path d="M20.75,7.92c.03-.59,0-1.19-.09-1.87-.4-1.54-1.39-2.78-2.73-3.4-1.18-.55-2.48-.54-3.66,.03-.12,.06-.24,.12-.36,.19-.33,.18-.66,.39-.97,.61-.53,.38-1.18,.38-1.71,0-.31-.23-.63-.43-.97-.61-.12-.07-.24-.13-.36-.19-1.39-.67-2.93-.56-4.24,.29-1.51,.99-2.4,2.83-2.32,4.9,.05,1.07,.29,2.1,.69,3.07,.2,.47,.43,.92,.71,1.35-.24,1.14-.39,2.78,.07,4.65,.48,1.94,1.41,3.31,2.11,4.11,.23,.26,.5,.45,.81,.57,.22,.08,.44,.12,.67,.12,.39,0,.78-.12,1.12-.37,.58-.41,.91-1.1,.88-1.84-.03-.98,.08-2.32,.78-3.08,.18-.2,.52-.57,.9-.57s.73,.38,.9,.57c.69,.76,.81,2.09,.78,3.08-.02,.74,.31,1.43,.88,1.84,.53,.38,1.18,.47,1.78,.25,.31-.12,.59-.31,.81-.57,.7-.8,1.64-2.17,2.11-4.11,.46-1.87,.31-3.51,.08-4.65,.22-.34,.42-.7,.58-1.07,.65-1.44,.71-2.7,.74-3.31Zm-1.5-.07c-.02,.51-.07,1.58-.6,2.76h0c-.17,.38-.38,.75-.63,1.1-.13,.18-.17,.4-.12,.61,.24,.97,.43,2.5,0,4.26-.41,1.65-1.2,2.81-1.79,3.48-.06,.07-.13,.12-.21,.15-.16,.06-.3,0-.38-.06-.17-.12-.27-.34-.26-.58,.05-1.83-.34-3.22-1.17-4.13-.26-.29-.96-1.06-2.01-1.06s-1.74,.77-2.01,1.05c-.83,.91-1.22,2.3-1.17,4.13,0,.24-.09,.46-.26,.58-.08,.06-.22,.12-.38,.06-.08-.03-.14-.08-.21-.15-.59-.68-1.38-1.83-1.79-3.48-.43-1.76-.24-3.29,0-4.26,.05-.21,0-.43-.11-.61-.29-.42-.54-.87-.74-1.35-.34-.81-.53-1.68-.58-2.64-.06-1.45,.58-2.79,1.65-3.5,.48-.32,1.02-.48,1.55-.48,.41,0,.82,.09,1.21,.28,.1,.05,.2,.1,.3,.15,.28,.15,.55,.32,.8,.51,1.05,.77,2.42,.77,3.48,0,.25-.19,.52-.36,.8-.51,.1-.05,.2-.1,.3-.15,.77-.37,1.61-.38,2.37-.02,.91,.42,1.63,1.33,1.89,2.33,.07,.51,.09,1.02,.07,1.52Z"/><path d="M14.55,6.4c-.99,.74-2.02,.85-2.55,.85-1.23,0-2.13-.53-2.55-.85-.33-.25-.8-.18-1.05,.15-.25,.33-.18,.8,.15,1.05,.57,.43,1.78,1.15,3.45,1.15,.72,0,2.12-.15,3.45-1.15,.33-.25,.4-.72,.15-1.05-.25-.33-.72-.4-1.05-.15Z"/></g></g></svg>