<?xml version="1.0" encoding="UTF-8"?><svg fill="currentColor" xmlns="http://www.w3.org/2000/svg" viewBox="0 0 24 24"><g id="b"><path d="M21,19.25h-.9c-.27,0-.5-.19-.54-.46l-.33-1.99c-.3-1.82-1.72-3.19-3.48-3.49v-3.56h1.25c.41,0,.75-.34,.75-.75s-.34-.75-.75-.75H7.75v-3.25c0-1.52-1.23-2.75-2.75-2.75H3c-.41,0-.75,.34-.75,.75s.34,.75,.75,.75h2c.69,0,1.25,.56,1.25,1.25v7.33c-2.26,.36-4,2.31-4,4.67,0,2.62,2.13,4.75,4.75,4.75,1.6,0,3.02-.8,3.88-2.02,.04,0,.08,.02,.12,.02h7.34c.36,.61,1.02,1,1.76,1h.9c.41,0,.75-.34,.75-.75s-.34-.75-.75-.75Zm-6.75-9.5v3.5h-4.25s-.06,.01-.1,.02c-.62-.48-1.35-.81-2.15-.94v-2.58h6.5Zm-7.25,10.5c-1.79,0-3.25-1.46-3.25-3.25s1.46-3.25,3.25-3.25,3.25,1.46,3.25,3.25-1.46,3.25-3.25,3.25Zm4.16-5.5h3.88c1.35,0,2.49,.97,2.71,2.3l.2,1.2h-6.39c.11-.4,.19-.81,.19-1.25,0-.82-.23-1.58-.59-2.25Z"/></g></svg>