<?xml version="1.0" encoding="UTF-8"?><svg fill="currentColor" xmlns="http://www.w3.org/2000/svg" viewBox="0 0 24 24"><g id="q"><g><path d="M17,2.25H7c-2.62,0-4.75,2.13-4.75,4.75v10c0,2.62,2.13,4.75,4.75,4.75h10c2.62,0,4.75-2.13,4.75-4.75V7c0-2.62-2.13-4.75-4.75-4.75Zm3.25,14.75c0,1.79-1.46,3.25-3.25,3.25H7c-1.79,0-3.25-1.46-3.25-3.25V7c0-1.79,1.46-3.25,3.25-3.25h10c1.79,0,3.25,1.46,3.25,3.25v10Z"/><path d="M16.59,8.75c.07,0,.13,.03,.18,.07l.71,.71c.15,.15,.34,.22,.53,.22s.38-.07,.53-.22c.29-.29,.29-.77,0-1.06l-.71-.71c-.33-.33-.78-.51-1.24-.51h-3.84v-1.25c0-.41-.34-.75-.75-.75s-.75,.34-.75,.75v1.25h-3.84c-.46,0-.91,.19-1.24,.51l-.71,.71c-.29,.29-.29,.77,0,1.06s.77,.29,1.06,0l.71-.71s.11-.07,.18-.07h3.84v1.5h-2.84c-.46,0-.91,.19-1.24,.51l-.71,.71c-.29,.29-.29,.77,0,1.06s.77,.29,1.06,0l.71-.71s.11-.07,.18-.07h2.84v2.5h-3.25c-.06,0-.11,.02-.17,.03-.11-.02-.22-.03-.33-.03-1.24,0-2.25,1.01-2.25,2.25s1.01,2.25,2.25,2.25,2.25-1.01,2.25-2.25c0-.26-.05-.51-.14-.75h4.78c-.08,.24-.14,.49-.14,.75,0,1.24,1.01,2.25,2.25,2.25s2.25-1.01,2.25-2.25-1.01-2.25-2.25-2.25c-.11,0-.22,.02-.33,.03-.06-.01-.11-.03-.17-.03h-3.25v-2.5h2.84c.07,0,.13,.03,.18,.07l.71,.71c.15,.15,.34,.22,.53,.22s.38-.07,.53-.22c.29-.29,.29-.77,0-1.06l-.71-.71c-.33-.33-.78-.51-1.24-.51h-2.84v-1.5h3.84ZM7.5,17.25c-.41,0-.75-.34-.75-.75s.34-.75,.75-.75,.75,.34,.75,.75-.34,.75-.75,.75Zm9.75-.75c0,.41-.34,.75-.75,.75s-.75-.34-.75-.75,.34-.75,.75-.75,.75,.34,.75,.75Z"/></g></g></svg>