<svg fill="currentColor" xmlns="http://www.w3.org/2000/svg" viewBox="0 0 32 32"><g id="certificate"><path d="M26.42,3H5.58A3.52,3.52,0,0,0,2,6.45v14.1A3.52,3.52,0,0,0,5.58,24H19v4a1,1,0,0,0,.62.92,1,1,0,0,0,1.09-.21L22,27.41l1.29,1.3A1,1,0,0,0,24,29a.84.84,0,0,0,.38-.08A1,1,0,0,0,25,28V24h1.42A3.52,3.52,0,0,0,30,20.55V6.45A3.52,3.52,0,0,0,26.42,3ZM22,20a2,2,0,1,1,2-2A2,2,0,0,1,22,20Zm.71,5.29a1,1,0,0,0-1.42,0l-.29.3V21.86a3.64,3.64,0,0,0,2,0v3.73ZM28,20.55A1.52,1.52,0,0,1,26.42,22H25V21a1.07,1.07,0,0,0-.06-.31,4,4,0,1,0-5.88,0A1.07,1.07,0,0,0,19,21v1H5.58A1.52,1.52,0,0,1,4,20.55V6.45A1.52,1.52,0,0,1,5.58,5H26.42A1.52,1.52,0,0,1,28,6.45Z"/><path d="M12,9h8a1,1,0,0,0,0-2H12a1,1,0,0,0,0,2Z"/><path d="M24,11H8a1,1,0,0,0,0,2H24a1,1,0,0,0,0-2Z"/><path d="M13,17H8a1,1,0,0,0,0,2h5a1,1,0,0,0,0-2Z"/></g></svg>