<svg fill="currentColor" xmlns="http://www.w3.org/2000/svg" viewBox="0 0 32 32"><g id="certificate_2" data-name="certificate 2"><path d="M26.25,4H5.75A3.75,3.75,0,0,0,2,7.75v13.5A3.75,3.75,0,0,0,5.75,25h20.5A3.75,3.75,0,0,0,30,21.25V7.75A3.75,3.75,0,0,0,26.25,4ZM12,12a2,2,0,1,1-2-2A2,2,0,0,1,12,12ZM9,15.86A4.09,4.09,0,0,0,10,16a4.09,4.09,0,0,0,1-.14v2.73l-.29-.3a1,1,0,0,0-1.42,0l-.29.3ZM11,6V8.14A4.09,4.09,0,0,0,10,8a4.09,4.09,0,0,0-1,.14V6ZM28,21.25A1.75,1.75,0,0,1,26.25,23H5.75A1.75,1.75,0,0,1,4,21.25V7.75A1.75,1.75,0,0,1,5.75,6H7V9a1.07,1.07,0,0,0,.06.31,3.94,3.94,0,0,0,0,5.38A1.07,1.07,0,0,0,7,15v6a1,1,0,0,0,.62.92,1,1,0,0,0,1.09-.21L10,20.41l1.29,1.3A1,1,0,0,0,12,22a.84.84,0,0,0,.38-.08A1,1,0,0,0,13,21V15a1.07,1.07,0,0,0-.06-.31,3.94,3.94,0,0,0,0-5.38A1.07,1.07,0,0,0,13,9V6H26.25A1.75,1.75,0,0,1,28,7.75Z"/><path d="M25,10H17a1,1,0,0,0,0,2h8a1,1,0,0,0,0-2Z"/><path d="M25,15H17a1,1,0,0,0,0,2h8a1,1,0,0,0,0-2Z"/></g></svg>