<svg fill="currentColor" xmlns="http://www.w3.org/2000/svg" viewBox="0 0 32 32"><g id="champion"><path d="M28.5,7H24V5a2,2,0,0,0-2-2H10A2,2,0,0,0,8,5V7H3.5A1.5,1.5,0,0,0,2,8.5v3A6.51,6.51,0,0,0,8.5,18h.09A8,8,0,0,0,13,22.41V28H11a1,1,0,0,0,0,2H21a1,1,0,0,0,0-2H19V22.41A8,8,0,0,0,23.41,18h.09A6.51,6.51,0,0,0,30,11.5v-3A1.5,1.5,0,0,0,28.5,7ZM8,16A4.5,4.5,0,0,1,4,11.5V9H8v7Zm9,12H15V22.93a7.18,7.18,0,0,0,2,0Zm-1-7a6,6,0,0,1-6-6L10,5,22,5V15A6,6,0,0,1,16,21Zm12-9.5A4.5,4.5,0,0,1,24,16V9h4Z"/></g></svg>