<svg fill="currentColor" xmlns="http://www.w3.org/2000/svg" viewBox="0 0 32 32"><g id="crown_2" data-name="crown 2"><path d="M29.12,9A1,1,0,0,0,28,9.87l-.05.35a5.67,5.67,0,0,1-5,4.78A5.71,5.71,0,0,1,17,9.89a1,1,0,0,0-2,0A5.68,5.68,0,0,1,9.07,15a5.67,5.67,0,0,1-5-4.78l0-.35a1,1,0,0,0-2,.24c0,.13,0,.27.05.4L3.51,21.36A5.37,5.37,0,0,0,8.81,26H23.19a5.37,5.37,0,0,0,5.3-4.64l1.45-10.85c0-.13,0-.27,0-.4A1,1,0,0,0,29.12,9ZM26.51,21.09A3.36,3.36,0,0,1,23.19,24H8.81a3.36,3.36,0,0,1-3.32-2.91l-.78-5.87A7.29,7.29,0,0,0,8.92,17,7.6,7.6,0,0,0,16,13.14,7.57,7.57,0,0,0,23.07,17a7.3,7.3,0,0,0,4.22-1.78Z"/><path d="M3,8A1,1,0,0,0,3,6H3A1,1,0,1,0,3,8Z"/><path d="M29,8a1,1,0,0,0,0-2h0a1,1,0,1,0,0,2Z"/><path d="M16,8a1,1,0,0,0,0-2h0a1,1,0,1,0,0,2Z"/><path d="M7.55,12.89a1,1,0,0,0,1.34-.44L9,12.24l.11.21A1,1,0,0,0,10,13a.93.93,0,0,0,.45-.11,1,1,0,0,0,.44-1.34l-1-2a1,1,0,0,0-1.78,0l-1,2A1,1,0,0,0,7.55,12.89Z"/><path d="M9,8A1,1,0,0,0,9,6H9A1,1,0,1,0,9,8Z"/><path d="M21.55,12.89a1,1,0,0,0,1.34-.44l.11-.21.11.21A1,1,0,0,0,24,13a.93.93,0,0,0,.45-.11,1,1,0,0,0,.44-1.34l-1-2a1,1,0,0,0-1.78,0l-1,2A1,1,0,0,0,21.55,12.89Z"/><path d="M23,8a1,1,0,0,0,0-2h0a1,1,0,1,0,0,2Z"/><path d="M16,20h0a1,1,0,1,0,1,1A1,1,0,0,0,16,20Z"/><path d="M21,20h0a1,1,0,1,0,1,1A1,1,0,0,0,21,20Z"/><path d="M11,20h0a1,1,0,1,0,1,1A1,1,0,0,0,11,20Z"/></g></svg>