<svg fill="currentColor" xmlns="http://www.w3.org/2000/svg" viewBox="0 0 32 32"><g id="diamond"><path d="M27.63,14.22l-1.34-3A3.63,3.63,0,0,0,23,9H9a3.63,3.63,0,0,0-3.26,2.21l-1.34,3a4.18,4.18,0,0,0,.56,4.35L13.3,28.69a3.44,3.44,0,0,0,5.4,0l8.37-10.12A4.18,4.18,0,0,0,27.63,14.22Zm-2.1,3.07L17.16,27.42a1.48,1.48,0,0,1-2.32,0h0L6.47,17.29A2.21,2.21,0,0,1,6.19,15l1.34-3A1.64,1.64,0,0,1,9,11H23a1.64,1.64,0,0,1,1.44,1l1.34,3A2.21,2.21,0,0,1,25.53,17.29Z"/><path d="M16,8a1,1,0,0,0,1-1V3a1,1,0,0,0-2,0V7A1,1,0,0,0,16,8Z"/><path d="M9.29,7.71a1,1,0,0,0,1.42,0,1,1,0,0,0,0-1.42L7.88,3.46A1,1,0,0,0,6.46,4.88Z"/><path d="M22,8a1,1,0,0,0,.71-.29l2.83-2.83a1,1,0,0,0-1.42-1.42L21.29,6.29a1,1,0,0,0,0,1.42A1,1,0,0,0,22,8Z"/><path d="M23,16H18l1.8-2.4a1,1,0,1,0-1.6-1.2L16,15.33,13.8,12.4a1,1,0,1,0-1.6,1.2L14,16H9a1,1,0,0,0,0,2H23a1,1,0,0,0,0-2Z"/></g></svg>