<svg fill="currentColor" xmlns="http://www.w3.org/2000/svg" viewBox="0 0 32 32"><g id="flag_2-2" data-name="flag 2"><path d="M26,7h-.74L16.49,2.13a1,1,0,0,0-1,0L6.74,7H6A2,2,0,0,0,4,9v2a2,2,0,0,0,2,2H7V29a1,1,0,0,0,1.45.89L16,26.12l7.55,3.77A1,1,0,0,0,24,30a1,1,0,0,0,.53-.15A1,1,0,0,0,25,29V13h1a2,2,0,0,0,2-2V9A2,2,0,0,0,26,7ZM16,4.14,21.14,7H10.86Zm7,23.24-6.55-3.27a1,1,0,0,0-.9,0L9,27.38V13H23ZM26,11H6V9H26Z"/><path d="M13,20.12l-.37,2.18a1,1,0,0,0,.39,1,1,1,0,0,0,.59.19,1,1,0,0,0,.47-.11l2-1,2,1a1,1,0,0,0,1.45-1.06l-.37-2.18,1.59-1.55a1,1,0,0,0,.25-1,1,1,0,0,0-.81-.69L18,16.55l-1-2a1,1,0,0,0-1.8,0l-1,2L12,16.86a1,1,0,0,0-.81.69,1,1,0,0,0,.25,1Zm2-1.67a1,1,0,0,0,.75-.55l.32-.64.32.64a1,1,0,0,0,.75.55l.71.1-.51.5a1,1,0,0,0-.29.89l.12.71-.63-.34a1.12,1.12,0,0,0-.47-.11,1,1,0,0,0-.46.11l-.64.34.12-.71a1,1,0,0,0-.29-.89l-.51-.5Z"/></g></svg>