<svg fill="currentColor" xmlns="http://www.w3.org/2000/svg" viewBox="0 0 32 32"><g id="flag"><path d="M16,2A14,14,0,1,0,30,16,14,14,0,0,0,16,2Zm0,26a11.93,11.93,0,0,1-6.07-1.66A1,1,0,0,0,10,26V18h3V19A2.92,2.92,0,0,0,15.77,22h6.47a1.74,1.74,0,0,0,1.44-.8,2,2,0,0,0,.16-1.87l-1-2.33,1-2.33a2,2,0,0,0-.16-1.87,1.74,1.74,0,0,0-1.44-.8H19v-.95A3.06,3.06,0,0,0,16,8h-4.9A3.06,3.06,0,0,0,8,11.05V24.92A12,12,0,1,1,16,28Zm5-10.21L22,20H15.77C15.35,20,15,19.52,15,19V18H16A3.06,3.06,0,0,0,19,15V14H22L21,16.21A2,2,0,0,0,21,17.79ZM17,15A1,1,0,0,1,16,16H10V11.05A1,1,0,0,1,11.05,10H16A1,1,0,0,1,17,11.05Z"/></g></svg>