<svg fill="currentColor" xmlns="http://www.w3.org/2000/svg" viewBox="0 0 32 32"><g id="good"><path d="M29.19,14.53A4,4,0,0,0,26,13H19V8.47A3.47,3.47,0,0,0,15.55,5a3.4,3.4,0,0,0-3.07,1.91l-3.07,6.2A2.4,2.4,0,0,0,8.75,13H4.25A2.25,2.25,0,0,0,2,15.25v10.5A2.25,2.25,0,0,0,4.25,28h4.5l.17,0L9,28H25.62a2.59,2.59,0,0,0,2.54-2L30,18A4.1,4.1,0,0,0,29.19,14.53ZM4,25.75V15.25A.25.25,0,0,1,4.25,15h4.5a.25.25,0,0,1,.25.25v10.5a.25.25,0,0,1-.25.25H4.25A.25.25,0,0,1,4,25.75Zm24-8.19-1.82,8a.61.61,0,0,1-.59.48H11a1.9,1.9,0,0,0,0-.25V15.25a2.21,2.21,0,0,0-.12-.68.41.41,0,0,0,.1-.13L14.27,7.8A1.42,1.42,0,0,1,15.55,7,1.46,1.46,0,0,1,17,8.47V14a1,1,0,0,0,1,1h8a2.06,2.06,0,0,1,1.6.77A2.1,2.1,0,0,1,28,17.56Z"/></g></svg>