<svg fill="currentColor" xmlns="http://www.w3.org/2000/svg" viewBox="0 0 32 32"><g id="love"><path d="M16,2A14,14,0,1,0,30,16,14,14,0,0,0,16,2Zm0,26A12,12,0,1,1,28,16,12,12,0,0,1,16,28Z"/><path d="M19.38,10a3.55,3.55,0,0,0-2.58,1.15L16,12l-.8-.87a3.49,3.49,0,0,0-5.57.52,4,4,0,0,0-.25,3.88,13.5,13.5,0,0,0,2.44,3.64,12.57,12.57,0,0,0,3.75,2.72,1.07,1.07,0,0,0,.86,0,12.57,12.57,0,0,0,3.75-2.72,13.5,13.5,0,0,0,2.44-3.64,4,4,0,0,0-.25-3.88A3.57,3.57,0,0,0,19.38,10Zm1.43,4.71a11.54,11.54,0,0,1-2.08,3.1A10.53,10.53,0,0,1,16,19.88a10.53,10.53,0,0,1-2.73-2.07,11.39,11.39,0,0,1-2.08-3.1,2.07,2.07,0,0,1,.13-2,1.48,1.48,0,0,1,2.41-.24l1.53,1.67a1,1,0,0,0,1.48,0l1.53-1.67a1.52,1.52,0,0,1,2.41.24A2.07,2.07,0,0,1,20.81,14.71Z"/></g></svg>