<svg fill="currentColor" xmlns="http://www.w3.org/2000/svg" viewBox="0 0 32 32"><g id="medal_3" data-name="medal 3"><path d="M22,2H10A1,1,0,0,0,9,3v8.53a6,6,0,0,0,2.37,4.75L13,17.5V19a3,3,0,0,0,1.58,2.63l-.52,1.09-2.26.35a1,1,0,0,0-.8.67,1,1,0,0,0,.23,1l1.67,1.68-.4,2.4a1,1,0,0,0,.41,1,1,1,0,0,0,1.06.06l2-1.11,2,1.11a1,1,0,0,0,.48.12,1,1,0,0,0,.57-.18,1,1,0,0,0,.41-1l-.39-2.4,1.66-1.68a1,1,0,0,0,.24-1,1,1,0,0,0-.8-.67l-2.26-.35-.52-1.08A3,3,0,0,0,19,19V17.5l1.63-1.22A6,6,0,0,0,23,11.53V3A1,1,0,0,0,22,2ZM16,20a1,1,0,0,1-1-1V18h2v1A1,1,0,0,1,16,20Zm1-4H15V4h2Zm-6-4.47V4h2V15l-.43-.32A4,4,0,0,1,11,11.53Zm6.93,13.22-.64.65a1,1,0,0,0-.28.87l.15.87-.7-.38a.91.91,0,0,0-.48-.13.94.94,0,0,0-.48.13l-.69.38.14-.87a1,1,0,0,0-.27-.87L14,24.75l.85-.13a1,1,0,0,0,.75-.56l.34-.72.35.72a1,1,0,0,0,.75.56ZM21,11.53a4,4,0,0,1-1.57,3.15L19,15V4h2Z"/></g></svg>