<svg fill="currentColor" xmlns="http://www.w3.org/2000/svg" viewBox="0 0 32 32"><g id="medal_2" data-name="medal 2"><path d="M24,2H8A4,4,0,0,0,4,6v4a4,4,0,0,0,2.61,3.73l8,2.92.35.1v1.42a6,6,0,1,0,2,0V16.67l.35-.1,8-2.92A4,4,0,0,0,28,9.92V6A4,4,0,0,0,24,2ZM20,24a4,4,0,1,1-4-4A4,4,0,0,1,20,24ZM26,9.92a2,2,0,0,1-1.29,1.85l-8,2.92a1.93,1.93,0,0,1-1.34,0l-8-2.92A2,2,0,0,1,6,9.92V6A2,2,0,0,1,8,4H24a2,2,0,0,1,2,2Z"/><path d="M16,6a1,1,0,0,0-1,1v4a1,1,0,0,0,2,0V7A1,1,0,0,0,16,6Z"/><path d="M20,6a1,1,0,0,0-1,1v4a1,1,0,0,0,2,0V7A1,1,0,0,0,20,6Z"/><path d="M12,6a1,1,0,0,0-1,1v4a1,1,0,0,0,2,0V7A1,1,0,0,0,12,6Z"/></g></svg>