<svg fill="currentColor" xmlns="http://www.w3.org/2000/svg" viewBox="0 0 32 32"><g id="medal"><path d="M29.92,5.86a8.22,8.22,0,0,0-.79-2.49,2.53,2.53,0,0,0-2-1.35h0L27,2H5L4.9,2H4.85a2.53,2.53,0,0,0-2,1.35,8.22,8.22,0,0,0-.79,2.49A8.07,8.07,0,0,0,2,7.34a2.91,2.91,0,0,0,.73,1.79L10,17.39A6.08,6.08,0,0,0,10,18a6,6,0,0,0,12,0,6.08,6.08,0,0,0,0-.61l7.29-8.26A2.86,2.86,0,0,0,30,7.34,8.16,8.16,0,0,0,29.92,5.86ZM16,12a5.81,5.81,0,0,0-1.39.17L12,9H20l-2.57,3.17A5.81,5.81,0,0,0,16,12Zm5.59-5H10.41L8,4H24ZM4.24,7.81A.8.8,0,0,1,4,7.26a6,6,0,0,1,0-1.12,5.71,5.71,0,0,1,.6-1.86A.49.49,0,0,1,5.06,4a.55.55,0,0,1,.51.21L12.7,13a6.12,6.12,0,0,0-2,2.16ZM16,22a4,4,0,1,1,4-4A4,4,0,0,1,16,22ZM27.76,7.81l-6.48,7.34a6.12,6.12,0,0,0-2-2.16l7.13-8.77A.57.57,0,0,1,26.94,4a.49.49,0,0,1,.4.27,5.78,5.78,0,0,1,.6,1.86,6,6,0,0,1,0,1.12A.8.8,0,0,1,27.76,7.81Z"/><path d="M16,25a1,1,0,0,0-1,1v3a1,1,0,0,0,2,0V26A1,1,0,0,0,16,25Z"/><path d="M27.13,20.55,24.18,20a1,1,0,1,0-.36,2l2.95.54.18,0a1,1,0,0,0,1-.82A1,1,0,0,0,27.13,20.55Z"/><path d="M8.94,20.82A1,1,0,0,0,7.77,20l-2.95.53A1,1,0,0,0,4,21.72a1,1,0,0,0,1,.82l.18,0,3-.54A1,1,0,0,0,8.94,20.82Z"/><path d="M21.59,24.29a1,1,0,0,0-1.42,1.42l2.12,2.12a1,1,0,0,0,1.42,0,1,1,0,0,0,0-1.42Z"/><path d="M10.29,24.29,8.17,26.41a1,1,0,0,0,0,1.42,1,1,0,0,0,.71.29,1,1,0,0,0,.71-.29l2.12-2.12a1,1,0,0,0-1.42-1.42Z"/></g></svg>