<svg fill="currentColor" xmlns="http://www.w3.org/2000/svg" viewBox="0 0 32 32"><g id="number_1" data-name="number 1"><path d="M29.31,6.94,25.18,2.71a2.3,2.3,0,0,0-2-.69,2.35,2.35,0,0,0-1.76,1.16L16.27,12h-.54L10.55,3.18A2.35,2.35,0,0,0,8.79,2a2.3,2.3,0,0,0-2,.69L2.69,6.94a2.42,2.42,0,0,0-.22,3.13l5.32,7.27a9,9,0,1,0,16.42,0l5.32-7.27A2.42,2.42,0,0,0,29.31,6.94Zm-25.23,2a.44.44,0,0,1,0-.55L8.25,4.11A.34.34,0,0,1,8.55,4a.39.39,0,0,1,.27.19l4.78,8.15a9,9,0,0,0-4.69,3.14ZM16,28a7,7,0,1,1,7-7A7,7,0,0,1,16,28ZM27.92,8.89l-4.83,6.59a9,9,0,0,0-4.69-3.14l4.78-8.15A.39.39,0,0,1,23.45,4a.34.34,0,0,1,.3.11l4.13,4.23A.44.44,0,0,1,27.92,8.89Z"/><path d="M18,24H17V17a1,1,0,0,0-.62-.92,1,1,0,0,0-1.09.21l-2,2a1,1,0,0,0,1.42,1.42l.29-.3V24H14a1,1,0,0,0,0,2h4a1,1,0,0,0,0-2Z"/></g></svg>