<svg fill="currentColor" xmlns="http://www.w3.org/2000/svg" viewBox="0 0 32 32"><g id="podium"><path d="M28,21H22V15a2,2,0,0,0-2-2H12a2,2,0,0,0-2,2v4H4a2,2,0,0,0-2,2v8a1,1,0,0,0,1,1H29a1,1,0,0,0,1-1V23A2,2,0,0,0,28,21ZM4,21l6,0v7H4Zm8-6,8,0V28H12ZM28,28H22l0-5,6,0Z"/><path d="M12.93,8.2l-.39,2.24a1,1,0,0,0,.4,1,1,1,0,0,0,1.05.07l2-1.05,2,1.05a.93.93,0,0,0,.46.12,1.06,1.06,0,0,0,.59-.19,1,1,0,0,0,.4-1L19.07,8.2,20.7,6.62a1,1,0,0,0-.56-1.7L17.9,4.59l-1-2a1,1,0,0,0-1.8,0l-1,2-2.24.33a1,1,0,0,0-.56,1.7Zm2-1.71A1,1,0,0,0,15.66,6L16,5.26l.34.69a1,1,0,0,0,.75.54l.76.11-.55.54A1,1,0,0,0,17,8l.13.76-.67-.36a1.06,1.06,0,0,0-.94,0l-.67.36L15,8a1,1,0,0,0-.29-.88l-.55-.54Z"/></g></svg>