<svg fill="currentColor" xmlns="http://www.w3.org/2000/svg" viewBox="0 0 32 32"><g id="reward"><path d="M29.71,24.05l-5-5-.07,0A10,10,0,1,0,6,14a9.92,9.92,0,0,0,1.36,5l-.07,0-5,5a1,1,0,0,0-.25,1,1,1,0,0,0,.76.69l2.89.57.57,2.89A1,1,0,0,0,8,29.71L13.71,24a2,2,0,0,0,.12-.19,9.93,9.93,0,0,0,4.34,0,2,2,0,0,0,.12.19l5.76,5.76a1,1,0,0,0,1.69-.51l.57-2.89,2.89-.57a1,1,0,0,0,.76-.69A1,1,0,0,0,29.71,24.05ZM7.86,27l-.34-1.7a1,1,0,0,0-.79-.79L5,24.14l3.51-3.51a9.91,9.91,0,0,0,3.24,2.42ZM8,14a8,8,0,1,1,8,8A8,8,0,0,1,8,14ZM25.27,24.48a1,1,0,0,0-.79.79L24.14,27l-3.92-3.92a9.91,9.91,0,0,0,3.24-2.42L27,24.14Z"/><path d="M20.06,12.09l-2.22-.27-1-1.86a1,1,0,0,0-.9-.53,1,1,0,0,0-.87.56l-1,1.89-2.21.34a1,1,0,0,0-.81.7,1,1,0,0,0,.29,1L13,15.37l-.33,2a1,1,0,0,0,.39,1,1.09,1.09,0,0,0,.59.19,1,1,0,0,0,.46-.11l2-1,2,1a1,1,0,0,0,1-.11,1,1,0,0,0,.37-1l-.4-2,1.55-1.47a1,1,0,0,0-.57-1.72Zm-2.75,2.12a1,1,0,0,0-.29.92l.11.6-.65-.31a1,1,0,0,0-.89,0l-.64.33.09-.6a1,1,0,0,0-.31-.91l-.42-.38.62-.09a1,1,0,0,0,.74-.54L16,12.6l.34.63a1,1,0,0,0,.76.51l.63.08Z"/></g></svg>