<svg fill="currentColor" xmlns="http://www.w3.org/2000/svg" viewBox="0 0 32 32"><g id="reward_2" data-name="reward 2"><path d="M30,16.93a1,1,0,0,0-.52-.78A1.11,1.11,0,0,0,29,16a3.82,3.82,0,0,0,.18-.51,6.25,6.25,0,0,0-1.57-6.21A1,1,0,0,0,26.67,9a1,1,0,0,0-.74.59c-.05.11-.1.23-.16.34A11,11,0,0,0,6.23,10c-.06-.11-.11-.23-.16-.34a1,1,0,0,0-1.63-.31,6.25,6.25,0,0,0-1.57,6.21,3.82,3.82,0,0,0,.18.51,1.11,1.11,0,0,0-.5.12,1,1,0,0,0-.52.78,6.28,6.28,0,0,0,2.7,5.81L5,22.9S5,23,5,23a6.27,6.27,0,0,0,4.29,4.76,6,6,0,0,0,1.77.26,6.6,6.6,0,0,0,3.4-1h3a6.6,6.6,0,0,0,3.4,1,6,6,0,0,0,1.77-.26A6.27,6.27,0,0,0,27,23s0-.05,0-.08l.28-.16A6.28,6.28,0,0,0,30,16.93ZM27,12a4.25,4.25,0,0,1,.19,2.92,4.35,4.35,0,0,1-2.1,2.51,3.62,3.62,0,0,1-.06-1.56,4.88,4.88,0,0,1,.71-1.57c.17-.28.36-.6.57-1S26.81,12.46,27,12Zm-19.62.29a9,9,0,0,1,17.18,0v.06l-.54,1a6.36,6.36,0,0,0-.95,2.18,5.68,5.68,0,0,0,.24,2.92,4.19,4.19,0,0,0-.74.5,6,6,0,0,0-1.92,3.19.77.77,0,0,0,0,.26,5,5,0,0,0-1.3.34A6,6,0,0,0,16.7,25H15.3a6,6,0,0,0-2.65-2.3,4.9,4.9,0,0,0-1.3-.34.77.77,0,0,0,0-.26A6,6,0,0,0,9.4,18.92a4.19,4.19,0,0,0-.74-.5A5.68,5.68,0,0,0,8.9,15.5a6.36,6.36,0,0,0-1-2.18l-.54-1v-.06ZM5,12c.22.44.45.88.69,1.31s.4.71.57,1a4.88,4.88,0,0,1,.71,1.57,3.62,3.62,0,0,1-.06,1.56,4.35,4.35,0,0,1-2.1-2.51A4.25,4.25,0,0,1,5,12ZM4.15,18.7l1.37.59,1.06.4a5.14,5.14,0,0,1,1.55.76,3.7,3.7,0,0,1,.93,1.26,4.33,4.33,0,0,1-3.2-.62A4.28,4.28,0,0,1,4.15,18.7ZM9.9,25.82A4.25,4.25,0,0,1,7.57,24c.49.07,1,.12,1.48.16l1.14.08a4.76,4.76,0,0,1,1.69.27,3.52,3.52,0,0,1,1.26.92A4.22,4.22,0,0,1,9.9,25.82Zm12.2,0a4.22,4.22,0,0,1-3.24-.35,3.52,3.52,0,0,1,1.26-.92,4.76,4.76,0,0,1,1.69-.27L23,24.2c.49,0,1-.09,1.48-.16A4.25,4.25,0,0,1,22.1,25.82Zm4-4.73a4.33,4.33,0,0,1-3.2.62,3.59,3.59,0,0,1,.94-1.26,4.94,4.94,0,0,1,1.54-.76l1.06-.4,1.37-.59A4.28,4.28,0,0,1,26.14,21.09Z"/><path d="M14,18a1,1,0,0,0,0,2h4a1,1,0,0,0,0-2H17V12a1,1,0,0,0-.62-.92,1,1,0,0,0-1.09.21l-2,2a1,1,0,1,0,1.42,1.42l.29-.3V18Z"/></g></svg>