<svg fill="currentColor" xmlns="http://www.w3.org/2000/svg" viewBox="0 0 32 32"><g id="star"><path d="M29.31,15.51A2.32,2.32,0,0,0,28,11.57l-6.73-1a.33.33,0,0,1-.23-.17l-3-6.13a2.31,2.31,0,0,0-4.14,0l-3,6.13a.33.33,0,0,1-.23.17L4,11.57a2.32,2.32,0,0,0-1.28,3.94l4.87,4.77a.32.32,0,0,1,.09.28L6.5,27.3a2.31,2.31,0,0,0,3.35,2.43l6-3.18a.28.28,0,0,1,.28,0l6,3.18a2.3,2.3,0,0,0,1.08.27,2.34,2.34,0,0,0,1.35-.44,2.31,2.31,0,0,0,.92-2.26l-1.15-6.74a.32.32,0,0,1,.09-.28ZM22.38,20.9l1.15,6.73a.3.3,0,0,1-.13.31.28.28,0,0,1-.31,0l-6-3.18a2.26,2.26,0,0,0-2.14,0L8.91,28a.26.26,0,0,1-.31,0,.3.3,0,0,1-.13-.31L9.62,20.9a2.32,2.32,0,0,0-.66-2L4.1,14.08A.27.27,0,0,1,4,13.76a.28.28,0,0,1,.24-.21l6.73-1a2.3,2.3,0,0,0,1.73-1.27l3-6.13c.14-.28.4-.28.54,0l3,6.13A2.3,2.3,0,0,0,21,12.57l6.73,1a.28.28,0,0,1,.24.21.27.27,0,0,1-.08.32L23,18.85A2.32,2.32,0,0,0,22.38,20.9Z"/></g></svg>