<svg fill="currentColor" xmlns="http://www.w3.org/2000/svg" viewBox="0 0 32 32"><g id="star_2" data-name="star 2"><path d="M28.58,16.86a1,1,0,0,1,0-1.72,3,3,0,0,0,1.24-3.41,3.15,3.15,0,0,0-3.08-2.16,1.1,1.1,0,0,1-1-.47,1,1,0,0,1-.12-.92,2.94,2.94,0,0,0-1-3.44,3.16,3.16,0,0,0-3.81,0,1.18,1.18,0,0,1-1.08.17,1.08,1.08,0,0,1-.71-.7,3.15,3.15,0,0,0-6,0,1.08,1.08,0,0,1-.71.7,1.18,1.18,0,0,1-1.08-.17,3.16,3.16,0,0,0-3.81,0,2.92,2.92,0,0,0-1,3.44,1,1,0,0,1-.13.92,1.13,1.13,0,0,1-1,.47,3.1,3.1,0,0,0-3.08,2.16,3,3,0,0,0,1.24,3.41,1,1,0,0,1,0,1.72,3,3,0,0,0-1.24,3.41,3.13,3.13,0,0,0,3.08,2.16,1.1,1.1,0,0,1,1,.47,1,1,0,0,1,.12.92,2.94,2.94,0,0,0,1,3.44,3.15,3.15,0,0,0,3.81,0,1.18,1.18,0,0,1,1.08-.17,1.08,1.08,0,0,1,.71.7,3.15,3.15,0,0,0,6,0,1.08,1.08,0,0,1,.71-.7,1.18,1.18,0,0,1,1.08.17,3.16,3.16,0,0,0,3.81,0,2.92,2.92,0,0,0,1-3.44,1,1,0,0,1,.13-.92,1.09,1.09,0,0,1,1-.47,3.16,3.16,0,0,0,3.08-2.16A3,3,0,0,0,28.58,16.86Zm-1.1,1.67a1,1,0,0,1,.43,1.14,1.06,1.06,0,0,1-1.12.76,3.26,3.26,0,0,0-2.65,1.3,3,3,0,0,0-.38,2.78,1,1,0,0,1-.36,1.16,1.16,1.16,0,0,1-1.42,0,3.18,3.18,0,0,0-2.89-.46,3.1,3.1,0,0,0-2,2,1.16,1.16,0,0,1-2.18,0,3.14,3.14,0,0,0-3-2.18,3.15,3.15,0,0,0-1.89.62,1.16,1.16,0,0,1-1.42,0,1,1,0,0,1-.36-1.16,3,3,0,0,0-.38-2.78,3.23,3.23,0,0,0-2.65-1.3,1,1,0,0,1-1.12-.76,1,1,0,0,1,.43-1.14,3,3,0,0,0,0-5.06,1,1,0,0,1-.43-1.14,1,1,0,0,1,1.12-.76,3.23,3.23,0,0,0,2.65-1.3,3,3,0,0,0,.38-2.78A1,1,0,0,1,8.6,6.33a1.16,1.16,0,0,1,1.42,0,3.21,3.21,0,0,0,2.89.46,3.08,3.08,0,0,0,2-2,1.16,1.16,0,0,1,2.18,0,3.1,3.1,0,0,0,2,2A3.2,3.2,0,0,0,22,6.33a1.16,1.16,0,0,1,1.42,0,1,1,0,0,1,.36,1.16,3,3,0,0,0,.38,2.78,3.2,3.2,0,0,0,2.65,1.3,1.05,1.05,0,0,1,1.12.76,1,1,0,0,1-.43,1.14,3,3,0,0,0,0,5.06Z"/><path d="M22.08,13.68l-3.58-.52L16.9,9.91a1,1,0,0,0-1.8,0l-1.6,3.25-3.58.52a1,1,0,0,0-.56,1.7L12,17.91l-.62,3.57a1,1,0,0,0,.4,1,1,1,0,0,0,1,.07L16,20.85l3.21,1.68a.93.93,0,0,0,.46.12,1.06,1.06,0,0,0,.59-.19,1,1,0,0,0,.4-1L20,17.91l2.6-2.53a1,1,0,0,0-.56-1.7Zm-3.81,3.17a1,1,0,0,0-.29.88l.36,2.09-1.87-1a1.06,1.06,0,0,0-.94,0l-1.87,1L14,17.73a1,1,0,0,0-.29-.88l-1.52-1.49,2.1-.3a1,1,0,0,0,.75-.55l.94-1.9.94,1.9a1,1,0,0,0,.75.55l2.1.3Z"/></g></svg>