<svg fill="currentColor" xmlns="http://www.w3.org/2000/svg" viewBox="0 0 32 32"><g id="tribute"><path d="M23.71,2H8.29A3.3,3.3,0,0,0,5,5.29V26.71A3.3,3.3,0,0,0,8.29,30H23.71A3.3,3.3,0,0,0,27,26.71V5.29A3.3,3.3,0,0,0,23.71,2ZM25,26.71A1.29,1.29,0,0,1,23.71,28H8.29A1.29,1.29,0,0,1,7,26.71V5.29A1.29,1.29,0,0,1,8.29,4H23.71A1.29,1.29,0,0,1,25,5.29Z"/><path d="M12.7,12.47l-.31,1.88A1.42,1.42,0,0,0,13,15.74a1.4,1.4,0,0,0,1.47.09L16,15l1.56.86a1.45,1.45,0,0,0,.67.17,1.39,1.39,0,0,0,.8-.26,1.42,1.42,0,0,0,.58-1.39l-.31-1.88,1.29-1.32a1.39,1.39,0,0,0,.33-1.45,1.37,1.37,0,0,0-1.11-.95l-1.75-.27-.8-1.67a1.38,1.38,0,0,0-2.52,0l-.8,1.67-1.75.27a1.37,1.37,0,0,0-1.11.95,1.41,1.41,0,0,0,.33,1.46Zm1.86-2.06a1.4,1.4,0,0,0,1.06-.79l.38-.8.38.8a1.4,1.4,0,0,0,1.06.79l.94.15-.72.73a1.44,1.44,0,0,0-.38,1.22l.16,1-.77-.42a1.34,1.34,0,0,0-1.34,0l-.77.42.16-1a1.46,1.46,0,0,0-.39-1.24l-.71-.72Z"/><path d="M13,19a1,1,0,0,0,0,2h6a1,1,0,0,0,0-2Z"/><path d="M21,23H11a1,1,0,0,0,0,2H21a1,1,0,0,0,0-2Z"/></g></svg>