<?xml version="1.0" encoding="UTF-8"?><svg fill="currentColor" xmlns="http://www.w3.org/2000/svg" viewBox="0 0 24 24"><g id="r"><g><path d="M14.02,11.31c-.09-.13-.23-.23-.38-.28l-2.39-.74c-.23-.07-.47-.03-.66,.11-.19,.14-.31,.36-.31,.59l-.05,2.5c0,.16,.05,.32,.14,.45l4.39,6.08c.35,.49,.87,.81,1.46,.91,.12,.02,.24,.03,.37,.03,.47,0,.92-.15,1.31-.43,.49-.35,.81-.87,.91-1.47,.1-.59-.04-1.19-.4-1.68l-4.39-6.08Z"/><path d="M18,4.25H6c-2.07,0-3.75,1.68-3.75,3.75v6c0,2.07,1.68,3.75,3.75,3.75h5.27l-2.12-2.93c-.28-.39-.43-.88-.42-1.36l.05-2.5c.01-.71,.36-1.37,.93-1.78,.38-.28,.84-.43,1.32-.43,.23,0,.45,.03,.67,.1l2.39,.74c.46,.15,.87,.44,1.16,.83l4.39,6.08c.15,.21,.27,.42,.38,.65,1.05-.67,1.75-1.83,1.75-3.16v-6c0-2.07-1.68-3.75-3.75-3.75ZM6.75,13c0,.41-.34,.75-.75,.75s-.75-.34-.75-.75v-4c0-.41,.34-.75,.75-.75s.75,.34,.75,.75v4Z"/></g></g></svg>