<?xml version="1.0" encoding="UTF-8"?><svg fill="currentColor" xmlns="http://www.w3.org/2000/svg" viewBox="0 0 24 24"><g id="i"><g><path d="M12,2.25C6.62,2.25,2.25,6.62,2.25,12s4.37,9.75,9.75,9.75,9.75-4.37,9.75-9.75S17.38,2.25,12,2.25ZM6.75,12c0,.41-.34,.75-.75,.75s-.75-.34-.75-.75c0-3.72,3.03-6.75,6.75-6.75,.41,0,.75,.34,.75,.75s-.34,.75-.75,.75c-2.9,0-5.25,2.36-5.25,5.25Zm5.25,2.75c-1.52,0-2.75-1.23-2.75-2.75s1.23-2.75,2.75-2.75,2.75,1.23,2.75,2.75-1.23,2.75-2.75,2.75Zm4.5,2.28c-.14,.13-.32,.19-.5,.19-.21,0-.41-.08-.56-.25-.28-.31-.25-.78,.06-1.06,1.11-1,1.75-2.42,1.75-3.91,0-.41,.34-.75,.75-.75s.75,.34,.75,.75c0,1.92-.82,3.75-2.25,5.03Z"/><circle cx="12" cy="12" r="1.25"/></g></g></svg>