<?xml version="1.0" encoding="UTF-8"?><svg fill="currentColor" xmlns="http://www.w3.org/2000/svg" viewBox="0 0 24 24"><g id="f"><g><rect x="6.75" y="6.75" width="10.5" height="5.5" rx="1.25" ry="1.25"/><circle cx="8.5" cy="17.75" r=".75"/><circle cx="15.5" cy="17.75" r=".75"/><path d="M17,2.25H7c-2.62,0-4.75,2.13-4.75,4.75v10c0,2.62,2.13,4.75,4.75,4.75h10c2.62,0,4.75-2.13,4.75-4.75V7c0-2.62-2.13-4.75-4.75-4.75ZM8.5,20c-1.24,0-2.25-1.01-2.25-2.25s1.01-2.25,2.25-2.25,2.25,1.01,2.25,2.25-1.01,2.25-2.25,2.25Zm7,0c-1.24,0-2.25-1.01-2.25-2.25s1.01-2.25,2.25-2.25,2.25,1.01,2.25,2.25-1.01,2.25-2.25,2.25Zm3.25-9c0,1.52-1.23,2.75-2.75,2.75H8c-1.52,0-2.75-1.23-2.75-2.75v-3c0-1.52,1.23-2.75,2.75-2.75h8c1.52,0,2.75,1.23,2.75,2.75v3Z"/></g></g></svg>