<?xml version="1.0" encoding="UTF-8"?><svg fill="currentColor" xmlns="http://www.w3.org/2000/svg" viewBox="0 0 24 24"><g id="n"><g><path d="M19,9.25h-6c-2.07,0-3.75,1.68-3.75,3.75s1.68,3.75,3.75,3.75h6c1.52,0,2.75-1.23,2.75-2.75v-2c0-1.52-1.23-2.75-2.75-2.75Zm-5.98,4.5c-.41,0-.75-.34-.75-.75s.33-.75,.74-.75h0c.42,0,.75,.34,.75,.75s-.33,.75-.75,.75Z"/><path d="M14,4.75c.26,0,.51,.04,.75,.1v-.85c0-.96-.79-1.75-1.75-1.75h-4c-.96,0-1.75,.79-1.75,1.75v.85c.24-.06,.49-.1,.75-.1h6Z"/><path d="M7.75,13c0-2.9,2.35-5.25,5.25-5.25h2.72c-.12-.85-.85-1.5-1.72-1.5h-6c-.96,0-1.75,.79-1.75,1.75v10c0,2.07,1.68,3.75,3.75,3.75h2c1.98,0,3.59-1.55,3.72-3.5h-2.72c-2.9,0-5.25-2.35-5.25-5.25Z"/></g></g></svg>