<?xml version="1.0" encoding="UTF-8"?><svg fill="currentColor" xmlns="http://www.w3.org/2000/svg" viewBox="0 0 24 24"><g id="e"><path d="M16,2.25H8c-2.07,0-3.75,1.68-3.75,3.75v12c0,2.07,1.68,3.75,3.75,3.75h8c2.07,0,3.75-1.68,3.75-3.75V6c0-2.07-1.68-3.75-3.75-3.75Zm-7,14.5c-.16,0-.31-.05-.45-.15-.33-.25-.4-.72-.15-1.05l3-4c.25-.33,.72-.4,1.05-.15,.33,.25,.4,.72,.15,1.05l-3,4c-.15,.2-.37,.3-.6,.3Zm7.08-4.31c-.65,1.09-1.69,1.86-2.92,2.17-.06,.02-.12,.02-.18,.02-.34,0-.64-.23-.73-.57-.1-.4,.14-.81,.54-.91,.84-.21,1.55-.74,2-1.48,.45-.75,.57-1.62,.36-2.46-.44-1.74-2.21-2.8-3.95-2.36-.84,.21-1.55,.74-2,1.48-.45,.75-.57,1.62-.36,2.46,.13,.51,.37,.97,.71,1.36,.27,.31,.25,.78-.07,1.06-.31,.28-.78,.24-1.06-.06-.5-.56-.86-1.25-1.04-1.98-.31-1.23-.12-2.51,.53-3.6,.65-1.09,1.69-1.86,2.92-2.17,2.54-.64,5.13,.91,5.77,3.45,.31,1.23,.12,2.51-.53,3.6Z"/></g></svg>