<?xml version="1.0" encoding="UTF-8"?><svg fill="currentColor" xmlns="http://www.w3.org/2000/svg" viewBox="0 0 24 24"><g id="o"><path d="M18,9.25h-5.25v-.25c0-1.52-1.23-2.75-2.75-2.75h-1c-.69,0-1.25-.56-1.25-1.25,0-.41-.34-.75-.75-.75s-.75,.34-.75,.75c0,1.52,1.23,2.75,2.75,2.75h1c.69,0,1.25,.56,1.25,1.25v.25H6c-2.07,0-3.75,1.68-3.75,3.75v3c0,2.07,1.68,3.75,3.75,3.75h12c2.07,0,3.75-1.68,3.75-3.75v-3c0-2.07-1.68-3.75-3.75-3.75Zm-5,3h1c.41,0,.75,.34,.75,.75s-.34,.75-.75,.75h-1c-.41,0-.75-.34-.75-.75s.34-.75,.75-.75Zm-3,0h1c.41,0,.75,.34,.75,.75s-.34,.75-.75,.75h-1c-.41,0-.75-.34-.75-.75s.34-.75,.75-.75Zm-3,4.5h-1c-.41,0-.75-.34-.75-.75s.34-.75,.75-.75h1c.41,0,.75,.34,.75,.75s-.34,.75-.75,.75Zm0-3c-.41,0-.75-.34-.75-.75s.34-.75,.75-.75h1c.41,0,.75,.34,.75,.75s-.34,.75-.75,.75h-1Zm8,3h-6c-.41,0-.75-.34-.75-.75s.34-.75,.75-.75h6c.41,0,.75,.34,.75,.75s-.34,.75-.75,.75Zm.25-3.75c0-.41,.34-.75,.75-.75h1c.41,0,.75,.34,.75,.75s-.34,.75-.75,.75h-1c-.41,0-.75-.34-.75-.75Zm2.75,3.75h-1c-.41,0-.75-.34-.75-.75s.34-.75,.75-.75h1c.41,0,.75,.34,.75,.75s-.34,.75-.75,.75Z"/></g></svg>