<?xml version="1.0" encoding="UTF-8"?><svg fill="currentColor" xmlns="http://www.w3.org/2000/svg" viewBox="0 0 24 24"><g id="m"><g><rect x="8.75" y="6.75" width="6.5" height="3.5" rx=".25" ry=".25"/><circle cx="12" cy="16" r="1.25"/><path d="M17,2.25H7c-1.52,0-2.75,1.23-2.75,2.75v14c0,1.52,1.23,2.75,2.75,2.75h10c1.52,0,2.75-1.23,2.75-2.75V5c0-1.52-1.23-2.75-2.75-2.75Zm-5,16.5c-1.52,0-2.75-1.23-2.75-2.75s1.23-2.75,2.75-2.75,2.75,1.23,2.75,2.75-1.23,2.75-2.75,2.75Zm4.75-8.75c0,.96-.79,1.75-1.75,1.75h-6c-.96,0-1.75-.79-1.75-1.75v-3c0-.96,.79-1.75,1.75-1.75h6c.96,0,1.75,.79,1.75,1.75v3Z"/></g></g></svg>