<?xml version="1.0" encoding="UTF-8"?><svg fill="currentColor" xmlns="http://www.w3.org/2000/svg" viewBox="0 0 24 24"><g id="l"><g><path d="M8,6.75h8c.41,0,.75-.34,.75-.75v-2c0-.96-.79-1.75-1.75-1.75h-6c-.96,0-1.75,.79-1.75,1.75v2c0,.41,.34,.75,.75,.75Z"/><path d="M17,13.25H7c-.41,0-.75,.34-.75,.75s.34,.75,.75,.75h.25v4.25c0,.96,.79,1.75,1.75,1.75h6c.96,0,1.75-.79,1.75-1.75v-4.25h.25c.41,0,.75-.34,.75-.75s-.34-.75-.75-.75Z"/><path d="M18.2,6.46c-.22,1.02-1.12,1.79-2.2,1.79H8c-1.08,0-1.99-.77-2.2-1.79-1.48,.5-2.55,1.89-2.55,3.54v3c0,1.63,1.05,3,2.5,3.52v-.65c-.6-.4-1-1.09-1-1.87,0-1.24,1.01-2.25,2.25-2.25h10c1.24,0,2.25,1.01,2.25,2.25,0,.78-.4,1.47-1,1.87v.65c1.45-.52,2.5-1.89,2.5-3.52v-3c0-1.65-1.07-3.03-2.55-3.54Zm-1.18,4.29c-.41,0-.75-.34-.75-.75s.33-.75,.75-.75h0c.42,0,.75,.34,.75,.75s-.33,.75-.75,.75Z"/></g></g></svg>