<?xml version="1.0" encoding="UTF-8"?><svg fill="currentColor" xmlns="http://www.w3.org/2000/svg" viewBox="0 0 24 24"><g id="k"><g><circle cx="12" cy="11" r="1.25"/><path d="M17,6.25H7c-2.62,0-4.75,2.13-4.75,4.75s2.13,4.75,4.75,4.75h2.28s0,.06,0,.09c-.13,.6-.39,1.07-.64,1.41h-.63c-.41,0-.75,.34-.75,.75s.34,.75,.75,.75h8c.41,0,.75-.34,.75-.75s-.34-.75-.75-.75h-.63c-.24-.34-.5-.81-.63-1.41,0-.03,0-.06,0-.09h2.28c2.62,0,4.75-2.13,4.75-4.75s-2.13-4.75-4.75-4.75Zm-5,7.5c-1.52,0-2.75-1.23-2.75-2.75s1.23-2.75,2.75-2.75,2.75,1.23,2.75,2.75-1.23,2.75-2.75,2.75Zm5.02-3c-.41,0-.75-.34-.75-.75s.33-.75,.74-.75h.01c.41,0,.75,.34,.75,.75s-.34,.75-.75,.75Z"/></g></g></svg>