<?xml version="1.0" encoding="UTF-8"?><svg fill="currentColor" xmlns="http://www.w3.org/2000/svg" viewBox="0 0 24 24"><g id="c"><g><path d="M12,2.25c-4.27,0-7.75,3.48-7.75,7.75s3.48,7.75,7.75,7.75,7.75-3.48,7.75-7.75-3.48-7.75-7.75-7.75Zm2.62,8.17l-2,3c-.14,.22-.38,.33-.63,.33-.14,0-.29-.04-.42-.13-.34-.23-.44-.7-.21-1.04l1.22-1.83h-2.6c-.28,0-.53-.15-.66-.4-.13-.24-.12-.54,.04-.77l2-3c.23-.34,.69-.44,1.04-.21,.34,.23,.44,.7,.21,1.04l-1.22,1.83h2.6c.28,0,.53,.15,.66,.4,.13,.24,.12,.54-.04,.77Z"/><path d="M9.39,18.87c.29,.85,.98,1.51,1.86,1.76v.37c0,.41,.34,.75,.75,.75s.75-.34,.75-.75v-.37c.87-.25,1.57-.91,1.86-1.76-.83,.24-1.7,.38-2.61,.38s-1.78-.14-2.61-.38Z"/></g></g></svg>