<?xml version="1.0" encoding="UTF-8"?><svg fill="currentColor" xmlns="http://www.w3.org/2000/svg" viewBox="0 0 24 24"><g id="m"><g><path d="M16,7.25H8c-.96,0-1.75,.79-1.75,1.75v10c0,.96,.79,1.75,1.75,1.75h8c.96,0,1.75-.79,1.75-1.75V9c0-.96-.79-1.75-1.75-1.75Zm-4,9.5h-2c-.41,0-.75-.34-.75-.75s.34-.75,.75-.75h2c.41,0,.75,.34,.75,.75s-.34,.75-.75,.75Zm2-4h-4c-.41,0-.75-.34-.75-.75s.34-.75,.75-.75h4c.41,0,.75,.34,.75,.75s-.34,.75-.75,.75Z"/><path d="M19,4.25H5c-1.52,0-2.75,1.23-2.75,2.75v2c0,1.43,1.1,2.6,2.5,2.72v-2.72c0-1.79,1.46-3.25,3.25-3.25h8c1.79,0,3.25,1.46,3.25,3.25v2.72c1.4-.13,2.5-1.29,2.5-2.72v-2c0-1.52-1.23-2.75-2.75-2.75Z"/></g></g></svg>