<?xml version="1.0" encoding="UTF-8"?><svg fill="currentColor" xmlns="http://www.w3.org/2000/svg" viewBox="0 0 24 24"><g id="r"><g><path d="M19.9,10.77c-.12-1.41-1.32-2.52-2.74-2.52H8.75v-1.5h2.75c.69,0,1.25-.56,1.25-1.25V3.5c0-.69-.56-1.25-1.25-1.25H4.5c-.69,0-1.25,.56-1.25,1.25v2c0,.69,.56,1.25,1.25,1.25h2.75v1.5h-1.41c-1.42,0-2.62,1.11-2.74,2.52l-.54,6.48H20.44l-.54-6.48ZM7.02,15.75c-.41,0-.75-.34-.75-.75s.33-.75,.75-.75h0c.42,0,.75,.34,.75,.75s-.33,.75-.75,.75Zm0-3c-.41,0-.75-.34-.75-.75s.33-.75,.75-.75h0c.42,0,.75,.34,.75,.75s-.33,.75-.75,.75Zm3,3c-.41,0-.75-.34-.75-.75s.33-.75,.75-.75h0c.42,0,.75,.34,.75,.75s-.33,.75-.75,.75Zm0-3c-.41,0-.75-.34-.75-.75s.33-.75,.75-.75h0c.42,0,.75,.34,.75,.75s-.33,.75-.75,.75Zm3,3c-.41,0-.75-.34-.75-.75s.33-.75,.75-.75h0c.42,0,.75,.34,.75,.75s-.33,.75-.75,.75Zm0-3c-.41,0-.75-.34-.75-.75s.33-.75,.75-.75h0c.42,0,.75,.34,.75,.75s-.33,.75-.75,.75Zm3,3c-.41,0-.75-.34-.75-.75s.33-.75,.75-.75h0c.42,0,.75,.34,.75,.75s-.33,.75-.75,.75Zm0-3c-.41,0-.75-.34-.75-.75s.33-.75,.75-.75h0c.42,0,.75,.34,.75,.75s-.33,.75-.75,.75Z"/><path d="M20.56,18.75H2.44v.02c-.07,.76,.19,1.53,.71,2.09,.52,.56,1.26,.89,2.02,.89h12.65c.77,0,1.5-.32,2.02-.89,.52-.56,.78-1.33,.72-2.09v-.02Z"/></g></g></svg>