<?xml version="1.0" encoding="UTF-8"?><svg fill="currentColor" xmlns="http://www.w3.org/2000/svg" viewBox="0 0 24 24"><g id="l"><g><path d="M18.94,18.45c-.24-.72-.91-1.2-1.66-1.2H5.72c-.75,0-1.42,.48-1.66,1.2l-.77,2.32c-.08,.23-.04,.48,.1,.68s.37,.31,.61,.31h15c.24,0,.47-.12,.61-.31s.18-.45,.1-.68l-.77-2.32Z"/><path d="M18.5,2.25h-2c-.69,0-1.25,.56-1.25,1.25v1.75h-1.5v-1.75c0-.69-.56-1.25-1.25-1.25h-2c-.69,0-1.25,.56-1.25,1.25v1.75h-1.5v-1.75c0-.69-.56-1.25-1.25-1.25h-2c-.69,0-1.25,.56-1.25,1.25v4.5c0,1.52,1.23,2.75,2.75,2.75h.87c.1,0,.16,.05,.19,.08,.03,.03,.07,.1,.06,.2l-.59,4.72h9.95l-.59-4.72c-.01-.1,.03-.16,.06-.2,.03-.03,.09-.08,.19-.08h.87c1.52,0,2.75-1.23,2.75-2.75V3.5c0-.69-.56-1.25-1.25-1.25Z"/></g></g></svg>