<?xml version="1.0" encoding="UTF-8"?><svg fill="currentColor" xmlns="http://www.w3.org/2000/svg" viewBox="0 0 24 24"><g id="c"><g><path d="M21.7,16.72l-1.75-4.37c-.27-.67-.9-1.1-1.62-1.1h-4.32c-.31,0-.58,.19-.7,.47l-1.3,3.26-1.3-3.26c-.11-.29-.39-.47-.7-.47H5.68c-.72,0-1.36,.43-1.62,1.1l-1.75,4.37c-.09,.23-.06,.49,.08,.7,.14,.21,.37,.33,.62,.33H21c.25,0,.48-.12,.62-.33,.14-.21,.17-.47,.08-.7Z"/><path d="M12,11.01c.38-.77,1.14-1.26,2-1.26h2.41l-.96-2.4c-.27-.67-.9-1.1-1.62-1.1h-3.65c-.72,0-1.36,.43-1.62,1.1l-.96,2.4h2.41c.86,0,1.62,.5,2,1.26Z"/></g></g></svg>