<?xml version="1.0" encoding="UTF-8"?><svg fill="currentColor" xmlns="http://www.w3.org/2000/svg" viewBox="0 0 24 24"><g id="i"><g><path d="M21,18H6c-1.1,0-2-.9-2-2V4c0-.55-.45-1-1-1s-1,.45-1,1v12c0,2.21,1.79,4,4,4h15c.55,0,1-.45,1-1s-.45-1-1-1Z"/><path d="M7,16c.26,0,.51-.1,.71-.29l2.42-2.42,1.64,1.09c.79,.53,1.85,.42,2.52-.25l2.71-2.71v.59c0,.55,.45,1,1,1s1-.45,1-1v-3c0-.55-.45-1-1-1h-3c-.55,0-1,.45-1,1s.45,1,1,1h.59l-2.71,2.71-1.64-1.09c-.79-.53-1.85-.42-2.52,.25l-2.42,2.42c-.39,.39-.39,1.02,0,1.41,.2,.2,.45,.29,.71,.29Z"/></g></g></svg>