<?xml version="1.0" encoding="UTF-8"?><svg fill="currentColor" xmlns="http://www.w3.org/2000/svg" viewBox="0 0 24 24"><g id="u"><g><path d="M9,13.75h-2c-.41,0-.75-.34-.75-.75s.34-.75,.75-.75h4.74l2.5-2.5H7c-.41,0-.75-.34-.75-.75s.34-.75,.75-.75H15.74l.06-.06c.92-.92,2.17-1.45,3.41-1.45,.08,0,.16,.02,.24,.02-.45-.89-1.37-1.51-2.44-1.51H5c-1.52,0-2.75,1.23-2.75,2.75v6c0,1.52,1.23,2.75,2.75,2.75h4.86l.11-1.16c.06-.64,.27-1.27,.59-1.84h-1.55Z"/><path d="M21.03,8.97c-1.07-1.07-2.95-.94-4.17,.29l-.32,.32,3.89,3.89,.32-.32c1.23-1.23,1.36-3.1,.29-4.17Z"/><path d="M12.46,13.65c-.58,.58-.93,1.32-1,2.08l-.2,2.2c-.02,.22,.06,.44,.22,.6,.14,.14,.33,.22,.53,.22,.02,0,.05,0,.07,0l2.2-.2h0c.76-.07,1.5-.43,2.08-1l3.02-3.02-3.89-3.89-3.02,3.02Z"/></g></g></svg>