<?xml version="1.0" encoding="UTF-8"?><svg fill="currentColor" xmlns="http://www.w3.org/2000/svg" viewBox="0 0 24 24"><g id="h"><g><path d="M19,12.25h-7c-1.52,0-2.75,1.23-2.75,2.75v.25h12.5v-.25c0-1.52-1.23-2.75-2.75-2.75Z"/><path d="M9.25,19c0,1.52,1.23,2.75,2.75,2.75h7c1.52,0,2.75-1.23,2.75-2.75v-2.25H9.25v2.25Z"/><path d="M7.72,5.25h2.56c.11,0,.2-.07,.24-.17l.94-2.83H6.57l.92,2.84c.03,.1,.13,.16,.23,.16Z"/><path d="M12,10.75h3.75V5c0-1.51-1.22-2.73-2.72-2.75l-1.09,3.3c-.24,.72-.91,1.2-1.66,1.2h-2.56c-.75,0-1.42-.48-1.66-1.2l-1.07-3.3c-1.51,0-2.74,1.23-2.74,2.75v14c0,1.52,1.23,2.75,2.75,2.75h3.79c-.64-.74-1.04-1.7-1.04-2.75v-4c0-2.34,1.91-4.25,4.25-4.25Z"/></g></g></svg>