<?xml version="1.0" encoding="UTF-8"?><svg fill="currentColor" xmlns="http://www.w3.org/2000/svg" viewBox="0 0 24 24"><g id="p"><path d="M18,4.25H6c-2.07,0-3.75,1.68-3.75,3.75v8c0,2.07,1.68,3.75,3.75,3.75h12c2.07,0,3.75-1.68,3.75-3.75V8c0-2.07-1.68-3.75-3.75-3.75ZM7.5,11.25h1c1.24,0,2.25,1.01,2.25,2.25,0,1.16-.88,2.1-2,2.22v.28c0,.41-.34,.75-.75,.75s-.75-.34-.75-.75v-.25h-1.25c-.41,0-.75-.34-.75-.75s.34-.75,.75-.75h2.5c.41,0,.75-.34,.75-.75s-.34-.75-.75-.75h-1c-1.24,0-2.25-1.01-2.25-2.25,0-1.16,.88-2.1,2-2.22v-.28c0-.41,.34-.75,.75-.75s.75,.34,.75,.75v.25h1.25c.41,0,.75,.34,.75,.75s-.34,.75-.75,.75h-2.5c-.41,0-.75,.34-.75,.75s.34,.75,.75,.75Zm10.5,3.5h-2c-.41,0-.75-.34-.75-.75s.34-.75,.75-.75h2c.41,0,.75,.34,.75,.75s-.34,.75-.75,.75Zm0-4h-5c-.41,0-.75-.34-.75-.75s.34-.75,.75-.75h5c.41,0,.75,.34,.75,.75s-.34,.75-.75,.75Z"/></g></svg>