<?xml version="1.0" encoding="UTF-8"?><svg fill="currentColor" xmlns="http://www.w3.org/2000/svg" viewBox="0 0 24 24"><g id="s"><g><ellipse cx="15.5" cy="12" rx=".75" ry="2.25"/><path d="M19.54,4.94l-7.2-1.44c-.51-.1-1.05,.03-1.45,.36-.41,.33-.64,.83-.64,1.35v13.56c0,.53,.23,1.02,.64,1.35,.32,.26,.71,.4,1.11,.4,.11,0,.23-.01,.35-.03l6.91-1.38v.88c0,.41,.34,.75,.75,.75s.75-.34,.75-.75v-1.53c.61-.51,1-1.27,1-2.11V7.64c0-1.31-.93-2.44-2.21-2.7Zm-4.04,10.81c-1.28,0-2.25-1.61-2.25-3.75s.97-3.75,2.25-3.75,2.25,1.61,2.25,3.75-.97,3.75-2.25,3.75Z"/><path d="M2.25,7v10c0,.7,.41,1.29,1,1.57v1.43c0,.41,.34,.75,.75,.75s.75-.34,.75-.75v-1.25h4V5.25H4c-.96,0-1.75,.79-1.75,1.75Z"/></g></g></svg>