<?xml version="1.0" encoding="UTF-8"?><svg fill="currentColor" xmlns="http://www.w3.org/2000/svg" viewBox="0 0 24 24"><g id="t"><g><path d="M9.5,11.25c-.14,0-.25,.11-.25,.25,0,.28,.5,.28,.5,0,0-.14-.11-.25-.25-.25Z"/><path d="M18,4.25H6c-2.07,0-3.75,1.68-3.75,3.75v7c0,1.81,1.29,3.33,3,3.67v1.33c0,.41,.34,.75,.75,.75s.75-.34,.75-.75v-1.25h10.5v1.25c0,.41,.34,.75,.75,.75s.75-.34,.75-.75v-1.33c1.71-.35,3-1.86,3-3.67v-7c0-2.07-1.68-3.75-3.75-3.75ZM9.5,15.75c-2.34,0-4.25-1.91-4.25-4.25s1.91-4.25,4.25-4.25,4.25,1.91,4.25,4.25-1.91,4.25-4.25,4.25Zm6.75-.75v-7c0-.41,.34-.75,.75-.75s.75,.34,.75,.75v7c0,.41-.34,.75-.75,.75s-.75-.34-.75-.75Z"/><path d="M9.5,8.75c-1.52,0-2.75,1.23-2.75,2.75s1.23,2.75,2.75,2.75,2.75-1.23,2.75-2.75-1.23-2.75-2.75-2.75Zm0,4c-.69,0-1.25-.56-1.25-1.25s.56-1.25,1.25-1.25,1.25,.56,1.25,1.25-.56,1.25-1.25,1.25Z"/></g></g></svg>