<?xml version="1.0" encoding="UTF-8"?><svg fill="currentColor" xmlns="http://www.w3.org/2000/svg" viewBox="0 0 24 24"><g id="e"><path d="M20.53,9.78l-.77-.52c-.63-.42-1-1.12-1-1.87v-2.39c0-.22-.09-.42-.26-.57-.16-.14-.38-.21-.6-.18-1.23,.18-2.05,.83-2.42,1.21-.45,.45-.79,.98-1,1.59-.04,.12-.14,.19-.25,.19h-5.22c-2.62,0-4.75,2.13-4.75,4.75v.25h-.25c-.14,0-.25-.11-.25-.25v-1c0-.41-.34-.75-.75-.75s-.75,.34-.75,.75v1c0,.96,.79,1.75,1.75,1.75h.25v.5c0,1.76,1.31,3.22,3,3.46v.79c0,.69,.56,1.25,1.25,1.25h2c.69,0,1.25-.56,1.25-1.25v-.5c0-.14,.11-.25,.25-.25h2c.14,0,.25,.11,.25,.25v.5c0,.69,.56,1.25,1.25,1.25h2c.69,0,1.25-.56,1.25-1.25v-.73c0-.35,.14-.67,.37-.9,.1-.1,.21-.19,.34-.29,.24-.19,.51-.36,.79-.5,.93-.47,1.5-1.41,1.5-2.45v-1.58c0-.92-.46-1.78-1.22-2.29Zm-3.53,2.97h-1c-.41,0-.75-.34-.75-.75s.34-.75,.75-.75h1c.41,0,.75,.34,.75,.75s-.34,.75-.75,.75Z"/></g></svg>