<?xml version="1.0" encoding="UTF-8"?><svg fill="currentColor" xmlns="http://www.w3.org/2000/svg" viewBox="0 0 24 24"><g id="d"><g><path d="M9.73,17.35c.61,0,1.21-.24,1.67-.69,.92-.92,.92-2.41,0-3.33l-.57-.57s-.07-.11-.07-.18v-.84h3.25c.41,0,.75-.34,.75-.75v-2c0-.89-.43-1.73-1.16-2.25-.17-.12-.32-.24-.46-.34-.47-.36-.91-.69-1.82-1.1-.99-.44-1.89-1.35-2.65-2.69-.13-.23-.38-.38-.65-.38H3c-.41,0-.75,.34-.75,.75v7.68c0,1.7,.92,3.28,2.39,4.12l3.92,2.24c.36,.21,.77,.31,1.16,.31Z"/><path d="M19,10.25h-2.75v.75c0,1.24-1.01,2.25-2.25,2.25h-.83c.16,.32,.27,.66,.34,1h8.25v-1.25c0-1.52-1.23-2.75-2.75-2.75Z"/><path d="M12.46,17.72c-.73,.73-1.7,1.13-2.73,1.13-.67,0-1.33-.17-1.91-.51l-1.57-.9v.55c0,1.52,1.23,2.75,2.75,2.75h10c1.52,0,2.75-1.23,2.75-2.75v-2.25H13.5c-.14,.72-.48,1.42-1.04,1.97Z"/></g></g></svg>