<?xml version="1.0" encoding="UTF-8"?><svg fill="currentColor" xmlns="http://www.w3.org/2000/svg" viewBox="0 0 24 24"><g id="b"><g><path d="M11.11,19.95c-4.05-.45-7.11-3.87-7.11-7.95,0-4.41,3.59-8,8-8,3.38,0,6.42,2.14,7.55,5.33,.18,.52,.76,.79,1.28,.61,.52-.18,.79-.75,.61-1.28-1.41-3.99-5.2-6.67-9.43-6.67C6.49,2,2,6.49,2,12c0,5.11,3.82,9.38,8.89,9.94,.04,0,.08,0,.11,0,.5,0,.94-.38,.99-.89,.06-.55-.33-1.04-.88-1.1Z"/><path d="M12,6c-.55,0-1,.45-1,1v3.76c0,.38-.21,.72-.55,.89l-2.89,1.45c-.49,.25-.69,.85-.45,1.34,.18,.35,.53,.55,.9,.55,.15,0,.3-.03,.45-.11l2.89-1.45c1.02-.51,1.66-1.54,1.66-2.68v-3.76c0-.55-.45-1-1-1Z"/><ellipse cx="17.5" cy="13.99" rx="4.25" ry="2.75"/><path d="M13.25,16.9v2.09c0,1.54,1.87,2.75,4.25,2.75s4.25-1.21,4.25-2.75v-2.09c-1.04,.83-2.53,1.34-4.25,1.34s-3.21-.51-4.25-1.34Z"/></g></g></svg>