<?xml version="1.0" encoding="UTF-8"?><svg fill="currentColor" xmlns="http://www.w3.org/2000/svg" viewBox="0 0 24 24"><g id="n"><g><path d="M14,9.75c-.24,0-.48,.04-.7,.1,.59,.73,.95,1.64,.95,2.65s-.37,1.92-.95,2.65c.23,.06,.46,.1,.7,.1,1.52,0,2.75-1.23,2.75-2.75s-1.23-2.75-2.75-2.75Z"/><path d="M11.25,12.5c0,.73,.29,1.38,.75,1.88,.46-.49,.75-1.15,.75-1.88s-.29-1.38-.75-1.88c-.46,.49-.75,1.15-.75,1.88Z"/><path d="M10,9.75c-1.52,0-2.75,1.23-2.75,2.75s1.23,2.75,2.75,2.75c.24,0,.48-.04,.7-.1-.59-.73-.95-1.64-.95-2.65s.37-1.92,.95-2.65c-.23-.06-.46-.1-.7-.1Z"/><path d="M18,5.25H6c-2.07,0-3.75,1.68-3.75,3.75v7c0,2.07,1.68,3.75,3.75,3.75h12c2.07,0,3.75-1.68,3.75-3.75v-7c0-2.07-1.68-3.75-3.75-3.75Zm-4,11.5c-.73,0-1.4-.2-2-.52-.6,.32-1.27,.52-2,.52-2.34,0-4.25-1.91-4.25-4.25s1.91-4.25,4.25-4.25c.73,0,1.4,.2,2,.52,.6-.32,1.27-.52,2-.52,2.34,0,4.25,1.91,4.25,4.25s-1.91,4.25-4.25,4.25Z"/></g></g></svg>