<?xml version="1.0" encoding="UTF-8"?><svg fill="currentColor" xmlns="http://www.w3.org/2000/svg" viewBox="0 0 24 24"><g id="f"><g><path d="M20,14.25h-4.59c-.47,0-.91,.18-1.24,.51l-.41,.41s-.11,.07-.18,.07h-3.17c-.07,0-.13-.03-.18-.07l-.41-.41c-.33-.33-.77-.51-1.24-.51H4c-.96,0-1.75,.79-1.75,1.75v2c0,.96,.79,1.75,1.75,1.75H20c.96,0,1.75-.79,1.75-1.75v-2c0-.96-.79-1.75-1.75-1.75Z"/><rect x="13.25" y="6.25" width="8.5" height="6.5" rx="1.75" ry="1.75"/><path d="M8.59,12.75c.87,0,1.69,.34,2.3,.95l.05,.05h2.14l.05-.05s.03-.02,.04-.03c-.85-.59-1.41-1.56-1.41-2.67v-3c0-1.79,1.46-3.25,3.25-3.25h5c.16,0,.31,.02,.46,.05-.45-.91-1.38-1.55-2.46-1.55H6c-1.52,0-2.75,1.23-2.75,2.75v6.85c.24-.06,.49-.1,.75-.1h4.59Z"/></g></g></svg>