<?xml version="1.0" encoding="UTF-8"?><svg fill="currentColor" xmlns="http://www.w3.org/2000/svg" viewBox="0 0 24 24"><g id="k"><g><path d="M3.75,12C3.75,7.45,7.45,3.75,12,3.75c1.71,0,3.36,.54,4.73,1.5h-.73c-.41,0-.75,.34-.75,.75s.34,.75,.75,.75h3c.41,0,.75-.34,.75-.75V3c0-.41-.34-.75-.75-.75s-.75,.34-.75,.75v1.53c-1.74-1.46-3.95-2.28-6.25-2.28C6.62,2.25,2.25,6.62,2.25,12c0,.73,.08,1.46,.24,2.17,.08,.35,.39,.58,.73,.58,.05,0,.11,0,.17-.02,.4-.09,.66-.49,.57-.9-.14-.6-.2-1.21-.2-1.83Z"/><path d="M21.51,9.83c-.09-.4-.49-.66-.9-.57-.4,.09-.66,.49-.57,.9,.14,.6,.2,1.21,.2,1.83,0,4.55-3.7,8.25-8.25,8.25-1.71,0-3.36-.54-4.73-1.5h.73c.41,0,.75-.34,.75-.75s-.34-.75-.75-.75h-3c-.41,0-.75,.34-.75,.75v3c0,.41,.34,.75,.75,.75s.75-.34,.75-.75v-1.53c1.74,1.46,3.95,2.28,6.25,2.28,5.38,0,9.75-4.37,9.75-9.75,0-.73-.08-1.46-.24-2.17Z"/><path d="M9.5,12.75c1.24,0,2.25-1.01,2.25-2.25s-1.01-2.25-2.25-2.25h-1.5c-.41,0-.75,.34-.75,.75s.34,.75,.75,.75h1.5c.41,0,.75,.34,.75,.75s-.34,.75-.75,.75c-1.24,0-2.25,1.01-2.25,2.25s1.01,2.25,2.25,2.25h1.5c.41,0,.75-.34,.75-.75s-.34-.75-.75-.75h-1.5c-.41,0-.75-.34-.75-.75s.34-.75,.75-.75Z"/><path d="M16,15.75c.41,0,.75-.34,.75-.75v-6c0-.41-.34-.75-.75-.75s-.75,.34-.75,.75v2.25h-.75c-.41,0-.75-.34-.75-.75v-1.5c0-.41-.34-.75-.75-.75s-.75,.34-.75,.75v1.5c0,1.24,1.01,2.25,2.25,2.25h.75v2.25c0,.41,.34,.75,.75,.75Z"/></g></g></svg>