<?xml version="1.0" encoding="UTF-8"?><svg fill="currentColor" xmlns="http://www.w3.org/2000/svg" viewBox="0 0 24 24"><g id="s"><path d="M20.5,9.25h-.75v-3.25c0-1.52-1.23-2.75-2.75-2.75h-1.3c-.12-.57-.6-1-1.2-1h-5c-.6,0-1.08,.43-1.2,1h-1.3c-1.52,0-2.75,1.23-2.75,2.75v3.25h-.75c-.69,0-1.25,.56-1.25,1.25v2c0,.63,.48,1.13,1.08,1.22l.7,5.62c.17,1.37,1.34,2.41,2.73,2.41h10.47c1.38,0,2.56-1.04,2.73-2.41l.7-5.62c.61-.08,1.08-.59,1.08-1.22v-2c0-.69-.56-1.25-1.25-1.25Zm-1.66,7h-2.49l.31-2.5h2.49l-.31,2.5Zm-13.99-2.5h2.49l.31,2.5h-2.49l-.31-2.5Zm4,0h2.4v2.5h-2.09l-.31-2.5Zm2.4,4v2.5h-1.59l-.31-2.5h1.9Zm1.5,0h1.9l-.31,2.5h-1.59v-2.5Zm0-1.5v-2.5h2.4l-.31,2.5h-2.09ZM9.75,3.75h4.5v.5h-4.5v-.5Zm-4,2.25c0-.69,.56-1.25,1.25-1.25h1.3c.12,.57,.6,1,1.2,1h5c.6,0,1.08-.43,1.2-1h1.3c.69,0,1.25,.56,1.25,1.25v3.25H5.75v-3.25Zm-2,4.75H20.25v1.5H3.75v-1.5Zm1.78,8.4l-.18-1.4h2.49l.31,2.5h-1.38c-.63,0-1.16-.47-1.24-1.1Zm11.71,1.1h-1.38l.31-2.5h2.49l-.18,1.41c-.08,.62-.61,1.09-1.24,1.09Z"/></g></svg>