<?xml version="1.0" encoding="UTF-8"?><svg fill="currentColor" xmlns="http://www.w3.org/2000/svg" viewBox="0 0 24 24"><g id="f"><g><path d="M20.75,9.22c0-1.02-.21-2.01-.64-2.96l-.86-1.85c-.61-1.32-1.95-2.17-3.4-2.17h-7.7c-1.45,0-2.79,.85-3.4,2.17l-.87,1.86c-.42,.94-.64,1.93-.64,2.95v1.78c0,.11,.03,.21,.07,.31-.03,.23-.07,.45-.07,.69v5c0,2.62,2.13,4.75,4.75,4.75h8c2.62,0,4.75-2.13,4.75-4.75v-5c0-.24-.04-.46-.07-.69,.04-.09,.07-.2,.07-.31v-1.78Zm-2.86-4.17l.86,1.84c.24,.52,.39,1.07,.46,1.63-.85-.78-1.96-1.26-3.2-1.26h-3.25V3.75h3.1c.87,0,1.67,.51,2.04,1.3Zm-11.78,0c.37-.79,1.17-1.3,2.04-1.3h3.1v3.5h-3.25c-1.24,0-2.36,.49-3.2,1.26,.07-.56,.22-1.1,.45-1.62l.86-1.85Zm13.14,11.95c0,1.79-1.46,3.25-3.25,3.25H8c-1.79,0-3.25-1.46-3.25-3.25v-5c0-1.79,1.46-3.25,3.25-3.25h8c1.79,0,3.25,1.46,3.25,3.25v5Z"/><path d="M10,17.25h-3c-.41,0-.75,.34-.75,.75s.34,.75,.75,.75h3c.41,0,.75-.34,.75-.75s-.34-.75-.75-.75Z"/></g></g></svg>