<?xml version="1.0" encoding="UTF-8"?><svg fill="currentColor" xmlns="http://www.w3.org/2000/svg" viewBox="0 0 24 24"><g id="q"><g><path d="M20.02,9.54c-.3-.11-.53-.32-.65-.62-.12-.29-.11-.61,.02-.89,.48-1.01,.28-2.17-.51-2.96-.79-.79-1.95-.99-2.95-.51-.29,.14-.6,.14-.89,.02-.29-.12-.51-.35-.62-.65-.37-1.05-1.33-1.73-2.45-1.73h0c-1.11,0-2.08,.68-2.45,1.73h0c-.11,.3-.32,.53-.62,.65-.29,.12-.61,.11-.89-.02-1.01-.48-2.17-.28-2.96,.51-.79,.79-.99,1.95-.51,2.95,.13,.29,.14,.6,.02,.89-.12,.29-.35,.51-.65,.62-1.05,.37-1.73,1.33-1.73,2.45,0,1.11,.68,2.08,1.73,2.45,.3,.11,.53,.32,.65,.62,.12,.29,.11,.61-.02,.89-.48,1.01-.28,2.17,.51,2.96,.79,.79,1.95,.99,2.95,.51,.29-.14,.6-.14,.89-.02,.29,.12,.51,.35,.62,.65,.37,1.05,1.33,1.73,2.45,1.73h0c1.11,0,2.08-.68,2.45-1.73,.11-.3,.33-.53,.62-.65,.29-.12,.61-.11,.89,.02,1.01,.48,2.17,.28,2.96-.51,.79-.79,.99-1.95,.51-2.95-.14-.29-.14-.6-.02-.89,.12-.29,.35-.51,.65-.62,1.05-.37,1.73-1.33,1.73-2.45,0-1.11-.68-2.08-1.73-2.45Zm-.5,3.49c-.69,.25-1.25,.78-1.53,1.45-.28,.68-.26,1.45,.05,2.11,.25,.52,.05,.98-.22,1.25-.27,.27-.74,.46-1.25,.21-.66-.32-1.43-.34-2.11-.06-.68,.28-1.21,.84-1.46,1.53-.19,.54-.66,.73-1.04,.73-.38,0-.84-.19-1.04-.73-.25-.69-.78-1.25-1.46-1.53-.32-.13-.66-.2-1-.2-.38,0-.76,.08-1.11,.25-.52,.25-.98,.05-1.25-.22-.27-.27-.46-.73-.22-1.25,.32-.66,.34-1.43,.06-2.11-.28-.68-.84-1.21-1.53-1.46-.54-.19-.73-.66-.73-1.04,0-.38,.19-.84,.73-1.04,.69-.25,1.25-.78,1.53-1.45,.28-.68,.26-1.45-.05-2.11-.25-.52-.05-.98,.22-1.25,.26-.27,.73-.46,1.25-.22,.66,.31,1.43,.34,2.11,.05,.68-.28,1.21-.84,1.46-1.53,.19-.54,.66-.73,1.04-.73h0c.38,0,.84,.19,1.04,.73,.25,.69,.78,1.25,1.46,1.53,.68,.28,1.45,.26,2.11-.05,.52-.25,.99-.05,1.25,.22,.27,.27,.46,.73,.21,1.25-.32,.66-.33,1.43-.05,2.11,.28,.68,.84,1.21,1.53,1.45,.54,.19,.73,.66,.73,1.04,0,.38-.19,.84-.73,1.04Z"/><path d="M12.5,11.25h-1c-.41,0-.75-.34-.75-.75s.34-.75,.84-.75c.38,0,.76,.08,1.1,.24,.37,.17,.82,0,.99-.37,.17-.38,0-.82-.37-.99-.18-.08-.37-.13-.56-.18v-.44c0-.41-.34-.75-.75-.75s-.75,.34-.75,.75v.28c-1.12,.13-2,1.07-2,2.22,0,1.24,1.01,2.25,2.25,2.25h1c.41,0,.75,.34,.75,.75s-.34,.75-.84,.75c-.38,0-.76-.08-1.1-.24-.37-.17-.82,0-.99,.37s0,.82,.37,.99c.18,.08,.37,.13,.56,.18v.44c0,.41,.34,.75,.75,.75s.75-.34,.75-.75v-.28c1.12-.13,2-1.07,2-2.22,0-1.24-1.01-2.25-2.25-2.25Z"/></g></g></svg>