<?xml version="1.0" encoding="UTF-8"?><svg fill="currentColor" xmlns="http://www.w3.org/2000/svg" viewBox="0 0 24 24"><g id="g"><path d="M19.43,10.55c-.66-3.02-2.22-5.16-3.41-6.43-.5-.53-1.22-.7-1.89-.44-.67,.25-1.12,.89-1.14,1.61-.01,.48-.05,.98-.12,1.47-.21,1.55-.69,3.06-1.43,4.48-.06,.11-.16,.13-.22,.13-.05,0-.15-.01-.21-.12-.17-.31-.36-.64-.59-.97-.45-.65-.96-1.25-1.53-1.79-.44-.41-1.05-.57-1.63-.43-.57,.14-1.03,.55-1.22,1.11-.46,1.32-.72,2.69-.79,4.07-.03,.54-.02,1.09,.02,1.64,.26,3.84,3.36,6.85,7.13,6.86h.29c3.49-.11,6.4-2.77,6.91-6.32,.23-1.64,.17-3.28-.18-4.88Zm-1.31,4.66c-.41,2.83-2.71,4.95-5.47,5.03h-.32c-2.91,0-5.35-2.4-5.56-5.45-.03-.49-.04-.99-.02-1.47,.06-1.24,.3-2.47,.71-3.65,.03-.09,.11-.13,.16-.14,.01,0,.04,0,.07,0,.05,0,.12,.01,.18,.07,.49,.46,.94,.98,1.32,1.54,.19,.28,.36,.56,.51,.83,.31,.56,.87,.87,1.54,.9,.65,0,1.24-.37,1.54-.94,.82-1.57,1.35-3.25,1.58-4.97,.07-.54,.12-1.09,.13-1.63,0-.16,.11-.22,.17-.25,.1-.04,.19-.02,.26,.06,1.06,1.13,2.45,3.04,3.04,5.73,.31,1.42,.37,2.88,.16,4.34Z"/></g></svg>