<?xml version="1.0" encoding="UTF-8"?><svg fill="currentColor" xmlns="http://www.w3.org/2000/svg" viewBox="0 0 24 24"><g id="p"><path d="M19.44,9.67h0l-5.91-4.21c.14-.29,.22-.61,.22-.96,0-1.24-1.01-2.25-2.25-2.25s-2.25,1.01-2.25,2.25c0,.34,.08,.66,.22,.96L3.53,9.68c-.06,.04-.11,.08-.17,.12l-.04,.03s-.01,.01-.02,.02c-.64,.5-1.06,1.28-1.06,2.15v3c0,1.52,1.23,2.75,2.75,2.75h13c1.52,0,2.75-1.23,2.75-2.75v-3c0-.99-.53-1.85-1.31-2.33Zm-8.91-3.15c.3,.14,.63,.23,.98,.23s.68-.09,.98-.23c.03,.03,.05,.07,.09,.09l3.7,2.64H6.73l3.71-2.64s.06-.06,.09-.09Zm.98-2.77c.41,0,.75,.34,.75,.75s-.34,.75-.75,.75-.75-.34-.75-.75,.34-.75,.75-.75Zm7.75,11.25c0,.69-.56,1.25-1.25,1.25H5c-.69,0-1.25-.56-1.25-1.25v-3c0-.69,.56-1.25,1.25-1.25h13c.69,0,1.25,.56,1.25,1.25v3Z"/></g></svg>