<?xml version="1.0" encoding="UTF-8"?><svg fill="currentColor" xmlns="http://www.w3.org/2000/svg" viewBox="0 0 24 24"><g id="n"><g><path d="M20,16.25h-.25v-3.25c0-.41-.34-.75-.75-.75s-.75,.34-.75,.75v3.25h-3.54c-.66,0-1.27,.26-1.74,.72-.18,.18-.42,.28-.68,.28h-1.59c-.26,0-.5-.1-.68-.28-.46-.46-1.08-.72-1.74-.72h-3.54v-7.25c0-.69,.56-1.25,1.25-1.25h5c.41,0,.75-.34,.75-.75s-.34-.75-.75-.75H6c-1.52,0-2.75,1.23-2.75,2.75v7.25h-.25c-.41,0-.75,.34-.75,.75v2c0,.96,.79,1.75,1.75,1.75h15c.96,0,1.75-.79,1.75-1.75v-2c0-.41-.34-.75-.75-.75Zm-.75,2.75c0,.14-.11,.25-.25,.25H4c-.14,0-.25-.11-.25-.25v-1.25h4.54c.26,0,.5,.1,.68,.28,.46,.46,1.08,.72,1.74,.72h1.59c.66,0,1.27-.26,1.74-.72,.18-.18,.42-.28,.68-.28h4.54v1.25Z"/><path d="M21.59,5.54c-.14-.18-.36-.29-.59-.29h-.25v-1.25c0-.41-.34-.75-.75-.75s-.75,.34-.75,.75v1.25h-3.5v-1.25c0-.41-.34-.75-.75-.75s-.75,.34-.75,.75v1.25h-.25c-.23,0-.45,.11-.59,.29-.14,.18-.19,.42-.14,.64l.62,2.49c.31,1.23,1.4,2.08,2.67,2.08h1.88c1.26,0,2.36-.86,2.67-2.08l.62-2.48c.06-.22,0-.46-.14-.64Zm-1.94,2.76c-.14,.56-.64,.95-1.21,.95h-1.88c-.57,0-1.07-.39-1.21-.95l-.39-1.55h5.08l-.39,1.55Z"/></g></g></svg>