<?xml version="1.0" encoding="UTF-8"?><svg fill="currentColor" xmlns="http://www.w3.org/2000/svg" viewBox="0 0 24 24"><g id="d"><g><path d="M21.72,20.8l-3.77-13.63c-.31-1.13-1.36-1.92-2.55-1.92-.04,0-.07,.02-.11,.02-.07,0-.13-.02-.2-.02h-6.62c-1.04,0-1.97,.7-2.25,1.71l-3.01,10.83-.93,2.99c-.12,.4,.1,.82,.49,.94,.07,.02,.15,.03,.22,.03,.32,0,.62-.21,.72-.53l.77-2.47h7.94l-.46,1.84c-.1,.4,.14,.81,.55,.91,.06,.02,.12,.02,.18,.02,.34,0,.64-.23,.73-.57l.69-2.77c.03-.13,.02-.25-.01-.37l2.62-9.45,3.56,12.84c.09,.33,.39,.55,.72,.55,.07,0,.13,0,.2-.03,.4-.11,.63-.52,.52-.92ZM15.47,7.25l-2.78,10H4.92L7.67,7.36c.1-.36,.43-.61,.8-.61h6.62c.17,0,.27,.1,.32,.16,.04,.06,.11,.18,.07,.35Z"/><path d="M12,9.25h-3c-.41,0-.75,.34-.75,.75s.34,.75,.75,.75h3c.41,0,.75-.34,.75-.75s-.34-.75-.75-.75Z"/><path d="M12,12.25h-4c-.41,0-.75,.34-.75,.75s.34,.75,.75,.75h4c.41,0,.75-.34,.75-.75s-.34-.75-.75-.75Z"/></g></g></svg>