<?xml version="1.0" encoding="UTF-8"?><svg fill="currentColor" xmlns="http://www.w3.org/2000/svg" viewBox="0 0 24 24"><g id="e"><path d="M18.88,8.8c-.1-1.43-1.31-2.55-2.74-2.55h-.39v-.25c0-2.07-1.68-3.75-3.75-3.75s-3.75,1.68-3.75,3.75v.25h-.39c-1.44,0-2.64,1.12-2.74,2.55l-.56,7.86c-.09,1.31,.37,2.61,1.26,3.58,.9,.96,2.16,1.51,3.48,1.51h5.41c1.31,0,2.58-.55,3.48-1.51,.9-.96,1.35-2.26,1.26-3.58l-.56-7.86Zm-9.13-2.8c0-1.24,1.01-2.25,2.25-2.25s2.25,1.01,2.25,2.25v.25h-4.5v-.25Zm7.33,13.21c-.62,.67-1.47,1.04-2.38,1.04h-5.41c-.91,0-1.76-.37-2.38-1.04-.62-.67-.93-1.54-.86-2.45l.56-7.86c.05-.65,.59-1.16,1.25-1.16h.39v1.25c0,.41,.34,.75,.75,.75s.75-.34,.75-.75v-1.25h4.5v1.25c0,.41,.34,.75,.75,.75s.75-.34,.75-.75v-1.25h.39c.65,0,1.2,.51,1.25,1.16l.56,7.86c.06,.91-.24,1.78-.86,2.45Z"/></g></svg>