<?xml version="1.0" encoding="UTF-8"?><svg fill="currentColor" xmlns="http://www.w3.org/2000/svg" viewBox="0 0 24 24"><g id="t"><g><path d="M16,2.25H8c-2.62,0-4.75,2.13-4.75,4.75v12.38c0,.61,.31,1.17,.83,1.49,.52,.32,1.16,.35,1.7,.08l2.1-1.05c.07-.04,.15-.04,.22,0l3.11,1.55c.25,.12,.51,.18,.78,.18s.54-.06,.78-.18l3.1-1.55c.07-.04,.15-.04,.22,0l2.11,1.05c.55,.27,1.18,.24,1.7-.08,.52-.32,.83-.88,.83-1.49V7c0-2.62-2.13-4.75-4.75-4.75Zm3.25,17.13c0,.12-.07,.19-.12,.21-.04,.03-.14,.06-.24,.01l-2.11-1.05c-.49-.25-1.07-.24-1.56,0l-3.1,1.55c-.07,.04-.15,.04-.22,0l-3.11-1.55c-.24-.12-.51-.18-.78-.18s-.54,.06-.78,.18l-2.11,1.05c-.11,.05-.2,.02-.24-.01s-.12-.09-.12-.21V7c0-1.79,1.46-3.25,3.25-3.25h8c1.79,0,3.25,1.46,3.25,3.25v12.38Z"/><path d="M13,6.25h-5c-.41,0-.75,.34-.75,.75s.34,.75,.75,.75h5c.41,0,.75-.34,.75-.75s-.34-.75-.75-.75Z"/><path d="M16.02,6.25h-.01c-.41,0-.74,.34-.74,.75s.34,.75,.75,.75,.75-.34,.75-.75-.34-.75-.75-.75Z"/><path d="M13,10.25h-5c-.41,0-.75,.34-.75,.75s.34,.75,.75,.75h5c.41,0,.75-.34,.75-.75s-.34-.75-.75-.75Z"/><path d="M16.02,10.25h-.01c-.41,0-.74,.34-.74,.75s.34,.75,.75,.75,.75-.34,.75-.75-.34-.75-.75-.75Z"/><path d="M13,14.25h-5c-.41,0-.75,.34-.75,.75s.34,.75,.75,.75h5c.41,0,.75-.34,.75-.75s-.34-.75-.75-.75Z"/><path d="M16.02,14.25h-.01c-.41,0-.74,.34-.74,.75s.34,.75,.75,.75,.75-.34,.75-.75-.34-.75-.75-.75Z"/></g></g></svg>