<?xml version="1.0" encoding="UTF-8"?><svg fill="currentColor" xmlns="http://www.w3.org/2000/svg" viewBox="0 0 24 24"><g id="l"><g><path d="M20.92,3.42c-.54-.55-1.27-.86-2.05-.82l-4.55,.13c-.69,.02-1.35,.3-1.85,.78L2.79,12.96c-.73,.71-.77,1.86-.09,2.56l5.69,5.83c.33,.33,.76,.52,1.24,.52h.05c.47-.01,.92-.21,1.27-.54l9.68-9.45c.5-.48,.79-1.13,.83-1.83l.23-4.55c.04-.79-.23-1.52-.77-2.07Zm-.96,6.54c-.02,.31-.15,.61-.38,.83l-9.68,9.46c-.1,.1-.21,.12-.26,.12-.05,0-.12,0-.18-.06L3.78,14.47c-.1-.1-.07-.3,.06-.44L13.52,4.58c.23-.22,.52-.35,.84-.36l4.55-.13c.37,.01,.7,.12,.94,.37,.24,.25,.36,.58,.35,.95l-.23,4.55Z"/><path d="M16.5,5.25c-1.24,0-2.25,1.01-2.25,2.25s1.01,2.25,2.25,2.25,2.25-1.01,2.25-2.25-1.01-2.25-2.25-2.25Zm0,3c-.41,0-.75-.34-.75-.75s.34-.75,.75-.75,.75,.34,.75,.75-.34,.75-.75,.75Z"/></g></g></svg>