<?xml version="1.0" encoding="UTF-8"?><svg fill="currentColor" xmlns="http://www.w3.org/2000/svg" viewBox="0 0 24 24"><g id="u"><g><path d="M15,2.25h-6c-3.72,0-6.75,3.03-6.75,6.75v6c0,3.72,3.03,6.75,6.75,6.75h6c3.72,0,6.75-3.03,6.75-6.75v-6c0-3.72-3.03-6.75-6.75-6.75Zm5.25,12.75c0,2.9-2.35,5.25-5.25,5.25h-6c-2.9,0-5.25-2.35-5.25-5.25v-6c0-2.9,2.35-5.25,5.25-5.25h6c2.9,0,5.25,2.35,5.25,5.25v6Z"/><path d="M15,5.25c-.41,0-.75,.34-.75,.75,0,1.24-1.01,2.25-2.25,2.25s-2.25-1.01-2.25-2.25c0-.41-.34-.75-.75-.75s-.75,.34-.75,.75c0,2.07,1.68,3.75,3.75,3.75s3.75-1.68,3.75-3.75c0-.41-.34-.75-.75-.75Z"/></g></g></svg>