<?xml version="1.0" encoding="UTF-8"?><svg fill="currentColor" xmlns="http://www.w3.org/2000/svg" viewBox="0 0 24 24"><g id="c"><g><path d="M20.19,7.65c-.71-.89-1.78-1.4-2.92-1.4H6.99l-.04-.22c-.18-.99-.88-1.8-1.84-2.12l-1.88-.63c-.4-.13-.82,.08-.95,.47-.13,.39,.08,.82,.47,.95l1.88,.63c.43,.14,.75,.51,.83,.96l1.19,6.55c.41,2.26,2.38,3.9,4.67,3.9h4.45c2.24,0,4.15-1.53,4.64-3.72l.49-2.22c.25-1.12-.02-2.27-.74-3.16Zm-.73,2.83l-.49,2.22c-.33,1.5-1.64,2.54-3.17,2.54h-4.45c-1.57,0-2.92-1.12-3.2-2.67l-.88-4.83h10c.69,0,1.33,.31,1.75,.84,.43,.53,.59,1.23,.44,1.9Z"/><path d="M9.5,17.25c-1.24,0-2.25,1.01-2.25,2.25s1.01,2.25,2.25,2.25,2.25-1.01,2.25-2.25-1.01-2.25-2.25-2.25Zm0,3c-.41,0-.75-.34-.75-.75s.34-.75,.75-.75,.75,.34,.75,.75-.34,.75-.75,.75Z"/><path d="M17.5,17.25c-1.24,0-2.25,1.01-2.25,2.25s1.01,2.25,2.25,2.25,2.25-1.01,2.25-2.25-1.01-2.25-2.25-2.25Zm0,3c-.41,0-.75-.34-.75-.75s.34-.75,.75-.75,.75,.34,.75,.75-.34,.75-.75,.75Z"/></g></g></svg>