<?xml version="1.0" encoding="UTF-8"?><svg fill="currentColor" xmlns="http://www.w3.org/2000/svg" viewBox="0 0 24 24"><g id="o"><path d="M20.75,9.75h.25c.41,0,.75-.34,.75-.75v-2c0-.12-.03-.23-.08-.34l-1.17-2.34c-.64-1.28-1.92-2.07-3.35-2.07H6.85c-1.43,0-2.71,.79-3.35,2.07l-1.17,2.34c-.05,.1-.08,.22-.08,.34v2c0,.41,.34,.75,.75,.75h.25v10.5h-.25c-.41,0-.75,.34-.75,.75s.34,.75,.75,.75H21c.41,0,.75-.34,.75-.75s-.34-.75-.75-.75h-.25V9.75Zm-1.5,4.5H10.75v-4.5h8.5v4.5ZM3.75,7.18l1.09-2.18c.38-.77,1.15-1.24,2.01-1.24h10.29c.86,0,1.63,.48,2.01,1.24l1.09,2.18v1.07H3.75v-1.07Zm1,2.57h4.5v10.5H4.75V9.75Zm6,10.5v-4.5h8.5v4.5H10.75Z"/></g></svg>