<?xml version="1.0" encoding="UTF-8"?><svg fill="currentColor" xmlns="http://www.w3.org/2000/svg" viewBox="0 0 24 24"><g id="h"><g><path d="M19,3.25h-2.76c-.99,0-1.95,.4-2.65,1.1l-1.41,1.41c-.13,.13-.23,.13-.35,0l-1.41-1.41c-.7-.7-1.66-1.1-2.65-1.1h-2.76c-1.52,0-2.75,1.23-2.75,2.75v12c0,1.52,1.23,2.75,2.75,2.75H15c3.72,0,6.75-3.03,6.75-6.75V6c0-1.52-1.23-2.75-2.75-2.75Zm1.25,10.75c0,2.89-2.36,5.25-5.25,5.25H5c-.69,0-1.25-.56-1.25-1.25V6c0-.69,.56-1.25,1.25-1.25h2.76c.59,0,1.17,.24,1.59,.66l1.41,1.41c.66,.66,1.81,.66,2.47,0l1.41-1.41c.42-.42,1-.66,1.59-.66h2.76c.69,0,1.25,.56,1.25,1.25V14Z"/><path d="M15.42,8.52l-4.47,5.37-2.42-2.42c-.29-.29-.77-.29-1.06,0s-.29,.77,0,1.06l3,3c.14,.14,.33,.22,.53,.22,.01,0,.02,0,.03,0,.21,0,.41-.11,.54-.27l5-6c.27-.32,.22-.79-.1-1.06-.32-.27-.79-.22-1.06,.1Z"/></g></g></svg>