<?xml version="1.0" encoding="UTF-8"?><svg fill="currentColor" xmlns="http://www.w3.org/2000/svg" viewBox="0 0 24 24"><g id="l"><path d="M20.97,5.91l-2.44-2.44c-.07-.07-.16-.13-.26-.17-.04-.01-.08-.01-.11-.02-.05-.01-.1-.03-.15-.03H6c-.05,0-.1,.02-.15,.03-.04,0-.08,0-.11,.02-.1,.04-.19,.09-.26,.17l-2.44,2.44c-.58,.58-.68,1.47-.25,2.17l4.53,7.25c-.03,.22-.07,.44-.07,.68,0,2.62,2.13,4.75,4.75,4.75s4.75-2.13,4.75-4.75c0-.23-.04-.45-.07-.68l4.53-7.25c.43-.7,.33-1.59-.25-2.17Zm-8.97,5.34c-.19,0-.37,.03-.55,.06l-1.6-2.56h4.29l-1.6,2.56c-.18-.02-.36-.06-.55-.06Zm3.08-3.98s-.05-.02-.08-.02h-6s-.05,.01-.08,.02l-1.57-2.52h9.29l-1.57,2.52Zm-11.02,.01c-.06-.1-.05-.23,.04-.31l1.77-1.77,4.09,6.54c-.82,.4-1.51,1.02-1.99,1.79l-3.91-6.25Zm7.94,11.97c-1.79,0-3.25-1.46-3.25-3.25s1.46-3.25,3.25-3.25,3.25,1.46,3.25,3.25-1.46,3.25-3.25,3.25Zm7.94-11.97l-3.91,6.25c-.48-.77-1.16-1.4-1.99-1.79l4.09-6.54,1.77,1.77c.08,.08,.1,.21,.04,.31Z"/></g></svg>