<?xml version="1.0" encoding="UTF-8"?><svg fill="currentColor" xmlns="http://www.w3.org/2000/svg" viewBox="0 0 24 24"><g id="f"><g><path d="M12,7.75c1.52,0,2.75-1.23,2.75-2.75s-1.23-2.75-2.75-2.75-2.75,1.23-2.75,2.75,1.23,2.75,2.75,2.75Zm0-4c.69,0,1.25,.56,1.25,1.25s-.56,1.25-1.25,1.25-1.25-.56-1.25-1.25,.56-1.25,1.25-1.25Z"/><path d="M17.71,20.76l-.77-2.32c-.24-.72-.91-1.2-1.66-1.2h-.53v-2.5h.75c.69,0,1.25-.56,1.25-1.25v-3.5c0-.96-.79-1.75-1.75-1.75h-6c-.96,0-1.75,.79-1.75,1.75v3.5c0,.69,.56,1.25,1.25,1.25h.75v2.5h-.53c-.75,0-1.42,.48-1.66,1.2l-.77,2.32c-.08,.23-.04,.48,.1,.68s.37,.31,.61,.31h10c.24,0,.47-.12,.61-.31s.18-.45,.1-.68Zm-8.21-7.51h-.75v-3.25c0-.14,.11-.25,.25-.25h6c.14,0,.25,.11,.25,.25v3.25h-.75c-.69,0-1.25,.56-1.25,1.25v2.75h-2.5v-2.75c0-.69-.56-1.25-1.25-1.25Zm-1.46,7l.44-1.33c.03-.1,.13-.17,.24-.17h6.56c.11,0,.2,.07,.24,.17l.44,1.33h-7.92Z"/></g></g></svg>