<?xml version="1.0" encoding="UTF-8"?><svg fill="currentColor" xmlns="http://www.w3.org/2000/svg" viewBox="0 0 24 24"><g id="t"><g><path d="M15.56,9.71l-1.61-.23-.72-1.45c-.23-.48-.71-.77-1.24-.77s-1.01,.3-1.24,.77l-.72,1.45-1.61,.23c-.53,.08-.95,.44-1.12,.94s-.03,1.05,.35,1.42l1.16,1.13-.27,1.6c-.09,.52,.12,1.04,.55,1.35,.24,.18,.53,.27,.81,.27,.22,0,.44-.05,.65-.16l1.44-.75,1.44,.75c.47,.25,1.03,.21,1.46-.1s.64-.83,.55-1.35l-.27-1.6,1.16-1.13c.38-.37,.51-.91,.35-1.42s-.59-.87-1.12-.94Zm-1.49,2.46c-.33,.32-.48,.78-.4,1.23l.24,1.43-1.28-.67c-.2-.11-.42-.16-.64-.16s-.44,.05-.64,.16l-1.28,.67,.24-1.43c.08-.45-.07-.91-.4-1.22l-1.04-1.01,1.43-.21c.45-.06,.84-.35,1.04-.76l.64-1.3,.64,1.3c.2,.41,.59,.69,1.04,.76l1.43,.21-1.04,1.01Z"/><path d="M18.09,4.65l-5-2.17c-.69-.3-1.48-.3-2.17,0l-5,2.17c-1.01,.44-1.66,1.44-1.66,2.55v4.74c0,1.11,.23,4.94,3.25,7.65,1.08,.97,2.35,1.66,3.78,2.06,.23,.07,.48,.1,.72,.1s.48-.03,.72-.1c1.43-.4,2.71-1.1,3.78-2.06,3.02-2.71,3.25-6.54,3.25-7.65V7.2c0-1.11-.65-2.11-1.66-2.55Zm.16,7.29c0,.95-.19,4.23-2.75,6.53-.9,.81-1.98,1.4-3.19,1.73-.21,.06-.42,.06-.63,0-1.21-.34-2.28-.92-3.19-1.73-2.56-2.3-2.75-5.58-2.75-6.53V7.2c0-.51,.3-.97,.76-1.17l5-2.17h0c.15-.07,.32-.1,.49-.1s.33,.03,.49,.1l5,2.17c.46,.2,.76,.66,.76,1.17v4.74Z"/></g></g></svg>