<?xml version="1.0" encoding="UTF-8"?><svg fill="currentColor" xmlns="http://www.w3.org/2000/svg" viewBox="0 0 24 24"><g id="r"><g><path d="M20,2.25H4c-.41,0-.75,.34-.75,.75v2c0,.7,.41,1.29,1,1.57v10.43c0,.41,.34,.75,.75,.75s.75-.34,.75-.75v-.71l1.5,.86v1.85c0,.41,.34,.75,.75,.75s.75-.34,.75-.75v-.99l2.5,1.43v1.56c0,.41,.34,.75,.75,.75s.75-.34,.75-.75v-1.56l2.5-1.43v.99c0,.41,.34,.75,.75,.75s.75-.34,.75-.75v-1.85l1.5-.86v.71c0,.41,.34,.75,.75,.75s.75-.34,.75-.75V6.57c.59-.28,1-.88,1-1.57V3c0-.41-.34-.75-.75-.75ZM4.75,3.75h14.5v1.25c0,.14-.11,.25-.25,.25H5c-.14,0-.25-.11-.25-.25v-1.25Zm1,3h12.5v7.81l-6.25,3.57-6.25-3.57V6.75Z"/><path d="M12.12,14.15l1.2,.63c.11,.06,.23,.09,.35,.09,.16,0,.31-.05,.44-.14,.23-.17,.35-.45,.3-.73l-.23-1.33c-.01-.08,.01-.16,.07-.22l.97-.94c.2-.2,.28-.5,.19-.77-.09-.27-.32-.47-.6-.51l-1.34-.19c-.08-.01-.15-.06-.19-.14l-.6-1.21c-.25-.51-1.09-.51-1.35,0l-.6,1.21c-.04,.07-.11,.13-.19,.14l-1.34,.19c-.28,.04-.52,.24-.6,.51-.09,.27-.01,.57,.19,.77l.97,.94c.06,.06,.09,.14,.07,.22l-.23,1.33c-.05,.28,.07,.57,.3,.73,.23,.17,.54,.19,.79,.06l1.2-.63c.07-.04,.16-.04,.23,0Zm-.79-1.39c.04-.47-.11-.93-.42-1.28,.46-.11,.85-.39,1.09-.79,.24,.4,.64,.69,1.09,.79-.31,.35-.46,.82-.42,1.28-.43-.18-.92-.18-1.35,0Z"/></g></g></svg>