<?xml version="1.0" encoding="UTF-8"?><svg fill="currentColor" xmlns="http://www.w3.org/2000/svg" viewBox="0 0 24 24"><g id="s"><g><path d="M19,3.25H5c-1.52,0-2.75,1.23-2.75,2.75v7c0,1.52,1.23,2.75,2.75,2.75h1c.41,0,.75-.34,.75-.75s-.34-.75-.75-.75h-1c-.69,0-1.25-.56-1.25-1.25V6c0-.69,.56-1.25,1.25-1.25h14c.69,0,1.25,.56,1.25,1.25v7c0,.69-.56,1.25-1.25,1.25h-1c-.41,0-.75,.34-.75,.75s.34,.75,.75,.75h1c1.52,0,2.75-1.23,2.75-2.75V6c0-1.52-1.23-2.75-2.75-2.75Z"/><path d="M12,10.25c-2.07,0-3.75,1.68-3.75,3.75,0,.98,.38,1.86,1,2.53v4.47c0,.26,.13,.5,.36,.64,.22,.14,.5,.15,.73,.03l1.66-.83,1.67,.83c.11,.05,.22,.08,.33,.08,.14,0,.27-.04,.39-.11,.22-.14,.36-.38,.36-.64v-4.47c.62-.67,1-1.55,1-2.53,0-2.07-1.68-3.75-3.75-3.75Zm0,1.5c1.24,0,2.25,1.01,2.25,2.25s-1.01,2.25-2.25,2.25-2.25-1.01-2.25-2.25,1.01-2.25,2.25-2.25Zm.34,7.58c-.21-.11-.46-.11-.67,0l-.91,.46v-2.27c.39,.14,.81,.23,1.25,.23s.86-.09,1.25-.23v2.27l-.91-.46Z"/></g></g></svg>