<?xml version="1.0" encoding="UTF-8"?><svg fill="currentColor" xmlns="http://www.w3.org/2000/svg" viewBox="0 0 24 24"><g id="q"><g><path d="M16,17.25h-.14l1.89-14.15c.05-.36-.17-.7-.51-.81-.34-.11-.72,.03-.89,.35-.45,.82-1.28,1.95-2.69,2.7-2.84,1.5-5.77,.25-6.33-.01-.25-.12-.55-.09-.77,.08-.22,.17-.33,.45-.29,.72l1.85,11.13h-.11c-.96,0-1.75,.79-1.75,1.75v2c0,.41,.34,.75,.75,.75h10c.41,0,.75-.34,.75-.75v-2c0-.96-.79-1.75-1.75-1.75ZM7.95,7.16c1.48,.44,3.95,.8,6.4-.49,.6-.32,1.11-.69,1.55-1.08l-1.55,11.67h-4.71l-1.68-10.09Zm8.3,13.09H7.75v-1.25c0-.14,.11-.25,.25-.25h8c.14,0,.25,.11,.25,.25v1.25Z"/><path d="M13,9.25h-2c-.41,0-.75,.34-.75,.75s.34,.75,.75,.75h2c.41,0,.75-.34,.75-.75s-.34-.75-.75-.75Z"/></g></g></svg>