<?xml version="1.0" encoding="UTF-8"?><svg fill="currentColor" xmlns="http://www.w3.org/2000/svg" viewBox="0 0 24 24"><g id="c"><path d="M20.71,10.34c-.5-.43-1.19-.55-1.8-.31l-2.67,1.07-2.87-3.59c-.67-.84-2.07-.83-2.73,0l-2.87,3.59-2.67-1.07c-.61-.25-1.3-.13-1.8,.31-.5,.43-.71,1.1-.55,1.74l1.34,5.34c.2,.78,.89,1.33,1.7,1.33h12.44c.8,0,1.5-.54,1.7-1.33l1.34-5.34c.16-.64-.05-1.31-.55-1.74Zm-2.25,6.72c-.03,.11-.13,.19-.24,.19H5.78c-.12,0-.21-.08-.24-.19l-1.34-5.34c-.03-.13,.04-.21,.08-.25,.03-.03,.09-.06,.16-.06,.03,0,.06,0,.1,.02l3.18,1.27c.31,.12,.66,.03,.86-.23l3.22-4.02c.13-.16,.26-.16,.39,0l3.22,4.02c.21,.26,.56,.35,.86,.23l3.18-1.27c.12-.05,.21,0,.26,.04,.04,.04,.11,.12,.08,.25l-1.34,5.34Z"/></g></svg>