<?xml version="1.0" encoding="UTF-8"?><svg fill="currentColor" xmlns="http://www.w3.org/2000/svg" viewBox="0 0 24 24"><g id="n"><path d="M21.24,8.94l-2.31-3.85c-.31-.52-.89-.85-1.5-.85H6.57c-.61,0-1.19,.33-1.5,.85l-2.31,3.84c-.41,.69-.31,1.57,.26,2.14l7.74,7.74c.34,.34,.79,.51,1.24,.51s.9-.17,1.24-.51l7.74-7.74c.57-.57,.68-1.45,.26-2.14Zm-6.52,1.81l-2.72,6.35-2.72-6.35h5.44Zm-5.16-1.5l2.44-3.05,2.44,3.05h-4.88Zm4-3.5h3.3l-1.15,2.69-2.15-2.69Zm-5.27,2.69l-1.15-2.69h3.3l-2.15,2.69Zm-.64,2.31l2.13,4.97-4.97-4.97h2.84Zm8.7,0h2.84l-4.97,4.97,2.13-4.97Zm3.32-1.5h-2.68l1.12-2.61,1.56,2.61ZM5.89,6.64l1.12,2.61h-2.68l1.56-2.61Z"/></g></svg>