<?xml version="1.0" encoding="UTF-8"?><svg fill="currentColor" xmlns="http://www.w3.org/2000/svg" viewBox="0 0 24 24"><g id="k"><path d="M20.25,2.84c-.23-.37-.63-.59-1.06-.59h-4.87c-.49,0-.94,.29-1.14,.74l-1.11,2.49-1.27-2.54c-.21-.43-.64-.69-1.12-.69H4.81c-.44,0-.83,.22-1.06,.59s-.25,.83-.06,1.22l3.36,6.72c.3,.6,.9,.97,1.57,.97h2.63v1.07c-.18,.13-.34,.3-.45,.51l-.75,1.51-1.67,.24c-.51,.07-.92,.42-1.08,.91-.16,.49-.03,1.01,.34,1.37l1.21,1.18-.29,1.66c-.09,.5,.12,1,.53,1.31,.23,.17,.51,.25,.78,.25,.21,0,.43-.05,.62-.15l1.49-.78,1.49,.78c.45,.24,.99,.2,1.4-.1,.41-.3,.62-.8,.53-1.31l-.29-1.66,1.21-1.18c.37-.36,.5-.88,.34-1.37-.16-.49-.57-.83-1.08-.91l-1.67-.24-.75-1.51c-.1-.21-.26-.38-.45-.51v-1.07h2.63c.67,0,1.27-.37,1.57-.97l3.36-6.72c.19-.39,.17-.84-.06-1.22Zm-6.61,13.47l1.42,.21-1.03,1c-.31,.31-.46,.75-.38,1.18l.24,1.41-1.27-.67c-.19-.1-.41-.15-.62-.15s-.43,.05-.62,.15l-1.27,.67,.24-1.42c.07-.43-.07-.87-.38-1.18l-1.03-1,1.42-.21c.43-.06,.81-.33,1.01-.73l.63-1.29,.64,1.29c.2,.39,.57,.67,1,.73Zm-5.02-6.06c-.1,0-.18-.05-.22-.14L5.21,3.75h4.32l3.25,6.5h-4.17Zm6.99-.14c-.04,.08-.13,.14-.22,.14h-.92l-1.52-3.03,1.54-3.47h4.3l-3.18,6.36Z"/></g></svg>