<?xml version="1.0" encoding="UTF-8"?><svg fill="currentColor" xmlns="http://www.w3.org/2000/svg" viewBox="0 0 24 24"><g id="o"><path d="M16,2.25H8c-.96,0-1.75,.79-1.75,1.75v3.65c0,1.13,.68,2.13,1.73,2.55l3.27,1.31v.82c-2.26,.36-4,2.31-4,4.67,0,2.62,2.13,4.75,4.75,4.75s4.75-2.13,4.75-4.75c0-2.36-1.74-4.31-4-4.67v-.82l3.27-1.31c1.05-.42,1.73-1.42,1.73-2.55v-3.65c0-.96-.79-1.75-1.75-1.75Zm-4,7.94l-1.25-.5V3.75h2.5v5.94l-1.25,.5Zm-4.25-2.55v-3.65c0-.14,.11-.25,.25-.25h1.25v5.34l-.71-.29c-.48-.19-.79-.65-.79-1.16Zm7.5,9.35c0,1.79-1.46,3.25-3.25,3.25s-3.25-1.46-3.25-3.25,1.46-3.25,3.25-3.25,3.25,1.46,3.25,3.25Zm1-9.35c0,.51-.31,.97-.79,1.16l-.71,.29V3.75h1.25c.14,0,.25,.11,.25,.25v3.65Z"/></g></svg>