<?xml version="1.0" encoding="UTF-8"?><svg fill="currentColor" xmlns="http://www.w3.org/2000/svg" viewBox="0 0 24 24"><g id="g"><g><path d="M17.38,5.24l-4-2.31c-.85-.49-1.9-.49-2.75,0l-4,2.31c-.85,.49-1.38,1.4-1.38,2.38v4.62c0,.98,.53,1.89,1.38,2.38l.63,.36s0,.01,0,.02v5.5c0,.44,.22,.83,.59,1.06,.2,.13,.43,.19,.65,.19,.19,0,.38-.04,.56-.13l2.94-1.47,2.94,1.47c.39,.2,.85,.18,1.22-.05,.37-.23,.59-.63,.59-1.06v-5.5s0-.01,0-.02l.63-.36c.85-.49,1.38-1.4,1.38-2.38V7.62c0-.98-.53-1.89-1.38-2.38Zm-2.13,14.86l-2.92-1.46c-.21-.11-.46-.11-.67,0l-2.92,1.46v-4.25l1.88,1.08c.42,.25,.9,.37,1.38,.37s.95-.12,1.38-.37l1.88-1.08v4.25Zm2-7.86c0,.45-.24,.86-.63,1.08l-4,2.31c-.38,.22-.87,.22-1.25,0l-4-2.31c-.39-.22-.63-.64-.63-1.08V7.62c0-.45,.24-.86,.63-1.08l4-2.31c.19-.11,.41-.17,.63-.17s.43,.06,.63,.17l4,2.31c.39,.22,.63,.64,.63,1.08v4.62Z"/><path d="M15.11,8.44l-1.49-.22c-.12-.02-.22-.09-.27-.2l-.67-1.35c-.25-.51-1.09-.51-1.35,0l-.67,1.35c-.05,.11-.16,.18-.27,.2l-1.49,.22c-.28,.04-.52,.24-.61,.51-.09,.27-.01,.57,.19,.77l1.08,1.05c.09,.08,.13,.21,.11,.32l-.26,1.49c-.05,.28,.07,.57,.3,.73,.23,.17,.54,.19,.79,.06l1.34-.7c.11-.05,.23-.06,.34,0l1.34,.7c.11,.06,.23,.09,.35,.09,.16,0,.31-.05,.44-.14,.23-.17,.35-.45,.3-.73l-.26-1.49c-.02-.12,.02-.24,.11-.32l1.08-1.05c.2-.2,.28-.5,.19-.77-.09-.27-.32-.47-.61-.51Zm-2.25,2.9c-.27-.14-.56-.21-.86-.21s-.59,.07-.86,.21c.1-.6-.1-1.21-.53-1.63,.6-.09,1.12-.47,1.39-1.01,.27,.54,.79,.92,1.39,1.01-.43,.42-.63,1.03-.53,1.63Z"/></g></g></svg>