<?xml version="1.0" encoding="UTF-8"?><svg fill="currentColor" xmlns="http://www.w3.org/2000/svg" viewBox="0 0 24 24"><g id="d"><g><path d="M21.6,18.15l-3.68-4.91c.53-.96,.83-2.07,.83-3.24,0-3.72-3.03-6.75-6.75-6.75s-6.75,3.03-6.75,6.75c0,1.17,.3,2.28,.83,3.24l-3.68,4.91c-.18,.24-.2,.57-.05,.83,.15,.26,.45,.4,.75,.36l2.06-.29,.29,2.06c.04,.3,.26,.54,.56,.62,.06,.02,.12,.02,.19,.02,.23,0,.46-.11,.6-.3l3.66-4.88c.49,.12,1.01,.18,1.54,.18s1.04-.07,1.54-.18l3.66,4.88c.14,.19,.37,.3,.6,.3,.06,0,.12,0,.19-.02,.29-.08,.51-.32,.56-.62l.29-2.06,2.06,.29c.29,.04,.6-.1,.75-.36,.15-.26,.14-.59-.05-.83Zm-14.91,.95l-.14-1.01c-.06-.41-.43-.71-.85-.64l-1.01,.14,2.31-3.08c.56,.62,1.23,1.14,1.99,1.51l-2.3,3.07Zm.06-9.1c0-2.89,2.35-5.25,5.25-5.25s5.25,2.36,5.25,5.25-2.36,5.25-5.25,5.25-5.25-2.36-5.25-5.25Zm11.56,7.46c-.41-.07-.79,.23-.85,.64l-.14,1.01-2.3-3.07c.76-.38,1.43-.89,1.99-1.51l2.31,3.08-1.01-.14Z"/><path d="M12,6.25c-2.07,0-3.75,1.68-3.75,3.75s1.68,3.75,3.75,3.75,3.75-1.68,3.75-3.75-1.68-3.75-3.75-3.75Zm0,6c-1.24,0-2.25-1.01-2.25-2.25s1.01-2.25,2.25-2.25,2.25,1.01,2.25,2.25-1.01,2.25-2.25,2.25Z"/></g></g></svg>