<?xml version="1.0" encoding="UTF-8"?><svg fill="currentColor" xmlns="http://www.w3.org/2000/svg" viewBox="0 0 24 24"><g id="j"><path d="M21.18,11.37c.52-.51,.7-1.25,.48-1.94s-.81-1.19-1.53-1.29l-4.23-.62c-.13-.02-.24-.1-.3-.22l-1.89-3.84c-.32-.65-.97-1.06-1.7-1.06s-1.38,.41-1.7,1.06l-1.89,3.84c-.06,.12-.17,.2-.3,.22l-4.23,.62c-.72,.1-1.31,.6-1.53,1.29s-.04,1.44,.48,1.94l3.06,2.98c.09,.09,.14,.22,.11,.35l-.72,4.22c-.12,.72,.17,1.43,.75,1.85,.33,.24,.72,.36,1.11,.36,.3,0,.6-.07,.88-.22l3.79-1.99c.11-.06,.25-.06,.37,0l3.79,1.99c.64,.34,1.41,.29,2-.14,.59-.43,.88-1.14,.75-1.85l-.72-4.22c-.02-.13,.02-.26,.11-.35l3.06-2.99Zm-4.11,1.91c-.45,.44-.65,1.06-.54,1.68l.72,4.22c.04,.22-.1,.34-.16,.39-.06,.04-.22,.13-.42,.03l-3.79-1.99c-.55-.29-1.21-.29-1.76,0l-3.79,1.99c-.2,.1-.36,.01-.42-.03-.06-.04-.2-.17-.16-.39l.72-4.22c.11-.61-.1-1.24-.55-1.68l-3.06-2.99c-.16-.16-.12-.34-.1-.41s.1-.24,.32-.27l4.23-.62c.62-.09,1.15-.48,1.43-1.04l1.89-3.84c.1-.2,.28-.22,.35-.22s.26,.02,.35,.22h0l1.89,3.84c.28,.56,.81,.95,1.43,1.04l4.23,.62c.22,.03,.3,.2,.32,.27s.06,.25-.1,.41l-3.06,2.99Z"/></g></svg>