<?xml version="1.0" encoding="UTF-8"?><svg fill="currentColor" xmlns="http://www.w3.org/2000/svg" viewBox="0 0 24 24"><g id="i"><g><path d="M16,2.25H8c-2.07,0-3.75,1.68-3.75,3.75v12c0,2.07,1.68,3.75,3.75,3.75h8c2.07,0,3.75-1.68,3.75-3.75V6c0-2.07-1.68-3.75-3.75-3.75Zm2.25,15.75c0,1.24-1.01,2.25-2.25,2.25H8c-1.24,0-2.25-1.01-2.25-2.25V6c0-1.24,1.01-2.25,2.25-2.25h8c1.24,0,2.25,1.01,2.25,2.25v12Z"/><path d="M14.66,7.41l-1.05-.15-.47-.95c-.22-.44-.65-.71-1.14-.71s-.93,.27-1.14,.71l-.47,.95-1.05,.15c-.48,.07-.88,.4-1.03,.87-.15,.46-.03,.96,.32,1.31l.76,.74-.18,1.04c-.08,.48,.11,.96,.51,1.25,.22,.16,.48,.25,.75,.25,.2,0,.41-.05,.6-.15l.94-.49,.93,.49c.43,.23,.95,.19,1.34-.1,.4-.29,.59-.76,.51-1.25l-.18-1.04,.76-.74c.35-.34,.47-.84,.32-1.31-.15-.47-.54-.8-1.03-.87Zm-1.18,1.92c-.3,.29-.43,.71-.36,1.13l.12,.71-.64-.34c-.19-.1-.39-.14-.59-.14s-.41,.05-.59,.15l-.64,.33,.12-.71c.07-.41-.07-.83-.37-1.13l-.52-.5,.71-.1c.42-.06,.78-.32,.96-.7l.32-.65,.32,.64c.19,.38,.55,.64,.96,.7l.71,.1-.52,.51Z"/></g></g></svg>