<?xml version="1.0" encoding="UTF-8"?><svg fill="currentColor" xmlns="http://www.w3.org/2000/svg" viewBox="0 0 24 24"><g id="h"><g><path d="M17.6,6.54l-3.65-3.65c-1.07-1.07-2.82-1.07-3.89,0l-3.65,3.65c-.78,.78-1.02,1.94-.61,2.97l3.1,7.76c-.92,.05-1.65,.81-1.65,1.74v2c0,.41,.34,.75,.75,.75h8c.41,0,.75-.34,.75-.75v-2c0-.93-.73-1.68-1.65-1.74l3.1-7.76c.41-1.02,.17-2.19-.61-2.97Zm-2.35,12.46v1.25h-6.5v-1.25c0-.14,.11-.25,.25-.25h6c.14,0,.25,.11,.25,.25Zm1.56-10.05l-3.32,8.3h-2.98l-3.32-8.3c-.19-.46-.08-.99,.28-1.35l3.65-3.65c.49-.49,1.28-.49,1.77,0l3.65,3.65c.35,.35,.46,.88,.28,1.35Z"/><path d="M13,8.25h-2c-.41,0-.75,.34-.75,.75s.34,.75,.75,.75h2c.41,0,.75-.34,.75-.75s-.34-.75-.75-.75Z"/></g></g></svg>