<?xml version="1.0" encoding="UTF-8"?><svg fill="currentColor" xmlns="http://www.w3.org/2000/svg" viewBox="0 0 24 24"><g id="b"><path d="M17.2,6.03c-.15-.47-.55-.81-1.04-.88l-2.07-.3-.93-1.88c-.22-.44-.66-.72-1.16-.72s-.94,.28-1.16,.72l-.93,1.88-2.07,.3c-.49,.07-.89,.41-1.04,.88-.15,.47-.03,.98,.33,1.32l1.5,1.46-.35,2.06c-.08,.49,.11,.97,.51,1.26,.23,.16,.49,.25,.76,.25,.18,0,.35-.04,.52-.12l-.71,4.98h-.35c-.96,0-1.75,.79-1.75,1.75v2c0,.41,.34,.75,.75,.75h8c.41,0,.75-.34,.75-.75v-2c0-.96-.79-1.75-1.75-1.75h-.35l-.71-4.99c.42,.19,.9,.14,1.27-.13,.4-.29,.6-.77,.51-1.26l-.35-2.06,1.5-1.46c.35-.35,.48-.85,.33-1.32Zm-1.95,12.97v1.25h-6.5v-1.25c0-.14,.11-.25,.25-.25h6c.14,0,.25,.11,.25,.25Zm-4.39-1.75l.83-5.83,.3-.16,.3,.16,.83,5.83h-2.27Zm3.38-9.44c-.3,.29-.44,.72-.37,1.14l.3,1.75-1.57-.83c-.19-.1-.4-.15-.6-.15s-.41,.05-.6,.15l-1.57,.83,.3-1.76c.07-.42-.07-.84-.37-1.14l-1.27-1.24,1.76-.26c.42-.06,.78-.33,.97-.71l.79-1.59,.79,1.59c.19,.38,.55,.65,.97,.71l1.76,.26-1.27,1.24Z"/></g></svg>