<svg fill="currentColor" xmlns="http://www.w3.org/2000/svg" viewBox="0 0 32 32"><g id="center_alignment" data-name="center alignment"><path d="M22,11H10a1,1,0,0,0,0,2H22a1,1,0,0,0,0-2Z"/><path d="M20,15H12a1,1,0,0,0,0,2h8a1,1,0,0,0,0-2Z"/><path d="M18,19H14a1,1,0,0,0,0,2h4a1,1,0,0,0,0-2Z"/><path d="M23.43,2H8.57A3.57,3.57,0,0,0,5,5.57V26.43A3.57,3.57,0,0,0,8.57,30H23.43A3.57,3.57,0,0,0,27,26.43V5.57A3.57,3.57,0,0,0,23.43,2ZM25,26.43A1.58,1.58,0,0,1,23.43,28H8.57A1.58,1.58,0,0,1,7,26.43V5.57A1.58,1.58,0,0,1,8.57,4H23.43A1.58,1.58,0,0,1,25,5.57Z"/></g></svg>