<svg fill="currentColor" xmlns="http://www.w3.org/2000/svg" viewBox="0 0 32 32"><g id="line_spacing" data-name="line spacing"><path d="M29,11H12a1,1,0,0,0,0,2H29a1,1,0,0,0,0-2Z"/><path d="M26.17,15H12a1,1,0,0,0,0,2H26.17a1,1,0,0,0,0-2Z"/><path d="M23.33,19H12a1,1,0,0,0,0,2H23.33a1,1,0,0,0,0-2Z"/><path d="M8.29,9.71a1,1,0,0,0,1.42,0,1,1,0,0,0,0-1.42l-3-3a1,1,0,0,0-1.42,0l-3,3A1,1,0,0,0,3.71,9.71L5,8.41V23.59l-1.29-1.3a1,1,0,0,0-1.42,1.42l3,3a1,1,0,0,0,1.42,0l3-3a1,1,0,0,0-1.42-1.42L7,23.59V8.41Z"/></g></svg>