<svg fill="currentColor" xmlns="http://www.w3.org/2000/svg" viewBox="0 0 32 32"><g id="page_break" data-name="page break"><path d="M29,2a1,1,0,0,0-1,1v8.11a.89.89,0,0,1-.89.89H10.89a.89.89,0,0,1-.89-.89V3A1,1,0,0,0,8,3v8.11A2.9,2.9,0,0,0,10.89,14H27.11A2.9,2.9,0,0,0,30,11.11V3A1,1,0,0,0,29,2Z"/><path d="M27.11,18H10.89A2.9,2.9,0,0,0,8,20.89V29a1,1,0,0,0,2,0V20.89a.89.89,0,0,1,.89-.89H27.11a.89.89,0,0,1,.89.89V29a1,1,0,0,0,2,0V20.89A2.9,2.9,0,0,0,27.11,18Z"/><path d="M9,16a1,1,0,0,0-.49-.86l-5-3A1,1,0,0,0,2,13v6a1,1,0,0,0,.51.87A1,1,0,0,0,3,20a1,1,0,0,0,.51-.14l5-3A1,1,0,0,0,9,16ZM4,17.23V14.77L6.06,16Z"/><path d="M13,6H25a1,1,0,0,0,0-2H13a1,1,0,0,0,0,2Z"/><path d="M13,10H25a1,1,0,0,0,0-2H13a1,1,0,0,0,0,2Z"/><path d="M25,22H13a1,1,0,0,0,0,2H25a1,1,0,0,0,0-2Z"/><path d="M25,26H13a1,1,0,0,0,0,2H25a1,1,0,0,0,0-2Z"/></g></svg>