<svg fill="currentColor" xmlns="http://www.w3.org/2000/svg" viewBox="0 0 32 32"><g id="pen"><path d="M24.87,9.4a2.13,2.13,0,0,0-.62-1.51L21.61,5.25a2.14,2.14,0,0,0-3,0L3.13,20.71a1.06,1.06,0,0,0-.28.57l-.71,4.95a1,1,0,0,0,.28.85,1,1,0,0,0,.71.29h.14l5-.7a1.08,1.08,0,0,0,.57-.29L24.25,10.91A2.13,2.13,0,0,0,24.87,9.4ZM7.61,24.72l-3.3.47.47-3.3L17.27,9.4h0l2.83,2.83h0ZM22.83,9.5l-1.32,1.32h0L18.68,8h0L20,6.67a.13.13,0,0,1,.19,0l2.64,2.64A.14.14,0,0,1,22.83,9.5Z"/><path d="M28.87,25.37h-17a1,1,0,0,0,0,2h17a1,1,0,0,0,0-2Z"/></g></svg>