<svg fill="currentColor" xmlns="http://www.w3.org/2000/svg" viewBox="0 0 32 32"><g id="picture"><path d="M28,4.5H4a2,2,0,0,0-2,2v19a2,2,0,0,0,2,2H28a2,2,0,0,0,2-2v-19A2,2,0,0,0,28,4.5Zm0,2V20.09l-4.29-4.3a1,1,0,0,0-1.35-.06l-5.45,4.55-5.09-7.35a1,1,0,0,0-.76-.43,1,1,0,0,0-.81.34L4,19.86V6.5Zm-24,19v-2.6l6.9-7.76,7.19,10.37Zm24,0H20.52l-2.47-3.56,4.89-4.08L28,22.91v2.57Z"/><path d="M17.5,14.5A3.5,3.5,0,1,0,14,11,3.5,3.5,0,0,0,17.5,14.5Zm0-5A1.5,1.5,0,1,1,16,11,1.5,1.5,0,0,1,17.5,9.5Z"/></g></svg>