<svg fill="currentColor" xmlns="http://www.w3.org/2000/svg" viewBox="0 0 32 32"><g id="text_width_option" data-name="text width option"><path d="M10,12a1,1,0,0,0,1-1V10h4.05l0,7H13a1,1,0,0,0,0,2h6a1,1,0,0,0,0-2H17l0-7H21v1a1,1,0,0,0,2,0V9a1,1,0,0,0-1-1H10A1,1,0,0,0,9,9v2A1,1,0,0,0,10,12Z"/><path d="M21.71,20.29a1,1,0,0,0-1.42,1.42l.3.29H11.41l.3-.29a1,1,0,0,0-1.42-1.42l-2,2a1,1,0,0,0,0,1.42l2,2a1,1,0,0,0,1.42,0,1,1,0,0,0,0-1.42l-.3-.29h9.18l-.3.29a1,1,0,0,0,0,1.42,1,1,0,0,0,1.42,0l2-2a1,1,0,0,0,0-1.42Z"/><path d="M16,2A14,14,0,1,0,30,16,14,14,0,0,0,16,2Zm0,26A12,12,0,1,1,28,16,12,12,0,0,1,16,28Z"/></g></svg>