<svg fill="currentColor" xmlns="http://www.w3.org/2000/svg" viewBox="0 0 32 32"><g id="text_box" data-name="text box"><path d="M10,13a1,1,0,0,0,1-1V11h4.05L15,21H13a1,1,0,0,0,0,2h6a1,1,0,0,0,0-2H17l.05-10H21v1a1,1,0,0,0,2,0V10a1,1,0,0,0-1-1H10a1,1,0,0,0-1,1v2A1,1,0,0,0,10,13Z"/><path d="M28,24.18V7.82A3,3,0,1,0,24.18,4H8a1,1,0,0,0-.17,0A3,3,0,1,0,4,7.83,1,1,0,0,0,4,8V24.18A3,3,0,1,0,7.82,28H24.18A3,3,0,1,0,28,24.18ZM27,4a1,1,0,1,1-1,1A1,1,0,0,1,27,4ZM24.18,6A3,3,0,0,0,26,7.82V24.18A3,3,0,0,0,24.18,26H7.82A3,3,0,0,0,6,24.18V8a1,1,0,0,0,0-.17A3,3,0,0,0,7.83,6,1,1,0,0,0,8,6ZM5,4A1,1,0,1,1,4,5,1,1,0,0,1,5,4ZM5,28a1,1,0,1,1,1-1A1,1,0,0,1,5,28Zm22,0a1,1,0,1,1,1-1A1,1,0,0,1,27,28Z"/></g></svg>