<svg fill="currentColor" xmlns="http://www.w3.org/2000/svg" viewBox="0 0 32 32"><g id="uppercase"><path d="M12,8.78a1,1,0,0,0-1.94,0l-3,13A1,1,0,1,0,9,22.22L9.72,19h2.56L13,22.22A1,1,0,0,0,14,23l.23,0A1,1,0,0,0,15,21.78ZM10.18,17,11,13.45,11.82,17Z"/><path d="M25,21.78l-3-13a1,1,0,0,0-1.94,0l-3,13a1,1,0,1,0,1.94.44L19.72,19h2.56L23,22.22A1,1,0,0,0,24,23l.23,0A1,1,0,0,0,25,21.78ZM20.18,17,21,13.45,21.82,17Z"/><path d="M16,2A14,14,0,1,0,30,16,14,14,0,0,0,16,2Zm0,26A12,12,0,1,1,28,16,12,12,0,0,1,16,28Z"/></g></svg>