<svg fill="currentColor" xmlns="http://www.w3.org/2000/svg" viewBox="0 0 32 32"><g id="write"><path d="M27.64,11.29H25.08l1.22-1.22a2.37,2.37,0,0,0,0-3.36L24,4.41a2.37,2.37,0,0,0-3.36,0l-6.88,6.88H4.36A2.36,2.36,0,0,0,2,13.64V25.93a2.36,2.36,0,0,0,2.36,2.36H27.64A2.36,2.36,0,0,0,30,25.93V13.64A2.36,2.36,0,0,0,27.64,11.29ZM22.06,5.82a.39.39,0,0,1,.27-.11.38.38,0,0,1,.26.11l2.3,2.3a.37.37,0,0,1,.11.27.35.35,0,0,1-.11.26l-7.83,7.83a.66.66,0,0,1-.37.19l-3.08.44L14.05,14h0a.68.68,0,0,1,.18-.38ZM28,25.93a.36.36,0,0,1-.36.36H4.36A.36.36,0,0,1,4,25.93V13.64a.36.36,0,0,1,.36-.35h7.82a2.46,2.46,0,0,0-.11.45l-.63,4.4a1,1,0,0,0,.28.85,1,1,0,0,0,.71.3h.14l4.4-.63a2.67,2.67,0,0,0,1.51-.76l4.6-4.6h4.56a.36.36,0,0,1,.36.35Z"/></g></svg>