<?xml version="1.0" encoding="UTF-8"?><svg fill="currentColor" xmlns="http://www.w3.org/2000/svg" viewBox="0 0 24 24"><g id="t"><path d="M21.75,12c0-5.38-4.37-9.75-9.75-9.75h-.02c-5.37,.01-9.73,4.38-9.73,9.75s4.37,9.75,9.75,9.75h0c5.38,0,9.75-4.37,9.75-9.75Zm-18,0c0-.78,.12-1.53,.32-2.25h2.47c-.28,1.26-.29,2.15-.29,2.25,0,.8,.09,1.55,.23,2.25h-2.41c-.2-.72-.32-1.47-.32-2.25Zm4,0c0-.09,.01-1,.32-2.25h3.18v4.5h-3.21c-.17-.7-.29-1.44-.29-2.25Zm7.72-3.75h-2.72v-3.72c.85,.76,1.98,2.01,2.72,3.72Zm-4.22-3.78v3.78h-2.69c.51-1.26,1.33-2.63,2.69-3.78Zm0,11.28v3.72c-.85-.76-1.98-2.01-2.72-3.72h2.72Zm1.5,3.76v-3.76h2.69c-.51,1.25-1.34,2.61-2.69,3.76Zm0-5.26v-4.5h3.22c.17,.69,.28,1.44,.28,2.25,0,.09-.01,1.01-.32,2.25h-3.18Zm4.77-4.5h2.41c.2,.72,.32,1.47,.32,2.25s-.12,1.53-.32,2.25h-2.47c.28-1.26,.29-2.15,.29-2.25,0-.8-.09-1.55-.23-2.25Zm1.82-1.5h-2.26c-.65-1.77-1.67-3.14-2.6-4.12,2.12,.67,3.86,2.17,4.86,4.12ZM9.42,4.17c-1.23,1.31-1.99,2.77-2.45,4.08h-2.31c.98-1.91,2.69-3.39,4.75-4.08ZM4.66,15.75h2.26c.65,1.77,1.67,3.14,2.6,4.12-2.12-.67-3.86-2.17-4.86-4.12Zm9.92,4.08c1.23-1.31,1.99-2.77,2.45-4.08h2.31c-.98,1.91-2.69,3.39-4.75,4.08Z"/></g></svg>