<?xml version="1.0" encoding="UTF-8"?><svg fill="currentColor" xmlns="http://www.w3.org/2000/svg" viewBox="0 0 24 24"><g id="h"><path d="M21,12.25h-3.25v-2.25c0-.51-.07-1-.2-1.47l2.86-1.91c.34-.23,.44-.7,.21-1.04-.23-.34-.69-.44-1.04-.21l-2.62,1.74c-.48-.83-1.17-1.53-2-2.03l1.56-1.56c.29-.29,.29-.77,0-1.06s-.77-.29-1.06,0l-1.98,1.98c-.48-.13-.97-.2-1.49-.2s-1.01,.07-1.49,.2l-1.98-1.98c-.29-.29-.77-.29-1.06,0s-.29,.77,0,1.06l1.56,1.56c-.82,.5-1.51,1.2-2,2.03l-2.62-1.74c-.34-.23-.81-.14-1.04,.21s-.14,.81,.21,1.04l2.86,1.91c-.12,.47-.2,.96-.2,1.47v2.25H3c-.41,0-.75,.34-.75,.75s.34,.75,.75,.75h3.25v.25c0,1.57,.63,2.99,1.66,4.03l-2.44,2.44c-.29,.29-.29,.77,0,1.06,.15,.15,.34,.22,.53,.22s.38-.07,.53-.22l2.57-2.57c.85,.5,1.84,.79,2.9,.79s2.05-.29,2.9-.79l2.57,2.57c.15,.15,.34,.22,.53,.22s.38-.07,.53-.22c.29-.29,.29-.77,0-1.06l-2.44-2.44c1.02-1.04,1.66-2.46,1.66-4.03v-.25h3.25c.41,0,.75-.34,.75-.75s-.34-.75-.75-.75ZM12,5.75c2.09,0,3.82,1.51,4.17,3.5H7.83c.36-1.99,2.09-3.5,4.17-3.5Zm-4.25,5h3.5v7.42c-1.99-.36-3.5-2.09-3.5-4.17v-3.25Zm8.5,3.25c0,2.09-1.51,3.82-3.5,4.17v-7.42h3.5v3.25Z"/></g></svg>