<?xml version="1.0" encoding="UTF-8"?><svg fill="currentColor" xmlns="http://www.w3.org/2000/svg" viewBox="0 0 24 24"><g id="o"><g><path d="M17,3.25H7c-2.62,0-4.75,2.13-4.75,4.75v8c0,2.62,2.13,4.75,4.75,4.75h10c2.62,0,4.75-2.13,4.75-4.75V8c0-2.62-2.13-4.75-4.75-4.75Zm-10,1.5h10c1.53,0,2.81,1.07,3.15,2.5H3.85c.34-1.43,1.62-2.5,3.15-2.5Zm10,14.5H7c-1.79,0-3.25-1.46-3.25-3.25v-7.25H20.25v7.25c0,1.79-1.46,3.25-3.25,3.25Z"/><path d="M18,13.25h-5.37c-.33-1.15-1.38-2-2.63-2s-2.3,.85-2.63,2h-1.37c-.41,0-.75,.34-.75,.75s.34,.75,.75,.75h1.37c.33,1.15,1.38,2,2.63,2s2.3-.85,2.63-2h5.37c.41,0,.75-.34,.75-.75s-.34-.75-.75-.75Zm-8,2c-.69,0-1.25-.56-1.25-1.25s.56-1.25,1.25-1.25,1.25,.56,1.25,1.25-.56,1.25-1.25,1.25Z"/></g></g></svg>