<?xml version="1.0" encoding="UTF-8"?><svg fill="currentColor" xmlns="http://www.w3.org/2000/svg" viewBox="0 0 24 24"><g id="l"><path d="M21.18,8.73s0-.03-.01-.04c-.95-2.64-3.03-4.85-5.87-5.87-2.45-.88-5.1-.75-7.45,.36-1.01,.48-1.91,1.12-2.69,1.89-.02,.02-.04,.04-.06,.06-1,1-1.78,2.21-2.27,3.58-1.82,5.06,.82,10.65,5.88,12.47,1.08,.39,2.19,.58,3.3,.58,1.42,0,2.83-.31,4.15-.94,2.36-1.11,4.14-3.07,5.02-5.52,.79-2.21,.74-4.51,0-6.56ZM8.48,4.54c1.12-.53,2.31-.79,3.51-.79,.94,0,1.88,.16,2.79,.49,2.05,.74,3.62,2.21,4.54,4.01h-7.33s-.03,.01-.05,.01c-1.35,.02-2.61,.77-3.26,2l-2.11-4.48c.57-.49,1.2-.91,1.9-1.24Zm4.28,5.35c.57,.2,1.02,.61,1.27,1.16,.26,.54,.29,1.15,.08,1.72-.42,1.17-1.71,1.78-2.88,1.36-.57-.2-1.02-.61-1.27-1.16h0c-.26-.55-.28-1.16-.08-1.72,.33-.92,1.19-1.49,2.11-1.49h.03c.24,0,.49,.04,.74,.13Zm-8.52-.67c.3-.83,.72-1.58,1.24-2.26l3.13,6.64h0c.43,.91,1.18,1.6,2.12,1.94,.42,.15,.84,.22,1.26,.22,.38,0,.75-.06,1.11-.17l-1.67,4.65c-.75-.05-1.5-.2-2.22-.46-4.28-1.54-6.51-6.27-4.97-10.55Zm15.53,5.58c-.75,2.07-2.25,3.73-4.25,4.67-.79,.37-1.63,.61-2.47,.72l2.48-6.91h0c.34-.94,.29-1.96-.14-2.87-.11-.23-.24-.45-.39-.65h4.93c.46,1.6,.44,3.35-.16,5.04Z"/></g></svg>