<?xml version="1.0" encoding="UTF-8"?><svg fill="currentColor" xmlns="http://www.w3.org/2000/svg" viewBox="0 0 24 24"><g id="s"><g><path d="M17.19,9.4c-.9-2.59-3.51-4.34-6.3-4.13-3,.22-5.41,2.66-5.65,5.58-1.33,.28-2.42,1.22-2.82,2.49-.04,.14-.08,.27-.1,.41-.18,.95,.07,1.89,.71,2.66,.69,.84,1.77,1.34,2.87,1.34h12.03c1.01,0,1.96-.4,2.62-1.09,.85-.89,1.29-2.04,1.22-3.14-.14-2.18-2.13-3.93-4.55-4.12Zm2.25,6.23c-.37,.39-.93,.62-1.53,.62H5.88c-.66,0-1.3-.3-1.71-.79-.35-.42-.48-.92-.39-1.42,.02-.08,.04-.16,.06-.24,.29-.89,1.15-1.51,2.15-1.54,.41-.01,.74-.36,.72-.77-.08-2.42,1.84-4.54,4.28-4.72,.11,0,.23-.01,.34-.01,2.13,0,4.06,1.48,4.56,3.56,.08,.34,.4,.61,.75,.57,2.01-.05,3.51,1.37,3.6,2.73,.04,.69-.25,1.42-.81,2.02Z"/><path d="M13.47,11.47l-.72,.72v-2.19c0-.41-.34-.75-.75-.75s-.75,.34-.75,.75v2.19l-.72-.72c-.29-.29-.77-.29-1.06,0s-.29,.77,0,1.06l2,2c.07,.07,.15,.12,.24,.16,.09,.04,.19,.06,.29,.06s.19-.02,.29-.06c.09-.04,.17-.09,.24-.16l2-2c.29-.29,.29-.77,0-1.06s-.77-.29-1.06,0Z"/></g></g></svg>