<?xml version="1.0" encoding="UTF-8"?><svg fill="currentColor" xmlns="http://www.w3.org/2000/svg" viewBox="0 0 24 24"><g id="i"><g><path d="M17,2.25H7c-2.62,0-4.75,2.13-4.75,4.75v10c0,2.62,2.13,4.75,4.75,4.75h10c2.62,0,4.75-2.13,4.75-4.75V7c0-2.62-2.13-4.75-4.75-4.75Zm-7.25,6.5h4.5v1.25c0,.14-.11,.25-.25,.25h-4c-.14,0-.25-.11-.25-.25v-1.25Zm4.5-1.5h-4.5V3.75h4.5v3.5Zm6,9.75c0,1.79-1.46,3.25-3.25,3.25H7c-1.79,0-3.25-1.46-3.25-3.25V7c0-1.79,1.46-3.25,3.25-3.25h1.25v6.25c0,.96,.79,1.75,1.75,1.75h4c.96,0,1.75-.79,1.75-1.75V3.75h1.25c1.79,0,3.25,1.46,3.25,3.25v10Z"/><path d="M10,17.25h-3c-.41,0-.75,.34-.75,.75s.34,.75,.75,.75h3c.41,0,.75-.34,.75-.75s-.34-.75-.75-.75Z"/></g></g></svg>