<?xml version="1.0" encoding="UTF-8"?><svg fill="currentColor" xmlns="http://www.w3.org/2000/svg" viewBox="0 0 24 24"><g id="u"><g><path d="M17,3.25H7c-2.62,0-4.75,2.13-4.75,4.75v8c0,2.62,2.13,4.75,4.75,4.75h10c2.62,0,4.75-2.13,4.75-4.75V8c0-2.62-2.13-4.75-4.75-4.75Zm-10,1.5h10c1.53,0,2.81,1.07,3.15,2.5H3.85c.34-1.43,1.62-2.5,3.15-2.5Zm10,14.5H7c-1.79,0-3.25-1.46-3.25-3.25v-7.25H20.25v7.25c0,1.79-1.46,3.25-3.25,3.25Z"/><path d="M9.53,11.47c-.29-.29-.77-.29-1.06,0l-2,2c-.29,.29-.29,.77,0,1.06l2,2c.15,.15,.34,.22,.53,.22s.38-.07,.53-.22c.29-.29,.29-.77,0-1.06l-1.47-1.47,1.47-1.47c.29-.29,.29-.77,0-1.06Z"/><path d="M15.53,11.47c-.29-.29-.77-.29-1.06,0s-.29,.77,0,1.06l1.47,1.47-1.47,1.47c-.29,.29-.29,.77,0,1.06,.15,.15,.34,.22,.53,.22s.38-.07,.53-.22l2-2c.29-.29,.29-.77,0-1.06l-2-2Z"/></g></g></svg>