<?xml version="1.0" encoding="UTF-8"?><svg fill="currentColor" xmlns="http://www.w3.org/2000/svg" viewBox="0 0 24 24"><g id="f"><path d="M20.75,14.43v-6.43c0-2.07-1.68-3.75-3.75-3.75H7c-2.07,0-3.75,1.68-3.75,3.75v6.43c-.59,.28-1,.88-1,1.57,0,1.52,1.23,2.75,2.75,2.75h14c1.52,0,2.75-1.23,2.75-2.75,0-.7-.41-1.29-1-1.57ZM7,5.75h10c1.24,0,2.25,1.01,2.25,2.25v6.25h-3.59c-.63,0-1.21,.24-1.65,.68l-.07,.07c-.16,.16-.37,.25-.59,.25h-2.68c-.22,0-.43-.09-.66-.31-.44-.44-1.03-.69-1.65-.69h-3.59v-6.25c0-1.24,1.01-2.25,2.25-2.25Zm12,11.5H5c-.69,0-1.25-.56-1.25-1.25,0-.14,.11-.25,.25-.25h4.34c.22,0,.43,.09,.66,.31,.44,.44,1.03,.69,1.65,.69h2.68c.63,0,1.21-.24,1.65-.68l.07-.07c.16-.16,.37-.25,.59-.25h4.34c.14,0,.25,.11,.25,.25,0,.69-.56,1.25-1.25,1.25Z"/></g></svg>