<?xml version="1.0" encoding="UTF-8"?><svg fill="currentColor" xmlns="http://www.w3.org/2000/svg" viewBox="0 0 24 24"><g id="d"><g><path d="M20.65,11.35c.06-.11,.1-.22,.1-.35v-1c0-.8-.39-1.52-1-2.03v-.97c0-1.52-1.23-2.75-2.75-2.75H7c-1.52,0-2.75,1.23-2.75,2.75v.97c-.61,.5-1,1.22-1,2.03v1c0,.13,.04,.24,.1,.35-.68,.68-1.1,1.62-1.1,2.65v4c0,2.07,1.68,3.75,3.75,3.75h12c2.07,0,3.75-1.68,3.75-3.75v-4c0-1.03-.42-1.97-1.1-2.65Zm-2.65-1.1H6c-.44,0-.86,.09-1.25,.23v-.48c0-.69,.69-1.25,1.54-1.25h11.43c.85,0,1.54,.56,1.54,1.25v.48c-.39-.14-.81-.23-1.25-.23ZM5.75,7c0-.69,.56-1.25,1.25-1.25h10c.69,0,1.25,.56,1.25,1.25v.3c-.17-.03-.35-.05-.54-.05H6.29c-.18,0-.36,.02-.54,.05v-.3Zm14.5,11c0,1.24-1.01,2.25-2.25,2.25H6c-1.24,0-2.25-1.01-2.25-2.25v-4c0-1.24,1.01-2.25,2.25-2.25h12c1.24,0,2.25,1.01,2.25,2.25v4Z"/><path d="M14,15.25h-1.25v-1.25c0-.41-.34-.75-.75-.75s-.75,.34-.75,.75v1.25h-1.25c-.41,0-.75,.34-.75,.75s.34,.75,.75,.75h1.25v1.25c0,.41,.34,.75,.75,.75s.75-.34,.75-.75v-1.25h1.25c.41,0,.75-.34,.75-.75s-.34-.75-.75-.75Z"/></g></g></svg>