<?xml version="1.0" encoding="UTF-8"?><svg fill="currentColor" xmlns="http://www.w3.org/2000/svg" viewBox="0 0 24 24"><g id="p"><path d="M19.75,14.37V7.97c0-.95-.77-1.72-1.78-1.72-.95,0-1.72,.77-1.72,1.72v6.28H7.75V7.97c0-.95-.77-1.72-1.78-1.72-.95,0-1.72,.77-1.72,1.72v6.4c-1.15,.33-2,1.38-2,2.63,0,1.52,1.23,2.75,2.75,2.75h14c1.52,0,2.75-1.23,2.75-2.75,0-1.25-.85-2.3-2-2.63Zm-2-6.4c0-.12,.1-.22,.28-.22,.12,0,.22,.1,.22,.22v6.28h-.5V7.97Zm-12,0c0-.12,.1-.22,.28-.22,.12,0,.22,.1,.22,.22v6.28h-.5V7.97Zm13.25,10.28H5c-.69,0-1.25-.56-1.25-1.25s.56-1.25,1.25-1.25h14c.69,0,1.25,.56,1.25,1.25s-.56,1.25-1.25,1.25Z"/></g></svg>