<?xml version="1.0" encoding="UTF-8"?><svg fill="currentColor" xmlns="http://www.w3.org/2000/svg" viewBox="0 0 24 24"><g id="k"><path d="M21.03,17.5l-4.08-4.08c1.42-2.89,.94-6.5-1.47-8.9-3.02-3.02-7.94-3.02-10.96,0s-3.02,7.94,0,10.96c1.51,1.51,3.5,2.27,5.48,2.27,1.17,0,2.34-.27,3.42-.8l4.08,4.08c.47,.47,1.1,.73,1.76,.73s1.29-.26,1.76-.73c.97-.97,.97-2.55,0-3.53Zm-15.45-3.08c-2.44-2.44-2.44-6.4,0-8.84,1.22-1.22,2.82-1.83,4.42-1.83s3.2,.61,4.42,1.83c2.44,2.44,2.44,6.4,0,8.84-2.44,2.44-6.4,2.44-8.84,0Zm14.39,5.55c-.38,.38-1.03,.38-1.41,0l-3.84-3.84c.26-.2,.51-.41,.75-.65s.45-.49,.65-.75l3.84,3.84c.39,.39,.39,1.02,0,1.41Z"/></g></svg>