<?xml version="1.0" encoding="UTF-8"?><svg fill="currentColor" xmlns="http://www.w3.org/2000/svg" viewBox="0 0 24 24"><g id="j"><g><path d="M20.7,9.16l-4.12-4.05c-.5-.49-1.24-.63-1.89-.36-.65,.27-1.06,.9-1.06,1.6,0,.12-.08,.21-.19,.23-1.48,.2-4.26,.91-6.27,3.46-1.09,1.39-1.74,3.08-1.89,4.89-.05,.59,.3,1.11,.85,1.29,.13,.04,.27,.07,.4,.07,.41,0,.8-.21,1.04-.58,.66-1.04,1.83-2.37,3.68-2.86,.69-.18,1.42-.22,2.17-.14,.11,.01,.2,.11,.2,.23v.48c0,.66,.36,1.25,.95,1.55,.59,.3,1.28,.24,1.81-.15l4.12-3.03c.41-.3,.67-.77,.7-1.27s-.15-1-.52-1.36Zm-1.08,1.43l-4.12,3.04c-.1,.07-.2,.04-.24,.02-.05-.02-.13-.08-.13-.21v-.48c0-.88-.65-1.62-1.52-1.72-.94-.11-1.86-.05-2.73,.18-1.83,.47-3.11,1.59-3.96,2.66,.23-1.14,.71-2.18,1.43-3.09,1.68-2.14,4.03-2.74,5.29-2.9,.85-.11,1.5-.85,1.5-1.72,0-.13,.08-.19,.14-.22,.03-.01,.06-.02,.1-.02,.05,0,.1,.02,.16,.07l4.12,4.05c.07,.07,.07,.14,.07,.18,0,.04-.02,.12-.1,.17Z"/><path d="M18,16.25c-.41,0-.75,.34-.75,.75,0,1.24-1.01,2.25-2.25,2.25H6c-1.24,0-2.25-1.01-2.25-2.25V8c0-1.24,1.01-2.25,2.25-2.25h4c.41,0,.75-.34,.75-.75s-.34-.75-.75-.75H6c-2.07,0-3.75,1.68-3.75,3.75v9c0,2.07,1.68,3.75,3.75,3.75H15c2.07,0,3.75-1.68,3.75-3.75,0-.41-.34-.75-.75-.75Z"/></g></g></svg>