<?xml version="1.0" encoding="UTF-8"?><svg fill="currentColor" xmlns="http://www.w3.org/2000/svg" viewBox="0 0 24 24"><g id="n"><g><path d="M14,7.25h-4c-1.52,0-2.75,1.23-2.75,2.75v7c0,2.62,2.13,4.75,4.75,4.75s4.75-2.13,4.75-4.75v-7c0-1.52-1.23-2.75-2.75-2.75Zm1.25,9.75c0,1.79-1.46,3.25-3.25,3.25s-3.25-1.46-3.25-3.25v-7c0-.69,.56-1.25,1.25-1.25h4c.69,0,1.25,.56,1.25,1.25v7Z"/><path d="M20.75,3.42c-.98-.98-2.43-1.27-3.71-.74-.38,.16-.57,.6-.41,.98,.16,.38,.6,.56,.98,.41,.72-.29,1.53-.13,2.08,.42,.55,.55,.71,1.36,.42,2.08-.16,.38,.02,.82,.41,.98,.09,.04,.19,.06,.29,.06,.29,0,.57-.17,.69-.46,.53-1.28,.24-2.73-.74-3.71Z"/><path d="M16.07,4.94c-.41,.06-.7,.44-.64,.85,.06,.41,.45,.69,.85,.64,.03,0,.65-.08,1.1,.37,.02,.02,.46,.46,.37,1.1-.06,.41,.23,.79,.64,.85,.04,0,.07,0,.11,0,.37,0,.69-.27,.74-.64,.19-1.32-.63-2.21-.79-2.37-.94-.94-2.14-.82-2.37-.79Z"/><path d="M6.39,4.06c.39,.16,.82-.03,.98-.41,.16-.38-.03-.82-.41-.98-1.28-.52-2.73-.23-3.71,.74-.98,.98-1.27,2.43-.74,3.71,.12,.29,.4,.46,.69,.46,.09,0,.19-.02,.29-.06,.38-.16,.57-.6,.41-.98-.29-.72-.13-1.53,.42-2.08,.55-.55,1.36-.71,2.08-.42Z"/><path d="M7.73,6.43c.41,.06,.79-.23,.85-.64,.06-.41-.23-.79-.64-.85-.23-.03-1.43-.15-2.37,.79-.17,.17-.98,1.06-.79,2.37,.05,.37,.37,.64,.74,.64,.04,0,.07,0,.11,0,.41-.06,.69-.44,.64-.85-.09-.63,.35-1.08,.37-1.1,.44-.44,1.04-.38,1.1-.37Z"/><path d="M13,10.25h-2c-.41,0-.75,.34-.75,.75s.34,.75,.75,.75h2c.41,0,.75-.34,.75-.75s-.34-.75-.75-.75Z"/></g></g></svg>