<?xml version="1.0" encoding="UTF-8"?><svg fill="currentColor" xmlns="http://www.w3.org/2000/svg" viewBox="0 0 24 24"><g id="g"><g><path d="M17,3.25H7c-2.62,0-4.75,2.13-4.75,4.75v8c0,2.62,2.13,4.75,4.75,4.75h10c2.62,0,4.75-2.13,4.75-4.75V8c0-2.62-2.13-4.75-4.75-4.75Zm-10,1.5h10c1.53,0,2.81,1.07,3.15,2.5H3.85c.34-1.43,1.62-2.5,3.15-2.5Zm10,14.5H7c-1.79,0-3.25-1.46-3.25-3.25v-7.25H20.25v7.25c0,1.79-1.46,3.25-3.25,3.25Z"/><path d="M14.93,12.19l-1.26-.18-.56-1.09h0c-.21-.42-.64-.67-1.12-.67s-.9,.26-1.12,.67l-.56,1.09-1.26,.18c-.48,.07-.87,.39-1.02,.85-.14,.45-.02,.93,.33,1.26l.89,.84-.21,1.17c-.08,.46,.1,.91,.48,1.19,.22,.17,.49,.25,.75,.25,.2,0,.39-.04,.57-.14l1.13-.57,1.13,.57c.43,.22,.94,.18,1.33-.11,.38-.28,.56-.74,.48-1.19l-.21-1.17,.89-.84c.35-.33,.47-.81,.33-1.26-.15-.46-.54-.78-1.02-.85Zm-1.34,1.95c-.3,.28-.44,.7-.37,1.1l.14,.81-.79-.4c-.35-.18-.78-.18-1.14,0l-.79,.4,.14-.81c.07-.41-.07-.82-.37-1.1l-.58-.54,.83-.12c.41-.06,.76-.31,.94-.66l.4-.78,.4,.78c.18,.36,.53,.61,.94,.67l.83,.12-.58,.54Z"/></g></g></svg>