<?xml version="1.0" encoding="UTF-8"?><svg fill="currentColor" xmlns="http://www.w3.org/2000/svg" viewBox="0 0 24 24"><g id="b"><path d="M18,2.25H9c-2.07,0-3.75,1.68-3.75,3.75v1.33c-1.71,.35-3,1.86-3,3.67v6c0,2.07,1.68,3.75,3.75,3.75h7c1.81,0,3.33-1.29,3.67-3h1.33c2.07,0,3.75-1.68,3.75-3.75V6c0-2.07-1.68-3.75-3.75-3.75Zm-9,1.5h9c.98,0,1.8,.63,2.11,1.5H6.89c.31-.87,1.14-1.5,2.11-1.5Zm4,15.5H6c-1.24,0-2.25-1.01-2.25-2.25v-6c0-.98,.63-1.8,1.5-2.11v5.11c0,2.07,1.68,3.75,3.75,3.75h6.11c-.31,.87-1.14,1.5-2.11,1.5Zm5-3H9c-1.24,0-2.25-1.01-2.25-2.25V6.75h13.5v7.25c0,1.24-1.01,2.25-2.25,2.25Z"/></g></svg>