<?xml version="1.0" encoding="UTF-8"?><svg fill="currentColor" xmlns="http://www.w3.org/2000/svg" viewBox="0 0 24 24"><g id="q"><g><path d="M14,2.25h-4c-2.07,0-3.75,1.68-3.75,3.75v12c0,2.07,1.68,3.75,3.75,3.75h4c2.07,0,3.75-1.68,3.75-3.75V6c0-2.07-1.68-3.75-3.75-3.75Zm2.25,15.75c0,1.24-1.01,2.25-2.25,2.25h-4c-1.24,0-2.25-1.01-2.25-2.25V6c0-1.24,1.01-2.25,2.25-2.25h4c1.24,0,2.25,1.01,2.25,2.25v12Z"/><path d="M12,9.75c-1.36,0-2.66,.59-3.56,1.61-.27,.31-.24,.78,.07,1.06,.31,.27,.78,.24,1.06-.07,.62-.7,1.5-1.1,2.44-1.1s1.82,.4,2.44,1.1c.15,.17,.35,.25,.56,.25,.18,0,.35-.06,.5-.19,.31-.27,.34-.75,.07-1.06-.9-1.02-2.2-1.61-3.56-1.61Z"/><path d="M10.18,13.44c-.31,.27-.34,.75-.07,1.06,.28,.31,.75,.34,1.06,.07,.46-.4,1.2-.4,1.65,0,.14,.13,.32,.19,.5,.19,.21,0,.41-.09,.56-.25,.27-.31,.24-.78-.07-1.06-1-.89-2.63-.89-3.64,0Z"/></g></g></svg>