<?xml version="1.0" encoding="UTF-8"?><svg fill="currentColor" xmlns="http://www.w3.org/2000/svg" viewBox="0 0 24 24"><g id="f"><g><path d="M20.5,13.25H3.5c-.69,0-1.25,.56-1.25,1.25v3c0,.6,.43,1.08,1,1.2v.3c0,.41,.34,.75,.75,.75s.75-.34,.75-.75v-.25h14.5v.25c0,.41,.34,.75,.75,.75s.75-.34,.75-.75v-.3c.57-.12,1-.6,1-1.2v-3c0-.69-.56-1.25-1.25-1.25Z"/><path d="M8.28,11.75c.12-.85,.85-1.5,1.72-1.5h4c.88,0,1.6,.65,1.72,1.5h4.78c.09,0,.17,.02,.25,.03v-3.78c0-2.07-1.68-3.75-3.75-3.75H7c-2.07,0-3.75,1.68-3.75,3.75v3.78c.08,0,.16-.03,.25-.03h4.78Z"/></g></g></svg>