<?xml version="1.0" encoding="UTF-8"?><svg fill="currentColor" xmlns="http://www.w3.org/2000/svg" viewBox="0 0 24 24"><g id="h"><path d="M18.25,12.69c-.32-.24-.74-.31-1.12-.19-.37,.11-.75,.21-1.12,.29l.62-3.08c.6-.11,1.13-.51,1.34-1.09,.42-1.15,.69-2.34,.78-3.55,.03-.37,.04-.73,.04-1.07,0-.96-.79-1.74-1.75-1.74H6.96c-.97,0-1.75,.78-1.75,1.74,0,.34,.01,.7,.04,1.07,.1,1.21,.36,2.4,.78,3.55,.21,.59,.74,.99,1.34,1.1l.62,3.08c-.38-.09-.76-.19-1.14-.3-.38-.11-.78-.04-1.1,.19-.32,.23-.5,.61-.5,1.01v.95c0,.54,.36,1.03,.87,1.2,.05,.02,.1,.03,.15,.04,0,.04-.03,.08-.03,.13v5c0,.41,.34,.75,.75,.75s.75-.34,.75-.75v-4.73c1.39,.32,2.82,.48,4.25,.48s2.86-.17,4.25-.48v4.73c0,.41,.34,.75,.75,.75s.75-.34,.75-.75v-5s-.02-.08-.03-.13c.05-.02,.11-.03,.16-.05,.52-.16,.86-.64,.86-1.19v-.95c0-.4-.18-.76-.5-1Zm-8.67,.39l-.67-3.33h6.17l-.67,3.33c-1.6,.22-3.24,.22-4.84,0Z"/></g></svg>