<?xml version="1.0" encoding="UTF-8"?><svg fill="currentColor" xmlns="http://www.w3.org/2000/svg" viewBox="0 0 24 24"><g id="n"><g><path d="M16,13.25H7c-.96,0-1.75,.79-1.75,1.75v6c0,.41,.34,.75,.75,.75s.75-.34,.75-.75v-3.25h9.5v3.25c0,.41,.34,.75,.75,.75s.75-.34,.75-.75v-6c0-.96-.79-1.75-1.75-1.75Z"/><path d="M16,11.75c.26,0,.51,.04,.75,.1V7.5c0-2.9-2.36-5.25-5.25-5.25s-5.25,2.35-5.25,5.25v4.35c.24-.06,.49-.1,.75-.1h9Zm-2.99-5.5h0c.42,0,.75,.34,.75,.75s-.33,.75-.75,.75-.75-.34-.75-.75,.33-.75,.74-.75Zm0,3h0c.42,0,.75,.34,.75,.75s-.33,.75-.75,.75-.75-.34-.75-.75,.33-.75,.74-.75Zm-3-3h.01c.41,0,.75,.34,.75,.75s-.34,.75-.75,.75-.75-.34-.75-.75,.33-.75,.74-.75Zm0,3h.01c.41,0,.75,.34,.75,.75s-.34,.75-.75,.75-.75-.34-.75-.75,.33-.75,.74-.75Z"/></g></g></svg>