<?xml version="1.0" encoding="UTF-8"?><svg fill="currentColor" xmlns="http://www.w3.org/2000/svg" viewBox="0 0 24 24"><g id="e"><g><path d="M17.5,11.25H6.5c-.69,0-1.25,.56-1.25,1.25v2c0,.69,.56,1.25,1.25,1.25h.29l3.75,2.25-3.93,2.36c-.36,.21-.47,.67-.26,1.03,.14,.23,.39,.36,.64,.36,.13,0,.26-.03,.39-.11l4.61-2.77,4.61,2.77c.12,.07,.25,.11,.39,.11,.25,0,.5-.13,.64-.36,.21-.36,.1-.82-.26-1.03l-3.93-2.36,3.75-2.25h.29c.69,0,1.25-.56,1.25-1.25v-2c0-.69-.56-1.25-1.25-1.25Zm-5.5,5.88l-2.29-1.38h4.58l-2.29,1.38Z"/><path d="M17.75,4c0-.96-.79-1.75-1.75-1.75H8c-.96,0-1.75,.79-1.75,1.75v2.25h11.5v-2.25Z"/><path d="M17.5,9.75c.09,0,.17,.02,.25,.03v-2.03H6.25v2.03c.08,0,.16-.03,.25-.03h11Z"/></g></g></svg>