<?xml version="1.0" encoding="UTF-8"?><svg fill="currentColor" xmlns="http://www.w3.org/2000/svg" viewBox="0 0 24 24"><g id="i"><g><path d="M2.25,4V20c0,.96,.79,1.75,1.75,1.75h7.25V12.75h-.25c-.41,0-.75-.34-.75-.75s.34-.75,.75-.75h.25V2.25H4c-.96,0-1.75,.79-1.75,1.75Zm3,2.5c0-.69,.56-1.25,1.25-1.25h2c.69,0,1.25,.56,1.25,1.25v7c0,.69-.56,1.25-1.25,1.25h-2c-.69,0-1.25-.56-1.25-1.25V6.5Zm0,10c0-.69,.56-1.25,1.25-1.25h2c.69,0,1.25,.56,1.25,1.25v1c0,.69-.56,1.25-1.25,1.25h-2c-.69,0-1.25-.56-1.25-1.25v-1Z"/><rect x="15.75" y="16.75" width="1.5" height=".5"/><rect x="6.75" y="16.75" width="1.5" height=".5"/><rect x="6.75" y="6.75" width="1.5" height="6.5"/><rect x="15.75" y="6.75" width="1.5" height="6.5"/><path d="M20,2.25h-7.25V11.25h.25c.41,0,.75,.34,.75,.75s-.34,.75-.75,.75h-.25v9h7.25c.96,0,1.75-.79,1.75-1.75V4c0-.96-.79-1.75-1.75-1.75Zm-1.25,15.25c0,.69-.56,1.25-1.25,1.25h-2c-.69,0-1.25-.56-1.25-1.25v-1c0-.69,.56-1.25,1.25-1.25h2c.69,0,1.25,.56,1.25,1.25v1Zm0-4c0,.69-.56,1.25-1.25,1.25h-2c-.69,0-1.25-.56-1.25-1.25V6.5c0-.69,.56-1.25,1.25-1.25h2c.69,0,1.25,.56,1.25,1.25v7Z"/></g></g></svg>