<?xml version="1.0" encoding="UTF-8"?><svg fill="currentColor" xmlns="http://www.w3.org/2000/svg" viewBox="0 0 24 24"><g id="o"><g><path d="M3.25,18.5c0,.69,.56,1.25,1.25,1.25h.75v.25c0,.41,.34,.75,.75,.75s.75-.34,.75-.75v-.25h10.5v.25c0,.41,.34,.75,.75,.75s.75-.34,.75-.75v-.25h.75c.69,0,1.25-.56,1.25-1.25v-5.75H3.25v5.75Zm7.75-4.25h2c.41,0,.75,.34,.75,.75s-.34,.75-.75,.75h-2c-.41,0-.75-.34-.75-.75s.34-.75,.75-.75Z"/><path d="M21,4.25H3c-.41,0-.75,.34-.75,.75s.34,.75,.75,.75h.25v5.5H20.75V5.75h.25c.41,0,.75-.34,.75-.75s-.34-.75-.75-.75Zm-8,4.5h-2c-.41,0-.75-.34-.75-.75s.34-.75,.75-.75h2c.41,0,.75,.34,.75,.75s-.34,.75-.75,.75Z"/></g></g></svg>