<?xml version="1.0" encoding="UTF-8"?><svg fill="currentColor" xmlns="http://www.w3.org/2000/svg" viewBox="0 0 24 24"><g id="k"><path d="M18,12.25h-2.81c.96-1.05,1.56-2.57,1.56-4.25,0-3.17-2.13-5.75-4.75-5.75s-4.75,2.58-4.75,5.75c0,1.68,.61,3.2,1.56,4.25h-2.81c-.96,0-1.75,.79-1.75,1.75v7c0,.41,.34,.75,.75,.75s.75-.34,.75-.75v-3.25h5.5v-4.08c.24,.05,.49,.08,.75,.08s.51-.03,.75-.08v4.08h5.5v3.25c0,.41,.34,.75,.75,.75s.75-.34,.75-.75v-7c0-.96-.79-1.75-1.75-1.75ZM9.47,6.47l1-1c.29-.29,.77-.29,1.06,0s.29,.77,0,1.06l-1,1c-.15,.15-.34,.22-.53,.22s-.38-.07-.53-.22c-.29-.29-.29-.77,0-1.06Zm.55,9.28c-.41,0-.75-.34-.75-.75s.33-.75,.74-.75h.01c.41,0,.75,.34,.75,.75s-.34,.75-.75,.75Zm1.51-6.22c-.15,.15-.34,.22-.53,.22s-.38-.07-.53-.22c-.29-.29-.29-.77,0-1.06l2-2c.29-.29,.77-.29,1.06,0s.29,.77,0,1.06l-2,2Zm2.49,6.22c-.41,0-.75-.34-.75-.75s.33-.75,.74-.75h.01c.41,0,.75,.34,.75,.75s-.34,.75-.75,.75Z"/></g></svg>