<?xml version="1.0" encoding="UTF-8"?><svg fill="currentColor" xmlns="http://www.w3.org/2000/svg" viewBox="0 0 24 24"><g id="j"><path d="M19.5,11.66l-1.6-8c-.16-.82-.88-1.41-1.72-1.41H7.82c-.83,0-1.55,.59-1.72,1.41l-1.6,8c-.1,.52,.03,1.05,.36,1.45s.83,.64,1.35,.64h5.03v3.5h-.81c-1.19,0-2.23,.76-2.61,1.88l-.1,.32c-.18,.53-.09,1.12,.24,1.58,.33,.46,.86,.73,1.42,.73h5.23c.56,0,1.09-.27,1.42-.73,.33-.46,.42-1.04,.24-1.58l-.11-.32c-.38-1.12-1.42-1.88-2.61-1.88h-.81v-3.5h5.03c.53,0,1.02-.23,1.35-.64s.47-.94,.36-1.45Z"/></g></svg>