<?xml version="1.0" encoding="UTF-8"?><svg fill="currentColor" xmlns="http://www.w3.org/2000/svg" viewBox="0 0 24 24"><g id="d"><g><path d="M21,13.25H3c-.41,0-.75,.34-.75,.75v2c0,.7,.41,1.29,1,1.57v.43c0,.41,.34,.75,.75,.75s.75-.34,.75-.75v-.25h14.5v.25c0,.41,.34,.75,.75,.75s.75-.34,.75-.75v-.43c.59-.28,1-.88,1-1.57v-2c0-.41-.34-.75-.75-.75Z"/><path d="M18,5.25h-3c-1.23,0-2.32,.6-3,1.52-.68-.92-1.77-1.52-3-1.52h-3c-2.07,0-3.75,1.68-3.75,3.75v2.89c.24-.08,.49-.14,.75-.14H21c.26,0,.51,.05,.75,.14v-2.89c0-2.07-1.68-3.75-3.75-3.75ZM6.02,11.5c-.41,0-.75-.34-.75-.75s.33-.75,.74-.75h.01c.41,0,.75,.34,.75,.75s-.34,.75-.75,.75Zm0-3c-.41,0-.75-.34-.75-.75s.33-.75,.74-.75h.01c.41,0,.75,.34,.75,.75s-.34,.75-.75,.75Zm3,3c-.41,0-.75-.34-.75-.75s.33-.75,.74-.75h.01c.41,0,.75,.34,.75,.75s-.34,.75-.75,.75Zm0-3c-.41,0-.75-.34-.75-.75s.33-.75,.74-.75h.01c.41,0,.75,.34,.75,.75s-.34,.75-.75,.75Zm6,3c-.41,0-.75-.34-.75-.75s.33-.75,.75-.75h0c.42,0,.75,.34,.75,.75s-.33,.75-.75,.75Zm0-3c-.41,0-.75-.34-.75-.75s.33-.75,.75-.75h0c.42,0,.75,.34,.75,.75s-.33,.75-.75,.75Zm3,3c-.41,0-.75-.34-.75-.75s.33-.75,.75-.75h0c.42,0,.75,.34,.75,.75s-.33,.75-.75,.75Zm0-3c-.41,0-.75-.34-.75-.75s.33-.75,.75-.75h0c.42,0,.75,.34,.75,.75s-.33,.75-.75,.75Z"/></g></g></svg>