<?xml version="1.0" encoding="UTF-8"?><svg fill="currentColor" xmlns="http://www.w3.org/2000/svg" viewBox="0 0 24 24"><g id="g"><g><path d="M16,2.25H7c-.96,0-1.75,.79-1.75,1.75v5.25h12.5V4c0-.96-.79-1.75-1.75-1.75Zm-7.25,5.75c0,.41-.34,.75-.75,.75s-.75-.34-.75-.75v-1c0-.41,.34-.75,.75-.75s.75,.34,.75,.75v1Z"/><path d="M5.25,19c0,.7,.41,1.29,1,1.57v.43c0,.41,.34,.75,.75,.75s.75-.34,.75-.75v-.25h7.5v.25c0,.41,.34,.75,.75,.75s.75-.34,.75-.75v-.43c.59-.28,1-.88,1-1.57V10.75H5.25v8.25Zm2-7c0-.41,.34-.75,.75-.75s.75,.34,.75,.75v1c0,.41-.34,.75-.75,.75s-.75-.34-.75-.75v-1Z"/></g></g></svg>