<?xml version="1.0" encoding="UTF-8"?><svg fill="currentColor" xmlns="http://www.w3.org/2000/svg" viewBox="0 0 24 24"><g id="l"><g><path d="M20,11.25h-2c-.96,0-1.75,.79-1.75,1.75v2.25H7.75v-2.25c0-.96-.79-1.75-1.75-1.75h-2c-.96,0-1.75,.79-1.75,1.75v6c0,.96,.79,1.75,1.75,1.75h.25v.25c0,.41,.34,.75,.75,.75s.75-.34,.75-.75v-.25h12.5v.25c0,.41,.34,.75,.75,.75s.75-.34,.75-.75v-.25h.25c.96,0,1.75-.79,1.75-1.75v-6c0-.96-.79-1.75-1.75-1.75Z"/><path d="M8.32,10.73c.11-.28,.37-.48,.69-.48h0c.42,0,.75,.34,.75,.75s-.33,.75-.75,.75c0,0-.01,0-.02,0,.16,.39,.25,.81,.25,1.25v.75h5.5v-.75c0-.44,.09-.87,.25-1.25-.41,0-.74-.34-.74-.75s.33-.75,.75-.75h0c.31,0,.57,.19,.69,.45,.59-.59,1.4-.95,2.29-.95h1.75v-2.75c0-2.62-2.13-4.75-4.75-4.75h-6c-2.62,0-4.75,2.13-4.75,4.75v2.75h1.75c.91,0,1.73,.38,2.32,.98Zm6.69-4.48h0c.42,0,.75,.34,.75,.75s-.33,.75-.75,.75-.75-.34-.75-.75,.33-.75,.75-.75Zm-6,0h0c.42,0,.75,.34,.75,.75s-.33,.75-.75,.75-.75-.34-.75-.75,.33-.75,.75-.75Z"/></g></g></svg>