<?xml version="1.0" encoding="UTF-8"?><svg fill="currentColor" xmlns="http://www.w3.org/2000/svg" viewBox="0 0 24 24"><g id="b"><g><path d="M2.25,9v2.25H12.25V7.25H4c-.96,0-1.75,.79-1.75,1.75Zm5.22,.47c.28-.28,.78-.28,1.06,0,.14,.14,.22,.33,.22,.53s-.08,.39-.22,.53c-.07,.07-.15,.12-.24,.16s-.19,.06-.29,.06c-.2,0-.39-.08-.53-.22-.14-.14-.22-.33-.22-.53s.08-.39,.22-.53Z"/><path d="M2.25,15c0,.96,.79,1.75,1.75,1.75h.25v.25c0,.41,.34,.75,.75,.75s.75-.34,.75-.75v-.25h6.5v-4H2.25v2.25Zm5.22-1.53c.28-.28,.78-.28,1.06,0,.14,.14,.22,.33,.22,.53s-.08,.39-.22,.53c-.07,.07-.15,.12-.24,.16s-.19,.06-.29,.06c-.2,0-.39-.08-.53-.22-.14-.14-.22-.33-.22-.53s.08-.39,.22-.53Z"/><path d="M20,7.25h-6.25v9.5h4.5v.25c0,.41,.34,.75,.75,.75s.75-.34,.75-.75v-.25h.25c.96,0,1.75-.79,1.75-1.75v-6c0-.96-.79-1.75-1.75-1.75Zm-4.98,5.5c-.41,0-.75-.34-.75-.75s.33-.75,.75-.75h0c.42,0,.75,.34,.75,.75s-.33,.75-.75,.75Z"/></g></g></svg>