<?xml version="1.0" encoding="UTF-8"?><svg fill="currentColor" xmlns="http://www.w3.org/2000/svg" viewBox="0 0 24 24"><g id="m"><g><path d="M21,7.25H12c-.41,0-.75,.34-.75,.75v5.25h10.5v-5.25c0-.41-.34-.75-.75-.75Zm-4,4.5h-1c-.41,0-.75-.34-.75-.75s.34-.75,.75-.75h1c.41,0,.75,.34,.75,.75s-.34,.75-.75,.75Z"/><path d="M11.25,21c0,.41,.34,.75,.75,.75h9c.41,0,.75-.34,.75-.75v-6.25H11.25v6.25Zm2-4c0-.41,.34-.75,.75-.75s.75,.34,.75,.75v1c0,.41-.34,.75-.75,.75s-.75-.34-.75-.75v-1Z"/><path d="M20.5,4.25H3.5c-.69,0-1.25,.56-1.25,1.25v2.5c0,.41,.34,.75,.75,.75h6.75v-.75c0-1.24,1.01-2.25,2.25-2.25h9c.26,0,.51,.05,.75,.14v-.39c0-.69-.56-1.25-1.25-1.25Z"/><path d="M3.25,21c0,.41,.34,.75,.75,.75h3c.41,0,.75-.34,.75-.75V10.25H3.25v10.75Z"/></g></g></svg>