<?xml version="1.0" encoding="UTF-8"?><svg fill="currentColor" xmlns="http://www.w3.org/2000/svg" viewBox="0 0 24 24"><g id="s"><path d="M20.5,4.25H3.5c-.69,0-1.25,.56-1.25,1.25v13.5c0,.41,.34,.75,.75,.75s.75-.34,.75-.75v-7.25h7.5V7.75h1.5v4h7.5v7.25c0,.41,.34,.75,.75,.75s.75-.34,.75-.75V5.5c0-.69-.56-1.25-1.25-1.25Zm-11.48,5.5c-.41,0-.75-.34-.75-.75s.33-.75,.74-.75h.01c.41,0,.75,.34,.75,.75s-.34,.75-.75,.75Zm6,0c-.41,0-.75-.34-.75-.75s.33-.75,.75-.75h0c.42,0,.75,.34,.75,.75s-.33,.75-.75,.75Z"/></g></svg>