<?xml version="1.0" encoding="UTF-8"?><svg fill="currentColor" xmlns="http://www.w3.org/2000/svg" viewBox="0 0 24 24"><g id="q"><g><rect x="5.25" y="2.25" width="13.5" height="9.5" rx="1.25" ry="1.25"/><path d="M4.25,15v4c0,.7,.41,1.29,1,1.57v.43c0,.41,.34,.75,.75,.75s.75-.34,.75-.75v-.25h4.5v-7.5H6c-.96,0-1.75,.79-1.75,1.75Zm5.76,1.25h0c.42,0,.75,.34,.75,.75s-.33,.75-.75,.75-.75-.34-.75-.75,.33-.75,.75-.75Z"/><path d="M18,13.25h-5.25v7.5h4.5v.25c0,.41,.34,.75,.75,.75s.75-.34,.75-.75v-.43c.59-.28,1-.88,1-1.57v-4c0-.96-.79-1.75-1.75-1.75Zm-3.98,4.5c-.41,0-.75-.34-.75-.75s.33-.75,.75-.75h0c.42,0,.75,.34,.75,.75s-.33,.75-.75,.75Z"/></g></g></svg>