<?xml version="1.0" encoding="UTF-8"?><svg fill="currentColor" xmlns="http://www.w3.org/2000/svg" viewBox="0 0 24 24"><g id="c"><g><path d="M5.25,4v15c0,.96,.79,1.75,1.75,1.75h.25v.25c0,.41,.34,.75,.75,.75s.75-.34,.75-.75v-.25h2.5V2.25H7c-.96,0-1.75,.79-1.75,1.75Zm4.76,6.25h0c.42,0,.75,.34,.75,.75s-.33,.75-.75,.75-.75-.34-.75-.75,.33-.75,.75-.75Z"/><path d="M17,2.25h-4.25V20.75h2.5v.25c0,.41,.34,.75,.75,.75s.75-.34,.75-.75v-.25h.25c.96,0,1.75-.79,1.75-1.75V4c0-.96-.79-1.75-1.75-1.75Zm-2.98,9.5c-.41,0-.75-.34-.75-.75s.33-.75,.75-.75h0c.42,0,.75,.34,.75,.75s-.33,.75-.75,.75Z"/></g></g></svg>