<svg fill="currentColor" xmlns="http://www.w3.org/2000/svg" viewBox="0 0 32 32"><g id="apartment"><path d="M28.93,9.66l0-.08,0-.08-4-7A1,1,0,0,0,24,2H8a1,1,0,0,0-.87.5l-4,7,0,.08,0,.08A1,1,0,0,0,3,10V29a1,1,0,0,0,1,1H28a1,1,0,0,0,1-1V10A1,1,0,0,0,28.93,9.66ZM8.58,4H23.42l2.86,5H5.72ZM5,28V11H27V28Z"/><path d="M11,13H7a1,1,0,0,0-1,1v4a1,1,0,0,0,1,1h4a1,1,0,0,0,1-1V14A1,1,0,0,0,11,13Zm-1,4H8V15h2Z"/><path d="M18,13H14a1,1,0,0,0-1,1v4a1,1,0,0,0,1,1h4a1,1,0,0,0,1-1V14A1,1,0,0,0,18,13Zm-1,4H15V15h2Z"/><path d="M25,13H21a1,1,0,0,0-1,1v4a1,1,0,0,0,1,1h4a1,1,0,0,0,1-1V14A1,1,0,0,0,25,13Zm-1,4H22V15h2Z"/><path d="M11,20H7a1,1,0,0,0-1,1v4a1,1,0,0,0,1,1h4a1,1,0,0,0,1-1V21A1,1,0,0,0,11,20Zm-1,4H8V22h2Z"/><path d="M18,20H14a1,1,0,0,0-1,1v4a1,1,0,0,0,1,1h4a1,1,0,0,0,1-1V21A1,1,0,0,0,18,20Zm-1,4H15V22h2Z"/><path d="M25,20H21a1,1,0,0,0-1,1v4a1,1,0,0,0,1,1h4a1,1,0,0,0,1-1V21A1,1,0,0,0,25,20Zm-1,4H22V22h2Z"/></g></svg>