<svg fill="currentColor" xmlns="http://www.w3.org/2000/svg" viewBox="0 0 32 32"><g id="barn"><path d="M29.86,15.49l-3-5a1,1,0,0,0-.35-.35l-10-6a1,1,0,0,0-1,0l-10,6a1,1,0,0,0-.35.35l-3,5a1,1,0,1,0,1.72,1L5,14.61V27a1,1,0,0,0,1,1H26a1,1,0,0,0,1-1V14.61l1.14,1.9A1,1,0,0,0,29,17a1,1,0,0,0,.51-.14A1,1,0,0,0,29.86,15.49ZM17.7,22.64l3.3-2.4V25ZM18.93,26H13.08L16,23.87ZM16,21.4,12.7,19h6.6Zm-5-1.16,3.3,2.4L11,25ZM25,26H23V18a1,1,0,0,0-1-1H10a1,1,0,0,0-1,1v8H7V12a1,1,0,0,0-.08-.39L16,6.17l9.08,5.44A1,1,0,0,0,25,12Z"/><path d="M18,9H14a1,1,0,0,0-1,1v4a1,1,0,0,0,1,1h4a1,1,0,0,0,1-1V10A1,1,0,0,0,18,9Zm-1,4H15V11h2Z"/></g></svg>