<svg fill="currentColor" xmlns="http://www.w3.org/2000/svg" viewBox="0 0 32 32"><g id="building"><path d="M29,17.89a1.18,1.18,0,0,0,0-.2l-.09-.19s0-.07-.05-.1l-3-4A1,1,0,0,0,25,13H16V10a.7.7,0,0,0,0-.14.65.65,0,0,0,0-.2.69.69,0,0,0-.1-.19s0-.08-.07-.12l-6-7a1,1,0,0,0-1.52,0l-6,7s0,.08-.07.12a.69.69,0,0,0-.1.19.65.65,0,0,0,0,.2A.7.7,0,0,0,2,10V29a1,1,0,0,0,1,1H28a1,1,0,0,0,1-1V18S29,17.93,29,17.89ZM24.5,15,26,17H16V15ZM9,4.54,12.83,9H5.17ZM4,11H14V28H4ZM23,28H20V23h3Zm4,0H25V22a1,1,0,0,0-1-1H19a1,1,0,0,0-1,1v6H16V19H27Z"/><path d="M12,12H6a1,1,0,0,0-1,1v5a1,1,0,0,0,1,1h6a1,1,0,0,0,1-1V13A1,1,0,0,0,12,12Zm-1,5H7V14h4Z"/><path d="M12,20H6a1,1,0,0,0-1,1v5a1,1,0,0,0,1,1h6a1,1,0,0,0,1-1V21A1,1,0,0,0,12,20Zm-1,5H7V22h4Z"/></g></svg>