<svg fill="currentColor" xmlns="http://www.w3.org/2000/svg" viewBox="0 0 32 32"><g id="castle"><path d="M29,4a1,1,0,0,0-1,1V6H27V5a1,1,0,0,0-2,0V6H24V5a1,1,0,0,0-2,0V9H20V8a1,1,0,0,0-2,0V9H17V8a1,1,0,0,0-2,0V9H14V8a1,1,0,0,0-2,0V9H10V5A1,1,0,0,0,8,5V6H7V5A1,1,0,0,0,5,5V6H4V5A1,1,0,0,0,2,5V27a1,1,0,0,0,1,1H29a1,1,0,0,0,1-1V5A1,1,0,0,0,29,4Zm-7,7v2H10V11ZM4,8H8V26H4Zm6,7H22V26H20V23a4,4,0,0,0-8,0v3H10Zm8,11H14V23a2,2,0,0,1,4,0Zm10,0H24V8h4Z"/><path d="M6,21a1,1,0,0,0-1,1v1a1,1,0,0,0,2,0V22A1,1,0,0,0,6,21Z"/><path d="M6,17a1,1,0,0,0-1,1v1a1,1,0,0,0,2,0V18A1,1,0,0,0,6,17Z"/><path d="M26,21a1,1,0,0,0-1,1v1a1,1,0,0,0,2,0V22A1,1,0,0,0,26,21Z"/><path d="M25,18v1a1,1,0,0,0,2,0V18a1,1,0,0,0-2,0Z"/></g></svg>