<svg fill="currentColor" xmlns="http://www.w3.org/2000/svg" viewBox="0 0 32 32"><g id="chalet"><path d="M28,18.89a1.18,1.18,0,0,0,0-.2l-.09-.19s0-.07-.05-.1L25,14.67V11a1,1,0,0,0-1-1H21a1,1,0,0,0-1,1v3H16V9S16,9,16,9a.87.87,0,0,0-.06-.32v0a1.28,1.28,0,0,0-.15-.25l-5-6a1,1,0,0,0-1.54,0l-5,6a1.28,1.28,0,0,0-.15.25v0A.91.91,0,0,0,4,9S4,9,4,9V29a1,1,0,0,0,1,1H27a1,1,0,0,0,1-1V19S28,18.93,28,18.89ZM22,12h1v2H22Zm1.5,4L25,18H16V16ZM10,4.56,12.86,8H7.14ZM12,28H9V22h3Zm11,0H19V25h4Zm3,0H25V24a1,1,0,0,0-1-1H18a1,1,0,0,0-1,1v4H14V21a1,1,0,0,0-1-1H8a1,1,0,0,0-1,1v7H6V10h8v9a1,1,0,0,0,1,1H26Z"/><path d="M12,11H8a1,1,0,0,0-1,1v4a1,1,0,0,0,1,1h4a1,1,0,0,0,1-1V12A1,1,0,0,0,12,11Zm-1,4H9V13h2Z"/></g></svg>