<svg fill="currentColor" xmlns="http://www.w3.org/2000/svg" viewBox="0 0 32 32"><g id="chalet_2" data-name="chalet 2"><path d="M29,12H17.41L16,10.59V7a1,1,0,0,0-2,0V8.59l-3.29-3.3a1,1,0,0,0-1.42,0l-5,5h0l-2,2a1,1,0,0,0,1.42,1.42l.29-.3V26a1,1,0,0,0,1,1H27a1,1,0,0,0,1-1V14h1a1,1,0,0,0,0-2ZM11,25H9V21h2Zm15,0H13V20a1,1,0,0,0-1-1H8a1,1,0,0,0-1,1v5H6V11.41l4-4,4.29,4.3h0l2,2A1,1,0,0,0,17,14h9Z"/><path d="M12,11H8a1,1,0,0,0-1,1v4a1,1,0,0,0,1,1h4a1,1,0,0,0,1-1V12A1,1,0,0,0,12,11Zm-1,4H9V13h2Z"/><path d="M19,22h5a1,1,0,0,0,1-1V17a1,1,0,0,0-1-1H19a1,1,0,0,0-1,1v4A1,1,0,0,0,19,22Zm1-4h3v2H20Z"/></g></svg>