<svg fill="currentColor" xmlns="http://www.w3.org/2000/svg" viewBox="0 0 32 32"><g id="cottage-2" data-name="cottage"><path d="M30,15.73l-2-7A1,1,0,0,0,27,8H25V5a1,1,0,0,0-1-1H20a1,1,0,0,0-1,1V8H5a1,1,0,0,0-1,.73l-2,7a1,1,0,0,0,.16.87A1,1,0,0,0,3,17H4v9a1,1,0,0,0,1,1H27a1,1,0,0,0,1-1V17h1a1,1,0,0,0,.8-.4A1,1,0,0,0,30,15.73ZM21,6h2V8H21ZM5.75,10h20.5l1.42,5H4.33ZM16,25H10V20h6Zm10,0H18V19a1,1,0,0,0-1-1H9a1,1,0,0,0-1,1v6H6V17H26Z"/><path d="M20,24h4a1,1,0,0,0,1-1V19a1,1,0,0,0-1-1H20a1,1,0,0,0-1,1v4A1,1,0,0,0,20,24Zm1-4h2v2H21Z"/></g></svg>