<svg fill="currentColor" xmlns="http://www.w3.org/2000/svg" viewBox="0 0 32 32"><g id="house_3" data-name="house 3"><path d="M29.65,13.24,27,11V6a1,1,0,0,0-1-1H19.93L16.65,2.24a1,1,0,0,0-1.3,0L12.07,5H6A1,1,0,0,0,5,6v5L2.35,13.24A1,1,0,0,0,2,14v4a1,1,0,0,0,1.65.76l.35-.3V29a1,1,0,0,0,1,1H27a1,1,0,0,0,1-1V18.46l.35.3A1,1,0,0,0,29,19a1,1,0,0,0,1-1V14A1,1,0,0,0,29.65,13.24ZM25,7V9.31L22.28,7ZM7,7H9.72L7,9.31ZM17,9.16l2.94,2.48L17,14.59Zm-2,5.43-2.94-2.95L15,9.16Zm-4.47-1.65L13.59,16H6.91ZM15,28V25h2v3Zm11,0H19V24a1,1,0,0,0-1-1H14a1,1,0,0,0-1,1v4H6V18H26ZM18.41,16l3.06-3.06L25.09,16ZM28,15.84,16.65,6.24a1,1,0,0,0-1.3,0L4,15.84V14.46L16,4.31,28,14.46Z"/><path d="M11,19H8a1,1,0,0,0-1,1v3a1,1,0,0,0,1,1h3a1,1,0,0,0,1-1V20A1,1,0,0,0,11,19Zm-1,3H9V21h1Z"/><path d="M21,24h3a1,1,0,0,0,1-1V20a1,1,0,0,0-1-1H21a1,1,0,0,0-1,1v3A1,1,0,0,0,21,24Zm1-3h1v1H22Z"/></g></svg>