<svg fill="currentColor" xmlns="http://www.w3.org/2000/svg" viewBox="0 0 32 32"><g id="house"><path d="M30,14.73,28,7.86V4a1,1,0,0,0-1-1H24a1,1,0,0,0-1,1V7H5a1,1,0,0,0-1,.73l-2,7a1,1,0,0,0,.16.87A1,1,0,0,0,3,16H4V28a1,1,0,0,0,1,1H27a1,1,0,0,0,1-1V16h1a1,1,0,0,0,.8-.4A1,1,0,0,0,30,14.73ZM25,5h1V7H25ZM5.75,9h20.5l1.42,5H4.33ZM17,18V16h3v2Zm-5,0V16h3v2Zm-2-2v2H6V16ZM22,27H19V23h3Zm2,0V22a1,1,0,0,0-1-1H18a1,1,0,0,0-1,1v5H6V20H26v7Zm2-9H22V16h4Z"/><path d="M14,21H8a1,1,0,0,0-1,1v3a1,1,0,0,0,1,1h6a1,1,0,0,0,1-1V22A1,1,0,0,0,14,21Zm-1,3H9V23h4Z"/></g></svg>