<svg fill="currentColor" xmlns="http://www.w3.org/2000/svg" viewBox="0 0 32 32"><g id="house_2" data-name="house 2"><path d="M24,5a1,1,0,0,0-1,1V7L16.6,2.2a1,1,0,0,0-1.2,0L9,7V6A1,1,0,0,0,7,6V29a1,1,0,0,0,1,1H24a1,1,0,0,0,1-1V6A1,1,0,0,0,24,5ZM9,10H23v8H9Zm7-5.75L21,8H11ZM19,28H13V24.52a.52.52,0,0,1,.52-.52h5a.52.52,0,0,1,.52.52Zm2,0V24.52A2.52,2.52,0,0,0,18.48,22h-5A2.52,2.52,0,0,0,11,24.52V28H9V20H23v8Z"/><path d="M14,11H11a1,1,0,0,0-1,1v3a1,1,0,0,0,1,1h3a1,1,0,0,0,1-1V12A1,1,0,0,0,14,11Zm-1,3H12V13h1Z"/><path d="M21,11H18a1,1,0,0,0-1,1v3a1,1,0,0,0,1,1h3a1,1,0,0,0,1-1V12A1,1,0,0,0,21,11Zm-1,3H19V13h1Z"/></g></svg>