<svg fill="currentColor" xmlns="http://www.w3.org/2000/svg" viewBox="0 0 32 32"><g id="hut"><path d="M29.92,13.61a1,1,0,0,0-.21-.32L20.12,3.71a5.82,5.82,0,0,0-8.24,0L2.29,13.29a1,1,0,0,0-.21.32A1.09,1.09,0,0,0,2,14v2a1,1,0,0,0,2,0V15H6V27a1,1,0,0,0,1,1H25a1,1,0,0,0,1-1V15h2v1a1,1,0,0,0,2,0V14A1.09,1.09,0,0,0,29.92,13.61ZM13.29,5.12a3.94,3.94,0,0,1,5.42,0L26.59,13H5.41ZM13,26V21h6v5Zm11,0H21V20a1,1,0,0,0-1-1H12a1,1,0,0,0-1,1v6H8V15h2v1a1,1,0,0,0,2,0V15h3v1a1,1,0,0,0,2,0V15h3v1a1,1,0,0,0,2,0V15h2Z"/></g></svg>