<svg fill="currentColor" xmlns="http://www.w3.org/2000/svg" viewBox="0 0 32 32"><g id="mansion_2" data-name="mansion 2"><path d="M30,19.84a.88.88,0,0,0,0-.16l-2-6A1,1,0,0,0,27,13H22V10h1a1,1,0,0,0,.65-1.76l-7-6a1,1,0,0,0-1.3,0l-7,6A1,1,0,0,0,9,10h1v3H5a1,1,0,0,0-1,.68l-2,6a.88.88,0,0,0,0,.16A.76.76,0,0,0,2,20v9a1,1,0,0,0,1,1H29a1,1,0,0,0,1-1V20A.76.76,0,0,0,30,19.84ZM26.28,15l1.33,4H22V15ZM16,4.32,20.3,8H11.7ZM20,10v7.59l-3.29-3.3a1,1,0,0,0-1.42,0L12,17.59V10ZM5.72,15H10v4H4.39ZM18,28H14V24.14a.14.14,0,0,1,.14-.14h3.72a.14.14,0,0,1,.14.14Zm10,0H20V24.14A2.14,2.14,0,0,0,17.86,22H14.14A2.14,2.14,0,0,0,12,24.14V28H4V21h7a1.09,1.09,0,0,0,.39-.08,1,1,0,0,0,.32-.21L16,16.41l4.29,4.3a1,1,0,0,0,.32.21A1.09,1.09,0,0,0,21,21h7Z"/><path d="M9,22H6a1,1,0,0,0-1,1v3a1,1,0,0,0,1,1H9a1,1,0,0,0,1-1V23A1,1,0,0,0,9,22ZM8,25H7V24H8Z"/><path d="M23,27h3a1,1,0,0,0,1-1V23a1,1,0,0,0-1-1H23a1,1,0,0,0-1,1v3A1,1,0,0,0,23,27Zm1-3h1v1H24Z"/><path d="M16,13a1,1,0,0,0,0-2h0a1,1,0,1,0,0,2Z"/><path d="M16,19h0a1,1,0,1,0,1,1A1,1,0,0,0,16,19Z"/></g></svg>