<svg fill="currentColor" xmlns="http://www.w3.org/2000/svg" viewBox="0 0 32 32"><g id="mansion"><path d="M28.2,11H28V8a1,1,0,0,0-1-1H26V6a1,1,0,0,0-2,0V7H23a1,1,0,0,0-1,1v3H19.62L16.89,5.55a1,1,0,0,0-1.78,0L12.38,11H10V8A1,1,0,0,0,9,7H8V6A1,1,0,0,0,6,6V7H5A1,1,0,0,0,4,8v3H3.8A1.81,1.81,0,0,0,2,12.8V29a1,1,0,0,0,1,1H29a1,1,0,0,0,1-1V12.8A1.81,1.81,0,0,0,28.2,11ZM24,9h2v2H24Zm4,4v4H22.62l-2-4ZM6,9H8v2H6Zm5.38,4-2,4H4V13ZM4,19H9v9H4Zm14,9H14V21a2,2,0,0,1,4,0Zm2,0V21a4,4,0,0,0-8,0v7H11V18.24l5-10,5,10V28Zm3,0V19h5v9Z"/></g></svg>