<svg fill="currentColor" xmlns="http://www.w3.org/2000/svg" viewBox="0 0 32 32"><g id="modern_house_2" data-name="modern house 2"><path d="M27.66,9.75A1,1,0,0,0,28,9V6a1,1,0,0,0-.86-1l-22-3A1,1,0,0,0,4,3V6a1,1,0,0,0,.86,1L5,7v9a1,1,0,0,0-1,1V29a1,1,0,0,0,1,1H27a1,1,0,0,0,1-1V17a1,1,0,0,0-1-1V10A1,1,0,0,0,27.66,9.75ZM26,6.87v1L16.16,6.51,6.15,5A.76.76,0,0,0,6,5V4.15ZM13,28H9V22h4Zm13,0H15V21.87A1.87,1.87,0,0,0,13.13,20H8.87A1.87,1.87,0,0,0,7,21.87V28H6V18H26ZM22,16H17V12.15l5,.72Zm-7,0H10V11.15l5,.72Zm9,0V12a1,1,0,0,0-.86-1l-14-2a1,1,0,0,0-.8.23A1,1,0,0,0,8,10v6H7V7.28l8.88,1.21L25,9.86V16Z"/><path d="M16,20v6a1,1,0,0,0,1,1h7a1,1,0,0,0,1-1V20a1,1,0,0,0-1-1H17A1,1,0,0,0,16,20Zm2,1h5v4H18Z"/></g></svg>