<svg fill="currentColor" xmlns="http://www.w3.org/2000/svg" viewBox="0 0 32 32"><g id="shack"><path d="M30,12a1,1,0,0,0-1-1H22V4h1a1,1,0,0,0,0-2H3A1,1,0,0,0,3,4H4V29a1,1,0,0,0,2,0V24h8v5a1,1,0,0,0,2,0V28h4v1a1,1,0,0,0,2,0V24h6v5a1,1,0,0,0,2,0V19a1.1,1.1,0,0,0-.11-.44,1.05,1.05,0,0,0,.11-.43ZM20,22H16V20h4Zm8-4.87H26V13h2ZM24,13v4.13H22V13ZM20,4V18H6V4ZM6,22V20h8v2Zm14,4H16V24h4Zm2-4V20h6v2Z"/><path d="M8.81,14h4.38A1.81,1.81,0,0,0,15,12.19V6.81A1.81,1.81,0,0,0,13.19,5H8.81A1.81,1.81,0,0,0,7,6.81v5.38A1.81,1.81,0,0,0,8.81,14ZM9,12V11h4v1Zm4-5V9H9V7Z"/></g></svg>