<svg fill="currentColor" xmlns="http://www.w3.org/2000/svg" viewBox="0 0 32 32"><g id="stilt_house" data-name="stilt house"><path d="M28.58,13.91A1,1,0,0,0,29,14a1,1,0,0,0,.54-.16A1,1,0,0,0,30,13V9a1,1,0,0,0-.58-.91l-13-6a1,1,0,0,0-.84,0l-13,6A1,1,0,0,0,2,9v4a1,1,0,0,0,.46.84,1,1,0,0,0,1,.07L4,13.64V17H3a1,1,0,0,0,0,2H4v2H3a1,1,0,0,0-1,1v3a1,1,0,0,0,1,1H5v3a1,1,0,0,0,1,1H9a1,1,0,0,0,1-1V26H22v3a1,1,0,0,0,1,1h3a1,1,0,0,0,1-1V26h2a1,1,0,0,0,1-1V22a1,1,0,0,0-1-1H28V19h1a1,1,0,0,0,0-2H28V13.64ZM4,9.64,16,4.1,28,9.64v1.8L16.42,6.09a1,1,0,0,0-.84,0L4,11.44ZM6,19H7v2H6Zm5,0v2H9V19Zm2-5,6,0v3H13Zm8,7V19h2v2Zm-2,0H17V19h2Zm-4-2v2H13V19ZM8,28H7V26H8Zm17,0H24V26h1Zm3-4H4V23H28Zm-2-3H25V19h1Zm0-8v4H21V14a2,2,0,0,0-2-2H13a2,2,0,0,0-2,2v3H6V13a1.19,1.19,0,0,0,0-.26L16,8.1l10.05,4.64A1.19,1.19,0,0,0,26,13Z"/></g></svg>