<svg fill="currentColor" xmlns="http://www.w3.org/2000/svg" viewBox="0 0 32 32"><g id="tower"><path d="M25,2H21a1,1,0,0,0-1,1V4H19V3a1,1,0,0,0-1-1H14a1,1,0,0,0-1,1V4H12V3a1,1,0,0,0-1-1H7A1,1,0,0,0,6,3V29a1,1,0,0,0,1,1H25a1,1,0,0,0,1-1V3A1,1,0,0,0,25,2ZM10,4V5a1,1,0,0,0,1,1h3a1,1,0,0,0,1-1V4h2V5a1,1,0,0,0,1,1h3a1,1,0,0,0,1-1V4h2V8H8V4Zm9,24H13V24h6Zm5,0H21V23a1,1,0,0,0-1-1H12a1,1,0,0,0-1,1v5H8V10h3v1a1,1,0,0,0,2,0V10h2v1a1,1,0,0,0,2,0V10h2v1a1,1,0,0,0,2,0V10h3Z"/><path d="M18,14H14a1,1,0,0,0-1,1v4a1,1,0,0,0,1,1h4a1,1,0,0,0,1-1V15A1,1,0,0,0,18,14Zm-1,4H15V16h2Z"/></g></svg>