<svg fill="currentColor" xmlns="http://www.w3.org/2000/svg" viewBox="0 0 32 32"><g id="traditional_house" data-name="traditional house"><path d="M29,26a1,1,0,0,0,0-2H27V14h2a1,1,0,0,0,0-2H27.34a5.5,5.5,0,0,1-1.5-1.54A5.68,5.68,0,0,1,25,7.06,1,1,0,0,0,24,6H17.15A9.23,9.23,0,0,1,17,4.61c0-.21,0-.42,0-.64a1,1,0,0,0-2,0c0,.22,0,.43,0,.64A9.23,9.23,0,0,1,14.85,6H8A1,1,0,0,0,7,7.06a5.68,5.68,0,0,1-.84,3.4A5.5,5.5,0,0,1,4.66,12H3a1,1,0,0,0,0,2H5V24H3a1,1,0,0,0,0,2H4v1H3a1,1,0,0,0,0,2H29a1,1,0,0,0,0-2H28V26ZM23,8a7.56,7.56,0,0,0,1.15,3.54c.1.15.2.31.31.46H20.4a10.46,10.46,0,0,1-2.49-3.41c-.08-.19-.15-.39-.23-.59ZM16,9.21l.09.2A12.35,12.35,0,0,0,17.68,12H14.32a12.35,12.35,0,0,0,1.59-2.59ZM7.84,11.54A7.56,7.56,0,0,0,9,8h5.33c-.08.2-.15.4-.23.59A10.46,10.46,0,0,1,11.6,12H7.53C7.64,11.85,7.74,11.69,7.84,11.54ZM7,14H25V24H24V17a1,1,0,0,0-1-1H9a1,1,0,0,0-1,1v7H7ZM21,24V22h1v2Zm-4,0V22h2v2Zm-4,0V22h2v2Zm-3,0V22h1v2Zm5-6v2H13V18Zm4,0v2H17V18Zm3,0v2H21V18ZM11,20H10V18h1Zm15,7H6V26H26Z"/></g></svg>