<svg fill="currentColor" xmlns="http://www.w3.org/2000/svg" viewBox="0 0 32 32"><g id="warehouse"><path d="M28.63,7.73,17,2.35a2.36,2.36,0,0,0-2,0L3.37,7.73A2.36,2.36,0,0,0,2,9.87V27.64A2.36,2.36,0,0,0,4.36,30H27.64A2.36,2.36,0,0,0,30,27.64V9.87A2.36,2.36,0,0,0,28.63,7.73ZM23,22H9V21H23ZM9,24H23v1H9Zm14-5H9V18H23ZM9,28V27H23v1Zm19-.36a.36.36,0,0,1-.36.36H25V17a1,1,0,0,0-1-1H8a1,1,0,0,0-1,1V28H4.36A.36.36,0,0,1,4,27.64V9.87a.36.36,0,0,1,.21-.33L15.85,4.17l.15,0a.4.4,0,0,1,.15,0L27.79,9.54a.36.36,0,0,1,.21.33Z"/><path d="M20,7H12a1,1,0,0,0-1,1v5a1,1,0,0,0,1,1h8a1,1,0,0,0,1-1V8A1,1,0,0,0,20,7Zm-1,5H13V9h6Z"/></g></svg>