<svg fill="currentColor" xmlns="http://www.w3.org/2000/svg" viewBox="0 0 32 32"><g id="yurt"><path d="M29,11a.94.94,0,0,0-.06-.29s0,0,0-.06a1,1,0,0,0-.16-.26L22.43,3.12A3.27,3.27,0,0,0,20,2H12A3.27,3.27,0,0,0,9.57,3.12L3.25,10.34a1,1,0,0,0-.16.26s0,0,0,.06A.94.94,0,0,0,3,11S3,11,3,11V29a1,1,0,0,0,2,0V27H9v2a1,1,0,0,0,2,0V27h4v2a1,1,0,0,0,2,0V27h4v2a1,1,0,0,0,2,0V27h4v2a1,1,0,0,0,2,0V11S29,11,29,11ZM20,25V21h7v4Zm-6,0V21h4v4ZM5,12H27v7H20V15a1,1,0,0,0-1-1H13a1,1,0,0,0-1,1v4H5ZM17,5.66,20.8,10H17ZM15,10H11.2L15,5.66Zm-1,6h4v3H14ZM20.93,4.43,25.8,10H23.45L18.2,4H20A1.32,1.32,0,0,1,20.93,4.43Zm-9.86,0A1.3,1.3,0,0,1,12,4H13.8L8.55,10H6.2ZM5,21h7v4H5Z"/></g></svg>