<?xml version="1.0" encoding="UTF-8"?><svg fill="currentColor" xmlns="http://www.w3.org/2000/svg" viewBox="0 0 24 24"><g id="g"><path d="M16,2.25H8c-.96,0-1.75,.79-1.75,1.75v3c0,.96,.79,1.75,1.75,1.75h.25v11.25c0,.96,.79,1.75,1.75,1.75h4c.96,0,1.75-.79,1.75-1.75V8.75h.25c.96,0,1.75-.79,1.75-1.75v-3c0-.96-.79-1.75-1.75-1.75Zm-6.25,13.39l4.5-.75v1.48l-4.5,.75v-1.48Zm4.5-2.27l-4.5,.75v-1.48l4.5-.75v1.48Zm-.25,6.89h-4c-.14,0-.25-.11-.25-.25v-1.36l4.5-.75v2.11c0,.14-.11,.25-.25,.25Zm.25-9.89l-4.5,.75v-2.36h4.5v1.61Zm2-3.36c0,.14-.11,.25-.25,.25H8c-.14,0-.25-.11-.25-.25v-3c0-.14,.11-.25,.25-.25h8c.14,0,.25,.11,.25,.25v3Z"/></g></svg>