<?xml version="1.0" encoding="UTF-8"?><svg fill="currentColor" xmlns="http://www.w3.org/2000/svg" viewBox="0 0 24 24"><g id="p"><path d="M20,15.25h-1.25v-2.25c0-.96-.79-1.75-1.75-1.75h-1.25v-2.25c0-.96-.79-1.75-1.75-1.75h-1.25v-2.25c0-.96-.79-1.75-1.75-1.75H4c-.96,0-1.75,.79-1.75,1.75v14c0,.96,.79,1.75,1.75,1.75H20c.96,0,1.75-.79,1.75-1.75v-2c0-.96-.79-1.75-1.75-1.75Zm-2.75-2.25v2.25h-4.5v-2.5h4.25c.14,0,.25,.11,.25,.25Zm-8.25,2.25h-2.25v-2.5h4.5v2.5h-2.25Zm-5.25,0v-2.5h1.5v2.5h-1.5Zm2.25-6.5h2.25v2.5H3.75v-2.5h2.25Zm8.25,.25v2.25h-4.5v-2.5h4.25c.14,0,.25,.11,.25,.25Zm-3-4v2.25H6.75v-2.5h4.25c.14,0,.25,.11,.25,.25Zm-7.5,0c0-.14,.11-.25,.25-.25h1.25v2.5h-1.5v-2.25Zm0,14v-2.25h4.5v2.5H4c-.14,0-.25-.11-.25-.25Zm6-2.25h4.5v2.5h-4.5v-2.5Zm10.5,2.25c0,.14-.11,.25-.25,.25h-4.25v-2.5h4.25c.14,0,.25,.11,.25,.25v2Z"/></g></svg>