<?xml version="1.0" encoding="UTF-8"?><svg fill="currentColor" xmlns="http://www.w3.org/2000/svg" viewBox="0 0 24 24"><g id="u"><path d="M21,17.25h-1c-.14,0-.25-.11-.25-.25v-5c0-.41-.34-.75-.75-.75s-.75,.34-.75,.75v3.25h-1.62c-.26-.91-.97-1.62-1.88-1.88v-3.7c0-.59-.2-1.18-.55-1.65l-2-2.67c-.52-.69-1.34-1.1-2.2-1.1H6c-.96,0-1.75,.79-1.75,1.75v7.37c-1.15,.33-2,1.38-2,2.63,0,1.52,1.23,2.75,2.75,2.75H14c1.25,0,2.3-.85,2.63-2h1.62v.25c0,.96,.79,1.75,1.75,1.75h1c.41,0,.75-.34,.75-.75s-.34-.75-.75-.75ZM11,6.25l2,2.67c.08,.1,.13,.21,.17,.33h-3.17c-.69,0-1.25-.56-1.25-1.25v-2.25h1.25c.39,0,.77,.19,1,.5Zm-5.25-.25c0-.14,.11-.25,.25-.25h1.25v2.25c0,1.52,1.23,2.75,2.75,2.75h3.25v2.5H5.75V6Zm8.25,11.25H5c-.69,0-1.25-.56-1.25-1.25s.56-1.25,1.25-1.25H14c.69,0,1.25,.56,1.25,1.25s-.56,1.25-1.25,1.25Z"/></g></svg>