<?xml version="1.0" encoding="UTF-8"?><svg fill="currentColor" xmlns="http://www.w3.org/2000/svg" viewBox="0 0 24 24"><g id="e"><g><path d="M19.15,18.22h0c0-.15,.09-.89,.17-1.61,.18-1.55,.42-3.66,.42-4.61,0-1.3-.27-3.49-.45-4.94-.08-.63-.14-1.1-.14-1.25-.02-.74,.22-1.3,.4-1.75,.19-.45,.45-1.08-.02-1.57-.47-.5-1.1-.26-1.56-.1-.46,.17-1.04,.39-1.82,.33-.12,0-.47-.06-.93-.12-1.39-.18-2.69-.35-3.24-.35-.82,0-2.3,.2-3.63,.39-.28,.04-.49,.07-.58,.08-.74,.07-1.31-.15-1.77-.32-.46-.18-1.09-.42-1.57,.08-.47,.5-.21,1.12-.02,1.57,.19,.44,.42,1,.41,1.73,0,.15-.09,.89-.17,1.61-.18,1.55-.42,3.66-.42,4.61,0,1.3,.27,3.49,.45,4.94,.08,.63,.14,1.1,.14,1.25,.02,.74-.22,1.3-.4,1.75-.19,.45-.45,1.08,.02,1.57,.21,.22,.46,.3,.71,.3,.3,0,.6-.11,.85-.21,.46-.17,1.03-.39,1.82-.33,.12,0,.47,.06,.93,.12,1.39,.18,2.69,.35,3.24,.35,.82,0,2.3-.2,3.63-.39,.28-.04,.49-.07,.58-.08,.74-.07,1.31,.15,1.77,.32,.46,.18,1.09,.42,1.57-.08,.47-.5,.21-1.12,.02-1.57-.19-.44-.42-1-.41-1.73Zm-1.32-1.79c-.12,1-.18,1.54-.18,1.75-.02,.74,.14,1.35,.31,1.82-.5-.16-1.13-.3-1.91-.22-.09,0-.32,.04-.64,.09-.92,.13-2.64,.38-3.42,.38-.5,0-2.09-.21-3.05-.34-.5-.07-.88-.12-1.01-.13-.13,0-.25-.01-.38-.01-.62,0-1.13,.12-1.54,.24,.18-.48,.34-1.1,.32-1.86,0-.19-.05-.59-.15-1.4-.17-1.41-.44-3.55-.44-4.76,0-.86,.25-3.01,.41-4.43,.12-1.01,.18-1.54,.18-1.75,.02-.74-.14-1.35-.31-1.82,.5,.16,1.13,.3,1.91,.22,.09,0,.32-.04,.64-.09,.92-.13,2.64-.38,3.42-.38,.5,0,2.09,.21,3.05,.34,.5,.07,.88,.12,1.01,.13,.79,.06,1.43-.08,1.92-.23-.18,.48-.34,1.1-.32,1.86,0,.19,.05,.59,.15,1.4,.17,1.41,.44,3.55,.44,4.76,0,.86-.25,3.01-.41,4.43Z"/><path d="M12,8.25c-2.07,0-3.75,1.68-3.75,3.75s1.68,3.75,3.75,3.75,3.75-1.68,3.75-3.75-1.68-3.75-3.75-3.75Zm0,6c-1.24,0-2.25-1.01-2.25-2.25s1.01-2.25,2.25-2.25,2.25,1.01,2.25,2.25-1.01,2.25-2.25,2.25Z"/><path d="M10,6.75h4c.41,0,.75-.34,.75-.75s-.34-.75-.75-.75h-4c-.41,0-.75,.34-.75,.75s.34,.75,.75,.75Z"/><path d="M14,17.25h-4c-.41,0-.75,.34-.75,.75s.34,.75,.75,.75h4c.41,0,.75-.34,.75-.75s-.34-.75-.75-.75Z"/></g></g></svg>