<?xml version="1.0" encoding="UTF-8"?><svg fill="currentColor" xmlns="http://www.w3.org/2000/svg" viewBox="0 0 24 24"><g id="d"><g><path d="M21,20.25h-.25v-4.5h.25c.41,0,.75-.34,.75-.75s-.34-.75-.75-.75h-2.73l-4.76-3.97c.59-.39,1.03-1,1.18-1.69,.29-1.37-.49-2.75-1.8-3.19-.07-.03-.13-.14-.13-.27v-1.38h.25c.41,0,.75-.34,.75-.75s-.34-.75-.75-.75h-2c-.41,0-.75,.34-.75,.75s.34,.75,.75,.75h.25v1.38c0,.77,.46,1.45,1.15,1.69,.52,.18,.97,.74,.82,1.46-.09,.44-.46,.82-.89,.93-.69,.17-1.19-.21-1.41-.58-.21-.36-.67-.48-1.02-.27-.36,.21-.48,.67-.27,1.03,.22,.38,.53,.68,.87,.91l-4.76,3.97H3c-.41,0-.75,.34-.75,.75s.34,.75,.75,.75h.25v4.5h-.25c-.41,0-.75,.34-.75,.75s.34,.75,.75,.75H21c.41,0,.75-.34,.75-.75s-.34-.75-.75-.75ZM12,10.98l3.93,3.27h-7.86l3.93-3.27Zm-7.25,9.27v-4.5h14.5v4.5H4.75Z"/><path d="M12.02,17.25h-.01c-.41,0-.74,.34-.74,.75s.34,.75,.75,.75,.75-.34,.75-.75-.34-.75-.75-.75Z"/><path d="M16.02,17.25h0c-.41,0-.75,.34-.75,.75s.34,.75,.75,.75,.75-.34,.75-.75-.33-.75-.75-.75Z"/><path d="M8.02,17.25h-.01c-.41,0-.74,.34-.74,.75s.34,.75,.75,.75,.75-.34,.75-.75-.34-.75-.75-.75Z"/></g></g></svg>