<?xml version="1.0" encoding="UTF-8"?><svg fill="currentColor" xmlns="http://www.w3.org/2000/svg" viewBox="0 0 24 24"><g id="b"><g><path d="M21.17,9.13l-.9-.9c.5-.59,.79-1.32,.79-2.1,0-.87-.34-1.68-.95-2.3-1.17-1.17-3.15-1.21-4.4-.16l-.9-.9c-.68-.68-1.79-.68-2.47,0l-1.91,1.91c-.25,.25-.41,.56-.48,.89l-.59,2.95s-.03,.09-.07,.13L3.5,14.43c-1.66,1.66-1.66,4.35,0,6.01,.8,.8,1.87,1.24,3,1.24s2.2-.44,3-1.24l5.8-5.8s.08-.06,.13-.07l2.94-.59c.34-.07,.65-.23,.89-.48l1.91-1.91c.68-.68,.68-1.79,0-2.47Zm-2.12-4.24c.33,.33,.51,.77,.51,1.24,0,.38-.12,.75-.35,1.05l-2.45-2.45c.67-.5,1.68-.44,2.29,.16Zm-3.92,8.22c-.34,.07-.65,.23-.89,.48l-5.8,5.8c-1.07,1.07-2.82,1.07-3.89,0-.52-.52-.81-1.21-.81-1.95s.29-1.42,.81-1.94l5.8-5.8c.25-.25,.41-.56,.48-.89l.14-.69,4.85,4.85-.69,.14Zm4.98-2.56l-1.91,1.91s-.08,.06-.13,.07l-.49,.1-6.27-6.27,.1-.49s.03-.09,.07-.13l1.91-1.91s.11-.07,.18-.07,.13,.02,.18,.07l1.41,1.41,3.54,3.54,1.41,1.41c.1,.1,.1,.26,0,.35Z"/><path d="M5.62,16.55c-.49,.49-.49,1.28,0,1.77,.24,.24,.56,.36,.88,.36s.64-.12,.88-.36c.49-.49,.49-1.28,0-1.77-.49-.49-1.28-.49-1.77,0Zm1.06,1.06c-.1,.1-.26,.1-.35,0-.1-.1-.1-.25,0-.35,.05-.05,.11-.07,.17-.07s.13,.02,.18,.07c.1,.1,.1,.26,0,.35Z"/></g></g></svg>