<?xml version="1.0" encoding="UTF-8"?><svg fill="currentColor" xmlns="http://www.w3.org/2000/svg" viewBox="0 0 24 24"><g id="s"><g><path d="M19.97,4.08l-2.3-1.54c-.29-.19-.62-.29-.97-.29H7.3c-.35,0-.68,.1-.97,.29l-2.3,1.54c-.49,.33-.78,.87-.78,1.46v4.93c0,.59,.29,1.13,.78,1.46l2.3,1.54c.29,.19,.62,.29,.97,.29h1.95v6.25c0,.96,.79,1.75,1.75,1.75h2c.96,0,1.75-.79,1.75-1.75v-6.25h1.95c.35,0,.68-.1,.97-.29l2.3-1.54c.49-.33,.78-.87,.78-1.46V5.54c0-.59-.29-1.13-.78-1.46Zm-6.72,15.92c0,.14-.11,.25-.25,.25h-2c-.14,0-.25-.11-.25-.25v-6.25h2.5v6.25Zm6-9.54c0,.08-.04,.16-.11,.21l-2.3,1.54s-.09,.04-.14,.04H7.3s-.1-.02-.14-.04l-2.3-1.54c-.07-.05-.11-.12-.11-.21V5.54c0-.08,.04-.16,.11-.21l2.3-1.54s.09-.04,.14-.04h9.39s.1,.02,.14,.04l2.3,1.54c.07,.05,.11,.12,.11,.21v4.93Z"/><path d="M15,5.25h-6c-.41,0-.75,.34-.75,.75s.34,.75,.75,.75h6c.41,0,.75-.34,.75-.75s-.34-.75-.75-.75Z"/><path d="M15,8.25h-6c-.41,0-.75,.34-.75,.75s.34,.75,.75,.75h6c.41,0,.75-.34,.75-.75s-.34-.75-.75-.75Z"/></g></g></svg>