<?xml version="1.0" encoding="UTF-8"?><svg fill="currentColor" xmlns="http://www.w3.org/2000/svg" viewBox="0 0 24 24"><g id="t"><g><path d="M19,14.25h-6c-.96,0-1.75,.79-1.75,1.75v4c0,.96,.79,1.75,1.75,1.75h6c.96,0,1.75-.79,1.75-1.75v-4c0-.96-.79-1.75-1.75-1.75Zm.25,5.75c0,.14-.11,.25-.25,.25h-6c-.14,0-.25-.11-.25-.25v-4c0-.14,.11-.25,.25-.25h6c.14,0,.25,.11,.25,.25v4Z"/><path d="M21,4.75c.41,0,.75-.34,.75-.75s-.34-.75-.75-.75H6c-1.52,0-2.75,1.23-2.75,2.75v14.25h-.25c-.41,0-.75,.34-.75,.75s.34,.75,.75,.75h6c.41,0,.75-.34,.75-.75s-.34-.75-.75-.75h-.25V4.75h6.5v1.94l-3.93,3.93c-.36,.36-.47,.89-.27,1.36s.65,.77,1.15,.77h7.59c.51,0,.96-.3,1.15-.77s.09-1-.27-1.36l-3.93-3.93v-1.94h4.25Zm-8.19,6.5l3.19-3.19,3.19,3.19h-6.38Zm-5.56,9h-2.5V6c0-.69,.56-1.25,1.25-1.25h1.25v15.5Z"/></g></g></svg>