<?xml version="1.0" encoding="UTF-8"?><svg fill="currentColor" xmlns="http://www.w3.org/2000/svg" viewBox="0 0 24 24"><g id="j"><path d="M17.95,12.58l-.83-1.24c.38-.32,.63-.8,.63-1.33V5c0-1.52-1.23-2.75-2.75-2.75h-1c-.41,0-.75,.34-.75,.75V7.25h-1.25c-.14,0-.25-.11-.25-.25V3c0-.41-.34-.75-.75-.75h-1c-1.52,0-2.75,1.23-2.75,2.75v5c0,.54,.25,1.01,.63,1.33l-.83,1.24c-.52,.78-.8,1.69-.8,2.63v4.29c0,1.24,1.01,2.25,2.25,2.25s2.25-1.01,2.25-2.25v-3.56c0-.5,.12-1,.34-1.45l1.37-2.74h.07l1.37,2.74c.22,.45,.34,.95,.34,1.45v3.56c0,1.24,1.01,2.25,2.25,2.25s2.25-1.01,2.25-2.25v-4.29c0-.94-.28-1.85-.8-2.63ZM14.75,3.75h.25c.69,0,1.25,.56,1.25,1.25v2.25h-1.5V3.75Zm-6,1.25c0-.69,.56-1.25,1.25-1.25h.25v3.25c0,.96,.79,1.75,1.75,1.75h4.25v1.25c0,.14-.11,.25-.25,.25h-7c-.14,0-.25-.11-.25-.25V5Zm1,8.82c-.33,.66-.5,1.39-.5,2.12v3.56c0,.41-.34,.75-.75,.75s-.75-.34-.75-.75v-4.29c0-.64,.19-1.27,.55-1.8l1.11-1.66h1.39l-1.04,2.07Zm7.5,5.68c0,.41-.34,.75-.75,.75s-.75-.34-.75-.75v-3.56c0-.73-.17-1.47-.5-2.12l-1.04-2.07h1.39l1.11,1.66c.36,.54,.55,1.16,.55,1.8v4.29Z"/></g></svg>