<?xml version="1.0" encoding="UTF-8"?><svg fill="currentColor" xmlns="http://www.w3.org/2000/svg" viewBox="0 0 24 24"><g id="c"><path d="M21,7.25c-.41,0-.75,.34-.75,.75v.25h-4.25c-2.62,0-4.75,2.13-4.75,4.75v2c0,.69-.56,1.25-1.25,1.25s-1.25-.56-1.25-1.25V6.7c.57-.12,1-.6,1-1.2V3.5c0-.69-.56-1.25-1.25-1.25H3.5c-.69,0-1.25,.56-1.25,1.25v2c0,.6,.43,1.08,1,1.2V15c0,3.72,3.03,6.75,6.75,6.75s6.75-3.03,6.75-6.75v-1c0-.14,.11-.25,.25-.25h3.25v.25c0,.41,.34,.75,.75,.75s.75-.34,.75-.75v-6c0-.41-.34-.75-.75-.75ZM4.75,13.47V6.75h2.5v7.37c-.85-.15-1.69-.37-2.5-.65ZM3.75,3.75h4.5v1.5H3.75v-1.5Zm6.25,16.5c-2.88,0-5.21-2.33-5.24-5.19,.84,.26,1.71,.46,2.58,.59,.29,1.2,1.37,2.1,2.67,2.1s2.36-.89,2.66-2.09c.87-.14,1.74-.33,2.58-.6-.03,2.87-2.37,5.19-5.24,5.19Zm7-8c-.77,0-1.41,.5-1.65,1.18-.85,.3-1.72,.54-2.6,.69v-1.13c0-1.79,1.46-3.25,3.25-3.25h4.25v2.5h-3.25Z"/></g></svg>