<?xml version="1.0" encoding="UTF-8"?><svg fill="currentColor" xmlns="http://www.w3.org/2000/svg" viewBox="0 0 24 24"><g id="h"><path d="M20,11.25h-1c-.96,0-1.75,.79-1.75,1.75v.25h-2.5v-3.31c0-.5,.12-1,.34-1.45l.37-.74h.54c.96,0,1.75-.79,1.75-1.75v-1c0-.96-.79-1.75-1.75-1.75H8c-.96,0-1.75,.79-1.75,1.75v1c0,.96,.79,1.75,1.75,1.75h.54l.37,.74c.22,.45,.34,.95,.34,1.45v3.31h-2.5v-.25c0-.96-.79-1.75-1.75-1.75h-1c-.96,0-1.75,.79-1.75,1.75v6c0,.96,.79,1.75,1.75,1.75h1c.96,0,1.75-.79,1.75-1.75v-.25h10.5v.25c0,.96,.79,1.75,1.75,1.75h1c.96,0,1.75-.79,1.75-1.75v-6c0-.96-.79-1.75-1.75-1.75ZM7.75,6v-1c0-.14,.11-.25,.25-.25h8c.14,0,.25,.11,.25,.25v1c0,.14-.11,.25-.25,.25H8c-.14,0-.25-.11-.25-.25Zm12.5,13c0,.14-.11,.25-.25,.25h-1c-.14,0-.25-.11-.25-.25v-.5c0-.69-.56-1.25-1.25-1.25H6c-.41,0-.75,.34-.75,.75v1c0,.14-.11,.25-.25,.25h-1c-.14,0-.25-.11-.25-.25v-6c0-.14,.11-.25,.25-.25h1c.14,0,.25,.11,.25,.25v.5c0,.69,.56,1.25,1.25,1.25h3c.69,0,1.25-.56,1.25-1.25v-3.56c0-.73-.17-1.47-.5-2.13l-.04-.07h3.57l-.04,.07c-.33,.66-.5,1.39-.5,2.12v3.56c0,.69,.56,1.25,1.25,1.25h3c.69,0,1.25-.56,1.25-1.25v-.5c0-.14,.11-.25,.25-.25h1c.14,0,.25,.11,.25,.25v6Z"/></g></svg>