<?xml version="1.0" encoding="UTF-8"?><svg fill="currentColor" xmlns="http://www.w3.org/2000/svg" viewBox="0 0 24 24"><g id="f"><g><path d="M20,2.25H7c-2.62,0-4.75,2.13-4.75,4.75v5c0,.96,.79,1.75,1.75,1.75h1.19l-.72,.72c-.17,.17-.25,.41-.21,.65s.19,.44,.4,.55l1.07,.53-1.26,1.26c-.17,.17-.25,.41-.21,.65s.19,.44,.4,.55l1.07,.53-1.26,1.26c-.21,.21-.28,.54-.16,.82s.39,.46,.69,.46h5c.41,0,.75-.34,.75-.75v-7.25h9.25c.96,0,1.75-.79,1.75-1.75V4c0-.96-.79-1.75-1.75-1.75ZM9.25,20.25h-2.44l.72-.72c.17-.17,.25-.41,.21-.65s-.19-.44-.4-.55l-1.07-.53,1.26-1.26c.17-.17,.25-.41,.21-.65s-.19-.44-.4-.55l-1.07-.53,1.04-1.04h1.94v6.5Zm11-8.25c0,.14-.11,.25-.25,.25H4c-.14,0-.25-.11-.25-.25V7c0-1.79,1.46-3.25,3.25-3.25h13c.14,0,.25,.11,.25,.25V12Z"/><path d="M17,5.25h-5c-.96,0-1.75,.79-1.75,1.75v2c0,.96,.79,1.75,1.75,1.75h5c.96,0,1.75-.79,1.75-1.75v-2c0-.96-.79-1.75-1.75-1.75Zm.25,3.75c0,.14-.11,.25-.25,.25h-5c-.14,0-.25-.11-.25-.25v-2c0-.14,.11-.25,.25-.25h5c.14,0,.25,.11,.25,.25v2Z"/><path d="M8,9.25h-2c-.41,0-.75,.34-.75,.75s.34,.75,.75,.75h2c.41,0,.75-.34,.75-.75s-.34-.75-.75-.75Z"/><path d="M8,6.25h-2c-.41,0-.75,.34-.75,.75s.34,.75,.75,.75h2c.41,0,.75-.34,.75-.75s-.34-.75-.75-.75Z"/></g></g></svg>