<?xml version="1.0" encoding="UTF-8"?><svg fill="currentColor" xmlns="http://www.w3.org/2000/svg" viewBox="0 0 24 24"><g id="q"><path d="M20.65,13.38c.06-.15,.09-.31,.1-.47,0-.37-.16-.73-.43-.99l-.9-.83s-.08-.2-.07-.26l.38-1.17c.12-.36,.08-.75-.11-1.07-.18-.32-.5-.55-.87-.64l-1.2-.27c-.06-.02-.17-.13-.19-.19l-.26-1.2c-.08-.37-.31-.69-.63-.88-.32-.19-.71-.23-1.07-.12l-1.17,.37c-.07,.02-.21-.02-.26-.07l-.82-.91c-.25-.28-.61-.44-.98-.44h0c-.37,0-.73,.16-.98,.44l-.83,.9s-.2,.09-.26,.07l-1.17-.38c-.36-.12-.75-.08-1.07,.11-.32,.18-.55,.5-.64,.87l-.27,1.2c-.02,.06-.13,.17-.19,.19l-1.2,.26c-.37,.08-.69,.31-.88,.63s-.23,.71-.12,1.07l.37,1.17c.02,.06-.02,.21-.07,.26l-.91,.82c-.28,.25-.44,.61-.44,.98,0,.16,.03,.32,.09,.47-.77,.18-1.35,.87-1.35,1.7v4c0,.96,.79,1.75,1.75,1.75H20c.96,0,1.75-.79,1.75-1.75v-4c0-.73-.45-1.36-1.1-1.62Zm-14.79-1.24c.48-.43,.69-1.2,.5-1.82l-.31-1,1.02-.22c.63-.13,1.2-.69,1.34-1.33l.23-1.02,.99,.32c.62,.2,1.38,0,1.82-.48l.71-.77,.7,.77c.43,.48,1.2,.69,1.82,.5l1-.31,.22,1.02c.14,.63,.7,1.2,1.33,1.34l1.02,.23-.32,.99c-.2,.62,0,1.38,.48,1.82l.79,.72c-.07,.1-.1,.22-.11,.33h-3.34c0-.08,.02-.17,.02-.25,0-2.07-1.68-3.75-3.75-3.75s-3.75,1.68-3.75,3.75c0,.08,.02,.17,.02,.25h-3.08c0-.14-.04-.28-.11-.4l.79-.71Zm3.9,1.11c0-.08-.02-.17-.02-.25,0-1.24,1.01-2.25,2.25-2.25s2.25,1.01,2.25,2.25c0,.08-.01,.17-.02,.25h-4.46Zm10.48,5.75c0,.14-.11,.25-.25,.25H4c-.14,0-.25-.11-.25-.25v-4c0-.14,.11-.25,.25-.25H20c.14,0,.25,.11,.25,.25v4Z"/></g></svg>