<?xml version="1.0" encoding="UTF-8"?><svg fill="currentColor" xmlns="http://www.w3.org/2000/svg" viewBox="0 0 24 24"><g id="r"><g><path d="M21.21,7.03l-4.24-4.24c-.33-.33-.77-.51-1.24-.51h0c-.47,0-.91,.18-1.24,.51l-4.95,4.95c-.08,.08-.14,.18-.18,.29l-.65,1.95-.76,.76-.18-.18c-.29-.29-.77-.29-1.06,0s-.29,.77,0,1.06l.88,.88-5.13,5.13c-.14,.14-.22,.33-.22,.53v2.83c0,.41,.34,.75,.75,.75h2.83c.2,0,.39-.08,.53-.22l5.13-5.13,.88,.88c.15,.15,.34,.22,.53,.22s.38-.07,.53-.22c.29-.29,.29-.77,0-1.06l-.18-.18,.76-.76,1.95-.65c.11-.04,.21-.1,.29-.18l4.95-4.95c.33-.33,.51-.77,.51-1.24s-.18-.91-.51-1.24ZM5.52,20.25h-1.77v-1.77l4.91-4.91,1.77,1.77-4.91,4.91Zm14.63-11.8l-4.83,4.82-1.95,.65c-.11,.04-.21,.1-.29,.18l-.88,.88-1.59-1.59-1.41-1.41h0l-.18-.18,.88-.88c.08-.08,.14-.18,.18-.29l.65-1.95L15.55,3.85c.06-.06,.14-.07,.18-.07-.01,0,.11,0,.18,.07l4.24,4.24c.06,.06,.07,.14,.07,.18s0,.11-.07,.18Z"/><path d="M15.9,7.03l-4.24,4.24c-.29,.29-.29,.77,0,1.06,.15,.15,.34,.22,.53,.22s.38-.07,.53-.22l4.24-4.24c.29-.29,.29-.77,0-1.06s-.77-.29-1.06,0Z"/></g></g></svg>