<?xml version="1.0" encoding="UTF-8"?><svg fill="currentColor" xmlns="http://www.w3.org/2000/svg" viewBox="0 0 24 24"><g id="l"><g><path d="M12.53,8.53l2-2c.29-.29,.29-.77,0-1.06s-.77-.29-1.06,0l-2,2c-.29,.29-.29,.77,0,1.06,.15,.15,.34,.22,.53,.22s.38-.07,.53-.22Z"/><path d="M15,17.25c-.14,0-.25-.11-.25-.25v-2.84c2.35-1.06,4-3.42,4-6.16,0-3.72-3.03-6.75-6.75-6.75s-6.75,3.03-6.75,6.75c0,2.74,1.65,5.1,4,6.16v2.84c0,.14-.11,.25-.25,.25-1.52,0-2.75,1.23-2.75,2.75v1c0,.41,.34,.75,.75,.75h10c.41,0,.75-.34,.75-.75v-1c0-1.52-1.23-2.75-2.75-2.75ZM6.75,8c0-2.9,2.36-5.25,5.25-5.25s5.25,2.35,5.25,5.25-2.36,5.25-5.25,5.25-5.25-2.35-5.25-5.25Zm9.5,12.25H7.75v-.25c0-.69,.56-1.25,1.25-1.25,.96,0,1.75-.79,1.75-1.75v-2.37c.41,.08,.82,.12,1.25,.12s.84-.04,1.25-.12v2.37c0,.96,.79,1.75,1.75,1.75,.69,0,1.25,.56,1.25,1.25v.25Z"/></g></g></svg>