<?xml version="1.0" encoding="UTF-8"?><svg fill="currentColor" xmlns="http://www.w3.org/2000/svg" viewBox="0 0 24 24"><g id="o"><path d="M21.65,13.65s0-.03-.01-.04l-2.71-4.52c-.31-.52-.89-.85-1.5-.85h-4.68v-1.25c0-.96-.79-1.75-1.75-1.75H4c-.96,0-1.75,.79-1.75,1.75v4.46c0,.59,.29,1.13,.78,1.46l.57,.38c-.77,.18-1.35,.87-1.35,1.7v2c0,.96,.79,1.75,1.75,1.75h1.28c.13,1.12,1.07,2,2.22,2s2.1-.88,2.22-2h4.55c.13,1.12,1.07,2,2.22,2s2.1-.88,2.22-2h1.78c.69,0,1.25-.56,1.25-1.25v-3.5c0-.13-.04-.24-.1-.35Zm-4.01-3.78l2.03,3.38h-3.68c-.14,0-.25-.11-.25-.25v-3.25h1.68c.09,0,.17,.05,.21,.12ZM3.75,7c0-.14,.11-.25,.25-.25h7c.14,0,.25,.11,.25,.25v6.25H6.23l-2.37-1.58c-.07-.05-.11-.12-.11-.21V7Zm0,10v-2c0-.14,.11-.25,.25-.25h7.25v2.5h-1.88c-.4-.6-1.09-1-1.87-1s-1.46,.4-1.87,1h-1.63c-.14,0-.25-.11-.25-.25Zm3.75,2.25c-.41,0-.75-.34-.75-.75s.34-.75,.75-.75,.75,.34,.75,.75-.34,.75-.75,.75Zm9,0c-.41,0-.75-.34-.75-.75s.34-.75,.75-.75,.75,.34,.75,.75-.34,.75-.75,.75Zm1.87-2c-.4-.6-1.09-1-1.87-1s-1.46,.4-1.87,1h-1.88v-7.5h1.5v3.25c0,.96,.79,1.75,1.75,1.75h4.25v2.5h-1.88Z"/></g></svg>