<?xml version="1.0" encoding="UTF-8"?><svg fill="currentColor" xmlns="http://www.w3.org/2000/svg" viewBox="0 0 24 24"><g id="i"><path d="M20,3.25H4c-.96,0-1.75,.79-1.75,1.75v13c0,.96,.79,1.75,1.75,1.75H20c.96,0,1.75-.79,1.75-1.75V5c0-.96-.79-1.75-1.75-1.75ZM12,13.25h-.46c-.12-.57,.03-1.18,.21-1.83,.15-.53,.31-1.11,.28-1.67h3.22v3.5h-3.25Zm4.75-3.5h3.5v3.5h-3.5v-3.5Zm3.5-4.75v3.25h-7.5v-3.5h7.25c.14,0,.25,.11,.25,.25Zm-9,3.22c-.46-.34-.99-.4-1.44-.44-.47-.04-.92-.08-1.39-.4-.69-.48-.98-1.14-1.29-1.85-.11-.25-.23-.52-.37-.78h4.48v3.47Zm-7.25,10.03c-.14,0-.25-.11-.25-.25V5c0-.14,.11-.25,.25-.25h.83c.42,.23,.62,.67,.93,1.37,.34,.79,.77,1.78,1.82,2.5,.8,.55,1.56,.61,2.11,.65,.48,.04,.63,.07,.72,.19,.24,.3,.12,.79-.1,1.56-.26,.93-.58,2.08,0,3.27v.02s.02,.03,.03,.04c.75,1.47,2.43,2.03,3.43,2.37,.91,.31,1.66,.37,2.25,.42,.74,.06,1.12,.11,1.5,.43,.2,.18,.37,.4,.5,.68H4Zm16.25-.25c0,.14-.11,.25-.25,.25h-.41c-.22-.75-.58-1.37-1.1-1.82-.76-.66-1.53-.72-2.35-.79-.57-.05-1.16-.1-1.91-.35-.4-.13-.89-.3-1.35-.54h7.36v3.25Z"/></g></svg>