<?xml version="1.0" encoding="UTF-8"?><svg fill="currentColor" xmlns="http://www.w3.org/2000/svg" viewBox="0 0 24 24"><g id="k"><g><path d="M9.5,9.25c-1.79,0-3.25,1.46-3.25,3.25s1.46,3.25,3.25,3.25,3.25-1.46,3.25-3.25-1.46-3.25-3.25-3.25Zm0,5c-.96,0-1.75-.79-1.75-1.75s.79-1.75,1.75-1.75,1.75,.79,1.75,1.75-.79,1.75-1.75,1.75Z"/><path d="M21,7.25h-1.25v-2.25c0-.41-.34-.75-.75-.75s-.75,.34-.75,.75v.25H10s-.04,.01-.06,.01h0c-4-.24-7.43,2.81-7.67,6.8-.12,1.93,.53,3.8,1.81,5.25,1.28,1.45,3.06,2.31,4.99,2.43,.15,0,.3,.01,.45,.01,1.77,0,3.46-.64,4.8-1.83,1.45-1.28,2.31-3.06,2.43-4.99,.04-.75-.03-1.48-.2-2.18h1.71v.25c0,.41,.34,.75,.75,.75s.75-.34,.75-.75v-2.25h1.25c.41,0,.75-.34,.75-.75s-.34-.75-.75-.75Zm-7.69,9.55c-1.15,1.02-2.63,1.53-4.16,1.44-1.53-.09-2.94-.78-3.96-1.92-1.02-1.15-1.53-2.63-1.44-4.16,.18-3.05,2.72-5.41,5.74-5.41,.11,0,.23,0,.35,.01,1.53,.09,2.94,.78,3.96,1.92s1.53,2.63,1.44,4.16c-.09,1.53-.78,2.94-1.92,3.96Zm2.69-7.55s-.01,0-.02,0c-.28-.56-.63-1.09-1.05-1.56-.31-.35-.65-.66-1.01-.94h4.34v2.5h-2.25Z"/></g></g></svg>