<?xml version="1.0" encoding="UTF-8"?><svg fill="currentColor" xmlns="http://www.w3.org/2000/svg" viewBox="0 0 24 24"><g id="h"><g><path d="M5.76,9.71c.83,.28,1.67,.49,2.52,.66,0,.04-.03,.08-.03,.13v2c0,.41,.34,.75,.75,.75s.75-.34,.75-.75v-1.9c.75,.09,1.49,.15,2.25,.15s1.5-.06,2.25-.15v1.9c0,.41,.34,.75,.75,.75s.75-.34,.75-.75v-2s-.02-.09-.03-.13c.85-.17,1.69-.38,2.52-.66,.3-.1,.51-.39,.51-.71v-3c0-1.52-1.23-2.75-2.75-2.75H8c-1.52,0-2.75,1.23-2.75,2.75v3c0,.32,.2,.61,.51,.71Z"/><path d="M19,12.25h-.25v-1.13h-.02c-.49,.18-.98,.32-1.48,.45v.93c0,1.24-1.01,2.25-2.25,2.25s-2.25-1.01-2.25-2.25v-.28c-.25,0-.5,.03-.75,.03s-.5-.02-.75-.03v.28c0,1.24-1.01,2.25-2.25,2.25s-2.25-1.01-2.25-2.25v-.93c-.5-.13-.99-.27-1.48-.44h-.02v1.12h-.25c-1.52,0-2.75,1.23-2.75,2.75v2c0,.96,.79,1.75,1.75,1.75h1.37c.33,1.15,1.38,2,2.63,2h8c1.25,0,2.3-.85,2.63-2h1.37c.96,0,1.75-.79,1.75-1.75v-2c0-1.52-1.23-2.75-2.75-2.75Zm-3.25,5.75c0,.96-.79,1.75-1.75,1.75h-4c-.96,0-1.75-.79-1.75-1.75v-1c0-.96,.79-1.75,1.75-1.75h4c.96,0,1.75,.79,1.75,1.75v1Z"/><rect x="9.75" y="16.75" width="4.5" height="1.5" rx=".25" ry=".25"/><path d="M20,4.25s-.09,.01-.13,.01c.24,.53,.38,1.12,.38,1.74v3c0,.26-.05,.5-.13,.74,.91-.06,1.63-.81,1.63-1.74v-2c0-.96-.79-1.75-1.75-1.75Z"/><path d="M3.88,9.74c-.08-.23-.13-.48-.13-.74v-3c0-.62,.14-1.21,.38-1.74-.04,0-.09-.01-.13-.01-.96,0-1.75,.79-1.75,1.75v2c0,.92,.72,1.67,1.63,1.74Z"/></g></g></svg>