<?xml version="1.0" encoding="UTF-8"?><svg fill="currentColor" xmlns="http://www.w3.org/2000/svg" viewBox="0 0 24 24"><g id="n"><g><path d="M20.57,12.78c-.74,0-2.03-.18-3.1-1.25-1.38-1.38-1.28-3.12-1.22-3.58v-.7h-.5v-.25c0-1.52-1.23-2.75-2.75-2.75h-2c-1.52,0-2.75,1.23-2.75,2.75v.25h-.5v.7c.06,.46,.16,2.2-1.22,3.58-1.07,1.07-2.36,1.25-3.1,1.25-.21,0-.38-.01-.48-.03h-.7v1.5h.7c.46-.06,2.2-.16,3.58,1.22s1.28,3.12,1.22,3.58v.7h8.5v-.7c-.06-.46-.16-2.2,1.22-3.58,1.38-1.38,3.12-1.28,3.58-1.22h.7v-1.5h-.7c-.1,.01-.27,.03-.48,.03ZM9.75,7c0-.69,.56-1.25,1.25-1.25h2c.69,0,1.25,.56,1.25,1.25v.25h-4.5v-.25Zm6,7c0,.96-.79,1.75-1.75,1.75h-4c-.96,0-1.75-.79-1.75-1.75v-1c0-.96,.79-1.75,1.75-1.75h4c.96,0,1.75,.79,1.75,1.75v1Z"/><rect x="9.75" y="12.75" width="4.5" height="1.5" rx=".25" ry=".25"/><path d="M18,7.25h-.25v.75s0,.07,0,.11c-.02,.14-.17,1.4,.79,2.36,.96,.96,2.22,.81,2.36,.79,.04,0,.07,0,.11,0h.75v-.25c0-2.07-1.68-3.75-3.75-3.75Z"/><path d="M20.89,15.74c-.14-.02-1.41-.17-2.36,.79-.96,.96-.81,2.22-.79,2.36,0,.04,0,.07,0,.11v.75h.25c2.07,0,3.75-1.68,3.75-3.75v-.25h-.75s-.07,0-.11,0Z"/><path d="M3.11,11.26c.14,.02,1.41,.17,2.36-.79,.96-.96,.81-2.22,.79-2.36,0-.04,0-.07,0-.11v-.75h-.25c-2.07,0-3.75,1.68-3.75,3.75v.25h.75s.07,0,.11,0Z"/><path d="M3.11,15.74s-.07,0-.11,0h-.75v.25c0,2.07,1.68,3.75,3.75,3.75h.25v-.75s0-.07,0-.11c.02-.14,.17-1.41-.79-2.36-.96-.96-2.22-.81-2.36-.79Z"/></g></g></svg>