<?xml version="1.0" encoding="UTF-8"?><svg fill="currentColor" xmlns="http://www.w3.org/2000/svg" viewBox="0 0 24 24"><g id="j"><g><path d="M15.22,5.25c.49,1.38,.57,2.92,.31,4.5h2.52c.94,0,1.7-.76,1.7-1.7,0-3.2-2.6-5.8-5.8-5.8h-.55c.49,.51,.92,1.08,1.27,1.72,.22,.4,.41,.83,.57,1.28Z"/><path d="M5.95,9.75h2.52c-.27-1.58-.18-3.12,.31-4.5,.16-.44,.35-.87,.57-1.28,.35-.64,.78-1.22,1.27-1.72h-.55c-3.2,0-5.8,2.6-5.8,5.8,0,.94,.76,1.7,1.7,1.7Z"/><path d="M21.03,14.94c.46-.37,.72-.91,.72-1.5,0-.75-.42-1.41-1.09-1.73-.67-.32-1.45-.23-2.03,.23l-2,1.6c-.57,.46-1.3,.71-2.03,.71h-1.85v-4.5h1.26c.28-1.41,.23-2.79-.2-4-.13-.37-.29-.72-.47-1.06-.36-.66-.81-1.24-1.34-1.72-.53,.48-.98,1.06-1.34,1.72-.18,.33-.34,.69-.47,1.06-.43,1.21-.48,2.59-.2,4h1.26v4.5H4.17c-1.06,0-1.92,.86-1.92,1.92v.66c0,1.06,.86,1.92,1.92,1.92h1.43l-1.22,1.83c-.23,.34-.14,.81,.21,1.04,.13,.08,.27,.13,.42,.13,.24,0,.48-.12,.62-.33l1.78-2.67h7.2l1.78,2.67c.14,.22,.38,.33,.62,.33,.14,0,.29-.04,.42-.13,.34-.23,.44-.7,.21-1.04l-1.41-2.12c.49-.18,.95-.43,1.35-.75l3.46-2.77Z"/></g></g></svg>