<?xml version="1.0" encoding="UTF-8"?><svg fill="currentColor" xmlns="http://www.w3.org/2000/svg" viewBox="0 0 24 24"><g id="r"><g><path d="M21,3.25h-7.43c-.28-.59-.88-1-1.57-1s-1.29,.41-1.57,1H3c-.41,0-.75,.34-.75,.75s.34,.75,.75,.75h7.43c.17,.36,.46,.65,.82,.82v1.68h-2.25c-.41,0-.75,.34-.75,.75s.34,.75,.75,.75h6c.41,0,.75-.34,.75-.75s-.34-.75-.75-.75h-2.25v-1.68c.36-.17,.65-.46,.82-.82h7.43c.41,0,.75-.34,.75-.75s-.34-.75-.75-.75Z"/><path d="M15,10.25h-6c-1.52,0-2.75,1.23-2.75,2.75v2.25h5v-1.25c0-.41,.34-.75,.75-.75s.75,.34,.75,.75v1.25h5v-2.25c0-1.52-1.23-2.75-2.75-2.75Z"/><path d="M6.25,19c0,1.52,1.23,2.75,2.75,2.75h6c1.52,0,2.75-1.23,2.75-2.75v-2.25H6.25v2.25Z"/></g></g></svg>