<?xml version="1.0" encoding="UTF-8"?><svg fill="currentColor" xmlns="http://www.w3.org/2000/svg" viewBox="0 0 24 24"><g id="d"><g><path d="M8,5.25h-2c-2.07,0-3.75,1.68-3.75,3.75v9c0,2.07,1.68,3.75,3.75,3.75h2c2.07,0,3.75-1.68,3.75-3.75V9c0-2.07-1.68-3.75-3.75-3.75Zm-1,6.5c-.96,0-1.75-.79-1.75-1.75s.79-1.75,1.75-1.75,1.75,.79,1.75,1.75-.79,1.75-1.75,1.75Z"/><path d="M20,7.25h-7.07c.2,.55,.32,1.13,.32,1.75v6.75h6.75c.96,0,1.75-.79,1.75-1.75v-5c0-.96-.79-1.75-1.75-1.75Zm-.75,4.5h-4c-.41,0-.75-.34-.75-.75s.34-.75,.75-.75h4c.41,0,.75,.34,.75,.75s-.34,.75-.75,.75Z"/></g></g></svg>