<?xml version="1.0" encoding="UTF-8"?><svg fill="currentColor" xmlns="http://www.w3.org/2000/svg" viewBox="0 0 24 24"><g id="g"><g><polygon points="12 14.2 8.59 18.47 8.38 18.75 15.65 18.75 15.43 18.49 12 14.2"/><path d="M21.5,17.44c-1.39-1.22-2.71-2.54-3.93-3.93-1.81-2.07-3.43-4.33-4.81-6.71v5.95l3.84,4.79,1.04,1.22h3.38c.31,0,.59-.19,.7-.49,.11-.29,.03-.62-.21-.83Z"/><path d="M11.25,6.79c-1.39,2.39-3,4.65-4.81,6.71-1.22,1.39-2.54,2.71-3.93,3.93-.23,.21-.32,.54-.21,.83,.11,.29,.39,.49,.7,.49h3.5l.9-1.2,3.85-4.81V6.79Z"/></g></g></svg>