<?xml version="1.0" encoding="UTF-8"?><svg fill="currentColor" xmlns="http://www.w3.org/2000/svg" viewBox="0 0 24 24"><g id="q"><g><polygon points="12.43 9.75 12.43 11.25 13.92 11.25 14.2 10.93 13.96 9.75 12.43 9.75"/><path d="M20.02,12.8l-3.39-1.35-.67-2.7h.04c.41,0,.75-.34,.75-.75s-.34-.75-.75-.75h-1.25v-2.25c0-.96-.79-1.75-1.75-1.75h-3c-.72,0-1.33,.43-1.6,1.05-.13-.03-.26-.05-.4-.05h-1c-.96,0-1.75,.79-1.75,1.75v1.25h-.25c-.41,0-.75,.34-.75,.75s.34,.75,.75,.75h.09l-.66,3.3c-.02,.12-.13,.2-.25,.2h-.18c-.96,0-1.75,.79-1.75,1.75v3c0,.89,.67,1.61,1.52,1.73,0-.08-.02-.15-.02-.23,0-2.07,1.68-3.75,3.75-3.75s3.75,1.68,3.75,3.75c0,.09-.02,.17-.03,.25h1.55c0-.08-.03-.16-.03-.25,0-2.07,1.68-3.75,3.75-3.75s3.75,1.68,3.75,3.75c0,.08-.02,.15-.02,.23,.86-.11,1.52-.84,1.52-1.73v-1.65c0-1.13-.68-2.13-1.73-2.55Zm-10-.8c0,.41-.3,.75-.68,.75h-3.33c-.21,0-.4-.1-.53-.28-.13-.18-.18-.41-.13-.63l.61-3c.07-.34,.35-.59,.66-.59h2.72c.38,0,.68,.34,.68,.75v3Zm5.45-.32l-.75,.84c-.13,.15-.31,.23-.5,.23h-2.49c-.39,0-.7-.34-.7-.75v-3c0-.41,.31-.75,.7-.75h2.79c.33,0,.61,.24,.68,.59l.45,2.16c.05,.25-.02,.5-.18,.68Z"/><polygon points="6.86 11.25 8.66 11.25 8.66 9.75 7.17 9.75 6.86 11.25"/><circle cx="7.5" cy="18.5" r="2.25"/><circle cx="16.5" cy="18.5" r="2.25"/></g></g></svg>