<?xml version="1.0" encoding="UTF-8"?><svg fill="currentColor" xmlns="http://www.w3.org/2000/svg" viewBox="0 0 24 24"><g id="c"><g><rect x="5.5" y="9.75" width="1.5" height="1.5" rx=".25" ry=".25"/><path d="M21,16.25h-2.02c.48-.63,.77-1.4,.77-2.25v-4c0-2.62-2.13-4.75-4.75-4.75H5c-1.52,0-2.75,1.23-2.75,2.75v8c0,.51,.23,.97,.58,1.29,.32-1.45,1.62-2.54,3.17-2.54,1.71,0,3.09,1.33,3.22,3h2.03v-5.75c0-1.52,1.23-2.75,2.75-2.75s2.75,1.23,2.75,2.75v5.75h4.25c.41,0,.75-.34,.75-.75s-.34-.75-.75-.75Zm-12.5-5.25c0,.96-.79,1.75-1.75,1.75h-1c-.96,0-1.75-.79-1.75-1.75v-1c0-.96,.79-1.75,1.75-1.75h1c.96,0,1.75,.79,1.75,1.75v1Z"/><path d="M14,10.75c-.69,0-1.25,.56-1.25,1.25v5.75h2.5v-5.75c0-.69-.56-1.25-1.25-1.25Z"/><circle cx="6" cy="18" r="1.75"/></g></g></svg>