<?xml version="1.0" encoding="UTF-8"?><svg fill="currentColor" xmlns="http://www.w3.org/2000/svg" viewBox="0 0 24 24"><g id="m"><g><path d="M15.29,8.13c-.09,0-.2,.02-.31,.05l-4.47,1.36c-.45,.14-.84,.53-.97,.97l-1.36,4.47c-.09,.3-.05,.57,.1,.72,.16,.16,.42,.2,.72,.1l4.47-1.36c.45-.14,.84-.53,.97-.97l1.36-4.47c.09-.3,.05-.57-.1-.72-.1-.1-.25-.15-.42-.15Zm-3.28,4.62c-.41,0-.75-.34-.75-.75s.33-.75,.75-.75h0c.42,0,.75,.34,.75,.75s-.33,.75-.75,.75Z"/><path d="M18.89,5.11c-1.84-1.84-4.29-2.86-6.89-2.86s-5.05,1.01-6.89,2.86c-3.8,3.8-3.8,9.99,0,13.79,1.84,1.84,4.29,2.86,6.89,2.86s5.05-1.01,6.89-2.86c3.8-3.8,3.8-9.99,0-13.79Zm-1.64,4.34l-1.36,4.47c-.28,.92-1.05,1.69-1.97,1.97l-4.47,1.36c-.25,.08-.5,.11-.74,.11-.57,0-1.09-.2-1.48-.59-.56-.55-.73-1.39-.48-2.22l1.36-4.47c.28-.92,1.05-1.69,1.97-1.97l4.47-1.36c.83-.25,1.67-.08,2.22,.48,.56,.55,.73,1.39,.48,2.22Z"/></g></g></svg>