<?xml version="1.0" encoding="UTF-8"?><svg fill="currentColor" xmlns="http://www.w3.org/2000/svg" viewBox="0 0 24 24"><g id="i"><path d="M18,12.25h-3.25v-1.5h.95c.35,0,.68-.1,.97-.29l2.75-1.83c.21-.14,.33-.37,.33-.62s-.13-.49-.33-.62l-2.75-1.83c-.29-.19-.62-.29-.97-.29h-.95v-1.25c0-.96-.79-1.75-1.75-1.75h-1c-.96,0-1.75,.79-1.75,1.75v1.25H6c-.96,0-1.75,.79-1.75,1.75v2c0,.96,.79,1.75,1.75,1.75h4.25v1.5h-1.95c-.35,0-.68,.1-.97,.29l-2.75,1.83c-.21,.14-.33,.37-.33,.62s.13,.49,.33,.62l2.75,1.83c.29,.19,.62,.29,.97,.29h1.95v3.25c0,.41,.34,.75,.75,.75h3c.41,0,.75-.34,.75-.75v-3.25h3.25c.96,0,1.75-.79,1.75-1.75v-2c0-.96-.79-1.75-1.75-1.75Z"/></g></svg>