<?xml version="1.0" encoding="UTF-8"?><svg fill="currentColor" xmlns="http://www.w3.org/2000/svg" viewBox="0 0 24 24"><g id="p"><path d="M16,7.25h-.25v-3.25c0-.96-.79-1.75-1.75-1.75h-4c-.96,0-1.75,.79-1.75,1.75v3.25h-.25c-1.52,0-2.75,1.23-2.75,2.75v8c0,1.52,1.23,2.75,2.75,2.75h.25v.25c0,.41,.34,.75,.75,.75s.75-.34,.75-.75v-.25h4.5v.25c0,.41,.34,.75,.75,.75s.75-.34,.75-.75v-.25h.25c1.52,0,2.75-1.23,2.75-2.75V10c0-1.52-1.23-2.75-2.75-2.75Zm-6.25,8.75c0,.41-.34,.75-.75,.75s-.75-.34-.75-.75v-4c0-.41,.34-.75,.75-.75s.75,.34,.75,.75v4Zm3,0c0,.41-.34,.75-.75,.75s-.75-.34-.75-.75v-4c0-.41,.34-.75,.75-.75s.75,.34,.75,.75v4Zm-3-8.75v-3.25c0-.14,.11-.25,.25-.25h4c.14,0,.25,.11,.25,.25v3.25h-4.5Zm6,8.75c0,.41-.34,.75-.75,.75s-.75-.34-.75-.75v-4c0-.41,.34-.75,.75-.75s.75,.34,.75,.75v4Z"/></g></svg>