<?xml version="1.0" encoding="UTF-8"?><svg fill="currentColor" xmlns="http://www.w3.org/2000/svg" viewBox="0 0 24 24"><g id="b"><g><path d="M19.23,6.65c-1.42-2.72-4.08-4.36-7.09-4.4h-.26c-3.02,.04-5.67,1.68-7.1,4.4-1.43,2.73-1.26,6,.45,8.54l.16,.24c1.53,2.2,3.4,4.14,5.57,5.75,.31,.23,.68,.35,1.05,.35s.73-.12,1.05-.35c2.17-1.61,4.04-3.54,5.57-5.75l.17-.24c1.71-2.53,1.88-5.8,.44-8.53Zm-2.58,6.72v.02s-.02,.01-.03,.02c-1.05,1.42-2.73,2.34-4.62,2.34-3.17,0-5.75-2.58-5.75-5.75s2.58-5.75,5.75-5.75,5.75,2.58,5.75,5.75c0,1.26-.41,2.42-1.1,3.37Z"/><path d="M10.89,10.97l-2.3,1.53c.77,1.05,2.01,1.74,3.41,1.74,1.08,0,2.06-.42,2.81-1.09l-3.65-2.19c-.08-.05-.19-.05-.27,0Z"/><path d="M12,5.75c-2.34,0-4.25,1.91-4.25,4.25,0,.4,.07,.78,.18,1.15l2.13-1.42c.56-.37,1.29-.39,1.87-.04l3.82,2.29c.31-.59,.51-1.26,.51-1.97,0-2.34-1.91-4.25-4.25-4.25Zm2.02,4c-.41,0-.75-.34-.75-.75s.33-.75,.75-.75h0c.42,0,.75,.34,.75,.75s-.33,.75-.75,.75Z"/></g></g></svg>