<?xml version="1.0" encoding="UTF-8"?><svg fill="currentColor" xmlns="http://www.w3.org/2000/svg" viewBox="0 0 24 24"><g id="o"><g><path d="M11.36,12.47c-.5-.84-1.38-1.34-2.36-1.34s-1.86,.5-2.36,1.34l-4.29,7.14c-.14,.23-.14,.52,0,.76,.13,.23,.38,.38,.65,.38H15c.27,0,.52-.15,.65-.38,.13-.24,.13-.52,0-.76l-4.29-7.14Z"/><circle cx="12" cy="8" r="2.75"/><path d="M12,4.75c.41,0,.75-.34,.75-.75v-1c0-.41-.34-.75-.75-.75s-.75,.34-.75,.75v1c0,.41,.34,.75,.75,.75Z"/><path d="M15,5.75c.19,0,.38-.07,.53-.22l.71-.71c.29-.29,.29-.77,0-1.06s-.77-.29-1.06,0l-.71,.71c-.29,.29-.29,.77,0,1.06,.15,.15,.34,.22,.53,.22Z"/><path d="M8.47,5.53c.15,.15,.34,.22,.53,.22s.38-.07,.53-.22c.29-.29,.29-.77,0-1.06l-.71-.71c-.29-.29-.77-.29-1.06,0s-.29,.77,0,1.06l.71,.71Z"/><path d="M15.25,8c0,.41,.34,.75,.75,.75h1c.41,0,.75-.34,.75-.75s-.34-.75-.75-.75h-1c-.41,0-.75,.34-.75,.75Z"/><path d="M7,8.75h1c.41,0,.75-.34,.75-.75s-.34-.75-.75-.75h-1c-.41,0-.75,.34-.75,.75s.34,.75,.75,.75Z"/><path d="M21.64,19.61l-4.29-7.14c-.5-.84-1.38-1.34-2.36-1.34-.83,0-1.58,.38-2.09,1l4.02,6.7c.35,.58,.4,1.28,.17,1.91h3.9c.27,0,.52-.15,.65-.38,.13-.24,.13-.52,0-.76Z"/></g></g></svg>