<?xml version="1.0" encoding="UTF-8"?><svg fill="currentColor" xmlns="http://www.w3.org/2000/svg" viewBox="0 0 24 24"><g id="k"><g><circle cx="12.5" cy="12.5" r="1.75"/><path d="M17,6.25H6c-.41,0-.75,.34-.75,.75v12c0,1.52,1.23,2.75,2.75,2.75h9c1.52,0,2.75-1.23,2.75-2.75V9c0-1.52-1.23-2.75-2.75-2.75Zm-2,12.5h-5c-.41,0-.75-.34-.75-.75s.34-.75,.75-.75h5c.41,0,.75,.34,.75,.75s-.34,.75-.75,.75Zm-2.5-3c-1.79,0-3.25-1.46-3.25-3.25s1.46-3.25,3.25-3.25,3.25,1.46,3.25,3.25-1.46,3.25-3.25,3.25Z"/><path d="M15.4,2.71c-.91-.56-2.02-.62-2.98-.14-.4,.2-.8,.4-1.2,.6-.98,.5-1.95,1.03-2.91,1.58h8.4c-.11-.83-.57-1.58-1.31-2.04Z"/></g></g></svg>