<?xml version="1.0" encoding="UTF-8"?><svg fill="currentColor" xmlns="http://www.w3.org/2000/svg" viewBox="0 0 24 24"><g id="u"><g><path d="M21.33,6.83c-.33-.65-.9-1.14-1.6-1.36-.7-.22-1.44-.16-2.1,.17l-3.11,1.6c-.07,.04-.15,.04-.22,0l-3.82-1.86c-.35-.17-.77-.17-1.12,.01l-1.73,.89c-.39,.2-.64,.58-.67,1.01-.03,.44,.15,.85,.51,1.11l1.97,1.45-2.07,1.06-1.18-.87c-.38-.28-.89-.32-1.31-.1l-1.82,.94c-.34,.18-.58,.5-.66,.88s.03,.77,.29,1.06l1.78,2.04c.45,.52,1.08,.84,1.76,.92l2.21,.25c.1,.01,.21,.02,.31,.02,.43,0,.86-.1,1.25-.3l10.14-5.2c1.35-.69,1.88-2.35,1.19-3.7Z"/><path d="M19,18.25H5c-.41,0-.75,.34-.75,.75s.34,.75,.75,.75h14c.41,0,.75-.34,.75-.75s-.34-.75-.75-.75Z"/></g></g></svg>