<?xml version="1.0" encoding="UTF-8"?><svg fill="currentColor" xmlns="http://www.w3.org/2000/svg" viewBox="0 0 24 24"><g id="s"><g><path d="M21.42,18.38l-1.32-.88,.86-1.71c.27-.55,.24-1.18-.08-1.7s-.88-.83-1.49-.83H4.62c-.61,0-1.17,.31-1.49,.83-.32,.52-.35,1.16-.08,1.7l.86,1.71-1.32,.88c-.34,.23-.44,.7-.21,1.04,.23,.34,.69,.44,1.04,.21l1.5-1c.66-.44,1.51-.44,2.17,0,1.16,.78,2.67,.78,3.83,0,.66-.44,1.51-.44,2.17,0,1.16,.78,2.67,.78,3.83,0,.66-.44,1.51-.44,2.17,0l1.5,1c.13,.09,.27,.13,.42,.13,.24,0,.48-.12,.63-.33,.23-.34,.14-.81-.21-1.04Zm-13.4-1.63c-.41,0-.75-.34-.75-.75s.33-.75,.74-.75h.01c.41,0,.75,.34,.75,.75s-.34,.75-.75,.75Zm4,0c-.41,0-.75-.34-.75-.75s.33-.75,.74-.75h.01c.41,0,.75,.34,.75,.75s-.34,.75-.75,.75Zm4,0c-.41,0-.75-.34-.75-.75s.33-.75,.75-.75h0c.42,0,.75,.34,.75,.75s-.33,.75-.75,.75Z"/><path d="M18.94,11.45c-.24-.72-.91-1.2-1.66-1.2H6.72c-.75,0-1.42,.48-1.66,1.2l-.1,.3h14.08l-.1-.3Z"/><path d="M16.94,8.45c-.24-.72-.91-1.2-1.66-1.2h-6.56c-.75,0-1.42,.48-1.66,1.2l-.1,.3h10.08l-.1-.3Z"/><path d="M13,4.25h-2c-.88,0-1.6,.65-1.72,1.5h5.45c-.12-.85-.85-1.5-1.72-1.5Z"/></g></g></svg>