<?xml version="1.0" encoding="UTF-8"?><svg fill="currentColor" xmlns="http://www.w3.org/2000/svg" viewBox="0 0 24 24"><g id="t"><g><path d="M20,14.29h1.67c.01-.36-.09-.73-.29-1.03l-2.98-4.47h1.1c1.24,0,2.25-1.01,2.25-2.25s-1.01-2.25-2.25-2.25H6c-2.07,0-3.75,1.68-3.75,3.75v9c0,.89,.67,1.62,1.53,1.73,.14-1.66,1.52-2.98,3.22-2.98s3.09,1.33,3.22,3h2.55c.13-1.67,1.52-3,3.22-3s3.09,1.33,3.22,3c.8,0,1.5-.55,1.69-1.32l.42-1.67h-1.34c-.41,0-.75-.34-.75-.75s.34-.75,.75-.75Zm-9.25-2.25c0,.96-.79,1.75-1.75,1.75h-3c-.96,0-1.75-.79-1.75-1.75v-2c0-.96,.79-1.75,1.75-1.75h3c.96,0,1.75,.79,1.75,1.75v2Zm8.1,.83c-.28,.57-.9,.92-1.6,.92h-2.23c-.96,0-1.75-.7-1.75-1.55v-2.4c0-.85,.79-1.55,1.75-1.55h.43c.59,0,1.13,.26,1.46,.69l1.8,2.4c.33,.45,.39,1,.14,1.49Z"/><rect x="5.75" y="9.79" width="3.5" height="2.5" rx=".25" ry=".25"/><circle cx="7" cy="19.04" r="1.75"/><circle cx="16" cy="19.04" r="1.75"/></g></g></svg>