<?xml version="1.0" encoding="UTF-8"?><svg fill="currentColor" xmlns="http://www.w3.org/2000/svg" viewBox="0 0 24 24"><g id="f"><path d="M19,6.25h-.59c-.47,0-.91,.18-1.24,.51l-.41,.41s-.11,.07-.18,.07h-1.17c-.07,0-.13-.03-.18-.07l-.41-.41c-.33-.33-.77-.51-1.24-.51H5c-1.52,0-2.75,1.23-2.75,2.75v6c0,1.52,1.23,2.75,2.75,2.75H13.59c.47,0,.91-.18,1.24-.51l.41-.41s.11-.07,.18-.07h1.17c.07,0,.13,.03,.18,.07l.41,.41c.33,.33,.77,.51,1.24,.51h.59c1.52,0,2.75-1.23,2.75-2.75v-6c0-1.52-1.23-2.75-2.75-2.75Zm-7,6.5h-1.69l-1.78,1.78c-.15,.15-.34,.22-.53,.22s-.38-.07-.53-.22c-.29-.29-.29-.77,0-1.06l.72-.72h-1.44v.25c0,.41-.34,.75-.75,.75s-.75-.34-.75-.75v-2c0-.41,.34-.75,.75-.75s.75,.34,.75,.75v.25h1.44l-.72-.72c-.29-.29-.29-.77,0-1.06s.77-.29,1.06,0l1.78,1.78h1.69c.41,0,.75,.34,.75,.75s-.34,.75-.75,.75Zm4.75,1.25c0,.41-.34,.75-.75,.75s-.75-.34-.75-.75v-4c0-.41,.34-.75,.75-.75s.75,.34,.75,.75v4Z"/></g></svg>