<?xml version="1.0" encoding="UTF-8"?><svg fill="currentColor" xmlns="http://www.w3.org/2000/svg" viewBox="0 0 24 24"><g id="e"><g><path d="M14.51,6.91l.39,.58c.62,.93,.5,2.17-.29,2.96l-.63,.63c-.19,.19-.27,.44-.24,.7,.03,.26,.18,.49,.41,.62l1.02,.61c1.09,.66,2.45,.59,3.47-.18l1.88-1.41,1.09-1.09c-.46-2.66-1.99-4.96-4.14-6.41l-2.72,1.81c-.39,.26-.49,.79-.24,1.18Z"/><path d="M10.28,17.06c-.06-.09-.23-.31-.56-.31-.65,0-1.26-.29-1.67-.79-.41-.5-.57-1.16-.45-1.79l.28-1.4c.15-.76-.26-1.51-.98-1.8l-4.26-1.7c-.25,.87-.4,1.78-.4,2.73,0,4.18,2.65,7.74,6.35,9.13l1.71-3.42c.15-.3,.03-.55-.03-.64Z"/><path d="M21.53,12.53s-.05,.05-.08,.07l-1.92,1.44c-.82,.62-1.79,.93-2.77,.93-.82,0-1.64-.22-2.38-.66l-1.02-.61c-.62-.37-1.03-1-1.12-1.73-.09-.72,.16-1.43,.67-1.95l.63-.63c.28-.29,.33-.74,.11-1.07l-.39-.58c-.72-1.08-.43-2.54,.65-3.26l2.07-1.38c-1.22-.55-2.56-.86-3.98-.86-3.9,0-7.26,2.3-8.82,5.62l4.28,1.71c1.39,.56,2.18,2.02,1.89,3.49l-.28,1.4c-.05,.27,.06,.46,.14,.55,.07,.09,.24,.24,.51,.24,.75,0,1.44,.38,1.84,1.02,.4,.64,.43,1.43,.09,2.1l-1.59,3.18c.63,.13,1.28,.19,1.94,.19,5.27,0,9.56-4.2,9.73-9.42l-.2,.2Z"/></g></g></svg>