<?xml version="1.0" encoding="UTF-8"?><svg fill="currentColor" xmlns="http://www.w3.org/2000/svg" viewBox="0 0 24 24"><g id="b"><g><path d="M7.75,14.5v-2c0-.69-.56-1.25-1.25-1.25H3c-.41,0-.75,.34-.75,.75v3c0,.41,.34,.75,.75,.75h3.5c.69,0,1.25-.56,1.25-1.25Z"/><path d="M12.7,4.11c-1.07-.61-2.43-.43-3.31,.44l-1.2,1.2h7.39l-2.88-1.64Z"/><path d="M19,7.25H6c-1.43,0-2.6,1.1-2.72,2.5h3.22c1.52,0,2.75,1.23,2.75,2.75v2c0,1.52-1.23,2.75-2.75,2.75H3.28c.13,1.4,1.29,2.5,2.72,2.5h13c1.52,0,2.75-1.23,2.75-2.75v-7c0-1.52-1.23-2.75-2.75-2.75Z"/></g></g></svg>