<?xml version="1.0" encoding="UTF-8"?><svg fill="currentColor" xmlns="http://www.w3.org/2000/svg" viewBox="0 0 24 24"><g id="s"><g><path d="M14,6.25c-4.27,0-7.75,3.48-7.75,7.75s3.48,7.75,7.75,7.75,7.75-3.48,7.75-7.75-3.48-7.75-7.75-7.75Zm.75,9.75c0,.41-.34,.75-.75,.75s-.75-.34-.75-.75v-2.79l-.91,.46c-.37,.19-.82,.04-1.01-.34-.19-.37-.04-.82,.34-1.01l2-1c.23-.12,.51-.1,.73,.03,.22,.14,.36,.38,.36,.64v4Z"/><path d="M14,4.75c.63,0,1.25,.06,1.84,.19-1.45-1.67-3.58-2.69-5.84-2.69-4.27,0-7.75,3.48-7.75,7.75,0,2.27,1.02,4.39,2.69,5.84-.12-.6-.19-1.21-.19-1.84,0-5.1,4.15-9.25,9.25-9.25Z"/></g></g></svg>