<?xml version="1.0" encoding="UTF-8"?><svg fill="currentColor" xmlns="http://www.w3.org/2000/svg" viewBox="0 0 24 24"><g id="q"><g><path d="M10.46,9.68s.04,0,.06,0c.48,.04,.97,.06,1.48,.06s1-.02,1.48-.06c.02,0,.04,0,.06,0,3.63-.33,6.21-1.8,6.21-3.68,0-2.14-3.33-3.75-7.75-3.75s-7.75,1.61-7.75,3.75c0,1.88,2.58,3.35,6.21,3.68Z"/><path d="M12,11.25c-.53,0-1.07-.02-1.61-.07-2.7-.24-4.82-1.02-6.14-2.17v.49c0,2.38,3.4,4.25,7.75,4.25s7.75-1.87,7.75-4.25v-.48c-1.31,1.14-3.42,1.92-6.08,2.16-.6,.05-1.14,.07-1.67,.07Z"/><path d="M4.25,12.72v.78c0,2.38,3.4,4.25,7.75,4.25s7.75-1.87,7.75-4.25v-.78c-1.62,1.55-4.43,2.53-7.75,2.53s-6.13-.98-7.75-2.53Z"/><path d="M4.25,16.72v.78c0,2.38,3.4,4.25,7.75,4.25s7.75-1.87,7.75-4.25v-.78c-1.62,1.55-4.43,2.53-7.75,2.53s-6.13-.98-7.75-2.53Z"/></g></g></svg>