<?xml version="1.0" encoding="UTF-8"?><svg fill="currentColor" xmlns="http://www.w3.org/2000/svg" viewBox="0 0 24 24"><g id="g"><g><path d="M15.25,11.8c0-1.79-1.46-3.25-3.25-3.25s-3.25,1.46-3.25,3.25c0,.96,.42,1.83,1.14,2.45h4.22c.72-.62,1.14-1.49,1.14-2.45Z"/><path d="M12,2.25C6.62,2.25,2.25,6.62,2.25,12s4.37,9.75,9.75,9.75,9.75-4.37,9.75-9.75S17.38,2.25,12,2.25Zm5,13.5H7c-.41,0-.75-.34-.75-.75s.34-.75,.75-.75h.93c-.44-.73-.68-1.57-.68-2.45,0-2.62,2.13-4.75,4.75-4.75s4.75,2.13,4.75,4.75c0,.88-.24,1.72-.68,2.45h.93c.41,0,.75,.34,.75,.75s-.34,.75-.75,.75Z"/></g></g></svg>