<?xml version="1.0" encoding="UTF-8"?><svg fill="currentColor" xmlns="http://www.w3.org/2000/svg" viewBox="0 0 24 24"><g id="u"><g><path d="M8.75,11.5c0,.32,.2,.6,.5,.71,.02,0,.03,.02,.05,.03,.05-.24,.13-.48,.24-.71,.13-.26,.31-.49,.5-.69-.1,0-.2,0-.3-.04-.47-.17-1,.21-1,.71Z"/><path d="M7.25,4v-1.75h-1.21c-.99,0-1.79,.81-1.79,1.79v2.21h.75c1.24,0,2.25-1.01,2.25-2.25Z"/><path d="M5,16.75h-.75v2.21c0,.99,.81,1.79,1.79,1.79h1.21v-1.75c0-1.24-1.01-2.25-2.25-2.25Z"/><path d="M17.58,10.11l-3.09-2.68c-.22-.19-.54-.24-.8-.12-.27,.12-.44,.39-.44,.68v3.34l-.56-.22c-.87-.35-1.84,.02-2.26,.86-.29,.57-.24,1.25,.09,1.76l2.6,4.28c.08,.13,.12,.27,.12,.42v1.56c0,.41,.34,.75,.75,.75h3c.96,0,1.75-.79,1.75-1.75v-6.43c0-.92-.42-1.82-1.17-2.46Z"/><path d="M12.99,6s.05-.03,.07-.05c.3-.14,.61-.2,.94-.2,.26,0,.51,.05,.75,.13v-1.84c0-.99-.81-1.79-1.79-1.79h-1.21v1.75c0,.88,.51,1.63,1.24,2Z"/><path d="M11.75,18.63l-2.5-4.12c-.18-.26-.29-.56-.38-.87-.04,0-.08,0-.12-.02-.9-.32-1.5-1.17-1.5-2.12,0-1.24,1.01-2.25,2.25-2.25,.26,0,.51,.04,.75,.13,.21,.07,.36,.23,.44,.42,.33-.15,.69-.27,1.06-.3v-1.5c0-.31,.08-.6,.2-.88-1.02-.67-1.7-1.81-1.7-3.12v-1.75h-1.5v1.75c0,2.07-1.68,3.75-3.75,3.75h-.75v7.5h.75c2.07,0,3.75,1.68,3.75,3.75v1.75h3.14c-.08-.24-.14-.49-.14-.75v-1.37Z"/></g></g></svg>