<?xml version="1.0" encoding="UTF-8"?><svg fill="currentColor" xmlns="http://www.w3.org/2000/svg" viewBox="0 0 24 24"><g id="o"><g><path d="M21.15,17.35l-1.2-3c-.27-.67-.91-1.1-1.63-1.1h-3.65c-.72,0-1.36,.43-1.63,1.1l-1.05,2.63-1.05-2.63c-.27-.67-.91-1.1-1.63-1.1h-3.65c-.72,0-1.36,.43-1.63,1.1l-1.2,3c-.22,.54-.15,1.15,.18,1.63,.33,.48,.87,.77,1.45,.77h6.05c.58,0,1.12-.29,1.45-.77,.01-.02,.02-.04,.03-.05,.01,.02,.02,.04,.03,.05,.33,.48,.87,.77,1.45,.77h6.05c.58,0,1.12-.29,1.45-.77,.33-.48,.39-1.09,.18-1.63Z"/><path d="M12,7.75c.41,0,.75-.34,.75-.75v-2c0-.41-.34-.75-.75-.75s-.75,.34-.75,.75v2c0,.41,.34,.75,.75,.75Z"/><path d="M7.88,8.53c.15,.15,.34,.22,.53,.22s.38-.07,.53-.22c.29-.29,.29-.77,0-1.06l-1.41-1.41c-.29-.29-.77-.29-1.06,0s-.29,.77,0,1.06l1.41,1.41Z"/><path d="M15.59,8.75c.19,0,.38-.07,.53-.22l1.41-1.41c.29-.29,.29-.77,0-1.06s-.77-.29-1.06,0l-1.41,1.41c-.29,.29-.29,.77,0,1.06,.15,.15,.34,.22,.53,.22Z"/><path d="M7.8,10.98l-.31,.77h1.83c1.09,0,2.08,.53,2.68,1.4,.6-.87,1.59-1.4,2.68-1.4h1.83l-.31-.77c-.42-1.05-1.42-1.73-2.55-1.73h-3.29c-1.13,0-2.13,.68-2.55,1.73Z"/></g></g></svg>