<?xml version="1.0" encoding="UTF-8"?><svg fill="currentColor" xmlns="http://www.w3.org/2000/svg" viewBox="0 0 24 24"><g id="m"><g><path d="M8.39,8.44c.14,.2,.37,.31,.61,.31h6c.24,0,.47-.12,.61-.31l1.69-2.36c.45-.62,.57-1.44,.34-2.17-.23-.73-.76-1.28-1.46-1.53-.84-.29-1.78-.06-2.41,.59l-1.77,1.85-1.77-1.85c-.62-.65-1.56-.88-2.4-.59-.7,.24-1.24,.8-1.47,1.53-.23,.74-.11,1.55,.34,2.17l1.69,2.36Z"/><path d="M18.66,14.64l-.11-.19c-.19-.35-.51-.93-.86-1.75-.02-.04-.03-.09-.05-.13-.61,.42-1.34,.68-2.14,.68h-7c-.8,0-1.53-.25-2.14-.68-.02,.04-.03,.09-.05,.13-.35,.82-.67,1.4-.86,1.75l-.13,.23c-.8,1.5-.76,3.27,.12,4.74,.88,1.46,2.42,2.33,4.12,2.33h4.88c1.7,0,3.25-.87,4.12-2.33,.88-1.46,.92-3.23,.1-4.77Z"/><path d="M8.5,11.75h7c1.24,0,2.25-1.01,2.25-2.25,0-.39-.11-.75-.29-1.08l-.63,.89c-.42,.59-1.1,.94-1.83,.94h-6c-.72,0-1.41-.35-1.83-.94l-.63-.88c-.18,.32-.29,.68-.29,1.08,0,1.24,1.01,2.25,2.25,2.25Z"/></g></g></svg>