<?xml version="1.0" encoding="UTF-8"?><svg fill="currentColor" xmlns="http://www.w3.org/2000/svg" viewBox="0 0 24 24"><g id="i"><g><circle cx="14" cy="14" r="1.25"/><path d="M19,9.25H9c-1.52,0-2.75,1.23-2.75,2.75v4c0,1.52,1.23,2.75,2.75,2.75h10c1.52,0,2.75-1.23,2.75-2.75v-4c0-1.52-1.23-2.75-2.75-2.75Zm-9.98,3.5c-.41,0-.75-.34-.75-.75s.33-.75,.74-.75h.01c.41,0,.75,.34,.75,.75s-.34,.75-.75,.75Zm4.98,4c-1.52,0-2.75-1.23-2.75-2.75s1.23-2.75,2.75-2.75,2.75,1.23,2.75,2.75-1.23,2.75-2.75,2.75Zm5.02,0c-.41,0-.75-.34-.75-.75s.33-.75,.75-.75h0c.42,0,.75,.34,.75,.75s-.33,.75-.75,.75Z"/><path d="M17.72,7.75c-.13-1.4-1.29-2.5-2.72-2.5H5c-1.52,0-2.75,1.23-2.75,2.75v4c0,1.43,1.1,2.6,2.5,2.72v-2.72c0-2.34,1.91-4.25,4.25-4.25h8.72Z"/></g></g></svg>