<?xml version="1.0" encoding="UTF-8"?><svg fill="currentColor" xmlns="http://www.w3.org/2000/svg" viewBox="0 0 24 24"><g id="c"><g><path d="M12,14.25H4c-.96,0-1.75,.79-1.75,1.75v.25H13.75v-.25c0-.96-.79-1.75-1.75-1.75Z"/><path d="M2.25,20c0,.96,.79,1.75,1.75,1.75H12c.96,0,1.75-.79,1.75-1.75v-2.25H2.25v2.25Z"/><path d="M14.25,4v-.75h-.25c-1.52,0-2.75,1.23-2.75,2.75v.25h.75c1.24,0,2.25-1.01,2.25-2.25Z"/><path d="M19,3.25h-.25v.75c0,1.24,1.01,2.25,2.25,2.25h.75v-.25c0-1.52-1.23-2.75-2.75-2.75Z"/><path d="M18.75,21v.75h.25c1.52,0,2.75-1.23,2.75-2.75v-.25h-.75c-1.24,0-2.25,1.01-2.25,2.25Z"/><circle cx="16.5" cy="11.25" r=".75"/><path d="M17.25,4v-.75h-1.5v.75c0,2.07-1.68,3.75-3.75,3.75h-.75v5h.75c1.79,0,3.25,1.46,3.25,3.25v4c0,.65-.19,1.24-.52,1.75h2.52v-.75c0-2.07,1.68-3.75,3.75-3.75h.75V7.75h-.75c-2.07,0-3.75-1.68-3.75-3.75Zm-.75,9.5c-1.24,0-2.25-1.01-2.25-2.25s1.01-2.25,2.25-2.25,2.25,1.01,2.25,2.25-1.01,2.25-2.25,2.25Z"/></g></g></svg>