<?xml version="1.0" encoding="UTF-8"?><svg fill="currentColor" xmlns="http://www.w3.org/2000/svg" viewBox="0 0 24 24"><g id="f"><g><path d="M6,14.75c.96,0,1.75-.79,1.75-1.75v-2c0-.96-.79-1.75-1.75-1.75H3.5c-.69,0-1.25,.56-1.25,1.25v3c0,.69,.56,1.25,1.25,1.25h2.5Z"/><path d="M18,4.25H7c-1.99,0-3.61,1.56-3.73,3.52,.08,0,.15-.02,.23-.02h2.5c1.79,0,3.25,1.46,3.25,3.25v2c0,1.79-1.46,3.25-3.25,3.25H3.5c-.08,0-.15-.02-.23-.02,.12,1.96,1.74,3.52,3.73,3.52h11c2.07,0,3.75-1.68,3.75-3.75V8c0-2.07-1.68-3.75-3.75-3.75Z"/></g></g></svg>