<?xml version="1.0" encoding="UTF-8"?><svg fill="currentColor" xmlns="http://www.w3.org/2000/svg" viewBox="0 0 24 24"><g id="t"><g><path d="M4,8.25c-.41,0-.75,.34-.75,.75v2.25h-.25c-.41,0-.75,.34-.75,.75s.34,.75,.75,.75h.25v2.25c0,.41,.34,.75,.75,.75s.75-.34,.75-.75v-6c0-.41-.34-.75-.75-.75Z"/><path d="M17,7.25c-.41,0-.75,.34-.75,.75v3.25H7.75v-3.25c0-.41-.34-.75-.75-.75s-.75,.34-.75,.75v8c0,.41,.34,.75,.75,.75s.75-.34,.75-.75v-3.25h8.5v3.25c0,.41,.34,.75,.75,.75s.75-.34,.75-.75V8c0-.41-.34-.75-.75-.75Z"/><path d="M21,11.25h-.25v-2.25c0-.41-.34-.75-.75-.75s-.75,.34-.75,.75v6c0,.41,.34,.75,.75,.75s.75-.34,.75-.75v-2.25h.25c.41,0,.75-.34,.75-.75s-.34-.75-.75-.75Z"/></g></g></svg>