<?xml version="1.0" encoding="UTF-8"?><svg fill="currentColor" xmlns="http://www.w3.org/2000/svg" viewBox="0 0 24 24"><g id="n"><g><path d="M20.12,12.63c-.28-.59-.58-1.2-.81-1.87-.75-2.18-.75-4.73,.02-7.56,.11-.4-.13-.81-.53-.92-.4-.11-.81,.13-.92,.53-.64,2.37-.79,4.58-.45,6.58-3.52,1.13-7.34,1.13-10.86,0,.34-2.01,.19-4.21-.45-6.58-.11-.4-.52-.64-.92-.53-.4,.11-.64,.52-.53,.92,.76,2.83,.77,5.38,.02,7.56-.23,.67-.53,1.28-.81,1.87-.6,1.24-1.22,2.53-1.23,4.37-.01,1.46,.35,2.92,1.08,4.35,.13,.26,.4,.41,.67,.41,.12,0,.23-.03,.34-.08,.37-.19,.51-.64,.33-1.01-.62-1.21-.93-2.44-.92-3.65,.01-1.2,.33-2.1,.76-3.03,.61,.17,1.2,.39,1.75,.68,1.61,.86,2.65,2.08,3.24,2.95,.33,.49,.82,.84,1.36,1.01v2.38c0,.41,.34,.75,.75,.75s.75-.34,.75-.75v-2.38c.55-.17,1.03-.52,1.36-1.01,.85-1.27,1.94-2.26,3.24-2.95,.55-.29,1.14-.51,1.75-.68,.42,.92,.74,1.83,.75,3.03,.01,1.21-.3,2.44-.92,3.65-.19,.37-.04,.82,.33,1.01,.11,.06,.23,.08,.34,.08,.27,0,.54-.15,.67-.41,.73-1.43,1.1-2.89,1.08-4.35-.02-1.84-.63-3.12-1.23-4.37Zm-3.47,.71c-1.49,.79-2.8,1.98-3.78,3.44-.4,.6-1.34,.6-1.74,0-.98-1.45-2.28-2.64-3.78-3.43-.57-.31-1.19-.54-1.81-.73,.2-.43,.39-.87,.56-1.37,.04-.13,.08-.26,.12-.4,1.87,.59,3.81,.9,5.78,.9s3.91-.31,5.78-.9c.04,.13,.07,.27,.12,.4,.17,.5,.37,.94,.56,1.37-.63,.19-1.24,.42-1.81,.73Z"/><path d="M12,8.75c.2,0,.39-.08,.53-.22s.22-.33,.22-.53-.08-.39-.22-.53c-.28-.28-.78-.28-1.06,0-.14,.14-.22,.33-.22,.53s.08,.39,.22,.53,.33,.22,.53,.22Z"/></g></g></svg>