<?xml version="1.0" encoding="UTF-8"?><svg fill="currentColor" xmlns="http://www.w3.org/2000/svg" viewBox="0 0 24 24"><g id="m"><path d="M17.5,4.25h-2.75v-.25c0-.96-.79-1.75-1.75-1.75h-3c-.96,0-1.75,.79-1.75,1.75v2.69l-1.19,1.19c-.52,.52-.81,1.21-.81,1.94v10.17c0,.96,.79,1.75,1.75,1.75h7c.96,0,1.75-.79,1.75-1.75V10.75h.75c1.79,0,3.25-1.46,3.25-3.25s-1.46-3.25-3.25-3.25Zm-7.75-.25c0-.14,.11-.25,.25-.25h3c.14,0,.25,.11,.25,.25v2.25h-3.5v-2.25Zm5.5,16c0,.14-.11,.25-.25,.25h-7c-.14,0-.25-.11-.25-.25V9.83c0-.33,.13-.65,.37-.88l1.19-1.19h4.38l1.19,1.19c.24,.24,.37,.55,.37,.88v10.17Zm2.25-10.75h-.81c-.11-.51-.36-.99-.74-1.37l-1.19-1.19v-.94h2.75c.96,0,1.75,.79,1.75,1.75s-.79,1.75-1.75,1.75Z"/></g></svg>