<?xml version="1.0" encoding="UTF-8"?><svg fill="currentColor" xmlns="http://www.w3.org/2000/svg" viewBox="0 0 24 24"><g id="s"><path d="M17.71,15.76c-.3-.89-.73-1.39-1.14-1.87-.29-.34-.6-.7-.92-1.26-.46-.8-.76-1.71-.9-2.7v-1.93c0-.96-.79-1.75-1.75-1.75h-.25V3.75h4.25c.41,0,.75-.34,.75-.75s-.34-.75-.75-.75H7c-.41,0-.75,.34-.75,.75s.34,.75,.75,.75h4.25v2.5h-.25c-.96,0-1.75,.79-1.75,1.75v1.93c-.14,.99-.45,1.89-.9,2.7-.32,.56-.63,.92-.92,1.26-.41,.48-.83,.97-1.14,1.87-.17,.51-.69,2.04,.03,3.56,.35,.74,.92,1.33,1.7,1.77,.75,.43,1.67,.65,2.67,.65h2.62c1,0,1.9-.22,2.67-.65,.78-.44,1.35-1.04,1.7-1.77,.73-1.52,.21-3.06,.03-3.56Zm-6.96-7.76c0-.14,.11-.25,.25-.25h2c.14,0,.25,.11,.25,.25v1.25h-2.5v-1.25Zm5.57,10.68c-.22,.45-.58,.83-1.09,1.12-.54,.3-1.18,.46-1.93,.46h-2.62c-.73,0-1.4-.16-1.93-.46-.5-.29-.87-.66-1.09-1.12-.46-.97-.12-2,.03-2.44,.21-.62,.48-.93,.86-1.37,.32-.38,.69-.81,1.08-1.5,.45-.8,.77-1.68,.97-2.62h2.75c.2,.94,.52,1.82,.97,2.62,.39,.69,.76,1.12,1.09,1.5,.38,.44,.65,.75,.86,1.37,.15,.44,.5,1.46,.03,2.43Z"/></g></svg>