<?xml version="1.0" encoding="UTF-8"?><svg fill="currentColor" xmlns="http://www.w3.org/2000/svg" viewBox="0 0 24 24"><g id="o"><g><path d="M3,8.02c.13,0,.26-.03,.38-.1,.19-.11,.4-.17,.62-.17h1.39c.54,0,1.07-.16,1.53-.46l1.61-1.07c.77-.51,1.22-1.37,1.22-2.29v-.93c0-.41-.34-.75-.75-.75s-.75,.34-.75,.75v.93c0,.42-.21,.81-.56,1.04l-1.61,1.07c-.21,.14-.45,.21-.69,.21h-1.39c-.49,0-.96,.13-1.38,.37-.36,.21-.48,.67-.27,1.03,.14,.24,.39,.37,.65,.37Z"/><path d="M15.47,6.22l1.61,1.07c.45,.3,.98,.46,1.53,.46h1.39c.22,0,.43,.06,.63,.17,.12,.07,.25,.1,.38,.1,.26,0,.51-.13,.65-.37,.21-.36,.09-.82-.27-1.02-.42-.24-.89-.37-1.38-.37h-1.39c-.25,0-.49-.07-.69-.21l-1.61-1.07c-.35-.23-.56-.62-.56-1.04v-.93c0-.41-.34-.75-.75-.75s-.75,.34-.75,.75v.93c0,.92,.46,1.78,1.22,2.29Z"/><path d="M8.31,7.96c-.09,.4,.17,.8,.57,.89,.86,.19,1.45,.58,1.67,.75,.32,.24,.6,.52,.85,.85,.14,.19,.36,.3,.6,.3s.46-.11,.6-.3c.24-.33,.53-.61,.85-.85,.27-.2,.84-.56,1.66-.74,.4-.09,.66-.49,.57-.89s-.49-.66-.89-.57c-1.09,.24-1.87,.73-2.23,1-.19,.14-.38,.3-.55,.47-.17-.17-.36-.33-.55-.47-.37-.27-1.14-.77-2.24-1.01-.41-.09-.81,.17-.89,.57Z"/><path d="M19.53,13.53c.29-.29,.29-.77,0-1.06s-.77-.29-1.06,0l-1.41,1.41c-.24,.24-.55,.37-.88,.37h-1.94c-.48,0-.9-.26-1.12-.69l-.45-.89c-.25-.51-1.09-.51-1.34,0l-.45,.89c-.21,.43-.64,.69-1.12,.69h-1.94c-.33,0-.65-.13-.88-.37l-1.41-1.41c-.29-.29-.77-.29-1.06,0s-.29,.77,0,1.06l1.41,1.41c.52,.52,1.21,.81,1.94,.81h1.94c.9,0,1.72-.43,2.24-1.15,.51,.72,1.33,1.15,2.24,1.15h1.94c.73,0,1.43-.29,1.94-.81l1.41-1.41Z"/><path d="M6.7,17.88c-.41-.32-.8-.68-1.15-1.06-.34-.38-.65-.79-.92-1.22-.14-.22-.38-.35-.64-.35h-1c-.41,0-.75,.34-.75,.75s.34,.75,.75,.75h.59c.26,.38,.54,.74,.85,1.08,.41,.45,.86,.87,1.35,1.24,.29,.22,.46,.59,.46,.99v.94c0,.41,.34,.75,.75,.75s.75-.34,.75-.75v-.94c0-.86-.39-1.67-1.05-2.18Z"/><path d="M21,15.25h-1c-.26,0-.5,.13-.64,.35-.27,.43-.58,.84-.92,1.22-.35,.38-.73,.74-1.15,1.06-.65,.5-1.05,1.32-1.05,2.18v.94c0,.41,.34,.75,.75,.75s.75-.34,.75-.75v-.94c0-.4,.17-.77,.46-.99,.49-.37,.94-.79,1.35-1.24,.31-.34,.59-.7,.85-1.08h.59c.41,0,.75-.34,.75-.75s-.34-.75-.75-.75Z"/><path d="M12,17.25c-.41,0-.75,.34-.75,.75v3c0,.41,.34,.75,.75,.75s.75-.34,.75-.75v-3c0-.41-.34-.75-.75-.75Z"/></g></g></svg>