<?xml version="1.0" encoding="UTF-8"?><svg fill="currentColor" xmlns="http://www.w3.org/2000/svg" viewBox="0 0 24 24"><g id="d"><g><path d="M21.75,16.94c-.17-2.13-.71-4.23-1.59-6.24-.02-.04-.05-.07-.08-.11,1.01-.87,1.67-2.15,1.67-3.59,0-2.62-2.13-4.75-4.75-4.75s-4.75,2.13-4.75,4.75c0,1.6,.8,3.02,2.02,3.88,0,.04-.02,.08-.02,.12v2.84c-.87-.33-1.97-.59-3.25-.59-.34,0-.68,.04-1.02,.08-.84-.69-1.88-1.08-2.98-1.08-2.62,0-4.75,2.13-4.75,4.75s2.13,4.75,4.75,4.75c1.06,0,2.07-.37,2.9-1.01,1.81,.67,3.69,1.02,5.61,1.02,.17,0,.35,0,.52,0,1.55-.05,3.09-.32,4.57-.81,.68-.23,1.17-.86,1.2-1.57,.04-.81,.02-1.63-.04-2.43ZM17,3.75c1.79,0,3.25,1.46,3.25,3.25s-1.46,3.25-3.25,3.25-3.25-1.46-3.25-3.25,1.46-3.25,3.25-3.25Zm3.29,15.55c0,.1-.07,.18-.17,.21-1.34,.44-2.74,.69-4.15,.73-2.03,.06-4.03-.29-5.94-1.05-.04-.02-.08-.01-.11-.02-.05-.01-.1-.03-.16-.03-.06,0-.12,.02-.17,.03-.04,0-.07,0-.11,.02-.07,.03-.13,.07-.19,.12-.02,.01-.04,.02-.05,.03-.61,.58-1.4,.89-2.24,.89-1.79,0-3.25-1.46-3.25-3.25s1.46-3.25,3.25-3.25c.83,0,1.63,.32,2.23,.89,.01,.01,.03,.02,.05,.03,.03,.03,.07,.04,.1,.06,.05,.03,.1,.06,.15,.07,.04,.01,.08,.01,.12,.02,.05,0,.1,.01,.16,.01,.02,0,.03,0,.05,0,.38-.06,.77-.09,1.14-.09,1.6,0,2.87,.5,3.65,.91,.11,.06,.23,.09,.35,.09,.13,0,.27-.04,.39-.11,.23-.13,.36-.38,.36-.64v-3.44c.4,.11,.81,.19,1.25,.19,.64,0,1.26-.13,1.82-.37,.79,1.83,1.28,3.74,1.43,5.68,.06,.74,.07,1.5,.04,2.24Z"/><path d="M17,8.75c.96,0,1.75-.79,1.75-1.75s-.79-1.75-1.75-1.75-1.75,.79-1.75,1.75,.79,1.75,1.75,1.75Zm0-2c.14,0,.25,.11,.25,.25,0,.28-.5,.28-.5,0,0-.14,.11-.25,.25-.25Z"/></g></g></svg>