<?xml version="1.0" encoding="UTF-8"?><svg fill="currentColor" xmlns="http://www.w3.org/2000/svg" viewBox="0 0 24 24"><g id="j"><path d="M18,5.25h-.25v-.75c0-1.24-1.01-2.25-2.25-2.25s-2.25,1.01-2.25,2.25v.75h-2.5v-.75c0-1.24-1.01-2.25-2.25-2.25s-2.25,1.01-2.25,2.25v.75h-.25c-2.07,0-3.75,1.68-3.75,3.75v4c0,.96,.79,1.75,1.75,1.75h1.6l-3.22,4.83c-.23,.34-.14,.81,.21,1.04,.13,.08,.27,.13,.42,.13,.24,0,.48-.12,.62-.33l3.78-5.67h9.2l3.78,5.67c.14,.22,.38,.33,.62,.33,.14,0,.29-.04,.42-.13,.34-.23,.44-.7,.21-1.04l-3.22-4.83h1.6c.96,0,1.75-.79,1.75-1.75v-4c0-2.07-1.68-3.75-3.75-3.75Zm-3.25-.75c0-.41,.34-.75,.75-.75s.75,.34,.75,.75v.75h-1.5v-.75Zm-7,0c0-.41,.34-.75,.75-.75s.75,.34,.75,.75v.75h-1.5v-.75Zm-1.75,2.25h12c1.24,0,2.25,1.01,2.25,2.25v1.25H3.75v-1.25c0-1.24,1.01-2.25,2.25-2.25Zm14,6.5H4c-.14,0-.25-.11-.25-.25v-1.25H20.25v1.25c0,.14-.11,.25-.25,.25Z"/></g></svg>