<?xml version="1.0" encoding="UTF-8"?><svg fill="currentColor" xmlns="http://www.w3.org/2000/svg" viewBox="0 0 24 24"><g id="k"><path d="M19.5,3.25c-1.24,0-2.25,1.01-2.25,2.25v.75h-.5v-1.25c0-.41-.34-.75-.75-.75s-.75,.34-.75,.75v1.25h-6.5v-1.25c0-.41-.34-.75-.75-.75s-.75,.34-.75,.75v1.25h-.5v-.75c0-1.24-1.01-2.25-2.25-2.25s-2.25,1.01-2.25,2.25v3c0,1.24,1.01,2.25,2.25,2.25s2.25-1.01,2.25-2.25v-.75h.5v11.5h-3.25c-.41,0-.75,.34-.75,.75s.34,.75,.75,.75H20c.41,0,.75-.34,.75-.75s-.34-.75-.75-.75h-3.25V7.75h.5v.75c0,1.24,1.01,2.25,2.25,2.25s2.25-1.01,2.25-2.25v-3c0-1.24-1.01-2.25-2.25-2.25ZM5.25,8.5c0,.41-.34,.75-.75,.75s-.75-.34-.75-.75v-3c0-.41,.34-.75,.75-.75s.75,.34,.75,.75v3Zm3.5,10.75v-3.5h6.5v3.5h-6.5Zm6.5-5h-6.5V7.75h6.5v6.5Zm5-5.75c0,.41-.34,.75-.75,.75s-.75-.34-.75-.75v-3c0-.41,.34-.75,.75-.75s.75,.34,.75,.75v3Z"/></g></svg>