<?xml version="1.0" encoding="UTF-8"?><svg fill="currentColor" xmlns="http://www.w3.org/2000/svg" viewBox="0 0 24 24"><g id="l"><path d="M12,2.25C6.62,2.25,2.25,6.62,2.25,12s4.37,9.75,9.75,9.75,9.75-4.37,9.75-9.75S17.38,2.25,12,2.25Zm8.25,9.75c0,.07,0,.14-.01,.21-4.21-.39-7.49-3.98-7.49-8.21,0-.07,0-.14,0-.21,4.19,.38,7.49,3.92,7.49,8.21Zm-16.5,0c0-1.77,.56-3.4,1.51-4.74,0,.08-.01,.16-.01,.24,0,6.01,4.35,11.01,10.07,12.04-1.02,.45-2.14,.71-3.32,.71-4.55,0-8.25-3.7-8.25-8.25Zm13.63,6.24c-5.87-.07-10.63-4.86-10.63-10.74,0-.65,.06-1.3,.17-1.93,0-.02,0-.04,0-.06,1.22-.96,2.71-1.58,4.34-1.72,0,.07,0,.14,0,.21,0,5,3.87,9.23,8.82,9.7-.38,1.8-1.35,3.38-2.7,4.54Z"/></g></svg>