<?xml version="1.0" encoding="UTF-8"?><svg fill="currentColor" xmlns="http://www.w3.org/2000/svg" viewBox="0 0 24 24"><g id="r"><g><path d="M20.75,14.82c-.04-2.13-1.09-4.07-2.83-5.3l.71-2.49c.33-1.14,.1-2.34-.61-3.29s-1.81-1.49-2.99-1.49h-6.04c-1.19,0-2.28,.54-2.99,1.49s-.94,2.15-.61,3.29l.71,2.5c-1.75,1.26-2.83,3.29-2.84,5.47,0,2.37,.79,4.23,1.45,5.38,.48,.84,1.4,1.37,2.38,1.37h9.85c.98,0,1.88-.51,2.36-1.34,1.27-2.19,1.46-4.33,1.46-5.41v-.18Zm-2.76,4.84c-.21,.36-.62,.59-1.07,.59H7.08c-.45,0-.86-.24-1.08-.62-.57-.99-1.25-2.6-1.25-4.66,0-1.86,.97-3.53,2.59-4.49,.02,0,.02-.03,.04-.04,.04-.03,.08-.07,.11-.1,.03-.03,.06-.07,.09-.1,.03-.04,.04-.08,.06-.13,.02-.04,.03-.09,.04-.14,0-.04,0-.09,0-.14,0-.05,0-.1-.01-.16,0-.02,0-.03,0-.05l-.86-3.02c-.2-.69-.06-1.4,.37-1.97,.43-.57,1.08-.9,1.8-.9h6.04c.71,0,1.37,.33,1.8,.9,.43,.57,.56,1.29,.37,1.97l-.86,3.01s0,.04,0,.06c0,.05-.01,.1-.01,.14,0,.05,0,.1,0,.15,0,.04,.02,.08,.04,.13,.02,.05,.04,.09,.06,.14,.02,.04,.05,.07,.08,.1,.04,.04,.07,.07,.12,.11,.02,.01,.02,.03,.04,.04,1.59,.93,2.55,2.56,2.58,4.36v.15c0,.93-.16,2.77-1.26,4.66Z"/><path d="M12,11.25c-2.07,0-3.75,1.68-3.75,3.75s1.68,3.75,3.75,3.75,3.75-1.68,3.75-3.75-1.68-3.75-3.75-3.75Zm0,6c-1.24,0-2.25-1.01-2.25-2.25s1.01-2.25,2.25-2.25,2.25,1.01,2.25,2.25-1.01,2.25-2.25,2.25Z"/><path d="M9.33,9.25s0,.01,.01,.02c.02,.05,.05,.09,.08,.14,.02,.04,.04,.08,.07,.11,.03,.04,.08,.06,.12,.09,.04,.03,.07,.06,.11,.08,.04,.02,.09,.02,.13,.03,.05,.01,.1,.03,.15,.03,0,0,.02,0,.02,0h3.93c.09,0,.18-.02,.26-.05,.03-.01,.05-.02,.08-.04,.05-.03,.1-.06,.15-.1,.02-.02,.04-.04,.06-.06,.04-.05,.07-.1,.1-.15,.01-.02,.03-.05,.04-.07,0,0,.01-.02,.01-.03l.58-1.67c.18-.53,.1-1.13-.23-1.59-.33-.46-.86-.73-1.43-.73h-3.19c-.57,0-1.1,.27-1.43,.73-.33,.46-.41,1.05-.23,1.59l.58,1.67Zm.87-2.39s.09-.1,.2-.1h3.19c.11,0,.18,.07,.2,.1,.03,.04,.07,.12,.03,.23l-.4,1.17h-2.86l-.4-1.17c-.04-.11,0-.19,.03-.23Z"/></g></g></svg>