<?xml version="1.0" encoding="UTF-8"?><svg fill="currentColor" xmlns="http://www.w3.org/2000/svg" viewBox="0 0 24 24"><g id="p"><path d="M21.53,10.65c-.9-.89-2.18-1.4-3.53-1.4-1.57,0-2.98,.67-3.87,1.78-.54-.37-1.22-.68-2.04-.78-1.17-.14-2.36,.17-3.34,.87v-1.66l1.14-.57c.07-.04,.15-.04,.22,0l.76,.38c.79,.39,1.75,.14,2.24-.59l1.06-1.58c.46-.69,.37-1.62-.22-2.21l-1.89-1.89c-1.14-1.14-2.88-1.42-4.33-.7l-2.59,1.29c-1.16,.58-1.93,1.69-2.05,2.98l-.79,7.91c-.05,.51,.12,1.01,.46,1.37,1.31,1.38,4.11,3.72,8.21,3.9,1.68,.07,3.36-.23,4.97-.9,.07-.03,.13-.03,.19-.01l1.95,.65c.1,.03,.17,.13,.17,.24v1.28c0,.41,.34,.75,.75,.75s.75-.34,.75-.75v-1.28c0-.75-.48-1.42-1.2-1.66l-1.95-.65c-.4-.13-.84-.11-1.24,.05-1.4,.59-2.86,.85-4.33,.79-3.57-.16-6.03-2.22-7.18-3.43-.04-.05-.07-.12-.06-.19l.79-7.91c.08-.77,.54-1.44,1.23-1.79l2.59-1.29c.87-.43,1.91-.26,2.6,.42l1.89,1.89c.08,.08,.1,.22,.03,.32l-1.06,1.58c-.07,.1-.21,.14-.32,.08l-.76-.38c-.49-.25-1.07-.24-1.56,0l-1.28,.64c-.43,.21-.69,.64-.69,1.12v2.34c0,.5,.28,.93,.73,1.13,.45,.2,.98,.12,1.35-.21,.73-.64,1.67-.94,2.58-.83,1.5,.18,2.3,1.4,2.45,1.64,.21,.36,.67,.47,1.03,.26,.36-.21,.47-.67,.26-1.03-.06-.1-.2-.31-.4-.56,.59-.8,1.63-1.31,2.76-1.31,.95,0,1.85,.35,2.47,.97,.29,.29,.77,.29,1.06,0s.29-.77,0-1.06Z"/></g></svg>