<?xml version="1.0" encoding="UTF-8"?><svg fill="currentColor" xmlns="http://www.w3.org/2000/svg" viewBox="0 0 24 24"><g id="g"><path d="M19.75,8.28v-.28c0-1.52-1.23-2.75-2.75-2.75h-4.25v-1.5h1.25c.41,0,.75-.34,.75-.75s-.34-.75-.75-.75h-4c-.41,0-.75,.34-.75,.75s.34,.75,.75,.75h1.25v1.5H7c-1.52,0-2.75,1.23-2.75,2.75v.28c-1.12,.13-2,1.07-2,2.22v2c0,1.24,1.01,2.25,2.25,2.25s2.25-1.01,2.25-2.25v-2c0-.78-.4-1.46-1-1.87v-.63c0-.69,.56-1.25,1.25-1.25h4.25v1.58c-1.71,.35-3,1.86-3,3.67v2.9c-.61,.5-1,1.26-1,2.1v.5c0,.69,.56,1.25,1.25,1.25h2.75v1.5h-2.25c-.41,0-.75,.34-.75,.75s.34,.75,.75,.75h6c.41,0,.75-.34,.75-.75s-.34-.75-.75-.75h-2.25v-1.5h2.75c.69,0,1.25-.56,1.25-1.25v-.5c0-.85-.39-1.6-1-2.1v-2.9c0-1.81-1.29-3.33-3-3.67v-1.58h4.25c.69,0,1.25,.56,1.25,1.25v.63c-.6,.4-1,1.09-1,1.87v2c0,1.24,1.01,2.25,2.25,2.25s2.25-1.01,2.25-2.25v-2c0-1.15-.88-2.1-2-2.22ZM5.25,12.5c0,.41-.34,.75-.75,.75s-.75-.34-.75-.75v-2c0-.41,.34-.75,.75-.75s.75,.34,.75,.75v2Zm10,4.75h-6.5v-.25c0-.69,.56-1.25,1.25-1.25h4c.69,0,1.25,.56,1.25,1.25v.25Zm-1-5.25v2.25h-4.5v-2.25c0-1.24,1.01-2.25,2.25-2.25s2.25,1.01,2.25,2.25Zm6,.5c0,.41-.34,.75-.75,.75s-.75-.34-.75-.75v-2c0-.41,.34-.75,.75-.75s.75,.34,.75,.75v2Z"/></g></svg>