<?xml version="1.0" encoding="UTF-8"?><svg fill="currentColor" xmlns="http://www.w3.org/2000/svg" viewBox="0 0 24 24"><g id="b"><path d="M19.5,10.25h-1.87c-.33-1.15-1.38-2-2.63-2h-.25v-.25c0-1.52-1.23-2.75-2.75-2.75s-2.75,1.23-2.75,2.75v.25h-.25c-1.25,0-2.3,.85-2.63,2h-1.87c-1.24,0-2.25,1.01-2.25,2.25s1.01,2.25,2.25,2.25h1.87c.33,1.15,1.38,2,2.63,2h.25v.25c0,1.52,1.23,2.75,2.75,2.75s2.75-1.23,2.75-2.75v-.25h.25c1.25,0,2.3-.85,2.63-2h1.87c1.24,0,2.25-1.01,2.25-2.25s-1.01-2.25-2.25-2.25ZM3.75,12.5c0-.41,.34-.75,.75-.75h1.75v1.5h-1.75c-.41,0-.75-.34-.75-.75Zm5.25,2.75c-.69,0-1.25-.56-1.25-1.25v-3c0-.69,.56-1.25,1.25-1.25h.25v5.5h-.25Zm4.25,1.75c0,.69-.56,1.25-1.25,1.25s-1.25-.56-1.25-1.25V8c0-.69,.56-1.25,1.25-1.25s1.25,.56,1.25,1.25v9Zm1.75-1.75h-.25v-5.5h.25c.69,0,1.25,.56,1.25,1.25v3c0,.69-.56,1.25-1.25,1.25Zm4.5-2h-1.75v-1.5h1.75c.41,0,.75,.34,.75,.75s-.34,.75-.75,.75Z"/></g></svg>