<?xml version="1.0" encoding="UTF-8"?><svg fill="currentColor" xmlns="http://www.w3.org/2000/svg" viewBox="0 0 24 24"><g id="e"><path d="M21.72,12.81c0-.11,.03-.22,.03-.34,0-2.1-1.57-3.91-3.65-4.21-1.23-.17-2.17-.05-2.93,.06-.76,.1-1.3,.18-1.95-.03-.84-.27-1.6-.96-2.25-2.07-.19-.33-.52-.55-.9-.6-.38-.05-.76,.07-1.04,.34-.41,.4-.89,.69-1.42,.86-1.08,.34-2.06,.09-2.69-.19-.36-.16-.79-.14-1.13,.06-.35,.2-.57,.54-.61,.94l-.55,4.95c-.12,1.06,.22,2.12,.93,2.92,.71,.79,1.73,1.25,2.79,1.25h11.13c2.07,0,3.79-1.48,4.18-3.43,.06-.13,.1-.28,.08-.44,0-.02-.02-.04-.02-.07ZM4.63,8.14c.86,.32,2.08,.55,3.44,.12,.65-.21,1.25-.55,1.78-1,.32,.5,.68,.92,1.05,1.28l-.57,1.13c-.19,.37-.04,.82,.34,1.01,.11,.05,.22,.08,.33,.08,.27,0,.54-.15,.67-.42l.45-.9c.21,.11,.43,.21,.65,.28,.09,.03,.17,.04,.26,.06l-.26,1.04c-.1,.4,.14,.81,.55,.91,.06,.02,.12,.02,.18,.02,.34,0,.64-.23,.73-.57l.32-1.29c.28-.02,.55-.05,.83-.09,.05,0,.1-.01,.15-.02l-.26,1.04c-.1,.4,.14,.81,.55,.91,.06,.02,.12,.02,.18,.02,.34,0,.64-.23,.73-.57l.38-1.51c.25,0,.51,.03,.79,.07,1.3,.19,2.28,1.3,2.35,2.61-2.61,.39-5.25,.58-7.9,.59-2.73,0-5.48-.24-8.17-.67l.46-4.13Zm12.85,7.11H6.35c-.64,0-1.25-.27-1.68-.75-.19-.21-.32-.45-.42-.71,2.67,.42,5.38,.64,8.08,.65h.16c2.45,0,4.91-.18,7.34-.52-.49,.79-1.36,1.33-2.35,1.33Z"/></g></svg>