<?xml version="1.0" encoding="UTF-8"?><svg fill="currentColor" xmlns="http://www.w3.org/2000/svg" viewBox="0 0 24 24"><g id="f"><g><path d="M19,10.25h-.25v-.25c0-2.17-1.06-4.22-2.82-5.49-.07-.05-.14-.07-.22-.1-.08-.38-.27-.71-.56-.95-1.25-1.05-2.51-1.21-3.16-1.21-1.39,0-2.46,.64-3.11,1.17-.3,.24-.5,.57-.59,.94-1.91,1.25-3.05,3.35-3.05,5.64v.25h-.25c-1.52,0-2.75,1.23-2.75,2.75v6c0,1.52,1.23,2.75,2.75,2.75h14c1.52,0,2.75-1.23,2.75-2.75v-6c0-1.52-1.23-2.75-2.75-2.75ZM9.75,4.78c0-.08,.03-.15,.09-.2,.46-.38,1.21-.83,2.16-.83,.44,0,1.3,.11,2.19,.86,.03,.03,.06,.09,.06,.17v.33c0,.13-.1,.21-.13,.22-.06,.04-.13,.05-.19,.02-.62-.29-1.27-.43-1.94-.43-.62,0-1.27,.14-1.87,.4-.14,.06-.24,0-.28-.02-.07-.04-.1-.11-.1-.2v-.33Zm-3,5.22c0-1.53,.66-2.96,1.8-3.94,.13,.19,.29,.37,.49,.5,.5,.33,1.14,.38,1.7,.14,.85-.37,1.75-.36,2.57,.02,.22,.1,.46,.15,.7,.15,.32,0,.64-.09,.92-.27,.22-.14,.39-.33,.52-.54,1.13,.99,1.79,2.43,1.79,3.94v.25H6.75v-.25Zm10.5,1.75v8.5H6.75V11.75h10.5ZM3.75,19v-6c0-.69,.56-1.25,1.25-1.25h.25v8.5h-.25c-.69,0-1.25-.56-1.25-1.25Zm16.5,0c0,.69-.56,1.25-1.25,1.25h-.25V11.75h.25c.69,0,1.25,.56,1.25,1.25v6Z"/><path d="M11,18.75h2c1.52,0,2.75-1.23,2.75-2.75v-2c0-.41-.34-.75-.75-.75h-6c-.41,0-.75,.34-.75,.75v2c0,1.52,1.23,2.75,2.75,2.75Zm-1.25-4h4.5v1.25c0,.69-.56,1.25-1.25,1.25h-2c-.69,0-1.25-.56-1.25-1.25v-1.25Z"/></g></g></svg>