<?xml version="1.0" encoding="UTF-8"?><svg fill="currentColor" xmlns="http://www.w3.org/2000/svg" viewBox="0 0 24 24"><g id="c"><g><path d="M21.55,18.71l-1.81-10.84h0c-.07-2.57-2.16-4.63-4.74-4.63h-6c-2.57,0-4.66,2.06-4.74,4.62h0l-1.81,10.85c-.08,.51,.06,1.03,.39,1.42,.33,.39,.82,.62,1.33,.62h15.64c.52,0,1-.23,1.33-.62,.33-.39,.48-.91,.39-1.42ZM5.64,8.75h12.73l.75,4.5H4.89l.75-4.5Zm3.36-4h6c1.53,0,2.82,1.07,3.16,2.5H5.84c.34-1.43,1.63-2.5,3.16-2.5Zm11.01,14.41s-.09,.09-.19,.09H4.18c-.1,0-.16-.06-.19-.09-.03-.03-.07-.1-.06-.2l.7-4.21h14.73l.7,4.21c.02,.1-.03,.17-.06,.2Z"/><path d="M13,16.25h-2c-.41,0-.75,.34-.75,.75s.34,.75,.75,.75h2c.41,0,.75-.34,.75-.75s-.34-.75-.75-.75Z"/><path d="M13,10.25h-2c-.41,0-.75,.34-.75,.75s.34,.75,.75,.75h2c.41,0,.75-.34,.75-.75s-.34-.75-.75-.75Z"/></g></g></svg>