<?xml version="1.0" encoding="UTF-8"?><svg fill="currentColor" xmlns="http://www.w3.org/2000/svg" viewBox="0 0 24 24"><g id="q"><path d="M19.75,7.28v-.08c0-1.63-1.32-2.95-2.95-2.95-1.4,0-2.62,1-2.89,2.37l-.09,.46c-.15,.76-.43,1.48-.77,2.17-.02,0-.03,0-.04,0h-2s-.03,0-.04,0c-.35-.69-.62-1.42-.77-2.18l-.09-.46c-.28-1.37-1.49-2.37-2.89-2.37-1.63,0-2.95,1.32-2.95,2.95v.08c-1.12,.13-2,1.07-2,2.22v5c0,1.16,.88,2.1,2,2.22v.08c0,1.63,1.32,2.95,2.95,2.95,1.4,0,2.62-1,2.89-2.37l.09-.46c.15-.76,.43-1.48,.77-2.17,.02,0,.03,0,.04,0h2s.03,0,.04,0c.35,.69,.62,1.41,.77,2.17l.09,.46c.28,1.37,1.49,2.37,2.89,2.37,1.63,0,2.95-1.32,2.95-2.95v-.08c1.12-.13,2-1.07,2-2.22v-5c0-1.16-.88-2.1-2-2.22Zm-8.75,5.97c-.14,0-.25-.11-.25-.25v-2c0-.14,.11-.25,.25-.25h2c.14,0,.25,.11,.25,.25v2c0,.14-.11,.25-.25,.25h-2Zm-7.25,1.25v-5c0-.41,.34-.75,.75-.75s.75,.34,.75,.75v5c0,.41-.34,.75-.75,.75s-.75-.34-.75-.75Zm4.96,2.13l-.09,.46c-.14,.67-.73,1.16-1.42,1.16-.8,0-1.45-.65-1.45-1.45v-.43c.6-.4,1-1.09,1-1.87v-5c0-.78-.4-1.46-1-1.87v-.43c0-.8,.65-1.45,1.45-1.45,.69,0,1.28,.49,1.42,1.16l.09,.46c.18,.9,.49,1.76,.9,2.58-.22,.29-.36,.65-.36,1.05v2c0,.4,.14,.76,.36,1.05-.41,.82-.72,1.68-.9,2.58Zm8.09,1.62c-.69,0-1.28-.49-1.42-1.16l-.09-.46c-.18-.9-.49-1.76-.9-2.58,.22-.29,.36-.65,.36-1.05v-2c0-.4-.14-.76-.36-1.05,.41-.82,.72-1.68,.9-2.58l.09-.46c.14-.67,.73-1.16,1.42-1.16,.8,0,1.45,.65,1.45,1.45v.43c-.6,.4-1,1.09-1,1.87v5c0,.78,.4,1.46,1,1.87v.43c0,.8-.65,1.45-1.45,1.45Zm3.45-3.75c0,.41-.34,.75-.75,.75s-.75-.34-.75-.75v-5c0-.41,.34-.75,.75-.75s.75,.34,.75,.75v5Z"/></g></svg>