<?xml version="1.0" encoding="UTF-8"?><svg fill="currentColor" xmlns="http://www.w3.org/2000/svg" viewBox="0 0 24 24"><g id="u"><path d="M16.56,5.31l-.73-2.2c-.17-.51-.65-.85-1.19-.85h-5.28c-.54,0-1.02,.34-1.19,.85l-.73,2.2c-1.25,.26-2.19,1.37-2.19,2.69v8c0,1.32,.94,2.43,2.19,2.69l.73,2.2c.17,.51,.65,.85,1.19,.85h5.28c.54,0,1.02-.34,1.19-.85l.73-2.2c1.25-.26,2.19-1.37,2.19-2.69V8c0-1.32-.94-2.43-2.19-2.69Zm-7.02-1.56h4.92l.5,1.5h-5.92l.5-1.5Zm-1.54,3h8c.69,0,1.25,.56,1.25,1.25v3.25h-1.94l-.78-.78c-.16-.16-.38-.24-.6-.22-.22,.02-.43,.14-.55,.33l-1.28,1.92-1.42-2.84c-.25-.51-1.09-.51-1.34,0l-.79,1.59h-1.79v-3.25c0-.69,.56-1.25,1.25-1.25Zm6.46,13.5h-4.92l-.5-1.5h5.92l-.5,1.5Zm1.54-3H8c-.69,0-1.25-.56-1.25-1.25v-3.25h2.25c.28,0,.54-.16,.67-.41l.33-.66,1.33,2.66c.12,.24,.36,.4,.62,.41,.02,0,.03,0,.05,0,.25,0,.48-.12,.62-.33l1.49-2.24,.35,.35c.14,.14,.33,.22,.53,.22h2.25v3.25c0,.69-.56,1.25-1.25,1.25Z"/></g></svg>