<?xml version="1.0" encoding="UTF-8"?><svg fill="currentColor" xmlns="http://www.w3.org/2000/svg" viewBox="0 0 24 24"><g id="r"><g><path d="M21.02,7.23l-.71-.71h0l-2.83-2.83h0l-.71-.71c-1.04-1.04-2.85-1.04-3.89,0L2.98,12.88c-1.07,1.07-1.07,2.82,0,3.89l4.24,4.24c.52,.52,1.21,.81,1.94,.81s1.42-.29,1.94-.81l9.9-9.9c1.07-1.07,1.07-2.82,0-3.89Zm-4.24-1.77l.18-.18,1.77,1.77-.18,.18c-.1,.1-.25,.1-.35,0l-1.41-1.41c-.1-.1-.1-.26,0-.35Zm3.18,4.6l-9.9,9.9c-.47,.47-1.29,.47-1.77,0l-4.24-4.24c-.49-.49-.49-1.28,0-1.77L13.94,4.04c.24-.24,.55-.37,.88-.37s.65,.13,.88,.37l.18,.18-.18,.18c-.68,.68-.68,1.79,0,2.47l1.42,1.41c.34,.34,.79,.51,1.24,.51s.9-.17,1.24-.51l.18-.18,.18,.18c.49,.49,.49,1.28,0,1.77Z"/><path d="M7.58,15.01c-.29-.29-.77-.29-1.06,0-.29,.29-.29,.77,0,1.06l1.42,1.41c.15,.15,.34,.22,.53,.22s.38-.07,.53-.22c.29-.29,.29-.77,0-1.06l-1.42-1.41Z"/><path d="M16.08,18.75h.03c1.51-.07,2.69-1.35,2.63-2.87-.02-.41-.38-.75-.78-.72-.41,.02-.73,.37-.72,.78,.03,.69-.51,1.27-1.2,1.3-.41,.02-.73,.37-.72,.78,.02,.4,.35,.72,.75,.72Z"/><path d="M20.96,15.04c-.41,.02-.73,.37-.72,.78,.05,1.13-.35,2.22-1.12,3.06-.77,.84-1.82,1.32-2.95,1.37-.41,.02-.73,.37-.72,.78,.02,.4,.35,.72,.75,.72h.03c3.17-.14,5.63-2.82,5.5-5.99-.02-.41-.41-.74-.78-.72Z"/><path d="M7.88,5.25c-1.51,.06-2.69,1.35-2.63,2.87,.02,.4,.35,.72,.75,.72h.03c.41-.02,.73-.37,.72-.78-.03-.69,.51-1.27,1.2-1.3,.41-.02,.73-.37,.72-.78-.02-.42-.42-.75-.78-.72Z"/><path d="M3,8.96h.03c.41-.02,.73-.37,.72-.78-.05-1.13,.35-2.22,1.12-3.06,.77-.84,1.82-1.32,2.95-1.37,.41-.02,.73-.37,.72-.78-.02-.42-.41-.75-.78-.72-3.17,.14-5.63,2.82-5.5,5.99,.02,.4,.35,.72,.75,.72Z"/></g></g></svg>