<?xml version="1.0" encoding="UTF-8"?><svg fill="currentColor" xmlns="http://www.w3.org/2000/svg" viewBox="0 0 24 24"><g id="t"><g><path d="M17,2.25c-.41,0-.75,.34-.75,.75V12c0,.69-.56,1.25-1.25,1.25h-6c-.69,0-1.25-.56-1.25-1.25V3c0-.41-.34-.75-.75-.75s-.75,.34-.75,.75V12c0,1.52,1.23,2.75,2.75,2.75h.46l.6,1.8c.19,.56,.64,.97,1.19,1.12v3.32c0,.41,.34,.75,.75,.75s.75-.34,.75-.75v-3.32c.55-.15,1-.56,1.19-1.12l.6-1.8h.46c1.52,0,2.75-1.23,2.75-2.75V3c0-.41-.34-.75-.75-.75Zm-4.48,13.83c-.03,.1-.13,.17-.24,.17h-.56c-.11,0-.2-.07-.24-.17l-.44-1.33h1.92l-.44,1.33Z"/><path d="M11,11.75h2c.41,0,.75-.34,.75-.75s-.34-.75-.75-.75h-2c-.41,0-.75,.34-.75,.75s.34,.75,.75,.75Z"/></g></g></svg>