<?xml version="1.0" encoding="UTF-8"?><svg fill="currentColor" xmlns="http://www.w3.org/2000/svg" viewBox="0 0 24 24"><g id="b"><g><path d="M19,4.25H5c-1.52,0-2.75,1.23-2.75,2.75v6c0,1.52,1.23,2.75,2.75,2.75h3c.39,0,.76,.19,1,.5l1.6,2.13c.33,.45,.84,.7,1.4,.7s1.07-.26,1.4-.7l1.6-2.13c.23-.31,.61-.5,1-.5h3c1.52,0,2.75-1.23,2.75-2.75V7c0-1.52-1.23-2.75-2.75-2.75Zm1.25,7h-.25c-.14,0-.25-.11-.25-.25v-2c0-.14,.11-.25,.25-.25h.25v2.5Zm-1.25,3h-3c-.86,0-1.68,.41-2.2,1.1l-1.6,2.13c-.13,.17-.27,.17-.4,0l-1.6-2.13c-.52-.69-1.34-1.1-2.2-1.1h-3c-.69,0-1.25-.56-1.25-1.25V7c0-.69,.56-1.25,1.25-1.25h14c.69,0,1.25,.56,1.25,1.25v.25h-.25c-.96,0-1.75,.79-1.75,1.75v2c0,.96,.79,1.75,1.75,1.75h.25v.25c0,.69-.56,1.25-1.25,1.25Z"/><path d="M6,8.25c-.41,0-.75,.34-.75,.75v2c0,.41,.34,.75,.75,.75s.75-.34,.75-.75v-2c0-.41-.34-.75-.75-.75Z"/></g></g></svg>