<?xml version="1.0" encoding="UTF-8"?><svg fill="currentColor" xmlns="http://www.w3.org/2000/svg" viewBox="0 0 24 24"><g id="j"><g><path d="M13.47,13.97c-.15-.3-.41-.52-.72-.63l-1.57-.52-.52-1.57c-.1-.32-.33-.57-.63-.72l-2.32-1.16c-.48-.24-1.06-.15-1.44,.23l-3.28,3.28c-.52,.52-.81,1.21-.81,1.94s.29,1.43,.81,1.94l4.24,4.24c.54,.54,1.24,.8,1.94,.8s1.41-.27,1.94-.8l3.28-3.28c.38-.38,.48-.96,.23-1.44l-1.16-2.32Zm-3.42,5.98c-.49,.49-1.28,.49-1.77,0l-4.24-4.24c-.24-.24-.37-.55-.37-.88s.13-.65,.37-.88l3.15-3.15,2.07,1.03,.53,1.59c.12,.37,.42,.67,.79,.79l1.59,.53,1.03,2.07-3.15,3.15Z"/><path d="M21.02,7.23l-.71-.71h0l-2.83-2.83h0l-.71-.71c-1.07-1.07-2.82-1.07-3.89,0l-3.75,3.75c-.28,.28-.41,.69-.35,1.08,.06,.4,.32,.74,.67,.92l1.93,.96,.53,1.59c.12,.37,.42,.67,.79,.79l1.59,.53,.96,1.93c.18,.36,.52,.61,.92,.67,.07,.01,.13,.02,.2,.02,.33,0,.65-.13,.88-.37h0l3.75-3.75c.52-.52,.81-1.21,.81-1.94s-.29-1.43-.81-1.94Zm-4.24-1.77l.18-.18,1.77,1.77-.18,.18c-.1,.1-.26,.1-.35,0l-1.41-1.42c-.1-.1-.1-.26,0-.35Zm3.18,4.6l-3.51,3.51-.86-1.71c-.15-.3-.41-.52-.72-.63l-1.57-.52-.52-1.57c-.11-.32-.33-.57-.63-.72l-1.71-.86,3.51-3.51c.49-.49,1.28-.49,1.77,0l.18,.18-.18,.18c-.68,.68-.68,1.79,0,2.47l1.41,1.42c.34,.34,.79,.51,1.24,.51s.9-.17,1.24-.51l.18-.18,.18,.18c.24,.24,.37,.55,.37,.88s-.13,.65-.37,.88Z"/><path d="M7.58,15c-.29-.29-.77-.29-1.06,0s-.29,.77,0,1.06l1.41,1.42c.15,.15,.34,.22,.53,.22s.38-.07,.53-.22c.29-.29,.29-.77,0-1.06l-1.41-1.42Z"/><path d="M19.78,16.2h-1.41c-.41,0-.75,.34-.75,.75s.34,.75,.75,.75h1.41c.41,0,.75-.34,.75-.75s-.34-.75-.75-.75Z"/><path d="M16.24,18.32c-.41,0-.75,.34-.75,.75v1.41c0,.41,.34,.75,.75,.75s.75-.34,.75-.75v-1.41c0-.41-.34-.75-.75-.75Z"/><path d="M7.05,6.39c.41,0,.75-.34,.75-.75v-1.41c0-.41-.34-.75-.75-.75s-.75,.34-.75,.75v1.41c0,.41,.34,.75,.75,.75Z"/><path d="M3.51,8.51h1.41c.41,0,.75-.34,.75-.75s-.34-.75-.75-.75h-1.41c-.41,0-.75,.34-.75,.75s.34,.75,.75,.75Z"/></g></g></svg>