<?xml version="1.0" encoding="UTF-8"?><svg fill="currentColor" xmlns="http://www.w3.org/2000/svg" viewBox="0 0 24 24"><g id="s"><path d="M20.98,13.4c-.09-.11-.2-.19-.3-.29,0,0,0-.01,0-.02,.04-.36,.07-.72,.07-1.09,0-4.82-3.92-8.75-8.75-8.75S3.25,7.18,3.25,12c0,.37,.02,.73,.07,1.09v.02c-.1,.09-.21,.18-.3,.29-.62,.73-.88,1.69-.72,2.63l.42,2.5c.26,1.57,1.61,2.71,3.2,2.71h1.4c.59,0,1.14-.26,1.52-.71,.38-.45,.54-1.04,.45-1.62l-.83-4.99c-.16-.97-.99-1.67-1.97-1.67h-.99c-.25,0-.49,.03-.72,.08,0-.11-.02-.22-.02-.33,0-4,3.25-7.25,7.25-7.25s7.25,3.25,7.25,7.25c0,.11-.02,.22-.02,.33-.24-.05-.48-.08-.72-.08h-.99c-.98,0-1.81,.7-1.97,1.67l-.83,4.99c-.1,.58,.07,1.17,.45,1.62,.38,.45,.94,.71,1.52,.71h1.4c1.59,0,2.94-1.14,3.2-2.71l.42-2.5c.16-.94-.11-1.9-.73-2.63Zm-14.5,.35c.24,0,.45,.17,.49,.42l.83,4.99c.03,.2-.06,.34-.11,.4-.06,.07-.18,.18-.38,.18h-1.4c-.86,0-1.58-.61-1.72-1.46l-.42-2.49c-.08-.51,.06-1.02,.39-1.42,.33-.39,.82-.62,1.33-.62h.99Zm13.74,2.03l-.42,2.49c-.14,.85-.87,1.46-1.72,1.46h-1.4c-.2,0-.32-.11-.38-.18-.06-.07-.14-.21-.11-.4l.83-4.99c.04-.24,.25-.42,.49-.42h.99c.51,0,1,.22,1.33,.62,.33,.39,.47,.91,.39,1.42Z"/></g></svg>