<?xml version="1.0" encoding="UTF-8"?><svg fill="currentColor" xmlns="http://www.w3.org/2000/svg" viewBox="0 0 24 24"><g id="i"><g><path d="M19,6.25H5c-1.52,0-2.75,1.23-2.75,2.75v10c0,1.52,1.23,2.75,2.75,2.75h14c1.52,0,2.75-1.23,2.75-2.75V9c0-1.52-1.23-2.75-2.75-2.75Zm1.25,9h-.25c-.14,0-.25-.11-.25-.25v-2c0-.14,.11-.25,.25-.25h.25v2.5Zm-1.25,5H5c-.69,0-1.25-.56-1.25-1.25V9c0-.69,.56-1.25,1.25-1.25h14c.69,0,1.25,.56,1.25,1.25v2.25h-.25c-.96,0-1.75,.79-1.75,1.75v2c0,.96,.79,1.75,1.75,1.75h.25v2.25c0,.69-.56,1.25-1.25,1.25Z"/><path d="M5.02,13.25h-.01c-.41,0-.74,.34-.74,.75s.34,.75,.75,.75,.75-.34,.75-.75-.34-.75-.75-.75Z"/><path d="M6.5,5.75H15.53c.42,0,.85-.1,1.23-.29l1.58-.79c.25-.13,.42-.39,.42-.67s-.16-.54-.42-.67l-1.58-.79c-.38-.19-.8-.29-1.23-.29H6.5c-.69,0-1.25,.56-1.25,1.25v1c0,.69,.56,1.25,1.25,1.25Zm.25-2H15.53c.19,0,.39,.05,.56,.13l.24,.12-.24,.12c-.17,.09-.37,.13-.56,.13H6.75v-.5Z"/></g></g></svg>