<?xml version="1.0" encoding="UTF-8"?><svg fill="currentColor" xmlns="http://www.w3.org/2000/svg" viewBox="0 0 24 24"><g id="n"><g><path d="M15,15.25c-.41,0-.75,.34-.75,.75v3c0,.69-.56,1.25-1.25,1.25H7c-.69,0-1.25-.56-1.25-1.25V5c0-.69,.56-1.25,1.25-1.25h.25v.25c0,.96,.79,1.75,1.75,1.75h2c.96,0,1.75-.79,1.75-1.75v-.25h.25c.69,0,1.25,.56,1.25,1.25v2c0,.41,.34,.75,.75,.75s.75-.34,.75-.75v-2c0-1.52-1.23-2.75-2.75-2.75H7c-1.52,0-2.75,1.23-2.75,2.75v14c0,1.52,1.23,2.75,2.75,2.75h6c1.52,0,2.75-1.23,2.75-2.75v-3c0-.41-.34-.75-.75-.75Zm-3.75-11.25c0,.14-.11,.25-.25,.25h-2c-.14,0-.25-.11-.25-.25v-.25h2.5v.25Z"/><path d="M9,17.25c-.41,0-.75,.34-.75,.75s.34,.75,.75,.75h2c.41,0,.75-.34,.75-.75s-.34-.75-.75-.75h-2Z"/><path d="M19,8.25h-5c-.96,0-1.75,.79-1.75,1.75v4c0,.26,.13,.5,.36,.64,.12,.07,.26,.11,.39,.11,.11,0,.23-.03,.33-.08l1.84-.92h3.82c.96,0,1.75-.79,1.75-1.75v-2c0-.96-.79-1.75-1.75-1.75Zm.25,3.75c0,.14-.11,.25-.25,.25h-4c-.12,0-.23,.03-.33,.08l-.92,.46v-2.79c0-.14,.11-.25,.25-.25h5c.14,0,.25,.11,.25,.25v2Z"/></g></g></svg>