<?xml version="1.0" encoding="UTF-8"?><svg fill="currentColor" xmlns="http://www.w3.org/2000/svg" viewBox="0 0 24 24"><g id="q"><g><path d="M11,17.25h-2c-.41,0-.75,.34-.75,.75s.34,.75,.75,.75h2c.41,0,.75-.34,.75-.75s-.34-.75-.75-.75Z"/><path d="M19,5.25h-3.25v-.25c0-1.52-1.23-2.75-2.75-2.75H7c-1.52,0-2.75,1.23-2.75,2.75v14c0,1.52,1.23,2.75,2.75,2.75h6c1.52,0,2.75-1.23,2.75-2.75V9.75h2.25c.2,0,.39-.08,.53-.22l1-1c.14-.14,.22-.33,.22-.53v-2c0-.41-.34-.75-.75-.75Zm-10.25-1.5h2.5v.25c0,.14-.11,.25-.25,.25h-2c-.14,0-.25-.11-.25-.25v-.25Zm5.5,15.25c0,.69-.56,1.25-1.25,1.25H7c-.69,0-1.25-.56-1.25-1.25V5c0-.69,.56-1.25,1.25-1.25h.25v.25c0,.96,.79,1.75,1.75,1.75h2c.96,0,1.75-.79,1.75-1.75v-.25h.25c.69,0,1.25,.56,1.25,1.25v14Zm4-11.31l-.56,.56h-1.94v-1.5h2.5v.94Z"/></g></g></svg>