<?xml version="1.0" encoding="UTF-8"?><svg fill="currentColor" xmlns="http://www.w3.org/2000/svg" viewBox="0 0 24 24"><g id="k"><g><path d="M16,9.25c-.41,0-.75,.34-.75,.75v10c0,.14-.11,.25-.25,.25h-7c-.14,0-.25-.11-.25-.25V6c0-.14,.11-.25,.25-.25h3c.41,0,.75-.34,.75-.75s-.34-.75-.75-.75h-3c-.96,0-1.75,.79-1.75,1.75v14c0,.96,.79,1.75,1.75,1.75h7c.96,0,1.75-.79,1.75-1.75V10c0-.41-.34-.75-.75-.75Z"/><path d="M10.25,18c0,.41,.34,.75,.75,.75h1c.41,0,.75-.34,.75-.75s-.34-.75-.75-.75h-1c-.41,0-.75,.34-.75,.75Z"/><path d="M15.5,2.25c-1.79,0-3.25,1.46-3.25,3.25s1.46,3.25,3.25,3.25,3.25-1.46,3.25-3.25-1.46-3.25-3.25-3.25Zm0,5c-.96,0-1.75-.79-1.75-1.75s.79-1.75,1.75-1.75,1.75,.79,1.75,1.75-.79,1.75-1.75,1.75Z"/></g></g></svg>