<?xml version="1.0" encoding="UTF-8"?><svg fill="currentColor" xmlns="http://www.w3.org/2000/svg" viewBox="0 0 24 24"><g id="h"><g><path d="M17,2.25h-7c-.96,0-1.75,.79-1.75,1.75v1.25h-1.25c-.96,0-1.75,.79-1.75,1.75v13c0,.96,.79,1.75,1.75,1.75h7c.96,0,1.75-.79,1.75-1.75v-1.25h1.25c.96,0,1.75-.79,1.75-1.75V4c0-.96-.79-1.75-1.75-1.75Zm-4.25,1.5h1.5v.5h-1.5v-.5Zm1.5,16.25c0,.14-.11,.25-.25,.25H7c-.14,0-.25-.11-.25-.25V7c0-.14,.11-.25,.25-.25h1.25v10.25c0,.96,.79,1.75,1.75,1.75h4.25v1.25Zm3-3c0,.14-.11,.25-.25,.25h-7c-.14,0-.25-.11-.25-.25V4c0-.14,.11-.25,.25-.25h1.25v.75c0,.69,.56,1.25,1.25,1.25h2c.69,0,1.25-.56,1.25-1.25v-.75h1.25c.14,0,.25,.11,.25,.25v13Z"/><path d="M14,14.25h-1c-.41,0-.75,.34-.75,.75s.34,.75,.75,.75h1c.41,0,.75-.34,.75-.75s-.34-.75-.75-.75Z"/></g></g></svg>