<?xml version="1.0" encoding="UTF-8"?><svg fill="currentColor" xmlns="http://www.w3.org/2000/svg" viewBox="0 0 24 24"><g id="e"><g><path d="M7.75,13.75h4.25c.41,0,.75-.34,.75-.75s-.34-.75-.75-.75H6c-.41,0-.75,.34-.75,.75s.34,.75,.75,.75h.25v1.5h-1.25c-.69,0-1.25-.56-1.25-1.25v-5c0-.69,.56-1.25,1.25-1.25h12c.22,0,.44,.06,.62,.17,.36,.21,.82,.08,1.02-.27,.21-.36,.08-.82-.27-1.02-.42-.24-.89-.37-1.38-.37h-1.25v-2.25c0-.96-.79-1.75-1.75-1.75h-6c-.96,0-1.75,.79-1.75,1.75v2.25h-1.25c-1.52,0-2.75,1.23-2.75,2.75v5c0,1.52,1.23,2.75,2.75,2.75h1.25v.25c0,.96,.79,1.75,1.75,1.75h4c.41,0,.75-.34,.75-.75s-.34-.75-.75-.75h-4c-.14,0-.25-.11-.25-.25v-3.25Zm0-9.75c0-.14,.11-.25,.25-.25h6c.14,0,.25,.11,.25,.25v2.25H7.75v-2.25Z"/><path d="M20,9.25h-5c-.96,0-1.75,.79-1.75,1.75v9c0,.96,.79,1.75,1.75,1.75h5c.96,0,1.75-.79,1.75-1.75V11c0-.96-.79-1.75-1.75-1.75Zm.25,10.75c0,.14-.11,.25-.25,.25h-5c-.14,0-.25-.11-.25-.25V11c0-.14,.11-.25,.25-.25h5c.14,0,.25,.11,.25,.25v9Z"/><path d="M18,17.25h-1c-.41,0-.75,.34-.75,.75s.34,.75,.75,.75h1c.41,0,.75-.34,.75-.75s-.34-.75-.75-.75Z"/></g></g></svg>