<?xml version="1.0" encoding="UTF-8"?><svg fill="currentColor" xmlns="http://www.w3.org/2000/svg" viewBox="0 0 24 24"><g id="d"><g><path d="M11,2.25H5c-1.52,0-2.75,1.23-2.75,2.75v14c0,1.52,1.23,2.75,2.75,2.75h6c1.52,0,2.75-1.23,2.75-2.75V5c0-1.52-1.23-2.75-2.75-2.75Zm1.25,16.75c0,.69-.56,1.25-1.25,1.25H5c-.69,0-1.25-.56-1.25-1.25V5c0-.69,.56-1.25,1.25-1.25h6c.69,0,1.25,.56,1.25,1.25v14Z"/><path d="M9,17.25h-2c-.41,0-.75,.34-.75,.75s.34,.75,.75,.75h2c.41,0,.75-.34,.75-.75s-.34-.75-.75-.75Z"/><path d="M9.47,8.47l-2.26,2.26-.53-1.07c-.18-.37-.64-.52-1.01-.34-.37,.19-.52,.64-.34,1.01l1,2c.11,.22,.31,.37,.55,.41,.04,0,.08,0,.12,0,.2,0,.39-.08,.53-.22l3-3c.29-.29,.29-.77,0-1.06s-.77-.29-1.06,0Z"/><path d="M19,8.75c.96,0,1.75-.79,1.75-1.75v-1.76c0-.27-.06-.54-.18-.78l-.62-1.24c-.3-.6-.9-.97-1.57-.97h-.76c-.67,0-1.27,.37-1.57,.97l-.62,1.24c-.12,.24-.18,.51-.18,.78v1.76c0,.96,.79,1.75,1.75,1.75h.25v3.5h-.25c-.96,0-1.75,.79-1.75,1.75v5c0,1.52,1.23,2.75,2.75,2.75s2.75-1.23,2.75-2.75v-5c0-.96-.79-1.75-1.75-1.75h-.25v-3.5h.25Zm.25,5.25v5c0,.69-.56,1.25-1.25,1.25s-1.25-.56-1.25-1.25v-5c0-.14,.11-.25,.25-.25h2c.14,0,.25,.11,.25,.25Zm-2.5-7v-1.76s0-.08,.03-.11l.62-1.24c.04-.08,.13-.14,.22-.14h.76c.1,0,.18,.05,.22,.14l.62,1.24s.03,.07,.03,.11v1.76c0,.14-.11,.25-.25,.25h-2c-.14,0-.25-.11-.25-.25Z"/></g></g></svg>