<?xml version="1.0" encoding="UTF-8"?><svg fill="currentColor" xmlns="http://www.w3.org/2000/svg" viewBox="0 0 24 24"><g id="p"><g><path d="M5,15.75c.41,0,.75-.34,.75-.75V5c0-.69,.56-1.25,1.25-1.25h2.25v.25c0,.96,.79,1.75,1.75,1.75h2c.96,0,1.75-.79,1.75-1.75v-.25h2.25c.22,0,.44,.06,.63,.17,.36,.21,.82,.08,1.02-.27,.21-.36,.08-.82-.27-1.02-.42-.24-.89-.37-1.38-.37H7c-1.52,0-2.75,1.23-2.75,2.75V15c0,.41,.34,.75,.75,.75ZM13.25,4c0,.14-.11,.25-.25,.25h-2c-.14,0-.25-.11-.25-.25v-.25h2.5v.25Z"/><path d="M12.02,19.75c.41,0,.75-.34,.75-.75s-.34-.75-.75-.75h-.01c-.41,0-.74,.34-.74,.75s.34,.75,.75,.75Z"/><path d="M21.56,3.5c-.28-.31-.75-.34-1.06-.06L2.5,19.44c-.31,.28-.34,.75-.06,1.06,.15,.17,.35,.25,.56,.25,.18,0,.35-.06,.5-.19l.88-.78c.34,1.14,1.38,1.97,2.62,1.97h10c1.52,0,2.75-1.23,2.75-2.75V6.11l1.75-1.55c.31-.28,.34-.75,.06-1.06Zm-3.31,15.5c0,.69-.56,1.25-1.25,1.25H7c-.69,0-1.25-.56-1.25-1.25v-.44L18.25,7.45v11.55Z"/></g></g></svg>