<?xml version="1.0" encoding="UTF-8"?><svg fill="currentColor" xmlns="http://www.w3.org/2000/svg" viewBox="0 0 24 24"><g id="c"><g><path d="M20.31,13.68l.64-.64c1.07-1.07,1.07-2.82,0-3.89l-3.53-3.54h0l-.71-.71c-1.07-1.07-2.82-1.07-3.89,0L4.21,13.51c-.55,.19-1.1,.48-1.65,.88-.33,.24-.41,.71-.17,1.05,.24,.33,.71,.41,1.05,.17,.88-.64,1.73-.93,2.49-.86,.49,.04,.79,.21,1.17,.43,.46,.26,1.02,.58,1.9,.58s1.46-.34,1.9-.62c.37-.23,.61-.38,1.1-.38h0c.5,0,.75,.16,1.11,.39,.43,.27,.96,.61,1.85,.61h.05c.9-.01,1.46-.36,1.92-.64,.37-.23,.66-.41,1.14-.45,.75-.07,1.58,.24,2.47,.94,.33,.26,.8,.2,1.05-.13,.25-.33,.2-.8-.13-1.05-.39-.3-.77-.53-1.16-.73Zm-3.6-6.3l.18-.18,1.77,1.77-.18,.18c-.1,.1-.26,.1-.35,0l-1.41-1.41c-.1-.1-.1-.26,0-.35Zm1.22,5.77c-.82,.08-1.35,.41-1.78,.67-.39,.24-.67,.41-1.15,.42-.47-.01-.71-.15-1.08-.38-.44-.28-.98-.62-1.91-.62h0c-.92,0-1.46,.34-1.9,.62-.37,.23-.61,.38-1.1,.38s-.77-.16-1.17-.38c-.34-.19-.75-.42-1.31-.54l7.35-7.35c.49-.49,1.28-.49,1.77,0l.18,.18-.18,.18c-.68,.68-.68,1.79,0,2.48l1.41,1.41c.34,.34,.79,.51,1.24,.51s.9-.17,1.24-.51l.18-.18,.18,.18c.24,.24,.37,.55,.37,.88s-.13,.65-.37,.88l-1.19,1.19c-.26-.03-.52-.04-.78-.01Z"/><path d="M17.92,17.16c-.82,.08-1.35,.41-1.78,.67-.39,.24-.67,.41-1.15,.42-.47,0-.71-.15-1.08-.38-.44-.28-.98-.62-1.91-.62h0c-.92,0-1.46,.34-1.9,.62-.37,.23-.61,.38-1.1,.38s-.77-.16-1.17-.38c-.42-.24-.95-.54-1.76-.61-1.14-.1-2.32,.28-3.51,1.14-.33,.24-.41,.71-.17,1.05,.24,.33,.71,.41,1.05,.17,.88-.64,1.73-.93,2.49-.86,.49,.04,.79,.21,1.17,.43,.46,.26,1.02,.58,1.9,.58s1.46-.34,1.9-.62c.37-.23,.61-.38,1.1-.38h0c.5,0,.75,.16,1.11,.39,.43,.27,.96,.61,1.85,.61h.05c.9-.01,1.46-.36,1.92-.64,.37-.23,.66-.41,1.14-.45,.75-.07,1.58,.24,2.47,.94,.33,.26,.8,.2,1.05-.13,.25-.33,.2-.8-.13-1.05-1.2-.94-2.41-1.37-3.54-1.25Z"/></g></g></svg>