<?xml version="1.0" encoding="UTF-8"?><svg fill="currentColor" xmlns="http://www.w3.org/2000/svg" viewBox="0 0 24 24"><g id="o"><g><path d="M9,19.25H5c-.69,0-1.25-.56-1.25-1.25V7c0-.69,.56-1.25,1.25-1.25h4c.41,0,.75-.34,.75-.75s-.34-.75-.75-.75H5c-1.52,0-2.75,1.23-2.75,2.75v11c0,1.52,1.23,2.75,2.75,2.75h4c.41,0,.75-.34,.75-.75s-.34-.75-.75-.75Z"/><path d="M7,16.25c-.41,0-.75,.34-.75,.75s.34,.75,.75,.75h1c.41,0,.75-.34,.75-.75s-.34-.75-.75-.75h-1Z"/><path d="M19,2.25h-6c-1.52,0-2.75,1.23-2.75,2.75v2c0,.41,.34,.75,.75,.75s.75-.34,.75-.75v-2c0-.69,.56-1.25,1.25-1.25h.25v.25c0,.96,.79,1.75,1.75,1.75h2c.96,0,1.75-.79,1.75-1.75v-.25h.25c.69,0,1.25,.56,1.25,1.25v14c0,.69-.56,1.25-1.25,1.25h-6c-.69,0-1.25-.56-1.25-1.25v-3c0-.41-.34-.75-.75-.75s-.75,.34-.75,.75v3c0,1.52,1.23,2.75,2.75,2.75h6c1.52,0,2.75-1.23,2.75-2.75V5c0-1.52-1.23-2.75-2.75-2.75Zm-1.75,1.75c0,.14-.11,.25-.25,.25h-2c-.14,0-.25-.11-.25-.25v-.25h2.5v.25Z"/><path d="M14.25,18c0,.41,.34,.75,.75,.75h2c.41,0,.75-.34,.75-.75s-.34-.75-.75-.75h-2c-.41,0-.75,.34-.75,.75Z"/><path d="M7.25,10c0,.41,.34,.75,.75,.75h6c.3,0,.58-.18,.69-.46s.05-.6-.16-.82l-1-1c-.29-.29-.77-.29-1.06,0-.21,.21-.27,.52-.18,.78h-4.29c-.41,0-.75,.34-.75,.75Z"/><path d="M14,12.25h-6c-.3,0-.58,.18-.69,.46s-.05,.6,.16,.82l1,1c.15,.15,.34,.22,.53,.22s.38-.07,.53-.22c.21-.21,.27-.52,.18-.78h4.29c.41,0,.75-.34,.75-.75s-.34-.75-.75-.75Z"/></g></g></svg>