<?xml version="1.0" encoding="UTF-8"?><svg fill="currentColor" xmlns="http://www.w3.org/2000/svg" viewBox="0 0 24 24"><g id="f"><g><path d="M15,2.25h-6c-1.52,0-2.75,1.23-2.75,2.75v14c0,1.52,1.23,2.75,2.75,2.75h6c1.52,0,2.75-1.23,2.75-2.75V5c0-1.52-1.23-2.75-2.75-2.75Zm-4.25,1.5h2.5v.25c0,.14-.11,.25-.25,.25h-2c-.14,0-.25-.11-.25-.25v-.25Zm5.5,15.25c0,.69-.56,1.25-1.25,1.25h-6c-.69,0-1.25-.56-1.25-1.25V5c0-.69,.56-1.25,1.25-1.25h.25v.25c0,.96,.79,1.75,1.75,1.75h2c.96,0,1.75-.79,1.75-1.75v-.25h.25c.69,0,1.25,.56,1.25,1.25v14Z"/><path d="M13,17.25h-2c-.41,0-.75,.34-.75,.75s.34,.75,.75,.75h2c.41,0,.75-.34,.75-.75s-.34-.75-.75-.75Z"/><path d="M19,10.75c.19,0,.38-.07,.53-.22l1-1c.29-.29,.29-.77,0-1.06s-.77-.29-1.06,0l-1,1c-.29,.29-.29,.77,0,1.06,.15,.15,.34,.22,.53,.22Z"/><path d="M21,11.25h-1c-.41,0-.75,.34-.75,.75s.34,.75,.75,.75h1c.41,0,.75-.34,.75-.75s-.34-.75-.75-.75Z"/><path d="M19.53,13.47c-.29-.29-.77-.29-1.06,0s-.29,.77,0,1.06l1,1c.15,.15,.34,.22,.53,.22s.38-.07,.53-.22c.29-.29,.29-.77,0-1.06l-1-1Z"/><path d="M4.53,8.47c-.29-.29-.77-.29-1.06,0s-.29,.77,0,1.06l1,1c.15,.15,.34,.22,.53,.22s.38-.07,.53-.22c.29-.29,.29-.77,0-1.06l-1-1Z"/><path d="M4.75,12c0-.41-.34-.75-.75-.75h-1c-.41,0-.75,.34-.75,.75s.34,.75,.75,.75h1c.41,0,.75-.34,.75-.75Z"/><path d="M4.47,13.47l-1,1c-.29,.29-.29,.77,0,1.06,.15,.15,.34,.22,.53,.22s.38-.07,.53-.22l1-1c.29-.29,.29-.77,0-1.06s-.77-.29-1.06,0Z"/></g></g></svg>