<svg fill="currentColor" xmlns="http://www.w3.org/2000/svg" viewBox="0 0 32 32"><g id="battery"><path d="M28.21,6H26V3a1,1,0,0,0-1-1H22a1,1,0,0,0-1,1V6H20V4a1,1,0,0,0-1-1H13a1,1,0,0,0-1,1V6H11V3a1,1,0,0,0-1-1H7A1,1,0,0,0,6,3V6H3.79A1.79,1.79,0,0,0,2,7.79v3.42A1.79,1.79,0,0,0,3.79,13H4V27.7A2.3,2.3,0,0,0,6.3,30H25.7A2.3,2.3,0,0,0,28,27.7V13h.21A1.79,1.79,0,0,0,30,11.21V7.79A1.79,1.79,0,0,0,28.21,6ZM23,4h1V6H23ZM14,5h4V6H14ZM8,4H9V6H8Zm3,24,1.5-2h7L21,28Zm15-.3a.31.31,0,0,1-.3.3H23.5l-2.7-3.6A1,1,0,0,0,20,24H12a1,1,0,0,0-.8.4L8.5,28H6.3a.31.31,0,0,1-.3-.3V16H26ZM26,14H6V13H26Zm2-3H4V8H28Z"/></g></svg>