<svg fill="currentColor" xmlns="http://www.w3.org/2000/svg" viewBox="0 0 32 32"><g id="call"><path d="M18.22,22.26a2.1,2.1,0,0,0-1.47-.63h0a2.1,2.1,0,0,0-1.47.61,3.45,3.45,0,0,1-1.8.94,1.94,1.94,0,0,1-1.77-.55l-2.37-2.4a2,2,0,0,1-.53-1.78,3.49,3.49,0,0,1,1-1.79,2.05,2.05,0,0,0,.62-1.47,2.12,2.12,0,0,0-.6-1.49l-2.5-2.53a2,2,0,0,0-1.47-.62,2.28,2.28,0,0,0-1.48.6,7.7,7.7,0,0,0-1.72,2.56h0a8.39,8.39,0,0,0,1.79,9.06L9.08,27.5a8.37,8.37,0,0,0,9,1.92,7.6,7.6,0,0,0,2.58-1.67,2.1,2.1,0,0,0,0-3Zm1.07,4.06a5.62,5.62,0,0,1-1.91,1.24A6.39,6.39,0,0,1,10.5,26.1L5.84,21.36a6.39,6.39,0,0,1-1.37-6.9,5.77,5.77,0,0,1,1.27-1.89.11.11,0,0,1,.13,0l2.5,2.54a.11.11,0,0,1,0,.12A5.56,5.56,0,0,0,6.83,18a4,4,0,0,0,1.06,3.59L10.26,24a4,4,0,0,0,3.58,1.11,5.53,5.53,0,0,0,2.83-1.49.09.09,0,0,1,.12,0l2.5,2.53A.1.1,0,0,1,19.29,26.32Z"/><path d="M22,2a8,8,0,0,0-8,8,7.82,7.82,0,0,0,1.08,4l-2.92,4.5a1,1,0,0,0,.05,1.16A1,1,0,0,0,13,20a1.13,1.13,0,0,0,.32-.05l6.54-2.25A8.13,8.13,0,0,0,22,18,8,8,0,0,0,22,2Zm0,14a5.86,5.86,0,0,1-1.67-.24,1,1,0,0,0-.79-.06l-4.12,1.41,1.65-2.54a1,1,0,0,0,.12-.89.72.72,0,0,0-.12-.25A6,6,0,1,1,22,16Z"/><path d="M24.89,8.55A1,1,0,0,0,24.16,8a1,1,0,0,0-.87.28L22,9.59l-1.29-1.3A1,1,0,0,0,19.84,8a1,1,0,0,0-.73.54l-1,2a1,1,0,0,0,1.78.9l.38-.76,1,1a1,1,0,0,0,1.42,0l1-1,.38.76A1,1,0,0,0,25,12a.93.93,0,0,0,.45-.11,1,1,0,0,0,.44-1.34Z"/></g></svg>