<svg fill="currentColor" xmlns="http://www.w3.org/2000/svg" viewBox="0 0 32 32"><g id="directional_sign" data-name="directional sign"><path d="M29.53,17.65l-4-2.5A1,1,0,0,0,25,15H19V14h1.41A1.59,1.59,0,0,0,22,12.41V8.59A1.59,1.59,0,0,0,20.41,7H19V5a3,3,0,0,0-6,0V7H7a1,1,0,0,0-.53.15l-4,2.5a1,1,0,0,0,0,1.7l4,2.5A1,1,0,0,0,7,14h6v1H11.59A1.59,1.59,0,0,0,10,16.59v3.82A1.59,1.59,0,0,0,11.59,22H13v6H12a1,1,0,0,0,0,2h8a1,1,0,0,0,0-2H19V22h6a1,1,0,0,0,.53-.15l4-2.5a1,1,0,0,0,0-1.7ZM15,5a1,1,0,0,1,2,0V7H15ZM4.89,10.5,7.29,9H20v3H7.29ZM15,14h2v1H15Zm2,14H15V22h2Zm7.71-8H12V17H24.71l2.4,1.5Z"/></g></svg>