<svg fill="currentColor" xmlns="http://www.w3.org/2000/svg" viewBox="0 0 32 32"><g id="driving_license" data-name="driving license"><path d="M27.17,7H4.83A2.83,2.83,0,0,0,2,9.83V22.17A2.83,2.83,0,0,0,4.83,25H27.17A2.83,2.83,0,0,0,30,22.17V9.83A2.83,2.83,0,0,0,27.17,7ZM28,22.17a.83.83,0,0,1-.83.83H4.83A.83.83,0,0,1,4,22.17V9.83A.83.83,0,0,1,4.83,9H27.17a.83.83,0,0,1,.83.83Z"/><path d="M16,11H7a1,1,0,0,0-1,1v8a1,1,0,0,0,1,1h9a1,1,0,0,0,1-1V12A1,1,0,0,0,16,11Zm-1,8H8V13h7Z"/><path d="M25,13H20a1,1,0,0,0,0,2h5a1,1,0,0,0,0-2Z"/><path d="M25,17H20a1,1,0,0,0,0,2h5a1,1,0,0,0,0-2Z"/></g></svg>