<svg fill="currentColor" xmlns="http://www.w3.org/2000/svg" viewBox="0 0 32 32"><g id="gas_station" data-name="gas station"><path d="M28.18,10H28V9.38a2.32,2.32,0,0,1,.68-1.65l1-1a1,1,0,1,0-1.42-1.42l-1,1A4.29,4.29,0,0,0,26,9.38V10h-.18A1.83,1.83,0,0,0,24,11.82v4.36A1.83,1.83,0,0,0,25.82,18H26v9.5a.5.5,0,0,1-1,0v-3A2.5,2.5,0,0,0,22.5,22H20V7.05A5.06,5.06,0,0,0,15,2H7.05A5.06,5.06,0,0,0,2,7.05V29a1,1,0,0,0,1,1H19a1,1,0,0,0,1-1V24h2.5a.5.5,0,0,1,.5.5v3a2.5,2.5,0,0,0,5,0V18h.18A1.83,1.83,0,0,0,30,16.18V11.82A1.83,1.83,0,0,0,28.18,10ZM18,28H4V7.05A3.06,3.06,0,0,1,7.05,4H15A3.06,3.06,0,0,1,18,7.05ZM28,16H26V12h2Z"/><path d="M14.81,6H7.19A2.19,2.19,0,0,0,5,8.19v2.62A2.19,2.19,0,0,0,7.19,13h7.62A2.19,2.19,0,0,0,17,10.81V8.19A2.19,2.19,0,0,0,14.81,6ZM15,10.81a.18.18,0,0,1-.19.19H7.19A.18.18,0,0,1,7,10.81V8.19A.18.18,0,0,1,7.19,8h7.62a.18.18,0,0,1,.19.19Z"/><path d="M15,14H7a1,1,0,0,0,0,2h8a1,1,0,0,0,0-2Z"/><path d="M12.75,18.34c-.34-.38-.7-.74-1.08-1.09a1,1,0,0,0-1.34,0q-.57.53-1.08,1.08A14.62,14.62,0,0,0,7.74,20.4a3.6,3.6,0,0,0,0,3.68,3.76,3.76,0,0,0,6.56,0,3.6,3.6,0,0,0,0-3.68A14,14,0,0,0,12.75,18.34Zm-.21,4.76a1.77,1.77,0,0,1-3.08,0,1.63,1.63,0,0,1,0-1.68,12.22,12.22,0,0,1,1.29-1.76l.25-.27a3.33,3.33,0,0,1,.25.28,11.61,11.61,0,0,1,1.29,1.75A1.63,1.63,0,0,1,12.54,23.1Z"/></g></svg>