<svg fill="currentColor" xmlns="http://www.w3.org/2000/svg" viewBox="0 0 32 32"><g id="hand"><path d="M23.5,11a2.73,2.73,0,0,0-.5,0V6.49A2.5,2.5,0,0,0,20.5,4a2.35,2.35,0,0,0-.54.06,2.5,2.5,0,0,0-4.92,0,2.5,2.5,0,0,0-3,2.44V7a2.83,2.83,0,0,0-.5,0A2.5,2.5,0,0,0,9,9.49v8a8.63,8.63,0,0,0,1.83,5.33l-4.6,5.53A1,1,0,0,0,7,30H19a1,1,0,0,0,.93-.63L21.68,25s0,0,0,0A8.51,8.51,0,0,0,26,17.5v-4A2.5,2.5,0,0,0,23.5,11ZM18.32,28H9.13l3.13-3.75A8,8,0,0,0,16.83,26H18a8.3,8.3,0,0,0,1.22-.15ZM24,17.5A6.43,6.43,0,0,1,17.88,24,7.85,7.85,0,0,1,17,24l0,1-.06-1A6.42,6.42,0,0,1,11,17.5v-8a.5.5,0,0,1,.5-.5.5.5,0,0,1,.5.5V14a1,1,0,1,0,2,0V6.49a.5.5,0,0,1,.5-.5.5.5,0,0,1,.5.5V14a1,1,0,1,0,2,0V4.49a.5.5,0,0,1,.5-.5.5.5,0,0,1,.5.5V14a1,1,0,1,0,2,0V6.49a.5.5,0,0,1,.5-.5.5.5,0,0,1,.5.5V16a1,1,0,1,0,2,0v-2.5a.5.5,0,0,1,.5-.5.5.5,0,0,1,.5.5Z"/></g></svg>