<svg fill="currentColor" xmlns="http://www.w3.org/2000/svg" viewBox="0 0 32 32"><g id="holder"><path d="M25,9H24V4.74A2.74,2.74,0,0,0,21.26,2H10.74A2.74,2.74,0,0,0,8,4.74V9H7a1,1,0,0,0-1,1v8a1,1,0,0,0,1,1H8v4.26a2.75,2.75,0,0,0,1.53,2.45L8.11,28.55A1,1,0,0,0,9,30H23a1,1,0,0,0,.89-1.45l-1.42-2.84A2.75,2.75,0,0,0,24,23.26V19h1a1,1,0,0,0,1-1V10A1,1,0,0,0,25,9Zm-3,9.83V20H10V18.77a3.18,3.18,0,0,0,2-2.95V12.18a3.18,3.18,0,0,0-2-3A1.43,1.43,0,0,0,10,9V8H22V9a.76.76,0,0,0,0,.16A3,3,0,0,0,20,12V16A3,3,0,0,0,22,18.83ZM21.26,24H10.74a.74.74,0,0,1-.74-.74V22H22v1.26A.74.74,0,0,1,21.26,24ZM10,4.74A.74.74,0,0,1,10.74,4H21.26a.74.74,0,0,1,.74.74V6H10ZM8,11h.82A1.18,1.18,0,0,1,10,12.18v3.64A1.18,1.18,0,0,1,8.82,17H8Zm2.62,17,1-2h8.76l1,2ZM24,17H23a1,1,0,0,1-1-1V12a1,1,0,0,1,1-1h1Z"/></g></svg>