<svg fill="currentColor" xmlns="http://www.w3.org/2000/svg" viewBox="0 0 32 32"><g id="key"><path d="M22.46,2.58A1.79,1.79,0,0,0,21.14,2H10.86A1.78,1.78,0,0,0,9.08,4l.86,9.42A1.79,1.79,0,0,0,11,14.85v1A2.17,2.17,0,0,0,13,18V26.6a1,1,0,0,0,.23.64l2,2.4a1,1,0,0,0,1.54,0l2-2.4A1,1,0,0,0,19,26.6V18a2.17,2.17,0,0,0,2-2.15v-1a1.79,1.79,0,0,0,1.06-1.48L22.92,4A1.81,1.81,0,0,0,22.46,2.58ZM20.91,4l-.82,9H11.91l-.82-9ZM17,26.24l-1,1.2-1-1.2V18h2Zm2-10.41a.18.18,0,0,1-.17.17H13.17a.18.18,0,0,1-.17-.17V15h6Z"/><path d="M14,7h4a1,1,0,0,0,0-2H14a1,1,0,0,0,0,2Z"/></g></svg>