<svg fill="currentColor" xmlns="http://www.w3.org/2000/svg" viewBox="0 0 32 32"><g id="map"><path d="M30,15V5.1a1,1,0,0,0-1.26-1L22,6,16.3,4.15A1,1,0,0,0,16,4.1h0a1,1,0,0,0-.29.05L10,6,3.26,4.14A1,1,0,0,0,2,5.1V15H2V25a1,1,0,0,0,.74,1l7,1.9a.85.85,0,0,0,.23,0h0a.93.93,0,0,0,.29,0l5.7-1.8,5.7,1.8a1,1,0,0,0,.3,0,.75.75,0,0,0,.26,0l7-1.9A1,1,0,0,0,30,25V15Zm-2-.65-5,2.14V7.77l5-1.36Zm-7,2-4-2V6.47l4,1.26Zm-6-2-4,2V7.73l4-1.26Zm-4,4.24,4-2v7.65l-4,1.26Zm6-2,4,2v6.91l-4-1.26ZM9,7.77v8.71L4,14.34V6.41ZM4,16.52l5,2.14v6.93L4,24.24Zm19,9.07V18.66l5-2.14v7.72Z"/></g></svg>