<svg fill="currentColor" xmlns="http://www.w3.org/2000/svg" viewBox="0 0 32 32"><g id="money"><path d="M27.37,8H4.63A2.63,2.63,0,0,0,2,10.63V21.37A2.63,2.63,0,0,0,4.63,24H27.37A2.63,2.63,0,0,0,30,21.37V10.63A2.63,2.63,0,0,0,27.37,8ZM24,21.25V22H8v-.75A3.26,3.26,0,0,0,4.75,18H4V14h.75A3.26,3.26,0,0,0,8,10.75V10H24v.75A3.26,3.26,0,0,0,27.25,14H28v4h-.75A3.26,3.26,0,0,0,24,21.25Zm4-10.62V12h-.75A1.25,1.25,0,0,1,26,10.75V10h1.37A.63.63,0,0,1,28,10.63ZM4.63,10H6v.75A1.25,1.25,0,0,1,4.75,12H4V10.63A.63.63,0,0,1,4.63,10ZM4,21.37V20h.75A1.25,1.25,0,0,1,6,21.25V22H4.63A.63.63,0,0,1,4,21.37ZM27.37,22H26v-.75A1.25,1.25,0,0,1,27.25,20H28v1.37A.63.63,0,0,1,27.37,22Z"/><path d="M16,12a4,4,0,1,0,4,4A4,4,0,0,0,16,12Zm0,6a2,2,0,1,1,2-2A2,2,0,0,1,16,18Z"/></g></svg>