<svg fill="currentColor" xmlns="http://www.w3.org/2000/svg" viewBox="0 0 32 32"><g id="radio"><path d="M27.82,11H4.18A2.19,2.19,0,0,0,2,13.18v8.64A2.19,2.19,0,0,0,4.18,24H27.82A2.19,2.19,0,0,0,30,21.82V13.18A2.19,2.19,0,0,0,27.82,11ZM28,21.82a.18.18,0,0,1-.18.18H4.18A.18.18,0,0,1,4,21.82V13.18A.18.18,0,0,1,4.18,13H27.82a.18.18,0,0,1,.18.18Z"/><path d="M22,14H10a1,1,0,0,0-1,1v5a1,1,0,0,0,1,1H22a1,1,0,0,0,1-1V15A1,1,0,0,0,22,14Zm-1,5H11V16H21Z"/><path d="M7,15H6a1,1,0,0,0,0,2H7a1,1,0,0,0,0-2Z"/><path d="M7,18H6a1,1,0,0,0,0,2H7a1,1,0,0,0,0-2Z"/><path d="M26,15H25a1,1,0,0,0,0,2h1a1,1,0,0,0,0-2Z"/><path d="M26,18H25a1,1,0,0,0,0,2h1a1,1,0,0,0,0-2Z"/></g></svg>