<svg fill="currentColor" xmlns="http://www.w3.org/2000/svg" viewBox="0 0 32 32"><g id="rearview_mirror" data-name="rearview mirror"><path d="M29.86,20,28,14.17A3.16,3.16,0,0,0,25,12H20.72L20,9.68A1,1,0,0,0,19,9H13a1,1,0,0,0-.95.68L11.28,12H7.05a3.16,3.16,0,0,0-3,2.17L2.14,20a3,3,0,0,0,.44,2.67A3.26,3.26,0,0,0,5.19,24H26.81a3.26,3.26,0,0,0,2.61-1.3A3,3,0,0,0,29.86,20ZM13.72,11h4.56l.33,1H13.39ZM27.8,21.52a1.22,1.22,0,0,1-1,.48H5.19a1.22,1.22,0,0,1-1-.48,1,1,0,0,1-.15-.89l1.86-5.85A1.17,1.17,0,0,1,7.05,14H25a1.17,1.17,0,0,1,1.14.78L28,20.63A1,1,0,0,1,27.8,21.52Z"/></g></svg>