<svg fill="currentColor" xmlns="http://www.w3.org/2000/svg" viewBox="0 0 32 32"><g id="repair_tools" data-name="repair tools"><path d="M27,7H26V6.57A1.58,1.58,0,0,0,24.43,5H21.57A1.58,1.58,0,0,0,20,6.57V7H12V6.57A1.58,1.58,0,0,0,10.43,5H7.57A1.58,1.58,0,0,0,6,6.57V7H5a3,3,0,0,0-3,3V23a3,3,0,0,0,3,3v1a2,2,0,0,0,2,2h3.35a2,2,0,0,0,1.86-1.34L12.72,26h6.56l.55,1.66A2,2,0,0,0,21.69,29H25a2,2,0,0,0,2-2V26a3,3,0,0,0,3-3V10A3,3,0,0,0,27,7ZM22,7h2V8H22ZM8,7h2V8H8Zm2.28,20L7,27V26h3.61ZM25,27H21.72l-.33-1H25Zm3-4a1,1,0,0,1-1,1H5a1,1,0,0,1-1-1V10A1,1,0,0,1,5,9H6.11a1.58,1.58,0,0,0,1.46,1h2.86a1.58,1.58,0,0,0,1.46-1h8.22a1.58,1.58,0,0,0,1.46,1h2.86a1.58,1.58,0,0,0,1.46-1H27a1,1,0,0,1,1,1Z"/><path d="M23.88,16a1,1,0,0,0,.25-2,4,4,0,0,0-3.1.91A3.3,3.3,0,0,0,20.24,16l-8.48,0A3.23,3.23,0,0,0,11,14.92,4,4,0,0,0,7.88,14a1,1,0,1,0,.25,2,1.91,1.91,0,0,1,1.51.43A.9.9,0,0,1,10,17a.9.9,0,0,1-.36.58A1.91,1.91,0,0,1,8.13,18,1,1,0,0,0,7,18.88,1,1,0,0,0,7.88,20a4.41,4.41,0,0,0,.52,0A3.91,3.91,0,0,0,11,19.08a3.41,3.41,0,0,0,.8-1.08l8.46,0a3.3,3.3,0,0,0,.8,1.1A3.91,3.91,0,0,0,23.6,20a4.71,4.71,0,0,0,.53,0,1,1,0,0,0-.25-2,1.92,1.92,0,0,1-1.52-.43A.9.9,0,0,1,22,17a.9.9,0,0,1,.36-.58A1.92,1.92,0,0,1,23.88,16Z"/></g></svg>