<svg fill="currentColor" xmlns="http://www.w3.org/2000/svg" viewBox="0 0 32 32"><g id="route"><path d="M11.38,11.77a21.26,21.26,0,0,0,3.94,5,1,1,0,0,0,1.36,0,21.26,21.26,0,0,0,3.94-5c.32-.56.61-1.14.88-1.74a5.49,5.49,0,0,0-.4-5.32,6.15,6.15,0,0,0-10.2,0A5.49,5.49,0,0,0,10.5,10C10.77,10.63,11.06,11.21,11.38,11.77Zm1.2-6a4.15,4.15,0,0,1,6.84,0,3.52,3.52,0,0,1,.26,3.41c-.24.54-.51,1.06-.8,1.57A19,19,0,0,1,16,14.6a19,19,0,0,1-2.88-3.82c-.29-.51-.56-1-.8-1.57A3.52,3.52,0,0,1,12.58,5.8Z"/><path d="M23,24a3,3,0,0,0-1.29.3h0L19,21.53A3.07,3.07,0,0,0,19,21a3,3,0,0,0-6,0,3.07,3.07,0,0,0,.05.53l-2.76,2.76h0A3,3,0,0,0,9,24a3,3,0,1,0,3,3,3,3,0,0,0-.3-1.29h0l2.4-2.4a2.93,2.93,0,0,0,3.78,0l2.4,2.4h0A3,3,0,0,0,20,27a3,3,0,1,0,3-3ZM9,28a1,1,0,1,1,1-1A1,1,0,0,1,9,28Zm7-6a1,1,0,1,1,1-1A1,1,0,0,1,16,22Zm7,6a1,1,0,1,1,1-1A1,1,0,0,1,23,28Z"/><path d="M16,11a3,3,0,1,0-3-3A3,3,0,0,0,16,11Zm0-4a1,1,0,1,1-1,1A1,1,0,0,1,16,7Z"/></g></svg>