<svg fill="currentColor" xmlns="http://www.w3.org/2000/svg" viewBox="0 0 32 32"><g id="safety_belt" data-name="safety belt"><path d="M29.85,7a1,1,0,0,0-.3-.7L25.38,2.18A1,1,0,0,0,24,2.2L18.56,7.73a1,1,0,0,0-.68-.27,1,1,0,0,0-.71.3l-2.71,2.78a1,1,0,0,0-.28.71,1,1,0,0,0,.3.71l.18.17-1,2.11a1,1,0,0,0,.2,1.15l2.78,2.72a1,1,0,0,0,.7.28,1.07,1.07,0,0,0,.46-.11l2.09-1.07.17.17a1,1,0,0,0,1.42,0l2.71-2.78a1,1,0,0,0,0-1.38l5.41-5.54A1,1,0,0,0,29.85,7Zm-9.14,8.3a1,1,0,0,0-1.13-.15l-2.09,1.07-1.74-1.7,1-2.12a1,1,0,0,0-.18-1.13l1.32-1.34,4.12,4Zm2-3.46L20,9.12l4.7-4.81L27.44,7Z"/><path d="M11.13,15.38a1,1,0,0,0-1.41,0L6.33,18.87a1,1,0,0,0,0,1.39L2.28,24.41a1,1,0,0,0-.29.71,1,1,0,0,0,.3.7l4.17,4.07a1,1,0,0,0,.7.29h0a1,1,0,0,0,.7-.3l4.05-4.15a1,1,0,0,0,.68.27h0a1,1,0,0,0,.7-.31l3.39-3.47a1,1,0,0,0,0-1.41Zm-4,12.38L4.41,25.09l3.34-3.43,2.74,2.67Zm5.44-4.18-4.12-4,2-2,4.12,4Z"/></g></svg>