<svg fill="currentColor" xmlns="http://www.w3.org/2000/svg" viewBox="0 0 32 32"><g id="steering_wheel" data-name="steering wheel"><path d="M16,2A14,14,0,1,0,30,16,14,14,0,0,0,16,2Zm0,26A12,12,0,1,1,28,16,12,12,0,0,1,16,28Z"/><path d="M16,6A10,10,0,1,0,26,16,10,10,0,0,0,16,6ZM8,16a8.26,8.26,0,0,1,.07-1h4.07a3.64,3.64,0,0,0,0,2H8.07A8.26,8.26,0,0,1,8,16Zm6,0a2,2,0,1,1,2,2A2,2,0,0,1,14,16Zm5.86-1h4.07a7.18,7.18,0,0,1,0,2H19.86a3.64,3.64,0,0,0,0-2ZM16,8a8,8,0,0,1,7.41,5H19a1.07,1.07,0,0,0-.31.06,3.94,3.94,0,0,0-5.38,0A1.07,1.07,0,0,0,13,13H8.59A8,8,0,0,1,16,8ZM8.59,19H13v4.41A8,8,0,0,1,8.59,19ZM15,23.93V19.86a3.64,3.64,0,0,0,2,0v4.07a7.18,7.18,0,0,1-2,0Zm4-.52V19h4.41A8,8,0,0,1,19,23.41Z"/></g></svg>