<svg fill="currentColor" xmlns="http://www.w3.org/2000/svg" viewBox="0 0 32 32"><g id="suitcase"><path d="M27.92,8H22V6.79A3.79,3.79,0,0,0,18.21,3H13.79A3.79,3.79,0,0,0,10,6.79V8H4.08A2.09,2.09,0,0,0,2,10.08V24.92A2.09,2.09,0,0,0,4.08,27H27.92A2.09,2.09,0,0,0,30,24.92V10.08A2.09,2.09,0,0,0,27.92,8ZM24,10v4H23V10ZM11,10H21V25H11Zm1-3.21A1.8,1.8,0,0,1,13.79,5h4.42A1.8,1.8,0,0,1,20,6.79V8H12ZM9,10v4H8V10ZM4,24.92V10.08A.09.09,0,0,1,4.08,10H6V25H4.08A.09.09,0,0,1,4,24.92ZM8,25V16H9v9Zm15,0V16h1v9Zm5-.08a.09.09,0,0,1-.08.08H26V10h1.92a.09.09,0,0,1,.08.08Z"/></g></svg>