<svg fill="currentColor" xmlns="http://www.w3.org/2000/svg" viewBox="0 0 32 32"><g id="taxi_2" data-name="taxi 2"><path d="M26.21,14h-1.8L18.06,7.65A2.19,2.19,0,0,0,16.5,7H16V6a1,1,0,0,0-2,0V7H7.91A2.22,2.22,0,0,0,5.79,8.6L4.24,14A2.47,2.47,0,0,0,2,16.49V23a1,1,0,0,0,1,1H6.05A3.48,3.48,0,0,0,13,24h6.1A3.48,3.48,0,0,0,26,24H29a1,1,0,0,0,1-1V17.79A3.79,3.79,0,0,0,26.21,14ZM16.65,9.06,21.59,14H13V9h3.5A.22.22,0,0,1,16.65,9.06Zm-8.94.09A.21.21,0,0,1,7.91,9H11v5H6.33ZM9.5,25A1.5,1.5,0,1,1,11,23.5,1.5,1.5,0,0,1,9.5,25Zm13,0A1.5,1.5,0,1,1,24,23.5,1.5,1.5,0,0,1,22.5,25ZM28,22H25.65a3.48,3.48,0,0,0-6.3,0h-6.7a3.48,3.48,0,0,0-6.3,0H4V16.49A.49.49,0,0,1,4.49,16H26.21A1.8,1.8,0,0,1,28,17.79Z"/><path d="M15,17H14a1,1,0,0,0,0,2h1a1,1,0,0,0,0-2Z"/></g></svg>