<svg fill="currentColor" xmlns="http://www.w3.org/2000/svg" viewBox="0 0 32 32"><g id="taxi"><path d="M30,16.85s0-.08,0-.11L27.47,7.6A3.54,3.54,0,0,0,24.07,5H21.72L21,2.68A1,1,0,0,0,20,2H12a1,1,0,0,0-.95.68L10.28,5H7.93a3.54,3.54,0,0,0-3.4,2.6L2,16.74s0,.07,0,.11A.8.8,0,0,0,2,17v9.5a3.5,3.5,0,0,0,7,0V25H23v1.5a3.5,3.5,0,0,0,7,0V17A.8.8,0,0,0,30,16.85ZM12.72,4h6.56l.33,1H12.39ZM6.46,8.13A1.53,1.53,0,0,1,7.93,7H24.07a1.53,1.53,0,0,1,1.47,1.13L27.69,16H4.31ZM7,26.5a1.5,1.5,0,0,1-3,0V25H7ZM8,23H4V21H8.38l1,2Zm12.38,0H11.62l-1-2H21.38ZM28,26.5a1.5,1.5,0,0,1-3,0V25h3ZM28,23H22.62l1-2H28Zm0-4H4V18H28Z"/></g></svg>