<svg fill="currentColor" xmlns="http://www.w3.org/2000/svg" viewBox="0 0 32 32"><g id="taxi_stop" data-name="taxi stop"><path d="M30,18a1,1,0,0,0,0-.29l-1.59-4.75A2.83,2.83,0,0,0,25.72,11L25,8.68A1,1,0,0,0,24,8H18a1,1,0,0,0-.95.68L16.28,11a2.83,2.83,0,0,0-2.64,1.93l-1.59,4.75A1,1,0,0,0,12,18s0,0,0,0v8a3,3,0,0,0,6,0V25h6v1a3,3,0,0,0,6,0V18S30,18,30,18Zm-5.12,5,.67-1H28v1H24.87ZM17,23H14V22h2.46l.67,1Zm-3-3V19H28v1Zm4.72-10h4.56l.33,1H18.39Zm-3.19,3.56a.84.84,0,0,1,.78-.56h9.38a.84.84,0,0,1,.78.56L27.61,17H14.39ZM16,26a1,1,0,0,1-2,0V25h2Zm3.54-3-.67-1h4.26l-.67,1ZM28,26a1,1,0,0,1-2,0V25h2Z"/><path d="M12,4.7A1.7,1.7,0,0,0,10.3,3H3.7A1.7,1.7,0,0,0,2,4.7v6.6A1.7,1.7,0,0,0,3.7,13H6V28a1,1,0,0,0,2,0V13h2.3A1.7,1.7,0,0,0,12,11.3ZM10,11H4V5h6Z"/></g></svg>