<svg fill="currentColor" xmlns="http://www.w3.org/2000/svg" viewBox="0 0 32 32"><g id="taximeter"><path d="M27.3,3H4.7A2.7,2.7,0,0,0,2,5.7V18.3A2.7,2.7,0,0,0,4.7,21H15v7a1,1,0,0,0,1,1h7a1,1,0,0,0,1-1V21h3.3A2.7,2.7,0,0,0,30,18.3V5.7A2.7,2.7,0,0,0,27.3,3ZM22,27H17V18h5Zm6-8.7a.7.7,0,0,1-.7.7H24V18h1a1,1,0,0,0,0-2H14a1,1,0,0,0,0,2h1v1H4.7a.7.7,0,0,1-.7-.7V5.7A.7.7,0,0,1,4.7,5H27.3a.7.7,0,0,1,.7.7Z"/><path d="M25,6H7A1,1,0,0,0,6,7v6a1,1,0,0,0,1,1H25a1,1,0,0,0,1-1V7A1,1,0,0,0,25,6Zm-1,6H8V8H24Z"/></g></svg>