<svg fill="currentColor" xmlns="http://www.w3.org/2000/svg" viewBox="0 0 32 32"><g id="traffic_lights" data-name="traffic lights"><path d="M16,6a3,3,0,1,0,3,3A3,3,0,0,0,16,6Zm0,4a1,1,0,1,1,1-1A1,1,0,0,1,16,10Z"/><path d="M16,13a3,3,0,1,0,3,3A3,3,0,0,0,16,13Zm0,4a1,1,0,1,1,1-1A1,1,0,0,1,16,17Z"/><path d="M16,20a3,3,0,1,0,3,3A3,3,0,0,0,16,20Zm0,4a1,1,0,1,1,1-1A1,1,0,0,1,16,24Z"/><path d="M26.64,15.76a15.68,15.68,0,0,1,2.82-1.87A1,1,0,0,0,29,12H23.76a15,15,0,0,1,5.7-5.11A1,1,0,0,0,29,5H23a2.21,2.21,0,0,0-2.19-2H11.21A2.21,2.21,0,0,0,9,5H3a1,1,0,0,0-.46,1.89A15.22,15.22,0,0,1,5.36,8.77,15.29,15.29,0,0,1,8.24,12H3a1,1,0,0,0-.46,1.89,15.22,15.22,0,0,1,2.82,1.88A15.2,15.2,0,0,1,7.52,18H3a1,1,0,0,0-.46,1.89,15.22,15.22,0,0,1,2.82,1.88A15.34,15.34,0,0,1,9,26.27v.52A2.21,2.21,0,0,0,11.21,29h9.58A2.21,2.21,0,0,0,23,26.79v-.52a15.52,15.52,0,0,1,3.64-4.51,15.68,15.68,0,0,1,2.82-1.87A1,1,0,0,0,29,18H24.48A15.79,15.79,0,0,1,26.64,15.76ZM25.36,7.23A17.41,17.41,0,0,0,23,9.65V7h2.64Zm-18.72,0L6.36,7H9V9.65A16.8,16.8,0,0,0,6.64,7.24ZM6.36,14H9v2.65a16.8,16.8,0,0,0-2.36-2.41Zm.28,6.24L6.36,20H8.84l.16.27v2.38A16.8,16.8,0,0,0,6.64,20.24ZM21,26.79a.22.22,0,0,1-.21.21H11.21a.22.22,0,0,1-.21-.21V5.21A.22.22,0,0,1,11.21,5h9.58a.22.22,0,0,1,.21.21V26.79ZM25.64,20l-.28.23A17.41,17.41,0,0,0,23,22.65V20.27l.16-.27ZM23,16.65V14h2.64l-.28.23A17.41,17.41,0,0,0,23,16.65Z"/></g></svg>