<svg fill="currentColor" xmlns="http://www.w3.org/2000/svg" viewBox="0 0 32 32"><g id="walkie_talkie" data-name="walkie talkie"><path d="M19,13H13a1,1,0,0,0-1,1v5a1,1,0,0,0,1,1h6a1,1,0,0,0,1-1V14A1,1,0,0,0,19,13Zm-1,5H14V15h4Z"/><path d="M18,22H14a1,1,0,0,0,0,2h4a1,1,0,0,0,0-2Z"/><path d="M18,25H14a1,1,0,0,0,0,2h4a1,1,0,0,0,0-2Z"/><path d="M23,16V15a1,1,0,0,0,0-2v-.73A2.27,2.27,0,0,0,20.73,10H16V4.5a2.5,2.5,0,0,0-5,0V10a2.26,2.26,0,0,0-2,2.24V27.73A2.27,2.27,0,0,0,11.27,30h9.46A2.27,2.27,0,0,0,23,27.73V18a1,1,0,0,0,0-2ZM13,4.5a.5.5,0,0,1,1,0V10H13Zm8,23.23a.27.27,0,0,1-.27.27H11.27a.27.27,0,0,1-.27-.27V12.27a.27.27,0,0,1,.27-.27h9.46a.27.27,0,0,1,.27.27Z"/></g></svg>