<svg fill="currentColor" xmlns="http://www.w3.org/2000/svg" viewBox="0 0 32 32"><g id="water_bottle" data-name="water bottle"><path d="M21.87,9.84l-2-3.35a1,1,0,0,0-.17-.19A3,3,0,0,0,20,5a3,3,0,0,0-3-3H15a3,3,0,0,0-3,3,3,3,0,0,0,.31,1.3,1,1,0,0,0-.17.19l-2,3.35A7.91,7.91,0,0,0,9,13.92V25.61A4.4,4.4,0,0,0,13.39,30h5.22A4.4,4.4,0,0,0,23,25.61V13.92A7.91,7.91,0,0,0,21.87,9.84ZM15,4h2a1,1,0,0,1,0,2H15a1,1,0,0,1,0-2Zm-3.16,6.87,1.9-3.16A3,3,0,0,0,15,8h2a3,3,0,0,0,1.26-.29l1.9,3.16A5.93,5.93,0,0,1,21,13.92V14H11v-.08A5.93,5.93,0,0,1,11.84,10.87ZM21,21H11V16H21Zm-2.39,7H13.39A2.39,2.39,0,0,1,11,25.61V23H21v2.61A2.39,2.39,0,0,1,18.61,28Z"/></g></svg>