<?xml version="1.0" encoding="UTF-8"?><svg fill="currentColor" xmlns="http://www.w3.org/2000/svg" viewBox="0 0 24 24"><g id="u"><g><path d="M6.01,12.26c-2.07,0-3.75,1.68-3.75,3.75s1.68,3.75,3.75,3.75c1.81,0,3.33-1.29,3.67-3h-3.67c-.41,0-.75-.34-.75-.75s.34-.75,.75-.75h3.67c-.35-1.71-1.86-3-3.67-3Z"/><path d="M18,12.24c-.15,0-.3,.03-.44,.04l-1.62-4.85c-.24-.72-.91-1.2-1.66-1.2h-1.28c-.41,0-.75,.34-.75,.75s.34,.75,.75,.75h1.28c.11,0,.2,.07,.24,.17l.66,1.97-2.95,4.42-1.19-3.57c.4-.02,.71-.34,.71-.74s-.34-.75-.75-.75h-3c-.41,0-.75,.34-.75,.75s.34,.75,.75,.75h1.46l1.5,4.5h-1.27v1.5h2.31c.08,0,.16-.01,.24-.04,.02,0,.04-.03,.06-.04,.04-.02,.07-.04,.1-.06,.07-.04,.12-.09,.17-.15,.01-.02,.04-.03,.05-.05l3.15-4.72,.36,1.08,1.42-.47,1.16,3.47c.13,.39-.08,.82-.47,.95-.08,.03-.16,.04-.24,.04-.31,0-.61-.2-.71-.51l-1.16-3.47c-1.12,.65-1.88,1.85-1.88,3.23,0,2.07,1.68,3.75,3.75,3.75s3.75-1.68,3.75-3.75-1.68-3.75-3.75-3.75Z"/></g></g></svg>