<?xml version="1.0" encoding="UTF-8"?><svg fill="currentColor" xmlns="http://www.w3.org/2000/svg" viewBox="0 0 24 24"><g id="i"><g><path d="M16.14,2.24h-7.15c-.41,0-.75,.34-.75,.75s.34,.75,.75,.75h.25v1.5h-1.25c-.96,0-1.75,.79-1.75,1.75v1c0,.96,.79,1.75,1.75,1.75h7c.96,0,1.75-.79,1.75-1.75v-.54l.56-.28c.89-.44,1.44-1.34,1.44-2.33,0-1.44-1.17-2.6-2.6-2.6Zm-5.4,1.5h1.5v1.5h-1.5v-1.5Zm5.89,2.09l-.24,.12c-.32-.43-.83-.71-1.4-.71h-1.25v-1.5h2.4c.61,0,1.1,.5,1.1,1.1,0,.42-.23,.8-.61,.99Z"/><path d="M8,11.24c-.26,0-.51-.04-.75-.1v8.85c0,.96,.79,1.75,1.75,1.75h5c.96,0,1.75-.79,1.75-1.75V11.15c-.24,.06-.49,.1-.75,.1H8Z"/></g></g></svg>