<?xml version="1.0" encoding="UTF-8"?><svg fill="currentColor" xmlns="http://www.w3.org/2000/svg" viewBox="0 0 24 24"><g id="h"><g><path d="M9.16,18.13c.71-.71,1.1-1.65,1.1-2.65,0-.75-.22-1.46-.62-2.07l-2.6,2.6c-.15,.15-.34,.22-.53,.22s-.38-.07-.53-.22c-.29-.29-.29-.77,0-1.06l2.59-2.59c-1.44-.92-3.48-.76-4.71,.47-.71,.71-1.1,1.65-1.1,2.65s.39,1.94,1.1,2.65,1.65,1.1,2.65,1.1,1.94-.39,2.65-1.1Z"/><path d="M12.34,9.64c.71,.71,1.65,1.1,2.65,1.1s1.94-.39,2.65-1.1,1.1-1.65,1.1-2.65-.39-1.94-1.1-2.65c-1.42-1.42-3.89-1.42-5.3,0-.11,.11-.19,.23-.28,.35l3.27,1.64c.37,.19,.52,.64,.34,1.01-.13,.26-.4,.42-.67,.42-.11,0-.23-.03-.33-.08l-3.27-1.64c-.08,.31-.14,.63-.14,.97,0,1,.39,1.94,1.1,2.65Z"/><path d="M20.67,9.79c-.68-.27-1.44-.1-1.95,.43-.07,.08-.15,.15-.22,.21-.67,.6-1.4,.86-2.16,1.13-1.01,.36-2.16,.76-2.97,2.03-.42,.66-.49,1.16-.55,1.59-.06,.4-.11,.78-.47,1.45-.81,1.48-2.04,2.33-2.71,2.7-1.5,.84-3.63,.9-3.65,.9-.41,.01-.74,.35-.73,.76,0,.41,.34,.74,.75,.74h14c.96,0,1.75-.79,1.75-1.75V11.39c0-.72-.41-1.34-1.08-1.61Z"/><path d="M11.28,11.76s.05-.08,.07-.12c.02-.03,.05-.04,.07-.07,.01-.02,.01-.05,.02-.07,.01-.04,.02-.07,.03-.11,.02-.08,.02-.15,.01-.23,0-.02,0-.04,0-.07l-1.11-5.57,1.01,.51,.67-1.34L7.49,2.4c-.67-.34-1.49-.21-2.02,.33l-.9,.91c-.29,.29-.29,.77,0,1.06,.29,.29,.77,.29,1.06,0l.9-.9c.08-.08,.19-.1,.29-.05l1.86,.93,1.04,5.21-3.36-1.68c.27-.29,.26-.74-.02-1.03s-.77-.29-1.06,0l-2.12,2.12c-.29,.29-.29,.77,0,1.06,.15,.15,.34,.22,.53,.22s.38-.07,.53-.22l1.03-1.03,4.24,2.12-.91,.91,1.07,1.06,1.65-1.65Z"/></g></g></svg>