<?xml version="1.0" encoding="UTF-8"?><svg fill="currentColor" xmlns="http://www.w3.org/2000/svg" viewBox="0 0 24 24"><g id="d"><g><path d="M10.42,7.11l-.53-1.42c-.16-.44-.48-.79-.91-.98-.42-.19-.9-.21-1.34-.05l-1.42,.53,1.13,3.07,3.07-1.13Z"/><path d="M4.81,5.7l-1.42,.53c-.91,.33-1.37,1.34-1.04,2.25l.53,1.43,3.07-1.13-1.13-3.07Z"/><path d="M3.4,11.3l.53,1.42c.26,.71,.93,1.14,1.64,1.14,.2,0,.41-.03,.6-.11l1.42-.53-1.13-3.07-3.07,1.13Z"/><path d="M16.4,13.42l1.43,.53c.2,.07,.4,.11,.6,.11,.71,0,1.38-.44,1.64-1.14l.53-1.43-3.07-1.13-1.13,3.07Z"/><path d="M20.61,6.41l-1.43-.53-1.13,3.07,3.07,1.13,.53-1.42c.33-.91-.13-1.91-1.04-2.25Z"/><path d="M17.78,5.37l-1.42-.53c-.9-.34-1.91,.13-2.25,1.03l-.53,1.42,3.07,1.13,1.13-3.07Z"/><path d="M12.19,11.07l-.16,.42-.22-.61-.87-2.36-3.07,1.13,1.13,3.07,1.66-.61,.57,1.55-1.88,5.08c-.14,.39,.06,.82,.44,.96,.09,.03,.17,.05,.26,.05,.31,0,.59-.19,.7-.49l1.27-3.43,1.2,3.25c.11,.3,.4,.49,.7,.49,.09,0,.17-.01,.26-.05,.39-.14,.59-.57,.44-.96l-1.81-4.89,.5-1.36,1.66,.61,1.13-3.07-3.07-1.13-.87,2.36Z"/></g></g></svg>