<?xml version="1.0" encoding="UTF-8"?><svg fill="currentColor" xmlns="http://www.w3.org/2000/svg" viewBox="0 0 24 24"><g id="f"><g><path d="M20.9,10.41l-.7-.7c-.33-.33-.86-.33-1.18,0l-2.49,2.49c-.07,.07-.18,.09-.27,.05-.09-.04-.15-.13-.15-.23V4.41c0-.46-.38-.84-.84-.84h-1.09c-.46,0-.84,.38-.84,.84v3.26c0,.14-.11,.25-.25,.25s-.25-.11-.25-.25V3.33c0-.46-.38-.84-.84-.84h-1.09c-.46,0-.84,.38-.84,.84V7.68c0,.14-.11,.25-.25,.25s-.25-.11-.25-.25v-3.26c0-.46-.38-.84-.84-.84h-1.09c-.46,0-.84,.38-.84,.84v3.26c0,.14-.11,.25-.25,.25s-.25-.11-.25-.25v-2.17c0-.46-.38-.84-.84-.84h-1.09c-.46,0-.84,.38-.84,.84V14.26c0,.63,.15,1.27,.43,1.83l.17,.34c.13,.26,.23,.53,.31,.81h12.02c.17-.41,.4-.8,.69-1.15l3.79-4.55c.28-.33,.26-.82-.05-1.13Zm-7.91,3.33H8c-.41,0-.75-.34-.75-.75s.34-.75,.75-.75h5c.41,0,.75,.34,.75,.75s-.34,.75-.75,.75Z"/><path d="M4.64,20.72c0,.46,.38,.84,.84,.84H15.26c.46,0,.84-.38,.84-.84v-1.69c0-.1,.02-.19,.03-.29H4.64v1.98Z"/></g></g></svg>