<?xml version="1.0" encoding="UTF-8"?><svg fill="currentColor" xmlns="http://www.w3.org/2000/svg" viewBox="0 0 24 24"><g id="r"><path d="M16.5,3.24c-1.87,0-3.56,.97-4.5,2.55-.95-1.56-2.67-2.55-4.5-2.55-2.17,0-4.99,2.31-5.25,5.18-.13,1.42,.43,2.74,2.15,5.02,1.83,2.43,4.01,4.67,6.5,6.65,.32,.25,.71,.38,1.1,.38s.78-.13,1.1-.38c1.22-.97,2.38-2.01,3.41-3.06,1.07-.99,2.03-2.1,2.87-3.28h-3.38c-.28,0-.54-.16-.67-.41l-.33-.66-1.33,2.66c-.12,.24-.37,.4-.64,.41h-.03c-.26,0-.51-.14-.64-.36l-2.39-3.98-1.34,2.01c-.14,.21-.37,.33-.62,.33h-1c-.41,0-.75-.34-.75-.75s.34-.75,.75-.75h.6l1.78-2.67c.14-.21,.38-.33,.64-.33,.26,0,.49,.14,.63,.36l2.3,3.83,1.39-2.78c.25-.51,1.09-.51,1.34,0l.79,1.59h3.94c.95-1.45,1.45-2.48,1.34-3.81h0c-.21-2.67-2.76-5.19-5.25-5.19Z"/></g></svg>