<?xml version="1.0" encoding="UTF-8"?><svg fill="currentColor" xmlns="http://www.w3.org/2000/svg" viewBox="0 0 24 24"><g id="o"><path d="M21.52,9.32c-.34-1.49-1-2.78-1.97-3.84-.45-.5-1.48-1.44-3.27-2.19-2.81-1.17-8.46-2.25-11.82,1.17-.3,.3-2.89,3.03-2.19,5.71,.1,.37,.24,.69,.39,1.02,.23,.51,.47,1.05,.59,1.89,.06,.41,.07,.83,.05,1.25-.04,.67,.32,1.32,.92,1.64h0c1.22,.67,2.2,1,2.98,1,.17,0,.32-.04,.48-.07l1.77,2.95c.55,.92,1.51,1.44,2.53,1.44,.31,0,.63-.05,.95-.16,1.07-.36,1.86-1.32,2-2.44l.71-5.71c.44-.51,.87-.99,1.65-1.31,.68-.28,1.47-.36,2.33-.24,.55,.08,1.11-.13,1.49-.54,.39-.43,.55-1.02,.42-1.58Zm-10.52,.91h2c.41,0,.75,.34,.75,.75s-.34,.75-.75,.75h-2c-.41,0-.75-.34-.75-.75s.34-.75,.75-.75Zm1.44,9.48c-.65,.22-1.36-.04-1.71-.63l-1.82-3.04c.16-.29,.24-.59,.29-.84,.07-.33,.12-.51,.28-.65,.19-.16,.43-.14,1.13,.03,.68,.16,1.53,.37,2.56,.12,.29-.07,.54-.16,.77-.27l-.51,4.07c-.07,.55-.46,1.03-.99,1.2Z"/></g></svg>