<?xml version="1.0" encoding="UTF-8"?><svg fill="currentColor" xmlns="http://www.w3.org/2000/svg" viewBox="0 0 24 24"><g id="n"><path d="M20,20.24h-.25V7.74h.25c.41,0,.75-.34,.75-.75s-.34-.75-.75-.75h-2.25V3.74h1.25c.41,0,.75-.34,.75-.75s-.34-.75-.75-.75h-4c-.41,0-.75,.34-.75,.75s.34,.75,.75,.75h1.25v2.5h-2.25c-.41,0-.75,.34-.75,.75s.34,.75,.75,.75h.25v9.5h-1.75c-.96,0-1.75-.79-1.75-1.75V5.49c0-1.79-1.46-3.25-3.25-3.25s-3.25,1.46-3.25,3.25v14.75h-.25c-.41,0-.75,.34-.75,.75s.34,.75,.75,.75h2c.41,0,.75-.34,.75-.75s-.34-.75-.75-.75h-.25V5.49c0-.96,.79-1.75,1.75-1.75s1.75,.79,1.75,1.75V15.49c0,1.79,1.46,3.25,3.25,3.25h1.75v1.5h-.25c-.41,0-.75,.34-.75,.75s.34,.75,.75,.75h6c.41,0,.75-.34,.75-.75s-.34-.75-.75-.75Z"/></g></svg>