<?xml version="1.0" encoding="UTF-8"?><svg fill="currentColor" xmlns="http://www.w3.org/2000/svg" viewBox="0 0 24 24"><g id="j"><g><path d="M19.75,4.99c0-.96-.79-1.75-1.75-1.75h-5.25v3h7v-1.25Z"/><path d="M20.38,7.74h-7.63v1.25c0,.41-.34,.75-.75,.75s-.75-.34-.75-.75v-1.25H3.61c-.89,1.4-1.37,3.01-1.37,4.67v6.58c0,.96,.79,1.75,1.75,1.75h5.22c.8,0,1.5-.54,1.7-1.33l1.08-4.33,1.08,4.33c.2,.78,.89,1.33,1.7,1.33h5.22c.96,0,1.75-.79,1.75-1.75v-6.58c0-1.66-.48-3.27-1.37-4.67Z"/><path d="M11.25,3.24H6c-.96,0-1.75,.79-1.75,1.75v1.25h7V3.24Z"/></g></g></svg>