<?xml version="1.0" encoding="UTF-8"?><svg fill="currentColor" xmlns="http://www.w3.org/2000/svg" viewBox="0 0 24 24"><g id="c"><g><path d="M15.75,3.38v2.61c0,.41-.34,.75-.75,.75s-.75-.34-.75-.75V2.64c-.48-.17-.98-.29-1.5-.35V6.99c0,.41-.34,.75-.75,.75s-.75-.34-.75-.75V2.29c-.52,.06-1.02,.18-1.5,.35v3.36c0,.41-.34,.75-.75,.75s-.75-.34-.75-.75V3.38c-1.81,1.21-3,3.27-3,5.61v1c0,.41,.34,.75,.75,.75h12c.41,0,.75-.34,.75-.75v-1c0-2.33-1.19-4.4-3-5.61Z"/><path d="M16.46,17.29l-3.34,4.45h4.88c.41,0,.75-.34,.75-.75v-1c0-1.36-.99-2.48-2.29-2.7Z"/><path d="M5.25,19.99v1c0,.41,.34,.75,.75,.75h4.88l-3.34-4.45c-1.29,.22-2.29,1.35-2.29,2.7Z"/><path d="M12,16.74c2.74,0,5.04-1.93,5.61-4.5H6.39c.57,2.57,2.87,4.5,5.61,4.5Z"/><path d="M12,18.24c-.74,0-1.45-.13-2.14-.35l2.14,2.85,2.14-2.85c-.68,.21-1.4,.35-2.14,.35Z"/></g></g></svg>