<?xml version="1.0" encoding="UTF-8"?><svg fill="currentColor" xmlns="http://www.w3.org/2000/svg" viewBox="0 0 24 24"><g id="g"><path d="M20.65,3.34c-1.42-1.42-3.89-1.42-5.3,0l-3.57,3.56c-1.14,1.14-2.78,1.69-4.46,1.45-1.45-.21-2.94,.29-4.04,1.39-1.83,1.83-1.83,4.81,.04,6.68,.68,.68,1.79,.68,2.48,0l.71-.71c.47-.47,1.29-.47,1.77,0,.24,.24,.37,.55,.37,.88s-.13,.65-.37,.88l-.71,.71c-.68,.68-.68,1.79,.04,2.52,.9,.9,2.09,1.36,3.29,1.36s2.46-.48,3.43-1.44c1.05-1.05,1.54-2.55,1.32-4.01v-.03c-.24-1.61,.31-3.25,1.46-4.4l3.55-3.55c.71-.71,1.1-1.65,1.1-2.65s-.39-1.94-1.1-2.65Zm-4.95,6.01l-3.54,3.54c-.15,.15-.34,.22-.53,.22s-.38-.07-.53-.22c-.29-.29-.29-.77,0-1.06l3.54-3.54c.29-.29,.77-.29,1.06,0s.29,.77,0,1.06Z"/></g></svg>