<?xml version="1.0" encoding="UTF-8"?><svg fill="currentColor" xmlns="http://www.w3.org/2000/svg" viewBox="0 0 24 24"><g id="l"><g><path d="M18.1,9.25c-.22-.03-.43-.04-.63-.06l-.75,2.98c-.08,.34-.39,.57-.73,.57-.06,0-.12,0-.18-.02-.4-.1-.65-.51-.55-.91l.65-2.59c-.27,.03-.52,.06-.74,.09-.08,.01-.16,.02-.24,.03l-.71,2.84c-.08,.34-.39,.57-.73,.57-.06,0-.12,0-.18-.02-.4-.1-.65-.51-.55-.91l.62-2.5c-.06-.01-.11-.02-.17-.04-.15-.05-.29-.12-.43-.2l-1.12,2.25c-.13,.26-.4,.41-.67,.41-.11,0-.23-.03-.33-.08-.37-.19-.52-.64-.33-1.01l1.28-2.56c-.22-.26-.43-.55-.63-.89-.2-.33-.52-.55-.9-.6-.39-.05-.76,.07-1.04,.34-.42,.4-.89,.69-1.42,.86-1.07,.34-2.06,.09-2.69-.19-.36-.16-.79-.13-1.13,.06-.35,.2-.57,.54-.61,.94l-.45,4.02,1.02-.37c1.79-.53,3.61-.07,4.8,1.19,1.29,1.37,1.25,3.09,1.2,3.58v.68h7.73c2.35,0,4.27-1.92,4.27-4.28,0-2.1-1.57-3.91-3.65-4.21Z"/><path d="M7.45,14.51c-.79-.84-2.06-1.15-3.24-.8l-1.59,.58c.06,.81,.39,1.59,.94,2.21,.71,.79,1.73,1.25,2.79,1.25h1.9v-.75c.03-.41,.06-1.58-.8-2.49Z"/></g></g></svg>