<?xml version="1.0" encoding="UTF-8"?><svg fill="currentColor" xmlns="http://www.w3.org/2000/svg" viewBox="0 0 24 24"><g id="e"><path d="M20.88,9.9L14.08,3.11c-1.12-1.12-3.06-1.12-4.18,0L3.11,9.9c-1.15,1.15-1.15,3.02,0,4.18l6.8,6.8c.56,.56,1.3,.87,2.09,.87s1.53-.31,2.09-.87l6.8-6.8c1.15-1.15,1.15-3.02,0-4.18Zm-7.39,5.84c-.41,0-.75,.34-.75,.75v.5c0,.41-.34,.75-.75,.75s-.75-.34-.75-.75v-.5c0-1.24,1.01-2.25,2.25-2.25,.41,0,.75-.34,.75-.75s-.34-.75-.75-.75c-1.24,0-2.25-1.01-2.25-2.25v-1.69l-.72,.72c-.29,.29-.77,.29-1.06,0s-.29-.77,0-1.06l2-2c.07-.07,.15-.12,.24-.16,.18-.08,.39-.08,.57,0,.09,.04,.17,.09,.24,.16l2,2c.29,.29,.29,.77,0,1.06-.15,.15-.34,.22-.53,.22s-.38-.07-.53-.22l-.72-.72v1.69c0,.41,.34,.75,.75,.75,1.24,0,2.25,1.01,2.25,2.25s-1.01,2.25-2.25,2.25Z"/></g></svg>