<?xml version="1.0" encoding="UTF-8"?><svg fill="currentColor" xmlns="http://www.w3.org/2000/svg" viewBox="0 0 24 24"><g id="s"><g><rect x="9.25" y="13.24" width="5.5" height="8.5" rx="1.75" ry="1.75"/><rect x="2.25" y="15.24" width="5.5" height="6.5" rx="1.75" ry="1.75"/><rect x="16.25" y="16.24" width="5.5" height="5.5" rx="1.75" ry="1.75"/><path d="M14.8,8.11l1.72-1.67c.2-.2,.28-.5,.19-.77-.09-.27-.32-.47-.6-.51l-2.37-.35-1.06-2.15c-.25-.51-1.09-.51-1.34,0l-1.06,2.15-2.37,.35c-.28,.04-.52,.24-.61,.51-.09,.27-.01,.57,.19,.77l1.72,1.67-.41,2.36c-.05,.28,.07,.57,.3,.73,.23,.17,.54,.19,.79,.06l2.12-1.12,2.12,1.12c.11,.06,.23,.09,.35,.09,.16,0,.31-.05,.44-.14,.23-.17,.35-.45,.3-.73l-.41-2.36Z"/></g></g></svg>