<?xml version="1.0" encoding="UTF-8"?><svg fill="currentColor" xmlns="http://www.w3.org/2000/svg" viewBox="0 0 24 24"><g id="b"><g><path d="M12.75,17.17c.89-.13,1.69-.47,2.38-.98l-2.38-2.38v3.36Z"/><path d="M13.81,11.24h3.36c-.13-.89-.47-1.69-.98-2.38l-2.38,2.38Z"/><path d="M11.25,17.17v-3.36l-2.38,2.38c.69,.51,1.49,.86,2.38,.98Z"/><path d="M11.25,10.18v-3.36c-.89,.13-1.69,.47-2.38,.98l2.38,2.38Z"/><path d="M12.75,6.82v3.36l2.38-2.38c-.69-.51-1.49-.86-2.38-.98Z"/><path d="M12,2.24C6.62,2.24,2.25,6.62,2.25,11.99s4.37,9.75,9.75,9.75,9.75-4.37,9.75-9.75S17.37,2.24,12,2.24Zm0,16.5c-3.72,0-6.75-3.03-6.75-6.75s3.03-6.75,6.75-6.75,6.75,3.03,6.75,6.75-3.03,6.75-6.75,6.75Z"/><path d="M16.19,15.12c.51-.69,.86-1.49,.98-2.38h-3.36l2.38,2.38Z"/><path d="M7.81,8.86c-.51,.69-.86,1.49-.98,2.38h3.36l-2.38-2.38Z"/><path d="M6.82,12.74c.13,.89,.47,1.69,.98,2.38l2.38-2.38h-3.36Z"/></g></g></svg>