<?xml version="1.0" encoding="UTF-8"?><svg fill="currentColor" xmlns="http://www.w3.org/2000/svg" viewBox="0 0 24 24"><g id="k"><g><path d="M14,2.24h-1.25v1.5h2.97c-.12-.85-.85-1.5-1.72-1.5Z"/><path d="M11.25,2.24h-1.25c-.88,0-1.6,.65-1.72,1.5h2.97v-1.5Z"/><path d="M21.64,10.61l-1.83-3.06c-.85-1.42-2.41-2.31-4.07-2.31h-2.99V13.99c0,.41-.34,.75-.75,.75s-.75-.34-.75-.75V5.24h-2.99c-1.66,0-3.22,.88-4.07,2.31l-1.83,3.06c-.15,.25-.14,.56,.02,.8l2,3c.12,.19,.33,.31,.55,.33,.22,.03,.45-.06,.6-.22l.72-.72v6.19c0,.96,.79,1.75,1.75,1.75H16c.96,0,1.75-.79,1.75-1.75v-6.19l.72,.72c.16,.16,.38,.24,.6,.22,.22-.02,.43-.14,.55-.33l2-3c.16-.24,.17-.55,.02-.8Zm-8.89,7.39c0,.41-.34,.75-.75,.75s-.75-.34-.75-.75v-1c0-.41,.34-.75,.75-.75s.75,.34,.75,.75v1Z"/></g></g></svg>