<?xml version="1.0" encoding="UTF-8"?><svg fill="currentColor" xmlns="http://www.w3.org/2000/svg" viewBox="0 0 24 24"><g id="k"><path d="M12,2.25C6.62,2.25,2.25,6.62,2.25,12s4.37,9.75,9.75,9.75,9.75-4.37,9.75-9.75S17.38,2.25,12,2.25ZM6.15,14.08c-.34,0-.65-.24-.73-.58-.11-.49-.17-.99-.17-1.5,0-3.72,3.03-6.75,6.75-6.75,1.41,0,2.78,.45,3.92,1.26v-.12c0-.41,.34-.75,.75-.75s.75,.34,.75,.75v1.61c0,.41-.34,.75-.75,.75h-1.68c-.41,0-.75-.34-.75-.75,0-.24,.12-.45,.3-.59-.77-.43-1.64-.66-2.54-.66-2.9,0-5.25,2.36-5.25,5.25,0,.39,.04,.79,.13,1.17,.09,.4-.16,.81-.56,.9-.06,.01-.11,.02-.17,.02Zm7.26-1.6c-.77,0-1.4-.63-1.4-1.4v-.8c0-.33,.27-.6,.6-.6s.6,.27,.6,.6v.8c0,.11,.09,.2,.2,.2h.2v-1c0-.33,.27-.6,.6-.6s.6,.27,.6,.6v3.2c0,.33-.27,.6-.6,.6s-.6-.27-.6-.6v-1h-.2Zm-3.31,.4h.8c.33,0,.6,.27,.6,.6s-.27,.6-.6,.6h-.8c-.77,0-1.4-.63-1.4-1.4s.63-1.4,1.4-1.4c.11,0,.2-.09,.2-.2s-.09-.2-.2-.2h-.8c-.33,0-.6-.27-.6-.6s.27-.6,.6-.6h.8c.77,0,1.4,.63,1.4,1.4s-.63,1.4-1.4,1.4c-.11,0-.2,.09-.2,.2s.09,.2,.2,.2Zm1.9,5.87c-1.41,0-2.78-.45-3.92-1.26v.15c0,.41-.34,.75-.75,.75s-.75-.34-.75-.75v-1.64c0-.41,.34-.75,.75-.75h1.52c.41,0,.75,.34,.75,.75,0,.21-.09,.4-.24,.54,.79,.46,1.7,.71,2.63,.71,2.9,0,5.25-2.36,5.25-5.25,0-.39-.04-.79-.13-1.17-.09-.4,.16-.81,.56-.9,.41-.09,.81,.16,.9,.56,.11,.49,.17,.99,.17,1.5,0,3.72-3.03,6.75-6.75,6.75Z"/></g></svg>