<?xml version="1.0" encoding="UTF-8"?><svg fill="currentColor" xmlns="http://www.w3.org/2000/svg" viewBox="0 0 24 24"><g id="r"><g><path d="M3,8.75c.41,0,.75-.34,.75-.75v-2c0-1.24,1.01-2.25,2.25-2.25h2c.41,0,.75-.34,.75-.75s-.34-.75-.75-.75h-2c-2.07,0-3.75,1.68-3.75,3.75v2c0,.41,.34,.75,.75,.75Z"/><path d="M8,20.25h-2c-1.24,0-2.25-1.01-2.25-2.25v-2c0-.41-.34-.75-.75-.75s-.75,.34-.75,.75v2c0,2.07,1.68,3.75,3.75,3.75h2c.41,0,.75-.34,.75-.75s-.34-.75-.75-.75Z"/><path d="M21,15.25c-.41,0-.75,.34-.75,.75v2c0,1.24-1.01,2.25-2.25,2.25h-2c-.41,0-.75,.34-.75,.75s.34,.75,.75,.75h2c2.07,0,3.75-1.68,3.75-3.75v-2c0-.41-.34-.75-.75-.75Z"/><path d="M18,2.25h-2c-.41,0-.75,.34-.75,.75s.34,.75,.75,.75h2c1.24,0,2.25,1.01,2.25,2.25v2c0,.41,.34,.75,.75,.75s.75-.34,.75-.75v-2c0-2.07-1.68-3.75-3.75-3.75Z"/><rect x="6.25" y="10.25" width="11.5" height="6.5" rx="2.75" ry="2.75"/><path d="M6.25,8c0,.41,.34,.75,.75,.75h10c.41,0,.75-.34,.75-.75s-.34-.75-.75-.75H7c-.41,0-.75,.34-.75,.75Z"/></g></g></svg>