<?xml version="1.0" encoding="UTF-8"?><svg fill="currentColor" xmlns="http://www.w3.org/2000/svg" viewBox="0 0 24 24"><g id="s"><g><polygon points="8.29 16.25 11.25 16.25 11.25 12.25 7.79 12.25 8.29 16.25"/><polygon points="12.75 21.75 15.02 21.75 15.52 17.75 12.75 17.75 12.75 21.75"/><path d="M20,12.25h-2.28l-.5,4h3.13l.39-3.16c.03-.21-.04-.43-.18-.59-.14-.16-.35-.25-.56-.25Z"/><polygon points="8.74 19.91 9.04 21.75 11.25 21.75 11.25 17.75 8.47 17.75 8.74 19.91"/><path d="M16.53,21.75h.7c1.38,0,2.56-1.04,2.73-2.41l.2-1.59h-3.13l-.5,4Z"/><path d="M6.96,17.75H3.84l.2,1.59c.17,1.37,1.34,2.41,2.73,2.41h.75l-.26-1.63-.3-2.37Z"/><polygon points="12.75 16.25 15.71 16.25 16.21 12.25 12.75 12.25 12.75 16.25"/><path d="M6.28,12.25h-2.28c-.22,0-.42,.09-.56,.25-.14,.16-.21,.38-.18,.59l.39,3.16h3.13l-.5-4Z"/><path d="M20.5,9.25h-.75v-3.25c0-1.52-1.23-2.75-2.75-2.75h-1.3c-.12-.57-.6-1-1.2-1h-5c-.6,0-1.08,.43-1.2,1h-1.3c-1.52,0-2.75,1.23-2.75,2.75v3.25h-.75c-.69,0-1.25,.56-1.25,1.25v1.1s.04-.06,.06-.09c.43-.49,1.04-.76,1.69-.76H20c.64,0,1.26,.28,1.69,.76,.02,.03,.04,.06,.06,.09v-1.1c0-.69-.56-1.25-1.25-1.25ZM5.75,6c0-.69,.56-1.25,1.25-1.25h1.3c.12,.57,.6,1,1.2,1h5c.6,0,1.08-.43,1.2-1h1.3c.69,0,1.25,.56,1.25,1.25v3.25H5.75v-3.25Z"/></g></g></svg>