<?xml version="1.0" encoding="UTF-8"?><svg fill="currentColor" xmlns="http://www.w3.org/2000/svg" viewBox="0 0 24 24"><g id="f"><g><path d="M11.25,5.75V2.25h-3.1c-1.45,0-2.79,.85-3.4,2.17l-.87,1.86c-.22,.49-.38,1-.49,1.51,1.14-1.25,2.78-2.03,4.6-2.03h3.25Z"/><path d="M20.6,7.78c-.11-.52-.27-1.03-.49-1.52l-.86-1.85c-.61-1.32-1.95-2.17-3.4-2.17h-3.1v3.5h3.25c1.82,0,3.46,.79,4.6,2.03Z"/><path d="M16,7.25H8c-2.62,0-4.75,2.13-4.75,4.75v5c0,2.62,2.13,4.75,4.75,4.75h8c2.62,0,4.75-2.13,4.75-4.75v-5c0-2.62-2.13-4.75-4.75-4.75Zm-6,11.5h-3c-.41,0-.75-.34-.75-.75s.34-.75,.75-.75h3c.41,0,.75,.34,.75,.75s-.34,.75-.75,.75Z"/></g></g></svg>