<?xml version="1.0" encoding="UTF-8"?><svg fill="currentColor" xmlns="http://www.w3.org/2000/svg" viewBox="0 0 24 24"><g id="i"><g><path d="M6.63,2.25c-2.41,0-4.38,1.96-4.38,4.38s1.96,4.38,4.38,4.38h2.76c.89,0,1.61-.72,1.61-1.61v-2.76c0-2.41-1.96-4.38-4.38-4.38Z"/><path d="M9.39,13h-3.68c-1.9,0-3.45,1.55-3.45,3.45v.92c0,2.41,1.96,4.38,4.38,4.38s4.38-1.96,4.38-4.38v-2.76c0-.89-.72-1.61-1.61-1.61Z"/><path d="M14.61,11h2.76c2.41,0,4.38-1.96,4.38-4.38s-1.96-4.38-4.38-4.38-4.38,1.96-4.38,4.38v2.76c0,.89,.72,1.61,1.61,1.61Z"/><path d="M17.38,13h-2.76c-.89,0-1.61,.72-1.61,1.61v2.76c0,2.41,1.96,4.38,4.38,4.38s4.38-1.96,4.38-4.38-1.96-4.38-4.38-4.38Z"/></g></g></svg>