<?xml version="1.0" encoding="UTF-8"?><svg fill="currentColor" xmlns="http://www.w3.org/2000/svg" viewBox="0 0 24 24"><g id="q"><path d="M20.02,9.54c-.3-.11-.53-.32-.65-.62-.12-.29-.11-.61,.02-.89,.48-1.01,.28-2.17-.51-2.96-.79-.79-1.95-.99-2.95-.51-.29,.14-.6,.14-.89,.02-.29-.12-.51-.35-.62-.65-.37-1.05-1.33-1.73-2.45-1.73h0c-1.11,0-2.08,.68-2.45,1.73h0c-.11,.3-.32,.53-.62,.65-.29,.12-.61,.11-.89-.02-1.01-.48-2.17-.28-2.96,.51-.79,.79-.99,1.95-.51,2.95,.13,.29,.14,.6,.02,.89-.12,.29-.35,.51-.65,.62-1.05,.37-1.73,1.33-1.73,2.45,0,1.11,.68,2.08,1.73,2.45,.3,.11,.53,.32,.65,.62,.12,.29,.11,.61-.02,.89-.48,1.01-.28,2.17,.51,2.96,.79,.79,1.95,.99,2.95,.51,.29-.14,.6-.14,.89-.02,.29,.12,.51,.35,.62,.65,.37,1.05,1.33,1.73,2.45,1.73h0c1.11,0,2.08-.68,2.45-1.73,.11-.3,.33-.53,.62-.65,.29-.12,.61-.11,.89,.02,1.01,.48,2.17,.28,2.96-.51,.79-.79,.99-1.95,.51-2.95-.14-.29-.14-.6-.02-.89,.12-.29,.35-.51,.65-.62,1.05-.37,1.73-1.33,1.73-2.45,0-1.11-.68-2.08-1.73-2.45Zm-7.27,6.18v.28c0,.41-.34,.75-.75,.75s-.75-.34-.75-.75v-.44c-.19-.05-.38-.1-.56-.18-.38-.17-.54-.62-.37-.99s.62-.54,.99-.37c.34,.16,.73,.24,1.1,.24,.5,0,.84-.34,.84-.75s-.34-.75-.75-.75h-1c-1.24,0-2.25-1.01-2.25-2.25,0-1.16,.88-2.1,2-2.22v-.28c0-.41,.34-.75,.75-.75s.75,.34,.75,.75v.44c.19,.05,.38,.1,.56,.18,.38,.17,.54,.62,.37,.99-.17,.38-.62,.54-.99,.37-.34-.16-.73-.24-1.1-.24-.5,0-.84,.34-.84,.75s.34,.75,.75,.75h1c1.24,0,2.25,1.01,2.25,2.25,0,1.16-.88,2.1-2,2.22Z"/></g></svg>