<?xml version="1.0" encoding="UTF-8"?><svg fill="currentColor" xmlns="http://www.w3.org/2000/svg" viewBox="0 0 24 24"><g id="g"><path d="M19.43,10.55c-.66-3.02-2.22-5.16-3.41-6.43-.5-.53-1.22-.7-1.89-.44-.67,.25-1.12,.89-1.14,1.61-.01,.48-.05,.98-.12,1.47-.21,1.55-.69,3.06-1.43,4.48-.06,.11-.16,.13-.22,.13-.05,0-.15-.01-.21-.12-.17-.31-.36-.64-.59-.97-.45-.65-.96-1.25-1.53-1.79-.44-.41-1.05-.57-1.63-.43-.57,.14-1.03,.55-1.22,1.11-.46,1.32-.72,2.69-.79,4.07-.03,.54-.02,1.09,.02,1.64,.26,3.84,3.36,6.85,7.13,6.86h.29c3.49-.11,6.4-2.77,6.91-6.32,.23-1.64,.17-3.28-.18-4.88Z"/></g></svg>