<?xml version="1.0" encoding="UTF-8"?><svg fill="currentColor" xmlns="http://www.w3.org/2000/svg" viewBox="0 0 24 24"><g id="n"><g><path d="M20,16.25h-5.29c-.66,0-1.27,.26-1.74,.72-.18,.18-.42,.28-.68,.28h-1.59c-.26,0-.5-.1-.68-.28-.46-.46-1.08-.72-1.74-.72H3c-.41,0-.75,.34-.75,.75v2c0,.96,.79,1.75,1.75,1.75h15c.96,0,1.75-.79,1.75-1.75v-2c0-.41-.34-.75-.75-.75Z"/><path d="M21.59,5.54c-.14-.18-.36-.29-.59-.29h-.25v-1.25c0-.41-.34-.75-.75-.75s-.75,.34-.75,.75v1.25h-3.5v-1.25c0-.41-.34-.75-.75-.75s-.75,.34-.75,.75v1.25h-.25c-.23,0-.45,.11-.59,.29-.14,.18-.19,.42-.14,.64l.62,2.49c.31,1.23,1.4,2.08,2.67,2.08h1.88c1.26,0,2.36-.86,2.67-2.08l.62-2.48c.06-.22,0-.46-.14-.64Z"/><path d="M10.92,15.75h1.15c.72-.65,1.65-1,2.63-1h5.04v-2.71c-.42,.13-.86,.21-1.31,.21h-1.88c-1.95,0-3.65-1.32-4.12-3.22l-.62-2.49c-.02-.1-.03-.2-.04-.3H6c-1.52,0-2.75,1.23-2.75,2.75v5.75h5.04c.98,0,1.9,.35,2.63,1Z"/></g></g></svg>