<?xml version="1.0" encoding="UTF-8"?><svg fill="currentColor" xmlns="http://www.w3.org/2000/svg" viewBox="0 0 24 24"><g id="j"><g><path d="M19.59,7.54c-.14-.18-.36-.29-.59-.29h-.25v-1.25c0-.41-.34-.75-.75-.75s-.75,.34-.75,.75v1.25h-3.5v-1.25c0-.41-.34-.75-.75-.75s-.75,.34-.75,.75v1.25h-.25c-.23,0-.45,.11-.59,.29-.14,.18-.19,.42-.14,.64l.62,2.49c.31,1.23,1.4,2.08,2.67,2.08h1.88c1.26,0,2.36-.86,2.67-2.08l.62-2.49c.06-.22,0-.46-.14-.64Z"/><path d="M14.56,14.25c-1.95,0-3.65-1.32-4.12-3.22l-.62-2.49c-.17-.67-.02-1.38,.41-1.93,.15-.19,.33-.36,.53-.49v-.13c0-1.24,1.01-2.25,2.25-2.25,1.16,0,2.11,.88,2.24,2h.53c.06-.51,.29-.97,.63-1.32-.6-1.29-1.89-2.18-3.4-2.18h-4c-2.07,0-3.75,1.68-3.75,3.75v12c0,2.07,1.68,3.75,3.75,3.75h4c2.07,0,3.75-1.68,3.75-3.75v-3.78c-.1,0-.21,.03-.31,.03h-1.88Zm-2.56,4.5h-2c-.41,0-.75-.34-.75-.75s.34-.75,.75-.75h2c.41,0,.75,.34,.75,.75s-.34,.75-.75,.75Z"/></g></g></svg>