<?xml version="1.0" encoding="UTF-8"?><svg fill="currentColor" xmlns="http://www.w3.org/2000/svg" viewBox="0 0 24 24"><g id="t"><path d="M16,2.25H8c-2.62,0-4.75,2.13-4.75,4.75v12.38c0,.61,.31,1.17,.83,1.49,.52,.32,1.16,.35,1.7,.08l2.1-1.05c.07-.04,.15-.04,.22,0l3.11,1.55c.25,.12,.51,.18,.78,.18s.54-.06,.78-.18l3.1-1.55c.07-.04,.15-.04,.22,0l2.11,1.05c.55,.27,1.18,.24,1.7-.08,.52-.32,.83-.88,.83-1.49V7c0-2.62-2.13-4.75-4.75-4.75Zm-3,13.5h-5c-.41,0-.75-.34-.75-.75s.34-.75,.75-.75h5c.41,0,.75,.34,.75,.75s-.34,.75-.75,.75Zm0-4h-5c-.41,0-.75-.34-.75-.75s.34-.75,.75-.75h5c.41,0,.75,.34,.75,.75s-.34,.75-.75,.75Zm0-4h-5c-.41,0-.75-.34-.75-.75s.34-.75,.75-.75h5c.41,0,.75,.34,.75,.75s-.34,.75-.75,.75Zm3.02,8c-.41,0-.75-.34-.75-.75s.33-.75,.74-.75h.01c.41,0,.75,.34,.75,.75s-.34,.75-.75,.75Zm0-4c-.41,0-.75-.34-.75-.75s.33-.75,.74-.75h.01c.41,0,.75,.34,.75,.75s-.34,.75-.75,.75Zm0-4c-.41,0-.75-.34-.75-.75s.33-.75,.74-.75h.01c.41,0,.75,.34,.75,.75s-.34,.75-.75,.75Z"/></g></svg>