<?xml version="1.0" encoding="UTF-8"?><svg fill="currentColor" xmlns="http://www.w3.org/2000/svg" viewBox="0 0 24 24"><g id="l"><g><circle cx="16.5" cy="7.5" r=".75"/><path d="M20.92,3.42c-.54-.55-1.27-.86-2.05-.82l-4.55,.13c-.69,.02-1.35,.3-1.85,.78L2.79,12.96c-.73,.71-.77,1.86-.09,2.56l5.69,5.83c.33,.33,.76,.52,1.24,.52h.05c.47-.01,.92-.21,1.27-.54l9.68-9.45c.5-.48,.79-1.13,.83-1.83l.23-4.55c.04-.79-.23-1.52-.77-2.07Zm-4.42,6.33c-1.24,0-2.25-1.01-2.25-2.25s1.01-2.25,2.25-2.25,2.25,1.01,2.25,2.25-1.01,2.25-2.25,2.25Z"/></g></g></svg>