<?xml version="1.0" encoding="UTF-8"?><svg fill="currentColor" xmlns="http://www.w3.org/2000/svg" viewBox="0 0 24 24"><g id="c"><g><path d="M20.19,7.65c-.71-.89-1.78-1.4-2.92-1.4H6.99l-.04-.22c-.18-.99-.88-1.8-1.84-2.12l-1.88-.63c-.4-.13-.82,.08-.95,.47-.13,.39,.08,.82,.47,.95l1.88,.63c.43,.14,.75,.51,.83,.96l1.19,6.55c.41,2.26,2.38,3.9,4.67,3.9h4.45c2.24,0,4.15-1.53,4.64-3.72l.49-2.22c.25-1.12-.02-2.27-.74-3.16Z"/><circle cx="9.5" cy="19.5" r="2.25"/><circle cx="17.5" cy="19.5" r="2.25"/></g></g></svg>