<?xml version="1.0" encoding="UTF-8"?><svg fill="currentColor" xmlns="http://www.w3.org/2000/svg" viewBox="0 0 24 24"><g id="o"><g><path d="M20.75,9c0-.41-.34-.75-.75-.75H10.75v6h10v-5.25Z"/><path d="M3.25,9v11.25h-.25c-.41,0-.75,.34-.75,.75s.34,.75,.75,.75h6.25V8.25H4c-.41,0-.75,.34-.75,.75Z"/><path d="M21,20.25h-.25v-4.5H10.75v6h10.25c.41,0,.75-.34,.75-.75s-.34-.75-.75-.75Z"/><path d="M21.67,6.66l-1.17-2.34c-.64-1.28-1.92-2.07-3.35-2.07H6.85c-1.43,0-2.71,.79-3.35,2.07l-1.17,2.34c-.05,.1-.08,.22-.08,.34v.6c.41-.52,1.04-.85,1.75-.85H20c.71,0,1.34,.34,1.75,.85v-.6c0-.12-.03-.23-.08-.34Z"/></g></g></svg>