<?xml version="1.0" encoding="UTF-8"?><svg fill="currentColor" xmlns="http://www.w3.org/2000/svg" viewBox="0 0 24 24"><g id="h"><path d="M19,3.25h-2.76c-.99,0-1.95,.4-2.65,1.1l-1.41,1.41c-.13,.13-.23,.13-.35,0l-1.41-1.41c-.7-.7-1.66-1.1-2.65-1.1h-2.76c-1.52,0-2.75,1.23-2.75,2.75v12c0,1.52,1.23,2.75,2.75,2.75H15c3.72,0,6.75-3.03,6.75-6.75V6c0-1.52-1.23-2.75-2.75-2.75Zm-2.42,6.23l-5,6c-.13,.16-.33,.26-.54,.27-.01,0-.02,0-.03,0-.2,0-.39-.08-.53-.22l-3-3c-.29-.29-.29-.77,0-1.06s.77-.29,1.06,0l2.42,2.42,4.47-5.37c.27-.32,.74-.36,1.06-.1,.32,.27,.36,.74,.1,1.06Z"/></g></svg>