<?xml version="1.0" encoding="UTF-8"?><svg fill="currentColor" xmlns="http://www.w3.org/2000/svg" viewBox="0 0 24 24"><g id="b"><g><path d="M8.92,12.75l.5,2.5c.12,.58,.63,1,1.23,1h2.72c.59,0,1.11-.42,1.23-1l.5-2.5h-6.17Z"/><path d="M16,3.25H8c-3.17,0-5.75,2.58-5.75,5.75v6c0,3.17,2.58,5.75,5.75,5.75h8c3.17,0,5.75-2.58,5.75-5.75v-6c0-3.17-2.58-5.75-5.75-5.75Zm-1.99,3h0c.42,0,.75,.34,.75,.75s-.33,.75-.75,.75-.75-.34-.75-.75,.33-.75,.75-.75Zm2.05,9.29c-.26,1.28-1.39,2.21-2.7,2.21h-2.72c-1.31,0-2.44-.93-2.7-2.21l-.68-3.39c-.04-.22,.01-.45,.16-.62,.14-.17,.36-.27,.58-.27h.25v-1.25c0-.41,.34-.75,.75-.75s.75,.34,.75,.75v1.25h4.5v-1.25c0-.41,.34-.75,.75-.75s.75,.34,.75,.75v1.25h.25c.22,0,.44,.1,.58,.27,.14,.17,.2,.4,.16,.62l-.68,3.39Zm-.04-7.79c-.41,0-.75-.34-.75-.75s.33-.75,.75-.75h0c.42,0,.75,.34,.75,.75s-.33,.75-.75,.75Zm2,0c-.41,0-.75-.34-.75-.75s.33-.75,.75-.75h0c.42,0,.75,.34,.75,.75s-.33,.75-.75,.75Z"/></g></g></svg>