<?xml version="1.0" encoding="UTF-8"?><svg fill="currentColor" xmlns="http://www.w3.org/2000/svg" viewBox="0 0 24 24"><g id="b"><path d="M20.33,13.17l.75-5.99c.05-.4-.07-.79-.34-1.09-.26-.3-.64-.47-1.04-.47-.68,0-1.26,.49-1.37,1.16l-.85,5.13c-.02,.13-.13,.23-.27,.21-.13-.01-.23-.12-.23-.25v-1.63c0-.76-.62-1.38-1.38-1.38s-1.38,.62-1.38,1.38v1.63c0,.14-.11,.25-.25,.25s-.25-.11-.25-.25v-1.63c0-.76-.62-1.38-1.38-1.38s-1.38,.62-1.38,1.38v1.63c0,.14-.11,.25-.25,.25s-.25-.11-.25-.25v-1.63c0-.76-.62-1.38-1.38-1.38s-1.38,.62-1.38,1.38v3.79c0,.09-.05,.18-.14,.22-.09,.04-.18,.03-.26-.02l-2.39-1.79c-.27-.2-.58-.3-.9-.3-.15,0-.3,.02-.45,.07-.47,.15-.82,.5-.98,.96-.17,.5-.06,1.05,.29,1.45l4.23,4.94c.98,1.15,2.41,1.8,3.92,1.8h3.17c2.29,0,4.34-1.54,4.97-3.75l.82-2.85c.15-.52,.26-1.06,.33-1.6Z"/></g></svg>