<?xml version="1.0" encoding="UTF-8"?><svg fill="currentColor" xmlns="http://www.w3.org/2000/svg" viewBox="0 0 24 24"><g id="n"><path d="M4.72,11.02c-.73,1.06-.86,2.37-.37,3.52l1.15,2.68c.81,1.89,2.67,3.12,4.73,3.12h3.16c2.29,0,4.32-1.53,4.95-3.73l.62-2.19c.27-.94,.41-1.92,.41-2.9v-2.27c0-.75-.61-1.37-1.37-1.37s-1.37,.61-1.37,1.37v1.62c0,.14-.11,.25-.25,.25s-.25-.11-.25-.25v-2.7c0-.75-.61-1.37-1.37-1.37s-1.37,.61-1.37,1.37v2.7c0,.14-.11,.25-.25,.25s-.25-.11-.25-.25v-3.78c0-.75-.61-1.37-1.37-1.37s-1.37,.61-1.37,1.37v3.78c0,.14-.11,.25-.25,.25s-.25-.11-.25-.25v-2.7c0-.75-.61-1.37-1.37-1.37s-1.37,.61-1.37,1.37v4.86c0,.14-.11,.25-.25,.25s-.25-.11-.25-.25v-3.82c-.66,.51-1.23,1.12-1.7,1.81Z"/></g></svg>