<?xml version="1.0" encoding="UTF-8"?><svg fill="currentColor" xmlns="http://www.w3.org/2000/svg" viewBox="0 0 24 24"><g id="s"><g><path d="M14.24,11.89h4.88c.76,0,1.38-.62,1.38-1.38s-.62-1.38-1.38-1.38h-4.88c-.14,0-.25-.11-.25-.25s.11-.25,.25-.25h3.8c.76,0,1.38-.62,1.38-1.38s-.62-1.38-1.38-1.38h-3.8c-.14,0-.25-.11-.25-.25s.11-.25,.25-.25h1.63c.76,0,1.38-.62,1.38-1.38s-.62-1.38-1.38-1.38h-2.28c-.98,0-1.96,.14-2.91,.41l-2.2,.63c-2.31,.66-3.75,2.75-3.75,5.44v3.48c0,1.89,1,3.61,2.62,4.49,.17,.09,.34,.18,.5,.26,.38,.19,.68,.32,.95,.43,.46,.2,.82,.35,1.26,.67,.77,.55,2.28,1.78,3.32,2.88,.23,.25,.56,.36,.89,.33,.33-.04,.61-.22,.78-.51,.31-.52,.39-1.14,.24-1.73l-.18-.71c-.57-2.16-2.84-2.99-3.09-3.08-.12-.04-.19-.16-.17-.28,.02-.12,.12-.21,.25-.21h5.97c.76,0,1.38-.62,1.38-1.38s-.62-1.38-1.38-1.38h-3.8c-.14,0-.25-.11-.25-.25s.11-.25,.25-.25Z"/><path d="M12.46,21.12l.02,.02h.01l-.03-.02Z"/></g></g></svg>