<?xml version="1.0" encoding="UTF-8"?><svg fill="currentColor" xmlns="http://www.w3.org/2000/svg" viewBox="0 0 24 24"><g id="e"><g><path d="M11.03,2.63h-2.17c-2.86,0-5.18,2.32-5.18,5.18V15.95c0,.76,.62,1.38,1.38,1.38s1.38-.62,1.38-1.38v-3.8c0-.14,.11-.25,.25-.25s.25,.11,.25,.25v5.98c0,.76,.62,1.38,1.38,1.38s1.38-.62,1.38-1.38v-5.98c0-.14,.11-.25,.25-.25s.25,.11,.25,.25v8.15c0,.76,.62,1.38,1.38,1.38s1.38-.62,1.38-1.38V12.15c0-.14,.11-.25,.25-.25s.25,.11,.25,.25v5.98c0,.76,.62,1.38,1.38,1.38s1.38-.62,1.38-1.38V7.81c0-2.86-2.32-5.18-5.18-5.18Z"/><path d="M20.55,9.47l-3.89-2.33c.03,.22,.04,.44,.04,.67v3.1l2.4,1.2c.39,.2,.85,.21,1.25,.04s.71-.5,.85-.92c.23-.67-.04-1.4-.65-1.77Z"/></g></g></svg>