<?xml version="1.0" encoding="UTF-8"?><svg fill="currentColor" xmlns="http://www.w3.org/2000/svg" viewBox="0 0 24 24"><g id="j"><path d="M4.62,12.13c-.74,1.07-.87,2.38-.37,3.55l1.15,2.69c.82,1.91,2.69,3.14,4.76,3.14h3.18c2.3,0,4.35-1.55,4.98-3.76l.63-2.2c.27-.95,.41-1.93,.41-2.92v-4.45c0-.76-.62-1.38-1.38-1.38s-1.38,.62-1.38,1.38v3.8c0,.14-.11,.25-.25,.25s-.25-.11-.25-.25V6.02c0-.76-.62-1.38-1.38-1.38s-1.38,.62-1.38,1.38v5.97c0,.14-.11,.25-.25,.25s-.25-.11-.25-.25V3.84c0-.76-.62-1.38-1.38-1.38s-1.38,.62-1.38,1.38V11.99c0,.14-.11,.25-.25,.25s-.25-.11-.25-.25V7.1c0-.76-.62-1.38-1.38-1.38s-1.38,.62-1.38,1.38v7.06c0,.14-.11,.25-.25,.25s-.25-.11-.25-.25v-3.85c-.66,.52-1.24,1.13-1.72,1.82Z"/></g></svg>