<?xml version="1.0" encoding="UTF-8"?><svg fill="currentColor" xmlns="http://www.w3.org/2000/svg" viewBox="0 0 24 24"><g id="f"><path d="M7.52,14.41l-1.41-1.41c-.26-.26-.61-.4-.96-.4-.11,0-.21,.01-.32,.04-.46,.11-.83,.45-.98,.9-.14,.41-.07,.87,.18,1.23l3.33,4.67c.97,1.36,2.55,2.17,4.22,2.17h2.89c2.31,0,4.36-1.55,4.99-3.76l.63-2.21c.27-.95,.41-1.93,.41-2.92v-1.2c0-.76-.62-1.38-1.38-1.38s-1.38,.62-1.38,1.38v.54c0,.14-.11,.25-.25,.25s-.25-.11-.25-.25v-1.63c0-.76-.62-1.38-1.38-1.38s-1.38,.62-1.38,1.38v1.63c0,.14-.11,.25-.25,.25s-.25-.11-.25-.25V3.9c0-.76-.62-1.38-1.38-1.38s-1.38,.62-1.38,1.38V12.06c0,.14-.11,.25-.25,.25s-.25-.11-.25-.25V6.08c0-.76-.62-1.38-1.38-1.38s-1.38,.62-1.38,1.38V14.24c0,.1-.06,.19-.15,.23-.09,.04-.2,.02-.27-.05Z"/></g></svg>