<?xml version="1.0" encoding="UTF-8"?><svg fill="currentColor" xmlns="http://www.w3.org/2000/svg" viewBox="0 0 24 24"><g id="d"><path d="M14.67,8.86c-.77,0-1.39,.62-1.39,1.39v1.64c0,.14-.11,.25-.25,.25s-.25-.11-.25-.25V3.69c0-.77-.62-1.39-1.39-1.39s-1.39,.62-1.39,1.39V11.88c0,.14-.11,.25-.25,.25s-.25-.11-.25-.25V5.88c0-.77-.62-1.39-1.39-1.39s-1.39,.62-1.39,1.39V14.07c0,.14-.11,.25-.25,.25s-.25-.11-.25-.25v-3.87c-.67,.52-1.25,1.14-1.73,1.83-.74,1.07-.87,2.4-.37,3.57l1.16,2.71c.82,1.92,2.7,3.16,4.79,3.16h3.2c2.31,0,4.38-1.55,5.01-3.78l.63-2.21c.27-.95,.41-1.94,.41-2.93v-4.48c0-.77-.62-1.39-1.39-1.39s-1.39,.62-1.39,1.39v3.82c0,.14-.11,.25-.25,.25s-.25-.11-.25-.25v-1.64c0-.77-.62-1.39-1.39-1.39Z"/></g></svg>