<?xml version="1.0" encoding="UTF-8"?><svg fill="currentColor" xmlns="http://www.w3.org/2000/svg" viewBox="0 0 24 24"><g id="i"><path d="M14.16,18.26h3.8c.76,0,1.38-.62,1.38-1.38s-.62-1.38-1.38-1.38h-3.8c-.14,0-.25-.11-.25-.25s.11-.25,.25-.25h4.89c.76,0,1.38-.62,1.38-1.38s-.62-1.38-1.38-1.38h-4.89c-.14,0-.25-.11-.25-.25s.11-.25,.25-.25h3.8c.76,0,1.38-.62,1.38-1.38s-.62-1.38-1.38-1.38h-5.98c-.14,0-.25-.11-.25-.25v-3.52c0-1.11-.55-2.15-1.48-2.76-.14-.09-.3-.14-.46-.14-.13,0-.27,.03-.39,.1-.27,.15-.44,.42-.44,.73v2.93c0,1.67-1.19,3.11-2.82,3.44-1.51,.3-2.61,1.64-2.61,3.19v3.52c0,1.3,.77,2.47,1.97,2.99l3.44,1.47c1.33,.57,2.74,.86,4.18,.86h2.66c.76,0,1.38-.62,1.38-1.38s-.62-1.38-1.38-1.38h-1.63c-.14,0-.25-.11-.25-.25s.11-.25,.25-.25Z"/></g></svg>