<?xml version="1.0" encoding="UTF-8"?><svg fill="currentColor" xmlns="http://www.w3.org/2000/svg" viewBox="0 0 24 24"><g id="g"><g><path d="M4.77,6.89c-.43,.13-.75,.45-.9,.88-.18,.55,0,1.15,.45,1.51l4.08,3.26v-3.65l-2.39-1.79c-.36-.27-.81-.35-1.24-.21Z"/><path d="M19.93,11.17c-.75,0-1.36,.61-1.36,1.36v1.61c0,.14-.11,.25-.25,.25s-.25-.11-.25-.25v-3.76c0-.75-.61-1.36-1.36-1.36s-1.36,.61-1.36,1.36v3.76c0,.14-.11,.25-.25,.25s-.25-.11-.25-.25v-4.83c0-.75-.61-1.36-1.36-1.36s-1.36,.61-1.36,1.36v4.83c0,.14-.11,.25-.25,.25s-.25-.11-.25-.25V3.93c0-.75-.61-1.36-1.36-1.36s-1.36,.61-1.36,1.36v12.36c0,2.82,2.3,5.12,5.12,5.12h2.15c2.82,0,5.12-2.3,5.12-5.12v-3.76c0-.75-.61-1.36-1.36-1.36Z"/></g></g></svg>