<?xml version="1.0" encoding="UTF-8"?><svg fill="currentColor" xmlns="http://www.w3.org/2000/svg" viewBox="0 0 24 24"><g id="r"><path d="M5.03,12.42c-.11,0-.21,.01-.32,.04-.47,.11-.84,.45-.99,.9-.14,.42-.07,.88,.19,1.23l3.35,4.69c.98,1.37,2.56,2.18,4.24,2.18h2.9c2.31,0,4.38-1.55,5.01-3.78l.63-2.21c.27-.95,.41-1.94,.41-2.93V6.97c0-.77-.62-1.39-1.39-1.39s-1.39,.62-1.39,1.39v4.92c0,.14-.11,.25-.25,.25s-.25-.11-.25-.25v-1.64c0-.77-.62-1.39-1.39-1.39s-1.39,.62-1.39,1.39v1.64c0,.14-.11,.25-.25,.25s-.25-.11-.25-.25v-1.64c0-.77-.62-1.39-1.39-1.39s-1.39,.62-1.39,1.39v1.64c0,.14-.11,.25-.25,.25s-.25-.11-.25-.25V3.69c0-.77-.62-1.39-1.39-1.39s-1.39,.62-1.39,1.39V14.07c0,.1-.06,.19-.15,.23-.1,.04-.2,.02-.27-.05l-1.42-1.42c-.26-.26-.61-.4-.97-.4Z"/></g></svg>