<?xml version="1.0" encoding="UTF-8"?><svg fill="currentColor" xmlns="http://www.w3.org/2000/svg" viewBox="0 0 24 24"><g id="c"><path d="M5.3,9.99l-.71-.18c-.19-.05-.39-.08-.58-.08-.4,0-.8,.11-1.16,.32-.29,.17-.47,.45-.51,.78-.04,.33,.08,.66,.33,.89,1.19,1.12,2.41,2.67,2.89,3.33,.32,.44,.48,.8,.67,1.26,.11,.27,.25,.57,.44,.95,.08,.16,.17,.33,.26,.5,.89,1.62,2.62,2.63,4.51,2.63h3.5c2.71,0,4.8-1.44,5.47-3.77l.63-2.21c.27-.95,.41-1.94,.41-2.92v-2.29c0-.76-.62-1.38-1.38-1.38s-1.38,.62-1.38,1.38c0,.14-.11,.25-.25,.25s-.25-.11-.25-.25v-2.18c0-.76-.62-1.38-1.38-1.38s-1.38,.62-1.38,1.38v1.63c0,.14-.11,.25-.25,.25s-.25-.11-.25-.25v-2.72c0-.76-.62-1.38-1.38-1.38s-1.38,.62-1.38,1.38v2.72c0,.14-.11,.25-.25,.25s-.25-.11-.25-.25v-1.63c0-.76-.62-1.38-1.38-1.38s-1.38,.62-1.38,1.38v5.99c0,.12-.09,.23-.21,.25-.12,.01-.24-.05-.28-.17-.09-.26-.92-2.53-3.1-3.11Z"/></g></svg>