<?xml version="1.0" encoding="UTF-8"?><svg fill="currentColor" xmlns="http://www.w3.org/2000/svg" viewBox="0 0 24 24"><g id="m"><path d="M13.3,3.02c-.26-.29-.63-.45-1.01-.45-.69,0-1.28,.52-1.35,1.21l-.92,8.29c-.01,.12-.11,.21-.23,.22-.12,0-.23-.07-.26-.18l-1.83-6.39c-.17-.58-.71-.99-1.31-.99-.43,0-.82,.19-1.08,.51-.26,.32-.36,.74-.27,1.15l1.73,7.76c.03,.13-.05,.27-.19,.3-.02,0-.04,0-.05,0-.12,0-.22-.08-.24-.2l-.72-3.23c-.36,.36-.7,.74-.99,1.16-.73,1.06-.86,2.37-.37,3.53l1.15,2.68c.81,1.9,2.67,3.12,4.74,3.12h3.17c2.29,0,4.33-1.54,4.95-3.74l.63-2.19c.27-.94,.41-1.92,.41-2.9v-1.19c0-.76-.61-1.37-1.37-1.37s-1.37,.61-1.37,1.37v.54c0,.14-.11,.25-.25,.25s-.25-.11-.25-.25v-1.62c0-.76-.61-1.37-1.37-1.37-.43,0-.82,.19-1.08,.53,0,0,0,0-.01,0l-.28,2.48c-.01,.14-.14,.23-.28,.22-.14-.02-.24-.14-.22-.28l.88-7.93c.04-.38-.08-.77-.34-1.06Z"/></g></svg>