<?xml version="1.0" encoding="UTF-8"?><svg fill="currentColor" xmlns="http://www.w3.org/2000/svg" viewBox="0 0 24 24"><g id="t"><path d="M7.4,19.04c.96,1.34,2.51,2.14,4.16,2.14h2.85c2.27,0,4.29-1.52,4.91-3.71l.62-2.17c.27-.93,.4-1.9,.4-2.88v-1.18c0-.75-.61-1.36-1.36-1.36s-1.36,.61-1.36,1.36v.54c0,.14-.11,.25-.25,.25s-.25-.11-.25-.25v-1.61c0-.75-.61-1.36-1.36-1.36s-1.36,.61-1.36,1.36v1.61c0,.14-.11,.25-.25,.25s-.25-.11-.25-.25v-1.61c0-.75-.61-1.36-1.36-1.36s-1.36,.61-1.36,1.36v1.61c0,.14-.11,.25-.25,.25s-.25-.11-.25-.25V3.74c0-.75-.61-1.36-1.36-1.36s-1.36,.61-1.36,1.36V13.92c0,.1-.06,.19-.15,.23-.09,.04-.2,.02-.27-.05l-1.39-1.39c-.26-.26-.6-.39-.95-.39-.1,0-.21,.01-.31,.04-.46,.11-.82,.44-.97,.88-.14,.41-.07,.86,.18,1.21l3.29,4.6Z"/></g></svg>