<?xml version="1.0" encoding="UTF-8"?><svg fill="currentColor" xmlns="http://www.w3.org/2000/svg" viewBox="0 0 24 24"><g id="k"><path d="M4.63,12.21c-.73,1.06-.86,2.37-.37,3.52l1.15,2.67c.81,1.89,2.67,3.12,4.72,3.12h3.16c2.28,0,4.32-1.53,4.94-3.73l.62-2.19c.27-.94,.41-1.91,.41-2.89V3.98c0-.75-.61-1.37-1.37-1.37s-1.37,.61-1.37,1.37V12.07c0,.14-.11,.25-.25,.25s-.25-.11-.25-.25v-2.7c0-.75-.61-1.37-1.37-1.37s-1.37,.61-1.37,1.37v2.7c0,.14-.11,.25-.25,.25s-.25-.11-.25-.25v-3.77c0-.75-.61-1.37-1.37-1.37s-1.37,.61-1.37,1.37v3.77c0,.14-.11,.25-.25,.25s-.25-.11-.25-.25v-2.7c0-.75-.61-1.37-1.37-1.37s-1.37,.61-1.37,1.37v4.85c0,.14-.11,.25-.25,.25s-.25-.11-.25-.25v-3.82c-.66,.51-1.23,1.12-1.7,1.8Z"/></g></svg>