<?xml version="1.0" encoding="UTF-8"?><svg fill="currentColor" xmlns="http://www.w3.org/2000/svg" viewBox="0 0 24 24"><g id="u"><path d="M7.54,14.2l-1.39-1.39c-.25-.25-.58-.39-.93-.39-.1,0-.2,.01-.31,.04-.45,.11-.8,.43-.95,.87-.13,.4-.07,.84,.18,1.19l3.27,4.58c.95,1.33,2.49,2.12,4.13,2.12h2.83c2.25,0,4.26-1.51,4.88-3.68l.62-2.16c.27-.93,.4-1.89,.4-2.86v-4.38c0-.74-.6-1.33-1.33-1.33s-1.33,.6-1.33,1.33v3.74c0,.15-.12,.27-.27,.27s-.27-.12-.27-.27V6c0-.74-.6-1.33-1.33-1.33s-1.33,.6-1.33,1.33v5.87c0,.15-.12,.27-.27,.27s-.27-.12-.27-.27V3.87c0-.74-.6-1.33-1.33-1.33s-1.33,.6-1.33,1.33V11.88c0,.15-.12,.27-.27,.27s-.27-.12-.27-.27V7.07c0-.74-.6-1.33-1.33-1.33s-1.33,.6-1.33,1.33v6.94c0,.11-.07,.21-.16,.25-.1,.04-.21,.02-.29-.06Z"/></g></svg>