<?xml version="1.0" encoding="UTF-8"?><svg fill="currentColor" xmlns="http://www.w3.org/2000/svg" viewBox="0 0 24 24"><g id="o"><path d="M12.02,9.71h8.08c.75,0,1.37-.61,1.37-1.37s-.61-1.37-1.37-1.37H9.86c-.14,0-.25-.11-.25-.25s.11-.25,.25-.25h3.81c-.51-.66-1.12-1.23-1.8-1.7-.64-.44-1.36-.66-2.09-.66-.48,0-.97,.1-1.43,.3l-2.67,1.15c-1.89,.81-3.11,2.66-3.11,4.72v3.16c0,2.28,1.53,4.31,3.73,4.94l2.18,.62c.94,.27,1.91,.4,2.89,.4h1.18c.75,0,1.37-.61,1.37-1.37s-.61-1.37-1.37-1.37h-.54c-.14,0-.25-.11-.25-.25s.11-.25,.25-.25h1.62c.75,0,1.37-.61,1.37-1.37s-.61-1.37-1.37-1.37h-1.62c-.14,0-.25-.11-.25-.25s.11-.25,.25-.25h1.62c.75,0,1.37-.61,1.37-1.37s-.61-1.37-1.37-1.37h-1.62c-.14,0-.25-.11-.25-.25s.11-.25,.25-.25Z"/></g></svg>