<?xml version="1.0" encoding="UTF-8"?><svg fill="currentColor" xmlns="http://www.w3.org/2000/svg" viewBox="0 0 24 24"><g id="h"><path d="M4.62,12.13c-.74,1.07-.87,2.38-.37,3.55l1.16,2.69c.82,1.91,2.69,3.14,4.76,3.14h3.18c2.3,0,4.35-1.54,4.98-3.76l.63-2.2c.27-.95,.41-1.93,.41-2.92V7.1c0-.76-.62-1.38-1.38-1.38s-1.38,.62-1.38,1.38v4.89c0,.14-.11,.25-.25,.25s-.25-.11-.25-.25v-1.63c0-.76-.62-1.38-1.38-1.38s-1.38,.62-1.38,1.38v1.63c0,.14-.11,.25-.25,.25s-.25-.11-.25-.25v-1.68c0-.73-.6-1.33-1.33-1.33-.81,0-1.43,.62-1.43,1.38v1.63c0,.14-.11,.25-.25,.25s-.25-.11-.25-.25V3.84c0-.76-.62-1.38-1.38-1.38s-1.38,.62-1.38,1.38V14.16c0,.14-.11,.25-.25,.25s-.25-.11-.25-.25v-3.85c-.66,.52-1.24,1.13-1.72,1.82Z"/></g></svg>