<?xml version="1.0" encoding="UTF-8"?><svg fill="currentColor" xmlns="http://www.w3.org/2000/svg" viewBox="0 0 24 24"><g id="l"><path d="M4.66,12.13c-.73,1.06-.86,2.37-.37,3.53l1.15,2.68c.81,1.9,2.67,3.12,4.74,3.12h3.17c2.29,0,4.33-1.54,4.95-3.74l.63-2.19c.27-.94,.41-1.92,.41-2.9v-1.19c0-.76-.61-1.37-1.37-1.37s-1.37,.61-1.37,1.37v.54c0,.14-.11,.25-.25,.25s-.25-.11-.25-.25V6.05c0-.76-.62-1.37-1.37-1.37s-1.37,.61-1.37,1.37v5.94c0,.14-.11,.25-.25,.25s-.25-.11-.25-.25V3.89c0-.76-.62-1.37-1.37-1.37s-1.37,.61-1.37,1.37V11.99c0,.14-.11,.25-.25,.25s-.25-.11-.25-.25V7.13c0-.76-.62-1.37-1.37-1.37s-1.37,.61-1.37,1.37v7.02c0,.14-.11,.25-.25,.25s-.25-.11-.25-.25v-3.83c-.66,.51-1.23,1.12-1.71,1.81Z"/></g></svg>