<?xml version="1.0" encoding="UTF-8"?><svg fill="currentColor" xmlns="http://www.w3.org/2000/svg" viewBox="0 0 24 24"><g id="p"><path d="M7.84,14.38c-.09,.04-.2,.02-.27-.05l-2.48-2.48c-.25-.25-.59-.39-.94-.39-.1,0-.21,.01-.31,.04-.45,.11-.81,.43-.96,.88-.14,.42-.06,.87,.2,1.22l4.33,5.77c.96,1.28,2.49,2.05,4.09,2.05h2.93c2.27,0,4.29-1.52,4.92-3.71l.62-2.17c.27-.94,.4-1.91,.4-2.88v-1.18c0-.75-.61-1.36-1.36-1.36s-1.36,.61-1.36,1.36v.54c0,.14-.11,.25-.25,.25s-.25-.11-.25-.25v-1.61c0-.75-.61-1.36-1.36-1.36s-1.36,.61-1.36,1.36v1.61c0,.14-.11,.25-.25,.25s-.25-.11-.25-.25v-1.61c0-.75-.61-1.36-1.36-1.36s-1.36,.61-1.36,1.36v1.61c0,.14-.11,.25-.25,.25s-.25-.11-.25-.25v-3.14c0-1.37-.53-2.65-1.5-3.62l-2.34-2.34c-.2-.2-.46-.3-.74-.3-.41,0-.76,.22-.94,.59-.18,.37-.13,.78,.13,1.1l1.44,1.8c.79,.99,1.23,2.24,1.23,3.51v4.55c0,.1-.06,.19-.15,.23Z"/></g></svg>