<svg fill="currentColor" xmlns="http://www.w3.org/2000/svg" viewBox="0 0 32 32"><g id="amputation"><path d="M16,11a4.5,4.5,0,1,0-4.5-4.5A4.51,4.51,0,0,0,16,11Zm0-7a2.5,2.5,0,1,1-2.5,2.5A2.5,2.5,0,0,1,16,4Z"/><path d="M26.87,28.51l-4.55-8.19,1.58-1.05a2,2,0,0,0,.74-2.37l-.88-2.19a4.29,4.29,0,0,0-4-2.71H12.24a4.29,4.29,0,0,0-4,2.71L7.36,16.9a2,2,0,0,0,.74,2.37l1.58,1.05L5.13,28.51a1,1,0,0,0,.38,1.36A1,1,0,0,0,6,30a1,1,0,0,0,.87-.51l5-9L12,20.3v4.2A2.5,2.5,0,0,0,14.5,27,2.73,2.73,0,0,0,15,27v.55a2.5,2.5,0,0,0,5,0V20.3l.15.22,5,9A1,1,0,0,0,26,30a1,1,0,0,0,.49-.13A1,1,0,0,0,26.87,28.51Zm-7-12.06A1,1,0,0,0,18,17V27.5a.5.5,0,0,1-1,0V22a1,1,0,0,0-2,0v2.5a.5.5,0,0,1-1,0V17a1,1,0,0,0-1.83-.55l-1.45,2.17-1.5-1,.88-2.19A2.29,2.29,0,0,1,12.24,14h7.52a2.29,2.29,0,0,1,2.14,1.45l.89,2.16-1.51,1Z"/></g></svg>