<svg fill="currentColor" xmlns="http://www.w3.org/2000/svg" viewBox="0 0 32 32"><g id="blind"><path d="M26.91,28.81,22.21,18.3A2.5,2.5,0,0,0,20.48,14H18V9.44A3.91,3.91,0,0,0,20,10a4,4,0,1,0-4-4,4.09,4.09,0,0,0,.14,1h-.24A6.9,6.9,0,0,0,9,13.89v2.37a4.1,4.1,0,0,0,.44,1.85l.37.74L5.06,24.37a2.72,2.72,0,0,0-.2,3.25A2.68,2.68,0,0,0,7,28.82h.12a2.67,2.67,0,0,0,2.1-1l.77-1v.65a2.5,2.5,0,0,0,5,0V18.87a2.7,2.7,0,0,0,.85.13h4.5l4.76,10.62a1,1,0,0,0,.91.59,1,1,0,0,0,.41-.08A1,1,0,0,0,26.91,28.81ZM20,4a2,2,0,1,1-2,2A2,2,0,0,1,20,4ZM7.65,26.56a.69.69,0,0,1-1.12,0,.69.69,0,0,1,0-.84l3.4-4v1.95ZM15,16.15V15a1,1,0,0,0-2,0V27.5a.5.5,0,0,1-.5.5.5.5,0,0,1-.5-.5V19.42a2.3,2.3,0,0,0,0-.26,1,1,0,0,0-.17-.73,2.5,2.5,0,0,0-.09-.25l-.48-1a2.15,2.15,0,0,1-.23-1V13.89A4.9,4.9,0,0,1,15.88,9H16v6a1,1,0,0,0,1,1h3.5a.5.5,0,1,1,0,1H15.83A.85.85,0,0,1,15,16.15Z"/></g></svg>