<svg fill="currentColor" xmlns="http://www.w3.org/2000/svg" viewBox="0 0 32 32"><g id="care"><path d="M11.75,18.58A2.68,2.68,0,0,0,8.16,18a2.48,2.48,0,0,0-.37.29c-.08-.29-.15-.58-.2-.87l-.38-2.26A2.62,2.62,0,0,0,2,15.62v5a5.07,5.07,0,0,0,1.11,3.16L5.24,26.4A3.47,3.47,0,0,1,6,28.57,1.43,1.43,0,0,0,7.43,30H14a1,1,0,0,0,1-1V25.71a8.78,8.78,0,0,0-1.91-5.45ZM13,28H8A5.54,5.54,0,0,0,6.8,25.15L4.67,22.49A3.08,3.08,0,0,1,4,20.58v-5a.62.62,0,0,1,1.24-.1l.38,2.26a8.39,8.39,0,0,0,1.83,4,2.52,2.52,0,0,0,.3.35L8,22.4v0l1.29,1.29a1,1,0,0,0,1.42-1.42L9.4,21c-.12-.12-.24-.25-.35-.38A.8.8,0,0,1,9,20.2a.7.7,0,0,1,.31-.51.69.69,0,0,1,.92.14l1.33,1.68A6.7,6.7,0,0,1,13,25.71Z"/><path d="M27.38,13a2.61,2.61,0,0,0-2.59,2.19l-.38,2.26c-.05.29-.12.58-.2.87a2.48,2.48,0,0,0-.37-.29,2.68,2.68,0,0,0-3.59.55l-1.34,1.68A8.78,8.78,0,0,0,17,25.71V29a1,1,0,0,0,1,1h6.57A1.43,1.43,0,0,0,26,28.57a3.47,3.47,0,0,1,.76-2.17l2.13-2.66A5.07,5.07,0,0,0,30,20.58v-5A2.63,2.63,0,0,0,27.38,13ZM28,20.58a3.08,3.08,0,0,1-.67,1.91L25.2,25.15A5.54,5.54,0,0,0,24,28H19V25.71a6.7,6.7,0,0,1,1.48-4.2l1.33-1.68a.69.69,0,0,1,.92-.14.7.7,0,0,1,.31.51.8.8,0,0,1-.09.41c-.11.13-.23.26-.35.38l-1.31,1.3a1,1,0,0,0,1.42,1.42L24,22.42l0,0,.23-.24a2.52,2.52,0,0,0,.3-.35,8.39,8.39,0,0,0,1.83-4l.38-2.26a.62.62,0,0,1,1.24.1Z"/><path d="M14.5,18A4.49,4.49,0,0,0,19,14h.51l1.71,2.55A1,1,0,0,0,22,17a.94.94,0,0,0,.55-.17,1,1,0,0,0,.28-1.38l-2-3A1,1,0,0,0,20,12H16V11h1.13a1,1,0,0,0,0-2H16V8a1,1,0,0,0,0-.17,3,3,0,1,0-1.94,0A1,1,0,0,0,14,8V9.05a4.49,4.49,0,0,0,.5,9ZM15,4a1,1,0,1,1-1,1A1,1,0,0,1,15,4Zm-1,7.05V13a1,1,0,0,0,1,1H17A2.5,2.5,0,1,1,14,11.05Z"/></g></svg>