<svg fill="currentColor" xmlns="http://www.w3.org/2000/svg" viewBox="0 0 32 32"><g id="diaper"><path d="M29.3,7.05a44.38,44.38,0,0,0-26.6,0A1,1,0,0,0,2,8V19.48a1.45,1.45,0,0,0,.48,1.08,1.46,1.46,0,0,0,1.12.36,6,6,0,0,1,3.85.91A6.1,6.1,0,0,1,10,26.1a.75.75,0,0,0,0,.16c0,.06,0,.11,0,.16a1.13,1.13,0,0,0,.12.18.58.58,0,0,0,.1.12.64.64,0,0,0,.19.13.34.34,0,0,0,.11.07A1,1,0,0,0,11,27H21a1,1,0,0,0,.38-.08.34.34,0,0,0,.11-.07.64.64,0,0,0,.19-.13.58.58,0,0,0,.1-.12,1.13,1.13,0,0,0,.12-.18c0-.05,0-.1.05-.16a.75.75,0,0,0,0-.16,6.1,6.1,0,0,1,2.56-4.27,6,6,0,0,1,3.85-.91,1.46,1.46,0,0,0,1.12-.36A1.45,1.45,0,0,0,30,19.48V8A1,1,0,0,0,29.3,7.05ZM28,8.74V12H4V8.74A42.42,42.42,0,0,1,28,8.74ZM8.55,20.17A7.86,7.86,0,0,0,4,18.89V14h6v7.43A7.22,7.22,0,0,0,8.55,20.17ZM12,14h3V25H12Zm5,11V14h3V25Zm6.45-4.83A7.22,7.22,0,0,0,22,21.43V14h6v4.89A7.86,7.86,0,0,0,23.45,20.17Z"/><path d="M15,10h2a1,1,0,0,0,0-2H15a1,1,0,0,0,0,2Z"/></g></svg>