<svg fill="currentColor" xmlns="http://www.w3.org/2000/svg" viewBox="0 0 32 32"><g id="disable_people" data-name="disable people"><path d="M21.89,19.55A1,1,0,0,0,21,19H14V16h3a1,1,0,0,0,0-2H14V13a3.5,3.5,0,1,0-2-.3v1.7A6,6,0,1,0,19.91,21h.47l1.73,3.45A1,1,0,0,0,23,25a.93.93,0,0,0,.45-.11,1,1,0,0,0,.44-1.34ZM13.5,8A1.5,1.5,0,1,1,12,9.5,1.5,1.5,0,0,1,13.5,8ZM14,24a4,4,0,0,1-2-7.44V20a1,1,0,0,0,1,1h4.86A4,4,0,0,1,14,24Z"/><path d="M26.22,2H5.78A3.78,3.78,0,0,0,2,5.78V26.22A3.78,3.78,0,0,0,5.78,30H26.22A3.78,3.78,0,0,0,30,26.22V5.78A3.78,3.78,0,0,0,26.22,2ZM28,26.22A1.78,1.78,0,0,1,26.22,28H5.78A1.78,1.78,0,0,1,4,26.22V5.78A1.78,1.78,0,0,1,5.78,4H26.22A1.78,1.78,0,0,1,28,5.78Z"/></g></svg>