<svg fill="currentColor" xmlns="http://www.w3.org/2000/svg" viewBox="0 0 32 32"><g id="disabled_person" data-name="disabled person"><path d="M22.86,17.28a3,3,0,1,0,4.08-4.47l-2.71-2.26a6.7,6.7,0,0,0-4-1.52,4.5,4.5,0,1,0-7.44,0,6.7,6.7,0,0,0-4,1.52L6.06,12.81a3,3,0,1,0,4.08,4.47l.86-.87V22H8.5a2.5,2.5,0,0,0-.44,5A2.35,2.35,0,0,0,8,27.5a2.5,2.5,0,0,0,5,0A2.73,2.73,0,0,0,13,27h1.1a2.73,2.73,0,0,0-.05.5,2.5,2.5,0,0,0,5,0A2.73,2.73,0,0,0,19,27h1.1a2.73,2.73,0,0,0-.05.5,2.5,2.5,0,0,0,5,0,2.35,2.35,0,0,0-.06-.54,2.5,2.5,0,0,0-.44-5H22V16.41ZM16.5,4A2.5,2.5,0,1,1,14,6.5,2.5,2.5,0,0,1,16.5,4ZM11,27.5a.5.5,0,1,1-.5-.5A.5.5,0,0,1,11,27.5Zm6,0a.5.5,0,1,1-.5-.5A.5.5,0,0,1,17,27.5Zm5.5.5a.5.5,0,1,1,.5-.5A.5.5,0,0,1,22.5,28ZM25,24.5a.5.5,0,0,1-.5.5H8.5a.5.5,0,0,1,0-1h16A.5.5,0,0,1,25,24.5ZM13,22V14a1,1,0,0,0-.62-.92,1,1,0,0,0-1.09.21L8.73,15.86a1,1,0,0,1-1.45,0,1,1,0,0,1-.3-.77,1,1,0,0,1,.36-.74l2.71-2.26a4.76,4.76,0,0,1,3-1.09h6.88a4.76,4.76,0,0,1,3,1.09l2.71,2.26a1,1,0,0,1,.36.74,1,1,0,0,1-.29.77,1.06,1.06,0,0,1-1.46,0l-2.56-2.57a1,1,0,0,0-1.09-.21A1,1,0,0,0,20,14v8Z"/></g></svg>