<svg fill="currentColor" xmlns="http://www.w3.org/2000/svg" viewBox="0 0 32 32"><g id="glasses"><path d="M30,17.68l-3.6-10.8A2.74,2.74,0,0,0,21,7.74V8a1,1,0,0,0,2,0V7.74a.74.74,0,0,1,1.45-.23L27.61,17H18a1,1,0,0,0-1,1H15a1,1,0,0,0-1-1H4.39L7.55,7.51A.74.74,0,0,1,9,7.74V8a1,1,0,0,0,2,0V7.74a2.74,2.74,0,0,0-5.35-.86l-3.6,10.8a1,1,0,0,0,.14.9A1,1,0,0,0,3,19H4.13l.73,5.19A3.27,3.27,0,0,0,8.06,27h3.7A3.26,3.26,0,0,0,15,23.73V20h2v3.73A3.26,3.26,0,0,0,20.24,27h3.7a3.27,3.27,0,0,0,3.2-2.81L27.87,19H29a1,1,0,0,0,.81-.42A1,1,0,0,0,30,17.68ZM13,23.73A1.25,1.25,0,0,1,11.76,25H8.06a1.25,1.25,0,0,1-1.22-1.09L6.15,19H13Zm12.16.18A1.25,1.25,0,0,1,23.94,25h-3.7A1.25,1.25,0,0,1,19,23.73V19h6.85Z"/></g></svg>