<svg fill="currentColor" xmlns="http://www.w3.org/2000/svg" viewBox="0 0 32 32"><g id="hospital"><path d="M29,13H24V8.28A2.28,2.28,0,0,0,21.72,6H10.28A2.28,2.28,0,0,0,8,8.28V13H3a1,1,0,0,0-1,1V25a1,1,0,0,0,1,1H29a1,1,0,0,0,1-1V14A1,1,0,0,0,29,13ZM4,15H8v9H4Zm6-1V8.28A.27.27,0,0,1,10.28,8H21.72a.27.27,0,0,1,.28.28V24H20V21a4,4,0,0,0-8,0v3H10Zm4,10V21a2,2,0,0,1,4,0v3Zm14,0H24V15h4Z"/><path d="M14,13h1v1a1,1,0,0,0,2,0V13h1a1,1,0,0,0,0-2H17V10a1,1,0,0,0-2,0v1H14a1,1,0,0,0,0,2Z"/><path d="M6,16a1,1,0,0,0-1,1v1a1,1,0,0,0,2,0V17A1,1,0,0,0,6,16Z"/><path d="M26,19a1,1,0,0,0,1-1V17a1,1,0,0,0-2,0v1A1,1,0,0,0,26,19Z"/><path d="M26,23a1,1,0,0,0,1-1V21a1,1,0,0,0-2,0v1A1,1,0,0,0,26,23Z"/><path d="M6,20a1,1,0,0,0-1,1v1a1,1,0,0,0,2,0V21A1,1,0,0,0,6,20Z"/></g></svg>