<svg fill="currentColor" xmlns="http://www.w3.org/2000/svg" viewBox="0 0 32 32"><g id="injured"><path d="M22,16H17V4.28A2.28,2.28,0,0,0,14.72,2H5.28A2.28,2.28,0,0,0,3,4.28V27.72A2.28,2.28,0,0,0,5.28,30H22a7,7,0,0,0,0-14ZM24.91,19,21,26.76,19.07,22.9l2.77-4.36A1,1,0,0,0,22,18h0A5,5,0,0,1,24.91,19Zm-7.09,5.92L19.38,28H15.82Zm2-6.87L13.45,28H9l7.5-10ZM5,9H15v2.28L5,14.61Zm0,7.72,10-3.33v3.28l-3.16,4.2L5,18.31ZM5,4.28A.27.27,0,0,1,5.28,4h9.44a.27.27,0,0,1,.28.28V7H5ZM5,27.72V20.44l5.59,2.1L6.5,28H5.28A.27.27,0,0,1,5,27.72Zm17.65.21,3.69-7.37a4.94,4.94,0,0,1-3.69,7.37Z"/></g></svg>