<svg fill="currentColor" xmlns="http://www.w3.org/2000/svg" viewBox="0 0 32 32"><g id="knee"><path d="M26.71,10.29l-8-8a1,1,0,0,0-1.38,0L7.83,10.9A5.55,5.55,0,0,0,6,15V29a1,1,0,0,0,1,1H18a1,1,0,0,0,1-1V20.9a3.56,3.56,0,0,1,1.05-2.53l6.66-6.66A1,1,0,0,0,26.71,10.29ZM18.63,17A5.62,5.62,0,0,0,17,20.9V28H8V15a3.55,3.55,0,0,1,1.17-2.65l8.79-8L24.58,11Z"/><path d="M13.61,19.06a2.86,2.86,0,0,0-1.18.46,2.89,2.89,0,0,0-1.29-.45,2.27,2.27,0,0,0-1.75.52,2.49,2.49,0,0,0-.53,2.79A2.64,2.64,0,0,0,10,23.67V26a1,1,0,0,0,1,1h3a1,1,0,0,0,1-1V23.7a2.48,2.48,0,0,0,1.09-1.09,2.54,2.54,0,0,0-.58-3A2.47,2.47,0,0,0,13.61,19.06Zm.69,2.65a.65.65,0,0,1-.45.3A1,1,0,0,0,13,23v2H12V23a1,1,0,0,0-.79-1,.74.74,0,0,1-.5-.4.7.7,0,0,1,0-.53.46.46,0,0,1,.32,0,1.14,1.14,0,0,1,.65.42.93.93,0,0,0,.82.38,1,1,0,0,0,.79-.43.9.9,0,0,1,.6-.4.44.44,0,0,1,.34.07A.53.53,0,0,1,14.3,21.71Z"/><path d="M16.09,8.93A2.7,2.7,0,0,0,14.37,9a2.51,2.51,0,0,0-1.62,2.34A2.34,2.34,0,0,0,13.6,13a2.91,2.91,0,0,0,1.23.61,2.93,2.93,0,0,0,.5,1.16,2.49,2.49,0,0,0,1.7,1h.21a2.53,2.53,0,0,0,2.38-3.27l1.63-1.61a1,1,0,0,0,0-1.42l-2.1-2.14a1,1,0,0,0-1.42,0Zm3.05,1.21-1.43,1.4a1,1,0,0,0-.11,1.3.72.72,0,0,1,.11.54.53.53,0,0,1-.48.37.46.46,0,0,1-.29-.2.89.89,0,0,1-.14-.7,1,1,0,0,0-.24-.88,1,1,0,0,0-.74-.32h-.11a.9.9,0,0,1-1-.41.67.67,0,0,1,.38-.38.77.77,0,0,1,.64.09A1,1,0,0,0,17,10.83l1.43-1.4Z"/><path d="M9.87,18a16.81,16.81,0,0,0,2.13.14h.49c.55,0,1.1-.07,1.64-.14a1,1,0,0,0,.77-.56,1,1,0,0,0-.05-1c-.3-.48-.63-1-1-1.48a30.25,30.25,0,0,0-2.13-2.66,1,1,0,0,0-1.38-.1,4.48,4.48,0,0,0-1.49,2.41,4.55,4.55,0,0,0,.2,2.73A1,1,0,0,0,9.87,18Zm.94-2.88a2.62,2.62,0,0,1,.2-.56c.43.51.83,1,1.21,1.58a13.86,13.86,0,0,1-1.44-.05A2.3,2.3,0,0,1,10.81,15.11Z"/></g></svg>