<svg fill="currentColor" xmlns="http://www.w3.org/2000/svg" viewBox="0 0 32 32"><g id="orthopedic"><path d="M22,8.5V6a1,1,0,0,0-1.11-1,1,1,0,0,1-1-.51,1.18,1.18,0,0,1,0-1,1,1,0,0,0,0-1A1,1,0,0,0,19,2H12a1,1,0,0,0-1,1V8.5a5.47,5.47,0,0,0,2,4.25A3.42,3.42,0,0,0,14,15s0,0,0,.05v7a1,1,0,0,0-.71.29l-1.4,1.41a1.06,1.06,0,0,1-.73.3H7a1,1,0,0,0-1,1v1.54A3.46,3.46,0,0,0,9.46,30h9.25A2.3,2.3,0,0,0,21,27.71V23.93A1.94,1.94,0,0,0,19.07,22H19V15s0,0,0-.05a3.47,3.47,0,0,0,1-2.19A5.47,5.47,0,0,0,22,8.5ZM13,4h4.75a2.86,2.86,0,0,0,.38,1.5A3,3,0,0,0,20,6.91V8.5a3.49,3.49,0,0,1-.64,2,3.49,3.49,0,0,0-5.71,0,3.45,3.45,0,0,1-.65-2Zm4,14H16V16a4,4,0,0,0,.5.05A4,4,0,0,0,17,16Zm-.5-4A1.5,1.5,0,1,1,18,12.5,1.5,1.5,0,0,1,16.5,14ZM19,27.71a.29.29,0,0,1-.29.29H9.46A1.46,1.46,0,0,1,8,26.54V26h3.16a3,3,0,0,0,2.14-.89L14.42,24H18a.88.88,0,0,0,.28-.06H19ZM16,22V20h1v2Z"/></g></svg>