<svg fill="currentColor" xmlns="http://www.w3.org/2000/svg" viewBox="0 0 32 32"><g id="osteoporosis"><path d="M22.43,13A4,4,0,0,0,23,11a4,4,0,0,0-3-3.86V3a1,1,0,0,0-1-1H13a1,1,0,0,0-1,1V7.14A4,4,0,0,0,9,11a4,4,0,0,0,.57,2A2.79,2.79,0,0,0,7,15.79v.42A2.79,2.79,0,0,0,9.57,19,4,4,0,0,0,9,21a4,4,0,0,0,3,3.86V29a1,1,0,0,0,1,1h6a1,1,0,0,0,1-1V24.86A4,4,0,0,0,23,21a4,4,0,0,0-.57-2A2.79,2.79,0,0,0,25,16.21v-.42A2.79,2.79,0,0,0,22.43,13ZM13,9a1,1,0,0,0,1-1V4h4V8a1,1,0,0,0,1,1,2,2,0,1,1-1.89,2.67A1,1,0,0,0,16,11a1,1,0,0,0-1.11.64A2,2,0,1,1,13,9Zm6,14a1,1,0,0,0-1,1v4H14V24a1,1,0,0,0-1-1,2,2,0,1,1,1.89-2.67A1,1,0,0,0,16,21a1,1,0,0,0,1.11-.64A2,2,0,1,1,19,23Zm4-6.79a.79.79,0,0,1-.79.79H9.79A.79.79,0,0,1,9,16.21v-.42A.79.79,0,0,1,9.79,15H22.21a.79.79,0,0,1,.79.79Z"/></g></svg>