<svg fill="currentColor" xmlns="http://www.w3.org/2000/svg" viewBox="0 0 32 32"><g id="patient"><path d="M16,11a4.5,4.5,0,1,0-4.5-4.5A4.51,4.51,0,0,0,16,11Zm0-7a2.5,2.5,0,1,1-2.5,2.5A2.5,2.5,0,0,1,16,4Z"/><path d="M18.69,12H13.31A4.31,4.31,0,0,0,9,16.31V21.5A2.5,2.5,0,0,0,11.5,24,2.73,2.73,0,0,0,12,24V27.5a2.5,2.5,0,0,0,4,2,2.5,2.5,0,0,0,4-2V21a2.73,2.73,0,0,0,.5.05A2.5,2.5,0,0,0,23,18.5V16.31A4.31,4.31,0,0,0,18.69,12ZM21,18.5a.5.5,0,0,1-1,0V17a1,1,0,0,0-2,0V27.5a.5.5,0,0,1-1,0V22a1,1,0,0,0-2,0v5.5a.5.5,0,0,1-1,0V17a1,1,0,0,0-2,0v4.5a.5.5,0,0,1-1,0V16.31A2.32,2.32,0,0,1,13.31,14h5.38A2.32,2.32,0,0,1,21,16.31Z"/></g></svg>