<svg fill="currentColor" xmlns="http://www.w3.org/2000/svg" viewBox="0 0 32 32"><g id="prothesis_2" data-name="prothesis 2"><path d="M29,24H27V22a1,1,0,0,0-1-1H25a3.05,3.05,0,0,0-3,3v1H21V24a1,1,0,0,0-.88-1l-8-1S12,22,12,22L13,7.07a1,1,0,0,0-.27-.75A1,1,0,0,0,12,6H3a1,1,0,0,0-.73.32A1,1,0,0,0,2,7.07l1,15a1.52,1.52,0,0,0,.06.2A5.49,5.49,0,0,0,10.72,30,1.26,1.26,0,0,0,11,30h.11l9-1A1,1,0,0,0,21,28V27h1v1a1,1,0,0,0,1,1h4.16A2.84,2.84,0,0,0,30,26.16V25A1,1,0,0,0,29,24ZM10.93,8l-.84,12.65a5.49,5.49,0,0,0-5.18,0L4.07,8ZM7.5,29A3.5,3.5,0,1,1,11,25.5,3.5,3.5,0,0,1,7.5,29ZM19,27.1l-6.53.73A5.38,5.38,0,0,0,13,25.5a5.3,5.3,0,0,0-.19-1.39l6.19.77Zm9-.94a.85.85,0,0,1-.84.84H24V24a1,1,0,0,1,1-1v2a1,1,0,0,0,1,1h2Z"/></g></svg>