<svg fill="currentColor" xmlns="http://www.w3.org/2000/svg" viewBox="0 0 32 32"><g id="prothesis"><path d="M23.15,24a1.75,1.75,0,0,1-1.25-.52L21,22.63l1-9.53a1,1,0,0,0-.26-.77A1,1,0,0,0,21,12h-.78a2.94,2.94,0,0,0,.08-3.9A2.68,2.68,0,0,0,21,6.3,4.31,4.31,0,0,0,16.7,2H7A1,1,0,0,0,6,3V8A1,1,0,0,0,7,9h8.18A3,3,0,0,0,15,10a3,3,0,0,0,.78,2H15a1,1,0,0,0-.74.33,1,1,0,0,0-.26.77l1,9.67A7.87,7.87,0,0,0,14,24.71a8,8,0,0,0,0,4.57A1,1,0,0,0,15,30H25a1,1,0,0,0,1-1V26.85A2.86,2.86,0,0,0,23.15,24ZM8,4h8.7A2.3,2.3,0,0,1,19,6.3a.7.7,0,0,1-.7.7H8Zm11,6a1,1,0,1,1-1-1A1,1,0,0,1,19,10Zm-2.89,4h3.78l-.4,4h-3Zm.6,6h2.58l-.2,2H16.91ZM24,28H15.79A6,6,0,0,1,16,25.29,5.32,5.32,0,0,1,16.54,24h3.05l.89.9A3.81,3.81,0,0,0,23.15,26a.85.85,0,0,1,.85.85Z"/></g></svg>