<svg fill="currentColor" xmlns="http://www.w3.org/2000/svg" viewBox="0 0 32 32"><g id="ramp"><path d="M29.54,16.16a1,1,0,0,0-.95-.07l-8.26,3.72-3.55-4.43a1,1,0,0,0-1.23-.27L11.7,17a7.83,7.83,0,0,0-.79-.47l-1.68-5a3.5,3.5,0,1,0-4.34-.71L2.2,14.4a1,1,0,0,0,0,1.16L4.05,18.3A5.48,5.48,0,0,0,8.5,27l.4,0L9,27H29a1,1,0,0,0,1-1V17A1,1,0,0,0,29.54,16.16ZM14,21.62l.81-.4.74.74-1.68.76A5,5,0,0,0,14,21.62Zm1.73-4.36,2.6,3.24-1.05.36-1.56-1.57a1,1,0,0,0-1.16-.18l-.91.45a5,5,0,0,0-.51-1ZM7.5,7A1.5,1.5,0,1,1,6,8.5,1.5,1.5,0,0,1,7.5,7Zm-.9,4.87a3.75,3.75,0,0,0,.67.11l1.34,4H8.5l-.37,0-.24-.47a1,1,0,1,0-1.78.9l1.48,3a.17.17,0,0,1-.06.2c-.07,0-.16,0-.24-.13L4.23,15ZM5,21.5a3.55,3.55,0,0,1,.29-1.38l.3.43a2.16,2.16,0,0,0,1.87,1.08,2.21,2.21,0,0,0,1-.22A2.16,2.16,0,0,0,9.5,20.17a2.12,2.12,0,0,0-.12-1.64l-.23-.46A3.5,3.5,0,1,1,5,21.5ZM28,25H13.66L28,18.55Z"/></g></svg>