<svg fill="currentColor" xmlns="http://www.w3.org/2000/svg" viewBox="0 0 32 32"><g id="sling"><path d="M24.26,6H20V3a1,1,0,0,0-1-1H13a1,1,0,0,0-1,1V6H7.74A4.75,4.75,0,0,0,3,10.74V29a1,1,0,0,0,1,1H28a1,1,0,0,0,1-1V10.74A4.75,4.75,0,0,0,24.26,6ZM14,4h4V6.64l-2.25,2.7h0A11.6,11.6,0,0,1,14,6.77ZM7.74,8H12.4a14.13,14.13,0,0,0,1.85,2.67,1.1,1.1,0,0,0,.25.17L9,17.44V16a1,1,0,0,0-2,0v3.84l-2,2.4V10.74A2.74,2.74,0,0,1,7.74,8ZM5,25.36,19.47,8h2L15.22,23.37a1.1,1.1,0,0,0-.15.26L13.32,28H5ZM15.49,28l1.23-3H18.5a1.5,1.5,0,0,1,0,3ZM27,28H25V16a1,1,0,0,0-2,0V28H21.65A3.45,3.45,0,0,0,22,26.5,3.5,3.5,0,0,0,18.5,23h-1L23.67,8h.59A2.74,2.74,0,0,1,27,10.74Z"/></g></svg>