<svg fill="currentColor" xmlns="http://www.w3.org/2000/svg" viewBox="0 0 32 32"><g id="swing"><path d="M28.11,10A4.23,4.23,0,0,0,26.8,7.36,15.9,15.9,0,0,0,16,3,15.9,15.9,0,0,0,5.2,7.36,4.23,4.23,0,0,0,3.89,10L2,27.9a1,1,0,1,0,2,.2L5.88,10.21a2.25,2.25,0,0,1,.68-1.39A14.18,14.18,0,0,1,15,5.06V8H13a1,1,0,0,0-1,.76L10.22,16H9a1,1,0,0,0,0,2h1v7a1,1,0,0,0,1,1H21a1,1,0,0,0,1-1V18h1a1,1,0,0,0,0-2H21.78L20,8.76A1,1,0,0,0,19,8H17V5.06a14.18,14.18,0,0,1,8.44,3.76,2.25,2.25,0,0,1,.68,1.39L28,28.1a1,1,0,0,0,1,.9h.1A1,1,0,0,0,30,27.9ZM20,24H12V22h8Zm0-4H12V18h8Zm-.28-4H12.28l1.5-6h4.44Z"/></g></svg>