<svg fill="currentColor" xmlns="http://www.w3.org/2000/svg" viewBox="0 0 32 32"><g id="walking_sticks" data-name="walking sticks"><path d="M22,28v-.42A3.59,3.59,0,0,0,18.42,24H17V16.42A4.78,4.78,0,0,1,18.42,13l2.74-2.75A3.66,3.66,0,0,0,18.58,4H17A2.5,2.5,0,0,0,14.5,2h-4a2.5,2.5,0,0,0,0,5h4a2.51,2.51,0,0,0,2-1h2.09a1.66,1.66,0,0,1,1.17,2.84L17,11.58a6.8,6.8,0,0,0-2,4.84V24H13.58A3.59,3.59,0,0,0,10,27.58V28a1,1,0,0,0,0,2h2a1,1,0,0,0,0-2v-.42A1.58,1.58,0,0,1,13.58,26h4.84A1.58,1.58,0,0,1,20,27.58V28a1,1,0,0,0,0,2h2a1,1,0,0,0,0-2ZM14.5,5h-4a.5.5,0,0,1,0-1h4a.5.5,0,0,1,0,1Z"/></g></svg>