<svg fill="currentColor" xmlns="http://www.w3.org/2000/svg" viewBox="0 0 32 32"><g id="walker"><path d="M27,17.82A1,1,0,0,0,26,17H22a2.73,2.73,0,0,0,.05-.5A2.5,2.5,0,0,0,19.5,14H17V9.44A3.91,3.91,0,0,0,19,10a4,4,0,1,0-4-4,4.09,4.09,0,0,0,.14,1h-.25A6.9,6.9,0,0,0,8,13.89v2.37a4.1,4.1,0,0,0,.44,1.85l.37.74L4.08,24.37a2.69,2.69,0,0,0-.2,3.25A2.64,2.64,0,0,0,6,28.82h.12a2.67,2.67,0,0,0,2.1-1l.77-1v.65a2.5,2.5,0,0,0,5,0V18.87a2.65,2.65,0,0,0,.85.13h4L17,28.82a1,1,0,0,0,.8,1.16,1,1,0,0,0,1.16-.8L19.74,25h6.52L27,29.18A1,1,0,0,0,28,30a.55.55,0,0,0,.18,0,1,1,0,0,0,.8-1.16ZM19,4a2,2,0,1,1-2,2A2,2,0,0,1,19,4ZM6.67,26.56a.68.68,0,0,1-.58.26.67.67,0,0,1-.54-.31.68.68,0,0,1,0-.84l3.4-4v1.95ZM14,16.15V15a1,1,0,0,0-2,0V27.5a.5.5,0,0,1-1,0V19.42a2.3,2.3,0,0,0,0-.26,1,1,0,0,0-.17-.73,2.5,2.5,0,0,0-.09-.25l-.48-1a2.15,2.15,0,0,1-.23-1V13.89A4.89,4.89,0,0,1,14.89,9H15v6a1,1,0,0,0,1,1h3.5a.5.5,0,0,1,0,1H14.85A.85.85,0,0,1,14,16.15ZM20.11,23l.72-4h4.34l.72,4Z"/></g></svg>