<svg fill="currentColor" xmlns="http://www.w3.org/2000/svg" viewBox="0 0 32 32"><g id="wheelchair_2" data-name="wheelchair 2"><path d="M27,17.72,29.32,17A1,1,0,0,0,30,16V11a1,1,0,0,0-1-1H27V8.85A3.86,3.86,0,0,0,23.15,5H21a1,1,0,0,0,0,2h2.15A1.85,1.85,0,0,1,25,8.85V19.08a7,7,0,0,0-4.77,3A1,1,0,0,0,20,22H15V21a3,3,0,0,0-2-2.81V16a3,3,0,0,0,0-6H10V8h4a1,1,0,0,0,0-2H10V5A3,3,0,0,0,4,5v8a3,3,0,0,0,3,3H7v2.18A3,3,0,0,0,5,21v1.06A3.49,3.49,0,1,0,8.65,27h14.7A3.49,3.49,0,1,0,27,22.05ZM28,12v3.28l-1,.33V12Zm-3,9.1v1.25A3.52,3.52,0,0,0,23.05,25H21.1A5,5,0,0,1,25,21.1ZM19.08,25H9a3.41,3.41,0,0,0-.3-1H19.29A8.05,8.05,0,0,0,19.08,25ZM6,13V5A1,1,0,0,1,8,5v6a1,1,0,0,0,1,1h4a1,1,0,0,1,0,2H7A1,1,0,0,1,6,13Zm5,3v2H9V16ZM7,21a1,1,0,0,1,1-1h4a1,1,0,0,1,1,1v1H7ZM5.5,27A1.5,1.5,0,1,1,7,25.5,1.5,1.5,0,0,1,5.5,27ZM28,25.5A1.5,1.5,0,1,1,26.5,24,1.5,1.5,0,0,1,28,25.5Z"/></g></svg>