<svg fill="currentColor" xmlns="http://www.w3.org/2000/svg" viewBox="0 0 32 32"><g id="wheelchair"><path d="M29,20H27.41L25,17.59V14.81A3.82,3.82,0,0,0,21.19,11H12V5.35A3.34,3.34,0,0,0,9.41,2.1.92.92,0,0,0,9,2H4A1,1,0,0,0,4,4H7V15.44A7.5,7.5,0,1,0,17,22.5a4.19,4.19,0,0,0,0-.5h6v.14a4,4,0,1,0,2,0V20.41l1.29,1.3A1,1,0,0,0,27,22h2a1,1,0,0,0,0-2Zm-7.81-7A1.81,1.81,0,0,1,23,14.81V15H12V13ZM9,15V4.05a1.34,1.34,0,0,1,1,1.3V15Zm.5,13A5.5,5.5,0,1,1,15,22.5,5.51,5.51,0,0,1,9.5,28Zm7.06-8a7.44,7.44,0,0,0-2-3H23v3ZM26,26a2,2,0,1,1-2-2A2,2,0,0,1,26,26Z"/><path d="M9.5,19A3.5,3.5,0,1,0,13,22.5,3.5,3.5,0,0,0,9.5,19Zm0,5A1.5,1.5,0,1,1,11,22.5,1.5,1.5,0,0,1,9.5,24Z"/></g></svg>