<svg fill="currentColor" xmlns="http://www.w3.org/2000/svg" viewBox="0 0 32 32"><g id="worker"><path d="M29,2H12a1,1,0,0,0-1,1V6.14a4,4,0,0,0-1.92,6.57A3,3,0,0,0,8,15v3a6.64,6.64,0,0,0-1,.09v-6A3.08,3.08,0,0,0,3.92,9H3a1,1,0,0,0,0,2h.92A1.08,1.08,0,0,1,5,12.08v6.73a6,6,0,1,0,8.75,6.89l.86.58A.85.85,0,0,1,15,27a3,3,0,0,0,6,0,7,7,0,0,0-2.55-5.39A3,3,0,0,0,19.82,20H29a1,1,0,0,0,1-1V3A1,1,0,0,0,29,2ZM12,8a2,2,0,1,1-2,2A2,2,0,0,1,12,8Zm-2,7a1,1,0,0,1,2,0v2a1,1,0,0,0,1,1h4a1,1,0,0,1,0,2H12.46A6,6,0,0,0,10,18.35ZM8,28a4,4,0,1,1,4-4A4,4,0,0,1,8,28Zm11-1a1,1,0,0,1-2,0,2.88,2.88,0,0,0-1.28-2.39L14,23.45A5.77,5.77,0,0,0,13.65,22h2L17,23A5,5,0,0,1,19,27Zm9-9H19.82l-.12-.29a1,1,0,0,0,.13-.16l4-6a1,1,0,1,0-1.66-1.1l-3.9,5.84A3,3,0,0,0,17,16H14V15a2.87,2.87,0,0,0-.35-1.37A4,4,0,0,0,13,6.14V4H28Z"/></g></svg>