<?xml version="1.0" encoding="UTF-8"?><svg fill="currentColor" xmlns="http://www.w3.org/2000/svg" viewBox="0 0 24 24"><g id="o"><g><path d="M19,3.25H5c-1.52,0-2.75,1.23-2.75,2.75v1.25H21.75v-1.25c0-1.52-1.23-2.75-2.75-2.75Zm-.98,3.5c-.41,0-.75-.34-.75-.75s.33-.75,.74-.75h.01c.41,0,.75,.34,.75,.75s-.34,.75-.75,.75Z"/><path d="M2.25,18c0,1.52,1.23,2.75,2.75,2.75h14c1.52,0,2.75-1.23,2.75-2.75V8.75H2.25v9.25Zm4.75-6.75h10c.41,0,.75,.34,.75,.75s-.34,.75-.75,.75H7c-.41,0-.75-.34-.75-.75s.34-.75,.75-.75Zm0,4h5c.41,0,.75,.34,.75,.75s-.34,.75-.75,.75H7c-.41,0-.75-.34-.75-.75s.34-.75,.75-.75Z"/></g></g></svg>