<?xml version="1.0" encoding="UTF-8"?><svg fill="currentColor" xmlns="http://www.w3.org/2000/svg" viewBox="0 0 24 24"><g id="d"><g><path d="M18.75,19c0-.09,.02-.89,.7-1.4,.26-.19,.36-.53,.26-.84-.1-.31-.39-.51-.71-.51H6c-1.52,0-2.75,1.23-2.75,2.75s1.23,2.75,2.75,2.75h13c.32,0,.61-.21,.71-.51s0-.64-.26-.84c-.07-.05-.7-.55-.7-1.4Z"/><path d="M19,14.75c.26,0,.51,.05,.75,.13V4c0-.96-.79-1.75-1.75-1.75H6c-1.52,0-2.75,1.23-2.75,2.75V15.79c.74-.64,1.7-1.04,2.75-1.04h13ZM9,7.25h5c.41,0,.75,.34,.75,.75s-.34,.75-.75,.75h-5c-.41,0-.75-.34-.75-.75s.34-.75,.75-.75Z"/></g></g></svg>