<?xml version="1.0" encoding="UTF-8"?><svg fill="currentColor" xmlns="http://www.w3.org/2000/svg" viewBox="0 0 24 24"><g id="i"><g><path d="M16.25,15.6l-.09,.26c-.38,1.13-1.42,1.88-2.61,1.88h-3.12c-1.19,0-2.23-.76-2.61-1.88l-.09-.27c-.17-.51-.65-.85-1.19-.85H2.25v2.25c0,2.62,2.13,4.75,4.75,4.75h10c2.62,0,4.75-2.13,4.75-4.75v-2.25h-4.31c-.54,0-1.02,.34-1.19,.85Z"/><path d="M17,2.25H7c-2.62,0-4.75,2.13-4.75,4.75v6.25H6.56c1.19,0,2.23,.76,2.61,1.88l.09,.27c.17,.51,.65,.85,1.19,.85h3.12c.54,0,1.02-.34,1.19-.85l.09-.26c.38-1.13,1.42-1.88,2.61-1.88h4.31V7c0-2.62-2.13-4.75-4.75-4.75Z"/></g></g></svg>