<?xml version="1.0" encoding="UTF-8"?><svg fill="currentColor" xmlns="http://www.w3.org/2000/svg" viewBox="0 0 24 24"><g id="s"><g><path d="M12.71,9.69c.28,.12,.6,.05,.82-.16l1.47-1.47,1.47,1.47c.14,.14,.33,.22,.53,.22,.1,0,.19-.02,.29-.06,.28-.12,.46-.39,.46-.69V1c0-.41-.34-.75-.75-.75h-4c-.41,0-.75,.34-.75,.75V9c0,.3,.18,.58,.46,.69Z"/><path d="M19.25,2.56v6.44c0,.91-.54,1.73-1.39,2.08-.27,.11-.56,.17-.86,.17-.6,0-1.17-.23-1.59-.66l-.41-.41-.41,.41c-.43,.43-.99,.66-1.59,.66-.3,0-.59-.06-.86-.17-.84-.35-1.39-1.17-1.39-2.08V2.25h-3.75c-1.52,0-2.75,1.23-2.75,2.75v14c0,1.52,1.23,2.75,2.75,2.75h11c1.52,0,2.75-1.23,2.75-2.75V5c0-1.06-.61-1.98-1.5-2.44Z"/></g></g></svg>