<?xml version="1.0" encoding="UTF-8"?><svg fill="currentColor" xmlns="http://www.w3.org/2000/svg" viewBox="0 0 24 24"><g id="u"><path d="M19,4.25H5c-1.52,0-2.75,1.23-2.75,2.75V15c0,1.52,1.23,2.75,2.75,2.75h6.65c.06,0,.11,.02,.16,.05l4.73,3.78c.14,.11,.3,.16,.47,.16,.11,0,.22-.02,.32-.07,.26-.12,.43-.39,.43-.68v-3c0-.14,.11-.25,.25-.25h1c1.52,0,2.75-1.23,2.75-2.75V7c0-1.52-1.23-2.75-2.75-2.75Zm-6,9.5H7c-.41,0-.75-.34-.75-.75s.34-.75,.75-.75h6c.41,0,.75,.34,.75,.75s-.34,.75-.75,.75Zm4-4H7c-.41,0-.75-.34-.75-.75s.34-.75,.75-.75h10c.41,0,.75,.34,.75,.75s-.34,.75-.75,.75Z"/></g></svg>