<?xml version="1.0" encoding="UTF-8"?><svg fill="currentColor" xmlns="http://www.w3.org/2000/svg" viewBox="0 0 24 24"><g id="r"><g><path d="M19.5,10.25h-2c-1.24,0-2.25,1.01-2.25,2.25s1.01,2.25,2.25,2.25h2c.69,0,1.25-.56,1.25-1.25v-2c0-.69-.56-1.25-1.25-1.25Z"/><path d="M17.5,16.25c-2.07,0-3.75-1.68-3.75-3.75s1.68-3.75,3.75-3.75h2c.09,0,.17,.02,.25,.03v-3.78c0-1.52-1.23-2.75-2.75-2.75H7c-1.52,0-2.75,1.23-2.75,2.75v14c0,1.52,1.23,2.75,2.75,2.75h10c1.52,0,2.75-1.23,2.75-2.75v-2.78c-.08,0-.16,.03-.25,.03h-2ZM9.25,8c0-.41,.34-.75,.75-.75h4c.41,0,.75,.34,.75,.75s-.34,.75-.75,.75h-4c-.41,0-.75-.34-.75-.75Z"/></g></g></svg>