<?xml version="1.0" encoding="UTF-8"?><svg fill="currentColor" xmlns="http://www.w3.org/2000/svg" viewBox="0 0 24 24"><g id="j"><g><path d="M17,2.25H7c-1.52,0-2.75,1.23-2.75,2.75v14c0,1.52,1.23,2.75,2.75,2.75h6.25v-4.75c0-.96,.79-1.75,1.75-1.75h4.75V5c0-1.52-1.23-2.75-2.75-2.75Zm-5,11.5h-3c-.41,0-.75-.34-.75-.75s.34-.75,.75-.75h3c.41,0,.75,.34,.75,.75s-.34,.75-.75,.75Zm3-4h-6c-.41,0-.75-.34-.75-.75s.34-.75,.75-.75h6c.41,0,.75,.34,.75,.75s-.34,.75-.75,.75Z"/><path d="M14.75,17v4.69c.51-.11,.99-.36,1.37-.74l2.83-2.83c.38-.38,.63-.85,.74-1.37h-4.69c-.14,0-.25,.11-.25,.25Z"/></g></g></svg>