<?xml version="1.0" encoding="UTF-8"?><svg fill="currentColor" xmlns="http://www.w3.org/2000/svg" viewBox="0 0 24 24"><g id="g"><g><path d="M14.13,9.75h-4.26c-.13,0-.19,.08-.22,.13-.03,.05-.06,.15,.01,.26l2.13,3.2c.13,.19,.29,.19,.42,0l2.13-3.2c.07-.11,.04-.21,.01-.26-.03-.05-.09-.13-.22-.13Z"/><path d="M18.94,5.88l-2.83-2.83c-.52-.52-1.21-.81-1.94-.81h-6.17c-2.07,0-3.75,1.68-3.75,3.75v12c0,2.07,1.68,3.75,3.75,3.75h8c2.07,0,3.75-1.68,3.75-3.75V7.83c0-.73-.29-1.42-.81-1.94Zm-3.36,5.09l-2.13,3.2c-.33,.49-.87,.78-1.46,.78s-1.13-.29-1.46-.78l-2.13-3.2c-.36-.54-.39-1.23-.09-1.8,.3-.57,.9-.92,1.54-.92h4.26c.65,0,1.24,.35,1.54,.92,.31,.57,.27,1.26-.09,1.8Z"/></g></g></svg>