<?xml version="1.0" encoding="UTF-8"?><svg fill="currentColor" xmlns="http://www.w3.org/2000/svg" viewBox="0 0 24 24"><g id="k"><g><path d="M11.31,10.64c.42,.28,.96,.28,1.39,0l7.17-4.78,.38-.29c-.37-.19-.79-.31-1.24-.31H5c-.44,0-.85,.11-1.21,.3l.63,.5,6.89,4.59Z"/><path d="M21.35,6.59l-.61,.47-5.17,3.45,2.95,2.95c.29,.29,.29,.77,0,1.06-.15,.15-.34,.22-.53,.22s-.38-.07-.53-.22l-3-3c-.06-.06-.09-.12-.13-.19l-.82,.55c-.46,.31-.99,.46-1.53,.46s-1.06-.15-1.52-.46l-.82-.55c-.03,.07-.07,.13-.13,.19l-3,3c-.15,.15-.34,.22-.53,.22s-.38-.07-.53-.22c-.29-.29-.29-.77,0-1.06l2.95-2.95L3.53,7.26l-.87-.69c-.26,.42-.41,.91-.41,1.43v7c0,1.52,1.23,2.75,2.75,2.75h14c1.52,0,2.75-1.23,2.75-2.75v-7c0-.52-.15-.99-.4-1.41Z"/></g></g></svg>