<?xml version="1.0" encoding="UTF-8"?><svg fill="currentColor" xmlns="http://www.w3.org/2000/svg" viewBox="0 0 24 24"><g id="l"><g><path d="M20,13.25h-2.5c-1.24,0-2.25,1.01-2.25,2.25,0,.41-.34,.75-.75,.75h-5c-.41,0-.75-.34-.75-.75,0-1.24-1.01-2.25-2.25-2.25h-2.5c-.96,0-1.75,.79-1.75,1.75v4c0,1.52,1.23,2.75,2.75,2.75h14c1.52,0,2.75-1.23,2.75-2.75v-4c0-.96-.79-1.75-1.75-1.75Z"/><path d="M10.17,14.75h3.65c.35-1.71,1.86-3,3.67-3h2.25V4c0-.96-.79-1.75-1.75-1.75H6c-.96,0-1.75,.79-1.75,1.75v7.75h2.25c1.81,0,3.33,1.29,3.67,3Zm-1.17-9.5h6c.41,0,.75,.34,.75,.75s-.34,.75-.75,.75h-6c-.41,0-.75-.34-.75-.75s.34-.75,.75-.75Zm0,4h3c.41,0,.75,.34,.75,.75s-.34,.75-.75,.75h-3c-.41,0-.75-.34-.75-.75s.34-.75,.75-.75Z"/></g></g></svg>