<?xml version="1.0" encoding="UTF-8"?><svg fill="currentColor" xmlns="http://www.w3.org/2000/svg" viewBox="0 0 24 24"><g id="q"><g><path d="M21.79,12.12c-.32-.55-.88-.87-1.51-.87H8.16c-.98,0-1.9,.53-2.39,1.39l-3.42,5.99c-.13,.23-.13,.52,0,.75,.13,.23,.38,.37,.65,.37h14.42c.63,0,1.21-.34,1.52-.88l2.86-5c.31-.55,.31-1.2,0-1.75Z"/><path d="M8.16,9.75h11.56c-.13-1.4-1.29-2.5-2.72-2.5h-5.59c-.07,0-.13-.03-.18-.07l-1.12-1.12c-.52-.52-1.21-.81-1.94-.81h-3.17c-1.52,0-2.75,1.23-2.75,2.75v7.78l2.22-3.89c.76-1.32,2.17-2.14,3.69-2.14Z"/></g></g></svg>