<?xml version="1.0" encoding="UTF-8"?><svg fill="currentColor" xmlns="http://www.w3.org/2000/svg" viewBox="0 0 24 24"><g id="n"><g><path d="M15.64,13.79c-.67,0-1.34-.08-2.01-.23l-2.04,2.04c-.42,.43-.99,.66-1.59,.66s-1.17-.23-1.59-.66c-.43-.42-.66-.99-.66-1.59s.23-1.17,.66-1.59l2.04-2.04c-.31-1.37-.45-3.37,.53-5.36,.13-.26,.29-.51,.45-.75H6c-2.07,0-3.75,1.68-3.75,3.75v10c0,2.07,1.68,3.75,3.75,3.75h10c2.07,0,3.75-1.68,3.75-3.75v-5.42c-.24,.16-.49,.31-.75,.43-1.03,.51-2.16,.77-3.36,.77Zm-.64,4.96H7c-.41,0-.75-.34-.75-.75s.34-.75,.75-.75H15c.41,0,.75,.34,.75,.75s-.34,.75-.75,.75Z"/><path d="M21.72,2.81c-.07-.26-.27-.46-.53-.53-3.68-.97-7.41,.45-8.86,3.39-.99,2-.57,4.03-.2,5.14l3.34-3.34c.29-.29,.77-.29,1.06,0s.29,.77,0,1.06l-3.34,3.34c.6,.2,1.46,.42,2.45,.42,.84,0,1.77-.16,2.7-.61,2.94-1.45,4.37-5.18,3.39-8.86Z"/><path d="M9.47,13.47c-.29,.29-.29,.77,0,1.06,.15,.15,.34,.22,.53,.22s.38-.07,.53-.22l2.66-2.66-1.06-1.06-2.66,2.66Z"/></g></g></svg>