<?xml version="1.0" encoding="UTF-8"?><svg fill="currentColor" xmlns="http://www.w3.org/2000/svg" viewBox="0 0 24 24"><g id="c"><g><path d="M7.25,7V2.31c-.51,.11-.99,.36-1.37,.74l-2.83,2.83c-.38,.38-.63,.85-.74,1.37H7c.14,0,.25-.11,.25-.25Z"/><path d="M12.34,17.71c-2.05-2.05-2.05-5.38,0-7.42,.99-.99,2.31-1.54,3.71-1.54,.59,0,1.16,.12,1.7,.3V5c0-1.52-1.23-2.75-2.75-2.75h-6.25V7c0,.96-.79,1.75-1.75,1.75H2.25v10.25c0,1.52,1.23,2.75,2.75,2.75H15c1.52,0,2.75-1.23,2.75-2.75v-.04c-.54,.19-1.12,.29-1.7,.29-1.4,0-2.72-.55-3.71-1.54Zm-1.34-10.46h3c.41,0,.75,.34,.75,.75s-.34,.75-.75,.75h-3c-.41,0-.75-.34-.75-.75s.34-.75,.75-.75Zm-1,9.5h-3c-.41,0-.75-.34-.75-.75s.34-.75,.75-.75h3c.41,0,.75,.34,.75,.75s-.34,.75-.75,.75Zm0-4h-3c-.41,0-.75-.34-.75-.75s.34-.75,.75-.75h3c.41,0,.75,.34,.75,.75s-.34,.75-.75,.75Z"/><path d="M21.53,18.42l-2.35-2.35c.96-1.46,.8-3.44-.48-4.72-1.46-1.46-3.84-1.46-5.3,0-1.46,1.46-1.46,3.84,0,5.3,.73,.73,1.69,1.1,2.65,1.1,.72,0,1.44-.21,2.07-.62l2.35,2.35c.15,.15,.34,.22,.53,.22s.38-.07,.53-.22c.29-.29,.29-.77,0-1.06Z"/></g></g></svg>