<?xml version="1.0" encoding="UTF-8"?><svg fill="currentColor" xmlns="http://www.w3.org/2000/svg" viewBox="0 0 24 24"><g id="p"><g><path d="M19,4.25H6c-2.07,0-3.75,1.68-3.75,3.75v8c0,2.07,1.68,3.75,3.75,3.75h13c.41,0,.75-.34,.75-.75s-.34-.75-.75-.75c-.09,0-.54-.02-.89-.37-.34-.34-.36-.76-.36-.88V7c0-.69,.56-1.25,1.25-1.25s1.25,.56,1.25,1.25v3c0,.41,.34,.75,.75,.75s.75-.34,.75-.75v-3c0-1.52-1.23-2.75-2.75-2.75ZM10,15.75H6c-.41,0-.75-.34-.75-.75s.34-.75,.75-.75h4c.41,0,.75,.34,.75,.75s-.34,.75-.75,.75Zm4.75-4.25c0,.69-.56,1.25-1.25,1.25H6.5c-.69,0-1.25-.56-1.25-1.25v-2c0-.69,.56-1.25,1.25-1.25h7c.69,0,1.25,.56,1.25,1.25v2Z"/><rect x="6.75" y="9.75" width="6.5" height="1.5"/><path d="M20,13.25h-.75v3.51c1,.11,1.79,.88,1.96,1.85,.33-.45,.54-1.01,.54-1.62v-2c0-.96-.79-1.75-1.75-1.75Z"/></g></g></svg>