<?xml version="1.0" encoding="UTF-8"?><svg fill="currentColor" xmlns="http://www.w3.org/2000/svg" viewBox="0 0 24 24"><g id="e"><g><path d="M2.56,5.55c-.2,.14-.31,.37-.31,.61v11c0,.24,.12,.47,.32,.61,.2,.14,.45,.17,.69,.09,1.05-.38,3.17-.89,5.48,0,.94,.36,1.78,.91,2.52,1.62V6.06c-.72-.66-1.73-1.32-3.08-1.64-2.84-.66-5.01,.69-5.61,1.12Z"/><path d="M21.44,5.55c-.6-.43-2.77-1.78-5.61-1.12-1.35,.31-2.36,.97-3.08,1.64v13.42c.74-.71,1.58-1.26,2.52-1.62,2.31-.88,4.42-.38,5.48,0,.23,.08,.49,.05,.69-.09s.32-.37,.32-.61V6.16c0-.24-.12-.47-.31-.61Z"/></g></g></svg>