<?xml version="1.0" encoding="UTF-8"?><svg fill="currentColor" xmlns="http://www.w3.org/2000/svg" viewBox="0 0 24 24"><g id="f"><g><path d="M19.5,9.75c.09,0,.17,.02,.25,.03V5c0-1.52-1.23-2.75-2.75-2.75h-7.33c-.59,0-1.18,.2-1.65,.55l-2.67,2c-.69,.52-1.1,1.34-1.1,2.2v2.78c.08,0,.16-.03,.25-.03h15Zm-10.5-2.5h6c.41,0,.75,.34,.75,.75s-.34,.75-.75,.75h-6c-.41,0-.75-.34-.75-.75s.34-.75,.75-.75Z"/><path d="M19.5,11.25H4.5c-.69,0-1.25,.56-1.25,1.25v6.5c0,1.52,1.23,2.75,2.75,2.75h12c1.52,0,2.75-1.23,2.75-2.75v-6.5c0-.69-.56-1.25-1.25-1.25Zm-5.5,5.5h-4c-.41,0-.75-.34-.75-.75s.34-.75,.75-.75h4c.41,0,.75,.34,.75,.75s-.34,.75-.75,.75Z"/></g></g></svg>