<?xml version="1.0" encoding="UTF-8"?><svg fill="currentColor" xmlns="http://www.w3.org/2000/svg" viewBox="0 0 24 24"><g id="t"><g><path d="M9.5,6.75h5c.69,0,1.25-.56,1.25-1.25v-.5c0-1.52-1.23-2.75-2.75-2.75h-2c-1.52,0-2.75,1.23-2.75,2.75v.5c0,.69,.56,1.25,1.25,1.25Z"/><path d="M17.18,4.27c.04,.24,.07,.48,.07,.73v.5c0,1.52-1.23,2.75-2.75,2.75h-5c-1.52,0-2.75-1.23-2.75-2.75v-.5c0-.25,.03-.49,.07-.73-1.43,.09-2.57,1.28-2.57,2.73v12c0,1.52,1.23,2.75,2.75,2.75h10c1.52,0,2.75-1.23,2.75-2.75V7c0-1.46-1.14-2.64-2.57-2.73Z"/></g></g></svg>