<?xml version="1.0" encoding="UTF-8"?><svg fill="currentColor" xmlns="http://www.w3.org/2000/svg" viewBox="0 0 24 24"><g id="b"><g><path d="M20.5,15.25H11.71c-.39,0-.76,.18-1,.49-.24,.31-.31,.7-.21,1.08,.13,.48,.21,1.18-.15,1.8-.17,.3-.42,.54-.74,.73-.29,.17-.43,.52-.34,.84,.09,.33,.39,.55,.72,.55h9c1.52,0,2.75-1.23,2.75-2.75v-1.5c0-.69-.56-1.25-1.25-1.25Z"/><path d="M9.53,14.83c.52-.68,1.32-1.08,2.19-1.08h8.04V6c0-1.52-1.23-2.75-2.75-2.75H5c-1.52,0-2.75,1.23-2.75,2.75v4c0,.41,.34,.75,.75,.75s.75-.34,.75-.75V6c0-.69,.56-1.25,1.25-1.25s1.25,.56,1.25,1.25v12c0,1.09,.64,2.02,1.56,2.47-.2-.93,.21-1.9,1.04-2.4,.1-.06,.17-.12,.21-.2,.11-.19,.04-.52,0-.65-.23-.84-.06-1.71,.47-2.39Z"/></g></g></svg>