<?xml version="1.0" encoding="UTF-8"?><svg fill="currentColor" xmlns="http://www.w3.org/2000/svg" viewBox="0 0 24 24"><g id="m"><g><path d="M18,3.25H6c-2.07,0-3.75,1.68-3.75,3.75v.25H21.75v-.25c0-2.07-1.68-3.75-3.75-3.75Zm-.98,3.5c-.41,0-.75-.34-.75-.75s.33-.75,.75-.75h0c.42,0,.75,.34,.75,.75s-.33,.75-.75,.75Z"/><path d="M2.25,17c0,2.07,1.68,3.75,3.75,3.75h12c2.07,0,3.75-1.68,3.75-3.75V8.75H2.25v8.25Zm4.46-1.76l2-2.52c.74-.75,1.85-.75,2.53-.06l.22,.27,1.21-1.17c.35-.35,.85-.54,1.35-.5,.51,.04,.97,.29,1.27,.7l2.09,3.31c.22,.35,.12,.81-.24,1.03-.12,.08-.26,.12-.4,.12-.25,0-.49-.12-.64-.35l-2.05-3.26s-.1-.05-.15-.05c-.04,0-.12,0-.2,.07l-1.31,1.26,1.18,1.44c.26,.32,.21,.79-.11,1.06-.14,.11-.31,.17-.47,.17-.22,0-.43-.09-.58-.28l-2.29-2.82s-.21-.04-.3,.06l-1.94,2.46c-.26,.32-.73,.38-1.05,.12s-.38-.73-.12-1.05Z"/></g></g></svg>