<?xml version="1.0" encoding="UTF-8"?><svg fill="currentColor" xmlns="http://www.w3.org/2000/svg" viewBox="0 0 24 24"><g id="m"><g><path d="M19,3.25H5c-1.52,0-2.75,1.23-2.75,2.75v5c0,1.52,1.23,2.75,2.75,2.75h14c1.52,0,2.75-1.23,2.75-2.75V6c0-1.52-1.23-2.75-2.75-2.75ZM7.75,12.25v-1.25c0-.14,.11-.25,.25-.25h8c.14,0,.25,.11,.25,.25v1.25H7.75Zm12.5-1.25c0,.69-.56,1.25-1.25,1.25h-1.25v-1.25c0-.96-.79-1.75-1.75-1.75H8c-.96,0-1.75,.79-1.75,1.75v1.25h-1.25c-.69,0-1.25-.56-1.25-1.25V6c0-.69,.56-1.25,1.25-1.25h14c.69,0,1.25,.56,1.25,1.25v5Z"/><path d="M18.02,6.25h0c-.41,0-.75,.34-.75,.75s.34,.75,.75,.75,.75-.34,.75-.75-.33-.75-.75-.75Z"/><path d="M15.02,6.25h0c-.41,0-.75,.34-.75,.75s.34,.75,.75,.75,.75-.34,.75-.75-.33-.75-.75-.75Z"/><path d="M12,15.25c-.41,0-.75,.34-.75,.75v4c0,.41,.34,.75,.75,.75s.75-.34,.75-.75v-4c0-.41-.34-.75-.75-.75Z"/><path d="M17,20.25h-1c-.14,0-.25-.11-.25-.25v-4c0-.41-.34-.75-.75-.75s-.75,.34-.75,.75v4c0,.96,.79,1.75,1.75,1.75h1c.41,0,.75-.34,.75-.75s-.34-.75-.75-.75Z"/><path d="M9,15.25c-.41,0-.75,.34-.75,.75v4c0,.14-.11,.25-.25,.25h-1c-.41,0-.75,.34-.75,.75s.34,.75,.75,.75h1c.96,0,1.75-.79,1.75-1.75v-4c0-.41-.34-.75-.75-.75Z"/></g></g></svg>