<?xml version="1.0" encoding="UTF-8"?><svg fill="currentColor" xmlns="http://www.w3.org/2000/svg" viewBox="0 0 24 24"><g id="u"><path d="M19.75,12.37v-4.37c0-1.52-1.23-2.75-2.75-2.75H7c-1.52,0-2.75,1.23-2.75,2.75v4.37c-1.15,.33-2,1.38-2,2.63v2c0,.96,.79,1.75,1.75,1.75h.25v1.25c0,.41,.34,.75,.75,.75s.75-.34,.75-.75v-1.25h12.5v1.25c0,.41,.34,.75,.75,.75s.75-.34,.75-.75v-1.25h.25c.96,0,1.75-.79,1.75-1.75v-2c0-1.25-.85-2.3-2-2.63ZM5.75,8c0-.69,.56-1.25,1.25-1.25h10c.69,0,1.25,.56,1.25,1.25v4.25h-.5v-.25c0-1.52-1.23-2.75-2.75-2.75h-1c-.79,0-1.5,.34-2,.87-.5-.54-1.21-.87-2-.87h-1c-1.52,0-2.75,1.23-2.75,2.75v.25h-.5v-4.25Zm2,4.25v-.25c0-.69,.56-1.25,1.25-1.25h1c.69,0,1.25,.56,1.25,1.25v.25h-3.5Zm5-.25c0-.69,.56-1.25,1.25-1.25h1c.69,0,1.25,.56,1.25,1.25v.25h-3.5v-.25Zm7.5,5c0,.14-.11,.25-.25,.25H4c-.14,0-.25-.11-.25-.25v-2c0-.69,.56-1.25,1.25-1.25h14c.69,0,1.25,.56,1.25,1.25v2Z"/></g></svg>