<?xml version="1.0" encoding="UTF-8"?><svg fill="currentColor" xmlns="http://www.w3.org/2000/svg" viewBox="0 0 24 24"><g id="b"><path d="M20.9,10.66c-.16-.81-.89-1.41-1.72-1.41h-.43v-.25c0-2.36-1.74-4.31-4-4.67v-.58h.25c.41,0,.75-.34,.75-.75s-.34-.75-.75-.75h-2c-.41,0-.75,.34-.75,.75s.34,.75,.75,.75h.25v.58c-2.26,.36-4,2.31-4,4.67v.25h-.64l-.56-2.79c-.26-1.28-1.39-2.21-2.7-2.21h-1.36c-.41,0-.75,.34-.75,.75s.34,.75,.75,.75h1.36c.59,0,1.11,.42,1.23,1l.65,3.25-.97,4.85c-.04,.21,0,.43,.14,.6,.93,1.24,2.33,1.3,2.6,1.3,.48,0,.9-.11,1.25-.26v.78c-1.12,.13-2,1.07-2,2.22,0,1.24,1.01,2.25,2.25,2.25s2.25-1.01,2.25-2.25c0-.78-.4-1.46-1-1.87v-1.36c.91,.39,1.75,.48,2.25,.48,.89,0,1.65-.21,2.25-.47v1.35c-.6,.4-1,1.09-1,1.87,0,1.24,1.01,2.25,2.25,2.25s2.25-1.01,2.25-2.25c0-1.15-.88-2.1-2-2.22v-.79c.58,.24,1.1,.26,1.25,.26,1.54,0,2.43-1.08,2.6-1.3,.13-.17,.18-.39,.14-.6l-.84-4.2Zm-10.15-1.66c0-1.79,1.46-3.25,3.25-3.25s3.25,1.46,3.25,3.25v.25h-6.5v-.25Zm-.25,11.25c-.41,0-.75-.34-.75-.75s.34-.75,.75-.75,.75,.34,.75,.75-.34,.75-.75,.75Zm7.75-.75c0,.41-.34,.75-.75,.75s-.75-.34-.75-.75,.34-.75,.75-.75,.75,.34,.75,.75Zm.75-4.25c-.09,0-.89-.02-1.4-.7-.01-.01-.03-.02-.04-.03-.03-.04-.07-.07-.11-.1-.04-.03-.07-.06-.12-.08-.04-.02-.09-.03-.14-.05-.03,0-.06-.03-.09-.03-.04,0-.07,0-.11,0-.09,0-.18,.02-.27,.05-.03,.01-.05,.03-.08,.04-.03,.02-.07,.03-.1,.05-.42,.32-1.32,.85-2.55,.85-.53,0-1.56-.11-2.55-.85-.02-.02-.05-.02-.08-.04-.04-.03-.09-.05-.14-.07-.05-.02-.1-.02-.15-.03-.03,0-.05-.02-.08-.02-.02,0-.03,0-.05,.01-.05,0-.1,.02-.15,.03-.04,.01-.09,.02-.13,.04-.04,.02-.08,.05-.12,.08-.04,.03-.08,.06-.11,.1-.01,.01-.03,.02-.04,.03-.05,.07-.55,.7-1.4,.7-.08,0-.7-.01-1.19-.47l.81-4.03h10.57c.12,0,.22,.08,.25,.2l.76,3.82c-.23,.21-.63,.48-1.19,.48Z"/></g></svg>