<?xml version="1.0" encoding="UTF-8"?><svg fill="currentColor" xmlns="http://www.w3.org/2000/svg" viewBox="0 0 24 24"><g id="o"><path d="M20,17.75c.96,0,1.75-.79,1.75-1.75v-1c0-5.12-3.97-9.33-9-9.71v-1.54h1.25c.41,0,.75-.34,.75-.75s-.34-.75-.75-.75h-4c-.41,0-.75,.34-.75,.75s.34,.75,.75,.75h1.25v1.54c-5.03,.39-9,4.59-9,9.71v1c0,.96,.79,1.75,1.75,1.75h7.25v1.5H3c-.41,0-.75,.34-.75,.75s.34,.75,.75,.75H21c.41,0,.75-.34,.75-.75s-.34-.75-.75-.75H12.75v-1.5h7.25Zm-16.25-1.75v-1c0-4.55,3.7-8.25,8.25-8.25s8.25,3.7,8.25,8.25v1c0,.14-.11,.25-.25,.25H4c-.14,0-.25-.11-.25-.25Z"/></g></svg>