<?xml version="1.0" encoding="UTF-8"?><svg fill="currentColor" xmlns="http://www.w3.org/2000/svg" viewBox="0 0 24 24"><g id="g"><g><path d="M17,2.25H7c-2.07,0-3.75,1.68-3.75,3.75v12c0,2.07,1.68,3.75,3.75,3.75h10c2.07,0,3.75-1.68,3.75-3.75V6c0-2.07-1.68-3.75-3.75-3.75ZM7,3.75h2.25v1.25c0,.69-.56,1.25-1.25,1.25h-3.25v-.25c0-1.24,1.01-2.25,2.25-2.25Zm12.25,14.25c0,1.24-1.01,2.25-2.25,2.25H7c-1.24,0-2.25-1.01-2.25-2.25V7.75h3.25c1.52,0,2.75-1.23,2.75-2.75v-1.25h6.25c1.24,0,2.25,1.01,2.25,2.25v12Z"/><path d="M13.02,6.75c.42,0,.75-.34,.75-.75s-.33-.75-.75-.75h0c-.41,0-.75,.34-.75,.75s.34,.75,.75,.75Z"/><path d="M16.02,5.25h0c-.41,0-.75,.34-.75,.75s.34,.75,.75,.75,.75-.34,.75-.75-.33-.75-.75-.75Z"/><path d="M16.74,13.88h0c-.07-2.57-2.16-4.63-4.74-4.63s-4.67,2.06-4.74,4.62c0,.01,0,.02,0,.03,0,.03,0,.06,0,.1,0,2.62,2.13,4.75,4.75,4.75s4.75-2.13,4.75-4.75c0-.04,0-.07-.01-.1,0,0,0-.01,0-.02Zm-4.74-3.13c1.56,0,2.86,1.1,3.17,2.57-.36,.01-.71,0-1.05-.06-.65-.11-1.07-.3-1.51-.51-.44-.21-.9-.42-1.52-.5-.64-.08-1.3,.03-1.98,.29,.54-1.06,1.62-1.79,2.89-1.79Zm0,6.5c-1.66,0-3.02-1.26-3.21-2.87,.77-.49,1.48-.71,2.12-.64,.38,.05,.69,.19,1.07,.37,.46,.22,1.04,.49,1.9,.63,.37,.06,.74,.09,1.11,.09,.05,0,.09-.01,.14-.01-.37,1.39-1.63,2.43-3.13,2.43Z"/></g></g></svg>