<?xml version="1.0" encoding="UTF-8"?><svg fill="currentColor" xmlns="http://www.w3.org/2000/svg" viewBox="0 0 24 24"><g id="t"><path d="M21,17.25h-1.56c.19-.38,.31-.8,.31-1.25v-6c0-1.52-1.23-2.75-2.75-2.75h-1.25v-.75c0-1.24-1.01-2.25-2.25-2.25s-2.25,1.01-2.25,2.25v.75h-1.25c-1.52,0-2.75,1.23-2.75,2.75v6c0,.45,.12,.87,.31,1.25h-.56c-.69,0-1.25-.56-1.25-1.25V5c0-.96-.79-1.75-1.75-1.75h-1c-.41,0-.75,.34-.75,.75s.34,.75,.75,.75h1c.14,0,.25,.11,.25,.25v11c0,1.52,1.23,2.75,2.75,2.75h.39c-.08,.24-.14,.49-.14,.75,0,1.24,1.01,2.25,2.25,2.25s2.25-1.01,2.25-2.25c0-.26-.05-.51-.14-.75h3.78c-.08,.24-.14,.49-.14,.75,0,1.24,1.01,2.25,2.25,2.25s2.25-1.01,2.25-2.25c0-.26-.05-.51-.14-.75h1.39c.41,0,.75-.34,.75-.75s-.34-.75-.75-.75Zm-12.25-5.5h1.5v2.25c0,.41,.34,.75,.75,.75s.75-.34,.75-.75v-2.25h3.5v2.25c0,.41,.34,.75,.75,.75s.75-.34,.75-.75v-2.25h1.5v4.25c0,.69-.56,1.25-1.25,1.25h-7c-.69,0-1.25-.56-1.25-1.25v-4.25Zm4-5.25c0-.41,.34-.75,.75-.75s.75,.34,.75,.75v.75h-1.5v-.75Zm-2.75,2.25h7c.69,0,1.25,.56,1.25,1.25v.25H8.75v-.25c0-.69,.56-1.25,1.25-1.25Zm-.5,11.5c-.41,0-.75-.34-.75-.75s.34-.75,.75-.75,.75,.34,.75,.75-.34,.75-.75,.75Zm8.75-.75c0,.41-.34,.75-.75,.75s-.75-.34-.75-.75,.34-.75,.75-.75,.75,.34,.75,.75Z"/></g></svg>