<?xml version="1.0" encoding="UTF-8"?><svg fill="currentColor" xmlns="http://www.w3.org/2000/svg" viewBox="0 0 24 24"><g id="n"><g><path d="M17.06,19.39c-.1,.07-.19,.03-.22,.01-1.53-.84-3.16-1.26-4.84-1.26-1.16,0-2.94,.22-4.83,1.25-.03,.01-.11,.06-.22,0-.04-.02-.15-.12-.14-.33,.13-1.48,.43-2.93,.9-4.32,.28-.82,.62-1.63,1.01-2.39,.19-.37,.04-.82-.32-1.01-.37-.19-.82-.04-1.01,.32-.43,.83-.8,1.7-1.1,2.59-.51,1.5-.84,3.08-.97,4.68-.06,.69,.25,1.35,.81,1.71,.54,.35,1.19,.37,1.76,.07,1.7-.93,3.31-1.07,4.11-1.07,1.43,0,2.82,.36,4.12,1.08,.26,.14,.54,.21,.82,.21,.34,0,.68-.1,.97-.31,.34-.24,.42-.7,.19-1.04-.24-.34-.7-.42-1.04-.19Z"/><path d="M9.46,7.67c.2,0,.41-.03,.61-.1,1.2-.4,1.76-1.85,1.28-3.32-.22-.66-.62-1.22-1.14-1.59-.58-.4-1.25-.52-1.85-.32-1.2,.4-1.76,1.85-1.28,3.32,.4,1.22,1.38,2.01,2.39,2.01Zm-.65-3.9s.08-.02,.13-.02c.16,0,.31,.09,.4,.15,.25,.18,.46,.48,.58,.82h0c.22,.68,.02,1.31-.32,1.42s-.88-.27-1.1-.95c-.22-.68-.01-1.31,.32-1.42Z"/><path d="M13.94,7.57c.2,.07,.4,.1,.6,.1,1.01,0,1.99-.79,2.39-2.01,.22-.66,.23-1.35,.02-1.96-.22-.67-.7-1.16-1.3-1.36-1.2-.39-2.51,.44-3,1.91h0c-.48,1.47,.08,2.92,1.28,3.32Zm.15-2.85c.22-.68,.76-1.06,1.1-.95,.2,.07,.31,.29,.35,.42,.1,.29,.09,.66-.03,1.01-.22,.68-.76,1.06-1.1,.95-.34-.11-.54-.74-.32-1.42Z"/><path d="M6.81,11.05c.12-.62,.03-1.31-.27-1.94h0c-.67-1.39-2.08-2.05-3.22-1.51-.57,.27-.98,.83-1.12,1.52-.12,.62-.03,1.31,.27,1.94,.3,.63,.77,1.13,1.34,1.43,.34,.18,.7,.27,1.05,.27,.29,0,.57-.06,.83-.19,.57-.27,.98-.83,1.12-1.52Zm-1.47-.29c-.03,.13-.1,.36-.29,.46-.19,.09-.42,0-.54-.06-.27-.14-.52-.41-.68-.74-.16-.33-.22-.69-.16-.99,.03-.13,.1-.36,.29-.46,.05-.03,.12-.04,.18-.04,.33,0,.78,.31,1.03,.84,.16,.33,.22,.69,.16,.99Z"/><path d="M18.31,12.56c.26,.12,.54,.19,.83,.19,.35,0,.71-.09,1.05-.27,.56-.29,1.04-.8,1.34-1.43,.67-1.39,.29-2.91-.84-3.45-1.14-.54-2.55,.12-3.22,1.51-.3,.63-.4,1.32-.27,1.94,.14,.69,.55,1.24,1.12,1.52Zm.51-2.8c.26-.54,.71-.84,1.03-.84,.07,0,.13,.01,.18,.04,.32,.15,.45,.81,.14,1.45-.16,.33-.41,.6-.68,.74-.12,.06-.34,.15-.54,.06-.19-.09-.27-.33-.29-.46-.06-.3,0-.66,.16-.99Z"/><path d="M18.35,16.67c-.17-.82-.38-1.63-.64-2.42-.44-1.29-1.01-2.52-1.7-3.67-.88-1.46-2.38-2.33-4.01-2.33-.85,0-1.67,.25-2.39,.7L4.5,4.44c-.31-.27-.78-.24-1.06,.07-.27,.31-.24,.78,.07,1.06l17,15c.14,.13,.32,.19,.5,.19,.21,0,.41-.09,.56-.25,.27-.31,.24-.78-.07-1.06l-3.14-2.77Zm-6.35-6.92c1.11,0,2.13,.6,2.73,1.6,.63,1.06,1.16,2.19,1.56,3.38,.02,.05,.03,.1,.05,.15l-5.53-4.88c.38-.16,.78-.25,1.19-.25Z"/></g></g></svg>