<?xml version="1.0" encoding="UTF-8"?><svg fill="currentColor" xmlns="http://www.w3.org/2000/svg" viewBox="0 0 24 24"><g id="e"><g><path d="M17,2.25H7c-2.62,0-4.75,2.13-4.75,4.75v10c0,2.62,2.13,4.75,4.75,4.75h10c2.62,0,4.75-2.13,4.75-4.75V7c0-2.62-2.13-4.75-4.75-4.75Zm3.25,14.75c0,1.79-1.46,3.25-3.25,3.25H7c-1.79,0-3.25-1.46-3.25-3.25V7c0-1.79,1.46-3.25,3.25-3.25h10c1.79,0,3.25,1.46,3.25,3.25v10Z"/><path d="M13,6.25h-4c-.96,0-1.75,.79-1.75,1.75v9c0,.41,.34,.75,.75,.75s.75-.34,.75-.75V8c0-.14,.11-.25,.25-.25h4c1.24,0,2.25,1.01,2.25,2.25s-1.01,2.25-2.25,2.25h-2c-.41,0-.75,.34-.75,.75s.34,.75,.75,.75h2c2.07,0,3.75-1.68,3.75-3.75s-1.68-3.75-3.75-3.75Z"/></g></g></svg>