<?xml version="1.0" encoding="UTF-8"?><svg fill="currentColor" xmlns="http://www.w3.org/2000/svg" viewBox="0 0 24 24"><g id="k"><g><path d="M3.34,17.67c1.21-.62,2.4-.95,3.66-.92,1.01,0,1.58,.21,2.25,.46,.7,.25,1.49,.54,2.75,.54s2.05-.29,2.75-.54c.67-.24,1.25-.45,2.25-.46,1.17,0,2.45,.3,3.66,.92,.11,.05,.23,.08,.34,.08,.27,0,.54-.15,.67-.41,.19-.37,.04-.82-.33-1.01-1.43-.72-2.93-1.1-4.34-1.08-.09,0-.16,.01-.25,.01V5.5c0-.41,.34-.75,.75-.75s.75,.34,.75,.75v.5c0,.41,.34,.75,.75,.75s.75-.34,.75-.75v-.5c0-1.24-1.01-2.25-2.25-2.25s-2.25,1.01-2.25,2.25V15.47c-.37,.1-.71,.21-1.01,.32-.67,.24-1.24,.45-2.24,.45s-1.57-.21-2.24-.45c-.7-.25-1.49-.54-2.76-.55-.08,0-.17,.01-.25,.02v-1.52h6.25c.41,0,.75-.34,.75-.75s-.34-.75-.75-.75H6.75v-2.5h6.25c.41,0,.75-.34,.75-.75s-.34-.75-.75-.75H6.75v-2.75c0-.41,.34-.75,.75-.75s.75,.34,.75,.75v.5c0,.41,.34,.75,.75,.75s.75-.34,.75-.75v-.5c0-1.24-1.01-2.25-2.25-2.25s-2.25,1.01-2.25,2.25V15.44c-.87,.17-1.74,.46-2.59,.89-.37,.19-.52,.64-.33,1.01,.19,.37,.64,.52,1.01,.33Z"/><path d="M21.34,19.33c-1.43-.72-2.93-1.08-4.34-1.08-1.27,0-2.06,.29-2.76,.55-.67,.24-1.24,.45-2.24,.45s-1.57-.21-2.24-.45c-.7-.25-1.49-.54-2.76-.55-1.45-.03-2.92,.36-4.34,1.08-.37,.19-.52,.64-.33,1.01,.19,.37,.64,.51,1.01,.33,1.2-.61,2.42-.92,3.62-.92h.03c1.01,0,1.58,.21,2.25,.46,.7,.25,1.49,.54,2.75,.54s2.05-.29,2.75-.54c.67-.24,1.25-.45,2.25-.46,1.17,0,2.45,.3,3.66,.92,.11,.05,.23,.08,.34,.08,.27,0,.54-.15,.67-.41,.19-.37,.04-.82-.33-1.01Z"/></g></g></svg>