<?xml version="1.0" encoding="UTF-8"?><svg fill="currentColor" xmlns="http://www.w3.org/2000/svg" viewBox="0 0 24 24"><g id="l"><g><path d="M18,12.25h-.25v-1.59c1.71-.4,3-2.11,3-4.16,0-2.34-1.68-4.25-3.75-4.25s-3.75,1.91-3.75,4.25c0,2.05,1.29,3.77,3,4.16v1.59h-.25c-.96,0-1.75,.79-1.75,1.75v5c0,1.52,1.23,2.75,2.75,2.75s2.75-1.23,2.75-2.75v-5c0-.96-.79-1.75-1.75-1.75Zm-3.25-5.75c0-1.52,1.01-2.75,2.25-2.75s2.25,1.23,2.25,2.75-1.01,2.75-2.25,2.75-2.25-1.23-2.25-2.75Zm3.5,12.5c0,.69-.56,1.25-1.25,1.25s-1.25-.56-1.25-1.25v-5c0-.14,.11-.25,.25-.25h2c.14,0,.25,.11,.25,.25v5Z"/><path d="M11,2.25c-.41,0-.75,.34-.75,.75V7c0,.98-.63,1.8-1.5,2.11V3c0-.41-.34-.75-.75-.75s-.75,.34-.75,.75v6.11c-.87-.31-1.5-1.14-1.5-2.11V3c0-.41-.34-.75-.75-.75s-.75,.34-.75,.75V7c0,1.81,1.29,3.33,3,3.67v1.58h-.25c-.96,0-1.75,.79-1.75,1.75v5c0,1.52,1.23,2.75,2.75,2.75s2.75-1.23,2.75-2.75v-5c0-.96-.79-1.75-1.75-1.75h-.25v-1.58c1.71-.35,3-1.86,3-3.67V3c0-.41-.34-.75-.75-.75Zm-1.75,11.75v5c0,.69-.56,1.25-1.25,1.25s-1.25-.56-1.25-1.25v-5c0-.14,.11-.25,.25-.25h2c.14,0,.25,.11,.25,.25Z"/></g></g></svg>