<?xml version="1.0" encoding="UTF-8"?><svg fill="currentColor" xmlns="http://www.w3.org/2000/svg" viewBox="0 0 24 24"><g id="q"><g><path d="M7,3.25c-2.62,0-4.75,2.13-4.75,4.75v6c0,.41,.34,.75,.75,.75h.25v3.25c0,1.52,1.23,2.75,2.75,2.75h2c1.52,0,2.75-1.23,2.75-2.75v-3.25h.25c.41,0,.75-.34,.75-.75v-6c0-2.62-2.13-4.75-4.75-4.75Zm0,1.5c1.79,0,3.25,1.46,3.25,3.25v2.25H3.75v-2.25c0-1.79,1.46-3.25,3.25-3.25Zm3.25,8.5H3.75v-1.5h6.5v1.5Zm-1,4.75c0,.69-.56,1.25-1.25,1.25h-2c-.69,0-1.25-.56-1.25-1.25v-3.25h4.5v3.25Z"/><path d="M17,3.25c-2.62,0-4.75,2.13-4.75,4.75v6c0,.41,.34,.75,.75,.75h.25v3.25c0,1.52,1.23,2.75,2.75,2.75h2c1.52,0,2.75-1.23,2.75-2.75v-3.25h.25c.41,0,.75-.34,.75-.75v-6c0-2.62-2.13-4.75-4.75-4.75Zm0,1.5c1.79,0,3.25,1.46,3.25,3.25v2.25h-6.5v-2.25c0-1.79,1.46-3.25,3.25-3.25Zm3.25,8.5h-6.5v-1.5h6.5v1.5Zm-1,4.75c0,.69-.56,1.25-1.25,1.25h-2c-.69,0-1.25-.56-1.25-1.25v-3.25h4.5v3.25Z"/></g></g></svg>