<?xml version="1.0" encoding="UTF-8"?><svg fill="currentColor" xmlns="http://www.w3.org/2000/svg" viewBox="0 0 24 24"><g id="f"><g><path d="M15.04,11.87c1.62-1.02,2.71-2.82,2.71-4.87V3c0-.41-.34-.75-.75-.75H7c-.41,0-.75,.34-.75,.75V7c0,2.05,1.09,3.86,2.71,4.87-2.77,1.18-4.71,3.93-4.71,7.13v2c0,.41,.34,.75,.75,.75s.75-.34,.75-.75v-2c0-2.2,1.15-4.14,2.87-5.25l2.63,3.5v3.75c0,.41,.34,.75,.75,.75s.75-.34,.75-.75v-3.75l2.63-3.5c1.73,1.11,2.87,3.05,2.87,5.25v2c0,.41,.34,.75,.75,.75s.75-.34,.75-.75v-2c0-3.2-1.94-5.94-4.71-7.13Zm1.21-8.12v2.5H7.75V3.75h8.5ZM7.83,7.75h8.35c-.36,1.99-2.09,3.5-4.17,3.5s-3.82-1.51-4.17-3.5Zm4.17,8l-2-2.67c.63-.21,1.3-.33,2-.33s1.37,.12,2,.33l-2,2.67Z"/><path d="M16,18.25h-1c-.41,0-.75,.34-.75,.75s.34,.75,.75,.75h1c.41,0,.75-.34,.75-.75s-.34-.75-.75-.75Z"/></g></g></svg>