<?xml version="1.0" encoding="UTF-8"?><svg fill="currentColor" xmlns="http://www.w3.org/2000/svg" viewBox="0 0 24 24"><g id="c"><g><path d="M19,5.25H10c-.41,0-.75,.34-.75,.75s.34,.75,.75,.75h9c.69,0,1.25,.56,1.25,1.25v8c0,.69-.56,1.25-1.25,1.25H5c-.69,0-1.25-.56-1.25-1.25V8c0-.69,.56-1.25,1.25-1.25h1.25v.5h-.25c-.96,0-1.75,.79-1.75,1.75v6c0,.96,.79,1.75,1.75,1.75h2c.96,0,1.75-.79,1.75-1.75v-6c0-.96-.79-1.75-1.75-1.75h-.25v-3.25c0-.41-.34-.75-.75-.75s-.75,.34-.75,.75v1.25h-1.25c-1.52,0-2.75,1.23-2.75,2.75v8c0,1.52,1.23,2.75,2.75,2.75h14c1.52,0,2.75-1.23,2.75-2.75V8c0-1.52-1.23-2.75-2.75-2.75Zm-10.75,3.75v6c0,.14-.11,.25-.25,.25h-2c-.14,0-.25-.11-.25-.25v-6c0-.14,.11-.25,.25-.25h2c.14,0,.25,.11,.25,.25Z"/><path d="M18,8.25h-6c-.41,0-.75,.34-.75,.75s.34,.75,.75,.75h6c.41,0,.75-.34,.75-.75s-.34-.75-.75-.75Z"/><path d="M12.02,11.25h0c-.41,0-.75,.34-.75,.75s.34,.75,.75,.75,.75-.34,.75-.75-.33-.75-.75-.75Z"/><path d="M18.02,11.25h0c-.41,0-.75,.34-.75,.75s.34,.75,.75,.75,.75-.34,.75-.75-.33-.75-.75-.75Z"/><path d="M15.02,11.25h0c-.41,0-.75,.34-.75,.75s.34,.75,.75,.75,.75-.34,.75-.75-.33-.75-.75-.75Z"/><path d="M12.02,14.25h0c-.41,0-.75,.34-.75,.75s.34,.75,.75,.75,.75-.34,.75-.75-.33-.75-.75-.75Z"/><path d="M18.02,14.25h0c-.41,0-.75,.34-.75,.75s.34,.75,.75,.75,.75-.34,.75-.75-.33-.75-.75-.75Z"/><path d="M15.02,14.25h0c-.41,0-.75,.34-.75,.75s.34,.75,.75,.75,.75-.34,.75-.75-.33-.75-.75-.75Z"/></g></g></svg>