<?xml version="1.0" encoding="UTF-8"?><svg fill="currentColor" xmlns="http://www.w3.org/2000/svg" viewBox="0 0 24 24"><g id="i"><path d="M20.11,13.37c-.1-.09-.21-.18-.31-.27-1.34-1.12-2.87-1.9-4.56-2.3-.23-.05-.4-.32-.4-.62,0-1.06-.81-1.92-1.8-1.92h-.29v-.4c0-.12,.06-.22,.12-.24,1.13-.38,1.88-1.42,1.88-2.61,0-1.52-1.23-2.75-2.75-2.75s-2.75,1.23-2.75,2.75c0,.41,.34,.75,.75,.75s.75-.34,.75-.75c0-.69,.56-1.25,1.25-1.25s1.25,.56,1.25,1.25c0,.54-.34,1.02-.85,1.19-.69,.23-1.15,.9-1.15,1.67v.4h-.3c-.99,0-1.79,.86-1.79,1.92,0,.3-.17,.57-.4,.62-1.69,.41-3.22,1.18-4.56,2.3-.11,.09-.21,.18-.31,.27-.61,.55-.8,1.41-.5,2.2,.28,.73,.92,1.19,1.66,1.19h1.2v3.25c0,.96,.79,1.75,1.75,1.75h8c.96,0,1.75-.79,1.75-1.75v-3.25h1.2c.74,0,1.38-.46,1.66-1.19,.3-.79,.11-1.65-.5-2.2Zm-3.86,6.63c0,.14-.11,.25-.25,.25H8c-.14,0-.25-.11-.25-.25v-4c0-.14,.11-.25,.25-.25h8c.14,0,.25,.11,.25,.25v4Zm2.96-4.98c-.03,.08-.11,.23-.26,.23h-1.37c-.28-.59-.88-1-1.57-1H8c-.7,0-1.29,.41-1.57,1h-1.37c-.15,0-.23-.14-.26-.23-.06-.15-.07-.39,.1-.54,.09-.08,.18-.16,.27-.24,1.16-.97,2.49-1.64,3.95-1.99,.91-.22,1.55-1.07,1.55-2.08,0-.25,.16-.42,.29-.42h2.09c.14,0,.3,.17,.3,.42,0,1.01,.64,1.86,1.55,2.08,1.46,.35,2.79,1.02,3.95,2,.09,.08,.19,.16,.27,.24,.17,.16,.16,.39,.1,.54Z"/></g></svg>