<?xml version="1.0" encoding="UTF-8"?><svg fill="currentColor" xmlns="http://www.w3.org/2000/svg" viewBox="0 0 24 24"><g id="s"><path d="M14.16,14.81l5.68-6.49c.33-.37,.4-.89,.2-1.34-.21-.45-.64-.73-1.14-.73h-3.48l1.01-2.35c.04-.09,.13-.15,.23-.15h2.34c.41,0,.75-.34,.75-.75s-.34-.75-.75-.75h-2.34c-.7,0-1.33,.42-1.61,1.06l-1.26,2.94H5.1c-.5,0-.93,.28-1.14,.73-.21,.45-.13,.97,.2,1.34l5.68,6.49c.37,.43,.87,.72,1.41,.85v3.64c-1.28,.17-2.22,.73-2.7,1.1-.33,.25-.4,.72-.15,1.05,.25,.33,.72,.4,1.05,.15,.42-.32,1.32-.85,2.55-.85,.53,0,1.56,.11,2.55,.85,.13,.1,.29,.15,.45,.15,.23,0,.45-.1,.6-.3,.25-.33,.18-.8-.15-1.05-.96-.72-1.95-1-2.7-1.1v-3.64c.54-.13,1.04-.42,1.41-.85Zm4.18-7.06l-1.32,1.51s-.02,0-.03,0h-2.86l.64-1.5h3.57Zm-5.2,0l-.64,1.5H7s-.02,0-.03,0l-1.32-1.51h7.5Zm-4.87,3h7.44l-2.69,3.07c-.24,.27-.58,.43-.94,.43h-.18c-.36,0-.7-.16-.94-.43l-2.69-3.07Z"/></g></svg>