<svg fill="currentColor" xmlns="http://www.w3.org/2000/svg" viewBox="0 0 32 32"><g id="bin_2" data-name="bin 2"><path d="M28,3H24a1,1,0,0,0-.89.55L21.29,7.19A3.5,3.5,0,0,0,18,5h0V4.83A2.83,2.83,0,0,0,15.17,2H10.83A2.83,2.83,0,0,0,8,4.83V5H8A3.52,3.52,0,0,0,4.55,7.66L4.22,9H3a1,1,0,0,0,0,2h.16L5.74,25.61A2.89,2.89,0,0,0,8.59,28h8.82a.5.5,0,0,0,.13,0A4,4,0,1,0,21,22h-.1l1.94-11H23a1,1,0,0,0,0-2h-.38l2-4H28a1,1,0,0,0,0-2ZM19,21H7l-.89-5H19.93ZM5.72,14l-.53-3H20.81l-.53,3ZM10,4.83A.83.83,0,0,1,10.83,4h4.34a.83.83,0,0,1,.83.83V5H10ZM6.49,8.14A1.52,1.52,0,0,1,8,7H18a1.52,1.52,0,0,1,1.47,1.14l.21.86H6.28ZM8.59,26a.89.89,0,0,1-.88-.74L7.31,23H18.38A4,4,0,0,0,17,26ZM23,26a2,2,0,1,1-2-2A2,2,0,0,1,23,26Z"/></g></svg>