<svg fill="currentColor" xmlns="http://www.w3.org/2000/svg" viewBox="0 0 32 32"><g id="bin"><path d="M26,8.6V6.4A1.4,1.4,0,0,0,24.6,5H21.72l-.14-.41A3.77,3.77,0,0,0,18,2H14a3.77,3.77,0,0,0-3.59,2.59L10.28,5H7.4A1.4,1.4,0,0,0,6,6.4V8.6a1.4,1.4,0,0,0,1,1.35L7.84,24.1A2.49,2.49,0,0,0,6,26.5v1A2.5,2.5,0,0,0,11,28h10.1A2.5,2.5,0,0,0,26,27.5v-1a2.49,2.49,0,0,0-1.84-2.4L25,10A1.4,1.4,0,0,0,26,8.6ZM14,4h4A1.79,1.79,0,0,1,19.6,5H12.4A1.79,1.79,0,0,1,14,4ZM8,7H24V8H8ZM22.14,24.41A2.51,2.51,0,0,0,21.05,26H11a2.51,2.51,0,0,0-1.09-1.59L9.06,10H22.94ZM9,27.5a.5.5,0,0,1-1,0v-1a.5.5,0,0,1,1,0Zm15,0a.5.5,0,0,1-1,0v-1a.5.5,0,0,1,1,0Z"/></g></svg>