<svg fill="currentColor" xmlns="http://www.w3.org/2000/svg" viewBox="0 0 32 32"><g id="bones"><path d="M24.77,9.71a21.67,21.67,0,0,0-8.31-7.6,1,1,0,0,0-.92,0,21.67,21.67,0,0,0-8.31,7.6,1.47,1.47,0,0,0-.05,1.5A1.52,1.52,0,0,0,8.52,12H15v1H13a1,1,0,0,0,0,2h2v1H11a1,1,0,0,0,0,2h4v1H13a1,1,0,0,0,0,2h2v1a.76.76,0,0,0,0,.16,9.27,9.27,0,0,0-2.52,1,10,10,0,0,0-4.46,5.55,1,1,0,0,0,.14.91A1.05,1.05,0,0,0,9,30a14.92,14.92,0,0,0,5.35-1.07A16.16,16.16,0,0,0,16,28.16a16.16,16.16,0,0,0,1.63.77A14.92,14.92,0,0,0,23,30h0a1,1,0,0,0,.81-.41,1,1,0,0,0,.14-.91,10,10,0,0,0-4.46-5.55,9.27,9.27,0,0,0-2.52-1A.76.76,0,0,0,17,22V21h2a1,1,0,0,0,0-2H17V18h5a1,1,0,0,0,0-2H17V15h2a1,1,0,0,0,0-2H17V12h6.48a1.52,1.52,0,0,0,1.34-.79A1.47,1.47,0,0,0,24.77,9.71ZM21.42,27.88a13.33,13.33,0,0,1-3.05-.81,13.85,13.85,0,0,1-1.85-.92,1,1,0,0,0-1,0,13.85,13.85,0,0,1-1.85.92,13.33,13.33,0,0,1-3.05.81A7.32,7.32,0,0,1,16,24a7.32,7.32,0,0,1,5.42,3.87ZM9.44,10a19.4,19.4,0,0,1,4-4.21A19.7,19.7,0,0,1,16,4.13a19.7,19.7,0,0,1,2.53,1.66,19.4,19.4,0,0,1,4,4.21Z"/></g></svg>