<svg fill="currentColor" xmlns="http://www.w3.org/2000/svg" viewBox="0 0 32 32"><g id="bottle"><path d="M24.33,10h-.68a5.76,5.76,0,0,0-1.36-2.12L22,7.59V5a1,1,0,0,0,0-2H17a1,1,0,0,0,0,2V7.59l-.29.29a5.5,5.5,0,0,0-1,1.32,5.75,5.75,0,0,0-1.43-2.32L14,6.59V4a1,1,0,0,0,0-2H9A1,1,0,0,0,9,4V6.59l-.29.29A5.76,5.76,0,0,0,7.09,10H6.67A1.67,1.67,0,0,0,5,11.67v1.66a1.68,1.68,0,0,0,1.06,1.55l.79,12A3.39,3.39,0,0,0,10.23,30H20.77a3.39,3.39,0,0,0,3.38-3.15l.79-12A1.68,1.68,0,0,0,26,13.33V11.67A1.67,1.67,0,0,0,24.33,10ZM20,5V8a1,1,0,0,0,.29.71l.59.58a4.65,4.65,0,0,1,.55.71H17.57a4.65,4.65,0,0,1,.55-.71l.59-.58A1,1,0,0,0,19,8V5ZM10.12,8.29l.59-.58A1,1,0,0,0,11,7V4h1V7a1,1,0,0,0,.29.71l.59.58a3.76,3.76,0,0,1,1,1.71H9.15A3.76,3.76,0,0,1,10.12,8.29ZM7,12H24v1H7ZM22.15,26.71A1.39,1.39,0,0,1,20.77,28H10.23a1.39,1.39,0,0,1-1.38-1.29L8.07,15H22.93Z"/></g></svg>