<svg fill="currentColor" xmlns="http://www.w3.org/2000/svg" viewBox="0 0 32 32"><g id="broke"><path d="M25.78,7H18.85l1.43-1.14A1.89,1.89,0,0,0,21,6a2,2,0,1,0-2-2c0,.1,0,.2,0,.3L16,6.72,13,4.3c0-.1,0-.2,0-.3a2,2,0,1,0-2,2,1.89,1.89,0,0,0,.72-.14L13.15,7H6.22A2.23,2.23,0,0,0,4,9.22V25.78A2.22,2.22,0,0,0,6,28v1a1,1,0,0,0,2,0V28H24v1a1,1,0,0,0,2,0V28a2.22,2.22,0,0,0,2-2.2V9.22A2.23,2.23,0,0,0,25.78,7ZM26,25.78a.22.22,0,0,1-.22.22H6.22A.22.22,0,0,1,6,25.78V9.22A.22.22,0,0,1,6.22,9H25.78a.22.22,0,0,1,.22.22Z"/><path d="M24,10H8a1,1,0,0,0-1,1V24a1,1,0,0,0,1,1H24a1,1,0,0,0,1-1V11A1,1,0,0,0,24,10ZM23,23H9V12H23Z"/><path d="M11,22a1,1,0,0,0,1-1V19.62l2-1V20a1,1,0,0,0,.29.71l1,1a1,1,0,0,0,1.42,0,1,1,0,0,0,0-1.42l-.71-.7V18h1.38l.73,1.45a1,1,0,0,0,.73.54,1,1,0,0,0,.87-.28l1-1a1,1,0,0,0-1.42-1.42l0,0-.38-.76A1,1,0,0,0,18,16H16v-.38l1.45-.73a1,1,0,1,0-.9-1.78l-2,1A1,1,0,0,0,14,15v.13l-1.45-1a1,1,0,1,0-1.1,1.66l1.56,1-2.46,1.23A1,1,0,0,0,10,19v2A1,1,0,0,0,11,22Z"/></g></svg>