<svg fill="currentColor" xmlns="http://www.w3.org/2000/svg" viewBox="0 0 32 32"><g id="bulb"><path d="M27,10.81A11,11,0,0,0,16,2a.9.9,0,0,0-.52.17l-3,2A1,1,0,0,0,12,5V7H10a1,1,0,0,0-.95.68L8.28,10H6a1,1,0,0,0-1,.81A10.94,10.94,0,0,0,10.1,22.16a2,2,0,0,1,.9,1.72V27a3,3,0,0,0,3,3h4a3,3,0,0,0,3-3V23.88a2,2,0,0,1,.9-1.72A10.94,10.94,0,0,0,27,10.81ZM19,24v1H13V24Zm-1,4H14a1,1,0,0,1-1-1h6A1,1,0,0,1,18,28Zm2.87-7.55A3.79,3.79,0,0,0,19.45,22H17V19.38a4.24,4.24,0,0,1,.61-.59A4.8,4.8,0,0,1,19.27,18,1,1,0,0,0,18.73,16a6.52,6.52,0,0,0-2.34,1.17,4,4,0,0,0-.39.33,3.09,3.09,0,0,0-.39-.33A6.52,6.52,0,0,0,13.27,16,1,1,0,1,0,12.73,18a4.8,4.8,0,0,1,1.66.83,4.24,4.24,0,0,1,.61.59V22H12.55a3.79,3.79,0,0,0-1.42-1.55A9,9,0,0,1,6.87,12H9.59l1.7,1.71A1,1,0,0,0,12,14h3a1,1,0,0,0,0-2H12.41l-1.7-1.71a1,1,0,0,0-.35-.22L10.72,9H16a1,1,0,0,0,.45-.11l2-1a1,1,0,1,0-.9-1.78L15.76,7H14V5.54L16.31,4A9,9,0,0,1,25,11.19,8.94,8.94,0,0,1,20.87,20.45Z"/></g></svg>