<svg fill="currentColor" xmlns="http://www.w3.org/2000/svg" viewBox="0 0 32 32"><g id="can"><path d="M23.71,21.29l-.12-.08h0a7.06,7.06,0,0,0,1.05-6.46l-.5-1.48.51-.5a4.64,4.64,0,0,0,0-6.54l-.06-.05A2.08,2.08,0,0,0,25,5V4a2,2,0,0,0-2-2H9A2,2,0,0,0,7,4V5a2.08,2.08,0,0,0,.41,1.22l-.06.05a4.64,4.64,0,0,0,0,6.54l.51.5-.5,1.48a7.06,7.06,0,0,0,1,6.46h0l-.12.08-.94.94a4.64,4.64,0,0,0,0,6.54,4.21,4.21,0,0,0,3,1.23H21.67a4.21,4.21,0,0,0,3-1.23,4.64,4.64,0,0,0,0-6.54ZM9,4,23,4V5a0,0,0,0,1,0,0L9,5ZM23.23,27.35a2.17,2.17,0,0,1-1.56.65H10.33a2.17,2.17,0,0,1-1.56-.65A2.45,2.45,0,0,1,8.48,27H18a1,1,0,0,0,0-2H8.05a2.58,2.58,0,0,1,.72-1.35l.84-.84.59.79a1,1,0,0,0,.8.4,1,1,0,0,0,.6-.2,1,1,0,0,0,.2-1.4L10,20a5.06,5.06,0,0,1-1-3,5.15,5.15,0,0,1,.26-1.6l.18-.53,1.85,1.86a1,1,0,0,0,1.42,0,1,1,0,0,0,0-1.42L8.77,11.35A2.45,2.45,0,0,1,8.48,11H18a1,1,0,0,0,0-2H8.05a2.58,2.58,0,0,1,.72-1.35L9.41,7H22.59l.64.65a2.61,2.61,0,0,1,0,3.7l-3.94,3.94a1,1,0,0,0,0,1.42,1,1,0,0,0,1.42,0l1.85-1.86.18.53A5.15,5.15,0,0,1,23,17a5.06,5.06,0,0,1-1,3L20.2,22.4a1,1,0,0,0,.2,1.4,1,1,0,0,0,.6.2,1,1,0,0,0,.8-.4l.59-.79.84.84a2.61,2.61,0,0,1,0,3.7Z"/></g></svg>