<svg fill="currentColor" xmlns="http://www.w3.org/2000/svg" viewBox="0 0 32 32"><g id="core"><path d="M27.4,22.2a4.1,4.1,0,0,1-1.64.72A23.68,23.68,0,0,1,25,17a24.28,24.28,0,0,1,.7-5.76s0-.06,0-.09a3.92,3.92,0,0,1,1.69.72,1,1,0,0,0,.6.2,1,1,0,0,0,.54-.15A1,1,0,0,0,29,10.87a8.46,8.46,0,0,0-6.83-6.79,8,8,0,0,0-5.09,1C17,5,17,4.81,17,4.67a4.44,4.44,0,0,0-2.6-2.61,1,1,0,0,0-.7,1.88A2.49,2.49,0,0,1,15,5.09a8,8,0,0,0-5.1-1A8.46,8.46,0,0,0,3,10.87a1,1,0,0,0,.45,1.05,1,1,0,0,0,1.14-.06,4.78,4.78,0,0,1,1.63-.78A23.68,23.68,0,0,1,7,17a24.24,24.24,0,0,1-.77,6,4.7,4.7,0,0,1-1.62-.78,1,1,0,0,0-1.29.06,1,1,0,0,0-.15,1.29,14.61,14.61,0,0,0,6.45,5.36A15.65,15.65,0,0,0,16,30a15.65,15.65,0,0,0,6.38-1.08,14.61,14.61,0,0,0,6.45-5.36A1,1,0,0,0,27.4,22.2Zm-19-10.95a3.62,3.62,0,0,1,1,.58,1,1,0,0,0,1.25,0,4,4,0,0,1,2.4-.8,4.08,4.08,0,0,1,2.4.8,1,1,0,0,0,1.2,0,4,4,0,0,1,2.4-.8,4.08,4.08,0,0,1,2.4.8,1,1,0,0,0,1.2,0,4.4,4.4,0,0,1,1-.55,25.64,25.64,0,0,0,0,11.43,4.5,4.5,0,0,1-1-.55,1,1,0,0,0-1.2,0,4,4,0,0,1-4.8,0,1,1,0,0,0-1.2,0,4,4,0,0,1-4.8,0,1,1,0,0,0-1.25,0,3.39,3.39,0,0,1-1,.59A25.94,25.94,0,0,0,9,17,25.8,25.8,0,0,0,8.35,11.25Zm1.8-5.19A6.48,6.48,0,0,1,15.31,7.8h0a.67.67,0,0,0,.14.09,1.18,1.18,0,0,0,.19.11h0a.84.84,0,0,0,.31.05A1,1,0,0,0,16.34,8l.09,0a1.2,1.2,0,0,0,.21-.13l.05,0a6.5,6.5,0,0,1,5.16-1.74,6.2,6.2,0,0,1,4.4,3.15A5.87,5.87,0,0,0,22,9.88a6.08,6.08,0,0,0-3-.81,6,6,0,0,0-3,.81,6.08,6.08,0,0,0-3-.81,6,6,0,0,0-3,.79,5.54,5.54,0,0,0-1.83-.77,5.43,5.43,0,0,0-2.42,0A6.17,6.17,0,0,1,10.15,6.06Zm11.47,21A13.82,13.82,0,0,1,16,28a13.82,13.82,0,0,1-5.62-.92,12.25,12.25,0,0,1-3.2-2,6.27,6.27,0,0,0,1-.12A5.73,5.73,0,0,0,10,24.22,6.11,6.11,0,0,0,13,25a6,6,0,0,0,3-.81,6,6,0,0,0,6,0,6.08,6.08,0,0,0,2.93.81A12,12,0,0,1,21.62,27.08Z"/><path d="M11.84,20h.08a1,1,0,0,0,1-.92C13,18.39,13,17.69,13,17s0-1.39-.08-2.08a1,1,0,1,0-2,.16c.05.64.08,1.28.08,1.92s0,1.28-.08,1.92A1,1,0,0,0,11.84,20Z"/><path d="M20.08,20h.08a1,1,0,0,0,.92-1.08C21,18.28,21,17.64,21,17s0-1.28.08-1.92a1,1,0,1,0-2-.16C19,15.61,19,16.31,19,17s0,1.39.08,2.08A1,1,0,0,0,20.08,20Z"/><path d="M16,18a1,1,0,0,0,1-1V16a1,1,0,0,0-2,0v1A1,1,0,0,0,16,18Z"/></g></svg>