<svg fill="currentColor" xmlns="http://www.w3.org/2000/svg" viewBox="0 0 32 32"><g id="dustbin"><path d="M28.91,14H29a1,1,0,0,0,0-2h0a4.57,4.57,0,0,0-1.27-2.7A4.49,4.49,0,0,0,26,8.24,3.62,3.62,0,0,0,26,7.78a4.07,4.07,0,0,0-2.67-2.73,4.24,4.24,0,0,0-2.63,0,4.09,4.09,0,0,0-1.94,1.4,3.32,3.32,0,0,0-3.15-.36,2.89,2.89,0,0,0-1,.71,4,4,0,0,0-3.12.34,3.64,3.64,0,0,0-.85.67,4,4,0,0,0-3.15.33,3.65,3.65,0,0,0-.92.75,3.41,3.41,0,0,0-3.46,1.64A2.9,2.9,0,0,0,2.78,12,1,1,0,0,0,3,14h.09L4,23.05v2a2.51,2.51,0,1,0,2,.46V24H7.46l1.15,1.72A2.88,2.88,0,0,0,11,27H21a2.88,2.88,0,0,0,2.39-1.28L24.54,24H26v1.51a2.49,2.49,0,1,0,2-.46v-2Zm-2.82,8H23V14h3.89ZM5.91,22l-.8-8H9v8H5.91ZM11,14h4v8H11Zm6,0h4v8H17ZM4.88,11.47A1.53,1.53,0,0,1,6.69,11a1,1,0,0,0,1.17-.43,1.84,1.84,0,0,1,.64-.66,2.43,2.43,0,0,1,2.06,0,1,1,0,0,0,1.3-.38,1.84,1.84,0,0,1,.64-.66,2.43,2.43,0,0,1,2.06,0,1,1,0,0,0,1.33-.44,1.14,1.14,0,0,1,.52-.55,1.72,1.72,0,0,1,1.82.73,1,1,0,0,0,.94.35,1,1,0,0,0,.77-.65A2.38,2.38,0,0,1,21.32,7a2.15,2.15,0,0,1,1.35,0s1.16.4,1.35,1.27a1.37,1.37,0,0,1,0,.57,1,1,0,0,0,.16.78,1,1,0,0,0,.67.42,2.64,2.64,0,0,1,1.44.71A2.47,2.47,0,0,1,27,12H4.79A1,1,0,0,1,4.88,11.47ZM4.5,28a.5.5,0,1,1,.5-.5A.5.5,0,0,1,4.5,28Zm17.22-3.39A.85.85,0,0,1,21,25H11a.85.85,0,0,1-.72-.39L9.87,24H22.13ZM27.5,28a.5.5,0,1,1,.5-.5A.5.5,0,0,1,27.5,28Z"/><path d="M3.29,7.71a1,1,0,0,0,1.42,0l1-1A1,1,0,0,0,4.29,5.29L4,5.59l-.29-.3A1,1,0,0,0,2.29,6.71Z"/><path d="M9.29,5.71a1,1,0,0,0,1.42,0l1-1a1,1,0,1,0-1.42-1.42l-.29.3-.29-.3A1,1,0,0,0,8.29,4.71Z"/><path d="M15.29,4.71a1,1,0,0,0,1.42,0l1-1a1,1,0,1,0-1.42-1.42l-.29.3-.29-.3a1,1,0,0,0-1.42,1.42Z"/><path d="M27.29,5.71a1,1,0,0,0,1.42,0l1-1a1,1,0,1,0-1.42-1.42l-.29.3-.29-.3a1,1,0,0,0-1.42,1.42Z"/></g></svg>