<svg fill="currentColor" xmlns="http://www.w3.org/2000/svg" viewBox="0 0 32 32"><g id="dustbin_2" data-name="dustbin 2"><path d="M28,22.05v-2l.91-9H29a1,1,0,0,0,0-2h0a3,3,0,0,0-3-3H23.58a2.35,2.35,0,0,0-1.91-1H10.33A2.35,2.35,0,0,0,8.42,6H6A3,3,0,0,0,3,9H3a1,1,0,0,0,0,2h.09L4,20.05v2a2.51,2.51,0,1,0,2,.46V21H7.46l1.15,1.72A2.88,2.88,0,0,0,11,24H21a2.88,2.88,0,0,0,2.39-1.28L24.54,21H26v1.51a2.49,2.49,0,1,0,2-.46ZM24,19H23V11h3.89l-.8,8ZM5.91,19l-.8-8H9v8H5.91ZM11,11h4v8H11Zm6,0h4v8H17ZM27,9H24V8h2A1,1,0,0,1,27,9ZM10.33,7H21.67a.33.33,0,0,1,.33.33V9H10V7.33A.33.33,0,0,1,10.33,7ZM6,8H8V9H5A1,1,0,0,1,6,8ZM4.5,25a.5.5,0,1,1,.5-.5A.5.5,0,0,1,4.5,25Zm17.22-3.38A.86.86,0,0,1,21,22H11a.85.85,0,0,1-.72-.39L9.87,21H22.13ZM27.5,25a.5.5,0,1,1,.5-.5A.5.5,0,0,1,27.5,25Z"/></g></svg>