<svg fill="currentColor" xmlns="http://www.w3.org/2000/svg" viewBox="0 0 32 32"><g id="garbage"><path d="M25,17l-.26-.46a37.69,37.69,0,0,0-2.64-4.07A2.48,2.48,0,0,0,23,10.5a2.51,2.51,0,0,0-1.52-2.3l1.3-2.8a2,2,0,0,0-.38-2.31,1.87,1.87,0,0,0-2.12-.43l-2,.9-.88-.94a2,2,0,0,0-2.82,0l-.78.93-2.09-.89a1.87,1.87,0,0,0-2.12.43A2,2,0,0,0,9.22,5.4l1.3,2.8a2.49,2.49,0,0,0-.58,4.24,39.36,39.36,0,0,0-2.65,4.07L7,17a8.2,8.2,0,0,0,.13,8.24A9.9,9.9,0,0,0,15.72,30H16a10.16,10.16,0,0,0,8.77-4.78A8.17,8.17,0,0,0,25,17ZM11.5,11a.5.5,0,0,1,0-1h9a.5.5,0,0,1,0,1Zm-.56-6.51,2.08.9a1.93,1.93,0,0,0,2.16-.47L16,4l.83.89A1.91,1.91,0,0,0,19,5.39l2.08-.9L21,4.56,19.36,8H12.64L11,4.56,10.12,5ZM23.09,24.2A8.17,8.17,0,0,1,16,28h-.25A7.91,7.91,0,0,1,8.9,24.21a6.27,6.27,0,0,1-.11-6.28L9,17.49A38.48,38.48,0,0,1,12,13H20a38.48,38.48,0,0,1,3,4.49l.25.44A6.22,6.22,0,0,1,23.09,24.2Z"/><path d="M20.81,21a1,1,0,0,0-1.39-.23A1,1,0,0,0,19.08,22H17a1,1,0,0,0,0,2h4a1,1,0,0,0,.81-1.58Z"/><path d="M17.33,19.58a1,1,0,0,0,.81.42.94.94,0,0,0,.58-.19A1,1,0,0,0,19,18.42l-2.15-3a1,1,0,0,0-1.62,0l-1,1.4A1,1,0,0,0,15.81,18l.19-.26Z"/><path d="M14,22H12.94l1-1.42a1,1,0,0,0-1.63-1.16l-2.14,3A1,1,0,0,0,11,24h3a1,1,0,0,0,0-2Z"/></g></svg>