<svg fill="currentColor" xmlns="http://www.w3.org/2000/svg" viewBox="0 0 32 32"><g id="garbage_truck" data-name="garbage truck"><path d="M29,25V17.41a3.27,3.27,0,0,0-.22-1.16l-1.52-3.79A2.3,2.3,0,0,0,25.1,11H20v-.22a1.79,1.79,0,0,0-1.19-1.65,4.74,4.74,0,0,0-1.1-1.84,4.59,4.59,0,0,0-2-1.15,3.52,3.52,0,0,0-5.66-1,3.24,3.24,0,0,0-2.14.25,3.2,3.2,0,0,0-1.13.94A3.42,3.42,0,0,0,4.56,7.66,3.31,3.31,0,0,0,4,9.23a1.77,1.77,0,0,0-1,1.55V25a1,1,0,0,0,0,2H4.56a4,4,0,0,0,6.88,0h9.12a4,4,0,0,0,6.88,0H29a1,1,0,0,0,0-2ZM25.4,13.21,26.92,17H23V13h2.1A.31.31,0,0,1,25.4,13.21ZM10.69,22.06A3.95,3.95,0,0,0,5,22.38V11H18V22H11A1.07,1.07,0,0,0,10.69,22.06ZM7.36,8.23h0a1.07,1.07,0,0,0,.91-.54,1.2,1.2,0,0,1,.55-.56,1.41,1.41,0,0,1,1.14,0,1,1,0,0,0,1.21-.3,1.7,1.7,0,0,1,1.88-.66,1.74,1.74,0,0,1,1,1.1,1,1,0,0,0,.82.71,2.53,2.53,0,0,1,1.43.72,2.77,2.77,0,0,1,.25.29H6.1a.69.69,0,0,1,.1-.19A1.49,1.49,0,0,1,7.36,8.23ZM8,27a2,2,0,1,1,2-2A2,2,0,0,1,8,27Zm4-2a4.09,4.09,0,0,0-.14-1H18v1Zm8-3.27V13h1v5a1,1,0,0,0,1,1h5v3.38A4,4,0,0,0,20,25ZM24,27a2,2,0,1,1,2-2A2,2,0,0,1,24,27Z"/></g></svg>