<svg fill="currentColor" xmlns="http://www.w3.org/2000/svg" viewBox="0 0 32 32"><g id="glass"><path d="M24,15.59l-1.06-1.06a4.33,4.33,0,0,1-1.2-2.4l-.62-4.35A3,3,0,0,0,20,2H12a3,3,0,0,0-1.12,5.78l-.62,4.35a4.33,4.33,0,0,1-1.2,2.4L8,15.59A3.4,3.4,0,0,0,7,18v7a1,1,0,0,0,1,1h3v.28A1.72,1.72,0,0,0,12.72,28H14v1a1,1,0,0,0,1,1h9a1,1,0,0,0,1-1V18A3.4,3.4,0,0,0,24,15.59ZM12,4h8a1,1,0,0,1,0,2H12a1,1,0,0,1,0-2ZM9.41,17l1.06-1.06a6.25,6.25,0,0,0,1.77-3.53L12.87,8h6.26l.63,4.41a6.25,6.25,0,0,0,1.77,3.53L22.59,17A1.43,1.43,0,0,1,23,18H9A1.43,1.43,0,0,1,9.41,17ZM23,28H16v-.38A1.62,1.62,0,0,0,14.38,26H13v-.38A1.62,1.62,0,0,0,11.38,24H9V20H23Z"/></g></svg>