<svg fill="currentColor" xmlns="http://www.w3.org/2000/svg" viewBox="0 0 32 32"><g id="incineration"><path d="M29,28H27.69a1.08,1.08,0,0,0,0-.18,5.77,5.77,0,0,0-.81-2,4,4,0,0,0,.7-.9,4.7,4.7,0,0,0,.3-3.31,8.21,8.21,0,0,1-.17-1.89,6.43,6.43,0,0,1,1-3.1,1,1,0,0,0-1.13-1.49,8.46,8.46,0,0,0-1.18.45,3.92,3.92,0,0,0-.68-1.39,4.25,4.25,0,0,1-.51-.86,4.36,4.36,0,0,1,0-2.9,1,1,0,0,0-1.22-1.25,8.5,8.5,0,0,0-1.19.44A4.49,4.49,0,0,0,22.09,8c-.15-.22-.31-.45-.47-.73a8.82,8.82,0,0,1-1.07-3.21,1,1,0,0,0-.47-.72,1,1,0,0,0-.86-.08,8.26,8.26,0,0,0-3,1.92L14.44,2.45a1,1,0,0,0-1.8.77,4.1,4.1,0,0,1,0,1.91,5.17,5.17,0,0,1-1,1.84c-.18.25-.37.51-.54.79L11,7.45a1,1,0,0,0-.89-.69,1,1,0,0,0-1,.58C8.78,8.12,8.39,8.9,8,9.68a14.22,14.22,0,0,0-1.26,2.54,4.59,4.59,0,0,0-.14,2.1,9.16,9.16,0,0,0-1-.38,1,1,0,0,0-1,.23,1,1,0,0,0-.3.94,10.19,10.19,0,0,1,0,4.33,11.68,11.68,0,0,1-.69,2,4.76,4.76,0,0,0-.49,3.23,4.73,4.73,0,0,0,2.47,2.78,2.42,2.42,0,0,0-.1.32,1.34,1.34,0,0,0,0,.2H3a1,1,0,0,0,0,2H29a1,1,0,0,0,0-2ZM13.17,24.08a6,6,0,0,1,6.86.05A5.51,5.51,0,0,0,17.4,27.8a.67.67,0,0,0,0,.2H15.78a1.09,1.09,0,0,0,0-.18A5.55,5.55,0,0,0,13.17,24.08Zm.56-4.87a3,3,0,0,1,.34-1.41,14.33,14.33,0,0,0,.66-2c.13.24.24.48.35.72a12.82,12.82,0,0,1,.77,2.18,1,1,0,0,0,1.65.48,6,6,0,0,0,1.15-1.46c.09-.17.17-.33.25-.5a3.54,3.54,0,0,1,.24,1.13,3.65,3.65,0,0,1-1.24,2.8,7.63,7.63,0,0,0-2-.09c-.22,0-.43.06-.64.1A3.16,3.16,0,0,1,13.73,19.21ZM23,25.42A3.34,3.34,0,0,1,25.68,28H19.42A3.39,3.39,0,0,1,23,25.42ZM5.05,24.16c-.15-.53,0-1,.41-1.93a13.47,13.47,0,0,0,.79-2.34,11.33,11.33,0,0,0,.26-3.36A5.88,5.88,0,0,1,8.06,17.9a5.8,5.8,0,0,1,1,2A1,1,0,1,0,11,19.4a7.65,7.65,0,0,0-1.31-2.65h0c-1-1.61-1.39-2.93-1.08-3.92a16.26,16.26,0,0,1,1.12-2.21l.13-.24.42,1.27s0,0,0,.07a1.18,1.18,0,0,0,.11.19.58.58,0,0,0,.1.12l.16.13.14.08a1.39,1.39,0,0,0,.19.06l.17,0h.17l.09,0h.1l.09,0a1,1,0,0,0,.17-.1L12,12a1.58,1.58,0,0,0,.12-.15,1.3,1.3,0,0,0,.08-.17,1.21,1.21,0,0,0,0-.18,1.36,1.36,0,0,0,0-.2.34.34,0,0,0,0-.1,3.7,3.7,0,0,1,0-.94,4.44,4.44,0,0,1,1-2.12,7.55,7.55,0,0,0,1.2-2.09l.68,1a3.81,3.81,0,0,0-.12.51,4.37,4.37,0,0,0,0,1.53,1,1,0,0,0,2-.33,2.48,2.48,0,0,1,0-.86,3.63,3.63,0,0,1,1.85-2.28,10.28,10.28,0,0,0,1.06,2.62c.19.32.37.59.54.84A2.16,2.16,0,0,1,21,10.18a1.89,1.89,0,0,1-.45,1.13,6,6,0,0,0-.53.6.6.6,0,0,0-.06.11.66.66,0,0,0-.09.19,1.16,1.16,0,0,0,0,.18.59.59,0,0,0,0,.19,1.48,1.48,0,0,0,0,.19.85.85,0,0,0,.06.17.71.71,0,0,0,.11.17.41.41,0,0,0,.07.11s0,0,.05,0l.05.05.12.06a.76.76,0,0,0,.18.09l.19,0,.12,0h.07a1,1,0,0,0,.17,0,1.06,1.06,0,0,0,.19-.06.91.91,0,0,0,.16-.11.41.41,0,0,0,.11-.07.81.81,0,0,0,.09-.1h0a6.15,6.15,0,0,1,1-1c.15-.11.3-.22.46-.32a5.44,5.44,0,0,0,.38,2.3,6.46,6.46,0,0,0,.72,1.24,1.68,1.68,0,0,1,.4.82,1.74,1.74,0,0,1-.43,1.07c-.19.2-.37.4-.55.63a7.89,7.89,0,0,0-1.37,2.73,1,1,0,0,0,1.93.53,6,6,0,0,1,1-2l0,0a5.87,5.87,0,0,0,.41-.46l.35-.33a7,7,0,0,0-.19,1.35,10.77,10.77,0,0,0,.19,2.32,2.9,2.9,0,0,1-.06,2,2.12,2.12,0,0,1-.33.41,4.91,4.91,0,0,0-2.24-.91,4.82,4.82,0,0,0-.93,0A8.92,8.92,0,0,0,20,21.81a5.42,5.42,0,0,0,1.16-3.54A5.59,5.59,0,0,0,19,14.11a1,1,0,0,0-1.61.79,3.77,3.77,0,0,1-.23,1.32l-.24-.54a15.69,15.69,0,0,0-2-3.23,1,1,0,0,0-1.09-.33,1,1,0,0,0-.69.89,13.14,13.14,0,0,1-.24,1.78,13.14,13.14,0,0,1-.7,2.28,4.57,4.57,0,0,0-.46,2.37A4.17,4.17,0,0,0,13,21.86a8.43,8.43,0,0,0-2.19,1.56,5.25,5.25,0,0,0-4.37,2.23A2.7,2.7,0,0,1,5.05,24.16Zm6.05,1.26A3.33,3.33,0,0,1,13.77,28H7.51A3.4,3.4,0,0,1,11.1,25.42Z"/></g></svg>