<svg fill="currentColor" xmlns="http://www.w3.org/2000/svg" viewBox="0 0 32 32"><g id="jumper"><path d="M29.74,17.15,26.79,9.78a1.38,1.38,0,0,1-.07-.26C26.61,9.11,26.32,8,25.23,8a7.32,7.32,0,0,0-1.67.44C24,6.9,24,6.66,23.41,6.3a1.23,1.23,0,0,0-.29-.13L21,5.32V3a1,1,0,0,0-1-1H12a1,1,0,0,0-1,1V5.32l-2.22.89A6.45,6.45,0,0,0,5.21,9.78L2.26,17.15a1.68,1.68,0,0,0,.55,2l2.95,2.21a1.67,1.67,0,0,0,1.38.29A1.65,1.65,0,0,0,8,21.1V29a1,1,0,0,0,1,1H23a1,1,0,0,0,1-1V21.1a1.65,1.65,0,0,0,.86.51,1.67,1.67,0,0,0,1.38-.29l3-2.21A1.68,1.68,0,0,0,29.74,17.15ZM13,4h6V6H13Zm9,24H10V27H22Zm3.36-8.52L24,16.76V14a1,1,0,0,0-2,0V25H10V14a1,1,0,0,0-2,0v2.76L6.64,19.48,4.21,17.66l2.86-7.13A4.38,4.38,0,0,1,9.53,8.07l1.58-.64A1,1,0,0,0,12,8h8a1,1,0,0,0,.89-.57l.78.32c-.16.53-.4,1.28-.62,1.93a1,1,0,0,0,.24,1,1,1,0,0,0,1,.24c.87-.29,1.87-.62,2.49-.81l.12.39,2.86,7.13Z"/><path d="M18,15V11a1,1,0,0,0-1.45-.89L14.76,11H12a1,1,0,0,0-1,1v3a1,1,0,0,0,1,1h1.59l.7.71A1,1,0,0,0,15,17a.91.91,0,0,0,.45-.11l2-1A1,1,0,0,0,18,15Zm-2-.62-.8.4-.49-.49A1,1,0,0,0,14,14H13V13h2a1,1,0,0,0,.45-.11l.55-.27Z"/><path d="M21,19a1,1,0,0,0-1-1,1,1,0,0,0-2,0,1,1,0,0,0,0,2v1a1,1,0,0,0,0,2,1,1,0,0,0,2,0,1,1,0,0,0,0-2V20A1,1,0,0,0,21,19Z"/></g></svg>