<svg fill="currentColor" xmlns="http://www.w3.org/2000/svg" viewBox="0 0 32 32"><g id="paper"><path d="M29.42,24.84l-.92-.93.9-1.2a2.55,2.55,0,0,0-.18-3.3,8,8,0,0,0-1.36-1.11A7.66,7.66,0,0,0,25,17.22a2.65,2.65,0,0,0-1.58.26l-.91.45-.71-.71a2.1,2.1,0,0,0-3,0l-1.67,1.66a2.1,2.1,0,0,0-.39,2.42l.25.51-1.5,1a2.15,2.15,0,0,0-.75,2.7,7.87,7.87,0,0,0,.73,1.22,8.61,8.61,0,0,0,4.72,3.19,2.32,2.32,0,0,0,.58.08,2.14,2.14,0,0,0,1.78-.95l.49-.73,1.09,1.09a2,2,0,0,0,1.39.58,2,2,0,0,0,.76-.15,9,9,0,0,0,3.19-2.31A2,2,0,0,0,29.42,24.84Zm-2.67,2.49a10,10,0,0,1-1.17.67l-1.39-1.39a1,1,0,0,0-1.7-1l-1.56,2.35a.14.14,0,0,1-.16,0,6.62,6.62,0,0,1-3.64-2.43,5.2,5.2,0,0,1-.54-.91.14.14,0,0,1,.05-.18l1.29-.86.5,1a1,1,0,0,0,.89.55,1.06,1.06,0,0,0,.45-.11,1,1,0,0,0,.45-1.34l-1.65-3.29a.11.11,0,0,1,0-.12l1.66-1.66a.1.1,0,0,1,.14,0l3.22,3.22A1,1,0,1,0,25,20.44l-1-1,.31-.15a.55.55,0,0,1,.37-.07,5.52,5.52,0,0,1,2.09.79,5.22,5.22,0,0,1,1,.81.55.55,0,0,1,0,.71l-2.28,3a1,1,0,0,0,.2,1.4,1,1,0,0,0,.6.2,1,1,0,0,0,.8-.4l.17-.23.72.69A7.43,7.43,0,0,1,26.75,27.33Z"/><path d="M14.91,16.48a2.48,2.48,0,0,0,1.75-4.23L15.41,11l.76-.75,5.35,3.06a2.5,2.5,0,0,0,3-.4l.08-.09A2.46,2.46,0,0,0,25.31,11a2.49,2.49,0,0,0-.84-1.78L18.83,4.28a4.26,4.26,0,0,0-3.54-1l-3.37.56s0-.06,0-.09a1,1,0,0,0-.59-.52L7.69,2.05a1,1,0,0,0-1.23.56l-3.38,8a1,1,0,0,0,0,.84,1,1,0,0,0,.65.52l4,1L8,13a1,1,0,0,0,.93-.64l0-.09,4.35,3.63A2.48,2.48,0,0,0,14.91,16.48ZM7.38,10.81l-2-.5L8,4.23l1.74.57Zm4-4.86,4.23-.71a2.31,2.31,0,0,1,1.9.54l5.63,4.93a.51.51,0,0,1,.17.35.53.53,0,0,1-.14.35l-.09.08a.46.46,0,0,1-.57.08L17.06,8.45a1.86,1.86,0,0,0-2.23.3l-.93.94a1.84,1.84,0,0,0,0,2.62l1.35,1.35a.5.5,0,0,1,0,.68.49.49,0,0,1-.65,0L9.72,10.3Z"/></g></svg>