<svg fill="currentColor" xmlns="http://www.w3.org/2000/svg" viewBox="0 0 32 32"><g id="recycle_logo" data-name="recycle logo"><path d="M27.08,3H4.92A2.92,2.92,0,0,0,2,5.92V26.08A2.92,2.92,0,0,0,4.92,29H27.08A2.92,2.92,0,0,0,30,26.08V5.92A2.92,2.92,0,0,0,27.08,3ZM4,5.92A.92.92,0,0,1,4.92,5H27.08a.92.92,0,0,1,.92.92V21H4ZM4,26.08V23h6v4H4.92A.92.92,0,0,1,4,26.08Zm24,0a.92.92,0,0,1-.92.92H12V23H28Z"/><path d="M20.81,15a1,1,0,0,0-1.39-.23A1,1,0,0,0,19.08,16H17a1,1,0,0,0,0,2h4a1,1,0,0,0,.81-1.58Z"/><path d="M17.33,13.58a1,1,0,0,0,.81.42,1,1,0,0,0,.58-.19A1,1,0,0,0,19,12.42l-2.15-3a1,1,0,0,0-1.62,0l-1,1.4A1,1,0,1,0,15.81,12l.19-.26Z"/><path d="M14,16H12.94l1-1.42a1,1,0,0,0-1.63-1.16l-2.14,3A1,1,0,0,0,11,18h3a1,1,0,0,0,0-2Z"/><path d="M8,24H6a1,1,0,0,0,0,2H8a1,1,0,0,0,0-2Z"/><path d="M25,26a1,1,0,0,0,0-2h0a1,1,0,1,0,0,2Z"/><path d="M22,26a1,1,0,0,0,0-2h0a1,1,0,1,0,0,2Z"/><path d="M19,26a1,1,0,0,0,0-2h0a1,1,0,1,0,0,2Z"/></g></svg>