<svg fill="currentColor" xmlns="http://www.w3.org/2000/svg" viewBox="0 0 32 32"><g id="recycle"><path d="M28.29,2H3.71A1.72,1.72,0,0,0,2,3.71V6.29A1.73,1.73,0,0,0,3.08,7.88L4.76,26.46A3.88,3.88,0,0,0,8.64,30H23.36a3.88,3.88,0,0,0,3.88-3.54L28.92,7.88A1.73,1.73,0,0,0,30,6.29V3.71A1.72,1.72,0,0,0,28.29,2ZM4,4H28V6H4ZM26.9,8,25.36,25H7a1,1,0,0,0-.35.07L5.1,8ZM23.36,28H8.64A1.88,1.88,0,0,1,7,27H25A1.89,1.89,0,0,1,23.36,28Z"/><path d="M19.08,19H17a1,1,0,0,0,0,2h4a1,1,0,0,0,.81-1.58l-1-1.4a1,1,0,0,0-1.39-.23A1,1,0,0,0,19.08,19Z"/><path d="M15.81,15l.19-.26,1.33,1.86a1,1,0,0,0,.81.42.94.94,0,0,0,.58-.19A1,1,0,0,0,19,15.42l-2.15-3a1,1,0,0,0-1.62,0l-1,1.4A1,1,0,0,0,15.81,15Z"/><path d="M11,21h3a1,1,0,0,0,0-2H12.94l1-1.42a1,1,0,0,0-1.63-1.16l-2.14,3A1,1,0,0,0,11,21Z"/></g></svg>