<svg fill="currentColor" xmlns="http://www.w3.org/2000/svg" viewBox="0 0 32 32"><g id="rubbish"><path d="M23.34,9H21V7h.11A1.89,1.89,0,0,0,23,5.11V3.89A1.89,1.89,0,0,0,21.11,2H10.89A1.89,1.89,0,0,0,9,3.89V5.11A1.89,1.89,0,0,0,10.89,7H11V9H8.66A2.66,2.66,0,0,0,6,11.66v5.68A2.66,2.66,0,0,0,8.66,20H9v9a1,1,0,0,0,1,1H22a1,1,0,0,0,1-1V20h.34A2.66,2.66,0,0,0,26,17.34V11.66A2.66,2.66,0,0,0,23.34,9ZM11,4H21V5H11Zm2,3h6V9H13Zm8,21H11V20H21Zm3-10.66a.67.67,0,0,1-.66.66H8.66A.67.67,0,0,1,8,17.34V11.66A.67.67,0,0,1,8.66,11H23.34a.67.67,0,0,1,.66.66Z"/><path d="M15.94,27.06a3,3,0,0,0,2.7-4.28l.13-.13a1,1,0,1,0-1.42-1.42l-.13.13a3,3,0,1,0-1.28,5.7Zm-.71-3.71a1,1,0,0,1,.46-.24,1,1,0,0,0,.25.95,1,1,0,0,0,.71.29,1,1,0,0,0,.24,0,1,1,0,0,1-.24.46,1,1,0,1,1-1.42-1.42Z"/></g></svg>