<svg fill="currentColor" xmlns="http://www.w3.org/2000/svg" viewBox="0 0 32 32"><g id="skip"><path d="M29,23V17.41a3.27,3.27,0,0,0-.22-1.16l-1.52-3.79A2.3,2.3,0,0,0,25.1,11H20V7.56A2.56,2.56,0,0,0,17.44,5H15.29a2.42,2.42,0,0,0-.37-1,2.39,2.39,0,0,0-4.2.45l-.2.5H7.75a2.56,2.56,0,0,0-2,1L2.22,10.38a.25.25,0,0,0,0,.09.9.9,0,0,0-.12.24,1,1,0,0,0,0,.17S2,11,2,11a.7.7,0,0,0,0,.14.34.34,0,0,0,0,.1l1.7,6.81A1,1,0,0,0,3,19v4a1,1,0,0,0,0,2H4a4,4,0,0,0,8,0h8a4,4,0,0,0,8,0h1a1,1,0,0,0,0-2Zm-3.6-9.79L26.92,17H23V13h2.1A.31.31,0,0,1,25.4,13.21ZM10.48,18l2.41-6L13,12h5v.7L14.46,18ZM18,16.3V18H16.87Zm0-8.74V10H13.68l1.21-3L15,7h2.44A.56.56,0,0,1,18,7.56ZM12.94,5a.42.42,0,0,1,.33.17.4.4,0,0,1,0,.37L8.32,18H7.48l5.1-12.75A.39.39,0,0,1,12.94,5ZM5.6,17.3,4.28,12H7.72ZM7.31,7.21A.58.58,0,0,1,7.75,7h2l-1.2,3H5.08ZM8,27a2,2,0,1,1,2-2A2,2,0,0,1,8,27Zm3.44-4A4,4,0,0,0,5,22.38V20H18v3ZM20,23V13h1v5a1,1,0,0,0,1,1h5v3.38a4,4,0,0,0-6.44.62Zm4,4a2,2,0,1,1,2-2A2,2,0,0,1,24,27Z"/></g></svg>