<svg fill="currentColor" xmlns="http://www.w3.org/2000/svg" viewBox="0 0 32 32"><g id="smoke"><path d="M29.53,23.15a1,1,0,0,0-1,0,18.14,18.14,0,0,1-8,1.89H17a1.42,1.42,0,0,0,0-.2,5,5,0,0,1,.83-2.75A6.84,6.84,0,0,0,19,18.2V4.06A2.06,2.06,0,0,0,16.94,2H13.06A2.06,2.06,0,0,0,11,4.06V17.2A5,5,0,0,1,10.17,20,6.84,6.84,0,0,0,9,23.8v1a18,18,0,0,1-5.55-1.71A1,1,0,0,0,2,24a6,6,0,0,0,6,6H24a6,6,0,0,0,6-6A1,1,0,0,0,29.53,23.15ZM17,4.06V15H13l.05-11ZM11,23.8a5,5,0,0,1,.83-2.75A6.84,6.84,0,0,0,13,17.2V17h4v1.2A5,5,0,0,1,16.17,21,6.84,6.84,0,0,0,15,24.8a1.42,1.42,0,0,0,0,.2H11ZM24,28H8a4,4,0,0,1-3.62-2.31A20,20,0,0,0,11.47,27h9.06a20,20,0,0,0,7.09-1.31A4,4,0,0,1,24,28Z"/><path d="M6.62,15A3.66,3.66,0,0,0,6,17a1,1,0,0,0,2,0,1.71,1.71,0,0,1,.29-.95l.54-.81a3.7,3.7,0,0,0,0-4.11,1.71,1.71,0,0,1,0-1.89,3.7,3.7,0,0,0,0-4.11l-.54-.82A1.69,1.69,0,0,1,8,3.36a1,1,0,1,0-2,0,3.67,3.67,0,0,0,.62,2.06l.55.82a1.71,1.71,0,0,1,0,1.89,3.7,3.7,0,0,0,0,4.11,1.71,1.71,0,0,1,0,1.89Z"/><path d="M21.62,14.58A3.67,3.67,0,0,0,21,16.64a1,1,0,0,0,2,0,1.69,1.69,0,0,1,.29-1l.54-.82a3.7,3.7,0,0,0,0-4.11,1.71,1.71,0,0,1,0-1.89,3.7,3.7,0,0,0,0-4.11L23.29,4A1.71,1.71,0,0,1,23,3a1,1,0,0,0-2,0,3.66,3.66,0,0,0,.62,2.05l.55.82a1.71,1.71,0,0,1,0,1.89,3.7,3.7,0,0,0,0,4.11,1.71,1.71,0,0,1,0,1.89Z"/></g></svg>