<svg fill="currentColor" xmlns="http://www.w3.org/2000/svg" viewBox="0 0 32 32"><g id="trash"><path d="M27.46,6H26V4.42A2.43,2.43,0,0,0,23.58,2H18.42A2.43,2.43,0,0,0,16,4.42V6H14.54A2.54,2.54,0,0,0,12,8.54V17a1,1,0,0,0,2,0V13H28l.05,15H13.93a1,1,0,0,0,0,2H28.07A1.94,1.94,0,0,0,30,28.07V8.54A2.54,2.54,0,0,0,27.46,6ZM18,4.42A.42.42,0,0,1,18.42,4h5.16a.42.42,0,0,1,.42.42V6H18ZM28,11H14V8.54A.54.54,0,0,1,14.54,8H27.46a.54.54,0,0,1,.54.54V11Z"/><path d="M22,24V17a1,1,0,0,0-2,0v7a1,1,0,0,0,2,0Z"/><path d="M26,24V17a1,1,0,0,0-2,0v7a1,1,0,0,0,2,0Z"/><path d="M18,24V17a1,1,0,0,0-2,0v7a1,1,0,0,0,2,0Z"/><path d="M13.62,22.12c-.11-.27-.22-.54-.35-.82A15.44,15.44,0,0,0,11,17.74l.63-1.57A1.59,1.59,0,0,0,10.14,14H5.86a1.59,1.59,0,0,0-1.47,2.17L5,17.8A14.88,14.88,0,0,0,2.8,21.3c-.17.38-.32.75-.46,1.11A5.54,5.54,0,0,0,3,27.53,5.82,5.82,0,0,0,7.8,30H8a6.11,6.11,0,0,0,5-2.64A5.58,5.58,0,0,0,13.62,22.12ZM9.52,16l-.4,1H6.88l-.4-1Zm1.82,10.23A4.1,4.1,0,0,1,8,28H7.8a3.83,3.83,0,0,1-3.14-1.62,3.53,3.53,0,0,1-.44-3.28,9.77,9.77,0,0,1,.4-1,13.2,13.2,0,0,1,2-3.14H9.44a13.2,13.2,0,0,1,2,3.14c.11.24.21.47.3.7A3.61,3.61,0,0,1,11.34,26.23Z"/></g></svg>