<svg fill="currentColor" xmlns="http://www.w3.org/2000/svg" viewBox="0 0 32 32"><g id="trash_2" data-name="trash 2"><path d="M21,16a1,1,0,0,0-1,1v7a1,1,0,0,0,2,0V17A1,1,0,0,0,21,16Z"/><path d="M25,16a1,1,0,0,0-1,1v7a1,1,0,0,0,2,0V17A1,1,0,0,0,25,16Z"/><path d="M17,16a1,1,0,0,0-1,1v4a1,1,0,0,0,2,0V17A1,1,0,0,0,17,16Z"/><path d="M27,6H26V4.42A2.43,2.43,0,0,0,23.58,2H18.42A2.43,2.43,0,0,0,16,4.42V6H15a3,3,0,0,0-3,3V20a3.55,3.55,0,0,0-3.58,1.79,2.92,2.92,0,0,0-1.9.35,3,3,0,0,0-1.46,2.08,4.49,4.49,0,0,0-1.75,1.08A4.75,4.75,0,0,0,2,29.11,1,1,0,0,0,3,30H28a2,2,0,0,0,2-2V9A3,3,0,0,0,27,6ZM18,4.42A.42.42,0,0,1,18.42,4h5.16a.42.42,0,0,1,.42.42V6H18ZM14,9a1,1,0,0,1,1-1H27a1,1,0,0,1,1,1v2H14ZM4.06,28a2.48,2.48,0,0,1,.67-1.29A2.56,2.56,0,0,1,6.17,26,1,1,0,0,0,7,24.89a1.05,1.05,0,0,1,.51-1,1.14,1.14,0,0,1,1,0A1,1,0,0,0,10,23.2a1.55,1.55,0,0,1,2.81-.56A1.54,1.54,0,0,1,13,23.8a1,1,0,0,0,1.46,1.08,1.15,1.15,0,0,1,1,0,1.05,1.05,0,0,1,.51,1,1,1,0,0,0,.29.82,1,1,0,0,0,.81.28,2.79,2.79,0,0,1,2.19.72,2.17,2.17,0,0,1,.24.29Zm17.73,0a4.47,4.47,0,0,0-1.07-1.71A4.66,4.66,0,0,0,17.94,25a3.06,3.06,0,0,0-1.42-1.88A2.88,2.88,0,0,0,15,22.75a3.75,3.75,0,0,0-.52-1.22A4.22,4.22,0,0,0,14,21V13H28l0,15Z"/><path d="M3.29,20.71a1,1,0,0,0,1.42,0l1-1a1,1,0,0,0-1.42-1.42l-.29.3-.29-.3a1,1,0,0,0-1.42,1.42Z"/><path d="M7.29,16.29a1,1,0,0,0,0,1.42l1,1a1,1,0,0,0,1.42,0l1-1a1,1,0,0,0-1.42-1.42l-.29.3-.29-.3A1,1,0,0,0,7.29,16.29Z"/><path d="M5.29,14.71a1,1,0,0,0,1.42,0l1-1a1,1,0,0,0-1.42-1.42l-.29.3-.29-.3a1,1,0,0,0-1.42,1.42Z"/></g></svg>