<svg fill="currentColor" xmlns="http://www.w3.org/2000/svg" viewBox="0 0 32 32"><g id="waste_bin" data-name="waste bin"><path d="M29,4H3A1,1,0,0,0,3,6h.13l.71,5.2A1.58,1.58,0,0,0,3,12.59v2.82A1.59,1.59,0,0,0,4.59,17h0L5.7,24.84A3.66,3.66,0,0,0,9.32,28H22.68a3.66,3.66,0,0,0,3.62-3.16L27.37,17h0A1.59,1.59,0,0,0,29,15.41V12.59a1.58,1.58,0,0,0-.84-1.39L28.87,6H29a1,1,0,0,0,0-2Zm-2,9v2H22.92a6.29,6.29,0,0,0,0-2ZM16,19a5,5,0,1,1,5-5A5,5,0,0,1,16,19ZM9.08,15H5V13H9.08a6.29,6.29,0,0,0,0,2Zm13.6,11H9.32a1.67,1.67,0,0,1-1.64-1.43L7.6,24H24.4l-.08.57A1.67,1.67,0,0,1,22.68,26Zm2-4H7.33l-.68-5h3a7,7,0,0,0,12.62,0h3Zm1.5-11H22.31A7,7,0,0,0,9.69,11H5.83L5.15,6h21.7Z"/></g></svg>