<svg fill="currentColor" xmlns="http://www.w3.org/2000/svg" viewBox="0 0 32 32"><g id="archives"><path d="M18.23,2H13.77A1.77,1.77,0,0,0,12,3.77V28.23A1.77,1.77,0,0,0,13.77,30h4.46A1.77,1.77,0,0,0,20,28.23V3.77A1.77,1.77,0,0,0,18.23,2ZM14,4h4V24H14Zm4,24H14V26h4Z"/><path d="M9.23,2H4.77A1.77,1.77,0,0,0,3,3.77V28.23A1.77,1.77,0,0,0,4.77,30H9.23A1.77,1.77,0,0,0,11,28.23V3.77A1.77,1.77,0,0,0,9.23,2ZM5,4H9V24H5ZM9,28H5V26H9Z"/><path d="M27.23,2H22.77A1.77,1.77,0,0,0,21,3.77V28.23A1.77,1.77,0,0,0,22.77,30h4.46A1.77,1.77,0,0,0,29,28.23V3.77A1.77,1.77,0,0,0,27.23,2ZM23,4h4V24H23Zm4,24H23V26h4Z"/><path d="M7,6A1,1,0,0,0,6,7v9a1,1,0,0,0,2,0V7A1,1,0,0,0,7,6Z"/><path d="M16,6a1,1,0,0,0-1,1v9a1,1,0,0,0,2,0V7A1,1,0,0,0,16,6Z"/><path d="M25,6a1,1,0,0,0-1,1v9a1,1,0,0,0,2,0V7A1,1,0,0,0,25,6Z"/></g></svg>