<svg fill="currentColor" xmlns="http://www.w3.org/2000/svg" viewBox="0 0 32 32"><g id="book"><path d="M22.94,2H8.06A3.06,3.06,0,0,0,5,5.06V8H4a1,1,0,0,0,0,2H5v5H4a1,1,0,0,0,0,2H5v5H4a1,1,0,0,0,0,2H5v2.94A3.06,3.06,0,0,0,8.06,30H22.94A3.06,3.06,0,0,0,26,26.94V5.06A3.06,3.06,0,0,0,22.94,2ZM7,26.94V24H8a1,1,0,0,0,0-2H7V17H8a1,1,0,0,0,0-2H7V10H8A1,1,0,0,0,8,8H7V5.06A1.05,1.05,0,0,1,8.06,4H10V28H8.06A1.05,1.05,0,0,1,7,26.94Zm17,0A1.05,1.05,0,0,1,22.94,28H12V4H22.94A1.05,1.05,0,0,1,24,5.06Z"/><path d="M20,9H16a1,1,0,0,0,0,2h4a1,1,0,0,0,0-2Z"/></g></svg>