<svg fill="currentColor" xmlns="http://www.w3.org/2000/svg" viewBox="0 0 32 32"><g id="brush"><path d="M30,4.93a3.25,3.25,0,0,0-3.26-2.86,6,6,0,0,0-3.46,1.36,46.9,46.9,0,0,0-4.84,4.11c-3.67,3.66-4.79,5-5.16,5.4a22.64,22.64,0,0,0-2.91,4A21.49,21.49,0,0,0,9.3,19.23a5.44,5.44,0,0,0-2.05.47A5.57,5.57,0,0,0,4.8,21.84a5.39,5.39,0,0,0-.72,2.31,2.26,2.26,0,0,1-.43,1.3,2.29,2.29,0,0,1-1.19.73,1,1,0,0,0-.68.72,1,1,0,0,0,.27,1,7.28,7.28,0,0,0,3.81,2,7.55,7.55,0,0,0,1.23.1,6.67,6.67,0,0,0,4.59-1.72,6.4,6.4,0,0,0,2.05-4.51v-.11A24.42,24.42,0,0,0,16.24,22a25.71,25.71,0,0,0,3.67-3.23c2.26-2.3,3.4-3.45,5.19-5.43C29,9,30.05,7.59,30,5.57,30,5.35,30,5.13,30,4.93ZM10.32,26.74a5,5,0,0,1-4.12,1.1,5,5,0,0,1-1.58-.55,4,4,0,0,0,.59-.58,4.14,4.14,0,0,0,.85-2.29,3.5,3.5,0,0,1,.45-1.54,3.44,3.44,0,0,1,1.57-1.36,3.74,3.74,0,0,1,2.36-.22,1.28,1.28,0,0,1,1,.8,3.85,3.85,0,0,1,.3,1.57A4.39,4.39,0,0,1,10.32,26.74Zm3-5.24c0-.05,0-.1-.05-.15a3.29,3.29,0,0,0-1.94-1.84c.24-.54.49-1.07.77-1.59s.46-.79.73-1.18l3.11,3c-.28.23-.57.45-.89.68C14.51,20.79,13.93,21.15,13.34,21.5ZM23.62,12c-1.77,2-2.89,3.1-5.13,5.37-.35.36-.69.69-1,1l-3.4-3.26c.22-.27.46-.56.74-.88S16.24,12.56,19.85,9A45.5,45.5,0,0,1,24.47,5a4,4,0,0,1,2.34-1A1.2,1.2,0,0,1,28,5.16a2.77,2.77,0,0,1,0,.42C28,6.75,27.43,7.78,23.62,12Z"/></g></svg>