<svg fill="currentColor" xmlns="http://www.w3.org/2000/svg" viewBox="0 0 32 32"><g id="calculator"><path d="M24,2H8A3,3,0,0,0,5,5V27a3,3,0,0,0,3,3H24a3,3,0,0,0,3-3V5A3,3,0,0,0,24,2Zm1,25a1,1,0,0,1-1,1H8a1,1,0,0,1-1-1V5A1,1,0,0,1,8,4H24a1,1,0,0,1,1,1Z"/><path d="M22,6H10A1,1,0,0,0,9,7v5a1,1,0,0,0,1,1H22a1,1,0,0,0,1-1V7A1,1,0,0,0,22,6Zm-1,5H11V8H21Z"/><rect x="10" y="15" width="3" height="3" rx="1"/><rect x="14.5" y="15" width="3" height="3" rx="1"/><rect x="19" y="15" width="3" height="3" rx="1"/><rect x="10" y="19" width="3" height="3" rx="1"/><rect x="14.5" y="19" width="3" height="3" rx="1"/><rect x="19" y="19" width="3" height="3" rx="1"/><rect x="10" y="22.97" width="3" height="3" rx="1"/><rect x="14.5" y="22.97" width="3" height="3" rx="1"/><rect x="19" y="22.97" width="3" height="3" rx="1"/></g></svg>