<svg fill="currentColor" xmlns="http://www.w3.org/2000/svg" viewBox="0 0 32 32"><g id="clip"><path d="M28,16.92A1,1,0,0,0,27,16H21.51l-.44-2.67a6.84,6.84,0,0,0,1.84-4.52A7.08,7.08,0,0,0,16,2,7.08,7.08,0,0,0,9.09,8.81a6.84,6.84,0,0,0,1.84,4.52L10.49,16H5a1,1,0,0,0-1,.92l-1,12a1,1,0,0,0,.26.76A1,1,0,0,0,4,30H8a1,1,0,0,0,1-1h2a1,1,0,0,0,1,1h8a1,1,0,0,0,1-1h2a1,1,0,0,0,1,1h4a1,1,0,0,0,.74-.32,1.05,1.05,0,0,0,.26-.76ZM12.69,12.28a5,5,0,0,1-1.6-3.46A5,5,0,0,1,16,4a5,5,0,0,1,4.91,4.82,5,5,0,0,1-1.6,3.46,1,1,0,0,0-.3.88L19.49,16h-7L13,13.16A1,1,0,0,0,12.69,12.28ZM25,28a1,1,0,0,0-1-1H20a1,1,0,0,0-1,1H13a1,1,0,0,0-1-1H8a1,1,0,0,0-1,1H5.09l.83-10h4.23L9,24.84a1,1,0,0,0,2,.32L12.18,18h7.64L21,25.16A1,1,0,0,0,22,26h.16A1,1,0,0,0,23,24.84L21.85,18h4.23l.83,10Z"/></g></svg>