<svg fill="currentColor" xmlns="http://www.w3.org/2000/svg" viewBox="0 0 32 32"><g id="compass"><path d="M28,20H23.81a6.87,6.87,0,0,0-.56-1.75l-3-6.28a1.05,1.05,0,0,0-.3-.36,3.95,3.95,0,0,0-3-4.48A.5.5,0,0,0,17,7V3a1,1,0,0,0-2,0V7a.5.5,0,0,0,0,.13,4,4,0,0,0-3,4.48,1.05,1.05,0,0,0-.3.36l-3,6.28A6.87,6.87,0,0,0,8.19,20H4a1,1,0,0,0,0,2H8.1a7,7,0,0,0,.75,2.56l.67,1.29L8.11,28.54a1,1,0,0,0,.43,1.35A1,1,0,0,0,9,30a1,1,0,0,0,.89-.54l1.65-3.15h0v0L13.61,22h4.78l2.06,4.28v0h0l1.65,3.15A1,1,0,0,0,23,30a1,1,0,0,0,.46-.11,1,1,0,0,0,.43-1.35l-1.41-2.69.67-1.29A7,7,0,0,0,23.9,22H28a1,1,0,0,0,0-2Zm-6.55-.88a5.06,5.06,0,0,1-.07,4.49l-4.22-8.8a4,4,0,0,0,1.67-1l.05-.07ZM14.59,9.58a2,2,0,1,1,0,2.83A2,2,0,0,1,14.59,9.58Zm-4,9.54,2.57-5.35s0,0,.05.06a4,4,0,0,0,1.67,1l-4.22,8.8A5.06,5.06,0,0,1,10.55,19.12Zm4,.88L16,17l1.43,3Z"/></g></svg>