<svg fill="currentColor" xmlns="http://www.w3.org/2000/svg" viewBox="0 0 32 32"><g id="crayon"><path d="M29,11V7.68a1,1,0,0,0-.15-.53L27.39,4.79a1.62,1.62,0,0,0-2.78,0l-.61,1-.61-1a1.62,1.62,0,0,0-2.78,0l-.61,1-.61-1a1.62,1.62,0,0,0-2.78,0l-.61,1-.61-1a1.62,1.62,0,0,0-2.78,0l-.61,1-.61-1a1.62,1.62,0,0,0-2.78,0L8,5.77l-.61-1a1.62,1.62,0,0,0-2.78,0L3.15,7.15A1,1,0,0,0,3,7.68V11a1,1,0,0,0-1,1V26.42A2.59,2.59,0,0,0,4.58,29H27.42A2.59,2.59,0,0,0,30,26.42V12A1,1,0,0,0,29,11ZM27,8v3H25V8l1-1.62ZM23,8v3H21V8l1-1.62ZM19,8v3H17V8l1-1.62ZM15,8v3H13V8l1-1.62ZM11,8v3H9V8l1-1.62ZM5,8,6,6.34,7,8v3H5ZM28,26.42a.58.58,0,0,1-.58.58H4.58A.58.58,0,0,1,4,26.42V13H28Z"/><path d="M22,16H10a1,1,0,0,0-1,1v6a1,1,0,0,0,1,1H22a1,1,0,0,0,1-1V17A1,1,0,0,0,22,16Zm-1,6H11V18H21Z"/></g></svg>