<svg fill="currentColor" xmlns="http://www.w3.org/2000/svg" viewBox="0 0 32 32"><g id="eraser"><path d="M17.52,26.48h.08A1.64,1.64,0,0,0,18.73,26l10.49-9.52a1.7,1.7,0,0,0,.12-2.39l-8.73-9.6a1.69,1.69,0,0,0-2.38-.12L7.74,13.94a1.68,1.68,0,0,0-.4,1.93L2.76,20A2.29,2.29,0,0,0,2,21.51a2.07,2.07,0,0,0,.52,1.6L6.06,27H4a1,1,0,0,0,0,2H26a1,1,0,0,0,0-2H15.84l.86-.78A1.66,1.66,0,0,0,17.52,26.48ZM19.34,6.1l8.3,9.15-10,9.1,0,0c0-.06-.06-.12-.1-.17l-8-8.85a1,1,0,0,0-.13-.09ZM4.11,21.5l4.5-4.09,6.7,7.37L12.86,27H8.75L4,21.77C4,21.7,4,21.56,4.11,21.5Z"/></g></svg>