<svg fill="currentColor" xmlns="http://www.w3.org/2000/svg" viewBox="0 0 32 32"><g id="glue"><path d="M20.56,15c-.19,0-.37-.21-.43-.49L19.81,13H21a1,1,0,0,0,1-1V9a1,1,0,0,0-1-1H19l0-1a7.24,7.24,0,0,0-.23-1.86,7,7,0,0,0-.7-1.75L18,3.19a2.21,2.21,0,0,0-3.92,0l-.11.21A7.24,7.24,0,0,0,13,7V8H11a1,1,0,0,0-1,1v3a1,1,0,0,0,1,1h1.19l-.32,1.51c-.06.28-.24.49-.43.49A2.57,2.57,0,0,0,9,17.68V29a1,1,0,0,0,1,1H22a1,1,0,0,0,1-1V17.68A2.57,2.57,0,0,0,20.56,15ZM15,7a5.24,5.24,0,0,1,.67-2.6l.11-.2c.13-.22.31-.22.44,0l.11.2a5.1,5.1,0,0,1,.5,1.26A5.13,5.13,0,0,1,17,7l0,1H15Zm-3,3h5.79L18,10h0a1,1,0,0,0,.18,0H20v1H12ZM11,28V17.68c0-.39.23-.68.44-.68a2.49,2.49,0,0,0,2.38-2.07L14.24,13h3.52l.42,1.93A2.49,2.49,0,0,0,20.56,17c.21,0,.44.29.44.68V19H15a1,1,0,0,0-1,1v6a1,1,0,0,0,1,1h6v1Zm10-3H16V21h5Z"/></g></svg>