<svg fill="currentColor" xmlns="http://www.w3.org/2000/svg" viewBox="0 0 32 32"><g id="ink"><path d="M21.25,12a.25.25,0,0,1-.25-.25V10h1a1,1,0,0,0,1-1V3a1,1,0,0,0-1-1H10A1,1,0,0,0,9,3V9a1,1,0,0,0,1,1h1v1.75a.25.25,0,0,1-.25.25A3.75,3.75,0,0,0,7,15.75V27.93A2.07,2.07,0,0,0,9.07,30H22.93A2.07,2.07,0,0,0,25,27.93V15.75A3.75,3.75,0,0,0,21.25,12ZM11,4H21V8H11ZM23,27.93a.07.07,0,0,1-.07.07H9.07A.07.07,0,0,1,9,27.93V15.75A1.75,1.75,0,0,1,10.75,14,2.25,2.25,0,0,0,13,11.75V10h6v1.75A2.25,2.25,0,0,0,21.25,14,1.75,1.75,0,0,1,23,15.75Z"/><path d="M19.57,15H12.43A2.43,2.43,0,0,0,10,17.43V26a1,1,0,0,0,1,1H21a1,1,0,0,0,1-1V17.43A2.43,2.43,0,0,0,19.57,15ZM20,25H12V17.43a.43.43,0,0,1,.43-.43h7.14a.43.43,0,0,1,.43.43Z"/><path d="M17.8,19.4a5.93,5.93,0,0,0-1.2-1.2,1,1,0,0,0-1.2,0,5.93,5.93,0,0,0-1.2,1.2,5.35,5.35,0,0,0-.49.78,2.62,2.62,0,0,0,.07,2.57,2.6,2.6,0,0,0,4.44,0,2.62,2.62,0,0,0,.07-2.57A5.35,5.35,0,0,0,17.8,19.4Zm-1.29,2.32a.6.6,0,0,1-1,0,.62.62,0,0,1,0-.61,4.76,4.76,0,0,1,.32-.51,2.43,2.43,0,0,1,.2-.25,2.43,2.43,0,0,1,.2.25,4.76,4.76,0,0,1,.32.51A.62.62,0,0,1,16.51,21.72Z"/></g></svg>