<svg fill="currentColor" xmlns="http://www.w3.org/2000/svg" viewBox="0 0 32 32"><g id="markes"><path d="M18,13H14a1,1,0,0,0-1,1v7a1,1,0,0,0,.29.71l2,2a1,1,0,0,0,1.42,0l2-2A1,1,0,0,0,19,21V14A1,1,0,0,0,18,13Zm-1,7.59-1,1-1-1V15h2Z"/><path d="M10,13H6a1,1,0,0,0-1,1v7a1,1,0,0,0,.29.71l2,2a1,1,0,0,0,1.42,0l2-2A1,1,0,0,0,11,21V14A1,1,0,0,0,10,13ZM9,20.59l-1,1-1-1V15H9Z"/><path d="M21,14v7a1,1,0,0,0,.29.71l2,2a1,1,0,0,0,1.42,0l2-2A1,1,0,0,0,27,21V14a1,1,0,0,0-1-1H22A1,1,0,0,0,21,14Zm2,1h2v5.59l-1,1-1-1Z"/><path d="M28.06,10H23V9a2,2,0,0,0-2-2H19.61a4.26,4.26,0,0,0-7.22,0H11A2,2,0,0,0,9,9v1H3.94A1.94,1.94,0,0,0,2,11.94V25.06A1.94,1.94,0,0,0,3.94,27H28.06A1.94,1.94,0,0,0,30,25.06V11.94A1.94,1.94,0,0,0,28.06,10ZM28,25,4,25.06,3.94,12H9.58A1.43,1.43,0,0,0,11,10.58L11,9h2a1,1,0,0,0,.92-.62,2.26,2.26,0,0,1,4.16,0A1,1,0,0,0,19,9l2,0v1.55A1.43,1.43,0,0,0,22.42,12L28,11.94Z"/><path d="M16,11a1,1,0,0,0,0-2h0a1,1,0,1,0,0,2Z"/></g></svg>