<svg fill="currentColor" xmlns="http://www.w3.org/2000/svg" viewBox="0 0 32 32"><g id="paper_clip" data-name="paper clip"><path d="M22.84,3.4c-3.27-1.81-7.72,0-9.92,4L6.12,19.69a1,1,0,1,0,1.75,1l6.8-12.34c1.67-3,4.9-4.44,7.2-3.17S24.7,9.91,23,12.93L15.94,25.8a4.52,4.52,0,0,1-2.15,2,2.52,2.52,0,0,1-2.2,0,2.54,2.54,0,0,1-1.2-1.85A4.51,4.51,0,0,1,11,23.05l7.11-12.91c.53-1,1.54-1.46,2.21-1.09a1.24,1.24,0,0,1,.56.89,2.52,2.52,0,0,1-.3,1.56L13.7,23.88a1,1,0,0,0,1.75,1l6.83-12.37A4.44,4.44,0,0,0,22.8,9.6a3.18,3.18,0,0,0-1.56-2.3c-1.65-.91-3.86-.06-4.93,1.88L9.2,22.08a6.54,6.54,0,0,0-.78,4.19,4.47,4.47,0,0,0,2.21,3.27,4.19,4.19,0,0,0,2,.52,5.07,5.07,0,0,0,1.91-.4,6.5,6.5,0,0,0,3.13-2.9l7.1-12.86C27,9.91,26.11,5.2,22.84,3.4Z"/></g></svg>