<svg fill="currentColor" xmlns="http://www.w3.org/2000/svg" viewBox="0 0 32 32"><g id="pen_2" data-name="pen 2"><path d="M22.59,3.32l-2.23-1a2.76,2.76,0,0,0-2.11-.11,2.73,2.73,0,0,0-1.57,1.43L9.31,19.17a1,1,0,0,0,0,.76.79.79,0,0,0,.15.25,4.13,4.13,0,0,1-.52.33,4.24,4.24,0,0,1-1.1.39A1,1,0,0,0,7,22l1,7.13a1,1,0,0,0,.57.76,1,1,0,0,0,.42.09,1,1,0,0,0,.52-.14l6.18-3.71a1,1,0,0,0,.38-1.31,4.83,4.83,0,0,1-.4-1.1c0-.2,0-.4-.07-.6a.93.93,0,0,0,.29,0,1,1,0,0,0,.57-.51l6-12.66h0L23.91,7A2.78,2.78,0,0,0,22.59,3.32Zm-4.1,1.12a.76.76,0,0,1,1-.36l2.23,1a.77.77,0,0,1,.36,1l-1,2L17.53,6.46Zm-7.09,22L12.55,24a1,1,0,0,0-1.81-.86L9.59,25.6l-.44-3c.22-.09.45-.18.66-.29a6.79,6.79,0,0,0,1.53-1.07l2.32,1.1a7.27,7.27,0,0,0,.15,1.86,6.13,6.13,0,0,0,.2.7Zm3.77-5.62h0l-3.62-1.71h0L16.68,8.27,20.29,10Z"/></g></svg>