<svg fill="currentColor" xmlns="http://www.w3.org/2000/svg" viewBox="0 0 32 32"><g id="pen"><path d="M24.32,4.4a1,1,0,0,0-.5-.58L20.23,2.05a1,1,0,0,0-1.34.45L17.56,5.19h0a1,1,0,0,0-1.33.46l-.89,1.79-1.79-.88a1,1,0,0,0-.77,0,.94.94,0,0,0-.57.5L8.67,14.18a1,1,0,0,0,.89,1.45,1,1,0,0,0,.9-.56l3.1-6.28.89.44L9.14,20a.85.85,0,0,0-.09.31l-.86,6.27a1,1,0,0,0,.54,1l-.44.9a1,1,0,0,0,.46,1.34,1,1,0,0,0,.44.1,1,1,0,0,0,.89-.56l.45-.9h0a1,1,0,0,0,.44.11,1,1,0,0,0,.71-.3l4.45-4.49a1.15,1.15,0,0,0,.19-.26l5.75-11.66h0L23.4,9.19a1,1,0,0,0-.46-1.34h0l1.33-2.69A1,1,0,0,0,24.32,4.4Zm-6.74,3L21.16,9.2h0l-.44.9L17.13,8.33ZM10.77,26.37l-.5-.24L10.84,22l2.89,1.43ZM15,21.75,11.38,20h0l4.87-9.86,3.58,1.77ZM19.36,6.08l.88-1.79,1.8.88L21.15,7Z"/></g></svg>