<svg fill="currentColor" xmlns="http://www.w3.org/2000/svg" viewBox="0 0 32 32"><g id="pencil_case" data-name="pencil case"><path d="M29,19H27V14.41a2.41,2.41,0,0,0-1.25-2.1l-1.14-1.87A2.92,2.92,0,0,0,22.12,9H11V6.5a2.5,2.5,0,0,0-5,0V9.16a3,3,0,0,0-1.62,1.28L3.25,12.31A2.42,2.42,0,0,0,2,14.41v9.47A4.13,4.13,0,0,0,6.13,28H22.88a4.1,4.1,0,0,0,3.94-3H29a1,1,0,0,0,1-1V20A1,1,0,0,0,29,19ZM4,14.41A.41.41,0,0,1,4.41,14H24.59a.41.41,0,0,1,.41.41V16H4ZM8,6.5a.5.5,0,0,1,1,0V9H8Zm-1.91,5A1,1,0,0,1,6.88,11H22.12a1,1,0,0,1,.79.48l.31.52H5.78ZM22.88,26H6.13A2.12,2.12,0,0,1,4,23.88V18H25v5.88A2.12,2.12,0,0,1,22.88,26ZM28,23H27V21h1Z"/></g></svg>