<svg fill="currentColor" xmlns="http://www.w3.org/2000/svg" viewBox="0 0 32 32"><g id="pendrive"><path d="M28.31,7.3,22.46,2.38A1.6,1.6,0,0,0,21.24,2a1.62,1.62,0,0,0-1.14.59L17.22,6l-.77-.64a1,1,0,0,0-.73-.23,1,1,0,0,0-.68.35L4.58,18a6.74,6.74,0,0,0,.82,9.48l1.18,1A6.67,6.67,0,0,0,10.9,30l.59,0a6.63,6.63,0,0,0,4.57-2.37L26.53,15.14a1,1,0,0,0-.13-1.41l-.76-.64,2.88-3.43A1.68,1.68,0,0,0,28.31,7.3Zm-13.78,19A4.68,4.68,0,0,1,11.32,28a4.73,4.73,0,0,1-3.46-1.09l-1.17-1a4.73,4.73,0,0,1-.58-6.66L15.93,7.55l.76.64h0L23.59,14h0l.76.64ZM24.11,11.8,18.75,7.3l2.67-3.18,5.36,4.5Z"/><path d="M10.5,19A3.5,3.5,0,1,0,14,22.5,3.5,3.5,0,0,0,10.5,19Zm0,5A1.5,1.5,0,1,1,12,22.5,1.5,1.5,0,0,1,10.5,24Z"/></g></svg>