<svg fill="currentColor" xmlns="http://www.w3.org/2000/svg" viewBox="0 0 32 32"><g id="postcard"><path d="M24,7H23V3a1,1,0,0,0-.42-.82,1,1,0,0,0-.92-.12l-14,5h0a1.22,1.22,0,0,0-.19.12.67.67,0,0,0-.14.09.57.57,0,0,0-.11.16.83.83,0,0,0-.11.15.94.94,0,0,0,0,.16A.93.93,0,0,0,7,8S7,8,7,8V29a1,1,0,0,0,1,1H24a1,1,0,0,0,1-1V8A1,1,0,0,0,24,7ZM21,7H13.77L21,4.42Zm2,21H9V9H23Z"/><path d="M21,10H11a1,1,0,0,0-1,1V22a1,1,0,0,0,1,1H21a1,1,0,0,0,1-1V11A1,1,0,0,0,21,10ZM20,21H12V12h8Z"/><path d="M20,25H12a1,1,0,0,0,0,2h8a1,1,0,0,0,0-2Z"/></g></svg>