<svg fill="currentColor" xmlns="http://www.w3.org/2000/svg" viewBox="0 0 32 32"><g id="rubber_stamp" data-name="rubber stamp"><path d="M21.7,20H19V15h1a1,1,0,0,0,1-.79A46.08,46.08,0,0,0,22,6a3.8,3.8,0,0,0-1.09-2.81A4,4,0,0,0,18.1,2H13.9a4,4,0,0,0-2.81,1.19A3.82,3.82,0,0,0,10,6a46.09,46.09,0,0,0,1,8.18A1,1,0,0,0,12,15h1v5H10.3A4.31,4.31,0,0,0,6,24.3V26a1,1,0,0,0,1,1H8v2a1,1,0,0,0,1,1H23a1,1,0,0,0,1-1V27h1a1,1,0,0,0,1-1V24.3A4.31,4.31,0,0,0,21.7,20ZM12.52,4.58A2,2,0,0,1,13.9,4h4.2a2,2,0,0,1,1.38.58A1.88,1.88,0,0,1,20,6V6H12V5.94A1.86,1.86,0,0,1,12.52,4.58ZM12.12,8h7.76a46.94,46.94,0,0,1-.69,5H12.81A46.59,46.59,0,0,1,12.12,8ZM15,15h2v5H15Zm7,13H10V27H22Zm2-3H8v-.7A2.3,2.3,0,0,1,10.3,22H21.7A2.3,2.3,0,0,1,24,24.3Z"/></g></svg>