<svg fill="currentColor" xmlns="http://www.w3.org/2000/svg" viewBox="0 0 32 32"><g id="ruler"><path d="M28.11,5.94,24,2.43a2.3,2.3,0,0,0-1.68-.55,2.24,2.24,0,0,0-1.58.79L17.07,7h0L9.23,16.07h0L5.31,20.61h0l-1.75,2a2.31,2.31,0,0,0,.24,3.26l4.07,3.51a2.31,2.31,0,0,0,3.26-.24l17.22-20A2.3,2.3,0,0,0,28.11,5.94Zm-1.27,2-17.22,20a.32.32,0,0,1-.45,0L5.11,24.4a.32.32,0,0,1,0-.45l1.1-1.27L7.69,24A1,1,0,1,0,9,22.47L7.48,21.16l.65-.76h0l.76.66a1,1,0,0,0,1.31-1.52l-.76-.65.65-.76,1.52,1.31a1,1,0,0,0,.65.24,1,1,0,0,0,.65-1.76l-1.51-1.3.65-.76.76.65A1,1,0,1,0,14.11,15l-.75-.66h0l.65-.75,1.51,1.3a1,1,0,0,0,.66.25,1,1,0,0,0,.65-1.76l-1.51-1.31.65-.76h0l.76.66A1,1,0,1,0,18,10.45l-.76-.65L17.93,9l1.51,1.31a1,1,0,0,0,.66.24,1,1,0,0,0,.75-.35,1,1,0,0,0-.1-1.41l-1.52-1.3.66-.76.75.65a1,1,0,0,0,1.41-.1A1,1,0,0,0,22,5.91l-.76-.65h0L22.29,4a.35.35,0,0,1,.22-.11h0a.28.28,0,0,1,.21.08l4.07,3.5A.33.33,0,0,1,26.84,7.9Z"/></g></svg>