<svg fill="currentColor" xmlns="http://www.w3.org/2000/svg" viewBox="0 0 32 32"><g id="sharpener"><path d="M27.71,8.65,15.6,2.18a2.13,2.13,0,0,0-2.89.88L10.42,7.35a1,1,0,0,0-.12.54c.22,3.33,0,4-.47,4.81-1.09,2-2,2.36-2.82,2.67a6.58,6.58,0,0,0-.92.4,1,1,0,0,0-.38.4L3.42,20.46a2.12,2.12,0,0,0,.87,2.89L16.4,29.82a2.09,2.09,0,0,0,1,.25A2.28,2.28,0,0,0,18,30a2.17,2.17,0,0,0,1.26-1l2.29-4.29a1,1,0,0,0,.12-.54c-.22-3.33,0-4,.47-4.81,1.09-2,2-2.36,2.82-2.67a6.58,6.58,0,0,0,.92-.4,1,1,0,0,0,.38-.4l2.29-4.29A2.13,2.13,0,0,0,27.71,8.65Zm-.89,1.95-2.14,4-.37.14c-1,.38-2.45.89-3.9,3.61-.65,1.2-.93,2.17-.73,5.6l-2.15,4a.15.15,0,0,1-.19.05L5.24,21.59a.16.16,0,0,1-.06-.19l2.14-4,.37-.14c1-.38,2.45-.89,3.9-3.61.65-1.21.93-2.17.73-5.6l2.15-4a.17.17,0,0,1,.19,0l12.1,6.46A.16.16,0,0,1,26.82,10.6Z"/><path d="M22.87,10.87a1,1,0,0,0-.46-.51L17.13,7.53a1,1,0,0,0-.68-.09,1,1,0,0,0-.68.5L9.18,20.29h0a1,1,0,0,0-.09.74,1,1,0,0,0,.5.61l5.28,2.83h0a1,1,0,0,0,.44.11,1,1,0,0,0,.89-.53l6.59-12.35A1,1,0,0,0,22.9,11ZM14.94,22.23l-3.53-1.88L17.06,9.77l3.53,1.88Z"/><path d="M16,15h0a1,1,0,1,0,1,1A1,1,0,0,0,16,15Z"/></g></svg>