<svg fill="currentColor" xmlns="http://www.w3.org/2000/svg" viewBox="0 0 32 32"><g id="stabilo"><path d="M25.45,4,22.76,2.46a3.13,3.13,0,0,0-4.2,1L9.48,17.09s0,0,0,0a.85.85,0,0,0-.14.34v.07a.94.94,0,0,0,0,.29s0,0,0,.06,0,0,0,.06l0,.11a4,4,0,0,1,.29,1.1,7.85,7.85,0,0,1-1.09,3.5l-.13.26a8.67,8.67,0,0,1-.84,1.38,1,1,0,0,0-.15.79,1,1,0,0,0,.44.61L6,28.44a1,1,0,0,0-.06,1,1,1,0,0,0,.88.53h4a1,1,0,0,0,.88-.52l.64-1.17a1.05,1.05,0,0,0,.49.13,1.45,1.45,0,0,0,.29,0,1.06,1.06,0,0,0,.61-.51,9,9,0,0,1,.79-1.4l.17-.25a7.7,7.7,0,0,1,2.53-2.65,3.72,3.72,0,0,1,1.1-.29l.08,0h.1l0,0a.75.75,0,0,0,.25-.13l.07,0a1.09,1.09,0,0,0,.23-.29h0L26.65,8.18A3.15,3.15,0,0,0,25.45,4Zm-7.6,16.87-6.12-3.6,1.15-1.74,5.92,3.48ZM10.26,28H8.75l.88-1.3.63.37.38.22Zm2.81-2.89-.16.24c-.18.26-.3.43-.45.69l-2.6-1.52a7.33,7.33,0,0,0,.39-.73l.13-.26a10.76,10.76,0,0,0,1.3-3.92l4.19,2.46A10.55,10.55,0,0,0,13.07,25.11ZM24.88,7.26l-5.16,10L14,13.91l6.24-9.38a1.12,1.12,0,0,1,1.51-.34l2.7,1.58A1.13,1.13,0,0,1,24.88,7.26Z"/></g></svg>