<svg fill="currentColor" xmlns="http://www.w3.org/2000/svg" viewBox="0 0 32 32"><g id="stapler"><path d="M30,28.75l-.8-3.09A3.56,3.56,0,0,0,25.69,23H14l-.09,0a6,6,0,0,0-.68-2l.18-.23.88.88A1,1,0,0,0,15,22h0a1,1,0,0,0,.71-.3l9.36-9.59a1,1,0,0,0-.14-1.51L22.67,9a3.86,3.86,0,0,0-6.35-4.36L4.23,19.37l0,0A6,6,0,0,0,8,30H29a1,1,0,0,0,1-1.25ZM15,19.58l-.33-.34,6.82-8.66,1.35,1ZM17.87,5.87A1.87,1.87,0,1,1,20.8,8.21L11.93,19.47A5.94,5.94,0,0,0,8,18h-.1ZM4.06,24a4,4,0,1,1,4,4A4,4,0,0,1,4.06,24Zm8.41,4a6,6,0,0,0,1.44-3L14,25H25.69a1.59,1.59,0,0,1,1.55,1.16L27.71,28Z"/><path d="M9,24a1,1,0,0,0-1-1H8a1,1,0,1,0,1,1Z"/></g></svg>