<svg fill="currentColor" xmlns="http://www.w3.org/2000/svg" viewBox="0 0 32 32"><g id="sticky_note" data-name="sticky note"><path d="M28.41,2H3.59A1.59,1.59,0,0,0,2,3.59V26.41A1.59,1.59,0,0,0,3.59,28H22a1,1,0,0,0,.71-.29l7-7A1,1,0,0,0,30,20V3.59A1.59,1.59,0,0,0,28.41,2ZM4,26V4H28V18H21a1,1,0,0,0-1,1v7Zm18-.41V20h5.59Z"/><path d="M8,9h6a1,1,0,0,0,0-2H8A1,1,0,0,0,8,9Z"/><path d="M17,9h2a1,1,0,0,0,0-2H17a1,1,0,0,0,0,2Z"/><path d="M22,9h2a1,1,0,0,0,0-2H22a1,1,0,0,0,0,2Z"/><path d="M14,19H8a1,1,0,0,0,0,2h6a1,1,0,0,0,0-2Z"/><path d="M24,11H18a1,1,0,0,0,0,2h6a1,1,0,0,0,0-2Z"/><path d="M13,11a1,1,0,0,0,0,2h2a1,1,0,0,0,0-2Z"/><path d="M8,13h2a1,1,0,0,0,0-2H8a1,1,0,0,0,0,2Z"/><path d="M8,17h3a1,1,0,0,0,0-2H8a1,1,0,0,0,0,2Z"/><path d="M19,15H14a1,1,0,0,0,0,2h5a1,1,0,0,0,0-2Z"/><path d="M24,15H22a1,1,0,0,0,0,2h2a1,1,0,0,0,0-2Z"/></g></svg>