<svg fill="currentColor" xmlns="http://www.w3.org/2000/svg" viewBox="0 0 32 32"><g id="tape"><path d="M29.12,25l.77-1.55a1,1,0,0,0,0-.9L29.12,21l.77-1.55A1,1,0,0,0,29,18H24.89A10.59,10.59,0,0,0,25,16.5,11.5,11.5,0,1,0,13.5,28l.4,0,.1,0H29a1,1,0,0,0,.89-1.45ZM4,16.5A9.5,9.5,0,1,1,13.5,26,9.51,9.51,0,0,1,4,16.5Zm23.11,9,.27.55H20a11.58,11.58,0,0,0,4.48-6h2.93l-.27.55a1,1,0,0,0,0,.9L27.88,23l-.77,1.55A1,1,0,0,0,27.11,25.45Z"/><path d="M18.58,16.5a5.08,5.08,0,1,0-5.08,5.08A5.09,5.09,0,0,0,18.58,16.5Zm-8.16,0a3.08,3.08,0,1,1,3.08,3.08A3.08,3.08,0,0,1,10.42,16.5Z"/></g></svg>