<?xml version="1.0" encoding="UTF-8"?><svg fill="currentColor" xmlns="http://www.w3.org/2000/svg" viewBox="0 0 24 24"><g id="b"><path d="M20.98,6.02c-.43-.49-1.05-.77-1.7-.77-1.11,0-2.05,.8-2.23,1.89l-.25,1.52c-.8-.57-2.06-.49-2.8,.16-.8-.71-2.2-.71-3,0-.4-.36-.92-.57-1.5-.57-1.24,0-2.25,1.01-2.25,2.25v2l-1-.75c-.62-.46-1.4-.6-2.13-.37-.74,.23-1.3,.78-1.54,1.51-.26,.78-.09,1.66,.45,2.29l3.91,4.56c1.09,1.28,2.69,2.01,4.37,2.01h2.93c2.55,0,4.83-1.71,5.53-4.17l.75-2.63c.15-.53,.26-1.08,.33-1.62l.69-5.53c.08-.64-.12-1.29-.55-1.78Zm-1.63,7.13c-.06,.47-.15,.94-.28,1.39l-.75,2.63c-.52,1.81-2.2,3.08-4.09,3.08h-2.93c-1.24,0-2.42-.54-3.23-1.48l-3.91-4.56c-.2-.23-.26-.55-.17-.84,.09-.27,.29-.47,.56-.55,.09-.03,.17-.04,.26-.04,.18,0,.37,.06,.52,.17l2.2,1.65c.23,.17,.53,.2,.79,.07,.25-.13,.42-.39,.42-.67v-3.5c0-.41,.34-.75,.75-.75s.75,.34,.75,.75v1.5c0,.41,.34,.75,.75,.75s.75-.34,.75-.75v-1.5c0-.41,.34-.75,.75-.75s.75,.34,.75,.75v1.5c0,.41,.34,.75,.75,.75s.75-.34,.75-.75v-1.5c0-.41,.34-.75,.75-.75s.75,.34,.75,.75v1.5c0,.39,.3,.71,.69,.75,.37,.04,.74-.24,.8-.62l.79-4.73c.1-.59,.93-.83,1.33-.38,.15,.17,.21,.38,.19,.6l-.69,5.53Z"/></g></svg>