<?xml version="1.0" encoding="UTF-8"?><svg fill="currentColor" xmlns="http://www.w3.org/2000/svg" viewBox="0 0 24 24"><g id="s"><path d="M20.75,10.5c0-.87-.5-1.63-1.23-2.01,.15-.3,.23-.64,.23-.99,0-1.2-.94-2.18-2.13-2.25,.08-.24,.13-.49,.13-.75,0-1.24-1.01-2.25-2.25-2.25h-2.1c-1,0-1.99,.14-2.95,.41l-2.03,.58c-2.53,.72-4.17,3.06-4.17,5.96v3.21c0,2.1,1.12,4.02,2.92,5,.17,.09,.34,.18,.49,.26,.37,.18,.66,.31,.92,.42,.4,.17,.66,.28,.98,.51,.68,.49,2.01,1.57,2.92,2.53,.38,.4,.88,.62,1.42,.62,.07,0,.15,0,.22-.01,.61-.07,1.14-.41,1.45-.95,.42-.71,.53-1.54,.32-2.34l-.17-.65c-.23-.87-.68-1.54-1.18-2.06h2.96c1.24,0,2.25-1.01,2.25-2.25,0-.36-.08-.69-.23-.99,.73-.37,1.23-1.13,1.23-2.01Zm-2.25,.75h-4.5c-.41,0-.75,.34-.75,.75s.34,.75,.75,.75h3.5c.41,0,.75,.34,.75,.75s-.34,.75-.75,.75h-5.5c-.37,0-.68,.26-.74,.63s.15,.71,.5,.83c.21,.07,2.06,.76,2.52,2.48l.17,.65c.11,.41,.05,.84-.17,1.2-.1,.17-.25,.2-.33,.21-.13,.02-.28-.04-.38-.14-1.05-1.12-2.51-2.27-3.13-2.72-.45-.33-.83-.49-1.26-.68-.24-.1-.51-.22-.85-.39-.14-.07-.29-.15-.44-.23-1.32-.72-2.14-2.13-2.14-3.69v-3.21c0-2.24,1.18-3.97,3.08-4.52l2.03-.58c.83-.24,1.68-.36,2.54-.36h2.1c.41,0,.75,.34,.75,.75s-.34,.75-.75,.75h-1.5c-.41,0-.75,.34-.75,.75s.34,.75,.75,.75h3.5c.41,0,.75,.34,.75,.75s-.34,.75-.75,.75h-3.5c-.41,0-.75,.34-.75,.75s.34,.75,.75,.75h4.5c.41,0,.75,.34,.75,.75s-.34,.75-.75,.75Z"/></g></svg>