<?xml version="1.0" encoding="UTF-8"?><svg fill="currentColor" xmlns="http://www.w3.org/2000/svg" viewBox="0 0 24 24"><g id="e"><path d="M20.27,8.69l-3.74-2.25c-.68-2.42-2.9-4.19-5.53-4.19h-2c-3.17,0-5.75,2.58-5.75,5.75v7.5c0,1.24,1.01,2.25,2.25,2.25,.26,0,.52-.05,.75-.13,.06,1.19,1.05,2.13,2.25,2.13,.26,0,.52-.05,.75-.13,.06,1.19,1.05,2.13,2.25,2.13s2.18-.94,2.25-2.13c.24,.08,.49,.13,.75,.13,1.24,0,2.25-1.01,2.25-2.25v-5.29l1.25,.62c.33,.17,.7,.25,1.06,.25,.31,0,.61-.06,.91-.18,.63-.26,1.12-.79,1.34-1.44,.35-1.06-.07-2.2-1.03-2.78Zm-5.02,8.81c0,.41-.34,.75-.75,.75s-.75-.34-.75-.75v-5.5c0-.41-.34-.75-.75-.75s-.75,.34-.75,.75v7.5c0,.41-.34,.75-.75,.75s-.75-.34-.75-.75v-7.5c0-.41-.34-.75-.75-.75s-.75,.34-.75,.75v5.5c0,.41-.34,.75-.75,.75s-.75-.34-.75-.75v-5.5c0-.41-.34-.75-.75-.75s-.75,.34-.75,.75v3.5c0,.41-.34,.75-.75,.75s-.75-.34-.75-.75v-7.5c0-2.34,1.91-4.25,4.25-4.25h2c2.34,0,4.25,1.91,4.25,4.25v9.5Zm4.63-6.51c-.08,.24-.26,.43-.49,.53-.24,.1-.49,.09-.72-.03l-1.92-.96v-2.21l2.75,1.65c.35,.21,.51,.63,.38,1.02Z"/></g></svg>