<?xml version="1.0" encoding="UTF-8"?><svg fill="currentColor" xmlns="http://www.w3.org/2000/svg" viewBox="0 0 24 24"><g id="i"><path d="M20.75,13.5c0-.87-.5-1.63-1.23-2.01,.15-.3,.23-.64,.23-.99,0-1.24-1.01-2.25-2.25-2.25h-4.75v-2.49c0-1.35-.67-2.61-1.8-3.36-.53-.36-1.22-.39-1.79-.09-.57,.3-.92,.89-.92,1.53v2.69c0,1.07-.76,2-1.81,2.21-1.85,.37-3.19,2.01-3.19,3.89v3.24c0,1.59,.94,3.02,2.41,3.65l3.16,1.36c1.35,.58,2.77,.87,4.23,.87h2.45c1.24,0,2.25-1.01,2.25-2.25,0-.26-.05-.52-.13-.75,1.19-.06,2.13-1.05,2.13-2.25,0-.36-.08-.69-.23-.99,.73-.37,1.23-1.13,1.23-2.01Zm-2.25,.75h-4.5c-.41,0-.75,.34-.75,.75s.34,.75,.75,.75h3.5c.41,0,.75,.34,.75,.75s-.34,.75-.75,.75h-3.5c-.41,0-.75,.34-.75,.75s.34,.75,.75,.75h1.5c.41,0,.75,.34,.75,.75s-.34,.75-.75,.75h-2.45c-1.26,0-2.49-.25-3.64-.75l-3.16-1.36c-.91-.39-1.5-1.28-1.5-2.27v-3.24c0-1.17,.83-2.19,1.99-2.42,1.75-.35,3.01-1.9,3.01-3.68V3.85c0-.13,.08-.19,.13-.21,.03-.01,.07-.03,.11-.03,.04,0,.08,0,.13,.04,.71,.47,1.13,1.26,1.13,2.11v3.24c0,.41,.34,.75,.75,.75h5.5c.41,0,.75,.34,.75,.75s-.34,.75-.75,.75h-3.5c-.41,0-.75,.34-.75,.75s.34,.75,.75,.75h4.5c.41,0,.75,.34,.75,.75s-.34,.75-.75,.75Z"/></g></svg>