<?xml version="1.0" encoding="UTF-8"?><svg fill="currentColor" xmlns="http://www.w3.org/2000/svg" viewBox="0 0 24 24"><g id="g"><path d="M19.5,10.25c-.26,0-.52,.05-.75,.13-.06-1.19-1.05-2.13-2.25-2.13-.36,0-.69,.08-.99,.23-.37-.73-1.13-1.23-2.01-1.23-.26,0-.52,.04-.75,.13v-2.88c0-1.24-1.01-2.25-2.25-2.25s-2.25,1.01-2.25,2.25v3l-1.12-.84c-.59-.44-1.33-.57-2.04-.35-.7,.22-1.24,.75-1.47,1.45-.3,.9,0,1.9,.73,2.49l3.89,3.11v2.64c0,3.17,2.58,5.75,5.75,5.75h2c3.17,0,5.75-2.58,5.75-5.75v-3.5c0-1.24-1.01-2.25-2.25-2.25Zm-14.21-1.17c-.25-.2-.35-.54-.25-.84,.08-.24,.26-.42,.5-.49,.24-.07,.49-.03,.69,.12l2.02,1.51v2.06l-2.96-2.36Zm14.96,6.92c0,2.34-1.91,4.25-4.25,4.25h-2c-2.34,0-4.25-1.91-4.25-4.25V4.5c0-.41,.34-.75,.75-.75s.75,.34,.75,.75V14c0,.41,.34,.75,.75,.75s.75-.34,.75-.75v-4.5c0-.41,.34-.75,.75-.75s.75,.34,.75,.75v4.5c0,.41,.34,.75,.75,.75s.75-.34,.75-.75v-3.5c0-.41,.34-.75,.75-.75s.75,.34,.75,.75v3.5c0,.41,.34,.75,.75,.75s.75-.34,.75-.75v-1.5c0-.41,.34-.75,.75-.75s.75,.34,.75,.75v3.5Z"/></g></svg>