<?xml version="1.0" encoding="UTF-8"?><svg fill="currentColor" xmlns="http://www.w3.org/2000/svg" viewBox="0 0 24 24"><g id="c"><path d="M19.51,7.25c-.26,0-.52,.05-.75,.13-.06-1.19-1.05-2.13-2.25-2.13-.36,0-.69,.08-.99,.23-.37-.73-1.13-1.23-2.01-1.23s-1.63,.5-2.01,1.23c-.3-.15-.64-.23-.99-.23-1.24,0-2.25,1.01-2.25,2.25v2.96c-.52-.5-1.19-.95-2.06-1.18l-.65-.17c-.8-.21-1.63-.09-2.34,.32-.53,.31-.88,.84-.95,1.45-.07,.62,.15,1.21,.6,1.64,.96,.9,2.04,2.24,2.53,2.92,.23,.32,.34,.58,.51,.97,.11,.26,.24,.55,.42,.92,.08,.16,.16,.32,.26,.49,.99,1.8,2.9,2.92,5,2.92h3.21c2.9,0,5.24-1.64,5.96-4.17l.58-2.03c.27-.96,.41-1.96,.41-2.95v-2.1c0-1.24-1.01-2.25-2.25-2.25Zm.75,4.35c0,.86-.12,1.71-.36,2.54l-.58,2.03c-.54,1.9-2.27,3.08-4.52,3.08h-3.21c-1.55,0-2.96-.82-3.69-2.14-.08-.16-.16-.3-.23-.44-.17-.34-.29-.61-.39-.85-.19-.43-.35-.81-.68-1.26-.45-.62-1.6-2.08-2.72-3.13-.11-.1-.16-.24-.14-.38,0-.08,.05-.23,.21-.33,.25-.14,.52-.22,.8-.22,.13,0,.27,.02,.4,.05l.65,.17c1.73,.46,2.41,2.31,2.48,2.52,.12,.34,.47,.56,.83,.5,.36-.06,.63-.37,.63-.74V7.5c0-.41,.34-.75,.75-.75s.75,.34,.75,.75v1.5c0,.41,.34,.75,.75,.75s.75-.34,.75-.75v-2.5c0-.41,.34-.75,.75-.75s.75,.34,.75,.75v2.5c0,.41,.34,.75,.75,.75s.75-.34,.75-.75v-1.5c0-.41,.34-.75,.75-.75s.75,.34,.75,.75v2c0,.41,.34,.75,.75,.75s.75-.34,.75-.75,.34-.75,.75-.75,.75,.34,.75,.75v2.1Z"/></g></svg>