<?xml version="1.0" encoding="UTF-8"?><svg fill="currentColor" xmlns="http://www.w3.org/2000/svg" viewBox="0 0 24 24"><g id="m"><path d="M17.5,9.25c-.36,0-.69,.08-.99,.23-.37-.73-1.13-1.23-2.01-1.23-.11,0-.22,.02-.33,.04l.39-3.55c.07-.63-.13-1.27-.56-1.74s-1.03-.75-1.67-.75c-1.14,0-2.1,.86-2.23,1.99l-.43,3.89-.65-2.26c-.27-.96-1.16-1.63-2.17-1.63-.68,0-1.32,.31-1.75,.84-.43,.53-.59,1.22-.44,1.89l.75,3.38c-.38,.38-.74,.78-1.05,1.24-.86,1.24-1.01,2.81-.42,4.19l1.06,2.48c.91,2.12,2.98,3.48,5.29,3.48h2.93c2.55,0,4.83-1.71,5.53-4.17l.58-2.03c.27-.96,.41-1.96,.41-2.95v-1.1c0-1.24-1.01-2.25-2.25-2.25Zm.75,3.35c0,.86-.12,1.71-.36,2.54l-.58,2.03c-.52,1.81-2.2,3.08-4.09,3.08h-2.93c-1.7,0-3.24-1.01-3.91-2.58l-1.06-2.48c-.39-.91-.29-1.93,.29-2.77,.06-.09,.14-.18,.21-.26l.44,2c.08,.35,.39,.59,.73,.59,.05,0,.11,0,.16-.02,.4-.09,.66-.49,.57-.89l-1.6-7.19c-.05-.22,0-.45,.14-.62,.33-.42,1.15-.29,1.31,.26l1.69,5.92c.1,.34,.43,.57,.78,.54,.36-.03,.64-.31,.68-.66l.85-7.67c.04-.38,.36-.66,.74-.66,.21,0,.41,.09,.55,.25s.21,.36,.18,.58l-.82,7.34c-.05,.41,.25,.78,.66,.83,.42,.04,.78-.25,.83-.66l.23-2.1c.14-.14,.32-.23,.52-.23,.41,0,.75,.34,.75,.75v1.5c0,.41,.34,.75,.75,.75s.75-.34,.75-.75v-.5c0-.41,.34-.75,.75-.75s.75,.34,.75,.75v1.1Z"/></g></svg>