<?xml version="1.0" encoding="UTF-8"?><svg fill="currentColor" xmlns="http://www.w3.org/2000/svg" viewBox="0 0 24 24"><g id="t"><path d="M18.5,9.25c-.36,0-.69,.08-.99,.23-.37-.73-1.13-1.23-2.01-1.23-.58,0-1.1,.22-1.5,.57-.58-.52-1.5-.71-2.25-.45v-3.88c0-1.24-1.01-2.25-2.25-2.25s-2.25,1.01-2.25,2.25v7.69l-.02-.02c-.55-.55-1.33-.77-2.1-.6-.76,.18-1.36,.73-1.61,1.47-.23,.68-.11,1.43,.3,2.01l3.06,4.29c1.08,1.51,2.83,2.41,4.68,2.41h2.66c2.55,0,4.83-1.71,5.53-4.17l.58-2.03c.27-.96,.41-1.95,.41-2.95v-1.1c0-1.24-1.01-2.25-2.25-2.25Zm.75,3.35c0,.86-.12,1.71-.36,2.54l-.58,2.03c-.52,1.81-2.2,3.08-4.09,3.08h-2.66c-1.37,0-2.66-.67-3.46-1.78l-3.06-4.29c-.14-.19-.17-.44-.1-.66,.12-.35,.41-.46,.53-.48,.04,0,.1-.02,.17-.02,.15,0,.34,.04,.52,.22l1.3,1.3c.21,.22,.54,.28,.82,.16,.28-.12,.46-.39,.46-.69V4.5c0-.41,.34-.75,.75-.75s.75,.34,.75,.75v7.5c0,.41,.34,.75,.75,.75s.75-.34,.75-.75v-1.5c0-.41,.34-.75,.75-.75s.75,.34,.75,.75v1.5c0,.41,.34,.75,.75,.75s.75-.34,.75-.75v-1.5c0-.41,.34-.75,.75-.75s.75,.34,.75,.75v1.5c0,.41,.34,.75,.75,.75s.75-.34,.75-.75v-.5c0-.41,.34-.75,.75-.75s.75,.34,.75,.75v1.1Z"/></g></svg>