<?xml version="1.0" encoding="UTF-8"?><svg fill="currentColor" xmlns="http://www.w3.org/2000/svg" viewBox="0 0 24 24"><g id="q"><path d="M17.5,9.25c-.36,0-.69,.08-.99,.23-.37-.73-1.13-1.23-2.01-1.23-.58,0-1.1,.22-1.5,.57-.58-.52-1.5-.71-2.25-.45v-3.88c0-1.24-1.01-2.25-2.25-2.25s-2.25,1.01-2.25,2.25v5.12c-.72,.55-1.35,1.21-1.88,1.98-.86,1.24-1.01,2.81-.42,4.19l1.06,2.48c.91,2.12,2.98,3.48,5.29,3.48h2.93c2.55,0,4.83-1.71,5.53-4.17l.58-2.03c.27-.96,.41-1.96,.41-2.95v-1.1c0-1.24-1.01-2.25-2.25-2.25Zm.75,3.35c0,.86-.12,1.71-.36,2.54l-.58,2.03c-.52,1.81-2.2,3.08-4.09,3.08h-2.93c-1.7,0-3.24-1.01-3.91-2.58l-1.06-2.48c-.39-.91-.29-1.93,.29-2.77,.19-.28,.4-.54,.63-.79v2.36c0,.41,.34,.75,.75,.75s.75-.34,.75-.75V4.5c0-.41,.34-.75,.75-.75s.75,.34,.75,.75v7.5c0,.41,.34,.75,.75,.75s.75-.34,.75-.75v-1.5c0-.41,.34-.75,.75-.75s.75,.34,.75,.75v1.5c0,.41,.34,.75,.75,.75s.75-.34,.75-.75v-1.5c0-.41,.34-.75,.75-.75s.75,.34,.75,.75v1.5c0,.41,.34,.75,.75,.75s.75-.34,.75-.75v-.5c0-.41,.34-.75,.75-.75s.75,.34,.75,.75v1.1Z"/></g></svg>