<?xml version="1.0" encoding="UTF-8"?><svg fill="currentColor" xmlns="http://www.w3.org/2000/svg" viewBox="0 0 24 24"><g id="o"><path d="M19.5,6.25h-5.12c-.55-.72-1.21-1.35-1.98-1.88-1.24-.85-2.8-1.01-4.19-.42l-2.48,1.06c-2.12,.91-3.48,2.98-3.48,5.29v2.93c0,2.55,1.71,4.83,4.17,5.53l2.03,.58c.96,.27,1.95,.41,2.95,.41h1.1c1.24,0,2.25-1.01,2.25-2.25,0-.36-.08-.69-.23-.99,.73-.37,1.23-1.13,1.23-2.01,0-.58-.22-1.1-.57-1.5,.36-.4,.57-.92,.57-1.5,0-.26-.05-.52-.13-.75h3.88c1.24,0,2.25-1.01,2.25-2.25s-1.01-2.25-2.25-2.25Zm0,3h-7.5c-.41,0-.75,.34-.75,.75s.34,.75,.75,.75h1.5c.41,0,.75,.34,.75,.75s-.34,.75-.75,.75h-1.5c-.41,0-.75,.34-.75,.75s.34,.75,.75,.75h1.5c.41,0,.75,.34,.75,.75s-.34,.75-.75,.75h-1.5c-.41,0-.75,.34-.75,.75s.34,.75,.75,.75h.5c.41,0,.75,.34,.75,.75s-.34,.75-.75,.75h-1.1c-.86,0-1.71-.12-2.54-.36l-2.03-.58c-1.81-.52-3.08-2.2-3.08-4.09v-2.93c0-1.7,1.01-3.24,2.58-3.91l2.48-1.06c.36-.15,.74-.23,1.12-.23,.57,0,1.14,.17,1.65,.52,.28,.19,.54,.4,.79,.63h-2.36c-.41,0-.75,.34-.75,.75s.34,.75,.75,.75h9.5c.41,0,.75,.34,.75,.75s-.34,.75-.75,.75Z"/></g></svg>