<?xml version="1.0" encoding="UTF-8"?><svg fill="currentColor" xmlns="http://www.w3.org/2000/svg" viewBox="0 0 24 24"><g id="h"><path d="M17.5,5.25c-1.24,0-2.25,1.01-2.25,2.25v.88c-.74-.27-1.66-.08-2.24,.44-.58-.51-1.5-.7-2.26-.43v-3.88c0-1.24-1.01-2.25-2.25-2.25s-2.25,1.01-2.25,2.25v5.12c-.72,.55-1.35,1.21-1.88,1.98-.85,1.24-1.01,2.8-.42,4.19l1.06,2.48c.91,2.12,2.98,3.48,5.29,3.48h2.93c2.55,0,4.83-1.71,5.53-4.17l.58-2.03c.27-.96,.41-1.96,.41-2.95V7.5c0-1.24-1.01-2.25-2.25-2.25Zm.75,7.35c0,.86-.12,1.71-.36,2.54l-.58,2.03c-.52,1.81-2.2,3.08-4.09,3.08h-2.93c-1.7,0-3.24-1.01-3.91-2.58l-1.06-2.48c-.39-.91-.29-1.93,.29-2.77,.19-.28,.4-.54,.63-.79v2.36c0,.41,.34,.75,.75,.75s.75-.34,.75-.75V4.5c0-.41,.34-.75,.75-.75s.75,.34,.75,.75v7.5c0,.41,.34,.75,.75,.75s.75-.34,.75-.75v-1.5c0-.41,.34-.75,.79-.75,.39,0,.71,.32,.71,.71v1.54c0,.41,.34,.75,.75,.75s.75-.34,.75-.75v-1.5c0-.41,.34-.75,.75-.75s.75,.34,.75,.75v1.5c0,.41,.34,.75,.75,.75s.75-.34,.75-.75V7.5c0-.41,.34-.75,.75-.75s.75,.34,.75,.75v5.1Z"/></g></svg>