<?xml version="1.0" encoding="UTF-8"?><svg fill="currentColor" xmlns="http://www.w3.org/2000/svg" viewBox="0 0 24 24"><g id="p"><path d="M18.5,9.25c-.36,0-.69,.08-.99,.23-.37-.73-1.13-1.23-2.01-1.23-.58,0-1.1,.22-1.5,.57-.59-.53-1.54-.72-2.29-.43-.15-1.28-.72-2.46-1.64-3.39l-2.18-2.18c-.37-.37-.86-.57-1.38-.57-.76,0-1.43,.42-1.76,1.11s-.24,1.47,.24,2.06l1.34,1.68c.6,.75,.93,1.69,.93,2.65v2.44l-1.03-1.03c-.55-.55-1.33-.77-2.09-.59-.76,.18-1.35,.73-1.6,1.46-.23,.69-.11,1.46,.33,2.04l4.04,5.38c1.08,1.44,2.8,2.3,4.6,2.3h2.73c2.55,0,4.83-1.71,5.53-4.17l.58-2.03c.27-.96,.41-1.95,.41-2.95v-1.1c0-1.24-1.01-2.25-2.25-2.25Zm.75,3.35c0,.86-.12,1.71-.36,2.54l-.58,2.03c-.52,1.81-2.2,3.08-4.09,3.08h-2.73c-1.33,0-2.6-.64-3.4-1.7l-4.04-5.38c-.14-.19-.18-.44-.11-.66,.12-.35,.4-.45,.52-.48,.04,0,.1-.02,.17-.02,.14,0,.34,.04,.51,.21l2.31,2.31c.21,.22,.54,.28,.82,.16,.28-.12,.46-.39,.46-.69v-4.25c0-1.3-.45-2.58-1.26-3.59l-1.34-1.68c-.16-.2-.09-.4-.05-.48s.15-.26,.41-.26c.12,0,.23,.05,.32,.13l2.18,2.18c.8,.8,1.24,1.87,1.24,3.01v2.93c0,.41,.34,.75,.75,.75s.75-.34,.75-.75v-1.5c0-.41,.34-.75,.75-.75s.75,.34,.75,.75v1.5c0,.41,.34,.75,.75,.75s.75-.34,.75-.75v-1.5c0-.41,.34-.75,.75-.75s.75,.34,.75,.75v1.5c0,.41,.34,.75,.75,.75s.75-.34,.75-.75v-.5c0-.41,.34-.75,.75-.75s.75,.34,.75,.75v1.1Z"/></g></svg>