<?xml version="1.0" encoding="UTF-8"?><svg fill="currentColor" xmlns="http://www.w3.org/2000/svg" viewBox="0 0 24 24"><g id="u"><g><path d="M12,11.75c2.62,0,4.75-2.13,4.75-4.75s-2.13-4.75-4.75-4.75-4.75,2.13-4.75,4.75,2.13,4.75,4.75,4.75Zm0-8c1.79,0,3.25,1.46,3.25,3.25s-1.46,3.25-3.25,3.25-3.25-1.46-3.25-3.25,1.46-3.25,3.25-3.25Z"/><path d="M20.01,14.76c-5.13-2-10.89-2-16.02,0-1.06,.41-1.74,1.42-1.74,2.56v1.68c0,1.52,1.23,2.75,2.75,2.75h14c1.52,0,2.75-1.23,2.75-2.75v-1.68c0-1.14-.68-2.15-1.74-2.56Zm.24,4.24c0,.69-.56,1.25-1.25,1.25H5c-.69,0-1.25-.56-1.25-1.25v-1.68c0-.52,.31-.98,.79-1.16,2.39-.93,4.9-1.41,7.46-1.41s5.07,.47,7.46,1.41c.48,.19,.79,.64,.79,1.16v1.68Z"/></g></g></svg>