<?xml version="1.0" encoding="UTF-8"?><svg fill="currentColor" xmlns="http://www.w3.org/2000/svg" viewBox="0 0 24 24"><g id="d"><g><circle cx="7.5" cy="18.4" r="2.25"/><circle cx="16.5" cy="18.4" r="2.25"/><path d="M14.75,3.9c0-.96-.79-1.75-1.75-1.75h-1c-.96,0-1.75,.79-1.75,1.75v.75h4.5v-.75Z"/><path d="M12.74,6.76l.61,2.44c.14,.56,.64,.95,1.21,.95h4.06c-.03-.06-.07-.12-.08-.18l-.43-1.74c-.31-1.23-1.4-2.08-2.67-2.08h-2.81l.11,.62Z"/><path d="M20.53,11.68l-.05-.03h-5.92c-1.26,0-2.36-.86-2.67-2.08l-.62-2.49-.17-.93H5c-1.52,0-2.75,1.23-2.75,2.75v7c0,1.07,.62,1.99,1.51,2.44,.03-2.04,1.7-3.69,3.74-3.69s3.75,1.68,3.75,3.75c0,.12-.02,.24-.04,.36h1.57c-.01-.12-.04-.24-.04-.36,0-2.07,1.68-3.75,3.75-3.75s3.71,1.65,3.74,3.69c.89-.46,1.51-1.37,1.51-2.44v-1.93c0-.92-.46-1.78-1.22-2.29Zm-12.78-.03h-.25v.36c0,.41-.34,.75-.75,.75s-.75-.34-.75-.75v-.36h-.25c-.41,0-.75-.34-.75-.75s.34-.75,.75-.75h.25v-.25c0-.41,.34-.75,.75-.75s.75,.34,.75,.75v.25h.25c.41,0,.75,.34,.75,.75s-.34,.75-.75,.75Z"/></g></g></svg>