<?xml version="1.0" encoding="UTF-8"?><svg fill="currentColor" xmlns="http://www.w3.org/2000/svg" viewBox="0 0 24 24"><g id="t"><g><path d="M12,2.25C6.62,2.25,2.25,6.62,2.25,12s4.37,9.75,9.75,9.75,9.75-4.37,9.75-9.75S17.38,2.25,12,2.25Zm3,15.5h-6c-.41,0-.75-.34-.75-.75s.34-.75,.75-.75h6c.41,0,.75,.34,.75,.75s-.34,.75-.75,.75Zm-.99-3.52c-.61,.34-1.31,.52-2.01,.52s-1.4-.18-2.01-.52c-1.07-.6-1.74-1.78-1.74-3.08,0-.79,.27-1.58,.77-2.21l1.59-2.02c.67-.85,2.11-.85,2.78,0l1.59,2.02c.5,.63,.77,1.42,.77,2.21,0,1.3-.67,2.47-1.74,3.08Z"/><path d="M12.21,7.85c-.07-.09-.17-.1-.21-.1s-.14,0-.21,.1l-1.59,2.02c-.29,.37-.45,.82-.45,1.28,0,.75,.37,1.43,.97,1.77,.77,.43,1.78,.43,2.55,0,.6-.34,.97-1.01,.97-1.77,0-.46-.16-.91-.45-1.28l-1.59-2.02Z"/></g></g></svg>