<?xml version="1.0" encoding="UTF-8"?><svg fill="currentColor" xmlns="http://www.w3.org/2000/svg" viewBox="0 0 24 24"><g id="c"><g><rect x="2.25" y="2.25" width="10.5" height="4.5" rx="1.25" ry="1.25"/><path d="M3.5,8.25c-.09,0-.17-.02-.25-.03v2.03h3.75c.41,0,.75,.34,.75,.75s-.34,.75-.75,.75H3.25v1.5h3.75c.41,0,.75,.34,.75,.75s-.34,.75-.75,.75H3.25v1.5h3.75c.41,0,.75,.34,.75,.75s-.34,.75-.75,.75H3.28c.13,2.23,1.97,4,4.22,4s4.25-1.91,4.25-4.25V8.22c-.08,0-.16,.03-.25,.03H3.5Z"/><path d="M21.7,17.1c-.07-.45-.18-.9-.33-1.34-.34-1.02-1.22-2.95-3.29-4.38-.26-.18-.6-.18-.85,0-.89,.62-2.49,2-3.28,4.38-.13,.4-.24,.83-.31,1.26-.2,1.17,.13,2.36,.9,3.28,.78,.92,1.92,1.46,3.13,1.46s2.35-.53,3.14-1.45c.76-.89,1.09-2.06,.9-3.2Zm-2,1.17c-.23,.61-.76,1.09-1.46,1.33-.08,.03-.16,.04-.24,.04-.31,0-.6-.2-.71-.51-.13-.39,.07-.82,.46-.95,.27-.09,.47-.26,.54-.45,.07-.18,.02-.39-.01-.5-.13-.39,.09-.82,.48-.95,.4-.13,.82,.09,.95,.48,.12,.36,.21,.92-.01,1.5Z"/></g></g></svg>