<?xml version="1.0" encoding="UTF-8"?><svg fill="currentColor" xmlns="http://www.w3.org/2000/svg" viewBox="0 0 24 24"><g id="e"><path d="M18.65,8.16c-.21-.59-.71-1.04-1.36-1.14l-5-.83c-.19-.03-.38-.03-.57,0l-5,.83c-.65,.11-1.15,.56-1.36,1.14-1.72,.08-3.1,1.49-3.1,3.23s1.34,3.11,3.03,3.23c.07,.49,.33,.93,.74,1.2,1.25,.83,3.29,1.82,5.98,1.82,1.22,0,3.62-.24,5.99-1.82,.41-.27,.66-.71,.73-1.2,1.69-.12,3.03-1.51,3.03-3.23s-1.38-3.16-3.1-3.23ZM5.25,13.13c-.85-.12-1.5-.85-1.5-1.73s.65-1.61,1.5-1.73v3.46Zm10.49,.76c-1.19,.48-2.45,.73-3.74,.73s-2.57-.25-3.74-.73c-.38-.16-.57-.59-.41-.98,.16-.38,.59-.57,.98-.41,2,.82,4.35,.82,6.36,0,.38-.16,.82,.03,.98,.41,.16,.38-.03,.82-.41,.98Zm0-2.7c-1.19,.48-2.45,.73-3.74,.73s-2.55-.25-3.74-.73c-.38-.16-.57-.59-.41-.98,.16-.38,.59-.57,.98-.41,2.01,.82,4.35,.82,6.36,0,.39-.16,.82,.03,.98,.41,.16,.38-.03,.82-.41,.98Zm3.01,1.94v-3.46c.85,.12,1.5,.85,1.5,1.73s-.65,1.61-1.5,1.73Z"/></g></svg>