<?xml version="1.0" encoding="UTF-8"?><svg fill="currentColor" xmlns="http://www.w3.org/2000/svg" viewBox="0 0 24 24"><g id="r"><path d="M17,2.25H7c-2.62,0-4.75,2.13-4.75,4.75v10c0,2.62,2.13,4.75,4.75,4.75h10c2.62,0,4.75-2.13,4.75-4.75V7c0-2.62-2.13-4.75-4.75-4.75Zm-2.26,11.19c.31,.28,.33,.75,.06,1.06-.71,.79-1.73,1.25-2.79,1.25-2.07,0-3.75-1.68-3.75-3.75s1.68-3.75,3.75-3.75c.41,0,.75,.34,.75,.75s-.34,.75-.75,.75c-1.24,0-2.25,1.01-2.25,2.25s1.01,2.25,2.25,2.25c.64,0,1.25-.27,1.68-.75,.28-.31,.75-.33,1.06-.06Zm-2.74,5.31c-3.72,0-6.75-3.03-6.75-6.75s3.03-6.75,6.75-6.75c.41,0,.75,.34,.75,.75s-.34,.75-.75,.75c-2.89,0-5.25,2.35-5.25,5.25s2.36,5.25,5.25,5.25,5.25-2.35,5.25-5.25c0-.41,.34-.75,.75-.75s.75,.34,.75,.75c0,3.72-3.03,6.75-6.75,6.75Z"/></g></svg>