<?xml version="1.0" encoding="UTF-8"?><svg fill="currentColor" xmlns="http://www.w3.org/2000/svg" viewBox="0 0 24 24"><g id="o"><path d="M18.73,7.24s.02-.08,.02-.12c0-2.07-1.68-3.75-3.75-3.75h-6c-2.07,0-3.75,1.68-3.75,3.75,0,.04,.02,.08,.02,.12-1.22,.86-2.02,2.27-2.02,3.88v6c0,2.62,2.13,4.75,4.75,4.75h8c2.62,0,4.75-2.13,4.75-4.75v-6c0-1.6-.8-3.02-2.02-3.88Zm-4.73,7.63h-1.25v1.25c0,.41-.34,.75-.75,.75s-.75-.34-.75-.75v-1.25h-1.25c-.41,0-.75-.34-.75-.75s.34-.75,.75-.75h1.25v-1.25c0-.41,.34-.75,.75-.75s.75,.34,.75,.75v1.25h1.25c.41,0,.75,.34,.75,.75s-.34,.75-.75,.75Zm2-8.5H8c-.4,0-.79,.07-1.16,.16,.26-.95,1.13-1.66,2.16-1.66h6c1.04,0,1.9,.71,2.16,1.66-.37-.09-.76-.16-1.16-.16Z"/></g></svg>