<?xml version="1.0" encoding="UTF-8"?><svg fill="currentColor" xmlns="http://www.w3.org/2000/svg" viewBox="0 0 24 24"><g id="s"><g><path d="M18,4.25H6c-2.07,0-3.75,1.68-3.75,3.75v3.25h5.75c.25,0,.48,.13,.62,.33l1.38,2.06,3.38-5.06c.28-.42,.97-.42,1.25,0l1.78,2.67h5.35v-3.25c0-2.07-1.68-3.75-3.75-3.75Z"/><path d="M15.38,12.42l-1.38-2.06-3.38,5.06c-.14,.21-.37,.33-.62,.33s-.48-.13-.62-.33l-1.78-2.67H2.25v3.25c0,2.07,1.68,3.75,3.75,3.75h12c2.07,0,3.75-1.68,3.75-3.75v-3.25h-5.75c-.25,0-.49-.13-.62-.33Z"/></g></g></svg>