<?xml version="1.0" encoding="UTF-8"?><svg fill="currentColor" xmlns="http://www.w3.org/2000/svg" viewBox="0 0 24 24"><g id="g"><path d="M21.51,6.57l-4.37-4.11c-.3-.28-.78-.27-1.06,.03-.28,.3-.27,.78,.03,1.06l1.64,1.55-3.41,3.66-2.36-2.22c-.3-.28-.78-.27-1.06,.03-.28,.3-.27,.78,.03,1.06l.18,.17-1.56,1.66,1.95,2.02c.29,.29,.29,.77,0,1.06-.15,.15-.34,.22-.53,.22s-.38-.07-.53-.22l-1-1-.93-.98-.92,.98,1.92,1.94c.29,.29,.29,.77,0,1.06-.15,.15-.34,.22-.53,.22s-.38-.07-.53-.22l-1.88-1.91-1.1,1.17c-1.24,1.32-1.34,3.31-.34,4.73l-1.7,1.8c-.28,.3-.27,.78,.03,1.06,.15,.14,.33,.2,.51,.2,.2,0,.4-.08,.55-.24l1.7-1.8c.6,.37,1.29,.56,1.97,.56,1,0,1.99-.4,2.73-1.18l5.66-6.01,.18,.17c.15,.14,.33,.2,.51,.2,.2,0,.4-.08,.55-.24,.28-.3,.27-.78-.03-1.06l-2.37-2.23,3.41-3.66,1.63,1.54c.15,.14,.33,.2,.51,.2,.2,0,.4-.08,.55-.24,.28-.3,.27-.78-.03-1.06Z"/></g></svg>