<?xml version="1.0" encoding="UTF-8"?><svg fill="currentColor" xmlns="http://www.w3.org/2000/svg" viewBox="0 0 24 24"><g id="j"><g><path d="M11.25,13.25v-1.5h-.75c-.41,0-.75,.34-.75,.75s.34,.75,.75,.75h.75Z"/><path d="M14.25,12.5c0-.41-.34-.75-.75-.75h-.75v1.5h.75c.41,0,.75-.34,.75-.75Z"/><path d="M12,2.25C6.62,2.25,2.25,6.62,2.25,12s4.37,9.75,9.75,9.75,9.75-4.37,9.75-9.75S17.38,2.25,12,2.25Zm-.08,16.44c-3.21,0-5.95-2.15-6.66-5.23-.09-.4,.16-.81,.56-.9,.41-.1,.81,.16,.9,.56,.54,2.35,2.73,4.06,5.19,4.06,2.94,0,5.33-2.34,5.33-5.22s-2.39-5.22-5.33-5.22c-1.4,0-2.73,.55-3.73,1.5h.8c.41,0,.75,.34,.75,.75s-.34,.75-.75,.75h-2c-.41,0-.75-.34-.75-.75v-2c0-.41,.34-.75,.75-.75,.31,0,.58,.19,.69,.46,1.2-.93,2.69-1.46,4.23-1.46,3.76,0,6.83,3.02,6.83,6.72s-3.06,6.72-6.83,6.72Zm-3.67-6.19c0-1.24,1.01-2.25,2.25-2.25h3c1.24,0,2.25,1.01,2.25,2.25s-1.01,2.25-2.25,2.25h-3c-1.24,0-2.25-1.01-2.25-2.25Z"/></g></g></svg>