<?xml version="1.0" encoding="UTF-8"?><svg fill="currentColor" xmlns="http://www.w3.org/2000/svg" viewBox="0 0 24 24"><g id="l"><path d="M20.11,6.34c-.25-.78-.86-1.42-1.67-1.75l-5.25-2.12c-.76-.3-1.62-.3-2.38,0l-5.25,2.12h0c-.81,.33-1.42,.96-1.67,1.75-.68,2.13-1.42,6.31,1.2,10.4,1.5,2.34,3.57,3.76,5.04,4.55,.58,.31,1.22,.46,1.87,.46s1.29-.15,1.87-.46c1.47-.78,3.54-2.21,5.04-4.55,2.62-4.09,1.88-8.27,1.2-10.4Zm-5.11,6.28h-2.25v2.38c0,.41-.34,.75-.75,.75s-.75-.34-.75-.75v-2.38h-2.25c-.41,0-.75-.34-.75-.75s.34-.75,.75-.75h2.25v-2.12c0-.41,.34-.75,.75-.75s.75,.34,.75,.75v2.12h2.25c.41,0,.75,.34,.75,.75s-.34,.75-.75,.75Z"/></g></svg>