<?xml version="1.0" encoding="UTF-8"?><svg fill="currentColor" xmlns="http://www.w3.org/2000/svg" viewBox="0 0 24 24"><g id="p"><g><rect x="8.25" y="2.25" width="7.5" height="4.5" rx="1.75" ry="1.75"/><path d="M17.25,4.48v.52c0,1.79-1.46,3.25-3.25,3.25h-4c-1.79,0-3.25-1.46-3.25-3.25v-.52c-1.45,.52-2.5,1.89-2.5,3.52v10c0,2.07,1.68,3.75,3.75,3.75h8c2.07,0,3.75-1.68,3.75-3.75V8c0-1.63-1.05-3-2.5-3.52Zm-7.25,7.77h1.25v-1.25c0-.41,.34-.75,.75-.75s.75,.34,.75,.75v1.25h1.25c.41,0,.75,.34,.75,.75s-.34,.75-.75,.75h-1.25v1.25c0,.41-.34,.75-.75,.75s-.75-.34-.75-.75v-1.25h-1.25c-.41,0-.75-.34-.75-.75s.34-.75,.75-.75Zm5,6.5h-6c-.41,0-.75-.34-.75-.75s.34-.75,.75-.75h6c.41,0,.75,.34,.75,.75s-.34,.75-.75,.75Z"/></g></g></svg>