<?xml version="1.0" encoding="UTF-8"?><svg fill="currentColor" xmlns="http://www.w3.org/2000/svg" viewBox="0 0 24 24"><g id="k"><g><circle cx="8" cy="11" r="1.25"/><path d="M17,2.25H7c-2.62,0-4.75,2.13-4.75,4.75v10c0,2.62,2.13,4.75,4.75,4.75h10c2.62,0,4.75-2.13,4.75-4.75V7c0-2.62-2.13-4.75-4.75-4.75Zm.75,7.75c0,1.25-.85,2.3-2,2.63v.87c0,2.34-1.91,4.25-4.25,4.25s-4.16-1.83-4.24-4.11c-1.16-.32-2.01-1.38-2.01-2.64,0-1.52,1.23-2.75,2.75-2.75s2.75,1.23,2.75,2.75c0,1.25-.84,2.3-1.99,2.63,.07,1.46,1.26,2.62,2.74,2.62s2.75-1.23,2.75-2.75v-.87c-1.15-.33-2-1.38-2-2.63v-2c0-.41,.34-.75,.75-.75s.75,.34,.75,.75v2c0,.69,.56,1.25,1.25,1.25s1.25-.56,1.25-1.25v-2c0-.41,.34-.75,.75-.75s.75,.34,.75,.75v2Z"/></g></g></svg>