<?xml version="1.0" encoding="UTF-8"?><svg fill="currentColor" xmlns="http://www.w3.org/2000/svg" viewBox="0 0 24 24"><g id="h"><g><path d="M5.37,17.24l-.77,1.15c-.32,.48-.43,1.06-.31,1.63,.12,.56,.45,1.05,.94,1.37,.38,.25,.81,.38,1.23,.38,.69,0,1.37-.33,1.77-.94l.75-1.12-2.42-1.61-1.19-.86Z"/><path d="M19.19,5.11c-.2-.93-.75-1.73-1.55-2.27-1.66-1.11-3.89-.7-4.97,.91l-3.79,5.66c-.38,.57-.58,1.24-.57,1.94v.87c.02,.39-.09,.76-.3,1.08l-1.79,2.67,2.37,1.68,1.23,.81,1.82-2.72c.21-.32,.51-.56,.88-.7l.81-.32c.65-.25,1.19-.69,1.57-1.26l3.79-5.66c.53-.79,.71-1.74,.5-2.67Zm-4.43,3.38l-1.93,2.88c-.14,.22-.38,.33-.62,.33-.14,0-.29-.04-.42-.13-.34-.23-.44-.7-.21-1.04l1.93-2.88c.23-.34,.69-.44,1.04-.21,.34,.23,.44,.7,.21,1.04Z"/></g></g></svg>