<?xml version="1.0" encoding="UTF-8"?><svg fill="currentColor" xmlns="http://www.w3.org/2000/svg" viewBox="0 0 24 24"><g id="m"><path d="M20.75,7.92c.03-.59,0-1.19-.09-1.87-.4-1.54-1.39-2.78-2.73-3.4-1.18-.55-2.48-.54-3.66,.03-.12,.06-.24,.12-.36,.19-.33,.18-.66,.39-.97,.61-.53,.38-1.18,.38-1.71,0-.31-.23-.63-.43-.97-.61-.12-.07-.24-.13-.36-.19-1.39-.67-2.93-.56-4.24,.29-1.51,.99-2.4,2.83-2.32,4.9,.05,1.07,.29,2.1,.69,3.07,.2,.47,.43,.92,.71,1.35-.24,1.14-.39,2.78,.07,4.65,.48,1.94,1.41,3.31,2.11,4.11,.23,.26,.5,.45,.81,.57,.22,.08,.44,.12,.67,.12,.39,0,.78-.12,1.12-.37,.58-.41,.91-1.1,.88-1.84-.03-.98,.08-2.32,.78-3.08,.18-.2,.52-.57,.9-.57s.73,.38,.9,.57c.69,.76,.81,2.09,.78,3.08-.02,.74,.31,1.43,.88,1.84,.53,.38,1.18,.47,1.78,.25,.31-.12,.59-.31,.81-.57,.7-.8,1.64-2.17,2.11-4.11,.46-1.87,.31-3.51,.08-4.65,.22-.34,.42-.7,.58-1.07,.65-1.44,.71-2.7,.74-3.31Zm-5.3-.32c-1.33,1-2.73,1.15-3.45,1.15-1.67,0-2.88-.72-3.45-1.15-.33-.25-.4-.72-.15-1.05,.25-.33,.72-.4,1.05-.15,.42,.32,1.32,.85,2.55,.85,.53,0,1.56-.11,2.55-.85,.33-.25,.8-.18,1.05,.15,.25,.33,.18,.8-.15,1.05Z"/></g></svg>