<?xml version="1.0" encoding="UTF-8"?><svg fill="currentColor" xmlns="http://www.w3.org/2000/svg" viewBox="0 0 24 24"><g id="b"><g><circle cx="7.05" cy="17" r="4.75"/><path d="M3.05,3.75h2c.69,0,1.25,.56,1.25,1.25v5.8c.25-.03,.5-.05,.75-.05,2.65,0,4.92,1.66,5.82,4h2.18c.41,0,.75-.34,.75-.75v-4.25h1.25c.41,0,.75-.34,.75-.75s-.34-.75-.75-.75H7.8v-3.25c0-1.52-1.23-2.75-2.75-2.75H3.05c-.41,0-.75,.34-.75,.75s.34,.75,.75,.75Z"/><path d="M21.05,19.25h-.9c-.25,0-.47-.17-.53-.41,0-.01,0-.02,0-.03v-.02l-.33-1.99c-.21-1.26-.96-2.3-1.98-2.93v.12c0,1.24-1.01,2.25-2.25,2.25h-1.81c.03,.25,.06,.49,.06,.75,0,.99-.24,1.92-.65,2.75h5.73c.36,.61,1.02,1,1.76,1h.9c.41,0,.75-.34,.75-.75s-.34-.75-.75-.75Z"/></g></g></svg>