<?xml version="1.0" encoding="UTF-8"?><svg fill="currentColor" xmlns="http://www.w3.org/2000/svg" viewBox="0 0 24 24"><g id="q"><g><circle cx="16.5" cy="16.5" r=".75"/><circle cx="7.5" cy="16.5" r=".75"/><path d="M17,2.25H7c-2.62,0-4.75,2.13-4.75,4.75v10c0,2.62,2.13,4.75,4.75,4.75h10c2.62,0,4.75-2.13,4.75-4.75V7c0-2.62-2.13-4.75-4.75-4.75Zm-1.41,8c.46,0,.91,.19,1.24,.51l.71,.71c.29,.29,.29,.77,0,1.06-.15,.15-.34,.22-.53,.22s-.38-.07-.53-.22l-.71-.71s-.11-.07-.18-.07h-2.84v2.5h3.25c.06,0,.11,.02,.17,.03,.11-.02,.22-.03,.33-.03,1.24,0,2.25,1.01,2.25,2.25s-1.01,2.25-2.25,2.25-2.25-1.01-2.25-2.25c0-.26,.05-.51,.14-.75h-4.78c.08,.24,.14,.49,.14,.75,0,1.24-1.01,2.25-2.25,2.25s-2.25-1.01-2.25-2.25,1.01-2.25,2.25-2.25c.11,0,.22,.02,.33,.03,.06-.01,.11-.03,.17-.03h3.25v-2.5h-2.84c-.07,0-.13,.03-.18,.07l-.71,.71c-.29,.29-.77,.29-1.06,0s-.29-.77,0-1.06l.71-.71c.33-.33,.78-.51,1.24-.51h2.84v-1.5h-3.84c-.07,0-.13,.03-.18,.07l-.71,.71c-.29,.29-.77,.29-1.06,0s-.29-.77,0-1.06l.71-.71c.33-.33,.78-.51,1.24-.51h3.84v-1.25c0-.41,.34-.75,.75-.75s.75,.34,.75,.75v1.25h3.84c.46,0,.91,.19,1.24,.51l.71,.71c.29,.29,.29,.77,0,1.06-.15,.15-.34,.22-.53,.22s-.38-.07-.53-.22l-.71-.71s-.11-.07-.18-.07h-3.84v1.5h2.84Z"/></g></g></svg>