<?xml version="1.0" encoding="UTF-8"?><svg fill="currentColor" xmlns="http://www.w3.org/2000/svg" viewBox="0 0 24 24"><g id="p"><g><path d="M12,2.25C6.62,2.25,2.25,6.62,2.25,12s4.37,9.75,9.75,9.75,9.75-4.37,9.75-9.75S17.38,2.25,12,2.25Zm0,18c-4.55,0-8.25-3.7-8.25-8.25S7.45,3.75,12,3.75s8.25,3.7,8.25,8.25-3.7,8.25-8.25,8.25Z"/><path d="M13.75,8.28v-1.28c0-.41-.34-.75-.75-.75s-.75,.34-.75,.75v1.25h-1.5v-1.25c0-.41-.34-.75-.75-.75s-.75,.34-.75,.75v1.25h-.25c-.41,0-.75,.34-.75,.75v6c0,.41,.34,.75,.75,.75h.25v1.25c0,.41,.34,.75,.75,.75s.75-.34,.75-.75v-1.25h1.5v1.25c0,.41,.34,.75,.75,.75s.75-.34,.75-.75v-1.28c1.12-.13,2-1.07,2-2.22,0-.58-.22-1.1-.57-1.5,.36-.4,.57-.92,.57-1.5,0-1.16-.88-2.1-2-2.22Zm-.25,5.97h-3.75v-1.5h3.75c.41,0,.75,.34,.75,.75s-.34,.75-.75,.75Zm0-3h-3.75v-1.5h3.75c.41,0,.75,.34,.75,.75s-.34,.75-.75,.75Z"/></g></g></svg>