<?xml version="1.0" encoding="UTF-8"?><svg fill="currentColor" xmlns="http://www.w3.org/2000/svg" viewBox="0 0 24 24"><g id="n"><g><path d="M16,2.25H8c-3.17,0-5.75,2.58-5.75,5.75v8c0,3.17,2.58,5.75,5.75,5.75h8c3.17,0,5.75-2.58,5.75-5.75V8c0-3.17-2.58-5.75-5.75-5.75Zm4.25,13.75c0,2.34-1.91,4.25-4.25,4.25H8c-2.34,0-4.25-1.91-4.25-4.25V8c0-2.34,1.91-4.25,4.25-4.25h8c2.34,0,4.25,1.91,4.25,4.25v8Z"/><path d="M14,5.25h-4c-2.36,0-4.31,1.74-4.67,4h-.33c-.41,0-.75,.34-.75,.75s.34,.75,.75,.75h.25v2.5h-.25c-.41,0-.75,.34-.75,.75s.34,.75,.75,.75h.33c.36,2.26,2.31,4,4.67,4h4c2.62,0,4.75-2.13,4.75-4.75v-4c0-2.62-2.13-4.75-4.75-4.75Zm3.25,8.75c0,1.79-1.46,3.25-3.25,3.25h-4c-1.53,0-2.81-1.07-3.15-2.5h.15c.41,0,.75-.34,.75-.75s-.34-.75-.75-.75h-.25v-2.5h.25c.41,0,.75-.34,.75-.75s-.34-.75-.75-.75h-.15c.34-1.43,1.62-2.5,3.15-2.5h4c1.79,0,3.25,1.46,3.25,3.25v4Z"/><path d="M14,9.25c-1.52,0-2.75,1.23-2.75,2.75s1.23,2.75,2.75,2.75,2.75-1.23,2.75-2.75-1.23-2.75-2.75-2.75Zm0,4c-.69,0-1.25-.56-1.25-1.25s.56-1.25,1.25-1.25,1.25,.56,1.25,1.25-.56,1.25-1.25,1.25Z"/></g></g></svg>