<?xml version="1.0" encoding="UTF-8"?><svg fill="currentColor" xmlns="http://www.w3.org/2000/svg" viewBox="0 0 24 24"><g id="q"><path d="M12,2.25c-4.42,0-7.75,1.61-7.75,3.75v11.5c0,2.38,3.4,4.25,7.75,4.25s7.75-1.87,7.75-4.25V6c0-2.14-3.33-3.75-7.75-3.75Zm6.25,11.25c0,1.3-2.57,2.75-6.25,2.75s-6.25-1.45-6.25-2.75v-1.47c1.4,1.05,3.65,1.72,6.25,1.72s4.85-.67,6.25-1.72v1.47Zm0-4c0,1.3-2.57,2.75-6.25,2.75s-6.25-1.45-6.25-2.75v-1.23c1.39,.91,3.62,1.48,6.25,1.48s4.86-.57,6.25-1.48v1.23ZM12,3.75c3.82,0,6.25,1.33,6.25,2.25s-2.43,2.25-6.25,2.25-6.25-1.33-6.25-2.25,2.43-2.25,6.25-2.25Zm0,16.5c-3.68,0-6.25-1.45-6.25-2.75v-1.47c1.4,1.05,3.65,1.72,6.25,1.72s4.85-.67,6.25-1.72v1.47c0,1.3-2.57,2.75-6.25,2.75Z"/></g></svg>