<?xml version="1.0" encoding="UTF-8"?><svg fill="currentColor" xmlns="http://www.w3.org/2000/svg" viewBox="0 0 24 24"><g id="s"><g><path d="M17.05,6.88c-.01-.07-.02-.14-.05-.2-1.28-2.69-4.03-4.43-7-4.43-4.27,0-7.75,3.48-7.75,7.75,0,2.98,1.74,5.73,4.43,7,.06,.03,.13,.03,.2,.04,1.19,2.76,3.93,4.7,7.12,4.7,4.27,0,7.75-3.48,7.75-7.75,0-3.19-1.94-5.93-4.7-7.12ZM3.75,10c0-3.45,2.8-6.25,6.25-6.25,2.01,0,3.88,.99,5.04,2.58-.34-.05-.69-.08-1.04-.08-4.27,0-7.75,3.48-7.75,7.75,0,.35,.03,.7,.08,1.04-1.59-1.16-2.58-3.03-2.58-5.04Zm10.25,10.25c-3.45,0-6.25-2.8-6.25-6.25s2.8-6.25,6.25-6.25,6.25,2.8,6.25,6.25-2.8,6.25-6.25,6.25Z"/><path d="M13.67,11.33l-2,1c-.37,.19-.52,.64-.34,1.01,.19,.37,.64,.52,1.01,.34l.91-.46v2.79c0,.41,.34,.75,.75,.75s.75-.34,.75-.75v-4c0-.26-.13-.5-.36-.64-.22-.14-.5-.15-.73-.03Z"/></g></g></svg>