<?xml version="1.0" encoding="UTF-8"?><svg fill="currentColor" xmlns="http://www.w3.org/2000/svg" viewBox="0 0 24 24"><g id="d"><path d="M16,3.25H8c-3.17,0-5.75,2.58-5.75,5.75v6c0,3.17,2.58,5.75,5.75,5.75h8c3.17,0,5.75-2.58,5.75-5.75v-6c0-3.17-2.58-5.75-5.75-5.75Zm-8,1.5h8c2.09,0,3.82,1.51,4.17,3.5h-3.06c-.98,0-1.85,.54-2.29,1.42-.18,.36-.54,.58-.95,.58h-3.76c-.4,0-.77-.22-.95-.58-.44-.87-1.31-1.42-2.29-1.42H3.83c.36-1.99,2.09-3.5,4.17-3.5Zm8,14.5H8c-2.34,0-4.25-1.91-4.25-4.25v-5.25h3.13c.4,0,.77,.22,.95,.58,.44,.87,1.31,1.42,2.29,1.42h3.76c.98,0,1.85-.54,2.29-1.42,.18-.36,.54-.58,.95-.58h3.13v5.25c0,2.34-1.91,4.25-4.25,4.25Z"/></g></svg>