<?xml version="1.0" encoding="UTF-8"?><svg fill="currentColor" xmlns="http://www.w3.org/2000/svg" viewBox="0 0 24 24"><g id="u"><g><path d="M17.58,10.11l-2.83-2.45v-3.61c0-.99-.81-1.79-1.79-1.79H6.04c-.99,0-1.79,.81-1.79,1.79v14.91c0,.99,.81,1.79,1.79,1.79h10.96c.96,0,1.75-.79,1.75-1.75v-6.43c0-.92-.42-1.82-1.17-2.46Zm-4.33-6.07v2.07c-.87-.31-1.5-1.14-1.5-2.11v-.25h1.21c.16,0,.29,.13,.29,.29Zm-7.21-.29h1.21v.25c0,.98-.63,1.8-1.5,2.11v-2.07c0-.16,.13-.29,.29-.29Zm-.29,15.21v-2.07c.87,.31,1.5,1.14,1.5,2.11v.25h-1.21c-.16,0-.29-.13-.29-.29Zm6.25,.29h-3.25v-.25c0-1.81-1.29-3.33-3-3.67V7.67c1.71-.35,3-1.86,3-3.67v-.25h1.5v.25c0,1.81,1.29,3.33,3,3.67v3.67l-.56-.22c-.87-.35-1.84,.02-2.26,.86-.29,.57-.24,1.25,.09,1.76l2.6,4.28c.08,.13,.12,.27,.12,.42,0,.45-.36,.81-.81,.81h-.44Zm5.25-.25c0,.14-.11,.25-.25,.25h-2.41c.1-.25,.16-.53,.16-.81,0-.42-.12-.84-.34-1.2l-2.62-4.31c-.06-.08-.06-.19-.02-.28,.07-.13,.22-.19,.36-.14l2.58,1.03c.39,.16,.82-.03,.98-.42s-.03-.82-.42-.98l-.52-.21v-2.3l1.85,1.6c.42,.36,.65,.83,.65,1.33v6.43Z"/><path d="M10.71,10.33c.14-.39-.07-.82-.46-.96-.24-.09-.49-.13-.75-.13-1.24,0-2.25,1.01-2.25,2.25,0,.95,.6,1.8,1.5,2.12,.08,.03,.17,.04,.25,.04,.31,0,.6-.19,.71-.5,.14-.39-.07-.82-.46-.96-.3-.11-.5-.39-.5-.71,0-.5,.53-.87,1-.71,.39,.14,.82-.07,.96-.46Z"/></g></g></svg>