<?xml version="1.0" encoding="UTF-8"?><svg fill="currentColor" xmlns="http://www.w3.org/2000/svg" viewBox="0 0 24 24"><g id="o"><g><path d="M21.15,17.35l-1.2-3c-.27-.67-.91-1.1-1.63-1.1h-1.22l-.91-2.27c-.42-1.05-1.42-1.73-2.55-1.73h-3.29c-1.13,0-2.13,.68-2.55,1.73l-.91,2.27h-1.22c-.72,0-1.36,.43-1.63,1.1l-1.2,3c-.22,.54-.15,1.15,.18,1.63,.33,.48,.87,.77,1.45,.77h6.05c.58,0,1.12-.29,1.45-.77,.01-.02,.02-.04,.03-.05,.01,.02,.02,.04,.03,.05,.33,.48,.87,.77,1.45,.77h6.05c.58,0,1.12-.29,1.45-.77,.33-.48,.39-1.09,.18-1.63Zm-10.42,.79s-.09,.11-.21,.11H4.48c-.12,0-.18-.07-.21-.11s-.07-.13-.03-.23l1.2-3c.04-.1,.13-.16,.23-.16h3.65c.1,0,.19,.06,.23,.16l1.2,3c.04,.11,0,.19-.03,.23Zm1.27-1.16l-1.05-2.63c-.27-.67-.91-1.1-1.63-1.1h-.82l.69-1.71c.19-.48,.65-.79,1.16-.79h3.29c.51,0,.97,.31,1.16,.79l.69,1.71h-.82c-.72,0-1.36,.43-1.63,1.1l-1.05,2.63Zm7.73,1.16s-.09,.11-.21,.11h-6.05c-.12,0-.18-.07-.21-.11s-.07-.13-.03-.23l1.2-3c.04-.1,.13-.16,.23-.16h3.65c.1,0,.19,.06,.23,.16l1.2,3c.04,.11,0,.19-.03,.23Z"/><path d="M12,7.75c.41,0,.75-.34,.75-.75v-2c0-.41-.34-.75-.75-.75s-.75,.34-.75,.75v2c0,.41,.34,.75,.75,.75Z"/><path d="M7.88,8.53c.15,.15,.34,.22,.53,.22s.38-.07,.53-.22c.29-.29,.29-.77,0-1.06l-1.41-1.41c-.29-.29-.77-.29-1.06,0s-.29,.77,0,1.06l1.41,1.41Z"/><path d="M15.59,8.75c.19,0,.38-.07,.53-.22l1.41-1.41c.29-.29,.29-.77,0-1.06s-.77-.29-1.06,0l-1.41,1.41c-.29,.29-.29,.77,0,1.06,.15,.15,.34,.22,.53,.22Z"/></g></g></svg>