<?xml version="1.0" encoding="UTF-8"?><svg fill="currentColor" xmlns="http://www.w3.org/2000/svg" viewBox="0 0 24 24"><g id="t"><g><path d="M19,6.25H5c-1.52,0-2.75,1.23-2.75,2.75v6c0,1.52,1.23,2.75,2.75,2.75h14c1.52,0,2.75-1.23,2.75-2.75v-6c0-1.52-1.23-2.75-2.75-2.75Zm1.25,8.75c0,.69-.56,1.25-1.25,1.25H5c-.69,0-1.25-.56-1.25-1.25v-6c0-.69,.56-1.25,1.25-1.25h14c.69,0,1.25,.56,1.25,1.25v6Z"/><path d="M12,9.25c-1.52,0-2.75,1.23-2.75,2.75s1.23,2.75,2.75,2.75,2.75-1.23,2.75-2.75-1.23-2.75-2.75-2.75Zm0,4c-.69,0-1.25-.56-1.25-1.25s.56-1.25,1.25-1.25,1.25,.56,1.25,1.25-.56,1.25-1.25,1.25Z"/><path d="M18,11.25h-1c-.41,0-.75,.34-.75,.75s.34,.75,.75,.75h1c.41,0,.75-.34,.75-.75s-.34-.75-.75-.75Z"/><path d="M7,11.25h-1c-.41,0-.75,.34-.75,.75s.34,.75,.75,.75h1c.41,0,.75-.34,.75-.75s-.34-.75-.75-.75Z"/></g></g></svg>