<?xml version="1.0" encoding="UTF-8"?><svg fill="currentColor" xmlns="http://www.w3.org/2000/svg" viewBox="0 0 24 24"><g id="i"><g><path d="M19,9.25h-1.25v-1.25c0-1.52-1.23-2.75-2.75-2.75H5c-1.52,0-2.75,1.23-2.75,2.75v4c0,1.52,1.23,2.75,2.75,2.75h1.25v1.25c0,1.52,1.23,2.75,2.75,2.75h10c1.52,0,2.75-1.23,2.75-2.75v-4c0-1.52-1.23-2.75-2.75-2.75ZM5,13.25c-.69,0-1.25-.56-1.25-1.25v-4c0-.69,.56-1.25,1.25-1.25H15c.69,0,1.25,.56,1.25,1.25v1.25h-7.25c-1.52,0-2.75,1.23-2.75,2.75v1.25h-1.25Zm15.25,2.75c0,.69-.56,1.25-1.25,1.25H9c-.69,0-1.25-.56-1.25-1.25v-4c0-.69,.56-1.25,1.25-1.25h10c.69,0,1.25,.56,1.25,1.25v4Z"/><path d="M14,11.25c-1.52,0-2.75,1.23-2.75,2.75s1.23,2.75,2.75,2.75,2.75-1.23,2.75-2.75-1.23-2.75-2.75-2.75Zm0,4c-.69,0-1.25-.56-1.25-1.25s.56-1.25,1.25-1.25,1.25,.56,1.25,1.25-.56,1.25-1.25,1.25Z"/><path d="M9.02,11.25h-.01c-.41,0-.74,.34-.74,.75s.34,.75,.75,.75,.75-.34,.75-.75-.34-.75-.75-.75Z"/><path d="M19.02,15.25h0c-.41,0-.75,.34-.75,.75s.34,.75,.75,.75,.75-.34,.75-.75-.33-.75-.75-.75Z"/></g></g></svg>