<?xml version="1.0" encoding="UTF-8"?><svg fill="currentColor" xmlns="http://www.w3.org/2000/svg" viewBox="0 0 24 24"><g id="l"><g><path d="M19.82,5.74c-.92-.28-1.85-.45-2.78-.49-1.99-.09-3.45,.4-4.98,.93-1.2,.41-2.45,.84-4.15,1.07-.91,.13-1.86,.18-2.81,.15-.76-.02-1.48,.26-2.02,.79-.53,.52-.83,1.21-.83,1.96v5.07c0,1.44,1.13,2.65,2.58,2.75,.41,.03,.82,.04,1.23,.04,1.05,0,2.08-.09,3.08-.28,1.47-.28,2.61-.71,3.62-1.09,1.37-.51,2.54-.95,4.21-.9,.5,.02,1,.08,1.49,.18,.8,.17,1.63-.04,2.26-.55,.65-.53,1.02-1.31,1.02-2.14v-4.86c0-1.21-.78-2.27-1.93-2.63Zm.43,7.49c0,.38-.17,.74-.46,.98-.29,.23-.66,.33-1.01,.25-.58-.12-1.17-.19-1.75-.21-1.95-.07-3.33,.45-4.79,1-1,.38-2.03,.76-3.38,1.02-1.26,.24-2.58,.31-3.93,.22-.66-.05-1.18-.6-1.18-1.25v-5.07c0-.33,.13-.65,.37-.88,.24-.24,.56-.36,.9-.36h.03c1.04,.02,2.06-.03,3.05-.17,1.85-.25,3.22-.73,4.43-1.14,1.45-.5,2.71-.93,4.43-.85,.8,.04,1.61,.18,2.41,.43,.52,.16,.88,.64,.88,1.2v4.86Z"/><path d="M12.5,10.75h.5c.41,0,.75-.34,.75-.75s-.34-.75-.75-.75h-.5c-1.24,0-2.25,1.01-2.25,2.25s1.01,2.25,2.25,2.25h.5c.41,0,.75-.34,.75-.75s-.34-.75-.75-.75h-.5c-.41,0-.75-.34-.75-.75s.34-.75,.75-.75Z"/></g></g></svg>