<?xml version="1.0" encoding="UTF-8"?><svg fill="currentColor" xmlns="http://www.w3.org/2000/svg" viewBox="0 0 24 24"><g id="m"><path d="M18.66,14.64l-.11-.19c-.19-.35-.51-.93-.86-1.75-.31-.72-.56-1.47-.77-2.22,.5-.31,.83-.86,.83-1.48,0-.81-.55-1.48-1.3-1.68l.84-1.12c.45-.6,.58-1.37,.36-2.09s-.77-1.27-1.48-1.51c-.84-.28-1.75-.07-2.38,.56l-1.78,1.78-1.78-1.78c-.63-.63-1.54-.84-2.38-.56-.72,.24-1.26,.79-1.48,1.51s-.09,1.48,.36,2.09l.84,1.12c-.75,.2-1.3,.88-1.3,1.68,0,.63,.33,1.17,.83,1.48-.21,.76-.46,1.5-.77,2.22-.35,.82-.67,1.4-.86,1.75l-.13,.23c-.79,1.48-.73,3.23,.14,4.68,.9,1.49,2.47,2.39,4.2,2.39h4.68c1.73,0,3.31-.89,4.2-2.39,.87-1.45,.92-3.2,.12-4.72ZM7.75,9c0-.14,.11-.25,.25-.25h8c.14,0,.25,.11,.25,.25s-.11,.25-.25,.25H8c-.14,0-.25-.11-.25-.25Zm.04-4.44c.08-.26,.27-.45,.53-.54,.3-.1,.62-.02,.85,.2l1.96,1.96c.49,.49,1.28,.49,1.77,0l1.96-1.96c.22-.22,.55-.3,.85-.2,.25,.08,.45,.28,.53,.54s.03,.53-.13,.74l-1.46,1.95h-5.25l-1.46-1.95c-.16-.22-.21-.49-.13-.74Zm9.47,14.03c-.62,1.04-1.71,1.66-2.92,1.66h-4.68c-1.2,0-2.29-.62-2.92-1.66-.6-1-.64-2.2-.08-3.24l.1-.18c.21-.37,.55-1,.93-1.88,.35-.82,.65-1.68,.89-2.55h6.84c.24,.87,.54,1.72,.89,2.55,.38,.88,.72,1.51,.93,1.88l.11,.21c.54,1.01,.5,2.21-.1,3.21Z"/></g></svg>