<?xml version="1.0" encoding="UTF-8"?><svg fill="currentColor" xmlns="http://www.w3.org/2000/svg" viewBox="0 0 24 24"><g id="r"><path d="M20.75,10c0-.12-.03-.23-.08-.33-.2-.83-.78-1.53-1.59-1.88L9.08,3.51c-.85-.37-1.82-.28-2.6,.23-.77,.51-1.24,1.37-1.24,2.3v3.22h-.25c-1.52,0-2.75,1.23-2.75,2.75v7c0,1.52,1.23,2.75,2.75,2.75h13c1.52,0,2.75-1.23,2.75-2.75V10.32c0-.07,0-.14,0-.21,0-.04,0-.07,0-.11ZM6.75,6.03c0-.43,.21-.81,.56-1.04,.36-.24,.79-.27,1.18-.11l10,4.29c.05,.02,.11,.05,.16,.08H6.75v-3.22Zm12.5,12.97c0,.69-.56,1.25-1.25,1.25H5c-.69,0-1.25-.56-1.25-1.25v-7c0-.69,.56-1.25,1.25-1.25h14.25v8.25Z"/></g></svg>