<?xml version="1.0" encoding="UTF-8"?><svg fill="currentColor" xmlns="http://www.w3.org/2000/svg" viewBox="0 0 24 24"><g id="j"><g><path d="M18,7.25h-1.25v-.25c0-1.52-1.23-2.75-2.75-2.75h-4c-1.52,0-2.75,1.23-2.75,2.75v.25h-1.25c-2.07,0-3.75,1.68-3.75,3.75v6c0,2.07,1.68,3.75,3.75,3.75h12c2.07,0,3.75-1.68,3.75-3.75v-6c0-2.07-1.68-3.75-3.75-3.75Zm-9.25-.25c0-.69,.56-1.25,1.25-1.25h4c.69,0,1.25,.56,1.25,1.25v.25h-6.5v-.25Zm11.5,10c0,1.24-1.01,2.25-2.25,2.25H6c-1.24,0-2.25-1.01-2.25-2.25v-6c0-1.24,1.01-2.25,2.25-2.25h12c1.24,0,2.25,1.01,2.25,2.25v6Z"/><path d="M12,12.75h1c.41,0,.75-.34,.75-.75s-.34-.75-.75-.75h-.25v-.25c0-.41-.34-.75-.75-.75s-.75,.34-.75,.75v.43c-.59,.28-1,.88-1,1.57,0,.96,.79,1.75,1.75,1.75,.14,0,.25,.11,.25,.25s-.11,.25-.25,.25h-1c-.41,0-.75,.34-.75,.75s.34,.75,.75,.75h.25v.25c0,.41,.34,.75,.75,.75s.75-.34,.75-.75v-.43c.59-.28,1-.88,1-1.57,0-.96-.79-1.75-1.75-1.75-.14,0-.25-.11-.25-.25s.11-.25,.25-.25Z"/></g></g></svg>