<?xml version="1.0" encoding="UTF-8"?><svg fill="currentColor" xmlns="http://www.w3.org/2000/svg" viewBox="0 0 24 24"><g id="f"><path d="M18,4.25H7c-2.07,0-3.75,1.68-3.75,3.75v1.3c-.57,.12-1,.6-1,1.2v3c0,.6,.43,1.08,1,1.2v1.3c0,2.07,1.68,3.75,3.75,3.75h11c2.07,0,3.75-1.68,3.75-3.75V8c0-2.07-1.68-3.75-3.75-3.75ZM3.75,13.25v-2.5h2.25c.14,0,.25,.11,.25,.25v2c0,.14-.11,.25-.25,.25H3.75Zm16.5,2.75c0,1.24-1.01,2.25-2.25,2.25H7c-1.24,0-2.25-1.01-2.25-2.25v-1.25h1.25c.96,0,1.75-.79,1.75-1.75v-2c0-.96-.79-1.75-1.75-1.75h-1.25v-1.25c0-1.24,1.01-2.25,2.25-2.25h11c1.24,0,2.25,1.01,2.25,2.25v8Z"/></g></svg>