<?xml version="1.0" encoding="UTF-8"?><svg fill="currentColor" xmlns="http://www.w3.org/2000/svg" viewBox="0 0 24 24"><g id="k"><g><path d="M21.72,7.53l-8.97,3.99v9.93c.12-.04,.25-.07,.37-.12l7-3.11c.99-.44,1.63-1.43,1.63-2.51V7.77c0-.08-.01-.16-.03-.24Zm-2.39,4.14l-2,1c-.11,.05-.22,.08-.33,.08-.27,0-.54-.15-.67-.42-.19-.37-.04-.82,.34-1.01l2-1c.37-.18,.82-.04,1.01,.34,.19,.37,.04,.82-.34,1.01Z"/><path d="M20.6,6.38l-7.39-3.63c-.77-.38-1.65-.38-2.41,0l-2.39,1.16,8.88,3.94,3.32-1.47Z"/><polygon points="6.64 4.77 3.36 6.37 12 10.21 15.43 8.68 6.64 4.77"/><path d="M2.25,7.77v7.93c0,1.09,.64,2.07,1.63,2.51l7,3.11c.12,.05,.24,.08,.37,.12V11.51L2.29,7.54c-.02,.08-.04,.15-.04,.23Z"/></g></g></svg>