<?xml version="1.0" encoding="UTF-8"?><svg fill="currentColor" xmlns="http://www.w3.org/2000/svg" viewBox="0 0 24 24"><g id="l"><g><path d="M21.53,19.47l-1.41-1.41c.36-.54,.59-1.17,.63-1.84,.06-1-.28-1.96-.94-2.71h0c-1.37-1.54-3.75-1.68-5.29-.31-.75,.67-1.19,1.58-1.25,2.58-.06,1,.28,1.96,.94,2.71,.74,.83,1.77,1.26,2.81,1.26,.72,0,1.43-.21,2.06-.63l1.41,1.41c.15,.15,.34,.22,.53,.22s.38-.07,.53-.22c.29-.29,.29-.77,0-1.06Z"/><path d="M13.85,12.45c.87-.77,1.99-1.2,3.15-1.2,.61,0,1.2,.13,1.75,.35v-3.6c0-2.07-1.68-3.75-3.75-3.75H6c-2.07,0-3.75,1.68-3.75,3.75v5c0,2.07,1.68,3.75,3.75,3.75h6.32c-.05-.34-.08-.68-.06-1.03,.08-1.27,.64-2.43,1.59-3.27Zm.4-4.45c0-.41,.34-.75,.75-.75s.75,.34,.75,.75v2c0,.41-.34,.75-.75,.75s-.75-.34-.75-.75v-2Zm-7.5,5c0,.41-.34,.75-.75,.75s-.75-.34-.75-.75v-5c0-.41,.34-.75,.75-.75s.75,.34,.75,.75v5Zm3,0c0,.41-.34,.75-.75,.75s-.75-.34-.75-.75v-5c0-.41,.34-.75,.75-.75s.75,.34,.75,.75v5Zm1.5-1v-4c0-.41,.34-.75,.75-.75s.75,.34,.75,.75v4c0,.41-.34,.75-.75,.75s-.75-.34-.75-.75Z"/></g></g></svg>