<?xml version="1.0" encoding="UTF-8"?><svg fill="currentColor" xmlns="http://www.w3.org/2000/svg" viewBox="0 0 24 24"><g id="u"><g><path d="M18,7.25H6c-1.52,0-2.75,1.23-2.75,2.75v9c0,1.52,1.23,2.75,2.75,2.75h12c1.52,0,2.75-1.23,2.75-2.75V10c0-1.52-1.23-2.75-2.75-2.75Zm-1,11.5h-3c-.41,0-.75-.34-.75-.75s.34-.75,.75-.75h3c.41,0,.75,.34,.75,.75s-.34,.75-.75,.75Z"/><path d="M11.25,6.25V2.25h-3.9c-1.13,0-2.13,.68-2.55,1.73l-.66,1.65c-.19,.48-.34,.96-.47,1.46,.64-.51,1.44-.83,2.33-.83h5.25Z"/><path d="M20.33,7.08c-.13-.49-.28-.98-.47-1.45l-.66-1.65c-.42-1.05-1.42-1.73-2.55-1.73h-3.9V6.25h5.25c.88,0,1.69,.32,2.33,.83Z"/></g></g></svg>