<?xml version="1.0" encoding="UTF-8"?><svg fill="currentColor" xmlns="http://www.w3.org/2000/svg" viewBox="0 0 24 24"><g id="i"><g><path d="M10,11.75h4c1.52,0,2.75-1.23,2.75-2.75V5c0-1.52-1.23-2.75-2.75-2.75h-4c-1.52,0-2.75,1.23-2.75,2.75v4c0,1.52,1.23,2.75,2.75,2.75Zm0-3.5h1c.41,0,.75,.34,.75,.75s-.34,.75-.75,.75h-1c-.41,0-.75-.34-.75-.75s.34-.75,.75-.75Z"/><path d="M6.48,10.25h-1.48c-1.52,0-2.75,1.23-2.75,2.75v5c0,1.52,1.23,2.75,2.75,2.75h5c.45,0,.87-.12,1.25-.31v-7.69h-1.25c-1.63,0-3-1.05-3.52-2.5Zm-.48,8.5h-1c-.41,0-.75-.34-.75-.75s.34-.75,.75-.75h1c.41,0,.75,.34,.75,.75s-.34,.75-.75,.75Z"/><path d="M19,10.25h-1.48c-.52,1.45-1.89,2.5-3.52,2.5h-1.25v7.69c.38,.19,.8,.31,1.25,.31h5c1.52,0,2.75-1.23,2.75-2.75v-5c0-1.52-1.23-2.75-2.75-2.75Zm-3,8.5h-1c-.41,0-.75-.34-.75-.75s.34-.75,.75-.75h1c.41,0,.75,.34,.75,.75s-.34,.75-.75,.75Z"/></g></g></svg>