<?xml version="1.0" encoding="UTF-8"?><svg fill="currentColor" xmlns="http://www.w3.org/2000/svg" viewBox="0 0 24 24"><g id="d"><path d="M12,3.25C6.62,3.25,2.25,6.73,2.25,11c0,2.17,1.15,4.26,3.16,5.72,.53,.38,.84,1.04,.84,1.75v2.53c0,.27,.15,.52,.38,.65,.11,.07,.24,.1,.37,.1,.13,0,.27-.04,.39-.11l4.34-2.6c.31-.18,.68-.29,1.1-.32,5.09-.34,8.93-3.66,8.93-7.72,0-4.27-4.37-7.75-9.75-7.75Zm-3.98,8.5c-.41,0-.75-.34-.75-.75s.33-.75,.74-.75h.01c.41,0,.75,.34,.75,.75s-.34,.75-.75,.75Zm4,0c-.41,0-.75-.34-.75-.75s.33-.75,.74-.75h.01c.41,0,.75,.34,.75,.75s-.34,.75-.75,.75Zm4,0c-.41,0-.75-.34-.75-.75s.33-.75,.75-.75h0c.42,0,.75,.34,.75,.75s-.33,.75-.75,.75Z"/></g></svg>