<?xml version="1.0" encoding="UTF-8"?><svg fill="currentColor" xmlns="http://www.w3.org/2000/svg" viewBox="0 0 24 24"><g id="s"><g><path d="M10.34,9.67l1.66-.83,1.67,.83c.11,.05,.22,.08,.33,.08,.14,0,.27-.04,.39-.11,.22-.14,.36-.38,.36-.64V5c0-.96-.79-1.75-1.75-1.75h-2c-.96,0-1.75,.79-1.75,1.75v4c0,.26,.13,.5,.36,.64,.22,.14,.5,.15,.73,.03Z"/><path d="M16,4.25h-.37c.07,.24,.12,.49,.12,.75v4c0,.6-.32,1.17-.83,1.49-.28,.17-.6,.26-.92,.26-.27,0-.54-.06-.78-.18l-1.22-.61-1.22,.61c-.24,.12-.51,.18-.78,.18-.33,0-.64-.09-.92-.26-.51-.32-.83-.89-.83-1.49V5c0-.26,.05-.51,.12-.75h-.37c-2.62,0-4.75,2.13-4.75,4.75v8c0,2.62,2.13,4.75,4.75,4.75h8c2.62,0,4.75-2.13,4.75-4.75V9c0-2.62-2.13-4.75-4.75-4.75Zm1,14.5h-3c-.41,0-.75-.34-.75-.75s.34-.75,.75-.75h3c.41,0,.75,.34,.75,.75s-.34,.75-.75,.75Z"/></g></g></svg>