<?xml version="1.0" encoding="UTF-8"?><svg fill="currentColor" xmlns="http://www.w3.org/2000/svg" viewBox="0 0 24 24"><g id="n"><g><path d="M6.75,16c0,.69,.56,1.25,1.25,1.25h3.25v-2.5H6.75v1.25Z"/><path d="M16,10.75h-3.25v2.5h4.5v-1.25c0-.69-.56-1.25-1.25-1.25Z"/><path d="M6.75,12v1.25h4.5v-2.5h-3.25c-.69,0-1.25,.56-1.25,1.25Z"/><path d="M12.75,17.25h3.25c.69,0,1.25-.56,1.25-1.25v-1.25h-4.5v2.5Z"/><path d="M17.75,4.33v1.67c0,.96-.79,1.75-1.75,1.75s-1.75-.79-1.75-1.75v-1.75h-4.5v1.75c0,.96-.79,1.75-1.75,1.75s-1.75-.79-1.75-1.75v-1.67c-2.26,.36-4,2.31-4,4.67v8c0,2.62,2.13,4.75,4.75,4.75h10c2.62,0,4.75-2.13,4.75-4.75V9c0-2.36-1.74-4.31-4-4.67Zm1,11.67c0,1.52-1.23,2.75-2.75,2.75H8c-1.52,0-2.75-1.23-2.75-2.75v-4c0-1.52,1.23-2.75,2.75-2.75h8c1.52,0,2.75,1.23,2.75,2.75v4Z"/><path d="M8,6.75c.41,0,.75-.34,.75-.75v-2c0-.41-.34-.75-.75-.75s-.75,.34-.75,.75v2c0,.41,.34,.75,.75,.75Z"/><path d="M16,6.75c.41,0,.75-.34,.75-.75v-2c0-.41-.34-.75-.75-.75s-.75,.34-.75,.75v2c0,.41,.34,.75,.75,.75Z"/></g></g></svg>