<?xml version="1.0" encoding="UTF-8"?><svg fill="currentColor" xmlns="http://www.w3.org/2000/svg" viewBox="0 0 24 24"><g id="b"><g><path d="M21.67,16.66c-.19-.37-.64-.52-1.01-.33-1.21,.62-2.44,.91-3.66,.92-1.01,0-1.58-.21-2.25-.46-.7-.25-1.49-.54-2.75-.54s-2.05,.29-2.75,.54c-.67,.24-1.25,.45-2.26,.46h-.03c-1.2,0-2.42-.31-3.62-.92-.37-.19-.82-.04-1.01,.33-.19,.37-.04,.82,.33,1.01,1.41,.72,2.86,1.08,4.3,1.08h.04c1.27,0,2.06-.29,2.76-.55,.67-.24,1.24-.45,2.24-.45s1.57,.21,2.24,.45c.7,.25,1.49,.54,2.76,.55h.04c1.44,0,2.89-.36,4.3-1.08,.37-.19,.52-.64,.33-1.01Z"/><path d="M3.79,15.44c1.06,.54,2.13,.81,3.17,.81,.86,0,1.31-.17,1.94-.4,.74-.27,1.66-.6,3.1-.6s2.35,.33,3.09,.6c.63,.23,1.09,.39,1.92,.4,1.08,0,2.16-.28,3.2-.81,.16-.08,.32-.12,.49-.15l.58-1.73c.18-.53,.09-1.12-.24-1.58-.33-.46-.86-.73-1.42-.73h-2.61c-.29,0-.54,.16-.67,.42l-.79,1.6-11.53-.02c-.97,0-1.75,.79-1.75,1.75v.43c.23-.11,.48-.18,.75-.18s.54,.06,.79,.19Z"/><path d="M15.43,11.22c.3-.6,.9-.97,1.57-.97h2.61c.4,0,.78,.1,1.14,.26v-2.51c0-.96-.79-1.75-1.75-1.75h-6c-.96,0-1.75,.79-1.75,1.75v4.26h3.67l.52-1.04Z"/><path d="M9.75,10c0-.96-.79-1.75-1.75-1.75h-.25v-1.25c0-.41-.34-.75-.75-.75s-.75,.34-.75,.75v1.25h-.25c-.96,0-1.75,.79-1.75,1.75v2.25h5.5v-2.25Z"/></g></g></svg>