<?xml version="1.0" encoding="UTF-8"?><svg fill="currentColor" xmlns="http://www.w3.org/2000/svg" viewBox="0 0 24 24"><g id="f"><g><circle cx="8" cy="18" r="2.75"/><circle cx="16" cy="18" r="2.75"/><path d="M12,12.25c.14,0,.25-.11,.25-.25V7c0-.96,.79-1.75,1.75-1.75h.1c-.5-.61-1.26-1-2.1-1H5c-1.52,0-2.75,1.23-2.75,2.75v5.43c.23-.11,.48-.18,.75-.18H12Z"/><path d="M17,12.75c-.41,0-.75-.34-.75-.75v-3c0-.41,.34-.75,.75-.75h3.38l-.34-.76c-.33-.75-1.08-1.24-1.91-1.24h-4.13c-.41,0-.75,.34-.75,.75v5c0,.69-.56,1.25-1.25,1.25H3c-.41,0-.75,.34-.75,.75v2c0,1.28,.88,2.35,2.07,2.65-.04-.21-.07-.43-.07-.65,0-2.07,1.68-3.75,3.75-3.75s3.75,1.68,3.75,3.75c0,.26-.03,.51-.08,.75h.65c-.05-.24-.08-.49-.08-.75,0-2.07,1.68-3.75,3.75-3.75s3.75,1.68,3.75,3.75c0,.22-.03,.44-.07,.65,1.18-.31,2.07-1.37,2.07-2.65v-3.25h-4.75Z"/><path d="M17.75,11.25h3.91c-.04-.14-.07-.27-.13-.4l-.49-1.1h-3.29v1.5Z"/></g></g></svg>