<?xml version="1.0" encoding="UTF-8"?><svg fill="currentColor" xmlns="http://www.w3.org/2000/svg" viewBox="0 0 24 24"><g id="m"><g><path d="M10.62,7.75h2.76c1.31,0,2.37-1.06,2.37-2.37,0-.37-.09-.73-.25-1.06l-.38-.76c-.4-.81-1.22-1.31-2.12-1.31h-2c-.9,0-1.71,.5-2.12,1.31l-.38,.76c-.16,.33-.25,.69-.25,1.06,0,1.31,1.06,2.37,2.37,2.37Z"/><path d="M16.55,4.31c.12,.35,.2,.71,.2,1.08,0,1.86-1.51,3.37-3.37,3.37h-2.76c-1.86,0-3.37-1.51-3.37-3.37,0-.37,.08-.73,.2-1.08-1.81,.27-3.2,1.81-3.2,3.69v10c0,2.07,1.68,3.75,3.75,3.75h8c2.07,0,3.75-1.68,3.75-3.75V8c0-1.88-1.39-3.43-3.2-3.69Zm-5.02,12.22l-2,2c-.15,.15-.34,.22-.53,.22s-.38-.07-.53-.22l-1-1c-.29-.29-.29-.77,0-1.06s.77-.29,1.06,0l.47,.47,1.47-1.47c.29-.29,.77-.29,1.06,0s.29,.77,0,1.06Zm0-5l-2,2c-.15,.15-.34,.22-.53,.22s-.38-.07-.53-.22l-1-1c-.29-.29-.29-.77,0-1.06s.77-.29,1.06,0l.47,.47,1.47-1.47c.29-.29,.77-.29,1.06,0s.29,.77,0,1.06Zm4.47,6.22h-3c-.41,0-.75-.34-.75-.75s.34-.75,.75-.75h3c.41,0,.75,.34,.75,.75s-.34,.75-.75,.75Zm0-5h-3c-.41,0-.75-.34-.75-.75s.34-.75,.75-.75h3c.41,0,.75,.34,.75,.75s-.34,.75-.75,.75Z"/></g></g></svg>