<?xml version="1.0" encoding="UTF-8"?><svg fill="currentColor" xmlns="http://www.w3.org/2000/svg" viewBox="0 0 24 24"><g id="h"><path d="M20.73,8.85s0-.04,0-.06c-1.12-3.85-4.71-6.54-8.72-6.54S4.4,4.94,3.28,8.79c0,.02,0,.04,0,.06,0,.03,0,.06-.01,.08,0,.06,0,.13,0,.19,0,.02,0,.05,.01,.07,.02,.08,.05,.16,.1,.23,0,.01,.02,.02,.03,.03,.03,.04,.07,.09,.12,.13,.01,.01,.03,.02,.05,.03,.01,0,.02,.02,.03,.03l5.78,3.61h-.39c-1.52,0-2.75,1.23-2.75,2.75v3c0,1.52,1.23,2.75,2.75,2.75h6c1.52,0,2.75-1.23,2.75-2.75v-3c0-1.52-1.23-2.75-2.75-2.75h-.39l5.78-3.61s.02-.02,.03-.02c.02-.01,.03-.02,.05-.03,.05-.04,.08-.08,.12-.13,0-.01,.02-.02,.03-.03,.05-.07,.08-.15,.1-.23,0-.02,0-.05,.01-.07,.01-.06,.01-.12,0-.19,0-.03,0-.06-.01-.08Zm-9.48,3.8l-5.62-3.51c.67-.22,1.46-.38,2.37-.38,.8,0,1.99,.15,3.25,.74v3.16Zm1.5,0v-3.17c.78-.36,1.89-.72,3.25-.72,.61,0,1.45,.09,2.37,.38l-5.62,3.51Z"/></g></svg>