<?xml version="1.0" encoding="UTF-8"?><svg fill="currentColor" xmlns="http://www.w3.org/2000/svg" viewBox="0 0 24 24"><g id="r"><path d="M16,2.25H8c-3.17,0-5.75,2.58-5.75,5.75v8c0,3.17,2.58,5.75,5.75,5.75h8c3.17,0,5.75-2.58,5.75-5.75V8c0-3.17-2.58-5.75-5.75-5.75ZM6.47,9.47l2-2c.07-.07,.15-.12,.24-.16,.18-.08,.39-.08,.57,0,.09,.04,.17,.09,.24,.16l2,2c.29,.29,.29,.77,0,1.06-.15,.15-.34,.22-.53,.22s-.38-.07-.53-.22l-.72-.72v4.19c0,.41-.34,.75-.75,.75s-.75-.34-.75-.75v-4.19l-.72,.72c-.29,.29-.77,.29-1.06,0s-.29-.77,0-1.06Zm10.53,8.28H7c-.41,0-.75-.34-.75-.75s.34-.75,.75-.75h10c.41,0,.75,.34,.75,.75s-.34,.75-.75,.75Zm.53-7.22c-.15,.15-.34,.22-.53,.22s-.38-.07-.53-.22l-.72-.72v4.19c0,.41-.34,.75-.75,.75s-.75-.34-.75-.75v-4.19l-.72,.72c-.29,.29-.77,.29-1.06,0s-.29-.77,0-1.06l2-2c.07-.07,.15-.12,.24-.16,.18-.08,.39-.08,.57,0,.09,.04,.17,.09,.24,.16l2,2c.29,.29,.29,.77,0,1.06Z"/></g></svg>