<?xml version="1.0" encoding="UTF-8"?><svg fill="currentColor" xmlns="http://www.w3.org/2000/svg" viewBox="0 0 24 24"><g id="o"><g><path d="M9.75,15.32c0,.52,.42,.93,.93,.93,.43,0,.8-.29,.91-.71l.45-1.79h-2.29v1.57Z"/><path d="M7.75,10.5c0,.96,.79,1.75,1.75,1.75h4.99l1.4-3.5h-6.39c-.96,0-1.75,.79-1.75,1.75Z"/><path d="M16,2.25H8c-3.17,0-5.75,2.58-5.75,5.75v8c0,3.17,2.58,5.75,5.75,5.75h8c3.17,0,5.75-2.58,5.75-5.75V8c0-3.17-2.58-5.75-5.75-5.75Zm1.33,6.96l-1.63,4.07c-.11,.29-.39,.47-.7,.47h-1.41l-.54,2.16c-.27,1.09-1.24,1.84-2.36,1.84-1.34,0-2.43-1.09-2.43-2.43v-1.82c-1.17-.49-2-1.65-2-3,0-1.79,1.46-3.25,3.25-3.25h6.5c.47,0,.92,.23,1.18,.63,.27,.39,.32,.89,.14,1.33Z"/></g></g></svg>