<?xml version="1.0" encoding="UTF-8"?><svg fill="currentColor" xmlns="http://www.w3.org/2000/svg" viewBox="0 0 24 24"><g id="g"><g><path d="M18,2.25h-2c-.41,0-.75,.34-.75,.75s.34,.75,.75,.75h2c1.24,0,2.25,1.01,2.25,2.25v2c0,.41,.34,.75,.75,.75s.75-.34,.75-.75v-2c0-2.07-1.68-3.75-3.75-3.75Z"/><path d="M3,8.75c.41,0,.75-.34,.75-.75v-2c0-1.24,1.01-2.25,2.25-2.25h2c.41,0,.75-.34,.75-.75s-.34-.75-.75-.75h-2c-2.07,0-3.75,1.68-3.75,3.75v2c0,.41,.34,.75,.75,.75Z"/><path d="M8,19.25h-2c-1.24,0-2.25-1.01-2.25-2.25v-2c0-.41-.34-.75-.75-.75s-.75,.34-.75,.75v2c0,2.07,1.68,3.75,3.75,3.75h2c.41,0,.75-.34,.75-.75s-.34-.75-.75-.75Z"/><path d="M21,14.25c-.41,0-.75,.34-.75,.75v2c0,1.24-1.01,2.25-2.25,2.25h-2c-.41,0-.75,.34-.75,.75s.34,.75,.75,.75h2c2.07,0,3.75-1.68,3.75-3.75v-2c0-.41-.34-.75-.75-.75Z"/><path d="M12.95,5.72c-.58-.38-1.33-.38-1.91,0l-3.08,2,4.03,2.4,4.03-2.4-3.08-2Z"/><path d="M17.75,13.43v-3.67c0-.41-.15-.78-.39-1.08l-4.61,2.74v5.97s.1-.04,.15-.06l4-2.4c.52-.31,.85-.89,.85-1.5Z"/><path d="M6.25,9.77v3.67c0,.61,.33,1.19,.85,1.5l4,2.4s.1,.04,.15,.06v-5.97l-4.61-2.74c-.24,.3-.39,.67-.39,1.08Z"/></g></g></svg>