<?xml version="1.0" encoding="UTF-8"?><svg fill="currentColor" xmlns="http://www.w3.org/2000/svg" viewBox="0 0 24 24"><g id="t"><g><path d="M11,8.25h2c.69,0,1.25-.56,1.25-1.25V2.25h-4.5V7c0,.69,.56,1.25,1.25,1.25Z"/><path d="M16,2.25h-.25V7c0,1.52-1.23,2.75-2.75,2.75h-2c-1.52,0-2.75-1.23-2.75-2.75V2.25h-.25c-3.17,0-5.75,2.58-5.75,5.75v8c0,3.17,2.58,5.75,5.75,5.75h8c3.17,0,5.75-2.58,5.75-5.75V8c0-3.17-2.58-5.75-5.75-5.75Zm-5.47,14.28c-.15,.15-.34,.22-.53,.22s-.38-.07-.53-.22l-.72-.72v2.19c0,.41-.34,.75-.75,.75s-.75-.34-.75-.75v-2.19l-.72,.72c-.29,.29-.77,.29-1.06,0s-.29-.77,0-1.06l2-2c.07-.07,.15-.12,.24-.16,.18-.08,.39-.08,.57,0,.09,.04,.17,.09,.24,.16l2,2c.29,.29,.29,.77,0,1.06Z"/></g></g></svg>