<?xml version="1.0" encoding="UTF-8"?><svg fill="currentColor" xmlns="http://www.w3.org/2000/svg" viewBox="0 0 24 24"><g id="p"><g><rect x="7.75" y="15.75" width="8.5" height="1.5"/><path d="M16,12.75H8c-.14,0-.25,.11-.25,.25v1.25h8.5v-1.25c0-.14-.11-.25-.25-.25Z"/><rect x="7.75" y="18.75" width="8.5" height="3"/><path d="M19.92,8.21L13.07,2.89c-.63-.49-1.52-.49-2.15,0l-6.84,5.32c-1.17,.91-1.83,2.27-1.83,3.75v6.04c0,2.07,1.68,3.75,3.75,3.75h.25V13c0-.96,.79-1.75,1.75-1.75h8c.96,0,1.75,.79,1.75,1.75v8.75h.25c2.07,0,3.75-1.68,3.75-3.75v-6.04c0-1.48-.67-2.84-1.83-3.75Z"/></g></g></svg>