<?xml version="1.0" encoding="UTF-8"?><svg fill="currentColor" xmlns="http://www.w3.org/2000/svg" viewBox="0 0 24 24"><g id="e"><g><path d="M15,8.75h-.25v1.25c0,.96-.79,1.75-1.75,1.75h-2c-.96,0-1.75-.79-1.75-1.75v-1.25h-.25c-.14,0-.25,.11-.25,.25v6c0,.14,.11,.25,.25,.25h6c.14,0,.25-.11,.25-.25v-6c0-.14-.11-.25-.25-.25Z"/><path d="M16,2.25H8c-3.17,0-5.75,2.58-5.75,5.75v8c0,3.17,2.58,5.75,5.75,5.75h8c3.17,0,5.75-2.58,5.75-5.75V8c0-3.17-2.58-5.75-5.75-5.75Zm.75,12.75c0,.96-.79,1.75-1.75,1.75h-6c-.96,0-1.75-.79-1.75-1.75v-6c0-.96,.79-1.75,1.75-1.75h6c.96,0,1.75,.79,1.75,1.75v6Z"/><path d="M11,10.25h2c.14,0,.25-.11,.25-.25v-1.25h-2.5v1.25c0,.14,.11,.25,.25,.25Z"/></g></g></svg>