<?xml version="1.0" encoding="UTF-8"?><svg fill="currentColor" xmlns="http://www.w3.org/2000/svg" viewBox="0 0 24 24"><g id="q"><g><path d="M6.25,16V8c0-.21,.04-.4,.11-.58l-2.91-2.91c-.75,.97-1.19,2.18-1.19,3.49v8c0,1.32,.45,2.53,1.19,3.49l2.91-2.91c-.07-.18-.11-.38-.11-.58Z"/><path d="M7.42,6.36c.18-.07,.38-.11,.58-.11h8c.21,0,.4,.04,.58,.11l2.91-2.91c-.97-.75-2.18-1.19-3.49-1.19H8c-1.32,0-2.53,.45-3.49,1.19l2.91,2.91Z"/><path d="M16,7.75H8c-.14,0-.25,.11-.25,.25v3.25h8.5v-3.25c0-.14-.11-.25-.25-.25Z"/><path d="M16.58,17.64c-.18,.07-.38,.11-.58,.11H8c-.21,0-.4-.04-.58-.11l-2.91,2.91c.97,.75,2.18,1.19,3.49,1.19h8c1.32,0,2.53-.45,3.49-1.19l-2.91-2.91Z"/><path d="M8,16.25h8c.14,0,.25-.11,.25-.25v-3.25H7.75v3.25c0,.14,.11,.25,.25,.25Z"/><path d="M17.64,7.42c.07,.18,.11,.38,.11,.58v8c0,.21-.04,.4-.11,.58l2.91,2.91c.75-.97,1.19-2.18,1.19-3.49V8c0-1.32-.45-2.53-1.19-3.49l-2.91,2.91Z"/></g></g></svg>