<svg fill="currentColor" xmlns="http://www.w3.org/2000/svg" viewBox="0 0 32 32"><g id="bishop"><path d="M23.08,24H22.8l-2.08-9H23a1,1,0,0,0,0-2H20.26l-.08-.34a5.24,5.24,0,0,0,.44-4.76c-.05-.14-.11-.27-.17-.41a15.11,15.11,0,0,0-3.79-5.24,1,1,0,0,0-1.32,0,15.11,15.11,0,0,0-3.79,5.24c-.06.14-.12.27-.17.41a5.24,5.24,0,0,0,.44,4.76l-.08.34H9a1,1,0,0,0,0,2h2.28L9.2,24H8.92A3.93,3.93,0,0,0,5,27.92V29a1,1,0,0,0,1,1H26a1,1,0,0,0,1-1V27.92A3.93,3.93,0,0,0,23.08,24ZM13.23,8.65c0-.12.1-.24.16-.36A12.94,12.94,0,0,1,16,4.38a13.16,13.16,0,0,1,2.62,3.91c.05.12.1.24.14.36a3.24,3.24,0,0,1-.32,3,2.92,2.92,0,0,1-4.88,0A3.27,3.27,0,0,1,13.23,8.65Zm.1,6.35h5.34l2.07,9H11.26ZM25,28H7v-.08A1.92,1.92,0,0,1,8.92,26H23.08A1.92,1.92,0,0,1,25,27.92Z"/></g></svg>