<svg fill="currentColor" xmlns="http://www.w3.org/2000/svg" viewBox="0 0 32 32"><g id="book"><path d="M28,3.53A1.53,1.53,0,0,0,26.47,2H9a1,1,0,0,0-.18,0A4.17,4.17,0,0,0,5,6.18V26a.43.43,0,0,0,0,.05A4,4,0,0,0,9,30H27a1,1,0,0,0,.38-1.92,2.26,2.26,0,0,1,0-4.16h0l0,0a.78.78,0,0,0,.26-.17l.07-.09a1.53,1.53,0,0,0,.14-.21.56.56,0,0,0,0-.12,1.89,1.89,0,0,0,0-.23S28,23,28,23ZM8,4.35V22.17a4,4,0,0,0-1,.4V6.18A2.19,2.19,0,0,1,8,4.35ZM9,28a2,2,0,0,1-2-2.38A2.12,2.12,0,0,1,9.15,24H24.5a3.9,3.9,0,0,0-.38,1H10a1,1,0,0,0,0,2H24.12a3.9,3.9,0,0,0,.38,1Zm1-6V4H26V22Z"/><path d="M23,19H21.87l-.72-5H22a1,1,0,0,0,0-2h-.61L22,10.32a1,1,0,0,0-.06-.77l-1-2A1,1,0,0,0,20,7H19V6a1,1,0,0,0-2,0V7H16a1,1,0,0,0-.89.55l-1,2a1,1,0,0,0-.06.77L14.61,12H14a1,1,0,0,0,0,2h.85l-.72,5H13a1,1,0,0,0,0,2H23a1,1,0,0,0,0-2Zm-6.92-8.92L16.62,9h2.76l.54,1.08L19.28,12H16.72ZM16.87,14h2.26l.72,5h-3.7Z"/></g></svg>