<svg fill="currentColor" xmlns="http://www.w3.org/2000/svg" viewBox="0 0 32 32"><g id="brain"><path d="M30,13a4,4,0,0,0-2.26-3.59l0-.08A4,4,0,0,0,28,8a4,4,0,0,0-5.41-3.74A4,4,0,0,0,16,3.38a4,4,0,0,0-6.59.88A4,4,0,0,0,4.23,9.33l0,.08A4,4,0,0,0,2,13a4,4,0,0,0,1,2.64,6,6,0,0,0,1.08,7.92A1.1,1.1,0,0,0,4,24a4,4,0,0,0,5.41,3.74,4,4,0,0,0,6.59.88,4,4,0,0,0,6.59-.88A4,4,0,0,0,28,24a1.1,1.1,0,0,0-.11-.44A6,6,0,0,0,29,15.64,4,4,0,0,0,30,13ZM24,23a1,1,0,0,0,0,2,6.1,6.1,0,0,0,1.87-.3A2,2,0,0,1,24,26a2,2,0,0,1-1.33-.51,1,1,0,0,0-1.64.93,1,1,0,0,0-.14.25A2,2,0,0,1,17,26V23.27A2.49,2.49,0,0,1,19.71,22,1,1,0,0,0,20.29,20,4.35,4.35,0,0,0,16,21.27,4.22,4.22,0,0,0,13,20a1,1,0,0,0,0,2,2.22,2.22,0,0,1,2,1.26V26a2,2,0,0,1-3.89.67,1,1,0,0,0-.14-.25,1,1,0,0,0-1.64-.93A2,2,0,0,1,8,26a2,2,0,0,1-1.87-1.3A6.1,6.1,0,0,0,8,25a1,1,0,0,0,0-2,4,4,0,0,1,0-8,4.73,4.73,0,0,0,3.75-1.29A4.58,4.58,0,0,0,13,11.15a1,1,0,1,0-2-.3,2.64,2.64,0,0,1-.71,1.44A2.79,2.79,0,0,1,8.11,13H8a6,6,0,0,0-3.59,1.2A2,2,0,0,1,4,13a2,2,0,0,1,1.33-1.89A.84.84,0,0,0,5.59,11a1,1,0,0,0,.17,0,1,1,0,0,0,.67-.26,1,1,0,0,0,.08-1.41,2,2,0,0,1-.4-.66A2.19,2.19,0,0,1,6,8,2,2,0,0,1,8,6a2,2,0,0,1,1.33.51,2.11,2.11,0,0,1,.56.82,1,1,0,1,0,1.88-.66,3.82,3.82,0,0,0-.71-1.24s0-.06,0-.1A2,2,0,0,1,15,6V16a1,1,0,0,0,2,0V6a2,2,0,0,1,3.89-.67s0,.06.05.1a3.82,3.82,0,0,0-.71,1.24,1,1,0,0,0,1.88.66,2.11,2.11,0,0,1,.56-.82A2,2,0,0,1,24,6a2,2,0,0,1,2,2,2.19,2.19,0,0,1-.11.67,2,2,0,0,1-.4.66,1,1,0,0,0,.08,1.41,1,1,0,0,0,.67.26,1,1,0,0,0,.17,0,.84.84,0,0,0,.26.15A2,2,0,0,1,28,13a2,2,0,0,1-.41,1.2A6,6,0,0,0,24,13h-.11a2.79,2.79,0,0,1-2.19-.72A2.64,2.64,0,0,1,21,10.85a1,1,0,0,0-2,.3,4.58,4.58,0,0,0,1.29,2.56A4.73,4.73,0,0,0,24.05,15,4,4,0,0,1,24,23Z"/><path d="M11,17A6.22,6.22,0,0,0,7.4,18.2a5.93,5.93,0,0,0-1.2,1.2,1,1,0,0,0,.2,1.4A1,1,0,0,0,7,21a1,1,0,0,0,.8-.4,3.79,3.79,0,0,1,.8-.8A4.21,4.21,0,0,1,11,19a1,1,0,0,0,1-1A1,1,0,0,0,11,17Z"/><path d="M24.6,18.2A6.22,6.22,0,0,0,21,17a1,1,0,0,0-1,1,1,1,0,0,0,1,1,4.21,4.21,0,0,1,2.42.8,3.79,3.79,0,0,1,.8.8,1,1,0,0,0,.8.4,1,1,0,0,0,.6-.2,1,1,0,0,0,.2-1.4A5.93,5.93,0,0,0,24.6,18.2Z"/></g></svg>