<svg fill="currentColor" xmlns="http://www.w3.org/2000/svg" viewBox="0 0 32 32"><g id="championship"><path d="M29.56,7.17a24.13,24.13,0,0,0-27.12,0A1,1,0,0,0,2,8,24.83,24.83,0,0,0,15.54,29.89a1,1,0,0,0,.92,0A24.83,24.83,0,0,0,30,8,1,1,0,0,0,29.56,7.17ZM16,27.87a22.73,22.73,0,0,1-3.21-2.11l1-5.76h4.34l1,5.76A22.73,22.73,0,0,1,16,27.87ZM12.19,13.41,14.3,12h3.4l2.11,1.41L18.28,18H13.72Zm12,7a22.81,22.81,0,0,1-3.2,3.8L20.2,20H22a1,1,0,0,0,0-2H20.39L22,13.32a1,1,0,0,0-.4-1.15l-3-2A1,1,0,0,0,18,10H17V8a1,1,0,0,0-2,0v2H14a1,1,0,0,0-.55.17l-3,2a1,1,0,0,0-.4,1.15L11.61,18H10a1,1,0,0,0,0,2h1.8L11,24.25A22.65,22.65,0,0,1,4,8.53,22.41,22.41,0,0,1,16,5,22.44,22.44,0,0,1,28,8.53,22.9,22.9,0,0,1,24.17,20.45Z"/></g></svg>