<svg fill="currentColor" xmlns="http://www.w3.org/2000/svg" viewBox="0 0 32 32"><g id="check_mate" data-name="check mate"><path d="M29,18H27V16a1,1,0,0,0-.17-.55L25.23,13A1.93,1.93,0,0,0,23,12.28l-4,1.33V11a1,1,0,0,0-2,0v2.8L8,12.17v-.25A3.93,3.93,0,0,0,4.08,8H3A1,1,0,0,0,2,9V29a1,1,0,0,0,1,1H4.08A3.93,3.93,0,0,0,8,26.08v-.25l9-1.63V27a1,1,0,0,0,2,0V24.39l4,1.33A1.93,1.93,0,0,0,25.23,25l1.6-2.41A1,1,0,0,0,27,22V20h2a1,1,0,0,0,0-2ZM6,26.08A1.92,1.92,0,0,1,4.08,28H4V10h.08A1.92,1.92,0,0,1,6,11.92ZM8,23.8V14.2l9,1.63v6.34Zm17-2.09-1.36,2.12L19,22.28V15.71l4.56-1.56L25,16.3Z"/><path d="M18.22,8.62a1,1,0,0,0,1.41.16,1,1,0,0,0,.15-1.4l-4-5a1,1,0,0,0-1.56,1.24Z"/><path d="M13.22,11.62a1,1,0,0,0,1.41.16,1,1,0,0,0,.15-1.4l-2-2.5a1,1,0,0,0-1.56,1.24Z"/><path d="M24.22,10.62a1,1,0,0,0,1.41.16,1,1,0,0,0,.15-1.4l-2-2.5a1,1,0,0,0-1.56,1.24Z"/></g></svg>