<svg fill="currentColor" xmlns="http://www.w3.org/2000/svg" viewBox="0 0 32 32"><g id="chess_clock" data-name="chess clock"><path d="M10,13a5,5,0,1,0,5,5A5,5,0,0,0,10,13Zm0,8a3,3,0,1,1,3-3A3,3,0,0,1,10,21Z"/><path d="M22,13a5,5,0,1,0,5,5A5,5,0,0,0,22,13Zm0,8a3,3,0,1,1,3-3A3,3,0,0,1,22,21Z"/><path d="M27.51,10H23V8h1a1,1,0,0,0,0-2H20a1,1,0,0,0,0,2h1v2H11V8h1a1,1,0,0,0,0-2H8A1,1,0,0,0,8,8H9v2H4.49A2.5,2.5,0,0,0,2,12.49v11A2.5,2.5,0,0,0,4.49,26h23A2.5,2.5,0,0,0,30,23.51v-11A2.5,2.5,0,0,0,27.51,10ZM28,23.51a.49.49,0,0,1-.49.49h-23A.49.49,0,0,1,4,23.51v-11A.49.49,0,0,1,4.49,12h23a.49.49,0,0,1,.49.49Z"/><path d="M11,17a1,1,0,0,0-2,0v1a1,1,0,0,0,1,1h1a1,1,0,0,0,0-2Z"/><path d="M22,16a1,1,0,0,0-1,1v.59l-.71.7a1,1,0,0,0,0,1.42,1,1,0,0,0,1.42,0l1-1A1,1,0,0,0,23,18V17A1,1,0,0,0,22,16Z"/></g></svg>