<svg fill="currentColor" xmlns="http://www.w3.org/2000/svg" viewBox="0 0 32 32"><g id="chess"><path d="M29,5H25a1,1,0,0,0-.87.54L19.72,3.65A8,8,0,0,0,16.56,3a4.63,4.63,0,0,0-1.47.25L11.45,4.74A7.11,7.11,0,0,0,8.16,7.46,8.21,8.21,0,0,0,7,13.15a1.1,1.1,0,0,0,.28.56A3,3,0,0,0,7,14.85a1,1,0,0,0-.52.93l.19,2.85-.63-.15a1,1,0,0,0-.46,1.94l.84.21L4.32,26.29,3.23,26A1,1,0,1,0,2.77,28l9.72,2.32a1,1,0,0,0,.24,0,1,1,0,0,0,.23-2l-1.09-.26.67-6,.84.2.23,0a1,1,0,0,0,1-.77,1,1,0,0,0-.74-1.2l-.61-.15L14.56,18H19a1.19,1.19,0,0,0,.32-.05l4.75-1.59A1,1,0,0,0,25,17h4a1,1,0,0,0,1-1V6A1,1,0,0,0,29,5ZM9.91,27.62l-3.63-.87L8.4,21.09l2.18.52Zm1.28-7.92-2.46-.59-.1-1.46A2.87,2.87,0,0,0,10,18h2.22ZM18.84,16H10a1,1,0,0,1,0-2h5a3,3,0,0,0,3-3.09,3,3,0,0,0-1.6-2.65,2.87,2.87,0,0,0-3,.14,8.32,8.32,0,0,0-1.09.87,8.78,8.78,0,0,0-2,2.73H8.91a6,6,0,0,1,.93-3.46,5.09,5.09,0,0,1,2.37-1.95l3.57-1.46A2.32,2.32,0,0,1,16.56,5a5.85,5.85,0,0,1,2.37.49L24,7.66v6.62Zm-6.22-4a7.15,7.15,0,0,1,1.06-1.27,8.81,8.81,0,0,1,.84-.67.9.9,0,0,1,.94,0A1.06,1.06,0,0,1,15,12ZM28,15H26V7h2Z"/></g></svg>