<svg fill="currentColor" xmlns="http://www.w3.org/2000/svg" viewBox="0 0 32 32"><g id="chess_2" data-name="chess 2"><path d="M21.85,24.08,20.2,15H21a1,1,0,0,0,0-2h-.82L21,8.16a1,1,0,0,0-.28-.87l-2-2A1,1,0,0,0,18,5H17V3a1,1,0,0,0-2,0V5H14a1,1,0,0,0-.71.29l-2,2a1,1,0,0,0-.28.87L11.82,13H11a1,1,0,0,0,0,2h.8l-1.65,9.08A3.92,3.92,0,0,0,7,27.92V29a1,1,0,0,0,1,1H24a1,1,0,0,0,1-1V27.92A3.92,3.92,0,0,0,21.85,24.08ZM13.07,8.34,14.41,7h3.18l1.34,1.34L18.15,13h-4.3ZM18.17,15l1.63,9H12.2l1.63-9ZM23,28H9v-.08A1.92,1.92,0,0,1,10.92,26H21.08A1.92,1.92,0,0,1,23,27.92Z"/><path d="M3.71,6.71,4,6.41V9a3,3,0,0,0,3,3H8a1,1,0,0,0,0-2H7A1,1,0,0,1,6,9V6.41l.29.3a1,1,0,0,0,1.42,0,1,1,0,0,0,0-1.42l-2-2a1,1,0,0,0-1.42,0l-2,2A1,1,0,0,0,3.71,6.71Z"/><path d="M24,12h1a3,3,0,0,0,3-3V6.41l.29.3a1,1,0,0,0,1.42,0,1,1,0,0,0,0-1.42l-2-2a1,1,0,0,0-1.42,0l-2,2a1,1,0,0,0,1.42,1.42l.29-.3V9a1,1,0,0,1-1,1H24a1,1,0,0,0,0,2Z"/><path d="M7.71,22.29a1,1,0,0,0-1.42,0l-.29.3V20a1,1,0,0,1,1-1H8a1,1,0,0,0,0-2H7a3,3,0,0,0-3,3v2.61l-.29-.3a1,1,0,0,0-1.42,1.42l2,2a1,1,0,0,0,1.42,0l2-2A1,1,0,0,0,7.71,22.29Z"/><path d="M28.29,22.29l-.29.3V20a3,3,0,0,0-3-3H24a1,1,0,0,0,0,2h1a1,1,0,0,1,1,1v2.61l-.29-.3a1,1,0,0,0-1.42,1.42l2,2a1,1,0,0,0,1.42,0l2-2a1,1,0,0,0-1.42-1.42Z"/></g></svg>