<svg fill="currentColor" xmlns="http://www.w3.org/2000/svg" viewBox="0 0 32 32"><g id="crown"><path d="M28.61,10.21a1,1,0,0,0-1-.13l-8.14,3.51L17,10.64,17,7h2a1,1,0,0,0,0-2H17V3.22a1,1,0,0,0-1-1h0a1,1,0,0,0-1,1V5H13a1,1,0,0,0,0,2h2l0,3.64-2.46,2.95L4.4,10.08a1,1,0,0,0-1,.13,1,1,0,0,0-.38.93L5,25.07V29a1,1,0,0,0,1,1H26a1,1,0,0,0,1-1V25.07l2-13.93A1,1,0,0,0,28.61,10.21Zm-1.85,2.42L25.13,24H20.28L22,17.24a1,1,0,0,0-.2-.88l-1-1.16ZM13.78,24l-1.69-6.75L16,12.56l3.91,4.69L18.22,24ZM11.2,15.2l-1,1.16a1,1,0,0,0-.2.88L11.72,24H6.87L5.24,12.63ZM25,28H7V26H25Z"/></g></svg>