<svg fill="currentColor" xmlns="http://www.w3.org/2000/svg" viewBox="0 0 32 32"><g id="king"><path d="M23.08,24h-.25L21.2,15H24a1,1,0,0,0,0-2H21.39l1.33-4A1.92,1.92,0,0,0,22,6.77l-2.41-1.6A1,1,0,0,0,19,5H17V3a1,1,0,0,0-2,0V5H13a1,1,0,0,0-.55.17L10,6.77A1.92,1.92,0,0,0,9.28,9l1.33,4H8a1,1,0,0,0,0,2h2.8L9.17,24H8.92A3.93,3.93,0,0,0,5,27.92V29a1,1,0,0,0,1,1H26a1,1,0,0,0,1-1V27.92A3.93,3.93,0,0,0,23.08,24ZM11.15,8.44,13.3,7h5.41l2.12,1.36L19.28,13H12.71ZM12.83,15h6.34l1.63,9H11.2ZM25,28H7v-.08A1.92,1.92,0,0,1,8.92,26H23.08A1.92,1.92,0,0,1,25,27.92Z"/></g></svg>