<svg fill="currentColor" xmlns="http://www.w3.org/2000/svg" viewBox="0 0 32 32"><g id="knight"><path d="M28.69,12.86a1,1,0,0,0-.22-.33L23.06,7.16l1.65-3.27a1,1,0,0,0,.05-.78,1,1,0,0,0-.53-.58,5.7,5.7,0,0,0-4.81,0,5.39,5.39,0,0,0-2.13,1.9,12,12,0,0,0-5.91,2.1C6.66,9.9,4.86,16.89,6.75,24.2A3.91,3.91,0,0,0,4,27.92V29a1,1,0,0,0,1,1H25a1,1,0,0,0,1-1V27.92a3.9,3.9,0,0,0-2.85-3.75,7.27,7.27,0,0,0-.38-3.45,8.8,8.8,0,0,0-2.17-3,5.66,5.66,0,0,1-1.68-2.46,8,8,0,0,0,2.77,1,7.88,7.88,0,0,0,1.88,0,4.6,4.6,0,0,0,3.18.65,2.78,2.78,0,0,0,1.84-1.12A3.16,3.16,0,0,0,28.69,12.86ZM24,27.92V28H6v-.08A1.92,1.92,0,0,1,7.92,26H22.08A1.92,1.92,0,0,1,24,27.92Zm2.94-13.28a.89.89,0,0,1-.56.28,2.75,2.75,0,0,1-2-.54,1,1,0,0,0-.72-.17,6,6,0,0,1-1.69,0,6.32,6.32,0,0,1-3.41-1.7,1,1,0,0,0-1-.22,1,1,0,0,0-.67.77,6.09,6.09,0,0,0,0,2.33,7.15,7.15,0,0,0,2.28,3.71,6.81,6.81,0,0,1,1.72,2.34A5.11,5.11,0,0,1,21.16,24H8.75C7,17.38,8.43,11.09,12.54,8.17a10.28,10.28,0,0,1,5.4-1.78,1,1,0,0,0,.83-.54A3.53,3.53,0,0,1,20.3,4.33a3.46,3.46,0,0,1,2.08-.28L20.94,6.91a1.08,1.08,0,0,0,.24,1.2l5.72,5.68A1.2,1.2,0,0,1,26.94,14.64Z"/></g></svg>