<svg fill="currentColor" xmlns="http://www.w3.org/2000/svg" viewBox="0 0 32 32"><g id="laptop"><path d="M29,23H28V11.25A2.25,2.25,0,0,0,25.75,9H23a1,1,0,0,0,0,2h2.75a.25.25,0,0,1,.25.25V23H19a1,1,0,0,0-.71.29l-.7.71H14.41l-.7-.71A1,1,0,0,0,13,23H6V11.25A.25.25,0,0,1,6.25,11H9A1,1,0,0,0,9,9H6.25A2.25,2.25,0,0,0,4,11.25V23H3a1,1,0,0,0-1,1v2.45A2.56,2.56,0,0,0,4.55,29h22.9A2.56,2.56,0,0,0,30,26.45V24A1,1,0,0,0,29,23Zm-1,3.45a.55.55,0,0,1-.55.55H4.55A.55.55,0,0,1,4,26.45V25h8.59l.7.71A1,1,0,0,0,14,26h4a1,1,0,0,0,.71-.29l.7-.71H28Z"/><path d="M11,19H21a1,1,0,0,0,0-2H19.88l-.75-6H20a1,1,0,0,0,0-2h-.61L20,7.32a1,1,0,0,0-.06-.77l-1-2A1,1,0,0,0,18,4H17V3a1,1,0,0,0-2,0V4H14a1,1,0,0,0-.89.55l-1,2a1,1,0,0,0-.06.77L12.61,9H12a1,1,0,0,0,0,2h.87l-.75,6H11a1,1,0,0,0,0,2ZM14.08,7.08,14.62,6h2.76l.54,1.08L17.28,9H14.72Zm.8,3.92h2.24l.75,6H14.13Z"/></g></svg>