<svg fill="currentColor" xmlns="http://www.w3.org/2000/svg" viewBox="0 0 32 32"><g id="mobile"><path d="M21,26a1,1,0,0,0-1,1v.53a.47.47,0,0,1-.47.47H5.47A.47.47,0,0,1,5,27.53V4.47A.47.47,0,0,1,5.47,4H19.53a.47.47,0,0,1,.47.47V8a1,1,0,0,0,2,0V4.47A2.48,2.48,0,0,0,19.53,2H5.47A2.48,2.48,0,0,0,3,4.47V27.53A2.48,2.48,0,0,0,5.47,30H19.53A2.48,2.48,0,0,0,22,27.53V27A1,1,0,0,0,21,26Z"/><path d="M29,23H27.88l-.75-6H28a1,1,0,0,0,0-2h-.61L28,13.32a1,1,0,0,0-.06-.77l-1-2A1,1,0,0,0,26,10H25V9a1,1,0,0,0-2,0v1H22a1,1,0,0,0-.89.55l-1,2a1,1,0,0,0-.06.77L20.61,15H20a1,1,0,0,0,0,2h.87l-.75,6H19a1,1,0,0,0,0,2H29a1,1,0,0,0,0-2Zm-6.92-9.92L22.62,12h2.76l.54,1.08L25.28,15H22.72Zm.8,3.92h2.24l.75,6H22.13Z"/><path d="M11,5a1,1,0,0,0,0,2h3a1,1,0,0,0,0-2Z"/></g></svg>