<svg fill="currentColor" xmlns="http://www.w3.org/2000/svg" viewBox="0 0 32 32"><g id="move"><path d="M13,19a1,1,0,0,0,0-2H11.88l-.75-6H12a1,1,0,0,0,0-2h-.61L12,7.32a1,1,0,0,0-.06-.77l-1-2A1,1,0,0,0,10,4H9V3A1,1,0,0,0,7,3V4H6a1,1,0,0,0-.89.55l-1,2a1,1,0,0,0-.06.77L4.61,9H4a1,1,0,0,0,0,2h.87l-.75,6H3a1,1,0,0,0,0,2ZM6.08,7.08,6.62,6H9.38l.54,1.08L9.28,9H6.72ZM6.88,11H9.12l.75,6H6.13Z"/><path d="M29,28H27.88l-.75-6A1,1,0,0,0,28,21V14a1,1,0,0,0-2,0v1H25V14a1,1,0,0,0-2,0v1H22V14a1,1,0,0,0-2,0v7a1,1,0,0,0,.87,1l-.75,6H19a1,1,0,0,0,0,2H29a1,1,0,0,0,0-2Zm-3-8H22V17h4Zm-3.12,2h2.24l.75,6H22.13Z"/><path d="M18.29,9.71a1,1,0,0,0,1.42,0,1,1,0,0,0,0-1.42L18.41,7h5.42a.18.18,0,0,1,.17.17V9a1,1,0,0,0,2,0V7.17A2.17,2.17,0,0,0,23.83,5H18.41l1.3-1.29a1,1,0,1,0-1.42-1.42l-3,3a1,1,0,0,0,0,1.42Z"/><path d="M13.71,22.29a1,1,0,0,0-1.42,1.42L13.59,25H8.17A.18.18,0,0,1,8,24.83V23a1,1,0,0,0-2,0v1.83A2.17,2.17,0,0,0,8.17,27h5.42l-1.3,1.29a1,1,0,0,0,0,1.42,1,1,0,0,0,1.42,0l3-3a1,1,0,0,0,0-1.42Z"/></g></svg>