<svg fill="currentColor" xmlns="http://www.w3.org/2000/svg" viewBox="0 0 32 32"><g id="pawn"><path d="M23.08,24h-.22c-.29-1.94-.58-4-.87-6.14-.31-2.28-.63-4.55-.94-6.63A5.94,5.94,0,0,0,22,8,6,6,0,0,0,10,8a5.93,5.93,0,0,0,1,3.24L9.13,24H8.92A3.93,3.93,0,0,0,5,27.92V29a1,1,0,0,0,1,1H26a1,1,0,0,0,1-1V27.92A3.93,3.93,0,0,0,23.08,24ZM16,4a4,4,0,1,1-4,4A4,4,0,0,1,16,4Zm-3.28,9a6,6,0,0,0,6.57,0c.24,1.65.48,3.39.72,5.13.28,2,.55,4,.83,5.86H11.15ZM25,28H7v-.08A1.92,1.92,0,0,1,8.92,26H23.08A1.92,1.92,0,0,1,25,27.92Z"/></g></svg>