<svg fill="currentColor" xmlns="http://www.w3.org/2000/svg" viewBox="0 0 32 32"><g id="queen"><path d="M23.08,24h-.23L21.18,14H24a1,1,0,0,0,0-2H21.39L23,7.32A1,1,0,0,0,23,7.07h0A1.41,1.41,0,0,0,23,6.71v0s0,0,0,0a.91.91,0,0,0-.13-.26l-3-4A1,1,0,0,0,19,2H13a1,1,0,0,0-.8.4l-3,4a.91.91,0,0,0-.13.26l0,0v0A1.41,1.41,0,0,0,9,7.06H9a1,1,0,0,0,.05.25L10.61,12H8a1,1,0,0,0,0,2h2.82L9.15,24H8.92A3.93,3.93,0,0,0,5,27.92V29a1,1,0,0,0,1,1H26a1,1,0,0,0,1-1V27.92A3.93,3.93,0,0,0,23.08,24ZM13.5,4h5l1.84,2.45a17.71,17.71,0,0,1-8.68,0ZM11.55,8.47A18.94,18.94,0,0,0,16,9a18.94,18.94,0,0,0,4.45-.53L19.28,12H12.72ZM12.85,14h6.3l1.67,10H11.18ZM25,28H7v-.08A1.92,1.92,0,0,1,8.92,26H23.08A1.92,1.92,0,0,1,25,27.92Z"/></g></svg>