<svg fill="currentColor" xmlns="http://www.w3.org/2000/svg" viewBox="0 0 32 32"><g id="strategy_game" data-name="strategy game"><path d="M27.18,2H4.82A2.83,2.83,0,0,0,2,4.82V27.18A2.83,2.83,0,0,0,4.82,30H27.18A2.83,2.83,0,0,0,30,27.18V4.82A2.83,2.83,0,0,0,27.18,2ZM28,4.82V10H22V4h5.18A.82.82,0,0,1,28,4.82ZM28,20H22V12h6ZM4,12h6v3H8.79A2.79,2.79,0,0,0,6,17.79V20H4Zm4,5.79A.79.79,0,0,1,8.79,17H10v3H8ZM12,17h3.59l-.3.29a1,1,0,0,0,0,1.42,1,1,0,0,0,1.42,0l2-2a1,1,0,0,0,0-1.42l-2-2a1,1,0,0,0-1.42,1.42l.3.29H12V12h8v8H12ZM20,4v6H12V4ZM4.82,4H10v6H4V4.82A.82.82,0,0,1,4.82,4ZM4,27.18V22H6v3a1,1,0,0,0,2,0V22h2v6H4.82A.82.82,0,0,1,4,27.18ZM12,28V22h8v6Zm15.18,0H22V22h6v5.18A.82.82,0,0,1,27.18,28Z"/><circle cx="25" cy="16" r="2"/></g></svg>