<svg fill="currentColor" xmlns="http://www.w3.org/2000/svg" viewBox="0 0 25.86 27.99"><g id="Layer_2" data-name="Layer 2"><g id="strategic"><path d="M21.76,2.48a11.77,11.77,0,0,0-14.47,0A11.59,11.59,0,0,0,3.36,10a28.57,28.57,0,0,0-2.3,3.47c-.33.58-.63,1.15-.89,1.7a1.69,1.69,0,0,0,0,1.41,1.71,1.71,0,0,0,1,1l2.14.7v2.91A3.82,3.82,0,0,0,7.18,25H8.57a.75.75,0,0,1,.76.73V27a1,1,0,0,0,2,0V25.7A2.75,2.75,0,0,0,8.57,23H7.18a1.82,1.82,0,0,1-1.85-1.8V17.54a1,1,0,0,0-.69-.95l-2.53-.83c.21-.42.44-.86.69-1.3A26.5,26.5,0,0,1,5.11,11a1,1,0,0,0,.21-.53A9.65,9.65,0,0,1,8.56,4,9.71,9.71,0,0,1,20.5,4c4.05,3.28,4.51,9.59,1,14.08a1,1,0,0,0-.21.61V27a1,1,0,0,0,2,0V19.07C27.23,13.74,26.56,6.37,21.76,2.48Z"/><path d="M15,7.06A4,4,0,0,0,10.33,11a4,4,0,0,0,.72,2.29,1.53,1.53,0,0,1,.28.81V17a3,3,0,1,0,6,0V14.1a1.51,1.51,0,0,1,.31-.86h0A4,4,0,0,0,15,7.06Zm-2,2.4A2,2,0,0,1,14.32,9a1.64,1.64,0,0,1,.38,0A2,2,0,0,1,16,12.11a3.57,3.57,0,0,0-.65,2V15h-2v-.9a3.46,3.46,0,0,0-.64-1.95A2,2,0,0,1,13,9.46ZM14.33,18a1,1,0,0,1-1-1h2A1,1,0,0,1,14.33,18Z"/><path d="M10,8.29l-1-1A1,1,0,1,0,7.62,8.7l1,1A1,1,0,0,0,10,9.7,1,1,0,0,0,10,8.29Z"/><path d="M19.33,10A1,1,0,0,0,20,9.7l1-1a1,1,0,1,0-1.41-1.41l-1,1a1,1,0,0,0,0,1.41A1,1,0,0,0,19.33,10Z"/><path d="M8.62,12.29l-1,1a1,1,0,0,0,0,1.41A1,1,0,0,0,9,14.7l1-1a1,1,0,0,0-1.41-1.41Z"/><path d="M21,13.29l-1-1a1,1,0,0,0-1.41,1.41l1,1a1,1,0,0,0,1.41,0A1,1,0,0,0,21,13.29Z"/></g></g></svg>