<svg fill="currentColor" xmlns="http://www.w3.org/2000/svg" viewBox="0 0 32 32"><g id="think"><path d="M26,12a10,10,0,1,0-16,8V22.2A11.37,11.37,0,0,0,10.14,24l.5,3A3.68,3.68,0,0,0,14.28,30h3.44a3.68,3.68,0,0,0,3.64-3.08l.5-3A11.37,11.37,0,0,0,22,22.2V20A10,10,0,0,0,26,12ZM8,12a8,8,0,1,1,12.44,6.65,1,1,0,0,0-.39,1.1A1,1,0,0,0,20,20v2H17V15.89a5.18,5.18,0,0,0,4-3.61A1,1,0,0,0,20.28,11a1,1,0,0,0-1.24.68,3.17,3.17,0,0,1-6.08,0,1,1,0,1,0-1.92.56,5.18,5.18,0,0,0,4,3.61V22H12V20a1,1,0,0,0-.05-.25,1,1,0,0,0-.39-1.1A8,8,0,0,1,8,12Zm9.72,16H17V27a1,1,0,0,0-2,0v1h-.72a1.69,1.69,0,0,1-1.67-1.41L12.18,24h7.64l-.43,2.59A1.69,1.69,0,0,1,17.72,28Z"/></g></svg>