<svg fill="currentColor" xmlns="http://www.w3.org/2000/svg" viewBox="0 0 32 32"><g id="timer"><path d="M27.42,11H17V9h2a1,1,0,0,0,0-2H13a1,1,0,0,0,0,2h2v2H4.58A2.59,2.59,0,0,0,2,13.58V24.42A2.59,2.59,0,0,0,4.58,27H27.42A2.59,2.59,0,0,0,30,24.42V13.58A2.59,2.59,0,0,0,27.42,11ZM22,19a6,6,0,1,1-6-6A6,6,0,0,1,22,19ZM4.58,25A.58.58,0,0,1,4,24.42V13.58A.58.58,0,0,1,4.58,13h6.15a8,8,0,0,0,0,12ZM28,24.42a.58.58,0,0,1-.58.58H21.27a8,8,0,0,0,0-12h6.15a.58.58,0,0,1,.58.58Z"/><path d="M16,21h3a1,1,0,0,0,0-2H17V17a1,1,0,0,0-2,0v3A1,1,0,0,0,16,21Z"/></g></svg>