<svg fill="currentColor" xmlns="http://www.w3.org/2000/svg" viewBox="0 0 32 32"><g id="tournament"><path d="M29,28H27.88l-.75-6H28a1,1,0,0,0,0-2h-.61L28,18.32a1,1,0,0,0-.06-.77l-1-2A1,1,0,0,0,26,15H25V14a1,1,0,0,0-2,0v1H22a1,1,0,0,0-.89.55l-1,2a1,1,0,0,0-.06.77L20.61,20H20a1,1,0,0,0,0,2h.87l-.75,6H19a1,1,0,0,0,0,2H29a1,1,0,0,0,0-2Zm-6.92-9.92L22.62,17h2.76l.54,1.08L25.28,20H22.72Zm.8,3.92h2.24l.75,6H22.13Z"/><path d="M15,20c.69,0,1.39,0,2.08-.08A1,1,0,0,0,18,18.84a1,1,0,0,0-1.08-.92c-.64,0-1.29.08-1.92.08a25.2,25.2,0,0,1-2.83-.17A25.2,25.2,0,0,1,12,15a23.35,23.35,0,0,1,.18-2.83A24.9,24.9,0,0,1,15,12a24.25,24.25,0,0,1,2.82.17A23.22,23.22,0,0,1,18,15a1,1,0,0,0,2,0c0-.87-.05-1.69-.13-2.5l.89.19a1,1,0,0,0,.48-1.94c-.55-.14-1.1-.25-1.66-.35a26.48,26.48,0,0,0-1.83-6.05,11,11,0,0,1,7.9,7.9,1,1,0,1,0,1.94-.5A13,13,0,0,0,16.36,2.08,1,1,0,0,0,15.81,2L15,2c-.27,0-.53,0-.79,0a1,1,0,0,0-.55,0A13,13,0,0,0,2.07,13.66a.94.94,0,0,0,0,.55c0,.26,0,.52,0,.79s0,.53,0,.79a.94.94,0,0,0,0,.55A13,13,0,0,0,13.66,27.93,1,1,0,0,0,14,28a.78.78,0,0,0,.26,0c.25,0,.49,0,.74,0a13.06,13.06,0,0,0,2.17-.18,1,1,0,1,0-.34-2A11.11,11.11,0,0,1,15,26l-.38,0a24.18,24.18,0,0,1-2.12-6.1C13.42,20,14.26,20,15,20Zm-4.88-2.5A24.18,24.18,0,0,1,4,15.38c0-.12,0-.25,0-.38s0-.26,0-.38a24.24,24.24,0,0,1,6.11-2.12c-.08.81-.13,1.63-.13,2.5S10,16.58,10.12,17.5ZM15.39,4a24.41,24.41,0,0,1,2.11,6.11c-.83-.08-1.67-.13-2.5-.13s-1.58,0-2.5.12A24.47,24.47,0,0,1,14.61,4L15,4Zm-3.15.34a26.66,26.66,0,0,0-1.82,6.05,26.45,26.45,0,0,0-6,1.82A11,11,0,0,1,12.24,4.36Zm0,21.27a11,11,0,0,1-7.86-7.86,26.53,26.53,0,0,0,6,1.82A26.53,26.53,0,0,0,12.23,25.63Z"/></g></svg>