<svg fill="currentColor" xmlns="http://www.w3.org/2000/svg" viewBox="0 0 32 32"><g id="versus"><path d="M26.79,24.86A4,4,0,1,0,20.14,21H17V17h4a1,1,0,0,0,0-2H19.85l-.67-4H20a1,1,0,0,0,0-2h-.61L20,7.32a1,1,0,0,0-.06-.77l-1-2A1,1,0,0,0,18,4H17V3a1,1,0,0,0-2,0V4H14a1,1,0,0,0-.89.55l-1,2a1,1,0,0,0-.06.77L12.61,9H12a1,1,0,0,0,0,2h.82l-.67,4H11a1,1,0,0,0,0,2h4v4H11.86a4,4,0,1,0-6.65,3.86A5,5,0,0,0,3,29a1,1,0,0,0,1,1h8a1,1,0,0,0,1-1,5,5,0,0,0-2.21-4.14A4.05,4.05,0,0,0,11.86,23h8.28a4.05,4.05,0,0,0,1.07,1.86A5,5,0,0,0,19,29a1,1,0,0,0,1,1h8a1,1,0,0,0,1-1A5,5,0,0,0,26.79,24.86ZM14.08,7.08,14.62,6h2.76l.54,1.08L17.28,9H14.72ZM14.85,11h2.3l.67,4H14.18Zm-4,17H5.17a3,3,0,0,1,5.66,0ZM6,22a2,2,0,1,1,2,2A2,2,0,0,1,6,22Zm16,0a2,2,0,1,1,2,2A2,2,0,0,1,22,22Zm-.83,6a3,3,0,0,1,5.66,0Z"/></g></svg>