<svg fill="currentColor" xmlns="http://www.w3.org/2000/svg" viewBox="0 0 32 32"><g id="weapons"><path d="M28.43,25.06l-2.35-3.35.43-.35a1,1,0,0,0,.14-1.4,1,1,0,0,0-1.41-.15l-.31.26-3-4.22,4.74-5a1,1,0,0,0,.26-.59l.71-7.17a1,1,0,0,0-.36-.87A1,1,0,0,0,26.4,2L19.5,4.15a1,1,0,0,0-.53.38L16.5,8.05,14,4.53a1,1,0,0,0-.53-.38L6.6,2a1,1,0,0,0-.92.19,1,1,0,0,0-.36.87L6,10.27a1,1,0,0,0,.26.59l4.74,5-3,4.22-.31-.26A1,1,0,0,0,6.35,20a1,1,0,0,0,.14,1.4l.43.35L4.57,25.06a3.17,3.17,0,0,0,.59,4.25A3.16,3.16,0,0,0,9.44,29l2.82-3,.43.35a1,1,0,0,0,.63.22,1,1,0,0,0,.77-.36A1,1,0,0,0,14,24.88l-.31-.26,2.86-3,2.86,3-.31.26a1,1,0,0,0-.14,1.41,1,1,0,0,0,.77.36,1,1,0,0,0,.63-.22l.43-.35,2.82,3a3.16,3.16,0,0,0,4.28.27A3.17,3.17,0,0,0,28.43,25.06ZM8,9.73,7.45,4.39,12.59,6l2.59,3.69a.68.68,0,0,0,.12.12l-3.1,4.41ZM8,27.67a1.15,1.15,0,0,1-1.78-1.46L8.47,23l2.24,1.83Zm1.63-6.33L20.41,6l5.14-1.57L25,9.73,12.09,23.35Zm8.26-1.18,2.68-2.83,2.82,4-2.47,2Zm8.7,7.61a1.17,1.17,0,0,1-1.57-.1L22.3,24.81,24.53,23l2.26,3.23A1.16,1.16,0,0,1,26.58,27.77Z"/></g></svg>