<?xml version="1.0" encoding="UTF-8"?><svg fill="currentColor" xmlns="http://www.w3.org/2000/svg" viewBox="0 0 24 24"><g id="s"><g><path d="M21.61,12.13l-1.35-4c-.38-1.12-1.44-1.88-2.63-1.88h-1.88v-.25c0-1.52-1.23-2.75-2.75-2.75h-2c-1.52,0-2.75,1.23-2.75,2.75v.25h-1.88c-1.19,0-2.25,.75-2.63,1.88l-1.35,4s-.02,.08-.03,.12H21.64s-.02-.08-.03-.12ZM9.75,6c0-.69,.56-1.25,1.25-1.25h2c.69,0,1.25,.56,1.25,1.25v.25h-4.5v-.25Zm-1,5c0,.41-.34,.75-.75,.75s-.75-.34-.75-.75v-2c0-.41,.34-.75,.75-.75s.75,.34,.75,.75v2Zm4,0c0,.41-.34,.75-.75,.75s-.75-.34-.75-.75v-2c0-.41,.34-.75,.75-.75s.75,.34,.75,.75v2Zm4,0c0,.41-.34,.75-.75,.75s-.75-.34-.75-.75v-2c0-.41,.34-.75,.75-.75s.75,.34,.75,.75v2Z"/><path d="M2.39,13.87l1.35,4c.38,1.12,1.44,1.88,2.63,1.88h11.25c1.2,0,2.25-.75,2.63-1.88l1.35-4s.02-.08,.03-.12H2.36s.02,.08,.03,.12Z"/></g></g></svg>