<?xml version="1.0" encoding="UTF-8"?><svg fill="currentColor" xmlns="http://www.w3.org/2000/svg" viewBox="0 0 24 24"><g id="j"><g><path d="M12.88,12.88c2.21-2.21,5.5-2.88,8.4-1.7l.44,.2c-.15-2.37-1.13-4.58-2.83-6.27-1.72-1.72-3.92-2.65-6.16-2.82l.11,.49c1.14,2.88,.47,6.15-1.73,8.34-1.48,1.48-3.46,2.27-5.48,2.27-.96,0-1.94-.18-2.87-.55l-.49-.12c.17,2.33,1.15,4.51,2.82,6.18,1.74,1.74,3.98,2.68,6.27,2.82l-.18-.42c-1.18-2.91-.51-6.21,1.69-8.42Z"/><path d="M3.29,11.43c2.33,.95,4.99,.41,6.77-1.37s2.32-4.44,1.37-6.77c-.02-.04-.03-.08-.04-.11l-.2-.88c-2.22,.18-4.39,1.12-6.09,2.81-1.64,1.64-2.62,3.77-2.82,6.06l.9,.23s.07,.02,.1,.03Z"/><path d="M13.94,13.94c-1.78,1.78-2.32,4.44-1.37,6.77l.43,.98c2.15-.22,4.25-1.15,5.89-2.8,1.6-1.6,2.57-3.66,2.8-5.88l-1.01-.46c-2.31-.93-4.96-.4-6.74,1.38Z"/></g></g></svg>