<?xml version="1.0" encoding="UTF-8"?><svg fill="currentColor" xmlns="http://www.w3.org/2000/svg" viewBox="0 0 24 24"><g id="h"><g><path d="M12.75,13.33v-1.58h.25c.96,0,1.75-.79,1.75-1.75V6c0-.96-.79-1.75-1.75-1.75h-2c-.96,0-1.75,.79-1.75,1.75v4c0,.96,.79,1.75,1.75,1.75h.25v1.58c-1.47,.3-2.63,1.45-2.92,2.92h7.35c-.3-1.47-1.46-2.62-2.92-2.92Z"/><path d="M12,20.75c1.81,0,3.33-1.29,3.67-3h-7.35c.35,1.71,1.86,3,3.67,3Z"/><path d="M20.5,5.25h-4.35c.06,.24,.1,.49,.1,.75v4c0,.26-.04,.51-.1,.75h4.35c.69,0,1.25-.56,1.25-1.25v-3c0-.69-.56-1.25-1.25-1.25Zm-1.48,3.5c-.41,0-.75-.34-.75-.75s.33-.75,.75-.75h0c.42,0,.75,.34,.75,.75s-.33,.75-.75,.75Z"/><path d="M7.85,5.25H3.5c-.69,0-1.25,.56-1.25,1.25v3c0,.69,.56,1.25,1.25,1.25H7.85c-.06-.24-.1-.49-.1-.75V6c0-.26,.04-.51,.1-.75Z"/></g></g></svg>