<?xml version="1.0" encoding="UTF-8"?><svg fill="currentColor" xmlns="http://www.w3.org/2000/svg" viewBox="0 0 24 24"><g id="c"><g><path d="M10.75,10.87v-.78c.01-.45-.06-1.14-.49-1.82-.17-.27-.57-.9-1.34-1.17h0c-1.33-.46-2.82,.44-3.38,1.57-.21,.43-.31,.93-.29,1.4v3.16H3c-.41,0-.75,.34-.75,.75s.34,.75,.75,.75h2.25v.94c0,.41,.34,.75,.75,.75,1.2,0,2.34-.52,3.22-1.46,.97-1.05,1.53-2.54,1.53-4.09Z"/><path d="M21,13.23h-5.78c.33-.53,.53-1.16,.53-1.84v-3.74h0l-.04-2.95s0-.09-.01-.13c-.26-1.35-1.41-2.34-2.72-2.34h-.32c-1.32,0-2.58,.6-3.45,1.64-.4,.47-.69,1.03-.88,1.61,.37,.02,.73,.07,1.08,.2,1.27,.44,1.88,1.42,2.12,1.78,.63,1.01,.74,2.01,.72,2.67v.74c0,.94-.18,1.86-.5,2.72-.04,.11-.08,.22-.12,.33-.12,.28-.25,.55-.4,.81h0c-.26,.45-.56,.88-.92,1.25-.6,.65-1.3,1.14-2.06,1.47v3.55c0,.41,.34,.75,.75,.75h.34c1.94-.2,3.41-1.64,3.41-3.36v-3.68s.07,0,.1-.01c.05,.01,.1,.03,.15,.03h3.86s.03,.09,.05,.13l1.38,2.08c.14,.22,.38,.33,.63,.33,.14,0,.29-.04,.42-.13,.34-.23,.44-.7,.21-1.04l-.92-1.38h2.37c.41,0,.75-.34,.75-.75s-.34-.75-.75-.75ZM12.02,6.73c-.41,0-.75-.34-.75-.75s.33-.75,.75-.75h0c.42,0,.75,.34,.75,.75s-.33,.75-.75,.75Z"/><path d="M17.25,7.61v1.22c.28-.15,.54-.37,.75-.65,.45-.6,.64-1.37,.51-2.06-.16-.83-.73-1.4-1.33-1.72,.01,.09,.03,.17,.03,.26l.04,2.95Z"/></g></g></svg>