<?xml version="1.0" encoding="UTF-8"?><svg fill="currentColor" xmlns="http://www.w3.org/2000/svg" viewBox="0 0 24 24"><g id="o"><path d="M21.09,6.03c-.62-.62-1.44-.9-2.25-.86,.05-.81-.24-1.64-.86-2.25-1.15-1.15-3.02-1.15-4.17,0-.77,.77-1.05,1.89-.74,2.94,.13,.43-.03,.94-.4,1.31l-5.51,5.51c-.37,.37-.89,.52-1.31,.4-1.04-.31-2.17-.03-2.94,.74-1.15,1.15-1.15,3.02,0,4.17,.62,.62,1.44,.91,2.25,.86-.05,.81,.24,1.64,.86,2.25,.58,.58,1.33,.86,2.09,.86s1.51-.29,2.09-.86c.77-.77,1.05-1.89,.74-2.94-.13-.43,.03-.94,.4-1.31l5.51-5.51c.37-.37,.88-.52,1.31-.4,1.04,.31,2.17,.03,2.94-.74,1.15-1.15,1.15-3.02,0-4.17Z"/></g></svg>