<?xml version="1.0" encoding="UTF-8"?><svg fill="currentColor" xmlns="http://www.w3.org/2000/svg" viewBox="0 0 24 24"><g id="p"><g><rect x="9.75" y="15.75" width="4.5" height="6"/><path d="M13.67,4.44l.57,1.05c.99,1.84,1.52,3.94,1.52,6.08v2.68h4v-2.25c0-3.7-2.61-6.8-6.08-7.56Z"/><path d="M12.75,5.9V3c0-.41-.34-.75-.75-.75s-.75,.34-.75,.75v2.9l-.16,.31c-.87,1.62-1.34,3.47-1.34,5.37v2.68h4.5v-2.68c0-1.89-.46-3.75-1.34-5.37l-.16-.31Z"/><path d="M10.33,4.44c-3.47,.76-6.08,3.86-6.08,7.56v2.25h4v-2.68c0-2.14,.52-4.24,1.52-6.08l.57-1.05Z"/><path d="M4.25,20c0,.96,.79,1.75,1.75,1.75h2.25v-6H4.25v4.25Z"/><path d="M15.75,21.75h2.25c.96,0,1.75-.79,1.75-1.75v-4.25h-4v6Z"/></g></g></svg>