<?xml version="1.0" encoding="UTF-8"?><svg fill="currentColor" xmlns="http://www.w3.org/2000/svg" viewBox="0 0 24 24"><g id="m"><g><path d="M8.25,12.15v1.17c1.14,.28,2.44,.43,3.75,.43s2.6-.15,3.75-.43v-1.17c-1.16-.25-2.43-.4-3.75-.4s-2.59,.15-3.75,.4Z"/><path d="M6.71,9.87c.47,.16,.86,.46,1.13,.84,1.29-.29,2.7-.45,4.16-.45s2.87,.17,4.16,.45c.27-.38,.66-.68,1.13-.84l3-1c.13-.04,.26-.07,.39-.09-1.58-1.53-4.8-2.53-8.68-2.53s-7.1,1-8.68,2.53c.13,.02,.26,.05,.39,.09l3,1Z"/><path d="M21.44,10.39c-.2-.14-.45-.18-.68-.1l-3,1c-.31,.1-.51,.39-.51,.71v2.44c-1.49,.52-3.32,.81-5.25,.81s-3.76-.29-5.25-.81v-2.44c0-.32-.21-.61-.51-.71l-3-1c-.23-.08-.48-.04-.68,.1-.2,.14-.31,.37-.31,.61v5c0,2.71,4.19,4.75,9.75,4.75s9.75-2.04,9.75-4.75v-5c0-.24-.12-.47-.31-.61Z"/></g></g></svg>