<?xml version="1.0" encoding="UTF-8"?><svg fill="currentColor" xmlns="http://www.w3.org/2000/svg" viewBox="0 0 24 24"><g id="t"><path d="M21,18.25h-6.43c.32-.23,.63-.49,.91-.77,1.46-1.46,2.27-3.41,2.27-5.48s-.81-4.02-2.27-5.48c-1.46-1.46-3.41-2.27-5.48-2.27s-4.02,.81-5.48,2.27c-1.46,1.46-2.27,3.41-2.27,5.48s.81,4.02,2.27,5.48c1.46,1.46,3.41,2.27,5.48,2.27h11c.41,0,.75-.34,.75-.75s-.34-.75-.75-.75Zm-10.47-1.48c-.15,.15-.34,.22-.53,.22s-.38-.07-.53-.22l-4.24-4.24c-.29-.29-.29-.77,0-1.06s.77-.29,1.06,0l4.24,4.24c.29,.29,.29,.77,0,1.06Zm2.83-1.41c-.15,.15-.34,.22-.53,.22s-.38-.07-.53-.22l-5.66-5.66c-.29-.29-.29-.77,0-1.06s.77-.29,1.06,0l5.66,5.66c.29,.29,.29,.77,0,1.06Zm.35-2.83l-4.24-4.24c-.29-.29-.29-.77,0-1.06s.77-.29,1.06,0l4.24,4.24c.29,.29,.29,.77,0,1.06-.15,.15-.34,.22-.53,.22s-.38-.07-.53-.22Z"/></g></svg>