<?xml version="1.0" encoding="UTF-8"?><svg fill="currentColor" xmlns="http://www.w3.org/2000/svg" viewBox="0 0 24 24"><g id="g"><g><path d="M13.11,13.37l-.05-.14c-.42-.18-.8-.21-1.05-.21-.36,0-.71,.07-1.04,.21l-.06,.15c.09,.17,.2,.36,.33,.55,.22,.32,.48,.61,.77,.86,.29-.26,.55-.54,.77-.86,.13-.19,.24-.38,.33-.55Z"/><path d="M17,13.75c-.41,0-.75-.34-.75-.75s.34-.75,.75-.75h3.32c-.15-1.16-.54-2.3-1.18-3.39,.33-.45,.57-.95,.74-1.47,.73-2.31-.42-4.26-.79-4.81-.16-.23-.43-.35-.71-.32-.85,.1-1.64,.36-2.37,.79-.82,.48-1.4,1.08-1.79,1.61-1.42-.43-2.96-.43-4.38-.01-.36-.5-.89-1.07-1.64-1.54-.99-.62-1.96-.8-2.6-.85-.28,0-.53,.1-.68,.33-.37,.54-1.52,2.5-.79,4.81,.17,.52,.41,1.02,.74,1.47-.63,1.09-1.03,2.24-1.18,3.39h3.29c.41,0,.75,.34,.75,.75s-.34,.75-.75,.75H3.65c.01,.22,.03,.43,.06,.65,.07,.53,.2,1.01,.35,1.46l2.86-.95c.4-.13,.82,.08,.95,.47,.13,.39-.08,.82-.47,.95l-2.74,.91c.55,1.02,1.19,1.73,1.54,2.08,1.47,1.44,3.16,2.03,4.31,2.27,.5,.1,1,.16,1.5,.16s1-.05,1.5-.16c1.16-.24,2.84-.84,4.31-2.27,.36-.35,.99-1.06,1.54-2.07l-2.76-.92c-.39-.13-.61-.56-.47-.95,.13-.39,.55-.6,.95-.47l2.89,.96c.15-.45,.28-.94,.35-1.47,.03-.21,.05-.43,.06-.65h-3.37Zm-8.74-3.88c0-.41,.33-.75,.75-.75h0c.42,0,.75,.34,.75,.75s-.33,.75-.75,.75-.75-.34-.75-.75Zm4.72,8.88c-.36,0-.71-.11-1-.31-.28,.2-.63,.31-1,.31-.97,0-1.76-.78-1.76-1.75,0-.41,.34-.75,.75-.75s.75,.34,.75,.75c0,.28,.5,.27,.5,0h0v-.94c-.46-.38-.89-.8-1.23-1.29-.17-.25-.32-.5-.43-.73-.2-.39-.23-.86-.07-1.28,.15-.42,.48-.76,.89-.93,1.04-.43,2.21-.42,3.24,0,.41,.17,.73,.5,.88,.92,.15,.42,.13,.89-.07,1.28-.12,.23-.26,.48-.43,.73-.35,.5-.79,.94-1.27,1.32v.92c0,.08,.04,.14,.06,.17s.09,.07,.18,.07c.14,0,.25-.11,.25-.25,0-.41,.34-.75,.75-.75s.75,.34,.75,.75c0,.96-.78,1.75-1.75,1.75Zm2.03-8.13c-.41,0-.75-.34-.75-.75s.33-.75,.75-.75h0c.42,0,.75,.34,.75,.75s-.33,.75-.75,.75Z"/></g></g></svg>