<?xml version="1.0" encoding="UTF-8"?><svg fill="currentColor" xmlns="http://www.w3.org/2000/svg" viewBox="0 0 24 24"><g id="n"><g><path d="M12.01,12.03s.04-.05,.05-.07c.05-.07,.08-.14,.11-.21h-.33c.03,.07,.07,.14,.11,.21,.02,.03,.04,.05,.05,.07Z"/><path d="M13,2.25h-2c-3.17,0-5.75,2.58-5.75,5.75v5c0,2.07,1.68,3.75,3.75,3.75,.12,0,.23-.03,.35-.04,.31,1.17,1.38,2.04,2.65,2.04s2.33-.87,2.65-2.04c.12,.01,.23,.04,.35,.04,2.07,0,3.75-1.68,3.75-3.75v-5c0-3.17-2.58-5.75-5.75-5.75Zm0,8c.38,0,.69,.28,.74,.65,.04,.31,.08,1.13-.43,1.9-.24,.35-.57,.65-.95,.86-.11,.06-.23,.09-.36,.09-.13,0-.26-.03-.38-.1-.36-.21-.68-.51-.91-.85-.49-.73-.5-1.49-.46-1.87,.04-.38,.36-.67,.75-.67h2Zm-2.99-3h.01c.41,0,.75,.34,.75,.75s-.34,.75-.75,.75-.75-.34-.75-.75,.33-.75,.74-.75Zm1.99,10c-.57,0-1.05-.38-1.2-.9l1.2-.85,1.2,.85c-.15,.52-.63,.9-1.2,.9Zm2.02-8.5c-.41,0-.75-.34-.75-.75s.33-.75,.75-.75h0c.42,0,.75,.34,.75,.75s-.33,.75-.75,.75Z"/><path d="M19.81,5.53c.28,.77,.44,1.6,.44,2.47v5c0,.46-.08,.91-.19,1.34,1-.55,1.69-1.61,1.69-2.84v-3c0-1.33-.8-2.47-1.94-2.97Z"/><path d="M4.19,5.53c-1.14,.5-1.94,1.64-1.94,2.97v3c0,1.23,.69,2.28,1.69,2.84-.11-.43-.19-.87-.19-1.34v-5c0-.87,.16-1.7,.44-2.47Z"/><path d="M15.62,18.2c-.75,1.22-2.08,2.05-3.62,2.05s-2.87-.83-3.62-2.05c-.88-.11-1.7-.42-2.39-.91-.47,.84-.74,1.79-.74,2.78v.93c0,.41,.34,.75,.75,.75h12c.41,0,.75-.34,.75-.75v-.93c0-.99-.27-1.94-.74-2.78-.69,.49-1.51,.8-2.39,.91Z"/></g></g></svg>