<?xml version="1.0" encoding="UTF-8"?><svg fill="currentColor" xmlns="http://www.w3.org/2000/svg" viewBox="0 0 24 24"><g id="f"><g><path d="M19.6,20.23l-.33-1.48H4.73l-.33,1.48c-.08,.37,0,.76,.25,1.05,.24,.3,.59,.47,.98,.47h12.75c.38,0,.74-.17,.98-.47,.24-.3,.33-.68,.25-1.05Z"/><path d="M18.08,13.4c-.28-1.27-1.39-2.15-2.68-2.15h-2.65v-.5h.75c.69,0,1.25-.56,1.25-1.25V5c0-1.52-1.23-2.75-2.75-2.75s-2.75,1.23-2.75,2.75v4.5c0,.69,.56,1.25,1.25,1.25h.75v.5h-2.65c-1.3,0-2.4,.89-2.68,2.15l-.85,3.85h13.87l-.85-3.85Z"/></g></g></svg>