<?xml version="1.0" encoding="UTF-8"?><svg fill="currentColor" xmlns="http://www.w3.org/2000/svg" viewBox="0 0 24 24"><g id="e"><g><path d="M4.96,12.75h14.09c.28,0,.54-.16,.67-.41,.07-.14,.7-1.43-.07-2.72-.42-.71-1.13-1.19-1.93-1.33-.14-.81-.62-1.52-1.35-1.94-.62-.35-1.26-.39-1.8-.31-.39-1.04-1.4-1.79-2.58-1.79s-2.18,.74-2.58,1.79c-.54-.08-1.18-.04-1.8,.31-.72,.41-1.21,1.13-1.35,1.94-.8,.15-1.51,.63-1.93,1.33-.76,1.29-.14,2.58-.07,2.72,.13,.25,.39,.41,.67,.41Z"/><path d="M21.72,16.67l-.69-3.61c-.39,.73-1.15,1.19-1.98,1.19H4.96c-.83,0-1.59-.46-1.98-1.19l-.69,3.62c-.1,.51,.04,1.03,.37,1.43,.34,.41,.84,.64,1.37,.64h15.95c.54,0,1.04-.23,1.37-.64,.33-.4,.47-.92,.37-1.43Z"/></g></g></svg>