<?xml version="1.0" encoding="UTF-8"?><svg fill="currentColor" xmlns="http://www.w3.org/2000/svg" viewBox="0 0 24 24"><g id="q"><g><path d="M19.2,16.96s-.04-.06-.07-.09c-.92-1.02-1.76-2.12-2.5-3.27-.48-.75-.91-1.52-1.3-2.31-.02-.03-.03-.06-.05-.09-.5-.74-1.08-1.27-1.72-1.58-2.2-1.06-3.9,.06-4.76,1.46-.02,.03-.04,.06-.05,.09-.42,.83-.88,1.65-1.38,2.42-.74,1.15-1.58,2.25-2.56,3.35-.36,.53-.56,1.2-.56,1.89,0,.94,.37,1.83,.98,2.39,.47,.43,1.07,.64,1.66,.58,.18-.02,.37-.04,.56-.07,1.5-.25,2.33-.85,3-1.33,.55-.4,.92-.66,1.54-.66s.99,.26,1.54,.66c.67,.48,1.5,1.08,3,1.33,.19,.03,.38,.06,.57,.07,.06,0,.13,0,.19,0,.53,0,1.05-.21,1.47-.59,.62-.56,.98-1.45,.98-2.39,0-.34-.05-.68-.14-.99-.09-.31-.23-.61-.41-.89Z"/><path d="M7.4,8.77c.34,.13,.68,.2,1.02,.2,.43,0,.85-.11,1.22-.32,.65-.38,1.1-1.06,1.23-1.88,.12-.77-.05-1.59-.47-2.31-.9-1.55-2.7-2.2-4.01-1.44-1.31,.76-1.65,2.64-.76,4.19,.42,.73,1.05,1.28,1.77,1.56Z"/><path d="M13.89,8.65c.37,.22,.79,.32,1.21,.32,1.06,0,2.16-.65,2.8-1.76,.42-.73,.58-1.55,.47-2.31-.12-.82-.57-1.5-1.23-1.88-.65-.38-1.47-.42-2.24-.12-.72,.28-1.35,.84-1.77,1.56-.9,1.55-.56,3.43,.76,4.19Z"/><path d="M20.71,8.94c-.54-.31-1.21-.35-1.84-.1-.58,.23-1.08,.67-1.42,1.25-.72,1.25-.44,2.78,.64,3.4,.31,.18,.65,.26,1,.26,.86,0,1.75-.52,2.27-1.41,.72-1.25,.44-2.78-.64-3.4Z"/><path d="M5.99,13.48c1.07-.62,1.36-2.14,.64-3.4-.72-1.25-2.19-1.77-3.26-1.15-1.07,.62-1.36,2.14-.64,3.4,.51,.89,1.41,1.41,2.26,1.41,.35,0,.69-.08,1-.26Z"/></g></g></svg>