<?xml version="1.0" encoding="UTF-8"?><svg fill="currentColor" xmlns="http://www.w3.org/2000/svg" viewBox="0 0 24 24"><g id="b"><path d="M21.15,6.39l-3.54-3.54c-.47-.47-1.29-.47-1.77,0l-.71,.71c-.24,.24-.37,.55-.37,.88s.13,.65,.37,.88l1.24,1.24-1.77,1.77-.88-.88c-.68-.68-1.79-.68-2.47,0l-5.66,5.66c-1.28,1.28-1.44,3.26-.48,4.72l-2.64,2.64c-.29,.29-.29,.77,0,1.06,.15,.15,.34,.22,.53,.22s.38-.07,.53-.22l2.64-2.64c.62,.41,1.35,.62,2.07,.62s1.46-.22,2.09-.64l-1.92-1.87c-.29-.29-.29-.77,0-1.06s.77-.29,1.06,0l1.41,1.41,.54,.52,1.02-1.02-.53-.59-1.39-1.39c-.29-.29-.29-.77,0-1.06,.29-.29,.77-.29,1.06,0l1.41,1.42,.5,.56,1.08-1.08-1.93-1.96c-.29-.29-.29-.77,0-1.06s.77-.29,1.06,0l1.93,1.96,.9-.9c.68-.68,.68-1.79,0-2.47l-.88-.88,1.77-1.77,1.24,1.24c.24,.24,.55,.37,.88,.37s.65-.13,.88-.37l.71-.71c.24-.24,.37-.55,.37-.88s-.13-.65-.37-.88Z"/></g></svg>