<?xml version="1.0" encoding="UTF-8"?><svg fill="currentColor" xmlns="http://www.w3.org/2000/svg" viewBox="0 0 24 24"><g id="l"><g><ellipse cx="11.5" cy="5.5" rx="7.25" ry="3.25"/><path d="M18.75,14.37v-5.37c0-.06-.02-.12-.04-.18,.02-.11,.04-.21,.04-.32v-.16c-.16,.13-.35,.25-.53,.36-.07,.04-.13,.09-.2,.13-.16,.09-.33,.17-.49,.25-.09,.04-.17,.09-.25,.12-1.61,.71-3.69,1.04-5.77,1.04-2.79,0-5.59-.61-7.25-1.91v.16c0,1.68,2.27,2.73,5,3.1v8.4c0,.96,.79,1.75,1.75,1.75h1c.96,0,1.75-.79,1.75-1.75V11.6c1.35-.18,2.59-.53,3.5-1.05v3.82c-1.15,.33-2,1.38-2,2.63,0,1.52,1.23,2.75,2.75,2.75s2.75-1.23,2.75-2.75c0-1.25-.85-2.3-2-2.63Z"/></g></g></svg>