<?xml version="1.0" encoding="UTF-8"?><svg fill="currentColor" xmlns="http://www.w3.org/2000/svg" viewBox="0 0 24 24"><g id="k"><g><path d="M8.87,9.7c.09,.03,.18,.05,.27,.05h5.27c.15,0,.3-.05,.42-.13,.53-.36,.95-.81,1.27-1.33,.87-1.43,.7-3.02,.4-4.1-.12-.45-.48-.79-.92-.9-.45-.11-.93,.04-1.24,.38-.73,.79-1.47,1.25-2.08,1.28-.15,0-.56,.01-.99,0-.47-.01-.81-.04-1.06-.07-.5-.04-.87-.08-1.35,.12-.26,.11-1.15,.54-1.48,1.56-.23,.68-.1,1.28,0,1.57,.34,1.05,1.23,1.47,1.5,1.57Z"/><path d="M7.5,14.75h9c1.79,0,3.25-1.46,3.25-3.25,0-1.37-.85-2.54-2.06-3.02-.09,.19-.18,.39-.3,.58-.43,.71-1.01,1.31-1.71,1.79-.37,.25-.81,.39-1.27,.39h-5.27c-.29,0-.56-.05-.82-.16-.4-.15-1.78-.8-2.35-2.44-1.02,.55-1.72,1.61-1.72,2.85,0,1.79,1.46,3.25,3.25,3.25Z"/><path d="M20.53,13.98c-.84,1.35-2.32,2.27-4.03,2.27H7.5c-1.71,0-3.19-.91-4.03-2.27-.74,.6-1.22,1.5-1.22,2.52,0,1.79,1.46,3.25,3.25,3.25h13c1.79,0,3.25-1.46,3.25-3.25,0-1.02-.48-1.92-1.22-2.52Z"/></g></g></svg>