<?xml version="1.0" encoding="UTF-8"?><svg fill="currentColor" xmlns="http://www.w3.org/2000/svg" viewBox="0 0 24 24"><g id="d"><g><path d="M18,17.25h-3.25v-1.9l-.27,.22-2.23,1.68h-2.5l3.8-2.85,1.2-1.01v-2.04l-.27,.22-4.03,3.02-1.2,.95v1.7h-3.25c-.96,0-1.75,.79-1.75,1.75v2c0,.41,.34,.75,.75,.75h14c.41,0,.75-.34,.75-.75v-2c0-.96-.79-1.75-1.75-1.75Z"/><path d="M18.64,11.26l-.75-4.51h.11c.96,0,1.75-.79,1.75-1.75V3c0-.41-.34-.75-.75-.75H5c-.41,0-.75,.34-.75,.75v2c0,.96,.79,1.75,1.75,1.75h.11l-.75,4.51c-1.18,.07-2.11,1.04-2.11,2.24s1.01,2.25,2.25,2.25,2.25-1.01,2.25-2.25c0-.75-.37-1.41-.94-1.82l.82-4.93h1.61v2.89l.28-.23,3.59-2.67h3.24l.82,4.93c-.56,.41-.94,1.07-.94,1.82,0,1.24,1.01,2.25,2.25,2.25s2.25-1.01,2.25-2.25-.94-2.16-2.11-2.24Z"/><polygon points="14.75 9.4 14.75 7.38 14.44 7.61 10.45 10.6 9.25 11.57 9.25 13.64 9.54 13.41 13.55 10.4 14.75 9.4"/></g></g></svg>