<?xml version="1.0" encoding="UTF-8"?><svg fill="currentColor" xmlns="http://www.w3.org/2000/svg" viewBox="0 0 24 24"><g id="i"><g><path d="M14,5.25h2.75v-.25c0-1.52-1.23-2.75-2.75-2.75h-4c-1.52,0-2.75,1.23-2.75,2.75V13c0,1.52,1.23,2.75,2.75,2.75h4c1.52,0,2.75-1.23,2.75-2.75v-.25h-2.75c-.41,0-.75-.34-.75-.75s.34-.75,.75-.75h2.75v-1.5h-2.75c-.41,0-.75-.34-.75-.75s.34-.75,.75-.75h2.75v-1.5h-2.75c-.41,0-.75-.34-.75-.75s.34-.75,.75-.75Z"/><path d="M12.75,17.25h-2.75c-.63,0-1.21-.14-1.75-.39v.14c0,.96,.79,1.75,1.75,1.75h1.25c0,1.06,.58,2,1.52,2.47l.9,.45c.11,.05,.22,.08,.33,.08,.28,0,.54-.15,.67-.42,.19-.37,.04-.82-.34-1.01l-.89-.45c-.43-.21-.69-.64-.69-1.12h1.25c.96-.01,1.75-.8,1.75-1.76v-.14c-.54,.24-1.12,.39-1.75,.39h-1.25Z"/></g></g></svg>