<?xml version="1.0" encoding="UTF-8"?><svg fill="currentColor" xmlns="http://www.w3.org/2000/svg" viewBox="0 0 24 24"><g id="p"><g><path d="M10.5,7.25c-2.34,0-4.25,1.91-4.25,4.25s1.91,4.25,4.25,4.25,4.25-1.91,4.25-4.25-1.91-4.25-4.25-4.25Zm0,7c-1.52,0-2.75-1.23-2.75-2.75s1.23-2.75,2.75-2.75,2.75,1.23,2.75,2.75-1.23,2.75-2.75,2.75Z"/><path d="M21,13.25c-.41,0-.75,.34-.75,.75v.25h-1.97c.31-.88,.47-1.81,.47-2.75,0-4.55-3.7-8.25-8.25-8.25S2.25,6.95,2.25,11.5s3.7,8.25,8.25,8.25h9.75v.25c0,.41,.34,.75,.75,.75s.75-.34,.75-.75v-6c0-.41-.34-.75-.75-.75Zm-10.5,5c-3.72,0-6.75-3.03-6.75-6.75s3.03-6.75,6.75-6.75,6.75,3.03,6.75,6.75c0,1.1-.27,2.19-.78,3.15-.12,.23-.12,.51,.02,.74s.38,.36,.64,.36h3.12v2.5H10.5Z"/></g></g></svg>