<?xml version="1.0" encoding="UTF-8"?><svg fill="currentColor" xmlns="http://www.w3.org/2000/svg" viewBox="0 0 24 24"><g id="q"><g><path d="M20,6.25h-1.25v-1.25c0-.96-.79-1.75-1.75-1.75h-1c-.96,0-1.75,.79-1.75,1.75v1.25h-4.5v-1.25c0-.96-.79-1.75-1.75-1.75h-1c-.96,0-1.75,.79-1.75,1.75v1.25h-1.25c-.96,0-1.75,.79-1.75,1.75v1c0,.7,.41,1.29,1,1.57v8.43c0,.96,.79,1.75,1.75,1.75h14c.96,0,1.75-.79,1.75-1.75V10.57c.59-.28,1-.88,1-1.57v-1c0-.96-.79-1.75-1.75-1.75Zm-4.25-1.25c0-.14,.11-.25,.25-.25h1c.14,0,.25,.11,.25,.25v1.25h-1.5v-1.25Zm-9,0c0-.14,.11-.25,.25-.25h1c.14,0,.25,.11,.25,.25v1.25h-1.5v-1.25Zm-3,3c0-.14,.11-.25,.25-.25H20c.14,0,.25,.11,.25,.25v1c0,.14-.11,.25-.25,.25H4c-.14,0-.25-.11-.25-.25v-1Zm15.5,11c0,.14-.11,.25-.25,.25H5c-.14,0-.25-.11-.25-.25V10.75h14.5v8.25Z"/><path d="M7,14.75h.25v.25c0,.41,.34,.75,.75,.75s.75-.34,.75-.75v-.25h.25c.41,0,.75-.34,.75-.75s-.34-.75-.75-.75h-.25v-.25c0-.41-.34-.75-.75-.75s-.75,.34-.75,.75v.25h-.25c-.41,0-.75,.34-.75,.75s.34,.75,.75,.75Z"/><path d="M15,14.75h2c.41,0,.75-.34,.75-.75s-.34-.75-.75-.75h-2c-.41,0-.75,.34-.75,.75s.34,.75,.75,.75Z"/></g></g></svg>