<?xml version="1.0" encoding="UTF-8"?><svg fill="currentColor" xmlns="http://www.w3.org/2000/svg" viewBox="0 0 24 24"><g id="g"><g><path d="M6.25,13c0,2.62,2.13,4.75,4.75,4.75s4.75-2.13,4.75-4.75-2.13-4.75-4.75-4.75-4.75,2.13-4.75,4.75Zm4.75-3.25c1.79,0,3.25,1.46,3.25,3.25s-1.46,3.25-3.25,3.25-3.25-1.46-3.25-3.25,1.46-3.25,3.25-3.25Z"/><path d="M13,2.25c-.41,0-.75,.34-.75,.75v3.38c0,.41,.34,.75,.75,.75,2.14,0,3.88,1.74,3.88,3.88,0,.41,.34,.75,.75,.75h.5c.07,.41,.12,.83,.12,1.25,0,4-3.25,7.25-7.25,7.25s-7.25-3.25-7.25-7.25c0-3.32,2.25-6.21,5.46-7.03,.4-.1,.64-.51,.54-.91-.1-.4-.51-.64-.91-.54-3.88,.98-6.59,4.47-6.59,8.48,0,4.83,3.92,8.75,8.75,8.75s8.75-3.92,8.75-8.75c0-.42-.04-.84-.1-1.25h1.35c.41,0,.75-.34,.75-.75,0-4.83-3.92-8.75-8.75-8.75Zm5.32,8c-.33-2.37-2.21-4.24-4.57-4.57v-1.89c3.4,.35,6.11,3.06,6.46,6.46h-1.89Z"/></g></g></svg>