<?xml version="1.0" encoding="UTF-8"?><svg fill="currentColor" xmlns="http://www.w3.org/2000/svg" viewBox="0 0 24 24"><g id="h"><path d="M19.88,9.55h-1.13c-.41,0-.75,.34-.75,.75v1.1c0,.19-.17,.35-.38,.35h-1.13c-.21,0-.38-.16-.38-.35v-1.1c0-1.02-.84-1.85-1.88-1.85h-1.13c-.21,0-.38-.16-.38-.35,0-1.02-.84-1.85-1.88-1.85h-1.62v-1.5h1.25c.41,0,.75-.34,.75-.75s-.34-.75-.75-.75H6.51c-.41,0-.75,.34-.75,.75s.34,.75,.75,.75h1.25v1.5h-1.38c-1.03,0-1.88,.83-1.88,1.85,0,.19-.17,.35-.38,.35-1.03,0-1.88,.83-1.88,1.85v4.4c0,1.02,.84,1.85,1.88,1.85h4.93c.14,0,.28,.08,.34,.2l.5,.98c.32,.63,.96,1.02,1.67,1.02h2.68c1.03,0,1.88-.83,1.88-1.85,0-.19,.17-.35,.38-.35h1.13c.21,0,.38,.16,.38,.35v1.1c0,.41,.34,.75,.75,.75h1.13c1.03,0,1.88-.83,1.88-1.85v-5.5c0-1.02-.84-1.85-1.88-1.85Zm.38,7.35c0,.19-.17,.35-.38,.35h-.38v-.35c0-1.02-.84-1.85-1.88-1.85h-1.13c-1.03,0-1.88,.83-1.88,1.85,0,.19-.17,.35-.38,.35h-2.68c-.14,0-.28-.08-.34-.2l-.5-.98c-.32-.63-.96-1.02-1.67-1.02H4.13c-.21,0-.38-.16-.38-.35v-4.4c0-.19,.17-.35,.38-.35,1.03,0,1.88-.83,1.88-1.85,0-.19,.17-.35,.38-.35h4.5c.21,0,.38,.16,.38,.35,0,1.02,.84,1.85,1.88,1.85h1.13c.21,0,.38,.16,.38,.35v1.1c0,1.02,.84,1.85,1.88,1.85h1.13c1.03,0,1.88-.83,1.88-1.85v-.35h.38c.21,0,.38,.16,.38,.35v5.5Z"/></g></svg>