<?xml version="1.0" encoding="UTF-8"?><svg fill="currentColor" xmlns="http://www.w3.org/2000/svg" viewBox="0 0 24 24"><g id="r"><g><path d="M21.24,10.18L14.82,3.76c-.33-.33-.78-.51-1.24-.51H4c-.96,0-1.75,.79-1.75,1.75v14c0,.96,.79,1.75,1.75,1.75H14.11c.84,0,1.56-.6,1.72-1.42,.15-.79,.56-1.91,1.63-2.74,.92-.71,1.92-.88,2.6-.9,.95-.03,1.7-.79,1.7-1.75v-2.53c0-.47-.18-.91-.51-1.24Zm-.99,3.77c0,.13-.11,.24-.24,.25-.9,.03-2.23,.26-3.47,1.22-1.45,1.12-1.99,2.6-2.19,3.64-.02,.12-.12,.2-.24,.2H4c-.14,0-.25-.11-.25-.25V5c0-.14,.11-.25,.25-.25H13.59c.07,0,.13,.03,.18,.07l6.41,6.41s.07,.11,.07,.18v2.53Z"/><path d="M13.68,6.62c-.24-.24-.55-.37-.88-.37H6.5c-.69,0-1.25,.56-1.25,1.25v4c0,.69,.56,1.25,1.25,1.25h10.29c.51,0,.96-.3,1.16-.77,.19-.47,.09-1-.27-1.36l-4-4Zm-6.93,4.63v-3.5h5.94l3.5,3.5H6.75Z"/><path d="M9,14.25h-2c-.41,0-.75,.34-.75,.75s.34,.75,.75,.75h2c.41,0,.75-.34,.75-.75s-.34-.75-.75-.75Z"/></g></g></svg>