<?xml version="1.0" encoding="UTF-8"?><svg fill="currentColor" xmlns="http://www.w3.org/2000/svg" viewBox="0 0 24 24"><g id="e"><g><path d="M19.87,6.83l-1.34-.45-1.58-3.17c-.3-.6-.9-.97-1.57-.97H6.78c-.8,0-1.5,.54-1.7,1.33l-.67,2.67h-.41c-.96,0-1.75,.79-1.75,1.75v3c0,.96,.79,1.75,1.75,1.75h1.28c0,.08-.03,.16-.03,.25,0,.45,.12,.87,.31,1.25h-1.56c-.41,0-.75,.34-.75,.75s.34,.75,.75,.75h7.25v4.5H7c-.41,0-.75,.34-.75,.75s.34,.75,.75,.75h10c.41,0,.75-.34,.75-.75s-.34-.75-.75-.75h-4.25v-4.5h7.25c.41,0,.75-.34,.75-.75s-.34-.75-.75-.75h-1.56c.19-.38,.31-.8,.31-1.25,0-.09-.02-.17-.03-.25h1.28c.96,0,1.75-.79,1.75-1.75v-1.56c0-1.19-.76-2.23-1.88-2.61Zm-4.26-2.94l1.18,2.36h-5.04V3.75h3.63c.1,0,.18,.05,.22,.14Zm-9.07,.05c.03-.11,.13-.19,.24-.19h3.47v2.5H5.96l.58-2.31Zm.21,9.06c0-.69,.56-1.25,1.25-1.25s1.25,.56,1.25,1.25-.56,1.25-1.25,1.25-1.25-.56-1.25-1.25Zm3.97-.25h2.55c0,.08-.03,.16-.03,.25,0,.45,.12,.87,.31,1.25h-3.13c.19-.38,.31-.8,.31-1.25,0-.09-.02-.17-.03-.25Zm4.03,.25c0-.69,.56-1.25,1.25-1.25s1.25,.56,1.25,1.25-.56,1.25-1.25,1.25-1.25-.56-1.25-1.25Zm5.5-2c0,.14-.11,.25-.25,.25h-1.9c-.5-.61-1.26-1-2.1-1s-1.6,.39-2.1,1h-3.79c-.5-.61-1.26-1-2.1-1s-1.6,.39-2.1,1h-1.9c-.14,0-.25-.11-.25-.25v-3c0-.14,.11-.25,.25-.25h13.88l1.52,.51c.51,.17,.85,.65,.85,1.19v1.56Z"/><path d="M14,8.25h-1c-.41,0-.75,.34-.75,.75s.34,.75,.75,.75h1c.41,0,.75-.34,.75-.75s-.34-.75-.75-.75Z"/></g></g></svg>