<?xml version="1.0" encoding="UTF-8"?><svg fill="currentColor" xmlns="http://www.w3.org/2000/svg" viewBox="0 0 24 24"><g id="m"><path d="M20,11.25h-.25v-2.42c0-.73-.29-1.43-.81-1.94l-.83-.83c-.24-.24-.37-.55-.37-.88v-1.42h3.25c.41,0,.75-.34,.75-.75s-.34-.75-.75-.75H3c-.41,0-.75,.34-.75,.75s.34,.75,.75,.75h3.25v1.42c0,.33-.13,.65-.37,.88l-.83,.83c-.52,.52-.81,1.21-.81,1.94v2.42h-.25c-.96,0-1.75,.79-1.75,1.75v3.84c0,.19,.03,.37,.09,.55l.72,2.16c.24,.72,.91,1.2,1.66,1.2h3.56c.75,0,1.42-.48,1.66-1.2l.72-2.16c.06-.18,.09-.37,.09-.55v-3.84c0-.96-.79-1.75-1.75-1.75h-.25v-1.42c0-.33,.13-.65,.37-.88l.83-.83c.52-.52,.81-1.21,.81-1.94V3.75h2.5v2.42c0,.73,.29,1.43,.81,1.94l.83,.83c.24,.24,.37,.55,.37,.88v1.42h-.25c-.96,0-1.75,.79-1.75,1.75v3.84c0,.19,.03,.37,.09,.55l.72,2.16c.24,.72,.91,1.2,1.66,1.2h3.56c.75,0,1.42-.48,1.66-1.2l.72-2.16c.06-.18,.09-.37,.09-.55v-3.84c0-.96-.79-1.75-1.75-1.75Zm-10.75,1.75v3.92l-.73,2.16c-.03,.1-.13,.17-.24,.17h-3.56c-.11,0-.2-.07-.24-.17l-.73-2.24v-3.84c0-.14,.11-.25,.25-.25h5c.14,0,.25,.11,.25,.25Zm0-6.83c0,.33-.13,.65-.37,.88l-.83,.83c-.52,.52-.81,1.21-.81,1.94v1.42h-1.5v-2.42c0-.33,.13-.65,.37-.88l.83-.83c.52-.52,.81-1.21,.81-1.94v-1.42h1.5v2.42Zm6.69,1.71l-.83-.83c-.24-.24-.37-.55-.37-.88V3.75h1.5v1.42c0,.73,.29,1.43,.81,1.94l.83,.83c.24,.24,.37,.55,.37,.88v2.42h-1.5v-1.42c0-.73-.29-1.43-.81-1.94Zm4.29,9.03l-.72,2.16c-.03,.1-.13,.17-.24,.17h-3.56c-.11,0-.2-.07-.24-.17l-.73-2.24v-3.84c0-.14,.11-.25,.25-.25h5c.14,0,.25,.11,.25,.25v3.92Z"/></g></svg>