<?xml version="1.0" encoding="UTF-8"?><svg fill="currentColor" xmlns="http://www.w3.org/2000/svg" viewBox="0 0 24 24"><g id="u"><path d="M19.87,10.83l-1.34-.45-1.58-3.17c-.3-.6-.9-.97-1.57-.97H6.78c-.8,0-1.5,.54-1.7,1.33l-.67,2.67h-.41c-.96,0-1.75,.79-1.75,1.75v3c0,.96,.79,1.75,1.75,1.75h1.37c.33,1.15,1.38,2,2.63,2s2.3-.85,2.63-2h2.73c.33,1.15,1.38,2,2.63,2s2.3-.85,2.63-2h1.37c.96,0,1.75-.79,1.75-1.75v-1.56c0-1.19-.76-2.23-1.88-2.61Zm-4.26-2.94l1.18,2.36h-5.04v-2.5h3.63c.1,0,.18,.05,.22,.14Zm-9.07,.05c.03-.11,.13-.19,.24-.19h3.47v2.5H5.96l.58-2.31Zm1.46,9.31c-.69,0-1.25-.56-1.25-1.25s.56-1.25,1.25-1.25,1.25,.56,1.25,1.25-.56,1.25-1.25,1.25Zm8,0c-.69,0-1.25-.56-1.25-1.25s.56-1.25,1.25-1.25,1.25,.56,1.25,1.25-.56,1.25-1.25,1.25Zm4.25-2.25c0,.14-.11,.25-.25,.25h-1.37c-.33-1.15-1.38-2-2.63-2s-2.3,.85-2.63,2h-2.73c-.33-1.15-1.38-2-2.63-2s-2.3,.85-2.63,2h-1.37c-.14,0-.25-.11-.25-.25v-3c0-.14,.11-.25,.25-.25h13.88l1.52,.51c.51,.17,.85,.65,.85,1.19v1.56Z"/></g></svg>