<?xml version="1.0" encoding="UTF-8"?><svg fill="currentColor" xmlns="http://www.w3.org/2000/svg" viewBox="0 0 24 24"><g id="i"><path d="M15.96,8.91l.5-.76c.22,.35,.59,.59,1.04,.59h2c.69,0,1.25-.56,1.25-1.25V3.5c0-.69-.56-1.25-1.25-1.25h-2c-.69,0-1.25,.56-1.25,1.25v.75h-1.55c-.12-.57-.6-1-1.2-1h-3c-.6,0-1.08,.43-1.2,1h-1.55v-.75c0-.69-.56-1.25-1.25-1.25h-2c-.69,0-1.25,.56-1.25,1.25V7.5c0,.69,.56,1.25,1.25,1.25h2c.44,0,.81-.24,1.04-.59l.5,.76c.14,.21,.21,.44,.21,.69v8.64h-.5v-1.75c0-.69-.56-1.25-1.25-1.25h-2c-.69,0-1.25,.56-1.25,1.25v4c0,.69,.56,1.25,1.25,1.25h2c.69,0,1.25-.56,1.25-1.25v-.75h8.5v.75c0,.69,.56,1.25,1.25,1.25h2c.69,0,1.25-.56,1.25-1.25v-4c0-.69-.56-1.25-1.25-1.25h-2c-.69,0-1.25,.56-1.25,1.25v1.75h-.5V9.61c0-.25,.07-.49,.21-.69ZM6.25,20.25h-1.5v-3.5h1.5v3.5Zm11.5-3.5h1.5v3.5h-1.5v-3.5Zm0-13h1.5v3.5h-1.5V3.75Zm-7,1h2.5v.94l-.56,.56h-1.38l-.56-.56v-.94Zm-4.5,2.5h-1.5V3.75h1.5v3.5Zm3.04,.83l-1.54-2.31v-.02h1.5v.04c0,.33,.13,.65,.37,.88l.71,.71c.23,.23,.55,.37,.88,.37h.04v10.5h-1.5V9.61c0-.55-.16-1.07-.46-1.53Zm3.46,10.17V7.75h.04c.33,0,.65-.13,.88-.37l.71-.71c.24-.24,.37-.55,.37-.88v-.04h1.5v.02l-1.54,2.31c-.3,.45-.46,.98-.46,1.53v8.64h-1.5Z"/></g></svg>