<?xml version="1.0" encoding="UTF-8"?><svg fill="currentColor" xmlns="http://www.w3.org/2000/svg" viewBox="0 0 24 24"><g id="n"><path d="M20.51,15.81l.24-.13c.36-.2,.5-.65,.3-1.02-.2-.36-.65-.5-1.02-.3l-.9,.49h0l-.9,.49c-.36,.2-.5,.65-.3,1.02,.14,.25,.39,.39,.66,.39,.12,0,.24-.03,.36-.09l.24-.13,.13,.24c.62,1.13,.2,2.55-.93,3.17-1.13,.62-2.55,.2-3.17-.93l-1.12-2.05,1.17-.64c.41-.22,.71-.59,.84-1.04,.13-.45,.08-.92-.14-1.33L11.04,4.86c-.22-.41-.59-.71-1.04-.84-.2-.06-.41-.08-.62-.06l-.7-1.29c-.17-.3-.52-.46-.85-.37L3.72,3.36c-.22,.06-.41,.22-.5,.43-.09,.21-.08,.45,.03,.66l1.19,2.19c-.4,.53-.48,1.27-.14,1.89l4.94,9.08c.22,.41,.59,.71,1.04,.84,.16,.05,.33,.07,.5,.07,.29,0,.57-.07,.83-.21l1.17-.64,1.12,2.05c.49,.9,1.3,1.55,2.28,1.84,.36,.11,.73,.16,1.09,.16,.63,0,1.26-.16,1.83-.47,.9-.49,1.55-1.3,1.84-2.28s.18-2.02-.31-2.92l-.13-.24ZM7.63,3.9l.34,.63-2.29,1.25-.66-1.21,2.61-.68Zm3.27,13.09c-.08,.04-.15,.03-.19,.02-.04-.01-.11-.04-.15-.12L5.62,7.81c-.07-.12-.02-.27,.1-.34l3.66-1.99s.08-.03,.12-.03c.03,0,.05,0,.07,.01,.04,.01,.11,.04,.15,.12l4.94,9.08c.04,.08,.03,.15,.02,.19-.01,.04-.04,.11-.12,.15h0l-3.66,1.99Z"/></g></svg>