<?xml version="1.0" encoding="UTF-8"?><svg fill="currentColor" xmlns="http://www.w3.org/2000/svg" viewBox="0 0 24 24"><g id="c"><g><path d="M12,5.25c-3.17,0-5.75,2.58-5.75,5.75s2.58,5.75,5.75,5.75,5.75-2.58,5.75-5.75-2.58-5.75-5.75-5.75Zm2.42,2.27l-1.09,1.09c-.4-.22-.85-.36-1.33-.36s-.93,.14-1.33,.36l-1.09-1.09c.69-.48,1.52-.77,2.42-.77s1.73,.29,2.42,.77Zm-3.67,3.48c0-.69,.56-1.25,1.25-1.25s1.25,.56,1.25,1.25-.56,1.25-1.25,1.25-1.25-.56-1.25-1.25Zm-3,0c0-.9,.29-1.73,.77-2.42l1.09,1.09c-.22,.4-.36,.85-.36,1.33s.14,.93,.36,1.33l-1.09,1.09c-.48-.69-.77-1.52-.77-2.42Zm1.83,3.48l1.09-1.09c.4,.22,.85,.36,1.33,.36s.93-.14,1.33-.36l1.09,1.09c-.69,.48-1.52,.77-2.42,.77s-1.73-.29-2.42-.77Zm5.91-1.06l-1.09-1.09c.22-.4,.36-.85,.36-1.33s-.14-.93-.36-1.33l1.09-1.09c.48,.69,.77,1.52,.77,2.42s-.29,1.73-.77,2.42Z"/><path d="M21.6,17.03c-.31-.49-.73-.67-1.01-.78,.03-.04,.06-.09,.09-.13,.2-.29,.47-.69,.64-1.22,.29-.94,.44-1.91,.44-2.9,0-5.38-4.37-9.75-9.75-9.75S2.25,6.62,2.25,12c0,.99,.15,1.97,.44,2.9,.17,.54,.44,.94,.64,1.23,.03,.04,.06,.09,.09,.13-.29,.1-.72,.28-1.04,.74-.46,.68-.57,1.83,.08,2.51,.14,.15,.34,.23,.54,.23H21c.2,0,.4-.08,.54-.23,.6-.62,.44-1.89,.06-2.49Zm-18.1,1.22c0-.13,.04-.28,.12-.4,.06-.09,.14-.12,.35-.2,.28-.1,.76-.27,.97-.81,.25-.64-.11-1.18-.38-1.56-.17-.25-.35-.51-.45-.83-.25-.79-.37-1.62-.37-2.46C3.75,7.45,7.45,3.75,12,3.75s8.25,3.7,8.25,8.25c0,.84-.13,1.66-.37,2.46-.1,.31-.27,.57-.44,.82-.27,.39-.64,.94-.36,1.58,.22,.5,.66,.67,.92,.77,.22,.08,.28,.12,.33,.2,.06,.1,.1,.27,.12,.42H3.5Z"/></g></g></svg>