<?xml version="1.0" encoding="UTF-8"?><svg fill="currentColor" xmlns="http://www.w3.org/2000/svg" viewBox="0 0 24 24"><g id="l"><path d="M21.41,9.13L15.05,2.76c-.68-.68-1.79-.68-2.47,0L7.62,7.71c-.68,.68-.68,1.79,0,2.47l.27,.27c.47,.47,1.16,.64,1.79,.42l.64-.21-4.93,4.93c-.92-.01-1.73,.32-2.37,.95-.61,.61-.95,1.43-.95,2.3s.34,1.68,.95,2.3,1.43,.95,2.3,.95,1.68-.34,2.3-.95c.64-.64,.97-1.48,.95-2.37l4.93-4.93-.21,.64c-.21,.63-.05,1.32,.42,1.79l.27,.27c.34,.34,.79,.51,1.24,.51s.9-.17,1.24-.51l3.54-3.54h0l1.41-1.41c.68-.68,.68-1.79,0-2.48ZM7.27,17.97c-.17,.17-.25,.4-.21,.64,.08,.55-.1,1.09-.5,1.49-.66,.66-1.81,.66-2.47,0-.33-.33-.51-.77-.51-1.24s.18-.91,.51-1.24c.39-.39,.94-.57,1.49-.5,.23,.03,.47-.05,.64-.21l5.48-5.48,1.06,1.06-5.48,5.48Zm8.13-2.48c-.1,.1-.26,.1-.35,0l-.27-.27c-.07-.07-.09-.16-.06-.25l.32-.95c.21-.63,.05-1.32-.42-1.79l-2.39-2.39h0l-.27-.27c-.33-.33-.78-.51-1.23-.51-.19,0-.37,.03-.56,.09l-.95,.32c-.09,.03-.19,0-.26-.06l-.27-.27c-.1-.1-.1-.26,0-.35l3.01-3.01,6.72,6.72-3.01,3.01Zm4.95-4.95l-.88,.88-6.72-6.72,.88-.88c.1-.1,.26-.1,.35,0l6.36,6.36c.06,.06,.07,.14,.07,.18s0,.11-.07,.18Z"/></g></svg>