<?xml version="1.0" encoding="UTF-8"?><svg fill="currentColor" xmlns="http://www.w3.org/2000/svg" viewBox="0 0 24 24"><g id="s"><path d="M15,2.25h-1c-.41,0-.75,.34-.75,.75v3.54l-1.25,.63-1.25-.63V3c0-.41-.34-.75-.75-.75h-1c-2.07,0-3.75,1.68-3.75,3.75v2c0,2.36,1.74,4.33,4,4.69v6.31c0,1.52,1.23,2.75,2.75,2.75s2.75-1.23,2.75-2.75v-6.31c2.26-.36,4-2.33,4-4.69v-2c0-2.07-1.68-3.75-3.75-3.75Zm2.25,5.75c0,1.79-1.46,3.25-3.25,3.25-.41,0-.75,.34-.75,.75v7c0,.69-.56,1.25-1.25,1.25s-1.25-.56-1.25-1.25v-7c0-.41-.34-.75-.75-.75-1.79,0-3.25-1.46-3.25-3.25v-2c0-1.24,1.01-2.25,2.25-2.25h.25v3.25c0,.28,.16,.54,.41,.67l2,1c.21,.11,.46,.11,.67,0l2-1c.25-.13,.42-.39,.42-.67V3.75h.25c1.24,0,2.25,1.01,2.25,2.25v2Z"/></g></svg>