<?xml version="1.0" encoding="UTF-8"?><svg fill="currentColor" xmlns="http://www.w3.org/2000/svg" viewBox="0 0 24 24"><g id="t"><g><path d="M12,2.25C6.62,2.25,2.25,6.62,2.25,12s4.37,9.75,9.75,9.75,9.75-4.37,9.75-9.75S17.38,2.25,12,2.25Zm0,18c-4.55,0-8.25-3.7-8.25-8.25S7.45,3.75,12,3.75s8.25,3.7,8.25,8.25-3.7,8.25-8.25,8.25Z"/><path d="M18.56,13.58c.12-.51,.19-1.04,.19-1.58,0-.75-.13-1.48-.36-2.16,0-.14-.06-.27-.14-.38-1.01-2.47-3.43-4.21-6.25-4.21-3.72,0-6.75,3.03-6.75,6.75,0,.55,.07,1.07,.2,1.58,0,.03,.01,.06,.02,.09,.75,2.92,3.39,5.08,6.53,5.08s5.78-2.16,6.53-5.08c0-.03,.02-.06,.02-.09Zm-6.56-6.83c1.64,0,3.08,.77,4.04,1.94-2.66-.57-5.42-.57-8.08,0,.96-1.17,2.41-1.94,4.04-1.94Zm-4.91,7.05c.06-.03,.12-.07,.18-.1,.25-.1,.88-.29,1.39-.03,.34,.17,.61,.54,.76,1.01,.18,.56,.15,1.21-.05,1.84-1.05-.61-1.86-1.57-2.28-2.72Zm3.67,3.29c.33-.96,.37-1.96,.09-2.85-.27-.87-.81-1.54-1.51-1.9-.98-.5-2.01-.25-2.56-.05,0-.1-.03-.19-.03-.28,0-.53,.1-1.04,.25-1.52,3.25-.95,6.75-.95,10,0,.15,.48,.25,.99,.25,1.52,0,.1-.02,.19-.03,.28-.55-.21-1.58-.45-2.56,.05-.7,.36-1.23,1.03-1.51,1.89-.28,.89-.24,1.9,.09,2.87-.4,.1-.81,.17-1.24,.17s-.84-.07-1.24-.16Zm3.87-.57c-.2-.64-.22-1.28-.04-1.85,.15-.47,.42-.83,.76-1,.51-.26,1.14-.06,1.39,.03,.06,.02,.12,.07,.18,.1-.42,1.15-1.24,2.11-2.28,2.72Z"/><path d="M12.02,11.25h-.01c-.41,0-.74,.34-.74,.75s.34,.75,.75,.75,.75-.34,.75-.75-.34-.75-.75-.75Z"/></g></g></svg>