<?xml version="1.0" encoding="UTF-8"?><svg fill="currentColor" xmlns="http://www.w3.org/2000/svg" viewBox="0 0 24 24"><g id="j"><path d="M15,2.25h-5c-1.52,0-2.75,1.23-2.75,2.75v14c0,1.52,1.23,2.75,2.75,2.75h5c1.52,0,2.75-1.23,2.75-2.75V5c0-1.52-1.23-2.75-2.75-2.75Zm1.25,8.35l-1.5,1v-3.2l1.5-1v3.2Zm-1.5,2.8l1.5-1v3.2l-1.5,1v-3.2Zm1.5-8.4v.6l-1.5,1V3.75h.25c.69,0,1.25,.56,1.25,1.25Zm-6,6.6l-1.5-1v-3.2l1.5,1v3.2Zm-1.5,.8l1.5,1v3.2l-1.5-1v-3.2Zm1.25-8.65h.25v2.85l-1.5-1v-.6c0-.69,.56-1.25,1.25-1.25Zm-1.25,15.25v-1.6l1.5,1v1.85h-.25c-.69,0-1.25-.56-1.25-1.25Zm3,1.25V3.75h1.5V20.25h-1.5Zm3.25,0h-.25v-1.85l1.5-1v1.6c0,.69-.56,1.25-1.25,1.25Z"/></g></svg>