<?xml version="1.0" encoding="UTF-8"?><svg fill="currentColor" xmlns="http://www.w3.org/2000/svg" viewBox="0 0 24 24"><g id="b"><path d="M20.69,5.39c-.29-1.78-1.83-3.14-3.69-3.14h-3c-1.86,0-3.4,1.36-3.69,3.14-.62,.27-1.06,.89-1.06,1.61v3c0,.96,.79,1.75,1.75,1.75h.25v1.52c-.34,.02-.68,.04-1.02,.1l-.73,.12c-.1,.02-.21-.03-.26-.12l-.17-.31c-.29-.5-.82-.81-1.4-.81h-1.87c-.58,0-1.12,.31-1.4,.81l-.93,1.63c-.29,.5-.29,1.12,0,1.62l.94,1.63c.29,.5,.82,.81,1.4,.81h1.87c.58,0,1.12-.31,1.4-.81l.17-.29c.05-.09,.15-.14,.26-.12l.78,.12c.32,.05,.65,.06,.98,.08v2.28c0,.41,.34,.75,.75,.75h7c.41,0,.75-.34,.75-.75v-2.43c.59-.28,1-.88,1-1.57v-1c0-.7-.41-1.29-1-1.57v-1.68h.25c.96,0,1.75-.79,1.75-1.75v-3c0-.72-.44-1.34-1.06-1.61Zm-6.69-1.64h3c.98,0,1.81,.63,2.12,1.5h-7.24c.31-.87,1.14-1.5,2.12-1.5Zm-4.28,12.29c-.71-.11-1.43,.24-1.79,.86l-.17,.29s-.06,.06-.1,.06h-1.87s-.08-.02-.1-.06l-.94-1.63s-.02-.08,0-.12l.94-1.63s.06-.06,.1-.06h1.87s.08,.02,.1,.06l.17,.3c.36,.63,1.08,.97,1.8,.86l.73-.12c.39-.06,.79-.1,1.18-.1h7.34c.14,0,.25,.11,.25,.25v1c0,.14-.11,.25-.25,.25h-7.38c-.37,0-.75-.03-1.11-.09l-.78-.12Zm8.53,3.21h-5.5v-1.5h5.5v1.5Zm0-6h-5.5v-1.5h5.5v1.5Zm2-3.25c0,.14-.11,.25-.25,.25H11c-.14,0-.25-.11-.25-.25v-3c0-.14,.11-.25,.25-.25h9c.14,0,.25,.11,.25,.25v3Z"/></g></svg>