<?xml version="1.0" encoding="UTF-8"?><svg fill="currentColor" xmlns="http://www.w3.org/2000/svg" viewBox="0 0 24 24"><g id="d"><g><path d="M20.66,9.61l-.63-1.9c-.21-.62-.69-1.09-1.28-1.31v-2.4c0-.41-.34-.75-.75-.75s-.75,.34-.75,.75v2.4c-.59,.22-1.07,.69-1.28,1.31l-.63,1.9c-.06,.18-.09,.37-.09,.55v5.84c0,.96,.79,1.75,1.75,1.75h.25v1.25c0,.69-.56,1.25-1.25,1.25h-3c-.69,0-1.25-.56-1.25-1.25v-.37c1.15-.33,2-1.38,2-2.63V5c0-1.52-1.23-2.75-2.75-2.75H5c-1.52,0-2.75,1.23-2.75,2.75v11c0,1.52,1.23,2.75,2.75,2.75h5.25v.25c0,1.52,1.23,2.75,2.75,2.75h3c1.52,0,2.75-1.23,2.75-2.75v-1.25h.25c.96,0,1.75-.79,1.75-1.75v-5.84c0-.19-.03-.37-.09-.55ZM5,3.75h6c.69,0,1.25,.56,1.25,1.25v2.25H3.75v-2.25c0-.69,.56-1.25,1.25-1.25Zm-1.25,12.25v-7.25H12.25v7.25c0,.69-.56,1.25-1.25,1.25H5c-.69,0-1.25-.56-1.25-1.25Zm15.5,0c0,.14-.11,.25-.25,.25h-2c-.14,0-.25-.11-.25-.25v-5.92l.64-1.9c.09-.26,.33-.44,.61-.44s.52,.17,.6,.44l.65,1.98v5.84Z"/><path d="M8,10.25c-1.52,0-2.75,1.23-2.75,2.75s1.23,2.75,2.75,2.75,2.75-1.23,2.75-2.75-1.23-2.75-2.75-2.75Zm0,4c-.69,0-1.25-.56-1.25-1.25s.56-1.25,1.25-1.25,1.25,.56,1.25,1.25-.56,1.25-1.25,1.25Z"/></g></g></svg>