<?xml version="1.0" encoding="UTF-8"?><svg fill="currentColor" xmlns="http://www.w3.org/2000/svg" viewBox="0 0 24 24"><g id="k"><g><path d="M20.3,17.12c.95-1.54,1.45-3.29,1.45-5.12s-.5-3.6-1.46-5.14l.8-.77c.88-.88,.88-2.3,0-3.18s-2.33-.85-3.18,0l-.79,.79c-3.07-1.9-7.17-1.9-10.24,0l-.79-.79c-.85-.85-2.33-.85-3.18,0-.88,.88-.88,2.3,0,3.18l.79,.79c-.95,1.54-1.45,3.29-1.45,5.12s.5,3.58,1.45,5.12l-.79,.79c-.88,.88-.88,2.3,0,3.18s2.33,.85,3.18,0l.79-.79c3.07,1.9,7.16,1.9,10.24,0l.79,.79c.42,.42,.99,.66,1.59,.66s1.17-.23,1.59-.66c.88-.88,.88-2.3,0-3.18l-.79-.79Zm-1.59-9.92c1.01,1.41,1.54,3.07,1.54,4.8s-.53,3.38-1.52,4.78c-.21,.3-.18,.71,.08,.96l1.22,1.22c.14,.14,.22,.33,.22,.53s-.08,.39-.22,.53c-.28,.28-.78,.28-1.06,0l-1.22-1.22c-.15-.15-.34-.22-.53-.22-.15,0-.3,.05-.44,.14-2.8,2-6.76,2-9.56,0-.3-.21-.71-.18-.97,.08l-1.23,1.22c-.28,.28-.78,.28-1.06,0-.14-.14-.22-.33-.22-.53s.08-.39,.22-.53l1.22-1.22c.26-.26,.29-.67,.08-.96-1-1.4-1.52-3.05-1.52-4.78s.53-3.38,1.52-4.78c.21-.3,.18-.71-.08-.96l-1.22-1.22c-.14-.14-.22-.33-.22-.53s.08-.39,.22-.53c.28-.28,.78-.28,1.06,0h0l1.22,1.22c.26,.26,.67,.29,.97,.08,2.8-2,6.76-2,9.56,0,.3,.21,.71,.18,.97-.08l1.22-1.23c.28-.28,.78-.28,1.06,0,.14,.14,.22,.33,.22,.53s-.08,.39-.21,.52l-1.24,1.2c-.27,.26-.31,.67-.09,.98Z"/><path d="M12,6.25c-3.17,0-5.75,2.58-5.75,5.75s2.58,5.75,5.75,5.75,5.75-2.58,5.75-5.75-2.58-5.75-5.75-5.75Zm0,10c-2.34,0-4.25-1.91-4.25-4.25s1.91-4.25,4.25-4.25,4.25,1.91,4.25,4.25-1.91,4.25-4.25,4.25Z"/><path d="M12,9.25c-1.52,0-2.75,1.23-2.75,2.75s1.23,2.75,2.75,2.75,2.75-1.23,2.75-2.75-1.23-2.75-2.75-2.75Zm0,4c-.69,0-1.25-.56-1.25-1.25s.56-1.25,1.25-1.25,1.25,.56,1.25,1.25-.56,1.25-1.25,1.25Z"/></g></g></svg>