<?xml version="1.0" encoding="UTF-8"?><svg fill="currentColor" xmlns="http://www.w3.org/2000/svg" viewBox="0 0 24 24"><g id="f"><g><path d="M19,13.25h-.25v-2.25c0-2.18-1.21-4.07-3-5.05v-.95c0-1.52-1.23-2.75-2.75-2.75h-2c-1.52,0-2.75,1.23-2.75,2.75v.95c-1.79,.98-3,2.87-3,5.05v2.25h-.25c-1.52,0-2.75,1.23-2.75,2.75v1.28c0,.75,.48,1.42,1.2,1.66l1.86,.62c.26,1.25,1.37,2.19,2.69,2.19h8c1.32,0,2.43-.94,2.69-2.19l1.86-.62c.72-.24,1.2-.91,1.2-1.66v-1.28c0-1.52-1.23-2.75-2.75-2.75ZM9.75,5.25v-.25c0-.69,.56-1.25,1.25-1.25h2c.69,0,1.25,.56,1.25,1.25v.25h-4.5ZM3.75,17.28v-1.28c0-.69,.56-1.25,1.25-1.25h.25v3.21l-1.33-.44c-.1-.03-.17-.13-.17-.24Zm12.25,2.97H8c-.69,0-1.25-.56-1.25-1.25V11c0-2.34,1.91-4.25,4.25-4.25h2c2.34,0,4.25,1.91,4.25,4.25v8c0,.69-.56,1.25-1.25,1.25Zm4.25-2.97c0,.11-.07,.2-.17,.24h0l-1.33,.44v-3.21h.25c.69,0,1.25,.56,1.25,1.25v1.28Z"/><path d="M13,13.25h-2c-1.52,0-2.75,1.23-2.75,2.75s1.23,2.75,2.75,2.75h2c1.52,0,2.75-1.23,2.75-2.75s-1.23-2.75-2.75-2.75Zm0,4h-2c-.69,0-1.25-.56-1.25-1.25s.56-1.25,1.25-1.25h2c.69,0,1.25,.56,1.25,1.25s-.56,1.25-1.25,1.25Z"/></g></g></svg>