<?xml version="1.0" encoding="UTF-8"?><svg fill="currentColor" xmlns="http://www.w3.org/2000/svg" viewBox="0 0 24 24"><g id="u"><path d="M18,3.25h-.43c-.28-.59-.88-1-1.57-1H8c-.7,0-1.29,.41-1.57,1h-.43c-2.07,0-3.75,1.68-3.75,3.75v7c0,2.07,1.68,3.75,3.75,3.75h1.79l-1.46,2.91c-.19,.37-.04,.82,.34,1.01,.11,.05,.22,.08,.33,.08,.27,0,.54-.15,.67-.41l1.79-3.59h5.07l1.79,3.59c.13,.26,.4,.41,.67,.41,.11,0,.23-.03,.33-.08,.37-.19,.52-.64,.34-1.01l-1.46-2.91h1.79c2.07,0,3.75-1.68,3.75-3.75V7c0-2.07-1.68-3.75-3.75-3.75Zm-10,.5h8c.14,0,.25,.11,.25,.25v1c0,.14-.11,.25-.25,.25H8c-.14,0-.25-.11-.25-.25v-1c0-.14,.11-.25,.25-.25Zm3.25,12.5h-3.5v-1.25c0-.14,.11-.25,.25-.25h3c.14,0,.25,.11,.25,.25v1.25Zm9-2.25c0,1.24-1.01,2.25-2.25,2.25h-5.25v-1.25c0-.96-.79-1.75-1.75-1.75h-3c-.96,0-1.75,.79-1.75,1.75v1.25h-.25c-1.24,0-2.25-1.01-2.25-2.25V7c0-1.24,1.01-2.25,2.25-2.25h.25v.25c0,.96,.79,1.75,1.75,1.75h8c.96,0,1.75-.79,1.75-1.75v-.25h.25c1.24,0,2.25,1.01,2.25,2.25v7Z"/></g></svg>