<?xml version="1.0" encoding="UTF-8"?><svg fill="currentColor" xmlns="http://www.w3.org/2000/svg" viewBox="0 0 24 24"><g id="t"><path d="M21.21,6.16h0c-.67-.63-2.1-1.72-4.15-1.89-2.33-.19-4.08,.92-4.92,1.59-.09,.08-.21,.04-.29-.02-.77-.64-2.05-1.43-3.79-1.57-2.65-.22-4.56,1.25-5.26,1.89-.35,.32-.55,.79-.55,1.27v9.54c0,.63,.32,1.19,.87,1.5,.55,.31,1.2,.31,1.75,0,.69-.4,1.43-.64,2.2-.7,1.81-.15,3.19,.73,3.85,1.27,.31,.25,.69,.37,1.07,.37s.8-.14,1.13-.41c.61-.5,1.61-1.12,2.96-1.23,1.06-.09,2.09,.16,3.06,.72,.56,.32,1.22,.32,1.77,0,.54-.31,.86-.87,.86-1.49V7.42c0-.48-.19-.93-.54-1.26ZM7.47,16.25c-.17,0-.35,0-.53,.02-1,.08-1.95,.38-2.83,.9-.11,.06-.2,.03-.24,0-.05-.03-.11-.09-.11-.2V7.43s.01-.12,.07-.17c.69-.63,2.14-1.66,4.12-1.5,1.35,.11,2.35,.73,2.96,1.23,.11,.09,.23,.14,.35,.2v10.22c-.86-.57-2.16-1.18-3.78-1.18Zm12.78,.75c0,.09-.04,.15-.11,.19-.04,.02-.14,.07-.27,0-1.23-.71-2.59-1.03-3.93-.92-1.34,.11-2.41,.61-3.19,1.13V7.22c.12-.06,.23-.1,.34-.18,.66-.54,2.03-1.41,3.85-1.27,1.59,.13,2.71,.98,3.24,1.48,.05,.05,.07,.11,.07,.17v9.58Z"/></g></svg>