<?xml version="1.0" encoding="UTF-8"?><svg fill="currentColor" xmlns="http://www.w3.org/2000/svg" viewBox="0 0 24 24"><g id="b"><path d="M16.34,2.46c-.06-.03-.13-.05-.19-.06-.37-.09-.75-.15-1.14-.15h-6c-2.62,0-4.75,2.13-4.75,4.75v10c0,2.62,2.13,4.75,4.75,4.75h6c2.62,0,4.75-2.13,4.75-4.75V7c0-2.15-1.45-3.95-3.41-4.54Zm-1.09,1.31V7.79l-.92-.46c-.21-.11-.46-.11-.67,0l-.92,.46V3.75h2.25c.09,0,.17,.02,.25,.03ZM5.75,17V7c0-1.15,.6-2.15,1.5-2.73v15.46c-.9-.58-1.5-1.58-1.5-2.73Zm12.5,0c0,1.79-1.46,3.25-3.25,3.25h-6c-.1,0-.2-.02-.29-.03,.02-.07,.04-.14,.04-.22V4c0-.08-.02-.15-.04-.22,.1,0,.19-.03,.29-.03h2.25v5.25c0,.26,.13,.5,.36,.64,.22,.14,.5,.15,.73,.03l1.67-.83,1.67,.83c.11,.05,.22,.08,.33,.08,.14,0,.27-.04,.39-.11,.22-.14,.36-.38,.36-.64V4.27c.9,.58,1.5,1.58,1.5,2.73v10Z"/></g></svg>