<?xml version="1.0" encoding="UTF-8"?><svg fill="currentColor" xmlns="http://www.w3.org/2000/svg" viewBox="0 0 24 24"><g id="i"><g><path d="M18,2.25H6c-2.07,0-3.75,1.68-3.75,3.75v6c0,2.07,1.68,3.75,3.75,3.75h5.7c.15,.28,.33,.55,.55,.78v4.47c0,.26,.13,.5,.36,.64,.22,.14,.5,.15,.73,.03l1.67-.83,1.67,.83c.11,.05,.22,.08,.33,.08,.14,0,.27-.04,.39-.11,.22-.14,.36-.38,.36-.64v-4.47c.22-.24,.41-.52,.56-.81,1.92-.16,3.44-1.76,3.44-3.72V6c0-2.07-1.68-3.75-3.75-3.75Zm-3,14c-1.24,0-2.25-1.01-2.25-2.25s1.01-2.25,2.25-2.25,2.25,1.01,2.25,2.25-1.01,2.25-2.25,2.25Zm.33,3.08c-.21-.11-.46-.11-.67,0l-.92,.46v-2.27c.39,.14,.81,.23,1.25,.23s.86-.09,1.25-.23v2.27l-.92-.46Zm4.92-7.33c0,.98-.63,1.81-1.51,2.12,0-.04,.01-.08,.01-.12,0-2.07-1.68-3.75-3.75-3.75s-3.75,1.68-3.75,3.75c0,.09,.02,.17,.03,.25H6c-1.24,0-2.25-1.01-2.25-2.25V6c0-1.24,1.01-2.25,2.25-2.25h12c1.24,0,2.25,1.01,2.25,2.25v6Z"/><path d="M15,5.25h-6c-.41,0-.75,.34-.75,.75s.34,.75,.75,.75h6c.41,0,.75-.34,.75-.75s-.34-.75-.75-.75Z"/><path d="M11,8.25H6c-.41,0-.75,.34-.75,.75s.34,.75,.75,.75h5c.41,0,.75-.34,.75-.75s-.34-.75-.75-.75Z"/><path d="M9,11.25h-3c-.41,0-.75,.34-.75,.75s.34,.75,.75,.75h3c.41,0,.75-.34,.75-.75s-.34-.75-.75-.75Z"/></g></g></svg>