<?xml version="1.0" encoding="UTF-8"?><svg fill="currentColor" xmlns="http://www.w3.org/2000/svg" viewBox="0 0 24 24"><g id="q"><path d="M18.7,15.64l-2.71-2.71c-.8-.8-1.25-1.87-1.25-3v-3.35c.59-.28,1-.88,1-1.57v-1c0-.96-.79-1.75-1.75-1.75h-4c-.96,0-1.75,.79-1.75,1.75v1c0,.7,.41,1.29,1,1.57v3.35c0,1.14-.44,2.2-1.25,3.01l-2.71,2.71c-.68,.68-1.05,1.57-1.05,2.53,0,1.97,1.61,3.58,3.58,3.58h8.34c1.97,0,3.58-1.61,3.58-3.58,0-.96-.37-1.85-1.05-2.53ZM10.75,6.75h2.5v3.18c0,.45,.07,.89,.17,1.32h-2.84c.1-.43,.17-.87,.17-1.32v-3.18Zm-1-2.75c0-.14,.11-.25,.25-.25h4c.14,0,.25,.11,.25,.25v1c0,.14-.11,.25-.25,.25h-4c-.14,0-.25-.11-.25-.25v-1Zm6.42,16.25H7.83c-1.15,0-2.08-.93-2.08-2.08,0-.56,.22-1.08,.61-1.47l2.71-2.71c.37-.37,.67-.8,.92-1.25h4.03c.25,.45,.55,.87,.92,1.25l2.71,2.71c.39,.39,.61,.91,.61,1.47,0,1.15-.93,2.08-2.08,2.08Z"/></g></svg>