<?xml version="1.0" encoding="UTF-8"?><svg fill="currentColor" xmlns="http://www.w3.org/2000/svg" viewBox="0 0 24 24"><g id="j"><g><path d="M8.18,12.89s.01,.02,.02,.03c0,.01,.01,.03,.02,.04,.62,1.04,1.54,1.83,2.63,2.3h0c.09,.07,.2,.1,.3,.11,.2,.07,.39,.16,.59,.21,.47,.12,.94,.17,1.4,.17,1.03,0,2.04-.28,2.95-.82,1.32-.79,2.25-2.05,2.62-3.54,.05-.22,.07-.44,.1-.66,.02-.07,.03-.14,.03-.22,.11-1.21-.14-2.42-.78-3.48-.64-1.06-1.58-1.85-2.7-2.32-.07-.04-.14-.06-.22-.08-.21-.08-.4-.17-.62-.22-1.49-.37-3.04-.14-4.35,.65s-2.25,2.05-2.62,3.54c-.37,1.46-.14,2.98,.61,4.28Zm1.63-.28l.85-1c.04-.05,.09-.05,.13-.05,.04,0,.08,.02,.12,.07l.61,1.02s.03,.11,0,.16l-.53,.83c-.46-.27-.85-.62-1.18-1.04Zm6.98-4.8c.39,.64,.57,1.37,.59,2.1l-.99,.22c-.23,.05-.41-.04-.49-.1-.08-.06-.22-.2-.24-.44-.05-.66-.41-1.26-.97-1.61-.2-.13-.26-.32-.27-.42-.02-.1-.02-.3,.14-.48l.66-.77c.64,.36,1.19,.86,1.57,1.51Zm-7.77,1.16c.27-1.1,.96-2.03,1.94-2.61,.67-.4,1.42-.61,2.18-.61,.18,0,.37,.01,.55,.04l-.27,.31c-.4,.46-.57,1.07-.48,1.68s.44,1.14,.95,1.47c.16,.1,.26,.27,.28,.46,.05,.61,.35,1.17,.85,1.53,.37,.27,.8,.41,1.25,.41,.15,0,.31-.02,.46-.05l.38-.08c-.34,.89-.94,1.64-1.77,2.13-.88,.53-1.89,.7-2.89,.53l.35-.55c.34-.53,.35-1.2,.02-1.74l-.61-1.02c-.27-.46-.75-.75-1.28-.8-.53-.05-1.05,.17-1.4,.57l-.45,.53c-.2-.71-.24-1.46-.05-2.2Z"/><path d="M13.2,18.52c2.31,0,4.62-.9,6.34-2.69,.29-.3,.28-.77-.02-1.06-.3-.29-.77-.28-1.06,.02-2.79,2.9-7.42,2.99-10.33,.2-2.9-2.79-2.99-7.43-.2-10.33,.29-.3,.28-.77-.02-1.06-.3-.29-.77-.28-1.06,.02-3.37,3.5-3.26,9.08,.24,12.45,1.24,1.19,2.73,1.94,4.3,2.27v1.92h-1.25c-.41,0-.75,.34-.75,.75s.34,.75,.75,.75h4c.41,0,.75-.34,.75-.75s-.34-.75-.75-.75h-1.25v-1.74c.1,0,.2,.01,.3,.01Z"/></g></g></svg>