<?xml version="1.0" encoding="UTF-8"?><svg fill="currentColor" xmlns="http://www.w3.org/2000/svg" viewBox="0 0 24 24"><g id="r"><path d="M20.13,8.34l-7.32-3.84c-.51-.27-1.12-.27-1.63,0l-7.32,3.84c-.61,.32-.96,.94-.94,1.62,.03,.68,.44,1.27,1.07,1.54l1.25,.52v3.89c0,.98,.52,1.89,1.37,2.38,1.15,.66,3.02,1.45,5.38,1.45,1.08,0,3.22-.19,5.41-1.46,.82-.48,1.34-1.38,1.34-2.36v-3.89l1.25-.52c.63-.27,1.04-.85,1.07-1.54,.03-.68-.33-1.31-.94-1.62Zm-2.88,7.58c0,.45-.23,.85-.59,1.07-1.88,1.1-3.73,1.26-4.66,1.26-2.04,0-3.64-.68-4.63-1.25-.38-.22-.62-.63-.62-1.08v-3.26l4.57,1.92c.21,.09,.45,.13,.68,.13s.46-.04,.68-.14l4.57-1.92v3.27Zm2.17-5.8l-7.32,3.07c-.06,.03-.13,.03-.19,0l-7.32-3.07c-.13-.05-.15-.16-.15-.22,0-.06,.01-.17,.13-.23l7.32-3.84s.08-.03,.12-.03,.08,0,.12,.03l7.32,3.84c.12,.06,.14,.17,.13,.23,0,.06-.03,.17-.15,.22Z"/></g></svg>