<?xml version="1.0" encoding="UTF-8"?><svg fill="currentColor" xmlns="http://www.w3.org/2000/svg" viewBox="0 0 24 24"><g id="h"><g><path d="M12,7.75c1.52,0,2.75-1.23,2.75-2.75s-1.23-2.75-2.75-2.75-2.75,1.23-2.75,2.75,1.23,2.75,2.75,2.75Zm0-4c.69,0,1.25,.56,1.25,1.25s-.56,1.25-1.25,1.25-1.25-.56-1.25-1.25,.56-1.25,1.25-1.25Z"/><path d="M20.11,7.27h0c-.74-.04-1.49,0-2.22,.1-2.61,.38-4.58,1.6-5.89,2.71-1.31-1.11-3.28-2.33-5.89-2.71-.73-.11-1.48-.14-2.22-.1-.92,.05-1.64,.82-1.64,1.75v7.91c0,.48,.19,.92,.53,1.25,.35,.33,.83,.52,1.32,.49,.59-.02,1.2,0,1.79,.09,1.59,.23,3.1,.85,4.48,1.85,.49,.35,1.06,.53,1.63,.53s1.14-.18,1.63-.53c1.38-1,2.88-1.62,4.47-1.85,.59-.08,1.2-.11,1.8-.09,.49,.02,.97-.16,1.32-.49,.34-.33,.53-.77,.53-1.25v-7.92c0-.93-.72-1.69-1.64-1.75ZM6.11,17.28c-.53-.08-1.07-.11-1.6-.11-.16,0-.31,0-.47,0-.14,0-.18-.05-.21-.08-.05-.05-.07-.1-.07-.17v-7.91c0-.13,.1-.24,.22-.25,.64-.04,1.29,0,1.92,.08,2.42,.35,4.22,1.55,5.36,2.57v7.99h0c-1.57-1.14-3.3-1.85-5.14-2.12Zm14.14-.35c0,.07-.02,.12-.07,.17-.03,.03-.09,.08-.22,.08-.69-.03-1.39,0-2.07,.1-1.84,.27-3.57,.98-5.14,2.12h0v-7.99c1.14-1.02,2.94-2.22,5.36-2.57,.63-.09,1.28-.12,1.92-.08,.12,0,.22,.12,.22,.25v7.92Z"/></g></g></svg>