<?xml version="1.0" encoding="UTF-8"?><svg fill="currentColor" xmlns="http://www.w3.org/2000/svg" viewBox="0 0 24 24"><g id="n"><g><path d="M20.99,18.24l-1.27-4.45c-.02-.07-.05-.13-.09-.18,.07-.19,.12-.39,.12-.61V7c0-2.07-1.68-3.75-3.75-3.75H8c-2.07,0-3.75,1.68-3.75,3.75v6c0,.22,.04,.42,.12,.61-.04,.06-.07,.12-.09,.18l-1.27,4.45c-.24,.84-.08,1.72,.45,2.41s1.32,1.09,2.2,1.09h12.7c.87,0,1.67-.4,2.2-1.09s.69-1.57,.45-2.41ZM5.75,7c0-1.24,1.01-2.25,2.25-2.25h8c1.24,0,2.25,1.01,2.25,2.25v6c0,.14-.11,.25-.25,.25H6c-.14,0-.25-.11-.25-.25V7Zm13.6,12.75c-.24,.32-.6,.5-1,.5H5.65c-.4,0-.76-.18-1-.5-.24-.32-.31-.72-.2-1.1l1.12-3.91h12.87l1.12,3.91c.11,.38,.03,.78-.2,1.1Z"/><path d="M15,17.25h-6c-.41,0-.75,.34-.75,.75s.34,.75,.75,.75h6c.41,0,.75-.34,.75-.75s-.34-.75-.75-.75Z"/></g></g></svg>