<?xml version="1.0" encoding="UTF-8"?><svg fill="currentColor" xmlns="http://www.w3.org/2000/svg" viewBox="0 0 24 24"><g id="k"><g><path d="M15,2.25h-5c-2.62,0-4.75,2.13-4.75,4.75v.25h-.25c-.41,0-.75,.34-.75,.75s.34,.75,.75,.75h.25v2.5h-.25c-.41,0-.75,.34-.75,.75s.34,.75,.75,.75h.25v2.5h-.25c-.41,0-.75,.34-.75,.75s.34,.75,.75,.75h.25v.25c0,2.62,2.13,4.75,4.75,4.75h5c2.62,0,4.75-2.13,4.75-4.75V7c0-2.62-2.13-4.75-4.75-4.75ZM6.75,17v-.25h.25c.41,0,.75-.34,.75-.75s-.34-.75-.75-.75h-.25v-2.5h.25c.41,0,.75-.34,.75-.75s-.34-.75-.75-.75h-.25v-2.5h.25c.41,0,.75-.34,.75-.75s-.34-.75-.75-.75h-.25v-.25c0-1.53,1.07-2.81,2.5-3.15V20.15c-1.43-.34-2.5-1.62-2.5-3.15Zm11.5,0c0,1.79-1.46,3.25-3.25,3.25h-4.25V3.75h4.25c1.79,0,3.25,1.46,3.25,3.25v10Z"/><path d="M16,16.25h-3c-.41,0-.75,.34-.75,.75s.34,.75,.75,.75h3c.41,0,.75-.34,.75-.75s-.34-.75-.75-.75Z"/></g></g></svg>