<?xml version="1.0" encoding="UTF-8"?><svg fill="currentColor" xmlns="http://www.w3.org/2000/svg" viewBox="0 0 24 24"><g id="d"><path d="M19,20.25h-.6l-1.78-2.67c-.03-.05-.08-.08-.12-.12,.79-1.32,1.25-2.85,1.25-4.49v-4.97c0-3.17-2.58-5.75-5.75-5.75s-5.75,2.58-5.75,5.75v12.25h-1.25c-.41,0-.75,.34-.75,.75s.34,.75,.75,.75h14c.41,0,.75-.34,.75-.75s-.34-.75-.75-.75Zm-2.78-12c-.13,2.23-1.97,4-4.22,4s-4.09-1.77-4.22-4c.12-.85,.85-1.5,1.72-1.5,.96,0,1.75,.79,1.75,1.75,0,.41,.34,.75,.75,.75s.75-.34,.75-.75c0-.96,.79-1.75,1.75-1.75,.88,0,1.6,.65,1.72,1.5Zm-4.9,5.46c.07,.91-.02,2.41-.96,3.89-.78,1.22-1.81,1.92-2.62,2.3V11.86c.91,1,2.16,1.68,3.58,1.85Zm.31,4.7c1.13-1.79,1.26-3.58,1.2-4.72,1.35-.2,2.55-.86,3.42-1.82v1.11c0,3.63-2.68,6.64-6.17,7.18,.55-.46,1.08-1.02,1.55-1.75Zm.37-14.65c1.34,0,2.53,.64,3.31,1.61-.26-.07-.53-.11-.81-.11-1,0-1.9,.46-2.5,1.18-.6-.72-1.5-1.18-2.5-1.18-.28,0-.55,.05-.81,.11,.78-.98,1.96-1.61,3.31-1.61Zm3.58,14.98l1.01,1.52h-2.72c.64-.43,1.21-.95,1.71-1.52Z"/></g></svg>