<?xml version="1.0" encoding="UTF-8"?><svg fill="currentColor" xmlns="http://www.w3.org/2000/svg" viewBox="0 0 24 24"><g id="e"><g><path d="M15,20.25h-6c-1.24,0-2.25-1.01-2.25-2.25V6c0-.77,.39-1.45,.98-1.86l.32,.64c.3,.6,.9,.97,1.57,.97h2.76c.67,0,1.27-.37,1.57-.97l.32-.64c.59,.41,.98,1.09,.98,1.86v4c0,.41,.34,.75,.75,.75s.75-.34,.75-.75V6c0-1.62-1.03-2.98-2.47-3.51,0,0-.01-.01-.02-.01-.07-.03-.14-.04-.2-.05-.34-.1-.69-.17-1.06-.17h-4c-.37,0-.72,.07-1.06,.17-.07,.01-.14,.02-.2,.05,0,0-.01,.01-.02,.01-1.44,.53-2.47,1.89-2.47,3.51v12c0,2.07,1.68,3.75,3.75,3.75h6c.41,0,.75-.34,.75-.75s-.34-.75-.75-.75ZM12.38,4.25h-2.76c-.1,0-.18-.05-.22-.14l-.18-.36h3.57l-.18,.36c-.04,.08-.13,.14-.22,.14Z"/><path d="M19.11,12.26c-.41-.06-.82-.06-1.22,0-.79,.12-1.42,.44-1.89,.78-.47-.34-1.1-.66-1.89-.78-.4-.06-.81-.06-1.22,0-.37,.05-.64,.37-.64,.74v4c0,.22,.09,.42,.26,.57,.17,.14,.38,.21,.6,.17,.26-.04,.53-.04,.78,0,.73,.11,1.27,.5,1.59,.8,0,0,.01,0,.02,0,.06,.06,.13,.1,.21,.14h.01c.09,.04,.19,.06,.29,.06s.19-.02,.29-.06h.01c.08-.04,.15-.08,.21-.14,0,0,.01,0,.02,0,.32-.31,.86-.69,1.59-.8,.26-.04,.52-.04,.78,0,.22,.03,.43-.03,.6-.17,.16-.14,.26-.35,.26-.57v-4c0-.37-.27-.69-.64-.74Zm-5.36,3.96v-2.5s.09,0,.14,.02c.58,.08,1.03,.34,1.36,.6v2.25c-.33-.15-.72-.27-1.14-.34-.12-.02-.24-.03-.36-.04Zm4.5,0c-.12,0-.24,.02-.36,.04-.43,.06-.81,.18-1.14,.34v-2.25c.33-.26,.78-.52,1.36-.6,.05,0,.09-.01,.14-.02v2.5Z"/></g></g></svg>