<?xml version="1.0" encoding="UTF-8"?><svg fill="currentColor" xmlns="http://www.w3.org/2000/svg" viewBox="0 0 24 24"><g id="g"><path d="M20.75,5v-1c0-.96-.79-1.75-1.75-1.75H5c-.96,0-1.75,.79-1.75,1.75v1c0,.7,.41,1.29,1,1.57V15.25h-.25c-.41,0-.75,.34-.75,.75s.34,.75,.75,.75h7.25v1.68c-.59,.28-1,.88-1,1.57,0,.96,.79,1.75,1.75,1.75s1.75-.79,1.75-1.75c0-.7-.41-1.29-1-1.57v-1.68h7.25c.41,0,.75-.34,.75-.75s-.34-.75-.75-.75h-.25V6.57c.59-.28,1-.88,1-1.57Zm-9,15c0-.14,.11-.25,.25-.25s.25,.11,.25,.25c0,.28-.5,.28-.5,0ZM4.75,4c0-.14,.11-.25,.25-.25h14c.14,0,.25,.11,.25,.25v1c0,.14-.11,.25-.25,.25H5c-.14,0-.25-.11-.25-.25v-1Zm1,11.25V6.75h12.5V15.25H5.75Z"/></g></svg>