<?xml version="1.0" encoding="UTF-8"?><svg fill="currentColor" xmlns="http://www.w3.org/2000/svg" viewBox="0 0 24 24"><g id="o"><g><path d="M19,12.25h-1.42c-.21-.61-.61-1.14-1.17-1.48l-3.66-2.2v-1.83h4.25c.41,0,.75-.34,.75-.75V3c0-.41-.34-.75-.75-.75h-5c-.41,0-.75,.34-.75,.75v5.58l-3.66,2.2c-.56,.34-.96,.87-1.17,1.48h-1.42c-1.52,0-2.75,1.23-2.75,2.75v5c0,.96,.79,1.75,1.75,1.75H20c.96,0,1.75-.79,1.75-1.75v-5c0-1.52-1.23-2.75-2.75-2.75ZM12.75,3.75h3.5v1.5h-3.5v-1.5ZM3.75,20v-5c0-.69,.56-1.25,1.25-1.25h1.25v6.5h-2.25c-.14,0-.25-.11-.25-.25Zm4-6.87c0-.44,.23-.85,.61-1.07l3.64-2.19,3.64,2.19c.37,.22,.61,.64,.61,1.07v7.12h-1.5v-2.25c0-1.52-1.23-2.75-2.75-2.75s-2.75,1.23-2.75,2.75v2.25h-1.5v-7.12Zm5.5,7.12h-2.5v-2.25c0-.69,.56-1.25,1.25-1.25s1.25,.56,1.25,1.25v2.25Zm7-.25c0,.14-.11,.25-.25,.25h-2.25v-6.5h1.25c.69,0,1.25,.56,1.25,1.25v5Z"/><path d="M12.02,13.75c.41,0,.75-.34,.75-.75s-.34-.75-.75-.75h-.01c-.41,0-.74,.34-.74,.75s.34,.75,.75,.75Z"/></g></g></svg>