<?xml version="1.0" encoding="UTF-8"?><svg fill="currentColor" xmlns="http://www.w3.org/2000/svg" viewBox="0 0 24 24"><g id="p"><g><path d="M9,13.75c1.52,0,2.75-1.23,2.75-2.75s-1.23-2.75-2.75-2.75-2.75,1.23-2.75,2.75,1.23,2.75,2.75,2.75Zm0-4c.69,0,1.25,.56,1.25,1.25s-.56,1.25-1.25,1.25-1.25-.56-1.25-1.25,.56-1.25,1.25-1.25Z"/><path d="M21.75,10.5c0-1.24-1.01-2.25-2.25-2.25s-2.25,1.01-2.25,2.25c0,1.11,.81,2.03,1.87,2.21l-.58,3.49c-.1,.6-.62,1.04-1.23,1.04h-3.22l-.36-1.43h0c1.25-1.23,2.03-2.93,2.03-4.82,0-3.72-3.03-6.75-6.75-6.75S2.25,7.28,2.25,11c0,1.88,.78,3.59,2.03,4.81h0l-.69,2.76c-.13,.53-.02,1.07,.32,1.5s.84,.67,1.38,.67h7.44c.54,0,1.05-.25,1.38-.67,.3-.38,.41-.86,.34-1.33h2.87c1.35,0,2.49-.97,2.71-2.3l.68-4.05c.63-.4,1.06-1.1,1.06-1.9Zm-18,.5c0-2.9,2.35-5.25,5.25-5.25s5.25,2.35,5.25,5.25-2.35,5.25-5.25,5.25-5.25-2.35-5.25-5.25Zm9.17,8.15s-.09,.1-.2,.1H5.28c-.11,0-.17-.06-.2-.1-.03-.04-.07-.11-.05-.21l.53-2.13c1.01,.6,2.18,.95,3.43,.95s2.42-.35,3.43-.95l.53,2.13c.03,.1-.02,.18-.05,.21Zm5.83-8.65c0-.41,.34-.75,.75-.75s.75,.34,.75,.75-.34,.75-.75,.75-.75-.34-.75-.75Z"/></g></g></svg>