<?xml version="1.0" encoding="UTF-8"?><svg fill="currentColor" xmlns="http://www.w3.org/2000/svg" viewBox="0 0 24 24"><g id="s"><g><path d="M6.94,5.44c-.8-.8-1.95-1.03-3-.6-1.05,.43-1.7,1.41-1.7,2.54v11.62c0,1.52,1.23,2.75,2.75,2.75h11.62c1.13,0,2.11-.65,2.54-1.7,.43-1.05,.21-2.2-.6-3L6.94,5.44Zm10.83,14.04c-.2,.48-.63,.77-1.15,.77H5c-.69,0-1.25-.56-1.25-1.25V7.38c0-.52,.29-.96,.77-1.16,.16-.07,.33-.1,.49-.1,.32,0,.62,.13,.87,.37l11.62,11.62c.37,.37,.47,.88,.27,1.36Z"/><path d="M21.02,9.13L15.36,3.47c-.14-.14-.33-.22-.53-.22h-2.83c-.41,0-.75,.34-.75,.75v2.83c0,.2,.08,.39,.22,.53l5.66,5.66c.52,.52,1.21,.81,1.94,.81s1.42-.29,1.94-.81c1.07-1.07,1.07-2.82,0-3.89Zm-1.06,2.83c-.47,.47-1.29,.47-1.77,0l-5.44-5.44v-1.77h1.77l5.44,5.44c.49,.49,.49,1.28,0,1.77Z"/><path d="M7.48,10.63c-.38-.38-.93-.49-1.42-.28-.49,.2-.81,.68-.81,1.21v5.89c0,.72,.59,1.31,1.31,1.31h5.89c.53,0,1-.32,1.21-.81,.2-.49,.09-1.05-.28-1.42l-5.89-5.89Zm-.73,6.62v-5.22l5.22,5.22H6.75Z"/></g></g></svg>