<?xml version="1.0" encoding="UTF-8"?><svg fill="currentColor" xmlns="http://www.w3.org/2000/svg" viewBox="0 0 24 24"><g id="c"><path d="M21.5,7.99l-1.37-2.67-.92-1.78h0l-.46-.89c-.19-.37-.64-.51-1.01-.32-.37,.19-.51,.64-.32,1.01l.11,.22L6.64,9.18c-.37,.19-.51,.64-.32,1.01l.11,.22-1.11,.57c-.62,.32-.96,.96-.94,1.61l-.6,.31-.11-.22c-.19-.37-.64-.51-1.01-.32-.37,.19-.51,.64-.32,1.01l.92,1.78c.13,.26,.4,.41,.67,.41,.12,0,.23-.03,.34-.08,.37-.19,.51-.64,.32-1.01l-.11-.22,.61-.31c.3,.23,.67,.37,1.05,.37,.27,0,.54-.06,.8-.19l1.11-.57,.11,.22c.09,.18,.25,.31,.44,.37,.07,.02,.15,.04,.23,.04,.12,0,.24-.03,.34-.08l1.14-.59c.11,.61,.42,1.14,.85,1.54l-2.82,5.64c-.19,.37-.04,.82,.34,1.01,.11,.05,.22,.08,.33,.08,.28,0,.54-.15,.67-.42l2.82-5.64c.17,.03,.34,.05,.51,.05s.34-.02,.51-.05l2.82,5.64c.13,.26,.4,.42,.67,.42,.11,0,.23-.03,.33-.08,.37-.19,.52-.64,.34-1.01l-2.82-5.64c.55-.5,.9-1.22,.9-2.02,0-.73-.29-1.41-.79-1.92l5.09-2.62,.11,.22c.13,.26,.4,.41,.67,.41,.12,0,.23-.03,.34-.08,.37-.19,.51-.64,.32-1.01ZM6.24,12.76c-.12,.06-.27,.02-.34-.11-.06-.12-.02-.27,.11-.34l1.11-.57,.23,.44-1.11,.57Zm7.38-.84c.39,.22,.63,.64,.63,1.08,0,.69-.56,1.25-1.25,1.25s-1.25-.56-1.25-1.25c0-.1,.03-.2,.05-.29l1.71-.88s.06,.07,.11,.09Zm-4.48,.47l-.26-.5-.77-1.5h0l-.11-.22,10.22-5.27,1.14,2.22-10.22,5.27Z"/></g></svg>