<svg fill="currentColor" xmlns="http://www.w3.org/2000/svg" viewBox="0 0 32 32"><g id="ballet"><path d="M23.41,16.81,21.87,14.5l-.23-.45A6.11,6.11,0,0,1,21,11.33V4a1,1,0,0,0-1-1H17a1,1,0,0,0-.23-.66A1,1,0,0,0,16,2H8A1,1,0,0,0,7,3.19a64.72,64.72,0,0,1,1,6.9A66.81,66.81,0,0,1,8,21.84c-.21.91-.93,4.67,1.28,6.87A3.91,3.91,0,0,0,12,30h5a1,1,0,0,0,1-.75c.89-3.42,2.07-5.57,3.6-6.42a4.78,4.78,0,0,0,2.37-2.5,3.23,3.23,0,0,0,.14-.51A4,4,0,0,0,23.41,16.81Zm-3.6-2L16,19.34c0-1.07,0-2.14,0-3.21L19.18,13A7.93,7.93,0,0,0,19.81,14.85ZM14,18.61c0,.38,0,.77,0,1.16l-.54-.64ZM16.13,12H17.3l-1.22,1.22C16.1,12.81,16.11,12.41,16.13,12ZM14,15c0,.25,0,.5,0,.75l-1.85,1.87-1.87-2.23h0q0-.67,0-1.35H14C14,14.32,14,14.64,14,15Zm-3.79,3.44.52.61-.57.56C10.18,19.19,10.2,18.8,10.21,18.41ZM12,20.56l1.83,2.18A2,2,0,0,1,12,24a2.06,2.06,0,0,1-1.94-1.47ZM19,10H16.27c.13-1.67.29-3.34.49-5H19ZM14.86,4c-.34,2.66-.58,5.35-.73,8A.5.5,0,0,0,14,12H10.14c0-.7-.08-1.4-.14-2.09C9.82,7.94,9.55,6,9.21,4Zm-5,21.34a4,4,0,0,0,4.38,0,3.39,3.39,0,0,1-.9,1.95A1.94,1.94,0,0,1,12,28a1.94,1.94,0,0,1-1.29-.71A3.39,3.39,0,0,1,9.81,25.34Zm12.31-5.91a2.1,2.1,0,0,1-.06.24,2.92,2.92,0,0,1-1.45,1.4l-.1.06c-1.84,1-3.25,3.28-4.27,6.87h-1c1.29-1.93,1-4.53.8-5.72l4.82-5.63.84,1.27A2.05,2.05,0,0,1,22.12,19.43Z"/></g></svg>