<svg fill="currentColor" xmlns="http://www.w3.org/2000/svg" viewBox="0 0 32 32"><g id="bicycle"><path d="M24.5,15a5.5,5.5,0,0,0-4.24,2h-.78l1.2-3H22a3,3,0,0,0,0-6,5.9,5.9,0,0,0-3.62,1.25,5.9,5.9,0,0,0-1.62,2l-.65,1.31A1,1,0,0,0,17,14h1.52l-1.2,3H17a2.6,2.6,0,0,0-.56.06L10,11.52l.6-2.59A1.2,1.2,0,0,1,11.75,8H14a1,1,0,0,0,0-2H11.75A3.19,3.19,0,0,0,8.63,8.48L7.12,15a5.5,5.5,0,1,0,2,.23l.35-1.53,5.18,4.44A3,3,0,0,0,14,20a3,3,0,0,0,3,3h2.61a5.5,5.5,0,1,0,4.89-8Zm-4.88-4.18A3.82,3.82,0,0,1,22,10a1,1,0,0,1,0,2H18.62A3.91,3.91,0,0,1,19.62,10.82ZM11,20.5a3.5,3.5,0,1,1-4.36-3.38L6,19.78A1,1,0,0,0,6.77,21L7,21a1,1,0,0,0,1-.78l.7-3A3.49,3.49,0,0,1,11,20.5Zm5-.5a1,1,0,0,1,1-1h5a1,1,0,0,1,0,2H17A1,1,0,0,1,16,20Zm8.5,4a3.52,3.52,0,0,1-2.45-1,3,3,0,0,0,1.17-5.73A3.49,3.49,0,1,1,24.5,24Z"/></g></svg>