<svg fill="currentColor" xmlns="http://www.w3.org/2000/svg" viewBox="0 0 32 32"><g id="boat"><path d="M13.81,2.93A22,22,0,0,0,9.26,21.75l1.24,5.7a3.14,3.14,0,0,0,3,2.57H18a3.14,3.14,0,0,0,3-2.57l1.24-5.7A22,22,0,0,0,17.69,2.93,2.6,2.6,0,0,0,13.81,2.93Zm6.47,18.39L19,27A1.15,1.15,0,0,1,18,28H13.51a1.15,1.15,0,0,1-1-1l-1.24-5.7a19.93,19.93,0,0,1,4.1-17.08.53.53,0,0,1,.86,0A19.93,19.93,0,0,1,20.28,21.32Z"/><path d="M29.72,27.94,28.89,24a3,3,0,0,0-1.31-1.9,2.89,2.89,0,0,0-1.23-.44L24.1,5.11a1,1,0,0,0-2,.27l2.27,16.73a2.92,2.92,0,0,0-.94.91A3,3,0,0,0,23,25.28l.83,3.91a1,1,0,0,0,.44.63,1,1,0,0,0,.54.16L25,30,29,29.13A1,1,0,0,0,29.72,27.94Zm-4.12-.15L25,24.86a1,1,0,0,1,.14-.75,1,1,0,0,1,.64-.44l.21,0a1.06,1.06,0,0,1,.54.16,1,1,0,0,1,.43.63l.62,2.94Z"/><path d="M7.36,22.1,9.63,5.38a1,1,0,0,0-.86-1.13,1,1,0,0,0-1.12.86L5.4,21.69a2.94,2.94,0,0,0-1.24.44A3,3,0,0,0,2.85,24L2,27.94a1,1,0,0,0,.77,1.19L6.7,30l.21,0a1,1,0,0,0,.55-.16,1,1,0,0,0,.43-.63l.83-3.91A3,3,0,0,0,8.31,23,3.08,3.08,0,0,0,7.36,22.1Zm-.59,2.76-.63,2.93-1.95-.41.62-2.94a1,1,0,0,1,.43-.63,1,1,0,0,1,1.39.3A1,1,0,0,1,6.77,24.86Z"/><path d="M11.75,17c0,4,1.37,8,4,8s4-4,4-8-1.37-8-4-8S11.75,13,11.75,17Zm6,0c0,3.72-1.29,6-2,6s-2-2.28-2-6,1.29-6,2-6S17.75,13.3,17.75,17Z"/></g></svg>