<svg fill="currentColor" xmlns="http://www.w3.org/2000/svg" viewBox="0 0 32 32"><g id="chess"><path d="M29.39,5.08,23.71,2.65A7.93,7.93,0,0,0,20.56,2a4.63,4.63,0,0,0-1.47.25L15.45,3.74a7.11,7.11,0,0,0-3.29,2.72A8,8,0,0,0,10.91,11a3.9,3.9,0,0,0-1.68.5A4,4,0,0,0,7.36,14a3.93,3.93,0,0,0,.23,2.68L5.1,22.72a2.68,2.68,0,0,0-1.48.35,2.62,2.62,0,0,0-1.23,1.59L2,26a1,1,0,0,0,.71,1.22l9.65,2.61a1.27,1.27,0,0,0,.26,0,1,1,0,0,0,.5-.14,1,1,0,0,0,.47-.6L14,27.79a2.64,2.64,0,0,0-1.37-3l.91-6.48A4,4,0,0,0,14.68,17H23a1.19,1.19,0,0,0,.32-.05l6-2A1,1,0,0,0,30,14V6A1,1,0,0,0,29.39,5.08Zm-20.1,9.4a2,2,0,0,1,.93-1.21,1.86,1.86,0,0,1,1-.26A3,3,0,0,0,11,14a3,3,0,0,0,1.46,2.56,2,2,0,0,1-1.76.37,2,2,0,0,1-1.41-2.45Zm2.76,12.79-.1.36L4.23,25.54l.09-.36a.64.64,0,0,1,.78-.44l.35.1h0l5.8,1.56h0l.35.1a.59.59,0,0,1,.38.29A.63.63,0,0,1,12.05,27.27Zm-1.38-3.09-1.8-.49-1.8-.49,2-4.85a4.2,4.2,0,0,0,1.12.51,3.91,3.91,0,0,0,1.06.14h.17ZM28,13.28,22.84,15H14a1,1,0,0,1,0-2h5a3,3,0,0,0,3-3.09,3,3,0,0,0-1.6-2.65,2.85,2.85,0,0,0-3,.14,8.32,8.32,0,0,0-1.09.87,8.78,8.78,0,0,0-2,2.73H12.91a6,6,0,0,1,.93-3.45,5.05,5.05,0,0,1,2.37-2l3.57-1.46A2.32,2.32,0,0,1,20.56,4a6,6,0,0,1,2.37.48L28,6.66ZM16.62,11a6.81,6.81,0,0,1,1.06-1.27,7.71,7.71,0,0,1,.84-.67.9.9,0,0,1,.94,0A1.06,1.06,0,0,1,19,11Z"/></g></svg>