<svg fill="currentColor" xmlns="http://www.w3.org/2000/svg" viewBox="0 0 32 32"><g id="cooking"><path d="M29,19H27.13A7.2,7.2,0,0,0,28,14.91a7.36,7.36,0,0,0-2.32-4.65,1,1,0,0,0-1.63.43A2.68,2.68,0,0,1,23.17,12a1.07,1.07,0,0,1-.28-.44c-.53-1.18.81-2.9.87-3a1,1,0,0,0-1.25-1.51A6.79,6.79,0,0,0,19,10.65a8.05,8.05,0,0,0-.43,2.44,9.7,9.7,0,0,1-.09,1,.34.34,0,0,1-.16,0c-.23-.1-.59-.76-.4-1.92a1,1,0,0,0-.46-1,1,1,0,0,0-1.11,0A6,6,0,0,0,14,14.8a5.86,5.86,0,0,0,.78,4.2H13a1,1,0,0,0-1,1v1H9V20a1,1,0,0,0-1-1H4.5a2.5,2.5,0,0,0,0,5H8a1,1,0,0,0,1-1h3l.11,0a3.89,3.89,0,0,0,3.79,3H26.1A3.91,3.91,0,0,0,30,22.1V20A1,1,0,0,0,29,19ZM4.5,22a.5.5,0,0,1,0-1H7v1ZM16,15.2a4.09,4.09,0,0,1,.25-.77,2.61,2.61,0,0,0,1.38,1.49,2.24,2.24,0,0,0,1.86,0c1-.54,1.1-1.68,1.17-2.68a7.06,7.06,0,0,1,.21-1.58,3.33,3.33,0,0,0,.24.78A2.36,2.36,0,0,0,22.82,14a2.55,2.55,0,0,0,2.35-1.21A5.16,5.16,0,0,1,26,15.09a5.3,5.3,0,0,1-.84,3.36A1,1,0,0,0,25,19H17.35A4.12,4.12,0,0,1,16,15.2ZM28,22.1A1.9,1.9,0,0,1,26.1,24H15.9A1.9,1.9,0,0,1,14,22.1V21H28Z"/></g></svg>