<svg fill="currentColor" xmlns="http://www.w3.org/2000/svg" viewBox="0 0 32 32"><g id="fishing"><path d="M26.46,13a10.32,10.32,0,0,0-4.81-2.72l1.18-1.77a1,1,0,0,0,.05-1A1,1,0,0,0,22,7H19.14A5,5,0,0,0,15,9.23l-.58.86a16.09,16.09,0,0,0-8,3.11,1,1,0,0,0-.39.91,1,1,0,0,0,.59.8c.1.05.19.11.29.15A1.5,1.5,0,1,1,5.2,13a1,1,0,0,0,.8-1V3A1,1,0,0,0,4,3v8.34A3.5,3.5,0,1,0,8.67,16a21,21,0,0,1,1.9,1.21,6.39,6.39,0,0,1-1.14,1,7,7,0,0,1-1.75.87A1,1,0,0,0,8,21H18.44a1,1,0,0,1,.84.52.84.84,0,0,1-.08.88,3.8,3.8,0,0,1-.42.47l-2.46-.82a1,1,0,0,0-.9.14A1,1,0,0,0,15,23v6a1,1,0,0,0,.42.81A.94.94,0,0,0,16,30a1.19,1.19,0,0,0,.32-.05l2.93-1a14.74,14.74,0,0,0,5.3-2.13A14.49,14.49,0,0,0,26,25.72a8.54,8.54,0,0,0,3-6.53A8.63,8.63,0,0,0,26.46,13ZM19.14,9h1l-.68,1-.34,0H16.93A3,3,0,0,1,19.14,9Zm1.4,6a3.48,3.48,0,0,1-.26.3,2.92,2.92,0,0,1-2.06.81A7,7,0,0,0,18.28,15Zm-7.92,1.21a25,25,0,0,0-3.13-2.08L9,13.87A14.08,14.08,0,0,1,15.45,12a6.07,6.07,0,0,1,.6,4.68A5.46,5.46,0,0,1,14.6,19h-3a9.37,9.37,0,0,0,1.23-1.43A1,1,0,0,0,12.62,16.21ZM17,24.39l1,.33v2.56l-1,.33Zm7.74-.19a12,12,0,0,1-1.29,1A12.68,12.68,0,0,1,20,26.74V24.45a5.13,5.13,0,0,0,.83-.9,2.81,2.81,0,0,0,.23-2.94A2.94,2.94,0,0,0,18.44,19h-1.3a5.9,5.9,0,0,0,.48-.9l.49,0a5,5,0,0,0,3.61-1.42A4.84,4.84,0,0,0,23,14.18a1,1,0,0,0-.21-.82A1,1,0,0,0,22,13H18a9.77,9.77,0,0,0-.33-1h1.46A8.34,8.34,0,0,1,25,14.45a6.69,6.69,0,0,1,2,4.74A6.53,6.53,0,0,1,24.74,24.2Z"/><path d="M14,15a1,1,0,0,0,0-2h0a1,1,0,1,0,0,2Z"/></g></svg>