<svg fill="currentColor" xmlns="http://www.w3.org/2000/svg" viewBox="0 0 32 32"><g id="gaming"><path d="M28.79,11A4.66,4.66,0,0,0,24.67,9a5.3,5.3,0,0,0-4.76,2.94A1.89,1.89,0,0,1,18.2,13H17V11.5A2.5,2.5,0,0,0,14.5,9a.5.5,0,0,1-.5-.5v-1a.5.5,0,0,1,.5-.5h2A2.5,2.5,0,0,0,19,4.5V3a1,1,0,0,0-2,0V4.5a.5.5,0,0,1-.5.5h-2A2.5,2.5,0,0,0,12,7.5v1A2.5,2.5,0,0,0,14.5,11a.5.5,0,0,1,.5.5V13H13.8a1.89,1.89,0,0,1-1.71-1.06A5.33,5.33,0,0,0,2,14.33v2.56a7.84,7.84,0,0,0,1.3,4.36,9.72,9.72,0,0,1,1,2.47,10.32,10.32,0,0,1,.24,1.49,4.54,4.54,0,0,0,9-.09,2.54,2.54,0,0,1,5,.09,4.54,4.54,0,0,0,9,0l.26-1.57a6,6,0,0,1,.92-2.33A7.9,7.9,0,0,0,30,16.89V14.33A5.34,5.34,0,0,0,28.79,11ZM28,16.89a6,6,0,0,1-1,3.31,7.84,7.84,0,0,0-1.23,3.11l-.26,1.57a2.54,2.54,0,0,1-5-.09,4.54,4.54,0,0,0-9,.09,2.55,2.55,0,0,1-5,.07,11,11,0,0,0-.28-1.7A11.58,11.58,0,0,0,5,20.2a6,6,0,0,1-1-3.31V14.33a3.33,3.33,0,0,1,6.3-1.49A3.9,3.9,0,0,0,13.8,15h4.4a3.9,3.9,0,0,0,3.5-2.16A3.34,3.34,0,0,1,24.75,11a2.74,2.74,0,0,1,1.55.34,2.69,2.69,0,0,1,.88.8l.05.06A3.3,3.3,0,0,1,28,14.33Z"/><path d="M10,16H9V15a1,1,0,0,0-2,0v1H6a1,1,0,0,0,0,2H7v1a1,1,0,0,0,2,0V18h1a1,1,0,0,0,0-2Z"/><path d="M26,16H22a1,1,0,0,0,0,2h4a1,1,0,0,0,0-2Z"/><path d="M14,18H13a1,1,0,0,0,0,2h1a1,1,0,0,0,0-2Z"/><path d="M19,18H18a1,1,0,0,0,0,2h1a1,1,0,0,0,0-2Z"/></g></svg>