<svg fill="currentColor" xmlns="http://www.w3.org/2000/svg" viewBox="0 0 32 32"><g id="guitar"><path d="M28.33,3.82,27.06,2.67a3,3,0,0,0-4.3.22L21.53,4.24a1,1,0,0,0-.22.4L20.79,6.5l-4.38,4.83s-.07-.08-.11-.1a4.65,4.65,0,0,0-5.23.26,4.59,4.59,0,0,0-1.69,2.68,1.8,1.8,0,0,1-1.47,1.36,6.55,6.55,0,0,0-4.28,2.72c-2,3-.59,7.15,1.93,9.43A8.9,8.9,0,0,0,11.33,30a5.87,5.87,0,0,0,3.81-1.3,6.59,6.59,0,0,0,2.28-4.53,1.8,1.8,0,0,1,1.21-1.59,4.57,4.57,0,0,0,2.5-1.94,4.65,4.65,0,0,0-.25-5.23,1.31,1.31,0,0,0-.12-.11l4.38-4.83,1.8-.7a1.22,1.22,0,0,0,.38-.26l1.22-1.35a3,3,0,0,0-.21-4.31Zm-8.9,15.73A2.58,2.58,0,0,1,18,20.65,3.79,3.79,0,0,0,15.43,24a4.61,4.61,0,0,1-1.56,3.18c-2.12,1.75-5.41.48-7-.93s-3.14-4.56-1.61-6.84a4.62,4.62,0,0,1,3-1.87,3.8,3.8,0,0,0,3-2.9,2.6,2.6,0,0,1,1-1.51,2.62,2.62,0,0,1,2.76-.25l-3.66,4a3.27,3.27,0,0,0-1.52.95,3.43,3.43,0,0,0,2.53,5.72h.17a3.35,3.35,0,0,0,2.37-1.12h0a3.42,3.42,0,0,0,.8-1.6l3.66-4.05A2.63,2.63,0,0,1,19.43,19.55Zm-6,1.53a1.4,1.4,0,0,1-1,.46,1.42,1.42,0,0,1-1.12-2.37,1.44,1.44,0,0,1,2-.1A1.43,1.43,0,0,1,13.46,21.08Zm1.84-2.75a3.54,3.54,0,0,0-.6-.74,3.37,3.37,0,0,0-.79-.52l7.85-8.66,1.39,1.25ZM27.06,6.78,26,8l-1.22.48-2-1.77.35-1.27,1.07-1.17a1,1,0,0,1,1.48-.07L27,5.3a1,1,0,0,1,.34.73A1,1,0,0,1,27.06,6.78Z"/><path d="M8.14,23.4a1,1,0,0,0-1.42.07,1,1,0,0,0,.07,1.41l1.44,1.3a1,1,0,0,0,.67.26,1,1,0,0,0,.67-1.74Z"/></g></svg>