<svg fill="currentColor" xmlns="http://www.w3.org/2000/svg" viewBox="0 0 32 32"><g id="hiking"><path d="M29,17H27.39c0-.05,0-.09.05-.14a4.33,4.33,0,0,0-.61-3.41L26,12.15A3.34,3.34,0,0,0,21.72,11l-.93.47a3.25,3.25,0,0,1-2,.3l-3.19-.54a2.36,2.36,0,0,1-1.59-1L12.91,8.56,11,2.68A1,1,0,0,0,10,2H3A1,1,0,0,0,2,3V9a1,1,0,0,0,.2.6l3,4,1.17,1.75a5.21,5.21,0,0,1,.57,1.1,2.42,2.42,0,0,1,.1.36,1.06,1.06,0,0,0,.05.53A3.11,3.11,0,0,1,7,18a6.49,6.49,0,0,0,1.17,5.56h0l.29.45H6a1.19,1.19,0,0,0-.32.05l-3,1A1,1,0,0,0,2,26v3a1,1,0,0,0,1,1H29a1,1,0,0,0,1-1V18A1,1,0,0,0,29,17ZM8.61,12.46l.33.66a1.94,1.94,0,0,1-.33,2.2,6.92,6.92,0,0,0-.6-1.1l-.62-.94ZM11.41,24a1.62,1.62,0,0,1-1-.63l5.23-3A2.68,2.68,0,0,1,16.92,20a4.55,4.55,0,0,0,2.39-.64l6.22-3.89a2.19,2.19,0,0,1,0,.92,2.28,2.28,0,0,1-1.13,1.49l-5,2.8a2.57,2.57,0,0,1-1.24.32,4.46,4.46,0,0,0-2.53.77l-2.93,1.95A1.62,1.62,0,0,1,11.41,24Zm.31-13.57.64.95a4.42,4.42,0,0,0,1.29,1.26l-.52.9a1,1,0,0,0,1.74,1l.7-1.22,1.08.18-.54,1.09a1,1,0,0,0,.44,1.34A.93.93,0,0,0,17,16a1,1,0,0,0,.89-.55l.84-1.67a5.19,5.19,0,0,0,2.95-.5l.93-.47a1.32,1.32,0,0,1,1.69.45l.3.44-6.35,4A2.66,2.66,0,0,1,16.9,18a4.61,4.61,0,0,0-2.23.61L9.32,21.66A4.26,4.26,0,0,1,9,20.74a4.55,4.55,0,0,1,0-2.29,5.23,5.23,0,0,0,.11-1l.33-.21a4,4,0,0,0,1.34-5.06l-.44-.88ZM4,4H9.28l1.53,4.59L6.23,11.64,4,8.67ZM4,28V26.72L6.16,26H11a.88.88,0,0,0,.28-.06,3.44,3.44,0,0,0,.45,0,3.59,3.59,0,0,0,2-.61l2.93-1.95A2.55,2.55,0,0,1,18.08,23a4.6,4.6,0,0,0,2.21-.57l5-2.8a4.39,4.39,0,0,0,.84-.63H28v1.63a5.51,5.51,0,0,0-3.45.48,1,1,0,0,0,.9,1.78A3.47,3.47,0,0,1,28,22.7V25h-.91a2.61,2.61,0,0,1-1.28-.37A4.58,4.58,0,0,0,22.86,24a4.52,4.52,0,0,0-1.8.67,2.17,2.17,0,0,1-1.18.32H19a1,1,0,0,0,0,2h.88a4.22,4.22,0,0,0,2.26-.63,2.5,2.5,0,0,1,1-.38,2.64,2.64,0,0,1,1.66.36,4.53,4.53,0,0,0,2.29.65H28v1Z"/></g></svg>