<svg fill="currentColor" xmlns="http://www.w3.org/2000/svg" viewBox="0 0 32 32"><g id="listening"><path d="M27,13.55,25,13.17V13A9,9,0,0,0,7,13v.17l-1.95.38a3.74,3.74,0,0,0-3,4.2l.41,2.79a3.73,3.73,0,0,0,3,3.13L6.88,24a2.5,2.5,0,0,0,.47.05A2.45,2.45,0,0,0,9,23.35a2.39,2.39,0,0,0,.77-2L9,14.13A.5.5,0,0,0,9,14V13a7,7,0,0,1,14,0v1a.5.5,0,0,0,0,.13l-.69,6.06L20.25,21a3.26,3.26,0,0,1-2.26.06s0,0,0-.08a2,2,0,1,0-2,2,2,2,0,0,0,.88-.21,5.34,5.34,0,0,0,2.15.47,5.43,5.43,0,0,0,2-.38l1.33-.53a2.41,2.41,0,0,0,.65,1,2.45,2.45,0,0,0,1.67.65,2.5,2.5,0,0,0,.47-.05l1.42-.28h0a3.73,3.73,0,0,0,3-3.13L30,17.75A3.74,3.74,0,0,0,27,13.55ZM7.67,21.88a.43.43,0,0,1-.41.11l-1.42-.28a1.76,1.76,0,0,1-1.42-1.46L4,17.46a1.75,1.75,0,0,1,1.42-2l1.64-.32.72,6.35A.39.39,0,0,1,7.67,21.88ZM28,17.46l-.4,2.79a1.76,1.76,0,0,1-1.42,1.46L24.74,22a.43.43,0,0,1-.41-.11.39.39,0,0,1-.13-.34l.72-6.35,1.64.32A1.75,1.75,0,0,1,28,17.46Z"/></g></svg>