<svg fill="currentColor" xmlns="http://www.w3.org/2000/svg" viewBox="0 0 32 32"><g id="make_up" data-name="make up"><path d="M29.83,8.36a12.14,12.14,0,0,0-1.94-3,11.8,11.8,0,0,0-1.13-1.11,10,10,0,0,0-1.25-.88,9.76,9.76,0,0,0-2.14-1,10.17,10.17,0,0,0-5.62,0l-.17.06-.77.39a1.88,1.88,0,0,1-1.62,0l-.77-.39-.17-.06a10.17,10.17,0,0,0-5.62,0,9.76,9.76,0,0,0-2.14,1A9.11,9.11,0,0,0,4.87,4.56a9.48,9.48,0,0,0-.82.85A23.23,23.23,0,0,0,2.17,8.36a2,2,0,0,0,.36,2.15A38,38,0,0,0,6,13.35V22a1,1,0,0,0-1,1v6a1,1,0,0,0,1,1h8a1,1,0,0,0,1-1V23a1,1,0,0,0-1-1V20.79a15.51,15.51,0,0,0-.66-4.56,13.82,13.82,0,0,0,1.55.09h0c.39,0,.75,0,1.07,0a18.86,18.86,0,0,0,8.55-2.11,18.43,18.43,0,0,0,4.91-3.74A2,2,0,0,0,29.83,8.36ZM5.62,6.65A6.86,6.86,0,0,1,6.22,6a8.7,8.7,0,0,1,1.29-1A8,8,0,0,1,9.2,4.32a8.11,8.11,0,0,1,4.42,0l.69.34a3.88,3.88,0,0,0,3.39,0l.68-.34a8.11,8.11,0,0,1,4.42,0,8,8,0,0,1,1.69.74,8.41,8.41,0,0,1,1,.71,9.63,9.63,0,0,1,.92.89,10.4,10.4,0,0,1,1,1.34H25.32a6,6,0,0,0-4.53-1A5.54,5.54,0,0,0,18.4,8.2a4,4,0,0,1-4.8,0h0A5.56,5.56,0,0,0,11.21,7,6,6,0,0,0,6.68,8h-2C4.94,7.62,5.25,7.16,5.62,6.65ZM13,28H7V24h6ZM8,22V12.89a2.54,2.54,0,0,1,.67.11,3.63,3.63,0,0,1,1.65,1.42A11.37,11.37,0,0,1,12,20.79V22Zm15.63-9.53A16.73,16.73,0,0,1,16,14.36l-1,0h0a12.77,12.77,0,0,1-2.47-.24h0a8.12,8.12,0,0,0-.5-.82,5.5,5.5,0,0,0-2.63-2.15,4,4,0,0,0-2.64,0,.75.75,0,0,0-.2.1C5.88,10.74,5.36,10.33,5,10H7a1,1,0,0,0,.61-.21A4.07,4.07,0,0,1,10.79,9a3.59,3.59,0,0,1,1.61.82,6,6,0,0,0,7.2,0h0l0,0A3.49,3.49,0,0,1,21.21,9a4,4,0,0,1,3.18.81A1,1,0,0,0,25,10h2.13A15.92,15.92,0,0,1,23.63,12.47Z"/></g></svg>