<svg fill="currentColor" xmlns="http://www.w3.org/2000/svg" viewBox="0 0 32 32"><g id="origami"><path d="M29.72,21.31a1,1,0,0,0-1.07-.25L23,23.17l.86-1.72a1.19,1.19,0,0,0,.1-.32v0l2-18a1,1,0,0,0-.64-1,1,1,0,0,0-1.18.38L20.46,7.88,21,3.11a1,1,0,0,0-.64-1,1,1,0,0,0-1.18.38L11.75,13.33l-3-3a1,1,0,0,0-1.33-.07l-5,4a1,1,0,0,0-.32,1.11A1,1,0,0,0,3,16H7.18L9,25.2s0,0,0,0v0l1,4A1,1,0,0,0,11,30H26a1,1,0,0,0,.92-.61l3-7A1,1,0,0,0,29.72,21.31Zm-7.64-1.07-9.65,3L23.56,6.88ZM11.59,16l1.7,1.71a1.15,1.15,0,0,0,.33.21l-3.11,4.55L9.22,16Zm7-9.12-.44,4a1,1,0,0,0,0,.38l-3.43,5s0,0,0,0l-1.55-1.54a1.54,1.54,0,0,0,.17-.19ZM7.93,12.34,9.59,14H5.85ZM11.2,25.68l9.86-3-.95,1.91h0L18.38,28h-6.6ZM25.34,28H20.62l1.1-2.2,5.44-2Z"/></g></svg>