<svg fill="currentColor" xmlns="http://www.w3.org/2000/svg" viewBox="0 0 32 32"><g id="painting"><path d="M16,5.77a4,4,0,0,0-3.83,7,3.91,3.91,0,0,0,1.91.49,3.65,3.65,0,0,0,1.13-.17A4,4,0,0,0,16,5.77Zm-.16,4.46a2,2,0,0,1-1.19,1,2,2,0,0,1-2.49-1.36h0a2,2,0,0,1,.17-1.52,1.94,1.94,0,0,1,1.19-1,1.83,1.83,0,0,1,.57-.08,2,2,0,0,1,.95.24,2,2,0,0,1,.8,2.71Z"/><path d="M26.6,12.88a4,4,0,1,0-7.67,2.26A4,4,0,0,0,22.77,18a4.06,4.06,0,0,0,1.13-.16,4,4,0,0,0,2.38-1.93,3.93,3.93,0,0,0,.32-3ZM24.52,15a1.94,1.94,0,0,1-1.19,1,2,2,0,0,1-2.48-1.35A2,2,0,0,1,21,13.06a2,2,0,0,1,1.19-1,2.24,2.24,0,0,1,.57-.08,1.88,1.88,0,0,1,.95.25,2,2,0,0,1,.8,2.71Z"/><path d="M29.87,13.75a8.54,8.54,0,0,0-.38-1.8,13.84,13.84,0,0,0-6.72-8.23A14,14,0,0,0,12.09,2.56C3.7,5.05,1.49,14.18,2.6,19.86c.27,1.39.78,4,2.89,5.18s5,.34,7.18-.42c.82-.29,2.53-.89,2.78-.64s0,1.66-.08,2.34c-.21,1.25-.4,2.33.2,3.07a1.56,1.56,0,0,0,1.17.57H17a11.32,11.32,0,0,0,3.06-.56C30.51,26.33,30.4,17.43,29.87,13.75ZM19.48,27.49a10.58,10.58,0,0,1-2.32.48c0-.35.11-.91.18-1.32.25-1.45.53-3.11-.49-4.1a2.19,2.19,0,0,0-1.63-.61,10.71,10.71,0,0,0-3.21.79c-1.9.67-4,1.42-5.52.58S4.81,20.7,4.57,19.48c-.94-4.8,1-12.89,8.09-15A12.08,12.08,0,0,1,27.6,12.59C27.74,13.08,30.78,24.16,19.48,27.49Z"/><path d="M11.29,14.45a4,4,0,0,0-5.75,4.64h0a4,4,0,0,0,1.92,2.39,4.08,4.08,0,0,0,3.05.32,4,4,0,0,0,.78-7.35Zm-.16,4.47a2,2,0,0,1-1.19,1,2,2,0,0,1-2.48-1.35h0A2,2,0,0,1,8.81,16a2,2,0,0,1,1.52.17,1.94,1.94,0,0,1,1,1.19A2,2,0,0,1,11.13,18.92Z"/></g></svg>