<svg fill="currentColor" xmlns="http://www.w3.org/2000/svg" viewBox="0 0 32 32"><g id="photography"><path d="M27,8H21V7.4A2.41,2.41,0,0,0,18.6,5H13.4A2.41,2.41,0,0,0,11,7.4V8H5a3,3,0,0,0-3,3V24a3,3,0,0,0,3,3H27a3,3,0,0,0,3-3V11A3,3,0,0,0,27,8Zm1,16a1,1,0,0,1-1,1H5a1,1,0,0,1-1-1V11a1,1,0,0,1,1-1h6.16A1.81,1.81,0,0,0,13,8.19V7.4a.4.4,0,0,1,.4-.4h5.2a.4.4,0,0,1,.4.4v.79A1.81,1.81,0,0,0,20.81,10H27a1,1,0,0,1,1,1Z"/><path d="M16,11a6,6,0,1,0,6,6A6,6,0,0,0,16,11Zm0,10a4,4,0,1,1,4-4A4,4,0,0,1,16,21Z"/><path d="M26,11H25a1,1,0,0,0,0,2h1a1,1,0,0,0,0-2Z"/></g></svg>