<svg fill="currentColor" xmlns="http://www.w3.org/2000/svg" viewBox="0 0 32 32"><g id="ping_pong" data-name="ping pong"><path d="M30.07,15.19a4.27,4.27,0,0,0-4.36-3.43.13.13,0,0,0,0-.06A10.91,10.91,0,1,0,6.38,19.64l-3.45,4a3.43,3.43,0,0,0-.78,2.73A4.08,4.08,0,0,0,4,29.21a4.15,4.15,0,0,0,2.3.71,3.83,3.83,0,0,0,1-.13A3.42,3.42,0,0,0,9.49,28l2.35-4.76a11,11,0,0,0,3,.44,10.85,10.85,0,0,0,8.49-4.13l.13.1a4.26,4.26,0,0,0,2.36.71,4.3,4.3,0,0,0,4.22-5.17ZM11.71,21.1a1,1,0,0,0-1.26.54.88.88,0,0,0-.12.15L7.7,27.12a1.46,1.46,0,0,1-.93.74,2.08,2.08,0,0,1-1.69-.32,2.08,2.08,0,0,1-1-1.42A1.42,1.42,0,0,1,4.45,25l3.86-4.51c0-.05.06-.12.1-.18a1,1,0,0,0,0-1.37,8.9,8.9,0,0,1-2.24-4.09l10.19,6.72A8.94,8.94,0,0,1,11.71,21.1Zm7.08-.35L5.93,12.27A9,9,0,0,1,7.4,7.84a8.91,8.91,0,0,1,16.31,4.05c0,.15,0,.29,0,.44A4.22,4.22,0,0,0,22,18,8.91,8.91,0,0,1,18.79,20.75Zm9-3.43a2.3,2.3,0,0,1-3.19.66,2.3,2.3,0,0,1,.8-4.18,2.59,2.59,0,0,1,.47-.05,2.33,2.33,0,0,1,1.27.38,2.29,2.29,0,0,1,1,1.46A2.24,2.24,0,0,1,27.78,17.32Z"/></g></svg>