<svg fill="currentColor" xmlns="http://www.w3.org/2000/svg" viewBox="0 0 32 32"><g id="planting"><path d="M30,6.14a1,1,0,0,0-.7-1.1,8.87,8.87,0,0,0-8.51,1.82,8.85,8.85,0,0,0-4.33-4.75l-.07,0a1.17,1.17,0,0,0-.2-.06L16,2l-.18,0a1.17,1.17,0,0,0-.2.06l-.07,0a8.85,8.85,0,0,0-4.33,4.75A8.87,8.87,0,0,0,2.71,5,1,1,0,0,0,2,6.14,11.55,11.55,0,0,0,5.3,12.71a10.61,10.61,0,0,0,2,1.57s0,0,0,0A1,1,0,0,0,7,15,50.3,50.3,0,0,0,8,24.2c.12.59.25,1.16.39,1.72A4,4,0,0,0,12.36,29h7.28a4,4,0,0,0,3.95-3.08c.14-.56.27-1.13.39-1.72A50.3,50.3,0,0,0,25,15a1,1,0,0,0-.29-.72s0,0,0,0a10.61,10.61,0,0,0,2-1.57A11.55,11.55,0,0,0,30,6.14Zm-14-2a6.45,6.45,0,0,1,3.18,4.58A9.33,9.33,0,0,0,17.89,14H17V10a1,1,0,0,0-2,0v4h-.89a9.33,9.33,0,0,0-1.29-5.26A6.45,6.45,0,0,1,16,4.16ZM4.16,6.75a6.82,6.82,0,0,1,6.12,1.94,7.45,7.45,0,0,1,.68.85.46.46,0,0,0,.08.13,6.91,6.91,0,0,1,.72,1.51A9.42,9.42,0,0,0,8.34,9.06a1,1,0,0,0-.68,1.88,7.28,7.28,0,0,1,3.52,2.63l.11.19A9.49,9.49,0,0,1,6.7,11.29,9.54,9.54,0,0,1,4.16,6.75ZM22,23.8c-.12.56-.24,1.11-.37,1.65a2.05,2.05,0,0,1-2,1.55H12.36a2,2,0,0,1-2-1.56c-.13-.53-.25-1.08-.37-1.64A48.46,48.46,0,0,1,9,16H23A48.46,48.46,0,0,1,22,23.8Zm-1.31-10,.11-.19a7.28,7.28,0,0,1,3.52-2.63,1,1,0,0,0-.68-1.88,9.5,9.5,0,0,0-3.42,2.12A6.91,6.91,0,0,1,21,9.67.46.46,0,0,0,21,9.54a7.45,7.45,0,0,1,.68-.85,6.78,6.78,0,0,1,4.89-2,7.4,7.4,0,0,1,1.23.11,9.54,9.54,0,0,1-2.54,4.54A9.49,9.49,0,0,1,20.71,13.76Z"/></g></svg>