<svg fill="currentColor" xmlns="http://www.w3.org/2000/svg" viewBox="0 0 32 32"><g id="reading"><path d="M30,15V10a1,1,0,0,0-1-1H3a1,1,0,0,0-1,1v5a1,1,0,0,0,1,1,2,2,0,0,1,2,2,2,2,0,0,1-2,2,1,1,0,0,0,0,2H19v4a1,1,0,0,0,.62.92,1,1,0,0,0,1.09-.21L22,25.41l1.29,1.3A1,1,0,0,0,24,27a.84.84,0,0,0,.38-.08A1,1,0,0,0,25,26V22h1a4,4,0,0,0,4-4,4,4,0,0,0-.6-2.08A1,1,0,0,0,30,15Zm-2-1H24V11h4ZM10,14V11H22v3ZM4,11H8v3H4ZM23,23.59l-.29-.3a1,1,0,0,0-1.42,0l-.29.3V20h2ZM26,20H25V19a1,1,0,0,0-1-1H20a1,1,0,0,0-1,1v1H6.46a4,4,0,0,0,0-4H26a2,2,0,0,1,0,4Z"/></g></svg>