<svg fill="currentColor" xmlns="http://www.w3.org/2000/svg" viewBox="0 0 32 32"><g id="soccer"><path d="M29,10.67A14,14,0,0,0,10.67,3.05,14,14,0,0,0,3.05,21.33,14.08,14.08,0,0,0,16,30,14.15,14.15,0,0,0,21.33,29,14,14,0,0,0,29,10.67Zm-1.85.76a12,12,0,0,1,.88,5,3.63,3.63,0,0,1-3-.26,5.65,5.65,0,0,1-2.51-2.87c-1-2.51-.26-5.21,1.71-6.09A11.93,11.93,0,0,1,27.1,11.43ZM11.43,4.9A12,12,0,0,1,16,4l.5,0a3.59,3.59,0,0,1-.27,3,5.58,5.58,0,0,1-2.86,2.51,5.57,5.57,0,0,1-3.8.23A3.61,3.61,0,0,1,7.25,7.8,12,12,0,0,1,11.43,4.9ZM4.9,20.57a12,12,0,0,1-.88-5c2-.76,4.47.61,5.51,3.13s.26,5.21-1.72,6.1A12.14,12.14,0,0,1,4.9,20.57ZM20.57,27.1a12.07,12.07,0,0,1-5,.89c-.78-2,.6-4.49,3.12-5.53s5.22-.26,6.1,1.71A11.92,11.92,0,0,1,20.57,27.1Zm5.53-4.64c-1.63-2.3-5-3.14-8.18-1.85s-5,4.31-4.5,7.1a12.63,12.63,0,0,1-2-.63,12.73,12.73,0,0,1-1.86-1c2.3-1.63,3.15-5.05,1.86-8.19s-4.3-5-7.09-4.5a13.47,13.47,0,0,1,.63-2,13,13,0,0,1,1-1.88,5.69,5.69,0,0,0,3,2.15,6.92,6.92,0,0,0,2.13.32,7.88,7.88,0,0,0,3-.61A7.59,7.59,0,0,0,18,7.93a5.75,5.75,0,0,0,.65-3.63,12.07,12.07,0,0,1,3.85,1.61c-2.3,1.63-3.15,5.05-1.86,8.19A7.67,7.67,0,0,0,24.05,18a6,6,0,0,0,2.78.71,5.24,5.24,0,0,0,.88-.08,12.41,12.41,0,0,1-.63,2A11.17,11.17,0,0,1,26.1,22.46Z"/><path d="M14.49,12.29a4,4,0,0,0-2.17,5.22,3.93,3.93,0,0,0,2.16,2.17A4.06,4.06,0,0,0,16,20a3.88,3.88,0,0,0,1.53-.31,4,4,0,0,0,2.17-5.22A4,4,0,0,0,14.49,12.29Zm3.37,4.46a1.94,1.94,0,0,1-1.08,1.08,2,2,0,0,1-1.53-3.69A1.87,1.87,0,0,1,16,14a2,2,0,0,1,1.85,1.23A1.94,1.94,0,0,1,17.86,16.75Z"/></g></svg>