<svg fill="currentColor" xmlns="http://www.w3.org/2000/svg" viewBox="0 0 32 32"><g id="stacko"><path d="M29.71,8.29l-2-2a4.49,4.49,0,0,0-4.57-1.08L18.88,6.65A2.74,2.74,0,0,0,17,9.26a2.6,2.6,0,0,0,.12.74H16V7a1,1,0,0,0-1-1H8A1,1,0,0,0,7,7v3H3a1,1,0,0,0-1,1v4a1,1,0,0,0,1,1H6v2H3a1,1,0,0,0-1,1v8a1,1,0,0,0,1,1H22a1,1,0,0,0,1-1V23a1,1,0,0,0-1-1H18V19a1,1,0,0,0-1-1H15V16h4.05a2.73,2.73,0,0,0-.05.5A2.5,2.5,0,0,0,21.5,19h3.26a10.47,10.47,0,0,0,4.69-1.11A1,1,0,0,0,30,17V9A1,1,0,0,0,29.71,8.29ZM21.24,12l1.28-.32a1.17,1.17,0,0,1,1,.22A1.19,1.19,0,0,1,22.81,14H21.5a2.73,2.73,0,0,0-.5.05V12ZM9,8h5v2H9ZM4,12H9v2H4ZM4,24h7v2H4Zm17,2H13V24h8Zm-5-4H4V20H16Zm-3-4H8V16h5Zm6-4H11V12h8Zm9,2.36a8.55,8.55,0,0,1-3.24.64H21.5a.5.5,0,0,1,0-1h1.31A3.19,3.19,0,1,0,22,9.71L20.88,10H19.74a.74.74,0,0,1-.23-1.45l4.27-1.42a2.49,2.49,0,0,1,2.53.59L28,9.41Z"/></g></svg>