<svg fill="currentColor" xmlns="http://www.w3.org/2000/svg" viewBox="0 0 32 32"><g id="traveling"><path d="M21,7V4h1a1,1,0,0,0,0-2H10a1,1,0,0,0,0,2h1V7a4.06,4.06,0,0,0-4,4.06V22.93a4.06,4.06,0,0,0,2,3.49V27.5a2.5,2.5,0,0,0,5,0V27h4v.5a2.5,2.5,0,0,0,5,0V26.42a4.06,4.06,0,0,0,2-3.49V11.07A4.06,4.06,0,0,0,21,7ZM19,4V7H13V4ZM12,27.5a.5.5,0,0,1-1,0V27h1Zm9-.5v.5a.5.5,0,0,1-1,0V27h1Zm2-4.07A2.07,2.07,0,0,1,20.93,25H11.07A2.07,2.07,0,0,1,9,22.93V11.07A2.07,2.07,0,0,1,11.07,9h9.86A2.07,2.07,0,0,1,23,11.07Z"/><path d="M12,11a1,1,0,0,0-1,1V22a1,1,0,0,0,2,0V12A1,1,0,0,0,12,11Z"/><path d="M16,11a1,1,0,0,0-1,1V22a1,1,0,0,0,2,0V12A1,1,0,0,0,16,11Z"/><path d="M20,11a1,1,0,0,0-1,1V22a1,1,0,0,0,2,0V12A1,1,0,0,0,20,11Z"/></g></svg>