<svg fill="currentColor" xmlns="http://www.w3.org/2000/svg" viewBox="0 0 32 32"><g id="video_game" data-name="video game"><path d="M28.26,16.39c-.11-.27-.22-.54-.36-.82a13.66,13.66,0,0,0-2.9-4V5.09A3.1,3.1,0,0,0,21.91,2H10.09A3.1,3.1,0,0,0,7,5.09v6.49a13.66,13.66,0,0,0-2.9,4c-.14.28-.25.55-.36.82a6.28,6.28,0,0,0,.09,4.76L5.6,25.27A4.86,4.86,0,0,1,6,27.22V29a1,1,0,0,0,1,1h6a1,1,0,0,0,1-1V27.58a5.67,5.67,0,0,1,.05-.58H18a5.67,5.67,0,0,1,.05.58V29a1,1,0,0,0,1,1h6a1,1,0,0,0,1-1V27.22a4.86,4.86,0,0,1,.4-1.95l1.77-4.12A6.28,6.28,0,0,0,28.26,16.39ZM12.55,24.18a10.9,10.9,0,0,0-.55,3.4V28H8v-.78a7,7,0,0,0-.56-2.74L5.67,20.37a4.29,4.29,0,0,1-.08-3.24l.31-.7A11.78,11.78,0,0,1,7,14.59V20a1,1,0,0,0,.45.83l3,2a1,1,0,0,0,1,.05A1,1,0,0,0,12,22V18.5a.5.5,0,0,1,1,0v2.92A8.63,8.63,0,0,1,12.55,24.18ZM14.4,25c0-.06,0-.12,0-.18a10.9,10.9,0,0,0,.55-3.4V18.5a2.5,2.5,0,0,0-5,0v1.63l-1-.67V5.09A1.09,1.09,0,0,1,10.09,4H21.91A1.09,1.09,0,0,1,23,5.09V19.46l-1,.67V18.5a2.5,2.5,0,0,0-5,0v2.92a10.9,10.9,0,0,0,.55,3.4c0,.06,0,.12.05.18Zm11.93-4.63-1.77,4.11A7,7,0,0,0,24,27.22V28H20v-.42a10.9,10.9,0,0,0-.55-3.4A8.63,8.63,0,0,1,19,21.42V18.5a.5.5,0,0,1,1,0V22a1,1,0,0,0,.53.88,1,1,0,0,0,1-.05l3-2A1,1,0,0,0,25,20V14.59a11.78,11.78,0,0,1,1.1,1.84l.31.7A4.29,4.29,0,0,1,26.33,20.37Z"/><path d="M22,14V6a1,1,0,0,0-1-1H11a1,1,0,0,0-1,1v8a1,1,0,0,0,1,1H21A1,1,0,0,0,22,14Zm-2-1H12V7h8Z"/></g></svg>