<svg fill="currentColor" xmlns="http://www.w3.org/2000/svg" viewBox="0 0 32 32"><g id="vr"><path d="M28.19,9h-.5a11.34,11.34,0,0,0-1.86-3,11.47,11.47,0,0,0-5.16-3.39,11.34,11.34,0,0,0-8.55.61A10.76,10.76,0,0,0,8.63,6H4.12A2.23,2.23,0,0,0,2,8.32v7.36A2.23,2.23,0,0,0,4.12,18H5.28l-.23.68a1,1,0,0,0,.06.77L6,21.24V24a3.34,3.34,0,0,0,3,3h3v2a1,1,0,0,0,1,1h8a1,1,0,0,0,1-1V24.9a4.49,4.49,0,0,1,1.58-3.46,12.22,12.22,0,0,0,4.19-6.31s0-.07,0-.13h.4A1.81,1.81,0,0,0,30,13.19V10.81A1.81,1.81,0,0,0,28.19,9ZM13,5a9.37,9.37,0,0,1,7-.49,9.51,9.51,0,0,1,4.26,2.8A8.84,8.84,0,0,1,25.48,9H20V8.32A2.23,2.23,0,0,0,17.88,6H11.42A9.11,9.11,0,0,1,13,5ZM4,15.68V8.32A.39.39,0,0,1,4.12,8H17.87a.36.36,0,0,1,.13.32V9H16.81A1.81,1.81,0,0,0,15,10.81v2.38A1.81,1.81,0,0,0,16.81,15H18v.68a.39.39,0,0,1-.12.32H4.13A.36.36,0,0,1,4,15.68ZM22.31,19.9a6.46,6.46,0,0,0-2.31,5V28H14V26a1,1,0,0,0-1-1H9a1.56,1.56,0,0,1-1-1V21a1,1,0,0,0-.11-.45l-.81-1.63L7.39,18H17.88A2.23,2.23,0,0,0,20,15.68V15h5.72A10.38,10.38,0,0,1,22.31,19.9ZM28,13H17V11H28Z"/></g></svg>