<svg fill="currentColor" xmlns="http://www.w3.org/2000/svg" viewBox="0 0 32 32"><g id="youtuber"><path d="M29,20H28V8.14A3.15,3.15,0,0,0,24.86,5H7.14A3.15,3.15,0,0,0,4,8.14V20H3a1,1,0,0,0-1,1v1.84A3.17,3.17,0,0,0,5.16,26H26.84A3.17,3.17,0,0,0,30,22.84V21A1,1,0,0,0,29,20ZM6,8.14A1.14,1.14,0,0,1,7.14,7H24.86A1.14,1.14,0,0,1,26,8.14V20H19a1,1,0,0,0-.71.29l-.7.71H14.41l-.7-.71A1,1,0,0,0,13,20H6Zm22,14.7A1.16,1.16,0,0,1,26.84,24H5.16A1.16,1.16,0,0,1,4,22.84V22h8.59l.7.71A1,1,0,0,0,14,23h4a1,1,0,0,0,.71-.29l.7-.71H28Z"/><path d="M14,17.88l6.09-2.61a1.45,1.45,0,0,0,.15-2.6L14.18,9.19h0A1.46,1.46,0,0,0,12,10.46v6.08A1.45,1.45,0,0,0,13.46,18,1.46,1.46,0,0,0,14,17.88Zm0-6.49,4.33,2.48L14,15.72Z"/></g></svg>