<?xml version="1.0" encoding="UTF-8"?><svg fill="currentColor" xmlns="http://www.w3.org/2000/svg" viewBox="0 0 24 24"><g id="u"><g><path d="M18,3.25H6c-2.07,0-3.75,1.68-3.75,3.75v6c0,2.07,1.68,3.75,3.75,3.75h1.5c.7,0,1.38,.34,1.8,.9l1.3,1.73c.33,.45,.84,.7,1.4,.7s1.07-.26,1.4-.7l1.3-1.73c.42-.56,1.1-.9,1.8-.9h1.5c2.07,0,3.75-1.68,3.75-3.75V7c0-2.07-1.68-3.75-3.75-3.75Zm2.25,9.75c0,1.24-1.01,2.25-2.25,2.25h-1.5c-1.17,0-2.3,.56-3,1.5l-1.3,1.73c-.13,.17-.27,.17-.4,0l-1.3-1.73c-.7-.94-1.83-1.5-3-1.5h-1.5c-1.24,0-2.25-1.01-2.25-2.25V7c0-1.24,1.01-2.25,2.25-2.25h12c1.24,0,2.25,1.01,2.25,2.25v6Z"/><path d="M17.08,6.92H6.92c-.41,0-.75,.34-.75,.75s.34,.75,.75,.75h10.16c.41,0,.75-.34,.75-.75s-.34-.75-.75-.75Z"/><path d="M10.92,10.92H6.92c-.41,0-.75,.34-.75,.75s.34,.75,.75,.75h4c.41,0,.75-.34,.75-.75s-.34-.75-.75-.75Z"/></g></g></svg>