<?xml version="1.0" encoding="UTF-8"?><svg fill="currentColor" xmlns="http://www.w3.org/2000/svg" viewBox="0 0 24 24"><g id="j"><g><path d="M17,17.25c-.41,0-.75,.34-.75,.75,0,.69-.56,1.25-1.25,1.25h-5c-1.24,0-2.25-1.01-2.25-2.25v-3c0-.41-.34-.75-.75-.75s-.75,.34-.75,.75v3c0,2.07,1.68,3.75,3.75,3.75h5c1.52,0,2.75-1.23,2.75-2.75,0-.41-.34-.75-.75-.75Z"/><path d="M7,5.75c.41,0,.75-.34,.75-.75,0-.14,.11-.25,.25-.25h6c1.24,0,2.25,1.01,2.25,2.25v2c0,.41,.34,.75,.75,.75s.75-.34,.75-.75v-2c0-2.07-1.68-3.75-3.75-3.75h-6c-.96,0-1.75,.79-1.75,1.75,0,.41,.34,.75,.75,.75Z"/><path d="M6.76,11.82l1.71,1.71c.14,.14,.34,.22,.53,.22,.1,0,.19-.02,.29-.06,.28-.12,.46-.39,.46-.69v-1c0-.14,.11-.25,.25-.25,.96,0,1.75-.79,1.75-1.75v-2c0-.96-.79-1.75-1.75-1.75H4c-.96,0-1.75,.79-1.75,1.75v2c0,.96,.79,1.75,1.75,1.75h2.59c.07,0,.13,.03,.18,.07Zm-3.01-1.82v-2c0-.14,.11-.25,.25-.25h6c.14,0,.25,.11,.25,.25v2c0,.14-.11,.25-.25,.25-.73,0-1.35,.44-1.61,1.08l-.56-.56c-.33-.33-.77-.51-1.24-.51h-2.59c-.14,0-.25-.11-.25-.25Z"/><path d="M20,10.25h-6c-.96,0-1.75,.79-1.75,1.75v2c0,.96,.79,1.75,1.75,1.75,.14,0,.25,.11,.25,.25v1c0,.3,.18,.58,.46,.69,.09,.04,.19,.06,.29,.06,.19,0,.39-.08,.53-.22l1.71-1.71s.11-.07,.18-.07h2.59c.96,0,1.75-.79,1.75-1.75v-2c0-.96-.79-1.75-1.75-1.75Zm.25,3.75c0,.14-.11,.25-.25,.25h-2.59c-.47,0-.91,.18-1.24,.51l-.56,.56c-.27-.63-.89-1.08-1.61-1.08-.14,0-.25-.11-.25-.25v-2c0-.14,.11-.25,.25-.25h6c.14,0,.25,.11,.25,.25v2Z"/></g></g></svg>