<?xml version="1.0" encoding="UTF-8"?><svg fill="currentColor" xmlns="http://www.w3.org/2000/svg" viewBox="0 0 24 24"><g id="r"><g><path d="M19,13.25h-1.71c-.97,0-1.86,.5-2.34,1.31-.61,1.04-1.74,1.69-2.94,1.69s-2.33-.65-2.94-1.69c-.48-.81-1.38-1.31-2.34-1.31h-1.71c-1.52,0-2.75,1.23-2.75,2.75v2c0,1.52,1.23,2.75,2.75,2.75h14c1.52,0,2.75-1.23,2.75-2.75v-2c0-1.52-1.23-2.75-2.75-2.75Zm1.25,4.75c0,.69-.56,1.25-1.25,1.25H5c-.69,0-1.25-.56-1.25-1.25v-2c0-.69,.56-1.25,1.25-1.25h1.71c.44,0,.84,.22,1.05,.58,.88,1.49,2.51,2.42,4.24,2.42s3.36-.93,4.24-2.42c.21-.36,.61-.58,1.05-.58h1.71c.69,0,1.25,.56,1.25,1.25v2Z"/><path d="M11.47,13.53c.07,.07,.15,.12,.24,.16,.09,.04,.19,.06,.29,.06s.2-.02,.29-.06c.09-.04,.17-.09,.24-.16l3-3c.29-.29,.29-.77,0-1.06s-.77-.29-1.06,0l-1.72,1.72V5c0-.41-.34-.75-.75-.75s-.75,.34-.75,.75v6.19l-1.72-1.72c-.29-.29-.77-.29-1.06,0s-.29,.77,0,1.06l3,3Z"/></g></g></svg>