<?xml version="1.0" encoding="UTF-8"?><svg fill="currentColor" xmlns="http://www.w3.org/2000/svg" viewBox="0 0 24 24"><g id="s"><path d="M18,5.25H6c-2.07,0-3.75,1.68-3.75,3.75v6c0,2.07,1.68,3.75,3.75,3.75h12c2.07,0,3.75-1.68,3.75-3.75v-6c0-2.07-1.68-3.75-3.75-3.75Zm0,1.5c.33,0,.64,.07,.92,.2l-6.09,5.33c-.47,.41-1.18,.41-1.65,0L5.08,6.95c.28-.13,.59-.2,.92-.2h12Zm2.25,8.25c0,1.24-1.01,2.25-2.25,2.25H6c-1.24,0-2.25-1.01-2.25-2.25v-6c0-.36,.09-.7,.25-1.01l6.19,5.42c.52,.45,1.16,.68,1.81,.68s1.29-.23,1.81-.68l6.19-5.42c.15,.3,.25,.64,.25,1.01v6Z"/></g></svg>