<?xml version="1.0" encoding="UTF-8"?><svg fill="currentColor" xmlns="http://www.w3.org/2000/svg" viewBox="0 0 24 24"><g id="e"><g><path d="M18.75,17.28V6.72c1.12-.13,2-1.07,2-2.22,0-1.24-1.01-2.25-2.25-2.25H5.5c-1.24,0-2.25,1.01-2.25,2.25,0,1.15,.88,2.1,2,2.22v10.55c-1.12,.13-2,1.07-2,2.22,0,1.24,1.01,2.25,2.25,2.25h13c1.24,0,2.25-1.01,2.25-2.25,0-1.15-.88-2.1-2-2.22Zm-12-.03V6.75h10.5v10.5H6.75ZM4.75,4.5c0-.41,.34-.75,.75-.75h13c.41,0,.75,.34,.75,.75s-.34,.75-.75,.75H5.5c-.41,0-.75-.34-.75-.75Zm13.75,15.75H5.5c-.41,0-.75-.34-.75-.75s.34-.75,.75-.75h13c.41,0,.75,.34,.75,.75s-.34,.75-.75,.75Z"/><path d="M9,10.75h6c.41,0,.75-.34,.75-.75s-.34-.75-.75-.75h-6c-.41,0-.75,.34-.75,.75s.34,.75,.75,.75Z"/><path d="M15,13.25h-6c-.41,0-.75,.34-.75,.75s.34,.75,.75,.75h6c.41,0,.75-.34,.75-.75s-.34-.75-.75-.75Z"/></g></g></svg>