<?xml version="1.0" encoding="UTF-8"?><svg fill="currentColor" xmlns="http://www.w3.org/2000/svg" viewBox="0 0 24 24"><g id="l"><g><path d="M20.74,11.96s-.02-.09-.03-.14c-.01-.05-.02-.1-.05-.15,0-.01,0-.03-.01-.04-.02-.03-.04-.05-.06-.07-.03-.04-.06-.08-.1-.12-.04-.03-.08-.05-.12-.08-.04-.02-.08-.05-.13-.06-.05-.02-.1-.02-.15-.03-.03,0-.06-.02-.09-.02-.01,0-.03,0-.04,0-.05,0-.1,.02-.15,.03-.02,0-.04,0-.06,.01v-3.47c0-.73-.29-1.43-.81-1.94l-2.83-2.83c-.52-.52-1.21-.81-1.94-.81H7c-1.52,0-2.75,1.23-2.75,2.75v6.3s-.04,0-.06-.01c-.05-.01-.1-.03-.15-.03-.01,0-.03,0-.04,0-.03,0-.06,.01-.09,.02-.05,0-.1,.01-.15,.03-.05,.02-.08,.04-.13,.06-.04,.02-.08,.05-.12,.08-.04,.03-.07,.08-.1,.12-.02,.03-.05,.04-.06,.07,0,.01,0,.03-.01,.04-.02,.05-.03,.09-.05,.15-.01,.05-.03,.09-.03,.14,0,.01,0,.03,0,.04v6c0,2.07,1.68,3.75,3.75,3.75h10c2.07,0,3.75-1.68,3.75-3.75v-6s0-.03,0-.04Zm-1.49,6.04c0,.54-.2,1.03-.52,1.42l-5.2-2.92,5.72-3.22v4.72ZM5.75,5c0-.69,.56-1.25,1.25-1.25h7.17c.33,0,.65,.13,.88,.37l2.83,2.83c.24,.24,.37,.55,.37,.88v4.17s.02,.07,.02,.11l-6.27,3.53-6.27-3.53s.02-.07,.02-.11V5Zm1.25,15.25c-1.24,0-2.25-1.01-2.25-2.25v-4.72l12.37,6.96s-.08,.01-.12,.01H7Z"/><path d="M9,8.75h6c.41,0,.75-.34,.75-.75s-.34-.75-.75-.75h-6c-.41,0-.75,.34-.75,.75s.34,.75,.75,.75Z"/><path d="M9,11.75h6c.41,0,.75-.34,.75-.75s-.34-.75-.75-.75h-6c-.41,0-.75,.34-.75,.75s.34,.75,.75,.75Z"/></g></g></svg>