<?xml version="1.0" encoding="UTF-8"?><svg fill="currentColor" xmlns="http://www.w3.org/2000/svg" viewBox="0 0 24 24"><g id="p"><g><path d="M18.89,5.11c-1.84-1.84-4.29-2.86-6.89-2.86s-5.05,1.01-6.89,2.86c-1.84,1.84-2.86,4.29-2.86,6.89s1.01,5.05,2.86,6.89c1.84,1.84,4.29,2.86,6.89,2.86s5.05-1.01,6.89-2.86c1.84-1.84,2.86-4.29,2.86-6.89s-1.01-5.05-2.86-6.89Zm-1.06,12.73c-1.56,1.56-3.63,2.42-5.83,2.42s-4.28-.86-5.83-2.42c-1.56-1.56-2.42-3.63-2.42-5.83s.86-4.28,2.42-5.83c1.56-1.56,3.63-2.42,5.83-2.42s4.28,.86,5.83,2.42c1.56,1.56,2.42,3.63,2.42,5.83s-.86,4.28-2.42,5.83Z"/><path d="M14.11,7.68l-6.21,2.07c-.7,.23-1.16,.85-1.19,1.59-.03,.73,.39,1.39,1.06,1.68l2.16,.93c.06,.03,.11,.07,.13,.13l.93,2.16c.28,.65,.9,1.06,1.61,1.06,.02,0,.05,0,.08,0,.73-.03,1.36-.5,1.59-1.19l2.07-6.21c.21-.63,.05-1.32-.42-1.79s-1.16-.63-1.79-.42Zm-5.91,3.72c0-.08,.04-.18,.17-.23l5.1-1.7-3.05,3.05-2.07-.89c-.13-.06-.15-.16-.15-.24Zm4.63,4.23c-.05,.14-.15,.17-.23,.17-.08,0-.18-.02-.24-.15l-.89-2.07,3.05-3.05-1.7,5.1Z"/></g></g></svg>