<?xml version="1.0" encoding="UTF-8"?><svg fill="currentColor" xmlns="http://www.w3.org/2000/svg" viewBox="0 0 24 24"><g id="o"><path d="M16,2.25h-7c-2.07,0-3.75,1.68-3.75,3.75v.25h-.25c-.41,0-.75,.34-.75,.75s.34,.75,.75,.75h.25v3.5h-.25c-.41,0-.75,.34-.75,.75s.34,.75,.75,.75h.25v3.5h-.25c-.41,0-.75,.34-.75,.75s.34,.75,.75,.75h.25v.25c0,2.07,1.68,3.75,3.75,3.75h7c2.07,0,3.75-1.68,3.75-3.75V6c0-2.07-1.68-3.75-3.75-3.75Zm-5.25,7.5h7.5v4.5h-7.5v-4.5Zm7.5-3.75v2.25h-7.5V3.75h5.25c1.24,0,2.25,1.01,2.25,2.25ZM6.75,18v-.25h.25c.41,0,.75-.34,.75-.75s-.34-.75-.75-.75h-.25v-3.5h.25c.41,0,.75-.34,.75-.75s-.34-.75-.75-.75h-.25v-3.5h.25c.41,0,.75-.34,.75-.75s-.34-.75-.75-.75h-.25v-.25c0-1.24,1.01-2.25,2.25-2.25h.25V20.25h-.25c-1.24,0-2.25-1.01-2.25-2.25Zm9.25,2.25h-5.25v-4.5h7.5v2.25c0,1.24-1.01,2.25-2.25,2.25Z"/></g></svg>