<?xml version="1.0" encoding="UTF-8"?><svg fill="currentColor" xmlns="http://www.w3.org/2000/svg" viewBox="0 0 24 24"><g id="q"><path d="M21.75,7c0-1.52-1.23-2.75-2.75-2.75-.85,0-1.6,.39-2.1,1H6c-2.07,0-3.75,1.68-3.75,3.75v4c0,2.07,1.68,3.75,3.75,3.75h3.95c.51,0,1.01,.17,1.41,.49l2.55,2.04c.32,.25,.7,.39,1.09,.39,.26,0,.52-.06,.76-.17,.61-.29,.99-.9,.99-1.58v-.42c0-.41,.34-.75,.75-.75,1.24,0,2.25-1.01,2.25-2.25v-4.87c1.15-.33,2-1.38,2-2.63Zm-4.25,8.25c-1.24,0-2.25,1.01-2.25,2.25v.42c0,.14-.09,.2-.14,.23-.05,.02-.16,.06-.26-.03l-2.55-2.04c-.66-.53-1.49-.82-2.34-.82h-3.95c-1.24,0-2.25-1.01-2.25-2.25v-4c0-1.24,1.01-2.25,2.25-2.25h10.28c0,.08-.03,.16-.03,.25,0,1.25,.85,2.3,2,2.63v4.87c0,.41-.34,.75-.75,.75Zm1.5-7c-.69,0-1.25-.56-1.25-1.25s.56-1.25,1.25-1.25,1.25,.56,1.25,1.25-.56,1.25-1.25,1.25Z"/></g></svg>