<?xml version="1.0" encoding="UTF-8"?><svg fill="currentColor" xmlns="http://www.w3.org/2000/svg" viewBox="0 0 24 24"><g id="b"><g><path d="M18,2.25H6c-2.07,0-3.75,1.68-3.75,3.75V14c0,2.07,1.68,3.75,3.75,3.75h1.5c.7,0,1.38,.34,1.8,.9l1.3,1.73c.33,.45,.84,.7,1.4,.7s1.07-.26,1.4-.7l1.3-1.73c.42-.56,1.1-.9,1.8-.9h1.5c2.07,0,3.75-1.68,3.75-3.75V6c0-2.07-1.68-3.75-3.75-3.75Zm2.25,11.75c0,1.24-1.01,2.25-2.25,2.25h-1.5c-1.17,0-2.29,.56-3,1.5l-1.3,1.73c-.13,.17-.27,.17-.4,0l-1.3-1.73c-.71-.94-1.83-1.5-3-1.5h-1.5c-1.24,0-2.25-1.01-2.25-2.25V6c0-1.24,1.01-2.25,2.25-2.25h12c1.24,0,2.25,1.01,2.25,2.25V14Z"/><path d="M16.5,9.73c-.27-.19-.61-.27-.93-.22l-1.6,.26c-.43,.07-.88-.04-1.24-.29-.36-.26-.6-.64-.67-1.08l-.26-1.6c-.05-.33-.24-.62-.5-.81l-1.05-.75c-.56-.4-1.34-.27-1.75,.29l-.64,.89c-1.34,1.86-.91,4.46,.95,5.8l2.59,1.87c.71,.51,1.55,.78,2.42,.78,.23,0,.45-.02,.68-.06,1.09-.18,2.05-.77,2.7-1.67l.64-.89c.4-.56,.28-1.34-.28-1.74l-1.05-.76Zm-.52,2.51c-.41,.58-1.03,.96-1.73,1.07-.69,.11-1.4-.05-1.98-.46l-2.59-1.86c-1.19-.86-1.46-2.52-.6-3.71l.49-.69,.76,.55,.25,1.5c.13,.83,.59,1.56,1.27,2.06,.68,.49,1.53,.69,2.36,.55l1.5-.24,.76,.55-.49,.69Z"/></g></g></svg>