<?xml version="1.0" encoding="UTF-8"?><svg fill="currentColor" xmlns="http://www.w3.org/2000/svg" viewBox="0 0 24 24"><g id="c"><g><path d="M17,3.25H7c-2.62,0-4.75,2.13-4.75,4.75v8c0,2.62,2.13,4.75,4.75,4.75h10c2.62,0,4.75-2.13,4.75-4.75V8c0-2.62-2.13-4.75-4.75-4.75Zm3.25,12.75c0,1.79-1.46,3.25-3.25,3.25H7c-1.79,0-3.25-1.46-3.25-3.25V8c0-1.79,1.46-3.25,3.25-3.25h10c1.79,0,3.25,1.46,3.25,3.25v8Z"/><path d="M14,8.25h-4c-1.52,0-2.75,1.23-2.75,2.75v1c0,1.52,1.23,2.75,2.75,2.75h.39c.25,0,.49,.07,.69,.21l2.5,1.66c.13,.08,.27,.13,.42,.13,.12,0,.24-.03,.35-.09,.24-.13,.4-.38,.4-.66v-1c0-.14,.11-.25,.25-.25,.96,0,1.75-.79,1.75-1.75v-2c0-1.52-1.23-2.75-2.75-2.75Zm1.25,4.75c0,.14-.11,.25-.25,.25-.84,0-1.54,.59-1.71,1.38l-1.37-.91c-.45-.3-.98-.46-1.53-.46h-.39c-.69,0-1.25-.56-1.25-1.25v-1c0-.69,.56-1.25,1.25-1.25h4c.69,0,1.25,.56,1.25,1.25v2Z"/></g></g></svg>