<?xml version="1.0" encoding="UTF-8"?><svg fill="currentColor" xmlns="http://www.w3.org/2000/svg" viewBox="0 0 24 24"><g id="f"><path d="M18,9.25h-2.25v-2.25c0-2.07-1.68-3.75-3.75-3.75H6c-2.07,0-3.75,1.68-3.75,3.75v6c0,.96,.79,1.75,1.75,1.75,.14,0,.25,.11,.25,.25v2c0,.3,.18,.58,.46,.69,.09,.04,.19,.06,.29,.06,.19,0,.39-.08,.53-.22l2.41-2.41c.24-.24,.55-.37,.88-.37h1.42v.25c0,2.07,1.68,3.75,3.75,3.75h1.39c.25,0,.49,.07,.69,.21l2.5,1.66c.13,.08,.27,.13,.42,.13,.12,0,.24-.03,.35-.09,.24-.13,.4-.38,.4-.66v-1c0-.14,.11-.25,.25-.25,.96,0,1.75-.79,1.75-1.75v-4c0-2.07-1.68-3.75-3.75-3.75Zm-9.17,4c-.73,0-1.43,.29-1.94,.81l-1.13,1.13v-.19c0-.96-.79-1.75-1.75-1.75-.14,0-.25-.11-.25-.25V7c0-1.24,1.01-2.25,2.25-2.25h6c1.24,0,2.25,1.01,2.25,2.25v2.25h-.25c-2.07,0-3.75,1.68-3.75,3.75v.25h-1.42Zm11.42,3.75c0,.14-.11,.25-.25,.25-.84,0-1.54,.59-1.71,1.38l-1.37-.91c-.45-.3-.98-.46-1.52-.46h-1.39c-1.24,0-2.25-1.01-2.25-2.25v-2c0-1.24,1.01-2.25,2.25-2.25h4c1.24,0,2.25,1.01,2.25,2.25v4Z"/></g></svg>