<?xml version="1.0" encoding="UTF-8"?><svg fill="currentColor" xmlns="http://www.w3.org/2000/svg" viewBox="0 0 24 24"><g id="t"><g><path d="M18.8,5.01c-1.9-1.85-4.41-2.84-7.07-2.76C6.64,2.39,2.39,6.64,2.25,11.72c-.07,2.66,.91,5.17,2.76,7.07,1.85,1.9,4.33,2.95,6.99,2.95h8c.96,0,1.75-.79,1.75-1.75V12c0-2.66-1.05-5.14-2.95-6.99Zm1.45,14.99c0,.14-.11,.25-.25,.25H12c-2.25,0-4.35-.89-5.91-2.5-1.57-1.61-2.4-3.74-2.33-5.99,.12-4.3,3.71-7.89,8.01-8.01,.08,0,.16,0,.24,0,2.16,0,4.2,.82,5.75,2.34,1.61,1.57,2.5,3.67,2.5,5.91v8Z"/><path d="M16,9.25H8c-.41,0-.75,.34-.75,.75s.34,.75,.75,.75h8c.41,0,.75-.34,.75-.75s-.34-.75-.75-.75Z"/><path d="M16,13.25H8c-.41,0-.75,.34-.75,.75s.34,.75,.75,.75h8c.41,0,.75-.34,.75-.75s-.34-.75-.75-.75Z"/></g></g></svg>