<?xml version="1.0" encoding="UTF-8"?><svg fill="currentColor" xmlns="http://www.w3.org/2000/svg" viewBox="0 0 24 24"><g id="i"><g><path d="M20.87,4.06c-.32-.52-.88-.83-1.49-.83H11c-1.52,0-2.75,1.23-2.75,2.75v1.27h-3.63c-.61,0-1.17,.31-1.49,.83s-.35,1.16-.08,1.7l1.07,2.13c.09,.17,.13,.37,.13,.56v5.51c0,1.52,1.23,2.75,2.75,2.75h6c1.52,0,2.75-1.23,2.75-2.75v-1.25h1.27c1.51-.02,2.73-1.25,2.73-2.76v-5.52c0-.19,.05-.39,.13-.56l1.07-2.13c.27-.55,.24-1.18-.08-1.7Zm-6.62,13.92c0,.69-.56,1.25-1.25,1.25H7c-.69,0-1.25-.56-1.25-1.25v-5.51c0-.42-.1-.85-.29-1.23l-1.07-2.13c-.05-.11-.02-.2,.01-.24,.03-.04,.09-.12,.21-.12H13c.69,0,1.25,.56,1.25,1.25v7.98Zm5.36-12.89l-1.07,2.13c-.19,.38-.29,.8-.29,1.23v5.52c0,.68-.56,1.25-1.24,1.25h-1.26v-5.22c0-1.52-1.23-2.75-2.75-2.75h-3.25v-1.27c0-.69,.56-1.25,1.25-1.25h8.38c.12,0,.19,.07,.21,.12,.03,.04,.06,.14,.01,.24Z"/><path d="M12,11.23h-4c-.41,0-.75,.34-.75,.75s.34,.75,.75,.75h4c.41,0,.75-.34,.75-.75s-.34-.75-.75-.75Z"/><path d="M12,15.23h-4c-.41,0-.75,.34-.75,.75s.34,.75,.75,.75h4c.41,0,.75-.34,.75-.75s-.34-.75-.75-.75Z"/></g></g></svg>