<?xml version="1.0" encoding="UTF-8"?><svg fill="currentColor" xmlns="http://www.w3.org/2000/svg" viewBox="0 0 24 24"><g id="d"><g><path d="M18,3.25H6c-2.07,0-3.75,1.68-3.75,3.75v10.92c0,.68,.38,1.28,.99,1.58,.24,.12,.5,.18,.76,.18,.39,0,.77-.13,1.09-.39l2.28-1.82c.57-.46,1.3-.71,2.03-.71h8.6c2.07,0,3.75-1.68,3.75-3.75V7c0-2.07-1.68-3.75-3.75-3.75Zm2.25,9.75c0,1.24-1.01,2.25-2.25,2.25H9.4c-1.07,0-2.13,.37-2.97,1.04l-2.28,1.82c-.11,.09-.21,.06-.26,.03s-.14-.09-.14-.23V7c0-1.24,1.01-2.25,2.25-2.25h12c1.24,0,2.25,1.01,2.25,2.25v6Z"/><path d="M12.02,9.29h-.01c-.41,0-.74,.34-.74,.75s.34,.75,.75,.75,.75-.34,.75-.75-.34-.75-.75-.75Z"/><path d="M8.02,9.29h-.01c-.41,0-.74,.34-.74,.75s.34,.75,.75,.75,.75-.34,.75-.75-.34-.75-.75-.75Z"/><path d="M16.02,9.29h0c-.41,0-.75,.34-.75,.75s.34,.75,.75,.75,.75-.34,.75-.75-.33-.75-.75-.75Z"/></g></g></svg>