<?xml version="1.0" encoding="UTF-8"?><svg fill="currentColor" xmlns="http://www.w3.org/2000/svg" viewBox="0 0 24 24"><g id="m"><g><path d="M18,3.25H6c-2.07,0-3.75,1.68-3.75,3.75v6c0,2.07,1.68,3.75,3.75,3.75h1.5c.7,0,1.38,.34,1.8,.9l1.3,1.73c.33,.45,.84,.7,1.4,.7s1.07-.26,1.4-.7l1.3-1.73c.42-.56,1.1-.9,1.8-.9h1.5c2.07,0,3.75-1.68,3.75-3.75V7c0-2.07-1.68-3.75-3.75-3.75Zm2.25,9.75c0,1.24-1.01,2.25-2.25,2.25h-1.5c-1.17,0-2.29,.56-3,1.5l-1.3,1.73c-.13,.17-.27,.17-.4,0l-1.3-1.73c-.71-.94-1.83-1.5-3-1.5h-1.5c-1.24,0-2.25-1.01-2.25-2.25V7c0-1.24,1.01-2.25,2.25-2.25h12c1.24,0,2.25,1.01,2.25,2.25v6Z"/><path d="M14.08,6.71c-.19-.19-.45-.3-.73-.3h0c-.32,0-.65,.14-.9,.39l-3.66,3.66c-.11,.11-.18,.25-.21,.41l-.38,2.29c-.04,.24,.04,.48,.21,.65,.14,.14,.33,.22,.53,.22,.04,0,.08,0,.12,0l2.29-.38c.16-.03,.3-.1,.41-.21l3.66-3.66c.25-.25,.39-.58,.39-.9,0-.28-.11-.54-.3-.73l-1.43-1.43Zm-3.21,5.5l-1.02,.17,.17-1.02,3.29-3.29,.85,.85-3.29,3.3Z"/></g></g></svg>