<?xml version="1.0" encoding="UTF-8"?><svg fill="currentColor" xmlns="http://www.w3.org/2000/svg" viewBox="0 0 24 24"><g id="g"><g><path d="M21.72,17.83c0-.11,.03-.22,.03-.33,0-2.34-1.91-4.25-4.25-4.25h-1.06c-.54,0-1.02-.34-1.19-.85l-.54-1.63c-.1-.31-.39-.51-.71-.51h-4c-.32,0-.61,.21-.71,.51l-.54,1.63c-.17,.51-.65,.85-1.19,.85h-1.06c-2.34,0-4.25,1.91-4.25,4.25,0,.11,.02,.22,.03,.33-.01,.06-.03,.11-.03,.17,0,.12,.03,.23,.08,.33,.39,1.95,2.11,3.42,4.17,3.42h11c2.06,0,3.78-1.47,4.17-3.42,.05-.1,.08-.21,.08-.33,0-.06-.02-.11-.03-.17Zm-15.22-3.08h1.06c1.19,0,2.23-.76,2.61-1.88h0l.37-1.12h2.92l.37,1.12c.38,1.12,1.42,1.88,2.61,1.88h1.06c1.43,0,2.6,1.1,2.72,2.5H3.78c.13-1.4,1.29-2.5,2.72-2.5Zm11,5.5H6.5c-1.06,0-1.98-.61-2.44-1.5h15.87c-.46,.89-1.37,1.5-2.44,1.5Z"/><path d="M7,4.75h9.5c.41,0,.75,.34,.75,.75s-.34,.75-.75,.75h-3.5c-.96,0-1.75,.79-1.75,1.75v1c0,.41,.34,.75,.75,.75s.75-.34,.75-.75v-1c0-.14,.11-.25,.25-.25h3.5c1.24,0,2.25-1.01,2.25-2.25s-1.01-2.25-2.25-2.25H7c-.14,0-.25-.11-.25-.25,0-.41-.34-.75-.75-.75s-.75,.34-.75,.75c0,.96,.79,1.75,1.75,1.75Z"/></g></g></svg>