<?xml version="1.0" encoding="UTF-8"?><svg fill="currentColor" xmlns="http://www.w3.org/2000/svg" viewBox="0 0 24 24"><g id="s"><path d="M20.78,10.66c.59-.58,.97-1.33,.97-2.16,0-1.79-1.68-3.25-3.75-3.25s-3.75,1.46-3.75,3.25c0,.65,.22,1.24,.6,1.75h-5.51c.26-.37,.41-.79,.41-1.25,0-.96-.64-1.79-1.62-2.28,.38-.47,.62-1.07,.62-1.72,0-1.52-1.23-2.75-2.75-2.75s-2.75,1.23-2.75,2.75c0,.66,.24,1.25,.62,1.72-.99,.49-1.62,1.32-1.62,2.28,0,.67,.33,1.27,.86,1.75-.52,.41-.86,1.04-.86,1.75,0,1.24,1.01,2.25,2.25,2.25h6.04l-3.02,4.23c-.38,.54-.43,1.23-.13,1.82s.9,.95,1.56,.95h6.11c.66,0,1.26-.36,1.56-.95,.3-.59,.25-1.28-.13-1.82l-3.02-4.23h6.04c1.24,0,2.25-1.01,2.25-2.25,0-.76-.38-1.44-.97-1.84Zm-5.5,9.46c-.03,.05-.09,.14-.22,.14h-6.11c-.13,0-.2-.08-.22-.14-.03-.05-.06-.15,.02-.26l3.26-4.56,3.26,4.56c.08,.11,.04,.21,.02,.26Zm.47-11.61c0-.96,1.01-1.75,2.25-1.75s2.25,.79,2.25,1.75-1.01,1.75-2.25,1.75-2.25-.79-2.25-1.75ZM4.75,5c0-.69,.56-1.25,1.25-1.25s1.25,.56,1.25,1.25-.56,1.25-1.25,1.25-1.25-.56-1.25-1.25Zm1.25,2.75c1.33,0,2.25,.66,2.25,1.25s-.92,1.25-2.25,1.25-2.25-.66-2.25-1.25,.92-1.25,2.25-1.25Zm13.5,5.5H4.5c-.41,0-.75-.34-.75-.75s.34-.75,.75-.75h15c.41,0,.75,.34,.75,.75s-.34,.75-.75,.75Z"/></g></svg>