<?xml version="1.0" encoding="UTF-8"?><svg fill="currentColor" xmlns="http://www.w3.org/2000/svg" viewBox="0 0 24 24"><g id="c"><path d="M20.97,8.08l-5.15-3.43c-.45-.3-1.01-.38-1.52-.21L3.45,8.06c-.72,.24-1.2,.91-1.2,1.66v5.7c0,.63,.34,1.21,.88,1.52l6.09,3.48c.27,.15,.57,.23,.87,.23,.2,0,.4-.04,.6-.11l9.91-3.6c.69-.25,1.15-.91,1.15-1.64v-5.76c0-.59-.29-1.13-.78-1.46Zm-6.2-2.21s.05-.01,.08-.01c.05,0,.1,.01,.14,.04l4.36,2.91-9.17,3.33c-.07,.03-.15,.02-.21-.02l-5.14-2.94,9.94-3.32ZM3.88,15.64c-.08-.04-.13-.13-.13-.22v-5.13l5.48,3.13s.02,0,.02,.01v5.28l-5.37-3.07Zm16.21-.1l-9.34,3.39v-5.4l9.5-3.45v5.23c0,.1-.07,.2-.16,.23Z"/></g></svg>