<?xml version="1.0" encoding="UTF-8"?><svg fill="currentColor" xmlns="http://www.w3.org/2000/svg" viewBox="0 0 24 24"><g id="t"><g><path d="M21.68,14.68c-.12-.26-.39-.43-.68-.43h-2.25v-4.25c0-.96-.79-1.75-1.75-1.75h-2c-.96,0-1.75,.79-1.75,1.75v4.25h-2.5v-4.25c0-.96-.79-1.75-1.75-1.75h-2c-.96,0-1.75,.79-1.75,1.75v4.25H3c-.29,0-.55,.17-.68,.43-.13,.26-.09,.57,.09,.79l.88,1.1c.81,1.01,1.77,1.85,2.83,2.51l-.79,1.59c-.19,.37-.04,.82,.34,1.01,.11,.05,.22,.08,.33,.08,.27,0,.54-.15,.67-.41l.78-1.56c1.41,.63,2.95,.98,4.55,.98s3.14-.35,4.55-.98l.78,1.56c.13,.26,.4,.41,.67,.41,.11,0,.23-.03,.33-.08,.37-.19,.52-.64,.34-1.01l-.79-1.59c1.06-.66,2.02-1.51,2.83-2.51l.88-1.1c.18-.23,.22-.53,.09-.79Zm-6.93-4.68c0-.14,.11-.25,.25-.25h2c.14,0,.25,.11,.25,.25v4.25h-2.5v-4.25Zm-8,0c0-.14,.11-.25,.25-.25h2c.14,0,.25,.11,.25,.25v4.25h-2.5v-4.25Zm5.25,9.25c-2.9,0-5.6-1.27-7.44-3.5h14.88c-1.84,2.23-4.54,3.5-7.44,3.5Z"/><path d="M15.91,7.75h.19c.78-.03,1.46-.48,1.82-1.18,.36-.71,.31-1.57-.13-2.23l-1.17-1.75c-.14-.21-.37-.33-.62-.33s-.48,.13-.62,.33l-1.17,1.75c-.45,.67-.49,1.54-.12,2.26,.36,.7,1.04,1.13,1.82,1.16Zm-.45-2.58l.54-.81,.54,.82c.14,.22,.16,.48,.04,.72-.05,.1-.21,.35-.63,.36-.31,0-.47-.22-.53-.35-.1-.19-.14-.48,.04-.74Z"/><path d="M7.91,7.75h.19c.78-.03,1.46-.48,1.82-1.18,.36-.71,.31-1.57-.13-2.23l-1.17-1.75c-.14-.21-.37-.33-.62-.33s-.48,.13-.62,.33l-1.17,1.75c-.45,.67-.49,1.54-.12,2.26,.36,.7,1.04,1.13,1.82,1.16Zm-.45-2.58l.54-.81,.54,.82c.14,.22,.16,.48,.04,.72-.05,.1-.21,.35-.63,.36-.31,0-.47-.22-.53-.35-.1-.19-.14-.48,.04-.74Z"/></g></g></svg>