<?xml version="1.0" encoding="UTF-8"?><svg fill="currentColor" xmlns="http://www.w3.org/2000/svg" viewBox="0 0 24 24"><g id="l"><g><path d="M21.01,12.77c-.49-.68-.95-1.4-1.35-2.14-.45-.81-.71-1.43-.95-1.97-.29-.67-.56-1.3-1.12-2.14-.5-.76-1.56-2.34-3.25-3.2-3.27-1.65-7.64-.68-9.92,2.2-2.4,3.03-2.36,7.81,.08,10.02,.45,.4,.98,.72,1.58,.95,.11,.04,.17,.13,.17,.23v4.26c0,.41,.34,.75,.75,.75s.75-.34,.75-.75v-4.26c0-.73-.45-1.38-1.15-1.64-.42-.16-.79-.38-1.1-.66-1.87-1.69-1.83-5.56,.08-7.98,1.86-2.35,5.41-3.14,8.08-1.8,1.34,.67,2.24,2.03,2.71,2.75,.45,.67,.67,1.19,.96,1.85,.25,.57,.53,1.22,1.01,2.1,.36,.65,.75,1.28,1.17,1.89h-.51c-.96,0-1.75,.79-1.75,1.75v2c0,.14-.11,.25-.25,.25h-2c-.96,0-1.75,.79-1.75,1.75v2c0,.41,.34,.75,.75,.75s.75-.34,.75-.75v-2c0-.14,.11-.25,.25-.25h2c.96,0,1.75-.79,1.75-1.75v-2c0-.14,.11-.25,.25-.25h.99c.47,0,.9-.26,1.12-.68,.21-.42,.18-.91-.1-1.29Z"/><path d="M15.75,10.5c0-2.9-2.36-5.25-5.25-5.25s-5.25,2.35-5.25,5.25c0,.6,.1,1.19,.3,1.75,.14,.39,.57,.6,.96,.46,.39-.14,.59-.57,.46-.96-.14-.4-.21-.82-.21-1.25,0-2.07,1.68-3.75,3.75-3.75s3.75,1.68,3.75,3.75-1.68,3.75-3.75,3.75c-.43,0-.85-.07-1.25-.21-.39-.14-.82,.07-.96,.46-.14,.39,.07,.82,.46,.96,.56,.2,1.15,.3,1.75,.3,2.89,0,5.25-2.35,5.25-5.25Z"/><path d="M10.5,9.75c.41,0,.75,.34,.75,.75s.34,.75,.75,.75,.75-.34,.75-.75c0-1.24-1.01-2.25-2.25-2.25s-2.25,1.01-2.25,2.25,1.01,2.25,2.25,2.25c.41,0,.75-.34,.75-.75s-.34-.75-.75-.75-.75-.34-.75-.75,.34-.75,.75-.75Z"/></g></g></svg>