<?xml version="1.0" encoding="UTF-8"?><svg fill="currentColor" xmlns="http://www.w3.org/2000/svg" viewBox="0 0 24 24"><g id="f"><g><path d="M18.69,9.71c-.22-.52-.48-1.04-.75-1.54,.24-.22,.46-.46,.66-.72,1.24-1.65,1.25-3.55,1.15-4.53-.04-.38-.36-.67-.75-.67H5c-.38,0-.71,.29-.75,.67-.1,.98-.09,2.87,1.15,4.53,.19,.26,.42,.5,.66,.72-.27,.5-.53,1.02-.75,1.54-1.46,3.47-1.81,7.32-1.05,11.43,.07,.35,.38,.61,.74,.61h14c.36,0,.67-.26,.74-.61,.77-4.11,.41-7.96-1.05-11.43ZM5.71,3.75h12.57c0,.79-.18,1.86-.89,2.8-.19,.25-.41,.49-.66,.7H7.26c-.25-.21-.47-.44-.66-.7-.7-.94-.88-2.01-.89-2.8Zm12.65,16.5H5.63c-.57-3.59-.21-6.94,1.06-9.96,.22-.52,.47-1.04,.75-1.54h9.13c.28,.5,.53,1.02,.75,1.54,1.27,3.02,1.63,6.37,1.06,9.96Z"/><path d="M12,12.25c-2.62,0-4.75,2.13-4.75,4.75v1c0,.41,.34,.75,.75,.75h8c.41,0,.75-.34,.75-.75v-1c0-2.62-2.13-4.75-4.75-4.75Zm3.25,5h-6.5v-.25c0-1.79,1.46-3.25,3.25-3.25s3.25,1.46,3.25,3.25v.25Z"/></g></g></svg>