<?xml version="1.0" encoding="UTF-8"?><svg fill="currentColor" xmlns="http://www.w3.org/2000/svg" viewBox="0 0 24 24"><g id="q"><path d="M18.19,8.83c.18-1.1,.34-2.06,.14-3.54-.08-.61-.21-1.21-.38-1.8-.22-.74-.89-1.24-1.67-1.24H7.72c-.78,0-1.45,.5-1.67,1.24-.16,.53-.27,1.08-.35,1.63,0,.03-.03,.05-.03,.08-.02,.08-.01,.15,0,.23-.17,1.4-.02,2.34,.15,3.41,.11,.68,.23,1.38,.28,2.32,.06,1.06,0,1.56-.07,2.2-.08,.64-.17,1.36-.16,2.74,0,1.38,.09,2.78,.27,4.15,.11,.86,.86,1.51,1.74,1.51h2.11c.47,0,.92-.19,1.25-.52,.33-.34,.51-.79,.5-1.27-.02-.97,0-1.96,.03-2.93,.05-1.1,.13-2.2,.25-3.29,.12,1.1,.21,2.2,.25,3.29,.04,.97,.05,1.96,.03,2.93,0,.48,.17,.93,.5,1.27,.33,.34,.77,.52,1.25,.52h2.11c.88,0,1.62-.65,1.74-1.51,.18-1.37,.27-2.77,.27-4.15,0-1.38-.09-2.1-.16-2.74-.08-.64-.14-1.14-.07-2.2,.06-.95,.17-1.65,.28-2.32ZM7.72,3.75h8.56c.11,0,.2,.06,.23,.16,.08,.28,.15,.57,.21,.86-3.1,.62-6.33,.62-9.44,0,.06-.29,.13-.58,.21-.86,.03-.1,.12-.16,.23-.16Zm8.99,4.84c-.11,.68-.24,1.45-.3,2.48-.07,1.19,0,1.78,.08,2.47,.07,.59,.15,1.27,.15,2.55,0,1.32-.09,2.65-.26,3.96-.02,.12-.12,.21-.25,.21h-2.11c-.09,0-.14-.04-.17-.07-.03-.03-.07-.09-.07-.19,.02-1,0-2.02-.03-3.02-.11-2.72-.45-5.45-1.01-8.12-.07-.35-.38-.6-.73-.6s-.66,.25-.73,.6c-.56,2.67-.9,5.41-1.01,8.12-.04,1-.05,2.02-.03,3.02,0,.1-.04,.16-.07,.19-.03,.03-.09,.07-.17,.07h-2.11c-.13,0-.23-.09-.25-.21-.17-1.31-.26-2.64-.26-3.96,0-1.29,.08-1.96,.15-2.55,.08-.68,.15-1.28,.08-2.47-.06-1.02-.19-1.79-.3-2.48-.13-.8-.24-1.47-.2-2.32,1.62,.31,3.26,.48,4.91,.48s3.29-.17,4.91-.48c.03,.85-.07,1.52-.2,2.32Z"/></g></svg>