<?xml version="1.0" encoding="UTF-8"?><svg fill="currentColor" xmlns="http://www.w3.org/2000/svg" viewBox="0 0 24 24"><g id="d"><path d="M21.3,9.35c-.05-.33-.31-.59-.64-.64-.49-.07-2.89-.29-5.26,1.03-.39-1.35-1.21-3.04-2.96-4.35-.27-.2-.64-.2-.9,0-.43,.33-2.24,1.81-2.98,4.35-2.34-1.27-4.69-1.05-5.16-.98-.33,.05-.59,.31-.64,.64-.55,3.88,1.85,6.51,2.33,7,2.06,2.06,4.54,2.4,5.96,2.4,.5,0,.86-.04,1.04-.07,.02,0,.03-.01,.05-.02,.02,0,.05,0,.07-.01,.2,.02,.46,.04,.78,.04,1.42,0,3.9-.34,5.96-2.4,.49-.49,2.89-3.11,2.33-7Zm-9.29-2.37c2.17,1.96,2.24,4.7,2.24,5.02,0,2.56-1.48,4.29-2.26,5.02-2.17-1.96-2.24-4.7-2.24-5.02,0-2.56,1.48-4.29,2.26-5.02Zm-7.81,3.24c.87-.03,2.53,.09,4.08,1.09-.02,.23-.03,.46-.03,.7,0,.57,.11,3.06,1.89,5.24-1.16-.15-2.68-.6-3.97-1.9-.23-.23-2.12-2.21-1.97-5.14Zm13.71,5.08c-1.32,1.32-2.87,1.77-4.04,1.9,.9-1.12,1.88-2.86,1.88-5.19,0-.13,0-.38-.04-.7,1.58-1.06,3.26-1.18,4.16-1.15,.15,2.93-1.74,4.91-1.97,5.14Z"/></g></svg>