<?xml version="1.0" encoding="UTF-8"?><svg fill="currentColor" xmlns="http://www.w3.org/2000/svg" viewBox="0 0 24 24"><g id="i"><path d="M19,11.25h-1.34l-.42-3.37c-.33-2.64-2.58-4.63-5.24-4.63s-4.91,1.99-5.24,4.63l-.42,3.37h-1.34c-1.52,0-2.75,1.23-2.75,2.75v3c0,1.52,1.23,2.75,2.75,2.75h14c1.52,0,2.75-1.23,2.75-2.75v-3c0-1.52-1.23-2.75-2.75-2.75Zm-10.75-3.19c.24-1.89,1.85-3.31,3.75-3.31s3.52,1.42,3.75,3.31l.4,3.19H7.85l.4-3.19Zm8,4.69v5.5H7.75v-5.5h8.5ZM3.75,17v-3c0-.69,.56-1.25,1.25-1.25h1.25v5.5h-1.25c-.69,0-1.25-.56-1.25-1.25Zm16.5,0c0,.69-.56,1.25-1.25,1.25h-1.25v-5.5h1.25c.69,0,1.25,.56,1.25,1.25v3Z"/></g></svg>