<?xml version="1.0" encoding="UTF-8"?><svg fill="currentColor" xmlns="http://www.w3.org/2000/svg" viewBox="0 0 24 24"><g id="m"><g><path d="M16,2.25H8c-1.52,0-2.75,1.23-2.75,2.75v14c0,1.52,1.23,2.75,2.75,2.75h8c1.52,0,2.75-1.23,2.75-2.75V5c0-1.52-1.23-2.75-2.75-2.75Zm1.25,16.75c0,.69-.56,1.25-1.25,1.25H8c-.69,0-1.25-.56-1.25-1.25V5c0-.69,.56-1.25,1.25-1.25h8c.69,0,1.25,.56,1.25,1.25v14Z"/><path d="M14.82,15.39l-2.07-.89v-1.46l2.01,.67c.08,.03,.16,.04,.24,.04,.31,0,.61-.2,.71-.51,.13-.39-.08-.82-.47-.95l-2.49-.83v-.83c1.15-.33,2-1.38,2-2.63,0-1.52-1.23-2.75-2.75-2.75s-2.75,1.23-2.75,2.75c0,1.25,.85,2.3,2,2.63v.83l-2.49,.83c-.39,.13-.61,.56-.47,.95,.13,.39,.55,.6,.95,.47l2.01-.67v1.46l-2.07,.89c-.77,.33-1.19,1.14-1.02,1.96,.17,.84,.86,1.4,1.71,1.4h4.26c.85,0,1.54-.56,1.71-1.4,.17-.82-.25-1.63-1.02-1.96Zm-4.07-7.39c0-.69,.56-1.25,1.25-1.25s1.25,.56,1.25,1.25-.56,1.25-1.25,1.25-1.25-.56-1.25-1.25Zm3.38,9.25h-4.26c-.14,0-.22-.07-.25-.2s.02-.23,.15-.28l2.23-.95,2.23,.95c.13,.05,.17,.15,.15,.28s-.11,.2-.25,.2Z"/></g></g></svg>