<?xml version="1.0" encoding="UTF-8"?><svg fill="currentColor" xmlns="http://www.w3.org/2000/svg" viewBox="0 0 24 24"><g id="h"><g><path d="M21.7,15.26c.03-.07,.04-.15,.05-.23,0-.03,0-.05,0-.07,0-.07-.02-.14-.04-.21,0-.01,0-.03-.01-.04-.03-.07-.07-.14-.12-.2l-5.24-6.11c-.67-.78-1.99-.78-2.66,0l-5.02,5.85H4.6l3.21-3.85c.13-.16,.25-.16,.38,0l.23,.28c.26,.32,.74,.36,1.06,.1,.32-.27,.36-.74,.1-1.06l-.23-.28c-.67-.8-2.02-.8-2.69,0L2.42,14.52c-.05,.06-.09,.12-.11,.19,0,.01,0,.02,0,.03-.03,.07-.04,.14-.04,.22,0,.03,0,.05,0,.08,0,.07,.02,.14,.04,.21,0,.01,0,.03,0,.04,1.63,3.9,5.41,6.44,9.63,6.46h.06c4.23,0,8.02-2.52,9.67-6.43h0v-.03s.01-.02,.02-.03Zm-6.89-5.89c.13-.15,.25-.15,.38,0l4.18,4.88H10.63l4.18-4.88Zm-2.86,10.88c-3.22-.02-6.14-1.75-7.73-4.5h15.56c-1.61,2.78-4.59,4.52-7.83,4.5Z"/><path d="M10,7.75c1.52,0,2.75-1.23,2.75-2.75s-1.23-2.75-2.75-2.75-2.75,1.23-2.75,2.75,1.23,2.75,2.75,2.75Zm0-4c.69,0,1.25,.56,1.25,1.25s-.56,1.25-1.25,1.25-1.25-.56-1.25-1.25,.56-1.25,1.25-1.25Z"/></g></g></svg>