<?xml version="1.0" encoding="UTF-8"?><svg fill="currentColor" xmlns="http://www.w3.org/2000/svg" viewBox="0 0 24 24"><g id="n"><path d="M22.02,14c-.13-.53-.51-.95-1.02-1.12-1.35-.45-2.83-.11-3.84,.91l-.4,.4s-.11,.07-.18,.07h-.37l.3-.61c.17-.35,.23-.75,.15-1.13l-.86-4.29c-.06-.31-.25-.57-.52-.73s-.59-.19-.89-.09c-1.85,.62-2.92,2.58-2.45,4.47l.16,.62c.03,.1-.02,.21-.1,.27l-1.29,.86c-.35,.24-.83,.19-1.13-.11-.32-.32-.35-.84-.07-1.2l1.4-1.75c1.19-1.49,1.08-3.64-.28-4.99-.35-.35-.92-.35-1.26,0L2.76,12.18c-.33,.33-.51,.77-.51,1.24v4.59c0,.96,.79,1.75,1.75,1.75H13s.1,0,.15-.01l4.7-.94h0c.34-.07,.65-.23,.89-.48l2.86-2.86c.38-.38,.54-.93,.42-1.46ZM3.75,18v-4.59c0-.07,.03-.13,.07-.18l6.12-6.12c.44,.78,.38,1.78-.2,2.51l-1.4,1.75c-.77,.96-.69,2.33,.18,3.2,.81,.81,2.08,.93,3.03,.3l1.29-.86c.61-.41,.91-1.17,.73-1.88l-.16-.62c-.24-.98,.2-1.99,1.04-2.48l.76,3.78c.01,.05,0,.11-.02,.16l-.85,1.69h0l-1.79,3.59H4c-.14,0-.25-.11-.25-.25Zm13.93-.75s-.08,.06-.13,.07l-3.2,.64,.85-1.71,.25-.51h1.12c.46,0,.91-.19,1.24-.51l.4-.4c.61-.61,1.49-.82,2.33-.45l-2.86,2.86Z"/></g></svg>