<?xml version="1.0" encoding="UTF-8"?><svg fill="currentColor" xmlns="http://www.w3.org/2000/svg" viewBox="0 0 24 24"><g id="k"><g><path d="M21.75,13.5c0-2.23-5.05-3.25-9.75-3.25s-9.75,1.02-9.75,3.25c0,.1,.02,.2,.04,.29-.02,.07-.04,.13-.04,.21,0,4.27,3.93,7.75,8.75,7.75h2c4.82,0,8.75-3.48,8.75-7.75,0-.07-.02-.14-.04-.21,.02-.1,.04-.19,.04-.29Zm-9.75-1.75c5.42,0,8.12,1.26,8.25,1.75-.13,.49-2.83,1.75-8.25,1.75s-8.14-1.27-8.25-1.74c.11-.48,2.81-1.76,8.25-1.76Zm1,8.5h-2c-3.42,0-6.29-2.06-7.05-4.81,1.88,.89,5.03,1.31,8.05,1.31s6.17-.42,8.05-1.31c-.76,2.75-3.63,4.81-7.05,4.81Z"/><path d="M10.74,8.44c.39,.2,.83,.31,1.26,.31s.87-.11,1.26-.31c1.23-.64,1.73-2.18,1.15-3.52-.22-.5-.49-.96-.82-1.38-.33-.42-.71-.8-1.13-1.13-.27-.21-.65-.21-.92,0-.42,.33-.8,.71-1.13,1.13-.33,.42-.6,.89-.82,1.38-.58,1.33-.08,2.88,1.15,3.52Zm.23-2.92c.17-.38,.38-.74,.63-1.06,.13-.16,.26-.32,.41-.46,.15,.15,.28,.3,.41,.46,.25,.32,.46,.68,.63,1.06,.26,.6,.05,1.32-.47,1.59-.36,.19-.78,.19-1.14,0-.52-.27-.73-.98-.47-1.59Z"/></g></g></svg>