<?xml version="1.0" encoding="UTF-8"?><svg fill="currentColor" xmlns="http://www.w3.org/2000/svg" viewBox="0 0 24 24"><g id="p"><path d="M21.53,14.47c-.29-.29-.77-.29-1.06,0l-1.41,1.41c-.09,.09-.2,.15-.31,.2v-.26c0-.73-.29-1.43-.81-1.94l-.17-.17,.97-10.65c.04-.41-.27-.78-.68-.81-.41-.04-.78,.27-.81,.68l-.94,10.32h-.63l-.94-10.32c-.04-.41-.42-.72-.81-.68-.41,.04-.72,.4-.68,.81l.97,10.65-.17,.17c-.52,.52-.81,1.21-.81,1.94v.42h-2.5v-.42c0-.73-.29-1.43-.81-1.94l-.17-.17,.97-10.65c.04-.41-.27-.78-.68-.81-.41-.04-.78,.27-.81,.68l-.94,10.32h-.63l-.94-10.32c-.04-.41-.41-.72-.81-.68-.41,.04-.72,.4-.68,.81l.97,10.65-.17,.17c-.52,.52-.81,1.21-.81,1.94v.26c-.11-.06-.22-.12-.31-.2l-1.41-1.41c-.29-.29-.77-.29-1.06,0s-.29,.77,0,1.06l1.41,1.41c.52,.52,1.21,.81,1.94,.81h3.74c-.19,.38-.31,.8-.31,1.25,0,1.52,1.23,2.75,2.75,2.75s2.75-1.23,2.75-2.75c0-.45-.12-.87-.31-1.25h3.74c.73,0,1.43-.29,1.94-.81l1.41-1.41c.29-.29,.29-.77,0-1.06Zm-14.78,1.78v-.42c0-.33,.13-.65,.37-.88l.19-.19h1.38l.19,.19c.24,.24,.37,.55,.37,.88v.42h-2.5Zm5.25,4c-.69,0-1.25-.56-1.25-1.25s.56-1.25,1.25-1.25,1.25,.56,1.25,1.25-.56,1.25-1.25,1.25Zm2.75-4v-.42c0-.33,.13-.65,.37-.88l.19-.19h1.38l.19,.19c.24,.24,.37,.55,.37,.88v.42h-2.5Z"/></g></svg>