<?xml version="1.0" encoding="UTF-8"?><svg fill="currentColor" xmlns="http://www.w3.org/2000/svg" viewBox="0 0 24 24"><g id="j"><path d="M21.39,19.36l-1.57-.94c-.75-.45-1.54-.82-2.35-1.13,.89-.49,1.57-1.34,1.83-2.38,.16-.64,.02-1.31-.39-1.84-.41-.52-1.02-.82-1.69-.82h-.37c.32-.92,.04-1.9-.72-2.51-1.06-.85-2.37-1.34-3.72-1.45,.21-.39,.34-.82,.34-1.3,0-1.52-1.23-2.75-2.75-2.75h-1c-1.52,0-2.75,1.23-2.75,2.75,0,.49,.14,.95,.37,1.35-.68,.2-1.22,.71-1.47,1.4-.32,.92-.04,1.9,.72,2.5,.06,.05,.13,.08,.19,.13-.38,.13-.72,.36-.97,.69-.41,.52-.55,1.19-.39,1.84,.26,1.04,.94,1.89,1.83,2.38-.81,.31-1.6,.68-2.35,1.13l-1.57,.94c-.35,.21-.47,.67-.26,1.03,.21,.36,.67,.47,1.03,.26l1.57-.94c4.25-2.55,9.83-2.55,14.09,0l1.57,.94c.12,.07,.25,.11,.39,.11,.25,0,.5-.13,.64-.36,.21-.35,.1-.82-.26-1.03ZM9,5.75h1c.69,0,1.25,.56,1.25,1.25s-.56,1.25-1.25,1.25h-1c-.69,0-1.25-.56-1.25-1.25s.56-1.25,1.25-1.25Zm-2.43,4.5c.04-.12,.21-.5,.71-.5h4.6c1.2,0,2.38,.41,3.32,1.17,.39,.31,.28,.72,.24,.83-.04,.12-.21,.5-.71,.5h-4.6c-1.2,0-2.38-.41-3.32-1.17-.39-.31-.28-.72-.24-.83Zm-.29,3.74c.12-.16,.31-.25,.5-.25h10.44c.2,0,.38,.09,.5,.25s.16,.36,.12,.55c-.25,1-1.15,1.7-2.18,1.7h-7.32c-1.03,0-1.93-.7-2.18-1.7-.05-.19,0-.39,.12-.55Z"/></g></svg>