<?xml version="1.0" encoding="UTF-8"?><svg fill="currentColor" xmlns="http://www.w3.org/2000/svg" viewBox="0 0 24 24"><g id="b"><path d="M21.07,10.4c-.21-.45-.32-.9-.32-1.33V4c0-.96-.79-1.75-1.75-1.75h-1c-.96,0-1.75,.79-1.75,1.75v4c0,2.34-1.91,4.25-4.25,4.25s-4.25-1.91-4.25-4.25V4c0-.96-.79-1.75-1.75-1.75h-1c-.96,0-1.75,.79-1.75,1.75v5.06c0,.44-.11,.88-.32,1.33-.38,.81-.8,2.09-.68,3.66,.07,.9,.3,1.77,.7,2.59,.2,.41,.3,.85,.3,1.29v2.06c0,.96,.79,1.75,1.75,1.75h14c.96,0,1.75-.79,1.75-1.75v-2.06c0-.45,.1-.88,.3-1.29,.39-.82,.63-1.7,.7-2.59,.12-1.57-.3-2.85-.68-3.66Zm-1.37,5.6c-.3,.62-.45,1.27-.45,1.94v2.06c0,.14-.11,.25-.25,.25H5c-.14,0-.25-.11-.25-.25v-2.06c0-.67-.15-1.33-.45-1.94-.31-.66-.5-1.35-.55-2.06-.09-1.24,.24-2.27,.54-2.91,.3-.65,.46-1.31,.46-1.97V4c0-.14,.11-.25,.25-.25h1c.14,0,.25,.11,.25,.25v4c0,3.17,2.58,5.75,5.75,5.75s5.75-2.58,5.75-5.75V4c0-.14,.11-.25,.25-.25h1c.14,0,.25,.11,.25,.25v5.06c0,.66,.15,1.32,.46,1.97,.3,.64,.64,1.67,.54,2.91-.05,.71-.24,1.4-.55,2.06Z"/></g></svg>