<?xml version="1.0" encoding="UTF-8"?><svg fill="currentColor" xmlns="http://www.w3.org/2000/svg" viewBox="0 0 24 24"><g id="r"><g><path d="M12,2.25h-.59c-.54,0-1.07,.09-1.58,.25C5.5,3.49,2.25,7.37,2.25,12c0,5.38,4.37,9.75,9.75,9.75h.59c.54,0,1.07-.09,1.58-.25,4.33-.99,7.58-4.87,7.58-9.5,0-5.38-4.37-9.75-9.75-9.75Zm3.71,16.33c-.47,.71-1.16,1.22-1.95,1.47-.57,.12-1.16,.2-1.77,.2-4.55,0-8.25-3.7-8.25-8.25,0-2.38,1.02-4.52,2.63-6.03-.41,1.31-.28,2.73,.4,4,.93,1.74,2.66,2.77,4.63,2.77h1.18c1.41,0,2.64,.74,3.31,1.98s.59,2.68-.19,3.85Zm1.91-.56c.41-1.31,.28-2.73-.4-4-.93-1.74-2.66-2.77-4.63-2.77h-1.18c-1.41,0-2.64-.74-3.31-1.98s-.59-2.68,.19-3.85c.47-.71,1.16-1.22,1.95-1.47,.57-.12,1.16-.2,1.77-.2,4.55,0,8.25,3.7,8.25,8.25,0,2.38-1.02,4.52-2.63,6.03Z"/><circle cx="12" cy="8" r="1.75"/><circle cx="12" cy="16" r="1.75"/></g></g></svg>