<?xml version="1.0" encoding="UTF-8"?><svg fill="currentColor" xmlns="http://www.w3.org/2000/svg" viewBox="0 0 24 24"><g id="u"><path d="M20,6.25H9.75v-.25c0-2.07-1.68-3.75-3.75-3.75s-3.75,1.68-3.75,3.75v12c0,2.07,1.68,3.75,3.75,3.75h14c.96,0,1.75-.79,1.75-1.75V8c0-.96-.79-1.75-1.75-1.75ZM6,3.75c1.24,0,2.25,1.01,2.25,2.25V15.02c-.63-.48-1.4-.77-2.25-.77s-1.62,.29-2.25,.77V6c0-1.24,1.01-2.25,2.25-2.25Zm-2.25,14.25c0-1.24,1.01-2.25,2.25-2.25s2.25,1.01,2.25,2.25-1.01,2.25-2.25,2.25-2.25-1.01-2.25-2.25Zm16.5,2c0,.14-.11,.25-.25,.25H8.98c.48-.63,.77-1.4,.77-2.25V7.75h10.25c.14,0,.25,.11,.25,.25v12Z"/></g></svg>