<?xml version="1.0" encoding="UTF-8"?><svg fill="currentColor" xmlns="http://www.w3.org/2000/svg" viewBox="0 0 24 24"><g id="o"><g><path d="M14.75,13c0-.73-.29-1.43-.81-1.94-1.04-1.04-2.85-1.04-3.89,0-.52,.52-.81,1.21-.81,1.94s.29,1.42,.81,1.94,1.21,.81,1.94,.81,1.43-.29,1.94-.81c.52-.52,.81-1.21,.81-1.94Zm-1.87,.88c-.47,.47-1.29,.47-1.77,0-.24-.24-.37-.55-.37-.88s.13-.65,.37-.88,.55-.37,.88-.37,.65,.13,.88,.37,.37,.55,.37,.88-.13,.65-.37,.88Z"/><path d="M20.38,10.18c-.18-.24-.49-.35-.79-.27-.29,.08-.51,.32-.55,.63-.11,.79-.48,2.31-1.76,3.57-.51,.5-1.1,.9-1.76,1.2-.81,.36-1.44,1.09-1.66,1.95-.21,.79-.06,1.61,.44,2.28,.48,.63,1.18,1.04,1.96,1.15,.14,.02,.27,.03,.41,.03,.64,0,1.27-.21,1.79-.6l.62-.47c2.97-2.25,3.55-6.49,1.3-9.46Zm-.18,4.79c-.19,1.39-.91,2.62-2.03,3.47l-.62,.47c-.31,.24-.7,.34-1.09,.28-.39-.05-.73-.26-.98-.58-.28-.38-.23-.77-.17-.98,.11-.42,.42-.78,.82-.96,.83-.37,1.57-.87,2.2-1.5,.82-.81,1.35-1.7,1.68-2.51,.23,.74,.3,1.52,.2,2.31Z"/><path d="M7.77,8.88c.71-.37,2.16-.95,3.93-.64,.7,.12,1.37,.37,2,.74,.46,.27,.99,.41,1.52,.41,.35,0,.7-.06,1.03-.19,.76-.29,1.34-.89,1.6-1.69,.49-1.56-.39-3.23-1.95-3.72l-.75-.23c-3.55-1.11-7.35,.88-8.46,4.43-.09,.29,0,.61,.24,.8,.23,.19,.56,.23,.83,.09Zm2.94-3.52c1.24-.65,2.66-.78,4-.36l.75,.23c.77,.24,1.21,1.07,.96,1.86-.15,.44-.5,.64-.7,.71-.41,.15-.88,.11-1.26-.11-.78-.46-1.62-.77-2.5-.92-.44-.08-.87-.11-1.28-.11-.64,0-1.22,.08-1.74,.2,.46-.62,1.06-1.13,1.76-1.5Z"/><path d="M10.73,18.97c-.67-.43-1.89-1.41-2.49-3.11-.24-.67-.35-1.38-.33-2.1,.02-.89-.38-1.76-1.06-2.33-.63-.52-1.43-.74-2.25-.57-1.6,.34-2.63,1.92-2.29,3.52l.16,.76c.67,3.17,3.48,5.35,6.6,5.35,.46,0,.93-.05,1.4-.15,.3-.06,.53-.3,.58-.6s-.08-.6-.33-.77ZM3.94,14.83h0l-.16-.76c-.17-.79,.34-1.57,1.15-1.75,.08-.02,.15-.02,.22-.02,.35,0,.61,.17,.74,.28,.33,.28,.53,.71,.52,1.15-.02,.9,.12,1.79,.42,2.63,.38,1.09,.97,1.94,1.56,2.58-2.14-.29-3.97-1.88-4.44-4.11Z"/></g></g></svg>