<svg fill="currentColor" xmlns="http://www.w3.org/2000/svg" viewBox="0 0 32 32"><g id="binary"><path d="M22,2H9A3,3,0,0,0,6,5V27a3,3,0,0,0,3,3H22a3,3,0,0,0,3-3V5A3,3,0,0,0,22,2ZM18.61,4l-.18.54A.65.65,0,0,1,17.8,5H13.2a.65.65,0,0,1-.63-.46L12.39,4ZM23,27a1,1,0,0,1-1,1H9a1,1,0,0,1-1-1V5A1,1,0,0,1,9,4h1.25l.39,1.18A2.67,2.67,0,0,0,13.2,7h4.6a2.67,2.67,0,0,0,2.53-1.82L20.72,4H22a1,1,0,0,1,1,1Z"/><path d="M11,16a1,1,0,0,0,1-1V10a1,1,0,0,0-2,0v5A1,1,0,0,0,11,16Z"/><path d="M15.5,9A2.5,2.5,0,0,0,13,11.5v2a2.5,2.5,0,0,0,5,0v-2A2.5,2.5,0,0,0,15.5,9Zm.5,4.5a.5.5,0,0,1-1,0v-2a.5.5,0,0,1,1,0Z"/><path d="M20,9a1,1,0,0,0-1,1v5a1,1,0,0,0,2,0V10A1,1,0,0,0,20,9Z"/><path d="M20,18a1,1,0,0,0-1,1v5a1,1,0,0,0,2,0V19A1,1,0,0,0,20,18Z"/><path d="M12.5,18A2.5,2.5,0,0,0,10,20.5v2a2.5,2.5,0,0,0,5,0v-2A2.5,2.5,0,0,0,12.5,18Zm.5,4.5a.5.5,0,0,1-1,0v-2a.5.5,0,0,1,1,0Z"/><path d="M17,18a1,1,0,0,0-1,1v5a1,1,0,0,0,2,0V19A1,1,0,0,0,17,18Z"/></g></svg>