<svg fill="currentColor" xmlns="http://www.w3.org/2000/svg" viewBox="0 0 32 32"><g id="cmd"><path d="M29,21H28V9.14A3.15,3.15,0,0,0,24.86,6H7.14A3.15,3.15,0,0,0,4,9.14V21H3a1,1,0,0,0-1,1v1.84A3.17,3.17,0,0,0,5.16,27H26.84A3.17,3.17,0,0,0,30,23.84V22A1,1,0,0,0,29,21ZM6,9.14A1.14,1.14,0,0,1,7.14,8H24.86A1.14,1.14,0,0,1,26,9.14V21H19a1,1,0,0,0-.71.29l-.7.71H14.41l-.7-.71A1,1,0,0,0,13,21H6Zm22,14.7A1.16,1.16,0,0,1,26.84,25H5.16A1.16,1.16,0,0,1,4,23.84V23h8.59l.7.71A1,1,0,0,0,14,24h4a1,1,0,0,0,.71-.29l.7-.71H28Z"/><path d="M12,16H10.41a.41.41,0,0,1-.41-.41V13.41a.41.41,0,0,1,.41-.41H12a1,1,0,0,0,0-2H10.41A2.41,2.41,0,0,0,8,13.41v2.18A2.41,2.41,0,0,0,10.41,18H12a1,1,0,0,0,0-2Z"/><path d="M15,14a1,1,0,0,0,0-2h0a1,1,0,0,0,0,2Z"/><path d="M15,17a1,1,0,0,0,0-2h0a1,1,0,0,0,0,2Z"/><path d="M19,18l.2,0A1,1,0,0,0,20,16.8l-1-5a1,1,0,1,0-2,.4l1,5A1,1,0,0,0,19,18Z"/></g></svg>