<svg fill="currentColor" xmlns="http://www.w3.org/2000/svg" viewBox="0 0 32 32"><g id="html"><path d="M29.36,2.91a2.6,2.6,0,0,0-2-.91H4.63a2.6,2.6,0,0,0-2,.91A2.64,2.64,0,0,0,2,5l2.6,17.25a3.6,3.6,0,0,0,1.72,2.57l7.79,4.65A3.56,3.56,0,0,0,16,30a3.64,3.64,0,0,0,1.86-.51l7.79-4.66a3.6,3.6,0,0,0,1.72-2.57L30,5A2.64,2.64,0,0,0,29.36,2.91ZM25.4,22a1.66,1.66,0,0,1-.77,1.14l-7.79,4.66a1.63,1.63,0,0,1-1.68,0L7.37,23.11A1.66,1.66,0,0,1,6.6,22L4,4.72a.6.6,0,0,1,.14-.5A.64.64,0,0,1,4.63,4H27.37a.64.64,0,0,1,.48.22.6.6,0,0,1,.14.5Z"/><path d="M11.41,8H23a1,1,0,0,0,0-2H11.41a3,3,0,0,0-3,3.55l.32,1.91a3,3,0,0,0,3,2.54H21a1,1,0,0,1,1,1V18a1,1,0,0,1-.44.85l-4.95,3.54a1.05,1.05,0,0,1-1.22,0l-5-3.54A1,1,0,0,1,10,18V17a1,1,0,0,0-2,0V18a3.07,3.07,0,0,0,1.28,2.48l5,3.54a3.09,3.09,0,0,0,1.77.56A3,3,0,0,0,17.77,24l5-3.53A3.09,3.09,0,0,0,24,18V15a3.05,3.05,0,0,0-3-3H11.73a1.05,1.05,0,0,1-1-.87l-.32-1.91a1.06,1.06,0,0,1,1-1.22Z"/></g></svg>