<svg fill="currentColor" xmlns="http://www.w3.org/2000/svg" viewBox="0 0 32 32"><g id="javascript"><path d="M29.37,2.92a2.61,2.61,0,0,0-2-.92H4.63A2.62,2.62,0,0,0,2,5l2.6,17.25a3.6,3.6,0,0,0,1.72,2.57l7.79,4.66a3.65,3.65,0,0,0,3.72,0l7.79-4.66a3.64,3.64,0,0,0,1.73-2.57L30,5A2.63,2.63,0,0,0,29.37,2.92Zm-4,19a1.63,1.63,0,0,1-.77,1.14l-7.79,4.66a1.63,1.63,0,0,1-1.68,0L7.37,23.11A1.63,1.63,0,0,1,6.6,22L4,4.71a.59.59,0,0,1,.14-.49A.64.64,0,0,1,4.63,4H27.37a.64.64,0,0,1,.48.22.6.6,0,0,1,.14.5Z"/><path d="M14,6H8A1,1,0,0,0,8,8h5V21.38l-2.18-1.09L10,17.68a1,1,0,1,0-1.9.64l1,3a1,1,0,0,0,.5.57l4,2A1,1,0,0,0,14,24a1,1,0,0,0,.53-.15A1,1,0,0,0,15,23V7A1,1,0,0,0,14,6Z"/><path d="M24,6H18a1,1,0,0,0-1,1v7a1,1,0,0,0,1,1h3.85l-.77,5.34-3.53,1.77a1,1,0,0,0-.44,1.34A1,1,0,0,0,18,24a.93.93,0,0,0,.45-.11l4-2a1,1,0,0,0,.54-.75l1-7a1,1,0,0,0-.23-.8A1,1,0,0,0,23,13H19V8h3.38l-.27.55a1,1,0,0,0,1.78.9l1-2A1,1,0,0,0,24,6Z"/></g></svg>