<svg fill="currentColor" xmlns="http://www.w3.org/2000/svg" viewBox="0 0 32 32"><g id="manual_book" data-name="manual book"><path d="M23.47,6H23V3a1,1,0,0,0-1-1H7A3,3,0,0,0,4,5V27.47A2.53,2.53,0,0,0,6.53,30H23.47A2.53,2.53,0,0,0,26,27.47V8.53A2.53,2.53,0,0,0,23.47,6ZM7,4H21V6H7A1,1,0,0,1,7,4ZM24,27.47a.53.53,0,0,1-.53.53H6.53A.53.53,0,0,1,6,27.47V7.82A3,3,0,0,0,7,8H23.47a.53.53,0,0,1,.53.53Z"/><path d="M11.71,14.29a1,1,0,0,0-1.42,0l-3,3a1,1,0,0,0,0,1.42l3,3a1,1,0,0,0,1.42,0,1,1,0,0,0,0-1.42L9.41,18l2.3-2.29A1,1,0,0,0,11.71,14.29Z"/><path d="M19.71,14.29a1,1,0,0,0-1.42,1.42L20.59,18l-2.3,2.29a1,1,0,0,0,0,1.42,1,1,0,0,0,1.42,0l3-3a1,1,0,0,0,0-1.42Z"/><path d="M16.24,13a1,1,0,0,0-1.21.73l-2,8A1,1,0,0,0,13.76,23,1,1,0,0,0,15,22.24l2-8A1,1,0,0,0,16.24,13Z"/></g></svg>