<svg fill="currentColor" xmlns="http://www.w3.org/2000/svg" viewBox="0 0 32 32"><g id="mobile"><path d="M21.29,2H10.71A3.71,3.71,0,0,0,7,5.71V26.29A3.71,3.71,0,0,0,10.71,30H21.29A3.71,3.71,0,0,0,25,26.29V5.71A3.71,3.71,0,0,0,21.29,2ZM18.61,4l-.23.69A.45.45,0,0,1,18,5h-3.9a.45.45,0,0,1-.43-.31L13.39,4ZM23,26.29A1.71,1.71,0,0,1,21.29,28H10.71A1.71,1.71,0,0,1,9,26.29V5.71A1.72,1.72,0,0,1,10.71,4h.57l.44,1.32A2.45,2.45,0,0,0,14.05,7H18a2.45,2.45,0,0,0,2.33-1.68L20.72,4h.57A1.72,1.72,0,0,1,23,5.71Z"/><path d="M11.71,12.29a1,1,0,0,0-1.42,1.42L12.59,16l-2.3,2.29a1,1,0,0,0,0,1.42,1,1,0,0,0,1.42,0l3-3a1,1,0,0,0,0-1.42Z"/><path d="M21,17H17a1,1,0,0,0,0,2h4a1,1,0,0,0,0-2Z"/></g></svg>