<svg fill="currentColor" xmlns="http://www.w3.org/2000/svg" viewBox="0 0 32 32"><g id="programming_2" data-name="programming 2"><path d="M26.5,5H5.5A3.5,3.5,0,0,0,2,8.5v13A3.5,3.5,0,0,0,5.5,25H7v4a1,1,0,0,0,.62.92A.84.84,0,0,0,8,30a1,1,0,0,0,.71-.29L13.41,25H26.5A3.5,3.5,0,0,0,30,21.5V8.5A3.5,3.5,0,0,0,26.5,5ZM28,21.5A1.5,1.5,0,0,1,26.5,23H13a1,1,0,0,0-.71.29L9,26.59V24a1,1,0,0,0-1-1H5.5A1.5,1.5,0,0,1,4,21.5V8.5A1.5,1.5,0,0,1,5.5,7h21A1.5,1.5,0,0,1,28,8.5Z"/><path d="M11.71,10.29a1,1,0,0,0-1.42,0l-4,4a1,1,0,0,0,0,1.42l4,4a1,1,0,0,0,1.42,0,1,1,0,0,0,0-1.42L8.41,15l3.3-3.29A1,1,0,0,0,11.71,10.29Z"/><path d="M21.71,10.29a1,1,0,0,0-1.42,1.42L23.59,15l-3.3,3.29a1,1,0,0,0,0,1.42,1,1,0,0,0,1.42,0l4-4a1,1,0,0,0,0-1.42Z"/><path d="M18.37,9.07a1,1,0,0,0-1.3.56l-4,10a1,1,0,0,0,.56,1.3A1,1,0,0,0,14,21a1,1,0,0,0,.93-.63l4-10A1,1,0,0,0,18.37,9.07Z"/></g></svg>