<svg fill="currentColor" xmlns="http://www.w3.org/2000/svg" viewBox="0 0 32 32"><g id="shield"><path d="M28.11,3.24A3.77,3.77,0,0,0,25.3,2H6.7A3.77,3.77,0,0,0,3.89,3.24,3.47,3.47,0,0,0,3,5.93L4.68,20.82a6.58,6.58,0,0,0,2.68,4.57l4.37,3.22A7.21,7.21,0,0,0,16,30h0a7.21,7.21,0,0,0,4.26-1.39l4.37-3.22a6.58,6.58,0,0,0,2.68-4.57L29,5.93A3.47,3.47,0,0,0,28.11,3.24ZM26.62,4.57A1.47,1.47,0,0,1,27,5.71L26.63,9H17V4h8.3A1.79,1.79,0,0,1,26.62,4.57Zm-21.24,0A1.79,1.79,0,0,1,6.7,4H15V9H5.37L5,5.71A1.47,1.47,0,0,1,5.38,4.57ZM8.54,23.78a4.64,4.64,0,0,1-1.88-3.19L5.6,11H15V27.9a5.32,5.32,0,0,1-2.09-.9Zm14.92,0L19.09,27a5.32,5.32,0,0,1-2.09.9V11h9.4l-1.06,9.59A4.64,4.64,0,0,1,23.46,23.78Z"/></g></svg>