<svg fill="currentColor" xmlns="http://www.w3.org/2000/svg" viewBox="0 0 32 32"><g id="structure"><path d="M27.63,20H27V19a3,3,0,0,0-3-3H17V14h6.63A2.38,2.38,0,0,0,26,11.63V7.38A2.38,2.38,0,0,0,23.63,5H8.38A2.39,2.39,0,0,0,6,7.38v4.25A2.38,2.38,0,0,0,8.38,14H15v2H8a3,3,0,0,0-3,3v1H4.38A2.39,2.39,0,0,0,2,22.38v3.25A2.38,2.38,0,0,0,4.38,28H7.63A2.38,2.38,0,0,0,10,25.63V22.38A2.38,2.38,0,0,0,7.63,20H7V19a1,1,0,0,1,1-1h7v2h-.62A2.39,2.39,0,0,0,12,22.38v3.25A2.38,2.38,0,0,0,14.38,28h3.25A2.38,2.38,0,0,0,20,25.63V22.38A2.38,2.38,0,0,0,17.63,20H17V18h7a1,1,0,0,1,1,1v1h-.62A2.39,2.39,0,0,0,22,22.38v3.25A2.38,2.38,0,0,0,24.38,28h3.25A2.38,2.38,0,0,0,30,25.63V22.38A2.38,2.38,0,0,0,27.63,20ZM8,11.63V7.38A.38.38,0,0,1,8.38,7H23.63a.38.38,0,0,1,.37.38v4.25a.38.38,0,0,1-.37.37H8.38A.38.38,0,0,1,8,11.63ZM8,22.38v3.25a.38.38,0,0,1-.37.37H4.38A.38.38,0,0,1,4,25.63V22.38A.38.38,0,0,1,4.38,22H7.63A.38.38,0,0,1,8,22.38ZM17.63,22a.38.38,0,0,1,.37.38v3.25a.38.38,0,0,1-.37.37H14.38a.38.38,0,0,1-.38-.37V22.38a.38.38,0,0,1,.38-.38ZM28,25.63a.38.38,0,0,1-.37.37H24.38a.38.38,0,0,1-.38-.37V22.38a.38.38,0,0,1,.38-.38h3.25a.38.38,0,0,1,.37.38Z"/></g></svg>