<svg fill="currentColor" xmlns="http://www.w3.org/2000/svg" viewBox="0 0 32 32"><g id="tag"><path d="M16,2A14,14,0,1,0,30,16,14,14,0,0,0,16,2Zm0,26A12,12,0,1,1,28,16,12,12,0,0,1,16,28Z"/><path d="M11.71,11.29a1,1,0,0,0-1.42,0l-4,4a1,1,0,0,0,0,1.42l4,4a1,1,0,0,0,1.42,0,1,1,0,0,0,0-1.42L8.41,16l3.3-3.29A1,1,0,0,0,11.71,11.29Z"/><path d="M25.71,15.29l-4-4a1,1,0,0,0-1.42,1.42L23.59,16l-3.3,3.29a1,1,0,0,0,0,1.42,1,1,0,0,0,1.42,0l4-4A1,1,0,0,0,25.71,15.29Z"/><path d="M18.32,9.05a1,1,0,0,0-1.27.63l-4,12A1,1,0,0,0,13.68,23,1.25,1.25,0,0,0,14,23a1,1,0,0,0,.95-.68l4-12A1,1,0,0,0,18.32,9.05Z"/></g></svg>