<svg fill="currentColor" xmlns="http://www.w3.org/2000/svg" viewBox="0 0 32 32"><g id="text"><path d="M26.09,4H5.91A3.91,3.91,0,0,0,2,7.91V24.09A3.91,3.91,0,0,0,5.91,28H26.09A3.91,3.91,0,0,0,30,24.09V7.91A3.91,3.91,0,0,0,26.09,4ZM28,24.09A1.92,1.92,0,0,1,26.09,26H5.91A1.92,1.92,0,0,1,4,24.09V7.91A1.92,1.92,0,0,1,5.91,6H26.09A1.92,1.92,0,0,1,28,7.91Z"/><path d="M7,11h9a1,1,0,0,0,0-2H7a1,1,0,0,0,0,2Z"/><path d="M25,9H21a1,1,0,0,0,0,2h4a1,1,0,0,0,0-2Z"/><path d="M25,15H16a1,1,0,0,0,0,2h9a1,1,0,0,0,0-2Z"/><path d="M7,17h4a1,1,0,0,0,0-2H7a1,1,0,0,0,0,2Z"/><path d="M16,21H7a1,1,0,0,0,0,2h9a1,1,0,0,0,0-2Z"/><path d="M25,21H21a1,1,0,0,0,0,2h4a1,1,0,0,0,0-2Z"/></g></svg>