<svg fill="currentColor" xmlns="http://www.w3.org/2000/svg" viewBox="0 0 32 32"><g id="text_editor" data-name="text editor"><path d="M26.7,4H5.3A3.3,3.3,0,0,0,2,7.3V24.7A3.3,3.3,0,0,0,5.3,28H26.7A3.3,3.3,0,0,0,30,24.7V7.3A3.3,3.3,0,0,0,26.7,4ZM4,7.3A1.3,1.3,0,0,1,5.3,6H26.7A1.3,1.3,0,0,1,28,7.3V8H4ZM28,24.7A1.3,1.3,0,0,1,26.7,26H5.3A1.3,1.3,0,0,1,4,24.7V10H28Z"/><path d="M6,13H7a1,1,0,0,0,0-2H6a1,1,0,0,0,0,2Z"/><path d="M6,15a1,1,0,0,0,1,1h6a1,1,0,0,0,0-2H7A1,1,0,0,0,6,15Z"/><path d="M7,18a1,1,0,0,0,1,1H25a1,1,0,0,0,0-2H8A1,1,0,0,0,7,18Z"/><path d="M13,20H7a1,1,0,0,0,0,2h6a1,1,0,0,0,0-2Z"/><path d="M6,25H7a1,1,0,0,0,0-2H6a1,1,0,0,0,0,2Z"/></g></svg>