<svg fill="currentColor" xmlns="http://www.w3.org/2000/svg" viewBox="0 0 32 32"><g id="zoom"><path d="M11.71,8.29a1,1,0,0,0-1.42,0l-2,2a1,1,0,0,0,0,1.42l2,2a1,1,0,0,0,1.42,0,1,1,0,0,0,0-1.42L10.41,11l1.3-1.29A1,1,0,0,0,11.71,8.29Z"/><path d="M17.71,10.29l-2-2a1,1,0,0,0-1.42,1.42L15.59,11l-1.3,1.29a1,1,0,0,0,0,1.42,1,1,0,0,0,1.42,0l2-2A1,1,0,0,0,17.71,10.29Z"/><path d="M28.1,25l-7.32-9.17a.81.81,0,0,0-.14-.12A9.08,9.08,0,1,0,16,19.46a.89.89,0,0,0,.08.17l7.3,9.14A3.25,3.25,0,0,0,25.93,30a2.88,2.88,0,0,0,2.89-2.72A3.23,3.23,0,0,0,28.1,25ZM6,11a7,7,0,1,1,7,7A7,7,0,0,1,6,11ZM26.49,27.82A1.1,1.1,0,0,1,25,27.53l-7.15-9a8.61,8.61,0,0,0,1.56-1.26l7.15,9a1.22,1.22,0,0,1,.28.87A1,1,0,0,1,26.49,27.82Z"/></g></svg>