<?xml version="1.0" encoding="UTF-8"?><svg fill="currentColor" xmlns="http://www.w3.org/2000/svg" viewBox="0 0 24 24"><g id="d"><g><path d="M16,16.25c-.41,0-.75,.34-.75,.75v1c0,1.24-1.01,2.25-2.25,2.25H7c-1.24,0-2.25-1.01-2.25-2.25V6c0-.97,.62-1.79,1.48-2.1l.88,1.16c.33,.44,.85,.7,1.4,.7h3c.55,0,1.07-.26,1.4-.7l.88-1.16c.86,.32,1.48,1.14,1.48,2.1v1c0,.41,.34,.75,.75,.75s.75-.34,.75-.75v-1c0-1.84-1.33-3.37-3.08-3.68-.02,0-.04,0-.06,0-.2-.03-.4-.06-.61-.06H7c-.2,0-.4,.03-.59,.06-.03,0-.06,0-.08,0-1.75,.32-3.08,1.84-3.08,3.68v12c0,2.07,1.68,3.75,3.75,3.75h6c2.07,0,3.75-1.68,3.75-3.75v-1c0-.41-.34-.75-.75-.75ZM11.5,4.25h-3c-.08,0-.15-.04-.2-.1l-.3-.4h4.01l-.3,.4c-.05,.06-.12,.1-.2,.1Z"/><path d="M8.25,18c0,.41,.34,.75,.75,.75h2c.41,0,.75-.34,.75-.75s-.34-.75-.75-.75h-2c-.41,0-.75,.34-.75,.75Z"/><path d="M19,8.68h-6c-.96,0-1.75,.79-1.75,1.75v5.07c0,.46,.25,.88,.66,1.1,.19,.1,.39,.15,.59,.15,.24,0,.48-.07,.69-.21l1.72-1.15c.21-.14,.45-.21,.69-.21h3.39c.96,0,1.75-.79,1.75-1.75v-3c0-.96-.79-1.75-1.75-1.75Zm.25,4.75c0,.14-.11,.25-.25,.25h-3.39c-.54,0-1.07,.16-1.53,.46l-1.33,.89v-4.6c0-.14,.11-.25,.25-.25h6c.14,0,.25,.11,.25,.25v3Z"/></g></g></svg>