<?xml version="1.0" encoding="UTF-8"?><svg fill="currentColor" xmlns="http://www.w3.org/2000/svg" viewBox="0 0 24 24"><g id="i"><g><path d="M16,2.25H8c-2.07,0-3.75,1.68-3.75,3.75v.25h-1.25c-.41,0-.75,.34-.75,.75s.34,.75,.75,.75h1.25v3.5h-1.25c-.41,0-.75,.34-.75,.75s.34,.75,.75,.75h1.25v3.5h-1.25c-.41,0-.75,.34-.75,.75s.34,.75,.75,.75h1.25v.25c0,2.07,1.68,3.75,3.75,3.75h8c2.07,0,3.75-1.68,3.75-3.75V6c0-2.07-1.68-3.75-3.75-3.75Zm2.25,15.75c0,1.24-1.01,2.25-2.25,2.25H8c-1.24,0-2.25-1.01-2.25-2.25V6c0-1.24,1.01-2.25,2.25-2.25h8c1.24,0,2.25,1.01,2.25,2.25v12Z"/><path d="M14.02,11.85c.45-.49,.73-1.14,.73-1.85,0-1.52-1.23-2.75-2.75-2.75s-2.75,1.23-2.75,2.75c0,.72,.28,1.36,.73,1.85-1.04,.67-1.73,1.83-1.73,3.15v1c0,.41,.34,.75,.75,.75s.75-.34,.75-.75v-1c0-1.24,1.01-2.25,2.25-2.25s2.25,1.01,2.25,2.25v1c0,.41,.34,.75,.75,.75s.75-.34,.75-.75v-1c0-1.32-.69-2.48-1.73-3.15Zm-3.27-1.85c0-.69,.56-1.25,1.25-1.25s1.25,.56,1.25,1.25-.56,1.25-1.25,1.25-1.25-.56-1.25-1.25Z"/></g></g></svg>