<?xml version="1.0" encoding="UTF-8"?><svg fill="currentColor" xmlns="http://www.w3.org/2000/svg" viewBox="0 0 24 24"><g id="n"><g><path d="M21.75,10V5c0-1.52-1.23-2.75-2.75-2.75H5c-1.52,0-2.75,1.23-2.75,2.75v5c0,.79,.34,1.5,.87,2-.54,.5-.87,1.21-.87,2v5c0,1.52,1.23,2.75,2.75,2.75h14c1.52,0,2.75-1.23,2.75-2.75v-5c0-.79-.34-1.5-.87-2,.54-.5,.87-1.21,.87-2Zm-1.5,4v5c0,.69-.56,1.25-1.25,1.25H5c-.69,0-1.25-.56-1.25-1.25v-5c0-.69,.56-1.25,1.25-1.25h14c.69,0,1.25,.56,1.25,1.25Zm-15.25-2.75c-.69,0-1.25-.56-1.25-1.25V5c0-.69,.56-1.25,1.25-1.25h14c.69,0,1.25,.56,1.25,1.25v5c0,.69-.56,1.25-1.25,1.25H5Z"/><path d="M18,4.25H6c-.96,0-1.75,.79-1.75,1.75v3c0,.96,.79,1.75,1.75,1.75h12c.96,0,1.75-.79,1.75-1.75v-3c0-.96-.79-1.75-1.75-1.75Zm.25,4.75c0,.14-.11,.25-.25,.25H6c-.14,0-.25-.11-.25-.25v-3c0-.14,.11-.25,.25-.25h12c.14,0,.25,.11,.25,.25v3Z"/><path d="M8.25,18c0,.41,.34,.75,.75,.75h6c.41,0,.75-.34,.75-.75s-.34-.75-.75-.75h-6c-.41,0-.75,.34-.75,.75Z"/><path d="M6,18.75h1c.41,0,.75-.34,.75-.75s-.34-.75-.75-.75h-1c-.41,0-.75,.34-.75,.75s.34,.75,.75,.75Z"/><path d="M16.25,18c0,.41,.34,.75,.75,.75h1c.41,0,.75-.34,.75-.75s-.34-.75-.75-.75h-1c-.41,0-.75,.34-.75,.75Z"/><path d="M16,15.75h1c.41,0,.75-.34,.75-.75s-.34-.75-.75-.75h-1c-.41,0-.75,.34-.75,.75s.34,.75,.75,.75Z"/><path d="M13,15.75h1c.41,0,.75-.34,.75-.75s-.34-.75-.75-.75h-1c-.41,0-.75,.34-.75,.75s.34,.75,.75,.75Z"/><path d="M10,15.75h1c.41,0,.75-.34,.75-.75s-.34-.75-.75-.75h-1c-.41,0-.75,.34-.75,.75s.34,.75,.75,.75Z"/><path d="M7,15.75h1c.41,0,.75-.34,.75-.75s-.34-.75-.75-.75h-1c-.41,0-.75,.34-.75,.75s.34,.75,.75,.75Z"/></g></g></svg>