<?xml version="1.0" encoding="UTF-8"?><svg fill="currentColor" xmlns="http://www.w3.org/2000/svg" viewBox="0 0 24 24"><g id="p"><g><path d="M15.67,2.32s-.03,0-.05,0c-.2-.03-.41-.06-.62-.06h-6c-.2,0-.4,.03-.59,.06-.03,0-.05,0-.08,0-1.75,.32-3.08,1.84-3.08,3.68v12c0,2.07,1.68,3.75,3.75,3.75h6c2.07,0,3.75-1.68,3.75-3.75V6c0-1.84-1.33-3.37-3.08-3.68Zm-1.66,1.43l-.3,.4c-.05,.06-.12,.1-.2,.1h-3c-.08,0-.15-.04-.2-.1l-.3-.4h4.01Zm3.25,14.25c0,1.24-1.01,2.25-2.25,2.25h-6c-1.24,0-2.25-1.01-2.25-2.25V6c0-.97,.62-1.79,1.48-2.1l.88,1.16c.33,.44,.85,.7,1.4,.7h3c.55,0,1.07-.26,1.4-.7l.88-1.16c.86,.32,1.48,1.14,1.48,2.1v12Z"/><path d="M13,17.25h-2c-.41,0-.75,.34-.75,.75s.34,.75,.75,.75h2c.41,0,.75-.34,.75-.75s-.34-.75-.75-.75Z"/></g></g></svg>