<?xml version="1.0" encoding="UTF-8"?><svg fill="currentColor" xmlns="http://www.w3.org/2000/svg" viewBox="0 0 24 24"><g id="f"><g><path d="M15.5,2.25c-1.24,0-2.25,1.01-2.25,2.25v.83c-.25-.04-.49-.08-.75-.08-2.9,0-5.25,2.36-5.25,5.25v8.5c0,1.52,1.23,2.75,2.75,2.75h5c1.52,0,2.75-1.23,2.75-2.75V4.5c0-1.24-1.01-2.25-2.25-2.25Zm.75,16.75c0,.69-.56,1.25-1.25,1.25h-5c-.69,0-1.25-.56-1.25-1.25V10.5c0-2.07,1.68-3.75,3.75-3.75s3.75,1.68,3.75,3.75v8.5Zm-1.5-13.22v-1.28c0-.41,.34-.75,.75-.75s.75,.34,.75,.75v2.34c-.43-.44-.94-.79-1.5-1.06Z"/><path d="M14,9.25h-3c-.96,0-1.75,.79-1.75,1.75v2c0,.96,.79,1.75,1.75,1.75h3c.96,0,1.75-.79,1.75-1.75v-2c0-.96-.79-1.75-1.75-1.75Zm.25,3.75c0,.14-.11,.25-.25,.25h-3c-.14,0-.25-.11-.25-.25v-2c0-.14,.11-.25,.25-.25h3c.14,0,.25,.11,.25,.25v2Z"/><path d="M11,16.25h-1c-.41,0-.75,.34-.75,.75s.34,.75,.75,.75h1c.41,0,.75-.34,.75-.75s-.34-.75-.75-.75Z"/><path d="M15,16.25h-1c-.41,0-.75,.34-.75,.75s.34,.75,.75,.75h1c.41,0,.75-.34,.75-.75s-.34-.75-.75-.75Z"/><path d="M11,18.25h-1c-.41,0-.75,.34-.75,.75s.34,.75,.75,.75h1c.41,0,.75-.34,.75-.75s-.34-.75-.75-.75Z"/><path d="M15,18.25h-1c-.41,0-.75,.34-.75,.75s.34,.75,.75,.75h1c.41,0,.75-.34,.75-.75s-.34-.75-.75-.75Z"/></g></g></svg>