<?xml version="1.0" encoding="UTF-8"?><svg fill="currentColor" xmlns="http://www.w3.org/2000/svg" viewBox="0 0 24 24"><g id="m"><g><path d="M15.5,2.25c-1.24,0-2.25,1.01-2.25,2.25v1.75h-4.25c-1.52,0-2.75,1.23-2.75,2.75v7c0,3.17,2.58,5.75,5.75,5.75s5.75-2.58,5.75-5.75V4.5c0-1.24-1.01-2.25-2.25-2.25Zm-.75,2.25c0-.41,.34-.75,.75-.75s.75,.34,.75,.75v2.06c-.38-.19-.8-.31-1.25-.31h-.25v-1.75Zm-7,4.5c0-.69,.56-1.25,1.25-1.25h6c.69,0,1.25,.56,1.25,1.25v4c0,2.34-1.91,4.25-4.25,4.25s-4.25-1.91-4.25-4.25v-4Zm4.25,11.25c-2,0-3.66-1.39-4.12-3.24,1.05,1.07,2.5,1.74,4.12,1.74s3.07-.67,4.12-1.74c-.45,1.86-2.12,3.24-4.12,3.24Z"/><path d="M14,12.75c.96,0,1.75-.79,1.75-1.75v-1c0-.96-.79-1.75-1.75-1.75h-4c-.96,0-1.75,.79-1.75,1.75v1c0,.96,.79,1.75,1.75,1.75h4Zm-4.25-1.75v-1c0-.14,.11-.25,.25-.25h4c.14,0,.25,.11,.25,.25v1c0,.14-.11,.25-.25,.25h-4c-.14,0-.25-.11-.25-.25Z"/></g></g></svg>