<?xml version="1.0" encoding="UTF-8"?><svg fill="currentColor" xmlns="http://www.w3.org/2000/svg" viewBox="0 0 24 24"><g id="u"><path d="M21.22,16.26l-2.28-2.28c-.71-.71-1.87-.71-2.58,0l-1,1c-.1,.1-.24,.12-.36,.07-1.36-.65-2.59-1.52-3.66-2.58s-1.93-2.3-2.58-3.66c-.06-.12-.03-.26,.07-.36l1-1c.71-.71,.71-1.87,0-2.58l-2.28-2.28c-.71-.71-1.87-.71-2.58,0l-1.26,1.26c-1.37,1.37-1.85,3.42-1.21,5.2,1.27,3.54,3.28,6.03,4.74,7.49,2.12,2.12,4.64,3.71,7.49,4.74,.53,.19,1.08,.28,1.64,.28,1.31,0,2.6-.52,3.57-1.49l1.26-1.26c.71-.71,.71-1.87,0-2.58Zm-1.06,1.52l-1.26,1.26c-.97,.96-2.39,1.3-3.64,.85-2.64-.95-4.98-2.43-6.94-4.39-1.35-1.35-3.21-3.66-4.39-6.94-.45-1.24-.11-2.67,.85-3.64l1.26-1.26c.06-.06,.15-.09,.23-.09s.17,.03,.23,.09l2.28,2.28c.13,.13,.13,.33,0,.46l-1,1c-.54,.55-.69,1.37-.36,2.06,.72,1.52,1.69,2.89,2.88,4.07s2.56,2.15,4.07,2.88c.69,.33,1.52,.18,2.06-.36l.99-.99c.13-.13,.33-.13,.46,0l2.28,2.28c.13,.13,.13,.33,0,.46Z"/></g></svg>