<?xml version="1.0" encoding="UTF-8"?><svg fill="currentColor" xmlns="http://www.w3.org/2000/svg" viewBox="0 0 24 24"><g id="j"><g><path d="M18,4.25H6c-2.07,0-3.75,1.68-3.75,3.75v7c0,2.07,1.68,3.75,3.75,3.75h12c2.07,0,3.75-1.68,3.75-3.75v-7c0-2.07-1.68-3.75-3.75-3.75Zm2.25,10.75c0,1.24-1.01,2.25-2.25,2.25H6c-1.24,0-2.25-1.01-2.25-2.25v-7c0-1.24,1.01-2.25,2.25-2.25h12c1.24,0,2.25,1.01,2.25,2.25v7Z"/><path d="M16.99,9.42c-1.96-.96-3.8-1.17-4.99-1.17-1.73,0-3.41,.39-4.99,1.17-1.07,.53-1.76,1.67-1.76,2.92v1.04c0,.76,.61,1.38,1.35,1.38h1.8c.74,0,1.35-.62,1.35-1.38v-.74c1.46-.51,3.04-.51,4.5,0v.74c0,.76,.61,1.38,1.35,1.38h1.8c.74,0,1.35-.62,1.35-1.38v-1.04c0-1.25-.69-2.39-1.76-2.92Zm.26,3.83h-1.5v-.7c0-.58-.35-1.1-.88-1.29-1.85-.68-3.89-.68-5.73,0-.53,.2-.88,.71-.88,1.29v.7h-1.5v-.91c0-.68,.36-1.3,.92-1.57,1.37-.67,2.83-1.01,4.33-1.01,1.03,0,2.62,.18,4.33,1.01,.56,.28,.92,.89,.92,1.57v.91Z"/></g></g></svg>