<?xml version="1.0" encoding="UTF-8"?><svg fill="currentColor" xmlns="http://www.w3.org/2000/svg" viewBox="0 0 24 24"><g id="c"><g><path d="M19.09,6.11l-4.35-3.48c-.31-.25-.7-.38-1.09-.38H5c-.96,0-1.75,.79-1.75,1.75V20c0,.96,.79,1.75,1.75,1.75h13c.96,0,1.75-.79,1.75-1.75V7.48c0-.54-.24-1.03-.66-1.37Zm-.84,13.89c0,.14-.11,.25-.25,.25H5c-.14,0-.25-.11-.25-.25V4c0-.14,.11-.25,.25-.25H13.65c.06,0,.11,.02,.16,.05l4.35,3.48c.06,.05,.09,.12,.09,.19v12.52Z"/><path d="M15,10.25h-7c-.96,0-1.75,.79-1.75,1.75v5c0,.96,.79,1.75,1.75,1.75h7c.96,0,1.75-.79,1.75-1.75v-5c0-.96-.79-1.75-1.75-1.75Zm.25,6.75c0,.14-.11,.25-.25,.25h-7c-.14,0-.25-.11-.25-.25v-5c0-.14,.11-.25,.25-.25h7c.14,0,.25,.11,.25,.25v5Z"/></g></g></svg>