<?xml version="1.0" encoding="UTF-8"?><svg fill="currentColor" xmlns="http://www.w3.org/2000/svg" viewBox="0 0 24 24"><g id="g"><g><path d="M10,18.75h4c.96,0,1.75-.79,1.75-1.75V9c0-.96-.79-1.75-1.75-1.75h-4c-.96,0-1.75,.79-1.75,1.75v8c0,.96,.79,1.75,1.75,1.75Zm-.25-1.75v-3.25h1.5v3.5h-1.25c-.14,0-.25-.11-.25-.25Zm4.25,.25h-1.25v-3.5h1.5v3.25c0,.14-.11,.25-.25,.25Zm.25-8.25v3.25h-1.5v-3.5h1.25c.14,0,.25,.11,.25,.25Zm-4.25-.25h1.25v3.5h-1.5v-3.25c0-.14,.11-.25,.25-.25Z"/><path d="M18.75,5c0-.94-.64-1.78-1.55-2.04-3.39-.95-7.03-.95-10.43,.01-.89,.25-1.51,1.08-1.51,2.02,0,.7,.41,1.29,1,1.57v13.43c0,.96,.79,1.75,1.75,1.75h8c.96,0,1.75-.79,1.75-1.75V6.57c.59-.28,1-.88,1-1.57Zm-11.58-.58c1.57-.44,3.2-.67,4.83-.67s3.23,.22,4.79,.66c.27,.08,.46,.32,.46,.59,0,.14-.11,.25-.25,.25H7c-.14,0-.25-.11-.25-.25,0-.27,.17-.51,.42-.58Zm9.08,15.58c0,.14-.11,.25-.25,.25H8c-.14,0-.25-.11-.25-.25V6.75h8.5v13.25Z"/></g></g></svg>