<?xml version="1.0" encoding="UTF-8"?><svg fill="currentColor" xmlns="http://www.w3.org/2000/svg" viewBox="0 0 24 24"><g id="q"><g><path d="M19,4.25H9.63c-.33-1.15-1.38-2-2.63-2h-2c-1.52,0-2.75,1.23-2.75,2.75v14c0,1.52,1.23,2.75,2.75,2.75h2c1.25,0,2.3-.85,2.63-2h9.37c1.52,0,2.75-1.23,2.75-2.75V7c0-1.52-1.23-2.75-2.75-2.75ZM7,20.25h-2c-.69,0-1.25-.56-1.25-1.25V5c0-.69,.56-1.25,1.25-1.25h2c.69,0,1.25,.56,1.25,1.25v14c0,.69-.56,1.25-1.25,1.25Zm13.25-3.25c0,.69-.56,1.25-1.25,1.25H9.75V5.75h9.25c.69,0,1.25,.56,1.25,1.25v10Z"/><path d="M18,7.25h-6c-.41,0-.75,.34-.75,.75s.34,.75,.75,.75h6c.41,0,.75-.34,.75-.75s-.34-.75-.75-.75Z"/><path d="M18,11.25h-1c-.41,0-.75,.34-.75,.75s.34,.75,.75,.75h1c.41,0,.75-.34,.75-.75s-.34-.75-.75-.75Z"/><path d="M13,11.25h-1c-.41,0-.75,.34-.75,.75s.34,.75,.75,.75h1c.41,0,.75-.34,.75-.75s-.34-.75-.75-.75Z"/><path d="M18,14.25h-1c-.41,0-.75,.34-.75,.75s.34,.75,.75,.75h1c.41,0,.75-.34,.75-.75s-.34-.75-.75-.75Z"/><path d="M13,14.25h-1c-.41,0-.75,.34-.75,.75s.34,.75,.75,.75h1c.41,0,.75-.34,.75-.75s-.34-.75-.75-.75Z"/></g></g></svg>