<?xml version="1.0" encoding="UTF-8"?><svg fill="currentColor" xmlns="http://www.w3.org/2000/svg" viewBox="0 0 24 24"><g id="s"><g><path d="M17.46,13.79l-1.21-1.21c-.51-.51-1.35-.51-1.87,0l-.44,.44c-.64-.32-1.22-.74-1.72-1.24s-.92-1.08-1.24-1.72l.44-.44c.51-.51,.51-1.35,0-1.87l-1.21-1.21c-.51-.51-1.35-.51-1.87,0l-.67,.67c-.83,.83-1.11,2.05-.72,3.13,.7,1.94,1.8,3.31,2.6,4.11,1.16,1.16,2.54,2.04,4.1,2.6,.32,.12,.65,.17,.99,.17,.79,0,1.56-.31,2.14-.89l.67-.67c.25-.25,.39-.58,.39-.93s-.14-.68-.39-.93Zm-1.73,1.47c-.42,.42-1.03,.56-1.56,.37-1.35-.49-2.55-1.24-3.55-2.25-.69-.69-1.64-1.87-2.25-3.55-.19-.53-.05-1.15,.37-1.56l.54-.54,.95,.95-.4,.4c-.39,.39-.5,.99-.26,1.5,.4,.84,.94,1.6,1.6,2.26s1.42,1.19,2.26,1.6c.5,.24,1.1,.13,1.5-.26l.4-.4,.95,.95-.54,.54Z"/><path d="M12,2.25C6.62,2.25,2.25,6.62,2.25,12c0,1.46,.33,2.92,.96,4.23l-.95,4.62c-.05,.27,.04,.54,.25,.72,.14,.12,.31,.18,.49,.18,.09,0,.18-.02,.27-.05l3.65-1.38c1.53,.94,3.28,1.43,5.09,1.43,5.38,0,9.75-4.37,9.75-9.75S17.38,2.25,12,2.25Zm0,18c-1.64,0-3.23-.48-4.58-1.39-.13-.08-.27-.13-.42-.13-.09,0-.18,.02-.27,.05l-2.73,1.03,.73-3.54c.03-.17,.01-.34-.07-.5-.61-1.18-.92-2.45-.92-3.78C3.75,7.45,7.45,3.75,12,3.75s8.25,3.7,8.25,8.25-3.7,8.25-8.25,8.25Z"/></g></g></svg>