<?xml version="1.0" encoding="UTF-8"?><svg fill="currentColor" xmlns="http://www.w3.org/2000/svg" viewBox="0 0 24 24"><g id="e"><path d="M21.27,14.07l-1.89-1.89c-.64-.64-1.68-.64-2.32,0l-.83,.83s-.1,.06-.15,.03c-1.12-.53-2.13-1.25-3-2.12-.87-.87-1.59-1.88-2.12-3-.02-.05-.01-.11,.03-.15l.83-.83c.64-.64,.64-1.68,0-2.32l-1.89-1.89c-.62-.62-1.7-.62-2.32,0l-1.05,1.05c-1.18,1.17-1.58,2.92-1.03,4.45,1.06,2.96,2.74,5.04,3.97,6.27,1.77,1.77,3.88,3.11,6.27,3.96,.16,.06,.32,.09,.48,.13v1c0,.37-.3,.66-.66,.66h-1c-.17,0-.35-.07-.47-.19l-.59-.59c-.82-.82-2.24-.82-3.06,0-.25,.25-.69,.25-.94,0-.82-.82-2.24-.82-3.06,0-.25,.25-.69,.25-.94,0l-1-1c-.29-.29-.77-.29-1.06,0s-.29,.77,0,1.06l1,1c.82,.82,2.24,.82,3.06,0,.25-.25,.69-.25,.94,0,.82,.82,2.24,.82,3.06,0,.25-.25,.69-.25,.94,0l.59,.59c.4,.4,.96,.63,1.53,.63h1c1.19,0,2.16-.97,2.16-2.16v-.94c.91-.13,1.79-.53,2.47-1.21l1.05-1.05c.64-.64,.64-1.68,0-2.32Zm-1.06,1.26l-1.05,1.05c-.77,.77-1.9,1.03-2.89,.68-2.18-.78-4.1-2-5.71-3.61-1.12-1.12-2.65-3.01-3.62-5.71-.35-.99-.09-2.12,.68-2.89l1.05-1.05s.06-.04,.1-.04,.08,.01,.1,.04l1.89,1.89c.05,.05,.05,.14,0,.2l-.83,.83c-.49,.49-.62,1.24-.33,1.86,.61,1.27,1.42,2.42,2.41,3.42,1,1,2.15,1.81,3.42,2.41,.62,.29,1.37,.16,1.86-.33l.83-.83c.06-.05,.14-.05,.2,0l1.89,1.89c.06,.06,.06,.15,0,.2Z"/></g></svg>