<?xml version="1.0" encoding="UTF-8"?><svg fill="currentColor" xmlns="http://www.w3.org/2000/svg" viewBox="0 0 24 24"><g id="h"><g><path d="M7.38,14.46h-.73c-.26-.8-.4-1.62-.4-2.46s.13-1.67,.4-2.46h.73c.76,0,1.38-.63,1.38-1.39v-1.93c0-.77-.62-1.39-1.38-1.39h-1.04c-1.25,0-2.4,.74-2.93,1.87-.96,2.09-1.16,4.04-1.16,5.3,0,1.84,.39,3.62,1.16,5.3,.52,1.14,1.67,1.88,2.93,1.88h1.04c.76,0,1.38-.63,1.38-1.39v-1.93c0-.77-.62-1.39-1.38-1.39Zm-.13,3.21h-.91c-.67,0-1.28-.39-1.56-1-.68-1.48-1.02-3.06-1.02-4.68,0-1.12,.18-2.84,1.02-4.68,.28-.61,.89-1,1.56-1h.92v1.71h-.7c-.58,0-1.11,.37-1.3,.93-.34,.98-.51,2-.51,3.04s.17,2.06,.51,3.04c.19,.55,.71,.93,1.3,.93h.7v1.71Z"/><path d="M21.75,12c0-3.72-3.03-6.75-6.75-6.75s-6.75,3.03-6.75,6.75,3.03,6.75,6.75,6.75h0c3.72,0,6.75-3.03,6.75-6.75Zm-6.7,.69c-.44,0-.86,.04-1.26,.09-.02-.25-.04-.5-.04-.77,0-.11,.01-.22,.02-.33,.38,.05,.77,.08,1.19,.08h.05c.43,0,.84-.04,1.23-.09,0,.12,.02,.22,.02,.34,0,.27-.02,.52-.04,.77-.37-.05-.75-.08-1.16-.08Zm.91,1.56c-.24,.97-.61,1.78-.97,2.4-.35-.59-.72-1.4-.96-2.4,.32-.04,.66-.06,1.01-.06,.32,0,.63,.02,.92,.06Zm-6.21-2.25c0-.57,.11-1.1,.28-1.61,.52,.32,1.28,.7,2.25,.99-.01,.21-.03,.41-.03,.63,0,.37,.02,.73,.06,1.08-.92,.27-1.64,.62-2.16,.93-.26-.62-.4-1.3-.4-2.01Zm4.18-1.82c.24-1.2,.66-2.16,1.06-2.83,.41,.71,.84,1.66,1.07,2.82-.34,.05-.69,.08-1.07,.08h-.04c-.36,0-.7-.03-1.02-.07Zm3.78,1.17c.98-.29,1.73-.69,2.24-1.01,.18,.52,.29,1.08,.29,1.66,0,.71-.15,1.39-.4,2-.51-.31-1.24-.67-2.15-.93,.03-.35,.06-.7,.06-1.07,0-.23-.02-.44-.03-.65Zm1.57-2.36c-.37,.25-.97,.58-1.76,.84-.23-1.12-.62-2.07-1.03-2.84,1.14,.34,2.12,1.04,2.78,1.99Zm-5.82-1.98c-.39,.74-.77,1.7-1,2.86-.79-.25-1.4-.58-1.79-.83,.66-.96,1.65-1.67,2.79-2.02Zm-2.53,8.28c.39-.24,.94-.51,1.62-.72,.23,.97,.57,1.79,.91,2.44-1.01-.31-1.88-.91-2.53-1.71Zm5.57,1.72c.35-.67,.69-1.5,.93-2.45,.69,.22,1.24,.49,1.64,.73-.66,.81-1.54,1.41-2.56,1.72Z"/></g></g></svg>