<?xml version="1.0" encoding="UTF-8"?><svg fill="currentColor" xmlns="http://www.w3.org/2000/svg" viewBox="0 0 24 24"><g id="j"><path d="M20.84,5.78l-3.17-3.17c-.51-.51-1.29-.66-1.94-.37-1.69,.75-3.14,1.77-4.29,3.03-1.31,1.43-1.9,2.79-2.47,4.1-.54,1.25-1.06,2.43-2.2,3.68-.87,.95-1.94,1.75-3.17,2.38-.5,.25-.85,.73-.94,1.28-.09,.56,.09,1.11,.49,1.51l3.17,3.17c.34,.34,.79,.52,1.25,.52,.23,0,.47-.05,.69-.15,1.69-.75,3.14-1.77,4.29-3.03,1.31-1.43,1.9-2.78,2.46-4.09,.55-1.25,1.06-2.44,2.2-3.69,.87-.95,1.94-1.75,3.17-2.38,.5-.25,.85-.73,.94-1.28,.09-.56-.09-1.11-.49-1.51ZM4.15,16.95s.03-.13,.13-.18c1.4-.71,2.61-1.62,3.6-2.71,1.31-1.43,1.9-2.78,2.46-4.09,.55-1.25,1.06-2.44,2.2-3.69,1.01-1.11,2.28-2,3.79-2.67,.03-.01,.05-.02,.08-.02,.07,0,.14,.03,.19,.08l1.09,1.09c-1.53,.73-2.86,1.68-3.92,2.84-1.31,1.43-1.9,2.79-2.47,4.1-.54,1.25-1.06,2.43-2.2,3.68-1.04,1.14-2.38,2.05-3.95,2.72l-.95-.95c-.08-.08-.08-.16-.07-.21ZM19.72,7.23c-1.4,.71-2.61,1.62-3.6,2.71-1.31,1.43-1.9,2.79-2.47,4.1-.54,1.25-1.06,2.43-2.2,3.68-1.01,1.11-2.28,2-3.79,2.67-.08,.04-.2,0-.27-.06l-1.09-1.09c1.53-.73,2.86-1.68,3.92-2.84,1.31-1.43,1.9-2.78,2.46-4.09,.55-1.25,1.06-2.44,2.2-3.69,1.04-1.14,2.38-2.05,3.95-2.72l.95,.95c.08,.08,.08,.16,.07,.21s-.03,.13-.13,.18Z"/></g></svg>