<?xml version="1.0" encoding="UTF-8"?><svg fill="currentColor" xmlns="http://www.w3.org/2000/svg" viewBox="0 0 24 24"><g id="n"><g><path d="M17,9.25h-1.25v-.25c0-.56-.27-1.06-.68-1.38,.09-.42,.11-.96-.11-1.54-.38-1-1.35-1.69-2.48-1.81-.71-1.24-2.02-2.02-3.48-2.02s-2.75,.76-3.46,1.99c-1.17,.06-2.21,.75-2.6,1.77-.23,.62-.17,1.2-.05,1.65-.39,.32-.65,.8-.65,1.35v9c0,2.07,1.68,3.75,3.75,3.75h6c1.43,0,2.66-.82,3.3-2h1.7c1.52,0,2.75-1.23,2.75-2.75v-5c0-1.52-1.23-2.75-2.75-2.75ZM4.35,6.54c.2-.54,.87-.87,1.56-.79,.34,.04,.65-.15,.78-.46,.39-.93,1.29-1.54,2.31-1.54s1.92,.6,2.31,1.54c.12,.29,.4,.49,.72,.46,.69-.04,1.32,.33,1.53,.87,.08,.22,.08,.44,.05,.63H4.34c-.05-.2-.08-.46,.01-.71Zm7.65,13.71H6c-1.24,0-2.25-1.01-2.25-2.25V9c0-.14,.11-.25,.25-.25H14c.14,0,.25,.11,.25,.25v9c0,1.24-1.01,2.25-2.25,2.25Zm6.25-3.25c0,.69-.56,1.25-1.25,1.25h-1.25v-7.5h1.25c.69,0,1.25,.56,1.25,1.25v5Z"/><path d="M7,10.25c-.41,0-.75,.34-.75,.75v7c0,.41,.34,.75,.75,.75s.75-.34,.75-.75v-7c0-.41-.34-.75-.75-.75Z"/><path d="M11,10.25c-.41,0-.75,.34-.75,.75v7c0,.41,.34,.75,.75,.75s.75-.34,.75-.75v-7c0-.41-.34-.75-.75-.75Z"/></g></g></svg>