<?xml version="1.0" encoding="UTF-8"?><svg fill="currentColor" xmlns="http://www.w3.org/2000/svg" viewBox="0 0 24 24"><g id="i"><g><path d="M21.75,13.5c0-.93-.4-1.77-1.03-2.36,0-.05,.03-.09,.03-.14,0-4.27-3.48-7.75-7.75-7.75h-2c-4.27,0-7.75,3.48-7.75,7.75,0,.05,.02,.09,.03,.14-.63,.59-1.03,1.43-1.03,2.36,0,.78,.4,1.46,1,1.87v1.63c0,2.07,1.68,3.75,3.75,3.75h10c2.07,0,3.75-1.68,3.75-3.75v-1.63c.6-.4,1-1.09,1-1.87Zm-18,0c0-.96,.79-1.75,1.75-1.75h13c.96,0,1.75,.79,1.75,1.75,0,.41-.34,.75-.75,.75H4.5c-.41,0-.75-.34-.75-.75Zm1.04-3.25c.37-3.09,3.01-5.5,6.21-5.5h2c3.19,0,5.83,2.41,6.21,5.5H4.79Zm14.46,6.75c0,1.24-1.01,2.25-2.25,2.25H7c-1.24,0-2.25-1.01-2.25-2.25v-1.25h14.5v1.25Z"/><path d="M8.02,7.25h-.01c-.41,0-.74,.34-.74,.75s.34,.75,.75,.75,.75-.34,.75-.75-.34-.75-.75-.75Z"/><path d="M12.02,6.25h-.01c-.41,0-.74,.34-.74,.75s.34,.75,.75,.75,.75-.34,.75-.75-.34-.75-.75-.75Z"/><path d="M16.02,7.25h0c-.41,0-.75,.34-.75,.75s.34,.75,.75,.75,.75-.34,.75-.75-.33-.75-.75-.75Z"/></g></g></svg>