<?xml version="1.0" encoding="UTF-8"?><svg fill="currentColor" xmlns="http://www.w3.org/2000/svg" viewBox="0 0 24 24"><g id="r"><path d="M21.46,6.51l-2.1-.7-.7-2.1c-.13-.39-.55-.61-.95-.47-.39,.13-.61,.56-.47,.95l.67,2.02-1.22,1.22c-.4-.18-.85-.24-1.3-.13-.9,.22-1.79,.51-2.64,.87-.28,.12-.55,.25-.82,.38-.94-.18-1.91-.29-2.89-.3-1.9-.03-3.71,.77-4.99,2.16-1.3,1.41-1.94,3.3-1.77,5.2,.33,3.51,3.28,6.14,6.81,6.14,.14,0,.28,0,.42-.01l7.78-.45c2.5-.14,4.46-2.19,4.46-4.67,0-1.13-.42-2.22-1.17-3.08-.9-1.02-1.91-1.9-3.02-2.65,.12-.37,.23-.74,.32-1.11,.11-.44,.05-.89-.13-1.3l1.22-1.22,2.01,.67c.08,.03,.16,.04,.24,.04,.31,0,.61-.2,.71-.51,.13-.39-.08-.82-.47-.95Zm-8.13,3.04c.77-.33,1.58-.6,2.41-.8,.05-.01,.09-.02,.13-.02,.2,0,.34,.11,.39,.17,.07,.07,.22,.25,.15,.52-.2,.82-.46,1.63-.79,2.41-.26,.61-.57,1.21-.9,1.78-.36,.61-.97,1.01-1.68,1.1-.72,.09-1.42-.15-1.92-.66l-.06-.06c-.49-.49-.73-1.17-.65-1.86,.08-.68,.47-1.28,1.06-1.63,.6-.36,1.23-.68,1.86-.95Zm6.12,4.98c.52,.58,.8,1.33,.8,2.09,0,1.68-1.34,3.07-3.05,3.17l-7.78,.45c-2.9,.17-5.38-1.93-5.64-4.77-.14-1.47,.37-2.95,1.38-4.04,1.01-1.1,2.35-1.7,3.88-1.68,.32,0,.63,.03,.94,.06-.57,.58-.94,1.32-1.04,2.15-.14,1.15,.25,2.28,1.07,3.1l.06,.06c.72,.72,1.68,1.12,2.69,1.12,.16,0,.32-.01,.49-.03,1.17-.15,2.18-.81,2.78-1.82,.37-.63,.7-1.28,.99-1.96,.01-.03,.02-.05,.03-.08,.88,.63,1.69,1.36,2.42,2.19Z"/></g></svg>