<?xml version="1.0" encoding="UTF-8"?><svg fill="currentColor" xmlns="http://www.w3.org/2000/svg" viewBox="0 0 24 24"><g id="h"><path d="M20.31,6.52l-2.83-2.83c-1.85-1.85-4.87-1.85-6.72,0L3.69,10.76c-1.85,1.85-1.85,4.87,0,6.72l2.83,2.83c.93,.93,2.14,1.39,3.36,1.39s2.43-.46,3.36-1.39l7.07-7.07c1.85-1.85,1.85-4.87,0-6.72Zm-3.89-1.77l.88,.88-3.18,3.18-3.18-3.18,.88-.88c1.27-1.27,3.33-1.27,4.6,0Zm-2.3,12.55l-3.18-3.18,3.18-3.18,3.18,3.18-3.18,3.18Zm-4.24-4.24l-3.18-3.18,3.18-3.18,3.18,3.18-3.18,3.18Zm-5.13-1.24l.88-.88,3.18,3.18-3.18,3.18-.88-.88c-1.27-1.27-1.27-3.33,0-4.6Zm2.83,7.42l-.88-.88,3.18-3.18,3.18,3.18-.88,.88c-1.27,1.27-3.33,1.26-4.6,0Zm11.67-7.07l-.88,.88-3.18-3.18,3.18-3.18,.88,.88c1.27,1.27,1.27,3.33,0,4.6Z"/></g></svg>