<?xml version="1.0" encoding="UTF-8"?><svg fill="currentColor" xmlns="http://www.w3.org/2000/svg" viewBox="0 0 24 24"><g id="o"><g><path d="M20.75,7.5c0-1.16-.88-2.1-2-2.22v-.28c0-1.52-1.23-2.75-2.75-2.75H8c-1.52,0-2.75,1.23-2.75,2.75v.28c-1.12,.13-2,1.07-2,2.22s.91,2.13,2.06,2.23l.79,9.5c.12,1.41,1.32,2.52,2.74,2.52h6.32c1.42,0,2.62-1.11,2.74-2.52l.79-9.5c1.15-.1,2.06-1.06,2.06-2.23ZM6.75,5c0-.69,.56-1.25,1.25-1.25h8c.69,0,1.25,.56,1.25,1.25v.25H6.75v-.25Zm9.66,14.1c-.05,.64-.6,1.15-1.25,1.15h-6.32c-.65,0-1.19-.5-1.25-1.15l-.78-9.35h10.37l-.78,9.35Zm2.09-10.85H5.5c-.41,0-.75-.34-.75-.75s.34-.75,.75-.75h13c.41,0,.75,.34,.75,.75s-.34,.75-.75,.75Z"/><path d="M12,17.75c1.52,0,2.75-1.23,2.75-2.75s-1.23-2.75-2.75-2.75-2.75,1.23-2.75,2.75,1.23,2.75,2.75,2.75Zm0-4c.69,0,1.25,.56,1.25,1.25s-.56,1.25-1.25,1.25-1.25-.56-1.25-1.25,.56-1.25,1.25-1.25Z"/></g></g></svg>