<?xml version="1.0" encoding="UTF-8"?><svg fill="currentColor" xmlns="http://www.w3.org/2000/svg" viewBox="0 0 24 24"><g id="l"><g><path d="M18.46,6.24l-1.27-2.53c.32-.09,.56-.37,.56-.71,0-.41-.34-.75-.75-.75H7c-.41,0-.75,.34-.75,.75,0,.35,.24,.62,.56,.71l-1.27,2.53c-.19,.38-.29,.81-.29,1.23v10.2c0,.3,.05,.59,.14,.87l.67,2.01c.24,.72,.91,1.2,1.66,1.2h8.56c.75,0,1.42-.48,1.66-1.2l.67-2.01c.09-.28,.14-.57,.14-.87V7.47c0-.42-.1-.85-.29-1.23ZM6.75,17.25V7.75h10.5v9.5H6.75ZM15.54,3.75l1.25,2.5H7.21l1.25-2.5h7.07Zm.74,16.5H7.72c-.11,0-.2-.07-.24-.17l-.44-1.33h9.92l-.44,1.33c-.03,.1-.13,.17-.24,.17Z"/><path d="M14.61,11.57c-.18-.25-.49-.37-.79-.3l-2.12,.53,.92-1.39c.23-.34,.14-.81-.21-1.04-.34-.23-.81-.14-1.04,.21l-2,3c-.17,.26-.17,.59,.01,.85,.18,.25,.5,.37,.79,.3l2.12-.53-.92,1.39c-.23,.34-.14,.81,.21,1.04,.13,.09,.27,.13,.42,.13,.24,0,.48-.12,.63-.33l2-3c.17-.26,.17-.59-.01-.85Z"/></g></g></svg>