<?xml version="1.0" encoding="UTF-8"?><svg fill="currentColor" xmlns="http://www.w3.org/2000/svg" viewBox="0 0 24 24"><g id="f"><path d="M20.55,10.35l-1.35-3.37c-.42-1.05-1.42-1.73-2.55-1.73H7.35c-1.13,0-2.13,.68-2.55,1.73l-1.35,3.37c-.7,.23-1.2,.88-1.2,1.65v1c0,.77,.51,1.42,1.2,1.65l1.35,3.37c.42,1.05,1.42,1.73,2.55,1.73h9.29c1.13,0,2.13-.68,2.55-1.73l1.35-3.37c.7-.23,1.2-.88,1.2-1.65v-1c0-.77-.51-1.42-1.2-1.65ZM3.75,13v-1c0-.14,.11-.25,.25-.25H20c.14,0,.25,.11,.25,.25v1c0,.14-.11,.25-.25,.25H4c-.14,0-.25-.11-.25-.25Zm2.44-5.46c.19-.48,.65-.79,1.16-.79h9.29c.51,0,.97,.31,1.16,.79l1.09,2.71H5.11l1.09-2.71Zm11.61,9.93c-.19,.48-.65,.79-1.16,.79H7.35c-.51,0-.97-.31-1.16-.79l-1.09-2.71h13.78l-1.09,2.71Z"/></g></svg>