<?xml version="1.0" encoding="UTF-8"?><svg fill="currentColor" xmlns="http://www.w3.org/2000/svg" viewBox="0 0 24 24"><g id="u"><path d="M20.5,7.92c-.79-.59-1.79-.77-2.74-.5-3.76,1.1-7.78,1.1-11.54,0-.94-.28-1.93-.1-2.72,.49-.8,.6-1.25,1.51-1.25,2.51,0,1.3,.81,2.47,2.01,2.92,.06,.02,.12,.04,.18,.06-.12,.34-.2,.69-.2,1.05,0,1.52,1.09,2.84,2.59,3.15,1.69,.35,3.43,.52,5.16,.52s3.46-.18,5.16-.52c1.5-.31,2.59-1.63,2.59-3.15h0c0-.37-.08-.72-.2-1.05,.07-.02,.14-.05,.2-.07,1.19-.45,1.99-1.62,1.99-2.92,0-.99-.46-1.9-1.25-2.5Zm-3.64,8.22c-3.19,.65-6.53,.65-9.71,0-.81-.17-1.39-.87-1.39-1.68,0-.51,.22-.98,.61-1.31,.31-.26,.69-.4,1.08-.4,.09,0,.19,0,.28,.02,2.82,.48,5.74,.48,8.56,0,.49-.08,.98,.06,1.36,.38,.1,.08,.18,.17,.26,.27h0c.22,.3,.35,.66,.35,1.04,0,.81-.59,1.51-1.39,1.68Zm2.37-4.21c-.16,.06-.34,.12-.52,.18-.04-.03-.06-.07-.1-.11-.72-.61-1.66-.87-2.58-.71-2.66,.45-5.41,.45-8.06,0-.92-.16-1.86,.1-2.58,.71-.04,.03-.07,.07-.1,.11-.17-.06-.33-.11-.5-.17-.62-.23-1.04-.84-1.04-1.52,0-.52,.24-1,.65-1.31,.41-.3,.92-.4,1.4-.25,4.03,1.18,8.35,1.18,12.38,0,.49-.14,1.01-.05,1.42,.26,.41,.31,.65,.78,.65,1.3,0,.67-.41,1.28-1.02,1.51Z"/></g></svg>