<?xml version="1.0" encoding="UTF-8"?><svg fill="currentColor" xmlns="http://www.w3.org/2000/svg" viewBox="0 0 24 24"><g id="d"><path d="M20.75,11c0-.72-.44-1.34-1.06-1.61-.11-.84-.43-1.61-.92-2.25l1.9-3.81c.19-.37,.04-.82-.34-1.01s-.82-.04-1.01,.34l-1.69,3.39c-.35-.23-.74-.4-1.14-.54-.64-1.93-2.44-3.26-4.5-3.26s-3.86,1.33-4.5,3.26c-1.7,.57-2.96,2.06-3.19,3.88-.62,.27-1.06,.89-1.06,1.61,0,3.6,2.47,6.62,5.8,7.49l-.54,1.61c-.13,.38-.06,.8,.17,1.13,.23,.32,.61,.52,1.01,.52h4.61c.4,0,.78-.19,1.01-.52,.23-.33,.3-.75,.17-1.13l-.54-1.61c3.33-.87,5.8-3.89,5.8-7.49Zm-7.08-1.75c-.1-.65-.34-1.26-.68-1.8,.57-.45,1.27-.7,2-.7,1.53,0,2.81,1.07,3.15,2.5h-4.48Zm-1.67-5.5c1.14,0,2.17,.6,2.75,1.53-1.02,.05-1.97,.43-2.75,1.07-.76-.62-1.7-1.01-2.75-1.07,.58-.93,1.61-1.53,2.75-1.53Zm-3,3c1.53,0,2.81,1.07,3.15,2.5H5.85c.34-1.43,1.62-2.5,3.15-2.5Zm4.46,12l.5,1.5h-3.92l.5-1.5h2.92Zm-.46-1.5h-2c-3.45,0-6.25-2.8-6.25-6.25,0-.14,.11-.25,.25-.25h14c.14,0,.25,.11,.25,.25,0,3.45-2.8,6.25-6.25,6.25Z"/></g></svg>