<?xml version="1.0" encoding="UTF-8"?><svg fill="currentColor" xmlns="http://www.w3.org/2000/svg" viewBox="0 0 24 24"><g id="c"><g><path d="M17,8.25h-.08c.06-.6-.01-1.15-.26-1.61-.42-.77-1.12-1.07-1.74-1.33-.5-.21-.97-.4-1.38-.84-.39-.41-.67-.96-.81-1.63-.07-.32-.33-.56-.66-.59-1.11-.12-2.18,.42-2.73,1.37-.33,.58-.39,1.19-.33,1.71-.7,.19-1.31,.65-1.67,1.29-.32,.55-.38,1.13-.33,1.62h-.02c-.41,0-.75,.34-.75,.75s.34,.75,.75,.75h.31l.79,9.48c.12,1.42,1.32,2.52,2.74,2.52h2.32c1.42,0,2.62-1.11,2.74-2.52l.79-9.48h.31c.41,0,.75-.34,.75-.75s-.34-.75-.75-.75Zm-8.35-.88c.25-.44,.74-.68,1.27-.63,.27,.03,.54-.1,.7-.33,.16-.23,.17-.53,.04-.78-.01-.03-.35-.67,0-1.27,.17-.3,.46-.5,.78-.59,.22,.68,.57,1.26,1.03,1.74,.63,.66,1.33,.95,1.89,1.18,.54,.23,.84,.36,.99,.65,.12,.22,.14,.53,.08,.89h-6.89c-.05-.24-.06-.56,.12-.88Zm5.75,11.73c-.05,.65-.59,1.15-1.25,1.15h-2.32c-.66,0-1.19-.49-1.25-1.15l-.78-9.35h6.37l-.78,9.35Z"/><path d="M11,15.75h2c.41,0,.75-.34,.75-.75s-.34-.75-.75-.75h-2c-.41,0-.75,.34-.75,.75s.34,.75,.75,.75Z"/></g></g></svg>