<?xml version="1.0" encoding="UTF-8"?><svg fill="currentColor" xmlns="http://www.w3.org/2000/svg" viewBox="0 0 24 24"><g id="b"><g><path d="M21.12,10.29l-1.14-2.86c-.15-.38-.23-.79-.23-1.21v-1.23c0-1.52-1.23-2.75-2.75-2.75H8c-1.52,0-2.75,1.23-2.75,2.75v1.23c0,.42-.08,.82-.23,1.21l-1.14,2.85c-.42,1.04-.63,2.13-.63,3.25v5.46c0,1.52,1.23,2.75,2.75,2.75h13c1.52,0,2.75-1.23,2.75-2.75v-5.46c0-1.12-.21-2.21-.63-3.25ZM6.75,5c0-.69,.56-1.25,1.25-1.25h7.25v2.48s0,.05,0,.07c-.08-.03-.16-.05-.24-.05H6.75v-1.25Zm-2,14v-5.46c0-.93,.17-1.83,.52-2.69l1.14-2.85c.03-.08,.04-.16,.07-.24H14.89l-1.02,2.54c-.42,1.04-.63,2.13-.63,3.25v6.71H6c-.69,0-1.25-.56-1.25-1.25Zm15.5,0c0,.69-.56,1.25-1.25,1.25h-4.25v-6.71c0-.93,.17-1.83,.52-2.69l1.14-2.85c.23-.56,.34-1.16,.34-1.76V3.75h.25c.69,0,1.25,.56,1.25,1.25v1.23c0,.61,.11,1.2,.34,1.76l1.14,2.85c.34,.86,.52,1.77,.52,2.69v5.46Z"/><path d="M9,11.25c-1.52,0-2.75,1.46-2.75,3.25s1.23,3.25,2.75,3.25,2.75-1.46,2.75-3.25-1.23-3.25-2.75-3.25Zm0,5c-.68,0-1.25-.8-1.25-1.75s.57-1.75,1.25-1.75,1.25,.8,1.25,1.75-.57,1.75-1.25,1.75Z"/></g></g></svg>