<?xml version="1.0" encoding="UTF-8"?><svg fill="currentColor" xmlns="http://www.w3.org/2000/svg" viewBox="0 0 24 24"><g id="p"><path d="M17.6,4.54c-.58-.76-1.81-1.1-3.03-.69-.23-.72-.68-1.28-1.26-1.54-.58-.26-1.31-.23-2,.08-.45,.2-.85,.5-1.18,.87-.5-.62-1.27-1.01-2.13-1.01-1.18,0-2.19,.75-2.58,1.79-.73-.14-1.48-.07-1.97,.44-.31,.33-.46,.81-.44,1.35,.04,.85,.5,1.72,1.23,2.46v8.7c0,2.62,2.13,4.75,4.75,4.75h3c2.62,0,4.75-2.13,4.75-4.75V8.41c.32-.24,.67-.57,.92-1.07,.41-.81,.55-1.99-.07-2.79Zm-13.06,.98c.07-.05,.51-.11,1.17,.17,.23,.1,.5,.07,.71-.07,.21-.14,.34-.37,.34-.63,0-.68,.57-1.25,1.25-1.25s1.25,.57,1.25,1.25c0,.37,.27,.69,.64,.74,.37,.06,.72-.16,.83-.52,.31-.97,.95-1.35,1.21-1.47,.29-.13,.58-.16,.77-.08,.26,.12,.55,.62,.56,1.33,0,.28,.17,.54,.42,.66,.25,.13,.55,.1,.78-.07,.81-.6,1.7-.49,1.96-.15,.2,.26,.12,.83-.07,1.21-.18,.36-.47,.56-.65,.66-1.83,.59-3.57,1.42-5.18,2.45-1.59-1.02-3.29-1.84-5.09-2.42-.89-.83-.97-1.68-.87-1.83ZM15.25,13.86c-1.02-1.17-2.17-2.23-3.41-3.17,1.09-.65,2.23-1.2,3.41-1.65v4.81Zm-3.25,6.39h-3c-1.79,0-3.25-1.46-3.25-3.25v-7.95c1.71,.64,3.33,1.5,4.81,2.56,1.59,1.13,3.01,2.49,4.22,4.02,.3,.38,.46,.86,.46,1.37,0,1.79-1.46,3.25-3.25,3.25Z"/></g></svg>