<?xml version="1.0" encoding="UTF-8"?><svg fill="currentColor" xmlns="http://www.w3.org/2000/svg" viewBox="0 0 24 24"><g id="e"><path d="M20.65,3.35c-1.42-1.42-3.89-1.42-5.3,0-.71,.71-1.1,1.65-1.1,2.65,0,.19,.03,.37,.05,.55-1.13-.17-2.33,.17-3.2,1.04-.88,.88-1.22,2.09-1.04,3.23-1.14-.16-2.36,.17-3.2,1.01-.71,.71-1.1,1.65-1.1,2.65,0,.75,.22,1.46,.62,2.07l-3.92,3.92c-.29,.29-.29,.77,0,1.06,.15,.15,.34,.22,.53,.22s.38-.07,.53-.22l3.92-3.92c.61,.4,1.32,.62,2.07,.62,1,0,1.94-.39,2.65-1.1s1.1-1.65,1.1-2.65c0-.19-.03-.37-.05-.55,.18,.03,.36,.05,.55,.05,.96,0,1.92-.37,2.65-1.1,.87-.87,1.21-2.06,1.04-3.2,.18,.03,.36,.05,.55,.05,1,0,1.94-.39,2.65-1.1,.71-.71,1.1-1.65,1.1-2.65s-.39-1.94-1.1-2.65ZM11.76,14.49c0,.6-.23,1.17-.66,1.59-.85,.85-2.33,.85-3.18,0-.43-.42-.66-.99-.66-1.59s.23-1.17,.66-1.59c.42-.42,.99-.66,1.59-.66s1.17,.23,1.59,.66c.42,.42,.66,.99,.66,1.59Zm3.58-2.65c-.88,.88-2.31,.88-3.18,0-.88-.88-.88-2.3,0-3.18,.44-.44,1.01-.66,1.59-.66s1.15,.22,1.59,.66c.88,.88,.88,2.3,0,3.18Zm4.24-4.24c-.85,.85-2.33,.85-3.18,0-.43-.42-.66-.99-.66-1.59s.23-1.17,.66-1.59c.42-.42,.99-.66,1.59-.66s1.17,.23,1.59,.66c.43,.42,.66,.99,.66,1.59s-.23,1.17-.66,1.59Z"/></g></svg>