<?xml version="1.0" encoding="UTF-8"?><svg fill="currentColor" xmlns="http://www.w3.org/2000/svg" viewBox="0 0 24 24"><g id="m"><g><path d="M17.44,9.25h-3.69V4c0-.41-.34-.75-.75-.75s-.75,.34-.75,.75v5.25h-2.5V4c0-.41-.34-.75-.75-.75s-.75,.34-.75,.75v5.25h-3.69c-.71,0-1.37,.31-1.82,.86-.42,.52-.59,1.19-.46,1.82l1.46,8.02c.22,1.04,1.17,1.8,2.27,1.8H15.97c1.1,0,2.05-.76,2.27-1.82l1.46-7.98c.14-.65-.03-1.32-.45-1.84-.44-.54-1.1-.86-1.82-.86Zm.79,2.41l-1.46,7.98c-.07,.35-.41,.61-.8,.61H6.03c-.39,0-.73-.26-.8-.59l-1.46-8.02c-.06-.28,.07-.49,.15-.59,.16-.19,.39-.3,.65-.3h12.87c.26,0,.5,.11,.65,.3,.08,.1,.21,.31,.14,.61Z"/><path d="M11,7.75c.41,0,.75-.34,.75-.75V3c0-.41-.34-.75-.75-.75s-.75,.34-.75,.75V7c0,.41,.34,.75,.75,.75Z"/><path d="M4,7.75h2c.41,0,.75-.34,.75-.75s-.34-.75-.75-.75h-2c-.41,0-.75,.34-.75,.75s.34,.75,.75,.75Z"/><path d="M4,5.75h2c.41,0,.75-.34,.75-.75s-.34-.75-.75-.75h-2c-.41,0-.75,.34-.75,.75s.34,.75,.75,.75Z"/><path d="M16,5.75h6c.41,0,.75-.34,.75-.75s-.34-.75-.75-.75h-6c-.41,0-.75,.34-.75,.75s.34,.75,.75,.75Z"/><path d="M22,6.25h-6c-.41,0-.75,.34-.75,.75s.34,.75,.75,.75h6c.41,0,.75-.34,.75-.75s-.34-.75-.75-.75Z"/><path d="M13,14.25h-4c-.41,0-.75,.34-.75,.75s.34,.75,.75,.75h4c.41,0,.75-.34,.75-.75s-.34-.75-.75-.75Z"/></g></g></svg>