<?xml version="1.0" encoding="UTF-8"?><svg fill="currentColor" xmlns="http://www.w3.org/2000/svg" viewBox="0 0 24 24"><g id="q"><g><path d="M21.46,10.68c-1.9-3.35-5.53-5.43-9.46-5.43S4.44,7.33,2.54,10.68h0c-.3,.53-.37,1.16-.19,1.74,.15,.49,.47,.88,.9,1.15v1.43c0,2.07,1.68,3.75,3.75,3.75h10c2.07,0,3.75-1.68,3.75-3.75v-1.43c.43-.26,.75-.66,.9-1.15,.18-.58,.11-1.21-.19-1.74Zm-17.62,.74c1.63-2.88,4.76-4.67,8.16-4.67s6.52,1.79,8.16,4.67c.1,.17,.12,.37,.06,.55-.03,.11-.11,.26-.3,.35-.67,.32-1.35,.03-1.43,0-.36-.16-.79-.02-.97,.33-.12,.22-.33,.51-.66,.66-.66,.28-1.59-.05-2.22-.8-.14-.17-.35-.26-.57-.26h-.02c-.23,0-.44,.11-.58,.29-.53,.69-1.37,.71-1.47,.71-.89,0-1.41-.64-1.47-.71-.14-.18-.36-.29-.59-.29s-.45,.11-.59,.29c-.53,.69-1.37,.71-1.47,.71-.89,0-1.41-.64-1.47-.71-.21-.27-.58-.37-.9-.22-.08,.04-.76,.33-1.44,0-.17-.09-.25-.23-.28-.34-.06-.18-.03-.38,.06-.55Zm13.16,5.83H7c-1.24,0-2.25-1.01-2.25-2.25v-1.03c.32,0,.62-.04,.85-.1,.43,.39,1.2,.89,2.27,.89,.22,0,1.2-.04,2.07-.71,.45,.35,1.14,.71,2.06,.71,.22,0,1.2-.04,2.06-.7,.69,.56,1.51,.86,2.29,.86,.38,0,.75-.07,1.1-.22,.46-.2,.8-.5,1.05-.8,.21,.05,.47,.08,.75,.08v1.04c0,1.24-1.01,2.25-2.25,2.25Z"/><path d="M9,10.75c.19,0,.38-.07,.53-.22l1-1c.29-.29,.29-.77,0-1.06s-.77-.29-1.06,0l-1,1c-.29,.29-.29,.77,0,1.06,.15,.15,.34,.22,.53,.22Z"/><path d="M14.47,10.53c.15,.15,.34,.22,.53,.22s.38-.07,.53-.22c.29-.29,.29-.77,0-1.06l-1-1c-.29-.29-.77-.29-1.06,0s-.29,.77,0,1.06l1,1Z"/></g></g></svg>