<?xml version="1.0" encoding="UTF-8"?><svg fill="currentColor" xmlns="http://www.w3.org/2000/svg" viewBox="0 0 24 24"><g id="t"><path d="M21.74,8.85c-.17-.86-.67-1.6-1.41-2.09-.51-.34-1.1-.53-1.7-.56-.15-.55-.47-1.28-1.19-1.81-.86-.64-2.01-.78-3.04-.42-.48-.89-1.3-1.53-2.26-1.71-1.38-.26-2.79,.47-3.51,1.72-1.01-.35-2.16-.22-3.05,.4-.98,.68-1.51,1.84-1.44,3.01-1.09,.36-1.88,1.4-1.88,2.61,0,1.28,.88,2.35,2.07,2.65l.64,5.76c.21,1.9,1.81,3.34,3.73,3.34h6.63c1.91,0,3.52-1.43,3.73-3.34l.65-5.85c1.47-.57,2.36-2.12,2.04-3.71ZM6.45,18.25l-.61-5.49h1.41c0,.74,.41,1.38,1,1.72v5.73c-.95-.19-1.69-.96-1.8-1.96Zm7.8,2h-4.5v-5.57c.54-.14,1-.51,1.26-1.03l.21-.42c.3-.59,1.26-.59,1.55,0l.21,.42c.26,.52,.72,.88,1.26,1.03v5.57Zm3.3-2c-.11,.99-.85,1.77-1.8,1.96v-5.73c.59-.34,1-.98,1-1.71,0,0,0-.01,.01-.01h1.4l-.61,5.5Zm2.44-7.75c-.26,.38-.64,.65-1.07,.75h-2.16c-.83,0-1.51,.68-1.51,1.51,0,.27-.22,.49-.49,.49-.19,0-.35-.1-.44-.27l-.21-.42c-.4-.81-1.21-1.31-2.12-1.31s-1.71,.5-2.12,1.31l-.21,.42c-.08,.17-.25,.27-.44,.27-.27,0-.49-.22-.49-.49,0-.83-.68-1.51-1.51-1.51h-2.24c-.68,0-1.25-.57-1.25-1.25s.57-1.25,1.25-1.25c.24,0,.46-.11,.61-.31,.14-.19,.18-.44,.11-.67-.26-.8,.04-1.69,.71-2.15,.63-.44,1.5-.44,2.15,0,.2,.13,.45,.16,.67,.08,.23-.08,.4-.26,.47-.49,.29-1,1.24-1.64,2.14-1.48,.67,.13,1.22,.69,1.41,1.45,.06,.24,.23,.43,.46,.52,.23,.09,.48,.06,.68-.07,.69-.45,1.55-.46,2.14-.02,.65,.48,.69,1.32,.7,1.42,0,.22,.11,.43,.28,.57,.17,.14,.4,.19,.61,.15,.97-.19,1.92,.44,2.12,1.41,.09,.47,0,.95-.27,1.35Z"/></g></svg>