<?xml version="1.0" encoding="UTF-8"?><svg fill="currentColor" xmlns="http://www.w3.org/2000/svg" viewBox="0 0 24 24"><g id="s"><g><path d="M21.72,7.82s0-.09-.02-.13v-.02h-.02c-.47-1.25-1.22-2.37-2.18-3.26-1.28-1.19-2.68-1.76-3.63-2.02-.52-.14-1.04-.17-1.55-.09-2.3,.36-4.53,1.03-6.64,1.98-1.83,.82-3.56,1.86-5.15,3.09-.01,.01-.02,.03-.03,.04-.04,.03-.07,.07-.1,.11-.03,.04-.06,.07-.08,.12-.02,.04-.03,.08-.04,.13-.01,.05-.03,.1-.03,.15,0,.02,0,.03,0,.05v2c0,.96,.79,1.75,1.75,1.75H20c.96,0,1.75-.79,1.75-1.75v-2s-.02-.09-.03-.13Zm-13.41-2.19c1.99-.9,4.09-1.52,6.26-1.86,.3-.05,.61-.03,.92,.06,.79,.22,1.94,.68,3,1.67,.52,.49,.97,1.07,1.32,1.7H5.4c.93-.58,1.9-1.11,2.9-1.57Zm11.94,4.32c0,.14-.11,.25-.25,.25H4c-.14,0-.25-.11-.25-.25v-1.25H20.25v1.25Z"/><path d="M20,17.25H4c-.96,0-1.75,.79-1.75,1.75v1c0,.96,.79,1.75,1.75,1.75H20c.96,0,1.75-.79,1.75-1.75v-1c0-.96-.79-1.75-1.75-1.75Zm.25,2.75c0,.14-.11,.25-.25,.25H4c-.14,0-.25-.11-.25-.25v-1c0-.14,.11-.25,.25-.25H20c.14,0,.25,.11,.25,.25v1Z"/><path d="M3.51,15.56c.63-.58,1.2-.85,1.67-.81,.28,.03,.46,.15,.75,.38,.35,.27,.83,.63,1.58,.63s1.25-.39,1.6-.67c.28-.23,.42-.33,.65-.33s.37,.1,.65,.33c.35,.28,.82,.67,1.6,.67s1.25-.39,1.6-.67c.28-.23,.42-.33,.65-.33s.37,.1,.65,.33c.35,.28,.82,.67,1.6,.67s1.23-.36,1.58-.63c.29-.22,.47-.35,.75-.38,.48-.05,1.03,.22,1.67,.81,.14,.13,.33,.2,.51,.2,.2,0,.4-.08,.55-.24,.28-.31,.26-.78-.04-1.06-.96-.88-1.92-1.29-2.83-1.19-.71,.07-1.17,.42-1.5,.67-.6,.45-.76,.45-1.33,0-.35-.28-.82-.67-1.6-.67s-1.25,.39-1.6,.67c-.28,.23-.42,.33-.65,.33s-.37-.1-.65-.33c-.35-.28-.82-.67-1.6-.67s-1.25,.39-1.6,.67c-.57,.46-.73,.46-1.33,0-.33-.25-.79-.6-1.5-.67-.92-.09-1.87,.31-2.83,1.19-.3,.28-.32,.75-.04,1.06,.28,.31,.76,.33,1.06,.04Z"/></g></g></svg>