<?xml version="1.0" encoding="UTF-8"?><svg fill="currentColor" xmlns="http://www.w3.org/2000/svg" viewBox="0 0 24 24"><g id="k"><g><path d="M18.75,5.5c0-2.13-3.4-3.25-6.75-3.25s-6.75,1.12-6.75,3.25c0,.11,.01,.23,.03,.33-.01,.05-.03,.11-.03,.17v12c0,.09,.02,.17,.05,.25-.03,.08-.05,.16-.05,.25,0,2.13,3.4,3.25,6.75,3.25s6.75-1.12,6.75-3.25c0-.09-.02-.17-.05-.25,.03-.08,.05-.16,.05-.25V6c0-.06-.02-.11-.03-.17,.02-.11,.03-.22,.03-.33Zm-6.75-1.75c3.4,0,5.25,1.16,5.25,1.75s-1.85,1.75-5.25,1.75-5.25-1.16-5.25-1.75,1.85-1.75,5.25-1.75Zm0,16.5c-3.4,0-5.25-1.16-5.25-1.75,0-.09-.02-.17-.05-.25,.03-.08,.05-.16,.05-.25V7.61c1.3,.75,3.28,1.14,5.25,1.14s3.95-.39,5.25-1.14v10.39c0,.09,.02,.17,.05,.25-.03,.08-.05,.16-.05,.25,0,.59-1.85,1.75-5.25,1.75Z"/><path d="M12,11.25c-1.52,0-2.75,1.23-2.75,2.75s1.23,2.75,2.75,2.75,2.75-1.23,2.75-2.75-1.23-2.75-2.75-2.75Zm0,4c-.69,0-1.25-.56-1.25-1.25s.56-1.25,1.25-1.25,1.25,.56,1.25,1.25-.56,1.25-1.25,1.25Z"/></g></g></svg>