<?xml version="1.0" encoding="UTF-8"?><svg fill="currentColor" xmlns="http://www.w3.org/2000/svg" viewBox="0 0 24 24"><g id="g"><path d="M20,8.25h-.29c-.37-3.37-3.24-6-6.71-6h-2c-3.47,0-6.33,2.63-6.71,6h-.29c-.41,0-.75,.34-.75,.75s.34,.75,.75,.75h.36l1.62,9.7c.22,1.33,1.36,2.3,2.71,2.3h6.61c1.35,0,2.49-.97,2.71-2.3l1.62-9.7h.36c.41,0,.75-.34,.75-.75s-.34-.75-.75-.75ZM11,3.75h2c2.64,0,4.8,1.96,5.17,4.5H5.83c.37-2.54,2.53-4.5,5.17-4.5Zm5.54,15.46c-.1,.6-.62,1.04-1.23,1.04h-6.61c-.61,0-1.13-.44-1.23-1.04l-.85-5.09c1.03,.42,2.05,.64,3.04,.64,.13,0,.26,0,.38-.01,.94-.05,1.59-.28,2.28-.51,.52-.18,1.06-.36,1.81-.5,1.08-.2,2.2-.21,3.32-.05l-.92,5.52Zm1.17-7c-1.3-.18-2.59-.17-3.84,.06-.86,.16-1.48,.37-2.03,.56-.64,.22-1.15,.39-1.88,.43-1.15,.07-2.36-.24-3.6-.91-.01,0-.03,0-.04-.01l-.43-2.58h12.23l-.41,2.46Z"/></g></svg>