<?xml version="1.0" encoding="UTF-8"?><svg fill="currentColor" xmlns="http://www.w3.org/2000/svg" viewBox="0 0 24 24"><g id="k"><g><circle cx="12" cy="5" r="2.75"/><path d="M14.75,16v-2c0-.14,.11-.25,.25-.25,.96,0,1.75-.79,1.75-1.75v-2c0-.96-.79-1.75-1.75-1.75h-6c-.96,0-1.75,.79-1.75,1.75v2c0,.96,.79,1.75,1.75,1.75,.14,0,.25,.11,.25,.25v2c0,.96,.79,1.75,1.75,1.75h2c.96,0,1.75-.79,1.75-1.75Z"/><path d="M20.75,17.5c0-1.17-1.23-2.09-3.57-2.68-.4-.1-.81,.14-.91,.54-.1,.4,.14,.81,.54,.91,1.86,.47,2.43,1.06,2.43,1.22,0,.44-1.93,1.44-5.54,1.69,.07-.25,.01-.53-.18-.72-.29-.29-.77-.29-1.06,0l-1,1c-.07,.07-.13,.16-.16,.24-.04,.09-.06,.18-.06,.29s.02,.2,.06,.29c.04,.09,.09,.17,.16,.24l1,1c.15,.15,.34,.22,.53,.22s.38-.07,.53-.22c.23-.23,.27-.56,.15-.84,3.66-.24,7.07-1.26,7.07-3.19Z"/><path d="M9.09,19.07c-3.09-.39-4.34-1.27-4.34-1.57,0-.16,.58-.76,2.43-1.22,.4-.1,.65-.51,.54-.91-.1-.4-.5-.65-.91-.54-2.33,.59-3.57,1.51-3.57,2.68,0,2.12,3.96,2.85,5.66,3.06,.03,0,.06,0,.1,0,.37,0,.7-.28,.74-.66,.05-.41-.24-.79-.65-.84Z"/></g></g></svg>