<?xml version="1.0" encoding="UTF-8"?><svg fill="currentColor" xmlns="http://www.w3.org/2000/svg" viewBox="0 0 24 24"><g id="s"><path d="M17.15,4.21c-1.65-1.47-3.87-2.16-6.08-1.9-3.88,.46-6.81,3.89-6.81,7.99,0,1.93,.7,3.79,1.97,5.24l4.47,5.1c.33,.38,.81,.6,1.32,.6s.98-.22,1.32-.6l4.47-5.1c1.27-1.45,1.97-3.31,1.97-5.24v-.29c0-2.21-.95-4.32-2.6-5.79Zm-2.15,6.54h-2.25v2.25c0,.41-.34,.75-.75,.75s-.75-.34-.75-.75v-2.25h-2.25c-.41,0-.75-.34-.75-.75s.34-.75,.75-.75h2.25v-2.25c0-.41,.34-.75,.75-.75s.75,.34,.75,.75v2.25h2.25c.41,0,.75,.34,.75,.75s-.34,.75-.75,.75Z"/></g></svg>