<?xml version="1.0" encoding="UTF-8"?><svg fill="currentColor" xmlns="http://www.w3.org/2000/svg" viewBox="0 0 24 24"><g id="p"><g><path d="M13.79,11.27l-2.53,2.53,3.32,1.11c.13,.04,.22-.02,.26-.06,.04-.04,.1-.13,.06-.26l-1.11-3.31Z"/><path d="M12.73,10.21l-3.32-1.11s-.06-.01-.08-.01c-.08,0-.14,.04-.17,.07-.04,.04-.1,.13-.06,.26l1.11,3.31,2.53-2.53Z"/><path d="M16,2.25H8c-3.17,0-5.75,2.58-5.75,5.75v8c0,3.17,2.58,5.75,5.75,5.75h8c3.17,0,5.75-2.58,5.75-5.75V8c0-3.17-2.58-5.75-5.75-5.75Zm-.1,13.65c-.33,.33-.78,.51-1.23,.51-.19,0-.37-.03-.56-.09l-4.47-1.49c-.1-.03-.19-.09-.26-.15,0,0-.01-.02-.02-.03-.07-.07-.13-.16-.17-.25,0-.01-.02-.02-.02-.04l-1.49-4.47c-.21-.63-.05-1.32,.42-1.79,.47-.47,1.16-.64,1.79-.42l4.47,1.49s.02,.02,.04,.02c.09,.04,.18,.09,.25,.16,0,0,.02,.01,.03,.02,.07,.07,.12,.16,.15,.26l1.49,4.47c.21,.63,.05,1.32-.42,1.79Z"/></g></g></svg>