<?xml version="1.0" encoding="UTF-8"?><svg fill="currentColor" xmlns="http://www.w3.org/2000/svg" viewBox="0 0 24 24"><g id="u"><path d="M9.25,16c0,.41,.34,.75,.75,.75h4c.41,0,.75-.34,.75-.75s-.34-.75-.75-.75h-1.25v-4.79l3.8-1.9c.6-.3,.97-.9,.97-1.57s-.37-1.27-.97-1.57l-3.49-1.74c-.39-.2-.84-.17-1.22,.06-.37,.23-.59,.63-.59,1.06V15.25h-1.25c-.41,0-.75,.34-.75,.75Z"/><path d="M14.25,12.05v1.71c1.12,.13,2,1.08,2,2.24,0,1.24-1.01,2.25-2.25,2.25h-4c-1.24,0-2.25-1.01-2.25-2.25,0-1.16,.88-2.11,2-2.24v-1.71c-4.16,.43-7.25,2-7.25,3.88,0,2.21,4.25,4,9.5,4s9.5-1.79,9.5-4c0-1.88-3.09-3.45-7.25-3.88Z"/></g></svg>