<?xml version="1.0" encoding="UTF-8"?><svg fill="currentColor" xmlns="http://www.w3.org/2000/svg" viewBox="0 0 24 24"><g id="b"><g><path d="M4.45,17.6c1.03-.77,2.21-.92,3.02-.88,.33,0,.65-.12,.9-.35,.24-.24,.38-.56,.38-.9V3.46c0-.67-.53-1.22-1.2-1.24-1.06-.02-2.61,.14-4,1.18-.18,.14-.35,.28-.5,.42-.51,.48-.81,1.19-.81,1.95v12.24c0,.32,.21,.61,.51,.71,.08,.03,.16,.04,.24,.04,.23,0,.45-.11,.6-.3,.25-.33,.53-.62,.85-.85Z"/><path d="M16.09,9.75h-.16c-.65,.02-1.25,.34-1.65,.89-.42,.57-.55,1.28-.36,1.94,.24,.84,.62,1.61,1.12,2.28,.29,.38,.61,.74,.98,1.06,.36-.32,.69-.68,.98-1.06,.46-.62,.82-1.33,1.07-2.1,.23-.71,.11-1.5-.31-2.1-.39-.56-.98-.89-1.66-.92Zm-.07,3c-.41,0-.75-.34-.75-.75s.33-.75,.75-.75h0c.42,0,.75,.34,.75,.75s-.33,.75-.75,.75Z"/><path d="M17,4.25h-6.75V15.46c0,.74-.31,1.46-.84,1.98-.51,.5-1.2,.77-1.93,.77h-.21c-.52,0-1.27,.1-1.92,.59-.2,.15-.39,.34-.55,.55-.42,.55-1.08,.88-1.77,.89,.68,.91,1.75,1.5,2.97,1.5h11c2.62,0,4.75-2.13,4.75-4.75V9c0-2.62-2.13-4.75-4.75-4.75Zm2.49,8.97c-.29,.93-.73,1.78-1.29,2.54-.49,.65-1.07,1.24-1.73,1.73-.13,.1-.29,.15-.45,.15s-.32-.05-.45-.15c-.66-.49-1.24-1.08-1.73-1.73-.61-.82-1.07-1.75-1.36-2.76-.32-1.11-.11-2.29,.59-3.24,.68-.93,1.7-1.47,2.82-1.51h.27c1.14,.05,2.17,.62,2.82,1.56,.69,.98,.88,2.26,.51,3.41Z"/></g></g></svg>