<?xml version="1.0" encoding="UTF-8"?><svg fill="currentColor" xmlns="http://www.w3.org/2000/svg" viewBox="0 0 24 24"><g id="c"><g><circle cx="12" cy="10" r="2.25"/><path d="M17.15,4.21c-1.65-1.47-3.87-2.17-6.09-1.9-3.88,.46-6.81,3.89-6.81,7.99,0,1.93,.7,3.79,1.97,5.24l4.46,5.1c.33,.38,.81,.6,1.32,.6s.99-.22,1.32-.6l4.46-5.1c1.27-1.45,1.97-3.31,1.97-5.24v-.29c0-2.21-.95-4.32-2.6-5.79Zm-5.15,9.54c-2.07,0-3.75-1.68-3.75-3.75s1.68-3.75,3.75-3.75,3.75,1.68,3.75,3.75-1.68,3.75-3.75,3.75Z"/></g></g></svg>