<?xml version="1.0" encoding="UTF-8"?><svg fill="currentColor" xmlns="http://www.w3.org/2000/svg" viewBox="0 0 24 24"><g id="e"><path d="M11.25,10.67v5.58h-1.25c-.41,0-.75,.34-.75,.75s.34,.75,.75,.75h4c.41,0,.75-.34,.75-.75s-.34-.75-.75-.75h-1.25v-5.58c1.71-.35,3-1.86,3-3.67,0-2.07-1.68-3.75-3.75-3.75s-3.75,1.68-3.75,3.75c0,1.81,1.29,3.33,3,3.67Z"/><path d="M14.25,13.12v1.64c1.12,.13,2,1.08,2,2.24,0,1.24-1.01,2.25-2.25,2.25h-4c-1.24,0-2.25-1.01-2.25-2.25,0-1.16,.88-2.11,2-2.24v-1.64c-4.16,.43-7.25,2-7.25,3.88,0,2.21,4.25,4,9.5,4s9.5-1.79,9.5-4c0-1.88-3.09-3.45-7.25-3.88Z"/></g></svg>