<?xml version="1.0" encoding="UTF-8"?><svg fill="currentColor" xmlns="http://www.w3.org/2000/svg" viewBox="0 0 24 24"><g id="d"><g><path d="M5,8.75c1.25,0,2.3-.85,2.63-2h8.37c1.24,0,2.25,1.01,2.25,2.25v.19l-.72-.72c-.29-.29-.77-.29-1.06,0s-.29,.77,0,1.06l2,2c.07,.07,.16,.13,.24,.16,.09,.04,.19,.06,.29,.06s.2-.02,.29-.06c.09-.04,.17-.09,.24-.16l2-2c.29-.29,.29-.77,0-1.06s-.77-.29-1.06,0l-.72,.72v-.19c0-2.07-1.68-3.75-3.75-3.75H7.63c-.33-1.15-1.38-2-2.63-2-1.52,0-2.75,1.23-2.75,2.75s1.23,2.75,2.75,2.75Z"/><path d="M19,15.25c-1.25,0-2.3,.85-2.63,2H8c-1.24,0-2.25-1.01-2.25-2.25v-.19l.72,.72c.15,.15,.34,.22,.53,.22s.38-.07,.53-.22c.29-.29,.29-.77,0-1.06l-2-2c-.07-.07-.16-.13-.24-.16-.09-.04-.18-.06-.29-.06s-.2,.02-.29,.06c-.09,.04-.17,.09-.24,.16l-2,2c-.29,.29-.29,.77,0,1.06s.77,.29,1.06,0l.72-.72v.19c0,2.07,1.68,3.75,3.75,3.75h8.37c.33,1.15,1.38,2,2.63,2,1.52,0,2.75-1.23,2.75-2.75s-1.23-2.75-2.75-2.75Z"/></g></g></svg>