<?xml version="1.0" encoding="UTF-8"?><svg fill="currentColor" xmlns="http://www.w3.org/2000/svg" viewBox="0 0 24 24"><g id="o"><g><path d="M20.5,15.88l-3.13-10c-.49-1.57-1.93-2.63-3.58-2.63h-3.59c-1.65,0-3.09,1.06-3.58,2.63L3.5,15.88c-.36,1.15-.16,2.37,.56,3.34s1.82,1.53,3.02,1.53h9.84c1.21,0,2.31-.56,3.02-1.53s.92-2.19,.56-3.34ZM11.25,6c0-.41,.34-.75,.75-.75s.75,.34,.75,.75v1c0,.41-.34,.75-.75,.75s-.75-.34-.75-.75v-1Zm0,4c0-.41,.34-.75,.75-.75s.75,.34,.75,.75v1c0,.41-.34,.75-.75,.75s-.75-.34-.75-.75v-1Zm4.21,9.21c-.36,.46-.96,.65-1.53,.47l-1.97-.63-1.91,.63c-.14,.05-.29,.07-.44,.07-.42,0-.82-.19-1.09-.54-.35-.45-.38-1.05-.08-1.53l2.37-3.79c.51-.81,1.85-.81,2.35,0l2.37,3.79c.3,.48,.27,1.08-.08,1.53Z"/><path d="M9.94,18.15l1.64-.52c.28-.09,.58-.09,.86,0l1.64,.52-2.06-3.3-2.06,3.3Z"/></g></g></svg>