<?xml version="1.0" encoding="UTF-8"?><svg fill="currentColor" xmlns="http://www.w3.org/2000/svg" viewBox="0 0 24 24"><g id="r"><g><circle cx="12" cy="12" r="1.25"/><path d="M15.75,12c0-1.24,1.01-2.25,2.25-2.25h1.41c-.75-2.46-2.7-4.4-5.16-5.15v1.4c0,1.24-1.01,2.25-2.25,2.25s-2.25-1.01-2.25-2.25v-1.4c-2.46,.75-4.42,2.68-5.16,5.15h1.41c1.24,0,2.25,1.01,2.25,2.25s-1.01,2.25-2.25,2.25h-1.4c.75,2.46,2.68,4.42,5.15,5.16v-1.41c0-1.24,1.01-2.25,2.25-2.25s2.25,1.01,2.25,2.25v1.41c2.46-.75,4.4-2.7,5.15-5.16h-1.4c-1.24,0-2.25-1.01-2.25-2.25Zm-3.75,2.75c-1.52,0-2.75-1.23-2.75-2.75s1.23-2.75,2.75-2.75,2.75,1.23,2.75,2.75-1.23,2.75-2.75,2.75Z"/><path d="M12,6.75c.41,0,.75-.34,.75-.75V3c0-.41-.34-.75-.75-.75s-.75,.34-.75,.75v3c0,.41,.34,.75,.75,.75Z"/><path d="M21,11.25h-3c-.41,0-.75,.34-.75,.75s.34,.75,.75,.75h3c.41,0,.75-.34,.75-.75s-.34-.75-.75-.75Z"/><path d="M12,17.25c-.41,0-.75,.34-.75,.75v3c0,.41,.34,.75,.75,.75s.75-.34,.75-.75v-3c0-.41-.34-.75-.75-.75Z"/><path d="M6.75,12c0-.41-.34-.75-.75-.75H3c-.41,0-.75,.34-.75,.75s.34,.75,.75,.75h3c.41,0,.75-.34,.75-.75Z"/></g></g></svg>