<?xml version="1.0" encoding="UTF-8"?><svg fill="currentColor" xmlns="http://www.w3.org/2000/svg" viewBox="0 0 24 24"><g id="f"><path d="M16.55,19.7l-2.19-3.65c-.5-.83-1.38-1.33-2.36-1.33h0c-.97,0-1.85,.5-2.36,1.33l-2.19,3.65c-.32,.53-.25,1.21,.16,1.65,.24,.26,.55,.4,.88,.4,.17,0,.34-.04,.51-.12l2.47-1.17c.34-.16,.73-.16,1.07,0l2.47,1.17c.48,.23,1.02,.12,1.39-.28,.41-.45,.47-1.13,.16-1.66Z"/><path d="M12,2.25C6.62,2.25,2.25,6.62,2.25,12c0,1.94,.57,3.81,1.64,5.42,.14,.21,.37,.33,.62,.33h2.35l.61-1.01c-.19-.01-.38-.09-.51-.24-1.11-1.24-1.72-2.84-1.72-4.5,0-3.72,3.03-6.75,6.75-6.75s6.75,3.03,6.75,6.75c0,1.66-.61,3.26-1.72,4.5-.13,.15-.31,.23-.51,.24l.61,1.01h2.35c.25,0,.48-.13,.62-.33,1.07-1.6,1.64-3.48,1.64-5.42,0-5.38-4.37-9.75-9.75-9.75Z"/><path d="M8.38,15.25c.78-1.27,2.13-2.04,3.63-2.04s2.85,.76,3.63,2.04h.5c.73-.92,1.13-2.07,1.13-3.25,0-2.89-2.35-5.25-5.25-5.25s-5.25,2.36-5.25,5.25c0,1.18,.4,2.33,1.13,3.25h.5Z"/></g></svg>