<?xml version="1.0" encoding="UTF-8"?><svg fill="currentColor" xmlns="http://www.w3.org/2000/svg" viewBox="0 0 24 24"><g id="u"><g><path d="M10.02,12.75c.41,0,.75-.34,.75-.75s-.34-.75-.75-.75h-.01c-.41,0-.74,.34-.74,.75s.34,.75,.75,.75Z"/><path d="M14.02,11.25h-.01c-.41,0-.74,.34-.74,.75s.34,.75,.75,.75,.75-.34,.75-.75-.34-.75-.75-.75Z"/><path d="M13.4,15.55c-.05,.07-.55,.7-1.4,.7-.09,0-.89-.02-1.4-.7-.25-.33-.72-.4-1.05-.15-.33,.25-.4,.72-.15,1.05,.93,1.24,2.33,1.3,2.6,1.3,1.55,0,2.44-1.08,2.6-1.3,.25-.33,.18-.8-.15-1.05-.33-.25-.8-.18-1.05,.15Z"/><path d="M19.5,10.25h-.25c-1.11-2.92-3.93-4.91-7.07-4.99-1-.32-1.45-.91-1.42-1.16,.02-.16,.18-.35,.24-.35h0c.06,0,.22,.12,.26,.37,.07,.41,.45,.69,.86,.62,.41-.07,.69-.45,.62-.86-.15-.93-.88-1.62-1.72-1.63-.9,.02-1.64,.84-1.75,1.65-.08,.59,.14,1.17,.59,1.67-2.31,.67-4.24,2.39-5.11,4.68h-.25c-1.24,0-2.25,1.01-2.25,2.25s.98,2.22,2.2,2.25c.8,3.46,3.94,6,7.55,6s6.75-2.54,7.55-6c1.22-.03,2.2-1.03,2.2-2.25s-1.01-2.25-2.25-2.25Zm0,3h-.57c-.37,0-.69,.27-.74,.64-.44,3.05-3.1,5.36-6.19,5.36s-5.75-2.3-6.19-5.36c-.05-.37-.37-.64-.74-.64h-.57c-.41,0-.75-.34-.75-.75s.34-.75,.75-.75h.79c.33,0,.62-.22,.72-.54,.78-2.63,3.25-4.46,5.99-4.46s5.21,1.84,5.99,4.46c.09,.32,.39,.54,.72,.54h.79c.41,0,.75,.34,.75,.75s-.34,.75-.75,.75Z"/></g></g></svg>