<?xml version="1.0" encoding="UTF-8"?><svg fill="currentColor" xmlns="http://www.w3.org/2000/svg" viewBox="0 0 24 24"><g id="b"><g><path d="M19.5,12.25h-1.84c-.95,0-1.88-.26-2.7-.75l-2.15-1.29c-1.05-.63-2.25-.96-3.47-.96H4.5c-1.24,0-2.25,1.01-2.25,2.25,0,.8,.42,1.5,1.05,1.9l.59,4.13c.26,1.84,1.86,3.22,3.71,3.22h9.06c1.72,0,3.22-1.17,3.64-2.84l.37-1.5c.64-.4,1.08-1.1,1.08-1.91,0-1.24-1.01-2.25-2.25-2.25Zm-1.84,1.5h1.84c.41,0,.75,.34,.75,.75s-.34,.75-.75,.75h-1.84c-.49,0-.98-.07-1.45-.21-.44-.13-.86-.31-1.25-.54l-.21-.13v-1.3c.91,.44,1.9,.68,2.91,.68Zm-5.62-2.25l1.21,.73v3.28c0,.41-.34,.75-.75,.75s-.75-.34-.75-.75v-2c0-.41-.34-.75-.75-.75s-.75,.34-.75,.75-.34,.75-.75,.75-.75-.34-.75-.75v-2.75h.59c.95,0,1.88,.26,2.7,.75Zm4.62,7.75H7.6c-1.11,0-2.07-.83-2.23-1.93l-.51-3.57h.14c.41,0,.75-.34,.75-.75s-.34-.75-.75-.75h-.5c-.41,0-.75-.34-.75-.75s.34-.75,.75-.75h2.75v2.75c0,1.24,1.01,2.25,2.25,2.25,.26,0,.52-.05,.75-.13,.06,1.19,1.05,2.13,2.25,2.13,1.05,0,1.93-.73,2.18-1.71,.36,.18,.73,.34,1.12,.45,.61,.17,1.24,.26,1.87,.26h1.38l-.2,.8c-.25,1-1.15,1.7-2.18,1.7Z"/><path d="M8.5,7.75c1.24,0,2.25-1.01,2.25-2.25s-1.01-2.25-2.25-2.25-2.25,1.01-2.25,2.25,1.01,2.25,2.25,2.25Zm0-3c.41,0,.75,.34,.75,.75s-.34,.75-.75,.75-.75-.34-.75-.75,.34-.75,.75-.75Z"/><path d="M14.5,9.75c1.24,0,2.25-1.01,2.25-2.25s-1.01-2.25-2.25-2.25-2.25,1.01-2.25,2.25,1.01,2.25,2.25,2.25Zm0-3c.41,0,.75,.34,.75,.75s-.34,.75-.75,.75-.75-.34-.75-.75,.34-.75,.75-.75Z"/><path d="M19.5,6.75c1.24,0,2.25-1.01,2.25-2.25s-1.01-2.25-2.25-2.25-2.25,1.01-2.25,2.25,1.01,2.25,2.25,2.25Zm0-3c.41,0,.75,.34,.75,.75s-.34,.75-.75,.75-.75-.34-.75-.75,.34-.75,.75-.75Z"/></g></g></svg>