<?xml version="1.0" encoding="UTF-8"?><svg fill="currentColor" xmlns="http://www.w3.org/2000/svg" viewBox="0 0 24 24"><g id="r"><path d="M19.03,7.48c0-.63-.25-1.26-.73-1.74-.46-.47-1.08-.72-1.74-.73-.33-1.92-1.36-3.3-2.56-3.22-.87,.04-1.45,.83-1.77,1.44-.61,.32-1.4,.91-1.44,1.77-.06,1.18,1.3,2.22,3.22,2.56,0,.66,.27,1.27,.73,1.74,.46,.46,1.08,.72,1.74,.73,.17,.97,.52,1.78,.97,2.35-.19,.94-.65,1.8-1.34,2.48l-4,4c-.93,.93-2.16,1.44-3.47,1.44s-2.54-.51-3.47-1.44c-.78-.78-1.24-1.78-1.38-2.85,.62-.5,1.32-.82,2.08-.93,1.31-.2,2.34,.27,2.84,.57,.66,.58,1.49,.91,2.38,.91h0c.97,0,1.88-.38,2.56-1.06,1.41-1.41,1.41-3.71,0-5.12-1.41-1.41-3.71-1.41-5.12,0-.88,.88-1.21,2.11-.99,3.26-.56-.1-1.19-.14-1.88-.04-.61,.09-1.19,.29-1.75,.57,.22-.84,.63-1.61,1.26-2.24l4-4c.29-.29,.29-.77,0-1.06s-.77-.29-1.06,0l-4,4c-1.21,1.21-1.88,2.82-1.88,4.53s.67,3.32,1.88,4.53c1.21,1.21,2.82,1.88,4.53,1.88s3.32-.67,4.53-1.88l4-4c.76-.76,1.29-1.69,1.59-2.7,.07,0,.13,.03,.2,.03,.02,0,.05,0,.07,0,.87-.04,1.45-.83,1.77-1.44,.61-.32,1.4-.9,1.44-1.77,.06-1.18-1.3-2.22-3.22-2.56Zm-9.42,3.95c.41-.41,.96-.62,1.5-.62s1.09,.21,1.5,.62c.83,.83,.83,2.17,0,3-.4,.4-.93,.62-1.5,.62s-1.1-.22-1.5-.62c-.83-.83-.83-2.17,0-3Zm2.68-6.35c.02-.08,.25-.35,.82-.61,.16-.07,.29-.2,.37-.37,.25-.53,.52-.79,.6-.81,.22,.02,.85,.73,1.05,2.16-.13,.09-.25,.19-.37,.3-.11,.11-.21,.24-.3,.37-1.43-.2-2.13-.82-2.16-1.04Zm3.22,2.45c0-.27,.11-.53,.3-.72,.19-.19,.45-.3,.72-.3h0c.27,0,.52,.1,.71,.29,.39,.39,.39,1.04,0,1.43-.19,.19-.45,.3-.72,.3-.3,0-.52-.1-.71-.29-.19-.19-.29-.44-.29-.71Zm4.43,3.05c-.16,.07-.29,.2-.37,.37-.25,.53-.52,.79-.6,.81-.22-.02-.84-.73-1.05-2.16,.13-.09,.25-.19,.37-.3,.11-.11,.21-.24,.3-.37,1.43,.2,2.13,.82,2.16,1.04-.02,.09-.29,.36-.82,.61Z"/></g></svg>