<?xml version="1.0" encoding="UTF-8"?><svg fill="currentColor" xmlns="http://www.w3.org/2000/svg" viewBox="0 0 24 24"><g id="k"><path d="M19.9,4.28c-1.36-1.36-3.18-2.12-5.11-2.12s-3.74,.75-5.11,2.12-2.12,3.18-2.12,5.11c0,1.14,.27,2.24,.77,3.23l-2.65,2.65s-.08,.06-.09,.06c-1.21-.03-2.29,.62-2.9,1.7-.54,.96-.53,2.19,.02,3.15,.52,.9,1.4,1.5,2.41,1.63,.14,.02,.29,.03,.43,.03,.86,0,1.67-.33,2.29-.95,.6-.6,.94-1.41,.95-2.26,0-.08,.02-.12,.02-.12l2.67-2.67c1.01,.52,2.12,.79,3.29,.79,1.93,0,3.74-.75,5.11-2.12s2.12-3.18,2.12-5.11-.75-3.74-2.12-5.11Zm-1.06,1.06c1.08,1.08,1.68,2.52,1.68,4.05,0,.84-.2,1.64-.54,2.38-2.18,1-4.75,.57-6.46-1.15s-2.14-4.22-1.18-6.39c.76-.36,1.59-.58,2.46-.58,1.53,0,2.97,.6,4.05,1.68ZM7.77,17.43c-.3,.3-.46,.7-.46,1.17,0,.46-.19,.89-.51,1.22-.39,.39-.92,.57-1.47,.5-.55-.07-1.02-.39-1.31-.89-.29-.5-.3-1.16-.01-1.66,.33-.58,.91-.93,1.55-.93h.02c.42,0,.84-.17,1.17-.5l2.42-2.42c.16,.2,.33,.4,.52,.58,.17,.17,.35,.33,.54,.49l-2.45,2.45Zm2.97-4c-1.08-1.08-1.68-2.52-1.68-4.05,0-1.34,.48-2.59,1.32-3.61-.23,2.14,.48,4.32,2.07,5.91,1.4,1.4,3.25,2.13,5.12,2.13,.29,0,.57-.02,.86-.05-1.03,.86-2.29,1.35-3.65,1.35-1.53,0-2.97-.6-4.05-1.68Z"/></g></svg>