<?xml version="1.0" encoding="UTF-8"?><svg fill="currentColor" xmlns="http://www.w3.org/2000/svg" viewBox="0 0 24 24"><g id="m"><path d="M19.47,6.42c-.43-.35-.92-.64-1.45-.86-.72-.3-1.6-.05-2.07,.61l-3.21,4.49V4.5c0-1.24-1.01-2.25-2.25-2.25s-2.25,1.01-2.25,2.25v7.75H4c-.96,0-1.75,.79-1.75,1.75v1c0,3.17,2.58,5.75,5.75,5.75h8c3.17,0,5.75-2.58,5.75-5.75v-1.96c.08-.63,.41-4.43-2.28-6.62Zm-2.29,.62c.07-.09,.18-.13,.27-.1,.39,.16,.76,.38,1.08,.64,1.65,1.34,1.81,3.56,1.78,4.67h-6.85l3.72-5.21Zm-7.43-2.54c0-.41,.34-.75,.75-.75s.75,.34,.75,.75v7.75h-1.5V4.5Zm10.5,10.5c0,2.34-1.91,4.25-4.25,4.25H8c-2.34,0-4.25-1.91-4.25-4.25v-1c0-.14,.11-.25,.25-.25H20.25v1.25Z"/></g></svg>