<?xml version="1.0" encoding="UTF-8"?><svg fill="currentColor" xmlns="http://www.w3.org/2000/svg" viewBox="0 0 24 24"><g id="j"><g><path d="M18.67,3.64c-.4-.47-.97-.74-1.59-.76-.63-.03-1.25,.22-1.69,.66-.13,.13-.23,.27-.32,.41-.02,.02-.05,.02-.07,.04-1.22,1.21-2.82,1.24-3,1.24-1.4,0-2.41-.69-3-1.26-.02-.02-.06-.03-.08-.05-.09-.14-.19-.27-.31-.39-.44-.45-1.06-.69-1.69-.66-.62,.02-1.19,.29-1.59,.76-3.23,3.73-4.03,8.84-1.99,12.71,1.31,2.49,4.37,5.4,8.66,5.4s7.35-2.91,8.66-5.4c2.04-3.87,1.24-8.97-1.99-12.71Zm-3.66,2.59c.49,.82,.6,1.74,.29,2.47-.58,1.39-2.51,1.54-3.31,1.54s-2.72-.15-3.31-1.54c-.31-.73-.2-1.66,.29-2.47,.06-.09,.1-.19,.14-.29,.48,.28,1.06,.53,1.73,.67l-.52,1.04c-.19,.37-.04,.82,.34,1.01,.37,.18,.82,.04,1.01-.34l.16-.31c.24,.3,.55,.54,.9,.68,.09,.03,.18,.05,.27,.05,.3,0,.58-.18,.7-.48,.15-.39-.04-.82-.43-.97-.19-.07-.37-.31-.46-.62,.56-.09,1.3-.28,2.07-.72,.04,.09,.08,.19,.14,.28Zm4.32,9.42c-1.12,2.12-3.71,4.6-7.34,4.6s-6.22-2.48-7.34-4.6c-1.75-3.33-1.03-7.76,1.8-11.03,.13-.15,.31-.23,.51-.24h.03c.21,0,.4,.08,.55,.23,.24,.24,.3,.6,.15,.85-.74,1.23-.88,2.66-.39,3.83,.66,1.56,2.37,2.46,4.69,2.46s4.03-.9,4.69-2.46c.49-1.17,.35-2.6-.39-3.83-.15-.26-.09-.62,.15-.85,.15-.15,.36-.25,.58-.23,.2,0,.38,.09,.51,.24,2.83,3.27,3.55,7.7,1.8,11.03Z"/><path d="M12,13.25c-1.52,0-2.75,1.23-2.75,2.75s1.23,2.75,2.75,2.75,2.75-1.23,2.75-2.75-1.23-2.75-2.75-2.75Zm0,4c-.69,0-1.25-.56-1.25-1.25s.56-1.25,1.25-1.25,1.25,.56,1.25,1.25-.56,1.25-1.25,1.25Z"/></g></g></svg>