<?xml version="1.0" encoding="UTF-8"?><svg fill="currentColor" xmlns="http://www.w3.org/2000/svg" viewBox="0 0 24 24"><g id="c"><g><path d="M20.74,7.96s0-.02,0-.04c-.14-1.4-.66-3.35-2.37-4.69-.45-.35-.95-.64-1.49-.86-.75-.3-1.61-.05-2.09,.61l-3.16,4.27H6.75v-1.25c0-.96-.79-1.75-1.75-1.75H3c-.41,0-.75,.34-.75,.75s.34,.75,.75,.75h2c.14,0,.25,.11,.25,.25v1.25h-.25c-.96,0-1.75,.79-1.75,1.75v1c0,3.17,2.58,5.75,5.75,5.75h6c3.17,0,5.75-2.58,5.75-5.75v-2s0-.02,0-.04ZM15.99,3.87c.08-.1,.22-.15,.33-.11,.41,.17,.79,.38,1.13,.65,1,.78,1.46,1.87,1.68,2.84h-5.63l2.5-3.38Zm3.26,6.13c0,2.34-1.91,4.25-4.25,4.25h-6c-2.34,0-4.25-1.91-4.25-4.25v-1c0-.14,.11-.25,.25-.25h14.25v1.25Z"/><path d="M7.5,17.25c-1.24,0-2.25,1.01-2.25,2.25s1.01,2.25,2.25,2.25,2.25-1.01,2.25-2.25-1.01-2.25-2.25-2.25Zm0,3c-.41,0-.75-.34-.75-.75s.34-.75,.75-.75,.75,.34,.75,.75-.34,.75-.75,.75Z"/><path d="M16.5,17.25c-1.24,0-2.25,1.01-2.25,2.25s1.01,2.25,2.25,2.25,2.25-1.01,2.25-2.25-1.01-2.25-2.25-2.25Zm0,3c-.41,0-.75-.34-.75-.75s.34-.75,.75-.75,.75,.34,.75,.75-.34,.75-.75,.75Z"/></g></g></svg>