<?xml version="1.0" encoding="UTF-8"?><svg fill="currentColor" xmlns="http://www.w3.org/2000/svg" viewBox="0 0 24 24"><g id="t"><g><path d="M10.77,12c0-.41-.34-.75-.75-.75h-.01c-.41,0-.74,.34-.74,.75s.34,.75,.75,.75,.75-.34,.75-.75Z"/><path d="M14.02,11.25h-.01c-.41,0-.74,.34-.74,.75s.34,.75,.75,.75,.75-.34,.75-.75-.34-.75-.75-.75Z"/><path d="M9.4,16.45c.93,1.24,2.33,1.3,2.6,1.3,1.55,0,2.44-1.08,2.6-1.3,.25-.33,.18-.8-.15-1.05-.33-.25-.8-.18-1.05,.15-.05,.07-.55,.7-1.4,.7-.09,0-.89-.02-1.4-.7-.25-.33-.72-.4-1.05-.15-.33,.25-.4,.72-.15,1.05Z"/><path d="M19.5,10.25h-.79c-.41,0-.75,.34-.75,.75s.34,.75,.75,.75h.79c.41,0,.75,.34,.75,.75s-.34,.75-.75,.75h-.57c-.37,0-.69,.27-.74,.64-.44,3.05-3.1,5.36-6.19,5.36s-5.75-2.3-6.19-5.36c-.05-.37-.37-.64-.74-.64h-.57c-.41,0-.75-.34-.75-.75s.34-.75,.75-.75h.79c.33,0,.62-.22,.72-.54,.23-.78,.63-1.51,1.15-2.15,.87-.05,1.88-.45,2.87-1.16,.5,.52,1.2,.85,1.98,.85s1.48-.33,1.98-.85c1.06,.76,2.16,1.18,3.07,1.18,.62,0,1.15-.19,1.51-.58,.64-.7,.46-1.79,.24-2.51,.23-.72,.4-1.8-.24-2.51-.88-.97-2.79-.69-4.58,.6-.5-.52-1.2-.84-1.97-.84s-1.47,.32-1.97,.84c-1.79-1.28-3.7-1.56-4.58-.6-.64,.7-.46,1.79-.24,2.51-.23,.72-.4,1.8,.24,2.51,.05,.05,.1,.09,.16,.13-.34,.5-.63,1.04-.85,1.61h-.25c-1.24,0-2.25,1.01-2.25,2.25s.98,2.22,2.2,2.25c.8,3.46,3.94,6,7.55,6s6.75-2.54,7.55-6c1.22-.03,2.2-1.03,2.2-2.25s-1.01-2.25-2.25-2.25Zm-2.05-5.74c.08,.08,.11,.53-.15,1.24-.06,.17-.06,.35,0,.52,.26,.71,.23,1.15,.15,1.24-.16,.17-1.31,.19-2.76-.92,.04-.19,.06-.38,.06-.58s-.02-.39-.06-.58c1.45-1.11,2.6-1.09,2.76-.92Zm-5.45,.24c.69,0,1.25,.56,1.25,1.25s-.56,1.25-1.25,1.25-1.25-.56-1.25-1.25,.56-1.25,1.25-1.25Zm-5.3,.99c-.26-.71-.23-1.15-.15-1.24,.16-.17,1.31-.19,2.76,.92-.04,.19-.06,.38-.06,.58s.02,.39,.06,.58c-1.45,1.11-2.6,1.09-2.76,.92-.08-.08-.11-.53,.15-1.24,.06-.17,.06-.35,0-.52Z"/></g></g></svg>