<?xml version="1.0" encoding="UTF-8"?><svg fill="currentColor" xmlns="http://www.w3.org/2000/svg" viewBox="0 0 24 24"><g id="l"><path d="M19.75,12v-1c0-.96-.79-1.75-1.75-1.75h-1.25v-1.75c0-2.9-2.36-5.25-5.25-5.25s-5.25,2.35-5.25,5.25v1.75h-1.25c-.96,0-1.75,.79-1.75,1.75v1c0,.96,.79,1.75,1.75,1.75h.04l-1.77,7.07c-.1,.4,.14,.81,.55,.91,.06,.02,.12,.02,.18,.02,.34,0,.64-.23,.73-.57l1.86-7.43h.83l.25,1.01c.44,1.76,2.02,2.99,3.83,2.99s3.39-1.23,3.83-2.99l.25-1.01h.83l1.86,7.43c.08,.34,.39,.57,.73,.57,.06,0,.12,0,.18-.02,.4-.1,.65-.51,.55-.91l-1.77-7.07h.04c.96,0,1.75-.79,1.75-1.75ZM7.75,7.5c0-2.07,1.68-3.75,3.75-3.75s3.75,1.68,3.75,3.75v1.75H7.75v-1.75Zm-3,4.5v-1c0-.14,.11-.25,.25-.25h13c.14,0,.25,.11,.25,.25v1c0,.14-.11,.25-.25,.25H5c-.14,0-.25-.11-.25-.25Zm9.13,2.39c-.27,1.09-1.25,1.86-2.38,1.86s-2.11-.76-2.38-1.86l-.16-.64h5.08l-.16,.64Z"/></g></svg>