<?xml version="1.0" encoding="UTF-8"?><svg fill="currentColor" xmlns="http://www.w3.org/2000/svg" viewBox="0 0 24 24"><g id="o"><path d="M20.75,7.3v-.3c0-1.52-1.23-2.75-2.75-2.75H6c-1.52,0-2.75,1.23-2.75,2.75v.3c-.57,.12-1,.6-1,1.2v2c0,.6,.43,1.08,1,1.2v2.3c0,3.72,3.03,6.75,6.75,6.75h4c3.72,0,6.75-3.03,6.75-6.75v-2.3c.57-.12,1-.6,1-1.2v-2c0-.6-.43-1.08-1-1.2Zm-3.25,2.95c-.41,0-.75-.34-.75-.75s.34-.75,.75-.75h2.75v1.5h-2.75ZM6,5.75h12c.69,0,1.25,.56,1.25,1.25v.25h-1.75c-1.24,0-2.25,1.01-2.25,2.25s1.01,2.25,2.25,2.25h1.75v1.45c-.97,0-2.39,.2-3.71,1.21-1.93,1.48-2.28,3.66-2.31,4.85h-2.46c-.04-1.19-.39-3.37-2.31-4.85-1.31-1.01-2.73-1.21-3.71-1.21v-1.45h1.75c1.24,0,2.25-1.01,2.25-2.25s-1.01-2.25-2.25-2.25h-1.75v-.25c0-.69,.56-1.25,1.25-1.25Zm-2.25,4.5v-1.5h2.75c.41,0,.75,.34,.75,.75s-.34,.75-.75,.75H3.75Zm1.07,4.45c.71,0,1.77,.16,2.72,.89,1.38,1.06,1.67,2.66,1.72,3.58-2.31-.33-4.13-2.16-4.45-4.47Zm9.91,4.47c.05-.92,.34-2.52,1.72-3.58,.95-.73,2.01-.89,2.72-.89-.31,2.32-2.13,4.15-4.45,4.47Z"/></g></svg>