<?xml version="1.0" encoding="UTF-8"?><svg fill="currentColor" xmlns="http://www.w3.org/2000/svg" viewBox="0 0 24 24"><g id="i"><g><path d="M21.75,10.2c-.16-.69-.77-1.21-1.58-1.37l-2.26-.42c-.35-1.46-1.06-2.57-2.14-3.29-1.76-1.17-4.19-1.17-5.9,0-1.96,1.34-2.75,4.04-1.93,6.56,.03,.08,.02,.17-.03,.23-.04,.06-.09,.06-.13,.06-.44,0-.86-.05-1.27-.16-.35-.09-.68-.23-1-.41-.8-.44-1.81-.15-2.26,.64-.97,1.69-1.24,3.61-.8,5.33,0,.04,.02,.08,.03,.12,.09,.34,.2,.67,.35,.99,.47,1.02,1.24,1.93,2.21,2.61,.6,.42,1.3,.64,2.04,.64h7.93c1.55,0,2.94-1.01,3.39-2.45,.49-1.58,.45-3.49-.1-5.12-.17-.5-.4-.98-.67-1.44h.92c.87,0,1.7-.26,2.33-.74l.22-.16c.55-.42,.79-1.03,.65-1.65ZM4.57,12.8c.03-.06,.09-.09,.15-.09,.03,0,.06,0,.09,.02,.42,.23,.87,.41,1.33,.54,.55,.15,1.12,.22,1.68,.21,.34,0,.65-.12,.92-.3,.2,.21,.38,.46,.46,.76,.34,1.28-1.16,2.79-2.63,3.19-1.05,.28-2.02,0-2.72-.36-.25-1.29-.01-2.7,.71-3.97Zm12.4,6.06c-.25,.82-1.06,1.39-1.95,1.39H7.09c-.42,0-.83-.13-1.18-.37-.51-.36-.93-.78-1.26-1.26,.34,.07,.69,.13,1.07,.13s.81-.05,1.24-.17c2.21-.6,4.27-2.81,3.69-5.02-.17-.66-.59-1.26-1.2-1.75,0-.2-.01-.4-.08-.59-.61-1.86-.04-3.9,1.35-4.86,1.2-.82,2.97-.82,4.22,0,1.22,.81,1.49,2.17,1.58,2.61,.29,1.45-.22,2.62-.55,3.19-.15,.26-.13,.57,.04,.81,.38,.52,.67,1.08,.87,1.67,.45,1.34,.48,2.91,.08,4.19Zm3.23-8.21l-.22,.16c-.37,.28-.89,.44-1.43,.44h-.62c.09-.39,.16-.82,.17-1.28l1.79,.34c.27,.05,.38,.18,.4,.23,0,.01-.02,.06-.09,.11Z"/><path d="M14.02,8.25h0c-.41,0-.75,.34-.75,.75s.34,.75,.75,.75,.75-.34,.75-.75-.33-.75-.75-.75Z"/></g></g></svg>