<?xml version="1.0" encoding="UTF-8"?><svg fill="currentColor" xmlns="http://www.w3.org/2000/svg" viewBox="0 0 24 24"><g id="p"><path d="M19.5,10.25h-7.75v-.25c0-.41-.34-.75-.75-.75h-.46l-.2-.59c-.48-1.44-1.82-2.41-3.34-2.41s-2.86,.97-3.34,2.41l-.2,.59h-.46c-.41,0-.75,.34-.75,.75v3c0,2.62,2.13,4.75,4.75,4.75,2,0,3.71-1.25,4.41-3h8.09c1.24,0,2.25-1.01,2.25-2.25s-1.01-2.25-2.25-2.25Zm-14.42-1.12c.28-.83,1.05-1.38,1.92-1.38s1.65,.56,1.92,1.38l.04,.12h-3.92l.04-.12Zm1.92,7.12c-1.79,0-3.25-1.46-3.25-3.25v-2.25h6.5v2.25c0,1.79-1.46,3.25-3.25,3.25Zm12.5-3h-7.78c0-.08,.03-.16,.03-.25v-1.25h7.75c.41,0,.75,.34,.75,.75s-.34,.75-.75,.75Z"/></g></svg>