<?xml version="1.0" encoding="UTF-8"?><svg fill="currentColor" xmlns="http://www.w3.org/2000/svg" viewBox="0 0 24 24"><g id="s"><path d="M19.35,5.71c-.51-.95-.4-1.71-.2-1.87,.13-.1,.38-.12,.42-.08,.04,.04,.08,.24-.08,.45-.24,.34-.17,.81,.17,1.05,.33,.24,.8,.16,1.05-.17,.55-.77,.52-1.76-.06-2.37-.65-.67-1.75-.56-2.4-.07-.43,.33-.68,.86-.74,1.47-2.79-1.7-6.49-1.35-8.9,1.06l-4.24,4.24c-1.37,1.37-2.12,3.19-2.12,5.13s.75,3.76,2.12,5.13c1.41,1.41,3.27,2.12,5.13,2.12s3.71-.71,5.13-2.12l4.24-4.24c2.65-2.65,2.81-6.87,.49-9.71h0Zm-1.54,8.65l-4.24,4.24c-2.24,2.24-5.89,2.24-8.13,0-1-1-1.56-2.3-1.65-3.7h0c.13-.23,1.29-2.21,3.66-2.45,1.93-.2,3.29,.89,3.66,1.22,.08,.07,.17,.12,.27,.15,.71,.47,1.53,.71,2.35,.71,1.09,0,2.18-.41,3-1.24,1.66-1.66,1.66-4.35,0-6.01-1.66-1.66-4.35-1.66-6.01,0-1.06,1.06-1.43,2.53-1.14,3.89-.67-.19-1.43-.31-2.29-.22-1.28,.13-2.28,.65-3.04,1.23,.28-.63,.67-1.22,1.17-1.72l4.24-4.24c1.12-1.12,2.59-1.68,4.07-1.68s2.94,.56,4.07,1.68c2.24,2.24,2.24,5.89,0,8.13Zm-2.12-2.12c-1.07,1.07-2.82,1.07-3.89,0-1.07-1.07-1.07-2.82,0-3.89,.54-.54,1.24-.8,1.95-.8s1.41,.27,1.94,.8c1.07,1.07,1.07,2.82,0,3.89Z"/></g></svg>