<?xml version="1.0" encoding="UTF-8"?><svg fill="currentColor" xmlns="http://www.w3.org/2000/svg" viewBox="0 0 24 24"><g id="h"><path d="M18.92,10.02c-.47-.37-1.06-.51-1.62-.37-.74,.17-1.56,.34-2.55,.45v-.88c0-.38,.14-.78,.42-1.21,.38-.6,.58-1.29,.58-2.01,0-1.11-.49-2.16-1.34-2.87-.85-.71-1.97-1.01-3.08-.82-1.52,.27-2.76,1.51-3.02,3.03-.17,.97,.04,1.95,.58,2.76,.24,.35,.35,.68,.36,1v1c-.99-.11-1.81-.28-2.55-.45-.57-.13-1.16,0-1.62,.37-.52,.42-.83,1.06-.83,1.82,0,1.03,.65,1.91,1.57,2.14,1.14,.28,2.21,.5,3.43,.63v.39c0,.1,.02,.2,.03,.3-.03,0-.06,0-.09,0-1.84,.59-2.94,1.72-2.94,3.01,0,1.92,2.53,3.43,5.75,3.43s5.75-1.51,5.75-3.43c0-1.31-1.13-2.45-3.03-3.04h0c0-.09,.03-.19,.03-.28v-.39c1.22-.13,2.29-.35,3.43-.63,.92-.23,1.57-1.11,1.57-2.14v-.05c0-.71-.3-1.35-.83-1.77Zm-8.18-.93c0-.62-.21-1.24-.61-1.84-.33-.48-.45-1.07-.35-1.66,.15-.91,.9-1.65,1.8-1.81,.69-.12,1.34,.06,1.86,.49,.51,.43,.8,1.06,.8,1.72,0,.43-.12,.85-.35,1.21-.43,.68-.65,1.36-.65,2.02v.99c-.39,.02-.8,.03-1.25,.03s-.86-.01-1.25-.03v-1.12Zm3.53,7.62c1.18,.37,1.97,1.01,1.97,1.6,0,.91-1.82,1.93-4.25,1.93s-4.25-1.02-4.25-1.93c0-.58,.76-1.21,1.9-1.58,.06-.02,.11-.06,.16-.09,.5,.66,1.29,1.1,2.19,1.1s1.67-.43,2.18-1.09c.04,.02,.06,.04,.1,.06Zm-1.03-1.72c0,.69-.56,1.25-1.25,1.25s-1.25-.56-1.25-1.25v-.28c.4,.02,.81,.03,1.25,.03s.85-.01,1.25-.03v.28Zm5-3.16c0,.33-.18,.63-.43,.68-1.48,.37-3.16,.72-5.82,.72s-4.34-.36-5.82-.72c-.25-.06-.43-.35-.43-.73,0-.24,.1-.47,.26-.59,.08-.07,.17-.1,.26-.1,.03,0,.06,0,.09,.01,1.42,.33,3.09,.64,5.64,.64s4.22-.31,5.64-.64c.13-.03,.24,0,.35,.09,.16,.13,.26,.35,.26,.59v.05Z"/></g></svg>