<?xml version="1.0" encoding="UTF-8"?><svg fill="currentColor" xmlns="http://www.w3.org/2000/svg" viewBox="0 0 24 24"><g id="n"><path d="M21.48,7.91c-.7-2.19-2.71-3.66-5-3.66-.82,0-1.6,.18-2.32,.54-.63,.31-1.19,.46-1.71,.46h-.95c-.52,0-1.07-.15-1.69-.46-1.05-.52-2.22-.67-3.39-.44-2.02,.4-3.65,2.02-4.07,4.03-.29,1.4,.06,2.53,.14,2.74,.66,1.9,2.51,3.29,4.85,3.68,.36,2.25,2.3,3.98,4.65,3.98s4.23-1.66,4.64-3.85c2.56-.55,4.46-2.19,4.98-4.28,.22-.89,.18-1.81-.13-2.75Zm-9.49,9.38c-1.78,0-3.23-1.45-3.23-3.23,0-.73,.26-1.42,.7-1.98,.42,.98,1.39,1.67,2.53,1.67s2.12-.69,2.53-1.68c.44,.56,.7,1.25,.7,1.99,0,1.78-1.45,3.23-3.23,3.23Zm-1.25-6.29c0-.69,.56-1.25,1.25-1.25s1.25,.56,1.25,1.25-.56,1.25-1.25,1.25-1.25-.56-1.25-1.25Zm9.41-.7c-.35,1.42-1.7,2.59-3.49,3.08-.18-1.23-.84-2.36-1.85-3.11-.07-.05-.14-.08-.22-.1-.36-1.11-1.38-1.91-2.61-1.91s-2.22,.78-2.59,1.86c0,0-.02,0-.03,.01-1.1,.73-1.83,1.88-2.04,3.16-1.68-.35-2.97-1.33-3.43-2.64-.03-.09-.3-.92-.09-1.95,.3-1.43,1.46-2.58,2.9-2.87,.85-.17,1.69-.06,2.43,.31,.83,.41,1.6,.61,2.36,.61h.95c.76,0,1.54-.2,2.38-.62,.52-.26,1.08-.39,1.66-.39,1.64,0,3.07,1.05,3.57,2.62,.22,.67,.25,1.32,.1,1.93Z"/></g></svg>