<?xml version="1.0" encoding="UTF-8"?><svg fill="currentColor" xmlns="http://www.w3.org/2000/svg" viewBox="0 0 24 24"><g id="q"><path d="M16.35,9.1c.25-.3,.4-.68,.4-1.1v-1c0-.96-.79-1.75-1.75-1.75h-.84l-.08-.12c.23-.68,.12-1.4-.3-1.97-.42-.58-1.07-.91-1.78-.91s-1.36,.33-1.78,.91c-.42,.58-.53,1.3-.3,1.97l.71-.24-.79,.35h-.84c-.96,0-1.75,.79-1.75,1.75v1c0,.42,.15,.8,.4,1.1-.85,.69-1.4,1.72-1.4,2.9v6c0,2.07,1.68,3.75,3.75,3.75h4c2.07,0,3.75-1.68,3.75-3.75v-6c0-1.17-.55-2.21-1.4-2.9Zm-7.35-.85c-.14,0-.25-.11-.25-.25v-1c0-.14,.11-.25,.25-.25h.84c.51,0,.99-.25,1.29-.66,.3-.41,.38-.95,.22-1.43-.07-.21-.04-.44,.09-.62,.26-.37,.86-.37,1.12,0,.13,.18,.17,.41,.09,.62-.16,.48-.08,1.02,.22,1.43,.3,.41,.78,.66,1.29,.66h.84c.14,0,.25,.11,.25,.25v1c0,.14-.11,.25-.25,.25h-6Zm5,12h-4c-1.24,0-2.25-1.01-2.25-2.25v-6c0-1.24,1.01-2.25,2.25-2.25h4c1.24,0,2.25,1.01,2.25,2.25v.25h-2.25c-.41,0-.75,.34-.75,.75s.34,.75,.75,.75h2.25v2.5h-2.25c-.41,0-.75,.34-.75,.75s.34,.75,.75,.75h2.25v.25c0,1.24-1.01,2.25-2.25,2.25Z"/></g></svg>