<?xml version="1.0" encoding="UTF-8"?><svg fill="currentColor" xmlns="http://www.w3.org/2000/svg" viewBox="0 0 24 24"><g id="e"><g><path d="M14.6,14.59l-.29-1.68,1.22-1.19c.2-.2,.28-.5,.19-.77-.09-.27-.32-.47-.61-.51l-1.69-.25-.68-1.37v-2.06c1.82,.09,4.31,.51,6.9,1.89,.11,.06,.23,.09,.35,.09,.27,0,.53-.14,.66-.4,.2-.37,.06-.82-.31-1.01-2.86-1.53-5.61-1.98-7.6-2.07V3c0-.41-.34-.75-.75-.75s-.75,.34-.75,.75v5.83l-.68,1.37-1.69,.25c-.28,.04-.52,.24-.61,.51-.09,.27-.01,.57,.19,.77l1.22,1.19-.29,1.68c-.05,.28,.07,.57,.3,.73,.23,.17,.54,.19,.79,.06l1.51-.79,1.51,.79c.11,.06,.23,.09,.35,.09,.16,0,.31-.05,.44-.14,.23-.17,.35-.45,.3-.73Zm-1.62-2.48c-.18,.17-.26,.42-.22,.66l.1,.57-.51-.27c-.11-.06-.23-.09-.35-.09s-.24,.03-.35,.09l-.51,.27,.1-.57c.04-.24-.04-.49-.22-.66l-.42-.4,.57-.08c.24-.04,.46-.19,.56-.41l.26-.52,.26,.52c.11,.22,.32,.38,.56,.41l.57,.08-.42,.4Z"/><path d="M9.12,16.44l-1.69-.25-.68-1.37v-4.83c0-.41-.34-.75-.75-.75s-.75,.34-.75,.75v4.83l-.68,1.37-1.69,.25c-.28,.04-.52,.24-.61,.51-.09,.27-.01,.57,.19,.77l1.22,1.19-.29,1.68c-.05,.28,.07,.57,.3,.73,.23,.17,.54,.19,.79,.06l1.51-.79,1.51,.79c.11,.06,.23,.09,.35,.09,.16,0,.31-.05,.44-.14,.23-.17,.35-.45,.3-.73l-.29-1.68,1.22-1.19c.2-.2,.28-.5,.19-.77-.09-.27-.32-.47-.61-.51Zm-2.13,1.67c-.18,.17-.26,.42-.22,.66l.1,.57-.51-.27c-.11-.06-.23-.09-.35-.09s-.24,.03-.35,.09l-.51,.27,.1-.57c.04-.24-.04-.49-.22-.66l-.42-.4,.57-.08c.24-.04,.46-.19,.56-.41l.26-.52,.26,.52c.11,.22,.32,.38,.56,.41l.57,.08-.42,.4Z"/><path d="M21.72,16.95c-.09-.27-.32-.47-.61-.51l-1.69-.25-.68-1.37v-4.83c0-.41-.34-.75-.75-.75s-.75,.34-.75,.75v4.83l-.68,1.37-1.69,.25c-.28,.04-.52,.24-.61,.51-.09,.27-.01,.57,.19,.77l1.22,1.19-.29,1.68c-.05,.28,.07,.57,.3,.73,.23,.17,.54,.19,.79,.06l1.51-.79,1.51,.79c.11,.06,.23,.09,.35,.09,.16,0,.31-.05,.44-.14,.23-.17,.35-.45,.3-.73l-.29-1.68,1.22-1.19c.2-.2,.28-.5,.19-.77Zm-2.74,1.16c-.18,.17-.26,.42-.22,.66l.1,.57-.51-.27c-.11-.06-.23-.09-.35-.09s-.24,.03-.35,.09l-.51,.27,.1-.57c.04-.24-.04-.49-.22-.66l-.42-.4,.57-.08c.24-.04,.46-.19,.56-.41l.26-.52,.26,.52c.11,.22,.32,.38,.56,.41l.57,.08-.42,.4Z"/><path d="M4,8.75c.12,0,.24-.03,.35-.09,1.2-.64,2.49-1.13,3.82-1.46,.4-.1,.65-.5,.55-.91-.1-.4-.51-.65-.91-.55-1.46,.35-2.86,.89-4.18,1.59-.37,.2-.5,.65-.31,1.01,.13,.25,.39,.4,.66,.4Z"/></g></g></svg>