<?xml version="1.0" encoding="UTF-8"?><svg fill="currentColor" xmlns="http://www.w3.org/2000/svg" viewBox="0 0 24 24"><g id="f"><g><path d="M20.51,3.5c-1.66-1.66-4.35-1.66-6.01,0l-7.98,7.98c-.67,.67-1.11,1.5-1.3,2.43l-.23,1.16c-.13,.63-.43,1.2-.89,1.66l-.94,.93c-.42,.42-.65,.97-.65,1.56s.23,1.15,.67,1.59c.43,.43,1,.67,1.6,.67h0c.6,0,1.17-.24,1.59-.66l.91-.91c.45-.45,1.03-.76,1.66-.89l1.16-.23c.92-.18,1.76-.63,2.43-1.3l7.98-7.98c.8-.8,1.24-1.87,1.24-3s-.44-2.2-1.24-3ZM4.78,19.98h0c-.2,0-.39-.08-.57-.25-.13-.13-.21-.31-.21-.5,0-.19,.07-.37,.21-.5l.56-.55,1.07,1.06-.53,.53c-.14,.14-.33,.22-.53,.22Zm14.67-11.53l-7.98,7.98c-.46,.46-1.03,.76-1.66,.89l-1.16,.23c-.6,.12-1.16,.37-1.67,.7l-1.22-1.22c.33-.51,.58-1.07,.7-1.67l.23-1.16c.13-.63,.43-1.21,.89-1.66l7.98-7.98c1.04-1.04,2.85-1.04,3.89,0,.52,.52,.81,1.21,.81,1.94s-.29,1.42-.81,1.94Z"/><path d="M15.91,7.03l-7.07,7.07c-.29,.29-.29,.77,0,1.06,.15,.15,.34,.22,.53,.22s.38-.07,.53-.22l7.07-7.07c.29-.29,.29-.77,0-1.06s-.77-.29-1.06,0Z"/></g></g></svg>