<?xml version="1.0" encoding="UTF-8"?><svg fill="currentColor" xmlns="http://www.w3.org/2000/svg" viewBox="0 0 24 24"><g id="e"><g><path d="M13,17.75c2.62,0,4.75-2.13,4.75-4.75V7c0-2.62-2.13-4.75-4.75-4.75H7c-2.62,0-4.75,2.13-4.75,4.75v6c0,2.62,2.13,4.75,4.75,4.75h6Zm-6.75-7.75c0-.41,.34-.75,.75-.75h2.25v-2.25c0-.41,.34-.75,.75-.75s.75,.34,.75,.75v2.25h2.25c.41,0,.75,.34,.75,.75s-.34,.75-.75,.75h-2.25v2.25c0,.41-.34,.75-.75,.75s-.75-.34-.75-.75v-2.25h-2.25c-.41,0-.75-.34-.75-.75Z"/><path d="M19.24,6.84c0,.05,0,.11,0,.16v6c0,3.45-2.8,6.25-6.25,6.25H7c-.05,0-.11,0-.16,0,.8,1.49,2.36,2.51,4.16,2.51h6c2.62,0,4.75-2.13,4.75-4.75v-6c0-1.8-1.02-3.36-2.51-4.16Z"/></g></g></svg>