<?xml version="1.0" encoding="UTF-8"?><svg fill="currentColor" xmlns="http://www.w3.org/2000/svg" viewBox="0 0 24 24"><g id="f"><g><path d="M20.27,7.3c-.22-.04-.47-.09-.73-.17-.51-.16-.99-.39-1.44-.7-.33-.2-.86-.45-1.55-.48-.39-.02-.77,.04-1.2,.18l-6.05,2.5c-.45,.11-.84,.38-1.08,.76-.24,.38-.33,.82-.23,1.24,.18,.81,.97,1.38,1.79,1.33,.86,.03,1.72-.03,2.57-.17,.5-.09,.99-.2,1.47-.35l.44,3.66c.04,.38,.36,.66,.74,.66h5c.96,0,1.75-.79,1.75-1.75v-4.98c0-.86-.62-1.59-1.48-1.73Z"/><path d="M12.77,15.27l-.24-2c-.76,.13-1.53,.19-2.3,.19-.15,0-.29,0-.44,0-.04,0-.08,0-.13,0-1.49,0-2.81-1.05-3.14-2.5-.18-.83-.03-1.67,.44-2.39,.28-.43,.66-.77,1.1-1.03-.29,.02-.58,.07-.84,.19l-.19,.09c-.61,.29-1.29,.44-1.96,.44h-1.07c-.96,0-1.75,.79-1.75,1.75v5c0,.96,.79,1.75,1.75,1.75h1.02c.71,0,1.42,.19,2.03,.55l1.69,.98c.45,.26,.94,.39,1.43,.39,.63,0,1.25-.21,1.77-.63l1.64-1.3c-.44-.36-.74-.87-.82-1.47Z"/></g></g></svg>