<?xml version="1.0" encoding="UTF-8"?><svg fill="currentColor" xmlns="http://www.w3.org/2000/svg" viewBox="0 0 24 24"><g id="u"><g><path d="M9.25,14.25v-1.5h-1.25c-.14,0-.25,.11-.25,.25v1.25h1.5Z"/><path d="M15,12.75h-1.25v4.5h1.25c.14,0,.25-.11,.25-.25v-4c0-.14-.11-.25-.25-.25Z"/><rect x="10.75" y="15.75" width="1.5" height="1.5"/><rect x="10.75" y="12.75" width="1.5" height="1.5"/><path d="M9.25,15.75h-1.5v1.25c0,.14,.11,.25,.25,.25h1.25v-1.5Z"/><path d="M15,2.25h-7c-2.62,0-4.75,2.13-4.75,4.75v10c0,2.62,2.13,4.75,4.75,4.75h7c2.62,0,4.75-2.13,4.75-4.75V7c0-2.62-2.13-4.75-4.75-4.75Zm1.75,14.75c0,.96-.79,1.75-1.75,1.75h-7c-.96,0-1.75-.79-1.75-1.75v-4c0-.96,.79-1.75,1.75-1.75h7c.96,0,1.75,.79,1.75,1.75v4Zm0-9c0,.96-.79,1.75-1.75,1.75h-7c-.96,0-1.75-.79-1.75-1.75v-1c0-.96,.79-1.75,1.75-1.75h7c.96,0,1.75,.79,1.75,1.75v1Z"/><rect x="7.75" y="6.75" width="7.5" height="1.5" rx=".25" ry=".25"/></g></g></svg>