<?xml version="1.0" encoding="UTF-8"?><svg fill="currentColor" xmlns="http://www.w3.org/2000/svg" viewBox="0 0 24 24"><g id="l"><g><path d="M8.5,6.75h5c1.24,0,2.25-1.01,2.25-2.25s-1.01-2.25-2.25-2.25h-5c-1.24,0-2.25,1.01-2.25,2.25s1.01,2.25,2.25,2.25Zm0-3h5c.41,0,.75,.34,.75,.75s-.34,.75-.75,.75h-5c-.41,0-.75-.34-.75-.75s.34-.75,.75-.75Z"/><path d="M18,14.25c-2.07,0-3.75,1.68-3.75,3.75s1.68,3.75,3.75,3.75,3.75-1.68,3.75-3.75-1.68-3.75-3.75-3.75Zm1.67,3.09l-1,2c-.11,.22-.31,.37-.55,.4-.04,0-.08,0-.12,0-.2,0-.39-.08-.53-.22l-1-1c-.29-.29-.29-.77,0-1.06s.77-.29,1.06,0l.26,.26,.53-1.07c.19-.37,.64-.52,1.01-.34,.37,.19,.52,.64,.34,1.01Z"/><path d="M18,12.75c.26,0,.5,.04,.75,.08v-4.83c0-1.24-.61-2.34-1.55-3.02-.24,1.84-1.8,3.27-3.7,3.27h-5c-1.9,0-3.46-1.43-3.7-3.27-.93,.68-1.55,1.78-1.55,3.02v10c0,2.07,1.68,3.75,3.75,3.75h6.04l1.23-.06c-.94-.95-1.52-2.25-1.52-3.69,0-2.9,2.36-5.25,5.25-5.25Z"/></g></g></svg>