<?xml version="1.0" encoding="UTF-8"?><svg fill="currentColor" xmlns="http://www.w3.org/2000/svg" viewBox="0 0 24 24"><g id="m"><g><path d="M6,9.75h12c2.07,0,3.75-1.68,3.75-3.75s-1.68-3.75-3.75-3.75H6c-2.07,0-3.75,1.68-3.75,3.75s1.68,3.75,3.75,3.75Zm12.01-4.5h0c.42,0,.75,.34,.75,.75s-.33,.75-.75,.75-.75-.34-.75-.75,.33-.75,.75-.75Zm-3,0h0c.42,0,.75,.34,.75,.75s-.33,.75-.75,.75-.75-.34-.75-.75,.33-.75,.75-.75Zm-3,0h0c.42,0,.75,.34,.75,.75s-.33,.75-.75,.75-.75-.34-.75-.75,.33-.75,.75-.75Z"/><path d="M18,15.75c2.07,0,3.75-1.68,3.75-3.75,0-.69-.2-1.33-.53-1.89-.89,.7-2,1.14-3.22,1.14H6c-1.22,0-2.33-.44-3.22-1.14-.33,.56-.53,1.2-.53,1.89,0,2.07,1.68,3.75,3.75,3.75h5.25v.62c-.91,.26-1.62,.97-1.88,1.88H4c-.41,0-.75,.34-.75,.75s.34,.75,.75,.75h5.37c.33,1.15,1.38,2,2.63,2s2.3-.85,2.63-2h5.37c.41,0,.75-.34,.75-.75s-.34-.75-.75-.75h-5.37c-.26-.91-.97-1.62-1.88-1.88v-.62h5.25Zm0-3.5h0c.42,0,.75,.34,.75,.75s-.33,.75-.75,.75-.75-.34-.75-.75,.33-.75,.75-.75Zm-3,0h0c.42,0,.75,.34,.75,.75s-.33,.75-.75,.75-.75-.34-.75-.75,.33-.75,.75-.75Zm-3,0h0c.42,0,.75,.34,.75,.75s-.33,.75-.75,.75-.75-.34-.75-.75,.33-.75,.75-.75Z"/></g></g></svg>