<?xml version="1.0" encoding="UTF-8"?><svg fill="currentColor" xmlns="http://www.w3.org/2000/svg" viewBox="0 0 24 24"><g id="d"><g><path d="M20,13.25h-3.53c-.49,0-.97,.22-1.32,.61-1.23,1.35-2.95,1.39-3.15,1.39-1.6,0-2.68-.91-3.18-1.44-.33-.35-.8-.56-1.3-.56h-3.52c-.96,0-1.75,.79-1.75,1.75v2c0,2.07,1.68,3.75,3.75,3.75h12c2.07,0,3.75-1.68,3.75-3.75v-2c0-.96-.79-1.75-1.75-1.75Z"/><path d="M7.52,11.75c.91,0,1.79,.38,2.4,1.04,.33,.36,1.05,.96,2.08,.96,.01,0,1.23-.01,2.04-.9,.63-.7,1.52-1.1,2.43-1.1h3.53c.35,0,.69,.07,1.01,.18l-.28-1.11s0-.03-.01-.05l-1.32-3.95c-.51-1.53-1.94-2.56-3.56-2.56h-7.68c-1.62,0-3.05,1.03-3.56,2.56l-1.33,4-.28,1.11c.32-.11,.66-.18,1.01-.18h3.52Zm.48-5.5h8c.41,0,.75,.34,.75,.75s-.34,.75-.75,.75H8c-.41,0-.75-.34-.75-.75s.34-.75,.75-.75Zm-1,3h10c.41,0,.75,.34,.75,.75s-.34,.75-.75,.75H7c-.41,0-.75-.34-.75-.75s.34-.75,.75-.75Z"/></g></g></svg>