<?xml version="1.0" encoding="UTF-8"?><svg fill="currentColor" xmlns="http://www.w3.org/2000/svg" viewBox="0 0 24 24"><g id="k"><g><path d="M14,10.25h-4.17c-.33,0-.65-.13-.88-.37l-.83-.83c-.52-.52-1.21-.81-1.94-.81h-1.17c-1.52,0-2.75,1.23-2.75,2.75v7c0,1.52,1.23,2.75,2.75,2.75h12c.41,0,.75-.34,.75-.75v-6c0-2.07-1.68-3.75-3.75-3.75Z"/><path d="M17,4.25H8c-1.89,0-3.51,1.12-4.28,2.72,.41-.13,.83-.22,1.28-.22h1.17c1.14,0,2.2,.44,3.01,1.25l.75,.75h4.07c2.9,0,5.25,2.36,5.25,5.25v6c0,.25-.05,.5-.13,.72,.06-.01,.13-.01,.19-.04,.41-.18,2.44-1.17,2.44-2.68V9c0-2.62-2.13-4.75-4.75-4.75Z"/></g></g></svg>