<?xml version="1.0" encoding="UTF-8"?><svg fill="currentColor" xmlns="http://www.w3.org/2000/svg" viewBox="0 0 24 24"><g id="n"><g><path d="M7.81,16.25c.3,.19,.56,.62,.65,1h7.09c.09-.38,.35-.81,.65-1,2.63-1.66,4-4.81,3.42-7.85-.69-3.6-3.95-6.27-7.6-6.15-3.67-.13-6.95,2.55-7.64,6.15-.58,3.04,.8,6.19,3.42,7.85Zm-.39-8.68c.48-.88,1.17-1.4,1.67-1.68,.36-.2,.82-.08,1.02,.28,.2,.36,.08,.82-.28,1.02-.33,.19-.79,.53-1.09,1.09-.68,1.25-.06,2.63,.02,2.78,.18,.37,.02,.82-.35,1-.1,.05-.22,.07-.32,.07-.28,0-.55-.16-.68-.42-.18-.36-1-2.28,.02-4.15Z"/><path d="M8.5,18.75v.86c0,1.18,.91,2.14,2.02,2.14h2.96c1.11,0,2.02-.96,2.02-2.14v-.86h-7Z"/></g></g></svg>