<?xml version="1.0" encoding="UTF-8"?><svg fill="currentColor" xmlns="http://www.w3.org/2000/svg" viewBox="0 0 24 24"><g id="c"><g><path d="M20.43,3.55c-.21-.73-.84-1.24-1.59-1.31-1.62-.15-3.19,.21-4.56,.97l.08,1.52c.18,1.48,1.13,2.4,1.52,2.73,1.23,1.01,2.63,.99,3.02,.96h1.38c.55-1.55,.63-3.25,.15-4.88Z"/><path d="M18.59,9.94c-.81,0-2.3-.19-3.67-1.31-.54-.44-1.81-1.69-2.06-3.76l-.03-.63c-.5,.45-.95,.96-1.33,1.54l-5.02,7.59c-.21,.32-.15,.75,.15,.99l.4,.33,1.8-2.19c.43-.52,1.06-.82,1.74-.82,.52,0,1.03,.18,1.43,.51,.46,.38,.75,.92,.81,1.52,.06,.6-.12,1.18-.5,1.65l-1.8,2.18,.4,.33c.14,.11,.31,.17,.48,.17,.19,0,.38-.07,.53-.22l6.47-6.39c.46-.46,.85-.97,1.19-1.51h-.61c-.09,0-.22,.01-.36,.01Z"/><path d="M11.03,13.35c-.32-.26-.79-.22-1.06,.1l-2.64,3.21c-.26,.32-.22,.79,.1,1.06,.14,.12,.31,.17,.48,.17,.22,0,.43-.09,.58-.27l2.64-3.21c.26-.32,.22-.79-.1-1.06Z"/><path d="M5.92,17.22c-.27-.23-.67-.23-.94,0-.34,.27-.8,.75-1.05,1.49-.39,1.17,.04,2.17,.24,2.54,.09,.17,.25,.3,.44,.36,.2,.06,.56,.15,.99,.15s1-.09,1.54-.4c.68-.38,1.06-.93,1.26-1.31,.16-.31,.08-.7-.19-.92l-2.3-1.89Z"/><path d="M16.22,15.68l-3.26,3.22c-.13,.13-.27,.23-.42,.32l1.44,1.19c.3,.25,.67,.38,1.04,.38,.16,0,.31-.02,.46-.07,.49-.15,.87-.53,1.02-1.01,.23-.75,.3-1.53,.21-2.32-.05-.4-.18-1.02-.48-1.71Z"/><path d="M5.22,12.53l2.53-3.82c-.73-.17-1.37-.18-1.77-.15-.79,.06-1.54,.28-2.23,.65-.45,.24-.74,.68-.79,1.19-.05,.54,.17,1.07,.59,1.41l1.45,1.19c.06-.17,.13-.33,.24-.48Z"/></g></g></svg>