<?xml version="1.0" encoding="UTF-8"?><svg fill="currentColor" xmlns="http://www.w3.org/2000/svg" viewBox="0 0 24 24"><g id="o"><path d="M16.75,10.7v-2.7c0-2.62-2.13-4.75-4.75-4.75s-4.75,2.13-4.75,4.75v2.7c-1.18,.63-2,1.86-2,3.3v4c0,2.07,1.68,3.75,3.75,3.75h6c2.07,0,3.75-1.68,3.75-3.75v-4c0-1.43-.82-2.67-2-3.3Zm-4,6.3c0,.41-.34,.75-.75,.75s-.75-.34-.75-.75v-2c0-.41,.34-.75,.75-.75s.75,.34,.75,.75v2Zm2.5-6.72c-.08,0-.16-.03-.25-.03h-6c-.09,0-.17,.02-.25,.03v-2.28c0-1.79,1.46-3.25,3.25-3.25s3.25,1.46,3.25,3.25v2.28Z"/></g></svg>