<?xml version="1.0" encoding="UTF-8"?><svg fill="currentColor" xmlns="http://www.w3.org/2000/svg" viewBox="0 0 24 24"><g id="t"><path d="M13.5,2.25c-4.55,0-8.25,3.7-8.25,8.25,0,2,.72,3.84,1.91,5.28l-4.69,4.69c-.29,.29-.29,.77,0,1.06,.15,.15,.34,.22,.53,.22s.38-.07,.53-.22l4.69-4.69c1.43,1.19,3.27,1.91,5.28,1.91,4.55,0,8.25-3.7,8.25-8.25S18.05,2.25,13.5,2.25Zm5.1,6.2l-2.31,3.08c-.3,.41-.77,.66-1.28,.7-.51,.03-1-.15-1.36-.51l-1.48-1.48c-.1-.1-.26-.1-.35,0l-2.29,2.29c-.15,.15-.34,.22-.53,.22s-.38-.07-.53-.22c-.29-.29-.29-.77,0-1.06l2.29-2.29c.68-.68,1.79-.68,2.47,0l1.48,1.48c.07,.07,.16,.08,.19,.07,.04,0,.12-.02,.18-.1l2.31-3.08c.25-.33,.72-.4,1.05-.15,.33,.25,.4,.72,.15,1.05Z"/></g></svg>