<?xml version="1.0" encoding="UTF-8"?><svg fill="currentColor" xmlns="http://www.w3.org/2000/svg" viewBox="0 0 24 24"><g id="r"><path d="M16,3.25H8c-3.17,0-5.75,2.58-5.75,5.75v6c0,3.17,2.58,5.75,5.75,5.75h8c3.17,0,5.75-2.58,5.75-5.75v-6c0-3.17-2.58-5.75-5.75-5.75Zm-6,11.5h-1c-1.52,0-2.75-1.23-2.75-2.75s1.23-2.75,2.75-2.75h1c.41,0,.75,.34,.75,.75s-.34,.75-.75,.75h-1c-.69,0-1.25,.56-1.25,1.25s.56,1.25,1.25,1.25h1c.41,0,.75,.34,.75,.75s-.34,.75-.75,.75Zm4-3.5c.41,0,.75,.34,.75,.75s-.34,.75-.75,.75h-4c-.41,0-.75-.34-.75-.75s.34-.75,.75-.75h4Zm1,3.5h-1c-.41,0-.75-.34-.75-.75s.34-.75,.75-.75h1c.69,0,1.25-.56,1.25-1.25s-.56-1.25-1.25-1.25h-1c-.41,0-.75-.34-.75-.75s.34-.75,.75-.75h1c1.52,0,2.75,1.23,2.75,2.75s-1.23,2.75-2.75,2.75Z"/></g></svg>