<?xml version="1.0" encoding="UTF-8"?><svg fill="currentColor" xmlns="http://www.w3.org/2000/svg" viewBox="0 0 24 24"><g id="q"><g><path d="M12,10.75c-.32,0-.64,.12-.88,.37-.24,.24-.37,.55-.37,.88s.13,.65,.37,.88c.49,.49,1.28,.49,1.77,0,.24-.24,.37-.55,.37-.88s-.13-.65-.37-.88c-.24-.24-.56-.37-.88-.37Z"/><path d="M12,2.25C6.62,2.25,2.25,6.62,2.25,12s4.37,9.75,9.75,9.75,9.75-4.37,9.75-9.75S17.38,2.25,12,2.25Zm-1.31,14.63c-.12,.28-.4,.45-.69,.45-.1,0-.2-.02-.3-.06-2.09-.92-3.45-2.98-3.45-5.27,0-3.17,2.58-5.75,5.75-5.75,.39,0,.77,.04,1.15,.12,.41,.08,.67,.48,.59,.88-.08,.41-.49,.67-.88,.59-.28-.06-.57-.08-.85-.08-2.34,0-4.25,1.91-4.25,4.25,0,1.69,1,3.22,2.55,3.9,.38,.17,.55,.61,.39,.99Zm-.63-2.94c-.52-.52-.81-1.21-.81-1.94s.29-1.43,.81-1.94c.89-.89,2.23-1.03,3.28-.45l2.38-2.38c.29-.29,.77-.29,1.06,0s.29,.77,0,1.06l-2.38,2.38c.23,.4,.36,.86,.36,1.33,0,.73-.29,1.43-.81,1.94-.54,.54-1.24,.8-1.94,.8s-1.41-.27-1.94-.8Zm4.25,3.33c-.1,.04-.2,.06-.3,.06-.29,0-.56-.17-.69-.45-.17-.38,0-.82,.39-.99,1.55-.68,2.55-2.21,2.55-3.9,0-.29-.03-.57-.08-.85-.08-.41,.18-.8,.59-.88,.4-.08,.8,.18,.88,.59,.08,.38,.11,.76,.11,1.15,0,2.29-1.35,4.36-3.45,5.27Z"/></g></g></svg>