<?xml version="1.0" encoding="UTF-8"?><svg fill="currentColor" xmlns="http://www.w3.org/2000/svg" viewBox="0 0 24 24"><g id="s"><g><path d="M19,3.25h-2c-1.52,0-2.75,1.23-2.75,2.75v14c0,.41,.34,.75,.75,.75h4c1.52,0,2.75-1.23,2.75-2.75V6c0-1.52-1.23-2.75-2.75-2.75Z"/><path d="M12.75,7.25h-1.75c-1.52,0-2.75,1.23-2.75,2.75v10c0,.41,.34,.75,.75,.75h3.89c-.08-.24-.14-.49-.14-.75V7.25Z"/><path d="M6.75,12.25h-1.75c-1.52,0-2.75,1.23-2.75,2.75v3c0,1.52,1.23,2.75,2.75,2.75h1.89c-.08-.24-.14-.49-.14-.75v-7.75Z"/></g></g></svg>