<?xml version="1.0" encoding="UTF-8"?><svg fill="currentColor" xmlns="http://www.w3.org/2000/svg" viewBox="0 0 24 24"><g id="g"><g><path d="M12,3.89c-.85,.56-1.9,1.47-2.7,2.84-1.35,2.3-1.26,4.64-1.08,5.82l.13,.78c.26-.07,.51-.19,.72-.38,.47-.44,1.21-.94,2.18-1.12v6.68c0,.41-.34,.75-.75,.75s-.75-.34-.75-.75v-.5c0-.41-.34-.75-.75-.75s-.75,.34-.75,.75v.5c0,1.24,1.01,2.25,2.25,2.25s2.25-1.01,2.25-2.25v-6.66c.6,.12,1.44,.4,2.17,1.08,.2,.19,.44,.3,.68,.38l.2-.83c.16-1.12,.25-3.45-1.1-5.75-.8-1.37-1.85-2.27-2.7-2.84Z"/><path d="M10.15,3.43c-4.5,.87-7.9,4.82-7.9,9.57,0,.3,.18,.57,.46,.69,.28,.12,.6,.06,.82-.16,.25-.25,.8-.68,1.58-.79,.68-.1,1.26,.1,1.68,.32l-.05-.28c-.21-1.4-.31-4.12,1.27-6.82,.56-.96,1.3-1.8,2.15-2.54Z"/><path d="M13.85,3.43c.85,.73,1.59,1.58,2.15,2.54,1.58,2.69,1.48,5.4,1.28,6.79l-.08,.33c.56-.3,1.13-.42,1.7-.34,.78,.11,1.32,.54,1.58,.79,.14,.14,.33,.21,.53,.21,.1,0,.2-.02,.29-.06,.28-.12,.46-.39,.46-.69,0-4.74-3.41-8.7-7.9-9.57Z"/></g></g></svg>