<?xml version="1.0" encoding="UTF-8"?><svg fill="currentColor" xmlns="http://www.w3.org/2000/svg" viewBox="0 0 24 24"><g id="r"><g><path d="M18.2,13.27l-.32-4.47c-.03-.42-.16-.8-.36-1.14,.71-.22,1.22-.88,1.22-1.66v-2c0-.96-.79-1.75-1.75-1.75H7c-.96,0-1.75,.79-1.75,1.75v2c0,.78,.52,1.44,1.22,1.66-.19,.34-.33,.73-.36,1.14l-.32,4.47c-1.97,.11-3.55,1.73-3.55,3.73,0,1.52,1.23,2.75,2.75,2.75h.52c.12,.41,.32,.8,.62,1.12,.52,.56,1.25,.88,2.01,.88h7.7c.76,0,1.5-.32,2.01-.88,.3-.32,.5-.71,.62-1.12h.52c1.52,0,2.75-1.23,2.75-2.75,0-2-1.58-3.62-3.55-3.73Zm-.95-9.27v2c0,.14-.11,.25-.25,.25h-2.25V3.75h2.25c.14,0,.25,.11,.25,.25Zm-4,2.25h-2.5V3.75h2.5v2.5Zm-6.5-2.25c0-.14,.11-.25,.25-.25h2.25v2.5h-2.25c-.14,0-.25-.11-.25-.25v-2Zm-3,13c0-1.14,.85-2.07,1.94-2.22l-.25,3.47h-.44c-.69,0-1.25-.56-1.25-1.25Zm13.02,2.85c-.24,.26-.56,.4-.92,.4h-7.7c-.35,0-.68-.14-.92-.4s-.36-.59-.33-.94l.71-10c.05-.65,.59-1.16,1.25-1.16h.39v3.25c0,.41,.34,.75,.75,.75s.75-.34,.75-.75v-3.25h2.5v3.25c0,.41,.34,.75,.75,.75s.75-.34,.75-.75v-3.25h.39c.65,0,1.2,.51,1.25,1.16l.71,10c.03,.35-.09,.68-.33,.94Zm2.23-1.6h-.44l-.25-3.47c1.09,.15,1.94,1.08,1.94,2.22,0,.69-.56,1.25-1.25,1.25Z"/><path d="M12,14.25c-2.07,0-3.75,1.68-3.75,3.75,0,.41,.34,.75,.75,.75s.75-.34,.75-.75c0-1.24,1.01-2.25,2.25-2.25s2.25,1.01,2.25,2.25c0,.41,.34,.75,.75,.75s.75-.34,.75-.75c0-2.07-1.68-3.75-3.75-3.75Z"/></g></g></svg>