<?xml version="1.0" encoding="UTF-8"?><svg fill="currentColor" xmlns="http://www.w3.org/2000/svg" viewBox="0 0 24 24"><g id="c"><path d="M21.51,15.71h0l-1.76-8.79c-.04-1.48-1.26-2.67-2.75-2.67s-2.75,1.23-2.75,2.75v1.72c-.91-.39-1.75-.47-2.25-.47-.89,0-1.65,.21-2.25,.46v-1.71c0-1.52-1.23-2.75-2.75-2.75s-2.71,1.19-2.75,2.67l-1.76,8.78h0c-.15,.41-.24,.84-.24,1.3,0,2.07,1.68,3.75,3.75,3.75s3.75-1.68,3.75-3.75v-3.6c.89-.56,1.77-.65,2.25-.65,1,0,1.77,.35,2.25,.65v3.6c0,2.07,1.68,3.75,3.75,3.75s3.75-1.68,3.75-3.75c0-.46-.09-.89-.24-1.29Zm-4.51-9.96c.69,0,1.25,.56,1.25,1.25,0,.05,0,.1,.01,.15l1.29,6.45c-.48-.22-1-.35-1.55-.35-.85,0-1.62,.29-2.25,.77V7c0-.69,.56-1.25,1.25-1.25Zm-11.26,1.4s.01-.1,.01-.15c0-.69,.56-1.25,1.25-1.25s1.25,.56,1.25,1.25v7.02c-.63-.48-1.4-.77-2.25-.77-.56,0-1.08,.13-1.55,.35l1.29-6.45Zm.26,12.1c-1.24,0-2.25-1.01-2.25-2.25s1.01-2.25,2.25-2.25,2.25,1.01,2.25,2.25-1.01,2.25-2.25,2.25Zm6-8c-.5,0-1.34,.07-2.25,.46v-1.31c.48-.3,1.26-.65,2.25-.65,.48,0,1.36,.09,2.25,.64v1.32c-.6-.26-1.36-.46-2.25-.46Zm6,8c-1.24,0-2.25-1.01-2.25-2.25s1.01-2.25,2.25-2.25,2.25,1.01,2.25,2.25-1.01,2.25-2.25,2.25Z"/></g></svg>