<?xml version="1.0" encoding="UTF-8"?><svg fill="currentColor" xmlns="http://www.w3.org/2000/svg" viewBox="0 0 24 24"><g id="s"><path d="M17,10.25h-2c-.14,0-.25-.11-.25-.25v-3.43c.59-.28,1-.88,1-1.57v-1c0-.96-.79-1.75-1.75-1.75H4c-.96,0-1.75,.79-1.75,1.75v14.88c0,1.58,1.29,2.87,2.87,2.87,.7,0,1.36-.25,1.88-.7,.52,.45,1.18,.7,1.88,.7h1.24c.7,0,1.36-.25,1.88-.7,.52,.45,1.19,.7,1.88,.7h1.24c.69,0,1.36-.25,1.88-.7,.52,.45,1.19,.7,1.88,.7,1.58,0,2.87-1.29,2.87-2.87v-3.88c0-2.62-2.13-4.75-4.75-4.75Zm-2.2,1.48l-.47,.94c-.19,.37-.04,.82,.34,1.01,.11,.05,.22,.08,.33,.08,.28,0,.54-.15,.67-.41l.79-1.59h.54c.41,0,.81,.09,1.17,.23l-.84,1.69c-.19,.37-.04,.82,.34,1.01,.11,.05,.22,.08,.33,.08,.28,0,.54-.15,.67-.41l.74-1.49c.51,.57,.83,1.32,.83,2.15v1.25H3.75V6.75H13.25v3.25c0,.9,.68,1.63,1.55,1.73ZM3.75,4c0-.14,.11-.25,.25-.25H14c.14,0,.25,.11,.25,.25v1c0,.14-.11,.25-.25,.25H3.75v-1.25Zm16.5,14.88c0,.76-.62,1.37-1.37,1.37-.36,0-.71-.15-.97-.4l-.38-.38c-.15-.15-.34-.22-.53-.22s-.38,.07-.53,.22l-.38,.38c-.25,.25-.61,.4-.97,.4h-1.24c-.36,0-.71-.15-.97-.4l-.38-.38c-.29-.29-.77-.29-1.06,0l-.38,.38c-.26,.26-.6,.4-.97,.4h-1.24c-.37,0-.71-.14-.97-.4l-.38-.38c-.29-.29-.77-.29-1.06,0l-.38,.38c-.26,.26-.6,.4-.97,.4-.76,0-1.37-.62-1.37-1.37v-1.13H20.25v1.13Z"/></g></svg>