<?xml version="1.0" encoding="UTF-8"?><svg fill="currentColor" xmlns="http://www.w3.org/2000/svg" viewBox="0 0 24 24"><g id="p"><path d="M21.56,19.73c-.44-2.68-1.06-5.36-1.85-7.95-.22-.72-.45-1.43-.68-2.11-.29-.85-1.1-1.42-2.04-1.42h0c-.62,0-1.19,.27-1.58,.7-.17-1.06-.4-2.12-.69-3.15-.18-.67-.39-1.34-.62-1.99-.33-.93-1.2-1.56-2.18-1.56-.87,0-1.66,.48-2.06,1.25-.19,.38-.38,.78-.56,1.21-.2,.49-.37,.99-.52,1.5-.4-.6-1.08-.97-1.82-.97-.9,0-1.7,.55-2.04,1.39-.67,1.68-1.23,3.43-1.65,5.19-.64,2.66-.98,5.4-1.02,8.15,0,.47,.17,.92,.5,1.26,.33,.34,.77,.52,1.25,.52h5c.37,0,.68-.27,.74-.63l.67-4.03c.13-.78,.8-1.35,1.59-1.35s1.46,.57,1.59,1.35l.67,4.03c.06,.36,.37,.63,.74,.63h4.83c.52,0,1.01-.23,1.34-.62,.33-.39,.47-.9,.39-1.4Zm-1.53,.43s-.09,.09-.2,.09h-4.2l-.57-3.4c-.25-1.51-1.54-2.6-3.07-2.6s-2.82,1.09-3.07,2.6l-.57,3.4H4c-.09,0-.15-.04-.18-.07-.03-.03-.07-.09-.07-.18,.04-2.63,.37-5.27,.98-7.82,.4-1.69,.94-3.36,1.58-4.98,.22-.56,1.12-.53,1.3,.02l.67,2.01c.11,.33,.44,.55,.79,.51,.35-.04,.63-.32,.67-.67,.14-1.31,.46-2.59,.95-3.8,.16-.39,.33-.76,.5-1.09,.14-.27,.42-.44,.72-.44,.34,0,.65,.22,.77,.56,.22,.62,.42,1.26,.59,1.89,.52,1.9,.85,3.87,.97,5.85,.02,.36,.3,.65,.65,.7,.35,.05,.69-.17,.81-.51l.69-2.06c.09-.26,.32-.43,.62-.43h0c.27,0,.51,.17,.59,.41,.23,.67,.45,1.35,.67,2.06,.77,2.53,1.37,5.13,1.8,7.75,.01,.09-.02,.15-.05,.19Z"/></g></svg>