<?xml version="1.0" encoding="UTF-8"?><svg fill="currentColor" xmlns="http://www.w3.org/2000/svg" viewBox="0 0 24 24"><g id="u"><g><path d="M15.02,7.75c1.53,0,2.77-1.23,2.77-2.75s-1.24-2.75-2.77-2.75-2.77,1.23-2.77,2.75,1.24,2.75,2.77,2.75Zm0-4c.7,0,1.27,.56,1.27,1.25s-.57,1.25-1.27,1.25-1.27-.56-1.27-1.25,.57-1.25,1.27-1.25Z"/><path d="M20.74,11.93v-3.93c.02-.41-.32-.75-.73-.75-.37-.02-.75,.33-.75,.75v3.25h-1.9c-.06,0-.11-.02-.16-.05l-3.7-2.96c-.43-.34-.98-.46-1.52-.33-.53,.13-.97,.5-1.18,1.01l-2.08,4.85c-.19,.44-.19,.92,0,1.36,.12,.3,.32,.54,.58,.73-.01,.05-.03,.09-.03,.15v1.7s-.02,.1-.04,.14l-1.83,2.75c-.23,.34-.14,.81,.21,1.04,.13,.09,.27,.13,.42,.13,.24,0,.48-.12,.62-.33l1.83-2.75c.19-.29,.29-.62,.29-.97v-1.18l2.3,.93c.09,.04,.16,.13,.16,.23v3.33c0,.41,.34,.75,.75,.75s.75-.34,.75-.75v-3.33c0-.67-.39-1.27-.99-1.56l1.78-4.36,.76,.61c.31,.25,.7,.38,1.09,.38h1.88l-.03,8.25c0,.41,.33,.75,.75,.75h0c.41,0,.75-.33,.75-.75l.03-8.93s.01-.04,.01-.07-.01-.04-.01-.07Zm-8.4,3.6l-2.11-.85c-.08-.03-.12-.1-.14-.14-.01-.04-.03-.11,0-.19l2.08-4.85c.04-.1,.12-.13,.17-.14,.05,0,.13-.02,.22,.05l1.72,1.38-1.94,4.75Z"/><path d="M7.45,12.4l-2.16-1.62c-.29-.22-.47-.55-.5-.91-.03-.36,.11-.72,.36-.97l2.35-2.35c.38-.38,.96-.48,1.44-.23l.71,.36c.37,.19,.82,.04,1.01-.34,.19-.37,.04-.82-.34-1.01l-.71-.36c-1.06-.53-2.34-.32-3.17,.52l-2.35,2.35c-.56,.56-.85,1.34-.8,2.14,.06,.8,.45,1.53,1.09,2.01l2.16,1.62c.14,.1,.29,.15,.45,.15,.23,0,.45-.1,.6-.3,.25-.33,.18-.8-.15-1.05Z"/></g></g></svg>