<?xml version="1.0" encoding="UTF-8"?><svg fill="currentColor" xmlns="http://www.w3.org/2000/svg" viewBox="0 0 24 24"><g id="m"><g><path d="M18,12.25H6c-.96,0-1.75,.79-1.75,1.75v2c0,3.17,2.58,5.75,5.75,5.75h4c3.17,0,5.75-2.58,5.75-5.75v-2c0-.96-.79-1.75-1.75-1.75Zm.25,3.75c0,2.34-1.91,4.25-4.25,4.25h-4c-2.34,0-4.25-1.91-4.25-4.25v-2c0-.14,.11-.25,.25-.25h12c.14,0,.25,.11,.25,.25v2Z"/><path d="M21,7.25h-3.52c-.74-2.32-2.92-4-5.48-4s-4.73,1.68-5.48,4H3c-.41,0-.75,.34-.75,.75s.34,.75,.75,.75h3.26c0,.08-.01,.17-.01,.25v1c0,.41,.34,.75,.75,.75s.75-.34,.75-.75v-1c0-2.34,1.91-4.25,4.25-4.25,1.72,0,3.19,1.03,3.86,2.5h-4.86c-.41,0-.75,.34-.75,.75s.34,.75,.75,.75h5.22c0,.08,.03,.16,.03,.25v1c0,.41,.34,.75,.75,.75s.75-.34,.75-.75v-1c0-.08,0-.17-.01-.25h3.26c.41,0,.75-.34,.75-.75s-.34-.75-.75-.75Z"/></g></g></svg>