<?xml version="1.0" encoding="UTF-8"?><svg fill="currentColor" xmlns="http://www.w3.org/2000/svg" viewBox="0 0 24 24"><g id="k"><g><path d="M18,14.25H6c-1.54,0-2.75,1.65-2.75,3.75s1.21,3.75,2.75,3.75h12c1.54,0,2.75-1.65,2.75-3.75s-1.21-3.75-2.75-3.75Zm-12,1.5c.59,0,1.25,.92,1.25,2.25s-.66,2.25-1.25,2.25-1.25-.92-1.25-2.25,.66-2.25,1.25-2.25Zm12,4.5H8.2c.34-.62,.55-1.4,.55-2.25s-.21-1.63-.55-2.25h9.8c.59,0,1.25,.92,1.25,2.25s-.66,2.25-1.25,2.25Z"/><path d="M8.26,8.11c.05,.33,.02,.55-.02,.81-.05,.33-.11,.73,.04,1.28,.41,1.49,1.83,2.24,2.43,2.49,.26,.11,.95,.36,1.82,.36,.53,0,1.14-.09,1.76-.36,1.03-.44,1.83-1.24,2.38-2.36,1-2.05,.26-4.06,.01-4.63-.15-.34-.52-.52-.88-.42-.36,.09-.59,.43-.56,.8,.05,.47-.1,.85-.29,1.07,.05-.58-.06-1.1-.32-1.53-.22-.37-.5-.57-.7-.71-.16-.12-.24-.18-.3-.29-.21-.35-.08-.94,.07-1.36,.09-.26,.03-.56-.16-.76-.19-.2-.48-.29-.75-.21-1.13,.31-1.84,.84-2.13,1.57-.22,.57-.11,1.05,0,1.49,.06,.28,.12,.55,.12,.88-.39-.42-.92-.79-1.62-.95-.43-.1-.87-.1-1.32,0-.26,.06-.47,.25-.56,.5-.08,.25-.03,.53,.15,.73,.46,.51,.73,1.06,.82,1.62Zm2.03,.13c.1,.28,.34,.47,.63,.5,.29,.03,.57-.11,.72-.36,.36-.61,.57-1.25,.63-1.91,.05-.63-.06-1.12-.14-1.48-.06-.26-.09-.4-.08-.51,.04,.33,.15,.63,.31,.9,.22,.37,.5,.57,.7,.71,.16,.12,.24,.18,.3,.29,.21,.35,.08,.94-.07,1.36-.07,.19-.05,.4,.04,.58,.09,.18,.25,.32,.44,.38,.52,.17,1.04,.16,1.5-.01,.14-.05,.27-.12,.39-.2-.04,.38-.14,.78-.34,1.17-.14,.29-.58,1.19-1.62,1.64-1.11,.48-2.13,.12-2.41,0-.31-.13-1.33-.63-1.57-1.51-.07-.24-.04-.39,0-.66,.05-.31,.11-.7,.02-1.26-.04-.27-.11-.53-.2-.78,.5,.45,.74,1.1,.75,1.14Z"/></g></g></svg>