<?xml version="1.0" encoding="UTF-8"?><svg fill="currentColor" xmlns="http://www.w3.org/2000/svg" viewBox="0 0 24 24"><g id="i"><path d="M21.75,12.5c0-1.22-1.44-1.97-3.01-2.44,0-.1,0-.2-.03-.3l-1.6-4.79c-.34-1.03-1.3-1.72-2.38-1.72-.67,0-1.3,.26-1.78,.74l-.78,.78c-.1,.1-.26,.1-.35,0l-.78-.78c-.47-.47-1.11-.74-1.78-.74-1.08,0-2.04,.69-2.38,1.72l-1.6,4.79c-.03,.1-.04,.2-.03,.3-1.57,.46-3.01,1.21-3.01,2.43,0,1.29,1.69,2.17,4.02,2.69l.21,1.04c.52,2.62,2.85,4.52,5.52,4.52s5-1.9,5.52-4.52l.21-1.04c2.33-.52,4.02-1.4,4.02-2.69ZM8.31,5.44c.22-.67,1.18-.9,1.68-.4l.78,.78c.68,.68,1.79,.68,2.47,0l.78-.78c.5-.5,1.45-.28,1.68,.4l1.42,4.27c-1.03,.68-2.8,1.54-5.11,1.54-1.07,0-3.1-.21-5.11-1.54l1.42-4.27Zm7.74,10.49c-.38,1.92-2.09,3.32-4.05,3.32s-3.66-1.4-4.05-3.32l-.09-.46c1.32,.19,2.74,.28,4.14,.28s2.82-.09,4.14-.28l-.09,.46Zm-4.05-1.68c-5.44,0-8.14-1.27-8.25-1.74,.03-.14,.62-.74,2.83-1.23,2.16,1.26,4.27,1.47,5.42,1.47,2.34,0,4.19-.76,5.42-1.47,2.2,.49,2.8,1.09,2.83,1.22-.11,.48-2.81,1.76-8.25,1.76Z"/></g></svg>