<?xml version="1.0" encoding="UTF-8"?><svg fill="currentColor" xmlns="http://www.w3.org/2000/svg" viewBox="0 0 24 24"><g id="n"><g><path d="M10.5,8.75c1.79,0,3.25-1.46,3.25-3.25s-1.46-3.25-3.25-3.25-3.25,1.46-3.25,3.25,1.46,3.25,3.25,3.25Zm0-5c.96,0,1.75,.79,1.75,1.75s-.79,1.75-1.75,1.75-1.75-.79-1.75-1.75,.79-1.75,1.75-1.75Z"/><path d="M21,16.25h-2.25v-5.94l2.78-2.78c.16-.16,.24-.38,.22-.6-.02-.22-.14-.43-.33-.55l-3-2c-.23-.15-.53-.17-.77-.04-.24,.13-.4,.38-.4,.66v6.25h-1.42c-.33,0-.65-.13-.88-.37l-1.12-1.12c-.33-.33-.77-.51-1.24-.51h-3.59c-.96,0-1.75,.79-1.75,1.75v9.25H3c-.41,0-.75,.34-.75,.75s.34,.75,.75,.75h7.38c.67,0,1.27-.37,1.57-.97l.45-.89c.04-.09,.13-.14,.22-.14h2.76c.67,0,1.27-.37,1.57-.97l.45-.9c.04-.08,.13-.14,.22-.14h3.38c.41,0,.75-.34,.75-.75s-.34-.75-.75-.75Zm-2.25-9.85l1.07,.72-1.07,1.07v-1.79Zm-9.75,4.35h3.11l-.75,4.5h-2.61v-4.25c0-.14,.11-.25,.25-.25Zm2.05,8.47l-.45,.89c-.04,.09-.13,.14-.22,.14h-1.63v-3.5h4.25c.14,0,.25,.11,.25,.25v1.25h-.63c-.67,0-1.27,.37-1.57,.97Zm5-2l-.45,.9c-.04,.08-.13,.14-.22,.14h-.63v-1.25c0-.96-.79-1.75-1.75-1.75h-.11l.62-3.69,.38,.38c.52,.52,1.21,.81,1.94,.81h1.42v3.55c-.51,.11-.96,.43-1.2,.92Z"/><path d="M4,15.75h2c.41,0,.75-.34,.75-.75s-.34-.75-.75-.75h-2c-.14,0-.25-.11-.25-.25v-4.13c0-.13,.08-.19,.13-.22,.05-.03,.15-.06,.26,.01l1.45,.96c.34,.23,.81,.14,1.04-.21s.14-.81-.21-1.04l-1.45-.96c-.54-.36-1.23-.39-1.8-.09-.57,.31-.92,.9-.92,1.54v4.13c0,.96,.79,1.75,1.75,1.75Z"/></g></g></svg>