<?xml version="1.0" encoding="UTF-8"?><svg fill="currentColor" xmlns="http://www.w3.org/2000/svg" viewBox="0 0 24 24"><g id="b"><g><path d="M19.01,13.41L6.41,2.43c-.31-.27-.79-.24-1.06,.07-1.72,1.98-1.51,4.98,.46,6.7l2.7,2.35c.31,.27,.79,.24,1.06-.07,.27-.31,.24-.79-.07-1.06l-2.7-2.35c-1.16-1.01-1.43-2.66-.74-3.96l10.5,9.13H6c-2.07,0-3.75,1.68-3.75,3.75s1.68,3.75,3.75,3.75h12c2.07,0,3.75-1.68,3.75-3.75,0-1.71-1.16-3.15-2.74-3.59Zm-1.01,5.84H6c-1.24,0-2.25-1.01-2.25-2.25s1.01-2.25,2.25-2.25h12c1.24,0,2.25,1.01,2.25,2.25s-1.01,2.25-2.25,2.25Z"/><path d="M13,16.25H7c-.41,0-.75,.34-.75,.75s.34,.75,.75,.75h6c.41,0,.75-.34,.75-.75s-.34-.75-.75-.75Z"/><path d="M17,16.25h-1c-.41,0-.75,.34-.75,.75s.34,.75,.75,.75h1c.41,0,.75-.34,.75-.75s-.34-.75-.75-.75Z"/></g></g></svg>