<?xml version="1.0" encoding="UTF-8"?><svg fill="currentColor" xmlns="http://www.w3.org/2000/svg" viewBox="0 0 24 24"><g id="h"><path d="M18,20.25h-1.25v-1.25c0-.7-.41-1.29-1-1.57v-6.85c.59-.28,1-.88,1-1.57v-1.25h.25c.41,0,.75-.34,.75-.75s-.34-.75-.75-.75h-.41l-.67-2.67c-.2-.78-.89-1.33-1.7-1.33-.41,0-.75,.34-.75,.75s.34,.75,.75,.75c.12,0,.21,.08,.24,.19l.58,2.31h-6.08l.58-2.31c.03-.11,.13-.19,.24-.19,.41,0,.75-.34,.75-.75s-.34-.75-.75-.75c-.8,0-1.5,.54-1.7,1.33l-.67,2.67h-.41c-.41,0-.75,.34-.75,.75s.34,.75,.75,.75h.25v1.25c0,.7,.41,1.29,1,1.57v6.85c-.59,.28-1,.88-1,1.57v1.25h-1.25c-.41,0-.75,.34-.75,.75s.34,.75,.75,.75h12c.41,0,.75-.34,.75-.75s-.34-.75-.75-.75ZM8.75,9v-1.25h6.5v1.25c0,.14-.11,.25-.25,.25h-6c-.14,0-.25-.11-.25-.25Zm1,1.75h4.5v6.5h-4.5v-6.5Zm-1,9.5v-1.25c0-.14,.11-.25,.25-.25h6c.14,0,.25,.11,.25,.25v1.25h-6.5Z"/></g></svg>