<?xml version="1.0" encoding="UTF-8"?><svg fill="currentColor" xmlns="http://www.w3.org/2000/svg" viewBox="0 0 24 24"><g id="t"><g><path d="M21.59,18.03l-3.14-4.72c-.54-.8-1.43-1.26-2.4-1.22-.97,.04-1.82,.57-2.29,1.41l-.08,.15-2.27-3.4c-.53-.79-1.41-1.25-2.37-1.22-.95,.03-1.81,.54-2.29,1.36l-4.51,7.73c-.32,.55-.32,1.2,0,1.75,.32,.55,.88,.88,1.52,.88H20.13c.65,0,1.24-.35,1.54-.92,.3-.57,.27-1.26-.09-1.8Zm-7.59,1.22H3.74c-.13,0-.19-.08-.22-.13s-.06-.14,0-.25h0l4.51-7.73c.22-.38,.6-.61,1.04-.62h.04c.42,0,.8,.2,1.04,.56l5.19,7.78c.07,.11,.04,.21,.01,.26-.03,.05-.09,.13-.22,.13h-1.13Zm6.35-.13s-.09,.13-.22,.13h-3.28c.06-.42-.02-.86-.26-1.22l-1.98-2.97,.46-.82c.22-.39,.6-.62,1.04-.64,.44-.03,.84,.18,1.09,.56l3.14,4.72c.07,.11,.04,.21,.01,.26Z"/><path d="M18.5,9.75c1.79,0,3.25-1.46,3.25-3.25s-1.46-3.25-3.25-3.25-3.25,1.46-3.25,3.25,1.46,3.25,3.25,3.25Zm0-5c.96,0,1.75,.79,1.75,1.75s-.79,1.75-1.75,1.75-1.75-.79-1.75-1.75,.79-1.75,1.75-1.75Z"/></g></g></svg>