<?xml version="1.0" encoding="UTF-8"?><svg fill="currentColor" xmlns="http://www.w3.org/2000/svg" viewBox="0 0 24 24"><g id="q"><g><path d="M20.53,3.47c-1.11-1.11-2.66-1.62-4.36-1.46-1.65,.16-3.26,.95-4.54,2.23-.29,.29-.29,.77,0,1.06s.77,.29,1.06,0c1.03-1.03,2.31-1.66,3.62-1.79,1.25-.13,2.37,.24,3.16,1.02,1.66,1.66,1.31,4.7-.77,6.78-.29,.29-.29,.77,0,1.06,.15,.15,.34,.22,.53,.22s.38-.07,.53-.22c2.67-2.67,3.01-6.66,.77-8.9Z"/><path d="M16.58,10.25c.15,.15,.34,.22,.53,.22s.38-.07,.53-.22c1.24-1.24,1.38-3.12,.31-4.2-1.07-1.07-2.96-.93-4.2,.31-.29,.29-.29,.77,0,1.06s.77,.29,1.06,0c.65-.65,1.6-.79,2.08-.31,.48,.48,.34,1.43-.31,2.08-.29,.29-.29,.77,0,1.06Z"/><path d="M15.3,17.18l-2.83-2.83h0l-5.66-5.66c-.29-.29-.77-.29-1.06,0s-.29,.77,0,1.06l.18,.18-1.19,1.19c-2.67,2.67-3.01,6.66-.77,8.9,.97,.97,2.28,1.49,3.74,1.49,.21,0,.42-.01,.63-.03,1.65-.16,3.26-.95,4.54-2.23l1.19-1.19,.18,.18c.15,.15,.34,.22,.53,.22s.38-.07,.53-.22c.29-.29,.29-.77,0-1.06Zm-4.42-2.3l-1.19,1.19c-.65,.65-1.6,.79-2.08,.31-.48-.48-.34-1.43,.31-2.08l1.19-1.19,1.77,1.77Zm.93,3.31c-1.03,1.03-2.31,1.66-3.62,1.79-1.26,.12-2.38-.24-3.16-1.02-1.66-1.66-1.31-4.7,.77-6.78l1.19-1.19,1.06,1.06-1.19,1.19c-1.24,1.24-1.38,3.12-.31,4.2,.48,.48,1.13,.72,1.82,.72,.83,0,1.7-.35,2.38-1.03l1.19-1.19,1.06,1.06-1.19,1.19Z"/><path d="M8.69,5.41c-.29-.29-.77-.29-1.06,0s-.29,.77,0,1.06l8.59,8.59c.59,.59,.71,1.55,.31,2.51l-1.19,2.84c-.16,.38,.02,.82,.4,.98,.09,.04,.19,.06,.29,.06,.29,0,.57-.17,.69-.46l1.19-2.84c.63-1.51,.38-3.13-.63-4.15L8.69,5.41Z"/></g></g></svg>