<?xml version="1.0" encoding="UTF-8"?><svg fill="currentColor" xmlns="http://www.w3.org/2000/svg" viewBox="0 0 24 24"><g id="l"><g><path d="M21,11.25h-1.29c-.17-1.76-.93-3.4-2.18-4.67-.29-.3-.76-.3-1.06-.01-.3,.29-.3,.76,0,1.06,.97,.99,1.57,2.26,1.74,3.62h-1.2c-.41,0-.75,.34-.75,.75s.34,.75,.75,.75h1.2c-.34,2.85-2.6,5.11-5.45,5.45v-1.2c0-.41-.34-.75-.75-.75s-.75,.34-.75,.75v1.2c-2.85-.34-5.11-2.6-5.45-5.45h1.2c.41,0,.75-.34,.75-.75s-.34-.75-.75-.75h-1.2c.16-1.36,.76-2.63,1.74-3.62,.29-.3,.29-.77,0-1.06-.3-.29-.77-.29-1.06,.01-1.25,1.28-2.01,2.91-2.18,4.67h-1.29c-.41,0-.75,.34-.75,.75s.34,.75,.75,.75h1.29c.35,3.68,3.29,6.61,6.96,6.96v1.29c0,.41,.34,.75,.75,.75s.75-.34,.75-.75v-1.29c3.68-.35,6.61-3.29,6.96-6.96h1.29c.41,0,.75-.34,.75-.75s-.34-.75-.75-.75Z"/><path d="M10.32,10.51l1.68-1.18,1.68,1.18c.23,.16,.49,.24,.75,.24s.54-.08,.77-.25c.47-.34,.66-.94,.49-1.5-.22-.7-.45-1.38-.71-2.05-.52-1.36-1.13-2.71-1.82-4-.23-.43-.68-.7-1.16-.7s-.93,.27-1.16,.7c-.69,1.29-1.3,2.63-1.82,3.99-.25,.66-.49,1.35-.71,2.05-.17,.56,.03,1.16,.49,1.5,.46,.33,1.05,.34,1.52,.01Zm.1-3.03c.45-1.2,.99-2.38,1.58-3.51,.59,1.14,1.13,2.32,1.58,3.52,.19,.49,.36,.99,.53,1.5l-1.68-1.18c-.26-.18-.6-.18-.86,0l-1.68,1.18c.17-.51,.34-1.01,.53-1.5Z"/></g></g></svg>