<?xml version="1.0" encoding="UTF-8"?><svg fill="currentColor" xmlns="http://www.w3.org/2000/svg" viewBox="0 0 24 24"><g id="f"><path d="M17,11.25h-4.25v-1.5h2.84c.47,0,.91-.18,1.24-.51l1.71-1.71c.29-.29,.29-.77,0-1.06l-1.71-1.71c-.33-.33-.77-.51-1.24-.51h-2.84v-1.25c0-.41-.34-.75-.75-.75s-.75,.34-.75,.75v1.25H7c-.96,0-1.75,.79-1.75,1.75v2c0,.96,.79,1.75,1.75,1.75h4.25v1.5h-2.84c-.47,0-.91,.18-1.24,.51l-1.71,1.71c-.29,.29-.29,.77,0,1.06l1.71,1.71c.33,.33,.77,.51,1.24,.51h2.84v4.25c0,.41,.34,.75,.75,.75s.75-.34,.75-.75v-4.25h4.25c.96,0,1.75-.79,1.75-1.75v-2c0-.96-.79-1.75-1.75-1.75Zm-10.25-3.25v-2c0-.14,.11-.25,.25-.25H15.59c.07,0,.13,.03,.18,.07l1.18,1.18-1.18,1.18s-.11,.07-.18,.07H7c-.14,0-.25-.11-.25-.25Zm10.5,7c0,.14-.11,.25-.25,.25H8.41c-.07,0-.13-.03-.18-.07l-1.18-1.18,1.18-1.18s.11-.07,.18-.07h8.59c.14,0,.25,.11,.25,.25v2Z"/></g></svg>