<?xml version="1.0" encoding="UTF-8"?><svg fill="currentColor" xmlns="http://www.w3.org/2000/svg" viewBox="0 0 24 24"><g id="d"><path d="M21.53,19.73L11.75,9.95l1.59-1.59c.29-.29,.29-.77,0-1.06s-.77-.29-1.06,0l-.18,.18-3.71-3.71c-.66-.66-1.81-.66-2.47,0l-1.41,1.41c-.3,.3-.46,.68-.5,1.07-.62,.42-1.19,1.2-1.53,2.16-.4,1.11-.43,2.22-.08,2.96,.19,.41,.49,.7,.87,.83,.15,.06,.31,.08,.48,.08,.46,0,.95-.22,1.39-.64,.47-.45,.88-1.11,1.15-1.86,.03-.09,.04-.17,.07-.26l1.86,1.86-.18,.18c-.29,.29-.29,.77,0,1.06,.15,.15,.34,.22,.53,.22s.38-.07,.53-.22l.71-.71h0l.88-.88,9.78,9.78c.15,.15,.34,.22,.53,.22s.38-.07,.53-.22c.29-.29,.29-.77,0-1.06ZM4.87,9.26c-.38,1.04-.96,1.5-1.08,1.52-.13-.11-.29-.84,.09-1.88,.19-.52,.45-.92,.69-1.18l.51,.51c-.02,.33-.08,.67-.21,1.03Zm.69-2.67c-.1-.1-.1-.26,0-.35l1.42-1.41c.06-.06,.14-.07,.18-.07s.11,0,.18,.07l3.71,3.71-.88,.88-.88,.88-3.71-3.71Z"/></g></svg>