<?xml version="1.0" encoding="UTF-8"?><svg fill="currentColor" xmlns="http://www.w3.org/2000/svg" viewBox="0 0 24 24"><g id="e"><g><path d="M19.74,9.22c-.52-.62-1.29-.97-2.1-.97h-1.89v-1.5h.25c.96,0,1.75-.79,1.75-1.75v-1c0-.96-.79-1.75-1.75-1.75H8c-.96,0-1.75,.79-1.75,1.75v1c0,.96,.79,1.75,1.75,1.75h.25v1.5h-1.89c-.81,0-1.57,.35-2.1,.97-.52,.62-.75,1.43-.61,2.23l1.33,8c.22,1.33,1.36,2.3,2.71,2.3h8.61c1.35,0,2.49-.97,2.71-2.3l1.33-8c.13-.8-.09-1.61-.61-2.23ZM7.75,5v-1c0-.14,.11-.25,.25-.25h8c.14,0,.25,.11,.25,.25v1c0,.14-.11,.25-.25,.25H8c-.14,0-.25-.11-.25-.25Zm2,1.75h4.5v1.5h-4.5v-1.5Zm9.12,4.46l-1.33,8c-.1,.6-.62,1.04-1.23,1.04H7.69c-.61,0-1.13-.44-1.23-1.04l-1.33-8c-.06-.36,.04-.73,.28-1.01,.24-.28,.59-.44,.95-.44h11.28c.37,0,.72,.16,.95,.44,.24,.28,.34,.65,.28,1.01Z"/><path d="M12,12.25c-1.52,0-2.75,1.23-2.75,2.75s1.23,2.75,2.75,2.75,2.75-1.23,2.75-2.75-1.23-2.75-2.75-2.75Zm0,4c-.69,0-1.25-.56-1.25-1.25s.56-1.25,1.25-1.25,1.25,.56,1.25,1.25-.56,1.25-1.25,1.25Z"/></g></g></svg>