<?xml version="1.0" encoding="UTF-8"?><svg fill="currentColor" xmlns="http://www.w3.org/2000/svg" viewBox="0 0 24 24"><g id="u"><path d="M21.08,12.48l-.18-.36c-.09-.18-.22-.32-.36-.45,.08-.23,.1-.47,.07-.72-.55-3.82-3.87-6.7-7.72-6.7h-1.77c-3.86,0-7.18,2.88-7.72,6.7-.03,.24,0,.49,.07,.72-.14,.13-.27,.27-.36,.45l-.18,.36c-.24,.49-.22,1.06,.07,1.53,.15,.24,.36,.43,.6,.56-.07,.28-.08,.57,0,.86l.31,1.24c.31,1.23,1.4,2.08,2.67,2.08h10.88c1.26,0,2.36-.86,2.67-2.08l.31-1.24c.07-.29,.06-.58,0-.86,.24-.13,.45-.32,.6-.56,.29-.47,.31-1.04,.07-1.53Zm-16.76,.77l-.06-.1,.24-.4,15.05,.04,.18,.43s-.05,.03-.06,.03H4.32Zm6.79-7.5h1.77c3.12,0,5.8,2.33,6.22,5.47-.02,.02-.04,.03-.06,.03H4.96l-.08-.09c.44-3.08,3.12-5.41,6.24-5.41Zm7.54,10.55c-.14,.56-.64,.95-1.21,.95H6.56c-.57,0-1.07-.39-1.21-.95l-.31-1.24c-.03-.1,.02-.18,.05-.21,.03-.04,.09-.1,.2-.1h13.44c.11,0,.17,.06,.2,.1,.03,.04,.07,.11,.05,.21l-.31,1.24Z"/></g></svg>