<?xml version="1.0" encoding="UTF-8"?><svg fill="currentColor" xmlns="http://www.w3.org/2000/svg" viewBox="0 0 24 24"><g id="b"><g><path d="M17.39,3.76c-.73-.52-1.66-.55-2.43-.09-.25,.15-.57,.13-.8-.04l-1.17-.88c-.88-.66-2.13-.57-2.9,.21l-.59,.59c-.22,.22-.55,.27-.83,.13l-.82-.41c-.77-.38-1.67-.3-2.35,.22-.68,.52-1,1.37-.82,2.21l.5,2.45c.01,.06,.04,.11,.07,.17v8.35h0v1.5c0,1.98,1.55,3.58,3.45,3.58h5.6c1.9,0,3.45-1.61,3.45-3.58V8.37c.04-.07,.07-.14,.08-.21l.44-2.12c.18-.88-.16-1.74-.89-2.26Zm-10.97,.92c.22-.17,.51-.2,.76-.07l.82,.41c.86,.43,1.89,.26,2.56-.42l.59-.59c.25-.25,.66-.28,.94-.07l1.17,.88c.73,.54,1.7,.59,2.47,.13,.38-.22,.7-.03,.79,.03,.09,.06,.38,.31,.29,.74l-.36,1.71c-.43,.2-.85,.4-1.27,.62-.75-1.1-2.11-1.81-3.59-1.81s-2.84,.71-3.6,1.81c-.46-.26-.94-.48-1.44-.66l-.41-2c-.06-.28,.04-.55,.27-.72Zm1.88,5.35c.61,.47,1.16,1.02,1.64,1.63-.67,.58-1.23,1.12-1.7,1.56-.5,.48-1,.97-1.48,1.49v-5.62c.54,.25,1.06,.57,1.54,.94Zm.95-1.16c.48-.69,1.36-1.13,2.35-1.13s1.79,.41,2.28,1.05h-.01c-1.06,.64-1.98,1.3-2.77,1.92-.54-.69-1.16-1.3-1.84-1.83Zm7,9.28c0,1.15-.87,2.08-1.95,2.08h-5.6c-1.07,0-1.95-.93-1.95-2.08v-1.22c.81-.92,1.65-1.8,2.52-2.63,1.13-1.08,2.85-2.71,5.37-4.23,.53-.32,1.07-.62,1.61-.9v8.97Z"/><path d="M13.47,12.47l-1,1c-.29,.29-.29,.77,0,1.06,.15,.15,.34,.22,.53,.22s.38-.07,.53-.22l1-1c.29-.29,.29-.77,0-1.06s-.77-.29-1.06,0Z"/><path d="M9.47,15.47l-1,1c-.29,.29-.29,.77,0,1.06,.15,.15,.34,.22,.53,.22s.38-.07,.53-.22l1-1c.29-.29,.29-.77,0-1.06s-.77-.29-1.06,0Z"/><path d="M13.47,16.47l-1,1c-.29,.29-.29,.77,0,1.06,.15,.15,.34,.22,.53,.22s.38-.07,.53-.22l1-1c.29-.29,.29-.77,0-1.06s-.77-.29-1.06,0Z"/></g></g></svg>