<?xml version="1.0" encoding="UTF-8"?><svg fill="currentColor" xmlns="http://www.w3.org/2000/svg" viewBox="0 0 24 24"><g id="s"><path d="M21.75,12.8c-.02-.93-.3-3.31-2.3-5.29-1.33-1.31-2.85-1.85-3.89-2.08-.95-.21-1.93-.04-2.76,.47L2.61,12.18s-.05,.05-.08,.07c-.03,.02-.05,.04-.07,.06-.05,.05-.08,.11-.11,.17,0,.02-.02,.03-.03,.05-.03,.08-.05,.17-.05,.27,0,0,0,.01,0,.02v5.18c0,1.52,1.23,2.75,2.75,2.75h14c1.52,0,2.75-1.23,2.75-2.75v-5.18h0v-.02Zm-18,.77H20.25v1.95c-1.07,.48-2.15,.74-3.22,.74h-.03c-1.01,0-1.58-.21-2.25-.46-.7-.25-1.49-.54-2.75-.54s-2.05,.29-2.75,.54c-.67,.24-1.25,.45-2.25,.46-1.08,.02-2.17-.25-3.25-.74v-1.95ZM13.59,7.18c.5-.31,1.09-.41,1.66-.29,.85,.18,2.08,.63,3.15,1.68,1.21,1.19,1.63,2.56,1.78,3.49H5.65l7.94-4.89Zm5.41,12.07H5c-.69,0-1.25-.56-1.25-1.25v-.85c1.08,.4,2.17,.61,3.25,.6,1.27,0,2.06-.29,2.76-.55,.67-.24,1.24-.45,2.24-.45s1.57,.21,2.24,.45c.7,.25,1.49,.54,2.76,.55h.04c1.08,0,2.15-.2,3.22-.6v.85c0,.69-.56,1.25-1.25,1.25Z"/></g></svg>