<?xml version="1.0" encoding="UTF-8"?><svg fill="currentColor" xmlns="http://www.w3.org/2000/svg" viewBox="0 0 24 24"><g id="q"><path d="M15.26,14.36c0-.29,.17-.58,.46-.75,2.05-1.25,3.23-3.54,3-5.84-.31-3.08-3.06-5.5-6.29-5.52-3.22,.02-5.98,2.44-6.28,5.52-.23,2.29,.95,4.58,3,5.84,.29,.18,.46,.46,.46,.75v.42c0,.39,.17,.76,.46,1.01,.07,.06,.15,.12,.24,.17v1.18l-1.14,.76c-.59,.39-.94,1.04-.94,1.75,0,1.16,.94,2.1,2.1,2.1h.16c.55,0,1.1-.23,1.52-.65,.24-.23,.62-.23,.88,.03,.39,.39,.93,.62,1.49,.62h.16c1.16,0,2.1-.94,2.1-2.1,0-.71-.35-1.36-.94-1.75l-1.14-.76v-1.31c.44-.36,.69-.89,.69-1.46Zm-5.33-2.03c-1.56-.95-2.46-2.69-2.29-4.41,.23-2.33,2.34-4.16,4.79-4.17,2.46,.01,4.56,1.85,4.8,4.17,.17,1.73-.73,3.46-2.29,4.41-.74,.45-1.17,1.21-1.17,2.03,0,.12-.05,.23-.14,.31-.06,.05-.15,.1-.33,.06-.05-.01-.12-.05-.2-.1-.15-.08-.35-.19-.6-.23-.09-.01-.18-.02-.27-.02-.41,0-.82,.12-1,.19l-.11,.03v-.23c0-.82-.44-1.58-1.17-2.03Zm4.94,6.82c.17,.11,.27,.3,.27,.5,0,.33-.27,.6-.6,.6h-.16c-.16,0-.31-.06-.46-.21-.82-.82-2.15-.82-3.01,.03-.11,.11-.27,.18-.42,.18h-.16c-.33,0-.6-.27-.6-.6,0-.2,.1-.39,.27-.5l1.47-.98c.21-.14,.33-.37,.33-.62v-1.59c.24-.07,.4-.09,.43-.08,.04,.02,.08,.04,.12,.06,.15,.08,.35,.19,.69,.27,0,0,.02,0,.02,0v1.33c0,.25,.13,.48,.33,.62l1.47,.98Z"/></g></svg>