<?xml version="1.0" encoding="UTF-8"?><svg fill="currentColor" xmlns="http://www.w3.org/2000/svg" viewBox="0 0 24 24"><g id="o"><path d="M19.71,13.73l-.25-1.32c-.2-1.08-.59-2.03-1.16-2.82-1.02-1.41-2.53-2.45-4.29-2.97-.09-1.16-1-2.09-2.16-2.25,0-.04,0-.09,.01-.13,.07-.25,.26-.53,.6-.49,.41,.06,.79-.23,.85-.64,.06-.41-.23-.79-.64-.85-1.02-.14-1.98,.52-2.26,1.58-.07,.27-.09,.53-.09,.77-.75,.39-1.28,1.12-1.35,1.99-1.76,.52-3.26,1.55-4.29,2.97-.57,.79-.96,1.73-1.16,2.82l-.25,1.32c-.14,.76,.09,1.54,.63,2.14,.2,.22,.45,.39,.72,.53,0,.38,0,.76,.04,1.14,.07,.81,.23,1.63,.46,2.43,.31,1.05,1.5,1.78,2.9,1.78h6.92c1.4,0,2.59-.73,2.9-1.78,.23-.8,.39-1.62,.46-2.43,.03-.38,.04-.76,.04-1.14,.26-.14,.51-.32,.72-.54,.54-.59,.78-1.37,.63-2.14Zm-7.17-6.91c0,.54-.46,.98-1.04,.98s-1.04-.44-1.04-.98,.46-.98,1.04-.98,1.04,.44,1.04,.98Zm-7.52,5.86c.16-.86,.46-1.61,.9-2.21,.81-1.12,2.02-1.93,3.43-2.36,.45,.71,1.24,1.2,2.16,1.2s1.71-.48,2.16-1.2c1.41,.43,2.62,1.24,3.43,2.36,.44,.61,.74,1.35,.9,2.21l.25,1.32c.06,.3-.04,.61-.26,.85-.27,.29-.65,.43-1.08,.39-.78-.08-1.18-.66-1.23-.73-.15-.23-.4-.36-.68-.33-.27,.02-.51,.19-.62,.43-.17,.37-.61,.62-1.09,.62s-.92-.25-1.09-.62c-.25-.53-1.11-.53-1.36,0-.17,.37-.61,.62-1.09,.62s-.92-.25-1.09-.62c-.11-.25-.35-.41-.62-.43-.28-.02-.53,.11-.68,.33-.04,.07-.45,.64-1.25,.73-.41,.04-.79-.1-1.06-.39-.22-.24-.32-.55-.26-.85l.25-1.32Zm11.41,6.87c-.1,.34-.68,.7-1.46,.7h-6.92c-.78,0-1.36-.36-1.46-.7-.21-.7-.34-1.42-.41-2.14-.02-.23,0-.45-.01-.68,.04,0,.07,0,.11,0,.71-.08,1.25-.37,1.63-.67,.95,.83,2.62,.85,3.6,.05,.98,.8,2.65,.78,3.6-.05,.39,.3,.94,.59,1.66,.67,.02,0,.05,0,.07,0,0,.22,0,.45-.01,.67-.06,.72-.2,1.44-.41,2.14Z"/></g></svg>