<?xml version="1.0" encoding="UTF-8"?><svg fill="currentColor" xmlns="http://www.w3.org/2000/svg" viewBox="0 0 24 24"><g id="i"><g><path d="M12,15.2c1.77,0,3.2-1.44,3.2-3.2s-1.44-3.2-3.2-3.2-3.2,1.44-3.2,3.2,1.44,3.2,3.2,3.2Zm0-4.91c.94,0,1.7,.76,1.7,1.7s-.76,1.7-1.7,1.7-1.7-.76-1.7-1.7,.76-1.7,1.7-1.7Z"/><path d="M20.01,17.55c1.09-1.58,1.74-3.49,1.74-5.55,0-5.38-4.37-9.75-9.75-9.75S2.25,6.62,2.25,12c0,1.93,.57,3.72,1.54,5.23,.04,.16,.14,.3,.27,.4,1.77,2.49,4.67,4.12,7.94,4.12s6.2-1.64,7.96-4.15c.02-.02,.03-.04,.04-.06ZM12,3.75c4.55,0,8.25,3.7,8.25,8.25,0,1.66-.5,3.21-1.35,4.51-.26,.08-.5,.18-.69,.33l-.09,.07c-.3,.23-1.18,.23-1.48,0l-.22-.17c-.73-.56-2.11-.65-3.01-.18l-1.11,.57c-.4,.21-1.16,.15-1.41-.04l-.22-.17c-.83-.64-2.47-.64-3.31,0-.3,.23-1.18,.23-1.48,0l-.22-.17c-.17-.13-.39-.23-.62-.31-.82-1.28-1.3-2.8-1.3-4.43C3.75,7.45,7.45,3.75,12,3.75Zm-4.99,14.8c.49-.05,.95-.2,1.28-.46,.3-.23,1.18-.23,1.48,0l.22,.17c.41,.32,1.03,.48,1.66,.48,.48,0,.96-.1,1.35-.3l1.11-.57c.4-.21,1.16-.15,1.41,.04l.22,.17c.33,.25,.78,.4,1.26,.46-1.39,1.06-3.12,1.7-4.99,1.7s-3.61-.64-4.99-1.7Z"/><path d="M5.43,13.48l1.05,1.25c.15,.18,.36,.27,.57,.27,.17,0,.34-.06,.48-.18,.32-.27,.36-.74,.09-1.06l-1.05-1.25c-.27-.32-.74-.36-1.06-.09-.32,.27-.36,.74-.09,1.06Z"/><path d="M16.19,12.89c-.32,.27-.36,.74-.09,1.06l1.05,1.25c.15,.18,.36,.27,.57,.27,.17,0,.34-.06,.48-.18,.32-.27,.36-.74,.09-1.06l-1.05-1.25c-.27-.32-.74-.36-1.06-.09Z"/><path d="M15.9,10.12c.11,.06,.23,.08,.34,.08,.27,0,.53-.15,.67-.4l.75-1.45c.19-.37,.05-.82-.32-1.01-.37-.19-.82-.05-1.01,.32l-.75,1.45c-.19,.37-.05,.82,.32,1.01Z"/><path d="M7.09,9.8c.13,.26,.4,.4,.67,.4,.12,0,.23-.03,.34-.08,.37-.19,.51-.64,.32-1.01l-.75-1.45c-.19-.37-.64-.51-1.01-.32-.37,.19-.51,.64-.32,1.01l.75,1.45Z"/><path d="M11.16,7.15c.11,.06,.23,.08,.34,.08,.27,0,.53-.15,.67-.4l.75-1.45c.19-.37,.05-.82-.32-1.01-.37-.19-.82-.05-1.01,.32l-.75,1.45c-.19,.37-.05,.82,.32,1.01Z"/></g></g></svg>