<?xml version="1.0" encoding="UTF-8"?><svg fill="currentColor" xmlns="http://www.w3.org/2000/svg" viewBox="0 0 24 24"><g id="g"><g><path d="M21.65,14.75l-.71-3.81c-.79-4.23-4.55-7.3-8.94-7.3S3.85,6.71,3.06,10.93l-.71,3.81c-.32,1.71,.14,3.46,1.26,4.81,1.16,1.39,2.87,2.19,4.7,2.19h7.38c1.83,0,3.54-.8,4.7-2.19,1.12-1.35,1.58-3.1,1.26-4.81Zm-2.42,3.86c-.87,1.05-2.16,1.65-3.54,1.65h-7.38c-1.38,0-2.67-.6-3.54-1.65-.83-1-1.18-2.31-.94-3.58l.71-3.81c.66-3.52,3.79-6.08,7.47-6.08s6.81,2.55,7.47,6.08l.71,3.81c.24,1.27-.11,2.58-.94,3.58Z"/><path d="M12,7.25c-.41,0-.75,.34-.75,.75v2c0,.41,.34,.75,.75,.75s.75-.34,.75-.75v-2c0-.41-.34-.75-.75-.75Z"/><path d="M15.39,7.43c-.23-.34-.69-.44-1.04-.21-.34,.23-.44,.7-.21,1.04l1.38,2.08c.14,.22,.38,.33,.63,.33,.14,0,.29-.04,.42-.13,.34-.23,.44-.7,.21-1.04l-1.38-2.08Z"/><path d="M8.61,7.43l-1.38,2.08c-.23,.34-.14,.81,.21,1.04,.13,.08,.27,.13,.42,.13,.24,0,.48-.12,.63-.33l1.38-2.08c.23-.34,.14-.81-.21-1.04s-.81-.14-1.04,.21Z"/></g></g></svg>