<?xml version="1.0" encoding="UTF-8"?><svg fill="currentColor" xmlns="http://www.w3.org/2000/svg" viewBox="0 0 24 24"><g id="l"><g><path d="M19.34,8.86s-.05-.05-.08-.07c0-.02,.02-.03,.02-.05l.38-2.21c.08-.47-.04-.97-.33-1.35-.29-.38-.73-.63-1.21-.69l-1.53-.17c-.27-.62-.89-1.06-1.61-1.06h-1.43c-.28-.59-.88-1-1.57-1h-1c-.7,0-1.29,.41-1.57,1h-1.43c-.73,0-1.36,.45-1.62,1.09l-1.5,.25c-.48,.08-.91,.36-1.18,.77-.27,.41-.35,.92-.23,1.39l.48,1.83c-.11,.08-.21,.17-.3,.27-.31,.36-.46,.84-.39,1.31l1.22,8.38c.27,1.83,1.86,3.21,3.71,3.21h6.59c1.85,0,3.44-1.38,3.71-3.21l1.23-8.37h0c.07-.47-.08-.95-.39-1.31Zm-1.2-2.79s.06,.1,.05,.19l-.34,1.99h-1.09v-2.41l1.22,.14c.09,.01,.15,.07,.17,.1Zm-2.89-1.07v3.81c-.35,.72-.88,1.31-1.5,1.73V4.75h1.25c.14,0,.25,.11,.25,.25Zm-4.25-1.25h1c.14,0,.25,.11,.25,.25v7c0,.06,.02,.12,.04,.18-.39,.08-.8,.11-1.21,.07-.12-.01-.24-.04-.36-.06,.02-.06,.04-.12,.04-.19V4c0-.14,.11-.25,.25-.25Zm-3,1h1.25v5.83c-.63-.43-1.16-1.03-1.5-1.76v-3.82c0-.14,.11-.25,.25-.25Zm-3.04,1.43s.07-.09,.17-.11l1.12-.19v2.37h-.83l-.49-1.87c-.02-.09,0-.16,.03-.2Zm12.06,12.14c-.16,1.1-1.12,1.92-2.23,1.92h-6.59c-1.11,0-2.07-.83-2.23-1.92l-1.22-8.37s0-.06,.04-.11c0,0,.03-.02,.05-.04h.01c.06,0,.13,0,.19-.02,.02,0,.04-.02,.07-.03h1.42c.9,1.68,2.54,2.81,4.39,3,2.25,.23,4.42-.96,5.54-3h1.52c.13,0,.2,.06,.23,.09,.04,.05,.04,.09,.04,.11l-1.23,8.37Z"/><path d="M13,17.25h-3c-.41,0-.75,.34-.75,.75s.34,.75,.75,.75h3c.41,0,.75-.34,.75-.75s-.34-.75-.75-.75Z"/></g></g></svg>