<?xml version="1.0" encoding="UTF-8"?><svg fill="currentColor" xmlns="http://www.w3.org/2000/svg" viewBox="0 0 24 24"><g id="t"><g><path d="M21.09,9.33l-.21-.21c-.22-.22-.48-.38-.76-.49,.7-1.24,.54-2.84-.52-3.9l-.35-.35c-1.05-1.05-2.65-1.22-3.89-.52-.11-.28-.28-.53-.5-.75l-.21-.21c-.85-.85-2.33-.85-3.18,0L2.73,11.67c-.88,.88-.88,2.3,0,3.18l.21,.21c.22,.22,.48,.39,.75,.5-.7,1.24-.53,2.83,.52,3.89l.35,.35c.63,.63,1.47,.95,2.3,.95,.55,0,1.1-.15,1.59-.43,.11,.27,.27,.53,.5,.75l.21,.21c.44,.44,1.01,.66,1.59,.66s1.15-.22,1.59-.66l8.76-8.76c.43-.42,.66-.99,.66-1.59s-.23-1.17-.66-1.59ZM3.79,12.73L12.54,3.97c.15-.15,.34-.22,.53-.22s.38,.07,.53,.22l.21,.21c.29,.29,.29,.77,0,1.06L5.06,14c-.29,.29-.77,.29-1.06,0l-.21-.21c-.29-.29-.29-.77,0-1.06Zm1.83,6l-.35-.35c-.68-.68-.68-1.79,0-2.48l.84-.84h0L14.88,6.3h0l.84-.85c.34-.34,.79-.51,1.24-.51s.9,.17,1.24,.51l.35,.35c.68,.68,.68,1.79,0,2.48l-.84,.84h0l-8.76,8.76h0l-.84,.85c-.68,.68-1.79,.68-2.48,0Zm14.41-7.27l-8.76,8.76c-.29,.29-.77,.29-1.06,0l-.21-.21c-.29-.29-.29-.77,0-1.06l8.76-8.76c.15-.15,.34-.22,.53-.22s.38,.07,.53,.22l.21,.21c.29,.29,.29,.77,0,1.06Z"/><path d="M9.67,14.61c.43-.36,.82-.46,1.26-.59,.57-.16,1.22-.34,1.9-1.01s.85-1.32,1.01-1.9c.12-.45,.23-.83,.59-1.26,.55-.67,1.44-1.1,2.65-1.29,.41-.06,.69-.45,.62-.86-.06-.41-.45-.69-.86-.62-1.57,.25-2.77,.86-3.57,1.82-.56,.68-.74,1.31-.88,1.82-.14,.49-.23,.84-.63,1.24s-.75,.49-1.24,.63c-.51,.14-1.14,.32-1.82,.88-.96,.79-1.57,1.99-1.82,3.57-.06,.41,.21,.79,.62,.86,.04,0,.08,0,.12,0,.36,0,.68-.26,.74-.63,.19-1.2,.62-2.09,1.29-2.65Z"/></g></g></svg>