<?xml version="1.0" encoding="UTF-8"?><svg fill="currentColor" xmlns="http://www.w3.org/2000/svg" viewBox="0 0 24 24"><g id="p"><path d="M20.71,4.7c-.67-.47-1.4-.76-2.17-.87-.32-.05-.64-.06-.97-.04-.46-.46-1.35-1.13-2.63-1.13h-.01c-.79,0-1.42,.26-1.84,.51-.56-.15-1.49-.28-2.5,.13-1.09,.44-1.69,1.25-1.98,1.77-1.17,.27-1.96,.91-2.35,1.3-.8,.8-1.15,1.71-1.3,2.35-.52,.29-1.34,.89-1.78,1.98-.4,1.01-.28,1.93-.13,2.5-.25,.42-.51,1.06-.51,1.86,0,1.28,.67,2.17,1.13,2.63-.02,.32,0,.65,.04,.97,.12,.81,.43,1.57,.95,2.27,.44,.6,1.14,.93,1.86,.93,.36,0,.73-.08,1.08-.26l1.26-.63h0c2.7-1.12,5.11-2.73,7.17-4.8s3.68-4.48,4.79-7.17h0l.63-1.26c.53-1.06,.21-2.33-.77-3.01ZM5.89,20.02c-.36-.5-.59-1.03-.67-1.59-.04-.31-.04-.63,0-.95,.04-.26-.07-.53-.28-.69-.15-.12-.88-.75-.88-1.74,0-.61,.27-1.08,.44-1.3,.15-.21,.19-.48,.09-.72-.11-.27-.32-.98,0-1.77,.35-.88,1.11-1.24,1.33-1.33,.25-.1,.42-.32,.46-.59,.06-.42,.26-1.21,.95-1.9,.3-.3,.94-.81,1.9-.95,.27-.04,.49-.21,.59-.46,.09-.22,.45-.98,1.33-1.33,.79-.32,1.51-.11,1.77,0,.24,.1,.51,.06,.72-.09,.22-.16,.68-.44,1.29-.44h0c.99,0,1.63,.73,1.74,.88,.17,.21,.43,.31,.69,.28,.32-.04,.64-.04,.95,0,.53,.08,1.04,.28,1.52,.62,.36,.26,.49,.72,.29,1.11l-.24,.47c-3.54-2.32-8.26-1.88-11.31,1.18-3.05,3.05-3.49,7.77-1.18,11.31l-.47,.24c-.38,.19-.83,.09-1.06-.22Zm9.11-4.93c-1.8,1.8-3.89,3.23-6.2,4.26-2.02-2.94-1.69-7.05,.87-9.6,1.44-1.44,3.39-2.18,5.33-2.18,1.5,0,2.99,.43,4.27,1.31-1.03,2.32-2.46,4.4-4.26,6.2Z"/></g></svg>