<?xml version="1.0" encoding="UTF-8"?><svg fill="currentColor" xmlns="http://www.w3.org/2000/svg" viewBox="0 0 24 24"><g id="k"><path d="M20.92,12.04l-4.99-7.62c-.89-1.35-2.36-2.16-3.93-2.16s-3.05,.81-3.93,2.16L3.08,12.04c-1.02,1.56-1.1,3.55-.21,5.2,.85,1.58,2.4,2.52,4.15,2.52h.35c.33,1.15,1.38,2,2.63,2h4c1.25,0,2.3-.85,2.63-2h.35c1.74,0,3.29-.94,4.15-2.52,.89-1.65,.81-3.64-.21-5.2Zm-5.67,6.96c0,.69-.56,1.25-1.25,1.25h-4c-.69,0-1.25-.56-1.25-1.25v-5c0-.69,.56-1.25,1.25-1.25h4c.69,0,1.25,.56,1.25,1.25v5Zm4.56-2.48c-.59,1.08-1.64,1.73-2.83,1.73h-.24v-4.25c0-1.52-1.23-2.75-2.75-2.75h-4c-1.52,0-2.75,1.23-2.75,2.75v4.25h-.24c-1.18,0-2.24-.65-2.83-1.73-.63-1.16-.57-2.56,.15-3.66l4.99-7.62c.62-.94,1.59-1.48,2.68-1.48s2.06,.54,2.68,1.48l4.99,7.62c.72,1.1,.77,2.5,.15,3.66Z"/></g></svg>