<?xml version="1.0" encoding="UTF-8"?><svg fill="currentColor" xmlns="http://www.w3.org/2000/svg" viewBox="0 0 24 24"><g id="m"><g><path d="M21.73,13.92s.02-.06,.01-.1c-.27-4.81-4.55-8.57-9.75-8.57S2.52,9.01,2.25,13.82c0,.03,.01,.06,.01,.1-.01,.12,0,.25,.04,.37l.9,2.16c.59,1.4,1.94,2.3,3.46,2.3h10.66c1.52,0,2.87-.9,3.46-2.3l.9-2.16c.05-.12,.06-.25,.04-.37ZM12,6.75c4.2,0,7.68,2.86,8.19,6.61-1.1,.47-2.2,.66-3.26,.53-.98-.12-1.57-.45-2.19-.8-.73-.41-1.49-.84-2.75-.84s-2.01,.43-2.75,.84c-.62,.35-1.21,.68-2.19,.8-1.06,.13-2.15-.06-3.26-.53,.51-3.75,3.99-6.61,8.19-6.61Zm5.33,10.5H6.67c-.91,0-1.72-.54-2.08-1.38l-.31-.75c1,.29,1.99,.38,2.96,.26,1.28-.15,2.06-.59,2.75-.98,.64-.36,1.15-.65,2.01-.65s1.37,.29,2.01,.65c.69,.39,1.47,.83,2.75,.98,.28,.03,.57,.05,.85,.05,.7,0,1.41-.11,2.11-.32l-.31,.75c-.35,.84-1.17,1.38-2.08,1.38Z"/><path d="M12,10.68c.41,0,.75-.34,.75-.75v-.98c0-.41-.34-.75-.75-.75s-.75,.34-.75,.75v.98c0,.41,.34,.75,.75,.75Z"/><path d="M14.5,10.06c.15,.15,.34,.22,.53,.22s.38-.07,.53-.22c.29-.29,.29-.77,0-1.06l-.58-.58c-.29-.29-.77-.29-1.06,0-.29,.29-.29,.77,0,1.06l.58,.58Z"/><path d="M8.97,10.28c.19,0,.38-.07,.53-.22l.58-.58c.29-.29,.29-.77,0-1.06-.29-.29-.77-.29-1.06,0l-.58,.58c-.29,.29-.29,.77,0,1.06,.15,.15,.34,.22,.53,.22Z"/></g></g></svg>