<?xml version="1.0" encoding="UTF-8"?><svg fill="currentColor" xmlns="http://www.w3.org/2000/svg" viewBox="0 0 24 24"><g id="f"><path d="M21.27,14.83c-.23-.36-.62-.58-1.05-.58h-.54l-.5-4.98c-.11-1.15-1.13-2.02-2.37-2.02h-1.08c-.06-1.67-1.22-3-2.65-3h-2.17c-1.43,0-2.59,1.33-2.65,3h-1.08c-1.23,0-2.25,.87-2.37,2.02l-.5,4.98h-.54c-.43,0-.82,.21-1.05,.58-.23,.36-.26,.81-.08,1.2l.49,1.06c.47,1.01,1.46,1.67,2.52,1.67h12.68c1.06,0,2.06-.66,2.52-1.67l.49-1.06c.18-.39,.15-.84-.08-1.2ZM10.91,5.75h2.17c.6,0,1.1,.67,1.15,1.5h-4.48c.05-.83,.56-1.5,1.15-1.5Zm-4.6,3.67c.04-.38,.42-.67,.87-.67h9.63c.45,0,.84,.29,.87,.67l.48,4.83H5.83l.48-4.83Zm13.19,7.03c-.23,.49-.67,.8-1.16,.8H5.66c-.49,0-.93-.31-1.16-.8l-.32-.7h15.66l-.32,.7Z"/></g></svg>