<?xml version="1.0" encoding="UTF-8"?><svg fill="currentColor" xmlns="http://www.w3.org/2000/svg" viewBox="0 0 24 24"><g id="c"><g><path d="M21.75,12s-.01-.06-.02-.09c-.17-3.22-1.75-5.66-3.73-5.66H7c-2.62,0-4.75,2.8-4.75,6.25s2.13,6.25,4.75,6.25h11c2.1,0,3.75-2.75,3.75-6.25,0-.15,0-.29-.01-.44,0-.02,.01-.04,.01-.06Zm-1.59-.71l-.41,.02c0-1.18-1.01-2.14-2.25-2.14s-2.25,.96-2.25,2.14v2.08c0,.35-.34,.64-.75,.64s-.75-.29-.75-.64v-.69c0-.8-.67-1.44-1.5-1.44h-.6c-.22-1.39-.78-2.61-1.58-3.5h7.92c.9,0,1.88,1.41,2.16,3.54ZM3.75,12.5c0-2.62,1.46-4.75,3.25-4.75s3.25,2.13,3.25,4.75-1.46,4.75-3.25,4.75-3.25-2.13-3.25-4.75Zm14.25,4.75h-7.92c.98-1.1,1.61-2.72,1.66-4.53l.51-.02v.69c0,1.18,1.01,2.14,2.25,2.14s2.25-.96,2.25-2.14v-2.08c0-.35,.34-.64,.75-.64s.75,.29,.75,.64c0,.8,.67,1.44,1.5,1.44h.49c-.07,2.66-1.21,4.5-2.24,4.5Z"/><path d="M8.82,14.2c.33-1-.13-2.11-1.07-2.58l-.32-.16c-.37-.18-.82-.03-1.01,.34-.19,.37-.03,.82,.34,1.01l.31,.16c.28,.14,.42,.47,.32,.76-.09,.26-.33,.43-.6,.43s-.54-.2-.61-.48l-.13-.52c-.14-.56-.04-1.16,.29-1.65l.69-1.04c.23-.34,.14-.81-.21-1.04-.35-.23-.81-.14-1.04,.21l-.69,1.04c-.56,.83-.74,1.87-.49,2.84l.13,.52c.24,.95,1.09,1.61,2.07,1.61,.92,0,1.73-.59,2.02-1.46Z"/></g></g></svg>