<?xml version="1.0" encoding="UTF-8"?><svg fill="currentColor" xmlns="http://www.w3.org/2000/svg" viewBox="0 0 24 24"><g id="e"><path d="M21.04,9.52c-1.39-1.59-4.43-4.27-9.1-4.27S4.23,7.93,2.83,9.52c-.81,.93-.77,2.33,.11,3.2h0c.31,.31,.65,.51,.96,.65-.18,.44-.28,.92-.28,1.42,0,1.64,1.33,2.97,2.97,2.97h10.69c1.64,0,2.97-1.33,2.97-2.97,0-.5-.11-.98-.29-1.43,.45-.2,.8-.47,1.01-.68,.85-.87,.87-2.22,.06-3.15Zm-7.46-2.63c-.1,.32-.21,.63-.31,.97-.75,2.69-.99,5.51-.77,8.39h-2.62c-.23-2.75,0-5.43,.71-7.98,.13-.46,.27-.91,.42-1.33,.01-.04,0-.08,.02-.12,.3-.03,.59-.06,.9-.06,.58,0,1.12,.06,1.65,.14ZM3.96,10.51c.95-1.09,2.77-2.73,5.44-3.42-.08,.26-.17,.51-.24,.78-.24,.85-.41,1.71-.55,2.58-.88,.19-1.74,.44-2.56,.78-.5,.2-.93,.5-1.29,.86-.22-.06-.5-.18-.75-.43h0c-.31-.31-.32-.81-.03-1.15Zm1.16,4.27c0-.96,.58-1.81,1.48-2.17,.58-.24,1.18-.42,1.8-.58-.13,1.38-.12,2.79-.01,4.22h-1.79c-.81,0-1.47-.66-1.47-1.47Zm12.16,1.47h-3.27c-.13-1.53-.11-3.04,.06-4.51,1.1,.17,2.18,.46,3.21,.88,.89,.36,1.47,1.21,1.47,2.17,0,.81-.66,1.47-1.47,1.47Zm2.59-4.6c-.1,.1-.37,.31-.76,.42-.36-.36-.78-.65-1.27-.85-1.15-.47-2.35-.79-3.57-.98,.12-.67,.27-1.33,.45-1.98,.1-.35,.21-.68,.32-1.01,2.35,.77,3.99,2.25,4.87,3.26,.29,.33,.29,.81-.04,1.14Z"/></g></svg>