<?xml version="1.0" encoding="UTF-8"?><svg fill="currentColor" xmlns="http://www.w3.org/2000/svg" viewBox="0 0 24 24"><g id="j"><path d="M21.01,14.22s.01-.02,.01-.03l.69-2.67s.02-.07,.02-.1c.04-.37,.1-1.64-.92-2.62-.23-.22-.49-.41-.78-.55-.18-.09-.24-.29-.25-.45-.01-.92-.41-1.78-1.08-2.37-.78-.67-1.88-.94-2.94-.71-.4,.08-.84-.06-1.15-.38-.68-.69-1.64-1.09-2.63-1.09s-1.94,.4-2.63,1.09c-.32,.32-.76,.47-1.15,.38-1.07-.23-2.17,.04-2.94,.71-.68,.58-1.07,1.45-1.08,2.37,0,.16-.07,.36-.25,.45-.29,.15-.55,.33-.78,.55-1.02,.99-.96,2.26-.92,2.63,0,.04,.01,.07,.02,.1l.69,2.67s.02,.03,.02,.04c-.23,.4-.43,.83-.6,1.27-.2,.53-.18,1.11,.05,1.62,.25,.54,.7,.95,1.27,1.16,2.61,.96,5.48,1.47,8.3,1.47s5.65-.5,8.3-1.47c.57-.21,1.03-.62,1.27-1.16,.24-.51,.25-1.09,.05-1.62-.17-.45-.37-.87-.61-1.28ZM3.71,11.2c-.02-.21-.02-.85,.47-1.33,.12-.11,.25-.21,.41-.29,.65-.33,1.07-1,1.08-1.77,0-.49,.21-.95,.56-1.25,.42-.36,1.04-.5,1.65-.38,.89,.19,1.86-.11,2.53-.8,.81-.82,2.31-.82,3.12,0,.67,.68,1.64,.99,2.53,.8,.61-.13,1.23,.01,1.65,.38,.35,.3,.56,.76,.56,1.25,.01,.76,.42,1.44,1.07,1.77,.15,.08,.29,.17,.41,.29,.49,.48,.49,1.12,.47,1.33l-.38,1.45c-1.1-1.22-2.52-2.17-4.13-2.75-.05-2.02-1.7-3.66-3.74-3.66s-3.68,1.63-3.74,3.65c-1.63,.58-3.06,1.54-4.17,2.77l-.38-1.47Zm10.47-1.73c-.71-.14-1.44-.22-2.19-.22s-1.46,.08-2.17,.22c.24-.98,1.12-1.72,2.18-1.72s1.94,.74,2.18,1.72Zm6.01,7.02c-.08,.17-.23,.3-.43,.37-2.49,.92-5.11,1.38-7.78,1.38s-5.33-.48-7.78-1.38h0c-.2-.07-.35-.21-.43-.38-.05-.1-.09-.27-.02-.47,1.19-3.16,4.49-5.28,8.22-5.28s7.03,2.12,8.22,5.28c.08,.2,.03,.37-.01,.47Z"/></g></svg>