<?xml version="1.0" encoding="UTF-8"?><svg fill="currentColor" xmlns="http://www.w3.org/2000/svg" viewBox="0 0 24 24"><g id="h"><path d="M20.53,16.26c-.2-.28-.52-.46-.87-.5,.05-.27,.08-.55,.08-.84,0-2.39-1.79-4.34-4.08-4.62,.05-.24,.08-.49,.08-.74,0-2.38-2.13-4.32-4.75-4.32-.51,0-1,.09-1.46,.23h0l-2.13-2.14c.15-.28,.11-.64-.12-.87-.29-.29-.77-.29-1.06,0l-.75,.75c-.29,.29-.29,.77,0,1.06,.15,.15,.34,.22,.53,.22,.12,0,.24-.04,.34-.1l1.76,1.76c-1.12,.79-1.86,2.01-1.86,3.4,0,.33,.05,.66,.13,.98-1.82,.66-3.13,2.36-3.13,4.38,0,.28,.04,.56,.09,.84-.35,.04-.67,.21-.87,.5-.22,.31-.28,.71-.15,1.07l.35,.99c.72,2.05,2.72,3.42,4.98,3.42h7.72c2.26,0,4.26-1.38,4.98-3.42l.35-.99c.13-.36,.07-.76-.15-1.07Zm-2.28-1.33c0,.28-.05,.55-.12,.82h-5.47c.05-.27,.09-.54,.09-.82,0-.61-.13-1.2-.35-1.73,.07-.05,.14-.1,.2-.18,.6-.81,1.51-1.27,2.51-1.27,1.73,0,3.14,1.43,3.14,3.18ZM7.75,9.57c0-1.56,1.46-2.82,3.25-2.82s3.25,1.27,3.25,2.82c0,.27-.06,.53-.15,.79-.98,.22-1.85,.75-2.52,1.53-.87-1-2.15-1.65-3.59-1.65-.05,0-.09,.01-.14,.01-.07-.23-.11-.46-.11-.69Zm.25,2.18c1.79,0,3.25,1.43,3.25,3.18,0,.28-.05,.55-.12,.82H4.87c-.07-.27-.12-.54-.12-.82,0-1.75,1.46-3.18,3.25-3.18Zm10.92,6.08c-.51,1.45-1.94,2.42-3.56,2.42H7.64c-1.62,0-3.05-.97-3.56-2.42l-.2-.58h15.25l-.2,.58Z"/></g></svg>