<?xml version="1.0" encoding="UTF-8"?><svg fill="currentColor" xmlns="http://www.w3.org/2000/svg" viewBox="0 0 24 24"><g id="n"><g><path d="M12,4.75c.41,0,.75-.34,.75-.75v-1c0-.41-.34-.75-.75-.75s-.75,.34-.75,.75v1c0,.41,.34,.75,.75,.75Z"/><path d="M16,4.75c.41,0,.75-.34,.75-.75v-1c0-.41-.34-.75-.75-.75s-.75,.34-.75,.75v1c0,.41,.34,.75,.75,.75Z"/><path d="M8,4.75c.41,0,.75-.34,.75-.75v-1c0-.41-.34-.75-.75-.75s-.75,.34-.75,.75v1c0,.41,.34,.75,.75,.75Z"/><path d="M21,19.25h-.25v-2.25c0-1.25-.85-2.3-2-2.63v-2.37c0-1.25-.85-2.3-2-2.63v-2.37c0-.41-.34-.75-.75-.75s-.75,.34-.75,.75v2.25h-2.5v-2.25c0-.41-.34-.75-.75-.75s-.75,.34-.75,.75v2.25h-2.5v-2.25c0-.41-.34-.75-.75-.75s-.75,.34-.75,.75v2.37c-.45,.13-.86,.35-1.19,.69-.52,.52-.81,1.21-.81,1.94v2.37c-1.15,.33-2,1.38-2,2.63v2.25h-.25c-.41,0-.75,.34-.75,.75s.34,.75,.75,.75H21c.41,0,.75-.34,.75-.75s-.34-.75-.75-.75ZM7.12,11.11c.24-.24,.55-.36,.88-.37h8c.69,0,1.25,.56,1.25,1.25v2.25H6.75v-2.25c0-.33,.13-.65,.37-.88Zm-2.37,5.89c0-.69,.56-1.25,1.25-1.25h12c.69,0,1.25,.56,1.25,1.25v2.25H4.75v-2.25Z"/></g></g></svg>