<?xml version="1.0" encoding="UTF-8"?><svg fill="currentColor" xmlns="http://www.w3.org/2000/svg" viewBox="0 0 24 24"><g id="d"><path d="M12.41,2.26c-2.02-.1-3.97,.59-5.49,1.96-1.59,1.44-2.53,3.42-2.63,5.6-.03,.64-.04,1.29-.02,1.94,.04,1.23,.17,2.46,.39,3.66,.44,2.4,1.85,4.58,3.87,5.97l.05,.04c.3,.21,.66,.32,1.01,.32,.28,0,.55-.07,.81-.2,.6-.31,.97-.93,.97-1.62v-1.7c0-.22,.12-.41,.3-.52,.11,.02,.23,.04,.35,.04s.23-.02,.35-.04c.18,.11,.3,.3,.3,.52v1.63c0,.7,.38,1.34,.99,1.66,.59,.31,1.3,.26,1.84-.12,2.01-1.4,3.42-3.57,3.86-5.97,.22-1.21,.36-2.44,.39-3.66,.01-.49,.01-.97,0-1.44-.12-4.3-3.34-7.84-7.33-8.06Zm-1.66,12.24c0-.95,.57-1.75,1.25-1.75s1.25,.8,1.25,1.75c0,.74-.35,1.39-.83,1.64-.14-.03-.28-.04-.42-.04s-.28,.02-.42,.04c-.48-.25-.83-.89-.83-1.64Zm7.49-2.79c-.04,1.14-.16,2.3-.37,3.43-.37,2.01-1.56,3.84-3.25,5.01-.12,.08-.22,.06-.29,.02-.06-.03-.18-.12-.18-.33v-1.63c0-.46-.15-.89-.4-1.24,.61-.6,1.01-1.49,1.01-2.49,0-1.48-.85-2.72-2-3.11v-3.39c0-.41-.34-.75-.75-.75s-.75,.34-.75,.75v3.39c-1.15,.39-2,1.63-2,3.11,0,1.01,.4,1.9,1.01,2.49-.25,.35-.4,.78-.4,1.24v1.7c0,.18-.11,.26-.16,.29-.09,.05-.18,.04-.26-.02l-.05-.04h0c-1.69-1.17-2.87-3-3.25-5.02-.21-1.13-.33-2.28-.37-3.43-.02-.61-.01-1.22,.02-1.82,.09-1.77,.85-3.39,2.14-4.56,1.14-1.03,2.58-1.59,4.08-1.59,.11,0,.22,0,.33,0,3.21,.17,5.81,3.07,5.91,6.6,.01,.44,.01,.89,0,1.35Z"/></g></svg>