<?xml version="1.0" encoding="UTF-8"?><svg fill="currentColor" xmlns="http://www.w3.org/2000/svg" viewBox="0 0 24 24"><g id="r"><g><path d="M21.64,13.69c-.77-5.9-5.43-10.56-11.33-11.33-1.28-.16-2.49,.62-2.91,1.86L3.32,16.46c-.55,1.66-.36,3.12,.54,4.02,.46,.47,1.07,.71,1.71,.71,.28,0,.57-.05,.85-.14l12.28-4.09c2.65-.88,3.06-2.26,2.93-3.26Zm-15.69,5.93c-.4,.13-.77,.06-1.03-.21-.47-.47-.54-1.4-.17-2.48l3.31-9.92c4.49,.96,7.97,4.44,8.93,8.93l-11.03,3.68Zm14.2-5.74c.08,.61-.51,1.14-1.74,1.58-1.12-4.93-4.95-8.76-9.89-9.88l.3-.89c.17-.52,.64-.86,1.15-.86,.05,0,.1,0,.14,0,5.23,.68,9.36,4.81,10.04,10.04h0Z"/><path d="M8.02,15.25h0c-.41,0-.75,.34-.75,.75s.34,.75,.75,.75,.75-.34,.75-.75-.33-.75-.75-.75Z"/><path d="M9.02,11.25h0c-.41,0-.75,.34-.75,.75s.34,.75,.75,.75,.75-.34,.75-.75-.33-.75-.75-.75Z"/><path d="M13.02,14.25h0c-.41,0-.75,.34-.75,.75s.34,.75,.75,.75,.75-.34,.75-.75-.33-.75-.75-.75Z"/></g></g></svg>