<?xml version="1.0" encoding="UTF-8"?><svg fill="currentColor" xmlns="http://www.w3.org/2000/svg" viewBox="0 0 24 24"><g id="f"><path d="M20.75,13.3v-5.3c0-2.07-1.68-3.75-3.75-3.75H7c-2.07,0-3.75,1.68-3.75,3.75v5.3c-.57,.12-1,.6-1,1.2v3c0,.6,.43,1.08,1,1.2v.3c0,.41,.34,.75,.75,.75s.75-.34,.75-.75v-.25h14.5v.25c0,.41,.34,.75,.75,.75s.75-.34,.75-.75v-.3c.57-.12,1-.6,1-1.2v-3c0-.6-.43-1.08-1-1.2ZM3.75,17.25v-2.5H20.25v2.5H3.75Zm10.5-4h-4.5v-1.25c0-.14,.11-.25,.25-.25h4c.14,0,.25,.11,.25,.25v1.25ZM4.75,8c0-1.24,1.01-2.25,2.25-2.25h10c1.24,0,2.25,1.01,2.25,2.25v5.25h-3.5v-1.25c0-.96-.79-1.75-1.75-1.75h-4c-.96,0-1.75,.79-1.75,1.75v1.25h-3.5v-5.25Z"/></g></svg>