<?xml version="1.0" encoding="UTF-8"?><svg fill="currentColor" xmlns="http://www.w3.org/2000/svg" viewBox="0 0 24 24"><g id="u"><path d="M20,4.25H4c-.96,0-1.75,.79-1.75,1.75v2c0,.96,.79,1.75,1.75,1.75h.74l6.05,4.75-6.25,4.91c-.33,.26-.38,.73-.13,1.05,.15,.19,.37,.29,.59,.29,.16,0,.33-.05,.46-.16l6.54-5.14,6.54,5.14c.14,.11,.3,.16,.46,.16,.22,0,.44-.1,.59-.29,.26-.33,.2-.8-.13-1.05l-6.25-4.91,6.05-4.75h.74c.96,0,1.75-.79,1.75-1.75v-2c0-.96-.79-1.75-1.75-1.75ZM12,13.55l-4.83-3.8h9.66l-4.83,3.8Zm8.25-5.55c0,.14-.11,.25-.25,.25H4c-.14,0-.25-.11-.25-.25v-2c0-.14,.11-.25,.25-.25H20c.14,0,.25,.11,.25,.25v2Z"/></g></svg>