<?xml version="1.0" encoding="UTF-8"?><svg fill="currentColor" xmlns="http://www.w3.org/2000/svg" viewBox="0 0 24 24"><g id="p"><g><path d="M20,2.25H4c-.96,0-1.75,.79-1.75,1.75v15c0,.96,.79,1.75,1.75,1.75h.25v.25c0,.41,.34,.75,.75,.75s.75-.34,.75-.75v-.25h12.5v.25c0,.41,.34,.75,.75,.75s.75-.34,.75-.75v-.25h.25c.96,0,1.75-.79,1.75-1.75V4c0-.96-.79-1.75-1.75-1.75Zm.25,1.75v4.25h-7.5V3.75h7.25c.14,0,.25,.11,.25,.25Zm-16.25-.25h7.25v4.5H3.75V4c0-.14,.11-.25,.25-.25Zm-.25,15.25V9.75h7.5v9.5H4c-.14,0-.25-.11-.25-.25Zm16.25,.25h-7.25V9.75h7.5v9.25c0,.14-.11,.25-.25,.25Z"/><path d="M14.02,7.75c.41,0,.75-.34,.75-.75s-.34-.75-.75-.75h-.01c-.41,0-.74,.34-.74,.75s.34,.75,.75,.75Z"/><path d="M10.02,7.75c.41,0,.75-.34,.75-.75s-.34-.75-.75-.75h-.01c-.41,0-.74,.34-.74,.75s.34,.75,.75,.75Z"/><path d="M10.02,11.75c.41,0,.75-.34,.75-.75s-.34-.75-.75-.75h-.01c-.41,0-.74,.34-.74,.75s.34,.75,.75,.75Z"/><path d="M14.02,10.25h-.01c-.41,0-.74,.34-.74,.75s.34,.75,.75,.75,.75-.34,.75-.75-.34-.75-.75-.75Z"/></g></g></svg>