<?xml version="1.0" encoding="UTF-8"?><svg fill="currentColor" xmlns="http://www.w3.org/2000/svg" viewBox="0 0 24 24"><g id="r"><path d="M21.71,13.76l-.77-2.32c-.24-.72-.91-1.2-1.66-1.2h-2.56c-.75,0-1.42,.48-1.66,1.2l-.77,2.32c-.08,.23-.04,.48,.1,.68s.37,.31,.61,.31h2.79l-.72,1.44c-.33,.65-.98,1.06-1.71,1.06h-.43c-.82,0-1.55-.53-1.82-1.31l-.35-1.06V5.75h2.25c.41,0,.75-.34,.75-.75s-.34-.75-.75-.75h-6c-.41,0-.75,.34-.75,.75s.34,.75,.75,.75h2.25V14.88l-.35,1.06c-.26,.78-.99,1.31-1.82,1.31-.88,0-1.64-.6-1.86-1.45l-.26-1.05h2.04c.24,0,.47-.12,.61-.31s.18-.45,.1-.68l-.77-2.32c-.24-.72-.91-1.2-1.66-1.2h-2.56c-.75,0-1.42,.48-1.66,1.2l-.77,2.32c-.08,.23-.04,.48,.1,.68s.37,.31,.61,.31h2.41l.35,1.41c.38,1.52,1.74,2.59,3.31,2.59,1.21,0,2.31-.64,2.92-1.64,.61,1.01,1.71,1.64,2.92,1.64h.43c1.3,0,2.47-.72,3.05-1.89l1.06-2.11h1.54c.24,0,.47-.12,.61-.31s.18-.45,.1-.68Zm-17.23-1.84c.03-.1,.13-.17,.24-.17h2.56c.11,0,.2,.07,.24,.17l.44,1.33h-3.92l.44-1.33Zm11.56,1.33l.44-1.33c.03-.1,.13-.17,.24-.17h2.56c.11,0,.2,.07,.24,.17l.44,1.33h-3.92Z"/></g></svg>