<?xml version="1.0" encoding="UTF-8"?><svg fill="currentColor" xmlns="http://www.w3.org/2000/svg" viewBox="0 0 24 24"><g id="n"><g><path d="M16.75,13.43V7.5c0-2.9-2.36-5.25-5.25-5.25s-5.25,2.35-5.25,5.25v5.93c-.59,.28-1,.88-1,1.57v6c0,.41,.34,.75,.75,.75s.75-.34,.75-.75v-3.25h9.5v3.25c0,.41,.34,.75,.75,.75s.75-.34,.75-.75v-6c0-.7-.41-1.29-1-1.57ZM7.75,7.5c0-2.07,1.68-3.75,3.75-3.75s3.75,1.68,3.75,3.75v5.75H7.75V7.5Zm-1,7.5c0-.14,.11-.25,.25-.25h9c.14,0,.25,.11,.25,.25v1.25H6.75v-1.25Z"/><path d="M10.02,6.25h-.01c-.41,0-.74,.34-.74,.75s.34,.75,.75,.75,.75-.34,.75-.75-.34-.75-.75-.75Z"/><path d="M13.02,6.25h0c-.41,0-.74,.34-.74,.75s.34,.75,.75,.75,.75-.34,.75-.75-.33-.75-.75-.75Z"/><path d="M13.02,9.25h0c-.41,0-.74,.34-.74,.75s.34,.75,.75,.75,.75-.34,.75-.75-.33-.75-.75-.75Z"/><path d="M10.02,9.25h-.01c-.41,0-.74,.34-.74,.75s.34,.75,.75,.75,.75-.34,.75-.75-.34-.75-.75-.75Z"/></g></g></svg>