<?xml version="1.0" encoding="UTF-8"?><svg fill="currentColor" xmlns="http://www.w3.org/2000/svg" viewBox="0 0 24 24"><g id="e"><path d="M17.75,11.3V4c0-.96-.79-1.75-1.75-1.75H8c-.96,0-1.75,.79-1.75,1.75v7.3c-.57,.12-1,.6-1,1.2v2c0,.69,.56,1.25,1.25,1.25h.29l3.75,2.25-3.93,2.36c-.36,.21-.47,.67-.26,1.03,.14,.23,.39,.36,.64,.36,.13,0,.26-.03,.39-.11l4.61-2.77,4.61,2.77c.12,.07,.25,.11,.39,.11,.25,0,.5-.13,.64-.36,.21-.36,.1-.82-.26-1.03l-3.93-2.36,3.75-2.25h.29c.69,0,1.25-.56,1.25-1.25v-2c0-.6-.43-1.08-1-1.2Zm-11,2.95v-1.5h10.5v1.5H6.75Zm1-6.5h8.5v3.5H7.75v-3.5Zm.25-4h8c.14,0,.25,.11,.25,.25v2.25H7.75v-2.25c0-.14,.11-.25,.25-.25Zm4,13.38l-2.29-1.38h4.58l-2.29,1.38Z"/></g></svg>