<?xml version="1.0" encoding="UTF-8"?><svg fill="currentColor" xmlns="http://www.w3.org/2000/svg" viewBox="0 0 24 24"><g id="i"><g><path d="M20,2.25H4c-.96,0-1.75,.79-1.75,1.75V20c0,.96,.79,1.75,1.75,1.75H20c.96,0,1.75-.79,1.75-1.75V4c0-.96-.79-1.75-1.75-1.75ZM3.75,20V4c0-.14,.11-.25,.25-.25h7.25v7.5h-.25c-.41,0-.75,.34-.75,.75s.34,.75,.75,.75h.25v7.5H4c-.14,0-.25-.11-.25-.25Zm16.5,0c0,.14-.11,.25-.25,.25h-7.25v-7.5h.25c.41,0,.75-.34,.75-.75s-.34-.75-.75-.75h-.25V3.75h7.25c.14,0,.25,.11,.25,.25V20Z"/><path d="M17.5,5.25h-2c-.69,0-1.25,.56-1.25,1.25v7c0,.69,.56,1.25,1.25,1.25h2c.69,0,1.25-.56,1.25-1.25V6.5c0-.69-.56-1.25-1.25-1.25Zm-.25,8h-1.5V6.75h1.5v6.5Z"/><path d="M17.5,15.25h-2c-.69,0-1.25,.56-1.25,1.25v1c0,.69,.56,1.25,1.25,1.25h2c.69,0,1.25-.56,1.25-1.25v-1c0-.69-.56-1.25-1.25-1.25Zm-.25,2h-1.5v-.5h1.5v.5Z"/><path d="M8.5,5.25h-2c-.69,0-1.25,.56-1.25,1.25v7c0,.69,.56,1.25,1.25,1.25h2c.69,0,1.25-.56,1.25-1.25V6.5c0-.69-.56-1.25-1.25-1.25Zm-.25,8h-1.5V6.75h1.5v6.5Z"/><path d="M8.5,15.25h-2c-.69,0-1.25,.56-1.25,1.25v1c0,.69,.56,1.25,1.25,1.25h2c.69,0,1.25-.56,1.25-1.25v-1c0-.69-.56-1.25-1.25-1.25Zm-.25,2h-1.5v-.5h1.5v.5Z"/></g></g></svg>