<?xml version="1.0" encoding="UTF-8"?><svg fill="currentColor" xmlns="http://www.w3.org/2000/svg" viewBox="0 0 24 24"><g id="o"><g><path d="M21,4.25H3c-.41,0-.75,.34-.75,.75s.34,.75,.75,.75h.25v12.75c0,.69,.56,1.25,1.25,1.25h.75v.25c0,.41,.34,.75,.75,.75s.75-.34,.75-.75v-.25h10.5v.25c0,.41,.34,.75,.75,.75s.75-.34,.75-.75v-.25h.75c.69,0,1.25-.56,1.25-1.25V5.75h.25c.41,0,.75-.34,.75-.75s-.34-.75-.75-.75ZM4.75,18.25v-5.5h14.5v5.5H4.75Zm14.5-7H4.75V5.75h14.5v5.5Z"/><path d="M11,8.75h2c.41,0,.75-.34,.75-.75s-.34-.75-.75-.75h-2c-.41,0-.75,.34-.75,.75s.34,.75,.75,.75Z"/><path d="M13,14.25h-2c-.41,0-.75,.34-.75,.75s.34,.75,.75,.75h2c.41,0,.75-.34,.75-.75s-.34-.75-.75-.75Z"/></g></g></svg>