<?xml version="1.0" encoding="UTF-8"?><svg fill="currentColor" xmlns="http://www.w3.org/2000/svg" viewBox="0 0 24 24"><g id="k"><g><path d="M18,12.25h-2.81c.96-1.05,1.56-2.57,1.56-4.25,0-3.17-2.13-5.75-4.75-5.75s-4.75,2.58-4.75,5.75c0,1.68,.61,3.2,1.56,4.25h-2.81c-.96,0-1.75,.79-1.75,1.75v7c0,.41,.34,.75,.75,.75s.75-.34,.75-.75v-3.25h12.5v3.25c0,.41,.34,.75,.75,.75s.75-.34,.75-.75v-7c0-.96-.79-1.75-1.75-1.75Zm.25,1.75v2.25h-5.5v-2.5h5.25c.14,0,.25,.11,.25,.25Zm-9.5-6c0-2.34,1.46-4.25,3.25-4.25s3.25,1.91,3.25,4.25-1.46,4.25-3.25,4.25-3.25-1.91-3.25-4.25Zm-3,6c0-.14,.11-.25,.25-.25h5.25v2.5H5.75v-2.25Z"/><path d="M14.02,15.75c.41,0,.75-.34,.75-.75s-.34-.75-.75-.75h-.01c-.41,0-.74,.34-.74,.75s.34,.75,.75,.75Z"/><path d="M10.02,14.25h-.01c-.41,0-.74,.34-.74,.75s.34,.75,.75,.75,.75-.34,.75-.75-.34-.75-.75-.75Z"/><path d="M11.53,6.53c.29-.29,.29-.77,0-1.06s-.77-.29-1.06,0l-1,1c-.29,.29-.29,.77,0,1.06,.15,.15,.34,.22,.53,.22s.38-.07,.53-.22l1-1Z"/><path d="M12.47,6.47l-2,2c-.29,.29-.29,.77,0,1.06,.15,.15,.34,.22,.53,.22s.38-.07,.53-.22l2-2c.29-.29,.29-.77,0-1.06s-.77-.29-1.06,0Z"/></g></g></svg>