<?xml version="1.0" encoding="UTF-8"?><svg fill="currentColor" xmlns="http://www.w3.org/2000/svg" viewBox="0 0 24 24"><g id="d"><g><path d="M18,5.25h-3c-1.23,0-2.32,.6-3,1.52-.68-.92-1.77-1.52-3-1.52h-3c-2.07,0-3.75,1.68-3.75,3.75v7c0,.7,.41,1.29,1,1.57v.43c0,.41,.34,.75,.75,.75s.75-.34,.75-.75v-.25h14.5v.25c0,.41,.34,.75,.75,.75s.75-.34,.75-.75v-.43c.59-.28,1-.88,1-1.57v-7c0-2.07-1.68-3.75-3.75-3.75Zm-3,1.5h3c1.24,0,2.25,1.01,2.25,2.25v4.25h-7.5v-4.25c0-1.24,1.01-2.25,2.25-2.25Zm5.25,9.25c0,.14-.11,.25-.25,.25H4c-.14,0-.25-.11-.25-.25v-1.25H20.25v1.25ZM3.75,9c0-1.24,1.01-2.25,2.25-2.25h3c1.24,0,2.25,1.01,2.25,2.25v4.25H3.75v-4.25Z"/><path d="M15.02,9.75c.42,0,.75-.34,.75-.75s-.33-.75-.75-.75h0c-.41,0-.75,.34-.75,.75s.34,.75,.75,.75Z"/><path d="M18.02,9.75c.42,0,.75-.34,.75-.75s-.33-.75-.75-.75h0c-.41,0-.75,.34-.75,.75s.34,.75,.75,.75Z"/><path d="M9.02,8.25h-.01c-.41,0-.74,.34-.74,.75s.34,.75,.75,.75,.75-.34,.75-.75-.34-.75-.75-.75Z"/><path d="M6.02,8.25h-.01c-.41,0-.74,.34-.74,.75s.34,.75,.75,.75,.75-.34,.75-.75-.34-.75-.75-.75Z"/><path d="M18.02,12.75c.42,0,.75-.34,.75-.75s-.33-.75-.75-.75h0c-.41,0-.75,.34-.75,.75s.34,.75,.75,.75Z"/><path d="M15.02,12.75c.42,0,.75-.34,.75-.75s-.33-.75-.75-.75h0c-.41,0-.75,.34-.75,.75s.34,.75,.75,.75Z"/><path d="M9.02,11.25h-.01c-.41,0-.74,.34-.74,.75s.34,.75,.75,.75,.75-.34,.75-.75-.34-.75-.75-.75Z"/><path d="M6.02,11.25h-.01c-.41,0-.74,.34-.74,.75s.34,.75,.75,.75,.75-.34,.75-.75-.34-.75-.75-.75Z"/></g></g></svg>