<?xml version="1.0" encoding="UTF-8"?><svg fill="currentColor" xmlns="http://www.w3.org/2000/svg" viewBox="0 0 24 24"><g id="g"><g><path d="M16,2.25H7c-.96,0-1.75,.79-1.75,1.75v15c0,.7,.41,1.29,1,1.57v.43c0,.41,.34,.75,.75,.75s.75-.34,.75-.75v-.25h7.5v.25c0,.41,.34,.75,.75,.75s.75-.34,.75-.75v-.43c.59-.28,1-.88,1-1.57V4c0-.96-.79-1.75-1.75-1.75ZM7,3.75h9c.14,0,.25,.11,.25,.25v5.25H6.75V4c0-.14,.11-.25,.25-.25Zm9.25,15.25c0,.14-.11,.25-.25,.25H7c-.14,0-.25-.11-.25-.25V10.75h9.5v8.25Z"/><path d="M8,13.75c.41,0,.75-.34,.75-.75v-1c0-.41-.34-.75-.75-.75s-.75,.34-.75,.75v1c0,.41,.34,.75,.75,.75Z"/><path d="M8,8.75c.41,0,.75-.34,.75-.75v-1c0-.41-.34-.75-.75-.75s-.75,.34-.75,.75v1c0,.41,.34,.75,.75,.75Z"/></g></g></svg>