<?xml version="1.0" encoding="UTF-8"?><svg fill="currentColor" xmlns="http://www.w3.org/2000/svg" viewBox="0 0 24 24"><g id="l"><g><path d="M20,11.25h-.25V7c0-2.62-2.13-4.75-4.75-4.75h-6c-2.62,0-4.75,2.13-4.75,4.75v4.25h-.25c-.96,0-1.75,.79-1.75,1.75v6c0,.96,.79,1.75,1.75,1.75h.25v.25c0,.41,.34,.75,.75,.75s.75-.34,.75-.75v-.25h12.5v.25c0,.41,.34,.75,.75,.75s.75-.34,.75-.75v-.25h.25c.96,0,1.75-.79,1.75-1.75v-6c0-.96-.79-1.75-1.75-1.75ZM5.75,7c0-1.79,1.46-3.25,3.25-3.25h6c1.79,0,3.25,1.46,3.25,3.25v4.25h-.25c-.96,0-1.75,.79-1.75,1.75v2.25H7.75v-2.25c0-.96-.79-1.75-1.75-1.75h-.25V7Zm14.5,12c0,.14-.11,.25-.25,.25H4c-.14,0-.25-.11-.25-.25v-6c0-.14,.11-.25,.25-.25h2c.14,0,.25,.11,.25,.25v3c0,.41,.34,.75,.75,.75h10c.41,0,.75-.34,.75-.75v-3c0-.14,.11-.25,.25-.25h2c.14,0,.25,.11,.25,.25v6Z"/><path d="M9.02,7.75c.42,0,.75-.34,.75-.75s-.33-.75-.75-.75h0c-.41,0-.75,.34-.75,.75s.34,.75,.75,.75Z"/><path d="M15.02,7.75c.42,0,.75-.34,.75-.75s-.33-.75-.75-.75h0c-.41,0-.75,.34-.75,.75s.34,.75,.75,.75Z"/><path d="M9.02,11.75c.42,0,.75-.34,.75-.75s-.33-.75-.75-.75h0c-.41,0-.75,.34-.75,.75s.34,.75,.75,.75Z"/><path d="M15.02,11.75c.42,0,.75-.34,.75-.75s-.33-.75-.75-.75h0c-.41,0-.75,.34-.75,.75s.34,.75,.75,.75Z"/></g></g></svg>