<?xml version="1.0" encoding="UTF-8"?><svg fill="currentColor" xmlns="http://www.w3.org/2000/svg" viewBox="0 0 24 24"><g id="t"><path d="M20,9.25h-.25v-1.25c0-.96-.79-1.75-1.75-1.75H6c-.96,0-1.75,.79-1.75,1.75v1.25h-.25c-.96,0-1.75,.79-1.75,1.75v7c0,.41,.34,.75,.75,.75H21c.41,0,.75-.34,.75-.75v-7c0-.96-.79-1.75-1.75-1.75Zm.25,1.75v2.25h-2.5v-2.25c0-.14,.11-.25,.25-.25h2c.14,0,.25,.11,.25,.25Zm-14.5-3c0-.14,.11-.25,.25-.25h12c.14,0,.25,.11,.25,.25v1.25h-.25c-.96,0-1.75,.79-1.75,1.75v2.25H7.75v-2.25c0-.96-.79-1.75-1.75-1.75h-.25v-1.25Zm-2,3c0-.14,.11-.25,.25-.25h2c.14,0,.25,.11,.25,.25v2.25H3.75v-2.25Zm16.5,6.25H3.75v-2.5H20.25v2.5Z"/></g></svg>