<?xml version="1.0" encoding="UTF-8"?><svg fill="currentColor" xmlns="http://www.w3.org/2000/svg" viewBox="0 0 24 24"><g id="b"><g><path d="M20,7.25H4c-.96,0-1.75,.79-1.75,1.75v6c0,.96,.79,1.75,1.75,1.75h.25v.25c0,.41,.34,.75,.75,.75s.75-.34,.75-.75v-.25h12.5v.25c0,.41,.34,.75,.75,.75s.75-.34,.75-.75v-.25h.25c.96,0,1.75-.79,1.75-1.75v-6c0-.96-.79-1.75-1.75-1.75Zm-16,1.5H12.25v2.5H3.75v-2.25c0-.14,.11-.25,.25-.25Zm-.25,6.25v-2.25H12.25v2.5H4c-.14,0-.25-.11-.25-.25Zm16.5,0c0,.14-.11,.25-.25,.25h-6.25v-6.5h6.25c.14,0,.25,.11,.25,.25v6Z"/><path d="M15.02,11.25h0c-.41,0-.75,.34-.75,.75s.34,.75,.75,.75,.75-.34,.75-.75-.33-.75-.75-.75Z"/><path d="M8,10.75c.1,0,.2-.02,.29-.06s.17-.09,.24-.16c.14-.14,.22-.33,.22-.53s-.08-.39-.22-.53c-.28-.28-.78-.28-1.06,0-.14,.14-.22,.33-.22,.53s.08,.39,.22,.53c.14,.14,.33,.22,.53,.22Z"/><path d="M8,14.75c.1,0,.2-.02,.29-.06s.17-.09,.24-.16c.14-.14,.22-.33,.22-.53s-.08-.39-.22-.53c-.28-.28-.78-.28-1.06,0-.14,.14-.22,.33-.22,.53s.08,.39,.22,.53c.14,.14,.33,.22,.53,.22Z"/></g></g></svg>