<?xml version="1.0" encoding="UTF-8"?><svg fill="currentColor" xmlns="http://www.w3.org/2000/svg" viewBox="0 0 24 24"><g id="m"><g><path d="M20.5,4.25H3.5c-.69,0-1.25,.56-1.25,1.25v2.5c0,.41,.34,.75,.75,.75h.25v12.25c0,.41,.34,.75,.75,.75h3c.41,0,.75-.34,.75-.75V8.75h3.5v12.25c0,.41,.34,.75,.75,.75h9c.41,0,.75-.34,.75-.75V5.5c0-.69-.56-1.25-1.25-1.25ZM3.75,5.75H20.25v1.5H3.75v-1.5Zm2.5,14.5h-1.5V8.75h1.5v11.5Zm14-11.5v4.5h-7.5v-4.5h7.5Zm-7.5,11.5v-5.5h7.5v5.5h-7.5Z"/><path d="M16,11.75h1c.41,0,.75-.34,.75-.75s-.34-.75-.75-.75h-1c-.41,0-.75,.34-.75,.75s.34,.75,.75,.75Z"/><path d="M14,16.25c-.41,0-.75,.34-.75,.75v1c0,.41,.34,.75,.75,.75s.75-.34,.75-.75v-1c0-.41-.34-.75-.75-.75Z"/></g></g></svg>