<?xml version="1.0" encoding="UTF-8"?><svg fill="currentColor" xmlns="http://www.w3.org/2000/svg" viewBox="0 0 24 24"><g id="s"><g><path d="M20.5,4.25H3.5c-.69,0-1.25,.56-1.25,1.25v13.5c0,.41,.34,.75,.75,.75s.75-.34,.75-.75v-7.25H20.25v7.25c0,.41,.34,.75,.75,.75s.75-.34,.75-.75V5.5c0-.69-.56-1.25-1.25-1.25Zm-.25,3.5v2.5h-7.5v-2.5h7.5ZM3.75,5.75H20.25v.5H3.75v-.5Zm0,2h7.5v2.5H3.75v-2.5Z"/><path d="M15.02,9.75c.42,0,.75-.34,.75-.75s-.33-.75-.75-.75h0c-.41,0-.75,.34-.75,.75s.34,.75,.75,.75Z"/><path d="M9.02,8.25h-.01c-.41,0-.74,.34-.74,.75s.34,.75,.75,.75,.75-.34,.75-.75-.34-.75-.75-.75Z"/></g></g></svg>