<?xml version="1.0" encoding="UTF-8"?><svg fill="currentColor" xmlns="http://www.w3.org/2000/svg" viewBox="0 0 24 24"><g id="q"><g><path d="M18,13.25h-2.69l-1.5-1.5h3.69c.69,0,1.25-.56,1.25-1.25V3.5c0-.69-.56-1.25-1.25-1.25H6.5c-.69,0-1.25,.56-1.25,1.25v7c0,.69,.56,1.25,1.25,1.25h3.69l-1.5,1.5h-2.69c-.96,0-1.75,.79-1.75,1.75v4c0,.7,.41,1.29,1,1.57v.43c0,.41,.34,.75,.75,.75s.75-.34,.75-.75v-.25h10.5v.25c0,.41,.34,.75,.75,.75s.75-.34,.75-.75v-.43c.59-.28,1-.88,1-1.57v-4c0-.96-.79-1.75-1.75-1.75ZM6.75,3.75h10.5v6.5H6.75V3.75Zm11.5,11.25v4c0,.14-.11,.25-.25,.25h-5.25v-4.5h5.25c.14,0,.25,.11,.25,.25Zm-6.25-2.94l1.19,1.19h-2.38l1.19-1.19Zm-6.25,2.94c0-.14,.11-.25,.25-.25h5.25v4.5H6c-.14,0-.25-.11-.25-.25v-4Z"/><path d="M14.02,16.25h0c-.41,0-.75,.34-.75,.75s.34,.75,.75,.75,.75-.34,.75-.75-.33-.75-.75-.75Z"/><path d="M10.02,17.75c.42,0,.75-.34,.75-.75s-.33-.75-.75-.75h0c-.41,0-.75,.34-.75,.75s.34,.75,.75,.75Z"/></g></g></svg>