<?xml version="1.0" encoding="UTF-8"?><svg fill="currentColor" xmlns="http://www.w3.org/2000/svg" viewBox="0 0 24 24"><g id="c"><g><path d="M17,2.25H7c-.96,0-1.75,.79-1.75,1.75v15c0,.96,.79,1.75,1.75,1.75h.25v.25c0,.41,.34,.75,.75,.75s.75-.34,.75-.75v-.25h6.5v.25c0,.41,.34,.75,.75,.75s.75-.34,.75-.75v-.25h.25c.96,0,1.75-.79,1.75-1.75V4c0-.96-.79-1.75-1.75-1.75ZM6.75,19V4c0-.14,.11-.25,.25-.25h4.25v15.5H7c-.14,0-.25-.11-.25-.25Zm10.5,0c0,.14-.11,.25-.25,.25h-4.25V3.75h4.25c.14,0,.25,.11,.25,.25v15Z"/><path d="M10.02,11.75c.42,0,.75-.34,.75-.75s-.33-.75-.75-.75h0c-.41,0-.75,.34-.75,.75s.34,.75,.75,.75Z"/><path d="M14.02,10.25h0c-.41,0-.75,.34-.75,.75s.34,.75,.75,.75,.75-.34,.75-.75-.33-.75-.75-.75Z"/></g></g></svg>