<?xml version="1.0" encoding="UTF-8"?><svg fill="currentColor" xmlns="http://www.w3.org/2000/svg" viewBox="0 0 24 24"><g id="d"><g><path d="M18,7.25h-.63l.18-2c.07-.77-.19-1.53-.71-2.1s-1.26-.9-2.03-.9h-5.62c-.77,0-1.51,.33-2.03,.9-.52,.57-.78,1.34-.71,2.1l.78,8.61-.48,.96c-.33,.66-.5,1.39-.5,2.12v3.06c0,.96,.79,1.75,1.75,1.75h8c.96,0,1.75-.79,1.75-1.75v-3.06c0-.73-.17-1.47-.5-2.13l-.48-.96,.12-1.36,1.66-.55c.72-.24,1.2-.91,1.2-1.66v-1.28c0-.96-.79-1.75-1.75-1.75Zm-9.91-.5h7.81l-.59,6.5h-6.63l-.59-6.5Zm.17-2.59c.24-.26,.57-.41,.92-.41h5.62c.36,0,.68,.14,.92,.41,.24,.26,.35,.6,.32,.96v.15s-.04,0-.05,0H8s-.03,0-.04,0v-.15c-.05-.35,.07-.69,.31-.96Zm7.98,15.84c0,.14-.11,.25-.25,.25H8c-.14,0-.25-.11-.25-.25v-3.06c0-.5,.12-1,.34-1.45l.37-.74h7.07l.37,.74c.22,.45,.34,.95,.34,1.45v3.06Zm2-9.72c0,.11-.07,.2-.17,.24l-1.04,.35,.19-2.11h.77c.14,0,.25,.11,.25,.25v1.28Z"/><path d="M13,17.25h-2c-.41,0-.75,.34-.75,.75s.34,.75,.75,.75h2c.41,0,.75-.34,.75-.75s-.34-.75-.75-.75Z"/></g></g></svg>