<?xml version="1.0" encoding="UTF-8"?><svg fill="currentColor" xmlns="http://www.w3.org/2000/svg" viewBox="0 0 24 24"><g id="u"><g><path d="M16,2.25c-.41,0-.75,.34-.75,.75v7c0,1.79-1.46,3.25-3.25,3.25s-3.25-1.46-3.25-3.25V3c0-.41-.34-.75-.75-.75s-.75,.34-.75,.75v7c0,2.36,1.74,4.31,4,4.67v6.33c0,.41,.34,.75,.75,.75s.75-.34,.75-.75v-6.33c2.26-.36,4-2.31,4-4.67V3c0-.41-.34-.75-.75-.75Z"/><path d="M12,10.75c.41,0,.75-.34,.75-.75V4c0-.41-.34-.75-.75-.75s-.75,.34-.75,.75v6c0,.41,.34,.75,.75,.75Z"/></g></g></svg>