<?xml version="1.0" encoding="UTF-8"?><svg fill="currentColor" xmlns="http://www.w3.org/2000/svg" viewBox="0 0 24 24"><g id="h"><g><path d="M21,11.25h-1.17c-.73,0-1.42,.29-1.94,.81l-.83,.83c-.23,.23-.55,.37-.88,.37h-1.6c-.28-.59-.88-1-1.57-1H4c-.96,0-1.75,.79-1.75,1.75v2c0,1.52,1.23,2.75,2.75,2.75h7c1.52,0,2.75-1.23,2.75-2.75v-1.25h1.42c.73,0,1.42-.29,1.94-.81l.83-.83c.23-.23,.55-.37,.88-.37h1.17c.41,0,.75-.34,.75-.75s-.34-.75-.75-.75Zm-7.75,4.75c0,.69-.56,1.25-1.25,1.25H5c-.69,0-1.25-.56-1.25-1.25v-2c0-.14,.11-.25,.25-.25H13c.14,0,.25,.11,.25,.25v2Z"/><path d="M8.12,8.14c.07,.04,.16,.11,.17,.12,0,0,.03,.34-.83,1.22-.29,.3-.29,.77,0,1.06,.15,.14,.34,.21,.53,.21s.39-.08,.54-.22c.68-.7,1.55-1.74,1.17-2.78-.17-.46-.5-.68-.74-.85-.16-.11-.26-.18-.33-.29-.22-.35-.08-.93,.07-1.35,.14-.39-.06-.82-.45-.96-.39-.14-.82,.06-.96,.45-.38,1.07-.36,1.96,.07,2.65,.24,.39,.54,.59,.76,.74Z"/><path d="M12.35,8.14c.07,.05,.16,.11,.17,.12,0,0,.03,.34-.83,1.22-.29,.3-.29,.77,0,1.06,.15,.14,.34,.21,.53,.21s.39-.08,.54-.22c.68-.7,1.55-1.74,1.17-2.78-.17-.46-.5-.68-.74-.84-.16-.11-.26-.18-.33-.3-.22-.35-.08-.93,.07-1.35,.14-.39-.06-.82-.45-.96-.39-.14-.82,.06-.96,.45-.38,1.07-.36,1.96,.07,2.65,.24,.39,.54,.59,.76,.74Z"/><path d="M4.08,8.14c.07,.04,.16,.11,.17,.12,0,0,.03,.34-.83,1.22-.29,.3-.29,.77,0,1.06,.15,.14,.34,.21,.53,.21s.39-.08,.54-.22c.68-.7,1.55-1.74,1.17-2.78-.17-.46-.5-.68-.74-.85-.16-.11-.26-.18-.33-.29-.22-.35-.08-.93,.07-1.35,.14-.39-.06-.82-.45-.96-.39-.14-.82,.06-.96,.45-.38,1.07-.36,1.96,.07,2.65,.24,.39,.54,.59,.76,.74Z"/></g></g></svg>