<?xml version="1.0" encoding="UTF-8"?><svg fill="currentColor" xmlns="http://www.w3.org/2000/svg" viewBox="0 0 24 24"><g id="c"><path d="M19.93,7.99c-.26-.6-.77-1.06-1.39-1.26-1.09-.36-2.31,.14-2.82,1.17l-.97,1.93v-2.32c0-2.89-2.36-5.25-5.25-5.25s-5.25,2.36-5.25,5.25v11.5c0,1.52,1.23,2.75,2.75,2.75H15c1.48,0,2.69-1.18,2.75-2.72,.13-3.09,.86-6.17,2.18-9.14,.27-.61,.27-1.3,0-1.9Zm-4.93,12.26H7c-.69,0-1.25-.56-1.25-1.25v-.25h10.52c0,.09-.01,.17-.02,.26-.03,.69-.58,1.24-1.25,1.24Zm3.55-10.97c-1.15,2.59-1.87,5.26-2.17,7.97H5.75V7.5c0-2.07,1.68-3.75,3.75-3.75s3.75,1.68,3.75,3.75v3.5c0,.41,.34,.75,.75,.75h1c.28,0,.54-.16,.67-.42l1.39-2.77c.18-.37,.61-.55,1.01-.42,.22,.07,.4,.23,.49,.45,.1,.22,.1,.46,0,.69Z"/></g></svg>