<?xml version="1.0" encoding="UTF-8"?><svg fill="currentColor" xmlns="http://www.w3.org/2000/svg" viewBox="0 0 24 24"><g id="j"><g><path d="M16,2.25H8c-2.62,0-4.75,2.13-4.75,4.75v3c0,1.52,1.23,2.75,2.75,2.75h1.25v1.6c-1.18,.29-2.11,1.25-2.32,2.5l-.21,1.28c-.15,.9,.1,1.82,.69,2.52,.59,.7,1.46,1.1,2.37,1.1h.43c.92,0,1.78-.4,2.37-1.1,.59-.7,.85-1.62,.69-2.52l-.21-1.28c-.21-1.25-1.14-2.21-2.32-2.5v-1.6h9.25c1.52,0,2.75-1.23,2.75-2.75v-3c0-2.62-2.13-4.75-4.75-4.75ZM6.2,18.37l.21-1.28c.08-.51,.41-.91,.84-1.14v4.19c-.26-.09-.51-.25-.69-.47-.31-.36-.44-.84-.36-1.31Zm3.39-1.28l.21,1.28c.08,.47-.05,.94-.36,1.31-.19,.22-.43,.37-.69,.47v-4.19c.43,.23,.75,.63,.84,1.14Zm9.66-7.1c0,.69-.56,1.25-1.25,1.25H6c-.69,0-1.25-.56-1.25-1.25v-3c0-1.79,1.46-3.25,3.25-3.25h8c1.79,0,3.25,1.46,3.25,3.25v3Z"/><path d="M16,5.25h-2c-.41,0-.75,.34-.75,.75s.34,.75,.75,.75h2c.41,0,.75-.34,.75-.75s-.34-.75-.75-.75Z"/></g></g></svg>