<?xml version="1.0" encoding="UTF-8"?><svg fill="currentColor" xmlns="http://www.w3.org/2000/svg" viewBox="0 0 24 24"><g id="n"><g><path d="M18,5.25H6c-2.07,0-3.75,1.68-3.75,3.75v6c0,1.81,1.29,3.33,3,3.67v1.33c0,.41,.34,.75,.75,.75s.75-.34,.75-.75v-1.25h10.5v1.25c0,.41,.34,.75,.75,.75s.75-.34,.75-.75v-1.33c1.71-.35,3-1.86,3-3.67v-6c0-2.07-1.68-3.75-3.75-3.75Zm2.25,9.75c0,1.24-1.01,2.25-2.25,2.25H6c-1.24,0-2.25-1.01-2.25-2.25v-6c0-1.24,1.01-2.25,2.25-2.25h12c1.24,0,2.25,1.01,2.25,2.25v6Z"/><path d="M14,8.25H7c-.96,0-1.75,.79-1.75,1.75v4c0,.96,.79,1.75,1.75,1.75h7c.96,0,1.75-.79,1.75-1.75v-4c0-.96-.79-1.75-1.75-1.75Zm.25,5.75c0,.14-.11,.25-.25,.25H7c-.14,0-.25-.11-.25-.25v-4c0-.14,.11-.25,.25-.25h7c.14,0,.25,.11,.25,.25v4Z"/><path d="M18,8.25c-.41,0-.75,.34-.75,.75v6c0,.41,.34,.75,.75,.75s.75-.34,.75-.75v-6c0-.41-.34-.75-.75-.75Z"/></g></g></svg>