<?xml version="1.0" encoding="UTF-8"?><svg fill="currentColor" xmlns="http://www.w3.org/2000/svg" viewBox="0 0 24 24"><g id="b"><path d="M20.49,2.69c-.87-.57-2-.59-2.88-.06-.79,.48-1.28,1.27-1.35,2.17-.02,.29-.11,.51-.23,.68-.61-.2-1.31-.07-1.8,.41L5.74,14.37c-.33,.33-.51,.77-.51,1.24,0,.19,.04,.38,.1,.56-.16,.13-.38,.21-.67,.23-.9,.07-1.69,.56-2.17,1.34-.53,.87-.5,2.03,.05,2.88,.46,.71,1.2,1.17,2.03,1.25,.1,.01,.19,.02,.29,.02,.73,0,1.42-.29,1.94-.81,.5-.5,.78-1.16,.8-1.85,0-.17,.04-.41,.2-.56h0c.19,.06,.39,.1,.58,.1,.45,0,.9-.17,1.24-.51l8.49-8.49c.33-.33,.51-.77,.51-1.24,0-.2-.04-.4-.11-.58h0c.15-.16,.39-.2,.56-.2,.7-.02,1.36-.31,1.86-.8,.59-.59,.88-1.4,.79-2.23-.09-.83-.54-1.57-1.25-2.03ZM5.74,20.03c-.27,.27-.64,.39-1.02,.36-.38-.04-.71-.25-.93-.58-.25-.38-.26-.9-.03-1.29,.22-.37,.58-.59,.99-.62,.6-.05,1.09-.23,1.49-.54l.39,.39c-.32,.38-.51,.87-.53,1.44,0,.32-.14,.62-.36,.84Zm11.31-11.31l-8.49,8.49c-.1,.1-.26,.1-.35,0l-1.41-1.42h0c-.06-.06-.07-.14-.07-.18s0-.11,.07-.18L15.29,6.95s.11-.07,.18-.07,.13,.02,.18,.07l1.41,1.42h0c.06,.06,.07,.14,.07,.18s0,.11-.07,.18Zm2.83-2.83c-.23,.23-.52,.36-.84,.37-.57,.02-1.06,.21-1.44,.53l-.39-.39c.31-.4,.5-.9,.54-1.49,.03-.41,.26-.77,.62-.99,.38-.23,.91-.22,1.29,.03,.33,.22,.54,.55,.58,.93,.04,.38-.09,.75-.36,1.01Z"/></g></svg>