<?xml version="1.0" encoding="UTF-8"?><svg fill="currentColor" xmlns="http://www.w3.org/2000/svg" viewBox="0 0 24 24"><g id="o"><path d="M20,5.25h-7.25v-1.5h1.25c.41,0,.75-.34,.75-.75s-.34-.75-.75-.75h-4c-.41,0-.75,.34-.75,.75s.34,.75,.75,.75h1.25v1.5H4c-.41,0-.75,.34-.75,.75s.34,.75,.75,.75h.25v10.25c0,2.62,2.13,4.75,4.75,4.75h6c2.62,0,4.75-2.13,4.75-4.75V6.75h.25c.41,0,.75-.34,.75-.75s-.34-.75-.75-.75Zm-1.75,11.75c0,1.79-1.46,3.25-3.25,3.25h-6c-1.79,0-3.25-1.46-3.25-3.25V6.75h12.5v10.25Z"/></g></svg>