<?xml version="1.0" encoding="UTF-8"?><svg fill="currentColor" xmlns="http://www.w3.org/2000/svg" viewBox="0 0 24 24"><g id="m"><g><path d="M9,8.75h6c2.62,0,4.75-2.13,4.75-4.75,0-.96-.79-1.75-1.75-1.75H6c-.96,0-1.75,.79-1.75,1.75,0,2.62,2.13,4.75,4.75,4.75ZM6,3.75h12c.14,0,.25,.11,.25,.25,0,1.79-1.46,3.25-3.25,3.25h-6c-1.79,0-3.25-1.46-3.25-3.25,0-.14,.11-.25,.25-.25Z"/><path d="M18.06,12.46c-.26-1.28-1.39-2.21-2.7-2.21h-6.72c-1.31,0-2.44,.93-2.7,2.21l-1.2,6c-.16,.81,.04,1.64,.57,2.28,.52,.64,1.3,1.01,2.13,1.01h9.12c.83,0,1.6-.37,2.13-1.01,.52-.64,.73-1.47,.57-2.28l-1.2-6Zm-.53,7.33c-.24,.29-.59,.46-.97,.46H7.44c-.38,0-.73-.17-.97-.46-.24-.29-.33-.67-.26-1.04l1.2-6c.12-.58,.63-1,1.23-1h6.72c.59,0,1.11,.42,1.23,1l1.2,6c.07,.37-.02,.75-.26,1.04Z"/><path d="M12,13.25c-1.52,0-2.75,1.23-2.75,2.75s1.23,2.75,2.75,2.75,2.75-1.23,2.75-2.75-1.23-2.75-2.75-2.75Zm0,4c-.69,0-1.25-.56-1.25-1.25s.56-1.25,1.25-1.25,1.25,.56,1.25,1.25-.56,1.25-1.25,1.25Z"/></g></g></svg>