<?xml version="1.0" encoding="UTF-8"?><svg fill="currentColor" xmlns="http://www.w3.org/2000/svg" viewBox="0 0 24 24"><g id="q"><g><path d="M20.94,8.71L15.29,3.06c-1.07-1.07-2.82-1.07-3.89,0l-2.78,2.78c-1.09,1.09-1.68,2.53-1.68,4.07v3.28l-3.85,3.85c-.52,.52-.81,1.21-.81,1.94s.29,1.43,.81,1.94c.54,.54,1.24,.8,1.94,.8s1.41-.27,1.94-.8l3.85-3.85h3.28c1.54,0,2.98-.6,4.07-1.68l2.78-2.78c1.07-1.07,1.07-2.82,0-3.89ZM5.91,19.85c-.49,.49-1.28,.49-1.77,0-.24-.24-.37-.55-.37-.88s.13-.65,.37-.88l3.54-3.54,1.77,1.77-3.54,3.54Zm13.97-8.31l-2.78,2.78c-.8,.8-1.87,1.24-3,1.24h-3.28l-2.39-2.39v-3.28c0-1.14,.44-2.2,1.24-3.01l2.78-2.78c.49-.49,1.28-.49,1.77,0l5.66,5.66c.49,.49,.49,1.28,0,1.77Z"/><path d="M16,8.01c-.29-.29-.77-.29-1.06,0l-2.12,2.12c-.29,.29-.29,.77,0,1.06,.15,.15,.34,.22,.53,.22s.38-.07,.53-.22l2.12-2.12c.29-.29,.29-.77,0-1.06Z"/><path d="M17.06,10.13l-2.12,2.12c-.29,.29-.29,.77,0,1.06,.15,.15,.34,.22,.53,.22s.38-.07,.53-.22l2.12-2.12c.29-.29,.29-.77,0-1.06s-.77-.29-1.06,0Z"/><path d="M13.87,5.88c-.29-.29-.77-.29-1.06,0l-2.12,2.12c-.29,.29-.29,.77,0,1.06,.15,.15,.34,.22,.53,.22s.38-.07,.53-.22l2.12-2.12c.29-.29,.29-.77,0-1.06Z"/></g></g></svg>