<?xml version="1.0" encoding="UTF-8"?><svg fill="currentColor" xmlns="http://www.w3.org/2000/svg" viewBox="0 0 24 24"><g id="t"><path d="M16.77,9.19l-.02-.18c-.17-1.3-.48-2.58-.92-3.79-.65-1.8-2.15-2.97-3.82-2.97s-3.18,1.17-3.82,2.97c-.44,1.22-.75,2.5-.92,3.79l-.02,.18c-.19,1.54,.27,3.1,1.23,4.19,.76,.86,1.74,1.33,2.79,1.36v6.26c0,.41,.34,.75,.75,.75s.75-.34,.75-.75v-6.26c1.05-.03,2.03-.51,2.79-1.36,.96-1.09,1.42-2.65,1.23-4.19Zm-2.35,3.19c-.49,.56-1.12,.87-1.77,.87h-1.28c-.65,0-1.28-.31-1.77-.87-.68-.77-1-1.89-.86-3.01l.02-.16c.16-1.19,.44-2.37,.85-3.49,.43-1.2,1.38-1.97,2.41-1.97s1.98,.77,2.41,1.97c.4,1.12,.69,2.29,.85,3.49l.02,.16c.14,1.12-.18,2.24-.86,3.01Z"/></g></svg>