<?xml version="1.0" encoding="UTF-8"?><svg fill="currentColor" xmlns="http://www.w3.org/2000/svg" viewBox="0 0 24 24"><g id="e"><path d="M21.62,11.58l-1.41-2.11c-.51-.77-1.37-1.22-2.29-1.22h-2.24c-.11-.75-.38-1.73-1.08-2.69-1.12-1.53-2.63-2.09-3.43-2.29-.12-.03-.24-.03-.36,0-.8,.2-2.31,.76-3.43,2.29-.7,.96-.98,1.95-1.08,2.69h-1.31c-1.52,0-2.75,1.23-2.75,2.75v1c0,.28,.16,.54,.41,.67l1.45,.72c.08,.04,.14,.13,.14,.22v3.38c0,1.52,1.23,2.75,2.75,2.75H15c1.52,0,2.75-1.23,2.75-2.75v-7.25h.18c.42,0,.81,.21,1.04,.56l1.41,2.11c.14,.22,.38,.33,.62,.33,.14,0,.29-.04,.42-.13,.34-.23,.44-.7,.21-1.04ZM8.61,6.44c.77-1.06,1.83-1.5,2.39-1.66,.56,.17,1.62,.6,2.39,1.66,.46,.64,.67,1.28,.77,1.81H7.84c.1-.53,.3-1.17,.77-1.81Zm7.64,10.56c0,.69-.56,1.25-1.25,1.25H7c-.69,0-1.25-.56-1.25-1.25v-3.38c0-.67-.37-1.27-.97-1.57l-1.03-.52v-.54c0-.69,.56-1.25,1.25-1.25h11.25v7.25Z"/></g></svg>