<?xml version="1.0" encoding="UTF-8"?><svg fill="currentColor" xmlns="http://www.w3.org/2000/svg" viewBox="0 0 24 24"><g id="l"><g><path d="M19,2.25H5c-1.52,0-2.75,1.23-2.75,2.75v12c0,2.62,2.13,4.75,4.75,4.75h10c2.62,0,4.75-2.13,4.75-4.75V5c0-1.52-1.23-2.75-2.75-2.75ZM5,3.75h14c.69,0,1.25,.56,1.25,1.25v3.25H3.75v-3.25c0-.69,.56-1.25,1.25-1.25Zm12,16.5H7c-1.79,0-3.25-1.46-3.25-3.25v-7.25H20.25v7.25c0,1.79-1.46,3.25-3.25,3.25Z"/><path d="M17,11.25H7c-.96,0-1.75,.79-1.75,1.75v4c0,.96,.79,1.75,1.75,1.75h10c.96,0,1.75-.79,1.75-1.75v-4c0-.96-.79-1.75-1.75-1.75Zm.25,5.75c0,.14-.11,.25-.25,.25H7c-.14,0-.25-.11-.25-.25v-4c0-.14,.11-.25,.25-.25h10c.14,0,.25,.11,.25,.25v4Z"/><path d="M12.02,6.75c.42,0,.75-.34,.75-.75s-.33-.75-.75-.75h0c-.41,0-.75,.34-.75,.75s.34,.75,.75,.75Z"/><path d="M16.02,6.75c.42,0,.75-.34,.75-.75s-.33-.75-.75-.75h0c-.41,0-.75,.34-.75,.75s.34,.75,.75,.75Z"/><path d="M8.02,6.75c.42,0,.75-.34,.75-.75s-.33-.75-.75-.75h0c-.41,0-.75,.34-.75,.75s.34,.75,.75,.75Z"/></g></g></svg>