<?xml version="1.0" encoding="UTF-8"?><svg fill="currentColor" xmlns="http://www.w3.org/2000/svg" viewBox="0 0 24 24"><g id="g"><path d="M21.75,9.91c0-.78-.14-1.53-.38-2.22,0,0,0-.02,0-.03,0-.01-.01-.02-.02-.03-.94-2.6-3.42-4.47-6.35-4.47-3.72,0-6.75,3.03-6.75,6.75,0,.03,.01,.06,.02,.09-.45,.19-.89,.4-1.31,.65l-.95-.95c-.49-.49-1.28-.49-1.77,0l-1.41,1.41c-.49,.49-.49,1.28,0,1.77l.92,.92c-.98,1.55-1.5,3.35-1.5,5.19v1c0,.96,.79,1.75,1.75,1.75H20c.96,0,1.75-.79,1.75-1.75v-1c0-1.82-.51-3.53-1.39-4.99,.9-1.17,1.39-2.61,1.39-4.1Zm-2.13-2.43l-1.14,.4c-.14,.05-.26-.04-.32-.15-.26-.45-.6-.82-1.02-1.1-.61-.42-1.35-.62-2.14-.55-.1,0-.16-.04-.19-.07-.04-.03-.08-.09-.08-.18v-1.14c.08,0,.16-.03,.25-.03,2.01,0,3.74,1.15,4.62,2.82Zm-6.37-2.5v.85c0,.48,.2,.95,.55,1.28s.83,.5,1.32,.46c.46-.03,.85,.07,1.19,.3,.23,.15,.42,.36,.56,.61,.33,.58,.93,.92,1.55,.92,.19,0,.38-.03,.57-.1l1.16-.41c.07,.33,.1,.67,.1,1.02,0,1-.29,1.96-.81,2.8-1.79-2.11-4.46-3.46-7.44-3.46-.75,0-1.49,.1-2.21,.27,.16-2.1,1.55-3.85,3.46-4.54ZM5.12,10.94l.92,.92c.41,.41,1.05,.48,1.55,.17,1.32-.83,2.84-1.27,4.41-1.27,3.95,0,7.26,2.8,8.06,6.51-.02,0-.04-.01-.06-.01H4s-.03,0-.04,0c.21-.99,.59-1.94,1.15-2.79,.33-.5,.27-1.15-.15-1.57l-.89-.89,1.06-1.06Zm15.13,9.06c0,.14-.11,.25-.25,.25H4c-.14,0-.25-.11-.25-.25v-1c0-.1,.02-.2,.02-.3,.07,.02,.15,.05,.23,.05H20c.08,0,.16-.02,.23-.05,0,.1,.02,.2,.02,.3v1Z"/></g></svg>