<?xml version="1.0" encoding="UTF-8"?><svg fill="currentColor" xmlns="http://www.w3.org/2000/svg" viewBox="0 0 24 24"><g id="i"><g><path d="M21,13.25h-1.33c-.3-1.47-1.46-2.62-2.92-2.92V5c0-1.52-1.23-2.75-2.75-2.75h-6c-1.52,0-2.75,1.23-2.75,2.75v5.33c-1.71,.35-3,1.86-3,3.67v5c0,1.52,1.23,2.75,2.75,2.75h12c1.52,0,2.75-1.23,2.75-2.75v-4.25h1.25c.41,0,.75-.34,.75-.75s-.34-.75-.75-.75ZM6.75,5c0-.69,.56-1.25,1.25-1.25h6c.69,0,1.25,.56,1.25,1.25v5.25H6.75V5Zm-.75,6.75h10c1.24,0,2.25,1.01,2.25,2.25v3.25H3.75v-3.25c0-1.24,1.01-2.25,2.25-2.25Zm11,8.5H5c-.69,0-1.25-.56-1.25-1.25v-.25h14.5v.25c0,.69-.56,1.25-1.25,1.25Z"/><path d="M13,5.25c-.41,0-.75,.34-.75,.75v2c0,.41,.34,.75,.75,.75s.75-.34,.75-.75v-2c0-.41-.34-.75-.75-.75Z"/><path d="M9,5.25c-.41,0-.75,.34-.75,.75v2c0,.41,.34,.75,.75,.75s.75-.34,.75-.75v-2c0-.41-.34-.75-.75-.75Z"/></g></g></svg>