<?xml version="1.0" encoding="UTF-8"?><svg fill="currentColor" xmlns="http://www.w3.org/2000/svg" viewBox="0 0 24 24"><g id="r"><path d="M19.77,4.23c-1.27-1.27-2.97-1.98-4.77-1.98s-3.5,.7-4.77,1.98l-1.42,1.41c-1.91,1.91-2.42,4.67-1.57,7.06l-3.82,3.82c-1.37,1.37-1.57,3.39-.45,4.51,.47,.47,1.13,.73,1.85,.73,.13,0,.27,0,.4-.03,.81-.11,1.61-.51,2.25-1.15l3.82-3.82c.72,.26,1.49,.4,2.29,.4,1.8,0,3.5-.7,4.77-1.98l1.41-1.41c1.28-1.27,1.98-2.97,1.98-4.77s-.7-3.5-1.98-4.77ZM9.87,14.13c-.17-.17-.3-.36-.44-.54,.66-1.81,1.62-3.44,2.9-4.84,1.96-2.14,4.21-3.27,5.88-3.87,.17,.13,.34,.25,.49,.41,.15,.15,.28,.33,.41,.5-.82,2.3-2.12,4.28-3.87,5.88-1.4,1.28-3.03,2.24-4.84,2.9-.18-.14-.37-.28-.54-.44Zm0-7.42l1.42-1.41c.99-.99,2.31-1.54,3.71-1.54,.5,0,.98,.09,1.45,.23-1.63,.73-3.52,1.9-5.22,3.76-1.1,1.21-2,2.56-2.68,4.05-.47-1.76-.05-3.71,1.33-5.08Zm-3.46,12.82c-.4,.4-.9,.66-1.38,.72-.24,.03-.69,.04-1-.28-.53-.53-.32-1.62,.45-2.39l3.46-3.46c.25,.38,.54,.74,.87,1.07,.33,.33,.69,.62,1.07,.87l-3.46,3.46Zm12.29-6.81l-1.41,1.41c-.99,.99-2.31,1.54-3.71,1.54-.47,0-.93-.08-1.38-.2,1.49-.69,2.85-1.58,4.05-2.69,1.61-1.47,2.85-3.24,3.75-5.25,.14,.48,.24,.97,.24,1.48,0,1.4-.55,2.72-1.54,3.71Z"/></g></svg>