<?xml version="1.0" encoding="UTF-8"?><svg fill="currentColor" xmlns="http://www.w3.org/2000/svg" viewBox="0 0 24 24"><g id="f"><g><path d="M13,14.75h-2c-.69,0-1.25,.56-1.25,1.25s.56,1.25,1.25,1.25h2c.69,0,1.25-.56,1.25-1.25s-.56-1.25-1.25-1.25Z"/><path d="M15.75,5.95v-.95c0-1.52-1.23-2.75-2.75-2.75h-2c-1.52,0-2.75,1.23-2.75,2.75v.95c-1.79,.98-3,2.87-3,5.05v8c0,1.52,1.23,2.75,2.75,2.75h8c1.52,0,2.75-1.23,2.75-2.75V11c0-2.18-1.21-4.07-3-5.05Zm-6-.95c0-.69,.56-1.25,1.25-1.25h2c.69,0,1.25,.56,1.25,1.25v.25h-4.5v-.25Zm3.25,13.75h-2c-1.52,0-2.75-1.23-2.75-2.75s1.23-2.75,2.75-2.75h2c1.52,0,2.75,1.23,2.75,2.75s-1.23,2.75-2.75,2.75Z"/><path d="M20.25,13.56v5.44s0,.03,0,.04l.31-.1c.72-.24,1.2-.91,1.2-1.66v-1.28c0-1.06-.61-1.98-1.5-2.44Z"/><path d="M3.75,13.56c-.89,.46-1.5,1.37-1.5,2.44v1.28c0,.75,.48,1.42,1.2,1.66l.31,.1s0-.03,0-.04v-5.44Z"/></g></g></svg>