<?xml version="1.0" encoding="UTF-8"?><svg fill="currentColor" xmlns="http://www.w3.org/2000/svg" viewBox="0 0 24 24"><g id="b"><g><path d="M14.33,7.33l.92,.46V2.28c-.08,0-.16-.03-.25-.03h-2.25V7.79l.92-.46c.21-.11,.46-.11,.67,0Z"/><path d="M16.75,2.59v6.41c0,.26-.13,.5-.36,.64-.12,.08-.26,.11-.39,.11-.11,0-.23-.03-.33-.08l-1.67-.83-1.67,.83c-.23,.12-.51,.1-.73-.03-.22-.14-.36-.38-.36-.64V2.25h-2.25c-.09,0-.17,.02-.25,.03V21.72c.08,0,.16,.03,.25,.03h6c2.62,0,4.75-2.13,4.75-4.75V7c0-2-1.25-3.71-3-4.41Z"/><path d="M4.25,7v10c0,2,1.25,3.71,3,4.41V2.59c-1.75,.7-3,2.41-3,4.41Z"/></g></g></svg>