<?xml version="1.0" encoding="UTF-8"?><svg fill="currentColor" xmlns="http://www.w3.org/2000/svg" viewBox="0 0 24 24"><g id="t"><path d="M21.21,6.16h0c-.67-.63-2.1-1.72-4.15-1.89-2.33-.19-4.08,.92-4.92,1.59-.09,.08-.21,.04-.29-.02-.77-.64-2.05-1.43-3.79-1.57-2.65-.22-4.56,1.25-5.26,1.89-.35,.32-.55,.79-.55,1.27v9.54c0,.63,.32,1.19,.87,1.5,.55,.31,1.2,.31,1.75,0,.69-.4,1.43-.64,2.2-.7,1.81-.15,3.19,.73,3.85,1.27,.31,.25,.69,.37,1.07,.37s.8-.14,1.13-.41c.61-.5,1.61-1.12,2.96-1.23,1.06-.09,2.09,.16,3.06,.72,.56,.32,1.22,.32,1.77,0,.54-.31,.86-.87,.86-1.49V7.42c0-.48-.19-.93-.54-1.26Zm-8.46,9.84c0,.41-.34,.75-.75,.75s-.75-.34-.75-.75v-7c0-.41,.34-.75,.75-.75s.75,.34,.75,.75v7Z"/></g></svg>