<?xml version="1.0" encoding="UTF-8"?><svg fill="currentColor" xmlns="http://www.w3.org/2000/svg" viewBox="0 0 24 24"><g id="i"><g><circle cx="16" cy="14" r="3.75"/><path d="M18,2.25H6c-2.07,0-3.75,1.68-3.75,3.75v6c0,2.07,1.68,3.75,3.75,3.75h5.07c-.2-.55-.32-1.13-.32-1.75,0-2.89,2.36-5.25,5.25-5.25s5.16,2.28,5.24,5.11c.32-.55,.51-1.18,.51-1.86V6c0-2.07-1.68-3.75-3.75-3.75ZM9,12.75h-3c-.41,0-.75-.34-.75-.75s.34-.75,.75-.75h3c.41,0,.75,.34,.75,.75s-.34,.75-.75,.75Zm2-3H6c-.41,0-.75-.34-.75-.75s.34-.75,.75-.75h5c.41,0,.75,.34,.75,.75s-.34,.75-.75,.75Zm4-3h-6c-.41,0-.75-.34-.75-.75s.34-.75,.75-.75h6c.41,0,.75,.34,.75,.75s-.34,.75-.75,.75Z"/><path d="M13.25,18.45v2.55c0,.26,.13,.5,.36,.64,.22,.14,.5,.15,.73,.03l1.67-.83,1.67,.83c.11,.05,.22,.08,.33,.08,.14,0,.27-.04,.39-.11,.22-.14,.36-.38,.36-.64v-2.55c-.8,.5-1.74,.8-2.75,.8s-1.95-.3-2.75-.8Z"/></g></g></svg>