<?xml version="1.0" encoding="UTF-8"?><svg fill="currentColor" xmlns="http://www.w3.org/2000/svg" viewBox="0 0 24 24"><g id="l"><path d="M17.5,8.25c-1.46,0-2.75,.74-3.51,1.86-.5-.53-1.21-.86-1.99-.86s-1.49,.33-1.99,.86c-.77-1.12-2.05-1.86-3.51-1.86-2.34,0-4.25,1.91-4.25,4.25s1.91,4.25,4.25,4.25,4.25-1.91,4.25-4.25c0-.11-.02-.22-.03-.33,.01-.06,.03-.11,.03-.17,0-.68,.57-1.25,1.25-1.25s1.25,.57,1.25,1.25c0,.06,.02,.11,.03,.17,0,.11-.03,.22-.03,.33,0,2.34,1.91,4.25,4.25,4.25s4.25-1.91,4.25-4.25-1.91-4.25-4.25-4.25Z"/></g></svg>