<?xml version="1.0" encoding="UTF-8"?><svg fill="currentColor" xmlns="http://www.w3.org/2000/svg" viewBox="0 0 24 24"><g id="j"><g><path d="M13.2,18.52c2.31,0,4.62-.9,6.34-2.69,.29-.3,.28-.77-.02-1.06-.3-.29-.77-.28-1.06,.02-2.79,2.9-7.42,2.99-10.33,.2-2.9-2.79-2.99-7.43-.2-10.33,.29-.3,.28-.77-.02-1.06-.3-.29-.77-.28-1.06,.02-3.37,3.5-3.26,9.08,.24,12.45,1.24,1.19,2.73,1.94,4.3,2.27v1.92h-1.25c-.41,0-.75,.34-.75,.75s.34,.75,.75,.75h4c.41,0,.75-.34,.75-.75s-.34-.75-.75-.75h-1.25v-1.74c.1,0,.2,.01,.3,.01Z"/><path d="M14.42,7.56c.02,.1,.07,.29,.27,.42,.56,.35,.92,.96,.97,1.61,.02,.24,.16,.38,.24,.44,.08,.06,.26,.16,.49,.1l1.56-.35,.9-.16c-.06-.9-.31-1.78-.78-2.58-.46-.77-1.1-1.39-1.84-1.86l-1.68,1.9c-.16,.18-.15,.38-.14,.48Z"/><path d="M7.97,12.44l.33-.37,1.23-1.43c.35-.4,.86-.62,1.4-.57,.53,.04,1.01,.34,1.28,.8l.61,1.02c.32,.54,.32,1.21-.02,1.74l-.9,1.42-.25,.51s.07,.03,.11,.04c.47,.12,.94,.17,1.4,.17,1.03,0,2.04-.28,2.95-.82,1.32-.79,2.25-2.05,2.62-3.54,.02-.08,.02-.16,.03-.23l-.51,.09-1.53,.34c-.15,.03-.3,.05-.46,.05-.45,0-.89-.14-1.25-.41-.49-.36-.8-.92-.85-1.53-.01-.19-.12-.36-.28-.46-.52-.33-.86-.86-.95-1.47s.09-1.21,.48-1.68l1.04-1.22,.33-.37c-.09-.03-.17-.07-.25-.09-1.49-.37-3.04-.14-4.35,.65s-2.25,2.05-2.62,3.54c-.33,1.3-.16,2.63,.4,3.83Z"/><path d="M10.8,11.56s-.09,0-.13,.05l-1.24,1.45-.63,.69c.42,.48,.91,.88,1.46,1.2l.32-.65,.94-1.49s.03-.11,0-.16l-.61-1.02c-.03-.06-.08-.07-.12-.07Z"/></g></g></svg>