<?xml version="1.0" encoding="UTF-8"?><svg fill="currentColor" xmlns="http://www.w3.org/2000/svg" viewBox="0 0 24 24"><g id="r"><g><path d="M20.13,8.34l-7.32-3.84c-.51-.27-1.12-.27-1.63,0l-7.32,3.84c-.61,.32-.96,.94-.94,1.62,.03,.68,.44,1.27,1.07,1.54l7.32,3.07c.21,.09,.45,.13,.68,.13s.46-.04,.68-.14l7.32-3.07c.63-.27,1.04-.85,1.07-1.54,.03-.68-.33-1.31-.94-1.62Z"/><path d="M12,16.21c-.43,0-.86-.08-1.26-.25l-5.49-2.3v2.27c0,.98,.52,1.89,1.37,2.38,1.15,.66,3.02,1.45,5.38,1.45,1.08,0,3.22-.19,5.41-1.46,.82-.48,1.34-1.38,1.34-2.36v-2.27l-5.49,2.3c-.4,.17-.82,.25-1.26,.25Z"/></g></g></svg>