<?xml version="1.0" encoding="UTF-8"?><svg fill="currentColor" xmlns="http://www.w3.org/2000/svg" viewBox="0 0 24 24"><g id="h"><g><circle cx="12" cy="5" r="2.75"/><path d="M20.11,7.27h0c-.74-.04-1.49,0-2.22,.1-2.61,.38-4.58,1.6-5.89,2.71-1.31-1.11-3.28-2.33-5.89-2.71-.73-.11-1.48-.14-2.22-.1-.92,.05-1.64,.82-1.64,1.75v7.91c0,.48,.19,.92,.53,1.25,.35,.33,.83,.52,1.32,.49,.59-.02,1.2,0,1.79,.09,1.59,.23,3.1,.85,4.48,1.85,.49,.35,1.06,.53,1.63,.53s1.14-.18,1.63-.53c1.38-1,2.88-1.62,4.47-1.85,.59-.08,1.2-.11,1.8-.09,.49,.02,.97-.16,1.32-.49,.34-.33,.53-.77,.53-1.25v-7.92c0-.93-.72-1.69-1.64-1.75Zm-7.36,10.73c0,.41-.34,.75-.75,.75s-.75-.34-.75-.75v-5c0-.41,.34-.75,.75-.75s.75,.34,.75,.75v5Z"/></g></g></svg>