<?xml version="1.0" encoding="UTF-8"?><svg fill="currentColor" xmlns="http://www.w3.org/2000/svg" viewBox="0 0 24 24"><g id="n"><g><path d="M6,14.75h12c.96,0,1.75-.79,1.75-1.75V7c0-2.07-1.68-3.75-3.75-3.75H8c-2.07,0-3.75,1.68-3.75,3.75v6c0,.96,.79,1.75,1.75,1.75Z"/><path d="M20.99,18.24l-.81-2.85c-.58,.53-1.34,.85-2.18,.85H6c-.84,0-1.6-.33-2.18-.86l-.81,2.85c-.24,.84-.08,1.72,.45,2.41s1.32,1.09,2.2,1.09h12.7c.87,0,1.67-.4,2.2-1.09s.69-1.57,.45-2.41Zm-5.99,1.51h-6c-.41,0-.75-.34-.75-.75s.34-.75,.75-.75h6c.41,0,.75,.34,.75,.75s-.34,.75-.75,.75Z"/></g></g></svg>