<?xml version="1.0" encoding="UTF-8"?><svg fill="currentColor" xmlns="http://www.w3.org/2000/svg" viewBox="0 0 24 24"><g id="k"><g><path d="M5,7.75h2c.41,0,.75-.34,.75-.75s-.34-.75-.75-.75h-2c-.41,0-.75,.34-.75,.75s.34,.75,.75,.75Z"/><path d="M5,12.75h2c.41,0,.75-.34,.75-.75s-.34-.75-.75-.75h-2c-.41,0-.75,.34-.75,.75s.34,.75,.75,.75Z"/><path d="M7.75,17c0-.41-.34-.75-.75-.75h-2c-.41,0-.75,.34-.75,.75s.34,.75,.75,.75h2c.41,0,.75-.34,.75-.75Z"/><path d="M5.84,4.75h1.16c1.24,0,2.25,1.01,2.25,2.25s-1.01,2.25-2.25,2.25h-1.75v.5h1.75c1.24,0,2.25,1.01,2.25,2.25s-1.01,2.25-2.25,2.25h-1.75v.5h1.75c1.24,0,2.25,1.01,2.25,2.25s-1.01,2.25-2.25,2.25h-1.16c.81,1.48,2.36,2.5,4.16,2.5h1.25V2.25h-1.25c-1.8,0-3.35,1.02-4.16,2.5Z"/><path d="M15,2.25h-2.25V21.75h2.25c2.62,0,4.75-2.13,4.75-4.75V7c0-2.62-2.13-4.75-4.75-4.75Zm2,15.5h-2c-.41,0-.75-.34-.75-.75s.34-.75,.75-.75h2c.41,0,.75,.34,.75,.75s-.34,.75-.75,.75Z"/></g></g></svg>