<?xml version="1.0" encoding="UTF-8"?><svg fill="currentColor" xmlns="http://www.w3.org/2000/svg" viewBox="0 0 24 24"><g id="d"><g><path d="M12,12.25c2.39,0,4.53-1.54,5.22-3.74l.02-.1c0-.21-.03-.41-.07-.6v-.03c-.05-.19-.11-.36-.18-.53h0c-.37-.89-1.12-1.5-1.99-1.5-1.04,0-1.92,.88-2.17,2.06,0,.02,0,.03-.01,.05-.04,.21-.07,.42-.07,.64,0,.41-.34,.75-.75,.75s-.75-.34-.75-.75c0-.22-.03-.43-.07-.64,0-.02,0-.03-.01-.05-.25-1.18-1.12-2.06-2.17-2.06-.87,0-1.62,.61-2,1.5h0c-.07,.17-.13,.34-.17,.53v.03c-.05,.19-.08,.39-.08,.59l.04,.15c.69,2.17,2.83,3.7,5.21,3.7Z"/><path d="M19,20.25h-.6l-.97-1.45c-.36,.53-.78,1.01-1.23,1.45h-2.32c2.34-1.58,3.87-4.25,3.87-7.28v-2.19c-1.12,1.62-2.9,2.69-4.92,2.92,.07,1.14-.07,2.93-1.2,4.7-.49,.78-1.08,1.38-1.66,1.85h-3.09c.74-.23,2.37-.91,3.48-2.65,.94-1.48,1.03-2.97,.96-3.89-2.09-.2-3.93-1.28-5.08-2.93v9.47h-1.25c-.41,0-.75,.34-.75,.75s.34,.75,.75,.75h14c.41,0,.75-.34,.75-.75s-.34-.75-.75-.75Z"/><path d="M12,5.95c.68-1.03,1.77-1.7,3-1.7,.63,0,1.22,.2,1.75,.51-1.04-1.52-2.78-2.51-4.75-2.51s-3.71,1-4.75,2.51c.52-.32,1.11-.51,1.75-.51,1.23,0,2.32,.67,3,1.7Z"/></g></g></svg>