<?xml version="1.0" encoding="UTF-8"?><svg fill="currentColor" xmlns="http://www.w3.org/2000/svg" viewBox="0 0 24 24"><g id="e"><g><path d="M19.11,12.26c-.41-.06-.82-.06-1.22,0-.79,.12-1.42,.44-1.89,.78-.47-.34-1.1-.66-1.89-.78-.4-.06-.81-.06-1.22,0-.37,.05-.64,.37-.64,.74v4c0,.22,.09,.42,.26,.57,.17,.14,.38,.21,.6,.17,.26-.04,.53-.04,.78,0,.73,.11,1.27,.5,1.59,.8,0,0,.01,0,.02,0,.06,.06,.13,.1,.21,.14h.01c.09,.04,.19,.06,.29,.06s.19-.02,.29-.06h.01c.08-.04,.15-.08,.21-.14,0,0,.01,0,.02,0,.32-.31,.86-.69,1.59-.8,.26-.04,.52-.04,.78,0,.22,.03,.43-.03,.6-.17,.16-.14,.26-.35,.26-.57v-4c0-.37-.27-.69-.64-.74Z"/><path d="M9.39,4.11c.04,.08,.13,.14,.22,.14h2.76c.1,0,.18-.05,.22-.14l.65-1.3,.21-.51c-.15-.02-.31-.05-.46-.05h-4c-.16,0-.32,.03-.48,.05l.24,.55,.63,1.27Z"/><path d="M15.2,20.11l-.08-.04c-.16-.07-.32-.16-.46-.27l-.03-.02-.14-.12c-.2-.19-.47-.39-.81-.44-.05,0-.11-.01-.17-.01s-.13,0-.19,.01c-.09,.01-.2,.02-.31,.02-.54,0-1.06-.19-1.47-.54-.5-.43-.78-1.05-.78-1.71v-4c0-1.11,.83-2.07,1.93-2.23,.27-.04,.55-.06,.82-.06s.55,.02,.82,.06c.58,.09,1.14,.26,1.67,.52,.24-.12,.49-.22,.75-.3V6c0-1.38-.75-2.57-1.86-3.22l-.26,.65-.67,1.35c-.3,.6-.9,.97-1.57,.97h-2.76c-.67,0-1.27-.37-1.57-.97l-.65-1.3-.31-.69c-1.1,.65-1.85,1.84-1.85,3.21v12c0,2.07,1.68,3.75,3.75,3.75h4c1.22,0,2.3-.6,2.98-1.5-.25,0-.49-.04-.73-.13h-.05Z"/></g></g></svg>