<?xml version="1.0" encoding="UTF-8"?><svg fill="currentColor" xmlns="http://www.w3.org/2000/svg" viewBox="0 0 24 24"><g id="p"><g><circle cx="9" cy="11" r="1.25"/><path d="M9,17.75c3.72,0,6.75-3.03,6.75-6.75s-3.03-6.75-6.75-6.75S2.25,7.28,2.25,11s3.03,6.75,6.75,6.75Zm0-9.5c1.52,0,2.75,1.23,2.75,2.75s-1.23,2.75-2.75,2.75-2.75-1.23-2.75-2.75,1.23-2.75,2.75-2.75Z"/><path d="M19.5,8.25c-1.24,0-2.25,1.01-2.25,2.25,0,1.11,.81,2.03,1.87,2.21l-.58,3.49c-.1,.6-.62,1.04-1.23,1.04h-2.94c-.34,.29-.7,.55-1.09,.79-1.25,.77-2.71,1.21-4.28,1.21-1.94,0-3.72-.68-5.13-1.8l-.28,1.13c-.13,.53-.02,1.07,.32,1.5s.84,.67,1.38,.67h7.44c.54,0,1.05-.25,1.38-.67,.3-.38,.41-.86,.34-1.33h2.87c1.35,0,2.49-.97,2.71-2.3l.68-4.05c.63-.4,1.06-1.1,1.06-1.9,0-1.24-1.01-2.25-2.25-2.25Z"/></g></g></svg>