<?xml version="1.0" encoding="UTF-8"?><svg fill="currentColor" xmlns="http://www.w3.org/2000/svg" viewBox="0 0 24 24"><g id="o"><g><path d="M17,2.25h-5c-.41,0-.75,.34-.75,.75v5.58l-3.66,2.2c-.82,.49-1.34,1.4-1.34,2.36v7.87c0,.41,.34,.75,.75,.75h10c.41,0,.75-.34,.75-.75v-7.87c0-.96-.51-1.86-1.34-2.36l-3.66-2.2v-1.83h4.25c.41,0,.75-.34,.75-.75V3c0-.41-.34-.75-.75-.75Zm-2.25,15.75v1c0,.41-.34,.75-.75,.75s-.75-.34-.75-.75v-1c0-.69-.56-1.25-1.25-1.25s-1.25,.56-1.25,1.25v1c0,.41-.34,.75-.75,.75s-.75-.34-.75-.75v-1c0-1.52,1.23-2.75,2.75-2.75s2.75,1.23,2.75,2.75Zm-2.73-4.25c-.41,0-.75-.34-.75-.75s.33-.75,.74-.75h.01c.41,0,.75,.34,.75,.75s-.34,.75-.75,.75Z"/><path d="M4.75,13.13c0-.29,.04-.58,.1-.87-1.45,.08-2.6,1.27-2.6,2.73v5c0,.96,.79,1.75,1.75,1.75h.89c-.08-.24-.14-.49-.14-.75v-7.87Z"/><path d="M19.15,12.27c.06,.28,.1,.57,.1,.87v7.87c0,.26-.05,.51-.14,.75h.89c.96,0,1.75-.79,1.75-1.75v-5c0-1.47-1.15-2.65-2.6-2.73Z"/></g></g></svg>