<?xml version="1.0" encoding="UTF-8"?><svg fill="currentColor" xmlns="http://www.w3.org/2000/svg" viewBox="0 0 24 24"><g id="s"><g><path d="M21.02,9.13L15.36,3.47c-.14-.14-.33-.22-.53-.22h-2.83c-.41,0-.75,.34-.75,.75v2.83c0,.2,.08,.39,.22,.53l5.66,5.66c.52,.52,1.21,.81,1.94,.81s1.42-.29,1.94-.81c1.07-1.07,1.07-2.82,0-3.89Z"/><polygon points="6.75 17.25 11.97 17.25 6.75 12.03 6.75 17.25"/><path d="M6.94,5.44c-.8-.8-1.95-1.03-3-.6-1.05,.43-1.7,1.41-1.7,2.54v11.62c0,1.52,1.23,2.75,2.75,2.75h11.62c1.13,0,2.11-.65,2.54-1.7,.43-1.05,.21-2.2-.6-3L6.94,5.44Zm6.71,12.51c-.2,.49-.68,.81-1.21,.81H6.56c-.72,0-1.31-.59-1.31-1.31v-5.89c0-.53,.32-1,.81-1.21,.49-.2,1.05-.09,1.42,.28l5.89,5.89c.38,.37,.49,.93,.28,1.42Z"/></g></g></svg>