<?xml version="1.0" encoding="UTF-8"?><svg fill="currentColor" xmlns="http://www.w3.org/2000/svg" viewBox="0 0 24 24"><g id="c"><g><path d="M21.5,7.99l-1.37-2.67-.92-1.78h0l-.46-.89c-.19-.37-.64-.51-1.01-.32-.37,.19-.51,.64-.32,1.01l.11,.22L6.64,9.18c-.37,.19-.51,.64-.32,1.01l1.83,3.56c.09,.18,.25,.31,.44,.37,.07,.02,.15,.04,.23,.04,.12,0,.24-.03,.34-.08l10.89-5.61,.11,.22c.13,.26,.4,.41,.67,.41,.12,0,.23-.03,.34-.08,.37-.19,.51-.64,.32-1.01Z"/><path d="M14.85,15.02c.55-.5,.9-1.22,.9-2.02,0-.2-.04-.4-.08-.6l-4.7,2.42c.06,.07,.11,.14,.18,.2l-2.82,5.64c-.19,.37-.04,.82,.34,1.01,.11,.05,.22,.08,.33,.08,.28,0,.54-.15,.67-.42l2.82-5.64c.17,.03,.34,.05,.51,.05s.34-.02,.51-.05l2.82,5.64c.13,.26,.4,.42,.67,.42,.11,0,.23-.03,.33-.08,.37-.19,.52-.64,.34-1.01l-2.82-5.64Z"/><path d="M4.38,12.59l-.6,.31-.11-.22c-.19-.37-.64-.51-1.01-.32-.37,.19-.51,.64-.32,1.01l.46,.89,.46,.89c.13,.26,.4,.41,.67,.41,.12,0,.23-.03,.34-.08,.37-.19,.51-.64,.32-1.01l-.11-.22,.61-.31c.3,.23,.67,.37,1.05,.37,.19,0,.38-.04,.56-.11l-1.57-3.05c-.48,.34-.75,.89-.74,1.46Z"/></g></g></svg>