<?xml version="1.0" encoding="UTF-8"?><svg fill="currentColor" xmlns="http://www.w3.org/2000/svg" viewBox="0 0 24 24"><g id="m"><path d="M17,6.25h-2c-.96,0-1.75,.79-1.75,1.75v1.25h-1.5v-3.25c0-.14,.11-.25,.25-.25h2c.41,0,.75-.34,.75-.75s-.34-.75-.75-.75h-2c-.96,0-1.75,.79-1.75,1.75v3.25h-1.5V4c0-.14,.11-.25,.25-.25h2c.41,0,.75-.34,.75-.75s-.34-.75-.75-.75h-2c-.96,0-1.75,.79-1.75,1.75v5.25h-.25c-.96,0-1.75,.79-1.75,1.75v4c0,.96,.79,1.75,1.75,1.75h.25v4.25c0,.41,.34,.75,.75,.75s.75-.34,.75-.75v-4.25h1.5v4.25c0,.41,.34,.75,.75,.75s.75-.34,.75-.75v-4.25h1.5v4.25c0,.41,.34,.75,.75,.75s.75-.34,.75-.75v-4.25h.25c.96,0,1.75-.79,1.75-1.75v-4c0-.96-.79-1.75-1.75-1.75h-.25v-1.25c0-.14,.11-.25,.25-.25h2c.41,0,.75-.34,.75-.75s-.34-.75-.75-.75Z"/></g></svg>