<?xml version="1.0" encoding="UTF-8"?><svg fill="currentColor" xmlns="http://www.w3.org/2000/svg" viewBox="0 0 24 24"><g id="g"><g><path d="M16,2.25H8c-.96,0-1.75,.79-1.75,1.75v3c0,.96,.79,1.75,1.75,1.75h.25v2.6l.64-.1,6.86-1.11v-1.4h.25c.96,0,1.75-.79,1.75-1.75v-3c0-.96-.79-1.75-1.75-1.75Z"/><polygon points="8.25 15.89 8.25 17.35 8.89 17.26 14.88 16.26 15.75 16.14 15.75 14.66 15.1 14.74 8.25 15.89"/><polygon points="9.12 12.74 8.25 12.87 8.25 14.36 14.88 13.26 15.75 13.14 15.75 11.64 15.11 11.74 9.12 12.74"/><path d="M9.12,18.74l-.87,.13v1.13c0,.96,.79,1.75,1.75,1.75h4c.96,0,1.75-.79,1.75-1.75v-2.35l-.65,.09-5.98,1Z"/></g></g></svg>