<?xml version="1.0" encoding="UTF-8"?><svg fill="currentColor" xmlns="http://www.w3.org/2000/svg" viewBox="0 0 24 24"><g id="p"><g><path d="M9.75,11.25h6v-2.25c0-.09-.01-.17-.03-.25h-5.97v2.5Z"/><polygon points="8.25 11.25 8.25 8.75 2.25 8.75 2.25 11.25 6 11.25 8.25 11.25"/><rect x="2.25" y="12.75" width="3" height="2.5"/><rect x="6.75" y="12.75" width="4.5" height="2.5"/><polygon points="9.75 16.75 9.75 20.75 14.25 20.75 14.25 16.75 12 16.75 9.75 16.75"/><path d="M21.72,16.75h-5.97v4h4.25c.96,0,1.75-.79,1.75-1.75v-2c0-.09-.01-.17-.03-.25Z"/><path d="M12.75,15.25h6v-2.25c0-.09-.01-.17-.03-.25h-5.97v2.5Z"/><path d="M2.25,16.75v2.25c0,.96,.79,1.75,1.75,1.75h4.25v-4H2.25Z"/><path d="M5.25,3.25h-1.25c-.96,0-1.75,.79-1.75,1.75v2.25h3V3.25Z"/><path d="M12.75,5c0-.96-.79-1.75-1.75-1.75H6.75V7.25h6v-2.25Z"/></g></g></svg>