<?xml version="1.0" encoding="UTF-8"?><svg fill="currentColor" xmlns="http://www.w3.org/2000/svg" viewBox="0 0 24 24"><g id="u"><g><path d="M21,17.25h-1c-.14,0-.25-.11-.25-.25v-5c0-.41-.34-.75-.75-.75s-.75,.34-.75,.75v3.25h-1.62c-.33-1.15-1.38-2-2.63-2H5c-1.52,0-2.75,1.23-2.75,2.75s1.23,2.75,2.75,2.75H14c1.25,0,2.3-.85,2.63-2h1.62v.25c0,.96,.79,1.75,1.75,1.75h1c.41,0,.75-.34,.75-.75s-.34-.75-.75-.75Z"/><path d="M10,9.25h4.72c-.07-.45-.24-.87-.52-1.23l-2-2.67c-.52-.69-1.34-1.1-2.2-1.1h-1.25v3.75c0,.69,.56,1.25,1.25,1.25Z"/><path d="M14,11.75c.26,0,.51,.03,.75,.08v-1.08h-4.75c-1.52,0-2.75-1.23-2.75-2.75v-3.75h-1.25c-.96,0-1.75,.79-1.75,1.75v5.83c.24-.04,.49-.08,.75-.08H14Z"/></g></g></svg>