<?xml version="1.0" encoding="UTF-8"?><svg fill="currentColor" xmlns="http://www.w3.org/2000/svg" viewBox="0 0 24 24"><g id="b"><g><path d="M10.21,7.36l-.51-.57-.34,1.72s-.03,.09-.07,.13L3.5,14.43c-1.66,1.66-1.66,4.35,0,6.01,.8,.8,1.87,1.24,3,1.24s2.2-.44,3-1.24l5.8-5.8s.08-.06,.13-.07l1.63-.32-.5-.55-6.34-6.34Zm-2.83,10.96c-.24,.24-.56,.36-.88,.36s-.64-.12-.88-.36c-.49-.49-.49-1.28,0-1.77,.49-.49,1.28-.49,1.77,0,.49,.49,.49,1.28,0,1.77Z"/><path d="M21.17,9.13L14.81,2.76c-.68-.68-1.79-.68-2.47,0l-1.91,1.91c-.11,.11-.2,.24-.28,.38l1.15,1.28,6.34,6.33,1.09,1.2c.2-.09,.39-.2,.54-.35l1.91-1.91c.68-.68,.68-1.79,0-2.47Z"/><path d="M21.06,6.12c0-.87-.34-1.68-.95-2.3-.78-.78-1.92-1.06-2.97-.85l3.84,3.84c.05-.23,.08-.46,.08-.7Z"/></g></g></svg>