<?xml version="1.0" encoding="UTF-8"?><svg fill="currentColor" xmlns="http://www.w3.org/2000/svg" viewBox="0 0 24 24"><g id="s"><g><path d="M19.97,4.08l-2.3-1.54c-.29-.19-.62-.29-.97-.29H7.3c-.35,0-.68,.1-.97,.29l-2.3,1.54c-.49,.33-.78,.87-.78,1.46v4.93c0,.59,.29,1.13,.78,1.46l2.3,1.54c.29,.19,.62,.29,.97,.29h9.39c.35,0,.68-.1,.97-.29l2.3-1.54c.49-.33,.78-.87,.78-1.46V5.54c0-.59-.29-1.13-.78-1.46Zm-4.97,5.67h-6c-.41,0-.75-.34-.75-.75s.34-.75,.75-.75h6c.41,0,.75,.34,.75,.75s-.34,.75-.75,.75Zm0-3h-6c-.41,0-.75-.34-.75-.75s.34-.75,.75-.75h6c.41,0,.75,.34,.75,.75s-.34,.75-.75,.75Z"/><path d="M9.25,20c0,.96,.79,1.75,1.75,1.75h2c.96,0,1.75-.79,1.75-1.75v-4.75h-5.5v4.75Z"/></g></g></svg>