<?xml version="1.0" encoding="UTF-8"?><svg fill="currentColor" xmlns="http://www.w3.org/2000/svg" viewBox="0 0 24 24"><g id="t"><g><rect x="11.25" y="14.25" width="9.5" height="7.5" rx="1.75" ry="1.75"/><path d="M21,4.75c.41,0,.75-.34,.75-.75s-.34-.75-.75-.75H6c-1.52,0-2.75,1.23-2.75,2.75v14.25h-.25c-.41,0-.75,.34-.75,.75s.34,.75,.75,.75h6c.41,0,.75-.34,.75-.75s-.34-.75-.75-.75h-.25V4.75h6.5v1.94l-3.93,3.93c-.36,.36-.47,.89-.27,1.36s.65,.77,1.15,.77h7.59c.51,0,.96-.3,1.15-.77s.09-1-.27-1.36l-3.93-3.93v-1.94h4.25Z"/></g></g></svg>