<?xml version="1.0" encoding="UTF-8"?><svg fill="currentColor" xmlns="http://www.w3.org/2000/svg" viewBox="0 0 24 24"><g id="n"><path d="M19,2.25H8c-.96,0-1.75,.79-1.75,1.75v1.25h-.25c-1.52,0-2.75,1.23-2.75,2.75v1c0,1.52,1.23,2.75,2.75,2.75h5c.69,0,1.25,.56,1.25,1.25v.25h-.25c-.96,0-1.75,.79-1.75,1.75v4c0,1.52,1.23,2.75,2.75,2.75s2.75-1.23,2.75-2.75v-4c0-.96-.79-1.75-1.75-1.75h-.25v-.25c0-1.52-1.23-2.75-2.75-2.75H6c-.69,0-1.25-.56-1.25-1.25v-1c0-.69,.56-1.25,1.25-1.25h.25v.25c0,.96,.79,1.75,1.75,1.75h11c.96,0,1.75-.79,1.75-1.75v-3c0-.96-.79-1.75-1.75-1.75Z"/></g></svg>