<?xml version="1.0" encoding="UTF-8"?><svg fill="currentColor" xmlns="http://www.w3.org/2000/svg" viewBox="0 0 24 24"><g id="j"><g><path d="M9,11.75h7c.96,0,1.75-.79,1.75-1.75v-2c0-.41-.34-.75-.75-.75h-5c-.14,0-.25-.11-.25-.25V3c0-.41-.34-.75-.75-.75h-1c-1.52,0-2.75,1.23-2.75,2.75v5c0,.96,.79,1.75,1.75,1.75Z"/><path d="M17.75,5.89v-.89c0-1.52-1.23-2.75-2.75-2.75h-1c-.41,0-.75,.34-.75,.75v2.75h3.75c.26,0,.51,.05,.75,.14Z"/><path d="M17.95,12.58c-.55,.41-1.22,.67-1.95,.67h-2.71l.62,1.24c.22,.45,.34,.95,.34,1.45v3.56c0,1.24,1.01,2.25,2.25,2.25s2.25-1.01,2.25-2.25v-4.29c0-.94-.28-1.85-.8-2.63Z"/><path d="M7.05,12.58c-.52,.78-.8,1.69-.8,2.63v4.29c0,1.24,1.01,2.25,2.25,2.25s2.25-1.01,2.25-2.25v-3.56c0-.5,.12-1,.34-1.45l.62-1.24h-2.71c-.74,0-1.41-.26-1.95-.67Z"/></g></g></svg>