<?xml version="1.0" encoding="UTF-8"?><svg fill="currentColor" xmlns="http://www.w3.org/2000/svg" viewBox="0 0 24 24"><g id="c"><g><path d="M21,7.25c-.41,0-.75,.34-.75,.75v.25h-4.25c-2.62,0-4.75,2.13-4.75,4.75v1.25h.68l2.17-.41c1.48-.28,1.62-.3,1.86-.32,.52-.02,1.03,.06,1.55,.23h2.74v.25c0,.41,.34,.75,.75,.75s.75-.34,.75-.75v-6c0-.41-.34-.75-.75-.75Z"/><path d="M3.25,13.09l.89,.17s.09,.02,.13,.04c1.23,.47,2.52,.79,3.83,.95h.66V6.7c.57-.12,1-.6,1-1.2V3.5c0-.69-.56-1.25-1.25-1.25H3.5c-.69,0-1.25,.56-1.25,1.25v2c0,.6,.43,1.08,1,1.2v6.39Z"/><path d="M14.38,15.31l-2.24,.43s-.11,0-.14,.01h-1.02c-.23,.3-.57,.5-.98,.5s-.75-.21-.98-.51h-1.02c-1.5-.18-2.88-.52-4.21-1.02l-.55-.1v.38c0,3.72,3.03,6.75,6.75,6.75s6.7-2.98,6.75-6.66c-.24-.06-.48-.08-.71-.07-.14,0-.34,.04-1.66,.29Z"/></g></g></svg>