<?xml version="1.0" encoding="UTF-8"?><svg fill="currentColor" xmlns="http://www.w3.org/2000/svg" viewBox="0 0 24 24"><g id="h"><g><rect x="6.25" y="3.25" width="11.5" height="4.5" rx="1.75" ry="1.75"/><path d="M20,11.25h-1c-.96,0-1.75,.79-1.75,1.75v.25h-2.5v-3.31c0-.23,.03-.47,.08-.69h-5.66c.05,.23,.08,.46,.08,.69v3.31h-2.5v-.25c0-.96-.79-1.75-1.75-1.75h-1c-.96,0-1.75,.79-1.75,1.75v6c0,.96,.79,1.75,1.75,1.75h1c.96,0,1.75-.79,1.75-1.75v-.25h10.5v.25c0,.96,.79,1.75,1.75,1.75h1c.96,0,1.75-.79,1.75-1.75v-6c0-.96-.79-1.75-1.75-1.75Z"/></g></g></svg>