<?xml version="1.0" encoding="UTF-8"?><svg fill="currentColor" xmlns="http://www.w3.org/2000/svg" viewBox="0 0 24 24"><g id="f"><g><path d="M20,2.25H7c-2.62,0-4.75,2.13-4.75,4.75v5c0,.96,.79,1.75,1.75,1.75H20c.96,0,1.75-.79,1.75-1.75V4c0-.96-.79-1.75-1.75-1.75ZM8,10.75h-2c-.41,0-.75-.34-.75-.75s.34-.75,.75-.75h2c.41,0,.75,.34,.75,.75s-.34,.75-.75,.75Zm0-3h-2c-.41,0-.75-.34-.75-.75s.34-.75,.75-.75h2c.41,0,.75,.34,.75,.75s-.34,.75-.75,.75Zm10.75,1.25c0,.96-.79,1.75-1.75,1.75h-5c-.96,0-1.75-.79-1.75-1.75v-2c0-.96,.79-1.75,1.75-1.75h5c.96,0,1.75,.79,1.75,1.75v2Z"/><rect x="11.75" y="6.75" width="5.5" height="2.5" rx=".25" ry=".25"/><path d="M4.66,15.67l1.07,.53-1.26,1.26c-.17,.17-.25,.41-.21,.65s.19,.44,.4,.55l1.07,.53-1.26,1.26c-.21,.21-.28,.54-.16,.82s.39,.46,.69,.46h5c.41,0,.75-.34,.75-.75v-5.75H4.31c.07,.18,.18,.33,.35,.42Z"/></g></g></svg>