<?xml version="1.0" encoding="UTF-8"?><svg fill="currentColor" xmlns="http://www.w3.org/2000/svg" viewBox="0 0 24 24"><g id="q"><g><rect x="2.25" y="13.25" width="19.5" height="7.5" rx="1.75" ry="1.75"/><path d="M10.13,11.75h3.74c-.4-.6-1.09-1-1.87-1s-1.46,.4-1.87,1Z"/><path d="M4.06,11.75h4.42c.52-1.45,1.89-2.5,3.52-2.5s3,1.05,3.52,2.5h4.48s.09,.01,.14,.01l-.73-.67s-.08-.2-.07-.26l.38-1.17c.12-.36,.08-.75-.11-1.07-.18-.32-.5-.55-.87-.64l-1.2-.27c-.06-.02-.17-.13-.19-.19l-.26-1.2c-.08-.37-.31-.69-.63-.88-.32-.19-.71-.23-1.07-.12l-1.17,.37c-.07,.02-.21-.02-.26-.07l-.82-.91c-.25-.28-.61-.44-.98-.44h0c-.37,0-.73,.16-.98,.44l-.83,.9s-.2,.09-.26,.07l-1.17-.38c-.36-.12-.75-.08-1.07,.11-.32,.18-.55,.5-.64,.87l-.27,1.2c-.02,.06-.13,.17-.19,.19l-1.2,.26c-.37,.08-.69,.31-.88,.63s-.23,.71-.12,1.07l.37,1.17c.02,.06-.02,.21-.07,.26l-.8,.72Z"/></g></g></svg>