<?xml version="1.0" encoding="UTF-8"?><svg fill="currentColor" xmlns="http://www.w3.org/2000/svg" viewBox="0 0 24 24"><g id="r"><g><path d="M2.47,17.64c-.14,.14-.22,.33-.22,.53v2.83c0,.41,.34,.75,.75,.75h2.83c.2,0,.39-.08,.53-.22l4.07-4.07-3.89-3.89-4.07,4.07Z"/><path d="M21.21,7.03l-4.24-4.24c-.33-.33-.77-.51-1.24-.51h0c-.47,0-.91,.18-1.24,.51l-4.95,4.95c-.08,.08-.14,.18-.18,.29l-.65,1.95-.76,.76-.18-.18c-.29-.29-.77-.29-1.06,0s-.29,.77,0,1.06l5.66,5.66c.15,.15,.34,.22,.53,.22s.38-.07,.53-.22c.29-.29,.29-.77,0-1.06l-.18-.18,.76-.76,1.95-.65c.11-.04,.21-.1,.29-.18l4.95-4.95c.33-.33,.51-.77,.51-1.24s-.18-.91-.51-1.24Zm-4.24,1.06l-4.24,4.24c-.15,.15-.34,.22-.53,.22s-.38-.07-.53-.22c-.29-.29-.29-.77,0-1.06l4.24-4.24c.29-.29,.77-.29,1.06,0s.29,.77,0,1.06Z"/></g></g></svg>