<?xml version="1.0" encoding="UTF-8"?><svg fill="currentColor" xmlns="http://www.w3.org/2000/svg" viewBox="0 0 24 24"><g id="l"><g><path d="M12,14.75c3.72,0,6.75-3.03,6.75-6.75S15.72,1.25,12,1.25s-6.75,3.03-6.75,6.75,3.03,6.75,6.75,6.75Zm-.53-7.28l2-2c.29-.29,.77-.29,1.06,0s.29,.77,0,1.06l-2,2c-.15,.15-.34,.22-.53,.22s-.38-.07-.53-.22c-.29-.29-.29-.77,0-1.06Z"/><path d="M15,17.25c-.14,0-.25-.11-.25-.25v-1.23c-.86,.31-1.78,.48-2.75,.48s-1.89-.18-2.75-.48v1.23c0,.14-.11,.25-.25,.25-1.52,0-2.75,1.23-2.75,2.75v1c0,.41,.34,.75,.75,.75h10c.41,0,.75-.34,.75-.75v-1c0-1.52-1.23-2.75-2.75-2.75Z"/></g></g></svg>