<?xml version="1.0" encoding="UTF-8"?><svg fill="currentColor" xmlns="http://www.w3.org/2000/svg" viewBox="0 0 24 24"><g id="o"><g><path d="M16,13.25h5.42l-2.49-4.15c-.31-.52-.89-.85-1.5-.85h-1.68v4.75c0,.14,.11,.25,.25,.25Z"/><path d="M16,14.75c-.96,0-1.75-.79-1.75-1.75v-4.75h-2.25c-.41,0-.75,.34-.75,.75v4.25H4c-.96,0-1.75,.79-1.75,1.75v2c0,.96,.79,1.75,1.75,1.75h1.28c.13,1.12,1.07,2,2.22,2s2.1-.88,2.22-2h4.55c.13,1.12,1.07,2,2.22,2s2.1-.88,2.22-2h1.78c.69,0,1.25-.56,1.25-1.25v-2.75h-5.75Zm-8.5,4.5c-.32,0-.6-.21-.7-.5h1.4c-.1,.29-.37,.5-.7,.5Zm9,0c-.32,0-.6-.21-.7-.5h1.4c-.1,.29-.37,.5-.7,.5Z"/><path d="M4,11.75h5.75v-2.75c0-1.24,1.01-2.25,2.25-2.25h.72c-.12-.85-.85-1.5-1.72-1.5H4c-.96,0-1.75,.79-1.75,1.75v4.46c0,.25,.06,.49,.16,.72,.47-.27,1.01-.43,1.59-.43Z"/></g></g></svg>