<?xml version="1.0" encoding="UTF-8"?><svg fill="currentColor" xmlns="http://www.w3.org/2000/svg" viewBox="0 0 24 24"><g id="i"><g><path d="M16.14,15.64c-.57-.05-1.16-.1-1.91-.35-.83-.28-2.09-.7-2.57-1.63-.35-.68-.14-1.44,.08-2.23,.26-.92,.55-1.97-.16-2.88-.51-.66-1.22-.71-1.78-.76-.47-.04-.92-.08-1.39-.4-.69-.48-.98-1.14-1.29-1.85-.36-.82-.76-1.76-1.84-2.22-.09-.04-.19-.06-.29-.06h-1c-.96,0-1.75,.79-1.75,1.75v13c0,.96,.79,1.75,1.75,1.75h15c.22,0,.43-.1,.57-.26,.14-.17,.2-.39,.17-.61-.17-1.05-.59-1.88-1.25-2.45-.76-.66-1.53-.72-2.35-.79Z"/><rect x="16.75" y="9.75" width="5" height="3.5"/><path d="M20,3.25h-7.25V7.59s.02,.02,.02,.03c.16,.21,.29,.42,.39,.63h8.58v-3.25c0-.96-.79-1.75-1.75-1.75Z"/><path d="M13.28,13.25h1.97v-3.5h-1.72c.02,.8-.18,1.54-.33,2.08-.12,.42-.28,.98-.19,1.14,.05,.1,.15,.19,.28,.28Z"/><path d="M19.47,15.3c.93,.81,1.52,1.93,1.75,3.34,.03,.2,.03,.41,0,.61,.32-.32,.52-.76,.52-1.24v-3.25h-3.07c.26,.14,.53,.32,.79,.55Z"/><path d="M9.27,6.14c.13,.09,.25,.11,.66,.14,.34,.03,.81,.07,1.32,.24V3.25h-3.67c.45,.58,.72,1.19,.93,1.68,.28,.65,.44,.99,.76,1.21Z"/></g></g></svg>