<?xml version="1.0" encoding="UTF-8"?><svg fill="currentColor" xmlns="http://www.w3.org/2000/svg" viewBox="0 0 24 24"><g id="k"><g><circle cx="9.5" cy="12.5" r="1.75"/><path d="M9.93,5.26c-4-.24-7.43,2.81-7.67,6.8-.12,1.93,.53,3.8,1.81,5.25,1.28,1.45,3.06,2.31,4.99,2.43,.15,0,.3,.01,.45,.01,1.77,0,3.46-.64,4.8-1.83,1.45-1.28,2.31-3.06,2.43-4.99,.12-1.93-.53-3.8-1.81-5.24-1.29-1.45-3.06-2.31-4.99-2.43Zm-.43,10.49c-1.79,0-3.25-1.46-3.25-3.25s1.46-3.25,3.25-3.25,3.25,1.46,3.25,3.25-1.46,3.25-3.25,3.25Z"/><path d="M21,7.25h-1.25v-2.25c0-.41-.34-.75-.75-.75s-.75,.34-.75,.75v.25h-3.86c.6,.41,1.16,.89,1.66,1.45,1.04,1.17,1.72,2.56,2.02,4.05h.18v.25c0,.41,.34,.75,.75,.75s.75-.34,.75-.75v-2.25h1.25c.41,0,.75-.34,.75-.75s-.34-.75-.75-.75Z"/></g></g></svg>