<?xml version="1.0" encoding="UTF-8"?><svg fill="currentColor" xmlns="http://www.w3.org/2000/svg" viewBox="0 0 24 24"><g id="p"><path d="M19,5.24h-.25v-1.25c0-.41-.34-.75-.75-.75s-.75,.34-.75,.75v1.25h-4.5v-1.25c0-.41-.34-.75-.75-.75s-.75,.34-.75,.75v1.25H6.75v-1.25c0-.41-.34-.75-.75-.75s-.75,.34-.75,.75v1.25h-.25c-1.52,0-2.75,1.23-2.75,2.75v10c0,1.52,1.23,2.75,2.75,2.75h14c1.52,0,2.75-1.23,2.75-2.75V7.99c0-1.52-1.23-2.75-2.75-2.75Zm-6,10.5H7c-.41,0-.75-.34-.75-.75s.34-.75,.75-.75h6c.41,0,.75,.34,.75,.75s-.34,.75-.75,.75Zm4-4H7c-.41,0-.75-.34-.75-.75s.34-.75,.75-.75h10c.41,0,.75,.34,.75,.75s-.34,.75-.75,.75Z"/></g></svg>