<?xml version="1.0" encoding="UTF-8"?><svg fill="currentColor" xmlns="http://www.w3.org/2000/svg" viewBox="0 0 24 24"><g id="b"><g><path d="M7.74,15.99c0,.69,.56,1.25,1.25,1.25h6c.69,0,1.25-.56,1.25-1.25s-.56-1.25-1.25-1.25h-6c-.69,0-1.25,.56-1.25,1.25Z"/><path d="M15.99,10.24h-.7c-.46,.8-1,1.56-1.62,2.25-.42,.48-1.04,.75-1.68,.75h3c1.52,0,2.75,1.23,2.75,2.75s-1.23,2.75-2.75,2.75h-6c-1.52,0-2.75-1.23-2.75-2.75s1.23-2.75,2.75-2.75h3c-.64,0-1.25-.27-1.68-.75-.62-.69-1.16-1.44-1.62-2.25h-.7c-3.17,0-5.75,2.58-5.75,5.75s2.58,5.75,5.75,5.75H15.99c3.17,0,5.75-2.58,5.75-5.75s-2.58-5.75-5.75-5.75Z"/><path d="M9.08,7.51c.14,.4,.31,.8,.49,1.18,.49,1.01,1.11,1.96,1.86,2.79,.14,.16,.34,.25,.56,.25s.42-.09,.56-.25c.75-.84,1.38-1.78,1.86-2.79,.18-.38,.35-.78,.49-1.18,.34-.98,.19-2.08-.41-2.94-.58-.83-1.47-1.31-2.54-1.32-.98,.01-1.88,.49-2.46,1.32-.6,.86-.75,1.96-.41,2.94h0Z"/></g></g></svg>