<?xml version="1.0" encoding="UTF-8"?><svg fill="currentColor" xmlns="http://www.w3.org/2000/svg" viewBox="0 0 24 24"><g id="r"><g><path d="M12.99,5.24h-3c-1.52,0-2.75,1.23-2.75,2.75v2c0,1.52,1.23,2.75,2.75,2.75h3c.96,0,1.75-.79,1.75-1.75V6.99c0-.96-.79-1.75-1.75-1.75Z"/><path d="M19.99,6.24h-3.85c.06,.24,.1,.49,.1,.75v4c0,.26-.04,.51-.1,.75h3.85c.96,0,1.75-.79,1.75-1.75v-2c0-.96-.79-1.75-1.75-1.75Z"/><path d="M5.74,7.99c0-.57,.12-1.12,.32-1.62-1.21,.31-2.18,1.21-2.59,2.37h2.27v-.75Z"/><path d="M5.77,10.24H2.99c-.41,0-.75,.34-.75,.75v6c0,1.52,1.23,2.75,2.75,2.75h2c1.52,0,2.75-1.23,2.75-2.75v-2.78c-2.14-.13-3.85-1.83-3.97-3.97Z"/><path d="M12.3,14.24h-2.12l1.28,1.28c.15,.15,.34,.22,.53,.22s.38-.07,.53-.22c.29-.29,.29-.77,0-1.06l-.22-.22Z"/></g></g></svg>