<?xml version="1.0" encoding="UTF-8"?><svg fill="currentColor" xmlns="http://www.w3.org/2000/svg" viewBox="0 0 24 24"><g id="g"><g><path d="M19.49,17.24h-4.5c-.69,0-1.25-.56-1.25-1.25v-.28c1.12-.13,2-1.07,2-2.22v-.75h-4.5v.75c0,.78,.4,1.46,1,1.87v.63c0,1.52,1.23,2.75,2.75,2.75h4.5c.41,0,.75,.34,.75,.75s-.34,.75-.75,.75H10.99c-1.24,0-2.25-1.01-2.25-2.25v-1.63c.6-.4,1-1.09,1-1.87v-.75H5.24v.75c0,1.15,.88,2.1,2,2.22v1.28c0,2.07,1.68,3.75,3.75,3.75h8.5c1.24,0,2.25-1.01,2.25-2.25s-1.01-2.25-2.25-2.25Z"/><path d="M5.24,12.24h4.5V5.99c0-1.52-1.23-2.75-2.75-2.75h-1.5c-1.79,0-3.25,1.46-3.25,3.25s1.32,3.11,3,3.24v2.51Z"/><path d="M15.74,8.73c1.68-.13,3-1.53,3-3.24,0-1.79-1.46-3.25-3.25-3.25h-1.5c-1.52,0-2.75,1.23-2.75,2.75v6.25h4.5v-2.51Z"/></g></g></svg>