<?xml version="1.0" encoding="UTF-8"?><svg fill="currentColor" xmlns="http://www.w3.org/2000/svg" viewBox="0 0 24 24"><g id="l"><g><path d="M16.49,8.73c.83,0,1.66-.32,2.3-.95,.61-.61,.95-1.43,.95-2.3s-.34-1.68-.95-2.3c-1.27-1.27-3.33-1.27-4.6,0-.61,.61-.95,1.43-.95,2.3s.34,1.68,.95,2.3c.63,.63,1.47,.95,2.3,.95Z"/><path d="M18.99,12.24h-2.5c-.08,0-.15-.04-.2-.1l-2.1-2.8c-.52-.69-1.34-1.1-2.2-1.1H7.53c-.59,0-1.13,.29-1.46,.78l-1.7,2.55c-.23,.34-.14,.81,.21,1.04,.35,.23,.81,.14,1.04-.21l1.7-2.55c.05-.07,.12-.11,.21-.11h.4l-.98,2.37c-.52,1.27-.05,2.7,1.13,3.4l.11,.06-.17,.21c-.24,.29-.59,.45-.96,.45H3.99c-.41,0-.75,.34-.75,.75s.34,.75,.75,.75h3.06c.82,0,1.59-.36,2.11-.99l.33-.39,1.14,.68c.38,.23,.61,.64,.61,1.07v2.87c0,.41,.34,.75,.75,.75s.75-.34,.75-.75v-2.87c0-.96-.51-1.86-1.33-2.36l-.94-.56,3.3-3.92,1.32,1.76c.33,.44,.85,.7,1.4,.7h2.5c.41,0,.75-.34,.75-.75s-.34-.75-.75-.75Z"/></g></g></svg>