<?xml version="1.0" encoding="UTF-8"?><svg fill="currentColor" xmlns="http://www.w3.org/2000/svg" viewBox="0 0 24 24"><g id="q"><g><path d="M6.21,10.47c.75-.84,1.38-1.78,1.86-2.79,.18-.39,.35-.78,.49-1.18,.34-.98,.19-2.08-.41-2.93-.58-.83-1.47-1.31-2.54-1.32-.98,.01-1.88,.49-2.46,1.32-.6,.86-.75,1.96-.41,2.94,.14,.4,.31,.8,.49,1.18,.49,1.02,1.11,1.96,1.86,2.79,.14,.16,.35,.25,.56,.25s.42-.09,.56-.25Z"/><path d="M20.83,14.57c-.58-.83-1.47-1.31-2.54-1.32-.98,.01-1.88,.49-2.46,1.32-.6,.86-.75,1.96-.41,2.94,.14,.4,.3,.8,.49,1.18,.49,1.01,1.11,1.95,1.86,2.79,.14,.16,.34,.25,.56,.25s.42-.09,.56-.25c.75-.84,1.38-1.78,1.86-2.79,.18-.38,.35-.78,.49-1.18,.34-.98,.19-2.08-.41-2.94Z"/><path d="M12.99,16.24h-4.83c-.78,0-1.42-.63-1.42-1.42,0-.69,.5-1.28,1.18-1.4l8.38-1.4c1.41-.24,2.44-1.45,2.44-2.88,0-1.61-1.31-2.92-2.92-2.92h-4.83c-.41,0-.75,.34-.75,.75s.34,.75,.75,.75h4.83c.78,0,1.42,.63,1.42,1.42,0,.69-.5,1.28-1.18,1.4l-8.38,1.4c-1.41,.24-2.44,1.45-2.44,2.88,0,1.61,1.31,2.92,2.92,2.92h4.83c.41,0,.75-.34,.75-.75s-.34-.75-.75-.75Z"/></g></g></svg>