<?xml version="1.0" encoding="UTF-8"?><svg fill="currentColor" xmlns="http://www.w3.org/2000/svg" viewBox="0 0 24 24"><g id="d"><g><path d="M13.99,6.24h-4c-.96,0-1.75,.79-1.75,1.75v9c0,.41,.34,.75,.75,.75h6c.41,0,.75-.34,.75-.75V7.99c0-.96-.79-1.75-1.75-1.75Z"/><path d="M6.74,9.24H3.99c-.96,0-1.75,.79-1.75,1.75v5c0,.96,.79,1.75,1.75,1.75h2.89c-.08-.24-.14-.49-.14-.75v-7.75Z"/><path d="M19.99,11.24h-2.75v5.75c0,.26-.05,.51-.14,.75h2.89c.96,0,1.75-.79,1.75-1.75v-3c0-.96-.79-1.75-1.75-1.75Z"/></g></g></svg>