<?xml version="1.0" encoding="UTF-8"?><svg fill="currentColor" xmlns="http://www.w3.org/2000/svg" viewBox="0 0 24 24"><g id="c"><g><path d="M19.92,17.71c-.75-.97-1.74-1.33-2.44-1.46-.09-.02-.16-.09-.2-.19v-.04l-2.05,.68c-.08,.03-.16,.04-.24,.04-.31,0-.61-.2-.71-.51-.13-.39,.08-.82,.47-.95l1.99-.66-.24-.67-2.27,.76c-.08,.03-.16,.04-.24,.04-.31,0-.61-.2-.71-.51-.13-.39,.08-.82,.47-.95l2.23-.75-.45-1.24c-.12-.33-.37-.6-.69-.74-.32-.14-.68-.15-1-.02-.4,.16-1.03,.31-1.74,.12-.77-.2-1.26-.69-1.54-1.07-.36-.49-.76-.89-1.18-1.2l-.51-.37c-.79-.58-1.81-.46-2.36,.29l-1.15,1.54,.67,.6c.08,.07,.15,.16,.19,.26,.31,.73,.71,1.29,1.23,1.71,.43,.35,.87,.55,1.3,.74,.69,.31,1.4,.63,1.88,1.46,.55,.95,.57,2.17,.06,3.63-.02,.06-.05,.11-.08,.16l-.5,.76,2.3,1.67c.82,.59,1.78,.91,2.79,.91h3.77c.49,0,.95-.2,1.28-.56,.33-.36,.5-.85,.46-1.34-.06-.79-.34-1.52-.81-2.13Z"/><path d="M8.15,14.51c-.49-.22-1.05-.47-1.62-.94-.67-.54-1.2-1.26-1.6-2.13l-.45-.4-.88,1.18c-.28,.38-.4,.84-.33,1.31,.07,.46,.32,.87,.7,1.15l4.95,3.6,.4-.62c.33-.98,.34-1.75,.03-2.29-.23-.4-.57-.57-1.2-.85Z"/><path d="M10.28,7.16c.55,.4,1.05,.91,1.5,1.52,.13,.18,.37,.42,.71,.51,.1,.03,.2,.04,.3,.04,.21,0,.39-.05,.51-.1,.33-.13,.67-.2,1.02-.2,.4,0,.78,.08,1.15,.25,.26,.12,.5,.29,.71,.48l3.6-6.3c.13-.23,.13-.52,0-.75-.13-.23-.38-.37-.65-.37H10.92c-.25,0-.49,.13-.62,.33l-2.38,3.57c.66,.02,1.3,.24,1.86,.64l.51,.37Z"/></g></g></svg>