<?xml version="1.0" encoding="UTF-8"?><svg fill="currentColor" xmlns="http://www.w3.org/2000/svg" viewBox="0 0 24 24"><g id="e"><g><path d="M8.92,7.39l.62,1.86h1.25l-.11-.21c-.19-.37-.04-.82,.34-1.01,.37-.18,.82-.04,1.01,.34l.44,.88h2l.62-1.86c-1.21-.53-2.34-.64-3.08-.64-1.29,0-2.36,.33-3.08,.64Z"/><path d="M18,2.25H6c-2.07,0-3.75,1.68-3.75,3.75v12c0,2.07,1.68,3.75,3.75,3.75h12c2.07,0,3.75-1.68,3.75-3.75V6c0-2.07-1.68-3.75-3.75-3.75Zm-1.43,5.4l-.75,2.24c-.17,.51-.65,.85-1.19,.85h-5.28c-.54,0-1.02-.34-1.19-.86l-.75-2.24c-.2-.6,.08-1.26,.65-1.53,2.45-1.14,5.41-1.14,7.85,0,.57,.26,.85,.92,.65,1.53Z"/></g></g></svg>