<?xml version="1.0" encoding="UTF-8"?><svg fill="currentColor" xmlns="http://www.w3.org/2000/svg" viewBox="0 0 24 24"><g id="s"><g><rect x="10.74" y="12.74" width="2.5" height="1.5" rx=".25" ry=".25"/><path d="M21.52,7.45l-2.33-2.33c-.52-.52-1.16-.91-1.86-1.15l-2.1-.7c-.38-.12-.78,.06-.93,.42-.39,.93-1.3,1.54-2.31,1.54s-1.92-.6-2.31-1.54c-.15-.36-.56-.55-.93-.42l-2.1,.7c-.7,.23-1.34,.63-1.86,1.15l-2.33,2.33c-.19,.19-.26,.46-.2,.71l1,4c.06,.24,.23,.43,.46,.52s.48,.06,.69-.08l1.83-1.22v8.6c0,.96,.79,1.75,1.75,1.75H15.99c.96,0,1.75-.79,1.75-1.75V11.39l1.83,1.22c.2,.13,.46,.16,.69,.08,.23-.09,.4-.28,.46-.52l1-4c.06-.26-.01-.53-.2-.71Zm-6.78,6.53c0,.96-.79,1.75-1.75,1.75h-2c-.96,0-1.75-.79-1.75-1.75v-1c0-.96,.79-1.75,1.75-1.75h2c.96,0,1.75,.79,1.75,1.75v1Z"/></g></g></svg>