<?xml version="1.0" encoding="UTF-8"?><svg fill="currentColor" xmlns="http://www.w3.org/2000/svg" viewBox="0 0 24 24"><g id="h"><g><path d="M5.24,18.29v.96c0,.6,.3,1.14,.79,1.46l12.71-8.09v-2.2l-13.5,7.88Z"/><path d="M17.99,8.92c-.8-.8-1.25-1.87-1.25-3.01V3.49c0-.69-.56-1.25-1.25-1.25h-1.06c-.59,0-1.1,.41-1.22,.99-.11,.59-.63,1.01-1.23,1.01s-1.11-.43-1.23-1.01c-.11-.57-.62-.99-1.22-.99h-1.06c-.69,0-1.25,.56-1.25,1.25v2.43c0,1.14-.44,2.2-1.25,3.01l-.24,.24c-.33,.33-.51,.78-.51,1.24v6.16l12.87-7.51-.13-.13Z"/><path d="M11.99,21.74c1.87,0,3.73-.27,5.52-.81,.73-.22,1.23-.9,1.23-1.67v-4.86l-10.84,6.9c1.34,.29,2.71,.44,4.09,.44Z"/></g></g></svg>