<?xml version="1.0" encoding="UTF-8"?><svg fill="currentColor" xmlns="http://www.w3.org/2000/svg" viewBox="0 0 24 24"><g id="f"><g><path d="M14.04,15.9l-1.75-1.05c-.37-.22-.61-.63-.61-1.07v-4.12H5.18v6.22c0,.89,.43,1.72,1.15,2.24l4.26,3.04c.56,.4,1.2,.59,1.83,.59,.95,0,1.89-.44,2.51-1.27,.53-.71,.74-1.62,.57-2.49s-.71-1.64-1.47-2.09Z"/><path d="M11.68,6.91c0-.96-.79-1.75-1.75-1.75h-3c-.96,0-1.75,.79-1.75,1.75v1.25h6.5v-1.25Z"/><path d="M18.51,15.08c-.17-.87-.71-1.64-1.47-2.09l-1.75-1.05c-.38-.23-.61-.64-.61-1.07V4c0-.96-.79-1.75-1.75-1.75h-3c-.85,0-1.56,.61-1.72,1.42h1.72c1.79,0,3.25,1.46,3.25,3.25v6.73l1.63,.98c1.13,.68,1.92,1.8,2.17,3.09,.04,.22,.05,.44,.06,.66,.34-.2,.65-.46,.9-.79,.53-.71,.74-1.62,.57-2.49Z"/></g></g></svg>