<?xml version="1.0" encoding="UTF-8"?><svg fill="currentColor" xmlns="http://www.w3.org/2000/svg" viewBox="0 0 24 24"><g id="u"><g><path d="M18.01,8.68c.83,0,1.66-.32,2.3-.95,.61-.61,.95-1.43,.95-2.3s-.34-1.68-.95-2.3c-1.27-1.27-3.33-1.27-4.6,0-1.27,1.27-1.27,3.33,0,4.6,.63,.63,1.47,.95,2.3,.95Z"/><path d="M21.37,9.85c-.29-.29-.77-.29-1.06,0l-2.12,2.12c-.1,.1-.26,.1-.35,0l-1.41-1.41-2.83-2.83h0l-.98-.98c-.47-.47-1.16-.63-1.79-.42l-3.66,1.22c-.39,.13-.6,.56-.47,.95,.13,.39,.56,.61,.95,.47l3.66-1.22c.09-.03,.19,0,.26,.06l.45,.45-3.01,3.01c-1.07,1.07-1.07,2.82,0,3.89l.88,.88-4.42,4.42c-.29,.29-.29,.77,0,1.06,.15,.15,.34,.22,.53,.22s.38-.07,.53-.22l4.42-4.42,.88,.88c.24,.24,.37,.55,.37,.88s-.13,.65-.37,.88l-.71,.71c-.29,.29-.29,.77,0,1.06,.15,.15,.34,.22,.53,.22s.38-.07,.53-.22l.71-.71c1.07-1.07,1.07-2.82,0-3.89l-.88-.88,3.89-3.89,.88,.88c.34,.34,.79,.51,1.24,.51s.9-.17,1.24-.51l2.12-2.12c.29-.29,.29-.77,0-1.06Z"/><path d="M4.99,11.74h2c.41,0,.75-.34,.75-.75s-.34-.75-.75-.75h-2c-.41,0-.75,.34-.75,.75s.34,.75,.75,.75Z"/><path d="M6.74,13.99c0-.41-.34-.75-.75-.75H2.99c-.41,0-.75,.34-.75,.75s.34,.75,.75,.75h3c.41,0,.75-.34,.75-.75Z"/><path d="M6.74,16.99c0-.41-.34-.75-.75-.75h-1c-.41,0-.75,.34-.75,.75s.34,.75,.75,.75h1c.41,0,.75-.34,.75-.75Z"/></g></g></svg>