<?xml version="1.0" encoding="UTF-8"?><svg fill="currentColor" xmlns="http://www.w3.org/2000/svg" viewBox="0 0 24 24"><g id="k"><g><path d="M21.41,5.61c.21-.14,.33-.37,.33-.62s-.13-.49-.33-.62l-3-2c-.23-.15-.53-.17-.77-.04s-.4,.38-.4,.66v5.25h-4.5v-.85l2.67-1.78c.21-.14,.33-.37,.33-.62s-.13-.49-.33-.62l-3-2c-.23-.15-.53-.17-.77-.04-.24,.13-.4,.38-.4,.66v5.25H6.74v-.85l2.67-1.78c.21-.14,.33-.37,.33-.62s-.13-.49-.33-.62l-3-2c-.23-.15-.53-.17-.77-.04-.24,.13-.4,.38-.4,.66v5.37c-1.15,.33-2,1.38-2,2.63v9c0,.96,.79,1.75,1.75,1.75h1.25v-5.75c0-1.52,1.23-2.75,2.75-2.75h6c1.52,0,2.75,1.23,2.75,2.75v5.75h1.25c.96,0,1.75-.79,1.75-1.75V10.99c0-1.25-.85-2.3-2-2.63v-.97l2.67-1.78Z"/><path d="M14.99,14.74h-2.25v7h3.5v-5.75c0-.69-.56-1.25-1.25-1.25Z"/><path d="M7.74,15.99v5.75h3.5v-7h-2.25c-.69,0-1.25,.56-1.25,1.25Z"/></g></g></svg>