<?xml version="1.0" encoding="UTF-8"?><svg fill="currentColor" xmlns="http://www.w3.org/2000/svg" viewBox="0 0 24 24"><g id="o"><g><path d="M4.01,20.27h0c-.26,0-.51-.06-.75-.14,.06,.91,.81,1.63,1.74,1.63h14c.93,0,1.68-.73,1.74-1.64-.24,.08-.48,.14-.74,.14l-15.99,.02Z"/><path d="M4.01,18.77h0l15.99-.02c.29,0,.55-.17,.68-.43,.68-1.43,1.04-2.88,1.07-4.3,.03-1.24-.19-2.23-.43-3.27-.24-1.06-.5-2.26-.57-4-.02-.49-.02-1.8-.01-2.73,0-.47-.18-.91-.51-1.24-.33-.33-.77-.52-1.24-.52h-.99c-.96,0-1.75,.79-1.75,1.75v4c0,2.34-1.91,4.25-4.25,4.25s-4.25-1.91-4.25-4.25V4c0-.96-.79-1.75-1.75-1.75h-.98c-.47,0-.91,.18-1.25,.52-.33,.33-.51,.77-.5,1.24,0,1.07,0,2.43-.02,2.95-.08,1.66-.34,2.81-.57,3.83-.23,1.03-.45,2-.43,3.22,.03,1.44,.39,2.89,1.08,4.33,.12,.26,.39,.43,.68,.43Z"/><path d="M9.25,8c0,1.52,1.23,2.75,2.75,2.75s2.75-1.23,2.75-2.75V4s0-.05,0-.08c-1.81,.42-3.7,.42-5.51,0,0,.03,0,.05,0,.08v4Z"/></g></g></svg>