<?xml version="1.0" encoding="UTF-8"?><svg fill="currentColor" xmlns="http://www.w3.org/2000/svg" viewBox="0 0 24 24"><g id="m"><g><path d="M7.99,3.74H15.99c.41,0,.75-.34,.75-.75s-.34-.75-.75-.75H7.99c-.41,0-.75,.34-.75,.75s.34,.75,.75,.75Z"/><path d="M11.99,4.24c-4.83,0-8.75,3.93-8.75,8.75s3.92,8.75,8.75,8.75,8.75-3.92,8.75-8.75-3.92-8.75-8.75-8.75Zm.75,8.75c0,.2-.08,.39-.22,.53l-3,3c-.15,.15-.34,.22-.53,.22s-.38-.07-.53-.22c-.29-.29-.29-.77,0-1.06l2.78-2.78v-3.69c0-.41,.34-.75,.75-.75s.75,.34,.75,.75v4Z"/></g></g></svg>