<?xml version="1.0" encoding="UTF-8"?><svg fill="currentColor" xmlns="http://www.w3.org/2000/svg" viewBox="0 0 24 24"><g id="i"><g><path d="M11.99,2.24c-3.72,0-6.75,3.03-6.75,6.75v4.25h3v-3.25c0-2.07,1.68-3.75,3.75-3.75,1.81,0,3.33,1.29,3.67,3h3.08v-.25c0-3.72-3.03-6.75-6.75-6.75Z"/><path d="M15.74,13.99c0,2.07-1.68,3.75-3.75,3.75-1.81,0-3.33-1.29-3.67-3h-3.08v.25c0,3.72,3.03,6.75,6.75,6.75s6.75-3.03,6.75-6.75v-4.25h-3v3.25Z"/><path d="M14.24,13.99v-4c0-1.24-1.01-2.25-2.25-2.25s-2.25,1.01-2.25,2.25v4c0,1.24,1.01,2.25,2.25,2.25s2.25-1.01,2.25-2.25Z"/></g></g></svg>