<?xml version="1.0" encoding="UTF-8"?><svg fill="currentColor" xmlns="http://www.w3.org/2000/svg" viewBox="0 0 24 24"><g id="n"><g><path d="M18.99,14.24H4.99c-1.52,0-2.75,1.23-2.75,2.75,0,1.25,.85,2.3,2,2.63v.37c0,.41,.34,.75,.75,.75s.75-.34,.75-.75v-.25h12.5v.25c0,.41,.34,.75,.75,.75s.75-.34,.75-.75v-.37c1.15-.33,2-1.38,2-2.63,0-1.52-1.23-2.75-2.75-2.75Z"/><path d="M12.99,7.74c.1,0,.2-.02,.3-.06l.95-.41v5.47h4.75c.18,0,.36,.03,.53,.05l-.75-7.47,1.51-.65c.38-.16,.56-.6,.39-.98-.16-.38-.6-.56-.99-.39l-7,3c-.38,.16-.56,.6-.39,.98,.12,.28,.4,.45,.69,.45Z"/></g></g></svg>