<?xml version="1.0" encoding="UTF-8"?><svg fill="currentColor" xmlns="http://www.w3.org/2000/svg" viewBox="0 0 24 24"><g id="t"><g><circle cx="8.99" cy="13.99" r="2.25"/><path d="M21,6.25c-.41,0-.75,.34-.75,.75v.24h-2.51v2.75c0,.41-.34,.75-.75,.75s-.75-.34-.75-.75v-2.75h-7.25c-2.04,0-3.95,.91-5.24,2.49-1.29,1.59-1.78,3.66-1.36,5.7,.53,2.55,2.6,4.62,5.16,5.16,.47,.1,.94,.15,1.4,.15,3.14,0,5.97-2.17,6.64-5.33,.1-.46,.5-.83,1-.92l3.65-.61v-.03h0v.16c0,.41,.34,.75,.75,.75s.75-.34,.75-.75V7c0-.41-.34-.75-.75-.75Zm-12.01,11.49c-2.07,0-3.75-1.68-3.75-3.75s1.68-3.75,3.75-3.75,3.75,1.68,3.75,3.75-1.68,3.75-3.75,3.75Z"/></g></g></svg>