<?xml version="1.0" encoding="UTF-8"?><svg fill="currentColor" xmlns="http://www.w3.org/2000/svg" viewBox="0 0 24 24"><g id="k"><g><path d="M11.12,10.06c-.29-.29-.77-.29-1.06,0s-.29,.77,0,1.06l2.83,2.83c.15,.15,.34,.22,.53,.22s.38-.07,.53-.22c.29-.29,.29-.77,0-1.06l-2.83-2.83Z"/><path d="M9.7,12.88c-.29-.29-.77-.29-1.06,0s-.29,.77,0,1.06l1.41,1.41c.15,.15,.34,.22,.53,.22s.38-.07,.53-.22c.29-.29,.29-.77,0-1.06l-1.41-1.41Z"/><path d="M13.94,8.64c-.29-.29-.77-.29-1.06,0s-.29,.77,0,1.06l1.41,1.41c.15,.15,.34,.22,.53,.22s.38-.07,.53-.22c.29-.29,.29-.77,0-1.06l-1.41-1.41Z"/><path d="M17.15,2.27c-3.97-.06-7.83,1.46-10.63,4.25S2.18,13.19,2.27,17.14c.06,2.51,2.07,4.53,4.59,4.59,.11,0,.22,0,.33,0,3.84,0,7.57-1.54,10.29-4.26,2.79-2.79,4.34-6.67,4.25-10.63-.06-2.51-2.07-4.53-4.59-4.59Zm-.04,1.5c1.68,.04,3.08,1.44,3.12,3.12,.01,.61-.03,1.22-.1,1.83-1.26-.1-2.46-.59-3.36-1.49s-1.44-2.1-1.52-3.36c.52-.06,1.04-.11,1.56-.11,.1,0,.2,0,.3,0ZM6.89,20.23c-1.68-.04-3.08-1.44-3.12-3.12-.01-.61,.03-1.22,.1-1.83,1.26,.09,2.46,.59,3.36,1.49,.9,.9,1.44,2.1,1.52,3.36-.62,.07-1.24,.12-1.86,.1Zm9.53-3.81c-1.71,1.71-3.87,2.88-6.19,3.44-.15-1.56-.82-3.03-1.94-4.15-1.12-1.11-2.59-1.8-4.15-1.94,.56-2.32,1.73-4.48,3.44-6.19,1.71-1.71,3.87-2.88,6.19-3.44,.15,1.56,.82,3.03,1.94,4.15,1.12,1.11,2.59,1.8,4.15,1.95-.56,2.32-1.73,4.48-3.44,6.19Z"/></g></g></svg>