<?xml version="1.0" encoding="UTF-8"?><svg fill="currentColor" xmlns="http://www.w3.org/2000/svg" viewBox="0 0 24 24"><g id="h"><path d="M20.15,12.25l-2.46-.98c-.12-.05-.18-.17-.15-.29l.8-3.19c.15-.6-.02-1.22-.46-1.66-.44-.44-1.06-.61-1.66-.46l-3.19,.8c-.11,.03-.25-.03-.29-.15l-.98-2.46c-.35-.86-1.16-1.41-2.09-1.41-.02,0-.05,0-.07,0-.95,.03-1.77,.63-2.07,1.54L3.93,14.77l-.58,.58c-.71,.71-1.1,1.65-1.1,2.65s.39,1.94,1.1,2.65c.71,.71,1.65,1.1,2.65,1.1s1.94-.39,2.65-1.1l.58-.58,10.8-3.6c.91-.3,1.51-1.11,1.54-2.07s-.53-1.8-1.41-2.16Zm-3.57-5.14c.11-.03,.2,.03,.24,.07s.1,.12,.07,.24l-.8,3.19c-.04,.17-.05,.34-.04,.5l-8.55,5.92-.53-.53L12.89,7.95c.17,0,.34,0,.5-.04l3.19-.8Zm-7.64-2.67c.15-.46,.57-.51,.69-.51,.1,0,.54,.02,.72,.47l.98,2.46c.06,.14,.13,.26,.22,.38L5.9,15.42l-.45-.45,3.51-10.53Zm-1.36,15.15c-.85,.85-2.33,.85-3.18,0-.42-.42-.66-.99-.66-1.59s.23-1.17,.66-1.59l.18-.18,3.18,3.18-.18,.18Zm11.96-4.54l-10.53,3.51-.45-.45,8.18-5.66c.12,.08,.24,.16,.38,.22l2.46,.98c.45,.18,.47,.6,.47,.72,0,.12-.05,.54-.51,.69Z"/></g></svg>