<?xml version="1.0" encoding="UTF-8"?><svg fill="currentColor" xmlns="http://www.w3.org/2000/svg" viewBox="0 0 24 24"><g id="i"><path d="M21.5,4.88l-2.12-2.12c-.68-.68-1.79-.68-2.48,0l-.88,.88-.18-.18c-.68-.68-1.79-.68-2.47,0l-1.41,1.41c-.68,.68-.68,1.79,0,2.47l.88,.88-4.6,4.6-.88-.88c-.68-.68-1.79-.68-2.48,0l-1.41,1.41c-.68,.68-.68,1.79,0,2.47l.18,.18-.88,.88c-.68,.68-.68,1.79,0,2.48l2.12,2.12c.34,.34,.79,.51,1.24,.51s.9-.17,1.24-.51l.88-.88,.18,.18c.33,.33,.77,.51,1.24,.51s.91-.18,1.24-.51l1.41-1.41h0c.68-.68,.68-1.79,0-2.48l-.88-.88,4.6-4.6,.88,.88c.34,.34,.79,.51,1.24,.51s.9-.17,1.24-.51l1.41-1.41c.33-.33,.51-.77,.51-1.24s-.18-.91-.51-1.24l-.18-.18,.88-.88c.68-.68,.68-1.79,0-2.47ZM6.3,20.44c-.1,.1-.26,.1-.35,0l-2.12-2.12c-.1-.1-.1-.26,0-.35l.88-.88,2.48,2.48-.88,.88Zm4.95-2.12l-1.41,1.41c-.13,.13-.23,.13-.35,0l-4.24-4.24h0l-.71-.71c-.1-.1-.1-.26,0-.35l1.41-1.41s.11-.07,.18-.07,.13,.02,.18,.07l4.95,4.95c.1,.1,.1,.26,0,.35Zm-.88-3.36l-1.06-1.06,4.6-4.6,1.06,1.06-4.6,4.6Zm9.37-5.13l-1.41,1.41c-.1,.1-.26,.1-.35,0l-3.53-3.54h0l-1.41-1.41c-.1-.1-.1-.26,0-.35l1.41-1.41s.11-.07,.18-.07,.13,.02,.18,.07l4.95,4.95c.06,.06,.07,.14,.07,.17s0,.11-.07,.18Zm-2.65-5.13l.88-.88c.1-.1,.26-.1,.35,0l2.12,2.12c.06,.06,.07,.14,.07,.18s0,.11-.07,.18l-.88,.88-2.48-2.48Z"/></g></svg>