<?xml version="1.0" encoding="UTF-8"?><svg fill="currentColor" xmlns="http://www.w3.org/2000/svg" viewBox="0 0 24 24"><g id="g"><path d="M21.75,5.89c.05-.98-.32-1.93-1.01-2.62s-1.65-1.06-2.62-1.01c-.98,.05-1.89,.51-2.51,1.27L5.2,16.23c-.38-.16-.8-.22-1.22-.15-.7,.11-1.29,.54-1.61,1.19l-.05,.11c-.42,.84-.26,1.86,.41,2.53l1.36,1.36c.42,.42,.98,.64,1.55,.64,.33,0,.67-.08,.98-.23l.11-.06c.64-.32,1.07-.91,1.18-1.61,.07-.42,.01-.84-.15-1.22l12.71-10.4c.76-.62,1.22-1.53,1.27-2.51ZM6.29,18.06c-.16,.13-.26,.33-.27,.54s.07,.42,.22,.57c.16,.16,.23,.38,.19,.6-.04,.22-.17,.41-.37,.51l-.11,.06c-.27,.13-.59,.08-.8-.13l-1.36-1.36c-.21-.21-.26-.53-.13-.8l.05-.11c.1-.2,.29-.34,.51-.37,.04,0,.08,0,.11,0,.18,0,.35,.07,.49,.2,.15,.15,.36,.24,.57,.22,.21-.01,.41-.11,.54-.27l1.38-1.69,.67,.67-1.69,1.38ZM19.53,7.24L9.15,15.73l-.88-.88L16.76,4.47c.36-.43,.86-.69,1.42-.72,.56-.03,1.09,.18,1.49,.57,.4,.4,.6,.93,.57,1.49-.03,.56-.28,1.07-.72,1.42Z"/></g></svg>