<?xml version="1.0" encoding="UTF-8"?><svg fill="currentColor" xmlns="http://www.w3.org/2000/svg" viewBox="0 0 24 24"><g id="s"><path d="M19.62,18.06c1.33-1.67,2.13-3.77,2.13-6.06s-.82-4.45-2.17-6.13c-.01-.02-.02-.03-.04-.05-1.79-2.18-4.5-3.58-7.54-3.58s-5.75,1.39-7.54,3.58c-.01,.02-.03,.03-.04,.05-1.36,1.68-2.17,3.8-2.17,6.12s.8,4.39,2.13,6.06c.02,.03,.04,.06,.07,.09,1.79,2.19,4.51,3.6,7.55,3.6s5.77-1.4,7.55-3.6c.03-.03,.05-.06,.07-.09Zm-.87-1.33c-.53-.25-1.01-.59-1.43-.99l.21-.21c.29-.29,.29-.77,0-1.06s-.77-.29-1.06,0l-.06,.06c-.3-.55-.51-1.14-.6-1.78h.19c.41,0,.75-.34,.75-.75s-.34-.75-.75-.75h-.19c.09-.63,.3-1.23,.6-1.78l.06,.06c.15,.15,.34,.22,.53,.22s.38-.07,.53-.22c.29-.29,.29-.77,0-1.06l-.21-.21c.41-.4,.89-.74,1.43-.99,.94,1.34,1.5,2.97,1.5,4.73s-.56,3.39-1.5,4.73ZM5.25,7.27c.53,.25,1.01,.59,1.43,.99l-.21,.21c-.29,.29-.29,.77,0,1.06,.15,.15,.34,.22,.53,.22s.38-.07,.53-.22l.06-.06c.3,.55,.51,1.14,.6,1.78h-.19c-.41,0-.75,.34-.75,.75s.34,.75,.75,.75h.19c-.09,.63-.3,1.23-.6,1.78l-.06-.06c-.29-.29-.77-.29-1.06,0s-.29,.77,0,1.06l.21,.21c-.41,.4-.89,.74-1.43,.99-.94-1.34-1.5-2.97-1.5-4.73s.56-3.39,1.5-4.73Zm1.01,10.64c.55-.3,1.04-.68,1.48-1.11l.15,.15c.15,.15,.34,.22,.53,.22s.38-.07,.53-.22c.29-.29,.29-.77,0-1.06l-.27-.27c.55-.86,.9-1.83,1.01-2.87h.31c.41,0,.75-.34,.75-.75s-.34-.75-.75-.75h-.31c-.12-1.04-.47-2.01-1.01-2.87l.27-.27c.29-.29,.29-.77,0-1.06s-.77-.29-1.06,0l-.15,.15c-.44-.43-.93-.81-1.48-1.11,1.49-1.45,3.51-2.34,5.74-2.34s4.26,.89,5.74,2.34c-.55,.3-1.04,.68-1.48,1.12l-.15-.15c-.29-.29-.77-.29-1.06,0s-.29,.77,0,1.06l.27,.27c-.55,.86-.9,1.83-1.01,2.87h-.31c-.41,0-.75,.34-.75,.75s.34,.75,.75,.75h.31c.12,1.04,.47,2.01,1.01,2.87l-.27,.27c-.29,.29-.29,.77,0,1.06,.15,.15,.34,.22,.53,.22s.38-.07,.53-.22l.15-.15c.44,.43,.93,.81,1.48,1.11-1.49,1.45-3.51,2.34-5.74,2.34s-4.26-.89-5.74-2.34Z"/></g></svg>