<?xml version="1.0" encoding="UTF-8"?><svg fill="currentColor" xmlns="http://www.w3.org/2000/svg" viewBox="0 0 24 24"><g id="u"><path d="M18.89,5.11c-1.84-1.84-4.29-2.86-6.89-2.86s-5.05,1.01-6.89,2.86c-1.84,1.84-2.86,4.29-2.86,6.89s1.01,5.05,2.86,6.89c1.84,1.84,4.29,2.86,6.89,2.86s5.05-1.01,6.89-2.86c1.84-1.84,2.86-4.29,2.86-6.89s-1.01-5.05-2.86-6.89Zm-4.49-1c1.05,.32,2.02,.84,2.87,1.56l-2.4,2.4c-.8-1.15-.98-2.64-.47-3.96Zm3.93,2.62c.71,.85,1.24,1.82,1.56,2.87-1.31,.51-2.8,.33-3.96-.47l2.4-2.4Zm-5.42-2.92c-.6,1.8-.27,3.81,.89,5.32l-1.81,1.81L6.72,5.66c1.48-1.24,3.33-1.91,5.28-1.91,.31,0,.62,.02,.92,.05Zm-7.26,2.92l5.28,5.28-1.81,1.81c-1.52-1.16-3.52-1.49-5.32-.89-.03-.3-.05-.61-.05-.92,0-1.95,.68-3.8,1.91-5.28Zm3.93,13.17c-1.05-.32-2.02-.84-2.87-1.56l2.4-2.4c.8,1.15,.98,2.64,.47,3.96Zm-5.49-5.49c1.31-.51,2.8-.33,3.95,.47l-2.4,2.4c-.71-.85-1.24-1.82-1.56-2.87Zm6.98,5.79c.6-1.8,.27-3.81-.89-5.32l1.81-1.81,5.28,5.28c-1.48,1.24-3.33,1.91-5.28,1.91-.31,0-.62-.02-.92-.05Zm7.26-2.92l-5.28-5.28,1.82-1.82c1.02,.78,2.24,1.2,3.49,1.2,.61,0,1.23-.11,1.82-.31,.03,.31,.06,.61,.06,.92,0,1.95-.68,3.8-1.91,5.28Z"/></g></svg>