<?xml version="1.0" encoding="UTF-8"?><svg fill="currentColor" xmlns="http://www.w3.org/2000/svg" viewBox="0 0 24 24"><g id="l"><path d="M21.48,9.76s0-.01,0-.02c0-.01-.01-.02-.01-.03-.95-3.93-4.29-6.95-8.4-7.4h0c-.35-.04-.7-.06-1.06-.06C6.62,2.25,2.25,6.62,2.25,12c0,1.23,.24,2.4,.66,3.49,0,.03,.02,.05,.03,.07,.49,1.25,1.23,2.39,2.17,3.32,.05,.06,.1,.11,.17,.15,1.75,1.68,4.12,2.71,6.73,2.71,5.38,0,9.75-4.37,9.75-9.75,0-.77-.1-1.52-.27-2.24Zm-1.72-.53c-.09,0-.17,.02-.26,.02-3.02,0-5.5-2.34-5.73-5.3,2.78,.61,5.04,2.64,5.99,5.28Zm-2.47,4.53c-1.43,4.06-5.21,5.76-6.77,6.31-.03,0-.05,.03-.07,.04-1.24-.24-2.38-.76-3.36-1.48,1.19-.56,2.31-1.24,3.36-2.01,2.36-1.76,4.25-4.02,5.68-6.69,.53,.28,1.1,.49,1.69,.63,0,1.11-.17,2.18-.53,3.2Zm-12.87,1.5c.68-1.58,1.91-3.76,4.08-5.7,1.33-1.19,2.85-2.14,4.51-2.84,.45,.91,1.09,1.72,1.86,2.36-1.33,2.53-3.11,4.67-5.32,6.32-1.13,.84-2.37,1.54-3.67,2.11-.6-.67-1.1-1.42-1.46-2.26ZM12,3.75c.09,0,.18,.01,.26,.01,.02,.53,.1,1.05,.22,1.54-1.84,.77-3.52,1.82-4.99,3.13-1.46,1.31-2.71,2.89-3.67,4.63-.05-.35-.08-.7-.08-1.07C3.75,7.45,7.45,3.75,12,3.75Zm2.05,16.23c1.76-1.14,3.68-2.95,4.66-5.73,.4-1.12,.6-2.3,.61-3.51,.06,0,.12,0,.18,0,.21,0,.43-.01,.64-.03,.07,.42,.11,.84,.11,1.28,0,3.84-2.64,7.07-6.2,7.98Z"/></g></svg>