<?xml version="1.0" encoding="UTF-8"?><svg fill="currentColor" xmlns="http://www.w3.org/2000/svg" viewBox="0 0 24 24"><g id="c"><path d="M16.68,15.9c-.17-1.21-.58-2.02-1.05-2.95-.31-.6-.65-1.29-.99-2.21-.43-1.19-.72-2.44-.86-3.72,.55-.5,.91-1.22,.91-2.03,0-1.52-1.23-2.75-2.75-2.75s-2.75,1.23-2.75,2.75c0,.8,.35,1.52,.91,2.03-.14,1.28-.43,2.53-.86,3.72-.33,.92-.68,1.6-.99,2.21-.47,.93-.88,1.73-1.05,2.95-.22,1.53,.05,3.16,.78,4.83,.27,.62,.9,1.03,1.59,1.03h4.73c.7,0,1.32-.4,1.59-1.03,.74-1.67,1-3.3,.78-4.83ZM11.93,3.75c.69,0,1.25,.56,1.25,1.25s-.56,1.25-1.25,1.25-1.25-.56-1.25-1.25,.56-1.25,1.25-1.25Zm0,4c.14,0,.28-.02,.42-.04,.12,.86,.3,1.71,.55,2.54h-1.93c.25-.83,.43-1.68,.55-2.54,.14,.02,.27,.04,.42,.04Zm2.59,12.37c-.03,.08-.13,.13-.22,.13h-4.73c-.1,0-.19-.05-.22-.13-.62-1.41-.85-2.76-.67-4.02,.14-.96,.46-1.6,.9-2.48,.27-.53,.57-1.13,.87-1.88h2.97c.3,.75,.6,1.35,.87,1.88,.45,.88,.77,1.51,.9,2.48,.18,1.25-.05,2.6-.67,4.02Z"/></g></svg>