<?xml version="1.0" encoding="UTF-8"?><svg fill="currentColor" xmlns="http://www.w3.org/2000/svg" viewBox="0 0 24 24"><g id="t"><g><path d="M18.89,5.11c-1.84-1.84-4.29-2.86-6.89-2.86s-5.05,1.01-6.89,2.86c-1.84,1.84-2.86,4.29-2.86,6.89s1.01,5.05,2.86,6.89c1.84,1.84,4.29,2.86,6.89,2.86s5.05-1.01,6.89-2.86c1.84-1.84,2.86-4.29,2.86-6.89s-1.01-5.05-2.86-6.89Zm-1.06,12.73c-1.56,1.56-3.63,2.42-5.83,2.42s-4.28-.86-5.83-2.42c-1.56-1.56-2.42-3.63-2.42-5.83s.86-4.28,2.42-5.83c1.56-1.56,3.63-2.42,5.83-2.42s4.28,.86,5.83,2.42c1.56,1.56,2.42,3.63,2.42,5.83s-.86,4.28-2.42,5.83Z"/><path d="M15.75,7.5c0-.69-.56-1.25-1.25-1.25s-1.25,.56-1.25,1.25,.56,1.25,1.25,1.25,1.25-.56,1.25-1.25Zm-1.5,0c0-.14,.11-.25,.25-.25s.25,.11,.25,.25c0,.28-.5,.28-.5,0Z"/><path d="M15.5,11.25c-.69,0-1.25,.56-1.25,1.25s.56,1.25,1.25,1.25,1.25-.56,1.25-1.25-.56-1.25-1.25-1.25Zm-.25,1.25c0-.14,.11-.25,.25-.25s.25,.11,.25,.25c0,.28-.5,.28-.5,0Z"/><path d="M10.5,8.25c-.69,0-1.25,.56-1.25,1.25s.56,1.25,1.25,1.25,1.25-.56,1.25-1.25-.56-1.25-1.25-1.25Zm-.25,1.25c0-.14,.11-.25,.25-.25s.25,.11,.25,.25c0,.28-.5,.28-.5,0Z"/></g></g></svg>