<?xml version="1.0" encoding="UTF-8"?><svg fill="currentColor" xmlns="http://www.w3.org/2000/svg" viewBox="0 0 24 24"><g id="f"><path d="M21.29,13.08l-1.07-1.61c-.35-.53-.88-.9-1.47-1.08v-1.39c0-.78-.51-1.44-1.21-1.66l-1.59-3.99c-.27-.67-.9-1.1-1.63-1.1h-5.32c-.96,0-1.75,.79-1.75,1.75s.79,1.75,1.75,1.75h3.28c.11,0,.2,.07,.24,.17l.44,1.33H7c-.96,0-1.75,.79-1.75,1.75v1.39c-.59,.19-1.11,.55-1.47,1.08l-1.07,1.6c-.3,.45-.46,.98-.46,1.53v2.79c0,.55,.16,1.07,.46,1.53l1.07,1.61c.51,.77,1.37,1.22,2.29,1.22h11.86c.92,0,1.78-.46,2.29-1.22l1.07-1.6c.3-.45,.46-.98,.46-1.53v-2.79c0-.55-.16-1.07-.46-1.53Zm-1.29,4.17H4c-.09,0-.17,.02-.25,.05v-2.6c.08,.03,.16,.05,.25,.05H20c.09,0,.17-.02,.25-.05v2.6c-.08-.03-.16-.05-.25-.05ZM7,8.75h7c.24,0,.47-.12,.61-.31s.18-.45,.1-.68l-.77-2.32c-.24-.72-.91-1.2-1.66-1.2h-3.28c-.14,0-.25-.11-.25-.25s.11-.25,.25-.25h5.32c.1,0,.19,.06,.23,.16l1.75,4.37c.11,.29,.39,.47,.7,.47,.14,0,.25,.11,.25,.25v1.25H6.75v-1.25c0-.14,.11-.25,.25-.25Zm-.93,3h11.86c.42,0,.81,.21,1.04,.56l.63,.94H4.4l.63-.94c.23-.35,.62-.56,1.04-.56Zm11.86,8.5H6.07c-.42,0-.81-.21-1.04-.56l-.63-.94h15.2l-.63,.94c-.23,.35-.62,.56-1.04,.56Z"/></g></svg>