<?xml version="1.0" encoding="UTF-8"?><svg fill="currentColor" xmlns="http://www.w3.org/2000/svg" viewBox="0 0 24 24"><g id="n"><g><path d="M12,2.25C6.62,2.25,2.25,6.62,2.25,12s4.37,9.75,9.75,9.75,9.75-4.37,9.75-9.75S17.38,2.25,12,2.25Zm0,18c-4.55,0-8.25-3.7-8.25-8.25S7.45,3.75,12,3.75s8.25,3.7,8.25,8.25-3.7,8.25-8.25,8.25Z"/><path d="M12,5.25c-3.72,0-6.75,3.03-6.75,6.75,0,2.73,1.63,5.08,3.96,6.14h0s.01,.01,.02,.01c.84,.38,1.78,.6,2.76,.6s1.92-.22,2.76-.6c0,0,.01,0,.02,0h0c2.33-1.07,3.96-3.42,3.96-6.15,0-3.72-3.03-6.75-6.75-6.75Zm0,1.5c1.63,0,3.08,.77,4.04,1.94-2.66-.57-5.42-.57-8.08,0,.96-1.17,2.41-1.94,4.04-1.94Zm-4.93,7.01c1.21,.04,2.18,1.03,2.18,2.24,0,.14-.03,.28-.06,.42-.98-.62-1.72-1.56-2.12-2.66Zm3.53,3.28c.1-.34,.15-.68,.15-1.04,0-2.07-1.68-3.75-3.75-3.75-.07,0-.15,.02-.22,.03,0-.09-.03-.18-.03-.28,0-.53,.1-1.04,.25-1.52,3.25-.95,6.75-.95,10,0,.15,.48,.25,.99,.25,1.52,0,.09-.02,.18-.03,.27-.07,0-.15-.02-.22-.02-2.07,0-3.75,1.68-3.75,3.75,0,.35,.05,.7,.15,1.04-.45,.13-.91,.21-1.4,.21s-.95-.09-1.4-.21Zm4.21-.61c-.03-.14-.06-.28-.06-.42,0-1.22,.97-2.2,2.18-2.24-.4,1.11-1.14,2.04-2.12,2.66Z"/><path d="M12.02,11.25h-.01c-.41,0-.74,.34-.74,.75s.34,.75,.75,.75,.75-.34,.75-.75-.34-.75-.75-.75Z"/></g></g></svg>