<?xml version="1.0" encoding="UTF-8"?><svg fill="currentColor" xmlns="http://www.w3.org/2000/svg" viewBox="0 0 24 24"><g id="q"><path d="M19.32,18.42c1.51-1.72,2.43-3.96,2.43-6.42s-.93-4.72-2.45-6.44c-.03-.04-.07-.08-.1-.11-1.78-1.96-4.35-3.2-7.2-3.2s-5.44,1.25-7.23,3.23c-.03,.03-.06,.06-.09,.1-1.51,1.72-2.43,3.96-2.43,6.42s.92,4.69,2.42,6.41c.04,.07,.1,.12,.16,.17,1.78,1.94,4.33,3.17,7.17,3.17s5.4-1.23,7.19-3.19c.05-.04,.09-.09,.13-.14Zm-8.49-4.17l-1.3-2.25,1.3-2.25h2.52l1.28,2.22-1.32,2.28h-2.48Zm-6.51,.74l2.57-2.24h1.27l1.29,2.23-.67,1.07-3.23,1.07c-.51-.64-.93-1.36-1.23-2.14Zm-.57-2.99c0-.5,.05-.98,.14-1.45l1.61,1.43-1.62,1.41c-.08-.45-.13-.91-.13-1.38Zm1.82-5.15l3.17,.83,.76,1.32-1.3,2.25h-1.26l-2.59-2.31c.3-.76,.72-1.47,1.22-2.1Zm3.16-.72l-1.95-.51c.72-.59,1.55-1.05,2.44-1.37l-.49,1.89Zm.05,11.5l.46,2.13c-.93-.33-1.79-.82-2.53-1.44l2.07-.69Zm10.93-8.55l-2.47,2.17h-1.22l-1.28-2.22,.8-1.12,2.92-1.02c.52,.66,.94,1.4,1.25,2.2Zm.54,2.92c0,.47-.05,.92-.12,1.37l-1.5-1.35,1.51-1.32c.07,.42,.11,.86,.11,1.3Zm-4.7-5.69l-.5-1.97c.83,.33,1.59,.79,2.26,1.35l-1.76,.62Zm0,11.21l1.8,.74c-.69,.59-1.48,1.07-2.34,1.41l.54-2.15Zm.01-1.62l-.81-.97,1.26-2.19h1.17l2.49,2.24c-.3,.76-.71,1.47-1.21,2.11l-2.9-1.19ZM13.39,3.88l.82,3.23-.81,1.14h-2.57l-.75-1.31,.81-3.11c.37-.05,.74-.09,1.12-.09,.47,0,.93,.05,1.39,.13Zm-2.52,16.29l-.73-3.35,.67-1.06h2.59l.82,.98-.86,3.4c-.44,.07-.89,.12-1.35,.12-.39,0-.77-.04-1.14-.09Z"/></g></svg>