<?xml version="1.0" encoding="UTF-8"?><svg fill="currentColor" xmlns="http://www.w3.org/2000/svg" viewBox="0 0 24 24"><g id="d"><g><path d="M9.93,17.25h-1.49c-.56,0-1.05-.37-1.2-.91L4.02,5.07c-.03-.1,.01-.18,.04-.22s.09-.1,.2-.1h2.89c.11,0,.21,.08,.24,.19l1.43,5.73c.31,1.23,1.4,2.08,2.67,2.08h6.66c.33,0,.65,.13,.88,.36,.24,.24,.37,.56,.37,.88,0,.41,.33,.75,.75,.75h0c.41,0,.75-.33,.75-.75,0-.72-.29-1.43-.81-1.95-.52-.52-1.21-.8-1.94-.8h-6.66c-.57,0-1.07-.39-1.21-.95l-1.43-5.73c-.2-.78-.89-1.33-1.7-1.33h-2.89c-.55,0-1.06,.25-1.4,.7-.33,.44-.44,1-.29,1.53l3.22,11.28c.34,1.17,1.42,1.99,2.64,1.99h1.49c.41,0,.75-.34,.75-.75s-.34-.75-.75-.75Z"/><path d="M19.43,15.25h-6c-1.24,0-2.25,1.01-2.25,2.25v1c0,1.24,1.01,2.25,2.25,2.25h6c1.24,0,2.25-1.01,2.25-2.25v-1c0-1.24-1.01-2.25-2.25-2.25Zm.75,3.25c0,.41-.34,.75-.75,.75h-6c-.41,0-.75-.34-.75-.75v-1c0-.41,.34-.75,.75-.75h6c.41,0,.75,.34,.75,.75v1Z"/></g></g></svg>