<?xml version="1.0" encoding="UTF-8"?><svg fill="currentColor" xmlns="http://www.w3.org/2000/svg" viewBox="0 0 24 24"><g id="e"><path d="M21,6.25h-2.41l-.33-1.3c-.4-1.59-1.82-2.7-3.45-2.7-1.96,0-3.56,1.6-3.56,3.56v12.38c0,1.13-.92,2.06-2.06,2.06-.95,0-1.77-.64-2-1.56l-.24-.94h1.04c.41,0,.75-.34,.75-.75s-.34-.75-.75-.75h-.25v-3.75c0-1.24-1.01-2.25-2.25-2.25s-2.25,1.01-2.25,2.25v3.75h-.25c-.41,0-.75,.34-.75,.75s.34,.75,.75,.75h2.41l.33,1.3c.4,1.59,1.82,2.7,3.45,2.7,1.96,0,3.56-1.6,3.56-3.56V5.81c0-1.13,.92-2.06,2.06-2.06,.95,0,1.77,.64,2,1.56l.24,.94h-1.04c-.41,0-.75,.34-.75,.75s.34,.75,.75,.75h.25v3.75c0,1.24,1.01,2.25,2.25,2.25s2.25-1.01,2.25-2.25v-3.75h.25c.41,0,.75-.34,.75-.75s-.34-.75-.75-.75ZM4.75,12.5c0-.41,.34-.75,.75-.75s.75,.34,.75,.75v3.75h-1.5v-3.75Zm14.5-1c0,.41-.34,.75-.75,.75s-.75-.34-.75-.75v-3.75h1.5v3.75Z"/></g></svg>