<?xml version="1.0" encoding="UTF-8"?><svg fill="currentColor" xmlns="http://www.w3.org/2000/svg" viewBox="0 0 24 24"><g id="j"><path d="M19.6,5.04l-.64-.64c-1.45-1.45-3.33-2.19-5.37-2.16-2.01,.05-3.87,.92-5.3,2.51-.78,.87-1.48,1.82-2.08,2.82-.33,.54-.74,1.78-.77,1.91h0c-.09,.41-.12,.8-.15,1.18l-.02,4.23c0,.38-.17,.74-.47,.98l-1.91,1.53c-.39,.31-.63,.77-.65,1.27-.03,.5,.16,.98,.51,1.33l1.25,1.25c.33,.33,.78,.51,1.24,.51,.03,0,.06,0,.1,0,.5-.03,.96-.26,1.27-.65l1.53-1.91c.24-.3,.59-.47,.98-.47h3.89c.51,0,1.03-.06,1.52-.17h.01c.07-.02,1.31-.41,1.9-.77,1-.61,1.95-1.31,2.89-2.14,1.52-1.37,2.39-3.23,2.44-5.24,.05-2.01-.72-3.92-2.16-5.36Zm-10.49,12.19c-.84,0-1.62,.38-2.15,1.03l-1.53,1.91c-.06,.08-.14,.09-.18,.09-.04,0-.12,0-.19-.07l-1.25-1.25c-.07-.07-.08-.15-.07-.19,0-.04,.02-.12,.09-.18l1.91-1.53c.66-.52,1.03-1.31,1.03-2.15v-3.59l2.96,2.96,2.97,2.97h-3.59Zm9.15-2.64c-.8,.71-1.67,1.36-2.59,1.92-.24,.14-.74,.33-1.1,.46l-.52-.52-7.01-7.01c.13-.37,.33-.88,.46-1.1,.56-.92,1.2-1.79,1.98-2.66,1.09-1.21,2.57-1.91,4.17-1.95,1.6-.06,3.11,.57,4.27,1.72l.64,.64c1.15,1.15,1.77,2.67,1.72,4.26s-.73,3.08-2.01,4.23Z"/></g></svg>