<?xml version="1.0" encoding="UTF-8"?><svg fill="currentColor" xmlns="http://www.w3.org/2000/svg" viewBox="0 0 24 24"><g id="m"><path d="M18.89,5.11c-1.84-1.84-4.29-2.86-6.89-2.86s-5.05,1.01-6.89,2.86c-3.8,3.8-3.8,9.99,0,13.79,1.84,1.84,4.29,2.86,6.89,2.86s5.05-1.01,6.89-2.86c3.8-3.8,3.8-9.99,0-13.79Zm.76,3.83l-2.02,2.02c-.8,.8-1.34,1.73-1.57,2.68-.37,1.56-1.46,2.8-2.91,3.32-1.98,.7-3.86-.23-4.88-1.24-1.01-1.01-1.94-2.89-1.24-4.88,.52-1.45,1.76-2.54,3.32-2.91,.95-.22,1.88-.77,2.68-1.57l2.02-2.02c1.02,.41,1.97,1.02,2.77,1.83s1.42,1.76,1.82,2.77Zm-1.82,8.9c-1.56,1.56-3.63,2.42-5.83,2.42s-4.28-.86-5.83-2.42c-3.22-3.22-3.22-8.45,0-11.67,1.56-1.56,3.63-2.42,5.83-2.42,.48,0,.95,.05,1.41,.13l-1.42,1.42c-.6,.6-1.28,1.01-1.96,1.17-2.06,.49-3.7,1.93-4.39,3.87-.94,2.64,.27,5.12,1.59,6.44,.99,.99,2.64,1.92,4.52,1.92,.62,0,1.26-.1,1.92-.33,1.94-.69,3.38-2.33,3.87-4.39,.16-.68,.56-1.36,1.17-1.96l1.42-1.42c.44,2.55-.32,5.27-2.29,7.24Z"/></g></svg>