<?xml version="1.0" encoding="UTF-8"?><svg fill="currentColor" xmlns="http://www.w3.org/2000/svg" viewBox="0 0 24 24"><g id="o"><path d="M19.72,6.07s-.02-.03-.04-.05c-1.79-2.29-4.56-3.77-7.68-3.77-3.62,0-6.78,1.99-8.46,4.93h0c-.81,1.43-1.28,3.07-1.28,4.82,0,5.38,4.37,9.75,9.75,9.75s9.75-4.37,9.75-9.75c0-2.23-.76-4.29-2.03-5.93Zm-4.4,10.05c-.6,2.2-2.13,3.46-2.99,4.01-.04,.03-.07,.07-.11,.11-.07,0-.14,.01-.22,.01-1.67,0-3.23-.5-4.53-1.36,1.04-.45,2.31-1.21,3.39-2.54,1.13-1.38,1.61-2.84,1.82-3.91,.55-.38,1.28-.79,2.22-1.05,.46,1.02,.95,2.74,.41,4.73Zm.54-6.44c-1.67,.19-2.98,.82-3.87,1.41-.56-.37-1.19-.89-1.77-1.64,.68-.94,1.94-2.23,3.96-2.73,1.84-.46,3.41-.05,4.47,.41,.67,.91,1.16,1.96,1.41,3.11-1.06-.41-2.5-.75-4.2-.56Zm.58-4.63c-.8-.06-1.68-.02-2.62,.22-2.13,.53-3.56,1.76-4.44,2.82-.66-1.43-.73-2.78-.67-3.65,1.01-.44,2.12-.69,3.29-.69,1.63,0,3.15,.48,4.44,1.31Zm-9.23,.24c.04,1.13,.3,2.59,1.14,4.07,.83,1.45,1.92,2.4,2.82,2.99-.16,.73-.48,1.64-1.09,2.54-1.01-.35-2.3-1.02-3.37-2.34-1.45-1.78-1.71-3.74-1.73-4.86,.58-.94,1.34-1.76,2.24-2.41Zm-3.46,6.7c0-.54,.06-1.06,.15-1.57,.3,.99,.8,2.05,1.63,3.08,1.1,1.35,2.39,2.14,3.49,2.6-1.02,.95-2.13,1.44-2.9,1.68-1.47-1.49-2.38-3.54-2.38-5.79Zm11.37,7.63c.66-.79,1.28-1.81,1.64-3.12,.6-2.2,.16-4.11-.34-5.37,1.67-.09,3.02,.4,3.82,.82v.03c0,3.44-2.12,6.4-5.13,7.63Z"/></g></svg>