<?xml version="1.0" encoding="UTF-8"?><svg fill="currentColor" xmlns="http://www.w3.org/2000/svg" viewBox="0 0 24 24"><g id="b"><g><path d="M18.35,8.98l.63-1.26c.6-1.21,.26-2.66-.82-3.44-1.28-.93-3.39-2.03-6.16-2.03s-4.88,1.11-6.16,2.03c-1.08,.78-1.42,2.23-.82,3.44l.63,1.26c-2.08,1.69-3.4,4.18-3.4,6.96,0,1.31,.29,2.57,.85,3.75,.59,1.25,1.91,2.06,3.35,2.06h11.1c1.44,0,2.76-.81,3.35-2.06,.56-1.18,.85-2.45,.85-3.75,0-2.78-1.32-5.27-3.4-6.96Zm-11.98-1.93c-.28-.55-.13-1.2,.36-1.55,1.1-.8,2.91-1.75,5.28-1.75s4.18,.95,5.28,1.75c.48,.35,.63,1,.36,1.55l-.54,1.07c-1.49-.86-3.23-1.37-5.1-1.37s-3.61,.51-5.1,1.37l-.54-1.07Zm13.18,11.99c-.35,.73-1.13,1.2-2,1.2H6.45c-.87,0-1.65-.47-2-1.2-.47-.98-.7-2.03-.7-3.11,0-4.24,3.7-7.69,8.25-7.69s8.25,3.45,8.25,7.69c0,1.08-.24,2.13-.7,3.11Z"/><path d="M12,11.25c-2.07,0-3.75,1.68-3.75,3.75s1.68,3.75,3.75,3.75,3.75-1.68,3.75-3.75-1.68-3.75-3.75-3.75Zm0,6c-1.24,0-2.25-1.01-2.25-2.25s1.01-2.25,2.25-2.25,2.25,1.01,2.25,2.25-1.01,2.25-2.25,2.25Z"/></g></g></svg>