<?xml version="1.0" encoding="UTF-8"?><svg fill="currentColor" xmlns="http://www.w3.org/2000/svg" viewBox="0 0 24 24"><g id="j"><g><path d="M9.11,15.38c1.14-1.25,1.65-2.43,2.2-3.68,.57-1.31,1.16-2.66,2.47-4.1,1.3-1.42,2.96-2.53,4.95-3.3l.48-.15-1.53-1.53c-.51-.51-1.29-.66-1.94-.37-1.69,.75-3.14,1.77-4.29,3.03-1.31,1.43-1.9,2.79-2.47,4.1-.54,1.25-1.06,2.43-2.2,3.68-.87,.95-1.94,1.75-3.17,2.38-.5,.25-.85,.73-.94,1.28-.09,.56,.09,1.11,.49,1.51l.39,.39,1.26-.33c1.69-.66,3.16-1.64,4.3-2.89Z"/><path d="M20.84,5.78l-.44-.44-1.17,.37c-1.73,.67-3.2,1.65-4.34,2.9-1.14,1.25-1.66,2.43-2.2,3.69-.57,1.31-1.16,2.66-2.46,4.09-1.3,1.42-2.96,2.53-4.95,3.3l-.5,.13,1.55,1.55c.34,.34,.79,.52,1.25,.52,.23,0,.47-.05,.69-.15,1.69-.75,3.14-1.77,4.29-3.03,1.31-1.43,1.9-2.78,2.46-4.09,.55-1.25,1.06-2.44,2.2-3.69,.87-.95,1.94-1.75,3.17-2.38,.5-.25,.85-.73,.94-1.28,.09-.56-.09-1.11-.49-1.51Z"/></g></g></svg>