<?xml version="1.0" encoding="UTF-8"?><svg fill="currentColor" xmlns="http://www.w3.org/2000/svg" viewBox="0 0 24 24"><g id="n"><g><path d="M17,9.25h-1.25v-.25c0-.96-.79-1.75-1.75-1.75H4c-.96,0-1.75,.79-1.75,1.75v9c0,2.07,1.68,3.75,3.75,3.75h6c1.43,0,2.66-.82,3.3-2h1.7c1.52,0,2.75-1.23,2.75-2.75v-5c0-1.52-1.23-2.75-2.75-2.75ZM7.75,18c0,.41-.34,.75-.75,.75s-.75-.34-.75-.75v-7c0-.41,.34-.75,.75-.75s.75,.34,.75,.75v7Zm4,0c0,.41-.34,.75-.75,.75s-.75-.34-.75-.75v-7c0-.41,.34-.75,.75-.75s.75,.34,.75,.75v7Zm6.5-1c0,.69-.56,1.25-1.25,1.25h-1.25v-7.5h1.25c.69,0,1.25,.56,1.25,1.25v5Z"/><path d="M14,5.75c.29,0,.57,.05,.84,.12-.43-.88-1.31-1.49-2.36-1.6-.71-1.24-2.02-2.02-3.48-2.02s-2.75,.76-3.46,1.99c-1.14,.06-2.15,.71-2.56,1.69,.32-.11,.66-.18,1.02-.18H14Z"/></g></g></svg>