<?xml version="1.0" encoding="UTF-8"?><svg fill="currentColor" xmlns="http://www.w3.org/2000/svg" viewBox="0 0 24 24"><g id="i"><g><path d="M4,11.75H20c.41,0,.75-.34,.75-.75,0-4.27-3.48-7.75-7.75-7.75h-2c-4.27,0-7.75,3.48-7.75,7.75,0,.41,.34,.75,.75,.75Zm12.01-4.5h0c.42,0,.75,.34,.75,.75s-.33,.75-.75,.75-.75-.34-.75-.75,.33-.75,.75-.75Zm-4-1h.01c.41,0,.75,.34,.75,.75s-.34,.75-.75,.75-.75-.34-.75-.75,.33-.75,.74-.75Zm-4,1h.01c.41,0,.75,.34,.75,.75s-.34,.75-.75,.75-.75-.34-.75-.75,.33-.75,.74-.75Z"/><path d="M21.6,12.58c-.41,.41-.97,.67-1.6,.67H4c-.63,0-1.19-.26-1.6-.67-.09,.29-.15,.6-.15,.92,0,1.24,1.01,2.25,2.25,2.25h15c1.24,0,2.25-1.01,2.25-2.25,0-.32-.06-.63-.15-.92Z"/><path d="M4.5,17.25c-.44,0-.86-.09-1.25-.23,.01,2.06,1.69,3.73,3.75,3.73h10c2.06,0,3.74-1.67,3.75-3.73-.39,.14-.81,.23-1.25,.23H4.5Z"/></g></g></svg>