<?xml version="1.0" encoding="UTF-8"?><svg fill="currentColor" xmlns="http://www.w3.org/2000/svg" viewBox="0 0 24 24"><g id="r"><g><path d="M21.46,6.51l-2.1-.7-.7-2.1c-.13-.39-.55-.61-.95-.47-.39,.13-.61,.56-.47,.95l.67,2.02-1.22,1.22c-.4-.18-.85-.24-1.3-.13-.9,.22-1.79,.51-2.64,.87-.7,.3-1.39,.65-2.05,1.05-.99,.6-1.64,1.59-1.78,2.74-.14,1.15,.25,2.28,1.07,3.1l.06,.06c.72,.72,1.68,1.12,2.69,1.12,.16,0,.32-.01,.49-.03,1.17-.15,2.18-.81,2.78-1.82,.37-.63,.7-1.28,.99-1.96,.36-.85,.66-1.74,.87-2.64,.11-.44,.05-.89-.13-1.3l1.22-1.22,2.01,.67c.08,.03,.16,.04,.24,.04,.31,0,.61-.2,.71-.51,.13-.39-.08-.82-.47-.95Z"/><path d="M18.83,11.84c-.14,.4-.28,.79-.44,1.17-.31,.73-.68,1.45-1.08,2.13-.84,1.41-2.25,2.34-3.89,2.55-.23,.03-.45,.04-.67,.04-1.41,0-2.74-.55-3.75-1.56-1.21-1.21-1.76-2.8-1.56-4.41,.17-1.4,.89-2.65,1.99-3.5-.13,0-.26-.02-.38-.02-1.9-.03-3.71,.77-4.99,2.16-1.3,1.41-1.94,3.3-1.77,5.2,.33,3.51,3.28,6.14,6.81,6.14,.14,0,.28,0,.42-.01l7.78-.45c2.5-.14,4.46-2.19,4.46-4.67,0-1.13-.42-2.22-1.17-3.08-.54-.62-1.13-1.18-1.75-1.7Z"/></g></g></svg>