<?xml version="1.0" encoding="UTF-8"?><svg fill="currentColor" xmlns="http://www.w3.org/2000/svg" viewBox="0 0 24 24"><g id="h"><g><polygon points="9.88 13.06 13.06 9.88 9.35 6.17 8.84 5.62 5.65 8.8 6.18 9.37 9.88 13.06"/><polygon points="14.12 10.94 10.94 14.12 14.65 17.83 15.2 18.35 18.36 15.19 17.83 14.65 14.12 10.94"/><path d="M20.31,6.52l-.88-.88-4.25,4.25,4.24,4.25,.9-.9c1.85-1.85,1.85-4.87,0-6.72Z"/><path d="M14.12,8.83l4.25-4.25-.88-.88c-1.85-1.85-4.87-1.85-6.72,0l-.86,.86,.53,.57,3.69,3.7Z"/><path d="M5.11,10.41l-.51-.55-.9,.9c-1.85,1.85-1.85,4.87,0,6.72l.85,.85,.6-.53,3.68-3.68-3.71-3.71Z"/><path d="M9.88,15.18l-3.71,3.71-.57,.5,.92,.92c.93,.93,2.14,1.39,3.36,1.39s2.43-.46,3.36-1.39l.9-.9-.53-.49-3.73-3.73Z"/></g></g></svg>