<?xml version="1.0" encoding="UTF-8"?><svg fill="currentColor" xmlns="http://www.w3.org/2000/svg" viewBox="0 0 24 24"><g id="o"><g><circle cx="12" cy="15" r="1.25"/><path d="M18,8.25H6c-.21,0-.41,.09-.55,.24s-.21,.36-.2,.57l.85,10.17c.12,1.41,1.32,2.52,2.74,2.52h6.32c1.42,0,2.62-1.11,2.74-2.52l.85-10.17c.02-.21-.05-.42-.2-.57s-.34-.24-.55-.24Zm-6,9.5c-1.52,0-2.75-1.23-2.75-2.75s1.23-2.75,2.75-2.75,2.75,1.23,2.75,2.75-1.23,2.75-2.75,2.75Z"/><path d="M16,2.25H8c-1.06,0-1.98,.61-2.44,1.5h12.87c-.46-.89-1.37-1.5-2.44-1.5Z"/><path d="M18.5,5.25H5.5c-1.24,0-2.25,1.01-2.25,2.25,0,.54,.2,1.03,.51,1.41,.02-.53,.22-1.04,.58-1.44,.42-.46,1.03-.73,1.66-.73h12c.63,0,1.23,.26,1.66,.73,.36,.39,.56,.91,.58,1.44,.32-.39,.51-.88,.51-1.41,0-1.24-1.01-2.25-2.25-2.25Z"/></g></g></svg>