<?xml version="1.0" encoding="UTF-8"?><svg fill="currentColor" xmlns="http://www.w3.org/2000/svg" viewBox="0 0 24 24"><g id="l"><g><path d="M5.25,7.75v9.5h13.5V7.75H5.25Zm9.37,4.67l-2,3c-.14,.22-.38,.33-.63,.33-.14,0-.29-.04-.42-.13-.34-.23-.44-.7-.21-1.04l.92-1.39-2.12,.53c-.3,.08-.62-.04-.79-.3-.18-.25-.18-.59-.01-.85l2-3c.23-.34,.7-.44,1.04-.21,.34,.23,.44,.7,.21,1.04l-.92,1.39,2.12-.53c.3-.07,.62,.04,.79,.3,.18,.25,.18,.59,.01,.85Z"/><path d="M18.46,6.24l-1.27-2.53c.32-.09,.56-.37,.56-.71,0-.41-.34-.75-.75-.75H7c-.41,0-.75,.34-.75,.75,0,.35,.24,.62,.56,.71l-1.27,2.53h12.92Z"/><path d="M6.06,20.55c.24,.72,.91,1.2,1.66,1.2h8.56c.75,0,1.42-.48,1.66-1.2l.6-1.8H5.46l.6,1.8Z"/></g></g></svg>