<?xml version="1.0" encoding="UTF-8"?><svg fill="currentColor" xmlns="http://www.w3.org/2000/svg" viewBox="0 0 24 24"><g id="u"><g><path d="M16.03,11.3c-2.66,.45-5.41,.45-8.06,0-.92-.16-1.86,.1-2.58,.71-.72,.61-1.14,1.51-1.14,2.46,0,1.52,1.09,2.84,2.59,3.15,1.69,.35,3.43,.52,5.16,.52s3.46-.18,5.16-.52c1.5-.31,2.59-1.63,2.59-3.15h0c0-.95-.42-1.84-1.14-2.46-.72-.61-1.66-.87-2.58-.71Z"/><path d="M20.5,7.92c-.79-.59-1.79-.77-2.74-.5-3.76,1.1-7.78,1.1-11.54,0-.94-.28-1.93-.1-2.72,.49-.8,.6-1.25,1.51-1.25,2.51,0,.83,.33,1.61,.89,2.18,.28-.66,.72-1.26,1.28-1.74,.85-.71,1.92-1.11,3.02-1.11,.26,0,.52,.02,.78,.07,1.24,.21,2.51,.32,3.78,.32s2.54-.11,3.78-.31c.26-.04,.52-.06,.78-.06,1.1,0,2.18,.39,3.02,1.11,.57,.48,1,1.08,1.28,1.74,.55-.57,.89-1.35,.89-2.18,0-.99-.46-1.9-1.25-2.5Z"/></g></g></svg>