<?xml version="1.0" encoding="UTF-8"?><svg fill="currentColor" xmlns="http://www.w3.org/2000/svg" viewBox="0 0 24 24"><g id="d"><g><path d="M19,9.25H5c-.96,0-1.75,.79-1.75,1.75,0,4.27,3.48,7.75,7.75,7.75h2c4.27,0,7.75-3.48,7.75-7.75,0-.96-.79-1.75-1.75-1.75Z"/><path d="M15.43,19.92c-.78,.21-1.59,.33-2.43,.33h-2c-.84,0-1.65-.12-2.43-.33l-.06,.19c-.13,.38-.06,.8,.17,1.13,.23,.32,.61,.52,1.01,.52h4.61c.4,0,.78-.19,1.01-.52,.23-.33,.3-.75,.17-1.13l-.06-.19Z"/><path d="M11.92,4.49l.96-.35c.74-.27,1.43-.4,2.12-.4,.16,0,.33,.01,.49,.02-.88-.95-2.13-1.52-3.49-1.52s-2.61,.58-3.49,1.52c.16-.01,.32-.02,.49-.02,1.06,0,2.05,.28,2.92,.74Z"/><path d="M13.16,7.75c-.81-1.48-2.36-2.5-4.16-2.5s-3.36,1.03-4.17,2.52c.06,0,.11-.02,.17-.02H13.16Z"/><path d="M15,5.25c-.56,0-1.1,.12-1.61,.31,.62,.62,1.11,1.36,1.43,2.19h4.18c.06,0,.11,.01,.17,.02-.12-.22-.25-.42-.4-.62l1.91-3.81c.19-.37,.04-.82-.34-1.01s-.82-.04-1.01,.34l-1.7,3.4c-.75-.51-1.65-.82-2.63-.82Z"/></g></g></svg>