<?xml version="1.0" encoding="UTF-8"?><svg fill="currentColor" xmlns="http://www.w3.org/2000/svg" viewBox="0 0 24 24"><g id="c"><g><path d="M17,8.25h-.08c.06-.6-.01-1.15-.26-1.61-.42-.77-1.12-1.07-1.74-1.33-.5-.21-.97-.4-1.38-.84-.39-.41-.67-.96-.81-1.63-.07-.32-.33-.56-.66-.59-1.11-.12-2.18,.42-2.73,1.37-.33,.58-.39,1.19-.33,1.71-.7,.19-1.31,.65-1.67,1.29-.32,.55-.38,1.13-.33,1.62h-.02c-.41,0-.75,.34-.75,.75s.34,.75,.75,.75h10c.41,0,.75-.34,.75-.75s-.34-.75-.75-.75Z"/><path d="M8.1,19.23c.12,1.42,1.32,2.52,2.74,2.52h2.32c1.42,0,2.62-1.11,2.74-2.52l.67-7.98H7.44l.67,7.98Zm2.9-4.98h2c.41,0,.75,.34,.75,.75s-.34,.75-.75,.75h-2c-.41,0-.75-.34-.75-.75s.34-.75,.75-.75Z"/></g></g></svg>