<?xml version="1.0" encoding="UTF-8"?><svg fill="currentColor" xmlns="http://www.w3.org/2000/svg" viewBox="0 0 24 24"><g id="b"><g><path d="M16.75,6.23V3c0-.41-.34-.75-.75-.75H8c-1.52,0-2.75,1.23-2.75,2.75v1.25h11.5v-.02Z"/><ellipse cx="9" cy="14.5" rx="1.25" ry="1.75"/><path d="M16.48,7.75H4.89l-1.02,2.54c-.42,1.04-.63,2.13-.63,3.25v5.46c0,1.52,1.23,2.75,2.75,2.75H14c.41,0,.75-.34,.75-.75v-7.46c0-.93,.17-1.83,.52-2.69l1.14-2.85c.03-.08,.04-.16,.07-.24Zm-7.48,10c-1.52,0-2.75-1.46-2.75-3.25s1.23-3.25,2.75-3.25,2.75,1.46,2.75,3.25-1.23,3.25-2.75,3.25Z"/><path d="M21.12,10.29l-1.14-2.86c-.15-.38-.23-.79-.23-1.21v-1.23c0-1.08-.64-2.01-1.55-2.46,.03,.15,.05,.3,.05,.46v3.23c0,.8-.15,1.58-.45,2.32l-1.14,2.85c-.27,.68-.41,1.4-.41,2.14v7.46c0,.26-.05,.51-.14,.75h2.89c1.52,0,2.75-1.23,2.75-2.75v-5.46c0-1.12-.21-2.21-.63-3.25Z"/></g></g></svg>