<?xml version="1.0" encoding="UTF-8"?><svg fill="currentColor" xmlns="http://www.w3.org/2000/svg" viewBox="0 0 24 24"><g id="p"><g><path d="M11.44,10.39c-1.9-1.35-3.99-2.4-6.21-3.1-.23-.07-.48-.03-.67,.11-.19,.14-.31,.37-.31,.6v9c0,2.62,2.13,4.75,4.75,4.75h3c2.62,0,4.75-2.13,4.75-4.75,0-.84-.28-1.66-.79-2.3-1.3-1.64-2.82-3.1-4.53-4.31Z"/><path d="M17.6,4.54c-.58-.76-1.81-1.1-3.03-.69-.23-.72-.68-1.28-1.26-1.54-.58-.26-1.31-.23-2,.08-.45,.2-.85,.5-1.18,.87-.5-.62-1.27-1.01-2.13-1.01-1.18,0-2.19,.75-2.58,1.79-.73-.14-1.48-.07-1.97,.44-.31,.33-.46,.81-.44,1.35,.01,.28,.08,.56,.18,.84,.13-.18,.29-.36,.48-.49,.38-.28,.84-.44,1.33-.44,.23,0,.46,.04,.68,.11,1.69,.53,3.3,1.26,4.82,2.15,1.52-.89,3.14-1.62,4.82-2.15,.22-.07,.45-.11,.68-.11,.48,0,.94,.15,1.33,.43,.23,.17,.4,.38,.55,.61,.22-.74,.21-1.61-.28-2.25Z"/><path d="M15.77,7.29c-1.33,.42-2.61,.98-3.84,1.64,.12,.08,.25,.16,.37,.24,1.66,1.18,3.14,2.58,4.44,4.15v-5.31c0-.24-.11-.46-.31-.61-.19-.14-.44-.18-.67-.11Z"/></g></g></svg>