<?xml version="1.0" encoding="UTF-8"?><svg fill="currentColor" xmlns="http://www.w3.org/2000/svg" viewBox="0 0 24 24"><g id="e"><g><path d="M20.65,3.35c-1.42-1.42-3.89-1.42-5.3,0-.71,.71-1.1,1.65-1.1,2.65s.39,1.94,1.1,2.65c.71,.71,1.65,1.1,2.65,1.1s1.94-.39,2.65-1.1c.71-.71,1.1-1.65,1.1-2.65s-.39-1.94-1.1-2.65Z"/><path d="M12.81,6.63c-.62,.16-1.22,.47-1.71,.96-1.46,1.46-1.46,3.84,0,5.3,.73,.73,1.69,1.1,2.65,1.1s1.92-.37,2.65-1.1c.49-.49,.8-1.08,.96-1.71-1.16-.14-2.24-.64-3.08-1.48-.84-.84-1.34-1.92-1.48-3.08Z"/><path d="M8.57,10.9c-.63,.16-1.23,.46-1.71,.93-.71,.71-1.1,1.65-1.1,2.65,0,.75,.22,1.46,.62,2.07l-3.92,3.92c-.29,.29-.29,.77,0,1.06,.15,.15,.34,.22,.53,.22s.38-.07,.53-.22l3.92-3.92c.61,.4,1.32,.62,2.07,.62,1,0,1.94-.39,2.65-1.1,.48-.48,.8-1.07,.96-1.71-1.16-.14-2.24-.63-3.08-1.47-.83-.83-1.33-1.9-1.47-3.06Z"/></g></g></svg>