<?xml version="1.0" encoding="UTF-8"?><svg fill="currentColor" xmlns="http://www.w3.org/2000/svg" viewBox="0 0 24 24"><g id="m"><g><path d="M11,7.75c.41,0,.75-.34,.75-.75V3c0-.41-.34-.75-.75-.75s-.75,.34-.75,.75V7c0,.41,.34,.75,.75,.75Z"/><path d="M4,7.75h2c.41,0,.75-.34,.75-.75s-.34-.75-.75-.75h-2c-.41,0-.75,.34-.75,.75s.34,.75,.75,.75Z"/><path d="M4,5.75h2c.41,0,.75-.34,.75-.75s-.34-.75-.75-.75h-2c-.41,0-.75,.34-.75,.75s.34,.75,.75,.75Z"/><path d="M16,5.75h6c.41,0,.75-.34,.75-.75s-.34-.75-.75-.75h-6c-.41,0-.75,.34-.75,.75s.34,.75,.75,.75Z"/><path d="M22,6.25h-6c-.41,0-.75,.34-.75,.75s.34,.75,.75,.75h6c.41,0,.75-.34,.75-.75s-.34-.75-.75-.75Z"/><path d="M17.44,9.25h-3.69V4c0-.41-.34-.75-.75-.75s-.75,.34-.75,.75v5.25h-2.5V4c0-.41-.34-.75-.75-.75s-.75,.34-.75,.75v5.25h-3.69c-.71,0-1.37,.31-1.82,.86-.42,.52-.59,1.19-.46,1.82l1.46,8.02c.22,1.04,1.17,1.8,2.27,1.8H15.97c1.1,0,2.05-.76,2.27-1.82l1.46-7.98c.14-.65-.03-1.32-.45-1.84-.44-.54-1.1-.86-1.82-.86Zm-4.44,6.5h-4c-.41,0-.75-.34-.75-.75s.34-.75,.75-.75h4c.41,0,.75,.34,.75,.75s-.34,.75-.75,.75Z"/></g></g></svg>