<?xml version="1.0" encoding="UTF-8"?><svg fill="currentColor" xmlns="http://www.w3.org/2000/svg" viewBox="0 0 24 24"><g id="q"><g><path d="M21.46,10.68c-1.9-3.35-5.53-5.43-9.46-5.43S4.44,7.33,2.54,10.68h0c-.3,.53-.37,1.16-.19,1.74,.17,.55,.54,.99,1.08,1.26,.84,.4,1.65,.32,2.18,.19,.43,.39,1.2,.89,2.27,.89,.22,0,1.2-.04,2.07-.71,.45,.35,1.14,.71,2.06,.71,.22,0,1.2-.04,2.06-.7,.69,.56,1.51,.86,2.29,.86,.38,0,.75-.07,1.1-.22,.46-.2,.8-.5,1.05-.8,.53,.12,1.3,.16,2.1-.22,.51-.25,.88-.69,1.05-1.24,.18-.58,.11-1.21-.19-1.74Zm-10.93-1.15l-1,1c-.15,.15-.34,.22-.53,.22s-.38-.07-.53-.22c-.29-.29-.29-.77,0-1.06l1-1c.29-.29,.77-.29,1.06,0s.29,.77,0,1.06Zm5,1c-.15,.15-.34,.22-.53,.22s-.38-.07-.53-.22l-1-1c-.29-.29-.29-.77,0-1.06s.77-.29,1.06,0l1,1c.29,.29,.29,.77,0,1.06Z"/><path d="M19.03,15.47c-.3,.25-.63,.45-.99,.6-.53,.23-1.09,.34-1.69,.34-.8,0-1.6-.21-2.34-.6-.91,.4-1.73,.44-2.02,.44-.72,0-1.42-.16-2.06-.46-.92,.42-1.77,.46-2.06,.46-1.13,0-2.01-.37-2.66-.8-.16,.02-.31,.02-.47,.02-.51,0-1-.11-1.48-.27,.11,1.97,1.73,3.55,3.73,3.55h10c1.99,0,3.61-1.56,3.73-3.52-.48,.16-.97,.25-1.48,.25,0,0-.14,0-.21,0Z"/></g></g></svg>