<?xml version="1.0" encoding="UTF-8"?><svg fill="currentColor" xmlns="http://www.w3.org/2000/svg" viewBox="0 0 24 24"><g id="t"><g><path d="M21.74,8.85c-.17-.86-.67-1.6-1.41-2.09-.51-.34-1.1-.53-1.7-.56-.15-.55-.47-1.28-1.19-1.81-.86-.64-2.01-.78-3.04-.42-.48-.89-1.3-1.53-2.26-1.71-1.38-.26-2.79,.47-3.51,1.72-1.01-.35-2.16-.22-3.05,.4-.98,.68-1.51,1.84-1.44,3.01-1.09,.36-1.88,1.4-1.88,2.61,0,1.52,1.23,2.75,2.75,2.75h2.25c0,1.11,.89,2,1.99,2,.76,0,1.44-.42,1.78-1.1l.21-.42c.3-.59,1.26-.59,1.55,0l.21,.42c.34,.68,1.02,1.1,1.78,1.1,1.1,0,1.99-.89,1.99-1.99,0,0,0-.01,.01-.01h2.24s.1,0,.15-.01c1.78-.36,2.95-2.1,2.59-3.88Z"/><path d="M12,14.89c-.55,.72-1.35,1.17-2.25,1.3v5.56h4.5v-5.56c-.9-.13-1.7-.58-2.25-1.3Z"/><path d="M19,14.25h-1.08c-.42,.89-1.21,1.57-2.17,1.86v5.6c1.71-.2,3.1-1.54,3.29-3.3l.47-4.23s-.05,.02-.07,.02c-.14,.03-.29,.04-.44,.04Z"/><path d="M6.09,14.26h-1.1c-.17,0-.33-.04-.5-.06l.47,4.21c.19,1.75,1.58,3.1,3.29,3.3v-5.6c-.96-.28-1.74-.96-2.16-1.85Z"/></g></g></svg>