<?xml version="1.0" encoding="UTF-8"?><svg fill="currentColor" xmlns="http://www.w3.org/2000/svg" viewBox="0 0 24 24"><g id="s"><g><path d="M21,7.2H3c-.41,0-.75,.34-.75,.75v2c0,.96,.79,1.75,1.75,1.75H20c.96,0,1.75-.79,1.75-1.75v-2c0-.41-.34-.75-.75-.75Z"/><rect x="2.25" y="17.25" width="19.5" height="4.5" rx="1.75" ry="1.75"/><path d="M3.51,15.56c.63-.58,1.2-.85,1.67-.81,.28,.03,.46,.15,.75,.38,.35,.27,.83,.63,1.58,.63s1.25-.39,1.6-.67c.28-.23,.42-.33,.65-.33s.37,.1,.65,.33c.35,.28,.82,.67,1.6,.67s1.25-.39,1.6-.67c.28-.23,.42-.33,.65-.33s.37,.1,.65,.33c.35,.28,.82,.67,1.6,.67s1.23-.36,1.58-.63c.29-.22,.47-.35,.75-.38,.48-.05,1.03,.22,1.67,.81,.14,.13,.33,.2,.51,.2,.2,0,.4-.08,.55-.24,.28-.31,.26-.78-.04-1.06-.96-.88-1.92-1.29-2.83-1.19-.71,.07-1.17,.42-1.5,.67-.6,.45-.76,.45-1.33,0-.35-.28-.82-.67-1.6-.67s-1.25,.39-1.6,.67c-.28,.23-.42,.33-.65,.33s-.37-.1-.65-.33c-.35-.28-.82-.67-1.6-.67s-1.25,.39-1.6,.67c-.57,.46-.73,.46-1.33,0-.33-.25-.79-.6-1.5-.67-.92-.09-1.87,.31-2.83,1.19-.3,.28-.32,.75-.04,1.06,.28,.31,.76,.33,1.06,.04Z"/><path d="M19.51,4.41c-1.28-1.19-2.68-1.76-3.63-2.02-.52-.14-1.04-.17-1.55-.09-2.3,.36-4.53,1.03-6.64,1.98-.94,.42-1.84,.9-2.72,1.43h15.67c-.33-.47-.7-.91-1.12-1.3Z"/></g></g></svg>