<?xml version="1.0" encoding="UTF-8"?><svg fill="currentColor" xmlns="http://www.w3.org/2000/svg" viewBox="0 0 24 24"><g id="k"><g><ellipse cx="12" cy="5.5" rx="6.75" ry="3.25"/><circle cx="12" cy="14" r="1.25"/><path d="M5.25,8.42v9.58c0,.09,.02,.17,.05,.25-.03,.08-.05,.16-.05,.25,0,2.13,3.4,3.25,6.75,3.25s6.75-1.12,6.75-3.25c0-.09-.02-.17-.05-.25,.03-.08,.05-.16,.05-.25V8.42c-1.57,1.25-4.17,1.83-6.75,1.83s-5.18-.58-6.75-1.83Zm9.5,5.58c0,1.52-1.23,2.75-2.75,2.75s-2.75-1.23-2.75-2.75,1.23-2.75,2.75-2.75,2.75,1.23,2.75,2.75Z"/></g></g></svg>