<?xml version="1.0" encoding="UTF-8"?><svg fill="currentColor" xmlns="http://www.w3.org/2000/svg" viewBox="0 0 24 24"><g id="g"><g><path d="M14.13,13.74c-.75,.14-1.29,.32-1.81,.5-.69,.24-1.34,.46-2.28,.51-.13,0-.25,.01-.38,.01-1.31,0-2.66-.37-4.01-1.1l-.7-.42,1.04,6.22c.22,1.33,1.36,2.3,2.71,2.3h6.61c1.35,0,2.49-.97,2.71-2.3l.92-5.53-1.07-.18c-1.27-.22-2.52-.22-3.74,0Z"/><path d="M20,8.25H4c-.41,0-.75,.34-.75,.75s.34,.75,.75,.75h.36l.26,1.54,1.77,1.07c1.21,.65,2.43,.96,3.57,.89,.73-.04,1.24-.21,1.88-.43,.55-.19,1.17-.4,2.03-.56,1.39-.25,2.82-.25,4.26,0l1.06,.18,.45-2.69h.36c.41,0,.75-.34,.75-.75s-.34-.75-.75-.75Z"/><path d="M13,2.25h-2c-2.9,0-5.42,1.86-6.36,4.5h14.72c-.93-2.64-3.44-4.5-6.36-4.5Z"/></g></g></svg>