<?xml version="1.0" encoding="UTF-8"?><svg fill="currentColor" xmlns="http://www.w3.org/2000/svg" viewBox="0 0 24 24"><g id="h"><g><path d="M12,5c-.55,0-1,.45-1,1v13c0,.55,.45,1,1,1s1-.45,1-1V6c0-.55-.45-1-1-1Z"/><path d="M20,5c-.55,0-1,.45-1,1v13c0,.55,.45,1,1,1s1-.45,1-1V6c0-.55-.45-1-1-1Z"/><path d="M16,5c-.55,0-1,.45-1,1V15c0,.55,.45,1,1,1s1-.45,1-1V6c0-.55-.45-1-1-1Z"/><path d="M4,5c-.55,0-1,.45-1,1v13c0,.55,.45,1,1,1s1-.45,1-1V6c0-.55-.45-1-1-1Z"/><path d="M8,5c-.55,0-1,.45-1,1V15c0,.55,.45,1,1,1s1-.45,1-1V6c0-.55-.45-1-1-1Z"/><path d="M16,17c-.55,0-1,.45-1,1v1c0,.55,.45,1,1,1s1-.45,1-1v-1c0-.55-.45-1-1-1Z"/><path d="M8,17c-.55,0-1,.45-1,1v1c0,.55,.45,1,1,1s1-.45,1-1v-1c0-.55-.45-1-1-1Z"/></g></g></svg>