<?xml version="1.0" encoding="UTF-8"?><svg fill="currentColor" xmlns="http://www.w3.org/2000/svg" viewBox="0 0 24 24"><g id="d"><g><path d="M4.25,19c0,1.52,1.23,2.75,2.75,2.75h10c1.52,0,2.75-1.23,2.75-2.75v-3.25H4.25v3.25Zm7.76-1.75h.01c.41,0,.75,.34,.75,.75s-.34,.75-.75,.75-.75-.34-.75-.75,.33-.75,.74-.75Z"/><path d="M17,2.25H7c-1.52,0-2.75,1.23-2.75,2.75v3.25h15.5v-3.25c0-1.52-1.23-2.75-2.75-2.75Zm-4.98,4.5c-.41,0-.75-.34-.75-.75s.33-.75,.74-.75h.01c.41,0,.75,.34,.75,.75s-.34,.75-.75,.75Z"/><path d="M4.25,14.25h15.5v-4.5H4.25v4.5Zm7.76-3h.01c.41,0,.75,.34,.75,.75s-.34,.75-.75,.75-.75-.34-.75-.75,.33-.75,.74-.75Z"/></g></g></svg>