<?xml version="1.0" encoding="UTF-8"?><svg fill="currentColor" xmlns="http://www.w3.org/2000/svg" viewBox="0 0 24 24"><g id="n"><g><circle cx="7" cy="16" r="2.75"/><circle cx="17" cy="16" r="2.75"/><path d="M20,10.25h-.28c-.11,0-.2-.07-.24-.17l-.54-1.63c-.24-.72-.91-1.2-1.66-1.2h-2.03v4.89c.54-.24,1.12-.39,1.75-.39,2.34,0,4.25,1.91,4.25,4.25,0,.08-.02,.16-.02,.25,.32-.32,.52-.76,.52-1.25v-3c0-.96-.79-1.75-1.75-1.75Z"/><path d="M12,5.25H4c-.96,0-1.75,.79-1.75,1.75V15c0,.49,.2,.93,.52,1.25,0-.08-.02-.16-.02-.25,0-2.34,1.91-4.25,4.25-4.25s4.25,1.91,4.25,4.25c0,.26-.03,.51-.08,.75h1.65c-.04-.24-.08-.49-.08-.75,0-1.03,.39-1.97,1-2.71V7c0-.96-.79-1.75-1.75-1.75Z"/></g></g></svg>