<?xml version="1.0" encoding="UTF-8"?><svg fill="currentColor" xmlns="http://www.w3.org/2000/svg" viewBox="0 0 24 24"><g id="e"><g><circle cx="7" cy="16" r="2.75"/><circle cx="17" cy="16" r="2.75"/><path d="M20.22,11.23l.72-1.45c.27-.55,.24-1.18-.08-1.7s-.88-.83-1.49-.83h-1.68c-.03,.35-.09,.7-.23,1.03l-1.55,3.63c.35-.09,.71-.16,1.08-.16,2.34,0,4.25,1.91,4.25,4.25,0,.13-.03,.26-.04,.38,.33-.28,.54-.69,.54-1.15v-2.47c0-.83-.68-1.51-1.53-1.53Z"/><path d="M15.94,6.04c-.33-.49-.87-.79-1.46-.79H3c-.41,0-.75,.34-.75,.75s.34,.75,.75,.75h1.99l-.45,1.5h-1.54c-.41,0-.75,.34-.75,.75s.34,.75,.75,.75h1.09l-.45,1.5h-.64c-.41,0-.75,.34-.75,.75s.34,.75,.75,.75h.19l-.62,2.05c-.13,.43-.06,.87,.18,1.25,.04-2.24,1.87-4.05,4.12-4.05s4.13,1.85,4.13,4.13c0,.21-.03,.42-.06,.63h.71c.29,0,.56-.17,.68-.44l1.36-3.01,2.4-5.61c.23-.54,.18-1.16-.15-1.65Z"/></g></g></svg>