<?xml version="1.0" encoding="UTF-8"?><svg fill="currentColor" xmlns="http://www.w3.org/2000/svg" viewBox="0 0 24 24"><g id="m"><g><path d="M12.75,13.25v6.5h5.25c1.52,0,2.75-1.23,2.75-2.75v-3.85c-.24,.06-.49,.1-.75,.1h-7.25Z"/><path d="M3.25,13.15v3.85c0,1.52,1.23,2.75,2.75,2.75h5.25v-6.5H4c-.26,0-.51-.04-.75-.1Z"/><path d="M20,6.25h-3.56c.19-.38,.31-.8,.31-1.25,0-1.52-1.23-2.75-2.75-2.75-.79,0-1.5,.34-2,.87-.5-.54-1.21-.87-2-.87-1.52,0-2.75,1.23-2.75,2.75,0,.45,.12,.87,.31,1.25h-3.56c-.96,0-1.75,.79-1.75,1.75v2c0,.96,.79,1.75,1.75,1.75h7.25V7.44c.28-.15,.54-.33,.75-.56,.21,.23,.47,.41,.75,.56v4.31h7.25c.96,0,1.75-.79,1.75-1.75v-2c0-.96-.79-1.75-1.75-1.75Zm-6-2.5c.69,0,1.25,.56,1.25,1.25s-.56,1.25-1.25,1.25-1.25-.56-1.25-1.25,.56-1.25,1.25-1.25Zm-5.25,1.25c0-.69,.56-1.25,1.25-1.25s1.25,.56,1.25,1.25-.56,1.25-1.25,1.25-1.25-.56-1.25-1.25Z"/></g></g></svg>