<?xml version="1.0" encoding="UTF-8"?><svg fill="currentColor" xmlns="http://www.w3.org/2000/svg" viewBox="0 0 24 24"><g id="i"><path d="M17.64,9.61c-.42-.7-.86-1.16-1.29-1.62-.57-.6-1.11-1.17-1.68-2.33-.43-.88-.75-1.82-.94-2.81-.05-.27-.25-.49-.51-.57-.26-.08-.55-.02-.75,.17-.97,.94-1.71,2.04-2.18,3.27-.56,1.46-.66,2.85-.55,4.02-.04-.06-.09-.12-.13-.18-.38-.56-.69-1.17-.91-1.81-.08-.24-.28-.42-.52-.49-.25-.07-.51,0-.69,.17-3.3,3.02-4.21,7.73-2.12,10.96,1.34,2.08,3.73,3.36,6.18,3.36,.17,0,.34,0,.51-.02h0c3.38-.25,5.23-2.82,5.57-3.34,1.9-2.9,1.34-6.59,.02-8.8Z"/></g></svg>