<?xml version="1.0" encoding="UTF-8"?><svg fill="currentColor" xmlns="http://www.w3.org/2000/svg" viewBox="0 0 24 24"><g id="j"><g><path d="M4.5,10.25c.96,0,1.75-.79,1.75-1.75,0-.38-.12-.75-.35-1.05l-.74-1.2h-.16c-1.52,0-2.75,1.23-2.75,2.75v.05l1.18,.84c.32,.24,.68,.36,1.07,.36Z"/><circle cx="12" cy="12" r="1.25"/><path d="M19,6.25H6.92l.22,.36c.39,.51,.61,1.18,.61,1.89,0,1.79-1.46,3.25-3.25,3.25-.71,0-1.39-.22-1.95-.65l-.3-.21v4.11c0,1.52,1.23,2.75,2.75,2.75h12.07l-.22-.37c-.38-.5-.6-1.17-.6-1.88,0-1.79,1.46-3.25,3.25-3.25,.71,0,1.39,.22,1.95,.65l.3,.21v-4.11c0-1.52-1.23-2.75-2.75-2.75Zm-7,8.5c-1.52,0-2.75-1.23-2.75-2.75s1.23-2.75,2.75-2.75,2.75,1.23,2.75,2.75-1.23,2.75-2.75,2.75Z"/><path d="M19.5,13.75c-.96,0-1.75,.79-1.75,1.75,0,.38,.12,.75,.35,1.05l.71,1.2h.19c1.52,0,2.75-1.23,2.75-2.75v-.07l-1.18-.82c-.33-.24-.69-.37-1.07-.37Z"/></g></g></svg>