<?xml version="1.0" encoding="UTF-8"?><svg fill="currentColor" xmlns="http://www.w3.org/2000/svg" viewBox="0 0 24 24"><g id="o"><g><path d="M8,5.75c.41,0,.75-.34,.75-.75,0-.69,.56-1.25,1.25-1.25h4c.69,0,1.25,.56,1.25,1.25,0,.41,.34,.75,.75,.75s.75-.34,.75-.75c0-1.52-1.23-2.75-2.75-2.75h-4c-1.52,0-2.75,1.23-2.75,2.75,0,.41,.34,.75,.75,.75Z"/><path d="M19.89,9.79c-.11-1.42-1.31-2.54-2.74-2.54H6.85c-1.43,0-2.63,1.12-2.74,2.54l-.69,9c-.06,.76,.21,1.52,.72,2.08,.52,.56,1.25,.88,2.02,.88h11.68c.76,0,1.5-.32,2.02-.88,.52-.56,.78-1.32,.72-2.08l-.69-9Zm-4.44,3.81l-4,3c-.13,.1-.29,.15-.45,.15-.19,0-.38-.07-.53-.22l-2-2c-.29-.29-.29-.77,0-1.06s.77-.29,1.06,0l1.54,1.54,3.48-2.61c.33-.25,.8-.18,1.05,.15,.25,.33,.18,.8-.15,1.05Z"/></g></g></svg>