<?xml version="1.0" encoding="UTF-8"?><svg fill="currentColor" xmlns="http://www.w3.org/2000/svg" viewBox="0 0 24 24"><g id="c"><g><path d="M17.67,4.42c-.68-.53-1.55-.7-2.38-.48L4.29,6.88c-1.2,.32-2.04,1.41-2.04,2.66v2.93c0,1.24,.84,2.34,2.04,2.66l11,2.93c.24,.06,.48,.09,.72,.09,.6,0,1.18-.2,1.67-.57,.68-.53,1.08-1.32,1.08-2.18V6.6c0-.86-.39-1.66-1.08-2.18Z"/><path d="M20.25,8.02v5.96c.91-.69,1.5-1.76,1.5-2.98s-.59-2.3-1.5-2.98Z"/><path d="M4.25,19c0,1.52,1.23,2.75,2.75,2.75h1c1.52,0,2.75-1.23,2.75-2.75v-.6l-6.5-1.73v2.34Z"/></g></g></svg>