<?xml version="1.0" encoding="UTF-8"?><svg fill="currentColor" xmlns="http://www.w3.org/2000/svg" viewBox="0 0 24 24"><g id="u"><path d="M18.88,8.8c-.1-1.43-1.31-2.55-2.74-2.55h-.39v-.25c0-2.07-1.68-3.75-3.75-3.75s-3.75,1.68-3.75,3.75v.25h-.39c-1.44,0-2.64,1.12-2.74,2.55l-.71,10c-.05,.76,.21,1.51,.73,2.07,.52,.56,1.25,.88,2.01,.88h9.7c.76,0,1.49-.32,2.01-.88,.52-.56,.78-1.31,.73-2.07l-.71-10Zm-9.13-2.8c0-1.24,1.01-2.25,2.25-2.25s2.25,1.01,2.25,2.25v.25h-4.5v-.25Zm6,5c0,2.07-1.68,3.75-3.75,3.75s-3.75-1.68-3.75-3.75v-1c0-.41,.34-.75,.75-.75s.75,.34,.75,.75v1c0,1.24,1.01,2.25,2.25,2.25s2.25-1.01,2.25-2.25v-1c0-.41,.34-.75,.75-.75s.75,.34,.75,.75v1Z"/></g></svg>