<?xml version="1.0" encoding="UTF-8"?><svg fill="currentColor" xmlns="http://www.w3.org/2000/svg" viewBox="0 0 24 24"><g id="k"><path d="M17,2.25H7c-2.07,0-3.75,1.68-3.75,3.75v13c0,.67,.37,1.27,.97,1.56,.6,.3,1.3,.24,1.83-.17l1.8-1.35c.09-.07,.21-.07,.3,0l2.8,2.1c.31,.23,.68,.35,1.05,.35s.74-.12,1.05-.35l2.8-2.1c.09-.07,.21-.07,.3,0l1.8,1.35h0c.53,.4,1.24,.46,1.83,.17,.6-.3,.97-.9,.97-1.56V6c0-2.07-1.68-3.75-3.75-3.75Zm-4,11.5h-5c-.41,0-.75-.34-.75-.75s.34-.75,.75-.75h5c.41,0,.75,.34,.75,.75s-.34,.75-.75,.75Zm0-5h-5c-.41,0-.75-.34-.75-.75s.34-.75,.75-.75h5c.41,0,.75,.34,.75,.75s-.34,.75-.75,.75Zm3.02,5c-.41,0-.75-.34-.75-.75s.33-.75,.74-.75h.01c.41,0,.75,.34,.75,.75s-.34,.75-.75,.75Zm0-5c-.41,0-.75-.34-.75-.75s.33-.75,.74-.75h.01c.41,0,.75,.34,.75,.75s-.34,.75-.75,.75Z"/></g></svg>