<?xml version="1.0" encoding="UTF-8"?><svg fill="currentColor" xmlns="http://www.w3.org/2000/svg" viewBox="0 0 24 24"><g id="r"><g><path d="M10,3.25c-.41,0-.75,.34-.75,.75V20c0,.41,.34,.75,.75,.75s.75-.34,.75-.75V4c0-.41-.34-.75-.75-.75Z"/><path d="M2.25,7.39v1.61c0,.92,.59,1.74,1.46,2.03l1.1,.37c.26,.09,.44,.33,.44,.6s-.17,.52-.43,.6l-1.1,.37c-.87,.29-1.46,1.11-1.46,2.03v1.61c0,1.18,.96,2.14,2.14,2.14h3.36V5.25h-3.36c-1.18,0-2.14,.96-2.14,2.14Z"/><path d="M20.1,11.29l.47-.23c.73-.36,1.18-1.1,1.18-1.91v-1.76c0-1.18-.96-2.14-2.14-2.14h-7.36v13.5h7.36c1.18,0,2.14-.96,2.14-2.14v-1.76c0-.81-.45-1.55-1.18-1.91l-.47-.23c-.22-.11-.35-.33-.35-.57v-.29c0-.24,.13-.46,.35-.57Z"/></g></g></svg>