<?xml version="1.0" encoding="UTF-8"?><svg fill="currentColor" xmlns="http://www.w3.org/2000/svg" viewBox="0 0 24 24"><g id="k"><g><path d="M17.15,2.27c-.64,0-1.27,.04-1.9,.11v.9h0s0,.02,0,.03c-.06,1.46,.5,2.89,1.53,3.92s2.46,1.57,3.92,1.53c0,0,0,0,.01,0h.92c.07-.63,.11-1.27,.1-1.91-.06-2.51-2.07-4.53-4.59-4.59Z"/><path d="M20.72,10.26c-.08,0-.16,0-.24,0-1.78,0-3.51-.71-4.78-1.98-1.32-1.32-2.04-3.14-1.97-5.01h0v-.66c-2.71,.59-5.24,1.91-7.22,3.9-1.98,1.98-3.32,4.51-3.91,7.22h.67c1.87-.07,3.69,.65,5.01,1.97,1.32,1.32,2.04,3.14,1.97,5.01h0v.68c2.71-.59,5.24-1.93,7.22-3.92,1.98-1.98,3.32-4.51,3.91-7.22h-.67Zm-9.61,5.1c-.15,.15-.34,.22-.53,.22s-.38-.07-.53-.22l-1.41-1.41c-.29-.29-.29-.77,0-1.06s.77-.29,1.06,0l1.41,1.41c.29,.29,.29,.77,0,1.06Zm2.83-1.41c-.15,.15-.34,.22-.53,.22s-.38-.07-.53-.22l-2.83-2.83c-.29-.29-.29-.77,0-1.06s.77-.29,1.06,0l2.83,2.83c.29,.29,.29,.77,0,1.06Zm1.41-2.83c-.15,.15-.34,.22-.53,.22s-.38-.07-.53-.22l-1.41-1.41c-.29-.29-.29-.77,0-1.06s.77-.29,1.06,0l1.41,1.41c.29,.29,.29,.77,0,1.06Z"/><path d="M7.23,16.77c-1.03-1.03-2.46-1.58-3.92-1.53,0,0-.01,0-.02,0h-.92c-.07,.63-.11,1.27-.1,1.91,.06,2.51,2.07,4.53,4.59,4.59,.11,0,.22,0,.33,0,.53,0,1.05-.03,1.57-.09v-.92h0s0-.02,0-.03c.06-1.46-.5-2.89-1.53-3.92Z"/></g></g></svg>