<?xml version="1.0" encoding="UTF-8"?><svg fill="currentColor" xmlns="http://www.w3.org/2000/svg" viewBox="0 0 24 24"><g id="h"><g><path d="M5.12,14.64c-.29-.29-.77-.29-1.06,0l-.71,.71c-.71,.71-1.1,1.65-1.1,2.65s.39,1.94,1.1,2.65c.71,.71,1.65,1.1,2.65,1.1s1.94-.39,2.65-1.1l.71-.71c.29-.29,.29-.77,0-1.06l-4.24-4.24Z"/><path d="M8.76,16.16l7.42-5.14,1.62-1.07,.54-2.17c.15-.6-.02-1.22-.46-1.66-.44-.44-1.06-.61-1.66-.46l-2.17,.54-1.06,1.61-5.15,7.44,.92,.92Z"/><path d="M20.15,12.25l-1.94-.77-1.2,.79-7.19,4.98,.59,.59c.45,.45,.66,1.04,.65,1.63l8.96-2.99c.91-.3,1.51-1.11,1.54-2.07s-.53-1.8-1.41-2.16Z"/><path d="M6.18,13.58l.59,.59,4.99-7.2,.78-1.18-.77-1.94c-.35-.86-1.16-1.41-2.09-1.41-.02,0-.05,0-.07,0-.95,.03-1.77,.63-2.07,1.54l-2.98,8.96s.03,0,.04,0c.6,0,1.17,.23,1.59,.66Z"/></g></g></svg>