<?xml version="1.0" encoding="UTF-8"?><svg fill="currentColor" xmlns="http://www.w3.org/2000/svg" viewBox="0 0 24 24"><g id="i"><g><path d="M15.84,3.47c-.68-.68-1.79-.68-2.47,0l-1.41,1.41c-.68,.68-.68,1.79,0,2.47l.88,.88-4.6,4.6-.88-.88c-.68-.68-1.79-.68-2.48,0l-1.41,1.41c-.68,.68-.68,1.79,0,2.47l4.95,4.95c.33,.33,.77,.51,1.24,.51s.91-.18,1.24-.51l1.41-1.41h0c.68-.68,.68-1.79,0-2.48l-.88-.88,4.6-4.6,.88,.88c.34,.34,.79,.51,1.24,.51s.9-.17,1.24-.51l1.41-1.41c.33-.33,.51-.77,.51-1.24s-.18-.91-.51-1.24L15.84,3.47Z"/><path d="M2.76,19.38l2.12,2.12c.34,.34,.79,.51,1.24,.51,.37,0,.73-.12,1.04-.35l-4.56-4.56c-.51,.69-.46,1.66,.16,2.28Z"/><path d="M21.5,4.88l-2.12-2.12c-.62-.62-1.6-.67-2.28-.16l4.56,4.56c.51-.68,.46-1.66-.16-2.28Z"/></g></g></svg>