<?xml version="1.0" encoding="UTF-8"?><svg fill="currentColor" xmlns="http://www.w3.org/2000/svg" viewBox="0 0 24 24"><g id="s"><g><path d="M20.18,6.71l-.92,.34c-.74,.26-1.39,.69-1.93,1.22l.21,.21c.29,.29,.29,.77,0,1.06-.15,.15-.34,.22-.53,.22s-.38-.07-.53-.22l-.06-.06c-.3,.55-.51,1.14-.6,1.78h.19c.41,0,.75,.34,.75,.75s-.34,.75-.75,.75h-.19c.09,.63,.3,1.23,.6,1.78l.06-.06c.29-.29,.77-.29,1.06,0s.29,.77,0,1.06l-.21,.21c.54,.53,1.18,.95,1.92,1.21l.9,.39c1.01-1.54,1.6-3.37,1.6-5.34s-.58-3.77-1.57-5.29Z"/><path d="M16.26,16.8l-.15,.15c-.15,.15-.34,.22-.53,.22s-.38-.07-.53-.22c-.29-.29-.29-.77,0-1.06l.26-.26c-.54-.86-.89-1.83-1.01-2.87h-.31c-.41,0-.75-.34-.75-.75s.34-.75,.75-.75h.31c.12-1.04,.47-2.01,1.01-2.87l-.27-.27c-.29-.29-.29-.77,0-1.06s.77-.29,1.06,0l.15,.15c.69-.68,1.53-1.23,2.48-1.57l.46-.17c-1.79-1.97-4.35-3.21-7.21-3.21s-5.43,1.24-7.21,3.21l.48,.18c.95,.34,1.78,.88,2.47,1.56l.15-.15c.29-.29,.77-.29,1.06,0s.29,.77,0,1.06l-.27,.27c.54,.86,.9,1.83,1.01,2.87h.31c.41,0,.75,.34,.75,.75s-.34,.75-.75,.75h-.31c-.12,1.04-.47,2.01-1.01,2.87l.27,.27c.29,.29,.29,.77,0,1.06-.15,.15-.34,.22-.53,.22s-.38-.07-.53-.22l-.15-.15c-.69,.68-1.53,1.23-2.48,1.57l-.49,.14c1.79,1.99,4.37,3.25,7.24,3.25s5.41-1.23,7.19-3.19l-.49-.22c-.93-.33-1.75-.87-2.44-1.55Z"/><path d="M6.68,15.74l-.21-.21c-.29-.29-.29-.77,0-1.06s.77-.29,1.06,0l.06,.06c.3-.55,.51-1.15,.6-1.78h-.19c-.41,0-.75-.34-.75-.75s.34-.75,.75-.75h.19c-.09-.63-.3-1.23-.6-1.78l-.06,.06c-.15,.15-.34,.22-.53,.22s-.38-.07-.53-.22c-.29-.29-.29-.77,0-1.06l.21-.21c-.54-.53-1.18-.95-1.92-1.21l-.93-.35c-.99,1.53-1.58,3.34-1.58,5.3s.57,3.71,1.53,5.22l1.02-.29c.72-.26,1.35-.67,1.88-1.2Z"/></g></g></svg>