<?xml version="1.0" encoding="UTF-8"?><svg fill="currentColor" xmlns="http://www.w3.org/2000/svg" viewBox="0 0 24 24"><g id="g"><g><path d="M6.95,15.64l-.71-.67-1.04,1.27c-.38-.16-.8-.22-1.22-.15-.7,.11-1.29,.54-1.61,1.19l-.05,.11c-.42,.84-.26,1.86,.41,2.53l1.36,1.36c.42,.42,.98,.64,1.55,.64,.33,0,.67-.08,.98-.23l.11-.06c.64-.32,1.07-.91,1.18-1.61,.07-.42,.01-.84-.15-1.22l1.3-1.07-2.12-2.09Z"/><path d="M20.74,3.26c-.69-.69-1.65-1.06-2.62-1.01-.98,.05-1.89,.51-2.51,1.27L7.18,13.82l2.24,2.17,.81,.79,10.25-8.39c.76-.62,1.22-1.53,1.27-2.51,.05-.98-.32-1.93-1.01-2.62Z"/></g></g></svg>