<?xml version="1.0" encoding="UTF-8"?><svg fill="currentColor" xmlns="http://www.w3.org/2000/svg" viewBox="0 0 24 24"><g id="u"><g><path d="M12,10.94l1.81-1.81c-1.37-1.79-1.59-4.26-.49-6.27l.24-.47c-.51-.08-1.04-.14-1.57-.14-2.35,0-4.57,.83-6.34,2.35l.5,.51,5.83,5.83Z"/><path d="M21.62,10.47l-.54,.24c-.83,.46-1.76,.69-2.69,.69-1.25,0-2.48-.43-3.51-1.21l-1.82,1.82,5.83,5.83,.5,.51c1.52-1.77,2.36-3.99,2.36-6.35,0-.52-.05-1.03-.13-1.53Z"/><path d="M20.42,9.36l.85-.37c-.39-1.21-1.02-2.33-1.86-3.31l-.53,.5-2.94,2.94c1.31,.91,3.05,1.02,4.48,.24Z"/><path d="M17.83,5.11l.52-.49c-.97-.84-2.08-1.47-3.28-1.86l-.42,.81c-.79,1.44-.68,3.19,.23,4.5l2.95-2.95Z"/><path d="M6.17,18.89l-.52,.49c.95,.82,2.04,1.44,3.21,1.84l.53-.84c.77-1.39,.65-3.13-.26-4.44l-2.95,2.95Z"/><path d="M3.59,14.64l-.86,.37c.39,1.21,1.02,2.33,1.86,3.31l.54-.5,2.94-2.94c-1.31-.91-3.05-1.02-4.47-.24Z"/><path d="M12.01,13.05l-1.82,1.82c1.37,1.79,1.59,4.26,.48,6.27l-.29,.47c.53,.09,1.07,.14,1.62,.14,2.35,0,4.57-.83,6.33-2.34l-.5-.52-5.82-5.84Z"/><path d="M9.13,13.81l1.82-1.82L4.62,5.64c-1.53,1.77-2.37,4-2.37,6.36,0,.52,.05,1.03,.13,1.53l.55-.24c1.95-1.08,4.41-.85,6.2,.52Z"/></g></g></svg>