<?xml version="1.0" encoding="UTF-8"?><svg fill="currentColor" xmlns="http://www.w3.org/2000/svg" viewBox="0 0 24 24"><g id="l"><g><path d="M17.29,13.75c.36-1.02,.53-2.1,.53-3.2-.6-.14-1.17-.35-1.69-.63-1.43,2.67-3.32,4.93-5.68,6.69-1.37,1.02-2.88,1.86-4.48,2.51l-.48,.12c.62,.56,1.31,1.04,2.06,1.43l3.07-.63c1.46-.52,5.24-2.22,6.68-6.28Z"/><path d="M19.5,9.25c.37,0,.74-.04,1.1-.1l.69-.1c-1.08-3.39-3.97-5.97-7.53-6.63v.64c0,.18-.01,.31-.01,.44,0,3.17,2.58,5.75,5.75,5.75Z"/><path d="M12.49,5.31c-.15-.58-.24-1.18-.24-1.81,0-.16,0-.33,.02-.49v-.75c-.09,0-.18-.01-.27-.01C6.62,2.25,2.25,6.62,2.25,12c0,1.16,.21,2.26,.58,3.29l.04-.19s.02-.1,.04-.14c1.02-2.49,2.61-4.75,4.59-6.52,1.47-1.32,3.15-2.37,4.99-3.13Z"/><path d="M21.62,10.51l-.77,.11c-.42,.08-.89,.13-1.35,.13-.06,0-.12,0-.18,0-.02,1.21-.22,2.39-.61,3.51-1.65,4.68-5.93,6.61-7.69,7.22l-.63,.13c.53,.09,1.06,.15,1.62,.15,5.38,0,9.75-4.37,9.75-9.75,0-.51-.05-1-.13-1.49Z"/><path d="M9.55,15.4c2.22-1.65,3.99-3.79,5.32-6.32-.78-.65-1.41-1.45-1.86-2.36-1.66,.7-3.18,1.65-4.51,2.84-2.26,2.02-3.51,4.31-4.17,5.9l-.38,2.03c.12,.17,.25,.34,.38,.5l1.18-.3c1.39-.56,2.79-1.34,4.05-2.29Z"/></g></g></svg>