<?xml version="1.0" encoding="UTF-8"?><svg fill="currentColor" xmlns="http://www.w3.org/2000/svg" viewBox="0 0 24 24"><g id="p"><g><path d="M12,6.75c-2.9,0-5.25,2.35-5.25,5.25s2.35,5.25,5.25,5.25,5.25-2.35,5.25-5.25-2.35-5.25-5.25-5.25Zm2.75,7.25c0,1.52-1.23,2.75-2.75,2.75s-2.75-1.23-2.75-2.75c0-.79,.34-1.5,.87-2-.54-.5-.87-1.21-.87-2,0-1.52,1.23-2.75,2.75-2.75s2.75,1.23,2.75,2.75c0,.79-.34,1.5-.87,2,.54,.5,.87,1.21,.87,2Z"/><circle cx="12" cy="14" r="1.25"/><circle cx="12" cy="10" r="1.25"/><path d="M12,2.25C6.62,2.25,2.25,6.62,2.25,12s4.37,9.75,9.75,9.75,9.75-4.37,9.75-9.75S17.38,2.25,12,2.25Zm0,16.5c-3.72,0-6.75-3.03-6.75-6.75s3.03-6.75,6.75-6.75,6.75,3.03,6.75,6.75-3.03,6.75-6.75,6.75Z"/></g></g></svg>