<?xml version="1.0" encoding="UTF-8"?><svg fill="currentColor" xmlns="http://www.w3.org/2000/svg" viewBox="0 0 24 24"><g id="c"><g><circle cx="11.93" cy="5" r="2.75"/><path d="M14.64,10.74c-.25-.67-.44-1.37-.6-2.07-.62,.36-1.34,.58-2.11,.58s-1.48-.22-2.11-.58c-.15,.71-.35,1.4-.6,2.07-.07,.18-.13,.34-.2,.51h5.8c-.07-.16-.13-.33-.2-.51Z"/><path d="M16.68,15.9c-.17-1.21-.58-2.02-1.05-2.95-.03-.06-.07-.13-.1-.2h-7.18c-.03,.07-.07,.14-.1,.2-.47,.93-.88,1.73-1.05,2.95-.22,1.53,.05,3.16,.78,4.83,.27,.62,.9,1.03,1.59,1.03h4.73c.7,0,1.32-.4,1.59-1.03,.74-1.67,1-3.3,.78-4.83Z"/></g></g></svg>