<?xml version="1.0" encoding="UTF-8"?><svg fill="currentColor" xmlns="http://www.w3.org/2000/svg" viewBox="0 0 24 24"><g id="t"><g><path d="M14.75,7.5c0-.14-.11-.25-.25-.25s-.25,.11-.25,.25c0,.28,.5,.28,.5,0Z"/><path d="M15.5,12.25c-.14,0-.25,.11-.25,.25,0,.28,.5,.28,.5,0,0-.14-.11-.25-.25-.25Z"/><path d="M10.5,9.25c-.14,0-.25,.11-.25,.25,0,.28,.5,.28,.5,0,0-.14-.11-.25-.25-.25Z"/><path d="M18.89,5.11c-1.84-1.84-4.29-2.86-6.89-2.86s-5.05,1.01-6.89,2.86c-1.84,1.84-2.86,4.29-2.86,6.89s1.01,5.05,2.86,6.89c1.84,1.84,4.29,2.86,6.89,2.86s5.05-1.01,6.89-2.86c1.84-1.84,2.86-4.29,2.86-6.89s-1.01-5.05-2.86-6.89Zm-8.39,5.64c-.69,0-1.25-.56-1.25-1.25s.56-1.25,1.25-1.25,1.25,.56,1.25,1.25-.56,1.25-1.25,1.25Zm2.75-3.25c0-.69,.56-1.25,1.25-1.25s1.25,.56,1.25,1.25-.56,1.25-1.25,1.25-1.25-.56-1.25-1.25Zm2.25,6.25c-.69,0-1.25-.56-1.25-1.25s.56-1.25,1.25-1.25,1.25,.56,1.25,1.25-.56,1.25-1.25,1.25Z"/></g></g></svg>