<?xml version="1.0" encoding="UTF-8"?><svg fill="currentColor" xmlns="http://www.w3.org/2000/svg" viewBox="0 0 24 24"><g id="f"><g><path d="M21.29,13.08l-1.07-1.61c-.51-.77-1.37-1.22-2.29-1.22H6.07c-.92,0-1.78,.46-2.29,1.22l-1.07,1.6c-.04,.05-.06,.11-.1,.17H21.38c-.03-.06-.06-.12-.1-.17Z"/><rect x="2.25" y="14.75" width="19.5" height="2.5"/><path d="M2.71,18.92l1.07,1.61c.51,.77,1.37,1.22,2.29,1.22h11.86c.92,0,1.78-.46,2.29-1.22l1.07-1.6c.04-.05,.06-.11,.1-.17H2.62c.03,.06,.06,.12,.1,.17Z"/><path d="M17.93,8.75c.27,0,.53,.03,.79,.08-.07-.7-.53-1.29-1.18-1.5l-1.59-3.99c-.27-.67-.9-1.1-1.63-1.1h-5.32c-.96,0-1.75,.79-1.75,1.75s.79,1.75,1.75,1.75h3.28c.11,0,.2,.07,.24,.17l.44,1.33H7c-.91,0-1.65,.7-1.73,1.58,.26-.05,.53-.08,.8-.08h11.86Z"/></g></g></svg>