<?xml version="1.0" encoding="UTF-8"?><svg fill="currentColor" xmlns="http://www.w3.org/2000/svg" viewBox="0 0 24 24"><g id="n"><path d="M12,2.25C6.62,2.25,2.25,6.62,2.25,12s4.37,9.75,9.75,9.75,9.75-4.37,9.75-9.75S17.38,2.25,12,2.25Zm0,3c2.76,0,5.13,1.66,6.17,4.03l-.34-.13c-3.78-1.2-7.86-1.21-11.7,.01l-.3,.11c1.05-2.37,3.42-4.03,6.17-4.03Zm.02,7.5c-.41,0-.75-.34-.75-.75s.33-.75,.74-.75h.01c.41,0,.75,.34,.75,.75s-.34,.75-.75,.75Zm-6.46,1.28l.92-.22c.17-.04,.34-.06,.51-.06,1.24,0,2.25,1.01,2.25,2.25,0,.23-.03,.45-.1,.67-.05,.16-.12,.31-.22,.48l-.34,.66c-1.42-.84-2.52-2.18-3.03-3.79Zm9.9,3.75l-.41-.66c-.2-.34-.3-.73-.3-1.13,0-1.24,1.01-2.25,2.25-2.25,.32,0,.55,.06,.75,.12l.7,.14c-.5,1.59-1.58,2.93-2.98,3.77Z"/></g></svg>