<?xml version="1.0" encoding="UTF-8"?><svg fill="currentColor" xmlns="http://www.w3.org/2000/svg" viewBox="0 0 24 24"><g id="q"><g><path d="M15.56,17.52l-.86,3.41-.07,.46c1.64-.46,3.12-1.34,4.29-2.52l-.45-.16-2.9-1.19Z"/><path d="M15.54,7.91l-.8,1.12,1.28,2.22h1.22l2.74-2.41,.94-.77c-.26-.59-.58-1.15-.95-1.67l-1.05,.32-3.39,1.19Z"/><path d="M3.09,9.84l-.47-.5c-.24,.85-.38,1.74-.38,2.66,0,.87,.13,1.71,.34,2.51l2.9-2.54-2.4-2.14Z"/><path d="M6.93,11.25h1.27l1.3-2.25-.76-1.32-4.73-1.25c-.3,.43-.56,.88-.78,1.35l.92,.98,2.79,2.48Z"/><path d="M17.19,12.75h-1.17l-1.26,2.19,.81,.97,3.42,1.4,.95,.33c.34-.48,.64-1,.9-1.55l-.85-.82-2.8-2.52Z"/><polygon points="10.83 9.75 9.53 12 10.83 14.25 13.31 14.25 14.63 11.97 13.35 9.75 10.83 9.75"/><path d="M9.45,14.98l-1.29-2.23h-1.27l-3.75,3.28c.26,.57,.57,1.11,.94,1.62l.96-.36,3.74-1.24,.67-1.07Z"/><path d="M21.44,9.59l-.48,.4-2.32,2.04,2.39,2.15,.38,.37c.22-.81,.35-1.66,.35-2.54,0-.83-.12-1.64-.31-2.41Z"/><path d="M9.53,3.07l.08-.51c-1.75,.44-3.31,1.35-4.54,2.6l3.67,.97,.8-3.06Z"/><path d="M10.8,15.75l-.67,1.06,.8,3.68,.24,1.22c.27,.02,.55,.04,.83,.04,.36,0,.71-.02,1.06-.06l.18-1.07,.98-3.89-.82-.98h-2.59Z"/><path d="M8.78,17.63l-3.25,1.08-.44,.16c1.22,1.23,2.77,2.12,4.5,2.56l-.13-.64-.68-3.16Z"/><path d="M15.55,6.31l2.91-1.02,.47-.14c-1.17-1.19-2.65-2.07-4.3-2.53l.12,.57,.8,3.12Z"/><path d="M13.4,8.25l.81-1.14-.91-3.57-.27-1.23c-.34-.04-.68-.06-1.03-.06-.28,0-.56,.02-.84,.04l-.17,1.08-.93,3.57,.75,1.31h2.57Z"/></g></g></svg>