<?xml version="1.0" encoding="UTF-8"?><svg fill="currentColor" xmlns="http://www.w3.org/2000/svg" viewBox="0 0 24 24"><g id="d"><g><rect x="11.18" y="15.25" width="10.5" height="5.5" rx="2.25" ry="2.25"/><path d="M13.43,13.75h6c.52,0,1.02,.11,1.48,.31v-.05c0-.72-.29-1.43-.81-1.95-.52-.52-1.21-.8-1.94-.8h-6.66c-.57,0-1.07-.39-1.21-.95l-1.43-5.73c-.2-.78-.89-1.33-1.7-1.33h-2.89c-.55,0-1.06,.25-1.4,.7-.33,.44-.44,1-.29,1.53l3.22,11.28c.34,1.17,1.42,1.99,2.64,1.99h1.27c0-.08-.03-.16-.03-.25v-1c0-2.07,1.68-3.75,3.75-3.75Z"/></g></g></svg>