<?xml version="1.0" encoding="UTF-8"?><svg fill="currentColor" xmlns="http://www.w3.org/2000/svg" viewBox="0 0 24 24"><g id="j"><g><path d="M5.3,10.66l-.02,4.23c0,.38-.17,.74-.47,.98l-1.91,1.53c-.39,.31-.63,.77-.65,1.27-.03,.5,.16,.98,.51,1.33l1.25,1.25c.33,.33,.78,.51,1.24,.51,.03,0,.06,0,.1,0,.5-.03,.96-.26,1.27-.65l1.53-1.91c.24-.3,.59-.47,.98-.47h3.89c.35,0,.7-.04,1.05-.09L5.4,9.71c-.06,.32-.09,.64-.11,.95Z"/><path d="M19.6,5.04l-.64-.64c-1.45-1.45-3.33-2.19-5.37-2.16-2.01,.05-3.87,.92-5.3,2.51-.78,.87-1.48,1.82-2.08,2.82-.09,.14-.18,.34-.27,.54l9.72,10.04c.28-.11,.56-.24,.77-.36,1-.61,1.95-1.31,2.89-2.14,1.52-1.37,2.39-3.23,2.44-5.24,.05-2.01-.72-3.92-2.16-5.36Z"/></g></g></svg>