<?xml version="1.0" encoding="UTF-8"?><svg fill="currentColor" xmlns="http://www.w3.org/2000/svg" viewBox="0 0 24 24"><g id="m"><g><path d="M10.37,7.93c-1.56,.37-2.8,1.46-3.32,2.91-.7,1.98,.23,3.86,1.24,4.88,1.01,1.01,2.89,1.94,4.88,1.24,1.46-.52,2.54-1.76,2.91-3.32,.22-.95,.77-1.88,1.57-2.68l2.31-2.31,.86-.78c-.47-1-1.1-1.93-1.92-2.76-.81-.81-1.75-1.45-2.75-1.93l-.76,.84-2.34,2.34c-.8,.8-1.73,1.34-2.68,1.57Z"/><path d="M21.38,9.37l-.39,.36-2.29,2.29c-.6,.6-1.01,1.28-1.17,1.96-.49,2.06-1.93,3.7-3.87,4.39-.65,.23-1.3,.33-1.92,.33-1.88,0-3.53-.93-4.52-1.92-1.32-1.32-2.53-3.8-1.59-6.44,.69-1.94,2.33-3.38,4.39-3.87,.68-.16,1.36-.56,1.96-1.17l2.31-2.31,.33-.37c-.85-.24-1.73-.37-2.63-.37-2.6,0-5.05,1.01-6.89,2.86-3.8,3.8-3.8,9.99,0,13.79,1.84,1.84,4.29,2.86,6.89,2.86s5.05-1.01,6.89-2.86c2.57-2.57,3.4-6.24,2.49-9.52Z"/></g></g></svg>