<?xml version="1.0" encoding="UTF-8"?><svg fill="currentColor" xmlns="http://www.w3.org/2000/svg" viewBox="0 0 24 24"><g id="o"><g><path d="M14.18,6.73c-2.02,.5-3.28,1.79-3.96,2.73,.58,.75,1.21,1.27,1.77,1.64,.9-.59,2.2-1.23,3.87-1.41,2.52-.29,4.49,.6,5.45,1.15l.4,.18c-.09-.91-.31-1.77-.64-2.59l-2.28-1.24c-1.01-.47-2.66-.95-4.6-.46Z"/><path d="M15.32,16.12c.55-1.98,.05-3.7-.41-4.73-.94,.26-1.68,.67-2.22,1.05-.21,1.07-.69,2.52-1.82,3.91-1.6,1.96-3.63,2.71-4.7,2.99l-.45,.1c1.12,.95,2.47,1.65,3.94,2.01l2.74-1.36c.78-.51,2.31-1.77,2.92-3.97Z"/><path d="M13.82,5.27c2.36-.59,4.37,0,5.64,.58l.17,.09c-1.79-2.25-4.54-3.69-7.63-3.69-1.1,0-2.15,.19-3.14,.53l-.11,1.29c-.1,.84-.12,2.39,.63,4.03,.88-1.06,2.31-2.29,4.44-2.82Z"/><path d="M20.61,12.16c-.8-.46-2.29-1.12-4.19-1.01,.5,1.26,.94,3.17,.34,5.37-.74,2.68-2.58,4.2-3.62,4.87l-.67,.33c4.93-.24,8.91-4.15,9.25-9.05l-1.1-.51Z"/><path d="M9.03,16.11c-1.11-.46-2.4-1.25-3.49-2.6-1.83-2.26-2.08-4.75-2.07-6.03v-.19c-.77,1.4-1.22,3-1.22,4.71,0,2.35,.84,4.51,2.22,6.19l1.33-.31c.73-.19,2.03-.66,3.22-1.77Z"/><path d="M6.7,12.57c1.07,1.32,2.36,1.99,3.37,2.34,.62-.91,.93-1.81,1.09-2.54-.9-.59-1.99-1.54-2.82-2.99-1.26-2.2-1.22-4.36-1.09-5.46l.04-.44c-.87,.48-1.65,1.09-2.33,1.8v2.22c-.01,1.09,.2,3.18,1.73,5.08Z"/></g></g></svg>