<?xml version="1.0" encoding="UTF-8"?><svg fill="currentColor" xmlns="http://www.w3.org/2000/svg" viewBox="0 0 24 24"><g id="j"><g><path d="M16,2.25h-6c-2.62,0-4.75,2.13-4.75,4.75v.25h-1.25c-.41,0-.75,.34-.75,.75s.34,.75,.75,.75h1.25v2.5h-1.25c-.41,0-.75,.34-.75,.75s.34,.75,.75,.75h1.25v2.5h-1.25c-.41,0-.75,.34-.75,.75s.34,.75,.75,.75h1.25v.25c0,2.62,2.13,4.75,4.75,4.75h6c2.62,0,4.75-2.13,4.75-4.75V7c0-2.62-2.13-4.75-4.75-4.75Zm3.25,14.75c0,1.79-1.46,3.25-3.25,3.25h-6c-1.79,0-3.25-1.46-3.25-3.25V7c0-1.79,1.46-3.25,3.25-3.25h6c1.79,0,3.25,1.46,3.25,3.25v10Z"/><path d="M9,5.25c-.41,0-.75,.34-.75,.75v12c0,.41,.34,.75,.75,.75s.75-.34,.75-.75V6c0-.41-.34-.75-.75-.75Z"/><path d="M17,16.25h-5c-.41,0-.75,.34-.75,.75s.34,.75,.75,.75h5c.41,0,.75-.34,.75-.75s-.34-.75-.75-.75Z"/><path d="M12,14.75h3c.41,0,.75-.34,.75-.75s-.34-.75-.75-.75h-3c-.41,0-.75,.34-.75,.75s.34,.75,.75,.75Z"/></g></g></svg>