<?xml version="1.0" encoding="UTF-8"?><svg fill="currentColor" xmlns="http://www.w3.org/2000/svg" viewBox="0 0 24 24"><g id="g"><g><path d="M17.62,6.35h0c-1.43-2.45-4.08-4.1-7.12-4.1C5.95,2.25,2.25,5.95,2.25,10.5v5.5c0,1.52,1.23,2.75,2.75,2.75h2.15c1.57,1.91,3.86,3,6.35,3h5.5c1.52,0,2.75-1.23,2.75-2.75v-5.5c0-2.94-1.58-5.68-4.13-7.15ZM3.75,16v-5.5c0-3.72,3.03-6.75,6.75-6.75s6.75,3.03,6.75,6.75-3.03,6.75-6.75,6.75H5c-.69,0-1.25-.56-1.25-1.25Zm16.5,3c0,.69-.56,1.25-1.25,1.25h-5.5c-1.58,0-3.05-.54-4.24-1.5h1.24c4.55,0,8.25-3.7,8.25-8.25,0-.47-.05-.92-.12-1.37,1.02,1.2,1.62,2.74,1.62,4.37v5.5Z"/><path d="M14.75,8c0-.41-.34-.75-.75-.75H7c-.41,0-.75,.34-.75,.75s.34,.75,.75,.75h7c.41,0,.75-.34,.75-.75Z"/><path d="M14.75,11c0-.41-.34-.75-.75-.75h-4c-.41,0-.75,.34-.75,.75s.34,.75,.75,.75h4c.41,0,.75-.34,.75-.75Z"/></g></g></svg>