<?xml version="1.0" encoding="UTF-8"?><svg fill="currentColor" xmlns="http://www.w3.org/2000/svg" viewBox="0 0 24 24"><g id="r"><g><path d="M20.82,15.18l-1.5-1.5c-1.08-1.08-2.98-1.08-4.06,0-.52,.52-1.42,.52-1.94,0l-3-3c-.53-.53-.53-1.4,0-1.94,1.12-1.12,1.12-2.94,0-4.06l-1.5-1.5c-.55-.55-1.29-.84-2.07-.83-.78,.02-1.53,.36-2.12,.95l-.61,.61c-2.06,2.06-2.27,5.32-.49,7.58,1.3,1.65,2.72,3.25,4.22,4.75,1.47,1.47,3.04,2.87,4.66,4.16,1.06,.84,2.33,1.26,3.6,1.26,1.48,0,2.95-.57,4.06-1.68l.73-.73c1.12-1.12,1.12-2.94,0-4.06Zm-1.06,3l-.73,.73c-1.53,1.53-3.97,1.66-5.67,.31-1.58-1.25-3.1-2.61-4.54-4.04-1.46-1.46-2.84-3.01-4.1-4.62-1.31-1.66-1.15-4.07,.37-5.59l.61-.61c.32-.32,.71-.5,1.1-.51h.04c.35,0,.68,.14,.93,.39l1.5,1.5c.53,.53,.53,1.4,0,1.94-1.12,1.12-1.12,2.94,0,4.06l3,3c1.12,1.12,2.94,1.12,4.06,0,.52-.52,1.42-.52,1.94,0l1.5,1.5c.53,.53,.53,1.4,0,1.94Z"/><path d="M14,7.75c1.24,0,2.25,1.01,2.25,2.25,0,.41,.34,.75,.75,.75s.75-.34,.75-.75c0-2.07-1.68-3.75-3.75-3.75-.41,0-.75,.34-.75,.75s.34,.75,.75,.75Z"/><path d="M14,4.75c2.89,0,5.25,2.35,5.25,5.25,0,.41,.34,.75,.75,.75s.75-.34,.75-.75c0-3.72-3.03-6.75-6.75-6.75-.41,0-.75,.34-.75,.75s.34,.75,.75,.75Z"/></g></g></svg>