<?xml version="1.0" encoding="UTF-8"?><svg fill="currentColor" xmlns="http://www.w3.org/2000/svg" viewBox="0 0 24 24"><g id="d"><g><path d="M16,2.25h-6c-2.36,0-4.31,1.74-4.67,4h-1.33c-.41,0-.75,.34-.75,.75s.34,.75,.75,.75h1.25v3.5h-1.25c-.41,0-.75,.34-.75,.75s.34,.75,.75,.75h1.25v3.5h-1.25c-.41,0-.75,.34-.75,.75s.34,.75,.75,.75h1.33c.36,2.26,2.31,4,4.67,4h6c2.62,0,4.75-2.13,4.75-4.75V7c0-2.62-2.13-4.75-4.75-4.75Zm3.25,14.75c0,1.79-1.46,3.25-3.25,3.25h-6c-1.53,0-2.81-1.07-3.15-2.5h1.15c.41,0,.75-.34,.75-.75s-.34-.75-.75-.75h-1.25v-3.5h1.25c.41,0,.75-.34,.75-.75s-.34-.75-.75-.75h-1.25v-3.5h1.25c.41,0,.75-.34,.75-.75s-.34-.75-.75-.75h-1.15c.34-1.43,1.62-2.5,3.15-2.5h6c1.79,0,3.25,1.46,3.25,3.25v10Z"/><path d="M17.12,12.88c-.68-.68-1.79-.68-2.47,0l-.71,.71s-.08,.09-.11,.15c-.33-.27-.65-.55-.95-.85s-.59-.62-.85-.95c.05-.03,.1-.07,.15-.11l.71-.71c.68-.68,.68-1.79,0-2.47l-.71-.71c-.68-.68-1.79-.68-2.48,0l-.22,.22c-.52,.52-.66,1.32-.35,1.98,.68,1.42,1.58,2.7,2.69,3.81s2.4,2.02,3.82,2.69c.23,.11,.48,.17,.73,.17,.45,0,.91-.18,1.24-.52l.22-.22c.68-.68,.68-1.79,0-2.47l-.71-.71Zm-5.3-2.83l-.66,.66c-.25-.4-.47-.8-.67-1.23-.04-.09-.02-.2,.06-.27l.22-.22s.11-.07,.18-.07,.13,.02,.18,.07l.71,.71c.1,.1,.1,.26,0,.35Zm4.95,4.95l-.22,.22c-.07,.07-.18,.1-.27,.06-.43-.2-.84-.43-1.24-.68l.66-.66c.13-.13,.23-.13,.35,0l.71,.71c.1,.1,.1,.26,0,.35Z"/></g></g></svg>