<?xml version="1.0" encoding="UTF-8"?><svg fill="currentColor" xmlns="http://www.w3.org/2000/svg" viewBox="0 0 24 24"><g id="l"><g><path d="M20.65,10.35l-.9-.9v-3.45c0-.41-.34-.75-.75-.75s-.75,.34-.75,.75v1.95l-3.6-3.6c-1.42-1.42-3.89-1.42-5.3,0L3.35,10.35c-.71,.71-1.1,1.65-1.1,2.65v3.76c0,2.07,1.68,3.75,3.75,3.75h12c2.07,0,3.75-1.68,3.75-3.75v-3.76c0-1-.39-1.94-1.1-2.65Zm-.4,6.41c0,1.24-1.01,2.25-2.25,2.25H6c-1.24,0-2.25-1.01-2.25-2.25v-3.76c0-.59,.24-1.17,.66-1.59l6-6c.42-.43,.99-.66,1.59-.66s1.17,.23,1.59,.66l6,6c.42,.42,.66,1,.66,1.59v3.76Z"/><path d="M12,13.01c-2.07,0-3.75,1.76-3.75,3.93,0,.41,.34,.75,.75,.75s.75-.34,.75-.75c0-1.34,1.01-2.43,2.25-2.43s2.25,1.09,2.25,2.43c0,.41,.34,.75,.75,.75s.75-.34,.75-.75c0-2.17-1.68-3.93-3.75-3.93Z"/></g></g></svg>