<?xml version="1.0" encoding="UTF-8"?><svg fill="currentColor" xmlns="http://www.w3.org/2000/svg" viewBox="0 0 24 24"><g id="u"><g><path d="M12,2.25C6.62,2.25,2.25,6.62,2.25,12v7c0,1.52,1.23,2.75,2.75,2.75h7c5.38,0,9.75-4.37,9.75-9.75S17.38,2.25,12,2.25Zm0,18H5c-.69,0-1.25-.56-1.25-1.25v-7C3.75,7.45,7.45,3.75,12,3.75s8.25,3.7,8.25,8.25-3.7,8.25-8.25,8.25Z"/><path d="M11,10.25h-1c-.41,0-.75,.34-.75,.75s.34,.75,.75,.75h1c.14,0,.25,.11,.25,.25v5c0,.41,.34,.75,.75,.75s.75-.34,.75-.75v-5c0-.96-.79-1.75-1.75-1.75Z"/><path d="M12,6.25c-.41,0-.75,.34-.75,.75v1c0,.41,.34,.75,.75,.75s.75-.34,.75-.75v-1c0-.41-.34-.75-.75-.75Z"/></g></g></svg>