<?xml version="1.0" encoding="UTF-8"?><svg fill="currentColor" xmlns="http://www.w3.org/2000/svg" viewBox="0 0 24 24"><g id="p"><g><path d="M19,16.25h-.25v-2.25c0-.41-.34-.75-.75-.75s-.75,.34-.75,.75v2.25h-2.84c-.47,0-.91,.18-1.24,.51l-.41,.41s-.11,.07-.18,.07h-3.17c-.07,0-.13-.03-.18-.07l-.41-.41c-.33-.33-.77-.51-1.24-.51h-2.84v-6.25c0-.69,.56-1.25,1.25-1.25h4c.41,0,.75-.34,.75-.75s-.34-.75-.75-.75H6c-1.52,0-2.75,1.23-2.75,2.75v6.25h-.25c-.41,0-.75,.34-.75,.75v1c0,1.52,1.23,2.75,2.75,2.75h12c1.52,0,2.75-1.23,2.75-2.75v-1c0-.41-.34-.75-.75-.75Zm-.75,1.75c0,.69-.56,1.25-1.25,1.25H5c-.69,0-1.25-.56-1.25-1.25v-.25h3.84c.07,0,.13,.03,.18,.07l.41,.41c.33,.33,.77,.51,1.24,.51h3.17c.47,0,.91-.18,1.24-.51l.41-.41s.11-.07,.18-.07h3.84v.25Z"/><path d="M19,4.25h-4c-1.52,0-2.75,1.23-2.75,2.75v3c0,.96,.79,1.75,1.75,1.75,.14,0,.25,.11,.25,.25v1c0,.28,.15,.53,.4,.66,.11,.06,.23,.09,.35,.09,.15,0,.29-.04,.42-.13l2.75-1.83s.09-.04,.14-.04h.7c1.52,0,2.75-1.23,2.75-2.75v-2c0-1.52-1.23-2.75-2.75-2.75Zm1.25,4.75c0,.69-.56,1.25-1.25,1.25h-.7c-.35,0-.68,.1-.97,.29l-1.62,1.08c-.17-.79-.87-1.38-1.71-1.38-.14,0-.25-.11-.25-.25v-3c0-.69,.56-1.25,1.25-1.25h4c.69,0,1.25,.56,1.25,1.25v2Z"/></g></g></svg>