<?xml version="1.0" encoding="UTF-8"?><svg fill="currentColor" xmlns="http://www.w3.org/2000/svg" viewBox="0 0 24 24"><g id="q"><g><path d="M15.08,18.29c-.39-.14-.82,.07-.96,.46-.32,.9-1.17,1.5-2.12,1.5H7c-1.24,0-2.25-1.01-2.25-2.25V6c0-1.24,1.01-2.25,2.25-2.25h5c.95,0,1.8,.6,2.12,1.5,.14,.39,.57,.6,.96,.46,.39-.14,.59-.57,.46-.96-.53-1.5-1.95-2.5-3.54-2.5H7c-2.07,0-3.75,1.68-3.75,3.75v12c0,2.07,1.68,3.75,3.75,3.75h5c1.59,0,3.01-1,3.54-2.5,.14-.39-.07-.82-.46-.96Z"/><path d="M19,6.25h-6c-1.52,0-2.75,1.23-2.75,2.75v2c0,1.52,1.23,2.75,2.75,2.75h1c.14,0,.25,.11,.25,.25v2c0,.3,.18,.58,.46,.69,.09,.04,.19,.06,.29,.06,.2,0,.39-.08,.53-.22l2.71-2.71s.11-.07,.18-.07h.59c1.52,0,2.75-1.23,2.75-2.75v-2c0-1.52-1.23-2.75-2.75-2.75Zm1.25,4.75c0,.69-.56,1.25-1.25,1.25h-.59c-.46,0-.91,.19-1.24,.51l-1.43,1.43v-.19c0-.96-.79-1.75-1.75-1.75h-1c-.69,0-1.25-.56-1.25-1.25v-2c0-.69,.56-1.25,1.25-1.25h6c.69,0,1.25,.56,1.25,1.25v2Z"/><path d="M8,18.75h3c.41,0,.75-.34,.75-.75s-.34-.75-.75-.75h-3c-.41,0-.75,.34-.75,.75s.34,.75,.75,.75Z"/></g></g></svg>