<?xml version="1.0" encoding="UTF-8"?><svg fill="currentColor" xmlns="http://www.w3.org/2000/svg" viewBox="0 0 24 24"><g id="e"><g><path d="M20.06,9.39c-.3-.1-.54-.32-.67-.61-.13-.29-.13-.61,0-.9,.46-1.02,.24-2.18-.57-2.96-.81-.78-1.98-.96-2.98-.46-.29,.14-.61,.16-.9,.04-.3-.12-.52-.35-.64-.64-.39-1.05-1.39-1.69-2.49-1.69-1.12,.02-2.07,.72-2.43,1.78-.1,.3-.32,.54-.61,.67-.29,.13-.61,.13-.9,0-1.02-.46-2.18-.24-2.96,.57-.78,.81-.96,1.98-.46,2.98,.14,.29,.16,.61,.04,.9-.12,.3-.35,.52-.64,.63-1.05,.4-1.71,1.38-1.69,2.5s.72,2.07,1.78,2.43c.3,.1,.54,.32,.67,.61,.13,.29,.13,.61,0,.9-.46,1.02-.24,2.18,.57,2.96,.81,.78,1.98,.96,2.98,.46,.29-.14,.61-.16,.9-.04,.3,.12,.52,.35,.64,.64,.39,1.03,1.34,1.69,2.44,1.69h.05c1.12-.02,2.07-.72,2.43-1.78,.1-.3,.32-.54,.61-.67,.29-.13,.61-.13,.9,0,1.02,.46,2.18,.24,2.96-.57,.78-.81,.96-1.98,.46-2.98-.14-.29-.16-.61-.04-.9,.12-.3,.35-.52,.64-.63,1.05-.4,1.71-1.38,1.69-2.5s-.72-2.07-1.78-2.43Zm-.44,3.52c-.69,.26-1.24,.8-1.51,1.49-.27,.69-.24,1.46,.09,2.12,.26,.52,.07,1-.19,1.27s-.73,.48-1.26,.24c-.67-.3-1.44-.31-2.12-.02-.68,.29-1.2,.87-1.44,1.57-.18,.55-.66,.75-1.04,.76h-.02c-.38,0-.84-.19-1.04-.72-.26-.69-.8-1.24-1.49-1.51-.31-.12-.63-.18-.96-.18-.4,0-.8,.09-1.17,.27-.52,.26-1,.07-1.27-.2-.27-.26-.48-.73-.24-1.26,.3-.67,.31-1.45,.02-2.12-.3-.68-.87-1.2-1.57-1.43-.55-.18-.75-.66-.76-1.04,0-.38,.18-.86,.72-1.06,.69-.26,1.24-.8,1.51-1.49,.27-.69,.24-1.46-.09-2.12-.26-.52-.07-1,.19-1.27,.26-.27,.73-.48,1.26-.24,.67,.31,1.45,.31,2.12,.02,.68-.29,1.2-.87,1.44-1.57,.18-.55,.66-.75,1.04-.76,.4-.04,.86,.18,1.06,.72,.26,.69,.8,1.24,1.49,1.51,.69,.27,1.46,.24,2.12-.09,.52-.26,1-.07,1.27,.2,.27,.26,.48,.73,.24,1.26-.3,.67-.31,1.45-.02,2.12,.3,.68,.87,1.2,1.57,1.43,.55,.18,.75,.66,.76,1.04,0,.38-.18,.86-.72,1.06Z"/><path d="M14.41,9.53l-2.58,3.22c-.18,.23-.46,.37-.76,.34-.3-.01-.56-.16-.72-.41l-.74-1.1c-.23-.34-.7-.44-1.04-.21-.34,.23-.44,.7-.21,1.04l.74,1.1c.43,.65,1.13,1.04,1.91,1.07,.04,0,.07,0,.11,0,.74,0,1.42-.33,1.88-.91l2.58-3.22c.26-.32,.21-.8-.12-1.05-.32-.26-.8-.21-1.05,.12Z"/></g></g></svg>