<?xml version="1.0" encoding="UTF-8"?><svg fill="currentColor" xmlns="http://www.w3.org/2000/svg" viewBox="0 0 24 24"><g id="f"><g><path d="M12.28,14.4l-2.17,.06v-1.46c0-.67-.36-1.26-.94-1.56-.81-.41-1.8-.12-2.26,.67l-1.34,2.29h-1.57c-.96,0-1.75,.79-1.75,1.75v2.85c0,.96,.79,1.75,1.75,1.75h7.71c.93,0,1.76-.64,2.02-1.55l.58-2.08c.18-.66,.05-1.35-.36-1.89-.4-.53-1-.83-1.66-.83ZM3.75,19v-2.85c0-.14,.11-.25,.25-.25h1.25v3.35h-1.25c-.14,0-.25-.11-.25-.25Zm9.1-2.28l-.58,2.08c-.07,.27-.31,.46-.57,.46H6.75v-3.89l1.45-2.49c.06-.1,.18-.14,.28-.09,.08,.04,.13,.13,.13,.23v1.46c0,.79,.64,1.44,1.42,1.44h2.25c.25,0,.4,.15,.46,.23,.13,.17,.17,.38,.11,.58Z"/><path d="M20,3.25h-7.71c-.93,0-1.76,.64-2.02,1.55l-.58,2.08c-.18,.66-.05,1.35,.36,1.89,.4,.53,1,.83,1.66,.83l2.17-.06v1.46c0,.67,.36,1.26,.94,1.56,.25,.13,.51,.19,.77,.19,.59,0,1.17-.31,1.49-.86l1.34-2.29h1.57c.96,0,1.75-.79,1.75-1.75v-2.85c0-.96-.79-1.75-1.75-1.75Zm-4.2,7.88c-.06,.1-.18,.14-.28,.09-.08-.04-.13-.13-.13-.23v-1.46c0-.79-.64-1.44-1.42-1.44h-2.25c-.25,0-.4-.15-.46-.23-.13-.17-.17-.38-.11-.58l.58-2.08c.07-.27,.31-.46,.57-.46h4.96v3.89l-1.45,2.49Zm4.45-3.29c0,.14-.11,.25-.25,.25h-1.25v-3.35h1.25c.14,0,.25,.11,.25,.25v2.85Z"/><path d="M4,12.75c.41,0,.75-.34,.75-.75V7c0-.69,.56-1.25,1.25-1.25h2c.41,0,.75-.34,.75-.75s-.34-.75-.75-.75h-2c-1.52,0-2.75,1.23-2.75,2.75v5c0,.41,.34,.75,.75,.75Z"/><path d="M20,11.25c-.41,0-.75,.34-.75,.75v5c0,.69-.56,1.25-1.25,1.25h-2c-.41,0-.75,.34-.75,.75s.34,.75,.75,.75h2c1.52,0,2.75-1.23,2.75-2.75v-5c0-.41-.34-.75-.75-.75Z"/></g></g></svg>