<?xml version="1.0" encoding="UTF-8"?><svg fill="currentColor" xmlns="http://www.w3.org/2000/svg" viewBox="0 0 24 24"><g id="i"><g><path d="M12,2.25C6.62,2.25,2.25,6.62,2.25,12s4.37,9.75,9.75,9.75,9.75-4.37,9.75-9.75S17.38,2.25,12,2.25Zm0,18c-4.55,0-8.25-3.7-8.25-8.25S7.45,3.75,12,3.75s8.25,3.7,8.25,8.25-3.7,8.25-8.25,8.25Z"/><path d="M16,8.25c-.41,0-.75,.34-.75,.75v2.25h-1.25c-.14,0-.25-.11-.25-.25v-2c0-.41-.34-.75-.75-.75s-.75,.34-.75,.75v2c0,.96,.79,1.75,1.75,1.75h1.25v2.25c0,.41,.34,.75,.75,.75s.75-.34,.75-.75v-6c0-.41-.34-.75-.75-.75Z"/><path d="M9.5,12.75c1.24,0,2.25-1.01,2.25-2.25s-1.01-2.25-2.25-2.25h-1.5c-.41,0-.75,.34-.75,.75s.34,.75,.75,.75h1.5c.41,0,.75,.34,.75,.75s-.34,.75-.75,.75c-1.24,0-2.25,1.01-2.25,2.25s1.01,2.25,2.25,2.25h1.5c.41,0,.75-.34,.75-.75s-.34-.75-.75-.75h-1.5c-.41,0-.75-.34-.75-.75s.34-.75,.75-.75Z"/></g></g></svg>