<?xml version="1.0" encoding="UTF-8"?><svg fill="currentColor" xmlns="http://www.w3.org/2000/svg" viewBox="0 0 24 24"><g id="b"><g><path d="M13,2.25h-2c-2.62,0-4.75,2.13-4.75,4.75v10c0,2.62,2.13,4.75,4.75,4.75h2c2.62,0,4.75-2.13,4.75-4.75V7c0-2.62-2.13-4.75-4.75-4.75Zm3.25,14.75c0,1.79-1.46,3.25-3.25,3.25h-2c-1.79,0-3.25-1.46-3.25-3.25V7c0-1.79,1.46-3.25,3.25-3.25h2c1.79,0,3.25,1.46,3.25,3.25v10Z"/><path d="M14,5.25c-.41,0-.75,.34-.75,.75v4.6l-1.83-1.22c-.34-.23-.81-.14-1.04,.21-.23,.34-.14,.81,.21,1.04l3,2c.13,.08,.27,.13,.42,.13,.12,0,.24-.03,.35-.09,.24-.13,.4-.38,.4-.66V6c0-.41-.34-.75-.75-.75Z"/><path d="M10.42,11.38c-.23-.15-.53-.17-.77-.04-.24,.13-.4,.38-.4,.66v6c0,.41,.34,.75,.75,.75s.75-.34,.75-.75v-4.6l1.83,1.22c.34,.23,.81,.14,1.04-.21,.23-.34,.14-.81-.21-1.04l-3-2Z"/></g></g></svg>