<?xml version="1.0" encoding="UTF-8"?><svg fill="currentColor" xmlns="http://www.w3.org/2000/svg" viewBox="0 0 24 24"><g id="m"><g><path d="M20.82,9.76L14.24,3.18c-1.2-1.2-3.29-1.2-4.49,0L3.18,9.76c-1.24,1.24-1.24,3.25,0,4.49l6.57,6.57c.6,.6,1.4,.93,2.24,.93s1.64-.33,2.24-.93l6.57-6.57c1.24-1.24,1.24-3.25,0-4.49Zm-1.06,3.43l-6.57,6.57c-.63,.63-1.73,.63-2.37,0l-6.57-6.57c-.65-.65-.65-1.72,0-2.37l6.57-6.57c.63-.63,1.73-.63,2.37,0l6.57,6.57c.65,.65,.65,1.72,0,2.37Z"/><path d="M16.05,9.55l-2.02-.28-.92-1.77c-.22-.42-.64-.67-1.11-.67s-.89,.26-1.11,.67l-.92,1.77-2.02,.28c-.48,.07-.88,.4-1.02,.86-.15,.47-.01,.96,.34,1.29l1.42,1.31-.34,1.87c-.08,.47,.1,.94,.48,1.22,.38,.29,.88,.33,1.31,.12l1.86-.93,1.86,.93c.18,.09,.37,.13,.56,.13,.27,0,.53-.08,.75-.25,.38-.29,.56-.75,.48-1.22l-.34-1.87,1.42-1.31c.36-.33,.49-.83,.34-1.29-.15-.47-.54-.8-1.02-.86Zm-2.06,2.64c-.19,.17-.28,.43-.23,.69l.32,1.79-1.75-.87c-.21-.1-.46-.1-.67,0l-1.75,.87,.32-1.79c.05-.25-.04-.51-.23-.69l-1.33-1.23,1.88-.26c.24-.03,.45-.18,.56-.4l.88-1.69,.88,1.69c.11,.22,.32,.36,.56,.4l1.88,.26-1.33,1.23Z"/></g></g></svg>