<?xml version="1.0" encoding="UTF-8"?><svg fill="currentColor" xmlns="http://www.w3.org/2000/svg" viewBox="0 0 24 24"><g id="s"><g><path d="M18.23,13.58c-.5-.82-1.4-1.33-2.36-1.33h-7.73c-.96,0-1.86,.51-2.36,1.34l-2.13,3.55c-.26,.43-.39,.92-.39,1.42v.45c0,1.52,1.23,2.75,2.75,2.75h12c1.52,0,2.75-1.23,2.75-2.75v-.45c0-.5-.14-.99-.39-1.42l-2.13-3.55Zm1.02,5.42c0,.69-.56,1.25-1.25,1.25H6c-.69,0-1.25-.56-1.25-1.25v-.45c0-.23,.06-.45,.18-.64l2.13-3.55c.22-.37,.64-.61,1.07-.61h7.73c.44,0,.85,.23,1.07,.61l2.13,3.55c.12,.19,.18,.42,.18,.64v.45Z"/><path d="M17.63,2.73c-3.7-.64-7.54-.64-11.25,0-1.81,.31-3.13,1.87-3.13,3.7v1.57c0,1.52,1.23,2.75,2.75,2.75s2.75-1.23,2.75-2.75c0-.14,.11-.25,.25-.25h6c.14,0,.25,.11,.25,.25,0,1.52,1.23,2.75,2.75,2.75s2.75-1.23,2.75-2.75v-1.57c0-1.83-1.31-3.39-3.12-3.7Zm1.62,5.27c0,.69-.56,1.25-1.25,1.25s-1.25-.56-1.25-1.25c0-.96-.79-1.75-1.75-1.75h-6c-.96,0-1.75,.79-1.75,1.75,0,.69-.56,1.25-1.25,1.25s-1.25-.56-1.25-1.25v-1.57c0-1.1,.79-2.03,1.88-2.22,3.54-.61,7.21-.61,10.74,0,1.09,.19,1.88,1.12,1.88,2.22v1.57Z"/><path d="M12,14.25c-1.52,0-2.75,1.23-2.75,2.75s1.23,2.75,2.75,2.75,2.75-1.23,2.75-2.75-1.23-2.75-2.75-2.75Zm0,4c-.69,0-1.25-.56-1.25-1.25s.56-1.25,1.25-1.25,1.25,.56,1.25,1.25-.56,1.25-1.25,1.25Z"/></g></g></svg>