<?xml version="1.0" encoding="UTF-8"?><svg fill="currentColor" xmlns="http://www.w3.org/2000/svg" viewBox="0 0 24 24"><g id="o"><g><path d="M16.35,12.8h-3.35c-.14,0-.25-.11-.25-.25v-2.1c0-.84-.47-1.59-1.21-1.97-1.02-.51-2.28-.14-2.87,.83l-2.09,3.49h-1.58c-1.52,0-2.75,1.23-2.75,2.75v3c0,1.52,1.23,2.75,2.75,2.75H15.49c1.22,0,2.31-.82,2.64-1.99l.86-3c.24-.84,.08-1.72-.45-2.41s-1.32-1.09-2.2-1.09ZM3.75,18.55v-3c0-.69,.56-1.25,1.25-1.25h1.25v5.5h-1.25c-.69,0-1.25-.56-1.25-1.25Zm13.8-2.66l-.86,3c-.15,.53-.65,.91-1.2,.91H7.75v-6.04l2.2-3.67c.19-.31,.59-.43,.91-.26,.24,.12,.39,.36,.39,.62v2.1c0,.96,.79,1.75,1.75,1.75h3.35c.4,0,.76,.18,1,.5,.24,.32,.31,.72,.2,1.1Z"/><path d="M17.5,2.25c-2.34,0-4.25,1.91-4.25,4.25s1.91,4.25,4.25,4.25,4.25-1.91,4.25-4.25-1.91-4.25-4.25-4.25Zm0,7c-1.52,0-2.75-1.23-2.75-2.75s1.23-2.75,2.75-2.75,2.75,1.23,2.75,2.75-1.23,2.75-2.75,2.75Z"/><path d="M18.47,5.47l-1.47,1.47-.47-.47c-.29-.29-.77-.29-1.06,0s-.29,.77,0,1.06l1,1c.15,.15,.34,.22,.53,.22s.38-.07,.53-.22l2-2c.29-.29,.29-.77,0-1.06s-.77-.29-1.06,0Z"/></g></g></svg>