<?xml version="1.0" encoding="UTF-8"?><svg fill="currentColor" xmlns="http://www.w3.org/2000/svg" viewBox="0 0 24 24"><g id="o"><g><path d="M3.25,7.74v7.5h5v-.25c0-2.07,1.68-3.75,3.75-3.75s3.75,1.68,3.75,3.75v.25h5V7.74H3.25Z"/><path d="M12,12.74c-1.24,0-2.25,1.01-2.25,2.25v6.75h4.5v-6.75c0-1.24-1.01-2.25-2.25-2.25Z"/><path d="M15.75,21.74h4.25c.41,0,.75-.34,.75-.75v-4.25h-5v5Z"/><path d="M4,21.74h4.25v-5H3.25v4.25c0,.41,.34,.75,.75,.75Z"/><path d="M8.25,3.74h1.5v2.5h4.5V3.74h1.5v2.5h5V3.74h.25c.41,0,.75-.34,.75-.75s-.34-.75-.75-.75H3c-.41,0-.75,.34-.75,.75s.34,.75,.75,.75h.25v2.5h5V3.74Z"/><path d="M21,7.74c.41,0,.75-.34,.75-.75s-.34-.75-.75-.75h-.25v1.5h.25Z"/><path d="M3,6.24c-.41,0-.75,.34-.75,.75s.34,.75,.75,.75h.25v-1.5h-.25Z"/><path d="M21,16.74c.41,0,.75-.34,.75-.75s-.34-.75-.75-.75h-.25v1.5h.25Z"/><path d="M2.25,15.99c0,.41,.34,.75,.75,.75h.25v-1.5h-.25c-.41,0-.75,.34-.75,.75Z"/></g></g></svg>