<?xml version="1.0" encoding="UTF-8"?><svg fill="currentColor" xmlns="http://www.w3.org/2000/svg" viewBox="0 0 24 24"><g id="j"><g><path d="M14.66,5.58l-.94-2.83c-.1-.31-.39-.51-.71-.51h-1c-.32,0-.61,.21-.71,.51l-.94,2.83-2.65,2.66h9.62l-2.65-2.66Z"/><circle cx="12.5" cy="16.49" r=".75"/><rect x="8.25" y="9.74" width="8.5" height="1.5"/><path d="M7.25,12.74v8.25c0,.41,.34,.75,.75,.75h9c.41,0,.75-.34,.75-.75V12.74H7.25Zm5.25,6c-1.24,0-2.25-1.01-2.25-2.25s1.01-2.25,2.25-2.25,2.25,1.01,2.25,2.25-1.01,2.25-2.25,2.25Z"/></g></g></svg>