<?xml version="1.0" encoding="UTF-8"?><svg fill="currentColor" xmlns="http://www.w3.org/2000/svg" viewBox="0 0 24 24"><g id="f"><g><path d="M7.25,8.49c0-1.24,1.01-2.25,2.25-2.25s2.25,1.01,2.25,2.25v2.75h6.84l-.59-2.37c-.23-.92-.9-1.64-1.8-1.94l-1.17-.39c-.32-.11-.57-.33-.72-.63l-1.08-2.15c-.47-.94-1.41-1.52-2.46-1.52H6c-.96,0-1.75,.79-1.75,1.75v7.25h3v-2.75Z"/><path d="M9.5,7.74c-.41,0-.75,.34-.75,.75v2.75h1.5v-2.75c0-.41-.34-.75-.75-.75Z"/><path d="M15.5,16.74c-.41,0-.75,.34-.75,.75v4.25h1.5v-4.25c0-.41-.34-.75-.75-.75Z"/><path d="M9.5,16.74c-.41,0-.75,.34-.75,.75v4.25h1.5v-4.25c0-.41-.34-.75-.75-.75Z"/><path d="M8,12.74h-3.75v8.25c0,.41,.34,.75,.75,.75h2.25v-4.25c0-1.24,1.01-2.25,2.25-2.25s2.25,1.01,2.25,2.25v4.25h1.5v-4.25c0-1.24,1.01-2.25,2.25-2.25s2.25,1.01,2.25,2.25v4.25h2.25c.41,0,.75-.34,.75-.75V12.74H8Z"/><path d="M21,11.24h-2.41l2.16,1.5h.25c.41,0,.75-.34,.75-.75s-.34-.75-.75-.75Z"/><path d="M4,11.24c-.41,0-.75,.34-.75,.75s.34,.75,.75,.75h.25v-1.5h-.25Z"/></g></g></svg>