<?xml version="1.0" encoding="UTF-8"?><svg fill="currentColor" xmlns="http://www.w3.org/2000/svg" viewBox="0 0 24 24"><g id="n"><g><path d="M13.94,5.81c-.14-.65-.6-1.17-1.19-1.42v-1.4c0-.41-.34-.75-.75-.75s-.75,.34-.75,.75v1.4c-.59,.24-1.05,.77-1.19,1.42-.19,.93-.43,2.1-.68,3.43h5.24c-.25-1.33-.49-2.49-.68-3.43Z"/><path d="M15.15,12.09c-.07-.38-.15-.83-.25-1.35h-5.81c-.1,.52-.18,.97-.25,1.36-.18,.99-.28,1.57-.42,2.14h7.15c-.14-.57-.25-1.15-.43-2.15Z"/><path d="M21,20.24h-2.6c-1.02-1.45-1.8-2.96-2.35-4.5H7.96c-.55,1.54-1.34,3.05-2.35,4.5H3c-.41,0-.75,.34-.75,.75s.34,.75,.75,.75h6.25v-1.75c0-1.52,1.23-2.75,2.75-2.75s2.75,1.23,2.75,2.75v1.75h6.25c.41,0,.75-.34,.75-.75s-.34-.75-.75-.75Z"/><path d="M12,18.74c-.69,0-1.25,.56-1.25,1.25v1.75h2.5v-1.75c0-.69-.56-1.25-1.25-1.25Z"/><path d="M7,14.24c-.41,0-.75,.34-.75,.75s.34,.75,.75,.75h.96l.47-1.5h-1.42Z"/><path d="M17,15.74c.41,0,.75-.34,.75-.75s-.34-.75-.75-.75h-1.42l.47,1.5h.96Z"/><path d="M8,9.24c-.41,0-.75,.34-.75,.75s.34,.75,.75,.75h1.1l.28-1.5h-1.38Z"/><path d="M16,10.74c.41,0,.75-.34,.75-.75s-.34-.75-.75-.75h-1.38l.28,1.5h1.1Z"/></g></g></svg>