<?xml version="1.0" encoding="UTF-8"?><svg fill="currentColor" xmlns="http://www.w3.org/2000/svg" viewBox="0 0 24 24"><g id="d"><g><polygon points="12.75 11.45 12.75 12.78 20.75 8.78 20.75 7.45 12.75 11.45"/><path d="M12.34,2.32c-.21-.11-.46-.11-.67,0L4,6.15l8,4,8-4-7.66-3.83Z"/><polygon points="3.25 8.78 11.25 12.78 11.25 11.45 3.25 7.45 3.25 8.78"/><path d="M3.25,16.99c0,.28,.16,.54,.41,.67l7.59,3.79v-7L3.25,10.45v6.54Z"/><path d="M12.75,21.45l1.5-.75v-4.71c0-.28,.16-.54,.42-.67l2-1c.23-.12,.51-.11,.73,.03,.22,.14,.36,.38,.36,.64v3.96l2.58-1.29c.25-.13,.42-.39,.42-.67v-6.54l-8,4v7Z"/><polygon points="15.75 19.95 16.25 19.7 16.25 16.2 15.75 16.45 15.75 19.95"/></g></g></svg>