<?xml version="1.0" encoding="UTF-8"?><svg fill="currentColor" xmlns="http://www.w3.org/2000/svg" viewBox="0 0 24 24"><g id="h"><g><path d="M7,3.74h10c.41,0,.75-.34,.75-.75s-.34-.75-.75-.75H7c-.41,0-.75,.34-.75,.75s.34,.75,.75,.75Z"/><path d="M8,9.74h8c.41,0,.75-.34,.75-.75v-3.75H7.25v3.75c0,.41,.34,.75,.75,.75Z"/><path d="M4.25,13.39v1.6c0,.41,.34,.75,.75,.75h4c.41,0,.75-.34,.75-.75v-.75h-3.75c-.71,0-1.34-.34-1.75-.85Z"/><path d="M3.25,16.39v1.6c0,.41,.34,.75,.75,.75h4c.41,0,.75-.34,.75-.75v-.75h-3.75c-.71,0-1.34-.34-1.75-.85Z"/><path d="M2.25,19.39v1.6c0,.41,.34,.75,.75,.75H7c.41,0,.75-.34,.75-.75v-.75h-3.75c-.71,0-1.34-.34-1.75-.85Z"/><path d="M5.75,8.99v-.7c-.29,.1-.5,.37-.5,.7v3c0,.41,.34,.75,.75,.75h4c.41,0,.75-.34,.75-.75v-.75h-2.75c-1.24,0-2.25-1.01-2.25-2.25Z"/><path d="M19.75,14.99v-1.6c-.41,.52-1.04,.85-1.75,.85h-3.75v.75c0,.41,.34,.75,.75,.75h4c.41,0,.75-.34,.75-.75Z"/><path d="M20.75,17.99v-1.6c-.41,.52-1.04,.85-1.75,.85h-3.75v.75c0,.41,.34,.75,.75,.75h4c.41,0,.75-.34,.75-.75Z"/><path d="M20,20.24h-3.75v.75c0,.41,.34,.75,.75,.75h4c.41,0,.75-.34,.75-.75v-1.6c-.41,.52-1.04,.85-1.75,.85Z"/><path d="M18.75,11.99v-3c0-.33-.21-.6-.5-.7v.7c0,1.24-1.01,2.25-2.25,2.25h-2.75v.75c0,.41,.34,.75,.75,.75h4c.41,0,.75-.34,.75-.75Z"/></g></g></svg>