<?xml version="1.0" encoding="UTF-8"?><svg fill="currentColor" xmlns="http://www.w3.org/2000/svg" viewBox="0 0 24 24"><g id="g"><path d="M18.7,18.34c.59-.73,.91-1.65,.85-2.59l-.63-10c-.12-1.97-1.77-3.52-3.74-3.52h-6.36c-1.98,0-3.62,1.54-3.74,3.52l-.62,10c-.06,.94,.26,1.86,.85,2.59-1.17,.31-2.05,1.38-2.05,2.65,0,.41,.34,.75,.75,.75s.75-.34,.75-.75c0-.69,.56-1.25,1.25-1.25h12c.69,0,1.25,.56,1.25,1.25,0,.41,.34,.75,.75,.75s.75-.34,.75-.75c0-1.27-.87-2.33-2.05-2.65Zm-3.7-1.6c-.41,0-.75-.34-.75-.75,0-.14-.11-.25-.25-.25h-4c-.14,0-.25,.11-.25,.25,0,.41-.34,.75-.75,.75s-.75-.34-.75-.75c0-.96,.79-1.75,1.75-1.75h4c.96,0,1.75,.79,1.75,1.75,0,.41-.34,.75-.75,.75Zm0-7h-.46s-.04,.18,.02,.38l.09,.37c.15,.59,.02,1.23-.33,1.68-.28,.36-.69,.57-1.11,.57h-2.42c-.42,0-.83-.21-1.11-.57-.35-.45-.48-1.09-.33-1.68l.09-.37c.05-.21-.03-.38-.07-.41l-.38,.02c-.41,0-.75-.34-.75-.75s.34-.75,.75-.75h.46c.42,0,.83,.21,1.11,.57,.35,.45,.48,1.09,.33,1.68l-.09,.37c-.05,.21,.03,.38,.07,.41l2.33-.02s.04-.18-.02-.38l-.09-.37c-.15-.59-.02-1.23,.33-1.68,.28-.36,.69-.57,1.11-.57h.46c.41,0,.75,.34,.75,.75s-.34,.75-.75,.75Zm0-3h-6c-.41,0-.75-.34-.75-.75s.34-.75,.75-.75h6c.41,0,.75,.34,.75,.75s-.34,.75-.75,.75Z"/></g></svg>