<?xml version="1.0" encoding="UTF-8"?><svg fill="currentColor" xmlns="http://www.w3.org/2000/svg" viewBox="0 0 24 24"><g id="b"><path d="M21.23,13.28c-.58-.19-1.11-.18-1.56,.04-.43,.21-.65,.53-.8,.76-.1,.15-.15,.21-.2,.24-.09,.04-.25,.03-.44-.04-.23-.07-.48-.04-.67,.11-.2,.14-.31,.37-.31,.61v3c0,.32,.21,.61,.52,.71,.27,.09,.54,.13,.78,.13,.28,0,.54-.06,.78-.17,.43-.21,.64-.53,.8-.76,.06-.08,.09-.14,.13-.17v2.51h-3.59l-1.92-15.34c-.02-.17-.1-.32-.21-.44l-1.78-1.78V20.24h-1.5V2.68l-1.78,1.78c-.12,.12-.19,.27-.21,.44l-1.92,15.34H3.75v-2.61s.07,.09,.13,.17c.16,.23,.37,.56,.8,.76,.24,.11,.5,.17,.77,.17,.25,0,.51-.04,.78-.13,.31-.1,.52-.39,.52-.71v-3c0-.24-.12-.47-.31-.61-.19-.14-.44-.18-.67-.11-.2,.07-.36,.08-.44,.04-.05-.03-.1-.09-.2-.24-.16-.23-.37-.55-.8-.76-.45-.21-.97-.23-1.55-.04-.31,.1-.52,.39-.52,.71v7.1c0,.41,.34,.75,.75,.75H21c.41,0,.75-.34,.75-.75v-7c0-.32-.21-.61-.52-.71Z"/></g></svg>