<?xml version="1.0" encoding="UTF-8"?><svg fill="currentColor" xmlns="http://www.w3.org/2000/svg" viewBox="0 0 24 24"><g id="r"><g><path d="M21,20.24h-2.25v-3.5h2.25c.38,0,.7-.28,.74-.66,.05-.38-.2-.73-.56-.82-1.69-.42-3.3-1.07-4.81-1.92-1.4-.79-2.69-1.77-3.85-2.89-.29-.28-.75-.28-1.04,0-1.16,1.12-2.45,2.09-3.85,2.89-1.51,.86-3.13,1.5-4.81,1.92-.37,.09-.61,.44-.56,.82,.05,.38,.37,.66,.74,.66h2.25v3.5H3c-.41,0-.75,.34-.75,.75s.34,.75,.75,.75H21c.41,0,.75-.34,.75-.75s-.34-.75-.75-.75Zm-9.75,0v-1.25c0-.41,.34-.75,.75-.75s.75,.34,.75,.75v1.25h-1.5Z"/><path d="M4.85,8.74h1.4v3.63c.21-.11,.43-.22,.64-.33,1.29-.73,2.48-1.63,3.55-2.66,.42-.41,.98-.63,1.57-.63s1.14,.23,1.57,.63c1.06,1.03,2.26,1.93,3.55,2.66,.21,.12,.42,.22,.64,.33v-3.63h1.4c.81,0,1.54-.45,1.91-1.18,.25-.51,.3-1.09,.12-1.63-.18-.54-.56-.98-1.07-1.23-.37-.18-.82-.03-1.01,.34-.19,.37-.04,.82,.34,1.01,.15,.08,.26,.21,.32,.37,.05,.16,.04,.33-.03,.48-.11,.22-.32,.35-.57,.35h-1.94c-.97-.51-1.88-1.12-2.72-1.82-.69-.58-1.33-1.22-1.91-1.91-.29-.34-.86-.34-1.15,0-.58,.69-1.22,1.33-1.91,1.91-.84,.7-1.75,1.31-2.72,1.82h-1.94c-.24,0-.46-.13-.57-.35-.08-.15-.09-.32-.03-.48,.05-.16,.17-.29,.32-.37,.37-.19,.52-.64,.34-1.01-.19-.37-.64-.52-1.01-.34-.51,.25-.89,.69-1.07,1.23-.18,.54-.14,1.12,.12,1.63,.36,.73,1.09,1.18,1.91,1.18Z"/></g></g></svg>