<?xml version="1.0" encoding="UTF-8"?><svg fill="currentColor" xmlns="http://www.w3.org/2000/svg" viewBox="0 0 24 24"><g id="m"><g><path d="M21.71,11.74h-7.43c-.01,.08-.04,.16-.04,.25v1.25h-4.5v-1.25c0-.09-.02-.17-.04-.25H2.29c-.01,.08-.04,.16-.04,.25v9c0,.41,.34,.75,.75,.75h6c.41,0,.75-.34,.75-.75v-3.41c.53-.16,1.18-.47,1.78-1.06,.13-.13,.3-.32,.47-.56,.13,.19,.29,.38,.47,.56,.31,.31,.91,.78,1.78,1.05v3.42c0,.41,.34,.75,.75,.75h6c.41,0,.75-.34,.75-.75V11.99c0-.09-.02-.17-.04-.25Zm-11.96,4.23v-1.23h1.23c-.17,.33-.37,.58-.51,.72-.23,.23-.48,.39-.72,.51Zm3.78-.51c-.24-.24-.39-.48-.51-.72h1.23v1.23c-.33-.17-.58-.37-.72-.51Z"/><path d="M6.75,3.81v-.82c0-.41-.34-.75-.75-.75s-.75,.34-.75,.75v.82l-.96,1.93h3.43l-.96-1.93Z"/><path d="M18.75,3.81v-.82c0-.41-.34-.75-.75-.75s-.75,.34-.75,.75v.82l-.96,1.93h3.43l-.96-1.93Z"/><path d="M8.75,7.99c0-.41-.34-.75-.75-.75H4c-.41,0-.75,.34-.75,.75v2.25h5.5v-2.25Z"/><path d="M20.75,7.99c0-.41-.34-.75-.75-.75h-4c-.41,0-.75,.34-.75,.75v2.25h5.5v-2.25Z"/></g></g></svg>