<?xml version="1.0" encoding="UTF-8"?><svg fill="currentColor" xmlns="http://www.w3.org/2000/svg" viewBox="0 0 24 24"><g id="u"><g><path d="M7,11.24h3.54l-1.6-4.8c-.24-.72-.91-1.2-1.66-1.2h-2.36c-.9,0-1.67,.71-1.74,1.6l-.83,10c-.04,.49,.13,.97,.46,1.33s.8,.57,1.29,.57h3.16v-6h-.25c-.41,0-.75-.34-.75-.75s.34-.75,.75-.75Z"/><path d="M20.82,6.84c-.07-.9-.84-1.6-1.74-1.6h-2.36c-.75,0-1.42,.48-1.66,1.2l-1.6,4.8h3.54c.41,0,.75,.34,.75,.75s-.34,.75-.75,.75h-.25v6h3.16c.49,0,.96-.21,1.29-.57s.5-.84,.46-1.33l-.83-10Z"/><path d="M8.75,18.74h2.5v-2.75c0-.41,.34-.75,.75-.75s.75,.34,.75,.75v2.75h2.5v-6h-6.5v6Z"/></g></g></svg>