<?xml version="1.0" encoding="UTF-8"?><svg fill="currentColor" xmlns="http://www.w3.org/2000/svg" viewBox="0 0 24 24"><g id="l"><g><path d="M9.3,12.99c.14-.39,.58-.59,.96-.44s.59,.58,.44,.96l-.44,1.17,1.4,.52,.44-1.17c.14-.39,.58-.58,.96-.44,.39,.14,.59,.58,.44,.96l-.44,1.17,1.41,.52,.44-1.17c.14-.39,.58-.58,.96-.44,.39,.14,.59,.58,.44,.96l-.44,1.17,2.81,1.05,1.22-3.28-3.51-1.31h0l-5.62-2.09h0l-3.51-1.31-1.22,3.28,2.81,1.05,.44-1.17Z"/><path d="M11.04,8.3c.14-.39,.58-.58,.96-.44,.39,.14,.59,.58,.44,.96l-.44,1.17,1.41,.52,.44-1.17c.14-.39,.58-.58,.96-.44,.39,.14,.59,.58,.44,.96l-.44,1.17,1.41,.52,.44-1.17c.14-.39,.58-.58,.96-.44,.39,.14,.59,.58,.44,.96l-.44,1.17,2.81,1.05,1.13-3.04c.16-.44,.15-.91-.05-1.34-.19-.43-.54-.75-.98-.91l-9.37-3.49c-.44-.16-.91-.15-1.34,.05-.42,.19-.75,.54-.91,.98l-1.13,3.05,2.81,1.05,.44-1.17Z"/><path d="M21,20.24h-3.2l.38-1.01-3.51-1.31h0l-2.81-1.05h0l-2.81-1.05h0l-3.51-1.31-2.13,5.72h-.39c-.41,0-.75,.34-.75,.75s.34,.75,.75,.75H21c.41,0,.75-.34,.75-.75s-.34-.75-.75-.75Zm-6.86-.92c.37,.14,.56,.54,.45,.92h-1.59l.18-.47c.14-.39,.58-.59,.96-.44Zm-2.81-1.05c.39,.14,.59,.58,.44,.96l-.37,1h-1.6l.57-1.52c.14-.39,.58-.59,.96-.44Zm-3.78-.61c.14-.39,.58-.58,.96-.44,.39,.14,.59,.58,.44,.96l-.76,2.04h-1.6l.96-2.57Z"/><path d="M20.7,5.24c-.2-.43-.54-.75-.98-.91l-5.32-1.98c-.82-.31-1.73,.05-2.14,.8l8.55,3.18c.08-.37,.05-.75-.11-1.1Z"/></g></g></svg>