<?xml version="1.0" encoding="UTF-8"?><svg fill="currentColor" xmlns="http://www.w3.org/2000/svg" viewBox="0 0 24 24"><g id="t"><g><path d="M18,20.24h-1.25v-4.25c0-.34-.23-.64-.57-.73l-8-2c-.23-.06-.46,0-.64,.14-.18,.14-.29,.36-.29,.59v6.25h-1.25c-.41,0-.75,.34-.75,.75s.34,.75,.75,.75h12c.41,0,.75-.34,.75-.75s-.34-.75-.75-.75Z"/><path d="M15.75,13.61v-3.62c0-.32-.21-.61-.51-.71l-6-2c-.23-.08-.48-.04-.68,.1-.2,.14-.31,.37-.31,.61v3.78c.1,.01,.2,.01,.29,.04l7.21,1.8Z"/><path d="M14.75,7.53v-2.55c0-.28-.16-.54-.41-.67l-4-2c-.23-.12-.51-.1-.73,.03-.22,.14-.36,.38-.36,.64v2.77c.16,.02,.31,.05,.46,.1l5.04,1.68Z"/></g></g></svg>