<?xml version="1.0" encoding="UTF-8"?><svg fill="currentColor" xmlns="http://www.w3.org/2000/svg" viewBox="0 0 24 24"><g id="k"><g><path d="M16,20.24h-1.25v-1h-5.5v1h-1.25c-.41,0-.75,.34-.75,.75s.34,.75,.75,.75h8c.41,0,.75-.34,.75-.75s-.34-.75-.75-.75Z"/><rect x="9.25" y="11.74" width="5.5" height="1.5"/><rect x="9.25" y="8.74" width="5.5" height="1.5"/><path d="M9,17.74h6c.32,0,.61-.21,.71-.51l.83-2.49H7.46l.83,2.49c.1,.31,.39,.51,.71,.51Z"/><path d="M14.75,5.99c0-.96-.79-1.75-1.75-1.75h-.25v-1.25c0-.41-.34-.75-.75-.75s-.75,.34-.75,.75v1.25h-.25c-.96,0-1.75,.79-1.75,1.75v1.25h5.5v-1.25Z"/></g></g></svg>