<?xml version="1.0" encoding="UTF-8"?><svg fill="currentColor" xmlns="http://www.w3.org/2000/svg" viewBox="0 0 24 24"><g id="e"><g><path d="M9.76,10.81c.6,.6,1.39,.93,2.24,.93s1.64-.33,2.24-.93l.41-.41c.7-.7,1.1-1.66,1.1-2.65V3.99c0-.24-.11-.46-.3-.6-1.33-1-2.73-1.15-3.45-1.15-1.67,0-2.88,.72-3.45,1.15-.19,.14-.3,.36-.3,.6v3.76c0,.99,.4,1.95,1.1,2.65l.41,.41Z"/><path d="M18.75,17.36v-.24c0-2.18-1.48-4.08-3.6-4.61-.14-.04-.25-.13-.32-.25-.81,.63-1.79,.98-2.83,.98s-2.02-.36-2.83-.98c-.07,.12-.18,.21-.32,.25-2.12,.53-3.6,2.42-3.6,4.61v.24c-1.15,.33-2,1.38-2,2.63v1c0,.41,.34,.75,.75,.75h6c.41,0,.75-.34,.75-.75v-4c0-.14,.11-.25,.25-.25h2c.14,0,.25,.11,.25,.25v4c0,.41,.34,.75,.75,.75h6c.41,0,.75-.34,.75-.75v-1c0-1.25-.85-2.3-2-2.63Zm-9.5,2.88H4.75v-.25c0-.69,.56-1.25,1.25-1.25h2c.69,0,1.25,.56,1.25,1.25v.25Zm10,0h-4.5v-.25c0-.69,.56-1.25,1.25-1.25h2c.69,0,1.25,.56,1.25,1.25v.25Z"/><path d="M18.85,13.2l1.68-1.68c.15-.15,.23-.36,.22-.58-.09-1.3-.58-4.56-3.3-6.55-.06-.04-.13-.08-.19-.12v3.48c0,1.26-.48,2.48-1.3,3.43,1.17,.38,2.17,1.1,2.91,2.02Z"/><path d="M5.15,13.2c.74-.92,1.73-1.64,2.91-2.02-.82-.95-1.3-2.17-1.3-3.43v-3.48c-.06,.04-.13,.07-.19,.12-2.72,2-3.22,5.25-3.3,6.55-.01,.22,.07,.43,.22,.58l1.68,1.68Z"/></g></g></svg>