<?xml version="1.0" encoding="UTF-8"?><svg fill="currentColor" xmlns="http://www.w3.org/2000/svg" viewBox="0 0 24 24"><g id="q"><g><path d="M19.78,10.74c.53,0,1.02-.23,1.35-.64s.47-.94,.36-1.45l-.6-3c-.16-.81-.88-1.41-1.72-1.41H10.24c-.27,0-.54,.06-.78,.18l-1.58,.79s-.07,.03-.11,.03h-3.76c-.96,0-1.75,.79-1.75,1.75v2c0,.96,.79,1.75,1.75,1.75h15.78Z"/><path d="M4.25,12.24v.35c0,.06-.02,.11-.06,.15l-.43,.43c-.33,.32-.5,.76-.5,1.22v5.63c0,.95,.77,1.72,1.72,1.72h2.97c.48,0,.94-.2,1.27-.56,.33-.36,.49-.83,.44-1.31l-.69-7.63H4.25Z"/><path d="M21.55,19.74l-.68-4.07c-.14-.83-.85-1.43-1.69-1.43-.09,0-.14-.05-.17-.08s-.06-.09-.04-.18l.35-1.74h-5.27l-.69,7.63c-.04,.48,.12,.96,.44,1.31,.32,.36,.79,.56,1.27,.56h4.8c.51,0,.98-.22,1.31-.61s.47-.89,.38-1.39Z"/></g></g></svg>