<?xml version="1.0" encoding="UTF-8"?><svg fill="currentColor" xmlns="http://www.w3.org/2000/svg" viewBox="0 0 24 24"><g id="s"><g><path d="M20.6,6.46l1.07-2.14c.13-.26,.1-.57-.08-.8-.18-.23-.47-.33-.76-.27-5.79,1.3-11.88,1.3-17.67,0-.29-.06-.58,.04-.76,.27s-.21,.54-.08,.8l1.07,2.14c.7,1.4,2.11,2.28,3.68,2.28h-.33v11.25c0,.14,.11,.25,.25,.25h1c.14,0,.25-.11,.25-.25V8.74h7.5v11.25c0,.14,.11,.25,.25,.25h1c.14,0,.25-.11,.25-.25V8.74h-.33c1.57,0,2.98-.87,3.68-2.28Z"/><path d="M2.39,10.55c-.14,.2-.18,.45-.1,.68l1,3c.1,.31,.39,.51,.71,.51h1.25v-4.5H3c-.24,0-.47,.12-.61,.31Z"/><path d="M21,10.24h-2.25v4.5h1.25c.32,0,.61-.21,.71-.51l1-3c.08-.23,.04-.48-.1-.68-.14-.2-.37-.31-.61-.31Z"/><rect x="9.75" y="10.24" width="4.5" height="4.5"/></g></g></svg>