<?xml version="1.0" encoding="UTF-8"?><svg fill="currentColor" xmlns="http://www.w3.org/2000/svg" viewBox="0 0 24 24"><g id="i"><g><path d="M17,20.24h-1.3l-.89-12.5h-5.61l-.89,12.5h-1.3c-.41,0-.75,.34-.75,.75s.34,.75,.75,.75h10c.41,0,.75-.34,.75-.75s-.34-.75-.75-.75Zm-4.98-1.5c-.41,0-.75-.34-.75-.75s.33-.75,.74-.75h.01c.41,0,.75,.34,.75,.75s-.34,.75-.75,.75Zm0-4c-.41,0-.75-.34-.75-.75s.33-.75,.74-.75h.01c.41,0,.75,.34,.75,.75s-.34,.75-.75,.75Zm0-4c-.41,0-.75-.34-.75-.75s.33-.75,.74-.75h.01c.41,0,.75,.34,.75,.75s-.34,.75-.75,.75Z"/><path d="M12.67,2.65c-.25-.51-1.09-.51-1.34,0l-1.79,3.58h4.93l-1.79-3.58Z"/></g></g></svg>