<?xml version="1.0" encoding="UTF-8"?><svg fill="currentColor" xmlns="http://www.w3.org/2000/svg" viewBox="0 0 24 24"><g id="m"><g><path d="M9.17,14.66c.18,.36,.54,.59,.95,.59h3.76c.4,0,.77-.22,.95-.59,.44-.87,1.31-1.41,2.29-1.41h4.59c-.04-.41-.12-.81-.26-1.19l-.86-2.31h-3.46c-.4,0-.77,.22-.95,.59-.44,.87-1.31,1.41-2.29,1.41h-3.76c-.98,0-1.85-.54-2.29-1.41-.18-.36-.54-.59-.95-.59H3.42l-.87,2.31c-.14,.38-.22,.79-.26,1.19H6.88c.98,0,1.85,.54,2.29,1.42Z"/><path d="M6.88,8.25c.97,0,1.85,.54,2.29,1.41,.18,.36,.54,.59,.95,.59h3.76c.4,0,.77-.22,.95-.59,.44-.87,1.31-1.41,2.29-1.41h2.9l-.34-.92c-.69-1.84-2.48-3.08-4.45-3.08h-6.46c-1.97,0-3.76,1.24-4.45,3.08l-.34,.92h2.9Z"/><path d="M17.12,14.75c-.4,0-.77,.22-.95,.59-.44,.87-1.31,1.41-2.29,1.41h-3.76c-.98,0-1.85-.54-2.29-1.41-.18-.36-.54-.59-.95-.59H2.25v1.25c0,2.62,2.13,4.75,4.75,4.75h10c2.62,0,4.75-2.13,4.75-4.75v-1.25h-4.63Z"/></g></g></svg>