<?xml version="1.0" encoding="UTF-8"?><svg fill="currentColor" xmlns="http://www.w3.org/2000/svg" viewBox="0 0 24 24"><g id="p"><g><path d="M9.05,10.6c1.15,.86,2.75,.86,3.9,0l5.1-3.82,.74-.61c-.87-1.15-2.23-1.91-3.79-1.91H7c-1.55,0-2.91,.76-3.78,1.91l.66,.57,5.17,3.88Z"/><path d="M17.5,13.25c-2.34,0-4.25,1.91-4.25,4.25s1.91,4.25,4.25,4.25,4.25-1.91,4.25-4.25-1.91-4.25-4.25-4.25Zm1.67,3.59l-1,2c-.11,.22-.31,.37-.55,.4-.04,0-.08,0-.12,0-.2,0-.39-.08-.53-.22l-1-1c-.29-.29-.29-.77,0-1.06s.77-.29,1.06,0l.26,.26,.53-1.07c.19-.37,.64-.52,1.01-.34,.37,.19,.52,.64,.34,1.01Z"/><path d="M17.5,12.25c.81,0,1.57,.2,2.25,.53v-3.78c0-.52-.1-1.01-.26-1.47l-.51,.43-5.13,3.85c-.84,.63-1.84,.94-2.85,.94s-2.01-.31-2.85-.94L2.94,7.89l-.43-.37c-.15,.47-.26,.96-.26,1.48v3c0,2.62,2.13,4.75,4.75,4.75h5.33c.37-2.54,2.54-4.5,5.17-4.5Z"/></g></g></svg>