<?xml version="1.0" encoding="UTF-8"?><svg fill="currentColor" xmlns="http://www.w3.org/2000/svg" viewBox="0 0 24 24"><g id="g"><g><path d="M15,7.25H6c-2.07,0-3.75,1.68-3.75,3.75v4c0,2.07,1.68,3.75,3.75,3.75H15c2.07,0,3.75-1.68,3.75-3.75v-4c0-2.07-1.68-3.75-3.75-3.75Zm-.54,6.12l-1.66,1.29c-.68,.53-1.49,.79-2.3,.79s-1.62-.26-2.3-.79l-1.66-1.29c-.33-.25-.39-.73-.13-1.05,.25-.33,.72-.39,1.05-.13l1.66,1.29c.81,.63,1.95,.63,2.76,0l1.66-1.29c.33-.26,.8-.19,1.05,.13,.25,.33,.2,.8-.13,1.05Z"/><path d="M18,4.25H9c-1.44,0-2.69,.83-3.31,2.03,.11,0,.21-.03,.31-.03H15c2.62,0,4.75,2.13,4.75,4.75v4c0,.11-.02,.21-.03,.31,1.2-.63,2.03-1.87,2.03-3.31v-4c0-2.07-1.68-3.75-3.75-3.75Z"/></g></g></svg>