<?xml version="1.0" encoding="UTF-8"?><svg fill="currentColor" xmlns="http://www.w3.org/2000/svg" viewBox="0 0 24 24"><g id="c"><g><path d="M20.36,6.3l-2.66-2.66c-.9-.9-2.09-1.39-3.36-1.39h-4.69c-1.27,0-2.46,.49-3.36,1.39l-2.66,2.66c-.9,.9-1.39,2.09-1.39,3.36v4.69c0,1.27,.49,2.46,1.39,3.36l2.66,2.66c.9,.9,2.09,1.39,3.36,1.39h4.69c1.27,0,2.46-.49,3.36-1.39l2.66-2.66c.9-.9,1.39-2.09,1.39-3.36v-4.69c0-1.27-.49-2.46-1.39-3.36Zm-2.61,6.7c0,1.52-1.23,2.75-2.75,2.75h-6c-1.52,0-2.75-1.23-2.75-2.75v-2c0-1.52,1.23-2.75,2.75-2.75h6c1.52,0,2.75,1.23,2.75,2.75v2Z"/><path d="M15,9.75h-6c-.69,0-1.25,.56-1.25,1.25v2c0,.69,.56,1.25,1.25,1.25h6c.69,0,1.25-.56,1.25-1.25v-2c0-.69-.56-1.25-1.25-1.25Zm-.76,2.29l-1.68,.56c-.18,.06-.37,.09-.55,.09s-.38-.03-.55-.09l-1.68-.56c-.39-.13-.61-.56-.47-.95s.55-.6,.95-.47l1.68,.56c.05,.02,.11,.02,.16,0l1.68-.56c.4-.13,.82,.08,.95,.47,.13,.39-.08,.82-.47,.95Z"/></g></g></svg>