<?xml version="1.0" encoding="UTF-8"?><svg fill="currentColor" xmlns="http://www.w3.org/2000/svg" viewBox="0 0 24 24"><g id="b"><g><circle cx="12" cy="12" r="1.92"/><path d="M12,2.25C6.62,2.25,2.25,6.62,2.25,12s4.37,9.75,9.75,9.75,9.75-4.37,9.75-9.75S17.38,2.25,12,2.25Zm6.54,11.42c-.26,1.03-1.2,1.75-2.28,1.75-.78,0-1.46-.38-1.89-.97-.62,.6-1.45,.97-2.37,.97-1.88,0-3.42-1.53-3.42-3.42s1.53-3.42,3.42-3.42c.72,0,1.39,.23,1.94,.61,.07-.35,.36-.61,.72-.61,.41,0,.75,.34,.75,.75v3.73c0,.47,.38,.85,.85,.85,.39,0,.73-.25,.82-.62,.16-.61,.2-1.25,.13-1.89-.27-2.42-2.3-4.41-4.72-4.63-1.64-.15-3.22,.45-4.34,1.65-1.12,1.2-1.6,2.83-1.33,4.47,.37,2.23,2.2,4,4.45,4.31,1.29,.17,2.58-.12,3.64-.83,.34-.23,.81-.14,1.04,.21,.23,.34,.14,.81-.21,1.04-1.11,.75-2.42,1.14-3.76,1.14-.3,0-.61-.02-.92-.06-2.9-.39-5.26-2.67-5.73-5.55-.35-2.1,.28-4.19,1.71-5.73,1.43-1.54,3.47-2.31,5.57-2.13,3.18,.29,5.73,2.8,6.08,5.96,.09,.82,.03,1.64-.17,2.43Z"/></g></g></svg>