<?xml version="1.0" encoding="UTF-8"?><svg fill="currentColor" xmlns="http://www.w3.org/2000/svg" viewBox="0 0 24 24"><g id="q"><g><path d="M3.43,9.39l2.82,2.19v-1.58c0-.96,.79-1.75,1.75-1.75h8c.96,0,1.75,.79,1.75,1.75v1.58l2.79-2.17,.88-.77c-.4-1.02-1.13-1.89-2.12-2.44l-5-2.78c-1.45-.8-3.17-.8-4.61,0l-5,2.78c-1.02,.57-1.77,1.49-2.16,2.56l.89,.63Z"/><path d="M21.49,10.57l-6.57,5.12c-.86,.67-1.89,1-2.92,1s-2.06-.33-2.92-1L2.54,10.59l-.29-.2v5.61c0,2.62,2.13,4.75,4.75,4.75h10c2.62,0,4.75-2.13,4.75-4.75v-5.65h0l-.26,.21Z"/><path d="M16,9.75H8c-.14,0-.25,.11-.25,.25v2.75l2.25,1.75c1.17,.91,2.82,.91,3.99,0l2.25-1.75v-2.74c0-.14-.11-.25-.25-.25Z"/></g></g></svg>