<?xml version="1.0" encoding="UTF-8"?><svg fill="currentColor" xmlns="http://www.w3.org/2000/svg" viewBox="0 0 24 24"><g id="o"><g><path d="M4,7.25c.16,0,.32,.05,.45,.15l3.2,2.4c.39,.29,.87,.45,1.35,.45h2.25v-.62c-1.15-.33-2-1.38-2-2.63,0-1.52,1.23-2.75,2.75-2.75s2.75,1.23,2.75,2.75c0,1.25-.85,2.3-2,2.63v.62h2.25c.48,0,.96-.16,1.35-.45l3.2-2.4c.13-.1,.29-.15,.45-.15h.7c-.37-2.82-2.78-5-5.7-5h-6c-2.92,0-5.33,2.18-5.7,5h.7Z"/><circle cx="12" cy="7" r="1.25"/><circle cx="12" cy="15" r="1.25"/><path d="M20.25,8.75l-3,2.25c-.64,.48-1.44,.75-2.25,.75h-2.25v.62c1.15,.33,2,1.38,2,2.63,0,1.52-1.23,2.75-2.75,2.75s-2.75-1.23-2.75-2.75c0-1.25,.85-2.3,2-2.63v-.62h-2.25c-.81,0-1.61-.27-2.25-.75l-3-2.25h-.5v7.25c0,3.17,2.58,5.75,5.75,5.75h6c3.17,0,5.75-2.58,5.75-5.75v-7.25h-.5Z"/></g></g></svg>