<?xml version="1.0" encoding="UTF-8"?><svg fill="currentColor" xmlns="http://www.w3.org/2000/svg" viewBox="0 0 24 24"><g id="n"><g><path d="M6.88,14.25c.98,0,1.85,.54,2.29,1.41,.18,.36,.54,.59,.95,.59h3.76c.4,0,.77-.22,.95-.59,.44-.87,1.31-1.41,2.29-1.41h3.63v-6.25c0-3.17-2.58-5.75-5.75-5.75h-6c-3.17,0-5.75,2.58-5.75,5.75v6.25h3.63Zm1.12-8h8c.41,0,.75,.34,.75,.75s-.34,.75-.75,.75H8c-.41,0-.75-.34-.75-.75s.34-.75,.75-.75Zm0,4h8c.41,0,.75,.34,.75,.75s-.34,.75-.75,.75H8c-.41,0-.75-.34-.75-.75s.34-.75,.75-.75Z"/><path d="M17.12,15.75c-.4,0-.77,.22-.95,.59-.44,.87-1.31,1.41-2.29,1.41h-3.76c-.98,0-1.85-.54-2.29-1.41-.18-.36-.54-.59-.95-.59H3.25v.25c0,3.17,2.58,5.75,5.75,5.75h6c3.17,0,5.75-2.58,5.75-5.75v-.25h-3.63Z"/></g></g></svg>