<?xml version="1.0" encoding="UTF-8"?><svg fill="currentColor" xmlns="http://www.w3.org/2000/svg" viewBox="0 0 24 24"><g id="r"><g><path d="M21.45,11.6l-6.53,5.08c-.86,.67-1.89,1-2.92,1s-2.06-.33-2.92-1L2.54,11.59l-.29-.25v5.66c0,2.62,2.13,4.75,4.75,4.75h10c2.62,0,4.75-2.13,4.75-4.75v-5.62l-.3,.23Z"/><path d="M14,15.5l4.75-3.7V6c0-2.07-1.68-3.75-3.75-3.75h-6c-2.07,0-3.75,1.68-3.75,3.75v5.8l4.75,3.7c1.17,.91,2.82,.91,3.99,0ZM9,6.25h6c.41,0,.75,.34,.75,.75s-.34,.75-.75,.75h-6c-.41,0-.75-.34-.75-.75s.34-.75,.75-.75Zm-.75,4.75c0-.41,.34-.75,.75-.75h6c.41,0,.75,.34,.75,.75s-.34,.75-.75,.75h-6c-.41,0-.75-.34-.75-.75Z"/><path d="M4.25,11.02v-3.57l-.59,.33c-.65,.36-1.12,.97-1.31,1.67l1.14,.99,.76,.59Z"/><path d="M21.67,9.57c-.17-.75-.64-1.41-1.33-1.8l-.59-.33v3.57l.79-.61,1.13-.84Z"/></g></g></svg>