<?xml version="1.0" encoding="UTF-8"?><svg fill="currentColor" xmlns="http://www.w3.org/2000/svg" viewBox="0 0 24 24"><g id="f"><g><path d="M11.75,18v-5c0-2.62-2.13-4.75-4.75-4.75s-4.75,2.13-4.75,4.75v3c0,1.52,1.23,2.75,2.75,2.75h6c.41,0,.75-.34,.75-.75Zm-3.75-4.25h-2c-.41,0-.75-.34-.75-.75s.34-.75,.75-.75h2c.41,0,.75,.34,.75,.75s-.34,.75-.75,.75Z"/><path d="M16,13.75h2c.41,0,.75-.34,.75-.75s-.34-.75-.75-.75h-.25V6.75h2.38c.65,0,1.24-.35,1.54-.92,.3-.57,.27-1.26-.09-1.8l-.67-1c-.33-.49-.87-.78-1.46-.78h-2.46c-.41,0-.75,.34-.75,.75V12.25h-.25c-.41,0-.75,.34-.75,.75s.34,.75,.75,.75Z"/><path d="M10.99,19.75h-.74v1.25c0,.41,.34,.75,.75,.75h4c.41,0,.75-.34,.75-.75v-1.25h-4.76Z"/><path d="M18.75,8.59v2.83c.59,.28,1,.88,1,1.58,0,.96-.79,1.75-1.75,1.75h-2c-.96,0-1.75-.79-1.75-1.75,0-.7,.41-1.3,1-1.58v-3.17h-5.02c1.52,1.04,2.52,2.78,2.52,4.75v5c0,.27-.07,.52-.18,.75h6.43c1.52,0,2.75-1.23,2.75-2.75v-3c0-2-1.25-3.71-3-4.41Z"/></g></g></svg>