<?xml version="1.0" encoding="UTF-8"?><svg fill="currentColor" xmlns="http://www.w3.org/2000/svg" viewBox="0 0 24 24"><g id="u"><g><path d="M16.08,12.78l4.21,3.49,.57,.49c.56-.78,.89-1.72,.89-2.75v-4c0-.5-.1-.97-.24-1.42l-.45,.33-4.98,3.87Z"/><path d="M3.86,7.72l6.14,4.78c1.17,.91,2.82,.91,3.99,0l6.16-4.79,.67-.49c-.86-1.19-2.25-1.97-3.83-1.97H7c-1.56,0-2.93,.76-3.79,1.92l.66,.55Z"/><path d="M19.32,17.41l-4.46-3.7c-.85,.64-1.86,.97-2.86,.97s-2.02-.33-2.87-.97l-4.96,4.09c.79,.59,1.76,.95,2.82,.95h10c1.05,0,2.01-.35,2.8-.93l-.47-.41Z"/><path d="M2.92,8.89l-.42-.35c-.15,.46-.25,.95-.25,1.46v4c0,1.02,.33,1.96,.88,2.74l.58-.47,4.2-3.49-5-3.89Z"/></g></g></svg>