<?xml version="1.0" encoding="UTF-8"?><svg fill="currentColor" xmlns="http://www.w3.org/2000/svg" viewBox="0 0 24 24"><g id="j"><g><path d="M7,3.25c-2.62,0-4.75,2.13-4.75,4.75v11c0,.41,.34,.75,.75,.75H11c.41,0,.75-.34,.75-.75V8c0-2.62-2.13-4.75-4.75-4.75Z"/><rect x="15.75" y="13.75" width="2.5" height="1.5" rx=".25" ry=".25"/><path d="M17,3.25h-6.77c1.52,1.04,2.52,2.78,2.52,4.75v11c0,.27-.07,.52-.18,.75h8.43c.41,0,.75-.34,.75-.75V8c0-2.62-2.13-4.75-4.75-4.75Zm2.75,11.75c0,.96-.79,1.75-1.75,1.75h-2c-.96,0-1.75-.79-1.75-1.75v-1c0-.96,.79-1.75,1.75-1.75h2c.96,0,1.75,.79,1.75,1.75v1Zm-.75-4.25h-4c-.41,0-.75-.34-.75-.75s.34-.75,.75-.75h4c.41,0,.75,.34,.75,.75s-.34,.75-.75,.75Z"/><path d="M10.17,20.75l.1,.42c.08,.34,.39,.58,.73,.58,.03,0,.06,0,.09,0,.38-.04,.66-.36,.66-.75v-.43c-.23,.11-.48,.18-.75,.18h-.83Z"/><path d="M20.25,20.75v.25c0,.41,.34,.75,.75,.75s.75-.34,.75-.75v-.43c-.23,.11-.48,.18-.75,.18h-.75Z"/><path d="M2.25,20.57v.43c0,.41,.34,.75,.75,.75s.75-.34,.75-.75v-.25h-.75c-.27,0-.52-.07-.75-.18Z"/></g></g></svg>