<?xml version="1.0" encoding="UTF-8"?><svg fill="currentColor" xmlns="http://www.w3.org/2000/svg" viewBox="0 0 24 24"><g id="t"><g><path d="M3.86,9.72l6.14,4.78c1.17,.91,2.82,.91,3.99,0l6.16-4.79,1.31-.94c-.38-1.07-1.13-1.99-2.16-2.56l-5-2.78c-1.44-.8-3.17-.8-4.61,0l-5,2.78c-.99,.55-1.72,1.42-2.12,2.44l1.29,1.08Z"/><path d="M19.32,19.41l-4.46-3.7c-.85,.64-1.86,.97-2.86,.97s-2.02-.33-2.87-.97l-4.96,4.09c.79,.59,1.76,.95,2.82,.95h10c1.05,0,2.01-.35,2.8-.93l-.47-.41Z"/><path d="M16.08,14.78l4.21,3.49,.57,.49c.56-.78,.89-1.72,.89-2.75v-5.6l-.69,.5-4.98,3.87Z"/><path d="M2.92,10.89l-.67-.56v5.67c0,1.02,.33,1.96,.88,2.74l.58-.47,4.2-3.49-5-3.89Z"/></g></g></svg>