<?xml version="1.0" encoding="UTF-8"?><svg fill="currentColor" xmlns="http://www.w3.org/2000/svg" viewBox="0 0 24 24"><g id="e"><path d="M19.49,11.54c-2.42-3.15-5.77-4-7.56-4.22-.13-.02-.23-.12-.23-.25v-.65c0-.71-.43-1.35-1.08-1.62-.66-.27-1.41-.12-1.91,.39L3.28,10.66c-.36,.36-.54,.85-.5,1.36s.29,.97,.69,1.27l5.43,4.1c.53,.4,1.24,.47,1.83,.17,.6-.3,.97-.9,.97-1.57v-1.17c0-.13,.1-.23,.23-.25,.96-.14,1.91-.09,2.8,.15,3.81,1.02,5.29,5.06,5.44,5.52,.1,.31,.39,.51,.71,.51,.02,0,.04,0,.06,0,.34-.03,.62-.29,.68-.63,.18-1.12,.57-5.06-2.13-8.58Z"/></g></svg>