<?xml version="1.0" encoding="UTF-8"?><svg fill="currentColor" xmlns="http://www.w3.org/2000/svg" viewBox="0 0 24 24"><g id="i"><g><path d="M8,3.75h8c.41,0,.75-.34,.75-.75s-.34-.75-.75-.75H8c-.41,0-.75,.34-.75,.75s.34,.75,.75,.75Z"/><path d="M20,5.25H4c-.41,0-.75,.34-.75,.75s.34,.75,.75,.75h.3l.7,10.57c.17,2.49,2.25,4.43,4.74,4.43h4.52c2.49,0,4.57-1.95,4.74-4.43l.7-10.57h.3c.41,0,.75-.34,.75-.75s-.34-.75-.75-.75Zm-10.25,11.75c0,.41-.34,.75-.75,.75s-.75-.34-.75-.75v-7c0-.41,.34-.75,.75-.75s.75,.34,.75,.75v7Zm3,0c0,.41-.34,.75-.75,.75s-.75-.34-.75-.75v-7c0-.41,.34-.75,.75-.75s.75,.34,.75,.75v7Zm3,0c0,.41-.34,.75-.75,.75s-.75-.34-.75-.75v-7c0-.41,.34-.75,.75-.75s.75,.34,.75,.75v7Z"/></g></g></svg>