<?xml version="1.0" encoding="UTF-8"?><svg fill="currentColor" xmlns="http://www.w3.org/2000/svg" viewBox="0 0 24 24"><g id="e"><path d="M19.17,11.92c-.04-.37-.35-.66-.72-.67-.1,0-.21,0-.31,.01,.11-.24,.21-.49,.26-.76,.02-.11,.05-.22,.07-.33,.17-.96,.16-1.92-.05-2.77-.09-.36-.42-.61-.8-.57-.19,.02-.39,.05-.58,.09,.16-.72,.09-1.5-.26-2.17-.05-.09-.1-.19-.16-.29-.48-.84-1.11-1.54-1.88-2.08-.26-.18-.61-.18-.87,0-.65,.46-1.2,1.04-1.64,1.71-.45-.67-.99-1.25-1.64-1.71-.26-.18-.61-.18-.87,0-.77,.55-1.4,1.25-1.88,2.09-.05,.1-.11,.19-.15,.29-.34,.67-.41,1.44-.26,2.17-.2-.04-.39-.07-.58-.09-.37-.05-.71,.21-.8,.57-.21,.87-.23,1.8-.05,2.77,.02,.11,.04,.22,.07,.33,.06,.26,.15,.52,.27,.76-.1,0-.21-.01-.31-.01-.37,.01-.68,.3-.72,.67-.1,.91,0,1.85,.3,2.8,.03,.11,.07,.22,.11,.32,.43,1.19,1.46,2.14,2.63,2.45,.43,.48,.93,1.23,1.08,2.24,.02,.17,.04,.33,.04,.48,.02,.87,.72,1.55,1.59,1.55h2.38c.87,0,1.57-.68,1.59-1.55,0-.15,.02-.31,.04-.48,.15-1,.64-1.75,1.07-2.23,1.17-.31,2.2-1.26,2.64-2.45,.04-.1,.07-.21,.11-.32,.3-.95,.41-1.9,.3-2.8Zm-6.51-1.23c-.26-.19-.61-.18-.87,0-.23,.17-.45,.35-.67,.55-.25-.44-.34-1.05-.04-1.65,.04-.07,.08-.15,.12-.22,.28-.48,.62-.9,1.01-1.26,.4,.36,.74,.78,1.02,1.26,.04,.07,.08,.15,.12,.22,.31,.6,.21,1.21-.04,1.65-.21-.2-.43-.39-.66-.55Zm-1.57,3.05c.04-.07,.08-.15,.12-.22,.27-.47,.62-.9,1.01-1.26,.4,.36,.74,.79,1.02,1.26,.04,.07,.08,.15,.12,.22,.27,.54,.25,1.19-.06,1.7-.5,.82-1.65,.82-2.15,0-.31-.51-.34-1.16-.06-1.7Zm5.9-3.83c-.02,.09-.03,.17-.05,.26-.19,.83-.79,1.41-1.33,1.64-.04,.02-.09,.04-.13,.06-.23,.08-.52,.12-.77-.04,.34-.68,.42-1.47,.24-2.22,.16-.19,.34-.35,.54-.47,.08-.05,.15-.09,.23-.14,.44-.25,.9-.43,1.35-.55,.04,.47,.01,.96-.08,1.46Zm-3.83-4.47c.04-.08,.08-.15,.12-.22,.28-.48,.62-.9,1.01-1.26,.4,.36,.74,.78,1.01,1.26,.04,.08,.08,.15,.12,.23,.27,.54,.25,1.19-.06,1.7-.33,.54-.96,.76-1.47,.57-.24-.3-.51-.57-.8-.82h0c-.18-.48-.16-1,.07-1.45Zm-4.15,0c.04-.08,.08-.15,.12-.22,.28-.48,.62-.9,1.01-1.26,.4,.36,.74,.78,1.01,1.26,.04,.08,.08,.15,.12,.23,.23,.45,.25,.97,.07,1.44h0c-.29,.26-.56,.54-.8,.83-.51,.19-1.14-.03-1.47-.57-.31-.51-.34-1.16-.06-1.7Zm-1.63,3.01c.45,.12,.91,.3,1.35,.55,.08,.04,.16,.09,.23,.14,.2,.13,.38,.29,.54,.48-.18,.75-.1,1.54,.23,2.22-.25,.15-.54,.11-.76,.04-.04-.02-.09-.04-.13-.06-.54-.23-1.14-.81-1.33-1.64-.02-.08-.04-.17-.05-.26-.09-.5-.12-.99-.08-1.46Zm-.28,6.07c-.03-.08-.06-.17-.09-.26-.16-.5-.25-1-.27-1.48,.48,.06,.96,.19,1.45,.38,.06,.03,.12,.06,.18,.08,.01,0,.03,0,.04,.01l.04,.02c.3,.14,.58,.35,.81,.6,.06,.06,.12,.11,.19,.15-.1,.62-.01,1.25,.24,1.82-.03,.02-.06,.03-.08,.05-.26,.24-.62,.21-.88,.15-.59-.14-1.33-.67-1.64-1.52Zm6.4,5.64c0,.05-.04,.09-.09,.09h-2.38c-.05,0-.09-.04-.09-.09,0-.21-.02-.43-.06-.66-.13-.86-.44-1.57-.8-2.15,.19-.09,.37-.2,.52-.34,.47,.36,1.02,.57,1.61,.57s1.14-.22,1.61-.57c.16,.14,.33,.25,.52,.34-.36,.58-.67,1.28-.8,2.14-.03,.23-.05,.45-.06,.65Zm3.93-5.89c-.03,.09-.06,.18-.09,.26-.31,.85-1.05,1.38-1.64,1.52-.26,.06-.62,.09-.88-.15-.02-.02-.06-.03-.08-.05,.26-.57,.34-1.2,.24-1.82,.07-.04,.14-.08,.19-.15,.23-.26,.51-.47,.81-.6l.04-.02s.03,0,.04-.01c.06-.02,.12-.06,.18-.08,.49-.2,.97-.33,1.45-.39-.02,.48-.11,.99-.27,1.48Z"/></g></svg>