<?xml version="1.0" encoding="UTF-8"?><svg fill="currentColor" xmlns="http://www.w3.org/2000/svg" viewBox="0 0 24 24"><g id="j"><path d="M18.73,11.83c-.09-.4-.5-.66-.9-.56-.37,.09-.73,.2-1.08,.32v-3.55c.25-.06,.48-.11,.67-.14,.41-.06,.69-.44,.63-.85s-.44-.69-.85-.63c-.37,.06-.86,.16-1.41,.34-.26-1.03-.71-1.99-1.34-2.82-.44-.58-.95-1.09-1.53-1.53-.27-.2-.64-.2-.9,0-.58,.44-1.1,.96-1.53,1.53-.63,.83-1.08,1.79-1.34,2.82-.55-.18-1.04-.29-1.41-.34-.41-.07-.79,.22-.85,.63-.06,.41,.22,.79,.63,.85,.21,.03,.46,.08,.75,.16v3.68c-.48-.19-.96-.35-1.46-.47-.41-.1-.81,.16-.9,.56-.09,.4,.16,.81,.56,.9,.27,.06,.54,.14,.81,.23,0,.01,0,.03,0,.04v7.36c0,.77,.63,1.39,1.39,1.39h7.71c.77,0,1.39-.63,1.39-1.39v-7.36s-.02-.09-.03-.14c.15-.04,.3-.1,.45-.13,.4-.09,.65-.5,.56-.9Zm-4.3,.88c-.17-.81-.49-1.73-1.04-2.62,.1-.11,.18-.23,.29-.34,.5-.51,1.04-.88,1.56-1.15v3.63c-.28,.15-.56,.3-.82,.47Zm-2.75-7.88c.23-.31,.5-.6,.79-.86,.29,.26,.55,.55,.79,.86,.66,.88,.98,1.8,1.14,2.54-.59,.33-1.2,.75-1.77,1.33-.06,.06-.1,.12-.16,.18-.06-.06-.1-.12-.16-.18-.57-.57-1.17-1-1.76-1.33,.16-.74,.48-1.66,1.14-2.54Zm-1.93,3.82c.5,.27,1.01,.63,1.49,1.11,1.29,1.3,1.72,2.87,1.85,4.01-.27,.25-.53,.51-.77,.79-.32-.36-.66-.72-1.06-1.05-.46-.4-.97-.73-1.51-1.04v-3.81Zm-1,4.95c.55,.3,1.06,.65,1.53,1.05,2.1,1.79,2.84,4.15,3.09,5.6h-4.63v-6.65Zm7.5,6.65h-1.36c-.17-1.11-.61-2.8-1.67-4.46,.33-.41,.7-.8,1.11-1.15,.58-.49,1.22-.9,1.92-1.23v6.84Z"/></g></svg>