<?xml version="1.0" encoding="UTF-8"?><svg fill="currentColor" xmlns="http://www.w3.org/2000/svg" viewBox="0 0 24 24"><g id="k"><path d="M20.74,8.08c-.46-.6-1.09-1.09-1.8-1.42,.02-.86-.37-1.7-1.08-2.2-.82-.58-1.91-.59-2.74-.09-.58-1.26-1.89-2.13-3.3-2.13s-2.63,.81-3.24,1.99c-.8-.35-1.73-.29-2.45,.22-.71,.5-1.1,1.34-1.08,2.2-.71,.32-1.33,.81-1.8,1.42-.26,.33-1.5,2.1-.79,4.16,.12,.34,.78,2.06,2.54,2.56,.3,.09,.61,.13,.9,.13s.57-.04,.84-.11l2.13,2.13c.23,.23,.37,.55,.37,.88v2.17c0,.96,.79,1.75,1.75,1.75h2c.96,0,1.75-.79,1.75-1.75v-2.17c0-.33,.13-.65,.37-.88l2.13-2.13c.55,.14,1.14,.16,1.75-.01,1.76-.5,2.43-2.22,2.54-2.56,.7-2.06-.54-3.83-.79-4.16Zm-6.69,7.8c-.52,.52-.81,1.21-.81,1.94v2.17c0,.14-.11,.25-.25,.25h-2c-.14,0-.25-.11-.25-.25v-2.17c0-.73-.29-1.42-.81-1.94l-1.75-1.75c.19-.13,.36-.28,.52-.44l1.23,.61c.18,.09,.37,.13,.56,.13,.23,0,.45-.06,.66-.19,.37-.23,.59-.63,.59-1.06v-.5c.17,.01,.33,.01,.5,0v.5c0,.44,.22,.83,.59,1.06,.2,.13,.43,.19,.66,.19,.19,0,.38-.04,.56-.13l1.23-.62c.16,.16,.33,.3,.52,.44l-1.75,1.75Zm-4.45-3.42c.08-.16,.15-.32,.2-.48,.14,.11,.29,.2,.44,.28v.52l-.64-.32Zm4.14-.2c.15-.08,.3-.17,.44-.28,.05,.16,.13,.32,.2,.48l-.64,.32v-.52Zm6.37-.51c-.07,.22-.49,1.3-1.53,1.6-1,.28-2.05-.38-2.59-1.11-.63-.86-.59-1.84-.54-2.23,.05-.39-.21-.75-.59-.83-.39-.08-.76,.15-.87,.53-.26,.9-1.08,1.53-1.99,1.53s-1.74-.63-1.99-1.53c-.11-.38-.48-.61-.87-.53-.38,.08-.64,.44-.59,.83,.05,.39,.1,1.37-.54,2.23-.54,.73-1.59,1.39-2.59,1.11-1.04-.29-1.46-1.38-1.53-1.6-.46-1.33,.39-2.54,.56-2.76,.54-.71,1.27-1.01,1.65-1.12,.19-.06,.35-.19,.45-.37s.11-.39,.05-.58c-.15-.46,.02-.97,.4-1.24,.35-.24,.82-.24,1.18,0,.01,0,.02,0,.04,.02,0,.31,.03,.63,.11,.94,.1,.4,.51,.64,.91,.54,.4-.1,.64-.51,.54-.91-.09-.35-.09-.69,0-1,.21-.74,.99-1.53,2.05-1.53s1.84,.79,2.05,1.53c.09,.31,.08,.65,0,1-.1,.4,.14,.81,.54,.91,.06,.02,.12,.02,.19,.02,.33,0,.64-.23,.73-.56,.06-.24,.09-.48,.1-.71l.4-.24c.36-.25,.83-.25,1.18,0,.38,.27,.54,.78,.4,1.24-.06,.19-.04,.4,.05,.58s.26,.31,.45,.37c.38,.11,1.11,.41,1.65,1.12,.17,.23,1.02,1.43,.56,2.76Z"/></g></svg>