<?xml version="1.0" encoding="UTF-8"?><svg fill="currentColor" xmlns="http://www.w3.org/2000/svg" viewBox="0 0 24 24"><g id="i"><path d="M21.63,6.46c-.8-.6-1.62-.79-2.2-.84l.86-.86c.29-.29,.29-.77,0-1.06s-.77-.29-1.06,0l-.88,.88c-.09-1.05-.53-1.83-.82-2.21-.25-.33-.72-.4-1.05-.15-.33,.25-.4,.72-.15,1.05,.21,.28,.56,.86,.56,1.67,0,.21-.04,.55-.17,.93-.9-.72-2.06-1.09-3.32-1.05-1.83,.08-3.6,1-4.92,2.57-2.68,3.21-4.72,6.85-6.06,10.81-.36,1.07-.16,2.13,.55,2.83,.48,.48,1.11,.73,1.81,.73,.33,0,.68-.06,1.03-.18,3.96-1.35,7.59-3.39,10.86-6.11,1.51-1.27,2.43-3.04,2.51-4.87,.06-1.27-.33-2.42-1.05-3.32,.26-.09,.57-.17,.93-.17s1.03,.07,1.67,.56c.13,.1,.29,.15,.45,.15,.23,0,.45-.1,.6-.3,.25-.33,.18-.8-.15-1.05Zm-5.98,7.9s-.09,.07-.14,.11l-1.58-1.58c-.29-.29-.77-.29-1.06,0s-.29,.77,0,1.06l1.45,1.45c-1.51,1.13-3.12,2.13-4.8,2.98l-1.25-1.25c-.29-.29-.77-.29-1.06,0s-.29,.77,0,1.06l.87,.87c-.9,.4-1.82,.76-2.77,1.08-.52,.18-.99,.11-1.29-.19-.3-.3-.37-.77-.19-1.29,.77-2.27,1.79-4.43,3.04-6.47l1.75,1.75c.15,.15,.34,.22,.53,.22s.38-.07,.53-.22c.29-.29,.29-.77,0-1.06l-1.98-1.98c.61-.9,1.26-1.77,1.97-2.62,.27-.33,.58-.61,.91-.87l1.58,1.58c.15,.15,.34,.22,.53,.22s.38-.07,.53-.22c.29-.29,.29-.77,0-1.06l-1.29-1.29c.5-.2,1.02-.31,1.53-.34,.06,0,.13,0,.19,0,.95,0,1.8,.33,2.4,.93l.69,.69c.64,.64,.97,1.56,.93,2.59-.06,1.39-.8,2.81-2.03,3.83Z"/></g></svg>