<?xml version="1.0" encoding="UTF-8"?><svg fill="currentColor" xmlns="http://www.w3.org/2000/svg" viewBox="0 0 24 24"><g id="f"><path d="M19.52,8.9c-.2-1.16-.75-2.11-1.59-2.74-.39-.29-.83-.51-1.31-.65-.11-.03-.21-.13-.18-.26l.08-.34c.06-.25,.11-.51,.17-.74,.17-.71-.17-1.43-.81-1.75-.39-.2-.85-.22-1.26-.06-.41,.16-.73,.48-.89,.89-.11,.28-.22,.59-.33,.89-.16,.43-.31,.85-.47,1.22-.02,.05-.06,.09-.11,.11-.48,.16-.91,.41-1.26,.75-.77,.72-1.16,1.81-1.09,3,.03,.49,.31,.91,.75,1.13,.1,.05,.2,.08,.31,.1,.24,1.39,.34,3.87-1.38,5.97-1.41,1.72-3.29,2.27-4.28,2.44-.3,.05-.55,.29-.61,.59-.06,.3,.07,.61,.33,.78,.13,.08,2.43,1.53,5.32,1.53,1.12,0,2.32-.22,3.52-.81,3.68-1.82,5.58-6.37,4.52-10.7,.01,0,.02-.01,.03-.02,.41-.31,.62-.81,.53-1.33Zm-6.93-1.6c.19-.18,.43-.32,.71-.41,.46-.15,.83-.5,1.02-.95,.16-.39,.33-.84,.49-1.29,.11-.29,.21-.59,.32-.86l-.7-.27,.8,.3c-.06,.24-.12,.5-.18,.77l-.07,.33c-.2,.88,.34,1.78,1.22,2.03,.3,.09,.58,.23,.82,.41,.47,.36,.79,.87,.95,1.52l-1.13-.56c-.52-.26-1.15-.16-1.56,.25l-.51,.51-.47-.47c-.45-.46-1.18-.53-1.71-.17l-.64,.42c.02-.63,.24-1.19,.63-1.55Zm1.18,12.29c-2.11,1.04-4.25,.66-5.68,.16,1.05-.44,2.22-1.17,3.21-2.39,2.26-2.75,1.92-6.07,1.67-7.37h0l.36-.24,.49,.49c.26,.26,.61,.39,.96,.39s.69-.13,.96-.4l.54-.54,1.15,.58s0,.04,0,.06c1.05,3.73-.53,7.71-3.66,9.26Z"/></g></svg>