<?xml version="1.0" encoding="UTF-8"?><svg fill="currentColor" xmlns="http://www.w3.org/2000/svg" viewBox="0 0 24 24"><g id="q"><g><path d="M20.68,17.69c-.73-1.57-1.75-2.64-2.95-3.1-.33-.13-.66-.2-1-.24l2.93-5.36c.72-1.34,.89-2.85,.47-4.13-.33-1.02-1.02-1.81-1.94-2.25-2.12-1-4.91,.19-6.23,2.63l-3.09,5.33c-.2-.17-.42-.33-.66-.47-1.11-.62-2.62-.75-4.37-.38-.27,.06-.49,.26-.56,.53-.08,.27,0,.56,.21,.75,1.06,1,1.73,2.01,2.02,2.99,.21,.74,.17,1.33,.12,1.96-.06,.8-.14,1.71,.36,2.88,.39,.93,1.04,1.8,1.93,2.61,.02,.02,.05,.03,.08,.05,.02,.01,.04,.02,.06,.04,.06,.03,.12,.06,.19,.08,.03,0,.05,.03,.09,.04,.52,.08,1.03,.12,1.52,.12,.64,0,1.25-.07,1.83-.22,1.27-.32,2-.91,2.64-1.42,.51-.42,1-.81,1.78-1.1,1.03-.38,2.31-.47,3.81-.27,.27,.04,.54-.08,.7-.3,.16-.22,.19-.51,.08-.76ZM13.27,5.97c.95-1.77,2.87-2.67,4.28-2,.7,.33,1.01,.92,1.16,1.36,.29,.89,.16,1.97-.36,2.95l-3.36,6.14c-1.57,.32-3.12,1.27-4.39,2.4,.22-1.74,.07-3.59-.71-5l1.24-2.14,1.31,.87c.13,.09,.27,.13,.42,.13,.24,0,.48-.12,.63-.33,.23-.34,.14-.81-.21-1.04l-1.34-.89s-.03-.01-.05-.02l1.4-2.42Zm-6.16,10.09c.06-.7,.12-1.49-.17-2.49-.25-.86-.72-1.72-1.4-2.56,.77-.03,1.43,.11,1.94,.4,2.26,1.28,1.97,5.52,.9,7.96-.03,.07-.06,.14-.1,.21l-.04,.06c-.39-.45-.68-.92-.89-1.39-.35-.83-.3-1.43-.24-2.18Zm8.46,1.55c-1.01,.37-1.65,.89-2.21,1.34-.6,.48-1.11,.9-2.06,1.14-.52,.13-1.08,.18-1.69,.17,.03-.06,.07-.11,.1-.17,1.47-2.28,4.98-5.06,7.47-4.1,.52,.2,1.01,.6,1.44,1.16-1.14-.02-2.16,.13-3.05,.46Z"/><path d="M15.81,6l.74,.42c.12,.07,.25,.1,.37,.1,.26,0,.51-.14,.65-.38,.21-.36,.08-.82-.28-1.02l-.74-.42c-.36-.21-.82-.08-1.02,.28-.21,.36-.08,.82,.28,1.02Z"/><path d="M15.19,9.19l.74,.42c.12,.07,.25,.1,.37,.1,.26,0,.51-.14,.65-.38,.21-.36,.08-.82-.28-1.02l-.74-.42c-.36-.21-.82-.08-1.02,.28-.21,.36-.08,.82,.28,1.02Z"/><path d="M12.5,12.7c-.23,.34-.14,.81,.21,1.04l.4,.27c.13,.09,.27,.13,.42,.13,.24,0,.48-.12,.63-.33,.23-.34,.14-.81-.21-1.04l-.4-.27c-.35-.23-.81-.14-1.04,.21Z"/></g></g></svg>