<?xml version="1.0" encoding="UTF-8"?><svg fill="currentColor" xmlns="http://www.w3.org/2000/svg" viewBox="0 0 24 24"><g id="g"><g><path d="M20.28,6.47c-.02-.22-.13-.42-.3-.55-.61-.45-1.37-.68-2.07-.69-.27,0-.52,.04-.75,.1-.04-.02-.07-.05-.12-.07-.02,0-.46-.15-.58-.56-.08-.31,.03-.64,.29-.85,.32-.26,.37-.73,.11-1.05-.26-.32-.73-.37-1.05-.11-.72,.58-1.03,1.53-.8,2.41,.12,.45,.36,.78,.61,1.02-.2,.18-.35,.33-.44,.44-.35-.05-.7-.06-1.06-.01-1.21,.17-2.24,.88-2.84,1.95-.59,1.05-1.29,2.04-2.1,2.92-1.13,1.24-2.46,2.29-3.94,3.12-1.08,.61-1.8,1.65-1.97,2.87-.16,1.18,.22,2.34,1.06,3.2l.02,.02c.74,.74,1.73,1.13,2.72,1.13,.65,0,1.29-.16,1.88-.5,2.1-1.21,4.01-2.72,5.66-4.48,1.29-1.37,2.41-2.89,3.36-4.53,.6-1.03,.64-2.26,.21-3.33l1.86-1.86c.16-.15,.23-.37,.22-.59Zm-3.59,5.03c-.88,1.53-1.94,2.96-3.15,4.25-1.55,1.65-3.34,3.07-5.31,4.21-.89,.51-2.03,.36-2.77-.37l-.02-.02c-.52-.52-.76-1.23-.66-1.95,.1-.75,.55-1.39,1.21-1.76,1.62-.91,3.07-2.06,4.31-3.42,.89-.97,1.66-2.05,2.3-3.2,.37-.66,1-1.09,1.73-1.19,.72-.1,1.44,.14,1.96,.66,.75,.75,.9,1.9,.38,2.8Zm.68-3.86h0c-.19-.19-.4-.35-.62-.49,.27-.2,.67-.41,1.17-.41,.13,.02,.22,.01,.33,.03l-.87,.87Z"/><path d="M8.78,17.41c-.38,.3-.78,.6-1.19,.87-.34,.23-.44,.69-.21,1.04,.14,.22,.38,.33,.63,.33,.14,0,.29-.04,.41-.13,.45-.3,.88-.62,1.3-.95,.32-.26,.38-.73,.12-1.05-.26-.32-.73-.38-1.05-.12Z"/><path d="M12.99,13.16s-.6,.74-1.53,1.73c-.29,.3-.27,.78,.03,1.06,.14,.14,.33,.21,.51,.21,.2,0,.4-.08,.54-.24,.98-1.04,1.59-1.79,1.61-1.82,.26-.32,.21-.79-.12-1.05-.32-.26-.79-.21-1.05,.12Z"/><path d="M11.18,13.08c-.3-.28-.78-.27-1.06,.03-1.13,1.2-1.86,1.96-2.6,2.59-.32,.27-.36,.74-.09,1.06,.15,.18,.36,.27,.57,.27,.17,0,.34-.06,.48-.18,.81-.68,1.57-1.47,2.73-2.71,.28-.3,.27-.78-.03-1.06Z"/><path d="M14.02,8.55c-.4-.12-.82,.1-.94,.5-.1,.34-.26,.76-.79,1.51-.24,.34-.16,.8,.17,1.05,.13,.09,.28,.14,.43,.14,.23,0,.46-.11,.61-.31,.64-.89,.86-1.46,1.01-1.95,.12-.4-.1-.82-.5-.94Z"/></g></g></svg>