<?xml version="1.0" encoding="UTF-8"?><svg fill="currentColor" xmlns="http://www.w3.org/2000/svg" viewBox="0 0 24 24"><g id="r"><path d="M18.37,8.37c-.95-.62-2.06-.99-3.29-1.11-.22-.74-.33-1.51-.33-2.27v-.99c0-.96-.79-1.75-1.75-1.75h-2c-.96,0-1.75,.79-1.75,1.75v.99c0,.76-.11,1.52-.33,2.26-1.25,.11-2.37,.49-3.33,1.12-3.45,2.26-3.48,6.83-3.34,8.69,.1,1.26,.2,2.57,1.25,3.5,.69,.61,1.61,.92,2.66,.92,.96,0,2.02-.26,3.09-.77,.84,.68,1.77,1.04,2.75,1.04s1.89-.36,2.73-1.03c1.06,.5,2.11,.76,3.06,.76,1.05,0,1.98-.31,2.66-.92,1.05-.94,1.15-2.24,1.25-3.5,.14-1.86,.11-6.43-3.34-8.69ZM4.5,19.44c-.57-.51-.66-1.28-.75-2.5-.12-1.59-.11-5.5,2.66-7.31,.54-.36,1.16-.6,1.84-.75-.09,.16-.16,.33-.26,.49-.26,.43-.49,.88-.68,1.34-1.17,2.8-1.15,5.52,.04,7.65,.25,.44,.51,.83,.79,1.19-1.49,.59-2.88,.56-3.64-.12Zm7.5,.81c-1.64,0-2.8-1.64-3.34-2.62-.98-1.75-.96-3.95,.04-6.35,.16-.39,.36-.77,.58-1.14,.97-1.59,1.48-3.38,1.48-5.15v-.99c0-.14,.11-.25,.25-.25h2c.14,0,.25,.11,.25,.25v.99c0,1.78,.51,3.56,1.48,5.15,.22,.37,.42,.75,.58,1.14,1,2.4,1.01,4.6,.04,6.35-.54,.98-1.7,2.61-3.34,2.61Zm8.21-3.31c-.09,1.22-.18,1.99-.75,2.5-.75,.67-2.13,.71-3.61,.13,.28-.36,.56-.76,.81-1.21,1.19-2.14,1.2-4.85,.04-7.65-.19-.46-.42-.91-.68-1.34-.09-.16-.17-.32-.25-.48,.65,.15,1.25,.39,1.78,.74,2.78,1.82,2.79,5.72,2.66,7.31Z"/></g></svg>