<?xml version="1.0" encoding="UTF-8"?><svg fill="currentColor" xmlns="http://www.w3.org/2000/svg" viewBox="0 0 24 24"><g id="d"><path d="M18.49,4.15c-.27-.33-.68-.5-1.12-.45-.78,.1-2.22,.39-3.62,1.16v-1.4c0-.67-.53-1.21-1.19-1.21h-1.12c-.66,0-1.19,.54-1.19,1.21v1.26c-.26-.15-.52-.3-.82-.43-.92-.4-1.89-.62-2.91-.66-.41-.03-.8,.17-1.04,.5-.24,.32-.3,.73-.17,1.11l.42,1.19c.16,.44,.56,.76,1.03,.81,.49,.05,.96,.19,1.39,.41,.83,.44,1.25,1.07,1.4,1.31,.22,.34,.38,.7,.48,1.09l.04,.96h0c0,.44,.04,.82,.08,1.09l.08,.7v3.36c-.5,.37-1.26,1.13-1.33,2.25-.06,.88,.33,1.8,1.04,2.47,.6,.57,1.36,.88,2.13,.88,.11,0,.23,0,.34-.02,1.58-.2,2.8-1.73,2.65-3.34-.1-1.14-.84-1.87-1.33-2.24v-3.65l.1-1.12s0-.08,0-.12c-.03-.47,0-1.4,.6-2.3,.86-1.27,2.29-1.63,2.87-1.72,.44-.07,.81-.38,.96-.8l.4-1.15c.14-.39,.06-.82-.2-1.14Zm-6.74-.4h.5v2.19c-.07,.06-.14,.13-.2,.2-.09-.09-.2-.19-.3-.29V3.75Zm-2.9,2.56c-.55-.29-1.14-.47-1.76-.55l-.21-.6c.68,.07,1.33,.24,1.95,.51,1.07,.46,1.79,1.12,2.26,1.67-.03,.05-.07,.09-.1,.14-.1,.18-.18,.35-.27,.53-.26-.38-.83-1.15-1.88-1.69Zm3.39,13.93c-.43,.05-.89-.12-1.26-.46-.38-.36-.6-.85-.57-1.28,.05-.78,.92-1.28,.96-1.3,.23-.13,.38-.38,.38-.65v-3.25l.5-.16v3.41c0,.27,.15,.52,.39,.66,.04,.02,.88,.49,.95,1.31,.06,.73-.5,1.62-1.34,1.72Zm4.68-14.45c-.85,.16-2.6,.69-3.71,2.33-.83,1.23-.9,2.5-.86,3.18l-.02,.24-.69,.22c-.11-.78-.13-2.17,.65-3.53,1.19-2.06,3.51-2.74,4.81-2.97l-.19,.54Z"/></g></svg>