<?xml version="1.0" encoding="UTF-8"?><svg fill="currentColor" xmlns="http://www.w3.org/2000/svg" viewBox="0 0 24 24"><g id="c"><path d="M21.38,5.79c-.53-1.36-1.53-2.44-2.81-3.04-.2-.09-2.05-.9-4.13-.19-.18,.06-.34,.13-.47,.19-.62-.32-1.29-.5-1.97-.5s-1.35,.18-1.97,.5c-.14-.06-.29-.13-.47-.19-2.09-.71-3.93,.1-4.13,.19-1.28,.6-2.28,1.67-2.81,3.04-.75,1.92-.34,4.16,1.08,5.84,.7,.83,1.26,1.72,1.69,2.65,.27,.6,.43,1.15,.58,1.63,.27,.93,.53,1.8,1.42,2.43,.5,.36,1.1,.57,1.79,.63,.02,0,.04,0,.07,0,.01,0,.03,0,.04,0,.35,.24,.74,.45,1.2,.62,.03,.48,.07,.97,.09,1.44,.02,.4,.35,.71,.75,.71h1.38c.4,0,.73-.32,.75-.71,.02-.47,.06-.96,.09-1.44,.45-.17,.84-.39,1.2-.62,.01,0,.03,0,.04,0,.02,0,.04,0,.07,0,.68-.06,1.28-.27,1.79-.63,.89-.63,1.15-1.51,1.42-2.43,.14-.48,.31-1.03,.58-1.63,.42-.93,.99-1.82,1.69-2.65,1.41-1.68,1.83-3.92,1.08-5.84Zm-7.06-.92c.94,1.04,1.31,2.75,.94,4.34-.27,1.17-.41,2.35-.4,3.5,0,.78,.07,1.39,.13,1.93,.09,.85,.15,1.37-.08,1.94-.22,.54-.64,.99-1.27,1.34,.18-2.67,.32-5.65-.21-8.8-.2-1.17-.43-2.36-.7-3.51-.08-.34-.38-.58-.73-.58s-.65,.24-.73,.58c-.27,1.15-.5,2.33-.7,3.51-.52,3.15-.39,6.12-.21,8.79-.63-.35-1.06-.8-1.27-1.34-.23-.57-.17-1.08-.08-1.94,.06-.54,.13-1.16,.13-1.93,0-1.15-.13-2.33-.4-3.5-.37-1.59,0-3.3,.94-4.34,1.3-1.44,3.33-1.44,4.64,0ZM6.75,13.66c-.48-1.06-1.12-2.06-1.9-3-1.06-1.26-1.38-2.92-.83-4.33,.39-1,1.12-1.79,2.04-2.22,.01,0,1.16-.52,2.52-.26h0c-1.29,1.42-1.78,3.6-1.29,5.69,.25,1.05,.37,2.11,.36,3.14,0,.7-.07,1.28-.12,1.78-.04,.4-.08,.78-.08,1.15-.01-.05-.03-.08-.04-.13-.16-.53-.33-1.13-.65-1.83Zm5.34,4.95c-.03,.45-.06,.89-.09,1.33-.03-.44-.06-.88-.09-1.33-.19-2.71-.4-5.77,.09-8.96,.49,3.19,.28,6.25,.09,8.96Zm7.07-7.94c-.78,.93-1.42,1.94-1.9,3-.32,.7-.49,1.3-.65,1.83-.01,.05-.03,.08-.04,.13,0-.37-.04-.75-.08-1.15-.05-.51-.12-1.08-.12-1.78,0-1.03,.11-2.09,.36-3.14,.49-2.09,0-4.27-1.29-5.69h0c1.35-.27,2.51,.25,2.52,.25,.93,.43,1.65,1.22,2.04,2.22,.55,1.41,.23,3.07-.83,4.33Z"/></g></svg>