<?xml version="1.0" encoding="UTF-8"?><svg fill="currentColor" xmlns="http://www.w3.org/2000/svg" viewBox="0 0 24 24"><g id="u"><path d="M19.6,7.75c1.07-.33,1.88-1.22,2.14-2.34,.06-.25-.02-.5-.19-.68-.2-.21-1.25-1.22-2.82-1.01-.53,.07-1.02,.28-1.45,.58-.04-.07-.07-.14-.12-.22-.53-.88-1.34-1.46-1.78-1.72-.35-.22-.81-.11-1.03,.25-.22,.35-.1,.81,.25,1.03,.26,.16,.89,.59,1.27,1.22,.28,.46,.26,.77,.24,.9-.02,.04-.04,.09-.06,.13-.03,.07-.02,.15-.02,.23-.43-.16-.89-.28-1.37-.34-2.15-.27-4.3,.96-5.35,3.05-.28,.55-.67,1.01-1.16,1.36-.45,.32-.96,.54-1.51,.64-2.14,.39-3.81,1.88-4.26,3.8-.24,1.02-.37,2.55,.36,4,.65,1.3,1.7,1.9,2.19,2.18,1.06,.61,2.45,.93,3.94,.93,2.63,0,5.6-1,7.73-3.19,2.19-2.24,3.84-5.96,2.59-9.22-.21-.56-.48-1.06-.78-1.49,.1,0,.19,.03,.29,.03,.3,0,.6-.04,.89-.13Zm-.68-2.54c.5-.07,.93,.11,1.2,.29-.2,.39-.55,.69-.96,.82-.51,.16-1.07,.03-1.5-.31,.29-.44,.74-.73,1.26-.8Zm-3.38,12.3c-2.82,2.89-7.46,3.38-9.9,1.98-.36-.21-1.11-.63-1.56-1.53-.53-1.05-.42-2.21-.24-2.99,.31-1.33,1.52-2.38,3.07-2.66,.77-.14,1.49-.44,2.12-.89,.69-.5,1.23-1.14,1.62-1.91,.7-1.39,2.03-2.26,3.44-2.26,.14,0,.29,0,.44,.03,.78,.11,1.54,.41,2.16,.85,.4,.33,.82,.98,1.11,1.74,1,2.62-.47,5.8-2.27,7.64Z"/></g></svg>