<?xml version="1.0" encoding="UTF-8"?><svg fill="currentColor" xmlns="http://www.w3.org/2000/svg" viewBox="0 0 24 24"><g id="s"><path d="M20.06,8.33c0-3.35-2.73-6.08-6.08-6.08h-5.33c-3.35,0-6.08,2.73-6.08,6.08,0,2.94,2.36,5.33,5.28,5.41,.12,.98,.05,2.14-.23,3.45-.24,1.14,.03,2.3,.75,3.19,.7,.87,1.75,1.37,2.87,1.37h.15c1.12,0,2.17-.5,2.87-1.37,.72-.89,1-2.06,.76-3.19-.28-1.31-.35-2.47-.23-3.45,2.92-.08,5.28-2.47,5.28-5.41Zm-6.97,11.1c-.42,.52-1.03,.81-1.7,.81h-.15c-.68,0-1.28-.29-1.71-.81-.44-.54-.6-1.25-.45-1.94,.72-3.38,.2-6.1-1.44-7.46-.32-.26-.79-.22-1.06,.1-.26,.32-.22,.79,.1,1.06,.31,.26,.56,.6,.75,1-1.9-.27-3.37-1.89-3.37-3.86,0-2.53,2.06-4.58,4.58-4.58h5.33c2.53,0,4.58,2.06,4.58,4.58,0,1.97-1.47,3.59-3.37,3.86,.19-.41,.44-.75,.75-1,.32-.27,.36-.74,.1-1.06-.27-.32-.74-.36-1.06-.1-1.64,1.36-2.16,4.08-1.44,7.46,.15,.69-.02,1.4-.46,1.94Z"/></g></svg>