<?xml version="1.0" encoding="UTF-8"?><svg fill="currentColor" xmlns="http://www.w3.org/2000/svg" viewBox="0 0 24 24"><g id="l"><path d="M20.3,3.74c-1.38-1.38-3.34-1.94-5.24-1.49-1.78,.42-3.2,1.66-3.88,3.34-.01,.02-.02,.04-.03,.06-.04,.09-.08,.18-.11,.27-.77,2.31-2.61,4.16-4.93,4.93-.1,.03-.18,.08-.28,.11-.02,0-.04,.01-.06,.03-1.68,.68-2.91,2.1-3.33,3.88-.45,1.9,.11,3.86,1.49,5.24,1.07,1.07,2.49,1.64,3.94,1.64,.59,0,1.2-.1,1.78-.29,5.64-1.88,10.13-6.37,12.01-12,.67-2.02,.16-4.22-1.35-5.72Zm-8.02,3.1c.09,.05,.17,.11,.25,.19,.33,.33,.43,.81,.28,1.26-.7,2.02-2.32,3.64-4.34,4.34-.45,.16-.93,.05-1.26-.28-.08-.08-.14-.17-.19-.25,2.4-.94,4.31-2.86,5.26-5.26Zm7.94,2.15c-1.73,5.19-5.86,9.33-11.06,11.06-1.48,.49-3.09,.11-4.19-.99-1.01-1.01-1.42-2.44-1.09-3.83,.25-1.05,.89-1.94,1.77-2.5,.13,.25,.29,.49,.49,.7,.51,.51,1.2,.79,1.9,.79,.3,0,.61-.05,.91-.15,2.46-.85,4.42-2.81,5.27-5.27,.34-1,.1-2.07-.63-2.81-.2-.2-.44-.37-.7-.49,.56-.88,1.45-1.52,2.5-1.77,.32-.07,.64-.11,.95-.11,1.07,0,2.1,.42,2.88,1.2,1.1,1.1,1.48,2.71,.99,4.19Z"/></g></svg>