<?xml version="1.0" encoding="UTF-8"?><svg fill="currentColor" xmlns="http://www.w3.org/2000/svg" viewBox="0 0 24 24"><g id="o"><path d="M21.58,12.22c-.11-.25-.26-.48-.46-.67,.08-.14,.15-.3,.2-.46,.17-.54,.11-1.11-.16-1.6-.37-.66-1.06-1.02-1.78-1.03-.07-.26-.18-.51-.34-.74-.32-.44-.78-.73-1.26-.78-.52-.06-1.07,.14-1.51,.54-.5,.44-.79,1.07-.81,1.73l-.52,3.25c0,.05,0,.1,0,.15-.21,.32-.38,.68-.45,1.06l-.24,1.21c-.1,.49-.41,.89-.85,1.11l-.66,.33v-7.42l2.29-1.82c.57-.34,.97-.91,1.11-1.55,.13-.59,.03-1.16-.28-1.58-.29-.4-.76-.66-1.3-.72-.27-.03-.54,0-.81,.07-.36-.63-1.02-1.05-1.77-1.05s-1.41,.42-1.77,1.05c-.26-.07-.54-.09-.81-.07-.54,.06-1.02,.32-1.3,.72-.3,.42-.4,1-.28,1.58,.14,.65,.55,1.21,1.11,1.55l2.29,1.82v7.42l-.66-.33c-.44-.22-.75-.63-.85-1.11l-.24-1.21c-.08-.38-.24-.74-.45-1.06,0-.05,0-.1,0-.15l-.52-3.25c-.02-.66-.31-1.29-.81-1.73-.45-.4-1-.6-1.51-.54-.49,.05-.95,.34-1.26,.78-.16,.22-.27,.47-.34,.74-.72,0-1.41,.37-1.78,1.03-.27,.48-.33,1.05-.16,1.6,.05,.16,.12,.32,.2,.46-.19,.19-.35,.42-.46,.67-.22,.5-.22,1.04-.02,1.49,.22,.47,.67,.84,1.24,1.02,.23,.07,.47,.11,.71,.11,.41,0,.83-.11,1.19-.31l2.34-.95c.07,.13,.12,.26,.15,.4l.24,1.21c.19,.94,.79,1.73,1.65,2.16l1.33,.66v3c0,.41,.34,.75,.75,.75s.75-.34,.75-.75v-3l1.33-.66c.86-.43,1.46-1.22,1.65-2.16l.24-1.21c.03-.14,.08-.28,.15-.4l2.34,.95c.37,.21,.78,.31,1.19,.31,.24,0,.48-.04,.71-.11,.57-.18,1.03-.55,1.24-1.02,.21-.45,.2-.99-.02-1.49Zm-16.66,.93s-.07,.03-.1,.05c-.32,.19-.62,.13-.74,.09-.19-.06-.3-.16-.32-.21-.02-.04-.02-.14,.03-.26,.04-.09,.17-.31,.49-.42,.28-.09,.48-.34,.51-.64,.03-.3-.12-.58-.38-.73-.15-.09-.26-.22-.31-.38-.03-.08-.06-.25,.04-.42,.1-.17,.29-.26,.49-.26,.11,0,.23,.03,.34,.09,.26,.15,.58,.13,.82-.05,.24-.18,.35-.48,.28-.77-.08-.33,.05-.56,.11-.64,.08-.11,.17-.16,.21-.16,.06,0,.2,.03,.35,.17,.09,.08,.31,.31,.31,.68,0,.04,0,.08,0,.12l.29,1.86-1.23-.62c-.37-.18-.82-.04-1.01,.34-.19,.37-.04,.82,.34,1.01l1.06,.53-1.56,.64Zm4.92-7.27s-.06-.05-.1-.06c-.32-.18-.42-.48-.44-.6-.04-.19,0-.34,.03-.38,.02-.03,.11-.09,.25-.1,.02,0,.04,0,.06,0,.12,0,.33,.03,.54,.22,.22,.2,.54,.25,.81,.13,.27-.12,.45-.39,.45-.69,0-.34,.26-.63,.56-.63s.56,.29,.56,.63c0,.3,.17,.57,.45,.69,.27,.12,.59,.07,.81-.13,.25-.23,.51-.23,.61-.22,.14,.01,.22,.07,.25,.1,.03,.05,.07,.19,.03,.38-.03,.12-.12,.42-.44,.6-.03,.02-.07,.04-.1,.06l-1.4,1.11v-.99c0-.41-.34-.75-.75-.75s-.75,.34-.75,.75v.99l-1.4-1.11Zm10.39,7.2c-.02,.05-.13,.15-.32,.21-.12,.04-.42,.1-.74-.09-.03-.02-.07-.04-.1-.05l-1.56-.64,1.06-.53c.37-.19,.52-.64,.34-1.01-.18-.37-.63-.52-1.01-.34l-1.23,.62,.29-1.86s0-.08,0-.12c0-.37,.21-.6,.31-.68,.15-.13,.29-.17,.35-.17,.04,0,.13,.05,.21,.16,.06,.08,.18,.3,.11,.64-.07,.29,.05,.59,.28,.77,.24,.18,.56,.2,.82,.05,.3-.17,.68-.09,.83,.18,.09,.16,.06,.33,.04,.42-.05,.16-.16,.3-.31,.38-.26,.15-.41,.43-.38,.73,.03,.29,.23,.55,.51,.64,.32,.11,.45,.33,.49,.42,.05,.13,.05,.23,.03,.26Z"/></g></svg>