<?xml version="1.0" encoding="UTF-8"?><svg fill="currentColor" xmlns="http://www.w3.org/2000/svg" viewBox="0 0 24 24"><g id="h"><g><path d="M19.11,5.02c-.18-.3-.4-.58-.63-.86-1.12-1.28-2.66-1.98-4.22-1.91-.57,.02-1.12,.14-1.61,.34-1.23,.51-1.69,1.37-2.17,2.28-.33,.63-.71,1.35-1.44,2.18-.96,1.1-1.88,1.66-2.69,2.15-1.08,.65-2.11,1.27-2.71,2.84-.51,1.33-.39,2.48-.33,3.04,.18,1.64,.92,3.22,2.17,4.56,.91,.99,2.2,1.6,3.53,1.7,.22,.02,.45,.02,.67,.02,.81,0,1.6-.11,2.35-.31,3.08-.86,5.88-3.65,7.3-7.29,1.26-3.23,1.18-6.5-.2-8.74Zm-7.5,14.58c-.79,.22-1.63,.3-2.5,.24-.95-.07-1.88-.51-2.54-1.22-.82-.89-1.36-1.86-1.62-2.88,.02,0,.03,0,.04,0h3c.41,0,.75-.34,.75-.75s-.34-.75-.75-.75h-3c-.09,0-.17,.02-.24,.05-.01-.47,.03-1.06,.28-1.72,.42-1.09,1.08-1.49,2.08-2.09,.86-.52,1.94-1.17,3.05-2.45,.4-.46,.71-.89,.96-1.29h1.87c.41,0,.75-.34,.75-.75s-.34-.75-.75-.75h-1.02c.34-.62,.61-1.01,1.24-1.27,.33-.14,.7-.22,1.1-.23,1.12-.03,2.23,.48,3.03,1.4,.18,.21,.35,.44,.49,.67,1.01,1.64,1.15,4.01,.4,6.48-.07-.02-.15-.05-.23-.05h-2c-.41,0-.75,.34-.75,.75s.34,.75,.75,.75h1.68c-1.3,2.94-3.58,5.16-6.07,5.86Z"/><path d="M15.75,10c0-.41-.34-.75-.75-.75h-2c-.41,0-.75,.34-.75,.75s.34,.75,.75,.75h2c.41,0,.75-.34,.75-.75Z"/><path d="M10.75,12c0-.41-.34-.75-.75-.75h-1c-.41,0-.75,.34-.75,.75s.34,.75,.75,.75h1c.41,0,.75-.34,.75-.75Z"/><path d="M13,16.25h-2c-.41,0-.75,.34-.75,.75s.34,.75,.75,.75h2c.41,0,.75-.34,.75-.75s-.34-.75-.75-.75Z"/></g></g></svg>