<?xml version="1.0" encoding="UTF-8"?><svg fill="currentColor" xmlns="http://www.w3.org/2000/svg" viewBox="0 0 24 24"><g id="m"><path d="M16,6.25h-1c-.86,0-1.68,.31-2.34,.84,0-.32,.01-.63,.08-.94,.29-1.34,1.19-2.18,1.71-2.55,.33-.24,.41-.71,.16-1.05-.24-.33-.71-.41-1.05-.16-.69,.5-1.9,1.62-2.29,3.45-.08,.36-.11,.72-.12,1.09-.63-.44-1.37-.68-2.15-.68h-1c-2.62,0-4.75,2.13-4.75,4.75v6c0,2.62,2.13,4.75,4.75,4.75h1c.34,0,.68-.06,1.01-.15,.32,.09,.65,.15,.99,.15h2c.35,0,.67-.06,.99-.15,.33,.09,.66,.15,1.01,.15h1c2.62,0,4.75-2.13,4.75-4.75v-6c0-2.62-2.13-4.75-4.75-4.75ZM4.75,17v-6c0-1.79,1.46-3.25,3.25-3.25h1s.09,.01,.14,.01c-1.12,.65-1.89,1.85-1.89,3.24v7c0,.85,.29,1.62,.77,2.25h-.02c-1.79,0-3.25-1.46-3.25-3.25Zm6.25,3.25c-1.24,0-2.25-1.01-2.25-2.25v-7c0-1.24,1.01-2.25,2.25-2.25h2c1.24,0,2.25,1.01,2.25,2.25v7c0,1.24-1.01,2.25-2.25,2.25h-2Zm8.25-3.25c0,1.79-1.46,3.25-3.25,3.25h-.02c.48-.63,.77-1.4,.77-2.25v-7c0-1.39-.77-2.59-1.89-3.24,.05,0,.09-.01,.14-.01h1c1.79,0,3.25,1.46,3.25,3.25v6Z"/></g></svg>