<?xml version="1.0" encoding="UTF-8"?><svg fill="currentColor" xmlns="http://www.w3.org/2000/svg" viewBox="0 0 24 24"><g id="b"><g><path d="M13,9.25h-1c-.41,0-.75,.34-.75,.75s.34,.75,.75,.75h1c.41,0,.75-.34,.75-.75s-.34-.75-.75-.75Z"/><path d="M12,14.25h-1c-.41,0-.75,.34-.75,.75s.34,.75,.75,.75h1c.41,0,.75-.34,.75-.75s-.34-.75-.75-.75Z"/><path d="M15.99,11.93c.14-1.06,.12-2,.07-2.68-.06-.79-.33-1.51-.78-2.07-.02-.03-.05-.05-.08-.08,.5-.2,.95-.5,1.32-.9,1.3-1.41,.92-3.26,.88-3.46-.07-.31-.33-.54-.65-.58-.28-.03-2.71-.23-4.16,1.69-.03,.03-.04,.07-.06,.1-.02-.03-.04-.07-.06-.1-1.45-1.91-3.88-1.71-4.16-1.69-.32,.03-.58,.27-.65,.58-.05,.21-.43,2.05,.88,3.46,.26,.28,.58,.52,.92,.71-.61,.68-1.01,1.58-1.05,2.58-.05,1.12-.14,2.23-.28,3.34l-.45,.15c-.39,.13-.61,.56-.47,.95,.1,.31,.38,.5,.69,.51-.1,.6-.21,1.2-.34,1.8-.33,1.52-.75,3.04-1.26,4.52-.09,.26-.03,.54,.15,.74,.14,.16,.35,.25,.56,.25,.05,0,.11,0,.16-.02,.67-.15,1.9-.51,3.24-1.28l.47,.47c.15,.15,.34,.22,.53,.22s.38-.07,.53-.22c.29-.29,.29-.77,0-1.06l-.26-.26c.73-.56,1.46-1.25,2.12-2.14,.94-1.26,1.5-2.56,1.84-3.78l.23,.23c.15,.15,.34,.22,.53,.22s.38-.07,.53-.22c.29-.29,.29-.77,0-1.06l-.93-.93Zm0-8.27c0,.43-.12,1.03-.57,1.52-.5,.54-1.25,.77-2.01,.67-.03-.01-.07-.02-.1-.03,.07-.34,.21-.71,.48-1.07,.62-.81,1.58-1.04,2.2-1.09Zm-4.72,1.09c.23,.31,.37,.63,.44,.93-.29,.04-.58,.11-.85,.21-.06-.04-.12-.08-.19-.1-.41-.11-.76-.33-1.04-.62-.45-.49-.56-1.09-.57-1.52,.62,.05,1.59,.28,2.2,1.09Zm1.32,11.82c-.62,.82-1.3,1.46-1.99,1.97l-.07-.07c-.29-.29-.77-.29-1.06,0-.24,.24-.27,.59-.13,.87-.42,.22-.82,.4-1.19,.54,.33-1.09,.62-2.21,.86-3.32,.18-.86,.33-1.72,.46-2.59l.76-.25c.39-.13,.61-.56,.47-.95-.13-.39-.55-.6-.95-.47l-.07,.02c.1-.92,.18-1.84,.21-2.76,.05-1.33,1.06-2.41,2.26-2.41,.08,0,.18,0,.26,.01,.03,0,.06,.01,.08,.02,.18,.06,.35,.11,.53,.15,.41,.16,.78,.43,1.07,.8,.26,.33,.42,.77,.46,1.26,.04,.53,.05,1.24-.02,2.05-.02,.02-.05,.03-.07,.05-.26,.26-.28,.66-.07,.95-.25,1.3-.77,2.76-1.81,4.15Z"/></g></g></svg>