<?xml version="1.0" encoding="UTF-8"?><svg fill="currentColor" xmlns="http://www.w3.org/2000/svg" viewBox="0 0 24 24"><g id="n"><path d="M18.72,9.81c-.18-.67-.45-1.02-.66-1.31-.17-.22-.26-.35-.33-.65-.07-.34-.02-.57,.03-.83,.07-.36,.17-.8-.09-1.34-.33-.7-1.05-1.14-2.17-1.36-.7-1.27-2.03-2.07-3.5-2.07s-2.81,.8-3.5,2.07c-1.13,.21-1.84,.66-2.17,1.36-.26,.54-.16,.98-.09,1.34,.05,.26,.1,.49,.03,.83-.06,.3-.16,.43-.33,.65-.21,.28-.48,.63-.66,1.31-.1,.36-.29,1.31,0,2.39,.18,.67,.45,1.02,.66,1.31,.17,.22,.26,.35,.33,.65,.07,.35,.02,.58-.04,.84-.08,.36-.2,.84,.14,1.39,.37,.62,.95,.74,1.37,.82,.34,.07,.54,.12,.74,.32s.25,.39,.32,.73c.09,.4,.22,.94,.76,1.34,.35,.25,.77,.38,1.26,.38,.14,0,.28-.02,.43-.04v1.05c0,.41,.34,.75,.75,.75s.75-.34,.75-.75v-1.05c.68,.09,1.25-.03,1.69-.35,.55-.4,.67-.95,.76-1.34,.08-.34,.13-.54,.32-.73s.4-.25,.74-.32c.42-.09,1-.2,1.37-.82,.33-.55,.22-1.04,.14-1.39-.06-.26-.12-.49-.04-.84,.06-.3,.16-.43,.33-.65,.21-.28,.48-.63,.66-1.31,.29-1.07,.1-2.03,0-2.39Zm-1.45,2c-.1,.39-.24,.56-.41,.78-.21,.28-.47,.62-.6,1.26-.14,.68-.02,1.16,.05,1.49,.02,.09,.05,.23,.04,.27-.03,.04-.08,.07-.39,.13-.39,.08-.97,.2-1.5,.73-.51,.51-.63,1.06-.73,1.46-.07,.31-.1,.41-.19,.47-.15,.11-.43,.12-.81,.04v-2.12l1.78-1.78c.29-.29,.29-.77,0-1.06s-.77-.29-1.06,0l-.72,.72v-2.88l1.78-1.78c.29-.29,.29-.77,0-1.06s-.77-.29-1.06,0l-.72,.72v-2.19c0-.41-.34-.75-.75-.75s-.75,.34-.75,.75v2.19l-.72-.72c-.29-.29-.77-.29-1.06,0s-.29,.77,0,1.06l1.78,1.78v2.88l-.72-.72c-.29-.29-.77-.29-1.06,0s-.29,.77,0,1.06l1.78,1.78v2.12c-.37,.08-.66,.07-.81-.04-.08-.06-.11-.15-.19-.47-.09-.4-.22-.95-.73-1.46-.53-.53-1.11-.65-1.5-.73-.31-.06-.36-.09-.4-.14,0-.04,.03-.17,.05-.26,.08-.32,.19-.81,.05-1.49-.13-.64-.39-.98-.6-1.26-.17-.22-.3-.4-.41-.78-.2-.75-.05-1.42,0-1.61,.1-.39,.24-.56,.41-.78,.21-.28,.47-.62,.6-1.26,.13-.64,.04-1.1-.03-1.44-.06-.28-.06-.32-.02-.39,.13-.26,.66-.48,1.42-.58,.27-.03,.49-.21,.6-.46,.39-.93,1.29-1.54,2.31-1.54s1.92,.6,2.31,1.54c.1,.25,.33,.42,.6,.46,.77,.1,1.29,.31,1.42,.58,.03,.07,.03,.11-.03,.39-.07,.33-.16,.79-.03,1.44,.13,.64,.39,.98,.6,1.26,.17,.22,.3,.4,.41,.78,.06,.24,.19,.89,0,1.61Z"/></g></svg>