<?xml version="1.0" encoding="UTF-8"?><svg fill="currentColor" xmlns="http://www.w3.org/2000/svg" viewBox="0 0 24 24"><g id="t"><path d="M12.61,6.28c-.04-.29-.03-.65,.1-1.04,.36-1.05,1.35-1.46,1.55-1.54,.39-.14,.59-.57,.45-.96s-.57-.59-.96-.45c-.31,.11-1.88,.76-2.45,2.46-.19,.56-.22,1.09-.18,1.53-4.41,.4-7.86,3.7-7.86,7.71,0,4.27,3.93,7.75,8.75,7.75s8.75-3.48,8.75-7.75-3.6-7.44-8.14-7.72Zm-.61,1.47c2.41,0,4.55,1.03,5.87,2.59-.24,0-.48-.03-.71-.08-.67-.15-1.18-.45-1.53-.72-.06-.05-.12-.1-.19-.15-.32-.24-.78-.18-1.04,.13-.25,.32-.21,.78,.1,1.04,.05,.05,.11,.09,.16,.13,.56,.51,.58,1.21,.58,1.3,0,.56-.27,.96-.48,1.19-.62-.17-1.04-.51-1.24-.72-.57-.57-.74-1.23-.79-1.58-.05-.37-.37-.64-.74-.64h0c-.37,0-.69,.27-.74,.64-.11,.8-.54,1.33-.79,1.58-.42,.42-.9,.62-1.25,.72-.45-.5-.47-1.11-.47-1.19,0-.69,.41-1.15,.61-1.32,.04-.04,.09-.07,.13-.11,.31-.26,.35-.72,.1-1.04-.25-.32-.71-.37-1.04-.13-.03,.02-.08,.06-.15,.12-.34,.27-.87,.59-1.56,.75-.23,.05-.47,.07-.71,.08,1.32-1.57,3.45-2.59,5.87-2.59Zm0,12.5c-4,0-7.25-2.8-7.25-6.25,0-.78,.17-1.52,.47-2.2,.64,.09,1.31,.08,1.94-.06,.03,0,.07-.02,.1-.02,0,.09-.01,.19-.01,.29,0,.27,.06,1.67,1.3,2.6,.13,.1,.29,.15,.45,.15,.04,0,.07,0,.11,0,.53-.08,1.55-.33,2.42-1.21,.13-.13,.3-.32,.47-.56,.13,.19,.29,.38,.47,.56,.38,.38,1.19,1.04,2.42,1.21,.2,.03,.4-.02,.56-.14,.22-.16,1.3-1.05,1.3-2.6,0-.06,0-.16-.02-.29,.03,0,.07,.02,.1,.02,.63,.14,1.29,.16,1.94,.06,.3,.69,.47,1.43,.47,2.2,0,3.45-3.25,6.25-7.25,6.25Z"/></g></svg>