<?xml version="1.0" encoding="UTF-8"?><svg fill="currentColor" xmlns="http://www.w3.org/2000/svg" viewBox="0 0 24 24"><g id="t"><g><path d="M3.99,7.99c-.55,0-1,.45-1,1v2c-.55,0-1,.45-1,1s.45,1,1,1v2c0,.55,.45,1,1,1s1-.45,1-1v-6c0-.55-.45-1-1-1Z"/><path d="M16.99,6.99c-.55,0-1,.45-1,1v3H7.99v-3c0-.55-.45-1-1-1s-1,.45-1,1V15.99c0,.55,.45,1,1,1s1-.45,1-1v-3H15.99v3c0,.55,.45,1,1,1s1-.45,1-1V7.99c0-.55-.45-1-1-1Z"/><path d="M20.99,10.99v-2c0-.55-.45-1-1-1s-1,.45-1,1v6c0,.55,.45,1,1,1s1-.45,1-1v-2c.55,0,1-.45,1-1s-.45-1-1-1Z"/></g></g></svg>