<?xml version="1.0" encoding="UTF-8"?><svg fill="currentColor" xmlns="http://www.w3.org/2000/svg" viewBox="0 0 24 24"><g id="n"><g><path d="M5.12,8.85l1.14,.44c3.66,1.25,7.77,1.26,11.49-.01l1.12-.39c-.25-1.73-.1-3.64,.46-5.71,.06-.23,.01-.47-.13-.65-.14-.19-.36-.29-.6-.29H5.38c-.23,0-.45,.11-.6,.29-.14,.19-.19,.43-.13,.65,.55,2.05,.7,3.94,.46,5.66Zm6.34-1.39c.28-.28,.78-.28,1.06,0,.14,.14,.22,.33,.22,.53s-.08,.39-.22,.53-.33,.22-.53,.22-.39-.08-.53-.22-.22-.33-.22-.53,.08-.39,.22-.53Z"/><path d="M16.63,13.33c.78-.41,1.62-.73,2.48-.93l.81-.16c-.22-.47-.45-.96-.63-1.49-.04-.12-.07-.25-.11-.38l-.95,.33c-2.02,.69-4.12,1.04-6.25,1.04s-4.23-.35-6.24-1.04l-.95-.37c-.04,.14-.08,.28-.12,.41-.18,.51-.39,.97-.6,1.43l.82,.23c.84,.2,1.67,.51,2.45,.92,1.49,.79,2.8,1.98,3.78,3.43,.4,.6,1.34,.6,1.74,0,.98-1.46,2.29-2.64,3.78-3.44Z"/><path d="M20.58,13.64l-1.15,.22c-.71,.17-1.43,.44-2.09,.79-1.29,.69-2.38,1.68-3.24,2.95-.33,.49-.82,.84-1.36,1.01v3.13h6.85c.28,0,.54-.16,.67-.41,.73-1.43,1.1-2.89,1.08-4.35-.01-1.34-.35-2.39-.76-3.34Z"/><path d="M9.87,17.6c-.59-.87-1.62-2.09-3.24-2.95-.66-.35-1.38-.62-2.12-.79l-1.08-.31c-.43,.98-.78,2.05-.8,3.43-.01,1.46,.35,2.92,1.08,4.35,.13,.25,.39,.41,.67,.41h6.85v-3.13c-.54-.17-1.03-.52-1.36-1.01Z"/></g></g></svg>