<?xml version="1.0" encoding="UTF-8"?><svg fill="currentColor" xmlns="http://www.w3.org/2000/svg" viewBox="0 0 24 24"><g id="s"><g><path d="M17.7,15.75c-.3-.89-.73-1.39-1.14-1.87-.29-.34-.6-.7-.92-1.26-.33-.57-.57-1.21-.74-1.88h-5.83c-.17,.67-.41,1.3-.74,1.88-.32,.56-.63,.92-.92,1.26-.41,.48-.83,.97-1.14,1.87-.17,.51-.69,2.04,.03,3.56,.35,.74,.92,1.33,1.7,1.77,.75,.43,1.67,.65,2.67,.65h2.62c1,0,1.9-.22,2.67-.65,.78-.44,1.35-1.04,1.7-1.77,.73-1.52,.21-3.06,.03-3.56Z"/><path d="M6.99,3.74h4.25v2.5h-.25c-.96,0-1.75,.79-1.75,1.75v1.25h5.5v-1.25c0-.96-.79-1.75-1.75-1.75h-.25V3.74h4.25c.41,0,.75-.34,.75-.75s-.34-.75-.75-.75H6.99c-.41,0-.75,.34-.75,.75s.34,.75,.75,.75Z"/></g></g></svg>