<?xml version="1.0" encoding="UTF-8"?><svg fill="currentColor" xmlns="http://www.w3.org/2000/svg" viewBox="0 0 24 24"><g id="o"><path d="M21.36,6.61c-.42-.24-.89-.37-1.38-.37h-1.39c-.25,0-.49-.07-.69-.21l-1.61-1.07c-.35-.23-.56-.62-.56-1.04v-.93c0-.41-.34-.75-.75-.75h-6c-.41,0-.75,.34-.75,.75v.93c0,.42-.21,.81-.56,1.04l-1.61,1.07c-.21,.14-.45,.21-.69,.21h-1.39c-.49,0-.96,.13-1.38,.37-.23,.13-.37,.38-.37,.65V15.99c0,.41,.34,.75,.75,.75h.59c.26,.38,.54,.74,.85,1.08,.41,.45,.86,.87,1.35,1.24,.29,.22,.46,.59,.46,.99v.94c0,.41,.34,.75,.75,.75h4.25v-3.75c0-.41,.34-.75,.75-.75s.75,.34,.75,.75v3.75h4.25c.41,0,.75-.34,.75-.75v-.94c0-.4,.17-.77,.46-.99,.49-.37,.94-.79,1.35-1.24,.31-.34,.59-.7,.85-1.08h.59c.41,0,.75-.34,.75-.75V7.26c0-.27-.14-.51-.37-.65Zm-13.07,1.34c.09-.4,.49-.66,.89-.57,1.1,.24,1.88,.74,2.24,1.01,.19,.14,.38,.3,.55,.47,.17-.17,.36-.33,.55-.47,.36-.27,1.14-.76,2.23-1,.4-.09,.8,.17,.89,.57s-.17,.8-.57,.89c-.82,.18-1.39,.54-1.66,.74-.32,.24-.6,.52-.85,.85-.14,.19-.36,.3-.6,.3s-.46-.11-.6-.3c-.24-.33-.53-.61-.85-.85-.22-.16-.81-.56-1.67-.75-.4-.09-.66-.49-.57-.89Zm11.22,5.57l-1.41,1.41c-.52,.52-1.21,.81-1.94,.81h-1.94c-.9,0-1.72-.43-2.24-1.15-.51,.72-1.33,1.15-2.24,1.15h-1.94c-.73,0-1.43-.29-1.94-.81l-1.41-1.41c-.29-.29-.29-.77,0-1.06s.77-.29,1.06,0l1.41,1.41c.24,.24,.55,.37,.88,.37h1.94c.48,0,.9-.26,1.12-.69l.45-.9c.25-.51,1.09-.51,1.34,0l.45,.9c.21,.43,.64,.69,1.12,.69h1.94c.33,0,.65-.13,.88-.37l1.41-1.41c.29-.29,.77-.29,1.06,0s.29,.77,0,1.06Z"/></g></svg>