<?xml version="1.0" encoding="UTF-8"?><svg fill="currentColor" xmlns="http://www.w3.org/2000/svg" viewBox="0 0 24 24"><g id="d"><g><path d="M16.92,11.75c2.62,0,4.75-2.13,4.75-4.75s-2.13-4.75-4.75-4.75-4.75,2.13-4.75,4.75,2.13,4.75,4.75,4.75Zm0-6.5c.96,0,1.75,.79,1.75,1.75s-.79,1.75-1.75,1.75-1.75-.79-1.75-1.75,.79-1.75,1.75-1.75Z"/><path d="M21.67,16.93c-.14-1.66-.5-3.3-1.06-4.9-1.03,.76-2.3,1.21-3.68,1.21-.99,0-1.92-.24-2.75-.65v1.24c-.87-.33-1.97-.59-3.25-.59-.34,0-.68,.04-1.02,.08-.84-.69-1.88-1.08-2.98-1.08-2.62,0-4.75,2.13-4.75,4.75s2.13,4.75,4.75,4.75c1.06,0,2.07-.37,2.9-1.01,1.81,.67,3.69,1.02,5.61,1.02,.17,0,.35,0,.52,0,1.55-.05,3.09-.32,4.57-.81,.68-.23,1.17-.86,1.2-1.57,.04-.81,.02-1.63-.04-2.43Z"/></g></g></svg>