<?xml version="1.0" encoding="UTF-8"?><svg fill="currentColor" xmlns="http://www.w3.org/2000/svg" viewBox="0 0 24 24"><g id="j"><g><path d="M17.99,5.24H5.99c-2.07,0-3.75,1.68-3.75,3.75v1.25H21.74v-1.25c0-2.07-1.68-3.75-3.75-3.75Z"/><path d="M2.24,12.99c0,.96,.79,1.75,1.75,1.75h1.6l-3.22,4.83c-.23,.34-.14,.81,.21,1.04,.13,.08,.27,.13,.42,.13,.24,0,.48-.12,.62-.33l3.78-5.67h9.2l3.78,5.67c.14,.22,.38,.33,.62,.33,.14,0,.29-.04,.42-.13,.34-.23,.44-.7,.21-1.04l-3.22-4.83h1.6c.96,0,1.75-.79,1.75-1.75v-1.25H2.24v1.25Z"/><path d="M15.49,2.24c-.98,0-1.8,.63-2.11,1.5h4.22c-.31-.87-1.14-1.5-2.11-1.5Z"/><path d="M8.49,2.24c-.98,0-1.8,.63-2.11,1.5h4.22c-.31-.87-1.14-1.5-2.11-1.5Z"/></g></g></svg>