<?xml version="1.0" encoding="UTF-8"?><svg fill="currentColor" xmlns="http://www.w3.org/2000/svg" viewBox="0 0 24 24"><g id="k"><path d="M19.49,3.24c-1.24,0-2.25,1.01-2.25,2.25v.75h-.5v-1.25c0-.41-.34-.75-.75-.75s-.75,.34-.75,.75v1.25h-6.5v-1.25c0-.41-.34-.75-.75-.75s-.75,.34-.75,.75v1.25h-.5v-.75c0-1.24-1.01-2.25-2.25-2.25s-2.25,1.01-2.25,2.25v3c0,1.24,1.01,2.25,2.25,2.25s2.25-1.01,2.25-2.25v-.75h.5v11.5H3.99c-.41,0-.75,.34-.75,.75s.34,.75,.75,.75h16c.41,0,.75-.34,.75-.75s-.34-.75-.75-.75h-3.25V7.74h.5v.75c0,1.24,1.01,2.25,2.25,2.25s2.25-1.01,2.25-2.25v-3c0-1.24-1.01-2.25-2.25-2.25Zm-4.25,11h-6.5V7.74h6.5v6.5Z"/></g></svg>