<?xml version="1.0" encoding="UTF-8"?><svg fill="currentColor" xmlns="http://www.w3.org/2000/svg" viewBox="0 0 24 24"><g id="l"><g><path d="M11.25,3.99c0-.59,.06-1.16,.16-1.72-1.36,.08-2.65,.44-3.81,1.03-.55,1.29-.85,2.7-.85,4.19,0,5.93,4.82,10.75,10.75,10.75,.73,0,1.45-.07,2.14-.22,.98-1.23,1.66-2.7,1.95-4.31-.2,.01-.39,.03-.59,.03-5.38,0-9.75-4.37-9.75-9.75Z"/><path d="M5.25,7.49c0-.98,.13-1.92,.34-2.83-2.04,1.79-3.34,4.41-3.34,7.33,0,5.38,4.37,9.75,9.75,9.75,2.23,0,4.28-.76,5.92-2.02-.14,0-.28,.02-.42,.02-6.75,0-12.25-5.5-12.25-12.25Z"/><path d="M12.93,2.28c-.12,.55-.18,1.12-.18,1.7,0,4.55,3.7,8.25,8.25,8.25,.25,0,.5-.02,.74-.04,0-.07,.01-.14,.01-.21,0-5.06-3.88-9.23-8.82-9.7Z"/></g></g></svg>