<?xml version="1.0" encoding="UTF-8"?><svg fill="currentColor" xmlns="http://www.w3.org/2000/svg" viewBox="0 0 24 24"><g id="i"><path d="M20.99,14.24h-1.25V5.91c0-2.02-1.65-3.67-3.67-3.67-.88,0-1.72,.31-2.39,.88l-1.69,1.45-1.69-1.45c-.66-.57-1.51-.88-2.39-.88-2.02,0-3.67,1.65-3.67,3.67V14.24h-1.25c-.41,0-.75,.34-.75,.75v4c0,1.52,1.23,2.75,2.75,2.75s2.75-1.23,2.75-2.75v-4c0-.41-.34-.75-.75-.75h-1.25V5.91c0-1.2,.97-2.17,2.17-2.17,.52,0,1.02,.19,1.41,.52l1.52,1.3-2.38,2.04c-.77,.66-1.22,1.63-1.22,2.65,0,1.92,1.57,3.49,3.49,3.49h2.52c1.92,0,3.49-1.57,3.49-3.49,0-1.02-.44-1.99-1.22-2.65l-2.38-2.04,1.52-1.3c.39-.34,.89-.52,1.41-.52,1.2,0,2.17,.97,2.17,2.17V14.24h-1.25c-.41,0-.75,.34-.75,.75v4c0,1.52,1.23,2.75,2.75,2.75s2.75-1.23,2.75-2.75v-4c0-.41-.34-.75-.75-.75Zm-6.45-5.5c.44,.38,.7,.93,.7,1.51,0,1.1-.89,1.99-1.99,1.99h-2.52c-1.1,0-1.99-.89-1.99-1.99,0-.58,.25-1.13,.69-1.51l2.56-2.19,2.55,2.19Z"/></g></svg>