<?xml version="1.0" encoding="UTF-8"?><svg fill="currentColor" xmlns="http://www.w3.org/2000/svg" viewBox="0 0 24 24"><g id="r"><g><circle cx="11.99" cy="14.99" r="2.25"/><path d="M10.56,8.24h2.86l.4-1.17c.04-.11,0-.19-.03-.23-.03-.04-.09-.1-.2-.1h-3.19c-.11,0-.18,.07-.2,.1-.03,.04-.07,.12-.03,.23l.4,1.17Z"/><path d="M20.74,14.81c-.04-2.13-1.09-4.07-2.83-5.3l.71-2.49c.33-1.14,.1-2.34-.61-3.29s-1.81-1.49-2.99-1.49h-6.04c-1.19,0-2.28,.54-2.99,1.49s-.94,2.15-.61,3.29l.71,2.5c-1.75,1.26-2.83,3.29-2.84,5.47,0,2.37,.79,4.23,1.45,5.38,.48,.84,1.4,1.37,2.38,1.37h9.85c.98,0,1.88-.51,2.36-1.34,1.27-2.19,1.46-4.33,1.46-5.41v-.18ZM8.96,5.98c.33-.46,.86-.73,1.43-.73h3.19c.56,0,1.1,.27,1.43,.73,.33,.46,.41,1.05,.23,1.59l-.58,1.67s-.01,.02-.01,.03c-.01,.03-.03,.05-.04,.07-.03,.06-.06,.11-.1,.15-.02,.02-.04,.04-.06,.06-.05,.04-.1,.07-.15,.1-.03,.01-.05,.03-.08,.04-.08,.03-.17,.05-.26,.05h-3.93s-.02,0-.02,0c-.06,0-.11-.02-.16-.03-.04-.01-.08-.02-.12-.03-.04-.02-.08-.05-.12-.08-.04-.03-.08-.05-.12-.09-.03-.03-.05-.07-.07-.11-.03-.05-.06-.09-.08-.14,0,0-.01-.01-.01-.02l-.58-1.67c-.18-.53-.1-1.13,.23-1.59Zm3.02,12.77c-2.07,0-3.75-1.68-3.75-3.75s1.68-3.75,3.75-3.75,3.75,1.68,3.75,3.75-1.68,3.75-3.75,3.75Z"/></g></g></svg>