<?xml version="1.0" encoding="UTF-8"?><svg fill="currentColor" xmlns="http://www.w3.org/2000/svg" viewBox="0 0 24 24"><g id="p"><path d="M21.51,10.64c-.9-.89-2.18-1.4-3.53-1.4-1.57,0-2.99,.67-3.87,1.78-.54-.37-1.21-.67-2.04-.78-1.17-.14-2.36,.17-3.34,.87v-1.66l1.14-.57c.07-.04,.15-.04,.22,0l.76,.38c.79,.39,1.75,.14,2.24-.59l1.06-1.58c.46-.69,.37-1.62-.22-2.21l-1.89-1.89c-1.14-1.14-2.88-1.42-4.33-.7l-2.59,1.29c-1.16,.58-1.93,1.69-2.05,2.98l-.79,7.91c-.05,.51,.12,1.01,.46,1.37,1.31,1.38,4.11,3.71,8.21,3.9,1.69,.08,3.36-.23,4.97-.9,.06-.03,.13-.03,.19-.01l1.95,.65c.1,.03,.17,.13,.17,.24v1.28c0,.41,.34,.75,.75,.75h2c.41,0,.75-.34,.75-.75V11.18c0-.2-.08-.39-.22-.53Z"/></g></svg>