<?xml version="1.0" encoding="UTF-8"?><svg fill="currentColor" xmlns="http://www.w3.org/2000/svg" viewBox="0 0 24 24"><g id="b"><g><path d="M11.99,5.24c-1.52,0-2.75,1.23-2.75,2.75v9c0,1.52,1.23,2.75,2.75,2.75s2.75-1.23,2.75-2.75V7.99c0-1.52-1.23-2.75-2.75-2.75Z"/><path d="M19.49,10.24h-1.86c-.21-.73-.72-1.34-1.39-1.69v7.87c.67-.35,1.18-.95,1.39-1.69h1.86c1.24,0,2.25-1.01,2.25-2.25s-1.01-2.25-2.25-2.25Z"/><path d="M6.34,10.24h-1.86c-1.24,0-2.25,1.01-2.25,2.25s1.01,2.25,2.25,2.25h1.86c.21,.73,.72,1.34,1.39,1.69v-7.87c-.67,.35-1.18,.95-1.39,1.69Z"/></g></g></svg>