<?xml version="1.0" encoding="UTF-8"?><svg fill="currentColor" xmlns="http://www.w3.org/2000/svg" viewBox="0 0 24 24"><g id="e"><g><path d="M12.48,14.43h-.16c-2.82,0-5.67-.24-8.46-.7l-1.21-.15c.11,.7,.41,1.37,.89,1.91,.71,.79,1.73,1.25,2.79,1.25h11.13c1.94,0,3.56-1.31,4.08-3.08l-.44,.07c-2.85,.46-5.75,.7-8.63,.7Z"/><path d="M12.33,12.93c2.86,.01,5.72-.22,8.54-.68l.84-.14c-.17-1.94-1.65-3.57-3.61-3.86-.22-.03-.43-.04-.63-.06l-.75,2.98c-.08,.34-.39,.57-.73,.57-.06,0-.12,0-.18-.02-.4-.1-.65-.51-.55-.91l.65-2.59c-.26,.03-.52,.06-.75,.09-.08,.01-.16,.02-.24,.03l-.71,2.84c-.08,.34-.39,.57-.73,.57-.06,0-.12,0-.18-.02-.4-.1-.65-.51-.55-.91l.62-2.5c-.06-.01-.11-.02-.17-.04-.15-.05-.29-.12-.43-.2l-1.12,2.25c-.13,.26-.4,.42-.67,.42-.11,0-.23-.03-.33-.08-.37-.19-.52-.64-.34-1.01l1.28-2.56c-.22-.26-.43-.55-.63-.89-.19-.33-.52-.55-.9-.6-.38-.05-.76,.07-1.04,.34-.41,.4-.89,.69-1.42,.86-1.08,.34-2.06,.09-2.69-.19-.36-.16-.79-.14-1.13,.06-.35,.2-.57,.54-.61,.94l-.49,4.44,1.41,.18c2.74,.45,5.5,.68,8.25,.68Z"/></g></g></svg>