<?xml version="1.0" encoding="UTF-8"?><svg fill="currentColor" xmlns="http://www.w3.org/2000/svg" viewBox="0 0 24 24"><g id="f"><g><path d="M18.99,10.24h-.25v11.5h.25c1.52,0,2.75-1.23,2.75-2.75v-6c0-1.52-1.23-2.75-2.75-2.75Z"/><path d="M2.24,12.99v6c0,1.52,1.23,2.75,2.75,2.75h.25V10.24h-.25c-1.52,0-2.75,1.23-2.75,2.75Z"/><path d="M9.02,6.55c.5,.33,1.14,.38,1.7,.14,.85-.37,1.75-.36,2.57,.02,.22,.1,.46,.15,.7,.15,.32,0,.64-.09,.92-.27,.51-.33,.81-.88,.81-1.49v-.33c0-.52-.22-1-.59-1.32-1.25-1.05-2.51-1.21-3.16-1.21-1.39,0-2.46,.64-3.11,1.17-.41,.33-.64,.83-.64,1.36v.33c0,.59,.29,1.13,.78,1.45Z"/><path d="M6.74,21.74h10.5V10.24H6.74v11.5Zm1.5-7.75c0-.41,.34-.75,.75-.75h6c.41,0,.75,.34,.75,.75v2c0,1.52-1.23,2.75-2.75,2.75h-2c-1.52,0-2.75-1.23-2.75-2.75v-2Z"/><path d="M10.99,17.24h2c.69,0,1.25-.56,1.25-1.25v-1.25h-4.5v1.25c0,.69,.56,1.25,1.25,1.25Z"/><path d="M17.16,5.67c-.1,.58-.35,1.11-.73,1.55,.51,.82,.8,1.78,.8,2.77v.25h1.5v-.25c0-1.59-.57-3.12-1.57-4.32Z"/><path d="M7.54,7.22c-.38-.44-.62-.97-.73-1.54-1,1.19-1.57,2.7-1.57,4.31v.25h1.5v-.25c0-1,.29-1.95,.8-2.77Z"/></g></g></svg>