<?xml version="1.0" encoding="UTF-8"?><svg fill="currentColor" xmlns="http://www.w3.org/2000/svg" viewBox="0 0 24 24"><g id="c"><g><path d="M19.87,8.74H4.1l-.75,4.5H20.62l-.75-4.5Zm-6.89,3h-2c-.41,0-.75-.34-.75-.75s.34-.75,.75-.75h2c.41,0,.75,.34,.75,.75s-.34,.75-.75,.75Z"/><path d="M14.99,3.24h-6c-2.36,0-4.29,1.74-4.66,4h15.32c-.36-2.26-2.3-4-4.66-4Z"/><path d="M21.53,18.7l-.66-3.96H3.1l-.66,3.96c-.08,.51,.06,1.03,.39,1.42,.33,.39,.82,.62,1.33,.62h15.64c.52,0,1-.23,1.33-.62,.33-.39,.48-.91,.39-1.42Zm-8.55-.96h-2c-.41,0-.75-.34-.75-.75s.34-.75,.75-.75h2c.41,0,.75,.34,.75,.75s-.34,.75-.75,.75Z"/></g></g></svg>