<?xml version="1.0" encoding="UTF-8"?><svg fill="currentColor" xmlns="http://www.w3.org/2000/svg" viewBox="0 0 24 24"><g id="u"><g><path d="M15.99,5.24H7.99c-1.52,0-2.75,1.23-2.75,2.75v3.25h3.29l.79-1.59c.25-.51,1.09-.51,1.34,0l1.42,2.84,1.28-1.92c.12-.19,.33-.31,.55-.33,.22-.02,.45,.06,.6,.22l.78,.78h3.44v-3.25c0-1.52-1.23-2.75-2.75-2.75Z"/><path d="M14.46,12.52l-.35-.35-1.49,2.24c-.14,.21-.37,.33-.62,.33-.02,0-.03,0-.05,0-.27-.02-.5-.17-.62-.41l-1.33-2.66-.33,.66c-.13,.25-.39,.41-.67,.41h-3.75v3.25c0,1.52,1.23,2.75,2.75,2.75h8c1.52,0,2.75-1.23,2.75-2.75v-3.25h-3.75c-.2,0-.39-.08-.53-.22Z"/><path d="M15.99,3.74s.03,0,.04,0l-.22-.65c-.17-.51-.65-.85-1.19-.85h-5.28c-.54,0-1.02,.34-1.19,.85l-.22,.65s.03,0,.04,0h8Z"/><path d="M7.99,20.24s-.03,0-.04,0l.22,.65c.17,.51,.65,.85,1.19,.85h5.28c.54,0,1.02-.34,1.19-.85l.22-.65s-.03,0-.04,0H7.99Z"/></g></g></svg>