<svg fill="currentColor" xmlns="http://www.w3.org/2000/svg" viewBox="0 0 32 32"><g id="bag"><path d="M28,8H21V6.79A2.79,2.79,0,0,0,18.21,4H13.79A2.79,2.79,0,0,0,11,6.79V8H4a2,2,0,0,0-2,2V26a2,2,0,0,0,2,2H28a2,2,0,0,0,2-2V10A2,2,0,0,0,28,8ZM13,6.79A.79.79,0,0,1,13.79,6h4.42a.79.79,0,0,1,.79.79V8H13ZM28,10v.58a17,17,0,0,1-9,5.09v-.24A2.48,2.48,0,0,0,16.53,13H15.47A2.48,2.48,0,0,0,13,15.47v.24a17.14,17.14,0,0,1-9-5V10ZM17,15.47v3.06a.47.47,0,0,1-.47.47H15.47a.47.47,0,0,1-.47-.47V15.47a.47.47,0,0,1,.47-.47h1.06A.47.47,0,0,1,17,15.47ZM28,26,4,26,4,13.44a18.59,18.59,0,0,0,9,4.3v.79A2.48,2.48,0,0,0,15.47,21h1.06A2.48,2.48,0,0,0,19,18.53v-.79a18.62,18.62,0,0,0,9-4.33V26A0,0,0,0,1,28,26Z"/></g></svg>