<svg fill="currentColor" xmlns="http://www.w3.org/2000/svg" viewBox="0 0 32 32"><g id="certificate"><path d="M23.6,2H8.4A2.41,2.41,0,0,0,6,4.4V25.6A2.41,2.41,0,0,0,8.4,28H10v1a1,1,0,0,0,1.45.89L13,29.12l1.55.77A1,1,0,0,0,15,30a1,1,0,0,0,.53-.15A1,1,0,0,0,16,29V28h7.6A2.41,2.41,0,0,0,26,25.6V4.4A2.41,2.41,0,0,0,23.6,2ZM13,24a2,2,0,1,1,2-2A2,2,0,0,1,13,24Zm1,3.38-.55-.27a1,1,0,0,0-.9,0l-.55.27V25.86a3.64,3.64,0,0,0,2,0ZM24,25.6a.4.4,0,0,1-.4.4H16V24.7s0,0,0-.07a4,4,0,1,0-6,0s0,.05,0,.07V26H8.4a.4.4,0,0,1-.4-.4V4.4A.4.4,0,0,1,8.4,4H23.6a.4.4,0,0,1,.4.4Z"/><path d="M21,8H11a1,1,0,0,0,0,2H21a1,1,0,0,0,0-2Z"/><path d="M21,12H11a1,1,0,0,0,0,2H21a1,1,0,0,0,0-2Z"/><path d="M21,16H18a1,1,0,0,0,0,2h3a1,1,0,0,0,0-2Z"/><path d="M21,20H20a1,1,0,0,0,0,2h1a1,1,0,0,0,0-2Z"/></g></svg>