<svg fill="currentColor" xmlns="http://www.w3.org/2000/svg" viewBox="0 0 32 32"><g id="courthouse"><path d="M29,24H28V15.16L28.72,13H29a1,1,0,0,0,.47-1.88l-13-7a1,1,0,0,0-.94,0l-13,7A1,1,0,0,0,3,13h.28L4,15.16V24H3a1,1,0,0,0-1,1v3a1,1,0,0,0,1,1H29a1,1,0,0,0,1-1V25A1,1,0,0,0,29,24Zm-2.95-9.32A1.19,1.19,0,0,0,26,15v9H24V15a1.19,1.19,0,0,0-.05-.32L23.39,13h3.22ZM19,24V15.16L19.72,13h1.56L22,15.16V24Zm-9,0V15.16L10.72,13h1.56L13,15.16V24ZM15,14.68,14.39,13h3.22l-.56,1.68A1.19,1.19,0,0,0,17,15v9H15V15A1.19,1.19,0,0,0,15,14.68ZM16,6.14,25,11H7ZM6,14.68,5.39,13H8.61l-.56,1.68A1.19,1.19,0,0,0,8,15v9H6V15A1.19,1.19,0,0,0,6,14.68ZM28,27H4V26H28Z"/></g></svg>