<svg fill="currentColor" xmlns="http://www.w3.org/2000/svg" viewBox="0 0 32 32"><g id="document"><path d="M29,8H18a2.9,2.9,0,0,0-2,.76A2.9,2.9,0,0,0,14,8H9V6.5A1.5,1.5,0,0,0,7.5,5h-2A1.5,1.5,0,0,0,4,6.5V8H3A1,1,0,0,0,2,9V23a1,1,0,0,0,1,1H14.09A2.87,2.87,0,0,0,16,23.27a2.87,2.87,0,0,0,1.91.73H29a1,1,0,0,0,1-1V9A1,1,0,0,0,29,8ZM6,7H7V8H6Zm8.09,15H4V10H14a1,1,0,0,1,1,1V21.09A.91.91,0,0,1,14.09,22ZM28,22H17.91a.91.91,0,0,1-.91-.91V11a1,1,0,0,1,1-1H28Z"/><path d="M7,14H9a1,1,0,0,0,0-2H7a1,1,0,0,0,0,2Z"/><path d="M12,15H7a1,1,0,0,0,0,2h5a1,1,0,0,0,0-2Z"/><path d="M12,18H7a1,1,0,0,0,0,2h5a1,1,0,0,0,0-2Z"/><path d="M20,14h2a1,1,0,0,0,0-2H20a1,1,0,0,0,0,2Z"/><path d="M20,17h5a1,1,0,0,0,0-2H20a1,1,0,0,0,0,2Z"/><path d="M20,20h5a1,1,0,0,0,0-2H20a1,1,0,0,0,0,2Z"/><path d="M14,25H4a1,1,0,0,0,0,2H14a1,1,0,0,0,0-2Z"/><path d="M28,25H18a1,1,0,0,0,0,2H28a1,1,0,0,0,0-2Z"/></g></svg>