<svg fill="currentColor" xmlns="http://www.w3.org/2000/svg" viewBox="0 0 32 32"><g id="folder"><path d="M12.7,2H5.3A2.3,2.3,0,0,0,3,4.3V27.7A2.3,2.3,0,0,0,5.3,30h7.4A2.3,2.3,0,0,0,15,27.7V4.3A2.3,2.3,0,0,0,12.7,2ZM13,27.7a.31.31,0,0,1-.3.3H5.3a.31.31,0,0,1-.3-.3V4.3A.31.31,0,0,1,5.3,4h7.4a.31.31,0,0,1,.3.3Z"/><path d="M26.7,2H19.3A2.3,2.3,0,0,0,17,4.3V27.7A2.3,2.3,0,0,0,19.3,30h7.4A2.3,2.3,0,0,0,29,27.7V4.3A2.3,2.3,0,0,0,26.7,2ZM27,27.7a.31.31,0,0,1-.3.3H19.3a.31.31,0,0,1-.3-.3V4.3a.31.31,0,0,1,.3-.3h7.4a.31.31,0,0,1,.3.3Z"/><path d="M9,5a3,3,0,1,0,3,3A3,3,0,0,0,9,5ZM9,9a1,1,0,1,1,1-1A1,1,0,0,1,9,9Z"/><path d="M23,5a3,3,0,1,0,3,3A3,3,0,0,0,23,5Zm0,4a1,1,0,1,1,1-1A1,1,0,0,1,23,9Z"/><path d="M11,16H7a1,1,0,0,0,0,2h4a1,1,0,0,0,0-2Z"/><path d="M11,20H7a1,1,0,0,0,0,2h4a1,1,0,0,0,0-2Z"/><path d="M11,24H7a1,1,0,0,0,0,2h4a1,1,0,0,0,0-2Z"/><path d="M25,16H21a1,1,0,0,0,0,2h4a1,1,0,0,0,0-2Z"/><path d="M25,20H21a1,1,0,0,0,0,2h4a1,1,0,0,0,0-2Z"/><path d="M25,24H21a1,1,0,0,0,0,2h4a1,1,0,0,0,0-2Z"/></g></svg>