<svg fill="currentColor" xmlns="http://www.w3.org/2000/svg" viewBox="0 0 32 32"><g id="foot"><path d="M11,2A4.62,4.62,0,0,0,6.4,7.08l.6,6A1,1,0,0,0,8,14h6a1,1,0,0,0,1-.9l.6-6A4.62,4.62,0,0,0,11,2Zm2.1,10H8.9L8.39,6.88a2.59,2.59,0,0,1,.67-2,2.68,2.68,0,0,1,3.88,0,2.59,2.59,0,0,1,.67,2Z"/><path d="M14,15H8a1,1,0,0,0-.81.42,1,1,0,0,0-.14.9l.37,1.1a3.77,3.77,0,0,0,7.16,0l.37-1.1a1,1,0,0,0-.14-.9A1,1,0,0,0,14,15Zm-3,3a1.77,1.77,0,0,1-1.6-1h3.2A1.77,1.77,0,0,1,11,18Z"/><path d="M18.38,24h6a1,1,0,0,0,1-.9l.6-6a4.62,4.62,0,1,0-9.2,0l.6,6A1,1,0,0,0,18.38,24Zm1.06-9.14a2.68,2.68,0,0,1,3.88,0,2.59,2.59,0,0,1,.67,2L23.47,22H19.28l-.51-5.12A2.59,2.59,0,0,1,19.44,14.86Z"/><path d="M24.38,25h-6a1,1,0,0,0-.81.42,1,1,0,0,0-.14.9l.37,1.1a3.77,3.77,0,0,0,7.16,0l.37-1.1a1,1,0,0,0-.14-.9A1,1,0,0,0,24.38,25Zm-3,3a1.77,1.77,0,0,1-1.6-1H23A1.77,1.77,0,0,1,21.38,28Z"/></g></svg>