<svg fill="currentColor" xmlns="http://www.w3.org/2000/svg" viewBox="0 0 32 32"><g id="hammer"><path d="M20,28H18.68l-1-2.46A4,4,0,0,0,13.94,23H9.06a4,4,0,0,0-3.75,2.54L4.32,28H3a1,1,0,0,0,0,2H20a1,1,0,0,0,0-2ZM6.48,28l.69-1.72A2,2,0,0,1,9.06,25h4.88a2,2,0,0,1,1.9,1.28L16.52,28Z"/><path d="M28.87,17.33l-5-4.85,2.72-2.33a2.32,2.32,0,0,0,.25-3.27L23.37,2.81A2.26,2.26,0,0,0,21.79,2a2.31,2.31,0,0,0-1.69.55L12,9.51h0l-2,1.74a2.31,2.31,0,0,0-.25,3.27l3.48,4.07a2.33,2.33,0,0,0,1.59.81H15a2.25,2.25,0,0,0,1.5-.56l2-1.74h0l.69-.59,4,5.67a3.77,3.77,0,0,0,2.6,1.54,3.4,3.4,0,0,0,.45,0,3.74,3.74,0,0,0,2.61-6.42Zm-10.15-3h0l-.76.65-3.91-4.55,4.56-3.91L22.51,11l-2.28,2ZM21.61,4h0a.29.29,0,0,1,.22.11l3.49,4.07a.32.32,0,0,1,.08.23.35.35,0,0,1-.12.22L24,9.73l-3.9-4.56L21.4,4.08A.31.31,0,0,1,21.61,4ZM14.93,17.4a.3.3,0,0,1-.22-.11l-3.49-4.07a.29.29,0,0,1-.07-.23.3.3,0,0,1,.11-.22l1.27-1.09,3.91,4.55-1.28,1.1A.29.29,0,0,1,14.93,17.4Zm12.46,3.93a1.72,1.72,0,0,1-1.34.41A1.75,1.75,0,0,1,24.84,21l-4.13-5.81.83-.71.82-.71,5.11,5a1.73,1.73,0,0,1-.08,2.57Z"/></g></svg>