<svg fill="currentColor" xmlns="http://www.w3.org/2000/svg" viewBox="0 0 32 32"><g id="handcuffs"><path d="M23,6.05V4.47A2.48,2.48,0,0,0,20.53,2H11.47A2.48,2.48,0,0,0,9,4.47V6s0,0,0,0a13,13,0,1,0,14,0Zm-7,5a6,6,0,1,1-6,6A6,6,0,0,1,16,11Zm0,17A11,11,0,0,1,10.5,7.47a1,1,0,0,0,.44-1.16A1.07,1.07,0,0,0,11,6V4.47A.47.47,0,0,1,11.47,4h9.06a.47.47,0,0,1,.47.47V8.53a.47.47,0,0,1-.47.47H16a8,8,0,1,0,5.17,1.91A2.47,2.47,0,0,0,23,8.54,11,11,0,0,1,16,28Z"/><path d="M16,8a1,1,0,0,0,1-1V6a1,1,0,0,0-2,0V7A1,1,0,0,0,16,8Z"/></g></svg>