<svg fill="currentColor" xmlns="http://www.w3.org/2000/svg" viewBox="0 0 32 32"><g id="justice"><path d="M26.47,21.33l-6.34,1.51a2.78,2.78,0,0,1-1.15,0l-3.07-.59a.67.67,0,0,1-.57-.63.69.69,0,0,1,.73-.65H17a2.5,2.5,0,1,0,0-5H14.11a6.39,6.39,0,0,0-1.9.29L7.93,17.65A1,1,0,0,0,7,17H3a1,1,0,0,0-1,1V29a1,1,0,0,0,1,1H7a1,1,0,0,0,1-.89l5.7.6a13.38,13.38,0,0,0,1.54.09,14.21,14.21,0,0,0,4-.59L28,26.66a2.86,2.86,0,0,0,1.87-1.76,2.69,2.69,0,0,0-.34-2.44A2.9,2.9,0,0,0,26.47,21.33ZM6,28H4V19H6Zm22-3.76a.79.79,0,0,1-.55.5L18.7,27.29a12.39,12.39,0,0,1-4.81.44L8,27.1V19.73l4.82-1.53a4.29,4.29,0,0,1,1.29-.2H17a.5.5,0,1,1,0,1h-.89a2.64,2.64,0,0,0-.53,5.25l3.06.58a4.81,4.81,0,0,0,2,0l6.34-1.52a.89.89,0,0,1,.93.34A.69.69,0,0,1,28,24.24Z"/><path d="M29,8H28V5.88A1.88,1.88,0,0,0,26.13,4H22V3a1,1,0,0,0-2,0V4H15.88A1.88,1.88,0,0,0,14,5.88V8H13a1,1,0,0,0-1,1v1a3,3,0,0,0,6,0V9a1,1,0,0,0-1-1H16V6h4v8a1,1,0,0,0,0,2h2a1,1,0,0,0,0-2V6h4V8H25a1,1,0,0,0-1,1v1a3,3,0,0,0,6,0V9A1,1,0,0,0,29,8ZM15,11a1,1,0,0,1-1-1h2A1,1,0,0,1,15,11Zm12,0a1,1,0,0,1-1-1h2A1,1,0,0,1,27,11Z"/></g></svg>