<svg fill="currentColor" xmlns="http://www.w3.org/2000/svg" viewBox="0 0 32 32"><g id="lawyer"><path d="M22,8.5A6.27,6.27,0,0,0,16,2a6.27,6.27,0,0,0-6,6.5A6.27,6.27,0,0,0,16,15,6.27,6.27,0,0,0,22,8.5ZM16,13a4.27,4.27,0,0,1-4-4.5A4.27,4.27,0,0,1,16,4a4.27,4.27,0,0,1,4,4.5A4.27,4.27,0,0,1,16,13Z"/><path d="M25.27,20a5.36,5.36,0,0,0-5.34-5H12.07a5.36,5.36,0,0,0-5.34,5L6,28.92a1.05,1.05,0,0,0,.26.76A1,1,0,0,0,7,30H25a1,1,0,0,0,.74-.32,1.05,1.05,0,0,0,.26-.76ZM12.59,21.93a6,6,0,0,0,2.41,1V28H11.25Zm4.41,1a6,6,0,0,0,2.41-1L20.75,28H17ZM19.93,17H20a4,4,0,0,1-8,0h7.93ZM8.73,20.13A3.31,3.31,0,0,1,10,17.7a6,6,0,0,0,.89,2.5L9.2,28H8.08ZM22.8,28l-1.73-7.8A6,6,0,0,0,22,17.7a3.34,3.34,0,0,1,1.31,2.44L23.92,28Z"/></g></svg>