<svg fill="currentColor" xmlns="http://www.w3.org/2000/svg" viewBox="0 0 32 32"><g id="lock"><path d="M23.85,12H23V9A7,7,0,0,0,9,9v3H8.15A2.15,2.15,0,0,0,6,14.15v13.7A2.15,2.15,0,0,0,8.15,30h15.7A2.15,2.15,0,0,0,26,27.85V14.15A2.15,2.15,0,0,0,23.85,12ZM11,9A5,5,0,0,1,21,9v3H19V9a3,3,0,0,0-6,0v3H11Zm6,3H15V9a1,1,0,0,1,2,0Zm7,15.85a.15.15,0,0,1-.15.15H8.15A.15.15,0,0,1,8,27.85V14.15A.15.15,0,0,1,8.15,14h15.7a.15.15,0,0,1,.15.15Z"/><path d="M16,16a3,3,0,0,0-1,5.83A1,1,0,0,0,15,22v3a1,1,0,0,0,2,0V22a1,1,0,0,0,0-.17A3,3,0,0,0,16,16Zm0,4a1,1,0,1,1,1-1A1,1,0,0,1,16,20Z"/></g></svg>