<svg fill="currentColor" xmlns="http://www.w3.org/2000/svg" viewBox="0 0 32 32"><g id="magistrate"><path d="M29,11a1,1,0,0,0,1-1V6.07A2.07,2.07,0,0,0,27.93,4H4.07A2.07,2.07,0,0,0,2,6.07V10a1,1,0,0,0,1,1H6v9H4.24A2.25,2.25,0,0,0,2,22.24V27a1,1,0,0,0,1,1H29a1,1,0,0,0,1-1V22.24A2.25,2.25,0,0,0,27.76,20H26V11ZM8,20V11H24v9ZM4,9l.05-3L28,6.07V9H4ZM27.76,22a.24.24,0,0,1,.24.24V26H4V22.24A.24.24,0,0,1,4.24,22H27.76Z"/><path d="M16,12a1,1,0,0,0-1,1v5a1,1,0,0,0,2,0V13A1,1,0,0,0,16,12Z"/><path d="M11,12a1,1,0,0,0-1,1v5a1,1,0,0,0,2,0V13A1,1,0,0,0,11,12Z"/><path d="M21,12a1,1,0,0,0-1,1v5a1,1,0,0,0,2,0V13A1,1,0,0,0,21,12Z"/></g></svg>