<svg fill="currentColor" xmlns="http://www.w3.org/2000/svg" viewBox="0 0 32 32"><g id="paper"><path d="M26,2H11.12A6.12,6.12,0,0,0,5,8.12v14A4,4,0,0,0,6,30H18a6.12,6.12,0,0,0,6-6.11V10h2a4,4,0,0,0,0-8ZM14.54,28H6a2,2,0,0,1,0-4h8.54a4,4,0,0,0,0,4ZM22,23.88A4.12,4.12,0,0,1,17.94,28,2,2,0,0,1,18,24a1,1,0,0,0,0-2H7V8.12A4.13,4.13,0,0,1,11.12,4H22.56A3.91,3.91,0,0,0,22,6ZM26,8H24V6a2,2,0,1,1,2,2Z"/><path d="M19,8H10a1,1,0,0,0,0,2h9a1,1,0,0,0,0-2Z"/><path d="M19,12H10a1,1,0,0,0,0,2h9a1,1,0,0,0,0-2Z"/><path d="M19,16H10a1,1,0,0,0,0,2h9a1,1,0,0,0,0-2Z"/></g></svg>