<svg fill="currentColor" xmlns="http://www.w3.org/2000/svg" viewBox="0 0 32 32"><g id="pen"><path d="M18.36,20.37A3.53,3.53,0,0,0,21,18.28L25.54,7.57a4,4,0,1,0-7.35-3.14l-4.58,10.7a3.52,3.52,0,0,0,.29,3.33l.94,1.43-1.36,3.16A5,5,0,0,0,9,28H8a1,1,0,0,0,0,2H20a1,1,0,0,0,0-2H19a5,5,0,0,0-3.44-4.72l1.11-2.6Zm-2.79-3a1.51,1.51,0,0,1-.12-1.44L20,5.21a2,2,0,0,1,1.09-1.07A2.11,2.11,0,0,1,21.86,4a2,2,0,0,1,.79.16A2,2,0,0,1,23.7,6.79l-4.57,10.7A1.58,1.58,0,0,1,18,18.4l-.37.07L22.39,7.31a1,1,0,1,0-1.84-.78L15.78,17.68ZM17,28H11a3,3,0,0,1,6,0Z"/></g></svg>