<svg fill="currentColor" xmlns="http://www.w3.org/2000/svg" viewBox="0 0 32 32"><g id="police"><path d="M28.94,17.89a10.77,10.77,0,0,0-1.09-3.56,5.65,5.65,0,0,1-.74-3.22,6.29,6.29,0,0,1,1.6-3.46,1,1,0,0,0,0-1.33L25,2.32a1,1,0,0,0-1.67.31A3.62,3.62,0,0,1,20.49,5a3.57,3.57,0,0,1-3.57-2.39A1,1,0,0,0,16,2h0a1,1,0,0,0-.92.63A3.62,3.62,0,0,1,12.21,5,3.55,3.55,0,0,1,8.65,2.62,1,1,0,0,0,7.9,2a1,1,0,0,0-.91.3l-3.68,4a1,1,0,0,0,0,1.33,6.29,6.29,0,0,1,1.6,3.46,5.65,5.65,0,0,1-.74,3.22,10.77,10.77,0,0,0-1.09,3.56,11.79,11.79,0,0,0,3,8.78C9.1,30,13.09,30,16,30s6.9,0,9.93-3.33A11.79,11.79,0,0,0,28.94,17.89Zm-4.49,7.44C22,28,18.68,28,16,28s-6,0-8.45-2.67A9.76,9.76,0,0,1,5,18.11,9,9,0,0,1,6,15.16a7.53,7.53,0,0,0,.91-4.26A8,8,0,0,0,5.36,7.05L7.53,4.69A5.32,5.32,0,0,0,12.43,7,5.33,5.33,0,0,0,16,5,5.27,5.27,0,0,0,20.7,7,5.38,5.38,0,0,0,24.48,4.7l2.16,2.35a8,8,0,0,0-1.52,3.84A7.55,7.55,0,0,0,26,15.16,9,9,0,0,1,27,18.11,9.76,9.76,0,0,1,24.45,25.33Z"/><path d="M16,8a9,9,0,1,0,9,9A9,9,0,0,0,16,8Zm0,16a7,7,0,1,1,7-7A7,7,0,0,1,16,24Z"/><path d="M20.4,15.06,18,14.7,16.9,12.51a1,1,0,0,0-1.8,0L14,14.7l-2.42.36a1,1,0,0,0-.8.68,1,1,0,0,0,.25,1l1.75,1.71-.41,2.41a1,1,0,0,0,1.45,1.05L16,20.79l2.16,1.14a1,1,0,0,0,1.45-1.05l-.41-2.41L21,16.76a1,1,0,0,0,.25-1A1,1,0,0,0,20.4,15.06Zm-3,2.34a1,1,0,0,0-.29.89l.16.93-.83-.44a1,1,0,0,0-.94,0l-.83.44.16-.93a1,1,0,0,0-.29-.89l-.67-.66.93-.13a1,1,0,0,0,.75-.55l.42-.85.42.85a1,1,0,0,0,.75.55l.93.13Z"/></g></svg>