<svg fill="currentColor" xmlns="http://www.w3.org/2000/svg" viewBox="0 0 32 32"><g id="sand_clock" data-name="sand clock"><path d="M24,7.41V7a1,1,0,0,0,1-1V3a1,1,0,0,0-1-1H8A1,1,0,0,0,7,3V6A1,1,0,0,0,8,7v.41a4.46,4.46,0,0,0,1.48,3.34L14.61,16,9.54,21.2A4.49,4.49,0,0,0,8,24.59a1,1,0,0,0,.09.41H8a1,1,0,0,0-1,1v3a1,1,0,0,0,1,1H24a1,1,0,0,0,1-1V26a1,1,0,0,0-1-1h-.09a1,1,0,0,0,.09-.41,4.46,4.46,0,0,0-1.48-3.34L17.39,16l5.07-5.2A4.49,4.49,0,0,0,24,7.41ZM9,4H23V5H9ZM23,28H9V27H23Zm-1.86-5.3A2.51,2.51,0,0,1,22,24.59a1,1,0,0,0,.09.41H9.91a1,1,0,0,0,.09-.41,2.57,2.57,0,0,1,.91-1.94L16,17.43ZM21.09,9.35,16,14.57,10.86,9.3A2.51,2.51,0,0,1,10,7.41V7H22v.41A2.57,2.57,0,0,1,21.09,9.35Z"/></g></svg>