<svg fill="currentColor" xmlns="http://www.w3.org/2000/svg" viewBox="0 0 32 32"><g id="scale"><path d="M29,17v0a.58.58,0,0,0,0-.18,1.25,1.25,0,0,0,0-.19L25.48,8H27a1,1,0,0,0,0-2H17V4a1,1,0,0,0-2,0V6H5A1,1,0,0,0,5,8H6.52L3.07,16.63a1.25,1.25,0,0,0,0,.19A.58.58,0,0,0,3,17v0H3v1a5,5,0,0,0,10,0V17h0v0a.58.58,0,0,0,0-.18,1.25,1.25,0,0,0,0-.19L9.48,8H15V24a5,5,0,0,0-5,5,1,1,0,0,0,1,1H21a1,1,0,0,0,1-1,5,5,0,0,0-5-5V8h5.52l-3.45,8.63a1.25,1.25,0,0,0,0,.19A.58.58,0,0,0,19,17v0h0v1a5,5,0,0,0,10,0V17ZM8,9.69,10.52,16h-5ZM8,21a3,3,0,0,1-3-3h6A3,3,0,0,1,8,21Zm11.83,7H12.17A3,3,0,0,1,15,26h2A3,3,0,0,1,19.83,28Zm6.69-12h-5L24,9.69ZM24,21a3,3,0,0,1-3-3h6A3,3,0,0,1,24,21Z"/></g></svg>