<svg fill="currentColor" xmlns="http://www.w3.org/2000/svg" viewBox="0 0 32 32"><g id="stempel"><path d="M21,18h0a23.25,23.25,0,0,1,1-8,6,6,0,0,0,0-3.63A6.27,6.27,0,0,0,16,2a6.25,6.25,0,0,0-5.91,8.18,24.17,24.17,0,0,1,.91,4.9A23.71,23.71,0,0,1,11,18h0a4,4,0,0,0-4,4v3a1,1,0,0,0,1,1h.12L9,29.27A1,1,0,0,0,10,30H22a1,1,0,0,0,1-.73L23.88,26H24a1,1,0,0,0,1-1V22A4,4,0,0,0,21,18Zm-8-3.08a26,26,0,0,0-1-5.31,4.37,4.37,0,0,1,.33-3.44A4.25,4.25,0,0,1,20.1,7a4.16,4.16,0,0,1-.05,2.44A25.73,25.73,0,0,0,19,14.92,26.35,26.35,0,0,0,18.94,18H13.06A26.35,26.35,0,0,0,13,14.92ZM9,22a2,2,0,0,1,2-2H21a2,2,0,0,1,2,2v2H9Zm12.24,6H10.76l-.57-2H21.8Z"/></g></svg>