<svg fill="currentColor" xmlns="http://www.w3.org/2000/svg" viewBox="0 0 32 32"><g id="structure"><path d="M27.76,20H26.5l-2-2.72A3.22,3.22,0,0,0,21.9,16H17V14h4.87A2.14,2.14,0,0,0,24,11.87V7.13A2.14,2.14,0,0,0,21.87,5H10.13A2.14,2.14,0,0,0,8,7.13v4.74A2.14,2.14,0,0,0,10.13,14H15v2H10.1a3.22,3.22,0,0,0-2.56,1.28L5.5,20H4.24A2.25,2.25,0,0,0,2,22.24v3.52A2.25,2.25,0,0,0,4.24,28H7.76A2.25,2.25,0,0,0,10,25.76V22.24A2.24,2.24,0,0,0,8,20l1.16-1.54a1.21,1.21,0,0,1,1-.48H15v2h-.76A2.25,2.25,0,0,0,12,22.24v3.52A2.25,2.25,0,0,0,14.24,28h3.52A2.25,2.25,0,0,0,20,25.76V22.24A2.25,2.25,0,0,0,17.76,20H17V18h4.9a1.21,1.21,0,0,1,1,.48L24,20a2.24,2.24,0,0,0-2,2.22v3.52A2.25,2.25,0,0,0,24.24,28h3.52A2.25,2.25,0,0,0,30,25.76V22.24A2.25,2.25,0,0,0,27.76,20ZM10,11.87V7.13A.13.13,0,0,1,10.13,7H21.87a.13.13,0,0,1,.13.13v4.74a.13.13,0,0,1-.13.13H10.13A.13.13,0,0,1,10,11.87ZM8,25.76a.24.24,0,0,1-.24.24H4.24A.24.24,0,0,1,4,25.76V22.24A.24.24,0,0,1,4.24,22H7.76a.24.24,0,0,1,.24.24Zm10-3.52v3.52a.24.24,0,0,1-.24.24H14.24a.24.24,0,0,1-.24-.24V22.24a.24.24,0,0,1,.24-.24h3.52A.24.24,0,0,1,18,22.24Zm10,3.52a.24.24,0,0,1-.24.24H24.24a.24.24,0,0,1-.24-.24V22.24a.24.24,0,0,1,.24-.24h3.52a.24.24,0,0,1,.24.24Z"/></g></svg>