<svg fill="currentColor" xmlns="http://www.w3.org/2000/svg" viewBox="0 0 32 32"><g id="write"><path d="M27.66,14H23.82l3.46-6.74.45.23a.5.5,0,0,1,.22.66l-1.61,3.13a1,1,0,0,0,.43,1.34,1,1,0,0,0,.46.11,1,1,0,0,0,.89-.54l1.6-3.12a2.5,2.5,0,0,0-1.07-3.36L28,5.4a3,3,0,0,0-1.59-3.07,3,3,0,0,0-4,1.3L17.07,14H4.34A2.34,2.34,0,0,0,2,16.34V26.66A2.34,2.34,0,0,0,4.34,29H27.66A2.34,2.34,0,0,0,30,26.66V16.34A2.34,2.34,0,0,0,27.66,14ZM24.18,4.54a1,1,0,0,1,.58-.49,1,1,0,0,1,.77.06A1,1,0,0,1,26,5.46l-5.8,11.29-1.58.88-.2-1.79ZM28,26.66a.34.34,0,0,1-.34.34H4.34A.34.34,0,0,1,4,26.66V16.34A.34.34,0,0,1,4.34,16h12l.35,3H7a1,1,0,0,0,0,2H17a1,1,0,0,0,1-.79.94.94,0,0,0,.28-.1l3.15-1.76a1,1,0,0,0,.41-.42l1-2A1.06,1.06,0,0,0,23,16h4.66a.34.34,0,0,1,.34.34Z"/><path d="M23,22H7a1,1,0,0,0,0,2H23a1,1,0,0,0,0-2Z"/></g></svg>