<svg fill="currentColor" xmlns="http://www.w3.org/2000/svg" viewBox="0 0 32 32"><g id="bench"><path d="M29,19H25V16h2a1,1,0,0,0,1-1V7a1,1,0,0,0-1-1H25V4a1,1,0,0,0-1-1H21a1,1,0,0,0-1,1V6H12V4a1,1,0,0,0-1-1H8A1,1,0,0,0,7,4V6H5A1,1,0,0,0,4,7v8a1,1,0,0,0,1,1H7v3H3a1,1,0,0,0-1,1v3a1,1,0,0,0,1,1v4a1,1,0,0,0,1,1H7a1,1,0,0,0,1-1V24H24v4a1,1,0,0,0,1,1h3a1,1,0,0,0,1-1V24a1,1,0,0,0,1-1V20A1,1,0,0,0,29,19Zm-6,0H22V16h1ZM12,19V16h8v3ZM22,5h1V6H22ZM9,5h1V6H9ZM6,8H26v2H6Zm0,4H26v2H6Zm3,4h1v3H9ZM4,21H28v1H4Zm2,6H5V24H6Zm21,0H26V24h1Z"/></g></svg>