<svg fill="currentColor" xmlns="http://www.w3.org/2000/svg" viewBox="0 0 32 32"><g id="bridge"><path d="M29,18H28V14h1a1,1,0,0,0,0-2H27.6a5.86,5.86,0,0,1-2.6-.63V5.5a2.5,2.5,0,0,0-5,0V7.87a10.11,10.11,0,0,0-3.75-.82.65.65,0,0,0-.5,0A10.11,10.11,0,0,0,12,7.87V5.5a2.5,2.5,0,0,0-5,0v5.87A5.86,5.86,0,0,1,4.4,12H3a1,1,0,0,0,0,2H4v4H3a1,1,0,0,0-1,1v3a1,1,0,0,0,1,1H6v3a8.66,8.66,0,0,0-3.48,1.1,1,1,0,0,0-.4,1.35,1,1,0,0,0,1.36.4A6.46,6.46,0,0,1,6.91,28L7,28H7a4.74,4.74,0,0,1,1.59.41,7,7,0,0,0,2.29.58l.54,0a5.7,5.7,0,0,0,2.43-.55,5,5,0,0,1,4.22,0,5.64,5.64,0,0,0,3,.53,7,7,0,0,0,2.29-.58A4.74,4.74,0,0,1,25,28h0l.09,0a6.55,6.55,0,0,1,3.43.88,1,1,0,0,0,1.36-.4,1,1,0,0,0-.4-1.35A8.66,8.66,0,0,0,26,26V23h3a1,1,0,0,0,1-1V19A1,1,0,0,0,29,18Zm-3-4.19V18H25V13.53A8.73,8.73,0,0,0,26,13.81ZM22,5.5a.5.5,0,0,1,1,0V18H22ZM20,18H17V9.1a7.75,7.75,0,0,1,3,1ZM15,9.1V18H12V10.12A7.75,7.75,0,0,1,15,9.1ZM9,5.5a.5.5,0,0,1,1,0V18H9ZM6,13.81a8.73,8.73,0,0,0,1-.28V18H6ZM9.38,26.55A7,7,0,0,0,8,26.11V23h3v4A5.51,5.51,0,0,1,9.38,26.55ZM16,26a6.82,6.82,0,0,0-2.88.62l-.12,0V23h6v3.65l-.12,0A6.82,6.82,0,0,0,16,26Zm8,.13a7,7,0,0,0-1.38.44A5.51,5.51,0,0,1,21,27V23h3ZM28,21H4V20H28Z"/></g></svg>