<svg fill="currentColor" xmlns="http://www.w3.org/2000/svg" viewBox="0 0 32 32"><g id="ferris_wheel" data-name="ferris wheel"><path d="M25.16,21c.11,0,.22,0,.34,0a2.5,2.5,0,0,0,1.39-4.58A11.82,11.82,0,0,0,27,15a10.87,10.87,0,0,0-.68-3.75A2.48,2.48,0,0,0,27,9.5,2.5,2.5,0,0,0,24.5,7a2.63,2.63,0,0,0-.8.14A10.93,10.93,0,0,0,18.94,4.4a3,3,0,0,0-5.88,0A10.93,10.93,0,0,0,8.3,7.14,2.63,2.63,0,0,0,7.5,7,2.5,2.5,0,0,0,5,9.5a2.48,2.48,0,0,0,.68,1.7A10.87,10.87,0,0,0,5,15a11.82,11.82,0,0,0,.11,1.47A2.5,2.5,0,0,0,6.5,21c.12,0,.23,0,.34,0a11,11,0,0,0,3.45,3.32l-1,1A1,1,0,0,0,9,26v2H7a1,1,0,0,0,0,2H25a1,1,0,0,0,0-2H23V26a1,1,0,0,0-.29-.71l-1-1A11,11,0,0,0,25.16,21Zm.34-2a.5.5,0,1,1,.5-.5A.5.5,0,0,1,25.5,19ZM25,9.5a.5.5,0,1,1-.5-.5A.5.5,0,0,1,25,9.5ZM16,4a1,1,0,1,1-1,1A1,1,0,0,1,16,4ZM7.5,9a.5.5,0,1,1-.5.5A.5.5,0,0,1,7.5,9ZM6,18.5a.5.5,0,1,1,.5.5A.5.5,0,0,1,6,18.5ZM11,28V26.41l5-5,5,5V28Zm5-9a2,2,0,1,1,2-2A2,2,0,0,1,16,19Zm4.24,3.82-2.33-2.33a4,4,0,1,0-3.82,0l-2.33,2.33a8.83,8.83,0,0,1-3.21-2.89,2.5,2.5,0,0,0-1.47-3.86A8.32,8.32,0,0,1,7,15,8.88,8.88,0,0,1,7.51,12,2.51,2.51,0,0,0,10,9.5a2.56,2.56,0,0,0-.21-1,8.89,8.89,0,0,1,3.58-2.09,3,3,0,0,0,5.26,0A8.89,8.89,0,0,1,22.21,8.5a2.56,2.56,0,0,0-.21,1A2.51,2.51,0,0,0,24.49,12,8.88,8.88,0,0,1,25,15a8.32,8.32,0,0,1-.08,1.12,2.5,2.5,0,0,0-1.47,3.86A8.83,8.83,0,0,1,20.24,22.82Z"/></g></svg>