<svg fill="currentColor" xmlns="http://www.w3.org/2000/svg" viewBox="0 0 32 32"><g id="fountain"><path d="M25,28H21.32a5.71,5.71,0,0,1-1.48-1.54A5.43,5.43,0,0,1,19.19,25H21a3,3,0,0,0,3-3V20a1,1,0,0,0,0-2H20.32a5.71,5.71,0,0,1-1.48-1.54A5.43,5.43,0,0,1,18.19,15H19a3,3,0,0,0,3-3V10a1,1,0,0,0,0-2H17V6.5a.5.5,0,0,1,1,0,1,1,0,0,0,2,0A2.5,2.5,0,0,0,17.5,4a2.07,2.07,0,0,0-.5.06V3a1,1,0,0,0-2,0V4.06A2.07,2.07,0,0,0,14.5,4,2.5,2.5,0,0,0,12,6.5a1,1,0,0,0,2,0,.5.5,0,0,1,1,0V8H10a1,1,0,0,0,0,2v2a3,3,0,0,0,3,3h.78a5.43,5.43,0,0,1-.65,1.46A5.71,5.71,0,0,1,11.68,18H8a1,1,0,0,0,0,2v2a3,3,0,0,0,3,3h1.78a5.43,5.43,0,0,1-.65,1.46A5.71,5.71,0,0,1,10.68,28H7a1,1,0,0,0,0,2H25a1,1,0,0,0,0-2ZM12,12V10h8v2a1,1,0,0,1-1,1H13A1,1,0,0,1,12,12Zm2.84,5.57a7.29,7.29,0,0,0,1-2.54h.28a7.29,7.29,0,0,0,1,2.54,4.84,4.84,0,0,0,.33.46h-3A4.84,4.84,0,0,0,14.84,17.54ZM10,22V20H22v2a1,1,0,0,1-1,1H11A1,1,0,0,1,10,22Zm3.52,6a4.73,4.73,0,0,0,.32-.46,7.29,7.29,0,0,0,1-2.54h2.28a7.29,7.29,0,0,0,1,2.54,4.73,4.73,0,0,0,.32.46Z"/></g></svg>