<svg fill="currentColor" xmlns="http://www.w3.org/2000/svg" viewBox="0 0 32 32"><g id="fuel_pump" data-name="fuel pump"><path d="M11.79,12.38a1,1,0,0,0-1.58,0,25.48,25.48,0,0,0-2.1,3.16,3,3,0,0,0,0,2.84A2.9,2.9,0,0,0,10.34,20,4.68,4.68,0,0,0,11,20c.12,0,.3,0,.52,0a3,3,0,0,0,2.39-1.6,3,3,0,0,0,0-2.87A25,25,0,0,0,11.79,12.38Zm.35,5.06a1,1,0,0,1-.8.54,3.27,3.27,0,0,1-.78,0,.92.92,0,0,1-.71-.51,1,1,0,0,1,0-1A20.9,20.9,0,0,1,11,14.69a19.88,19.88,0,0,1,1.14,1.82A1,1,0,0,1,12.14,17.44Z"/><path d="M29,7.87,25.45,6.11l-2-1a1,1,0,0,0-.9,1.78L24,7.62v5.53A1.85,1.85,0,0,0,25.85,15H26V25a1,1,0,0,1-2,0V17.35a3,3,0,0,0-1.89-2.78L19,13.32V9a1,1,0,0,0,1-1V4a1,1,0,0,0-1-1H3A1,1,0,0,0,2,4V8A1,1,0,0,0,3,9V23a1,1,0,0,0-1,1v4a1,1,0,0,0,1,1H19a1,1,0,0,0,1-1V24a1,1,0,0,0-1-1V15.48l2.37.95a1,1,0,0,1,.63.92V25a3,3,0,0,0,6,0V15h.15A1.85,1.85,0,0,0,30,13.15V9.52A1.84,1.84,0,0,0,29,7.87ZM4,5H18V7H4ZM18,27H4V25H18ZM5,23V9H17v5h0v9ZM28,13H26V8.62l2,1Z"/></g></svg>