<svg fill="currentColor" xmlns="http://www.w3.org/2000/svg" viewBox="0 0 32 32"><g id="hospital"><path d="M15,8a1,1,0,0,0,2,0,1,1,0,0,0,0-2,1,1,0,0,0-2,0,1,1,0,0,0,0,2Z"/><path d="M29,27V10a2,2,0,0,0-2-2H20.9A5.47,5.47,0,0,0,21,7,5,5,0,0,0,11,7a5.47,5.47,0,0,0,.1,1H5a2,2,0,0,0-2,2V27a1,1,0,0,0,0,2H29a1,1,0,0,0,0-2ZM16,4a3,3,0,1,1-3,3A3,3,0,0,1,16,4ZM11,27V22.53a.53.53,0,0,1,.53-.53H15v5Zm6,0V22h3.47a.53.53,0,0,1,.53.53V27Zm6,0V22.53A2.53,2.53,0,0,0,20.47,20H11.53A2.53,2.53,0,0,0,9,22.53V27H5L5,10h7a5,5,0,0,0,8,0h0l7,0V27Z"/><path d="M11,13H7a1,1,0,0,0-1,1v4a1,1,0,0,0,1,1h4a1,1,0,0,0,1-1V14A1,1,0,0,0,11,13Zm-1,4H8V15h2Z"/><path d="M25,13H21a1,1,0,0,0-1,1v4a1,1,0,0,0,1,1h4a1,1,0,0,0,1-1V14A1,1,0,0,0,25,13Zm-1,4H22V15h2Z"/><path d="M18,13H14a1,1,0,0,0-1,1v4a1,1,0,0,0,1,1h4a1,1,0,0,0,1-1V14A1,1,0,0,0,18,13Zm-1,4H15V15h2Z"/></g></svg>