<svg fill="currentColor" xmlns="http://www.w3.org/2000/svg" viewBox="0 0 32 32"><g id="hotel"><path d="M10.54,6H8.46A1.46,1.46,0,0,0,7,7.46V9.54A1.46,1.46,0,0,0,8.46,11h2.08A1.46,1.46,0,0,0,12,9.54V7.46A1.46,1.46,0,0,0,10.54,6ZM10,9H9V8h1Z"/><path d="M16.54,6H14.46A1.46,1.46,0,0,0,13,7.46V9.54A1.46,1.46,0,0,0,14.46,11h2.08A1.46,1.46,0,0,0,18,9.54V7.46A1.46,1.46,0,0,0,16.54,6ZM16,9H15V8h1Z"/><path d="M22.54,6H20.46A1.46,1.46,0,0,0,19,7.46V9.54A1.46,1.46,0,0,0,20.46,11h2.08A1.46,1.46,0,0,0,24,9.54V7.46A1.46,1.46,0,0,0,22.54,6ZM22,9H21V8h1Z"/><path d="M10.54,13H8.46A1.46,1.46,0,0,0,7,14.46v2.08A1.46,1.46,0,0,0,8.46,18h2.08A1.46,1.46,0,0,0,12,16.54V14.46A1.46,1.46,0,0,0,10.54,13ZM10,16H9V15h1Z"/><path d="M16.54,13H14.46A1.46,1.46,0,0,0,13,14.46v2.08A1.46,1.46,0,0,0,14.46,18h2.08A1.46,1.46,0,0,0,18,16.54V14.46A1.46,1.46,0,0,0,16.54,13ZM16,16H15V15h1Z"/><path d="M22.54,13H20.46A1.46,1.46,0,0,0,19,14.46v2.08A1.46,1.46,0,0,0,20.46,18h2.08A1.46,1.46,0,0,0,24,16.54V14.46A1.46,1.46,0,0,0,22.54,13ZM22,16H21V15h1Z"/><path d="M28,28H27V4.08A2.08,2.08,0,0,0,24.92,2H6.08A2.08,2.08,0,0,0,4,4.08V28H3a1,1,0,0,0,0,2H28a1,1,0,0,0,0-2ZM12,28V25.5a3.5,3.5,0,0,1,7,0V28Zm9,0V25.5a5.5,5.5,0,0,0-11,0V28H6V4.08A.07.07,0,0,1,6.08,4H24.92a.07.07,0,0,1,.08.08V28Z"/></g></svg>