<svg fill="currentColor" xmlns="http://www.w3.org/2000/svg" viewBox="0 0 32 32"><g id="hydrant"><path d="M29,14H26a1,1,0,0,0-1,1H23V12a1,1,0,0,0,0-2h-.08A7,7,0,0,0,17,4.08V3a1,1,0,0,0-2,0V4.08A7,7,0,0,0,9.08,10H9a1,1,0,0,0,0,2v3H7a1,1,0,0,0-1-1H3a1,1,0,0,0-1,1v5a1,1,0,0,0,1,1H6a1,1,0,0,0,1-1H9v5a2.07,2.07,0,0,0-2,2.07V29a1,1,0,0,0,1,1H24a1,1,0,0,0,1-1V27.08A2.07,2.07,0,0,0,23,25V20h2a1,1,0,0,0,1,1h3a1,1,0,0,0,1-1V15A1,1,0,0,0,29,14ZM11,19V12H21V25H11ZM16,6a5,5,0,0,1,4.9,4H11.1A5,5,0,0,1,16,6ZM4,19V16H5v3Zm3-1V17H9v1ZM23,28H9v-.92A.09.09,0,0,1,9.08,27H22.92a.09.09,0,0,1,.08.08Zm0-10V17h2v1Zm5,1H27V16h1Z"/><path d="M16,14a4,4,0,1,0,4,4A4,4,0,0,0,16,14Zm0,6a2,2,0,1,1,2-2A2,2,0,0,1,16,20Z"/></g></svg>