<svg fill="currentColor" xmlns="http://www.w3.org/2000/svg" viewBox="0 0 32 32"><g id="letter_box" data-name="letter box"><path d="M23,25.23V10a1,1,0,0,0,0-2h0a6.45,6.45,0,0,0-6.43-6h-1.1A6.45,6.45,0,0,0,9,8H9a1,1,0,0,0,0,2V25.23a1.86,1.86,0,0,0-1,1.65V29a1,1,0,0,0,1,1H23a1,1,0,0,0,1-1V26.88A1.86,1.86,0,0,0,23,25.23ZM11,10H21V25H11Zm4.45-6h1.1A4.47,4.47,0,0,1,21,8H11A4.47,4.47,0,0,1,15.45,4ZM22,28H10V27H22Z"/><path d="M18.46,17H13.54A1.54,1.54,0,0,0,12,18.54v2.92A1.54,1.54,0,0,0,13.54,23h4.92A1.54,1.54,0,0,0,20,21.46V18.54A1.54,1.54,0,0,0,18.46,17ZM18,21H14V19h4Z"/><path d="M19,12H13a1,1,0,0,0,0,2h6a1,1,0,0,0,0-2Z"/></g></svg>