<svg fill="currentColor" xmlns="http://www.w3.org/2000/svg" viewBox="0 0 32 32"><g id="motorcycle"><path d="M24.87,16l-.8-3.2a1.29,1.29,0,0,0-.06-.21l-.42-1.66a.7.7,0,0,1,.68-.87h3a.7.7,0,0,1,.7.7.69.69,0,0,1-.7.69h-.56a1,1,0,0,0,0,2h.56A2.7,2.7,0,1,0,27.3,8h-3a2.69,2.69,0,0,0-2.61,3.36l.3,1.2L15.61,18a2.58,2.58,0,0,0-.39,0h-.48l-1.2-3h1.52A1,1,0,0,0,16,13.55l-.66-1.32a5.9,5.9,0,0,0-1.62-2A5.81,5.81,0,0,0,10,9a3,3,0,0,0,0,6h1.36l1.2,3H11.8a5.52,5.52,0,1,0-4.28,9,5.86,5.86,0,0,0,4.56-2.46,1,1,0,0,0,.16-.54h3A2.79,2.79,0,0,0,18,21.22v-.44a2.78,2.78,0,0,0-.57-1.67l5.07-4.35.37,1.44a5.53,5.53,0,1,0,2-.22ZM12.33,13a1,1,0,0,0-.58,0H10a1,1,0,0,1,0-2,3.81,3.81,0,0,1,1.6.35,3.61,3.61,0,0,1,.8.48,3.84,3.84,0,0,1,1,1.19ZM7.52,25a3.52,3.52,0,0,1,0-7,3.64,3.64,0,0,1,1.23.24A2.77,2.77,0,0,0,7,20.78v.44A2.79,2.79,0,0,0,9.78,24h.11A3.65,3.65,0,0,1,7.52,25ZM16,21.22a.78.78,0,0,1-.78.78H9.78A.78.78,0,0,1,9,21.22v-.44A.78.78,0,0,1,9.78,20h5.44a.78.78,0,0,1,.78.78ZM24.48,25a3.52,3.52,0,0,1-1.12-6.85l.78,3.07a1,1,0,0,0,1,.76,1,1,0,0,0,.24,0,1,1,0,0,0,.73-1.22l-.67-2.63a3.51,3.51,0,0,1-.93,6.9Z"/></g></svg>