<svg fill="currentColor" xmlns="http://www.w3.org/2000/svg" viewBox="0 0 32 32"><g id="parking_barrier" data-name="parking barrier"><path d="M27.7,20A2.3,2.3,0,0,0,30,17.7v-.4A2.3,2.3,0,0,0,27.7,15H16.82A3,3,0,0,0,13,13.18V6.47A1.47,1.47,0,0,0,11.53,5H3.47A1.47,1.47,0,0,0,2,6.47V26.53A1.47,1.47,0,0,0,3.47,28H28.53A1.47,1.47,0,0,0,30,26.53V24.47A1.47,1.47,0,0,0,28.53,23H17V20Zm-4.11-3-1,1H20.41l1-1Zm-6,1H17V17h1.59ZM28,17.3v.4a.29.29,0,0,1-.3.3H25.41l1-1H27.7A.29.29,0,0,1,28,17.3ZM4,10h7v6H4Zm0,8h7v5H4ZM11,7V8H4V7ZM28,26H4V25H28ZM13,23V16a1,1,0,0,1,2,0v7Z"/></g></svg>