<svg fill="currentColor" xmlns="http://www.w3.org/2000/svg" viewBox="0 0 32 32"><g id="pavilion"><path d="M29,28H27V22a1,1,0,0,0,1-1V18.9a1.57,1.57,0,0,0,1-1.44V15.54A1.54,1.54,0,0,0,27.46,14H27v-.79A8.21,8.21,0,0,0,19,5V4.33A2.33,2.33,0,0,0,16.67,2H15.33A2.33,2.33,0,0,0,13,4.33V5a8.21,8.21,0,0,0-8,8.2V14H4.54A1.54,1.54,0,0,0,3,15.54v1.92A1.57,1.57,0,0,0,4,18.9V21a1,1,0,0,0,1,1v6H3a1,1,0,0,0,0,2H29a1,1,0,0,0,0-2Zm-9,0H12V22a1,1,0,0,0,1-1V19h6v2a1,1,0,0,0,1,1ZM6,19h5v1H6Zm15,0h5v1H21Zm4-5.79V14H22.21v-.79A8.2,8.2,0,0,0,19.39,7,6.21,6.21,0,0,1,25,13.21ZM12,14v-.79a6.22,6.22,0,0,1,4.1-5.84,6.22,6.22,0,0,1,4.11,5.84V14Zm3-9.67A.33.33,0,0,1,15.33,4h1.34a.33.33,0,0,1,.33.33V5H15ZM7,13.21A6.2,6.2,0,0,1,12.83,7,8.18,8.18,0,0,0,10,13.21V14H7ZM5,16H27v1H5ZM7,28V22h3v6Zm15,0V22h3v6Z"/></g></svg>