<svg fill="currentColor" xmlns="http://www.w3.org/2000/svg" viewBox="0 0 32 32"><g id="phone_booth" data-name="phone booth"><path d="M22,11.22V10a1,1,0,0,0,1-1A7,7,0,0,0,9,9a1,1,0,0,0,1,1v1.22a1.86,1.86,0,0,0-1,1.64V28.14A1.87,1.87,0,0,0,10.86,30H21.14A1.86,1.86,0,0,0,23,28.14V12.86A1.86,1.86,0,0,0,22,11.22ZM16,4a5,5,0,0,1,4.9,4H11.1A5,5,0,0,1,16,4Zm4,6v1H12V10Zm1,18H11V13H21Z"/><path d="M13,27h6a1,1,0,0,0,1-1V15a1,1,0,0,0-1-1H13a1,1,0,0,0-1,1V26A1,1,0,0,0,13,27Zm5-5H17V19h1Zm-3,0H14V19h1Zm-1,2h1v1H14Zm3,1V24h1v1Zm1-8H17V16h1Zm-3-1v1H14V16Z"/></g></svg>