<svg fill="currentColor" xmlns="http://www.w3.org/2000/svg" viewBox="0 0 32 32"><g id="pigeon"><path d="M29,9H27V7.5a3.5,3.5,0,0,0-7,0,3.28,3.28,0,0,1-.38,1.33,5.14,5.14,0,0,0-.33.88l-.9,1.41a1,1,0,0,0-.13.32l-.2.12-14.3,9.1a1,1,0,0,0-.45,1,1,1,0,0,0,.71.82l.92.24-.56.42-2,1.48a1,1,0,0,0,.17,1.7,9.27,9.27,0,0,0,3.85.87A7.44,7.44,0,0,0,10,26.28a7.69,7.69,0,0,0,2.71-2.53A19.07,19.07,0,0,0,15,23.6v1.93a2.89,2.89,0,0,0,1.6,2.59l1.55.77a.93.93,0,0,0,.45.11,1,1,0,0,0,.89-.55,1,1,0,0,0-.44-1.34l-1.56-.78a.89.89,0,0,1-.49-.8V23.25a10.82,10.82,0,0,0,6.3-3.74,9.23,9.23,0,0,0,1.45-2.91A4.43,4.43,0,0,0,25,15l0,0,.94-1.47a6.85,6.85,0,0,0,1-2.49H29a1,1,0,0,0,0-2ZM9,24.52A5.82,5.82,0,0,1,5.15,25c.14-.11.28-.22.43-.32l1.93-1.45c.91.16,1.81.29,2.68.37A5.12,5.12,0,0,1,9,24.52ZM22.84,16a6.88,6.88,0,0,1-1.14,2.28c-2.45,3.24-8.17,4.27-14.91,2.81l12.37-7.87A2.42,2.42,0,0,1,22.84,16Zm1.39-3.6-.12.19a4.38,4.38,0,0,0-1-1A4.44,4.44,0,0,0,21,10.83a2,2,0,0,0,.16-.26,1.06,1.06,0,0,0,.13-.39,2.85,2.85,0,0,1,.21-.54A5.13,5.13,0,0,0,22,7.5a1.5,1.5,0,0,1,3,0V9.78A4.92,4.92,0,0,1,24.23,12.41Z"/></g></svg>