<svg fill="currentColor" xmlns="http://www.w3.org/2000/svg" viewBox="0 0 32 32"><g id="plane"><path d="M28.69,9.38c.63-1.15,1.92-3.53.93-5.65a4.51,4.51,0,0,0-.51-.8,1,1,0,0,0-.21-.19,4.33,4.33,0,0,0-1.39-.62c-1.57-.39-2.88.25-4.27.93a16,16,0,0,0-3,1.91l-.54.44s-.05,0-.08,0L11.27,3.83a2.77,2.77,0,0,0-2.45.74L6.59,6.77a1,1,0,0,0-.29.87,1,1,0,0,0,.54.74l6.86,3.4-.42.52-.86,1.07c-.29.36-.52.64-.79,1l-.31.39-.69.9c-.25.32-.76.94-1.31,1.59l-.17-.05-4-.38a1,1,0,0,0-.82.31l-2.08,2.2a1,1,0,0,0-.27.8,1,1,0,0,0,.44.72L5.2,22.66a3,3,0,0,0-.3,1.74,3.47,3.47,0,0,0,.53,1.35,1,1,0,0,0,.36.34,3.48,3.48,0,0,0,1.69.45h.27a2.67,2.67,0,0,0,.74-.18l1.79,2.87a1,1,0,0,0,.71.46h.14a1,1,0,0,0,.67-.26l2.24-2a1,1,0,0,0,.33-.81l-.29-4a.79.79,0,0,0,0-.13l.9-.66,4-2.93,1-.75,3,6.88a1,1,0,0,0,.71.57.76.76,0,0,0,.21,0,1,1,0,0,0,.68-.27l2.29-2.13a2.76,2.76,0,0,0,.87-2.41l-1.15-8.42s0,0,0-.05c.17-.19.33-.37.51-.59A14.57,14.57,0,0,0,28.69,9.38ZM10.22,6a.77.77,0,0,1,.68-.21l7,1.29q-.29.27-.63.63c-.66.68-1.13,1.21-1.53,1.66L15,10.2l-6-3ZM4.55,19.84l.93-1,2.3.22,0,0c-.6.72-1.09,1.32-1.48,1.85Zm6.79,7.31-1.12-1.8c.32-.23.67-.49,1.27-1l.56-.45.12-.09.17,2.38Zm14.12-5.4L24.2,22.93l-2.65-6c.46-.36.8-.63,1.16-.93s1.09-.9,1.85-1.61l.2-.19.94,6.92A.74.74,0,0,1,25.46,21.75Zm0-11.26a22.13,22.13,0,0,1-2.28,2.4c-.71.67-1.29,1.15-1.76,1.53s-.93.75-1.83,1.45h0l0,0-1.81,1.37-4,2.92c-.69.52-.8.6-1.21.89s-.64.44-1.13.81l-.61.47-.59.47c-.65.5-1,.75-1.34,1a3.53,3.53,0,0,1-1.31.7A1.52,1.52,0,0,1,7,24.45a1.24,1.24,0,0,1-.11-.36c-.07-.44.3-1.19,2.4-3.7l.78-.92c.83-1,1.77-2.09,2.16-2.6,0-.05.31-.41.67-.88l.31-.39.78-1,.85-1.06,1-1.26c.21-.26.69-.86,1.35-1.61.38-.43.83-.94,1.46-1.59s1-1,1.19-1.16.93-.86,1.63-1.41a14.52,14.52,0,0,1,2.63-1.69c1.3-.63,2.09-1,2.91-.78a2.21,2.21,0,0,1,.62.26,1.4,1.4,0,0,1,.16.26c.56,1.2-.37,2.92-.87,3.84A12.35,12.35,0,0,1,25.47,10.49Z"/><path d="M21.29,9.29l-6,6a1,1,0,0,0,0,1.42,1,1,0,0,0,1.42,0l6-6a1,1,0,0,0-1.42-1.42Z"/></g></svg>