<svg fill="currentColor" xmlns="http://www.w3.org/2000/svg" viewBox="0 0 32 32"><g id="school"><path d="M28.12,16H23V13.62l.55.27A.93.93,0,0,0,24,14a1,1,0,0,0,.89-.55,1,1,0,0,0-.44-1.34l-2-1L17,8.38V7h4a1,1,0,0,0,1-1V3a1,1,0,0,0-1-1H16a1,1,0,0,0-1,1V8.38L9.55,11.11l-2,1a1,1,0,1,0,.9,1.78L9,13.62V16H3.88A1.88,1.88,0,0,0,2,17.88V29a1,1,0,0,0,1,1H29a1,1,0,0,0,1-1V17.88A1.88,1.88,0,0,0,28.12,16ZM17,4h3V5H17ZM4,18H9V28H4Zm7-5.38,5-2.5,5,2.5V28H20V26a4,4,0,0,0-8,0v2H11ZM14,28V26a2,2,0,0,1,4,0v2Zm14,0H23V18h5Z"/><path d="M25,22h1a1,1,0,0,0,0-2H25a1,1,0,0,0,0,2Z"/><path d="M26,23H25a1,1,0,0,0,0,2h1a1,1,0,0,0,0-2Z"/><path d="M6,22H7a1,1,0,0,0,0-2H6a1,1,0,0,0,0,2Z"/><path d="M7,23H6a1,1,0,0,0,0,2H7a1,1,0,0,0,0-2Z"/><path d="M16,19a3,3,0,1,0-3-3A3,3,0,0,0,16,19Zm0-4a1,1,0,1,1-1,1A1,1,0,0,1,16,15Z"/></g></svg>