<svg fill="currentColor" xmlns="http://www.w3.org/2000/svg" viewBox="0 0 32 32"><g id="sign_post" data-name="sign post"><path d="M22.79,11h5.42A1.79,1.79,0,0,0,30,9.21V6.79A1.79,1.79,0,0,0,28.21,5H22.79A1.79,1.79,0,0,0,21,6.79V7H19V5a3,3,0,0,0-6,0v7H11v-.21A1.79,1.79,0,0,0,9.21,10H3.79A1.79,1.79,0,0,0,2,11.79v2.42A1.79,1.79,0,0,0,3.79,16H9.21A1.79,1.79,0,0,0,11,14.21V14h2V28H12a1,1,0,0,0,0,2h8a1,1,0,0,0,0-2H19V20h2v.21A1.79,1.79,0,0,0,22.79,22h5.42A1.79,1.79,0,0,0,30,20.21V17.79A1.79,1.79,0,0,0,28.21,16H22.79A1.79,1.79,0,0,0,21,17.79V18H19V9h2v.21A1.79,1.79,0,0,0,22.79,11ZM9,14H4V12H9Zm14,4h5v2H23ZM15,28V5a1,1,0,0,1,2,0V28ZM23,7h5V9H23Z"/></g></svg>