<svg fill="currentColor" xmlns="http://www.w3.org/2000/svg" viewBox="0 0 32 32"><g id="stadium"><path d="M29,28H25.34c.65-2.24,1.2-4.53,1.64-6.81s.74-4.35,1-6.53a1.73,1.73,0,0,0-1.14-1.8L26,12.6v-1l3.45-1.73a1,1,0,0,0,0-1.78l-4-2A1,1,0,0,0,24,7v5a32.67,32.67,0,0,0-5-.86v-.53l3.45-1.73A1,1,0,0,0,22.6,7.2l-4-3A1,1,0,0,0,17,5v6c-.67,0-1.33,0-2,0V5a1,1,0,0,0-1.6-.8l-4,3a1,1,0,0,0,.15,1.69L13,10.62v.53A32.67,32.67,0,0,0,8,12V7a1,1,0,0,0-1.45-.89l-4,2a1,1,0,0,0,0,1.78L6,11.62v1c-.27.09-.55.17-.82.27a1.7,1.7,0,0,0-1.12,1.78c.22,2.18.54,4.38,1,6.54S6,25.76,6.66,28H3a1,1,0,0,0,0,2H29a1,1,0,0,0,0-2ZM26,8.62l.76.38L26,9.38ZM19,7l1.11.83L19,8.38Zm-7.11.83L13,7V8.38ZM5.24,9,6,8.62v.76Zm20.69,5.67c-.07.61-.15,1.22-.23,1.83A32.34,32.34,0,0,0,16.05,15H16A32,32,0,0,0,6.3,16.5c-.08-.61-.16-1.22-.23-1.82A30.38,30.38,0,0,1,25.93,14.67ZM7,20.81c-.14-.76-.26-1.52-.39-2.29A30.19,30.19,0,0,1,15,17.05V23h-.58A2.43,2.43,0,0,0,12,25.42V28H8.74C8,25.64,7.44,23.22,7,20.81ZM14,28V25.42a.42.42,0,0,1,.42-.42h3.16a.42.42,0,0,1,.42.42V28Zm6,0V25.42A2.43,2.43,0,0,0,17.58,23H17V17.05a30.19,30.19,0,0,1,8.41,1.47c-.13.77-.25,1.54-.39,2.29C24.56,23.22,24,25.64,23.26,28Z"/></g></svg>