<svg fill="currentColor" xmlns="http://www.w3.org/2000/svg" viewBox="0 0 32 32"><g id="street_light" data-name="street light"><path d="M25,13.14V13a5,5,0,0,0-8-4V7A5,5,0,0,0,7,7v.14A4,4,0,0,0,4,11a1,1,0,0,0,1,1,3,3,0,0,0,6,0,1,1,0,0,0,1-1A4,4,0,0,0,9,7.14V7a3,3,0,0,1,6,0V23a2.29,2.29,0,0,0-2,2.26V28H12a1,1,0,0,0,0,2h8a1,1,0,0,0,0-2H19V25.29A2.29,2.29,0,0,0,17,23V13a3,3,0,0,1,6,0v.14A4,4,0,0,0,20,17a1,1,0,0,0,1,1,3,3,0,0,0,6,0,1,1,0,0,0,1-1A4,4,0,0,0,25,13.14ZM8,13a1,1,0,0,1-1-1H9A1,1,0,0,1,8,13Zm1.73-3H6.27a2,2,0,0,1,3.46,0ZM15,28V25.29a.29.29,0,0,1,.29-.29h1.42a.29.29,0,0,1,.29.29V28Zm9-13a2,2,0,0,1,1.73,1H22.27A2,2,0,0,1,24,15Zm0,4a1,1,0,0,1-1-1h2A1,1,0,0,1,24,19Z"/></g></svg>