<svg fill="currentColor" xmlns="http://www.w3.org/2000/svg" viewBox="0 0 32 32"><g id="taxi"><path d="M28.72,14.23l1.11-1.68a1,1,0,1,0-1.66-1.1l-.8,1.2-1.2-4.2A2,2,0,0,0,24.25,7H21V4.91A1.92,1.92,0,0,0,19.09,3H12.91A1.92,1.92,0,0,0,11,4.91V7H7.75A2,2,0,0,0,5.83,8.45l-1.2,4.2-.8-1.2a1,1,0,0,0-1.66,1.1l1.11,1.68a2.26,2.26,0,0,0-1.28,2v6.48A2.26,2.26,0,0,0,4.26,25H5v.5a3.5,3.5,0,0,0,7,0V25h8v.5a3.5,3.5,0,0,0,7,0V25h.74A2.26,2.26,0,0,0,30,22.74V16.26A2.26,2.26,0,0,0,28.72,14.23ZM13,5h6V7H13ZM7.75,9h16.5l1.42,5H6.33ZM10,25.5a1.5,1.5,0,0,1-3,0V25h3Zm15,0a1.5,1.5,0,0,1-3,0V25h3Zm3-2.76a.26.26,0,0,1-.26.26H4.26A.26.26,0,0,1,4,22.74V16.26A.26.26,0,0,1,4.26,16H27.74a.26.26,0,0,1,.26.26Z"/><path d="M12,17H7a1,1,0,0,0-1,1v3a1,1,0,0,0,1,1h5a1,1,0,0,0,1-1V18A1,1,0,0,0,12,17Zm-1,3H8V19h3Z"/><path d="M25,17H20a1,1,0,0,0-1,1v3a1,1,0,0,0,1,1h5a1,1,0,0,0,1-1V18A1,1,0,0,0,25,17Zm-1,3H21V19h3Z"/></g></svg>