<svg fill="currentColor" xmlns="http://www.w3.org/2000/svg" viewBox="0 0 32 32"><g id="traffic_light" data-name="traffic light"><path d="M16,6a3,3,0,1,0,3,3A3,3,0,0,0,16,6Zm0,4a1,1,0,1,1,1-1A1,1,0,0,1,16,10Z"/><path d="M16,13a3,3,0,1,0,3,3A3,3,0,0,0,16,13Zm0,4a1,1,0,1,1,1-1A1,1,0,0,1,16,17Z"/><path d="M16,20a3,3,0,1,0,3,3A3,3,0,0,0,16,20Zm0,4a1,1,0,1,1,1-1A1,1,0,0,1,16,24Z"/><path d="M25.6,18.8A6.32,6.32,0,0,0,28,14a1,1,0,0,0-.28-.73A1,1,0,0,0,27,13H23V11.91a6,6,0,0,0,2.6-1.11A6.32,6.32,0,0,0,28,6a1,1,0,0,0-.28-.73A1,1,0,0,0,27,5H23V4.74A2.74,2.74,0,0,0,20.26,2H11.74A2.74,2.74,0,0,0,9,4.74V5H5a1,1,0,0,0-.72.3A1,1,0,0,0,4,6,6.32,6.32,0,0,0,6.4,10.8,6,6,0,0,0,9,11.91V13H5a1,1,0,0,0-.72.3A1,1,0,0,0,4,14,6.32,6.32,0,0,0,6.4,18.8,6,6,0,0,0,9,19.91V21H5a1,1,0,0,0-.72.3A1,1,0,0,0,4,22,6.32,6.32,0,0,0,6.4,26.8a5.9,5.9,0,0,0,2.69,1.12A2.74,2.74,0,0,0,11.74,30h8.52a2.74,2.74,0,0,0,2.65-2.08A5.9,5.9,0,0,0,25.6,26.8,6.32,6.32,0,0,0,28,22a1,1,0,0,0-.28-.73A1,1,0,0,0,27,21H23V19.91A6,6,0,0,0,25.6,18.8Zm.24-3.8a4.09,4.09,0,0,1-1.44,2.2,3.77,3.77,0,0,1-1.4.66V15Zm0-8A4.09,4.09,0,0,1,24.4,9.2a3.77,3.77,0,0,1-1.4.66V7ZM7.6,9.2A4.09,4.09,0,0,1,6.16,7H9V9.86A3.77,3.77,0,0,1,7.6,9.2Zm0,8A4.09,4.09,0,0,1,6.16,15H9v2.86A3.77,3.77,0,0,1,7.6,17.2ZM6.16,23H9v2.86a3.77,3.77,0,0,1-1.4-.66A4.09,4.09,0,0,1,6.16,23ZM21,27.26a.74.74,0,0,1-.74.74H11.74a.74.74,0,0,1-.74-.74V4.74A.74.74,0,0,1,11.74,4h8.52a.74.74,0,0,1,.74.74ZM25.84,23a4.09,4.09,0,0,1-1.44,2.2,3.77,3.77,0,0,1-1.4.66V23Z"/></g></svg>