<svg fill="currentColor" xmlns="http://www.w3.org/2000/svg" viewBox="0 0 32 32"><g id="train"><path d="M24.93,28.63,23.46,25A2,2,0,0,0,25,23V9a2,2,0,0,0-2-2H17V4h3.76a2.61,2.61,0,0,1,2.35,1.45,1,1,0,1,0,1.78-.9A4.59,4.59,0,0,0,20.76,2H11.24A4.59,4.59,0,0,0,7.11,4.55a1,1,0,0,0,.44,1.34A.93.93,0,0,0,8,6a1,1,0,0,0,.89-.55A2.61,2.61,0,0,1,11.24,4H15V7H9A2,2,0,0,0,7,9V23A2,2,0,0,0,8.54,25L7.07,28.63a1,1,0,0,0,.56,1.3A1,1,0,0,0,8,30a1,1,0,0,0,.93-.63L9.48,28h13l.55,1.37A1,1,0,0,0,24,30a1,1,0,0,0,.37-.07A1,1,0,0,0,24.93,28.63ZM10,23H9V22h3.46A1.54,1.54,0,0,0,14,20.46V18.54A1.54,1.54,0,0,0,12.46,17H9V16H23v1H19.54A1.54,1.54,0,0,0,18,18.54v1.92A1.54,1.54,0,0,0,19.54,22H23v1H10ZM9,19h3v1H9Zm14,1H20V19h3Zm0,3.83V23h0v.83ZM16,9h7v5H9V9Zm-5.7,17,.4-1H21.32l.4,1Z"/></g></svg>