<svg fill="currentColor" xmlns="http://www.w3.org/2000/svg" viewBox="0 0 32 32"><g id="trees"><path d="M30,12A8,8,0,0,0,16,6.73,7.93,7.93,0,0,0,10,4,8,8,0,0,0,9,19.93V26H6a1,1,0,0,0,0,2H26a1,1,0,0,0,0-2H23V19.93A8,8,0,0,0,30,12ZM22,6a6,6,0,0,1,1,11.91v-1.5l1.71-1.7a1,1,0,0,0-1.42-1.42l-.29.3V13a1,1,0,0,0-2,0v4.91A6,6,0,0,1,22,6ZM4,12a6,6,0,0,1,6-6,5.94,5.94,0,0,1,4.83,2.46A8.09,8.09,0,0,0,14,12a8,8,0,0,0,.84,3.54A6,6,0,0,1,11,17.91v-1.5l1.71-1.7a1,1,0,0,0-1.42-1.42l-.29.3V13a1,1,0,0,0-2,0v4.91A6,6,0,0,1,4,12Zm7,14V19.94a8,8,0,0,0,5-2.66,7.94,7.94,0,0,0,5,2.65V26Z"/></g></svg>