<?xml version="1.0" encoding="UTF-8"?><svg fill="currentColor" xmlns="http://www.w3.org/2000/svg" viewBox="0 0 24 24"><g id="s"><g><path d="M21.61,12.13l-1.35-4c-.38-1.12-1.44-1.88-2.63-1.88h-1.88v-.25c0-1.52-1.23-2.75-2.75-2.75h-2c-1.52,0-2.75,1.23-2.75,2.75v.25h-1.88c-1.19,0-2.25,.75-2.63,1.88l-1.35,4c-.19,.56-.19,1.18,0,1.74l1.35,4c.38,1.12,1.44,1.88,2.63,1.88h11.25c1.2,0,2.25-.75,2.63-1.88l1.35-4c.19-.56,.19-1.18,0-1.74ZM9.75,6c0-.69,.56-1.25,1.25-1.25h2c.69,0,1.25,.56,1.25,1.25v.25h-4.5v-.25Zm-4.59,2.61c.17-.51,.66-.86,1.21-.86h11.25c.55,0,1.04,.34,1.21,.86l1.23,3.66s-.05-.01-.07-.01H4s-.05,.01-.07,.01l1.23-3.66Zm13.67,8.79c-.17,.51-.66,.86-1.21,.86H6.37c-.55,0-1.04-.34-1.21-.86l-1.23-3.66s.04,.01,.07,.01H20s.05-.01,.07-.01l-1.23,3.66Z"/><path d="M12,11.75c.41,0,.75-.34,.75-.75v-2c0-.41-.34-.75-.75-.75s-.75,.34-.75,.75v2c0,.41,.34,.75,.75,.75Z"/><path d="M16,11.75c.41,0,.75-.34,.75-.75v-2c0-.41-.34-.75-.75-.75s-.75,.34-.75,.75v2c0,.41,.34,.75,.75,.75Z"/><path d="M8,11.75c.41,0,.75-.34,.75-.75v-2c0-.41-.34-.75-.75-.75s-.75,.34-.75,.75v2c0,.41,.34,.75,.75,.75Z"/></g></g></svg>