<?xml version="1.0" encoding="UTF-8"?><svg fill="currentColor" xmlns="http://www.w3.org/2000/svg" viewBox="0 0 24 24"><g id="j"><path d="M21.74,11.88s0-.03,0-.04c-.04-2.54-1.04-4.93-2.85-6.73-1.85-1.85-4.27-2.8-6.71-2.84-.03,0-.06,0-.09,0-2.53-.02-5.07,.92-6.99,2.85-1.84,1.84-2.86,4.29-2.86,6.89,0,.04,0,.08,0,.12v.03c.04,2.55,1.04,4.94,2.85,6.74,1.85,1.85,4.26,2.79,6.69,2.84,.03,0,.05,.01,.08,.01,.01,0,.02,0,.03,0,.03,0,.06,0,.09,0,2.5,0,4.99-.95,6.89-2.85,1.84-1.84,2.86-4.29,2.86-6.89,0-.04,0-.08,0-.12ZM6.17,6.17c1.5-1.5,3.45-2.29,5.42-2.39,.69,2.21,.13,4.62-1.53,6.28-1.66,1.66-4.07,2.22-6.29,1.53,.1-2.05,.94-3.96,2.4-5.42Zm-2.33,7c.59,.14,1.2,.22,1.8,.22,2.02,0,3.99-.79,5.48-2.27,1.92-1.92,2.68-4.68,2.06-7.27,1.7,.24,3.35,1.01,4.66,2.32s2.07,2.9,2.32,4.66c-2.59-.62-5.35,.13-7.27,2.06-1.92,1.92-2.68,4.68-2.06,7.27-1.7-.24-3.35-1.01-4.66-2.32s-2.08-2.91-2.33-4.67Zm13.99,4.67c-1.5,1.5-3.45,2.29-5.42,2.39-.69-2.21-.13-4.62,1.53-6.28,1.66-1.66,4.08-2.22,6.29-1.53-.1,2.05-.94,3.96-2.4,5.42Z"/></g></svg>