<?xml version="1.0" encoding="UTF-8"?><svg fill="currentColor" xmlns="http://www.w3.org/2000/svg" viewBox="0 0 24 24"><g id="h"><g><path d="M20.5,5.25h-5.93c-.28-.59-.88-1-1.57-1h-2c-.7,0-1.29,.41-1.57,1H3.5c-.69,0-1.25,.56-1.25,1.25v3c0,.69,.56,1.25,1.25,1.25h5.93c.28,.59,.88,1,1.57,1h.25v1.58c-1.47,.3-2.62,1.46-2.92,2.92h-.33c-.41,0-.75,.34-.75,.75s.34,.75,.75,.75h.33c.35,1.71,1.86,3,3.67,3s3.33-1.29,3.67-3h.33c.41,0,.75-.34,.75-.75s-.34-.75-.75-.75h-.33c-.3-1.47-1.46-2.62-2.92-2.92v-1.58h.25c.7,0,1.29-.41,1.57-1h5.93c.69,0,1.25-.56,1.25-1.25v-3c0-.69-.56-1.25-1.25-1.25Zm-8.5,14c-.98,0-1.8-.63-2.11-1.5h4.22c-.31,.87-1.14,1.5-2.11,1.5Zm2.11-3h-4.22c.31-.87,1.14-1.5,2.11-1.5s1.8,.63,2.11,1.5ZM3.75,6.75h5.5v2.5H3.75v-2.5Zm9.25,3.5h-2c-.14,0-.25-.11-.25-.25V6c0-.14,.11-.25,.25-.25h2c.14,0,.25,.11,.25,.25v4c0,.14-.11,.25-.25,.25Zm7.25-1h-5.5v-2.5h5.5v2.5Z"/><path d="M19.02,8.75c.42,0,.75-.34,.75-.75s-.33-.75-.75-.75h0c-.41,0-.75,.34-.75,.75s.34,.75,.75,.75Z"/></g></g></svg>