<?xml version="1.0" encoding="UTF-8"?><svg fill="currentColor" xmlns="http://www.w3.org/2000/svg" viewBox="0 0 24 24"><g id="c"><g><path d="M21,13.23h-5.78c.33-.53,.53-1.16,.53-1.84v-2.37c.16,.05,.34,.08,.53,.08,.06,0,.12,0,.17,0,.6-.05,1.15-.37,1.55-.9,.45-.6,.64-1.37,.51-2.06-.21-1.11-1.16-1.75-1.92-1.96-.38-.11-.73-.11-1.03-.08-.41-1.09-1.43-1.85-2.58-1.85h-.32c-1.32,0-2.58,.6-3.45,1.64-.72,.86-1.12,1.97-1.14,3.12-1.07,.05-2.09,.79-2.54,1.68-.21,.43-.31,.93-.29,1.4v3.16H3c-.41,0-.75,.34-.75,.75s.34,.75,.75,.75h2.25v.94c0,.41,.34,.75,.75,.75,.8,0,1.56-.25,2.25-.68v5.26c0,.41,.34,.75,.75,.75h.34c1.94-.2,3.41-1.64,3.41-3.36v-3.68s.07,0,.1-.01c.05,.01,.1,.03,.15,.03h3.86s.03,.09,.05,.13l1.38,2.08c.14,.22,.38,.33,.63,.33,.14,0,.29-.04,.42-.13,.34-.23,.44-.7,.21-1.04l-.92-1.38h2.37c.41,0,.75-.34,.75-.75s-.34-.75-.75-.75Zm-4.82-7.63c.36,.1,.77,.39,.85,.8,.05,.28-.04,.62-.23,.88-.14,.18-.32,.3-.48,.31-.3,.02-.57-.23-.7-.37l-.47-.87,.38-.76c.17-.04,.4-.06,.65,0Zm-5.82-.77c.59-.7,1.42-1.11,2.3-1.11h.32c.6,0,1.13,.47,1.25,1.12h0l-.58,1.19c-.11,.22-.1,.47,.01,.69l.6,1.11v3.55c0,1.01-.75,1.84-1.68,1.84h-2.28c.29-.73,.46-1.53,.46-2.36v-.78c.01-.45-.06-1.14-.49-1.82-.12-.19-.37-.57-.78-.87,.05-.1,.08-.21,.08-.32,0-.83,.28-1.63,.8-2.25Zm-3.61,9.98v-.83h0v-3.95c-.01-.25,.03-.49,.13-.69,.24-.49,.82-.86,1.29-.86,.09,0,.17,.01,.25,.04,.28,.1,.46,.38,.57,.55,.24,.38,.27,.78,.26,1v.8c0,1.18-.41,2.29-1.13,3.07-.4,.43-.87,.72-1.37,.87Zm3,5.34v-5.47c.08,.03,.16,.05,.25,.05h1.25v3.66c0,.79-.65,1.49-1.5,1.76Z"/><path d="M12.02,6.73c.42,0,.75-.34,.75-.75s-.33-.75-.75-.75h0c-.41,0-.75,.34-.75,.75s.34,.75,.75,.75Z"/></g></g></svg>