<?xml version="1.0" encoding="UTF-8"?><svg fill="currentColor" xmlns="http://www.w3.org/2000/svg" viewBox="0 0 24 24"><g id="p"><path d="M12.75,4.29v-1.29c0-.41-.34-.75-.75-.75s-.75,.34-.75,.75v1.29c-3.92,.38-7,3.69-7,7.71v8c0,.96,.79,1.75,1.75,1.75h12c.96,0,1.75-.79,1.75-1.75V12c0-4.02-3.08-7.33-7-7.71Zm5.5,7.71v2.25h-2.5v-1.99c0-2.05-.53-4.07-1.52-5.83l-.18-.32c2.44,.85,4.2,3.17,4.2,5.9Zm-8.5,2.25v-1.99c0-1.8,.46-3.56,1.33-5.1l.79-1.4s.09,0,.13,0,.09,0,.13,0l.79,1.4c.87,1.54,1.33,3.3,1.33,5.1v1.99h-4.5Zm4.5,1.5v4.5h-4.5v-4.5h4.5ZM9.95,6.1l-.18,.32c-1,1.76-1.52,3.78-1.52,5.83v1.99h-2.5v-2.25c0-2.73,1.76-5.05,4.2-5.9Zm-4.2,13.9v-4.25h2.5v4.5h-2.25c-.14,0-.25-.11-.25-.25Zm12.25,.25h-2.25v-4.5h2.5v4.25c0,.14-.11,.25-.25,.25Z"/></g></svg>