<?xml version="1.0" encoding="UTF-8"?><svg fill="currentColor" xmlns="http://www.w3.org/2000/svg" viewBox="0 0 24 24"><g id="m"><path d="M12,6.25c-5.56,0-9.75,2.04-9.75,4.75v5c0,2.71,4.19,4.75,9.75,4.75s9.75-2.04,9.75-4.75v-5c0-2.71-4.19-4.75-9.75-4.75Zm0,1.5c4.34,0,7.5,1.36,8.13,2.75l-2.16,.72c-1.69-.62-3.79-.97-5.97-.97s-4.28,.35-5.97,.97l-2.16-.72c.63-1.39,3.79-2.75,8.13-2.75Zm-5.25,4.81c1.49-.52,3.32-.81,5.25-.81s3.76,.29,5.25,.81v1.88c-1.49,.52-3.32,.81-5.25,.81s-3.76-.29-5.25-.81v-1.88Zm13.5,3.44c0,1.54-3.39,3.25-8.25,3.25s-8.25-1.71-8.25-3.25v-3.96l1.5,.5v2.46c0,.35,.25,.63,.57,.71,1.72,.67,3.91,1.04,6.18,1.04s4.43-.37,6.15-1.03c.34-.07,.6-.36,.6-.72h0v-2.46l1.5-.5v3.96Z"/></g></svg>