<?xml version="1.0" encoding="UTF-8"?><svg fill="currentColor" xmlns="http://www.w3.org/2000/svg" viewBox="0 0 24 24"><g id="t"><g><path d="M21,18.25h-6.43c.32-.23,.63-.49,.91-.77,1.46-1.46,2.27-3.41,2.27-5.48s-.81-4.02-2.27-5.48c-1.46-1.46-3.41-2.27-5.48-2.27s-4.02,.81-5.48,2.27c-1.46,1.46-2.27,3.41-2.27,5.48s.81,4.02,2.27,5.48c1.46,1.46,3.41,2.27,5.48,2.27h11c.41,0,.75-.34,.75-.75s-.34-.75-.75-.75ZM3.75,12c0-1.67,.65-3.24,1.83-4.42s2.75-1.83,4.42-1.83,3.24,.65,4.42,1.83,1.83,2.75,1.83,4.42-.65,3.24-1.83,4.42-2.75,1.83-4.42,1.83-3.24-.65-4.42-1.83-1.83-2.75-1.83-4.42Z"/><path d="M13.71,12.53c.15,.15,.34,.22,.53,.22s.38-.07,.53-.22c.29-.29,.29-.77,0-1.06l-4.24-4.24c-.29-.29-.77-.29-1.06,0s-.29,.77,0,1.06l4.24,4.24Z"/><path d="M10.53,16.77c.29-.29,.29-.77,0-1.06l-4.24-4.24c-.29-.29-.77-.29-1.06,0s-.29,.77,0,1.06l4.24,4.24c.15,.15,.34,.22,.53,.22s.38-.07,.53-.22Z"/><path d="M12.3,15.36c.15,.15,.34,.22,.53,.22s.38-.07,.53-.22c.29-.29,.29-.77,0-1.06l-5.66-5.66c-.29-.29-.77-.29-1.06,0s-.29,.77,0,1.06l5.66,5.66Z"/></g></g></svg>