<?xml version="1.0" encoding="UTF-8"?><svg fill="currentColor" xmlns="http://www.w3.org/2000/svg" viewBox="0 0 24 24"><g id="g"><g><path d="M21.24,16.29l-1.28-.43c.15-.45,.28-.94,.35-1.47,.03-.21,.05-.43,.06-.65h.63c.41,0,.75-.34,.75-.75s-.34-.75-.75-.75h-.68c-.15-1.16-.54-2.3-1.18-3.39,.33-.45,.57-.95,.74-1.47,.73-2.31-.42-4.26-.79-4.81-.16-.23-.43-.35-.71-.32-.85,.1-1.64,.36-2.37,.79-.82,.48-1.4,1.08-1.79,1.61-1.42-.43-2.96-.43-4.38-.01-.36-.5-.89-1.07-1.64-1.54-.99-.62-1.96-.8-2.6-.85-.28,0-.53,.1-.68,.33-.37,.54-1.52,2.5-.79,4.81,.17,.52,.41,1.02,.74,1.47-.63,1.09-1.03,2.24-1.18,3.39h-.71c-.41,0-.75,.34-.75,.75s.34,.75,.75,.75h.65c.01,.22,.03,.43,.06,.65,.07,.53,.2,1.01,.35,1.46l-1.3,.43c-.39,.13-.61,.56-.47,.95,.11,.31,.4,.51,.71,.51,.08,0,.16-.01,.24-.04l1.42-.47c.55,1.02,1.19,1.73,1.54,2.08,1.47,1.44,3.16,2.03,4.31,2.27,.5,.1,1,.16,1.5,.16s1-.05,1.5-.16c1.16-.24,2.84-.84,4.31-2.27,.36-.35,.99-1.06,1.54-2.07l1.4,.47c.08,.03,.16,.04,.24,.04,.31,0,.61-.2,.71-.51,.13-.39-.08-.82-.47-.95Zm-4.46,1.96c-1.21,1.19-2.62,1.68-3.58,1.88-.79,.17-1.59,.17-2.38,0-.96-.2-2.36-.69-3.58-1.88-.27-.26-.73-.77-1.15-1.49l1.3-.43c.39-.13,.61-.56,.47-.95-.13-.39-.55-.6-.95-.47l-1.44,.48c-.12-.37-.23-.76-.28-1.19-.02-.15-.03-.29-.04-.44h1.84c.41,0,.75-.34,.75-.75s-.34-.75-.75-.75h-1.78c.16-1.04,.57-2.07,1.23-3.07,.2-.3,.15-.7-.1-.95l-.19-.19c-.26-.34-.45-.72-.58-1.11-.41-1.31,.05-2.51,.37-3.13,.43,.08,.95,.24,1.47,.57,.77,.48,1.22,1.1,1.46,1.53,.18,.33,.58,.47,.93,.33,1.42-.55,3.04-.55,4.45,.01,.34,.14,.73,0,.92-.31,.28-.46,.78-1.11,1.61-1.6,.41-.24,.85-.41,1.32-.52,.32,.62,.77,1.81,.36,3.11-.13,.39-.32,.77-.57,1.11l-.19,.18c-.27,.25-.31,.65-.12,.96,.66,1,1.07,2.03,1.23,3.07h-1.81c-.41,0-.75,.34-.75,.75s.34,.75,.75,.75h1.87c-.01,.15-.02,.29-.04,.44-.06,.43-.16,.83-.29,1.2l-1.46-.49c-.4-.13-.82,.08-.95,.47-.13,.39,.08,.82,.47,.95l1.32,.44c-.42,.72-.88,1.22-1.14,1.48Z"/><path d="M9.77,9.87c0-.41-.33-.75-.75-.75h0c-.41,0-.75,.34-.75,.75s.34,.75,.75,.75,.75-.34,.75-.75Z"/><path d="M15.02,9.12h0c-.41,0-.75,.34-.75,.75s.34,.75,.75,.75,.75-.34,.75-.75-.33-.75-.75-.75Z"/><path d="M13.99,16.25c-.41,0-.75,.34-.75,.75,0,.14-.11,.25-.25,.25-.09,0-.15-.05-.18-.07s-.07-.08-.07-.17v-.92c.49-.38,.93-.81,1.28-1.32,.17-.25,.32-.5,.43-.73,.2-.39,.23-.86,.07-1.28-.15-.42-.48-.75-.88-.92-1.03-.43-2.21-.43-3.24,0-.41,.17-.74,.51-.89,.93-.15,.42-.13,.88,.07,1.28,.12,.23,.26,.48,.43,.73,.34,.49,.77,.92,1.24,1.29v.93h0c0,.27-.5,.29-.5,0,0-.41-.34-.75-.75-.75s-.75,.34-.75,.75c0,.96,.78,1.75,1.76,1.75,.37,0,.71-.12,1-.31,.29,.2,.64,.31,1,.31,.96,0,1.75-.78,1.75-1.75,0-.41-.34-.75-.75-.75Zm-3.07-2.88l.06-.15c.33-.14,.69-.21,1.04-.21,.25,0,.63,.04,1.05,.21l.05,.14c-.09,.18-.2,.36-.33,.55-.22,.32-.48,.61-.77,.86-.29-.26-.55-.54-.77-.86-.13-.19-.24-.37-.33-.55Z"/></g></g></svg>