<?xml version="1.0" encoding="UTF-8"?><svg fill="currentColor" xmlns="http://www.w3.org/2000/svg" viewBox="0 0 24 24"><g id="r"><path d="M21.52,12.15c-.66-.66-1.73-.66-2.39,0l-3.33,3.33c-.43,.43-1.18,.43-1.6,0l-.14-.14,4.8-4.8c.29-.29,.29-.77,0-1.06s-.77-.29-1.06,0l-4.8,4.8-.94-.94,4.8-4.8c.29-.29,.29-.77,0-1.06s-.77-.29-1.06,0l-4.8,4.8-.94-.94,4.8-4.8c.29-.29,.29-.77,0-1.06s-.77-.29-1.06,0l-4.8,4.8-.14-.14c-.44-.44-.44-1.16,0-1.6l3.33-3.33c.32-.32,.5-.74,.5-1.2s-.18-.88-.5-1.2c-.64-.64-1.75-.64-2.39,0h0L5.14,7.49c-1.39,1.39-1.39,3.66,0,5.06l.67,.67s.06,.1,.06,.14,0,.09-.06,.14l-2.66,2.66c-1.03,1.03-1.03,2.7,0,3.73l1.33,1.33c.5,.5,1.16,.77,1.86,.77s1.37-.27,1.86-.77l2.66-2.66s.1-.06,.14-.06c-.01,0,.09,0,.14,.06l.67,.67c1.39,1.4,3.66,1.39,5.06,0l4.66-4.66c.32-.32,.5-.74,.5-1.2s-.18-.88-.5-1.2Zm-1.06,1.33l-4.66,4.66c-.81,.81-2.13,.81-2.94,0l-.67-.67c-.32-.32-.74-.5-1.2-.5h0c-.45,0-.88,.18-1.2,.5l-2.66,2.66c-.43,.43-1.18,.43-1.6,0l-1.33-1.33c-.44-.44-.44-1.16,0-1.6l2.66-2.66c.32-.32,.5-.74,.5-1.2s-.18-.88-.5-1.2l-.67-.67c-.81-.81-.81-2.13,0-2.94L10.86,3.89c.06-.06,.21-.06,.27,0,.05,.05,.06,.1,.06,.14s0,.09-.06,.14l-3.33,3.33c-1.03,1.03-1.03,2.7,0,3.73l.67,.67h0l2,2h0l1.99,2h0l.66,.67c.99,1,2.73,1,3.72,0l3.33-3.33c.07-.08,.2-.08,.27,0,.05,.05,.06,.1,.06,.14s0,.09-.06,.14Z"/></g></svg>