<?xml version="1.0" encoding="UTF-8"?><svg fill="currentColor" xmlns="http://www.w3.org/2000/svg" viewBox="0 0 24 24"><g id="n"><g><path d="M18.5,5.25h-.45c-.98-1.79-2.87-3-5.05-3h-2c-2.17,0-4.07,1.21-5.05,3h-.45c-1.79,0-3.25,1.46-3.25,3.25v3c0,1.79,1.46,3.25,3.25,3.25h.2c.28,.53,.68,.99,1.17,1.33-1.04,1.08-1.62,2.49-1.62,3.99v.93c0,.41,.34,.75,.75,.75s.75-.34,.75-.75v-.93c0-1.14,.44-2.2,1.24-3.01l.38-.38c.2,.03,.41,.06,.63,.06,.12,0,.23-.03,.35-.04,.31,1.17,1.38,2.04,2.65,2.04s2.33-.87,2.65-2.04c.12,.01,.23,.04,.35,.04,.21,0,.42-.03,.63-.06l.38,.38c.8,.8,1.25,1.87,1.25,3v.93c0,.41,.34,.75,.75,.75s.75-.34,.75-.75v-.93c0-1.5-.58-2.91-1.62-3.99,.49-.34,.89-.8,1.17-1.33h.2c1.79,0,3.25-1.46,3.25-3.25v-3c0-1.79-1.46-3.25-3.25-3.25ZM5.25,13.23c-.85-.12-1.5-.85-1.5-1.73v-3c0-.88,.65-1.61,1.5-1.73v6.46Zm6.75,4.02c-.59,0-1.07-.42-1.19-.98,.47-.26,.88-.6,1.19-1.02,.32,.42,.73,.77,1.19,1.03-.13,.55-.6,.98-1.19,.98Zm.07-5.29s-.04,.05-.05,.07c-.02-.02-.04-.05-.05-.07-.05-.07-.08-.14-.11-.21h.33c-.03,.07-.06,.14-.11,.21Zm.72,1.4c.2-.16,.38-.35,.52-.56,.52-.77,.48-1.58,.43-1.9-.05-.37-.37-.65-.74-.65h-2c-.39,0-.71,.29-.75,.67-.04,.39-.03,1.15,.46,1.87,.14,.21,.31,.38,.5,.55-.17,1.08-1.09,1.91-2.22,1.91-1.24,0-2.25-1.01-2.25-2.25v-5c0-2.34,1.91-4.25,4.25-4.25h2c2.34,0,4.25,1.91,4.25,4.25v5c0,1.24-1.01,2.25-2.25,2.25-1.12,0-2.04-.82-2.21-1.89Zm7.46-1.86c0,.88-.65,1.61-1.5,1.73V6.77c.85,.12,1.5,.85,1.5,1.73v3Z"/><path d="M10.02,7.25h-.01c-.41,0-.74,.34-.74,.75s.34,.75,.75,.75,.75-.34,.75-.75-.34-.75-.75-.75Z"/><path d="M14.02,7.25h0c-.41,0-.75,.34-.75,.75s.34,.75,.75,.75,.75-.34,.75-.75-.33-.75-.75-.75Z"/></g></g></svg>