<?xml version="1.0" encoding="UTF-8"?><svg fill="currentColor" xmlns="http://www.w3.org/2000/svg" viewBox="0 0 24 24"><g id="f"><path d="M19.6,20.23l-1.52-6.83c-.28-1.27-1.39-2.15-2.68-2.15h-2.65v-.5h.75c.69,0,1.25-.56,1.25-1.25V5c0-1.52-1.23-2.75-2.75-2.75s-2.75,1.23-2.75,2.75v4.5c0,.69,.56,1.25,1.25,1.25h.75v.5h-2.65c-1.3,0-2.4,.89-2.68,2.15l-1.52,6.83c-.08,.37,0,.76,.25,1.05,.24,.3,.59,.47,.98,.47h12.75c.38,0,.74-.17,.98-.47,.24-.3,.33-.68,.25-1.05ZM10.75,5c0-.69,.56-1.25,1.25-1.25s1.25,.56,1.25,1.25v4.25h-2.5V5Zm-2.15,7.75h6.79c.59,0,1.09,.4,1.22,.98l.78,3.52H6.6l.78-3.52c.13-.58,.63-.98,1.22-.98Zm-2.67,7.5l.33-1.5h11.46l.33,1.5H5.94Z"/></g></svg>