<?xml version="1.0" encoding="UTF-8"?><svg fill="currentColor" xmlns="http://www.w3.org/2000/svg" viewBox="0 0 24 24"><g id="e"><path d="M21.72,16.67l-.77-4c-.11-.55-.48-.99-.97-1.22,.08-.51,.05-1.17-.34-1.83-.42-.71-1.13-1.19-1.93-1.33-.14-.81-.62-1.52-1.35-1.94-.62-.35-1.26-.39-1.8-.31-.39-1.04-1.4-1.79-2.58-1.79s-2.18,.74-2.58,1.79c-.54-.08-1.18-.04-1.8,.31-.72,.41-1.21,1.13-1.35,1.94-.8,.15-1.51,.63-1.93,1.33-.39,.66-.42,1.32-.34,1.83-.48,.24-.86,.67-.97,1.22l-.77,4c-.1,.51,.04,1.03,.37,1.43,.34,.41,.84,.64,1.37,.64h15.95c.54,0,1.04-.23,1.37-.64,.33-.4,.47-.92,.37-1.43ZM5.65,10.38c.26-.43,.75-.7,1.28-.63,.22,.02,.45-.06,.6-.22,.16-.16,.24-.38,.21-.61-.06-.52,.19-1.02,.63-1.27,.59-.34,1.24,0,1.26,0,.23,.13,.52,.13,.74,0,.23-.13,.37-.38,.37-.65,0-.68,.57-1.25,1.25-1.25s1.25,.57,1.25,1.25c0,.26,.14,.5,.37,.64,.23,.13,.51,.14,.74,.02,.03-.01,.67-.35,1.27,0,.44,.25,.68,.75,.63,1.27-.02,.22,.05,.45,.21,.61,.16,.16,.38,.24,.6,.22,.53-.06,1.03,.2,1.28,.63,.18,.31,.19,.63,.15,.87H5.5c-.04-.24-.03-.56,.15-.87Zm14.55,6.77s-.1,.1-.22,.1H4.02c-.12,0-.19-.06-.22-.1-.03-.04-.07-.11-.05-.19l.77-4c.02-.12,.14-.21,.27-.21h14.42c.13,0,.25,.09,.27,.21l.77,4c.02,.09-.02,.15-.05,.19Z"/></g></svg>