<?xml version="1.0" encoding="UTF-8"?><svg fill="currentColor" xmlns="http://www.w3.org/2000/svg" viewBox="0 0 24 24"><g id="b"><path d="M21.15,6.39l-3.54-3.54c-.47-.47-1.29-.47-1.77,0l-.71,.71c-.24,.24-.37,.55-.37,.88s.13,.65,.37,.88l1.24,1.24-1.77,1.77-.88-.88c-.68-.68-1.79-.68-2.47,0l-5.66,5.66c-1.28,1.28-1.44,3.26-.48,4.72l-2.64,2.64c-.29,.29-.29,.77,0,1.06,.15,.15,.34,.22,.53,.22s.38-.07,.53-.22l2.64-2.64c.62,.41,1.35,.62,2.07,.62,.96,0,1.92-.37,2.65-1.1l2.12-2.12h0l3.53-3.54c.68-.68,.68-1.79,0-2.47l-.88-.88,1.77-1.77,1.24,1.24c.24,.24,.55,.37,.88,.37s.65-.13,.88-.37l.71-.71c.24-.24,.37-.55,.37-.88s-.13-.65-.37-.88Zm-5.66,5.3l-.88,.88-.88-.88c-.29-.29-.77-.29-1.06,0s-.29,.77,0,1.06l.88,.88-1.06,1.06-.88-.88c-.29-.29-.77-.29-1.06,0-.29,.29-.29,.77,0,1.06l.88,.88-1.06,1.06-.88-.88c-.29-.29-.77-.29-1.06,0s-.29,.77,0,1.06l.79,.79c-.84,.4-1.86,.26-2.55-.43-.88-.88-.88-2.31,0-3.18l5.66-5.66c.1-.1,.26-.1,.35,0l2.83,2.83c.1,.1,.1,.26,0,.35Zm4.07-4.07l-3.18-3.18,.35-.35,3.18,3.18-.35,.35Z"/></g></svg>