<?xml version="1.0" encoding="UTF-8"?><svg fill="currentColor" xmlns="http://www.w3.org/2000/svg" viewBox="0 0 24 24"><g id="l"><path d="M18.75,14.37v-5.37c0-.06-.02-.12-.04-.17,.02-.11,.04-.21,.04-.33v-2.5c0-.06-.02-.12-.04-.17,.02-.11,.04-.21,.04-.33,0-2.13-3.65-3.25-7.25-3.25s-7.25,1.12-7.25,3.25c0,.11,.02,.22,.04,.33-.01,.06-.04,.11-.04,.17v2.5c0,1.68,2.27,2.73,5,3.1v8.4c0,.96,.79,1.75,1.75,1.75h1c.96,0,1.75-.79,1.75-1.75V11.6c1.35-.18,2.59-.53,3.5-1.05v3.82c-1.15,.33-2,1.38-2,2.63,0,1.52,1.23,2.75,2.75,2.75s2.75-1.23,2.75-2.75c0-1.25-.85-2.3-2-2.63ZM11.5,3.75c3.57,0,5.75,1.13,5.75,1.75s-2.18,1.75-5.75,1.75-5.75-1.13-5.75-1.75,2.18-1.75,5.75-1.75Zm.75,16.25c0,.14-.11,.25-.25,.25h-1c-.14,0-.25-.11-.25-.25V11.73c.25,.01,.5,.02,.75,.02s.5,0,.75-.02v8.27Zm-.75-9.75c-3.57,0-5.75-1.13-5.75-1.75v-.95c1.4,.79,3.58,1.2,5.75,1.2s4.35-.41,5.75-1.2v.95c0,.62-2.18,1.75-5.75,1.75Zm6.5,8c-.69,0-1.25-.56-1.25-1.25s.56-1.25,1.25-1.25,1.25,.56,1.25,1.25-.56,1.25-1.25,1.25Z"/></g></svg>