<?xml version="1.0" encoding="UTF-8"?><svg fill="currentColor" xmlns="http://www.w3.org/2000/svg" viewBox="0 0 24 24"><g id="k"><path d="M19.19,13.33c.36-.52,.56-1.15,.56-1.83,0-1.79-1.46-3.25-3.25-3.25h-.37c.84-1.42,.68-2.99,.38-4.06-.12-.45-.48-.79-.92-.9-.45-.11-.93,.04-1.24,.38-.73,.79-1.47,1.25-2.08,1.28-.15,0-.56,.01-.99,0-.47-.01-.81-.04-1.06-.07-.5-.04-.87-.08-1.35,.12-.26,.11-1.15,.54-1.48,1.56-.23,.68-.1,1.28,0,1.57,.01,.05,.04,.08,.05,.13-1.76,.04-3.18,1.48-3.18,3.24,0,.68,.21,1.31,.56,1.83-1.46,.32-2.56,1.62-2.56,3.17,0,1.79,1.46,3.25,3.25,3.25h13c1.79,0,3.25-1.46,3.25-3.25,0-1.56-1.1-2.86-2.56-3.17ZM8.8,7.03c.14-.44,.58-.62,.63-.64,.13-.05,.19-.06,.65-.02,.28,.02,.64,.06,1.15,.07,.48,.01,.94,0,1.12,0,.66-.04,1.66-.32,2.81-1.46,.15,.76,.17,1.71-.33,2.52-.17,.28-.41,.53-.68,.74h-4.84c-.15-.08-.4-.26-.5-.58-.02-.08-.1-.34,0-.63Zm-1.3,2.72h9c.96,0,1.75,.79,1.75,1.75s-.79,1.75-1.75,1.75H7.5c-.96,0-1.75-.79-1.75-1.75s.79-1.75,1.75-1.75Zm11,8.5H5.5c-.96,0-1.75-.79-1.75-1.75s.79-1.75,1.75-1.75h13c.96,0,1.75,.79,1.75,1.75s-.79,1.75-1.75,1.75Z"/></g></svg>