<?xml version="1.0" encoding="UTF-8"?><svg fill="currentColor" xmlns="http://www.w3.org/2000/svg" viewBox="0 0 24 24"><g id="d"><path d="M16.25,13.5c0,1.24,1.01,2.25,2.25,2.25s2.25-1.01,2.25-2.25-.94-2.16-2.11-2.24l-.75-4.51h.11c.96,0,1.75-.79,1.75-1.75V3c0-.41-.34-.75-.75-.75H5c-.41,0-.75,.34-.75,.75v2c0,.96,.79,1.75,1.75,1.75h.11l-.75,4.51c-1.18,.07-2.11,1.04-2.11,2.24s1.01,2.25,2.25,2.25,2.25-1.01,2.25-2.25c0-.75-.37-1.41-.94-1.82l.82-4.93h1.61v10.5h-3.25c-.96,0-1.75,.79-1.75,1.75v2c0,.41,.34,.75,.75,.75h14c.41,0,.75-.34,.75-.75v-2c0-.96-.79-1.75-1.75-1.75h-3.25V6.75h1.61l.82,4.93c-.56,.41-.94,1.07-.94,1.82Zm-10.75,.75c-.41,0-.75-.34-.75-.75s.34-.75,.75-.75,.75,.34,.75,.75-.34,.75-.75,.75Zm.25-9.25v-1.25h12.5v1.25c0,.14-.11,.25-.25,.25H6c-.14,0-.25-.11-.25-.25Zm7.5,5.63l-2.5,1.88v-2.13l2.5-1.88v2.13Zm-2.5,3.75l2.5-1.88v2.13l-2.5,1.88v-2.13Zm2.33-7.62l-2.33,1.75v-1.75h2.33Zm5.17,12.25v1.25H5.75v-1.25c0-.14,.11-.25,.25-.25h12c.14,0,.25,.11,.25,.25Zm-6-1.75l1-.75v.75h-1Zm7-3.75c0,.41-.34,.75-.75,.75s-.75-.34-.75-.75,.34-.75,.75-.75,.75,.34,.75,.75Z"/></g></svg>