<?xml version="1.0" encoding="UTF-8"?><svg fill="currentColor" xmlns="http://www.w3.org/2000/svg" viewBox="0 0 24 24"><g id="i"><path d="M14,2.25h-4c-1.52,0-2.75,1.23-2.75,2.75V13c0,.85,.39,1.6,1,2.1v.9c0,.96,.79,1.75,1.75,1.75h1.25v1.01c0,1.05,.58,1.99,1.52,2.46l.9,.45c.11,.05,.22,.08,.33,.08,.28,0,.54-.15,.67-.42,.19-.37,.04-.82-.34-1.01l-.89-.45c-.43-.21-.69-.64-.69-1.12v-1.01h1.25c.96,0,1.75-.79,1.75-1.75v-.9c.61-.5,1-1.26,1-2.1V5c0-1.52-1.23-2.75-2.75-2.75Zm-5.25,2.75c0-.69,.56-1.25,1.25-1.25h4c.69,0,1.25,.56,1.25,1.25v.25h-1.25c-.41,0-.75,.34-.75,.75s.34,.75,.75,.75h1.25v1.5h-1.25c-.41,0-.75,.34-.75,.75s.34,.75,.75,.75h1.25v1.5h-1.25c-.41,0-.75,.34-.75,.75s.34,.75,.75,.75h1.25v.25c0,.69-.56,1.25-1.25,1.25h-4c-.69,0-1.25-.56-1.25-1.25V5Zm5.5,11c0,.14-.11,.25-.25,.25h-4c-.14,0-.25-.11-.25-.25v-.28c.08,0,.16,.03,.25,.03h4c.09,0,.17-.02,.25-.03v.28Z"/></g></svg>