<svg fill="currentColor" xmlns="http://www.w3.org/2000/svg" viewBox="0 0 32 32"><g id="barcode"><path d="M28.12,7H3.88A1.88,1.88,0,0,0,2,8.88V23.12A1.88,1.88,0,0,0,3.88,25H28.12A1.88,1.88,0,0,0,30,23.12V8.88A1.88,1.88,0,0,0,28.12,7ZM28,23H4V9H28Z"/><path d="M10,19a1,1,0,0,0,1-1V11a1,1,0,0,0-2,0v7A1,1,0,0,0,10,19Z"/><path d="M7,22a1,1,0,0,0,1-1V11a1,1,0,0,0-2,0V21A1,1,0,0,0,7,22Z"/><path d="M13,19a1,1,0,0,0,1-1V11a1,1,0,0,0-2,0v7A1,1,0,0,0,13,19Z"/><path d="M19,19a1,1,0,0,0,1-1V11a1,1,0,0,0-2,0v7A1,1,0,0,0,19,19Z"/><path d="M22,19a1,1,0,0,0,1-1V11a1,1,0,0,0-2,0v7A1,1,0,0,0,22,19Z"/><path d="M25,22a1,1,0,0,0,1-1V11a1,1,0,0,0-2,0V21A1,1,0,0,0,25,22Z"/><path d="M16,19a1,1,0,0,0,1-1V11a1,1,0,0,0-2,0v7A1,1,0,0,0,16,19Z"/><path d="M10,20h0a1,1,0,1,0,1,1A1,1,0,0,0,10,20Z"/><path d="M13,20h0a1,1,0,1,0,1,1A1,1,0,0,0,13,20Z"/><path d="M16,20h0a1,1,0,1,0,1,1A1,1,0,0,0,16,20Z"/><path d="M19,20h0a1,1,0,1,0,1,1A1,1,0,0,0,19,20Z"/><path d="M22,20h0a1,1,0,1,0,1,1A1,1,0,0,0,22,20Z"/></g></svg>