<svg fill="currentColor" xmlns="http://www.w3.org/2000/svg" viewBox="0 0 32 32"><g id="barrel"><path d="M15.5,2C10.92,2,6,3.25,6,6V26c0,2.75,4.92,4,9.5,4S25,28.75,25,26V6C25,3.25,20.08,2,15.5,2ZM23,20c0,.29-.93,1-3.13,1.54a4.38,4.38,0,0,0-.22-2.74c-.28-.66-.59-1.34-.9-2A13.19,13.19,0,0,0,23,15.58ZM8,15.58a13.19,13.19,0,0,0,4.25,1.2c-.31.68-.62,1.36-.9,2a4.38,4.38,0,0,0-.22,2.74C8.93,21,8,20.29,8,20Zm5.2,4c.32-.78.67-1.56,1-2.36s.83-1.7,1.26-2.52c.43.82.85,1.67,1.26,2.52s.72,1.58,1,2.36a2.39,2.39,0,0,1-.21,2.3,2.51,2.51,0,0,1-4.18,0A2.39,2.39,0,0,1,13.2,19.58ZM23,13c0,.38-1.52,1.48-5.11,1.87l-.06,0c-.25-.5-.49-1-.75-1.5a1.8,1.8,0,0,0-3.16,0c-.26.49-.5,1-.75,1.5l-.06,0C9.52,14.48,8,13.38,8,13V8.57A17.46,17.46,0,0,0,15.5,10,17.46,17.46,0,0,0,23,8.57ZM15.5,4C20.37,4,23,5.42,23,6s-2.63,2-7.5,2S8,6.58,8,6,10.63,4,15.5,4Zm0,24C10.63,28,8,26.58,8,26V22.55a13,13,0,0,0,4.26,1.23h.17a4.49,4.49,0,0,0,6.12,0h.11A13.23,13.23,0,0,0,23,22.55V26C23,26.58,20.37,28,15.5,28Z"/></g></svg>