<svg fill="currentColor" xmlns="http://www.w3.org/2000/svg" viewBox="0 0 32 32"><g id="box"><path d="M27,2H5.05A3.06,3.06,0,0,0,2,5.05V27A3.06,3.06,0,0,0,5.05,30H27A3.06,3.06,0,0,0,30,27V5.05A3.06,3.06,0,0,0,27,2ZM13,4h6v8H13ZM28,27A1,1,0,0,1,27,28H5.05A1,1,0,0,1,4,27V5.05a1,1,0,0,1,1-1h6v8.26A1.74,1.74,0,0,0,12.74,14h6.52A1.74,1.74,0,0,0,21,12.26V4H27a1,1,0,0,1,1.05,1Z"/><path d="M25,20H20a1,1,0,0,0,0,2h5a1,1,0,0,0,0-2Z"/><path d="M25,24H17a1,1,0,0,0,0,2h8a1,1,0,0,0,0-2Z"/><path d="M9.71,19.29a1,1,0,0,0-.33-.21,1,1,0,0,0-.76,0,1,1,0,0,0-.33.21l-2,2a1,1,0,0,0,1.42,1.42l.29-.3V25a1,1,0,0,0,2,0V22.41l.29.3a1,1,0,0,0,1.42,0,1,1,0,0,0,0-1.42Z"/></g></svg>