<svg fill="currentColor" xmlns="http://www.w3.org/2000/svg" viewBox="0 0 32 32"><g id="calendar"><path d="M26.85,6H26v-1A2.05,2.05,0,0,0,24,3h-1.9A2.05,2.05,0,0,0,20,5.05V6H12v-1A2.05,2.05,0,0,0,10,3H8.05A2.05,2.05,0,0,0,6,5.05V6H5.15A3.15,3.15,0,0,0,2,9.15v17.7A3.15,3.15,0,0,0,5.15,30h21.7A3.15,3.15,0,0,0,30,26.85V9.15A3.15,3.15,0,0,0,26.85,6ZM24,5.05V8L22,8l.05-3Zm-14,0V8L8,8l.05-3ZM5.15,8H6V8a2,2,0,0,0,2,2H10a2,2,0,0,0,2-2V8h8V8a2,2,0,0,0,2,2H24a2,2,0,0,0,2-2V8h.85A1.16,1.16,0,0,1,28,9.15V12H4V9.15A1.16,1.16,0,0,1,5.15,8Zm21.7,20H5.15A1.16,1.16,0,0,1,4,26.85V14H28V26.85A1.16,1.16,0,0,1,26.85,28Z"/><path d="M14.58,16.19a1,1,0,0,0-.9-.14l-3,1a1,1,0,1,0,.64,1.9L13,18.39V25a1,1,0,0,0,2,0V17A1,1,0,0,0,14.58,16.19Z"/><path d="M19,16a3,3,0,0,0-3,3v4a3,3,0,0,0,6,0V19A3,3,0,0,0,19,16Zm1,7a1,1,0,0,1-2,0V19a1,1,0,0,1,2,0Z"/></g></svg>