<svg fill="currentColor" xmlns="http://www.w3.org/2000/svg" viewBox="0 0 32 32"><g id="clipboard"><path d="M23.67,4H21V4a2,2,0,0,0-2-2H13a2,2,0,0,0-2,2V4H8.33A2.33,2.33,0,0,0,6,6.33V27.67A2.33,2.33,0,0,0,8.33,30H23.67A2.33,2.33,0,0,0,26,27.67V6.33A2.33,2.33,0,0,0,23.67,4ZM19,4V6H13l0-2Zm5,23.7a.33.33,0,0,1-.33.33H8.33A.33.33,0,0,1,8,27.67V6.33A.33.33,0,0,1,8.33,6H11V7a1,1,0,0,0,1,1h8a1,1,0,0,0,1-1V6h2.67a.33.33,0,0,1,.33.33Z"/><path d="M12,11H11a1,1,0,0,0,0,2h1a1,1,0,0,0,0-2Z"/><path d="M21,11H15a1,1,0,0,0,0,2h6a1,1,0,0,0,0-2Z"/><path d="M12,15H11a1,1,0,0,0,0,2h1a1,1,0,0,0,0-2Z"/><path d="M21,15H15a1,1,0,0,0,0,2h6a1,1,0,0,0,0-2Z"/><path d="M12,19H11a1,1,0,0,0,0,2h1a1,1,0,0,0,0-2Z"/><path d="M21,19H15a1,1,0,0,0,0,2h6a1,1,0,0,0,0-2Z"/><path d="M12,23H11a1,1,0,0,0,0,2h1a1,1,0,0,0,0-2Z"/><path d="M21,23H15a1,1,0,0,0,0,2h6a1,1,0,0,0,0-2Z"/></g></svg>