<svg fill="currentColor" xmlns="http://www.w3.org/2000/svg" viewBox="0 0 32 32"><g id="compass"><path d="M17,6.05V4h2a1,1,0,0,0,0-2H13a1,1,0,0,0,0,2h2V6.05a12,12,0,1,0,2,0ZM16,28A10,10,0,1,1,26,18,10,10,0,0,1,16,28Z"/><path d="M22.37,12.68A1,1,0,0,0,21,11.34l-6,3.81a.74.74,0,0,0-.13.12,3.17,3.17,0,0,0-.89.58A3,3,0,0,0,13.17,17a0,0,0,0,1,0,0l-3.53,6.3a1,1,0,0,0,.18,1.22,1,1,0,0,0,.69.27,1,1,0,0,0,.53-.15l6.21-3.83a1.2,1.2,0,0,0,.23-.22,2.64,2.64,0,0,0,.58-.43h0a2.94,2.94,0,0,0,.73-1.11l.09-.12ZM18.21,16l-.06-.08a3.56,3.56,0,0,0-.31-.26l.87-.55ZM15.29,17.3A1,1,0,0,1,16,17a1,1,0,0,1,.72.31A.94.94,0,0,1,17,18a1,1,0,0,1-.31.7,1,1,0,1,1-1.38-1.44ZM13.77,20a.21.21,0,0,0,0,.06,4.38,4.38,0,0,0,.34.29l-.89.55Z"/><path d="M16,12a1,1,0,0,0,1-1V10a1,1,0,0,0-2,0v1A1,1,0,0,0,16,12Z"/><path d="M16,24a1,1,0,0,0-1,1v1a1,1,0,0,0,2,0V25A1,1,0,0,0,16,24Z"/><path d="M24,17H23a1,1,0,0,0,0,2h1a1,1,0,0,0,0-2Z"/><path d="M10,18a1,1,0,0,0-1-1H8a1,1,0,0,0,0,2H9A1,1,0,0,0,10,18Z"/></g></svg>