<svg fill="currentColor" xmlns="http://www.w3.org/2000/svg" viewBox="0 0 32 32"><g id="container"><path d="M24.56,16h-.18L18,10.46a2.49,2.49,0,0,0,1-2V7.93a2.49,2.49,0,0,0-1.38-2.24L17,5.38V4h2a1,1,0,0,0,0-2H13a1,1,0,0,0,0,2h2V6a1,1,0,0,0,.55.89l1.17.59a.5.5,0,0,1,.28.45V8.5a.5.5,0,0,1-1,0,1,1,0,0,0-2,0A2.44,2.44,0,0,0,14.5,10L7.62,16H7.44A2.44,2.44,0,0,0,5,18.44v9.12A2.44,2.44,0,0,0,7.44,30H24.56A2.44,2.44,0,0,0,27,27.56V18.44A2.44,2.44,0,0,0,24.56,16ZM16,11.33,21.34,16H10.66Zm9,16.23a.44.44,0,0,1-.44.44H7.44A.44.44,0,0,1,7,27.56V18.44A.44.44,0,0,1,7.44,18H24.56a.44.44,0,0,1,.44.44Z"/><path d="M11,20a1,1,0,0,0-1,1v4a1,1,0,0,0,2,0V21A1,1,0,0,0,11,20Z"/><path d="M16,20a1,1,0,0,0-1,1v4a1,1,0,0,0,2,0V21A1,1,0,0,0,16,20Z"/><path d="M21,20a1,1,0,0,0-1,1v4a1,1,0,0,0,2,0V21A1,1,0,0,0,21,20Z"/></g></svg>