<svg fill="currentColor" xmlns="http://www.w3.org/2000/svg" viewBox="0 0 32 32"><g id="delivery_truck" data-name="delivery truck"><path d="M28,15H26.62l-1.39-2.77a2.21,2.21,0,0,0-2-1.23H20V8a2,2,0,0,0-2-2H4A2,2,0,0,0,2,8V21a1,1,0,0,0,1,1H5a3,3,0,0,0,6,0h9a3,3,0,0,0,6,0h3a1,1,0,0,0,1-1V17A2,2,0,0,0,28,15ZM8,23a1,1,0,1,1,1-1A1,1,0,0,1,8,23Zm2.22-3a3,3,0,0,0-4.44,0H4V8H18V20ZM23,23a1,1,0,1,1,1-1A1,1,0,0,1,23,23Zm5-3H25.22a3,3,0,0,0-4.44,0H20V13h3.25a.21.21,0,0,1,.19.12l1.67,3.33A1,1,0,0,0,26,17h2Z"/><path d="M13.38,10H8.62A1.62,1.62,0,0,0,7,11.62v4.76A1.62,1.62,0,0,0,8.62,18h4.76A1.62,1.62,0,0,0,15,16.38V11.62A1.62,1.62,0,0,0,13.38,10ZM13,16H9V12h1v1a1,1,0,0,0,2,0V12h1Z"/></g></svg>