<svg fill="currentColor" xmlns="http://www.w3.org/2000/svg" viewBox="0 0 32 32"><g id="document"><path d="M25,20.1v-16A2.08,2.08,0,0,0,22.92,2H8.08A2.08,2.08,0,0,0,6,4.08V20.35a2.57,2.57,0,0,0,.76,1.82l3.07,3.07a2.55,2.55,0,0,0,1.82.76H19.1A5,5,0,1,0,25,20.1ZM8.41,21H11v2.59ZM12,19H8V4.08A.09.09,0,0,1,8.08,4H22.92a.09.09,0,0,1,.08.08v16A5,5,0,0,0,19.1,24H13V20A1,1,0,0,0,12,19Zm12,9a3,3,0,1,1,3-3A3,3,0,0,1,24,28Z"/><path d="M13,8h5a1,1,0,0,0,0-2H13a1,1,0,0,0,0,2Z"/><path d="M11,12h9a1,1,0,0,0,0-2H11a1,1,0,0,0,0,2Z"/><path d="M21,15a1,1,0,0,0-1-1H11a1,1,0,0,0,0,2h9A1,1,0,0,0,21,15Z"/><path d="M25.45,23.11a1,1,0,0,0-1.34.44l-.38.76,0,0a1,1,0,0,0-1.42,1.42l1,1A1,1,0,0,0,24,27h.16a1,1,0,0,0,.73-.54l1-2A1,1,0,0,0,25.45,23.11Z"/></g></svg>