<svg fill="currentColor" xmlns="http://www.w3.org/2000/svg" viewBox="0 0 32 32"><g id="exchange"><path d="M21,12a9.45,9.45,0,0,0-1.07.07A9.45,9.45,0,0,0,20,11a9,9,0,1,0-9,9,9.61,9.61,0,0,0,1.07-.07A9.45,9.45,0,0,0,12,21a9,9,0,1,0,9-9ZM11,18a7,7,0,1,1,6.81-5.41,9,9,0,0,0-5.21,5.22A7.21,7.21,0,0,1,11,18ZM21,28a7,7,0,1,1,7-7A7,7,0,0,1,21,28Z"/><path d="M11.5,10h-1a.5.5,0,0,1,0-1H12a1,1,0,0,0,0-2H10.5a2.5,2.5,0,0,0,0,5h1a.5.5,0,0,1,0,1H10a1,1,0,0,0,0,2h1.5a2.5,2.5,0,0,0,0-5Z"/><path d="M23,20H20.29A2,2,0,0,1,22,19a1,1,0,0,0,0-2,4,4,0,0,0-3.86,3H18a1,1,0,0,0,0,2h.14A4,4,0,0,0,22,25a1,1,0,0,0,0-2,2,2,0,0,1-1.71-1H23a1,1,0,0,0,0-2Z"/></g></svg>