<svg fill="currentColor" xmlns="http://www.w3.org/2000/svg" viewBox="0 0 32 32"><g id="fast"><path d="M29.75,22.35,27.16,5.94A2.28,2.28,0,0,0,24.89,4H7.52A2.29,2.29,0,0,0,5.25,6.65L6.09,12H3a1,1,0,0,0,0,2H6.41l.31,2H5a1,1,0,0,0,0,2H7l.32,2H3a1,1,0,0,0,0,2H7.67l.17,1.06A2.26,2.26,0,0,0,10.05,25,3.48,3.48,0,0,0,17,25h4.1A3.48,3.48,0,0,0,28,25a2.25,2.25,0,0,0,1.28-.75A2.28,2.28,0,0,0,29.75,22.35ZM18.29,6l1.36,4H14.72L13.39,6ZM9.81,22.75,9.06,18H14a1,1,0,0,0,0-2H8.75l-.32-2H11a1,1,0,0,0,0-2H8.12l-.9-5.66a.36.36,0,0,1,.07-.24A.31.31,0,0,1,7.52,6h3.76l1.56,4.69A1.92,1.92,0,0,0,14.66,12h5.08a1.9,1.9,0,0,0,1.81-2.51L20.39,6h4.5a.3.3,0,0,1,.3.25l2.59,16.41a.36.36,0,0,1-.07.24l-.08.06a3.48,3.48,0,0,0-6.28,0h-4.7a3.48,3.48,0,0,0-6.32,0,1.7,1.7,0,0,0-.22,0A.31.31,0,0,1,9.81,22.75ZM13.5,26A1.5,1.5,0,1,1,15,24.5,1.5,1.5,0,0,1,13.5,26Zm11,0A1.5,1.5,0,1,1,26,24.5,1.5,1.5,0,0,1,24.5,26Z"/></g></svg>