<svg fill="currentColor" xmlns="http://www.w3.org/2000/svg" viewBox="0 0 32 32"><g id="invoice"><path d="M28.29,7H3.71A1.72,1.72,0,0,0,2,8.71V24.29A1.72,1.72,0,0,0,3.71,26H28.29A1.72,1.72,0,0,0,30,24.29V8.71A1.72,1.72,0,0,0,28.29,7Zm-4.47,7a3,3,0,0,0-5.64,0H7.84a.45.45,0,0,1-.39-.23L4.72,9H27.28l-2.73,4.77a.45.45,0,0,1-.39.23ZM21,16a1,1,0,1,1,1-1A1,1,0,0,1,21,16ZM4,24V11.77l1.71,3A2.46,2.46,0,0,0,7.84,16H18.18l.12.29h0l-2,2a1,1,0,0,0,0,1.42,1,1,0,0,0,1.42,0l2-2h0a2.92,2.92,0,0,0,2.58,0h0l2,2a1,1,0,0,0,1.42,0,1,1,0,0,0,0-1.42l-2-2h0l.12-.29h.34a2.45,2.45,0,0,0,2.13-1.24l1.71-3V24Z"/></g></svg>