<svg fill="currentColor" xmlns="http://www.w3.org/2000/svg" viewBox="0 0 32 32"><g id="kilogram"><path d="M29.28,23.83,26.41,11.62A3.39,3.39,0,0,0,23.1,9H22V7.46A3.46,3.46,0,0,0,18.54,4H13.46A3.46,3.46,0,0,0,10,7.46V9H8.9a3.38,3.38,0,0,0-3.31,2.62L2.72,23.83A3.39,3.39,0,0,0,6,28H26a3.39,3.39,0,0,0,3.31-4.17ZM12,7.46A1.47,1.47,0,0,1,13.46,6h5.08A1.47,1.47,0,0,1,20,7.46V9H12Zm15.07,18A1.39,1.39,0,0,1,26,26H6a1.39,1.39,0,0,1-1.1-.53,1.38,1.38,0,0,1-.26-1.19l2.87-12.2A1.39,1.39,0,0,1,8.9,11H23.1a1.39,1.39,0,0,1,1.36,1.08l2.87,12.2A1.41,1.41,0,0,1,27.07,25.47Z"/><path d="M14.8,15.4a1,1,0,0,0-1.4-.2L11,17V16a1,1,0,0,0-2,0v6a1,1,0,0,0,2,0V21l2.4,1.8a1,1,0,0,0,.6.2,1,1,0,0,0,.8-.4,1,1,0,0,0-.2-1.4L11.67,19l2.93-2.2A1,1,0,0,0,14.8,15.4Z"/><path d="M19.46,17H22a1,1,0,0,0,0-2H19.46A2.46,2.46,0,0,0,17,17.46v3.08A2.46,2.46,0,0,0,19.46,23H22a1,1,0,0,0,1-1V19a1,1,0,0,0-1-1H21a1,1,0,0,0,0,2v1H19.46a.47.47,0,0,1-.46-.46V17.46A.47.47,0,0,1,19.46,17Z"/></g></svg>