<svg fill="currentColor" xmlns="http://www.w3.org/2000/svg" viewBox="0 0 32 32"><g id="location"><path d="M13.32,9.9a16.7,16.7,0,0,0,1.95,2.92,1,1,0,0,0,1.54,0,16.7,16.7,0,0,0,2-2.92,17.46,17.46,0,0,0,1.12-2.63A4,4,0,0,0,16,2,4,4,0,0,0,12.2,7.28,17.8,17.8,0,0,0,13.32,9.9Zm1.06-5.05a2,2,0,0,1,3.31,0A2,2,0,0,1,18,6.65,15.3,15.3,0,0,1,17,9,13.94,13.94,0,0,1,16,10.53,13.94,13.94,0,0,1,15.09,9a15.3,15.3,0,0,1-1-2.31A2,2,0,0,1,14.38,4.85Z"/><path d="M27.89,18.55l-2-4A1,1,0,0,0,25,14H7a1,1,0,0,0-.89.55l-2,4a1,1,0,0,0,0,.85,1,1,0,0,0,.65.56L6,20.33v5.91a2,2,0,0,0,1.5,1.91L14.76,30A1,1,0,0,0,15,30l.2,0,9.21-1.84A2,2,0,0,0,26,26.2V20.25L27.22,20a1,1,0,0,0,.68-.55A1,1,0,0,0,27.89,18.55ZM24.38,16l1.15,2.3-7,1.55L16.62,16ZM7.62,16h5.76l-1.9,3.81L6.43,18.37ZM8,20.9,11.73,22A.84.84,0,0,0,12,22a1,1,0,0,0,.89-.55L14,19.24v8.48L8,26.24Zm16,5.28-8,1.6V19.24l1.11,2.21A1,1,0,0,0,18,22l.22,0L24,20.69Z"/><path d="M16,7a1,1,0,0,0,0-2h0a1,1,0,0,0,0,2Z"/></g></svg>