<svg fill="currentColor" xmlns="http://www.w3.org/2000/svg" viewBox="0 0 32 32"><g id="mailbox"><path d="M23,4H12A7,7,0,0,0,5.3,9H3.63A1.63,1.63,0,0,0,2,10.63v5.75A1.63,1.63,0,0,0,3.63,18H5v1.42A1.58,1.58,0,0,0,6.58,21H14v7a1,1,0,0,0,1,1h5a1,1,0,0,0,1-1V21h7.42A1.58,1.58,0,0,0,30,19.42V11A7.05,7.05,0,0,0,23,4ZM10.33,11,8,12.75,5.67,11ZM4,12.25,7.4,14.8a1,1,0,0,0,1.2,0L12,12.25V16H4ZM7,18h5.38A1.63,1.63,0,0,0,14,16.38V10.63A1.63,1.63,0,0,0,12.38,9h-5A5,5,0,0,1,17,11v8H7Zm12,9H16V21h3Zm9-8H19V11a7,7,0,0,0-2.11-5H23a5,5,0,0,1,5,5Z"/></g></svg>