<svg fill="currentColor" xmlns="http://www.w3.org/2000/svg" viewBox="0 0 32 32"><g id="pallet"><path d="M4.06,19H14.94A2.06,2.06,0,0,0,17,16.94V7.06A2.06,2.06,0,0,0,14.94,5H4.06A2.06,2.06,0,0,0,2,7.06v9.88A2.06,2.06,0,0,0,4.06,19ZM8,7l3,0v3H8ZM4.06,7H6v4a1,1,0,0,0,1,1h5a1,1,0,0,0,1-1V7.05h2v9.88a.06.06,0,0,1-.06.06L4,16.94Z"/><path d="M27,21H5a3,3,0,0,0-3,3v2a1,1,0,0,0,2,0V24a1,1,0,0,1,1-1H27a1,1,0,0,1,1,1v2a1,1,0,0,0,2,0V24A3,3,0,0,0,27,21Z"/><path d="M23.29,17.71a1,1,0,0,0,1.42,0l3-3a1,1,0,0,0-1.42-1.42L25,14.59V7a1,1,0,0,0-2,0v7.59l-1.29-1.3a1,1,0,0,0-1.42,1.42Z"/></g></svg>