<svg fill="currentColor" xmlns="http://www.w3.org/2000/svg" viewBox="0 0 32 32"><g id="phone_call" data-name="phone call"><path d="M19.14,24.87a7.6,7.6,0,0,0,2.8-.53,7,7,0,0,0,2.38-1.54,2,2,0,0,0,0-2.81l-2.26-2.3a1.94,1.94,0,0,0-1.4-.59,1.88,1.88,0,0,0-1.41.57,3.16,3.16,0,0,1-1.59.84A1.68,1.68,0,0,1,16.16,18L14,15.85a1.73,1.73,0,0,1-.45-1.53,3.24,3.24,0,0,1,.86-1.58,2,2,0,0,0,.6-1.4,2,2,0,0,0-.58-1.41L12.17,7.64a2,2,0,0,0-1.4-.6h0a2,2,0,0,0-1.39.58A7.11,7.11,0,0,0,7.78,10a7.68,7.68,0,0,0,1.65,8.31l4.22,4.29A7.7,7.7,0,0,0,19.14,24.87ZM9.63,10.72A5.15,5.15,0,0,1,10.75,9L13,11.32a5.06,5.06,0,0,0-1.41,2.59,3.65,3.65,0,0,0,1,3.34l2.15,2.19a3.67,3.67,0,0,0,3.33,1,4.93,4.93,0,0,0,2.59-1.38l2.27,2.28a5,5,0,0,1-1.71,1.11,5.68,5.68,0,0,1-6.13-1.31l-4.23-4.29A5.71,5.71,0,0,1,9.63,10.72Z"/><path d="M26.71,7H28a1,1,0,0,0,0-2H24a1,1,0,0,0-1,1v4a1,1,0,0,0,2,0V8.08A12,12,0,0,1,16,28a11.81,11.81,0,0,1-3.69-.58,1,1,0,0,0-.62,1.9A14,14,0,0,0,26.71,7Z"/><path d="M8,21a1,1,0,0,0-1,1v1.92A12,12,0,0,1,16,4a11.81,11.81,0,0,1,3.69.58,1,1,0,0,0,.62-1.9A14,14,0,0,0,5.29,25H4a1,1,0,0,0,0,2H8a1,1,0,0,0,1-1V22A1,1,0,0,0,8,21Z"/></g></svg>