<svg fill="currentColor" xmlns="http://www.w3.org/2000/svg" viewBox="0 0 32 32"><g id="pin"><path d="M29.81,25.62,28.12,13.79A2.09,2.09,0,0,0,26.06,12h-5c.08-.22.17-.43.25-.65a5.63,5.63,0,1,0-10.7,0c.07.22.17.43.25.65h-5a2.09,2.09,0,0,0-2.06,1.79L2.19,25.62A2.07,2.07,0,0,0,4.25,28h23.5a2.07,2.07,0,0,0,2.06-2.38ZM13.05,7.51a3.64,3.64,0,0,1,5.9,0,3.54,3.54,0,0,1,.5,3.21,24,24,0,0,1-1.53,3.61,23.65,23.65,0,0,1-1.92,3,23.65,23.65,0,0,1-1.92-3,24,24,0,0,1-1.53-3.61A3.54,3.54,0,0,1,13.05,7.51ZM27.75,26H4.25l-.08-.09L5.86,14.07A.08.08,0,0,1,5.94,14h5.77c.2.43.39.85.61,1.27a25.75,25.75,0,0,0,2.91,4.37,1,1,0,0,0,1.54,0,25.75,25.75,0,0,0,2.91-4.37c.22-.42.41-.84.61-1.27h5.77a.08.08,0,0,1,.08.07l1.69,11.84Z"/><circle cx="16" cy="10" r="2"/></g></svg>