<svg fill="currentColor" xmlns="http://www.w3.org/2000/svg" viewBox="0 0 32 32"><g id="shield"><path d="M26.11,3.63a32.37,32.37,0,0,0-20.27,0A2.7,2.7,0,0,0,4,6.21v7.67A15,15,0,0,0,10.17,26l5.24,3.81a1,1,0,0,0,1.18,0L21.83,26A15,15,0,0,0,28,13.88V6.21A2.72,2.72,0,0,0,26.11,3.63ZM26,13.88a13,13,0,0,1-5.35,10.5L16,27.76l-4.65-3.38A13,13,0,0,1,6,13.88V6.21a.69.69,0,0,1,.47-.67,30.23,30.23,0,0,1,19,0,.73.73,0,0,1,.51.68Z"/><path d="M22.1,7A20.19,20.19,0,0,0,9.89,7,2.71,2.71,0,0,0,8,9.54v4.69a10.47,10.47,0,0,0,4.06,8.31l3.34,2.53a1,1,0,0,0,1.2,0l3.34-2.53A10.47,10.47,0,0,0,24,14.23V9.54A2.7,2.7,0,0,0,22.1,7ZM22,14.23a8.42,8.42,0,0,1-3.27,6.71L16,23l-2.73-2.08A8.42,8.42,0,0,1,10,14.23V9.54a.7.7,0,0,1,.5-.68,18,18,0,0,1,11,0,.72.72,0,0,1,.5.68Z"/><path d="M19.51,11.14a1,1,0,0,0-1.37.35l-2.34,3.9-2.09-2.1a1,1,0,0,0-1.42,1.42l3,3A1,1,0,0,0,16,18h.12a1,1,0,0,0,.74-.48l3-5A1,1,0,0,0,19.51,11.14Z"/></g></svg>