<svg fill="currentColor" xmlns="http://www.w3.org/2000/svg" viewBox="0 0 32 32"><g id="statistics"><path d="M9,13H5a2,2,0,0,0-2,2V28a2,2,0,0,0,2,2H9a2,2,0,0,0,2-2V15A2,2,0,0,0,9,13ZM9,28H5V15H9Zm0,1V28H9Z"/><path d="M18,10H14a2,2,0,0,0-2,2V28a2,2,0,0,0,2,2h4a2,2,0,0,0,2-2V12A2,2,0,0,0,18,10Zm0,18H14V12h4Zm0,1V28h0Z"/><path d="M27,13H23a2,2,0,0,0-2,2V28a2,2,0,0,0,2,2h4a2,2,0,0,0,2-2V15A2,2,0,0,0,27,13Zm0,15H23V15h4Zm0,1V28h0Z"/><path d="M30,5a.78.78,0,0,0,0-.21.85.85,0,0,0-.06-.17.65.65,0,0,0-.1-.15,1,1,0,0,0-.13-.16l0,0-.12-.06a.76.76,0,0,0-.18-.09.48.48,0,0,0-.2,0A.61.61,0,0,0,29,4H25a1,1,0,0,0,0,2h1.93L24.76,8.72,17,4.39a2,2,0,0,0-1.92,0L7.18,8.77,3.71,5.29A1,1,0,0,0,2.29,6.71l3.48,3.47a2,2,0,0,0,1.4.58,2,2,0,0,0,1-.24L16,6.14l7.8,4.33A2,2,0,0,0,26.3,10L28,7.85V9a1,1,0,0,0,2,0V5S30,5,30,5Z"/></g></svg>