<svg fill="currentColor" xmlns="http://www.w3.org/2000/svg" viewBox="0 0 32 32"><g id="storage"><path d="M29,2a1,1,0,0,0-1,1V13H27V7a1,1,0,0,0-1-1H18a1,1,0,0,0-1,1v6H15V7a1,1,0,0,0-1-1H6A1,1,0,0,0,5,7v6H4V3A1,1,0,0,0,2,3V29a1,1,0,0,0,2,0V27H28v2a1,1,0,0,0,2,0V3A1,1,0,0,0,29,2ZM19,8h2V9a1,1,0,0,0,2,0V8h2v5H19ZM7,8H9V9a1,1,0,0,0,2,0V8h2v5H7ZM7,25V20H9v1a1,1,0,0,0,2,0V20h2v5Zm12,0V20h2v1a1,1,0,0,0,2,0V20h2v5Zm8,0V19a1,1,0,0,0-1-1H18a1,1,0,0,0-1,1v6H15V19a1,1,0,0,0-1-1H6a1,1,0,0,0-1,1v6H4V15H28V25Z"/></g></svg>