<svg fill="currentColor" xmlns="http://www.w3.org/2000/svg" viewBox="0 0 32 32"><g id="trolley"><path d="M14.06,22H24.94A2.06,2.06,0,0,0,27,19.94V10.06A2.06,2.06,0,0,0,24.94,8H14.06A2.06,2.06,0,0,0,12,10.06v9.88A2.06,2.06,0,0,0,14.06,22ZM18,10l3,0v3H18Zm-3.94,0H16v4a1,1,0,0,0,1,1h5a1,1,0,0,0,1-1V10.05h2v9.88a.06.06,0,0,1-.06.06L14,19.94Z"/><path d="M29,24H14.38A4.38,4.38,0,0,1,10,19.63V8.44a5.9,5.9,0,0,0-2.35-4.7L5.6,2.2A1,1,0,0,0,4.4,3.8L6.45,5.34A3.89,3.89,0,0,1,8,8.44V19.63A6.38,6.38,0,0,0,14.38,26H29a1,1,0,0,0,0-2Z"/><path d="M7,24a3,3,0,1,0,3,3A3,3,0,0,0,7,24Zm0,4a1,1,0,1,1,1-1A1,1,0,0,1,7,28Z"/></g></svg>