<svg fill="currentColor" xmlns="http://www.w3.org/2000/svg" viewBox="0 0 32 32"><g id="weight"><path d="M10.82,15H21.18A1.83,1.83,0,0,0,23,13.18V3.82A1.83,1.83,0,0,0,21.18,2H10.82A1.83,1.83,0,0,0,9,3.82v9.36A1.83,1.83,0,0,0,10.82,15ZM17,4V7H15V4ZM11,4h2V8a1,1,0,0,0,1,1h4a1,1,0,0,0,1-1V4h2v9H11Z"/><path d="M28,26.73l-2-7A1,1,0,0,0,25,19H17V18h4.8a5.11,5.11,0,0,0,4.25-2.27l.78-1.18a1,1,0,1,0-1.66-1.1l-.78,1.17A3.13,3.13,0,0,1,21.8,16H10.2a3.13,3.13,0,0,1-2.59-1.38l-.78-1.17a1,1,0,0,0-1.66,1.1L6,15.73A5.11,5.11,0,0,0,10.2,18H15v1H7a1,1,0,0,0-1,.73l-2,7a1,1,0,0,0,.16.87A1,1,0,0,0,5,28H7v1a1,1,0,0,0,2,0V28H23v1a1,1,0,0,0,2,0V28h2a1,1,0,0,0,.8-.4A1,1,0,0,0,28,26.73ZM6.33,26l1.42-5h16.5l1.42,5Z"/></g></svg>