<svg fill="currentColor" xmlns="http://www.w3.org/2000/svg" viewBox="0 0 32 32"><g id="worldwide_delivery" data-name="worldwide delivery"><path d="M30,16A11,11,0,0,0,19,5H19a11,11,0,0,0-4.55,21,10.55,10.55,0,0,1-8.68-4.44c-3-4.43-2-10.7,2.26-14.31V8a1,1,0,0,0,2,0V5A1,1,0,0,0,9,4H6A1,1,0,0,0,6,6h.36A12.94,12.94,0,0,0,4.09,22.68,12.58,12.58,0,0,0,14.5,28a13.2,13.2,0,0,0,4.87-.93.65.65,0,0,0,.15-.1A11,11,0,0,0,30,16ZM10.06,17h4a15.89,15.89,0,0,0,.42,2.7A15.54,15.54,0,0,0,11.5,21,9,9,0,0,1,10.06,17Zm1.44-6h0a16.07,16.07,0,0,0,2.94,1.26A16.07,16.07,0,0,0,14,15h-4A8.93,8.93,0,0,1,11.5,11Zm16.44,4H24a15.31,15.31,0,0,0-.43-2.7,16.29,16.29,0,0,0,2.95-1.23l0,0A9,9,0,0,1,27.94,15ZM19,19a15,15,0,0,0-2.6.23A12.82,12.82,0,0,1,16,17H22a13.92,13.92,0,0,1-.36,2.25A15.49,15.49,0,0,0,19,19Zm2,2.16a14.23,14.23,0,0,1-2,3.32,14.32,14.32,0,0,1-2-3.33A12.74,12.74,0,0,1,19,21,13.27,13.27,0,0,1,21,21.16ZM16,15a14.09,14.09,0,0,1,.37-2.23A14.85,14.85,0,0,0,19,13a14.86,14.86,0,0,0,2.59-.24A14,14,0,0,1,22,15Zm1-4.16a13.17,13.17,0,0,1,2-3.32,13.17,13.17,0,0,1,2,3.32A13.27,13.27,0,0,1,19,11,12.74,12.74,0,0,1,17,10.84Zm5.89-.46a15,15,0,0,0-1.6-3.06,8.86,8.86,0,0,1,3.85,2.16A13.19,13.19,0,0,1,22.93,10.38Zm-7.86,0a14.82,14.82,0,0,1-2.24-.91,9,9,0,0,1,3.84-2.15A15,15,0,0,0,15.07,10.38Zm0,11.22a16.39,16.39,0,0,0,1.62,3.09,9,9,0,0,1-3.86-2.17A14.87,14.87,0,0,1,15.06,21.6Zm7.87,0a14.15,14.15,0,0,1,2.25.91,9,9,0,0,1-3.86,2.17A16,16,0,0,0,22.93,21.61Zm.61-1.9A15.84,15.84,0,0,0,24,17h4a8.93,8.93,0,0,1-1.44,4A15.83,15.83,0,0,0,23.54,19.71Z"/></g></svg>