<?xml version="1.0" encoding="UTF-8"?><svg fill="currentColor" xmlns="http://www.w3.org/2000/svg" viewBox="0 0 24 24"><g id="j"><g><polygon points="14.75 15.69 15.31 16.25 18.25 16.25 18.25 14.75 14.75 14.75 14.75 15.69"/><polygon points="5.75 16.25 8.69 16.25 9.25 15.69 9.25 14.75 5.75 14.75 5.75 16.25"/><path d="M21.73,11.9s0-.07,0-.1l-1.71-6c-.13-.46-.45-.84-.87-1.07-.43-.23-.91-.26-1.37-.11l-2.01,.67c-.39,.13-.6,.56-.47,.95,.13,.39,.56,.6,.95,.47l2.01-.67c.09-.03,.16,0,.2,.02s.1,.06,.12,.15l1.44,5.04H3.99l1.44-5.04c.03-.09,.09-.13,.12-.15,.04-.02,.11-.05,.2-.02l2.01,.67c.39,.13,.82-.08,.95-.47,.13-.39-.08-.82-.47-.95l-2.01-.67c-.46-.15-.94-.11-1.37,.11-.42,.22-.74,.61-.87,1.07l-1.71,6s0,.07,0,.1c0,.03-.02,.07-.02,.1v5c0,1.52,1.23,2.75,2.75,2.75h4.17c.73,0,1.43-.29,1.94-.81l.88-.88,.88,.88c.52,.52,1.21,.81,1.94,.81h4.17c1.52,0,2.75-1.23,2.75-2.75v-5s-.02-.07-.02-.1Zm-10.98,3.89c0,.33-.13,.65-.37,.88l-.71,.71c-.23,.23-.55,.37-.88,.37h-3.29c-.69,0-1.25-.56-1.25-1.25v-2c0-.69,.56-1.25,1.25-1.25h4c.69,0,1.25,.56,1.25,1.25v1.29Zm9,.71c0,.69-.56,1.25-1.25,1.25h-3.29c-.33,0-.65-.13-.88-.37l-.71-.71c-.24-.24-.37-.55-.37-.88v-1.29c0-.69,.56-1.25,1.25-1.25h4c.69,0,1.25,.56,1.25,1.25v2Z"/></g></g></svg>