<?xml version="1.0" encoding="UTF-8"?><svg fill="currentColor" xmlns="http://www.w3.org/2000/svg" viewBox="0 0 24 24"><g id="f"><g><path d="M13.82,2.76c-.33-.33-.77-.51-1.24-.51H4c-.96,0-1.75,.79-1.75,1.75v6c0,.96,.79,1.75,1.75,1.75H14c.96,0,1.75-.79,1.75-1.75V5.41c0-.46-.19-.91-.51-1.24l-1.41-1.41Zm-4.82,4.99h-3c-.41,0-.75-.34-.75-.75s.34-.75,.75-.75h3c.41,0,.75,.34,.75,.75s-.34,.75-.75,.75Z"/><path d="M20,3.25h-1.84c-.19,0-.37,.03-.55,.09l-.89,.3c.34,.53,.53,1.15,.53,1.78v4.59c0,.18-.02,.35-.05,.52l.41,.14c.18,.06,.37,.09,.55,.09h1.84c.96,0,1.75-.79,1.75-1.75V5c0-.96-.79-1.75-1.75-1.75Z"/><path d="M11,14.43c.39-.27,.65-.7,.72-1.18H6.28c.07,.49,.33,.91,.72,1.18l-2.69,6.27c-.16,.38,.01,.82,.39,.99,.38,.16,.82-.01,.98-.39l2.56-5.98v5.68c0,.41,.34,.75,.75,.75s.75-.34,.75-.75v-5.68l2.56,5.97c.12,.28,.4,.45,.69,.45,.1,0,.2-.02,.29-.06,.38-.16,.56-.6,.39-.99l-2.69-6.27Z"/></g></g></svg>