<?xml version="1.0" encoding="UTF-8"?><svg fill="currentColor" xmlns="http://www.w3.org/2000/svg" viewBox="0 0 24 24"><g id="r"><g><path d="M14.74,9.16l4.99-1.21c.94-.23,1.52-1.18,1.29-2.11l-.47-1.94c-.23-.94-1.18-1.51-2.11-1.29l-1.11,.27-.63,1.42-1.8,4.5-.15,.36Z"/><rect x="10.75" y="14.75" width="3.5" height="2.5"/><path d="M20,10.25H10.27l2.66-.65,.56-1.36,1.81-4.52,.17-.4-4.44,1.08-2.34,5.85h-1.61l.2-.52,1.95-4.9-5.4,1.31c-.94,.23-1.52,1.18-1.29,2.11l.69,2.83v8.91c0,.96,.79,1.75,1.75,1.75h15c.96,0,1.75-.79,1.75-1.75V12c0-.96-.79-1.75-1.75-1.75Zm-3,7c.41,0,.75,.34,.75,.75s-.34,.75-.75,.75H8c-.41,0-.75-.34-.75-.75s.34-.75,.75-.75h1.25v-2.5h-1.25c-.41,0-.75-.34-.75-.75s.34-.75,.75-.75h9c.41,0,.75,.34,.75,.75s-.34,.75-.75,.75h-1.25v2.5h1.25Z"/></g></g></svg>