<?xml version="1.0" encoding="UTF-8"?><svg fill="currentColor" xmlns="http://www.w3.org/2000/svg" viewBox="0 0 24 24"><g id="n"><g><circle cx="12" cy="12" r="1.25"/><path d="M12,2.25C6.62,2.25,2.25,6.62,2.25,12s4.37,9.75,9.75,9.75,9.75-4.37,9.75-9.75S17.38,2.25,12,2.25Zm0,4c.8,0,1.57,.16,2.3,.48,.38,.17,.55,.61,.39,.99-.12,.28-.4,.45-.69,.45-.1,0-.2-.02-.3-.06-.54-.23-1.11-.35-1.7-.35-.41,0-.75-.34-.75-.75s.34-.75,.75-.75Zm-3.55,9.35c-.14,.1-.29,.15-.45,.15-.23,0-.45-.1-.6-.3-.75-1-1.15-2.2-1.15-3.45,0-.8,.16-1.57,.48-2.3,.17-.38,.61-.55,.99-.39,.38,.17,.55,.61,.39,.99-.23,.54-.35,1.11-.35,1.7,0,.93,.29,1.81,.85,2.55,.25,.33,.18,.8-.15,1.05Zm.8-3.6c0-1.52,1.23-2.75,2.75-2.75s2.75,1.23,2.75,2.75-1.23,2.75-2.75,2.75-2.75-1.23-2.75-2.75Zm7.35,3.45c-1.1,1.46-2.77,2.3-4.6,2.3-.41,0-.75-.34-.75-.75s.34-.75,.75-.75c1.35,0,2.59-.62,3.4-1.7,.25-.33,.72-.4,1.05-.15,.33,.25,.4,.72,.15,1.05Z"/></g></g></svg>