<?xml version="1.0" encoding="UTF-8"?><svg fill="currentColor" xmlns="http://www.w3.org/2000/svg" viewBox="0 0 24 24"><g id="s"><g><circle cx="6.5" cy="9" r="1.25"/><circle cx="17.5" cy="9" r="1.25"/><path d="M2.25,6v12c0,1.52,1.23,2.75,2.75,2.75h6.25V3.25H5c-1.52,0-2.75,1.23-2.75,2.75Zm7.5,8v1c0,.41-.34,.75-.75,.75s-.75-.34-.75-.75v-1c0-.41,.34-.75,.75-.75s.75,.34,.75,.75Zm-.5-5c0,1.52-1.23,2.75-2.75,2.75s-2.75-1.23-2.75-2.75,1.23-2.75,2.75-2.75,2.75,1.23,2.75,2.75Z"/><path d="M19,3.25h-6.25V20.75h6.25c1.52,0,2.75-1.23,2.75-2.75V6c0-1.52-1.23-2.75-2.75-2.75Zm-3.25,11.75c0,.41-.34,.75-.75,.75s-.75-.34-.75-.75v-1c0-.41,.34-.75,.75-.75s.75,.34,.75,.75v1Zm1.75-3.25c-1.52,0-2.75-1.23-2.75-2.75s1.23-2.75,2.75-2.75,2.75,1.23,2.75,2.75-1.23,2.75-2.75,2.75Z"/></g></g></svg>