<?xml version="1.0" encoding="UTF-8"?><svg fill="currentColor" xmlns="http://www.w3.org/2000/svg" viewBox="0 0 24 24"><g id="i"><path d="M16,2.25h-7c-2.62,0-4.75,2.13-4.75,4.75v10c0,2.62,2.13,4.75,4.75,4.75h7c2.62,0,4.75-2.13,4.75-4.75V7c0-2.62-2.13-4.75-4.75-4.75Zm-7.25,15.75c0,.41-.34,.75-.75,.75s-.75-.34-.75-.75v-2c0-.41,.34-.75,.75-.75s.75,.34,.75,.75v2Zm0-5c0,.41-.34,.75-.75,.75s-.75-.34-.75-.75v-2c0-.41,.34-.75,.75-.75s.75,.34,.75,.75v2Zm0-5c0,.41-.34,.75-.75,.75s-.75-.34-.75-.75v-2c0-.41,.34-.75,.75-.75s.75,.34,.75,.75v2Zm9,10c0,.41-.34,.75-.75,.75s-.75-.34-.75-.75v-2c0-.41,.34-.75,.75-.75s.75,.34,.75,.75v2Zm0-5c0,.41-.34,.75-.75,.75s-.75-.34-.75-.75v-2c0-.41,.34-.75,.75-.75s.75,.34,.75,.75v2Zm0-5c0,.41-.34,.75-.75,.75s-.75-.34-.75-.75v-2c0-.41,.34-.75,.75-.75s.75,.34,.75,.75v2Z"/></g></svg>