<?xml version="1.0" encoding="UTF-8"?><svg fill="currentColor" xmlns="http://www.w3.org/2000/svg" viewBox="0 0 24 24"><g id="t"><g><path d="M6.57,11.26s-.07,0-.11,0c-.37,0-.69,.27-.74,.64-.03,.2,.02,.4,.14,.56,.12,.16,.3,.26,.49,.29,.2,.03,.4-.02,.56-.14,.16-.12,.26-.3,.29-.49,.06-.41-.23-.79-.64-.85Z"/><path d="M10.11,14.79s-.07,0-.11,0c-.37,0-.69,.27-.74,.64-.06,.41,.23,.79,.64,.85,.2,.03,.4-.02,.56-.14,.16-.12,.26-.3,.29-.49s-.02-.4-.14-.56c-.12-.16-.3-.26-.49-.29Z"/><path d="M9.89,9.21c.41,.06,.79-.23,.85-.64,.06-.41-.23-.79-.64-.85-.04,0-.07,0-.11,0-.16,0-.32,.05-.45,.15-.16,.12-.26,.3-.29,.49s.02,.4,.14,.56c.12,.16,.3,.26,.49,.29Z"/><path d="M13.64,11.26s-.07,0-.11,0c-.16,0-.32,.05-.45,.15-.16,.12-.26,.3-.29,.49-.06,.41,.23,.79,.64,.85,.42,.07,.79-.23,.85-.64,.03-.2-.02-.4-.14-.56-.12-.16-.3-.26-.49-.29Z"/><path d="M21,18.25h-6.43c1.63-1.19,2.79-3.01,3.1-5.15,.6-4.23-2.35-8.16-6.58-8.77C6.87,3.72,2.93,6.67,2.33,10.9c-.6,4.23,2.35,8.16,6.58,8.77,.37,.05,.74,.08,1.1,.08h10.99c.41,0,.75-.34,.75-.75s-.34-.75-.75-.75ZM7.77,8.15c.09-.6,.4-1.12,.88-1.48,.48-.36,1.07-.51,1.67-.43,.6,.09,1.12,.4,1.48,.88,.36,.48,.51,1.07,.43,1.67-.16,1.12-1.13,1.93-2.23,1.93-.11,0-.21,0-.32-.02-.6-.09-1.12-.4-1.48-.88-.36-.48-.51-1.07-.43-1.67Zm-1.63,6.08c-.6-.09-1.12-.4-1.48-.88-.36-.48-.51-1.07-.43-1.67,.09-.6,.4-1.12,.88-1.48,.48-.36,1.07-.51,1.67-.43,1.23,.18,2.08,1.32,1.91,2.55-.09,.6-.4,1.12-.88,1.48-.39,.3-.86,.45-1.35,.45-.11,0-.21,0-.32-.02Zm6.08,1.63c-.09,.6-.4,1.12-.88,1.48-.39,.3-.86,.45-1.35,.45-.11,0-.21,0-.32-.02-.6-.09-1.12-.4-1.48-.88-.36-.48-.51-1.07-.43-1.67,.18-1.23,1.33-2.08,2.55-1.91,.6,.09,1.12,.4,1.48,.88,.36,.48,.51,1.07,.43,1.67Zm.99-1.63c-1.23-.18-2.08-1.32-1.91-2.55,.09-.6,.4-1.12,.88-1.48,.48-.36,1.07-.51,1.67-.43,.6,.09,1.12,.4,1.48,.88,.36,.48,.51,1.07,.43,1.67-.09,.6-.4,1.12-.88,1.48-.39,.3-.86,.45-1.35,.45-.11,0-.21,0-.32-.02Z"/></g></g></svg>