<?xml version="1.0" encoding="UTF-8"?><svg fill="currentColor" xmlns="http://www.w3.org/2000/svg" viewBox="0 0 24 24"><g id="k"><g><path d="M9,13.25c.41,0,.77-.2,1-.5h-2c.23,.3,.59,.5,1,.5Z"/><path d="M15.75,10.75V6c0-.96-.79-1.75-1.75-1.75H4c-.96,0-1.75,.79-1.75,1.75v4.75c0,3.57,2.65,6.63,6.03,6.97,.24,.02,.48,.04,.72,.04s.48-.01,.72-.04c3.38-.34,6.03-3.4,6.03-6.97Zm-10.5-1.75c0-.96,.79-1.75,1.75-1.75s1.75,.79,1.75,1.75c0,.41-.34,.75-.75,.75s-.75-.34-.75-.75c0-.27-.5-.27-.5,0,0,.41-.34,.75-.75,.75s-.75-.34-.75-.75Zm3.75,5.75c-1.52,0-2.75-1.23-2.75-2.75,0-.41,.34-.75,.75-.75h4c.41,0,.75,.34,.75,.75,0,1.52-1.23,2.75-2.75,2.75Zm3-5c-.41,0-.75-.34-.75-.75,0-.27-.5-.27-.5,0,0,.41-.34,.75-.75,.75s-.75-.34-.75-.75c0-.96,.79-1.75,1.75-1.75s1.75,.79,1.75,1.75c0,.41-.34,.75-.75,.75Z"/><path d="M21.58,9.16c-.2-.42-.56-.74-1-.89l-3.33-1.16v3.64c0,4.04-2.82,7.54-6.55,8.33,.01,0,.03,.02,.04,.02,.22,.1,.44,.19,.67,.27,.23,.08,.46,.15,.69,.2,.48,.12,.97,.17,1.46,.17,2.82,0,5.53-1.89,6.53-4.77l1.56-4.48c.15-.44,.13-.92-.08-1.34Z"/></g></g></svg>