<?xml version="1.0" encoding="UTF-8"?><svg fill="currentColor" xmlns="http://www.w3.org/2000/svg" viewBox="0 0 24 24"><g id="c"><g><path d="M7.25,14c0,.41,.34,.75,.75,.75h11c.41,0,.75-.34,.75-.75s-.34-.75-.75-.75H8c-.41,0-.75,.34-.75,.75Z"/><path d="M21,20.25h-.25v-3.25c0-.96-.79-1.75-1.75-1.75H8c-.96,0-1.75,.79-1.75,1.75v.25h-1.25c-.69,0-1.25-.56-1.25-1.25v-5.25h6.9c.6,0,1.15,.2,1.55,.55,.11,.1,.22,.19,.35,.29,.45,.35,.95,.64,1.48,.86,.16,.06,.32,.1,.48,.1,.24,0,.48-.07,.69-.21,.35-.23,.56-.62,.56-1.04V4.7c0-.42-.21-.81-.56-1.04-.35-.23-.79-.28-1.17-.11-.53,.22-1.03,.51-1.48,.86-.12,.1-.24,.19-.35,.29-.4,.36-.94,.55-1.54,.55H6c-2.07,0-3.75,1.68-3.75,3.75v7c0,1.52,1.23,2.75,2.75,2.75h1.25v1.5h-.25c-.41,0-.75,.34-.75,.75s.34,.75,.75,.75h15c.41,0,.75-.34,.75-.75s-.34-.75-.75-.75Zm-7-.5h-1c-.41,0-.75-.34-.75-.75s.34-.75,.75-.75h1c.41,0,.75,.34,.75,.75s-.34,.75-.75,.75Z"/></g></g></svg>