<?xml version="1.0" encoding="UTF-8"?><svg fill="currentColor" xmlns="http://www.w3.org/2000/svg" viewBox="0 0 24 24"><g id="h"><g><path d="M19,8.25h-1.79c.94,.78,1.54,1.94,1.54,3.25s-.61,2.47-1.54,3.25h1.04v1.25c0,.41,.34,.75,.75,.75s.75-.34,.75-.75v-1.37c1.15-.33,2-1.38,2-2.63v-1c0-1.52-1.23-2.75-2.75-2.75Z"/><path d="M10.25,11.5c0-1.31,.61-2.47,1.54-3.25H5c-1.52,0-2.75,1.23-2.75,2.75v1c0,1.25,.85,2.3,2,2.63v1.37c0,.41,.34,.75,.75,.75s.75-.34,.75-.75v-1.25h6.04c-.94-.78-1.54-1.94-1.54-3.25Zm-2.25,1.25h-2c-.41,0-.75-.34-.75-.75s.34-.75,.75-.75h2c.41,0,.75,.34,.75,.75s-.34,.75-.75,.75Z"/><path d="M14.5,8.75c-1.52,0-2.75,1.23-2.75,2.75s1.23,2.75,2.75,2.75,2.75-1.23,2.75-2.75-1.23-2.75-2.75-2.75Zm0,4c-.69,0-1.25-.56-1.25-1.25s.56-1.25,1.25-1.25,1.25,.56,1.25,1.25-.56,1.25-1.25,1.25Z"/></g></g></svg>