<?xml version="1.0" encoding="UTF-8"?><svg fill="currentColor" xmlns="http://www.w3.org/2000/svg" viewBox="0 0 24 24"><g id="q"><g><path d="M5.1,6.79l-.51-1.11c-1.45,1.7-2.34,3.91-2.34,6.32,0,.78,.1,1.53,.27,2.25h6.27l-3.69-7.46Z"/><polygon points="9.13 11.55 10.47 14.25 13.75 14.25 15.12 12.2 13.58 9.75 10.48 9.75 9.13 11.55"/><path d="M21.48,9.75h-6.12l4.2,6.7,.61,.86c1-1.53,1.58-3.35,1.58-5.31,0-.78-.1-1.53-.27-2.25Z"/><path d="M8.38,10.05L13.48,3.24l.52-.79c-.65-.14-1.31-.21-2-.21-2.39,0-4.58,.87-6.28,2.3l.73,1.6,1.93,3.9Z"/><path d="M21,8.25c-1.02-2.45-3.02-4.38-5.5-5.34l-.8,1.2-3.1,4.14h9.4Z"/><path d="M16,13.59l-4.76,7.13-.55,.93c.43,.06,.87,.1,1.31,.1,2.86,0,5.42-1.24,7.21-3.21l-.9-1.26-2.32-3.69Z"/><path d="M3,15.75c1.11,2.65,3.36,4.72,6.14,5.57l.83-1.4,2.78-4.17H3Z"/></g></g></svg>