<?xml version="1.0" encoding="UTF-8"?><svg fill="currentColor" xmlns="http://www.w3.org/2000/svg" viewBox="0 0 24 24"><g id="p"><g><path d="M18.88,3.25c-.77,0-1.49,.3-2.03,.84l-.69,.69c-.68-.44-1.59-.36-2.19,.23l-.88,.88-.18-.18c-.66-.66-1.81-.66-2.47,0l-4.95,4.95c-.29,.29-.29,.77,0,1.06l4.95,4.95c.15,.15,.34,.22,.53,.22s.38-.07,.53-.22l4.95-4.95c.33-.33,.51-.77,.51-1.24s-.18-.91-.51-1.24l-.18-.18,.88-.88c.33-.33,.51-.77,.51-1.24,0-.42-.16-.82-.43-1.14l.67-.67c.26-.26,.6-.4,.97-.4,.76,0,1.37,.62,1.37,1.37v14.88c0,.41,.34,.75,.75,.75s.75-.34,.75-.75V6.12c0-1.58-1.29-2.87-2.87-2.87Z"/><path d="M3.72,18.44c.82,.82,1.91,1.24,3.01,1.24,.11,0,.22-.02,.33-.02L2.51,15.1c-.09,1.21,.32,2.44,1.22,3.34Z"/><path d="M9.38,17.74l-4.95-4.95c-.52-.52-.72-1.23-.63-1.91l-.55,.11c-.45,.09-.82,.42-.95,.86-.13,.44-.01,.92,.31,1.25l6.46,6.46c.24,.24,.56,.37,.88,.37,.12,0,.24-.02,.36-.05,.44-.13,.77-.5,.86-.95l.11-.55c-.11,.02-.21,.03-.32,.03-.6,0-1.17-.23-1.59-.66Z"/></g></g></svg>