<?xml version="1.0" encoding="UTF-8"?><svg fill="currentColor" xmlns="http://www.w3.org/2000/svg" viewBox="0 0 24 24"><g id="o"><g><circle cx="12" cy="12" r="1.25"/><path d="M8,7.25c-.41,0-.75,.34-.75,.75v8c0,.41,.34,.75,.75,.75h8c.41,0,.75-.34,.75-.75V8c0-.41-.34-.75-.75-.75H8Zm4,7.5c-1.52,0-2.75-1.23-2.75-2.75s1.23-2.75,2.75-2.75,2.75,1.23,2.75,2.75-1.23,2.75-2.75,2.75Z"/><path d="M6.52,6.32c.4-.35,.91-.57,1.48-.57h8c.57,0,1.08,.22,1.48,.57l.67-1.67c.22-.54,.15-1.15-.18-1.63-.33-.48-.87-.77-1.45-.77H7.48c-.58,0-1.12,.29-1.45,.77-.33,.48-.39,1.09-.18,1.63l.67,1.67Z"/><path d="M20.98,6.03c-.48-.33-1.09-.39-1.63-.18l-1.67,.67c.35,.4,.57,.91,.57,1.48v8c0,.57-.22,1.08-.57,1.48l1.67,.67c.21,.08,.43,.13,.65,.13,.34,0,.69-.1,.98-.3,.48-.33,.77-.87,.77-1.45V7.48c0-.58-.29-1.12-.77-1.45Z"/><path d="M17.48,17.68c-.4,.35-.91,.57-1.48,.57H8c-.57,0-1.08-.22-1.48-.57l-.67,1.67c-.22,.54-.15,1.15,.18,1.63,.33,.48,.87,.77,1.45,.77h9.05c.58,0,1.12-.29,1.45-.77,.33-.48,.39-1.09,.18-1.63l-.67-1.67Z"/><path d="M5.75,16V8c0-.57,.22-1.08,.57-1.48l-1.67-.67c-.54-.22-1.15-.15-1.63,.18-.48,.33-.77,.87-.77,1.45v9.05c0,.58,.29,1.12,.77,1.45,.29,.2,.64,.3,.98,.3,.22,0,.44-.04,.65-.13l1.67-.67c-.35-.4-.57-.91-.57-1.48Z"/></g></g></svg>