<?xml version="1.0" encoding="UTF-8"?><svg fill="currentColor" xmlns="http://www.w3.org/2000/svg" viewBox="0 0 24 24"><g id="b"><g><path d="M17,5.25h-2.6l1.22-1.83c.23-.34,.14-.81-.21-1.04-.35-.23-.81-.14-1.04,.21l-1.78,2.67h-.2l-1.78-2.67c-.23-.34-.7-.44-1.04-.21s-.44,.7-.21,1.04l1.22,1.83h-2.6c-2.07,0-3.75,1.68-3.75,3.75v9c0,2.07,1.68,3.75,3.75,3.75h9c2.07,0,3.75-1.68,3.75-3.75V9c0-2.07-1.68-3.75-3.75-3.75Zm-7.98,14.5c-.41,0-.75-.34-.75-.75s.33-.75,.75-.75h0c.42,0,.75,.34,.75,.75s-.33,.75-.75,.75Zm8.73-4.75c0,.96-.79,1.75-1.75,1.75h-7c-.96,0-1.75-.79-1.75-1.75v-5c0-.96,.79-1.75,1.75-1.75h7c.96,0,1.75,.79,1.75,1.75v5Z"/><rect x="8.75" y="9.75" width="7.5" height="5.5" rx=".25" ry=".25"/></g></g></svg>