<?xml version="1.0" encoding="UTF-8"?><svg fill="currentColor" xmlns="http://www.w3.org/2000/svg" viewBox="0 0 24 24"><g id="m"><g><path d="M11.14,7.66s-.1-.04-.14-.04c-.05,0-.09,.02-.12,.03-.05,.03-.13,.09-.13,.22v4.26c0,.13,.08,.19,.13,.22,.05,.03,.15,.06,.26-.01l3.2-2.13c.1-.06,.11-.16,.11-.21s-.01-.14-.11-.21l-3.2-2.13Z"/><path d="M17,2.25H7c-2.62,0-4.75,2.13-4.75,4.75v6c0,2.62,2.13,4.75,4.75,4.75h.79l-1.46,2.91c-.19,.37-.04,.82,.34,1.01s.82,.04,1.01-.34l1.79-3.59h5.07l1.79,3.59c.13,.26,.4,.41,.67,.41,.11,0,.23-.03,.33-.08,.37-.19,.52-.64,.34-1.01l-1.46-2.91h.79c2.62,0,4.75-2.13,4.75-4.75V7c0-2.62-2.13-4.75-4.75-4.75Zm-1.83,9.21l-3.2,2.13c-.29,.2-.63,.29-.97,.29-.28,0-.57-.07-.83-.21-.57-.31-.92-.9-.92-1.54V7.87c0-.65,.35-1.24,.92-1.54,.57-.31,1.26-.27,1.8,.09l3.2,2.13c.49,.33,.78,.87,.78,1.46s-.29,1.13-.78,1.46Z"/></g></g></svg>