<?xml version="1.0" encoding="UTF-8"?><svg fill="currentColor" xmlns="http://www.w3.org/2000/svg" viewBox="0 0 24 24"><g id="l"><g><path d="M13.82,10.76c-.33-.33-.78-.51-1.24-.51h-3.84v-2.5h1.68c.28,.59,.88,1,1.57,1h3.5c1.24,0,2.25-1.01,2.25-2.25s-1.01-2.25-2.25-2.25h-3.5c-.96,0-1.75,.79-1.75,1.75v.25H6c-.96,0-1.75,.79-1.75,1.75v2.25h-.25c-.96,0-1.75,.79-1.75,1.75v6c0,.96,.79,1.75,1.75,1.75H14c.96,0,1.75-.79,1.75-1.75v-4.59c0-.47-.18-.91-.51-1.24l-1.41-1.41Zm-8.07-2.76c0-.14,.11-.25,.25-.25h1.25v2.5h-1.5v-2.25Zm3.25,7.75h-3c-.41,0-.75-.34-.75-.75s.34-.75,.75-.75h3c.41,0,.75,.34,.75,.75s-.34,.75-.75,.75Z"/><path d="M20,11.25h-1.84c-.19,0-.38,.03-.55,.09l-.89,.3c.34,.52,.53,1.14,.53,1.78v4.59c0,.18-.02,.35-.05,.52l.41,.14c.18,.06,.37,.09,.55,.09h1.84c.96,0,1.75-.79,1.75-1.75v-4c0-.96-.79-1.75-1.75-1.75Z"/></g></g></svg>