<?xml version="1.0" encoding="UTF-8"?><svg fill="currentColor" xmlns="http://www.w3.org/2000/svg" viewBox="0 0 24 24"><g id="u"><path d="M18,3.25H6c-2.07,0-3.75,1.68-3.75,3.75v6c0,2.07,1.68,3.75,3.75,3.75h1.5c.7,0,1.38,.34,1.8,.9l1.3,1.73c.33,.45,.84,.7,1.4,.7s1.07-.26,1.4-.7l1.3-1.73c.42-.56,1.1-.9,1.8-.9h1.5c2.07,0,3.75-1.68,3.75-3.75V7c0-2.07-1.68-3.75-3.75-3.75Zm-6.54,9.17H7.46c-.41,0-.75-.34-.75-.75s.34-.75,.75-.75h4c.41,0,.75,.34,.75,.75s-.34,.75-.75,.75Zm5.08-4H7.46c-.41,0-.75-.34-.75-.75s.34-.75,.75-.75h9.08c.41,0,.75,.34,.75,.75s-.34,.75-.75,.75Z"/></g></svg>