<?xml version="1.0" encoding="UTF-8"?><svg fill="currentColor" xmlns="http://www.w3.org/2000/svg" viewBox="0 0 24 24"><g id="n"><path d="M12.28,2.25c-2.64-.08-5.17,.91-7.07,2.76-1.9,1.85-2.95,4.33-2.95,6.99v8c0,.96,.79,1.75,1.75,1.75H12c2.66,0,5.14-1.05,6.99-2.95,1.85-1.9,2.83-4.42,2.76-7.07-.14-5.08-4.39-9.33-9.47-9.47Zm-4.26,10.5c-.41,0-.75-.34-.75-.75s.33-.75,.74-.75h.01c.41,0,.75,.34,.75,.75s-.34,.75-.75,.75Zm4,0c-.41,0-.75-.34-.75-.75s.33-.75,.74-.75h.01c.41,0,.75,.34,.75,.75s-.34,.75-.75,.75Zm4,0c-.41,0-.75-.34-.75-.75s.33-.75,.75-.75h0c.42,0,.75,.34,.75,.75s-.33,.75-.75,.75Z"/></g></svg>