<?xml version="1.0" encoding="UTF-8"?><svg fill="currentColor" xmlns="http://www.w3.org/2000/svg" viewBox="0 0 24 24"><g id="h"><path d="M20.68,18.05c-.22-.58-.18-1.23,.12-1.84,.79-1.65,1.1-3.5,.89-5.35-.52-4.55-4.21-8.15-8.77-8.57-2.92-.26-5.75,.76-7.81,2.81-2.05,2.05-3.08,4.9-2.81,7.81,.42,4.56,4.02,8.25,8.57,8.77,.38,.04,.76,.06,1.14,.06,1.46,0,2.9-.32,4.21-.95h0c.61-.29,1.26-.33,1.84-.12l1.65,.62c.47,.17,.97,.07,1.33-.28,.35-.35,.46-.86,.28-1.33l-.62-1.65Zm-4.68-3.3H8c-.41,0-.75-.34-.75-.75s.34-.75,.75-.75h8c.41,0,.75,.34,.75,.75s-.34,.75-.75,.75Zm0-4H8c-.41,0-.75-.34-.75-.75s.34-.75,.75-.75h8c.41,0,.75,.34,.75,.75s-.34,.75-.75,.75Z"/></g></svg>