<?xml version="1.0" encoding="UTF-8"?><svg fill="currentColor" xmlns="http://www.w3.org/2000/svg" viewBox="0 0 24 24"><g id="j"><g><path d="M7,13.75c.1,0,.19-.02,.29-.06,.28-.12,.46-.39,.46-.69v-1c0-.14,.11-.25,.25-.25,.96,0,1.75-.79,1.75-1.75v-1c0-.96-.79-1.75-1.75-1.75H4c-.96,0-1.75,.79-1.75,1.75v1c0,.96,.79,1.75,1.75,1.75h.59c.07,0,.13,.03,.18,.07l1.71,1.71c.14,.14,.34,.22,.53,.22Z"/><path d="M20,11.25h-4c-.96,0-1.75,.79-1.75,1.75v1c0,.96,.79,1.75,1.75,1.75,.14,0,.25,.11,.25,.25v1c0,.3,.18,.58,.46,.69,.09,.04,.19,.06,.29,.06,.19,0,.39-.08,.53-.22l1.71-1.71s.11-.07,.18-.07h.59c.96,0,1.75-.79,1.75-1.75v-1c0-.96-.79-1.75-1.75-1.75Z"/><path d="M14.75,17c-1.17-.49-2-1.65-2-3v-1c0-1.79,1.46-3.25,3.25-3.25h1.75v-2.75c0-2.07-1.68-3.75-3.75-3.75h-4c-1.63,0-3,1.05-3.52,2.5h1.52c1.79,0,3.25,1.46,3.25,3.25v1c0,1.35-.83,2.51-2,3,0,.91-.54,1.73-1.39,2.08-.28,.11-.57,.17-.86,.17-.26,0-.51-.05-.75-.14v1.89c0,2.07,1.68,3.75,3.75,3.75h4c1.22,0,2.3-.6,2.98-1.5-.29,0-.57-.06-.84-.17-.85-.35-1.39-1.17-1.39-2.08Z"/></g></g></svg>