<?xml version="1.0" encoding="UTF-8"?><svg fill="currentColor" xmlns="http://www.w3.org/2000/svg" viewBox="0 0 24 24"><g id="s"><g><path d="M4.54,6.48l6.64,5.81c.47,.41,1.18,.41,1.65,0l6.68-5.85,.58-.55c-.6-.4-1.31-.64-2.09-.64H6c-.76,0-1.47,.23-2.06,.62l.59,.61Z"/><path d="M20.52,7.54l-6.7,5.87c-.52,.45-1.16,.68-1.81,.68s-1.29-.23-1.81-.68L3.51,7.56l-.63-.64c-.4,.59-.63,1.31-.63,2.07v6c0,2.07,1.68,3.75,3.75,3.75h12c2.07,0,3.75-1.68,3.75-3.75v-6c0-.75-.23-1.45-.61-2.04l-.62,.59Z"/></g></g></svg>