<?xml version="1.0" encoding="UTF-8"?><svg fill="currentColor" xmlns="http://www.w3.org/2000/svg" viewBox="0 0 24 24"><g id="e"><g><path d="M6,5.25c-.41,0-.75,.34-.75,.75v12c0,.41,.34,.75,.75,.75h12c.41,0,.75-.34,.75-.75V6c0-.41-.34-.75-.75-.75H6ZM15,14.75h-6c-.41,0-.75-.34-.75-.75s.34-.75,.75-.75h6c.41,0,.75,.34,.75,.75s-.34,.75-.75,.75Zm0-4h-6c-.41,0-.75-.34-.75-.75s.34-.75,.75-.75h6c.41,0,.75,.34,.75,.75s-.34,.75-.75,.75Z"/><path d="M6,3.75h12c1.21,0,2.19,.96,2.24,2.15,.31-.39,.51-.87,.51-1.4,0-1.24-1.01-2.25-2.25-2.25H5.5c-1.24,0-2.25,1.01-2.25,2.25,0,.53,.2,1.02,.51,1.4,.05-1.19,1.03-2.15,2.24-2.15Z"/><path d="M18,20.25H6c-1.21,0-2.19-.96-2.24-2.15-.31,.39-.51,.87-.51,1.4,0,1.24,1.01,2.25,2.25,2.25h13c1.24,0,2.25-1.01,2.25-2.25,0-.53-.2-1.02-.51-1.4-.05,1.2-1.03,2.15-2.24,2.15Z"/></g></g></svg>