<?xml version="1.0" encoding="UTF-8"?><svg fill="currentColor" xmlns="http://www.w3.org/2000/svg" viewBox="0 0 24 24"><g id="l"><g><path d="M20.39,12.64l-6.86,3.86,5.68,3.2,.82,.49c.45-.62,.72-1.37,.72-2.19v-5.58l-.36,.22Z"/><path d="M3.63,12.65l-.38-.24v5.59c0,2.07,1.68,3.75,3.75,3.75h10c.68,0,1.31-.2,1.86-.52l-.4-.24L3.63,12.65Z"/><path d="M7.66,13.2l4.34,2.44,5.14-2.89,2.5-1.4,.16-.1h-.04v-3.42c0-.73-.29-1.43-.81-1.94l-2.83-2.83c-.52-.52-1.21-.81-1.94-.81H7c-1.52,0-2.75,1.23-2.75,2.75v6.25h-.03l.18,.12,3.26,1.83Zm1.34-5.95h6c.41,0,.75,.34,.75,.75s-.34,.75-.75,.75h-6c-.41,0-.75-.34-.75-.75s.34-.75,.75-.75Zm0,3h6c.41,0,.75,.34,.75,.75s-.34,.75-.75,.75h-6c-.41,0-.75-.34-.75-.75s.34-.75,.75-.75Z"/></g></g></svg>