<?xml version="1.0" encoding="UTF-8"?><svg fill="currentColor" xmlns="http://www.w3.org/2000/svg" viewBox="0 0 24 24"><g id="p"><g><path d="M11.48,13.59l.89,2.07c.06,.13,.16,.15,.24,.15,.08,0,.18-.04,.23-.17l1.7-5.1-3.05,3.05Z"/><path d="M13.47,9.47l-5.1,1.7c-.14,.05-.17,.15-.17,.23s.02,.18,.15,.24l2.07,.89,3.05-3.05Z"/><path d="M18.89,5.11c-1.84-1.84-4.29-2.86-6.89-2.86s-5.05,1.01-6.89,2.86c-1.84,1.84-2.86,4.29-2.86,6.89s1.01,5.05,2.86,6.89c1.84,1.84,4.29,2.86,6.89,2.86s5.05-1.01,6.89-2.86c1.84-1.84,2.86-4.29,2.86-6.89s-1.01-5.05-2.86-6.89Zm-2.57,4.79l-2.07,6.21c-.23,.7-.85,1.16-1.59,1.19-.03,0-.05,0-.08,0-.7,0-1.33-.41-1.61-1.06l-.93-2.16c-.03-.06-.07-.11-.13-.13l-2.16-.93c-.67-.29-1.09-.95-1.06-1.68,.03-.73,.5-1.36,1.19-1.59l6.21-2.07c.63-.21,1.32-.05,1.79,.42s.63,1.16,.42,1.79Z"/></g></g></svg>