<?xml version="1.0" encoding="UTF-8"?><svg fill="currentColor" xmlns="http://www.w3.org/2000/svg" viewBox="0 0 24 24"><g id="b"><g><path d="M18,2.25H6c-2.07,0-3.75,1.68-3.75,3.75V14c0,2.07,1.68,3.75,3.75,3.75h1.5c.7,0,1.38,.34,1.8,.9l1.3,1.73c.33,.45,.84,.7,1.4,.7s1.07-.26,1.4-.7l1.3-1.73c.42-.56,1.1-.9,1.8-.9h1.5c2.07,0,3.75-1.68,3.75-3.75V6c0-2.07-1.68-3.75-3.75-3.75Zm-.17,9.98l-.64,.89c-.65,.9-1.61,1.5-2.7,1.67-.23,.04-.45,.06-.68,.06-.86,0-1.7-.27-2.42-.78l-2.59-1.87c-1.86-1.34-2.28-3.94-.95-5.8l.64-.89c.4-.56,1.18-.69,1.75-.29l1.05,.75c.27,.19,.45,.49,.5,.81l.26,1.6c.07,.44,.31,.82,.67,1.08,.35,.26,.8,.36,1.24,.29l1.6-.26c.33-.05,.67,.03,.93,.22l1.05,.76c.56,.4,.69,1.19,.28,1.74Z"/><path d="M14.21,11.26c-.82,.13-1.68-.07-2.36-.55-.69-.49-1.14-1.23-1.27-2.06l-.25-1.5-.76-.55-.49,.69c-.85,1.19-.58,2.85,.6,3.71l2.59,1.86c.58,.41,1.28,.58,1.98,.46,.7-.11,1.31-.49,1.73-1.07l.49-.69-.76-.55-1.5,.24Z"/></g></g></svg>