<?xml version="1.0" encoding="UTF-8"?><svg fill="currentColor" xmlns="http://www.w3.org/2000/svg" viewBox="0 0 24 24"><g id="k"><path d="M18,3.25H6c-2.07,0-3.75,1.68-3.75,3.75v6c0,2.07,1.68,3.75,3.75,3.75h1.5c.7,0,1.38,.34,1.8,.9l1.3,1.73c.33,.44,.84,.7,1.4,.7s1.07-.26,1.4-.7l1.3-1.73c.42-.56,1.1-.9,1.8-.9h1.5c2.07,0,3.75-1.68,3.75-3.75V7c0-2.07-1.68-3.75-3.75-3.75Zm-3.99,4h.01c.41,0,.75,.34,.75,.75s-.34,.75-.75,.75-.75-.34-.75-.75,.33-.75,.74-.75Zm-4,0h.01c.41,0,.75,.34,.75,.75s-.34,.75-.75,.75-.75-.34-.75-.75,.33-.75,.74-.75Zm6.59,4.2c-1.64,2.19-4.12,2.3-4.6,2.3-2.74,0-4.31-1.92-4.6-2.3-.25-.33-.18-.8,.15-1.05,.33-.25,.8-.18,1.05,.15,.13,.17,1.33,1.7,3.4,1.7,.22,0,2.16-.05,3.4-1.7,.25-.33,.72-.4,1.05-.15,.33,.25,.4,.72,.15,1.05Z"/></g></svg>