<?xml version="1.0" encoding="UTF-8"?><svg fill="currentColor" xmlns="http://www.w3.org/2000/svg" viewBox="0 0 24 24"><g id="f"><g><path d="M18,9.25h-4c-2.07,0-3.75,1.68-3.75,3.75v2c0,2.07,1.68,3.75,3.75,3.75h1.39c.25,0,.49,.07,.69,.21l2.5,1.66c.13,.08,.27,.13,.42,.13,.12,0,.24-.03,.35-.09,.24-.13,.4-.38,.4-.66v-1c0-.14,.11-.25,.25-.25,.96,0,1.75-.79,1.75-1.75v-4c0-2.07-1.68-3.75-3.75-3.75Z"/><path d="M14,7.75h1.75v-.75c0-2.07-1.68-3.75-3.75-3.75H6c-2.07,0-3.75,1.68-3.75,3.75v6c0,.96,.79,1.75,1.75,1.75,.14,0,.25,.11,.25,.25v2c0,.3,.18,.58,.46,.69,.09,.04,.19,.06,.29,.06,.19,0,.39-.08,.53-.22l2.41-2.41c.22-.22,.5-.33,.81-.35v-1.77c0-2.89,2.35-5.25,5.25-5.25Z"/></g></g></svg>