<?xml version="1.0" encoding="UTF-8"?><svg fill="currentColor" xmlns="http://www.w3.org/2000/svg" viewBox="0 0 24 24"><g id="t"><path d="M18.8,5.01c-1.9-1.85-4.41-2.84-7.07-2.76C6.64,2.39,2.39,6.64,2.25,11.72c-.07,2.66,.91,5.17,2.76,7.07,1.85,1.9,4.33,2.95,6.99,2.95h8c.96,0,1.75-.79,1.75-1.75V12c0-2.66-1.05-5.14-2.95-6.99Zm-2.8,9.74H8c-.41,0-.75-.34-.75-.75s.34-.75,.75-.75h8c.41,0,.75,.34,.75,.75s-.34,.75-.75,.75Zm0-4H8c-.41,0-.75-.34-.75-.75s.34-.75,.75-.75h8c.41,0,.75,.34,.75,.75s-.34,.75-.75,.75Z"/></g></svg>