<?xml version="1.0" encoding="UTF-8"?><svg fill="currentColor" xmlns="http://www.w3.org/2000/svg" viewBox="0 0 24 24"><g id="i"><g><path d="M13,7.25H4.62c-.61,0-1.17,.31-1.49,.83s-.35,1.16-.08,1.7l1.07,2.13c.09,.17,.13,.37,.13,.56v5.51c0,1.52,1.23,2.75,2.75,2.75h6c1.52,0,2.75-1.23,2.75-2.75v-7.98c0-1.52-1.23-2.75-2.75-2.75Zm-1,9.48h-4c-.41,0-.75-.34-.75-.75s.34-.75,.75-.75h4c.41,0,.75,.34,.75,.75s-.34,.75-.75,.75Zm0-4h-4c-.41,0-.75-.34-.75-.75s.34-.75,.75-.75h4c.41,0,.75,.34,.75,.75s-.34,.75-.75,.75Z"/><path d="M20.87,4.06c-.32-.52-.88-.83-1.49-.83H11c-1.44,0-2.61,1.11-2.73,2.52h4.73c2.34,0,4.25,1.91,4.25,4.25v6.7c1.4-.13,2.5-1.3,2.5-2.72v-5.52c0-.19,.05-.39,.13-.56l1.07-2.13c.27-.55,.24-1.18-.08-1.7Z"/></g></g></svg>