<?xml version="1.0" encoding="UTF-8"?><svg fill="currentColor" xmlns="http://www.w3.org/2000/svg" viewBox="0 0 24 24"><g id="p"><path d="M18,9.25c-.31,0-.61,.04-.9,.12-.98-1.9-2.93-3.12-5.1-3.12s-4.12,1.23-5.1,3.12c-.29-.07-.59-.12-.9-.12-2.07,0-3.75,1.68-3.75,3.75s1.68,3.75,3.75,3.75h12c2.07,0,3.75-1.68,3.75-3.75s-1.68-3.75-3.75-3.75Zm0,6H6c-1.24,0-2.25-1.01-2.25-2.25s1.01-2.25,2.25-2.25c.34,0,.67,.07,.98,.22,.01,0,.02,0,.03,0,.01,0,.02,.02,.03,.02,.05,.02,.1,.02,.15,.03,.03,0,.06,.02,.09,.02h.02c.08,0,.16-.01,.23-.04,.03,0,.05-.03,.08-.04,.05-.02,.1-.05,.14-.08,.03-.02,.06-.05,.08-.08,.03-.04,.06-.08,.09-.12,.01-.02,.04-.04,.05-.06,0-.01,0-.03,.01-.04,0,0,.01-.02,.01-.03,.61-1.68,2.21-2.8,4-2.8s3.25,1.02,3.92,2.6c.01,.03,.04,.05,.05,.08,.01,.07,.02,.13,.05,.2,.18,.37,.63,.53,1,.35,.31-.15,.63-.22,.98-.22,1.24,0,2.25,1.01,2.25,2.25s-1.01,2.25-2.25,2.25Z"/></g></svg>