<?xml version="1.0" encoding="UTF-8"?><svg fill="currentColor" xmlns="http://www.w3.org/2000/svg" viewBox="0 0 24 24"><g id="o"><path d="M19.86,11.76c.57-.8,.89-1.76,.89-2.76,0-2.62-2.13-4.75-4.75-4.75-2.38,0-4.34,1.77-4.68,4.05-1.89,.23-3.55,1.38-4.42,3.06-.29-.07-.59-.12-.9-.12-2.07,0-3.75,1.68-3.75,3.75s1.68,3.75,3.75,3.75h12c2.07,0,3.75-1.68,3.75-3.75,0-1.39-.77-2.59-1.89-3.24Zm-3.86-6.01c1.79,0,3.25,1.46,3.25,3.25,0,.86-.35,1.67-.96,2.28-.1,0-.19-.03-.29-.03-.31,0-.61,.04-.9,.12-.86-1.66-2.44-2.79-4.27-3.06,.32-1.46,1.62-2.56,3.17-2.56Zm2,11.5H6c-1.24,0-2.25-1.01-2.25-2.25s1.01-2.25,2.25-2.25c.34,0,.67,.07,.98,.22,.01,0,.02,0,.04,0,.01,0,.02,.01,.03,.02,.05,.02,.09,.02,.14,.02,.03,0,.07,.02,.1,.02h.01c.08,0,.16-.01,.23-.04,.03,0,.06-.03,.08-.04,.05-.02,.1-.05,.14-.08,.03-.02,.06-.05,.08-.08,.03-.04,.06-.08,.09-.12,.01-.02,.04-.04,.05-.06,0-.01,0-.03,.01-.04,0,0,.01-.02,.01-.03,.61-1.68,2.21-2.8,4-2.8s3.25,1.02,3.92,2.6c.01,.03,.04,.05,.05,.08,.01,.07,.02,.13,.05,.2,.18,.37,.63,.53,1,.35,.31-.15,.63-.22,.98-.22,1.24,0,2.25,1.01,2.25,2.25s-1.01,2.25-2.25,2.25Z"/></g></svg>