<?xml version="1.0" encoding="UTF-8"?><svg fill="currentColor" xmlns="http://www.w3.org/2000/svg" viewBox="0 0 24 24"><g id="i"><path d="M12,2.25c-1.77,0-3.43,.48-4.86,1.31-.04,.02-.08,.04-.11,.07-2.85,1.7-4.78,4.81-4.78,8.37s1.95,6.72,4.85,8.41c.02,.02,.05,.03,.07,.04,1.43,.82,3.07,1.29,4.83,1.29,5.38,0,9.75-4.37,9.75-9.75S17.38,2.25,12,2.25ZM3.75,12c0-2.89,1.49-5.43,3.74-6.9,2.32,1.52,3.76,4.11,3.76,6.9s-1.44,5.38-3.76,6.9c-2.25-1.48-3.74-4.02-3.74-6.9Zm8.25,8.25c-1.06,0-2.07-.21-3-.57,2.34-1.83,3.75-4.67,3.75-7.68s-1.41-5.84-3.75-7.68c.93-.36,1.94-.57,3-.57,4.55,0,8.25,3.7,8.25,8.25s-3.7,8.25-8.25,8.25Z"/></g></svg>