<?xml version="1.0" encoding="UTF-8"?><svg fill="currentColor" xmlns="http://www.w3.org/2000/svg" viewBox="0 0 24 24"><g id="m"><g><path d="M18,14.25c-.31,0-.61,.04-.9,.12-.39-.76-.93-1.4-1.58-1.9,.54-1.68,.12-3.55-1.15-4.82-.9-.9-2.09-1.39-3.36-1.39s-2.46,.49-3.36,1.39c-1.68,1.68-1.83,4.33-.42,6.2-.11,.17-.22,.34-.32,.53-.29-.07-.59-.12-.9-.12-2.07,0-3.75,1.68-3.75,3.75s1.68,3.75,3.75,3.75h12c2.07,0,3.75-1.68,3.75-3.75s-1.68-3.75-3.75-3.75Zm-9.3-5.55c1.23-1.23,3.37-1.23,4.6,0,.79,.79,1.1,1.92,.87,2.99-.68-.28-1.41-.44-2.17-.44-1.42,0-2.75,.54-3.78,1.43-.76-1.26-.6-2.91,.48-3.98Zm9.3,11.55H6c-1.24,0-2.25-1.01-2.25-2.25s1.01-2.25,2.25-2.25c.34,0,.67,.07,.98,.22,.01,0,.02,0,.03,0,.01,0,.02,.02,.03,.02,.05,.02,.09,.02,.14,.02,.04,0,.07,.02,.11,.02h.01c.08,0,.16-.01,.23-.03,.04-.01,.07-.03,.11-.05,.04-.02,.08-.04,.12-.07,.03-.03,.06-.06,.09-.09,.03-.03,.06-.07,.08-.11,.02-.02,.04-.04,.05-.07,0-.02,0-.03,.01-.05,0,0,0-.02,.01-.02,.61-1.68,2.21-2.8,4-2.8s3.25,1.02,3.92,2.6c.01,.03,.04,.05,.05,.08,.01,.07,.02,.13,.05,.2,.18,.37,.63,.53,1,.35,.3-.15,.63-.22,.98-.22,1.24,0,2.25,1.01,2.25,2.25s-1.01,2.25-2.25,2.25Z"/><path d="M15.95,6.8c.19,0,.38-.07,.53-.22l.71-.71c.29-.29,.29-.77,0-1.06s-.77-.29-1.06,0l-.71,.71c-.29,.29-.29,.77,0,1.06,.15,.15,.34,.22,.53,.22Z"/><path d="M5.52,6.58c.15,.15,.34,.22,.53,.22s.38-.07,.53-.22c.29-.29,.29-.77,0-1.06l-.71-.71c-.29-.29-.77-.29-1.06,0s-.29,.77,0,1.06l.71,.71Z"/><path d="M11,4.75c.41,0,.75-.34,.75-.75v-1c0-.41-.34-.75-.75-.75s-.75,.34-.75,.75v1c0,.41,.34,.75,.75,.75Z"/><path d="M3,11.75h1c.41,0,.75-.34,.75-.75s-.34-.75-.75-.75h-1c-.41,0-.75,.34-.75,.75s.34,.75,.75,.75Z"/><path d="M18,11.75h1c.41,0,.75-.34,.75-.75s-.34-.75-.75-.75h-1c-.41,0-.75,.34-.75,.75s.34,.75,.75,.75Z"/></g></g></svg>