<?xml version="1.0" encoding="UTF-8"?><svg fill="currentColor" xmlns="http://www.w3.org/2000/svg" viewBox="0 0 24 24"><g id="c"><g><path d="M18,6.25c-.31,0-.61,.04-.9,.12-.98-1.9-2.93-3.12-5.1-3.12s-4.12,1.23-5.1,3.12c-.29-.07-.59-.12-.9-.12-2.07,0-3.75,1.68-3.75,3.75s1.68,3.75,3.75,3.75h1.25v3.25c0,.41,.34,.75,.75,.75s.75-.34,.75-.75v-3.25h2.5v1.25c0,.41,.34,.75,.75,.75s.75-.34,.75-.75v-1.25h2.5v3.25c0,.41,.34,.75,.75,.75s.75-.34,.75-.75v-3.25h1.25c2.07,0,3.75-1.68,3.75-3.75s-1.68-3.75-3.75-3.75Zm0,6H6c-1.24,0-2.25-1.01-2.25-2.25s1.01-2.25,2.25-2.25c.34,0,.67,.07,.97,.22,.01,0,.02,0,.04,0,.01,0,.02,.01,.03,.02,.05,.02,.09,.02,.14,.02,.04,0,.07,.02,.11,.02h.01c.08,0,.16-.01,.23-.03,.04-.01,.07-.03,.11-.05,.04-.02,.08-.04,.11-.07,.04-.03,.07-.06,.1-.09,.03-.03,.06-.07,.08-.11,.02-.02,.04-.04,.05-.07,0-.02,0-.03,.01-.05,0,0,.01-.02,.01-.03,.61-1.67,2.21-2.8,4-2.8s3.25,1.02,3.92,2.6c.01,.03,.04,.05,.05,.08,.01,.07,.02,.13,.05,.2,.18,.37,.63,.53,1,.35,.3-.15,.63-.22,.98-.22,1.24,0,2.25,1.01,2.25,2.25s-1.01,2.25-2.25,2.25Z"/><path d="M12,17.25c-.41,0-.75,.34-.75,.75v2c0,.41,.34,.75,.75,.75s.75-.34,.75-.75v-2c0-.41-.34-.75-.75-.75Z"/><path d="M16,19.25c-.41,0-.75,.34-.75,.75v1c0,.41,.34,.75,.75,.75s.75-.34,.75-.75v-1c0-.41-.34-.75-.75-.75Z"/><path d="M8,19.25c-.41,0-.75,.34-.75,.75v1c0,.41,.34,.75,.75,.75s.75-.34,.75-.75v-1c0-.41-.34-.75-.75-.75Z"/></g></g></svg>