<?xml version="1.0" encoding="UTF-8"?><svg fill="currentColor" xmlns="http://www.w3.org/2000/svg" viewBox="0 0 24 24"><g id="b"><path d="M18,7.25c-.31,0-.61,.04-.9,.12-.98-1.9-2.93-3.12-5.1-3.12s-4.12,1.23-5.1,3.12c-.29-.07-.59-.12-.9-.12-2.07,0-3.75,1.68-3.75,3.75s1.68,3.75,3.75,3.75h4.6l-1.22,1.83c-.15,.23-.17,.53-.04,.77,.13,.24,.38,.4,.66,.4h1.6l-1.22,1.83c-.23,.34-.14,.81,.21,1.04,.13,.08,.27,.13,.42,.13,.24,0,.48-.12,.63-.33l2-3c.15-.23,.17-.53,.04-.77-.13-.24-.38-.4-.66-.4h-1.6l1-1.5h5.6c2.07,0,3.75-1.68,3.75-3.75s-1.68-3.75-3.75-3.75Zm0,6H6c-1.24,0-2.25-1.01-2.25-2.25s1.01-2.25,2.25-2.25c.34,0,.67,.07,.97,.22,.01,0,.02,0,.04,0,.01,0,.02,.01,.03,.02,.04,.02,.09,.02,.13,.02,.04,0,.07,.02,.11,.02h.01c.08,0,.15-.01,.23-.03,.04-.01,.07-.03,.11-.05,.04-.02,.08-.04,.11-.07,.04-.03,.07-.06,.1-.09,.03-.03,.06-.07,.08-.11,.02-.02,.04-.04,.05-.07,0-.02,0-.03,.01-.05,0,0,.01-.02,.01-.03,.61-1.67,2.21-2.8,4-2.8s3.25,1.02,3.92,2.6c.01,.03,.04,.05,.05,.08,.01,.07,.02,.13,.05,.2,.18,.37,.63,.53,1,.35,.3-.15,.63-.22,.98-.22,1.24,0,2.25,1.01,2.25,2.25s-1.01,2.25-2.25,2.25Z"/></g></svg>