<?xml version="1.0" encoding="UTF-8"?><svg fill="currentColor" xmlns="http://www.w3.org/2000/svg" viewBox="0 0 24 24"><g id="k"><path d="M21,11.25h-1.29c-.38-3.92-3.69-7-7.71-7-2.91,0-5.45,1.62-6.78,4h-1.22c-.41,0-.75,.34-.75,.75s.34,.75,.75,.75h.59c-.15,.48-.25,.98-.3,1.5h-1.29c-.41,0-.75,.34-.75,.75s.34,.75,.75,.75h1.29c.05,.52,.15,1.02,.3,1.5h-.59c-.41,0-.75,.34-.75,.75s.34,.75,.75,.75h1.22c1.32,2.38,3.86,4,6.78,4,4.02,0,7.33-3.08,7.71-7h1.29c.41,0,.75-.34,.75-.75s-.34-.75-.75-.75Zm-14.82-1.5h4.82c.41,0,.75-.34,.75-.75s-.34-.75-.75-.75h-3.99c1.14-1.51,2.95-2.5,4.99-2.5,3.19,0,5.83,2.41,6.2,5.5H5.8c.06-.52,.19-1.02,.38-1.5Zm5.82,8.5c-2.04,0-3.85-.99-4.99-2.5h6.99c.41,0,.75-.34,.75-.75s-.34-.75-.75-.75H6.18c-.18-.48-.31-.98-.38-1.5h12.4c-.37,3.09-3.01,5.5-6.2,5.5Z"/></g></svg>