<?xml version="1.0" encoding="UTF-8"?><svg fill="currentColor" xmlns="http://www.w3.org/2000/svg" viewBox="0 0 24 24"><g id="g"><path d="M19,16.25c-.16,0-.31,.03-.47,.05-.08-.15-.18-.28-.28-.42,.98-1.44,1.49-3.12,1.49-4.89,0-4.83-3.92-8.75-8.75-8.75S2.25,6.17,2.25,11c0,3.82,2.45,7.15,6.03,8.31,.16,1.37,1.31,2.44,2.72,2.44h8c1.52,0,2.75-1.23,2.75-2.75s-1.23-2.75-2.75-2.75ZM3.75,11c0-4,3.25-7.25,7.25-7.25s7.25,3.25,7.25,7.25c0,1.39-.4,2.7-1.13,3.85-.63-.38-1.35-.6-2.12-.6-1.47,0-2.82,.8-3.54,2.05-.15-.03-.31-.05-.46-.05-1.08,0-2.01,.63-2.46,1.55-2.85-1.03-4.79-3.71-4.79-6.8Zm15.25,9.25H11c-.68,0-1.24-.55-1.25-1.23,0-.03,.03-.05,.03-.07,.01-.05,0-.11,0-.16,.11-.58,.59-1.04,1.21-1.04,.19,0,.37,.04,.54,.12,.01,0,.02,0,.03,0,.01,0,.02,.02,.03,.02,.05,.02,.09,.02,.14,.02,.04,0,.07,.02,.1,.02h.01c.08,0,.16-.01,.23-.04,.03-.01,.06-.03,.09-.04,.05-.02,.1-.05,.14-.08,.03-.02,.05-.05,.08-.08,.04-.04,.07-.08,.1-.13,.01-.02,.03-.04,.04-.06,0-.01,0-.03,.01-.04,0-.01,.01-.02,.02-.03,.37-1.02,1.35-1.7,2.43-1.7s1.98,.62,2.38,1.58c0,.02,.03,.04,.04,.06,.01,.05,.01,.09,.04,.14,.18,.37,.63,.53,1,.35,.17-.08,.35-.12,.54-.12,.69,0,1.25,.56,1.25,1.25s-.56,1.25-1.25,1.25Z"/></g></svg>