<?xml version="1.0" encoding="UTF-8"?><svg fill="currentColor" xmlns="http://www.w3.org/2000/svg" viewBox="0 0 24 24"><g id="j"><path d="M12,2.25c-2.49,0-4.75,.94-6.47,2.48-.03,.02-.06,.04-.09,.06,0,0,0,.02-.02,.03-1.95,1.78-3.17,4.34-3.17,7.18s1.23,5.4,3.18,7.19c0,0,0,.01,.01,.02,.01,.02,.03,.02,.05,.04,1.73,1.55,4.01,2.51,6.51,2.51,5.38,0,9.75-4.37,9.75-9.75S17.38,2.25,12,2.25ZM3.75,12c0-2.19,.86-4.17,2.25-5.65,1.43,1.52,2.25,3.54,2.25,5.65s-.81,4.12-2.25,5.65c-1.39-1.48-2.25-3.46-2.25-5.65Zm8.25,8.25c-1.82,0-3.51-.6-4.87-1.61,1.67-1.8,2.62-4.17,2.62-6.64s-.95-4.85-2.62-6.64c1.37-1.01,3.05-1.61,4.87-1.61,4.55,0,8.25,3.7,8.25,8.25s-3.7,8.25-8.25,8.25Z"/></g></svg>