<?xml version="1.0" encoding="UTF-8"?><svg fill="currentColor" xmlns="http://www.w3.org/2000/svg" viewBox="0 0 24 24"><g id="h"><path d="M12,2.25c-1.13,0-2.21,.2-3.22,.56-.05,.01-.09,.03-.14,.05-3.73,1.37-6.39,4.95-6.39,9.14s2.68,7.79,6.42,9.15c.05,.03,.11,.05,.17,.06,.99,.34,2.05,.54,3.16,.54,5.38,0,9.75-4.37,9.75-9.75S17.38,2.25,12,2.25ZM3.75,12c0-3.49,2.18-6.47,5.24-7.67,3.15,1.23,5.26,4.27,5.26,7.67s-2.11,6.44-5.26,7.67c-3.06-1.21-5.24-4.19-5.24-7.67Zm8.25,8.25c-.25,0-.5-.02-.74-.04,2.75-1.77,4.49-4.85,4.49-8.21s-1.74-6.45-4.49-8.21c.25-.02,.49-.04,.74-.04,4.55,0,8.25,3.7,8.25,8.25s-3.7,8.25-8.25,8.25Z"/></g></svg>