<?xml version="1.0" encoding="UTF-8"?><svg fill="currentColor" xmlns="http://www.w3.org/2000/svg" viewBox="0 0 24 24"><g id="r"><g><path d="M8,13.75h8c.41,0,.75-.34,.75-.75,0-2.62-2.13-4.75-4.75-4.75s-4.75,2.13-4.75,4.75c0,.41,.34,.75,.75,.75Zm4-4c1.53,0,2.82,1.07,3.16,2.5h-6.33c.34-1.43,1.63-2.5,3.16-2.5Z"/><path d="M16.95,8.8c.19,0,.38-.07,.53-.22l1.41-1.41c.29-.29,.29-.77,0-1.06s-.77-.29-1.06,0l-1.41,1.41c-.29,.29-.29,.77,0,1.06,.15,.15,.34,.22,.53,.22Z"/><path d="M6.52,8.58c.15,.15,.34,.22,.53,.22s.38-.07,.53-.22c.29-.29,.29-.77,0-1.06l-1.41-1.41c-.29-.29-.77-.29-1.06,0s-.29,.77,0,1.06l1.41,1.41Z"/><path d="M12,6.75c.41,0,.75-.34,.75-.75v-2c0-.41-.34-.75-.75-.75s-.75,.34-.75,.75v2c0,.41,.34,.75,.75,.75Z"/><path d="M21,12.25h-2c-.41,0-.75,.34-.75,.75s.34,.75,.75,.75h2c.41,0,.75-.34,.75-.75s-.34-.75-.75-.75Z"/><path d="M5.75,13c0-.41-.34-.75-.75-.75H3c-.41,0-.75,.34-.75,.75s.34,.75,.75,.75h2c.41,0,.75-.34,.75-.75Z"/><path d="M19,15.25H5c-.41,0-.75,.34-.75,.75s.34,.75,.75,.75h14c.41,0,.75-.34,.75-.75s-.34-.75-.75-.75Z"/><path d="M16,18.25H8c-.41,0-.75,.34-.75,.75s.34,.75,.75,.75h8c.41,0,.75-.34,.75-.75s-.34-.75-.75-.75Z"/></g></g></svg>