<svg fill="currentColor" xmlns="http://www.w3.org/2000/svg" viewBox="0 0 32 32"><g id="bell"><path d="M27,22H25.64a10.5,10.5,0,1,0-12.28,0H12a1,1,0,0,0-1,1v3H7.36A1.36,1.36,0,0,1,6,24.64V16.82a3,3,0,1,0-2,0v7.82A3.37,3.37,0,0,0,7.36,28H11v1a1,1,0,0,0,1,1H27a1,1,0,0,0,1-1V23A1,1,0,0,0,27,22ZM5,13a1,1,0,1,1-1,1A1,1,0,0,1,5,13Zm6,.5A8.5,8.5,0,1,1,19.5,22,8.51,8.51,0,0,1,11,13.5ZM26,28H13V24H26Z"/><path d="M17,26a1,1,0,0,0,1,1h3a1,1,0,0,0,0-2H18A1,1,0,0,0,17,26Z"/><path d="M19.5,11A2.5,2.5,0,1,0,22,13.5,2.5,2.5,0,0,0,19.5,11Zm0,3a.5.5,0,1,1,.5-.5A.5.5,0,0,1,19.5,14Z"/></g></svg>