<svg fill="currentColor" xmlns="http://www.w3.org/2000/svg" viewBox="0 0 32 32"><g id="blackboard"><path d="M27.46,5H4.54A2.54,2.54,0,0,0,2,7.54V23.46A2.54,2.54,0,0,0,4.54,26H27.46A2.54,2.54,0,0,0,30,23.46V7.54A2.54,2.54,0,0,0,27.46,5ZM28,21H22V19h6ZM4.54,7H27.46a.54.54,0,0,1,.54.54V17H21a1,1,0,0,0-1,1v3H4V7.54A.54.54,0,0,1,4.54,7ZM27.46,24H4.54A.54.54,0,0,1,4,23.46V23H28v.46A.54.54,0,0,1,27.46,24Z"/><path d="M11.17,18.55A1,1,0,0,0,12,19h.15a1,1,0,0,0,.81-.72L14.75,12H21a1,1,0,0,0,0-2H14a1,1,0,0,0-1,.73l-1.41,4.92-.8-1.2a1,1,0,1,0-1.66,1.1Z"/></g></svg>