<svg fill="currentColor" xmlns="http://www.w3.org/2000/svg" viewBox="0 0 32 32"><g id="books"><path d="M29,16H28V12h1a1,1,0,0,0,0-2H25.44A3.91,3.91,0,0,0,26,8a4,4,0,0,0-4-4H3A1,1,0,0,0,3,6H4v4H3a1,1,0,0,0,0,2H6.56a3.85,3.85,0,0,0,0,4H3a1,1,0,0,0,0,2H4v4H3a1,1,0,0,0,0,2H9v3a1,1,0,0,0,.62.92,1,1,0,0,0,1.09-.21L12,26.41l1.29,1.3A1,1,0,0,0,14,28a.84.84,0,0,0,.38-.08A1,1,0,0,0,15,27V24h7a4,4,0,0,0,4-4,3.91,3.91,0,0,0-.56-2H29a1,1,0,0,0,0-2ZM6,6H22a2,2,0,0,1,0,4H6Zm2,8a2,2,0,0,1,2-2H26v4H10A2,2,0,0,1,8,14Zm5,10.59-.29-.3a1,1,0,0,0-1.42,0l-.29.3V22h2ZM24,20a2,2,0,0,1-2,2H15V21a1,1,0,0,0-1-1H10a1,1,0,0,0-1,1v1H6V18H22A2,2,0,0,1,24,20Z"/></g></svg>