<svg fill="currentColor" xmlns="http://www.w3.org/2000/svg" viewBox="0 0 32 32"><g id="chemistry"><path d="M25.81,25.54,21.44,13.17A8.39,8.39,0,0,1,21,10.4V7h.37a1.6,1.6,0,0,0,1.6-1.59V3.59A1.6,1.6,0,0,0,21.34,2H10.53A1.59,1.59,0,0,0,8.94,3.59V5.41A1.59,1.59,0,0,0,10.53,7H11v3.4a8.15,8.15,0,0,1-.48,2.77L6.13,25.54A3.34,3.34,0,0,0,9.29,30H22.65a3.35,3.35,0,0,0,3.16-4.46ZM10.94,4h10V5h-10Zm1.44,9.84A10.32,10.32,0,0,0,13,10.4V7h6v3.4a10.32,10.32,0,0,0,.59,3.44l1.91,5.43A6.3,6.3,0,0,0,18.84,19a5.86,5.86,0,0,0-2.57,1,7.63,7.63,0,0,0-4.38-1,7.84,7.84,0,0,0-1.43.27Zm-2.81,8A5.51,5.51,0,0,1,12,21a5.57,5.57,0,0,1,2.31.32,5.88,5.88,0,0,1-1.64.71,7.06,7.06,0,0,1-3.24,0Zm14.18,5.62a1.35,1.35,0,0,1-1.1.57H9.29A1.35,1.35,0,0,1,8,26.2L8.8,24a9.64,9.64,0,0,0,2.23.27,8.51,8.51,0,0,0,2.2-.28,10,10,0,0,0,3.38-1.76A5.25,5.25,0,0,1,19.1,21a5.23,5.23,0,0,1,3.27.83l1.55,4.38A1.32,1.32,0,0,1,23.75,27.43Z"/></g></svg>