<svg fill="currentColor" xmlns="http://www.w3.org/2000/svg" viewBox="0 0 32 32"><g id="compass"><path d="M23.89,28.54l-1.41-2.69.67-1.29a7.07,7.07,0,0,0,.1-6.31l-2.6-5.43a5,5,0,0,0-1.11-5.35A4.89,4.89,0,0,0,17,6.1V3a1,1,0,0,0-2,0V6.1a5,5,0,0,0-2.53,1.36,5,5,0,0,0-1.12,5.37l-2.6,5.42a7.07,7.07,0,0,0,.1,6.31l.67,1.29L8.11,28.54a1,1,0,0,0,.43,1.35A1,1,0,0,0,9,30a1,1,0,0,0,.89-.54l1.65-3.15h0v0L16,17l4.45,9.27v0h0l1.65,3.15A1,1,0,0,0,23,30a1,1,0,0,0,.46-.11A1,1,0,0,0,23.89,28.54Zm-2.51-4.93L17.6,15.72a5,5,0,0,0,1.73-1l2.12,4.42A5.06,5.06,0,0,1,21.38,23.61ZM13.88,8.88A3,3,0,0,1,16,8h0a2.94,2.94,0,0,1,2.12.88A3,3,0,0,1,16,14h0a2.94,2.94,0,0,1-2.12-.88A3,3,0,0,1,13.88,8.88ZM10.55,19.12l2.12-4.42a5,5,0,0,0,1.73,1l-3.78,7.89A5.06,5.06,0,0,1,10.55,19.12Z"/></g></svg>