<svg fill="currentColor" xmlns="http://www.w3.org/2000/svg" viewBox="0 0 32 32"><g id="creativity"><path d="M25.35,4.67a11.78,11.78,0,0,0-14.4,0A11.4,11.4,0,0,0,7,12.11a28.91,28.91,0,0,0-2.3,3.43c-.32.57-.62,1.13-.88,1.67a1.69,1.69,0,0,0,0,1.41,1.71,1.71,0,0,0,1,1l2.12.7v2.93A3.82,3.82,0,0,0,10.85,27h1.39a.74.74,0,0,1,.76.72V29a1,1,0,0,0,2,0V27.72A2.74,2.74,0,0,0,12.24,25H10.85A1.82,1.82,0,0,1,9,23.22V19.56a1,1,0,0,0-.69-.95l-2.5-.82c.2-.41.43-.83.67-1.26a27,27,0,0,1,2.3-3.4A1,1,0,0,0,9,12.6a9.47,9.47,0,0,1,3.22-6.38,9.71,9.71,0,0,1,11.87,0c3.55,2.85,4.44,8.22,2.06,12.5A9.82,9.82,0,0,0,25,23.53V29a1,1,0,0,0,2,0V23.53a7.88,7.88,0,0,1,.9-3.83C30.74,14.58,29.64,8.12,25.35,4.67Z"/><path d="M19,7a5,5,0,0,0-3,9h0v2.75A2.25,2.25,0,0,0,18.25,21h1.5A2.25,2.25,0,0,0,22,18.75V16h0a5,5,0,0,0-3-9Zm1,11.75a.25.25,0,0,1-.25.25h-1.5a.25.25,0,0,1-.25-.25V18h2Zm.5-4.15a1,1,0,0,0-.45,1.13A1.17,1.17,0,0,0,20,16H18a1.17,1.17,0,0,0-.05-.27,1,1,0,0,0-.45-1.13,3,3,0,1,1,3,0Z"/></g></svg>