<svg fill="currentColor" xmlns="http://www.w3.org/2000/svg" viewBox="0 0 32 32"><g id="desk_chair" data-name="desk chair"><path d="M25.66,16H25V12a2.35,2.35,0,0,0,2-2.31V4.34A2.34,2.34,0,0,0,24.66,2H13.34A2.34,2.34,0,0,0,11,4.34V8H5A1,1,0,0,0,4,9v8.8A3.2,3.2,0,0,0,7.2,21H12v8a1,1,0,0,0,2,0V27H24v2a1,1,0,0,0,2,0V21a2.35,2.35,0,0,0,2-2.31v-.32A2.34,2.34,0,0,0,25.66,16ZM15,16V14h1.71A2.28,2.28,0,0,0,19,12h4v4ZM13,4.34A.34.34,0,0,1,13.34,4H24.66a.34.34,0,0,1,.34.34V9.66a.34.34,0,0,1-.34.34H19a2.28,2.28,0,0,0-2.26-2H13ZM6,10H16.71a.29.29,0,0,1,.29.29v1.42a.29.29,0,0,1-.29.29H6Zm0,7.8V14h7v2h-.66A2.34,2.34,0,0,0,10,18.34v.32c0,.12,0,.23,0,.34H7.2A1.2,1.2,0,0,1,6,17.8ZM14,25V21H24v4Zm12-6.34a.34.34,0,0,1-.34.34H12.34a.34.34,0,0,1-.34-.34v-.32a.34.34,0,0,1,.34-.34H25.66a.34.34,0,0,1,.34.34Z"/></g></svg>