<svg fill="currentColor" xmlns="http://www.w3.org/2000/svg" viewBox="0 0 32 32"><g id="ebook"><path d="M24.08,2H7.92A2.92,2.92,0,0,0,5,4.92V27.08A2.92,2.92,0,0,0,7.92,30H24.08A2.92,2.92,0,0,0,27,27.08V4.92A2.92,2.92,0,0,0,24.08,2ZM25,27.08a.92.92,0,0,1-.92.92H7.92A.92.92,0,0,1,7,27.08V4.92A.92.92,0,0,1,7.92,4H24.08a.92.92,0,0,1,.92.92Z"/><path d="M23,5H9A1,1,0,0,0,8,6V24a1,1,0,0,0,1,1H23a1,1,0,0,0,1-1V6A1,1,0,0,0,23,5ZM22,23H10V7H22Z"/><path d="M12,12h8a1,1,0,0,0,0-2H12a1,1,0,0,0,0,2Z"/><path d="M12,16h8a1,1,0,0,0,0-2H12a1,1,0,0,0,0,2Z"/><path d="M12,20h8a1,1,0,0,0,0-2H12a1,1,0,0,0,0,2Z"/></g></svg>