<svg fill="currentColor" xmlns="http://www.w3.org/2000/svg" viewBox="0 0 32 32"><g id="globe"><path d="M16,21a9,9,0,1,0-9-9c0,.26,0,.52,0,.77a1,1,0,0,0,.07.68s0,0,0,0A9,9,0,0,0,16,21ZM9.17,13.53l1.2-.6a1,1,0,0,1,.84,0,1,1,0,0,1,.58.62,3,3,0,0,0,1.51,1.75l.42.21a1,1,0,0,1,.53.66l.7,2.77A7,7,0,0,1,9.17,13.53Zm11.18,3.94-1.29-2.59.09-.11a2.06,2.06,0,0,0,1.9-.31l1.86-1.39A7,7,0,0,1,20.35,17.47ZM21.74,8H19.58a.36.36,0,0,1-.28-.12L18.42,7a2.4,2.4,0,0,0-2.77-.45.38.38,0,0,1-.5-.13l-.81-1.21A6.93,6.93,0,0,1,21.74,8ZM12.45,6l1,1.55a2.39,2.39,0,0,0,3.06.81.4.4,0,0,1,.45.08l.88.88a2.46,2.46,0,0,0,1.7.7h3.13a6.23,6.23,0,0,1,.15.62h0l-3,2.24a2.08,2.08,0,0,0-2.22.61,2.05,2.05,0,0,0-.29,2.29l1.35,2.71a6.51,6.51,0,0,1-1.64.44c0-.05,0-.11,0-.16l-.77-3.1a3,3,0,0,0-1.58-2l-.43-.21a1.06,1.06,0,0,1-.51-.59,3,3,0,0,0-4.21-1.74L9,11.37A7,7,0,0,1,12.45,6Z"/><path d="M23.07,2.3a1,1,0,0,0-1.18,1.62A10,10,0,1,1,10.11,20.08,1,1,0,0,0,8.93,21.7,12,12,0,0,0,15,24v1H10a1,1,0,0,0-1,1v3a1,1,0,0,0,1,1H22a1,1,0,0,0,1-1V26a1,1,0,0,0-1-1H17V24l.86-.1A12,12,0,0,0,23.07,2.3ZM21,28H11V27H21Z"/></g></svg>