<svg fill="currentColor" xmlns="http://www.w3.org/2000/svg" viewBox="0 0 32 32"><g id="lamp"><path d="M27.78,9.73l.93-.93a1,1,0,0,0,0-1.41L27.63,6.31a4.49,4.49,0,0,0-5.15-.83l-2.6-2.6a3.08,3.08,0,0,0-4.24,0,3,3,0,0,0,0,4.24l.41.42L9.41,14.18A2.49,2.49,0,1,0,8.33,19l2.15,5H8a5,5,0,0,0-5,5,1,1,0,0,0,1,1H18a1,1,0,0,0,1-1,5,5,0,0,0-5-5H12.66l-2.44-5.69a2.46,2.46,0,0,0,.6-2.72L17.46,9l1,1a1,1,0,0,0,.17.11,4.45,4.45,0,0,0,1.23,4l1.07,1.07a1,1,0,0,0,.71.3,1,1,0,0,0,.7-.3l1.07-1.06.31.32a3.09,3.09,0,1,0,4.37-4.37ZM16.83,28H5.17A3,3,0,0,1,8,26h6A3,3,0,0,1,16.83,28ZM8.5,16a.5.5,0,1,1-.5.5A.5.5,0,0,1,8.5,16ZM17.05,5.71A1,1,0,0,1,17.76,4a1,1,0,0,1,.7.29l2.13,2.12L19.17,7.83ZM21.64,13l-.37-.36a2.47,2.47,0,0,1,0-3.51l1.44-1.44a2.48,2.48,0,0,1,3.51,0l.37.36Zm5,0a1.09,1.09,0,0,1-1.54,0l-.05,0,1.54-1.55.05.05A1.08,1.08,0,0,1,26.68,13Z"/></g></svg>