<svg fill="currentColor" xmlns="http://www.w3.org/2000/svg" viewBox="0 0 32 32"><g id="literature"><path d="M27.23,3.74a5.07,5.07,0,0,0-7.16.06L14.31,9.61a1,1,0,0,0-.29.7l0,5L10.36,19H6a1,1,0,0,0,0,2H6L4.2,23.4a.91.91,0,0,0-.09.17s0,0,0,.06A.8.8,0,0,0,4,24s0,0,0,0v5a1,1,0,0,0,1,1H17a1,1,0,0,0,1-1V24s0,0,0,0a.8.8,0,0,0-.07-.34s0,0,0-.06a.91.91,0,0,0-.09-.17L16,21h0a1,1,0,0,0,0-2H13.18l1.92-1.94L20.76,17a1,1,0,0,0,.7-.3l5.76-5.8A5.08,5.08,0,0,0,27.23,3.74ZM16,28H6V25H16Zm-1-5H7l1.5-2h5ZM25.8,9.49,20.32,15l-3.21,0L24.39,7.7A1,1,0,0,0,23,6.3l-7,7V10.73l5.47-5.52A3,3,0,1,1,25.8,9.49Z"/></g></svg>