<svg fill="currentColor" xmlns="http://www.w3.org/2000/svg" viewBox="0 0 32 32"><g id="maths"><path d="M19,11h6a1,1,0,0,0,0-2H19a1,1,0,0,0,0,2Z"/><path d="M25,21H19a1,1,0,0,0,0,2h6a1,1,0,0,0,0-2Z"/><path d="M7,11H9v2a1,1,0,0,0,2,0V11h2a1,1,0,0,0,0-2H11V7A1,1,0,0,0,9,7V9H7a1,1,0,0,0,0,2Z"/><path d="M11.41,22l1.8-1.79a1,1,0,0,0-1.42-1.42L10,20.59l-1.79-1.8a1,1,0,1,0-1.42,1.42L8.59,22l-1.8,1.79a1,1,0,0,0,0,1.42,1,1,0,0,0,1.42,0L10,23.41l1.79,1.8a1,1,0,0,0,1.42,0,1,1,0,0,0,0-1.42Z"/><path d="M22,20a1,1,0,0,0,0-2h0a1,1,0,1,0,0,2Z"/><path d="M22,24h0a1,1,0,1,0,1,1A1,1,0,0,0,22,24Z"/><path d="M29,27V5a1,1,0,0,0,0-2H3A1,1,0,0,0,3,5V27a1,1,0,0,0,0,2H29a1,1,0,0,0,0-2ZM27,15H17V5H27ZM15,5V15H5V5ZM5,17H15V27H5ZM17,27V17H27V27Z"/></g></svg>