<svg fill="currentColor" xmlns="http://www.w3.org/2000/svg" viewBox="0 0 32 32"><g id="medal"><path d="M30,10.34a7.9,7.9,0,0,0-.86-4,2.53,2.53,0,0,0-2-1.35h0L27,5H5L4.9,5H4.85a2.53,2.53,0,0,0-2,1.35,7.9,7.9,0,0,0-.86,4,2.86,2.86,0,0,0,.73,1.79L10,20.39A6.08,6.08,0,0,0,10,21a6,6,0,0,0,12,0,6.08,6.08,0,0,0,0-.61l7.29-8.26A2.86,2.86,0,0,0,30,10.34ZM16,15a5.81,5.81,0,0,0-1.39.17L12,12H20l-2.57,3.17A5.81,5.81,0,0,0,16,15Zm5.59-5H10.41L8,7H24Zm-17.35.81A.8.8,0,0,1,4,10.25a5.94,5.94,0,0,1,0-1.11,5.78,5.78,0,0,1,.6-1.86A.49.49,0,0,1,5.06,7a.57.57,0,0,1,.51.21L12.7,16a6.12,6.12,0,0,0-2,2.16ZM16,25a4,4,0,1,1,4-4A4,4,0,0,1,16,25ZM27.76,10.81l-6.48,7.34a6.12,6.12,0,0,0-2-2.16l7.13-8.77A.57.57,0,0,1,26.94,7a.49.49,0,0,1,.4.27,5.78,5.78,0,0,1,.6,1.86,6,6,0,0,1,0,1.12A.8.8,0,0,1,27.76,10.81Z"/></g></svg>