<svg fill="currentColor" xmlns="http://www.w3.org/2000/svg" viewBox="0 0 32 32"><g id="newspaper"><path d="M29,14H28V10a1,1,0,0,0-.36-.77A1,1,0,0,0,26.82,9L26,9.17V6a1,1,0,0,0-.53-.88,1,1,0,0,0-1,0L16,10.8,7.55,5.17a1,1,0,0,0-1,0A1,1,0,0,0,6,6V9.17L5.18,9a1,1,0,0,0-.82.21A1,1,0,0,0,4,10v4H3a1,1,0,0,0-1,1v6a1,1,0,0,0,1,1H4v2a1,1,0,0,0,.82,1l11,2a.82.82,0,0,0,.36,0l11-2A1,1,0,0,0,28,24V22h1a1,1,0,0,0,1-1V15A1,1,0,0,0,29,14ZM24,9.53l-3.43.62L24,7.87ZM8,7.87l3.43,2.28L8,9.53ZM4,16h.51A1.49,1.49,0,0,1,6,17.49v1A1.49,1.49,0,0,1,4.51,20H4Zm2,5.65a3.48,3.48,0,0,0,2-3.14v-1a3.48,3.48,0,0,0-2-3.14V11.2l9,1.63v12L6,23.17ZM17,24.8v-12l9-1.63v3.15a3.48,3.48,0,0,0-2,3.14v1a3.48,3.48,0,0,0,2,3.14v1.52ZM28,20h-.51A1.49,1.49,0,0,1,26,18.51v-1A1.49,1.49,0,0,1,27.49,16H28Z"/></g></svg>