<svg fill="currentColor" xmlns="http://www.w3.org/2000/svg" viewBox="0 0 32 32"><g id="pendulum"><path d="M29,3H3A1,1,0,0,0,3,5H4V23a1,1,0,0,0-1,1v3a1,1,0,0,0,1,1H28a1,1,0,0,0,1-1V24a1,1,0,0,0-1-1V5h1a1,1,0,0,0,0-2ZM15,17a1,1,0,1,1-1,1A1,1,0,0,1,15,17Zm-1-1.82a3,3,0,0,0-1.5,1.17A3,3,0,0,0,11,15.18V5h3ZM10,17a1,1,0,1,1-1,1A1,1,0,0,1,10,17Zm17,9H5V25H27Zm-1-3H6V5H9V15.18a3,3,0,1,0,3.5,4.47A3,3,0,1,0,16,15.18V5h3.17l1.67,9.23a3,3,0,1,0,2-.09L21.2,5H26Zm-4-7a1,1,0,1,1-1,1A1,1,0,0,1,22,16Z"/></g></svg>