<svg fill="currentColor" xmlns="http://www.w3.org/2000/svg" viewBox="0 0 32 32"><g id="philosophy"><path d="M28,28H24.57l-2.63-4.38A19,19,0,0,0,25,10.92,9,9,0,0,0,7,11V28H4a1,1,0,0,0,0,2H8c.45,0,.93.06,1.45.06s.89,0,1.36-.06H28a1,1,0,0,0,0-2Zm-16.28-.12A12.12,12.12,0,0,0,15.92,20H16a9,9,0,0,0,6.66-3,14.28,14.28,0,0,1-6.18,9.12A12.89,12.89,0,0,1,11.72,27.88ZM20.9,6A6,6,0,0,0,16,8.69,6,6,0,0,0,11.1,6a7,7,0,0,1,9.8,0ZM9.71,7.94A1,1,0,0,0,10,8h1a4,4,0,0,1,4,4,1,1,0,0,0,2,0,4,4,0,0,1,4-4h1a1,1,0,0,0,.29-.06,7,7,0,1,1-12.58,0Zm4.23,11.81a10.36,10.36,0,0,1-1.76,4.68A10.34,10.34,0,0,1,9,27.38V16.64A9,9,0,0,0,13.94,19.75Zm3.58,8.1a14,14,0,0,0,3.08-2.57L22.23,28h-5A2.2,2.2,0,0,0,17.52,27.85Z"/><path d="M12,12a1,1,0,0,0,0-2h0a1,1,0,0,0,0,2Z"/><path d="M20,12a1,1,0,0,0,0-2h0a1,1,0,1,0,0,2Z"/></g></svg>