<svg fill="currentColor" xmlns="http://www.w3.org/2000/svg" viewBox="0 0 32 32"><g id="reading"><path d="M27.61,8H26V7.38a1,1,0,0,0-.73-1,11.07,11.07,0,0,0-5.72-.08A10.79,10.79,0,0,0,16,8,10.91,10.91,0,0,0,6.78,6.42a1,1,0,0,0-.73,1V8H4.39A2.39,2.39,0,0,0,2,10.39V24.61A2.39,2.39,0,0,0,4.39,27H27.61A2.39,2.39,0,0,0,30,24.61V10.39A2.39,2.39,0,0,0,27.61,8ZM17.06,9.67a8.89,8.89,0,0,1,7-1.5V22a9,9,0,0,0-7,1.39Zm-9-1.5a9,9,0,0,1,3.95.1,8.86,8.86,0,0,1,3,1.4V23.38a8.19,8.19,0,0,0-5-1.56A12.2,12.2,0,0,0,8.05,22ZM4,24.61V10.39A.4.4,0,0,1,4.39,10H6.05V23.24a1,1,0,0,0,1.28,1c.67-.19,4.08-1.05,6.49.8H4.39A.4.4,0,0,1,4,24.61Zm24,0a.4.4,0,0,1-.39.39H18.24c2.41-1.85,5.82-1,6.49-.8a1,1,0,0,0,1.28-1V10h1.6a.4.4,0,0,1,.39.39Z"/></g></svg>