<svg fill="currentColor" xmlns="http://www.w3.org/2000/svg" viewBox="0 0 32 32"><g id="table"><path d="M29,14H25V13a1.08,1.08,0,0,0-.21-.62,6.12,6.12,0,0,0-6-2.36A5.77,5.77,0,0,0,16,11.5,5.77,5.77,0,0,0,13.2,10a6.12,6.12,0,0,0-6,2.36A1.08,1.08,0,0,0,7,13v1H5V8.1a1.05,1.05,0,0,1,.47-.88l1-.64a2.11,2.11,0,0,0,0,.35,1,1,0,0,0,1,.76l.24,0,5.82-1.47A1,1,0,0,0,14.25,5,4,4,0,0,0,6.88,4a1,1,0,0,0-.43.15L4.36,5.56A3.06,3.06,0,0,0,3,8.1V14a1,1,0,0,0-1,1v3a1,1,0,0,0,1,1H4v8.28A1.72,1.72,0,0,0,5.71,29H7.29A1.72,1.72,0,0,0,9,27.28V19H23v8.29A1.72,1.72,0,0,0,24.71,29h1.58A1.72,1.72,0,0,0,28,27.29V19h1a1,1,0,0,0,1-1V15A1,1,0,0,0,29,14ZM9.88,4A1.66,1.66,0,0,1,10.37,4a2,2,0,0,1,1,.29,2.15,2.15,0,0,1,.41.32l-3.36.85A2,2,0,0,1,9.88,4Zm6.93,9.56A4.05,4.05,0,0,1,19.2,12,4.13,4.13,0,0,1,23,13.36V14H16A1,1,0,0,0,16.81,13.58ZM9,13.36A4.13,4.13,0,0,1,12.8,12a4,4,0,0,1,2.39,1.6A1,1,0,0,0,16,14H9ZM7,27H6V19H7Zm19,0H25V19h1Zm2-10H4V16H28Z"/></g></svg>