<svg fill="currentColor" xmlns="http://www.w3.org/2000/svg" viewBox="0 0 32 32"><g id="teach"><path d="M7,11A4,4,0,1,0,3,7,4,4,0,0,0,7,11ZM7,5A2,2,0,1,1,5,7,2,2,0,0,1,7,5Z"/><path d="M29,2H13a1,1,0,0,0,0,2v8H4a3,3,0,0,0-3,3V18.5A2.5,2.5,0,0,0,3,21V27.5a2.5,2.5,0,0,0,4,2,2.5,2.5,0,0,0,4-2V17h2v3a1,1,0,0,0,1,1h4.59l-4.3,4.29a1,1,0,0,0,1.42,1.42L20,22.41V26a1,1,0,0,0,2,0V22.41l4.29,4.3a1,1,0,0,0,1.42,0,1,1,0,0,0,0-1.42L23.41,21H28a1,1,0,0,0,1-1V4a1,1,0,0,0,0-2ZM10,15a1,1,0,0,0-1,1V27.5a.5.5,0,0,1-1,0V23a1,1,0,0,0-2,0v4.5a.5.5,0,0,1-1,0v-7a2.49,2.49,0,0,0,1-2V16a1,1,0,0,0-2,0v2.5a.5.5,0,0,1-1,0V15a1,1,0,0,1,1-1H15.5a.5.5,0,0,1,0,1Zm17,4H15V17h.5A2.5,2.5,0,0,0,18,14.5v0l5.64-4.7a1,1,0,1,0-1.28-1.54L17.11,12.6A2.46,2.46,0,0,0,15.5,12H15V4H27Z"/></g></svg>