<svg fill="currentColor" xmlns="http://www.w3.org/2000/svg" viewBox="0 0 32 32"><g id="translator"><path d="M27.67,15H17V4.33A2.33,2.33,0,0,0,14.67,2H4.33A2.33,2.33,0,0,0,2,4.33V14.67A2.33,2.33,0,0,0,4.33,17H15V27.67A2.33,2.33,0,0,0,17.33,30H27.67A2.33,2.33,0,0,0,30,27.67V17.33A2.33,2.33,0,0,0,27.67,15ZM4,14.67V4.33A.33.33,0,0,1,4.33,4H14.67a.33.33,0,0,1,.33.33V15H4.33A.33.33,0,0,1,4,14.67Zm24,13a.33.33,0,0,1-.33.33H17.33a.33.33,0,0,1-.33-.33V17H27.67a.33.33,0,0,1,.33.33Z"/><path d="M23.42,18.61a1,1,0,0,0-1.84,0l-3,7a1,1,0,0,0,1.84.78L21,25h3l.6,1.39a1,1,0,0,0,.92.61,1,1,0,0,0,.39-.08,1,1,0,0,0,.53-1.31ZM21.87,23l.63-1.46L23.13,23Z"/><path d="M12.5,8a1,1,0,0,0,0-2h-2a1,1,0,0,0-2,0h-2a1,1,0,0,0,0,2h.21a8.82,8.82,0,0,0,1.42,2.91,6.89,6.89,0,0,1-2,1.15A1,1,0,0,0,6.5,14a1,1,0,0,0,.35-.06A9.17,9.17,0,0,0,9.5,12.38a9.17,9.17,0,0,0,2.65,1.56,1,1,0,0,0,.35.06,1,1,0,0,0,.35-1.94,6.89,6.89,0,0,1-2-1.15A8.82,8.82,0,0,0,12.29,8Zm-3,1.38A6.58,6.58,0,0,1,8.81,8h1.38A6.58,6.58,0,0,1,9.5,9.38Z"/><path d="M19,7h2.59a.41.41,0,0,1,.41.41v2.72l-1.45-1a1,1,0,0,0-1.1,1.66l3,2,0,0,.18.08.08,0A1.09,1.09,0,0,0,23,13h0a1.27,1.27,0,0,0,.26,0l.07,0,.13,0,0,0,0,0,3-2a1,1,0,0,0-1.1-1.66l-1.45,1V7.41A2.41,2.41,0,0,0,21.59,5H19a1,1,0,0,0,0,2Z"/><path d="M12,25H9.41A.41.41,0,0,1,9,24.59V21.87l1.45,1a1,1,0,1,0,1.1-1.66l-3-2h0a.94.94,0,0,0-.3-.12l-.09,0a.76.76,0,0,0-.3,0h0a1,1,0,0,0-.27.1l0,0,0,0-3,2A1,1,0,0,0,5,23a.94.94,0,0,0,.55-.17l1.45-1v2.72A2.41,2.41,0,0,0,9.41,27H12a1,1,0,0,0,0-2Z"/></g></svg>