<svg fill="currentColor" xmlns="http://www.w3.org/2000/svg" viewBox="0 0 32 32"><g id="university"><path d="M28,22.16V11.46l1.36-.53a1,1,0,0,0,0-1.86l-13-5a1,1,0,0,0-.72,0l-13,5a1,1,0,0,0,0,1.86L8,13,7,18.84a1,1,0,0,0,.64,1.1l8,3a1.05,1.05,0,0,0,.7,0l8-3a1,1,0,0,0,.64-1.1L24.06,13,26,12.23v9.93a2.91,2.91,0,0,0-2,2.76V28a1,1,0,0,0,1,1h4a1,1,0,0,0,1-1V24.92A2.91,2.91,0,0,0,28,22.16ZM16,6.07,26.21,10,16,13.93,5.79,10Zm6.89,12.28L16,20.93,9.12,18.35l.77-4.63,5.75,2.21a1,1,0,0,0,.72,0l5.79-2.23ZM28,27H26V24.92a.92.92,0,0,1,.92-.92h.16a.92.92,0,0,1,.92.92Z"/></g></svg>