<?xml version="1.0" encoding="UTF-8"?><svg fill="currentColor" xmlns="http://www.w3.org/2000/svg" viewBox="0 0 24 24"><g id="d"><path d="M20.94,13.27c-.4-.09-.81,.16-.9,.57-.86,3.78-4.17,6.42-8.05,6.42-4.55,0-8.25-3.7-8.25-8.25S7.45,3.75,12,3.75c2.72,0,5.21,1.32,6.75,3.5h-3.75c-.41,0-.75,.34-.75,.75s.34,.75,.75,.75h5c.41,0,.75-.34,.75-.75V3c0-.41-.34-.75-.75-.75s-.75,.34-.75,.75v2.49c-1.82-2.04-4.43-3.24-7.25-3.24C6.62,2.25,2.25,6.62,2.25,12s4.37,9.75,9.75,9.75c4.58,0,8.5-3.12,9.51-7.58,.09-.4-.16-.81-.57-.9Z"/></g></svg>