<?xml version="1.0" encoding="UTF-8"?><svg fill="currentColor" xmlns="http://www.w3.org/2000/svg" viewBox="0 0 24 24"><g id="h"><path d="M18.53,17.47c-.29-.29-.77-.29-1.06,0l-1.72,1.72V7.5c0-2.89-2.36-5.25-5.25-5.25s-5.25,2.36-5.25,5.25v6.5c0,.41,.34,.75,.75,.75s.75-.34,.75-.75V7.5c0-2.07,1.68-3.75,3.75-3.75s3.75,1.68,3.75,3.75v11.69l-1.72-1.72c-.29-.29-.77-.29-1.06,0s-.29,.77,0,1.06l3,3c.07,.07,.15,.12,.24,.16,.09,.04,.19,.06,.29,.06s.2-.02,.29-.06c.09-.04,.17-.09,.24-.16l3-3c.29-.29,.29-.77,0-1.06Z"/></g></svg>