<?xml version="1.0" encoding="UTF-8"?><svg fill="currentColor" xmlns="http://www.w3.org/2000/svg" viewBox="0 0 24 24"><g id="g"><g><path d="M11,3.75h1c.41,0,.75-.34,.75-.75s-.34-.75-.75-.75h-1c-2.62,0-4.75,2.13-4.75,4.75v12.19l-1.72-1.72c-.29-.29-.77-.29-1.06,0s-.29,.77,0,1.06l3,3c.07,.07,.15,.12,.24,.16,.09,.04,.19,.06,.29,.06s.2-.02,.29-.06c.09-.04,.17-.09,.24-.16l3-3c.29-.29,.29-.77,0-1.06s-.77-.29-1.06,0l-1.72,1.72V7c0-1.79,1.46-3.25,3.25-3.25Z"/><path d="M20.53,5.47l-3-3c-.07-.07-.15-.12-.24-.16-.18-.08-.39-.08-.57,0-.09,.04-.17,.09-.24,.16l-3,3c-.29,.29-.29,.77,0,1.06s.77,.29,1.06,0l1.72-1.72v12.19c0,1.79-1.46,3.25-3.25,3.25h-1c-.41,0-.75,.34-.75,.75s.34,.75,.75,.75h1c2.62,0,4.75-2.13,4.75-4.75V4.81l1.72,1.72c.15,.15,.34,.22,.53,.22s.38-.07,.53-.22c.29-.29,.29-.77,0-1.06Z"/></g></g></svg>