<?xml version="1.0" encoding="UTF-8"?><svg fill="currentColor" xmlns="http://www.w3.org/2000/svg" viewBox="0 0 24 24"><g id="c"><g><path d="M12,18.25c-2.89,0-5.25-2.36-5.25-5.25V6.81l1.72,1.72c.15,.15,.34,.22,.53,.22s.38-.07,.53-.22c.29-.29,.29-.77,0-1.06l-3-3c-.07-.07-.15-.12-.24-.16-.18-.08-.39-.08-.57,0-.09,.04-.17,.09-.24,.16l-3,3c-.29,.29-.29,.77,0,1.06s.77,.29,1.06,0l1.72-1.72v6.19c0,3.72,3.03,6.75,6.75,6.75,.41,0,.75-.34,.75-.75s-.34-.75-.75-.75Z"/><path d="M21.53,15.47c-.29-.29-.77-.29-1.06,0l-1.72,1.72v-6.19c0-3.72-3.03-6.75-6.75-6.75-.41,0-.75,.34-.75,.75s.34,.75,.75,.75c2.89,0,5.25,2.36,5.25,5.25v6.19l-1.72-1.72c-.29-.29-.77-.29-1.06,0s-.29,.77,0,1.06l3,3c.07,.07,.15,.12,.24,.16,.09,.04,.19,.06,.29,.06s.2-.02,.29-.06c.09-.04,.17-.09,.24-.16l3-3c.29-.29,.29-.77,0-1.06Z"/></g></g></svg>