<?xml version="1.0" encoding="UTF-8"?><svg fill="currentColor" xmlns="http://www.w3.org/2000/svg" viewBox="0 0 24 24"><g id="b"><path d="M18.53,13.47c-.29-.29-.77-.29-1.06,0s-.29,.77,0,1.06l1.72,1.72h-.19c-2.31,0-4.47-1.04-5.91-2.84l-1.13-1.41,1.13-1.41c1.45-1.81,3.6-2.84,5.91-2.84h.19l-1.72,1.72c-.29,.29-.29,.77,0,1.06,.15,.15,.34,.22,.53,.22s.38-.07,.53-.22l3-3c.29-.29,.29-.77,0-1.06l-3-3c-.29-.29-.77-.29-1.06,0s-.29,.77,0,1.06l1.72,1.72h-.19c-2.77,0-5.35,1.24-7.08,3.4l-.92,1.14-.92-1.14c-1.73-2.16-4.31-3.4-7.08-3.4-.41,0-.75,.34-.75,.75s.34,.75,.75,.75c2.31,0,4.47,1.04,5.91,2.84l1.13,1.41-1.13,1.41c-1.45,1.81-3.6,2.84-5.91,2.84-.41,0-.75,.34-.75,.75s.34,.75,.75,.75c2.77,0,5.35-1.24,7.08-3.4l.92-1.14,.92,1.14c1.73,2.16,4.31,3.4,7.08,3.4h.19l-1.72,1.72c-.29,.29-.29,.77,0,1.06,.15,.15,.34,.22,.53,.22s.38-.07,.53-.22l3-3c.29-.29,.29-.77,0-1.06l-3-3Z"/></g></svg>