<?xml version="1.0" encoding="UTF-8"?><svg fill="currentColor" xmlns="http://www.w3.org/2000/svg" viewBox="0 0 24 24"><g id="m"><g><path d="M2.31,8.29c.04,.09,.09,.17,.16,.24l3,3c.15,.15,.34,.22,.53,.22s.38-.07,.53-.22c.29-.29,.29-.77,0-1.06l-1.72-1.72H21c.41,0,.75-.34,.75-.75s-.34-.75-.75-.75H4.81l1.72-1.72c.29-.29,.29-.77,0-1.06s-.77-.29-1.06,0l-3,3c-.07,.07-.12,.15-.16,.24-.08,.18-.08,.39,0,.57Z"/><path d="M21.69,15.71c-.04-.09-.09-.17-.16-.24l-3-3c-.29-.29-.77-.29-1.06,0s-.29,.77,0,1.06l1.72,1.72H3c-.41,0-.75,.34-.75,.75s.34,.75,.75,.75H19.19l-1.72,1.72c-.29,.29-.29,.77,0,1.06,.15,.15,.34,.22,.53,.22s.38-.07,.53-.22l3-3c.07-.07,.12-.15,.16-.24,.08-.18,.08-.39,0-.57Z"/></g></g></svg>