<?xml version="1.0" encoding="UTF-8"?><svg fill="currentColor" xmlns="http://www.w3.org/2000/svg" viewBox="0 0 24 24"><g id="k"><path d="M14.47,17.47l-1.72,1.72V4.81l1.72,1.72c.15,.15,.34,.22,.53,.22s.38-.07,.53-.22c.29-.29,.29-.77,0-1.06l-3-3c-.07-.07-.15-.12-.24-.16-.18-.08-.39-.08-.57,0-.09,.04-.17,.09-.24,.16l-3,3c-.29,.29-.29,.77,0,1.06s.77,.29,1.06,0l1.72-1.72v14.38l-1.72-1.72c-.29-.29-.77-.29-1.06,0s-.29,.77,0,1.06l3,3c.07,.07,.15,.12,.24,.16,.09,.04,.19,.06,.29,.06s.19-.02,.29-.06c.09-.04,.17-.09,.24-.16l3-3c.29-.29,.29-.77,0-1.06s-.77-.29-1.06,0Z"/></g></svg>