<?xml version="1.0" encoding="UTF-8"?><svg fill="currentColor" xmlns="http://www.w3.org/2000/svg" viewBox="0 0 24 24"><g id="i"><path d="M17.47,11.53c.15,.15,.34,.22,.53,.22s.38-.07,.53-.22l3-3c.07-.07,.12-.15,.16-.24,.08-.18,.08-.39,0-.57-.04-.09-.09-.17-.16-.24l-3-3c-.29-.29-.77-.29-1.06,0s-.29,.77,0,1.06l1.72,1.72H9c-3.72,0-6.75,3.03-6.75,6.75v1c0,3.72,3.03,6.75,6.75,6.75h11c.41,0,.75-.33,.75-.75s-.34-.75-.75-.75H9c-2.9,0-5.25-2.36-5.25-5.25v-1c0-2.89,2.35-5.25,5.25-5.25h10.19l-1.72,1.72c-.29,.29-.29,.77,0,1.06Z"/></g></svg>