<svg fill="currentColor" xmlns="http://www.w3.org/2000/svg" viewBox="0 0 32 32"><g id="basket"><path d="M27.78,7H4.22A2.23,2.23,0,0,0,2,9.22v1.56a2.21,2.21,0,0,0,1,1.88l.77,10A3.64,3.64,0,0,0,7.43,26H24.57a3.64,3.64,0,0,0,3.61-3.35l.77-10A2.21,2.21,0,0,0,30,10.78V9.22A2.23,2.23,0,0,0,27.78,7ZM4,9.22A.22.22,0,0,1,4.22,9H27.78a.22.22,0,0,1,.22.22v1.56a.22.22,0,0,1-.22.22H4.22A.22.22,0,0,1,4,10.78ZM26.19,22.5A1.63,1.63,0,0,1,24.57,24H7.43a1.64,1.64,0,0,1-1.62-1.5L5.08,13H26.92Z"/><path d="M16,22a1,1,0,0,0,1-1V16a1,1,0,0,0-2,0v5A1,1,0,0,0,16,22Z"/><path d="M21,22a1,1,0,0,0,1-1V16a1,1,0,0,0-2,0v5A1,1,0,0,0,21,22Z"/><path d="M11,22a1,1,0,0,0,1-1V16a1,1,0,0,0-2,0v5A1,1,0,0,0,11,22Z"/></g></svg>