<svg fill="currentColor" xmlns="http://www.w3.org/2000/svg" viewBox="0 0 32 32"><g id="bathroom"><path d="M29,26V6a1,1,0,0,0,0-2H3A1,1,0,0,0,3,6V26a1,1,0,0,0,0,2H29a1,1,0,0,0,0-2ZM5,6h8V26H5ZM15,26V6H27V7H22.57A3.56,3.56,0,0,0,19,10.17,3,3,0,0,0,17,13v2a1,1,0,0,0,1,1h4a1,1,0,0,0,1-1V13a3,3,0,0,0-1.95-2.8A1.56,1.56,0,0,1,22.57,9H27V26Zm5-14a1,1,0,0,1,1,1v1H19V13A1,1,0,0,1,20,12Z"/><path d="M11,14a1,1,0,0,0-1,1v2a1,1,0,0,0,2,0V15A1,1,0,0,0,11,14Z"/><path d="M20,17a1,1,0,0,0-1,1v1a1,1,0,0,0,2,0V18A1,1,0,0,0,20,17Z"/><path d="M20,21a1,1,0,0,0-1,1v1a1,1,0,0,0,2,0V22A1,1,0,0,0,20,21Z"/><path d="M23,17a1,1,0,0,0-1,1v1a1,1,0,0,0,2,0V18A1,1,0,0,0,23,17Z"/><path d="M23,21a1,1,0,0,0-1,1v1a1,1,0,0,0,2,0V22A1,1,0,0,0,23,21Z"/><path d="M17,17a1,1,0,0,0-1,1v1a1,1,0,0,0,2,0V18A1,1,0,0,0,17,17Z"/><path d="M17,21a1,1,0,0,0-1,1v1a1,1,0,0,0,2,0V22A1,1,0,0,0,17,21Z"/></g></svg>