<svg fill="currentColor" xmlns="http://www.w3.org/2000/svg" viewBox="0 0 32 32"><g id="bathub"><path d="M28.23,16H28V7.5A5.5,5.5,0,0,0,17,7a4.08,4.08,0,0,0-4,4.08A1.9,1.9,0,0,0,14.91,13h6.18A1.91,1.91,0,0,0,23,11.09,4.1,4.1,0,0,0,19.05,7a3.49,3.49,0,0,1,7,.49V16H3.77A1.77,1.77,0,0,0,2,17.77v2.91a7.33,7.33,0,0,0,5,6.93l-.69.68a1,1,0,0,0,0,1.42,1,1,0,0,0,1.42,0L9.41,28H22.59l1.7,1.71a1,1,0,0,0,1.42,0,1,1,0,0,0,0-1.42L25,27.61a7.33,7.33,0,0,0,5-6.93V17.77A1.77,1.77,0,0,0,28.23,16ZM21,11H15a2.1,2.1,0,0,1,2.09-2h1.82A2.1,2.1,0,0,1,21,11Zm7,9.68A5.33,5.33,0,0,1,22.68,26H9.32A5.33,5.33,0,0,1,4,20.68V18H28Z"/></g></svg>