<svg fill="currentColor" xmlns="http://www.w3.org/2000/svg" viewBox="0 0 32 32"><g id="closet"><path d="M27,5H25V3a1,1,0,0,0-1-1H8A1,1,0,0,0,7,3V17a1,1,0,0,0,1,1h2.8a7.77,7.77,0,0,0,.5,1H10a1,1,0,0,0,0,2h1a5,5,0,0,0,2,4,1.77,1.77,0,0,0,0,.23,3.43,3.43,0,0,1,0,1.56A3.64,3.64,0,0,1,12.5,28H11a1,1,0,0,0,0,2H21a1,1,0,0,0,0-2H19.5A3.45,3.45,0,0,1,19,26.78a3.5,3.5,0,0,1,0-1.56A1.77,1.77,0,0,0,19,25a5,5,0,0,0,2-4h1a1,1,0,0,0,0-2H20.7a7.77,7.77,0,0,0,.5-1H24a1,1,0,0,0,1-1V7h1V8a1,1,0,0,0,2,0V6A1,1,0,0,0,27,5ZM17,27.22a5.88,5.88,0,0,0,.25.78H14.73a5.88,5.88,0,0,0,.25-.78,5.76,5.76,0,0,0,.12-1.31A5.38,5.38,0,0,0,16,26a5.38,5.38,0,0,0,.9-.09A5.76,5.76,0,0,0,17,27.22ZM16,24a3,3,0,0,1-3-3h6A3,3,0,0,1,16,24Zm-2.22-5a.47.47,0,0,0-.06-.09A7.23,7.23,0,0,1,12,14c0-3.25,1.83-6,4-6s4,2.75,4,6a7.23,7.23,0,0,1-1.72,4.91.47.47,0,0,0-.06.09ZM23,16H21.81A10.94,10.94,0,0,0,22,14c0-4.41-2.69-8-6-8s-6,3.59-6,8a10.94,10.94,0,0,0,.19,2H9V4H23Z"/></g></svg>