<svg fill="currentColor" xmlns="http://www.w3.org/2000/svg" viewBox="0 0 32 32"><g id="cream"><path d="M30,9.5C30,5.89,23,4,16,4S2,5.89,2,9.5a2.91,2.91,0,0,0,0,.31A1.06,1.06,0,0,0,2,10V22a1,1,0,0,0,0,.25,1,1,0,0,0,0,.25C2,26.11,9,28,16,28s14-1.89,14-5.5a1,1,0,0,0-.05-.25A1,1,0,0,0,30,22V10a1.06,1.06,0,0,0,0-.19A2.91,2.91,0,0,0,30,9.5Zm-2,5c0,1.43-4.67,3.5-12,3.5S4,15.93,4,14.5v-2C6.58,14.14,11.31,15,16,15s9.42-.86,12-2.53ZM16,6c7.33,0,12,2.07,12,3.5S23.33,13,16,13,4,10.93,4,9.5,8.67,6,16,6Zm0,20C8.67,26,4,23.93,4,22.5a1,1,0,0,0,0-.25A1,1,0,0,0,4,22V17.47C6.58,19.14,11.31,20,16,20s9.42-.86,12-2.53V22a1,1,0,0,0,.05.25,1,1,0,0,0-.05.25C28,23.93,23.33,26,16,26Z"/><path d="M19,22H13a1,1,0,0,0,0,2h6a1,1,0,0,0,0-2Z"/></g></svg>