<svg fill="currentColor" xmlns="http://www.w3.org/2000/svg" viewBox="0 0 32 32"><g id="hair_dryer" data-name="hair dryer"><path d="M29.08,6.52,9.56,5A7,7,0,0,0,4.25,17.17,7.11,7.11,0,0,0,8.07,19l1.44,6.47a3.93,3.93,0,1,0,7.67-1.7L16,18.52l13-1a1,1,0,0,0,.92-1v-9A1,1,0,0,0,29.08,6.52ZM4,12A5,5,0,0,1,9,7,2.55,2.55,0,0,1,9.4,7L24,8.14V15.9L9.4,17A5,5,0,0,1,4,12Zm10,6.72,1.21,5.43a1.91,1.91,0,0,1-.38,1.63A1.92,1.92,0,0,1,11.47,25l-1.34-6,3.89-.3A.16.16,0,0,1,14,18.74Zm14-3.15-2,.16V8.29l2,.16Z"/><path d="M13,12a3.5,3.5,0,1,0-3.5,3.5A3.5,3.5,0,0,0,13,12ZM8,12a1.5,1.5,0,1,1,1.5,1.5A1.5,1.5,0,0,1,8,12Z"/></g></svg>