<svg fill="currentColor" xmlns="http://www.w3.org/2000/svg" viewBox="0 0 32 32"><g id="hanger"><path d="M27.84,14,18.7,10.5a7.71,7.71,0,0,0-1.7-.43V8.82A3,3,0,1,0,13,6a1,1,0,0,0,2,0,1,1,0,1,1,1,1,1,1,0,0,0-1,1v2.07a7.71,7.71,0,0,0-1.7.43L4.16,14a3.37,3.37,0,0,0,1.21,6.51H7v5.26A3.21,3.21,0,0,0,10.21,29H21.79A3.21,3.21,0,0,0,25,25.79V20.53h1.63A3.37,3.37,0,0,0,27.84,14ZM23,25.79A1.21,1.21,0,0,1,21.79,27H10.21A1.21,1.21,0,0,1,9,25.79v-6.6A.18.18,0,0,1,9.19,19H22.81a.18.18,0,0,1,.19.19Zm3.63-7.26H24.89A2.19,2.19,0,0,0,22.81,17H9.19A2.2,2.2,0,0,0,7.1,18.55l-.1,0H5.37a1.37,1.37,0,0,1-.49-2.65L14,12.37A5.48,5.48,0,0,1,16,12h0a5.48,5.48,0,0,1,2,.37l9.13,3.51a1.37,1.37,0,0,1-.49,2.65Z"/></g></svg>