<svg fill="currentColor" xmlns="http://www.w3.org/2000/svg" viewBox="0 0 32 32"><g id="heater"><path d="M29,7H24.5A3.5,3.5,0,0,0,21,10.5c0,.11,0,.22,0,.33A1,1,0,0,0,21,11v6a3,3,0,0,0,2,2.82V24a4,4,0,0,1-8,0V23a2.15,2.15,0,0,0,2-2.13v-1a2.92,2.92,0,0,0,2-2.76V4.92A2.92,2.92,0,0,0,16.08,2H4.92A2.92,2.92,0,0,0,2,4.92V17.08a2.92,2.92,0,0,0,2,2.76v1A2.15,2.15,0,0,0,6,23v6a1,1,0,0,0,2,0V23a2.15,2.15,0,0,0,2-2.13V20h1v.86A2.15,2.15,0,0,0,13,23v1a6,6,0,0,0,12,0V19.82A3,3,0,0,0,27,17V14h2a1,1,0,0,0,1-1V8A1,1,0,0,0,29,7ZM13,4V9.5a2.5,2.5,0,0,1-5,0V4ZM4,4.92A.92.92,0,0,1,4.92,4H6V9.5a4.5,4.5,0,0,0,9,0V4h1.08a.92.92,0,0,1,.92.92V17.08a.92.92,0,0,1-.92.92H4.92A.92.92,0,0,1,4,17.08ZM8,20.86a.14.14,0,0,1-.14.14H6.14A.14.14,0,0,1,6,20.86V20H8ZM15,20v.86a.14.14,0,0,1-.14.14H13.14a.14.14,0,0,1-.14-.14V20Zm10-3a1,1,0,0,1-2,0V13.65a3.45,3.45,0,0,0,1.5.35H25Zm3-5H24.5a1.5,1.5,0,0,1,0-3H28Z"/><path d="M10,10h1a1,1,0,0,0,0-2H10a1,1,0,0,0,0,2Z"/></g></svg>