<svg fill="currentColor" xmlns="http://www.w3.org/2000/svg" viewBox="0 0 32 32"><g id="nail_clipper" data-name="nail clipper"><path d="M23,8.84l-1-6a1,1,0,0,0-1.68-.56A6.35,6.35,0,0,1,16,4a6.36,6.36,0,0,1-4.31-1.72,1,1,0,0,0-1-.23,1,1,0,0,0-.67.79l-1,6A2.17,2.17,0,0,0,9,9.1l1.61,16a5.42,5.42,0,0,0,10.78,0L23,9.1A2.17,2.17,0,0,0,23,8.84Zm-11.27-4A8.14,8.14,0,0,0,16,6a8.52,8.52,0,0,0,4.29-1.2l.62,3.73A9.14,9.14,0,0,1,16,10a9.07,9.07,0,0,1-4.91-1.46ZM19.4,24.92a3.42,3.42,0,0,1-6.8,0l-1.41-14A11,11,0,0,0,16,12a11.18,11.18,0,0,0,4.81-1.11Z"/><path d="M18,13H14a1,1,0,0,0-.75.33,1,1,0,0,0-.24.78l.89,8a2.11,2.11,0,0,0,4.2,0l.89-8a1,1,0,0,0-.24-.78A1,1,0,0,0,18,13Zm-1.88,8.9c0,.11-.22.12-.24,0L15.12,15h1.76Z"/></g></svg>