<svg fill="currentColor" xmlns="http://www.w3.org/2000/svg" viewBox="0 0 32 32"><g id="pajamas"><path d="M30,17.76l-3-12a1,1,0,0,0-.7-.72l-7-2A.8.8,0,0,0,19,3H13a.8.8,0,0,0-.27,0l-7,2a1,1,0,0,0-.7.72l-3,12a1,1,0,0,0,.18.86A1,1,0,0,0,3,19H7.9L7,27.9a1,1,0,0,0,.26.77A1,1,0,0,0,8,29H24a1,1,0,0,0,.74-.33A1,1,0,0,0,25,27.9L24.11,19H29a1,1,0,0,0,.79-.38A1,1,0,0,0,30,17.76ZM10,22V21H22v1ZM14.39,5h3.22L16,9.84ZM4.28,17,6.83,6.8l5.52-1.58L16,16.16V19H9.91l.08-.89,1-7a1,1,0,1,0-2-.28L8.13,17Zm5.13,7H16v3H9.1ZM18,27V24h4.59l.3,3Zm5.87-10L23,10.86a1,1,0,0,0-2,.28l1,7,.08.87H18V16a1.19,1.19,0,0,0-.05-.32L17.05,13l2.6-7.78L25.17,6.8,27.72,17Z"/></g></svg>