<svg fill="currentColor" xmlns="http://www.w3.org/2000/svg" viewBox="0 0 32 32"><g id="shampoo"><path d="M22,11H21v-.45A2.55,2.55,0,0,0,18.45,8H18V7h3a1,1,0,0,0,1-1V3a1,1,0,0,0-1-1H13a1,1,0,0,0-1,1V4H9.62A3.24,3.24,0,0,0,6.54,6.22L6.05,7.68A1,1,0,0,0,6.68,9,1.25,1.25,0,0,0,7,9a1,1,0,0,0,1-.68l.49-1.47A1.24,1.24,0,0,1,9.62,6H12a1,1,0,0,0,1,1h3V8h-.45A2.55,2.55,0,0,0,13,10.55V11H12a3,3,0,0,0-3,3V28.25A1.76,1.76,0,0,0,10.75,30h12.5A1.76,1.76,0,0,0,25,28.25V14A3,3,0,0,0,22,11ZM14,4h6V5H14Zm1,6.55a.55.55,0,0,1,.55-.55h2.9a.55.55,0,0,1,.55.55V11H15ZM12,13H22a1,1,0,0,1,1,1v1H11V14A1,1,0,0,1,12,13ZM23,24H11V17H23ZM11,28V26H23v2Z"/></g></svg>