<svg fill="currentColor" xmlns="http://www.w3.org/2000/svg" viewBox="0 0 32 32"><g id="shower"><path d="M20,2a8,8,0,0,0-7.88,6.84l0,.16H11A5,5,0,0,0,6,14v1.19A2.86,2.86,0,0,0,8.86,18h8.28A2.86,2.86,0,0,0,20,15.14V14A5,5,0,0,0,15.05,9h-.89A6,6,0,0,1,26,10V29a1,1,0,0,0,2,0V10A8,8,0,0,0,20,2ZM18,14v1.19a.85.85,0,0,1-.86.86H8.86A.85.85,0,0,1,8,15.14V14A3,3,0,0,1,11,11h4.1A3,3,0,0,1,18,14Z"/><path d="M13,20a1,1,0,0,0-1,1v2a1,1,0,0,0,2,0V21A1,1,0,0,0,13,20Z"/><path d="M13,26a1,1,0,0,0-1,1v2a1,1,0,0,0,2,0V27A1,1,0,0,0,13,26Z"/><path d="M8,20.29,6.54,21.71a1,1,0,0,0,0,1.41,1,1,0,0,0,.7.29A1,1,0,0,0,8,23.12l1.41-1.41a1,1,0,0,0,0-1.42A1,1,0,0,0,8,20.29Z"/><path d="M3.71,24.54,2.29,26a1,1,0,1,0,1.42,1.41L5.12,26a1,1,0,1,0-1.41-1.41Z"/><path d="M18.05,20.29a1,1,0,0,0-1.41,0,1,1,0,0,0,0,1.42l1.41,1.41a1,1,0,0,0,.71.29,1,1,0,0,0,.7-.29,1,1,0,0,0,0-1.41Z"/><path d="M22.29,24.54A1,1,0,0,0,20.88,26l1.41,1.41A1,1,0,1,0,23.71,26Z"/></g></svg>