<svg fill="currentColor" xmlns="http://www.w3.org/2000/svg" viewBox="0 0 32 32"><g id="sitting_mirror" data-name="sitting mirror"><path d="M16,23a9,9,0,1,0-9-9A9,9,0,0,0,16,23ZM16,7a7,7,0,1,1-7,7A7,7,0,0,1,16,7Z"/><path d="M30,27.76l-.24-1A5,5,0,0,0,24.86,23h-.95A12,12,0,1,0,8.09,23h-1a5,5,0,0,0-4.87,3.8l-.24,1a1,1,0,0,0,.18.86A1,1,0,0,0,3,29H29a1,1,0,0,0,.79-.38A1,1,0,0,0,30,27.76ZM6,14A10,10,0,1,1,16,24,10,10,0,0,1,6,14ZM4.3,27a3,3,0,0,1,2.84-2H11a.8.8,0,0,0,.15,0,11.93,11.93,0,0,0,9.7,0A.8.8,0,0,0,21,25h3.86a3,3,0,0,1,2.84,2Z"/></g></svg>