<svg fill="currentColor" xmlns="http://www.w3.org/2000/svg" viewBox="0 0 32 32"><g id="slippers"><path d="M8,3A6,6,0,0,0,2,9V19a1,1,0,0,0,1,1v6.11A2.9,2.9,0,0,0,5.89,29h4.22A2.9,2.9,0,0,0,13,26.11V20a1,1,0,0,0,1-1V9A6,6,0,0,0,8,3ZM6,18H4V16h8v2H6ZM8,5a4,4,0,0,1,4,4v5H4V9A4,4,0,0,1,8,5Zm3,21.11a.89.89,0,0,1-.89.89H5.89A.89.89,0,0,1,5,26.11V20h6Z"/><path d="M24,3a6,6,0,0,0-6,6V19a1,1,0,0,0,1,1v6.11A2.9,2.9,0,0,0,21.89,29h4.22A2.9,2.9,0,0,0,29,26.11V20a1,1,0,0,0,1-1V9A6,6,0,0,0,24,3ZM20,9a4,4,0,0,1,8,0v5H20Zm8,9H20V16h8Zm-1,8.11a.89.89,0,0,1-.89.89H21.89a.89.89,0,0,1-.89-.89V20h6Z"/></g></svg>