<svg fill="currentColor" xmlns="http://www.w3.org/2000/svg" viewBox="0 0 32 32"><g id="soap"><path d="M29,12.43a3.06,3.06,0,0,0-2.43-.73,71.21,71.21,0,0,1-9.66.62,3.94,3.94,0,0,0,.14-1,4,4,0,1,0-8,0,3.31,3.31,0,0,0,.06.55c-.53-.06-1.07-.11-1.58-.18a3.11,3.11,0,0,0-2,.41,1.27,1.27,0,0,0-.27.25l-.21,0a3,3,0,0,0-1,5.82v5.79a3,3,0,0,0,1,2.3,3.07,3.07,0,0,0,2,.76l.41,0a72.24,72.24,0,0,1,19,0,3.06,3.06,0,0,0,3.48-3V14.73A3,3,0,0,0,29,12.43ZM13,9.33a2,2,0,1,1-2,2A2,2,0,0,1,13,9.33Zm-8,5a1,1,0,1,1-1,1A1,1,0,0,1,5,14.33Zm23,9.61a1,1,0,0,1-.36.79,1.06,1.06,0,0,1-.85.26A73.77,73.77,0,0,0,7.21,25a1.06,1.06,0,0,1-.85-.26A1,1,0,0,1,6,23.94V18.15a3,3,0,0,0,2-2.82,3,3,0,0,0-.48-1.61c.77.1,1.56.19,2.38.27H10a4,4,0,0,0,5.67.28.88.88,0,0,0,.29.06,74.11,74.11,0,0,0,10.8-.65,1.06,1.06,0,0,1,.85.26,1,1,0,0,1,.36.79Z"/><path d="M22.08,16H11.92A1.92,1.92,0,0,0,10,17.92v3.16A1.92,1.92,0,0,0,11.92,23H22.08A1.92,1.92,0,0,0,24,21.08V17.92A1.92,1.92,0,0,0,22.08,16ZM22,21H12V18H22Z"/><path d="M5.5,9.33A2.5,2.5,0,1,0,3,6.83,2.5,2.5,0,0,0,5.5,9.33Zm0-3a.5.5,0,0,1,.5.5.5.5,0,0,1-1,0A.5.5,0,0,1,5.5,6.33Z"/></g></svg>