<svg fill="currentColor" xmlns="http://www.w3.org/2000/svg" viewBox="0 0 32 32"><g id="tissue"><path d="M19,2H9L8.88,2,8.5,2C4.92,2,2,5.59,2,10s2.92,8,6.5,8A5.92,5.92,0,0,0,13,15.76V29a1,1,0,0,0,1,1H27a1,1,0,0,0,1-1V11A9,9,0,0,0,19,2ZM8.5,16C6,16,4,13.31,4,10S6,4,8.5,4,13,6.69,13,10,11,16,8.5,16ZM15,28V17.85a1,1,0,0,0,0-1.7V11a1,1,0,0,0,0-.17c0-.28,0-.55,0-.83a8.84,8.84,0,0,0-2.22-6H19a7.05,7.05,0,0,1,7,7v5.11a1,1,0,0,0,0,1.7V28Z"/><path d="M18.86,16H17.77a1,1,0,1,0,0,2h1.09a1,1,0,0,0,0-2Z"/><path d="M23.23,16H22.14a1,1,0,0,0,0,2h1.09a1,1,0,1,0,0-2Z"/><path d="M8.5,6C7.05,6,6,7.68,6,10s1,4,2.5,4S11,12.32,11,10,10,6,8.5,6Zm0,5.94A3.29,3.29,0,0,1,8,10a3.29,3.29,0,0,1,.5-1.94A3.29,3.29,0,0,1,9,10,3.29,3.29,0,0,1,8.5,11.94Z"/></g></svg>