<svg fill="currentColor" xmlns="http://www.w3.org/2000/svg" viewBox="0 0 32 32"><g id="tootbrush"><path d="M14,7h-.18L13,2.8A1,1,0,0,0,12,2H8a1,1,0,0,0-1,.8L6.18,7H6A1,1,0,0,0,5,8L4,29a1,1,0,0,0,.28.74A1,1,0,0,0,5,30H15a1,1,0,0,0,.72-.31A1,1,0,0,0,16,29L15,8A1,1,0,0,0,14,7ZM8.82,4h2.36l.6,3H8.22ZM6.05,28l.09-2H11a1,1,0,0,0,0-2H6.24L7,9h6.1L14,28Z"/><path d="M23.57,2H20a1,1,0,0,0-1,1v7.88a6.12,6.12,0,0,0,1.79,4.33A4.13,4.13,0,0,1,22,18.12V29a1,1,0,0,0,2,0V18.12a6.12,6.12,0,0,0-1.79-4.33,3.93,3.93,0,0,1-.62-.79h2A2.43,2.43,0,0,0,26,10.57V4.43A2.43,2.43,0,0,0,23.57,2ZM24,10.57a.43.43,0,0,1-.43.43H21V4h2.57a.43.43,0,0,1,.43.43Z"/></g></svg>