<svg fill="currentColor" xmlns="http://www.w3.org/2000/svg" viewBox="0 0 32 32"><g id="toothbrush_2" data-name="toothbrush 2"><path d="M22.59,18H21V17a1,1,0,0,0-1-1H14.69a6.13,6.13,0,0,0-1.87-2.21,4,4,0,0,1-.74-.68L14,12.79a2.44,2.44,0,0,0,2-2.79l-1-6.06a2.39,2.39,0,0,0-1-1.58,2.42,2.42,0,0,0-1.81-.43L8.75,2.5a1,1,0,0,0-.65.41,1,1,0,0,0-.18.74l1.27,7.78a6,6,0,0,0,2.46,4,4,4,0,0,1,.64.59H8a1,1,0,0,0-1,1v9.57A3.44,3.44,0,0,0,10.43,30h7.14A3.43,3.43,0,0,0,21,27h1.63A3.41,3.41,0,0,0,26,23.59V21.41A3.41,3.41,0,0,0,22.59,18ZM11.18,11.23s0-.08,0-.12l-1.1-6.79,2.53-.41a.43.43,0,0,1,.33.07.48.48,0,0,1,.17.28l1,6.06a.44.44,0,0,1-.36.5ZM19,26.57A1.43,1.43,0,0,1,17.57,28H10.43A1.43,1.43,0,0,1,9,26.57V18H19v8.57Zm5-3A1.41,1.41,0,0,1,22.59,25H21V20h1.59A1.41,1.41,0,0,1,24,21.41Z"/></g></svg>