<svg fill="currentColor" xmlns="http://www.w3.org/2000/svg" viewBox="0 0 32 32"><g id="towel"><path d="M27,8H26V7.5A3.5,3.5,0,0,0,22.5,4l-.33,0A1,1,0,0,0,22,4H9.49A3.49,3.49,0,0,0,6,7.49V8H5a3,3,0,0,0,0,6H6V24.51A3.49,3.49,0,0,0,9.49,28h8A3.49,3.49,0,0,0,21,24.51V23h2.08A2.92,2.92,0,0,0,26,20.08V14h1a3,3,0,0,0,0-6Zm-3-.5V8H21V7.5a1.5,1.5,0,0,1,3,0ZM5,12a1,1,0,0,1,0-2H6v2ZM19,24.51A1.49,1.49,0,0,1,17.51,26h-8A1.49,1.49,0,0,1,8,24.51v-17A1.49,1.49,0,0,1,9.49,6h9.86A3.45,3.45,0,0,0,19,7.5v17Zm5-4.43a.92.92,0,0,1-.92.92H21V14h3ZM27,12H21V10h6a1,1,0,0,1,0,2Z"/></g></svg>