<svg fill="currentColor" xmlns="http://www.w3.org/2000/svg" viewBox="0 0 32 32"><g id="wastafel"><path d="M25,2H7A1,1,0,0,0,6,3V23a1,1,0,0,0,1,1H9.34A4.71,4.71,0,0,0,13,26.93V27a3,3,0,0,0,6,0v-.07A4.71,4.71,0,0,0,22.66,24H25a1,1,0,0,0,1-1V3A1,1,0,0,0,25,2ZM16,28a1,1,0,0,1-1-1h2A1,1,0,0,1,16,28Zm2.28-3H13.72A2.72,2.72,0,0,1,11,22.28V21H21v1.28A2.72,2.72,0,0,1,18.28,25ZM24,22H23V20a1,1,0,0,0-1-1H17V15.23a.55.55,0,0,1,.29-.27.8.8,0,0,1,.82.49,1,1,0,1,0,1.78-.9A2.75,2.75,0,0,0,16.71,13a2.68,2.68,0,0,0-1.64,1.6A.92.92,0,0,0,15,15v4H10a1,1,0,0,0-1,1v2H8V4H24Z"/><path d="M10,9a1,1,0,0,0,.71-.29l2-2a1,1,0,1,0-1.42-1.42l-2,2a1,1,0,0,0,0,1.42A1,1,0,0,0,10,9Z"/><path d="M10.29,11.71a1,1,0,0,0,1.42,0l4-4a1,1,0,1,0-1.42-1.42l-4,4A1,1,0,0,0,10.29,11.71Z"/></g></svg>