<svg fill="currentColor" xmlns="http://www.w3.org/2000/svg" viewBox="0 0 32 32"><g id="water"><path d="M11.09,16.08A4.46,4.46,0,0,0,11.58,12l-.05-.09L8.33,5.55a1,1,0,0,0-1.79,0l-3.2,6.33a.36.36,0,0,0,0,.09,4.43,4.43,0,0,0,7.79,4.11ZM5.43,14.94a2.4,2.4,0,0,1-.28-2.2L7.44,8.21l2.29,4.53A2.44,2.44,0,0,1,7.44,16,2.38,2.38,0,0,1,5.43,14.94Z"/><path d="M13.72,25.16l-2.33-4.61a1,1,0,0,0-1.78,0L7.28,25.16a.36.36,0,0,0,0,.09,3.45,3.45,0,0,0,.38,3.23,3.49,3.49,0,0,0,5.76,0,3.45,3.45,0,0,0,.38-3.23A.25.25,0,0,0,13.72,25.16Zm-2,2.19a1.53,1.53,0,0,1-2.46,0A1.46,1.46,0,0,1,9.09,26l1.41-2.8L11.91,26A1.46,1.46,0,0,1,11.73,27.35Z"/><path d="M27.5,14.73a.36.36,0,0,1,0-.09L21.39,2.55a1,1,0,0,0-1.78,0L13.54,14.64a.36.36,0,0,1,0,.09,7.62,7.62,0,0,0,.85,7,7.46,7.46,0,0,0,12.3,0A7.62,7.62,0,0,0,27.5,14.73ZM25,20.62a5.46,5.46,0,0,1-9,0,5.52,5.52,0,0,1-.63-5.13L20.5,5.23l5.14,10.26A5.52,5.52,0,0,1,25,20.62Z"/></g></svg>