<?xml version="1.0" encoding="UTF-8"?><svg fill="currentColor" xmlns="http://www.w3.org/2000/svg" viewBox="0 0 24 24"><g id="n"><path d="M12.5,14.75h1.53c1.5,0,2.72-1.22,2.72-2.78s-1.22-2.72-2.72-2.72h-1.53c-.41,0-.75-.34-.75-.75s.34-.75,.75-.75h1.53c1.5,0,2.72-1.22,2.72-2.78s-1.22-2.72-2.72-2.72h-4.03c-2.07,0-3.75,1.68-3.75,3.75v11.97c0,1.01,.39,1.95,1.11,2.66,.71,.7,1.64,1.09,2.64,1.09h.03l4.02-.03c1.49-.01,2.7-1.23,2.7-2.72s-1.22-2.72-2.72-2.72h-1.53c-.41,0-.75-.34-.75-.75s.34-.75,.75-.75Z"/></g></svg>