<?xml version="1.0" encoding="UTF-8"?><svg fill="currentColor" xmlns="http://www.w3.org/2000/svg" viewBox="0 0 24 24"><g id="i"><path d="M14,7.75c.41,0,.75-.34,.75-.75s-.34-.75-.75-.75h-1.25v-.5h1.25c.41,0,.75-.34,.75-.75s-.34-.75-.75-.75h-1.25v-.5h.25c.41,0,.75-.34,.75-.75s-.34-.75-.75-.75h-2c-.41,0-.75,.34-.75,.75s.34,.75,.75,.75h.25v.5h-1.25c-.41,0-.75,.34-.75,.75s.34,.75,.75,.75h1.25v.5h-1.25c-.41,0-.75,.34-.75,.75s.34,.75,.75,.75h1.25v.5h-1.25c-.41,0-.75,.34-.75,.75s.34,.75,.75,.75h1.25v.5h-.25c-.41,0-.75,.34-.75,.75s.34,.75,.75,.75h.25v1.5h-1.25c-.41,0-.75,.34-.75,.75v5c0,1.52,1.23,2.75,2.75,2.75s2.75-1.23,2.75-2.75v-5c0-.41-.34-.75-.75-.75h-1.25v-1.5h.25c.41,0,.75-.34,.75-.75s-.34-.75-.75-.75h-.25v-.5h1.25c.41,0,.75-.34,.75-.75s-.34-.75-.75-.75h-1.25v-.5h1.25Z"/></g></svg>