<svg fill="currentColor" xmlns="http://www.w3.org/2000/svg" viewBox="0 0 32 32"><g id="alarm_clock" data-name="alarm clock"><path d="M28.12,5.34a3,3,0,0,0-4.24,0l-.71.71a1,1,0,0,0,0,1.41l.71.71-.6.6A11,11,0,0,0,17,6.05V4h1a1,1,0,0,0,0-2H14a1,1,0,0,0,0,2h1V6.05a11,11,0,0,0-6,2.5l-.38-.38.7-.71a1,1,0,0,0,0-1.41l-.7-.71A3,3,0,0,0,4.34,9.59l.71.7a1,1,0,0,0,.71.3,1,1,0,0,0,.7-.3l.71-.7.38.38A11,11,0,0,0,9.76,26.05l-1.59,2.4a1,1,0,0,0,.28,1.38A.94.94,0,0,0,9,30a1,1,0,0,0,.83-.45L11.51,27a10.88,10.88,0,0,0,9,0l1.68,2.52A1,1,0,0,0,23,30a.94.94,0,0,0,.55-.17,1,1,0,0,0,.28-1.38l-1.59-2.4a11,11,0,0,0,2.41-15.82l.64-.64.71.7a1,1,0,0,0,.71.3,1,1,0,0,0,.7-.3l.71-.7A3,3,0,0,0,28.12,5.34ZM5.76,6.76a1,1,0,0,1,1.41,0h0L5.76,8.17A1,1,0,0,1,5.76,6.76ZM25,17A9,9,0,1,1,9,11.39l.32.32a1,1,0,0,0,1.42,0,1,1,0,0,0,0-1.42L10.39,10A9,9,0,0,1,15,8.06a1,1,0,0,0,2,0,8.89,8.89,0,0,1,4.87,2.13l-.1.1a1,1,0,0,0,1.41,1.42l0-.06A9,9,0,0,1,25,17Zm1.71-8.83L25.29,6.76a1,1,0,0,1,1.42,0A1,1,0,0,1,26.71,8.17Z"/><path d="M17,16.5V14a1,1,0,0,0-2,0v3a1,1,0,0,0,.4.8l4,3a1,1,0,0,0,.6.2,1,1,0,0,0,.8-.4,1,1,0,0,0-.2-1.4Z"/></g></svg>