<svg fill="currentColor" xmlns="http://www.w3.org/2000/svg" viewBox="0 0 32 32"><g id="blanket"><path d="M25.21,2H12.88a2.81,2.81,0,0,0-2.21,1.08L4.59,10.9A2.82,2.82,0,0,0,4,12.62V27.21A2.79,2.79,0,0,0,6.79,30H25.21A2.79,2.79,0,0,0,28,27.21V4.79A2.79,2.79,0,0,0,25.21,2ZM12,4.63V11A1,1,0,0,1,11,12H6.27ZM26,27.21a.8.8,0,0,1-.79.79H6.79A.8.8,0,0,1,6,27.21V14H11A3.06,3.06,0,0,0,14,11V4H25.21a.8.8,0,0,1,.79.79Z"/><path d="M18.57,11.75l1.11,1.31a1,1,0,0,0,.77.35l.24,0a1,1,0,0,0,.73-.75L21.79,11l1.59-.66A1,1,0,0,0,24,9.44a1,1,0,0,0-.5-.94L22,7.64l-.13-1.72a1,1,0,0,0-1.66-.67L18.94,6.4,17.27,6a1,1,0,0,0-1,.33,1,1,0,0,0-.15,1l.69,1.57-.9,1.46a1,1,0,0,0,0,1.06,1,1,0,0,0,.94.46Zm.29-3.13-.09-.2.21.05a1,1,0,0,0,.9-.23l.17-.14v.21a1,1,0,0,0,.5.79l.19.11-.21.09A1,1,0,0,0,20,10l-.05.21-.14-.16A1,1,0,0,0,19,9.7h-.1l-.22,0,.11-.19A1,1,0,0,0,18.86,8.62Z"/><path d="M15.05,18.29l-1.5-.87-.14-1.75a1,1,0,0,0-.62-.85,1,1,0,0,0-1,.18l-1.3,1.17-1.7-.42A1,1,0,0,0,7.6,17.13l.7,1.59-.91,1.49a1,1,0,0,0,1,1.52l1.74-.18,1.13,1.34a1,1,0,0,0,.76.35,1,1,0,0,0,.24,0,1,1,0,0,0,.74-.76l.36-1.7,1.62-.67a1,1,0,0,0,.62-.85A1,1,0,0,0,15.05,18.29Zm-3,.8a1,1,0,0,0-.6.72l-.05.24-.16-.19a1,1,0,0,0-.76-.35h-.1l-.25,0,.13-.21a1,1,0,0,0,.07-.93l-.1-.22.24.05a1,1,0,0,0,.9-.22l.18-.16,0,.24a1,1,0,0,0,.49.79l.21.12Z"/><path d="M23.94,19.67l-1.75.1-1.08-1.38a1,1,0,0,0-1-.37,1,1,0,0,0-.77.73l-.44,1.7L17.25,21a1,1,0,0,0-.65.83,1,1,0,0,0,.45,1l1.48,1,.06,1.75a1,1,0,0,0,.58.88,1.06,1.06,0,0,0,.42.09,1,1,0,0,0,.63-.23l1.36-1.11,1.69.49a1,1,0,0,0,1-.29,1,1,0,0,0,.19-1l-.64-1.64,1-1.46a1,1,0,0,0,0-1.05A1,1,0,0,0,23.94,19.67ZM21.89,22a1,1,0,0,0-.1.92l.09.25-.25-.08a1,1,0,0,0-.91.19l-.2.16v-.25a1,1,0,0,0-.46-.81l-.21-.14.24-.09a1,1,0,0,0,.63-.69l.06-.25.16.21a1,1,0,0,0,.85.38H22Z"/></g></svg>