<svg fill="currentColor" xmlns="http://www.w3.org/2000/svg" viewBox="0 0 32 32"><g id="bolster"><path d="M28.48,24.21,26.54,22.9a4.8,4.8,0,0,0,.11-.76,4.55,4.55,0,0,0-1.17-3.3L14.2,6.33A4.52,4.52,0,0,0,11,4.83a4,4,0,0,0-.77,0L9.18,2.8a1.78,1.78,0,0,0-3.1,0L5.38,4l-1.32.58A1.76,1.76,0,0,0,3,6a1.78,1.78,0,0,0,.77,1.63L5.72,9a4.81,4.81,0,0,0-.12.76A4.56,4.56,0,0,0,6.78,13L18.05,25.54A4.58,4.58,0,0,0,21.22,27h.24A4.57,4.57,0,0,0,22,27l1.1,2.07a1.77,1.77,0,0,0,1.53.93h0a1.75,1.75,0,0,0,1.54-.9l.69-1.23,1.35-.59a1.78,1.78,0,0,0,1-1.46A1.74,1.74,0,0,0,28.48,24.21ZM6.52,7.1,5.25,6.25l1-.44a1.81,1.81,0,0,0,.83-.74l.53-1,.72,1.34L7.74,6h0l-.62.56h0ZM21.32,25a2.53,2.53,0,0,1-1.78-.84L8.26,11.69A2.54,2.54,0,0,1,7.6,9.83a2.58,2.58,0,0,1,.85-1.78l.63-.57a2.53,2.53,0,0,1,1.72-.66h.13a2.62,2.62,0,0,1,1.79.85L24,20.18A2.54,2.54,0,0,1,24.65,22a2.5,2.5,0,0,1-.85,1.78h0l-.62.57A2.48,2.48,0,0,1,21.32,25Zm4.66,1a1.76,1.76,0,0,0-.82.75l-.52.92-.71-1.33.59-.54h0l.61-.55.61-.55,1.26.86Z"/></g></svg>