<svg fill="currentColor" xmlns="http://www.w3.org/2000/svg" viewBox="0 0 32 32"><g id="bulkhead"><path d="M29,2a1,1,0,0,0-1,1V4.61L23.32,3.05h-.08l-.16,0a1.29,1.29,0,0,0-.28,0h-.07L16,5,9.27,3H9a1.23,1.23,0,0,0-.27,0H8.68L4,4.61V3A1,1,0,0,0,2,3V27a1,1,0,0,0,2,0v-.61l4,1.33V29a1,1,0,0,0,2,0V27.75l5-1.42V27a1,1,0,0,0,2,0v-.67l5,1.42V29a1,1,0,0,0,2,0V27.72l4-1.33V27a1,1,0,0,0,2,0V3A1,1,0,0,0,29,2ZM8,25.61,4,24.28V6.72L8,5.39Zm7-1.36-5,1.42V5.33l5,1.42Zm7,1.42-5-1.42V6.75l5-1.42Zm6-1.39-4,1.33V5.39l4,1.33Z"/></g></svg>