<svg fill="currentColor" xmlns="http://www.w3.org/2000/svg" viewBox="0 0 32 32"><g id="clock"><path d="M25.84,2H6.16A4.17,4.17,0,0,0,2,6.16V25.84A4.17,4.17,0,0,0,6.16,30H25.84A4.17,4.17,0,0,0,30,25.84V6.16A4.17,4.17,0,0,0,25.84,2ZM28,25.84A2.16,2.16,0,0,1,25.84,28H6.16A2.16,2.16,0,0,1,4,25.84V6.16A2.16,2.16,0,0,1,6.16,4H25.84A2.16,2.16,0,0,1,28,6.16Z"/><path d="M16,6A10,10,0,1,0,26,16,10,10,0,0,0,16,6Zm0,18a8,8,0,1,1,8-8A8,8,0,0,1,16,24Z"/><path d="M17,15.5V13a1,1,0,0,0-2,0v3a1,1,0,0,0,.4.8l4,3a1,1,0,0,0,.6.2,1,1,0,0,0,.8-.4,1,1,0,0,0-.2-1.4Z"/></g></svg>