<svg fill="currentColor" xmlns="http://www.w3.org/2000/svg" viewBox="0 0 32 32"><g id="cupboard"><path d="M28,2H4A1,1,0,0,0,4,4H5V28.33A1.67,1.67,0,0,0,6.67,30H9.33A1.67,1.67,0,0,0,11,28.33V25H21v3.33A1.67,1.67,0,0,0,22.67,30h2.66A1.67,1.67,0,0,0,27,28.33V4h1a1,1,0,0,0,0-2ZM10,23H7V18H25v5H10Zm15-7H7V11H25ZM9,28H7V25H9Zm16,0H23V25h2ZM25,9H7V4H25Z"/><path d="M16,7a1,1,0,0,0,0-2h0a1,1,0,0,0,0,2Z"/><path d="M16,14a1,1,0,0,0,0-2h0a1,1,0,0,0,0,2Z"/><path d="M16,19h0a1,1,0,1,0,1,1A1,1,0,0,0,16,19Z"/></g></svg>