<svg fill="currentColor" xmlns="http://www.w3.org/2000/svg" viewBox="0 0 32 32"><g id="cupboard_2" data-name="cupboard 2"><path d="M23.88,2H8.12A2.12,2.12,0,0,0,6,4.12V27.88A2.12,2.12,0,0,0,8.12,30H23.88A2.12,2.12,0,0,0,26,27.88V4.12A2.12,2.12,0,0,0,23.88,2ZM8,13H24v7H8Zm.12-9H23.88a.12.12,0,0,1,.12.12V11H8V4.12A.12.12,0,0,1,8.12,4ZM23.88,28H8.12A.12.12,0,0,1,8,27.88V22H24v5.88A.12.12,0,0,1,23.88,28Z"/><path d="M20,9h2a1,1,0,0,0,0-2H20a1,1,0,0,0,0,2Z"/><path d="M22,16H20a1,1,0,0,0,0,2h2a1,1,0,0,0,0-2Z"/><path d="M22,24H20a1,1,0,0,0,0,2h2a1,1,0,0,0,0-2Z"/></g></svg>