<svg fill="currentColor" xmlns="http://www.w3.org/2000/svg" viewBox="0 0 32 32"><g id="curtain"><path d="M29,2a1,1,0,0,0-1,1V4H4V3A1,1,0,0,0,2,3V7A1,1,0,0,0,4,7V6H6V26a4,4,0,0,0,7,2.62,4,4,0,0,0,6,0A4,4,0,0,0,26,26V6h2V7a1,1,0,0,0,2,0V3A1,1,0,0,0,29,2ZM18,6a2,2,0,0,1-4,0ZM12,6A2,2,0,0,1,8,6ZM10,28a2,2,0,0,1-2-2V9.44A3.91,3.91,0,0,0,10,10a4,4,0,0,0,2-.56V26A2,2,0,0,1,10,28Zm6,0a2,2,0,0,1-2-2V9.44a3.85,3.85,0,0,0,4,0V26A2,2,0,0,1,16,28Zm6,0a2,2,0,0,1-2-2V9.44A4,4,0,0,0,22,10a3.91,3.91,0,0,0,2-.56V26A2,2,0,0,1,22,28ZM22,8a2,2,0,0,1-2-2h4A2,2,0,0,1,22,8Z"/></g></svg>