<svg fill="currentColor" xmlns="http://www.w3.org/2000/svg" viewBox="0 0 32 32"><g id="electric_socket" data-name="electric socket"><path d="M21,2H11A3,3,0,0,0,8,5V15a3,3,0,0,0,3,3H21a3,3,0,0,0,3-3V5A3,3,0,0,0,21,2Zm1,13a1,1,0,0,1-1,1H11a1,1,0,0,1-1-1V5a1,1,0,0,1,1-1H21a1,1,0,0,1,1,1Z"/><path d="M19,22V21a1,1,0,0,0-2,0v1H15V21a1,1,0,0,0-2,0v1a1,1,0,0,0-1,1v1a4,4,0,0,0,3,3.86V29a1,1,0,0,0,2,0V27.86A4,4,0,0,0,20,24V23A1,1,0,0,0,19,22Zm-3,4a2,2,0,0,1-2-2h4A2,2,0,0,1,16,26Z"/><path d="M16,5a5,5,0,1,0,5,5A5,5,0,0,0,16,5Zm0,8a3,3,0,0,1-2.82-2H14a1,1,0,0,0,0-2h-.82a3,3,0,0,1,5.64,0H18a1,1,0,0,0,0,2h.82A3,3,0,0,1,16,13Z"/></g></svg>