<svg fill="currentColor" xmlns="http://www.w3.org/2000/svg" viewBox="0 0 32 32"><g id="fan"><path d="M23.5,12.6,20.34,11,23.5,9.44a2.7,2.7,0,0,0,1.46-2,2.66,2.66,0,0,0-.75-2.35L21.9,2.79A2.71,2.71,0,0,0,19.55,2a2.68,2.68,0,0,0-2,1.46L16,6.66,14.4,3.5a2.66,2.66,0,0,0-2-1.46,2.73,2.73,0,0,0-2.35.75L7.76,5.1A2.66,2.66,0,0,0,7,7.45a2.72,2.72,0,0,0,1.46,2L11.62,11,8.46,12.6a2.71,2.71,0,0,0-1.46,2,2.67,2.67,0,0,0,.76,2.35l2.3,2.3A2.75,2.75,0,0,0,12,20a3,3,0,0,0,.43,0,2.36,2.36,0,0,0,.59-.17V24.1A5,5,0,0,0,9,29a1,1,0,0,0,1,1H22a1,1,0,0,0,1-1,5,5,0,0,0-4-4.9V19.84a2.66,2.66,0,0,0,.55.16A3.28,3.28,0,0,0,20,20a2.72,2.72,0,0,0,1.92-.8l2.31-2.3a2.72,2.72,0,0,0-.71-4.34ZM19.35,4.39A.75.75,0,0,1,19.87,4a.69.69,0,0,1,.62.2l2.3,2.3a.69.69,0,0,1,.2.62.73.73,0,0,1-.38.52L19.52,9.19a4.05,4.05,0,0,0-.71-1,3.66,3.66,0,0,0-1-.7ZM15,17.36l1-2,1,2V24H15V17.4S15,17.37,15,17.36Zm2.41-4.93a2,2,0,0,1-2.83,0,2,2,0,0,1,0-2.83,2,2,0,0,1,2.83,2.83ZM9,7.13a.75.75,0,0,1,.2-.62l2.31-2.3a.66.66,0,0,1,.61-.2.71.71,0,0,1,.52.38l1.55,3.1a3.81,3.81,0,0,0-1,.7,4.33,4.33,0,0,0-.71,1L9.36,7.65A.72.72,0,0,1,9,7.13ZM12.09,18a.73.73,0,0,1-.61-.2L9.17,15.52a.73.73,0,0,1-.2-.61.7.7,0,0,1,.39-.52l3.08-1.55a4.19,4.19,0,0,0,.71,1,4.19,4.19,0,0,0,1,.71l-1.55,3.08A.7.7,0,0,1,12.09,18Zm8.74,10H11.17A3,3,0,0,1,14,26h4A3,3,0,0,1,20.83,28Zm2-12.48-2.31,2.31a.72.72,0,0,1-.61.2.73.73,0,0,1-.52-.39l-1.54-3.08a4.33,4.33,0,0,0,1-.71,3.93,3.93,0,0,0,.71-1l3.09,1.55a.71.71,0,0,1,.38.52A.67.67,0,0,1,22.79,15.52Z"/></g></svg>