<svg fill="currentColor" xmlns="http://www.w3.org/2000/svg" viewBox="0 0 32 32"><g id="humidifier"><path d="M23.94,20.65a9.66,9.66,0,0,0-4-4.75,2.06,2.06,0,0,1-1-1.73V11a1,1,0,0,0-1-1H14a1,1,0,0,0-1,1v3.17a2.06,2.06,0,0,1-1,1.73,9.66,9.66,0,0,0-3.95,4.75,10,10,0,0,0,.55,7.94A2.56,2.56,0,0,0,10.91,30H21.09a2.56,2.56,0,0,0,2.3-1.41A10,10,0,0,0,23.94,20.65ZM13.08,17.59A4.05,4.05,0,0,0,15,14.17V12h2v2.17a4.05,4.05,0,0,0,1.92,3.42,7.7,7.7,0,0,1,3.14,3.76A7,7,0,0,1,22.52,24h-13a7,7,0,0,1,.46-2.65A7.7,7.7,0,0,1,13.08,17.59Zm8,10.41H10.91a.56.56,0,0,1-.51-.31A8.74,8.74,0,0,1,9.76,26H22.24a8.74,8.74,0,0,1-.64,1.69A.56.56,0,0,1,21.09,28Z"/><path d="M16,8a1,1,0,0,0,1-1V3a1,1,0,0,0-2,0V7A1,1,0,0,0,16,8Z"/><path d="M12,9a1,1,0,0,0,1-1V5a1,1,0,0,0-2,0V8A1,1,0,0,0,12,9Z"/><path d="M20,9a1,1,0,0,0,1-1V5a1,1,0,0,0-2,0V8A1,1,0,0,0,20,9Z"/><path d="M16,21a1,1,0,0,0,0-2h0a1,1,0,1,0,0,2Z"/></g></svg>