<svg fill="currentColor" xmlns="http://www.w3.org/2000/svg" viewBox="0 0 32 32"><g id="lamp"><path d="M25.91,11.58a12.82,12.82,0,0,0-2.17-3.25A1,1,0,0,0,23,8H21V6a1,1,0,0,0-1-1H17V3a1,1,0,0,0-2,0V5H12a1,1,0,0,0-1,1V8H9a1,1,0,0,0-.74.33,12.82,12.82,0,0,0-2.17,3.25A13.45,13.45,0,0,0,5,19.14,1,1,0,0,0,6,20h6a4,4,0,0,0,8,0h6a1,1,0,0,0,1-.86A13.45,13.45,0,0,0,25.91,11.58ZM13,7h6V8H13Zm3,15a2,2,0,0,1-2-2h4A2,2,0,0,1,16,22Zm9.1-4H6.9a11.4,11.4,0,0,1,1-5.58A11,11,0,0,1,9.45,10h13.1a11,11,0,0,1,1.54,2.42A11.4,11.4,0,0,1,25.1,18Z"/><path d="M16,26a1,1,0,0,0-1,1v2a1,1,0,0,0,2,0V27A1,1,0,0,0,16,26Z"/><path d="M10.29,26.59,8.88,28a1,1,0,0,0,0,1.41,1,1,0,0,0,1.41,0L11.71,28a1,1,0,0,0,0-1.41A1,1,0,0,0,10.29,26.59Z"/><path d="M21.71,26.59a1,1,0,0,0-1.42,0,1,1,0,0,0,0,1.41l1.42,1.41a1,1,0,0,0,1.41,0,1,1,0,0,0,0-1.41Z"/></g></svg>