<svg fill="currentColor" xmlns="http://www.w3.org/2000/svg" viewBox="0 0 32 32"><g id="mattress"><path d="M23.31,2H8.69A2.7,2.7,0,0,0,6,4.69V27.31A2.7,2.7,0,0,0,8.69,30H23.31A2.7,2.7,0,0,0,26,27.31V4.69A2.7,2.7,0,0,0,23.31,2ZM8,13H24v1.24L8,18.68ZM19.26,4a.74.74,0,0,1,.74.74V6.26a.74.74,0,0,1-.74.74H12.74A.74.74,0,0,1,12,6.26V4.74A.74.74,0,0,1,12.74,4ZM8.69,4h1.42a3,3,0,0,0-.11.74V6.26A2.74,2.74,0,0,0,12.74,9h6.52A2.74,2.74,0,0,0,22,6.26V4.74A3,3,0,0,0,21.89,4h1.42a.69.69,0,0,1,.69.69V11H8V4.69A.69.69,0,0,1,8.69,4ZM23.31,28H8.69A.69.69,0,0,1,8,27.31V20.76l16-4.44v11A.69.69,0,0,1,23.31,28Z"/></g></svg>