<svg fill="currentColor" xmlns="http://www.w3.org/2000/svg" viewBox="0 0 32 32"><g id="mirror"><path d="M24.34,2H7.66A2.66,2.66,0,0,0,5,4.66V27.34A2.66,2.66,0,0,0,7.66,30H24.34A2.66,2.66,0,0,0,27,27.34V4.66A2.66,2.66,0,0,0,24.34,2ZM25,27.34a.65.65,0,0,1-.66.66H7.66A.65.65,0,0,1,7,27.34V4.66A.65.65,0,0,1,7.66,4H24.34a.65.65,0,0,1,.66.66Z"/><path d="M23,5H9A1,1,0,0,0,8,6V26a1,1,0,0,0,1,1H23a1,1,0,0,0,1-1V6A1,1,0,0,0,23,5ZM22,25H10V7H22Z"/><path d="M13,15a1,1,0,0,0,.71-.29l3-3a1,1,0,0,0-1.42-1.42l-3,3a1,1,0,0,0,0,1.42A1,1,0,0,0,13,15Z"/><path d="M13.29,17.71a1,1,0,0,0,1.42,0l4-4a1,1,0,0,0-1.42-1.42l-4,4A1,1,0,0,0,13.29,17.71Z"/></g></svg>