<svg fill="currentColor" xmlns="http://www.w3.org/2000/svg" viewBox="0 0 32 32"><g id="night_lamp" data-name="night lamp"><path d="M27,15.77l-3-13A1,1,0,0,0,23,2H9a1,1,0,0,0-1,.77l-3,13A1,1,0,0,0,6,17h9v2h-.75A2.25,2.25,0,0,0,12,21.25v6.5A2.25,2.25,0,0,0,14.25,30h3.5A2.25,2.25,0,0,0,20,27.75v-6.5A2.25,2.25,0,0,0,17.75,19H17V17h5v4a1,1,0,0,0,2,0V17h2a1,1,0,0,0,1-1.23Zm-9,5.48v6.5a.25.25,0,0,1-.25.25h-3.5a.25.25,0,0,1-.25-.25v-6.5a.25.25,0,0,1,.25-.25h3.5A.25.25,0,0,1,18,21.25ZM7.26,15,9.8,4H22.2l2.54,11Z"/></g></svg>