<svg fill="currentColor" xmlns="http://www.w3.org/2000/svg" viewBox="0 0 32 32"><g id="picture"><path d="M27.07,5H4.93A2.93,2.93,0,0,0,2,7.93V24.07A2.93,2.93,0,0,0,4.93,27H27.07A2.93,2.93,0,0,0,30,24.07V7.93A2.93,2.93,0,0,0,27.07,5ZM28,24.07a.93.93,0,0,1-.93.93H4.93A.93.93,0,0,1,4,24.07V7.93A.93.93,0,0,1,4.93,7H27.07a.93.93,0,0,1,.93.93Z"/><path d="M26,8H6A1,1,0,0,0,5,9V23a1,1,0,0,0,1,1H26a1,1,0,0,0,1-1V9A1,1,0,0,0,26,8ZM7,20.36l3.74-4.48L13.46,22H7ZM15.65,22,15,20.45l1.88-1.88L19.13,22ZM25,22H21.54l-3.71-5.55A1,1,0,0,0,17.1,16a1,1,0,0,0-.81.29l-2.2,2.2-2.18-4.9a1,1,0,0,0-.77-.58,1,1,0,0,0-.91.35L7,17.24V10H25Z"/><path d="M21,17a3,3,0,1,0-3-3A3,3,0,0,0,21,17Zm0-4a1,1,0,1,1-1,1A1,1,0,0,1,21,13Z"/></g></svg>