<svg fill="currentColor" xmlns="http://www.w3.org/2000/svg" viewBox="0 0 32 32"><g id="pillow"><path d="M29.5,22a2.26,2.26,0,0,1-.5-1.43V11.47A2.26,2.26,0,0,1,29.5,10a3.27,3.27,0,0,0,.39-.58,2.74,2.74,0,0,0-.18-3.17,2.74,2.74,0,0,0-3.17-.18A2.68,2.68,0,0,0,26,6.5a2.26,2.26,0,0,1-1.43.5H7.47A2.21,2.21,0,0,1,6,6.49a3,3,0,0,0-.58-.38,2.74,2.74,0,0,0-3.17.18,2.74,2.74,0,0,0-.18,3.17A3.27,3.27,0,0,0,2.5,10,2.26,2.26,0,0,1,3,11.47v9.06A2.21,2.21,0,0,1,2.49,22a4.45,4.45,0,0,0-.38.58,2.74,2.74,0,0,0,.18,3.17,2.74,2.74,0,0,0,3.17.18A3.68,3.68,0,0,0,6,25.5,2.26,2.26,0,0,1,7.47,25H24.53a2.21,2.21,0,0,1,1.43.51,4.45,4.45,0,0,0,.58.38,3.67,3.67,0,0,0,1.63.41,2.14,2.14,0,0,0,1.54-.59,2.74,2.74,0,0,0,.18-3.17A3.68,3.68,0,0,0,29.5,22Zm-1.2,2.32a1.26,1.26,0,0,1-.84-.17.86.86,0,0,1-.22-.15,4.29,4.29,0,0,0-2.71-1H7.47a4.24,4.24,0,0,0-2.7,1,1.14,1.14,0,0,1-.23.15,1.53,1.53,0,0,1-.82.19,1.26,1.26,0,0,1,.17-.84A.86.86,0,0,1,4,23.24a4.29,4.29,0,0,0,1-2.71V11.47a4.24,4.24,0,0,0-1-2.7,1.14,1.14,0,0,1-.15-.23,1.44,1.44,0,0,1-.19-.82s.07,0,.12,0a1.75,1.75,0,0,1,.72.19A1.07,1.07,0,0,1,4.76,8,4.29,4.29,0,0,0,7.47,9H24.53a4.24,4.24,0,0,0,2.7-1,1.5,1.5,0,0,1,.23-.15,1.44,1.44,0,0,1,.82-.19,1.26,1.26,0,0,1-.17.84,1.14,1.14,0,0,1-.15.23,4.24,4.24,0,0,0-1,2.7v9.06a4.24,4.24,0,0,0,1,2.7,1.14,1.14,0,0,1,.15.23A1.44,1.44,0,0,1,28.3,24.28Z"/><path d="M11,15h0a1,1,0,1,0,1,1A1,1,0,0,0,11,15Z"/><path d="M21,15h0a1,1,0,1,0,1,1A1,1,0,0,0,21,15Z"/></g></svg>