<svg fill="currentColor" xmlns="http://www.w3.org/2000/svg" viewBox="0 0 32 32"><g id="single_bed" data-name="single bed"><path d="M28,16.08V10.21A4.22,4.22,0,0,0,23.79,6H8.21A4.22,4.22,0,0,0,4,10.21v5.87a2.59,2.59,0,0,0-2,2.51v3.82a2.61,2.61,0,0,0,1,2V27a1,1,0,0,0,2,0V25H27v2a1,1,0,0,0,2,0V24.44a2.61,2.61,0,0,0,1-2V18.59A2.59,2.59,0,0,0,28,16.08ZM6,10.21A2.21,2.21,0,0,1,8.21,8H23.79A2.21,2.21,0,0,1,26,10.21V16H22a4.33,4.33,0,0,0-4.3-4H14.33A4.33,4.33,0,0,0,10,16H6ZM20,16H12a2.35,2.35,0,0,1,2.31-2h3.34A2.35,2.35,0,0,1,20,16ZM4,18.59A.6.6,0,0,1,4.59,18H27.41a.6.6,0,0,1,.59.59v3.82a.6.6,0,0,1-.59.59H4.59A.6.6,0,0,1,4,22.41Z"/></g></svg>