<svg fill="currentColor" xmlns="http://www.w3.org/2000/svg" viewBox="0 0 32 32"><g id="slippers"><path d="M9,2A6,6,0,0,0,3,8V20a4,4,0,0,0,4,4H11a4,4,0,0,0,4-4V8A6,6,0,0,0,9,2ZM5,13h8v4a2,2,0,0,1-2,2H7a2,2,0,0,1-2-2ZM9,4a4,4,0,0,1,4,4v3H5V8A4,4,0,0,1,9,4Zm2,18H7a2,2,0,0,1-1.9-1.51A3.8,3.8,0,0,0,7,21H11a3.8,3.8,0,0,0,1.9-.51A2,2,0,0,1,11,22Z"/><path d="M23,8a6,6,0,0,0-6,6V26a4,4,0,0,0,4,4H25a4,4,0,0,0,4-4V14A6,6,0,0,0,23,8ZM19,19h8v4a2,2,0,0,1-2,2H21a2,2,0,0,1-2-2Zm4-9a4,4,0,0,1,4,4v3H19V14A4,4,0,0,1,23,10Zm2,18H21a2,2,0,0,1-1.9-1.51A3.8,3.8,0,0,0,21,27H25a3.8,3.8,0,0,0,1.9-.51A2,2,0,0,1,25,28Z"/></g></svg>