<svg fill="currentColor" xmlns="http://www.w3.org/2000/svg" viewBox="0 0 32 32"><g id="sofa"><path d="M30,11a2.91,2.91,0,0,0-2.91-2.91H4.91A2.91,2.91,0,0,0,2,11v5a.5.5,0,0,0,0,.13,2.3,2.3,0,0,0,0,.26v7.52A3.1,3.1,0,0,0,5.09,27H26.91A3.1,3.1,0,0,0,30,23.91V16.39a2.3,2.3,0,0,0,0-.26A.5.5,0,0,0,30,16ZM4.91,10.09H27.09A.91.91,0,0,1,28,11v3a2.58,2.58,0,0,0-.39,0H24.39A2.39,2.39,0,0,0,22,16H10a2.39,2.39,0,0,0-2.35-2H4.39A2.58,2.58,0,0,0,4,14V11A.91.91,0,0,1,4.91,10.09ZM10,18H22v2H10Zm18,5.91A1.09,1.09,0,0,1,26.91,25H5.09A1.09,1.09,0,0,1,4,23.91V16.39A.38.38,0,0,1,4.39,16H7.61a.38.38,0,0,1,.39.39V21a1,1,0,0,0,1,1H23a1,1,0,0,0,1-1V16.39a.38.38,0,0,1,.39-.39h3.22a.38.38,0,0,1,.39.39Z"/></g></svg>