<svg fill="currentColor" xmlns="http://www.w3.org/2000/svg" viewBox="0 0 32 32"><g id="stanchion"><path d="M23.5,15A2.5,2.5,0,0,0,21,17.38l-4,2V11.62l4.72-2.36A2.55,2.55,0,0,0,23.5,10,2.5,2.5,0,1,0,21,7.38l-4,2V3a1,1,0,0,0-2,0V7.23l-3-1.8a2.49,2.49,0,1,0-.76,1.87L15,9.57v7.66l-3-1.8a2.49,2.49,0,1,0-.76,1.87L15,19.57V25H14a4,4,0,0,0-4,4,1,1,0,0,0,1,1H21a1,1,0,0,0,1-1,4,4,0,0,0-4-4H17V21.62l4.72-2.36A2.55,2.55,0,0,0,23.5,20a2.5,2.5,0,0,0,0-5Zm0-8a.5.5,0,1,1-.5.5A.5.5,0,0,1,23.5,7ZM9.5,6a.5.5,0,1,1,.5-.5A.5.5,0,0,1,9.5,6Zm0,10a.5.5,0,1,1,.5-.5A.5.5,0,0,1,9.5,16ZM19.73,28H12.27A2,2,0,0,1,14,27h4A2,2,0,0,1,19.73,28ZM23.5,18a.5.5,0,1,1,.5-.5A.5.5,0,0,1,23.5,18Z"/></g></svg>