<?xml version="1.0" encoding="UTF-8"?><svg fill="currentColor" xmlns="http://www.w3.org/2000/svg" viewBox="0 0 24 24"><g id="t"><g><path d="M8.75,8.59V4c0-.96-.79-1.75-1.75-1.75h-1c-.96,0-1.75,.79-1.75,1.75v4.59c0,.7-.28,1.39-.78,1.88-.79,.79-1.22,1.83-1.22,2.94v6.59c0,.96,.79,1.75,1.75,1.75h5c.96,0,1.75-.79,1.75-1.75v-6.59c0-1.11-.43-2.16-1.22-2.94-.5-.5-.78-1.18-.78-1.88ZM3.75,14.75h5.5v2.5H3.75v-2.5ZM6,3.75h1c.14,0,.25,.11,.25,.25v1.25h-1.5v-1.25c0-.14,.11-.25,.25-.25Zm-1.47,7.78c.79-.79,1.22-1.83,1.22-2.94v-1.84h1.5v1.84c0,1.11,.43,2.16,1.22,2.94,.46,.46,.72,1.08,.76,1.72H3.77c.04-.64,.31-1.26,.76-1.72Zm4.47,8.72H4c-.14,0-.25-.11-.25-.25v-1.25h5.5v1.25c0,.14-.11,.25-.25,.25Z"/><path d="M20.5,7.25h-7c-.69,0-1.25,.56-1.25,1.25v2.5c0,2.36,1.74,4.31,4,4.67v4.58h-1.25c-.41,0-.75,.34-.75,.75s.34,.75,.75,.75h4c.41,0,.75-.34,.75-.75s-.34-.75-.75-.75h-1.25v-4.58c2.26-.36,4-2.31,4-4.67v-2.5c0-.69-.56-1.25-1.25-1.25Zm-.25,1.5v1.5h-6.5v-1.5h6.5Zm-3.25,5.5c-1.53,0-2.81-1.07-3.15-2.5h6.31c-.34,1.43-1.62,2.5-3.15,2.5Z"/></g></g></svg>