<?xml version="1.0" encoding="UTF-8"?><svg fill="currentColor" xmlns="http://www.w3.org/2000/svg" viewBox="0 0 24 24"><g id="s"><g><path d="M8,7.75c.86,0,1.63-.48,2.01-1.24s.3-1.67-.21-2.36l-1.2-1.6c-.28-.38-.92-.38-1.2,0l-1.2,1.6c-.51,.69-.6,1.59-.21,2.36s1.15,1.24,2.01,1.24Zm-.6-2.7l.6-.8,.6,.8c.17,.23,.2,.53,.07,.79-.26,.52-1.08,.52-1.34,0-.13-.26-.1-.55,.07-.79Z"/><path d="M16,7.75c.86,0,1.63-.48,2.01-1.24s.3-1.67-.21-2.36l-1.2-1.6c-.28-.38-.92-.38-1.2,0l-1.2,1.6c-.51,.69-.6,1.59-.21,2.36s1.16,1.24,2.01,1.24Zm-.6-2.7l.6-.8,.6,.8c.17,.23,.2,.53,.07,.79-.26,.52-1.08,.52-1.34,0-.13-.26-.1-.55,.07-.79Z"/><path d="M21.66,17.65c-.13-.24-.38-.4-.66-.4h-2.25v-7.25c0-.96-.79-1.75-1.75-1.75h-2c-.96,0-1.75,.79-1.75,1.75v7.25h-2.5v-7.25c0-.96-.79-1.75-1.75-1.75h-2c-.96,0-1.75,.79-1.75,1.75v7.25H3c-.28,0-.53,.15-.66,.4-.13,.24-.12,.54,.04,.77l1.41,2.11c.51,.77,1.37,1.22,2.29,1.22h11.86c.92,0,1.78-.46,2.29-1.22l1.41-2.11c.15-.23,.17-.53,.04-.77Zm-6.91-7.65c0-.14,.11-.25,.25-.25h2c.14,0,.25,.11,.25,.25v7.25h-2.5v-7.25Zm-8,0c0-.14,.11-.25,.25-.25h2c.14,0,.25,.11,.25,.25v7.25h-2.5v-7.25Zm12.22,9.69c-.23,.35-.62,.56-1.04,.56H6.07c-.42,0-.81-.21-1.04-.56l-.63-.94h15.2l-.63,.94Z"/></g></g></svg>