<?xml version="1.0" encoding="UTF-8"?><svg fill="currentColor" xmlns="http://www.w3.org/2000/svg" viewBox="0 0 24 24"><g id="b"><path d="M18.76,16.75c1.05,0,1.99-.58,2.46-1.52l.45-.89c.19-.37,.04-.82-.34-1.01s-.82-.04-1.01,.34l-.45,.89c-.21,.43-.64,.69-1.12,.69h-1.14c.08-.39,.13-.79,.13-1.2,0-.24-.05-.47-.14-.68,1.26-.61,2.14-1.88,2.14-3.37v-.37c1.15-.33,2-1.38,2-2.63,0-2.07-1.68-3.75-3.75-3.75h-1c-.41,0-.75,.34-.75,.75v1.25h-2.25c-.41,0-.75,.34-.75,.75,0,2.07,1.68,3.75,3.75,3.75h1.25v.25c0,1.24-1.01,2.25-2.25,2.25h-1.79l.46-.92c.19-.37,.04-.82-.34-1.01-.37-.19-.82-.04-1.01,.34l-.79,1.58h-1.07l-.79-1.58c-.19-.37-.64-.52-1.01-.34-.37,.19-.52,.64-.34,1.01l.46,.92h-1.79c-1.24,0-2.25-1.01-2.25-2.25v-.25h1.25c2.07,0,3.75-1.68,3.75-3.75,0-.41-.34-.75-.75-.75h-2.25v-1.25c0-.41-.34-.75-.75-.75h-1c-2.07,0-3.75,1.68-3.75,3.75,0,1.25,.85,2.3,2,2.63v.37c0,1.49,.88,2.76,2.14,3.37-.09,.21-.14,.44-.14,.68,0,.41,.05,.81,.13,1.2h-1.14c-.48,0-.91-.26-1.12-.69l-.45-.89c-.19-.37-.63-.52-1.01-.34s-.52,.64-.34,1.01l.45,.89c.47,.94,1.41,1.52,2.46,1.52h1.69c.21,.39,.46,.74,.75,1.07l-2.12,1.06c-.35,.17-.77,.17-1.12,0l-1.11-.55c-.37-.19-.82-.04-1.01,.34-.19,.37-.04,.82,.34,1.01l1.11,.55c.38,.19,.81,.29,1.23,.29s.84-.1,1.23-.29l2.7-1.35c.88,.55,1.91,.88,3.02,.88h.11c1.11,0,2.14-.32,3.02-.88l2.7,1.35c.38,.19,.81,.29,1.23,.29s.84-.1,1.23-.29l1.11-.55c.37-.19,.52-.64,.34-1.01-.19-.37-.64-.52-1.01-.34l-1.11,.55c-.35,.17-.77,.17-1.12,0l-2.12-1.06c.29-.33,.54-.68,.75-1.07h1.69Zm-1.01-12h.25c1.24,0,2.25,1.01,2.25,2.25,0,.69-.56,1.25-1.25,1.25s-1.25-.56-1.25-1.25v-2.25Zm-2.87,2h1.37v.25c0,.43,.11,.83,.28,1.2-.77-.16-1.4-.72-1.66-1.45Zm-5.76,0c-.26,.73-.89,1.28-1.66,1.45,.18-.36,.28-.77,.28-1.2v-.25h1.37Zm-5.37,.25c0-1.24,1.01-2.25,2.25-2.25h.25v2.25c0,.69-.56,1.25-1.25,1.25s-1.25-.56-1.25-1.25Zm8.2,11.25c-.91,0-1.75-.3-2.44-.8-.02-.01-.03-.03-.05-.04-1.03-.77-1.71-1.98-1.71-3.36,0-.17,.14-.3,.3-.3h7.89c.17,0,.3,.14,.3,.3,0,1.38-.68,2.59-1.71,3.36-.02,.01-.03,.02-.05,.04-.69,.5-1.53,.8-2.44,.8h-.11Z"/></g></svg>