<?xml version="1.0" encoding="UTF-8"?><svg fill="currentColor" xmlns="http://www.w3.org/2000/svg" viewBox="0 0 24 24"><g id="c"><g><path d="M8.43,2.25c-2.31,0-4.18,2.27-4.18,5.07,0,1.73,.77,3.36,2,4.29v8.52c0,1.15,1.01,2.08,2.25,2.08s2.25-.93,2.25-2.08V11.54c1.16-.93,1.87-2.51,1.87-4.22,0-2.79-1.88-5.07-4.18-5.07Zm1.16,8.28c-.21,.14-.34,.38-.34,.63v8.96c0,.32-.34,.58-.75,.58s-.75-.27-.75-.58V11.2c0-.26-.14-.51-.37-.64-.99-.6-1.63-1.87-1.63-3.25,0-1.97,1.2-3.57,2.68-3.57s2.68,1.6,2.68,3.57c0,1.35-.6,2.61-1.52,3.21Z"/><path d="M19.71,10.85c-.13-1.87-.41-5.76-3.32-7.75-.51-.35-1.08-.62-1.7-.82-.23-.07-.48-.03-.67,.11-.19,.14-.31,.37-.31,.6V20.23c0,1.18,1.01,2.13,2.25,2.13s2.25-.96,2.25-2.13v-5.42l.86-.82c.42-.4,.65-.92,.67-1.48,.02-.56,0-1.12-.03-1.67Zm-1.68,2.06l-1.09,1.04c-.15,.14-.23,.34-.23,.54v5.74c0,.35-.34,.63-.75,.63s-.75-.28-.75-.63V4.13c.11,.06,.22,.13,.33,.2,2.32,1.58,2.56,4.98,2.68,6.62,.04,.5,.05,1,.03,1.51,0,.21-.12,.36-.21,.44Z"/></g></g></svg>