<?xml version="1.0" encoding="UTF-8"?><svg fill="currentColor" xmlns="http://www.w3.org/2000/svg" viewBox="0 0 24 24"><g id="k"><path d="M18.1,9.92c-.1-.13-.23-.24-.37-.34,0-.03,.02-.05,.02-.08,0-4-2.58-7.25-5.75-7.25s-5.75,3.25-5.75,7.25c0,.03,.01,.05,.02,.08-.13,.1-.26,.21-.37,.34-.33,.43-.45,.97-.32,1.5l.72,2.88c.4,1.61,1.44,2.91,2.81,3.68l-1.22,1.82c-.26,.38-.28,.88-.06,1.28,.22,.41,.64,.66,1.1,.66h6.13c.46,0,.88-.25,1.1-.66,.22-.41,.19-.9-.06-1.28l-1.22-1.82c1.36-.77,2.41-2.08,2.81-3.68l.72-2.88c.13-.53,.02-1.07-.32-1.5ZM12,3.75c2.28,0,4.14,2.45,4.24,5.5H7.76c.1-3.05,1.96-5.5,4.24-5.5Zm2.6,16.5h-5.2l1.14-1.7c.47,.12,.96,.2,1.46,.2s.99-.08,1.46-.2l1.14,1.7Zm1.64-6.31c-.49,1.95-2.23,3.31-4.24,3.31s-3.75-1.36-4.24-3.31l-.72-2.88c-.03-.1,.02-.18,.05-.21,.03-.04,.09-.1,.2-.1h9.44c.11,0,.17,.06,.2,.1,.03,.04,.07,.11,.05,.21l-.72,2.88Z"/></g></svg>