<?xml version="1.0" encoding="UTF-8"?><svg fill="currentColor" xmlns="http://www.w3.org/2000/svg" viewBox="0 0 24 24"><g id="u"><path d="M20,13.75c.96,0,1.75-.79,1.75-1.75v-1c0-.96-.79-1.75-1.75-1.75h-1.33c-.32-2.02-1.91-3.6-3.92-3.92v-.33c0-.41-.34-.75-.75-.75s-.75,.34-.75,.75v.33c-2.02,.32-3.6,1.91-3.92,3.92h-1.58V5c0-1.52-1.23-2.75-2.75-2.75H3c-.41,0-.75,.34-.75,.75s.34,.75,.75,.75h2c.69,0,1.25,.56,1.25,1.25v4.25h-.25c-.96,0-1.75,.79-1.75,1.75v1c0,.96,.79,1.75,1.75,1.75h.25v2.62c-1.15,.33-2,1.38-2,2.63,0,1.52,1.23,2.75,2.75,2.75,1.25,0,2.3-.85,2.63-2h6.73c.33,1.15,1.38,2,2.63,2,1.52,0,2.75-1.23,2.75-2.75,0-1.25-.85-2.3-2-2.63v-2.62h.25Zm-6-7c1.53,0,2.82,1.07,3.16,2.5h-6.33c.34-1.43,1.63-2.5,3.16-2.5ZM5.75,12v-1c0-.14,.11-.25,.25-.25h14c.14,0,.25,.11,.25,.25v1c0,.14-.11,.25-.25,.25H6c-.14,0-.25-.11-.25-.25Zm1.25,8.25c-.69,0-1.25-.56-1.25-1.25s.56-1.25,1.25-1.25,1.25,.56,1.25,1.25-.56,1.25-1.25,1.25Zm13.25-1.25c0,.69-.56,1.25-1.25,1.25s-1.25-.56-1.25-1.25,.56-1.25,1.25-1.25,1.25,.56,1.25,1.25Zm-2-2.63c-.91,.26-1.62,.97-1.88,1.88h-6.73c-.26-.91-.97-1.62-1.88-1.88v-2.62h10.5v2.62Z"/></g></svg>