<?xml version="1.0" encoding="UTF-8"?><svg fill="currentColor" xmlns="http://www.w3.org/2000/svg" viewBox="0 0 24 24"><g id="h"><g><path d="M12.75,6.29v-.54h.25c.41,0,.75-.34,.75-.75s-.34-.75-.75-.75h-2c-.41,0-.75,.34-.75,.75s.34,.75,.75,.75h.25v.54c-4.47,.38-8,4.14-8,8.71v1c0,.41,.34,.75,.75,.75H20c.41,0,.75-.34,.75-.75v-1c0-4.57-3.53-8.33-8-8.71Zm6.5,8.96H4.75v-.25c0-4,3.25-7.25,7.25-7.25s7.25,3.25,7.25,7.25v.25Z"/><path d="M20,18.25H4c-.41,0-.75,.34-.75,.75s.34,.75,.75,.75H20c.41,0,.75-.34,.75-.75s-.34-.75-.75-.75Z"/></g></g></svg>