<?xml version="1.0" encoding="UTF-8"?><svg fill="currentColor" xmlns="http://www.w3.org/2000/svg" viewBox="0 0 24 24"><g id="n"><path d="M20,8.25c.29-.38,.33-.88,.12-1.31s-.64-.69-1.12-.69H10.73c0-.08,.02-.17,.02-.25,0-2.07-1.68-3.75-3.75-3.75s-3.75,1.68-3.75,3.75,1.68,3.75,3.75,3.75c.63,0,1.23-.17,1.78-.46l4.47,5.96v5h-1.25c-.41,0-.75,.34-.75,.75s.34,.75,.75,.75h4c.41,0,.75-.34,.75-.75s-.34-.75-.75-.75h-1.25v-5l5.25-7Zm-8.25,2.5h4.5l-2.25,3-2.25-3Zm5.63-1.5h-6.75l-.91-1.21c-.03-.1-.07-.2-.15-.29h8.93l-1.13,1.5ZM4.75,6c0-1.24,1.01-2.25,2.25-2.25s2.25,1.01,2.25,2.25c0,.08-.01,.17-.02,.25h-.23c-.48,0-.9,.26-1.12,.69-.18,.36-.17,.77,.01,1.12-.28,.12-.58,.19-.89,.19-1.24,0-2.25-1.01-2.25-2.25Z"/></g></svg>