<?xml version="1.0" encoding="UTF-8"?><svg fill="currentColor" xmlns="http://www.w3.org/2000/svg" viewBox="0 0 24 24"><g id="g"><path d="M20,13.25h-4.33c-.3-1.47-1.46-2.62-2.92-2.92v-1.58h4.25c.96,0,1.75-.79,1.75-1.75v-3c0-.96-.79-1.75-1.75-1.75H7c-.96,0-1.75,.79-1.75,1.75v3c0,.96,.79,1.75,1.75,1.75h4.25v1.58c-1.47,.3-2.62,1.46-2.92,2.92H4c-.96,0-1.75,.79-1.75,1.75v2c0,.06,0,.12,.02,.18,.33,1.32,1.35,2.32,2.59,2.55,1.27,.24,2.57-.36,3.33-1.43,1.07,.94,2.28,1.27,3.06,1.38v1.31c0,.41,.34,.75,.75,.75s.75-.34,.75-.75v-1.3c1.37-.18,2.4-.84,3.05-1.4,.65,.92,1.69,1.5,2.77,1.5,.19,0,.37-.02,.56-.05,1.24-.23,2.26-1.24,2.59-2.55,.01-.06,.02-.12,.02-.18v-2c0-.96-.79-1.75-1.75-1.75ZM6.75,7v-3c0-.14,.11-.25,.25-.25h10c.14,0,.25,.11,.25,.25v3c0,.14-.11,.25-.25,.25H7c-.14,0-.25-.11-.25-.25Zm5.25,4.75c.98,0,1.81,.63,2.12,1.5h-4.24c.31-.87,1.14-1.5,2.12-1.5Zm8.25,5.15c-.21,.71-.75,1.24-1.39,1.36-.91,.17-1.85-.48-2.14-1.47-.08-.27-.31-.48-.59-.53-.28-.05-.56,.06-.73,.29-.13,.17-1.33,1.7-3.4,1.7-.22,0-2.16-.05-3.4-1.7-.17-.23-.45-.34-.73-.29-.28,.05-.51,.25-.59,.53-.29,1-1.24,1.65-2.14,1.47-.64-.12-1.18-.65-1.39-1.36v-1.9c0-.14,.11-.25,.25-.25H20c.14,0,.25,.11,.25,.25v1.9Z"/></g></svg>