<?xml version="1.0" encoding="UTF-8"?><svg fill="currentColor" xmlns="http://www.w3.org/2000/svg" viewBox="0 0 24 24"><g id="d"><g><path d="M16.99,9.53c-.79-.6-1.24-1.47-1.24-2.38v-.5c0-2.42-1.97-4.39-4.39-4.39-1.5,0-2.87,.74-3.67,1.97-3.16,4.88-3.77,10.11-1.61,13.67,.48,.79,2.28,3.39,5.37,3.8,.29,.04,.59,.06,.9,.06,1.78,0,3.67-.67,5.11-1.84,1.44-1.17,2.31-2.74,2.43-4.43,.16-2.22-.92-4.45-2.9-5.96Zm1.4,5.85c-.12,1.62-1.09,2.73-1.88,3.37-1.36,1.1-3.27,1.68-4.86,1.46-2.43-.33-3.9-2.45-4.29-3.1-1.86-3.06-1.25-7.68,1.59-12.07,.51-.79,1.44-1.28,2.41-1.28,1.6,0,2.89,1.3,2.89,2.89v.5c0,1.38,.67,2.68,1.83,3.57,1.57,1.2,2.44,2.94,2.31,4.65Z"/><path d="M14.42,10.17c-1-.67-1.59-1.83-1.59-3.09,0-1.14-.93-2.06-2.06-2.06-.76,0-1.45,.41-1.81,1.07-1.12,2.06-2.74,6.04-1.01,9.67,.34,.7,1.23,2.57,3.23,3.16,.42,.12,.85,.18,1.29,.18,1.87,0,3.76-1.07,4.45-2.68,.87-2.02-.21-4.71-2.49-6.25Zm1.11,5.66c-.55,1.28-2.46,2.08-3.93,1.65-1.36-.4-2.02-1.78-2.3-2.36-1.5-3.14,.18-6.85,.97-8.31,.1-.18,.28-.29,.49-.29,.31,0,.56,.25,.56,.56,0,1.77,.84,3.39,2.25,4.33,1.86,1.25,2.46,3.23,1.95,4.41Z"/></g></g></svg>