<?xml version="1.0" encoding="UTF-8"?><svg fill="currentColor" xmlns="http://www.w3.org/2000/svg" viewBox="0 0 24 24"><g id="i"><g><path d="M16,2.25h-6c-2.36,0-4.31,1.74-4.67,4h-1.33c-.41,0-.75,.34-.75,.75s.34,.75,.75,.75h1.25v3.5h-1.25c-.41,0-.75,.34-.75,.75s.34,.75,.75,.75h1.25v3.5h-1.25c-.41,0-.75,.34-.75,.75s.34,.75,.75,.75h1.33c.36,2.26,2.31,4,4.67,4h6c2.62,0,4.75-2.13,4.75-4.75V7c0-2.62-2.13-4.75-4.75-4.75Zm3.25,14.75c0,1.79-1.46,3.25-3.25,3.25h-6c-1.79,0-3.25-1.46-3.25-3.25V7c0-1.79,1.46-3.25,3.25-3.25h6c1.79,0,3.25,1.46,3.25,3.25v10Z"/><path d="M17,11.25h-.25v-.25c0-1.81-1.29-3.33-3-3.67v-.33c0-.41-.34-.75-.75-.75s-.75,.34-.75,.75v.33c-1.71,.35-3,1.86-3,3.67v.25h-.25c-.41,0-.75,.34-.75,.75s.34,.75,.75,.75h8c.41,0,.75-.34,.75-.75s-.34-.75-.75-.75Zm-6.25,0v-.25c0-1.24,1.01-2.25,2.25-2.25s2.25,1.01,2.25,2.25v.25h-4.5Z"/><path d="M15,15.25h-4c-.41,0-.75,.34-.75,.75s.34,.75,.75,.75h4c.41,0,.75-.34,.75-.75s-.34-.75-.75-.75Z"/></g></g></svg>