<?xml version="1.0" encoding="UTF-8"?><svg fill="currentColor" xmlns="http://www.w3.org/2000/svg" viewBox="0 0 24 24"><g id="p"><path d="M21,6.75c.41,0,.75-.34,.75-.75s-.34-.75-.75-.75h-6.25v-1.5h6.25c.41,0,.75-.34,.75-.75s-.34-.75-.75-.75H7c-.41,0-.75,.34-.75,.75s.34,.75,.75,.75h2.25v1.5h-2.25c-.41,0-.75,.34-.75,.75s.34,.75,.75,.75h2.25v4.5H3c-.22,0-.42,.09-.56,.25-.14,.16-.21,.38-.18,.59,.15,1.17,.52,2.27,1.09,3.28,.86,1.49,1.99,2.46,2.9,3.05v1.58c0,.96,.79,1.75,1.75,1.75h8c.96,0,1.75-.79,1.75-1.75v-1.58c.91-.59,2.05-1.55,2.9-3.05,.58-1.01,.94-2.11,1.09-3.28,.03-.21-.04-.43-.18-.59-.14-.16-.35-.25-.56-.25h-6.25V6.75h6.25ZM10.75,3.75h.5v7.5h-.5V3.75Zm5.5,16.25c0,.14-.11,.25-.25,.25H8c-.14,0-.25-.11-.25-.25v-1.25h8.5v1.25Zm3.1-5.37c-.76,1.32-1.78,2.14-2.56,2.62H7.21c-.78-.48-1.8-1.3-2.56-2.62-.34-.59-.59-1.22-.75-1.88H20.1c-.16,.66-.41,1.29-.75,1.88Zm-6.6-3.38V3.75h.5v7.5h-.5Z"/></g></svg>