<?xml version="1.0" encoding="UTF-8"?><svg fill="currentColor" xmlns="http://www.w3.org/2000/svg" viewBox="0 0 24 24"><g id="e"><g><path d="M21.42,15.58l-1.69-6.76s-.02-.04-.03-.06c-.01-.03-.03-.07-.04-.1-.03-.05-.06-.1-.09-.14-.02-.03-.04-.05-.07-.07-.04-.04-.09-.07-.15-.1-.03-.01-.05-.03-.08-.04-.09-.03-.18-.05-.27-.05H5.78c-.8,0-1.5,.54-1.7,1.33l-1.5,6c-.13,.53-.02,1.07,.32,1.5s.84,.67,1.38,.67h15.44c.54,0,1.05-.25,1.38-.67s.45-.97,.32-1.5Zm-17.33,.58s-.07-.11-.05-.21l1.5-6c.03-.11,.13-.19,.24-.19h12.26l-1.63,6.5H4.28c-.11,0-.17-.06-.2-.1Zm15.83,0s-.09,.1-.2,.1h-1.76l1.04-4.16,.96,3.85c.03,.1-.02,.18-.05,.21Z"/><path d="M15,11.25h-7c-.41,0-.75,.34-.75,.75s.34,.75,.75,.75h7c.41,0,.75-.34,.75-.75s-.34-.75-.75-.75Z"/><path d="M14,13.25H7c-.41,0-.75,.34-.75,.75s.34,.75,.75,.75h7c.41,0,.75-.34,.75-.75s-.34-.75-.75-.75Z"/></g></g></svg>