<?xml version="1.0" encoding="UTF-8"?><svg fill="currentColor" xmlns="http://www.w3.org/2000/svg" viewBox="0 0 24 24"><g id="q"><path d="M21.56,10.5c-.14-.16-.35-.25-.56-.25h-.02c.05-.5-.02-1.07-.33-1.62-.42-.74-1.17-1.23-2-1.36-.14-.56-.46-1.32-1.2-1.87-.95-.7-2.24-.8-3.35-.3-.59-.45-1.28-.74-1.99-.84-1.49-.21-2.63,.43-3.24,.88-.59-.18-1.44-.25-2.24,.21-.72,.41-1.2,1.13-1.35,1.93-.8,.14-1.52,.63-1.93,1.35-.32,.55-.38,1.12-.33,1.62h-.02c-.22,0-.42,.09-.56,.25s-.21,.38-.18,.59c.15,1.17,.52,2.27,1.09,3.28,.85,1.49,1.99,2.46,2.9,3.05v1.58c0,.96,.79,1.75,1.75,1.75h8c.96,0,1.75-.79,1.75-1.75v-1.58c.91-.59,2.05-1.55,2.9-3.05,.58-1.01,.94-2.11,1.09-3.28,.03-.21-.04-.43-.18-.59Zm-16.91-1.13c.25-.44,.76-.68,1.27-.63,.22,.02,.45-.05,.61-.22,.16-.16,.24-.38,.22-.61-.05-.52,.19-1.02,.63-1.27,.6-.34,1.24,0,1.26,0,.29,.16,.64,.11,.88-.11,.17-.17,1.11-.98,2.38-.8,.78,.11,1.32,.54,1.58,.79,.25,.25,.64,.28,.94,.09,.69-.45,1.55-.46,2.14-.02,.65,.48,.69,1.32,.7,1.42,0,.21,.1,.41,.26,.54,.16,.14,.36,.21,.57,.18,.51-.06,1.02,.19,1.27,.63,.18,.31,.17,.63,.12,.88H4.53c-.05-.24-.06-.57,.12-.88Zm11.6,9.63c0,.14-.11,.25-.25,.25H8c-.14,0-.25-.11-.25-.25v-1.25h8.5v1.25Zm3.1-5.37c-.75,1.32-1.78,2.14-2.56,2.62H7.21c-.78-.48-1.8-1.3-2.56-2.62-.34-.59-.59-1.22-.75-1.88H20.1c-.16,.66-.41,1.29-.75,1.88Z"/></g></svg>