<?xml version="1.0" encoding="UTF-8"?><svg fill="currentColor" xmlns="http://www.w3.org/2000/svg" viewBox="0 0 24 24"><g id="o"><path d="M21,14.25h-1.25V6c0-.77-.47-1.42-1.2-1.66-.73-.24-1.49,0-1.95,.61l-1.75,2.33c-.28-.62-.88-1.03-1.57-1.03h-2.56c-.69,0-1.29,.41-1.57,1.03l-1.75-2.33c-.46-.61-1.22-.85-1.95-.61-.73,.24-1.2,.89-1.2,1.66V14.25h-1.25c-.41,0-.75,.34-.75,.75v3c0,.41,.34,.75,.75,.75h.69l2.19,2.19c.52,.52,1.21,.81,1.94,.81h8.34c.73,0,1.43-.29,1.94-.81l2.19-2.19h.69c.41,0,.75-.34,.75-.75v-3c0-.41-.34-.75-.75-.75Zm-3.2-8.4c.09-.12,.2-.11,.28-.09,.08,.03,.17,.09,.17,.24V14.25h-3.87l-1.44-1.92,4.86-6.48Zm-7.32,2.07c.03-.1,.13-.17,.24-.17h2.56c.11,0,.2,.07,.24,.17l.26,.79-1.78,2.37-1.78-2.37,.26-.79Zm-4.73-1.92c0-.15,.09-.21,.17-.24,.08-.03,.19-.03,.28,.09l6.3,8.4H5.75V6ZM3.75,15.75H20.25v1.5H3.75v-1.5Zm13.31,4.13c-.24,.24-.55,.37-.88,.37H7.83c-.33,0-.65-.13-.88-.37l-1.13-1.13h12.38l-1.13,1.13Z"/></g></svg>