<?xml version="1.0" encoding="UTF-8"?><svg fill="currentColor" xmlns="http://www.w3.org/2000/svg" viewBox="0 0 24 24"><g id="f"><path d="M20,11.25H11.73l-.3-.8c-.39-1.04-1.17-1.86-2.18-2.32-.65-.29-1.14-.82-1.4-1.48l-1.27-3.35c-.34-.9-1.35-1.36-2.26-1.02l-.93,.35c-.44,.17-.78,.49-.98,.92-.19,.43-.21,.9-.04,1.34l.71,1.87h0l.56,1.48c.25,.67,.23,1.39-.06,2.04-.19,.41-.28,.85-.32,1.3-.13,.09-.26,.2-.37,.33-.33,.42-.46,.95-.34,1.47l1.38,6.22c.28,1.27,1.39,2.15,2.68,2.15H15.4c1.3,0,2.4-.89,2.68-2.15l.19-.85h.73c.96,0,1.75-.79,1.75-1.75v-5c0-.41-.34-.75-.75-.75Zm-11.38-1.75c.65,.29,1.15,.82,1.4,1.49l.1,.27H4.82c.03-.12,.07-.24,.12-.36,.46-1.01,.49-2.15,.1-3.19l-.3-.78,1.4-.53,.3,.78c.39,1.04,1.17,1.87,2.18,2.32ZM3.77,4.16s.05-.1,.14-.13l.93-.35c.13-.05,.27,.02,.32,.15l.44,1.17-1.4,.53-.44-1.17c-.03-.08,0-.16,0-.19Zm12.84,15.11c-.13,.58-.63,.98-1.22,.98H6.6c-.59,0-1.09-.4-1.22-.98l-1.38-6.22c-.02-.1,.02-.17,.05-.21s.09-.09,.19-.09H14.25v4.25c0,.96,.79,1.75,1.75,1.75h.73l-.12,.52Zm2.63-2.27c0,.14-.11,.25-.25,.25h-3c-.14,0-.25-.11-.25-.25v-4.25h3.5v4.25Z"/></g></svg>